<svg id="Layer_1" data-name="Layer 1" xmlns="http://www.w3.org/2000/svg" viewBox="0 0 143.63 35.88"><defs><style>.cls-1{fill:#ee203b;}</style></defs><path class="cls-1" d="M142,18.9a1.63,1.63,0,0,1,1.63,1.66,1.64,1.64,0,0,1-3.28,0A1.63,1.63,0,0,1,142,18.9M142,22a1.4,1.4,0,0,0,0-2.8,1.4,1.4,0,0,0,0,2.8m-.64-2.37h.73c.46,0,.67.19.67.55a.49.49,0,0,1-.51.53l.54.85h-.28l-.53-.83h-.33v.83h-.29Zm.29.87H142c.25,0,.51,0,.51-.32s-.23-.31-.42-.31h-.4Z"/><path class="cls-1" d="M39.43,5.25c-.7.06-3.65.73-4.63.94s-10.74,7.75-11.39,9.59a14.27,14.27,0,0,0-.19,2.55l-.07,1.47a26.58,26.58,0,0,0,.44,3.7c.64.14,5.24,0,6.08.14l-.11,1.92c-.83-.09-6.67,0-10,0-1.7,0-7.15.18-8.82.13l.32-1.8c.91-.09,4.72.15,5.56-.74.4-.44.26-.9.26-3.42V18.46a20.6,20.6,0,0,0-.13-2.61c-.36-1.06-8.87-11.7-11.06-13.4C5,2.26,1.05,1.85.07,1.62L0,0C.51-.25,4.93.06,9.24-.09c2.82-.1,9.27,0,10.07.09l-.22,1.44c-.84.21-4.93.3-6,.56,2.74,4.09,7.12,9.38,8.51,11.45.78-1.16,7.61-5.86,7.82-7.48-1.06-.21-4.56-.72-5.13-.72L24,3.4c1-.15,6,0,8.55,0,2.18,0,6.81,0,8.11.11l-1.2,1.74"/><path class="cls-1" d="M54,24.75c-.31,0-3.86,0-5.13,0l-5.29,0L43.8,23c.89-.05,2.55-.42,3.3-.5-.48-1.11-2.08-4.66-2.45-5.33a48.26,48.26,0,0,0-5.23.3,7.1,7.1,0,0,0-1.66,3.24c.61.14,1.8.39,2.5.49L40,22.93c-.76,0-3.76.05-4.48,0s-3.78,0-4.36.11l.55-1.8c.72-.1,2.36-.61,3-.73.93-1.34,5.25-9.8,5.61-10.6-.57-.13-1.55-.59-2.18-.69L38.05,8c.76.06,4.52.18,4.92.16.89-.06,4.23-.06,5-.09l-.28,1.22a20.24,20.24,0,0,0-2.39.51c.32.92,1.56,4,2.49,6.17a68.11,68.11,0,0,0,3,6.57c.77.13,2.51.64,3.29.68l0,.44L54,24.75M42.39,10.59l-.06-.27c-.79,1.86-2.15,4.79-2.42,5.51H44.3c-.54-1.37-1.53-4.09-1.91-5.24"/><path class="cls-1" d="M80.11,20.17c-.63-.05-3.56-.05-5.09,0-1.2,0-4.09-.11-5.45-.06l-.11-1.66c.46-.05,3.43-.25,4-.35a22.64,22.64,0,0,0,.09-3.24l-.08-2c-1.51,0-11.51.5-11.91.57l-.75.08a18.86,18.86,0,0,0,.35,4.53c.79.16,3.67.34,4.3.43l0,1.82c-.72,0-5.15,0-6.52,0-1.65,0-5.69,0-6.63,0l.13-1.88c.76-.05,3.63-.33,4.25-.44.08-1.22.13-3.15.13-5.18V10.32c0-.84-.05-3.29-.09-4.16-.61-.1-3.48-.28-4.33-.34L52.22,4.4c.55,0,4.5-.06,6.58-.06s6.33,0,6.84,0l-.15,1.48c-.88.06-3.86.29-4.39.39a14.22,14.22,0,0,0-.29,3.59L60.76,11c.84,0,11.37,0,12.7-.24V9.13c0-2.09.32-4.33.07-5-.51-.12-3.32-.52-4.23-.58l.13-1.51c.57.07,3.23,0,5.19.09s5.11.09,5.71,0L80.19,3.4c-.6,0-3.35.75-3.35.75a16.81,16.81,0,0,0,0,3.16c.13,1.55.15,4.56.15,4.56.09,3.39.29,6.14.11,6.28s2.17.3,2.83.41l.26.44,0,1.17"/><path class="cls-1" d="M104.47,12.28c.22,5.76-5.06,8.63-11.89,8.63a18.41,18.41,0,0,1-9.28-2.32c-2.29-1.4-2.69-3.18-2.69-5.43,0-4.65,5.06-8.5,12.81-8.43,2.94,0,5.78.44,8.09,2.25,2,1.58,2.38,2.36,2.77,4.1l.19,1.2m-3.82.4c.18-4.77-3.55-6-8.26-5.7-2.48.14-7.52,1.45-7.52,5.7s3.86,6.46,9,6c4-.34,6.08-1.8,6.61-3.83Z"/><path class="cls-1" d="M139,15.73l-3.05-.29c.31-1.55,0-13.42,0-14.69l-.17-2.5c.85.18.74.1,4.32.46,2.2.22,2.49.32,3.2.36l-.94,3c-.81,2.36-3.13,12.92-3.38,13.71M136.88,22l-1.62-.13,0-3.57,2.06.26,1.88.1-.53,3.47Z"/><path class="cls-1" d="M133.14,9.94c.42,5.41-5.83,9.88-13.63,9.88a15.08,15.08,0,0,1-9.22-2.51c-2.64-1.74-3.9-3.27-4.23-6.23-.58-5.26,5.78-9.69,14.6-9.64,3.38,0,6.62.51,9.24,2.56a8.11,8.11,0,0,1,3.18,5.55l.06.39m-4.07.76c.32-5.18-4.67-7.08-10-6.7-2.82.19-8.09,1.85-8.09,6.7s4.41,7.22,10.28,6.7c4.52-.4,6.43-2.11,7.46-4.44a7,7,0,0,0,.4-2.26"/><path class="cls-1" d="M94.25,24.79c-.28.05-1.79.12-2.32.19-.07.43-.09,1.85-.09,2.18v3.73a3.92,3.92,0,0,1-.77,2.72,9.21,9.21,0,0,1-2.76,2.27l-1-.13A4.39,4.39,0,0,0,89,33.4a19.86,19.86,0,0,0,.39-5.34V27.2A15,15,0,0,0,89.28,25c-.39-.05-2.3-.14-2.75-.19l0-1.05c.4.06,3.53.07,4.42.07l3.44,0-.11,1"/><path class="cls-1" d="M104.87,34.41c-.15,0-2,0-2.68,0l-2.78,0,.09-.9,1.87-.12c-.26-.58-1.13-2.58-1.33-2.93a32.63,32.63,0,0,0-3.27.07A5,5,0,0,0,96,32.34c.34,0,1.29.08,1.67.12v1a16.32,16.32,0,0,1-2.32,0c-.34,0-1.92,0-2.23,0l.07-1c.36,0,1,0,1.36,0,.49-.7,3-5.7,3.19-6.14-.3-.07-1.33-.07-1.66-.12l.07-.93c.4,0,2.47.06,2.67.06.57,0,2.4,0,2.8,0l-.11,1a8.58,8.58,0,0,0-1.54.12c.17.48.88,2.19,1.38,3.35a33.73,33.73,0,0,0,1.78,3.65c.4.06,1.29.12,1.72.15v.92m-6.13-7.84c-.43,1-1.51,2.84-1.64,3.21l2.76,0c-.26-.71-.93-2.64-1.12-3.24"/><path class="cls-1" d="M124.48,34.41c-.18,0-2,0-2.69,0l-2.77,0,.09-.9,1.87-.12c-.28-.58-1.15-2.58-1.35-2.93a32,32,0,0,0-3.25.07,4.36,4.36,0,0,0-.76,1.83c.31,0,1.29.08,1.65.12l0,1a16.32,16.32,0,0,1-2.32,0c-.34,0-1.93,0-2.23,0l0-1c.42,0,1.07,0,1.4,0,.49-.7,3-5.7,3.2-6.14-.31-.07-1.36-.07-1.67-.12l.05-.93c.41,0,2.48.06,2.68.06.55,0,2.4,0,2.81,0l-.12,1a8.77,8.77,0,0,0-1.55.12c.17.48.89,2.19,1.4,3.35a35.36,35.36,0,0,0,1.76,3.65c.4.06,1.31.12,1.72.15l0,.22v.7m-6.15-7.84c-.4,1-1.49,2.84-1.62,3.21l2.77,0c-.3-.71-.94-2.64-1.15-3.24"/><path class="cls-1" d="M112,29.81a3.9,3.9,0,0,1-2.25.9l0-.81c.44-.1,1.86,0,1.86-1.67,0-.68-.2-1.61-.88-1.89a8.48,8.48,0,0,0-2.19-.27c0,.32-.06,1.85-.06,2.8v.45c0,.94,0,2.39.07,2.72.31,0,1.8.12,2.19.15l-.06.8-3,0-2.79,0,.17-.81c.18,0,1.28-.14,1.59-.2a22.2,22.2,0,0,0,.1-2.75v-.44c0-.35,0-2.32-.08-2.67-.25-.06-1.32-.11-1.64-.15l-.17-.95h3.42a10.8,10.8,0,0,1,3.14.32c1.17.38,1.41,2.32,1.41,2.58a2.46,2.46,0,0,1-.85,1.89"/><path class="cls-1" d="M136.46,26.89l-1.34.13A10.25,10.25,0,0,0,135,29c0,.51,0,4.51-.12,4.93-.39-.29-4.16-3.92-4.5-4.2-.17-.16-2.65-2.77-3.07-3.19a49.16,49.16,0,0,0,.07,5.4c.21.05,1.72.12,2,.17l0,.81c-.21,0-2.1,0-2.44-.06s-1.92,0-2.3.06V32a11.63,11.63,0,0,0,1.38-.12,54.41,54.41,0,0,0,.2-5.94c-.33,0-1.06-.06-1.54-.07V24.83c.7,0,2.08,0,3.08,0,.3.37,3.09,3.35,3.33,3.53s2.39,2.53,2.79,2.79c0-1.18.2-3.53-.05-4.1-.24,0-1.48-.14-1.84-.16l-.06-1,2.48,0,2.18,0-.09,1"/></svg>