<?xml version="1.0" encoding="utf-8"?>
<!-- Generator: Adobe Illustrator 23.0.5, SVG Export Plug-In . SVG Version: 6.00 Build 0)  -->
<svg version="1.1" id="Layer_1" xmlns="http://www.w3.org/2000/svg" xmlns:xlink="http://www.w3.org/1999/xlink" x="0px" y="0px"
	 viewBox="0 0 878.14 878.14" style="enable-background:new 0 0 878.14 878.14;" xml:space="preserve">
<style type="text/css">
	.st0{fill:#7A6D79;}
	.st1{fill:#DB8658;}
	.st2{fill:#89C8FD;}
	.st3{fill:#FEE077;}
	.st4{fill:#9AE59C;}
	.st5{fill:#FD76A7;}
	.st6{fill:#60B6FE;}
	.st7{fill:#C47A44;}
	.st8{fill:#FEDECE;}
	.st9{fill:#AD6C6C;}
	.st10{fill:#FDCD84;}
	.st11{fill:#6FD6A2;}
	.st12{fill:#685E68;}
	.st13{fill:#FD5693;}
	.st14{fill:#F4F7F8;}
	.st15{fill:#D7EBFD;}
	.st16{fill:#F8F6F7;}
	.st17{fill:#9A5E5E;}
	.st18{fill:#C47A45;}
	.st19{fill:#EE5249;}
	.st20{fill:#FEC019;}
	.st21{fill:#87BE40;}
	.st22{fill:#0092B9;}
	.st23{fill:#F4BD99;}
	.st24{fill:#F9AB2B;}
	.st25{fill:#047FA6;}
	.st26{fill:#E7493F;}
	.st27{fill:#7CA440;}
	.st28{fill:#EB917F;}
</style>
<path class="st0" d="M449.43,28.11c8.43,3.7,17.72,5.33,25.3,11.06c11.25,8.51,21.27,17.88,24.52,32.41
	c-3.15,14.08-12.81,23.17-24.24,30.48c-32.43,20.74-74.57,11.02-94.85-21.6c-1.7-2.73-3.56-5.4-3.15-8.88
	c6.02-20.85,21-32.65,40.33-40.17c3.14-1.22,6.87-0.69,9.5-3.31C434.37,28.11,441.9,28.11,449.43,28.11z"/>
<path class="st1" d="M549.67,245.79c0.42,0.19,0.83,0.38,1.24,0.58c0.18,0.8,0.33,1.83-0.26,2.28
	c-12.86,9.61-13.59,24.81-17.7,38.43c-1.47,4.86-2.43,9.87-3.88,14.74c-1.61,5.61-3.19,11.16-3.36,17.11
	c-0.2,7.24,1.32,13.65,6.49,18.98c1.65,1.7,3.3,3.51,3.18,6.18c-0.43,0.75-1.05,1.29-1.85,1.64c-16.25,2.08-29.85,11.17-44.73,16.9
	c-8.19,3.15-15.77,7.92-24.6,9.44c-12.68-1.92-23.7-8.36-35.31-13.15c-27.55-11.37-54.95-23.12-82.46-34.6
	c-8.62-3.6-13.28-1.88-16.75,6.54c-10.86,26.31-22.22,52.42-33.12,78.71c-4.72,11.38-3.09,14.88,8.46,19.78
	c39.06,16.57,78.34,32.64,117.22,49.62c6.28,4.28,7.53,11.6,10.31,17.83c11.34,25.47,22.11,51.2,33.51,76.65
	c0.66,1.47,1.11,3.02,1.15,4.66c0.04,2.8-1.45,5.02-2.69,7.37c-6.95,13.18-5.63,22.57,4.63,33.2c2.58,2.67,5.29,5.21,8.01,7.76
	c4.53,4.57,9.3,8.9,13.55,13.71c9.01,10.2,5.63,21.19-7.55,23.58c-9.94,1.81-19.87,4.47-30.16,3.46
	c-20.76-2.86-41.1-7.42-60.6-15.28c-2.98-1.2-6.06-2.21-8.56-4.35c-2.57-3.46,0.37-5.5,2.22-7.53c4.53-4.96,9.47-9.54,14.11-14.4
	c3.23-3.22,6.66-6.27,9.62-9.75c9.01-10.59,8.23-24.86-1.81-34.87c-9.42-9.4-25.2-10-35.13-1.26c-3.23,2.84-6.11,6.04-9.16,9.07
	c-7.77,7.4-15.16,15.18-22.87,22.64c-2.24,2.17-4.18,5.09-8.02,4.55c-28.04-23.36-49.73-51.48-63.98-85.19
	c-2.29-5.43-4.51-10.89-6.53-16.42c-1.27-3.47-2.92-7.07-0.2-10.68c3.16-1.87,6.26-0.36,9.35,0.24c13.72,2.7,27.23-5.24,30.79-18.15
	c3.61-13.06-3.58-26.71-16.67-31.66c-4.78-1.8-9.75-2.89-14.68-4.18c-6.32-2.1-13.23-2.54-18.83-6.69
	c-3.74-11.75-1.18-23.46,0.66-35.05c15.27-96.03,83.36-168.23,178.16-189.21c7.34-1.62,14.87-2.16,22.24-3.65
	c16.26-0.14,31.93,3.34,47.49,7.6c13.52,3.7,26.33,9.27,39.1,14.94C543.64,239.71,547.19,242.09,549.67,245.79z"/>
<path class="st1" d="M533.21,344.5c0.63-0.04,1.27-0.09,1.9-0.13c2.02-1.71,4.03-0.5,6.02,0.05c20.36,5.66,36.77-6.65,37.17-27.93
	c0.02-1.05-0.35-2.1-0.01-3.16c4.03-5.03,4.37-11.43,6.41-17.19c1.26-3.56,2.52-6.98,6.03-9.16c5.14-3.18,9.61-3.73,14.33,1.11
	c11.87,12.18,21.54,25.97,29.93,40.65c8.93,15.62,16,32.11,21.29,49.35c4.39,15.68,7.5,31.58,8.5,47.84
	c0.33,5.33-0.04,10.62-1.5,15.78c3.34,13.49,0.53,26.77-1.94,39.92c-8.4,44.74-27.71,83.99-59.94,116.52
	c-12.42,12.88-25.87,24.51-41.04,34.08c-2.96,1.87-5.85,3.66-9.45,3.87c-0.29,0.07-0.56,0.17-0.83,0.3c-0.25-0.1-0.69-0.17-0.71-0.3
	c-2.6-17.28-16.44-26.46-27.24-37.82c-2.93-3.09-6.02-6.02-9.05-9.01c-1.91-2.46-5.14-4.27-4.15-8.2
	c6.48-6.57,15.55-8.22,23.45-12.05c10.63-5.16,21.85-9.08,32.49-14.27c10.83-5.29,12.11-8.82,7.43-19.71
	c-3.82-8.89-7.42-17.88-11.6-26.62c-1.38-2.88-2.88-5.84-1.88-9.25c6.07-4.63,13.46-6.52,20.27-9.62c12.3-5.61,13.48-9.38,8.07-21.9
	c-14.71-34.06-29.71-67.99-44.26-102.11C539.86,358.42,535.8,351.8,533.21,344.5z"/>
<path class="st2" d="M513.8,587.75c9.93,9.76,19.94,19.43,29.75,29.31c5.26,5.29,6.09,12.3,6.53,19.34
	c-0.12,24.89-0.12,49.78-0.4,74.66c-0.35,30.97-17.91,51.15-48.54,56.14c-3.6-1.18-4.05-4.76-5.56-7.46
	c-16.92-30.31-48.31-42.71-79.84-31.45c-6.63,2.37-12.42,6.16-17.97,10.41c-2.31,1.77-4.62,5.27-8.09,1.46
	c-4.98-9.17-7.36-18.94-7.27-29.38c0.11-13.16-0.02-26.31,0.06-39.47c0.02-3.72-0.39-7.58,2.03-10.88c2.35-1.76,5.05-1.68,7.68-1.17
	c19.95,3.89,40.26,4.17,60.4,6.07c10.99-0.02,21.73-2.06,32.42-4.3c9.41-1.98,11.89-10.74,5.13-18.02
	c-5.08-5.46-10.34-10.77-15.51-16.15C485.32,611.49,498.3,598.36,513.8,587.75z"/>
<path class="st3" d="M654.2,376.85c-8.28-22.41-17.43-44.38-31.59-63.88c-5.83-8.03-11.51-16.16-18.63-23.17
	c-5.49-5.4-13.21-3.97-16.06,3.44c-1.91,4.98-3.21,10.22-4.42,15.43c-0.68,2.91-1.63,5.09-4.93,5.38c-1.87,1.58-4,1.24-6.09,0.7
	c-13.42-3.54-26.83-7.14-40.23-10.75c-2.12-0.57-3.93-1.65-5.27-3.43c2.61-9.25,5.93-18.37,7.64-27.78
	c2.03-11.19,6.96-20.02,16.3-26.42c19.58-11.17,39.35-22.03,58.7-33.59c20.55-12.29,41.23-16.31,63.09-3.71
	c6.4,3.69,11.57,8.66,15.79,14.68c1.68,3.44-1.02,5.51-2.56,7.84c-22.29,33.54-10.77,76.22,25.34,93.86
	c3.05,1.49,6.76,2.07,8.61,5.49c0.45,7.81-5.11,12.03-10.27,16.08c-14.14,11.09-30.73,18.24-45.84,27.81
	C660.98,376.58,657.99,379.07,654.2,376.85z"/>
<path class="st0" d="M252.55,442.72c6.45,1.76,12.89,3.52,19.34,5.27c0.59,1.55,0.82,3.18,0.4,4.75
	c-4.47,16.57-7.75,33.47-13.96,49.54c-3.25,2.81-6.63,0.83-9.89,0.12c-4.17-0.91-8.14-2.78-12.42-3.19
	c-8.75-0.83-12.68,3.9-9.88,12.04c7.35,21.37,17.18,41.5,30.63,59.75c4.44,6.03,8.91,12.02,14.03,17.53
	c2.46,2.64,5.41,5.38,4.51,9.73c-17.42,11.49-35.32,22.17-54.26,30.92c-5.87,2.71-12.58,5.04-19.18,0.98
	c-1.58-2.46-1.21-5.13-0.86-7.82c5.16-39.48-27.87-72.34-62.71-70.87c-4.82,0.2-10.28,1.87-14.47-2.5
	c-9.8-32.93-1.01-54.85,29.05-72.26c17.82-10.32,35.72-20.5,53.46-30.95c2.42-1.43,6.73-1.72,5.93-6.38
	c-1.43-2.03-0.62-2.99,1.57-3.31c3.07,1.49,6.17,0.53,9.31,0.2C233.65,435.17,243.62,436.62,252.55,442.72z"/>
<path class="st4" d="M599.78,597.8c16.8-18.28,31.14-38.21,41.69-60.82c13.94-29.87,21.36-61.14,21.19-94.15
	c0.34-0.7,0.77-0.73,1.28-0.18c20.25,11.61,40.36,23.44,60.77,34.76c23.33,12.94,39.49,37.19,27.74,71.69
	c-3.17,3.59-7.52,2.7-11.32,2.37c-31.39-2.72-63.01,21.9-66.57,58.59c-0.65,6.71,2.75,13.26-0.03,19.85
	c-3.13,3-6.94,2.26-10.61,1.75c-5.9-0.82-11.36-3.04-16.5-5.97C631.43,616.59,615.12,608.03,599.78,597.8z"/>
<path class="st5" d="M549.67,245.79c-23.82-12.92-48.82-22.53-75.79-26.31c-7.08-0.99-14.08-3.07-21.36-2.36
	c-20.3,2.13-40.8,2.22-60.91,6.22c-2.37,0.47-4.78,0.39-6.92-1.05c-2.64-3.2-2.21-7.08-2.23-10.8c-0.09-13.17,0.07-26.34-0.07-39.51
	c-0.11-10.45,2.25-20.23,7.13-29.43c3.77-4.27,6.21-0.24,8.66,1.65c18.41,14.19,38.65,17.63,60.72,10.6
	c16.55-5.27,27.64-16.83,36.09-31.43c1.7-2.93,2.2-6.78,6.09-8.06c31.28,5.36,48.49,25.59,48.55,57.19
	C549.69,196.94,549.67,221.36,549.67,245.79z"/>
<path class="st2" d="M187.71,223.79c17.17-22.46,44.53-29.09,69.29-15.82c20.52,11,40.47,23.07,60.68,34.65
	c2.32,1.33,4.72,2.5,7.08,3.74c-0.24,4.37-4.29,5.08-6.97,6.83c-35.17,22.99-62,53.34-80.67,90.94c-4.18,8.42-7.27,17.3-10.72,26.02
	c-1.08,2.71-1.67,5.73-4.57,7.32c-3.18,0.98-5.82-0.55-8.3-2.07c-13.03-7.95-26.6-14.96-39.53-23.05
	c-5.66-3.54-11.17-7.44-14.99-13.14c-1.63-2.43-3.49-4.83-2.67-8.1c1.72-3.55,5.48-4.09,8.51-5.58
	c36.21-17.73,47.81-60.35,25.54-93.89C188.83,229.31,186.18,227.23,187.71,223.79z"/>
<path class="st6" d="M384.94,660.53c-0.02,17.94,0.19,35.88-0.15,53.81c-0.19,9.69,4.98,17.87,6.5,27.02
	c0.82,1.34,0.43,2.71-0.5,3.6c-6.69,6.41-9.19,15.75-15.66,22.31c-26.47-2.92-46.37-23.57-48.54-49.68
	c-1.98-23.84-0.43-47.69-1.02-71.53c-0.08-3.2-0.37-6.39-0.56-9.59c-0.05-0.39-0.1-0.79-0.16-1.18c0.38-7.59,0.28-15.38,8.49-19.57
	c9.74-9.35,19.48-18.69,29.23-28.04c0.55-0.06,1.2-0.16,1.57,0.15c13.54,11.4,26.02,23.86,37.4,37.42c0.31,0.37,0.23,1.03,0.23,1.57
	c-6.01,6.48-12.02,12.95-18.03,19.43C386.09,650.84,386.05,655.64,384.94,660.53z"/>
<path class="st7" d="M221.83,376.83c8.22-23.06,18.11-45.26,32.35-65.38c18.93-26.73,42.97-47.82,70.57-65.09
	c0.54-0.22,1.09-0.45,1.63-0.67c6.11-7.9,15.51-10.25,24.07-13.72c11.09-4.5,21.96-10.14,34.44-10.04
	c22.35-4.26,44.86-6.41,67.63-4.82c-11.83,3.05-24.01,4.24-35.82,7.61c-29.56,8.43-56.24,22.13-80.21,41.34
	c-33.74,27.06-57.77,61.09-71.98,101.77c-8.42,24.11-12.95,49.13-11.96,74.89c-12.01-2.54-23.76-7.98-36.44-2.66
	c-3.07,1.29-1.85-2.26-2.69-3.52c-2.31-2.71-2-6.03-1.94-9.2c0.29-15.07,3.01-29.78,6.82-44.32
	C218.92,380.65,220.04,378.54,221.83,376.83z"/>
<path class="st0" d="M86.42,308.92c-16.87-19.51-19.73-48.86-7.06-72.38c13.44-24.96,39.39-37.8,68.32-33.81
	c9.83,6.99,12.61,17.82,14.43,28.6c6.2,36.7-17.29,70.93-53.71,78.69C101.11,311.58,93.57,312.69,86.42,308.92z"/>
<path class="st0" d="M728.6,202.73c28.62-3.97,54.56,8.67,67.89,33.11c13.11,24.02,10.47,53.11-6.63,73.09
	c-5.71,3.56-12.03,2.53-18.04,1.81c-46.47-5.59-73.59-60.03-50.22-100.52C723.36,207.18,725.13,204.15,728.6,202.73z"/>
<path class="st0" d="M147.47,680.01c-29.35,3.31-52.55-7.09-67.17-32.79c-13.87-24.39-11.74-48.84,4.37-71.93
	c0.45-0.65,1.1-1.16,1.66-1.73c6.05-3.44,12.62-2.53,18.91-1.64c45.78,6.48,72.05,58.68,50.07,99.22
	C153.38,674.7,151.46,678.27,147.47,680.01z"/>
<path class="st0" d="M789.95,573.56c17.07,20.71,19.63,49.08,6.59,73.07c-13.18,24.26-37.91,36.44-67.74,33.38
	c-9.88-6.96-12.72-17.78-14.6-28.59c-6.43-36.91,17.73-71.82,54.47-79.06C775.73,570.97,783.04,569.98,789.95,573.56z"/>
<path class="st0" d="M499.26,810.97c-5.95,20.6-20.54,32.97-39.83,39.82c-30.91,10.99-64.99-3.11-80.1-32.3
	c-1.22-2.36-2.77-4.65-2.33-7.53c2.84-14.31,12.89-23.12,24.24-30.44c32.31-20.82,74.58-11.05,94.87,21.56
	C497.81,804.82,499.67,807.49,499.26,810.97z"/>
<path class="st8" d="M501.09,115.32c-7.36,18.38-19.15,32.87-37.94,40.13c-26.75,10.34-50.74,4.76-71.86-14.26
	c-9.49-6.09-15.42-14.39-16.1-25.95c-3.75-14.73-5.76-29.4,1.83-43.66c9.55,18.02,23.16,31.4,43.25,36.97
	c29.18,8.1,59.11-4.08,74.85-30.19c1.37-2.27,2.76-4.52,4.15-6.79C506.88,85.87,504.81,100.56,501.09,115.32z"/>
<path class="st8" d="M499.26,810.97c-9.73-18.25-23.49-31.8-44.03-37.15c-30.31-7.9-60.56,5.44-75.65,33.15
	c-0.75,1.39-1.71,2.66-2.58,3.99c-7.61-14.27-5.47-28.95-1.86-43.69c3.62-9.74,9.18-18.27,16.15-25.91
	c12.35-11.46,26.73-18.55,43.72-19.14c30.22-1.05,52.88,14.53,66.13,44.99C504.72,781.98,506.93,796.68,499.26,810.97z"/>
<path class="st8" d="M147.47,680.01c22.86-32.03,14.22-69.06-7.73-89.16c-15.15-13.88-33.27-18.77-53.42-17.29
	c8.36-11.61,20.1-18.22,33.4-22.44c1.55-0.49,3.15-0.65,4.11-2.15c5.87,0.02,11.74-0.12,17.6,0.1
	c38.14,1.44,67.36,36.95,61.52,74.64c-0.33,2.1-0.33,4.26-0.48,6.39c-0.42,12.02-5.81,21.5-14.88,29.09
	C176.06,669.68,163.34,677.87,147.47,680.01z"/>
<path class="st8" d="M789.95,573.56c-30.42-1.71-54.21,9.32-67.91,37.34c-11.76,24.06-8.17,47.31,6.75,69.11
	c-15.87-2.15-28.6-10.34-40.14-20.83c-8.92-7.66-14.81-16.87-14.9-29.06c-0.41-8.74-1.8-17.25-0.35-26.25
	c4.88-30.29,31.53-54.22,62.19-54.63c5.62-0.08,11.24-0.09,16.86-0.13c12.9,5.11,25.76,10.28,35.08,21.27
	C788.4,571.4,789.15,572.5,789.95,573.56z"/>
<path class="st9" d="M86.42,308.92c21.07,1.67,39.77-3.81,55.01-18.87c22.07-21.82,25.77-56.6,9.06-82.46
	c-1.01-1.57-1.88-3.23-2.82-4.85c16.15,1.69,28.64,10.33,40.03,21.06c7.06,10.19,13.25,20.66,15.06,33.34
	c4.51,31.58-11.07,59.51-40.53,71.98c-1.7,0.72-3.35,1.57-5.02,2.36c-10.83,6.48-22.01,5.49-33.33,1.56
	C109.33,328.21,95.59,322.12,86.42,308.92z"/>
<path class="st9" d="M728.6,202.73c-11.39,16.06-15.7,33.81-11.92,53.17c6.49,33.27,36.1,54.99,67.56,53.07
	c1.87-0.11,3.75-0.03,5.62-0.04c-8.94,12.27-21.24,19.32-35.7,23.01c-11.8,5.8-23.51,5.46-35.14-0.52
	c-19.82-7.87-35.23-20.34-42.49-41.13c-7.84-22.46-4.57-43.28,9.52-62.44c0.94-1.27,1.62-2.73,2.43-4.1
	C700.01,213.2,712.44,204.4,728.6,202.73z"/>
<path class="st10" d="M719.03,331.42c11.69,2.16,23.4,3.1,35.15,0.52c-1.93,2.33-0.4,4.53,0.17,6.81
	c6.96,27.95-2.98,51.26-27.9,65.55c-19.1,10.95-38.19,21.92-57.27,32.91c-2.25,1.3-5.19,2.01-5.22,5.46
	c-0.43,0.09-0.85,0.15-1.29,0.18c1.07-22.5-3.7-44.24-8.46-65.99c19.89-9.7,39.25-20.34,56.99-33.66
	C715.01,340.32,717.82,336.27,719.03,331.42z"/>
<path class="st11" d="M673.76,630.12c3.17,10.61,8.76,19.98,14.9,29.06c-20.2,24.13-45.5,29.06-72.94,13.8
	c-21.72-12.08-43.21-24.57-64.8-36.87c17.8-10.83,33.96-23.76,48.87-38.3c11.65,2.93,20.8,10.72,31.11,16.22
	C644.52,621.3,656.97,631.38,673.76,630.12z"/>
<path class="st12" d="M187.6,659.2c6.25-9.04,11.52-18.58,14.88-29.09c16.75,1.32,29.24-8.6,42.73-16.02
	c10.02-5.52,19.37-12.3,30.16-16.4c5.89,0.18,8.14,5.55,11.96,8.59c11.08,8.81,22.03,17.77,33.97,25.43
	c1.6,1.02,4.27,1.55,3.49,4.54c0,0,0.22,0.22,0.22,0.22c-21.41,12.17-42.78,24.41-64.25,36.49
	C233.65,688.22,207.26,683.2,187.6,659.2z"/>
<path class="st6" d="M123.89,333.03c11.17,0.65,22.32,1.08,33.33-1.56c3.48,10.41,12.03,15.91,20.84,20.89
	c14.55,8.22,28.34,17.82,43.77,24.47c-4.37,19.68-8.85,39.34-8.41,59.7c-0.38,0.95-0.76,1.89-1.14,2.84
	c-23.99-12.44-47.7-25.52-70.12-40.49C120.52,384.45,114.87,360.47,123.89,333.03z"/>
<path class="st13" d="M375.18,115.24c3.44,9.84,9.22,18.24,16.1,25.95c-10.62,26.24-5.08,53.76-6.39,80.74
	c-20.11,6.41-40.09,13.18-58.51,23.76c0.05-26.08-0.3-52.16,0.24-78.22C327.21,139.86,347.51,118.49,375.18,115.24z"/>
<path class="st14" d="M559.44,499.93c4.86,11.29,9.68,22.6,14.59,33.87c6.01,13.79,4.76,17.17-9.16,23.34
	c-18.57,8.23-37.18,16.35-55.78,24.52c-2.8,0.92-4.45-1.17-6.38-2.47c-9.47-6.37-19.31-6.94-29.58-2.09
	c-2.26,1.07-4.41,3.43-7.28,1.28c-13.12-30.19-26.24-60.38-39.36-90.56c-1.17-2.7-2.28-5.44-4.61-7.42
	c-3.68-5.3-6.32-11.12-7.77-17.37c-1.84-7.93,1-13.39,8.42-16.8c8.21-3.78,16.57-7.21,24.72-11.13c19.27-7.49,37.86-16.57,57-24.37
	c10.38-4.23,17.3-2.33,21.45,6.96c10.85,24.26,21.51,48.6,31.88,73.06C558.82,493.6,560.82,496.48,559.44,499.93z"/>
<path class="st15" d="M447.86,436.43c-7.14,5.22-15.62,7.69-23.56,11.23c-7.76,3.47-10.05,7.95-7.99,16.33
	c1.39,5.66,6.12,10.13,5.58,16.4c-26.26-10.9-52.54-21.77-78.78-32.71c-13.87-5.78-27.71-11.66-41.54-17.55
	c-10.37-4.42-12.27-8.69-8.05-18.78c11.41-27.23,22.89-54.43,34.42-81.62c4.22-9.94,8.97-11.72,19.06-7.49
	c38.85,16.3,77.71,32.6,116.57,48.9c-2.91,5.67-9.45,5.37-13.97,8.43c-2.64,1.79-5.92,2.43-8.81,3.84
	c-8.04,3.92-9.72,7.87-6.44,16.12c3.85,9.69,8.47,19.05,12.43,28.69C447.84,430.83,450.06,433.37,447.86,436.43z"/>
<path class="st16" d="M447.86,436.43c-4.84-11.26-9.56-22.58-14.54-33.78c-5.35-12.02-3.24-17.33,8.99-22.31
	c7.15-2.91,14.19-6.12,21.27-9.2c18.58-8.06,37.19-16.05,55.72-24.23c4.51-1.99,8.99-3.25,13.92-2.41c3.46,2.74,5.48,6.37,7.22,10.4
	c16.71,38.66,33.57,77.25,50.38,115.87c4.19,9.63,2.52,14.35-6.97,18.67c-8.05,3.66-16.26,7.01-24.39,10.49
	c-9.14-21.08-18.28-42.16-27.43-63.23c-2.86-6.59-5.6-13.24-8.64-19.76c-3.21-6.88-9.71-7.78-18.64-4.25
	C485.63,420.25,467.6,430.41,447.86,436.43z"/>
<path class="st7" d="M324.8,636.25c-17.79-11.17-34.19-24.11-49.43-38.56c-14.99-17.89-29.61-36.08-39.41-57.48
	c-4.46-9.73-8.44-19.7-12.19-29.73c-3.13-8.36,3.55-15.47,12.55-13.49c7.04,1.55,13.97,3.61,20.95,5.45
	c2.42-1.32,3.98-0.49,4.9,1.95c0.87,11.25,6.44,20.92,10.86,30.86c11.45,25.76,27.54,48.33,48.19,67.62
	c4.29,4.01,8.1,8.55,12.12,12.84C327.67,621.38,327.84,629.48,324.8,636.25z"/>
<path class="st8" d="M262.17,504.39c-1.63-0.65-3.27-1.3-4.9-1.95c4.87-18.15,9.75-36.3,14.62-54.45
	c5.13,1.52,10.37,2.77,15.38,4.62c13.81,5.09,21.07,20.43,16.7,34.82c-4.01,13.21-18.53,21.58-32.37,18.7
	C268.48,505.47,265.32,504.96,262.17,504.39z"/>
<path class="st17" d="M526.97,300.57c17.2,4.49,34.39,8.98,51.59,13.48c2.93,5.14,0.2,17.05-5.43,23.72
	c-9.6,11.38-20.06,13.19-38.03,6.6C520.12,332.05,522.15,316.57,526.97,300.57z"/>
<path class="st8" d="M401.77,626.81c-13.07-13.04-26.13-26.09-39.19-39.14c7.25-8.87,14.94-16.55,27.86-16.1
	c12.07,0.42,20.29,6.07,25.19,16.61c5,10.76,2.96,20.85-4.65,29.73C408.2,621.13,404.85,623.86,401.77,626.81z"/>
<path class="st8" d="M465.86,578.38c9.61-5.75,19.54-8.6,30.83-5.02c5.13,1.63,8.18,5.69,12.41,8.29c1.57,2.03,3.13,4.07,4.7,6.1
	c-13.07,13.04-26.13,26.08-39.2,39.13c-6.46-5.65-12.76-11.28-15.5-19.96C455.63,595.92,460.92,587.25,465.86,578.38z"/>
<path class="st18" d="M384.94,660.53c-3.51-4.5-2-9.43-1.21-14.29c22.07,9.53,45.19,15.26,68.83,19.11
	c-20.63,1.77-41.06,0.34-61.31-3.91C389.18,661.01,387.05,660.83,384.94,660.53z"/>
<path class="st19" d="M498.39,368.61c13.87,14.49,27.75,28.98,41.61,43.48c3.66,3.83,7.26,7.7,10.89,11.56
	c0.3,1.64-0.64,2.74-1.74,3.68c-5.26,4.47-7.98,10.25-8.73,17c-0.31,2.78-2.1,3.16-4.34,3.12c-8.27-0.13-16.54-0.39-24.81-0.55
	c-1.53-0.03-3.06-0.06-4.58,0.2c-4.59,0.78-7.37,3.29-8,7.27c-0.7,4.39,1.34,8.12,5.57,10.18c0.75,0.46,1.01,1.26,1.39,1.97
	c1.7,3.18,4.39,4.71,7.95,4.81c4.59,0.13,9.18,0.17,13.77,0.38c1.49,0.07,3.18-0.08,3.66,1.96c-0.04,0.36-0.17,0.69-0.37,0.99
	c-3.06,4.52-7.36,7.81-11.28,11.48c-0.79,0.74-1.76,0.96-2.81,0.92c-7.15,6.73-14.29,13.45-21.44,20.18c-1.93,0.32-3-1.02-4.13-2.18
	c-5.32-5.5-10.57-11.07-15.87-16.59c-2.8-2.91-3.15-2.84-4.61,0.8c-3.73,9.29-13.04,15.04-22.24,13.74
	c-10.51-1.49-17.69-9-18.72-19.59c-0.91-9.34,5.18-18.3,14.69-21.61c3.72-1.3,3.83-1.66,1.12-4.52
	c-5.12-5.41-10.29-10.78-15.42-16.18c-1.19-1.26-2.44-2.48-3-4.19c-0.1-0.33-0.12-0.67-0.04-1.01c0.48-1.39,1.4-2.47,2.44-3.47
	c6.63-6.36,13.27-12.71,19.95-19.02c0.45-0.42,0.9-0.83,1.4-1.18c2.09-1.45,3.34-1.03,4.08,1.37c0.39,1.27,0.54,2.6,0.88,3.88
	c2.23,8.38,9.93,14.21,18.06,13.68c9.35-0.61,16.26-7.13,17.38-16.39c0.98-8.09-4.67-16.37-12.9-18.94
	c-1.27-0.4-2.59-0.61-3.84-1.06c-2.19-0.8-2.55-2.05-1.17-3.96c0.36-0.5,0.79-0.94,1.23-1.36c6.61-6.38,13.26-12.72,19.95-19.03
	C495.5,369.34,496.62,368.22,498.39,368.61z"/>
<path class="st20" d="M498.39,368.61c-8.39,8-16.78,16.01-25.72,24.54c7.83,0.87,13.81,3.71,17.45,10.2
	c2.16,3.85,3.08,7.98,2.42,12.39c-1.42,9.54-8.91,16.44-18.54,16.92c-5.68,0.28-10.61-1.7-14.71-5.66c-4.1-3.96-5.6-9.05-6.06-15.41
	c-8.96,8.55-17.34,16.54-25.72,24.54c-1.72,0.7-2.71-0.52-3.67-1.51c-6.62-6.81-13.22-13.64-19.66-20.63
	c-2.77-3-2.27-4.58,1.73-5.28c8.43-1.47,13.88-6.09,15.91-14.47c2.09-8.62-3.1-17.64-11.78-20.63c-8.65-2.98-18.13,0.94-21.98,9.07
	c-0.88,1.86-1.34,3.85-1.9,5.81c-0.96,3.37-2.4,3.83-4.91,1.44c-3.7-3.52-7.1-7.34-10.64-11.02c-3.04-3.17-6.09-6.33-9.08-9.55
	c-1.04-1.12-2.16-2.24-1.78-4.01c14.49-13.87,28.98-27.75,43.49-41.62c3.83-3.66,7.7-7.27,11.56-10.9c1.65-0.29,2.72,0.67,3.68,1.76
	c4.47,5.05,10.06,7.93,16.73,8.73c2.79,0.33,3.41,2.14,3.38,4.56c-0.13,8.18-0.38,16.35-0.55,24.53c-0.03,1.64-0.06,3.26,0.24,4.89
	c0.81,4.31,3.16,6.96,6.88,7.69c3.87,0.76,8.19-1.16,10.26-4.6c0.26-0.43,0.39-0.95,0.75-1.32c4.84-2.28,6.7-6.17,6.39-11.4
	c-0.22-3.65,0.44-7.3,0.32-10.97c-0.05-1.52-0.02-3.16,1.98-3.65c0.38-0.02,0.72,0.06,1.06,0.23c4.62,2.98,7.87,7.36,11.53,11.31
	c0.67,0.73,0.75,1.65,0.75,2.58C484.93,354.31,491.66,361.46,498.39,368.61z"/>
<path class="st21" d="M359.77,365.34c8.01,8.39,16.02,16.79,24.54,25.72c0.86-7.86,3.71-13.83,10.21-17.48
	c4.06-2.28,8.4-3.12,13.01-2.3c9.54,1.7,16.34,9.78,16.33,19.41c-0.01,10.65-6.91,17.45-20.66,19.93
	c8.24,8.64,16.28,17.06,24.32,25.49c0,0-0.02,0.29-0.02,0.29c0.1,1.47-0.7,2.52-1.68,3.46c-6.83,6.61-13.66,13.21-20.65,19.66
	c-3.09,2.85-4.61,2.31-5.38-1.96c-1.47-8.15-5.88-13.57-14.04-15.61c-8.83-2.21-17.94,2.91-20.98,11.69
	c-2.99,8.62,0.93,18.17,9.03,22.01c1.67,0.79,3.44,1.28,5.22,1.75c4.27,1.13,4.64,2.51,1.45,5.73c-2.95,2.98-6.04,5.81-9.07,8.71
	c-3.62,3.46-7.22,6.94-10.89,10.35c-1.12,1.04-2.24,2.17-4.01,1.78c-13.87-14.49-27.75-28.97-41.61-43.47
	c-3.66-3.83-7.27-7.7-10.9-11.55c-0.26-1.49,0.48-2.57,1.52-3.47c5.22-4.58,8.2-10.32,9.01-17.21c0.29-2.44,1.94-3.14,4.13-3.13
	c5.51,0.03,11.02,0.2,16.53,0.35c4.08,0.11,8.15,0.08,12.23-0.15c4.7-0.26,7.86-2.62,8.7-6.69c0.9-4.35-1.06-8.39-5.08-10.42
	c-0.27-0.14-0.54-0.28-0.78-0.48c-2.28-5.19-6.63-6.83-11.89-7c-3.77-0.12-7.56-0.03-11.32-0.39c-2.68-0.26-3.49-1.61-1.95-3.6
	c3.18-4.13,7.14-7.54,11.16-10.84c0.59-0.48,1.36-0.34,2.07-0.39C345.47,378.8,352.62,372.07,359.77,365.34z"/>
<path class="st22" d="M356.5,503.97c8.42-8.03,16.84-16.07,25.75-24.56c-8.02-0.77-14.18-3.85-17.82-10.73
	c-2.18-4.11-2.81-8.5-1.88-13.09c1.86-9.17,9.94-15.74,19.31-15.71c10.68,0.04,17.03,6.54,20.01,20.96
	c8.7-8.3,17.16-16.37,25.61-24.44c8.08,8.47,16.16,16.94,24.63,25.82c-7.04,0.11-12.68,2.31-16.8,7.5
	c-3.16,3.99-4.64,8.6-4.22,13.72c0.83,10.23,9.15,18.02,19.31,18.15c8.59,0.11,19.05-5.78,20.05-20.22
	c8.45,8.86,16.56,17.36,24.67,25.86c-14.7,14.07-29.39,28.14-44.09,42.2c-3.62,3.46-7.29,6.87-10.93,10.31
	c-1.64,0.3-2.71-0.64-3.69-1.72c-4.4-4.9-9.88-7.71-16.36-8.77c-3.02-0.5-3.77-1.47-3.75-4.56c0.05-7.95,0.35-15.89,0.5-23.84
	c0.02-1.22,0.09-2.45,0.01-3.67c-0.35-5.32-2.82-8.69-7.01-9.56c-4.48-0.94-8.5,1.22-10.91,5.87c-5.19,2.28-6.83,6.63-6.99,11.89
	c-0.12,3.77-0.02,7.56-0.39,11.31c-0.27,2.75-1.74,3.52-3.87,1.81c-3.9-3.14-7.17-6.94-10.42-10.74c-0.57-0.67-0.52-1.52-0.56-2.33
	C369.95,518.26,363.23,511.12,356.5,503.97z"/>
<path class="st23" d="M338.33,385.53c-4.46,4.25-8.92,8.51-13.38,12.76c0.11,0.28,0.23,0.55,0.34,0.83
	c4.23,0.11,8.45,0.19,12.68,0.33c1.83,0.06,3.69,0.07,5.48,0.41c4.1,0.78,6.5,3.55,7.98,7.27c3.61,5.66-0.85,13.55-8.18,14.47
	c-3.55,0.45-7.12,0.33-10.68,0.18c-5.7-0.23-11.41-0.16-17.11-0.43c-3.53-0.16-4.02,0.29-4.78,3.69c-1.4,6.27-4.4,11.56-9.33,15.74
	c-1.12,0.95-2.2,1.85-3.8,1.48c-6.56,3.93-13.69,4.76-21.19,4.38c-8.87-0.44-17.76-0.58-26.65-0.62c-2.71-0.01-2.87-0.84-2.26-3.14
	c3.45-13.12,6.8-26.26,10.07-39.42c0.49-1.97,1.29-2.78,3.28-2.38c8.15,1.65,14.14-1.38,19.71-7.51
	c7.12-7.84,15.22-14.8,22.92-22.11c6.79-6.44,15.49-6.22,21.99,0.53C329.74,376.5,334.03,381.02,338.33,385.53z"/>
<path class="st23" d="M516.57,487.05c4.71-4.55,9.42-9.11,14.14-13.66c0.95,0.01,1.4,0.68,1.89,1.35c1.84,2.52,4.45,2.62,7.15,2.1
	c1.63-0.31,2.78-1.35,2.82-3.14c0.04-1.78-1.05-2.88-2.67-3.26c-2.68-0.64-5.29-0.67-7.25,1.77c-0.52,0.65-1,1.3-1.95,1.26
	c-5.2-0.15-10.4-0.45-15.6-0.4c-5.67,0.04-9.59-2.28-11.64-7.61c-3.6-5.67,0.74-13.44,8.18-14.47c4.66-0.64,9.36-0.14,14.03-0.07
	c4.68,0.07,9.35,0.3,14.03,0.34c2.77,0.02,4.01-1.04,4.57-3.71c1.32-6.25,4.34-11.59,9.29-15.76c1.12-0.94,2.2-1.85,3.8-1.47
	c6.46-3.87,13.48-4.79,20.89-4.43c9.08,0.44,18.18,0.51,27.27,0.67c1.82,0.03,2.75,0.05,2.1,2.47
	c-3.57,13.41-6.96,26.86-10.31,40.33c-0.43,1.74-1.12,2.47-2.87,2.09c-8.57-1.85-14.72,1.64-20.46,7.94
	c-7,7.68-14.94,14.52-22.5,21.69c-6.79,6.44-15.52,6.23-22-0.5C525.16,496.08,520.87,491.56,516.57,487.05z"/>
<path class="st24" d="M421.46,306.38c5.42,6.82,12.08,11.51,21.07,12.13c1.92,0.13,1.58,1.51,1.55,2.69
	c-0.19,8.87-0.41,17.74-0.62,26.62c-0.22,9.51,4.64,13.75,13.98,12.21c-2.65,3.81-5.6,7.01-10.87,6.67
	c-4.84-0.31-8.45-3.19-9.61-7.96c-0.59-2.42-0.42-4.87-0.36-7.32c0.18-7.76,0.37-15.52,0.54-23.28c0.03-1.43,0.24-3.13-1.8-3.29
	c-8.8-0.71-15.16-5.52-20.55-12.02C417.03,310.68,419.24,308.53,421.46,306.38z"/>
<path class="st25" d="M433.42,566.21c-5.37-6.87-12.05-11.52-21-12.14c-2.02-0.14-1.59-1.41-1.57-2.57
	c0.2-8.96,0.42-17.92,0.62-26.88c0.2-8.98-4.38-13.23-13.22-12.31c2.04-4.76,5.62-6.84,10.95-6.37c4.34,0.38,7.8,3.55,8.72,8.17
	c0.31,1.58,0.4,3.24,0.38,4.86c-0.15,8.26-0.28,16.52-0.61,24.77c-0.11,2.64,0.6,3.88,3.39,4.22c8.1,0.99,13.95,5.8,19.02,11.78
	C437.88,561.89,435.65,564.05,433.42,566.21z"/>
<path class="st26" d="M557.36,430.31c-6.86,5.4-11.51,12.09-12.15,21.07c-0.14,2-1.59,1.5-2.72,1.48
	c-8.88-0.17-17.75-0.39-26.63-0.59c-9.05-0.2-13.22,4.24-12.41,13.19c-4.84-2.02-6.82-5.43-6.35-10.93
	c0.36-4.23,3.44-7.63,7.88-8.68c1.7-0.4,3.42-0.49,5.17-0.45c8.58,0.22,17.16,0.36,25.73,0.65c2.14,0.07,2.96-0.39,3.22-2.76
	c0.65-6.04,2.94-11.43,7.57-15.63c1.44-1.3,2.81-2.67,4.22-4.01C553.05,425.86,555.2,428.08,557.36,430.31z"/>
<path class="st27" d="M297.55,442.27c6.85-5.41,11.5-12.11,12.14-21.08c0.14-1.98,1.53-1.52,2.69-1.5
	c8.88,0.2,17.75,0.45,26.63,0.63c9.07,0.19,13.24-4.27,12.42-13.19c5.04,2.11,7.26,6.3,6.26,11.85c-0.82,4.58-4.92,7.65-9.93,7.89
	c-9.2,0.44-18.37-0.12-27.55-0.34c-2.82-0.07-4.18,0.46-4.52,3.67c-0.86,8.03-5.78,13.75-11.69,18.74
	C301.85,446.72,299.7,444.49,297.55,442.27z"/>
<path class="st28" d="M322.68,395.83c0.14,0.15,0.3,0.28,0.42,0.44c1.29,1.9,1.3,3.81-0.09,5.63c-1.62,2.11-6.3,2.9-9.34,1.54
	c-2.13-0.95-3.41-2.57-3.11-5.04c0.31-2.59,2.02-3.89,4.43-4.32C318.26,393.5,321.16,394.19,322.68,395.83z"/>
<path class="st28" d="M530.7,473.47c1.47-4.98,8.67-6.81,12.3-3.13c1.95,1.98,1.88,4.9-0.17,6.78c-3.83,3.51-10.9,1.33-12.12-3.73
	C530.7,473.39,530.7,473.47,530.7,473.47z"/>
<path class="st28" d="M387.05,540.96c0.15-0.13,0.3-0.28,0.47-0.39c1.93-1.22,3.85-1.2,5.63,0.24c2.04,1.65,2.77,6.46,1.4,9.38
	c-1,2.12-2.65,3.35-5.11,2.98c-2.57-0.38-3.84-2.11-4.22-4.53C384.68,545.2,385.36,542.48,387.05,540.96z"/>
</svg>
