<svg id="Layer_1" data-name="Layer 1" xmlns="http://www.w3.org/2000/svg" viewBox="0 0 900 346"><defs><style>.cls-1{fill:#d5272a;}.cls-1,.cls-2{fill-rule:evenodd;}.cls-2{fill:#0c0d0d;}</style></defs><g id="_691qAE" data-name="691qAE"><path class="cls-1" d="M155,0h34s-61.56,171.09-81,229c-1.66,35-1.66,77,0,112-1.72.61.08,4.74-2,5H77c-1,0-1.19-.81-2-1-.66-39.33,1.34-81.33-1-119L0,31H35L51,70,94,190Z"/><path class="cls-2" d="M570,31h30c-.18.85,1,1,1,1V344s-.87,1.79-2,2H581c-2.55-3.44-4.24-7.75-7-11-11.81,7.25-20.46,16.43-37,17-45.56,1.58-63.79-47.84-66-93V239c.14-61.58,30.57-126,96-103,0,1,1.23.78,2,1V33C569.19,32.19,570,32,570,31Zm-3,134c-38.68-28.75-61.13,21.32-61,59-1.66,10.67-1.66,28.33,0,39-1.69,39.18,24.38,77.11,62,55C569,272.32,570.92,208.14,567,165Z"/><path class="cls-2" d="M247,196c-1.24-20.09-6.93-38.79-24-40-13.79-1-22,10.45-35,14-7-6-10-16-13-26,11.53-7.14,26.54-10.8,43-13h13c33.62,4.05,46.05,29.29,48,65,.64,3.7-1.29,10,1,12V344c-.44.89-.87,1.79-2,2H260a52.22,52.22,0,0,1-6-14c-11.85,7.53-23.13,19.53-40,20-32.39.9-50-31.86-53-63V271c1.3-45.36,39.81-78.26,85-58-.18.85.39.94,1,1C248.67,210.3,248.67,199.7,247,196Zm-1,44c-8-5.81-21.3-10.56-32-7-28.69,9.55-25.53,89.54,7,92,8.9.67,15.07-2.89,23-8h1a5.05,5.05,0,0,1,3-3C246.7,290,250.63,260.71,246,240Z"/><path class="cls-2" d="M634,235c2.57-33.88,11.34-74.37,34-93,11.19-9.2,33-14.35,49-7,27.1,12.49,33.9,47.42,37,86v27H691c-7.87-.13-15.45,0-23-.5-8.94,53.32,24.89,88.68,78,70.5,2.55,4.79,2.71,12,5,17-9.68,10-26.35,13-43,16H698c-43.48-7.18-59.56-41.77-64-88Zm86-33c-2.3-19-4.24-43-21-45-25.8-3.11-27.62,38.67-29.5,66l25.5-1,27,1c0-.33-1-2.67-1-3C720.35,214.32,722.32,206,720,202Z"/><path class="cls-2" d="M352,136c1.86,2.15.68,7.33,1,11,23.06-17.1,82.55-23,85,20V345c-8.08,2.25-20.27.39-30,1-.81-.19-1-1-2-1-.66-56,1.34-114.67-1-169-2.33-21.4-38.28-17.89-52-9l-2,179H322c-.19-.81-1-1-1-2V137s.95-.39,1-1Z"/><path class="cls-2" d="M776,346c-.44-.89-.87-1.79-2-2,10.7-27.09,45-109,45-109l-41-98a3.49,3.49,0,0,1,2-1h29l28,73,30-73h28L851,238l43,108H865l-32-81-31,81Z"/></g></svg>