<svg xmlns="http://www.w3.org/2000/svg" xmlns:xlink="http://www.w3.org/1999/xlink" viewBox="0 0 412.3 412.3"><defs><style>.cls-1,.cls-10,.cls-77,.cls-79,.cls-80,.cls-81{fill:none;}.cls-2{isolation:isolate;}.cls-3{clip-path:url(#clip-path);}.cls-4{fill:url(#radial-gradient);}.cls-11,.cls-5{fill:#ff8900;}.cls-6{fill:#eef3f9;}.cls-7{opacity:0.5;}.cls-13,.cls-8{fill:#78bf39;}.cls-76,.cls-9{fill:#1c2b36;}.cls-10,.cls-80{stroke:#4fb5e7;}.cls-10,.cls-11,.cls-12,.cls-13,.cls-14,.cls-15,.cls-16,.cls-17,.cls-18,.cls-19,.cls-20,.cls-22,.cls-23,.cls-24,.cls-25,.cls-26,.cls-27,.cls-28,.cls-29,.cls-30,.cls-31,.cls-32,.cls-33,.cls-34,.cls-35,.cls-36,.cls-37,.cls-38,.cls-39,.cls-40,.cls-41,.cls-42,.cls-43,.cls-44,.cls-45,.cls-46,.cls-47,.cls-48,.cls-49,.cls-50,.cls-51,.cls-52,.cls-53,.cls-54,.cls-55,.cls-56,.cls-57,.cls-58,.cls-59,.cls-60,.cls-61,.cls-62,.cls-63,.cls-64,.cls-65,.cls-66,.cls-67,.cls-68,.cls-69,.cls-70,.cls-71,.cls-72,.cls-76,.cls-77,.cls-78,.cls-79,.cls-80,.cls-81{stroke-miterlimit:10;}.cls-10{stroke-width:2.89px;}.cls-11,.cls-12,.cls-13,.cls-14,.cls-15,.cls-16,.cls-17,.cls-18,.cls-19,.cls-20,.cls-22,.cls-23,.cls-24,.cls-25,.cls-26,.cls-27,.cls-28,.cls-29,.cls-30,.cls-31,.cls-32,.cls-33,.cls-34,.cls-35,.cls-36,.cls-37,.cls-38,.cls-39,.cls-40,.cls-41,.cls-42,.cls-43,.cls-44,.cls-45,.cls-46,.cls-47,.cls-48,.cls-49,.cls-50,.cls-51,.cls-52,.cls-53,.cls-54,.cls-55,.cls-56,.cls-57,.cls-58,.cls-59,.cls-60,.cls-61,.cls-62,.cls-63,.cls-64,.cls-65,.cls-66,.cls-67,.cls-68,.cls-69,.cls-70,.cls-71,.cls-72,.cls-76,.cls-77,.cls-78{stroke:#1c2b36;}.cls-11,.cls-12,.cls-13,.cls-14,.cls-15,.cls-16,.cls-17,.cls-22,.cls-23,.cls-24,.cls-25,.cls-26,.cls-27,.cls-28,.cls-29,.cls-30,.cls-31,.cls-32,.cls-33,.cls-34,.cls-35,.cls-36,.cls-37,.cls-38,.cls-39,.cls-40,.cls-41,.cls-42,.cls-43,.cls-44,.cls-45,.cls-46,.cls-47,.cls-48,.cls-49,.cls-50,.cls-51,.cls-52,.cls-53,.cls-54,.cls-55,.cls-56,.cls-57,.cls-58,.cls-59,.cls-60,.cls-61,.cls-62,.cls-63,.cls-64,.cls-65,.cls-66,.cls-67,.cls-68,.cls-69,.cls-70,.cls-71,.cls-72,.cls-79{stroke-width:1.59px;}.cls-12,.cls-14,.cls-18,.cls-19,.cls-20,.cls-22,.cls-23,.cls-24,.cls-25,.cls-26,.cls-27,.cls-28,.cls-29,.cls-30,.cls-31,.cls-32,.cls-33,.cls-34,.cls-35,.cls-36,.cls-37,.cls-38,.cls-39,.cls-40,.cls-41,.cls-42,.cls-43,.cls-44,.cls-45,.cls-46,.cls-47,.cls-48,.cls-49,.cls-50,.cls-51,.cls-52,.cls-53,.cls-54,.cls-55,.cls-56,.cls-57,.cls-58,.cls-59,.cls-60,.cls-61,.cls-62,.cls-63,.cls-64,.cls-65,.cls-66,.cls-67,.cls-68,.cls-69,.cls-70,.cls-71,.cls-72,.cls-73{fill:#fff;}.cls-14{mix-blend-mode:multiply;}.cls-15{fill:#a01a16;}.cls-16{fill:#7bb93c;}.cls-17{fill:#f8bf00;}.cls-18,.cls-19,.cls-20{stroke-width:1.26px;}.cls-19{opacity:0.73;}.cls-20{opacity:0.31;}.cls-21{opacity:0.3;}.cls-22{opacity:0;}.cls-23{opacity:0.02;}.cls-24{opacity:0.04;}.cls-25{opacity:0.06;}.cls-26{opacity:0.08;}.cls-27{opacity:0.1;}.cls-28{opacity:0.12;}.cls-29{opacity:0.14;}.cls-30{opacity:0.16;}.cls-31{opacity:0.18;}.cls-32{opacity:0.2;}.cls-33{opacity:0.22;}.cls-34{opacity:0.24;}.cls-35{opacity:0.25;}.cls-36{opacity:0.27;}.cls-37{opacity:0.29;}.cls-38{opacity:0.31;}.cls-39{opacity:0.33;}.cls-40{opacity:0.35;}.cls-41{opacity:0.37;}.cls-42{opacity:0.39;}.cls-43{opacity:0.41;}.cls-44{opacity:0.43;}.cls-45{opacity:0.45;}.cls-46{opacity:0.47;}.cls-47{opacity:0.49;}.cls-48{opacity:0.51;}.cls-49{opacity:0.53;}.cls-50{opacity:0.55;}.cls-51{opacity:0.57;}.cls-52{opacity:0.59;}.cls-53{opacity:0.61;}.cls-54{opacity:0.63;}.cls-55{opacity:0.65;}.cls-56{opacity:0.67;}.cls-57{opacity:0.69;}.cls-58{opacity:0.71;}.cls-59{opacity:0.73;}.cls-60{opacity:0.75;}.cls-61{opacity:0.76;}.cls-62{opacity:0.78;}.cls-63{opacity:0.8;}.cls-64{opacity:0.82;}.cls-65{opacity:0.84;}.cls-66{opacity:0.86;}.cls-67{opacity:0.88;}.cls-68{opacity:0.9;}.cls-69{opacity:0.92;}.cls-70{opacity:0.94;}.cls-71{opacity:0.96;}.cls-72{opacity:0.98;}.cls-74,.cls-78{fill:#50b3e6;}.cls-75{fill:#acc9eb;}.cls-76{stroke-width:2.12px;}.cls-77,.cls-78{stroke-width:5.27px;fill-rule:evenodd;}.cls-79{stroke:#fff;}.cls-80{stroke-width:0.99px;}.cls-81{stroke:#41a6df;stroke-width:11.93px;}</style><clipPath id="clip-path"><circle class="cls-1" cx="206.13" cy="207.41" r="199.34"/></clipPath><radialGradient id="radial-gradient" cx="837.71" cy="-131.43" r="1276.51" gradientUnits="userSpaceOnUse"><stop offset="0.19" stop-color="#48b8f0"/><stop offset="1" stop-color="#3b68b0"/></radialGradient></defs><g class="cls-2"><g id="Home"><g class="cls-3"><rect class="cls-4" x="-530.01" y="-217.07" width="1728.47" height="988.81"/><polygon class="cls-5" points="-395.07 470.62 641.54 -47.09 641.54 -74.97 -431.36 461.4 -395.07 470.62"/><polygon class="cls-6" points="953.24 109.64 -83.37 627.34 -395.07 470.04 641.54 -47.67 953.24 109.64"/><g class="cls-7"><polygon class="cls-8" points="-9.37 302.71 5.27 305.28 12.48 301.68 -24.41 295.19 -11.43 313.63 -4.22 310.03 -9.37 302.71"/><polygon class="cls-9" points="-13.25 289.61 -8.14 296.87 2.99 298.83 1.79 297.13 16.43 299.7 23.64 296.1 -13.25 289.61"/><ellipse class="cls-10" cx="-4.43" cy="299.77" rx="33.45" ry="16.73"/><polygon class="cls-8" points="52.92 271.56 67.55 274.14 74.77 270.53 37.88 264.04 50.86 282.49 58.07 278.88 52.92 271.56"/><polygon class="cls-9" points="49.04 258.46 54.15 265.73 65.28 267.69 64.08 265.98 78.71 268.56 85.92 264.95 49.04 258.46"/><ellipse class="cls-10" cx="57.86" cy="268.62" rx="33.45" ry="16.73"/><polygon class="cls-8" points="117.23 238.83 131.86 241.41 139.07 237.8 102.19 231.31 115.16 249.76 122.38 246.15 117.23 238.83"/><polygon class="cls-9" points="113.34 225.73 118.46 233 129.59 234.96 128.39 233.25 143.02 235.83 150.23 232.22 113.34 225.73"/><ellipse class="cls-10" cx="122.16" cy="235.89" rx="33.45" ry="16.73"/><polygon class="cls-8" points="179.51 207.69 194.15 210.26 201.36 206.66 164.47 200.17 177.45 218.62 184.66 215.01 179.51 207.69"/><polygon class="cls-9" points="175.63 194.59 180.75 201.85 191.87 203.81 190.67 202.11 205.31 204.68 212.52 201.08 175.63 194.59"/><ellipse class="cls-10" cx="184.45" cy="204.75" rx="33.45" ry="16.73"/><polygon class="cls-8" points="243.24 177.27 257.88 179.84 265.09 176.24 228.2 169.75 241.18 188.19 248.39 184.59 243.24 177.27"/><polygon class="cls-9" points="239.36 164.17 244.47 171.43 255.6 173.39 254.4 171.69 269.04 174.26 276.25 170.66 239.36 164.17"/><ellipse class="cls-10" cx="248.18" cy="174.33" rx="33.45" ry="16.73"/><polygon class="cls-8" points="305.53 146.13 320.16 148.7 327.38 145.09 290.49 138.6 303.47 157.05 310.68 153.44 305.53 146.13"/><polygon class="cls-9" points="301.65 133.02 306.76 140.29 317.89 142.25 316.69 140.54 331.32 143.12 338.53 139.51 301.65 133.02"/><ellipse class="cls-10" cx="310.47" cy="143.18" rx="33.45" ry="16.73"/><polygon class="cls-8" points="369.84 113.39 384.47 115.97 391.68 112.36 354.8 105.87 367.77 124.32 374.99 120.71 369.84 113.39"/><polygon class="cls-9" points="365.95 100.29 371.07 107.56 382.19 109.52 381 107.81 395.63 110.39 402.84 106.78 365.95 100.29"/><ellipse class="cls-10" cx="374.77" cy="110.45" rx="33.45" ry="16.73"/><ellipse class="cls-10" cx="437.06" cy="79.31" rx="33.45" ry="16.73"/><polygon class="cls-9" points="-36.39 408.05 -31.28 415.32 -20.15 417.28 -21.35 415.57 -6.71 418.15 0.5 414.54 -36.39 408.05"/><ellipse class="cls-10" cx="-27.57" cy="418.21" rx="33.45" ry="16.73"/><polygon class="cls-8" points="31.8 388.42 46.43 391 53.65 387.39 16.76 380.9 29.74 399.35 36.95 395.74 31.8 388.42"/><polygon class="cls-9" points="27.92 375.32 33.03 382.59 44.16 384.55 42.96 382.84 57.59 385.42 64.81 381.81 27.92 375.32"/><ellipse class="cls-10" cx="36.74" cy="385.48" rx="33.45" ry="16.73"/><polygon class="cls-8" points="94.09 357.28 108.72 359.86 115.93 356.25 79.05 349.76 92.02 368.2 99.24 364.6 94.09 357.28"/><polygon class="cls-9" points="90.2 344.18 95.32 351.44 106.44 353.4 105.25 351.7 119.88 354.27 127.09 350.67 90.2 344.18"/><ellipse class="cls-10" cx="99.02" cy="354.34" rx="33.45" ry="16.73"/><polygon class="cls-8" points="156.95 325.99 171.58 328.57 178.79 324.96 141.91 318.47 154.89 336.92 162.1 333.31 156.95 325.99"/><polygon class="cls-9" points="153.07 312.89 158.18 320.16 169.31 322.12 168.11 320.41 182.74 322.99 189.95 319.38 153.07 312.89"/><ellipse class="cls-10" cx="161.89" cy="323.05" rx="33.45" ry="16.73"/><polygon class="cls-8" points="219.24 294.85 233.87 297.43 241.08 293.82 204.19 287.33 217.17 305.77 224.39 302.17 219.24 294.85"/><polygon class="cls-9" points="215.35 281.75 220.47 289.01 231.59 290.97 230.4 289.27 245.03 291.84 252.24 288.24 215.35 281.75"/><ellipse class="cls-10" cx="224.17" cy="291.91" rx="33.45" ry="16.73"/><polygon class="cls-8" points="283.54 262.12 298.18 264.69 305.39 261.09 268.5 254.6 281.48 273.04 288.69 269.44 283.54 262.12"/><polygon class="cls-9" points="279.66 249.01 284.77 256.28 295.9 258.24 294.7 256.54 309.34 259.11 316.55 255.51 279.66 249.01"/><ellipse class="cls-10" cx="288.48" cy="259.18" rx="33.45" ry="16.73"/><polygon class="cls-8" points="345.83 230.97 360.46 233.55 367.68 229.94 330.79 223.45 343.77 241.9 350.98 238.29 345.83 230.97"/><polygon class="cls-9" points="341.95 217.87 347.06 225.14 358.19 227.1 356.99 225.39 371.62 227.97 378.84 224.36 341.95 217.87"/><ellipse class="cls-10" cx="350.77" cy="228.03" rx="33.45" ry="16.73"/><polygon class="cls-8" points="409.56 200.55 424.19 203.13 431.4 199.52 394.52 193.03 407.5 211.48 414.71 207.87 409.56 200.55"/><polygon class="cls-9" points="405.68 187.45 410.79 194.72 421.92 196.68 420.72 194.97 435.35 197.55 442.56 193.94 405.68 187.45"/><ellipse class="cls-10" cx="414.5" cy="197.61" rx="33.45" ry="16.73"/><polygon class="cls-8" points="8.98 345.62 23.61 348.19 30.82 344.58 -6.06 338.09 6.92 356.54 14.13 352.93 8.98 345.62"/><polygon class="cls-9" points="5.1 332.51 10.21 339.78 21.34 341.74 20.14 340.04 34.77 342.61 41.98 339 5.1 332.51"/><ellipse class="cls-10" cx="13.92" cy="342.67" rx="33.45" ry="16.73"/><polygon class="cls-8" points="71.27 314.47 85.9 317.05 93.11 313.44 56.22 306.95 69.2 325.4 76.42 321.79 71.27 314.47"/><polygon class="cls-9" points="67.38 301.37 72.5 308.64 83.62 310.6 82.43 308.89 97.06 311.47 104.27 307.86 67.38 301.37"/><ellipse class="cls-10" cx="76.2" cy="311.53" rx="33.45" ry="16.73"/><polygon class="cls-8" points="135.57 281.74 150.21 284.32 157.42 280.71 120.53 274.22 133.51 292.67 140.72 289.06 135.57 281.74"/><polygon class="cls-9" points="131.69 268.64 136.8 275.91 147.93 277.86 146.73 276.16 161.37 278.74 168.58 275.13 131.69 268.64"/><ellipse class="cls-10" cx="140.51" cy="278.8" rx="33.45" ry="16.73"/><polygon class="cls-8" points="197.86 250.6 212.49 253.17 219.71 249.57 182.82 243.07 195.8 261.52 203.01 257.92 197.86 250.6"/><polygon class="cls-9" points="193.98 237.49 199.09 244.76 210.22 246.72 209.02 245.02 223.65 247.59 230.87 243.99 193.98 237.49"/><ellipse class="cls-10" cx="202.8" cy="247.65" rx="33.45" ry="16.73"/><polygon class="cls-8" points="261.59 220.18 276.22 222.75 283.43 219.15 246.55 212.65 259.52 231.1 266.74 227.5 261.59 220.18"/><polygon class="cls-9" points="257.71 207.07 262.82 214.34 273.95 216.3 272.75 214.6 287.38 217.17 294.59 213.56 257.71 207.07"/><ellipse class="cls-10" cx="266.53" cy="217.23" rx="33.45" ry="16.73"/><polygon class="cls-8" points="323.88 189.03 338.51 191.61 345.72 188 308.83 181.51 321.81 199.96 329.02 196.35 323.88 189.03"/><polygon class="cls-9" points="319.99 175.93 325.11 183.2 336.23 185.16 335.04 183.45 349.67 186.03 356.88 182.42 319.99 175.93"/><ellipse class="cls-10" cx="328.81" cy="186.09" rx="33.45" ry="16.73"/><polygon class="cls-8" points="388.18 156.3 402.82 158.88 410.03 155.27 373.14 148.78 386.12 167.23 393.33 163.62 388.18 156.3"/><polygon class="cls-9" points="384.3 143.2 389.41 150.47 400.54 152.42 399.34 150.72 413.98 153.3 421.19 149.69 384.3 143.2"/><ellipse class="cls-10" cx="393.12" cy="153.36" rx="33.45" ry="16.73"/><ellipse class="cls-10" cx="55.15" cy="426.45" rx="33.45" ry="16.73"/><polygon class="cls-8" points="114.52 396.66 129.15 399.23 136.37 395.63 99.48 389.13 112.46 407.58 119.67 403.98 114.52 396.66"/><polygon class="cls-9" points="110.64 383.55 115.75 390.82 126.88 392.78 125.68 391.08 140.31 393.65 147.53 390.04 110.64 383.55"/><ellipse class="cls-10" cx="119.46" cy="393.71" rx="33.45" ry="16.73"/><polygon class="cls-8" points="176.81 365.51 191.44 368.09 198.65 364.48 161.77 357.99 174.75 376.44 181.96 372.83 176.81 365.51"/><polygon class="cls-9" points="172.93 352.41 178.04 359.68 189.17 361.64 187.97 359.93 202.6 362.51 209.81 358.9 172.93 352.41"/><ellipse class="cls-10" cx="181.75" cy="362.57" rx="33.45" ry="16.73"/><polygon class="cls-8" points="239.67 334.23 254.3 336.8 261.52 333.19 224.63 326.7 237.61 345.15 244.82 341.55 239.67 334.23"/><polygon class="cls-9" points="235.79 321.12 240.9 328.39 252.03 330.35 250.83 328.65 265.46 331.22 272.68 327.61 235.79 321.12"/><ellipse class="cls-10" cx="244.61" cy="331.28" rx="33.45" ry="16.73"/><polygon class="cls-8" points="301.96 303.08 316.59 305.66 323.8 302.05 286.92 295.56 299.89 314.01 307.11 310.4 301.96 303.08"/><polygon class="cls-9" points="298.07 289.98 303.19 297.25 314.32 299.21 313.12 297.5 327.75 300.08 334.96 296.47 298.07 289.98"/><ellipse class="cls-10" cx="306.89" cy="300.14" rx="33.45" ry="16.73"/><polygon class="cls-8" points="366.26 270.35 380.9 272.93 388.11 269.32 351.22 262.83 364.2 281.28 371.41 277.67 366.26 270.35"/><polygon class="cls-9" points="362.38 257.25 367.5 264.52 378.62 266.48 377.43 264.77 392.06 267.35 399.27 263.74 362.38 257.25"/><ellipse class="cls-10" cx="371.2" cy="267.41" rx="33.45" ry="16.73"/><ellipse class="cls-10" cx="433.49" cy="236.27" rx="33.45" ry="16.73"/><polygon class="cls-9" points="276.95 406.84 282.07 414.11 293.2 416.06 292 414.36 306.63 416.94 313.84 413.33 276.95 406.84"/><ellipse class="cls-10" cx="285.77" cy="417" rx="33.45" ry="16.73"/><polygon class="cls-8" points="343.13 388.8 357.76 391.37 364.97 387.77 328.08 381.28 341.06 399.72 348.27 396.12 343.13 388.8"/><polygon class="cls-9" points="339.24 375.69 344.36 382.96 355.48 384.92 354.28 383.22 368.92 385.79 376.13 382.19 339.24 375.69"/><ellipse class="cls-10" cx="348.06" cy="385.86" rx="33.45" ry="16.73"/><polygon class="cls-8" points="405.99 357.51 420.62 360.09 427.83 356.48 390.94 349.99 403.92 368.44 411.14 364.83 405.99 357.51"/><polygon class="cls-9" points="402.11 344.41 407.22 351.68 418.35 353.63 417.15 351.93 431.78 354.51 438.99 350.9 402.11 344.41"/><ellipse class="cls-10" cx="410.92" cy="354.57" rx="33.45" ry="16.73"/><polygon class="cls-8" points="195.15 408.42 209.79 411 217 407.39 180.11 400.9 193.09 419.35 200.3 415.74 195.15 408.42"/><polygon class="cls-9" points="191.27 395.32 196.38 402.58 207.51 404.54 206.31 402.84 220.95 405.42 228.16 401.81 191.27 395.32"/><ellipse class="cls-10" cx="200.09" cy="405.48" rx="33.45" ry="16.73"/><polygon class="cls-8" points="258.02 377.13 272.65 379.71 279.86 376.1 242.97 369.61 255.95 388.06 263.17 384.45 258.02 377.13"/><polygon class="cls-9" points="254.13 364.03 259.25 371.3 270.37 373.26 269.18 371.55 283.81 374.13 291.02 370.52 254.13 364.03"/><ellipse class="cls-10" cx="262.95" cy="374.19" rx="33.45" ry="16.73"/><polygon class="cls-8" points="320.3 345.99 334.94 348.57 342.15 344.96 305.26 338.47 318.24 356.92 325.45 353.31 320.3 345.99"/><polygon class="cls-9" points="316.42 332.89 321.53 340.16 332.66 342.11 331.46 340.41 346.1 342.99 353.31 339.38 316.42 332.89"/><ellipse class="cls-10" cx="325.24" cy="343.05" rx="33.45" ry="16.73"/><polygon class="cls-8" points="384.61 313.26 399.24 315.83 406.46 312.23 369.57 305.74 382.55 324.19 389.76 320.58 384.61 313.26"/><polygon class="cls-9" points="380.73 300.16 385.84 307.42 396.97 309.38 395.77 307.68 410.4 310.25 417.62 306.65 380.73 300.16"/><ellipse class="cls-10" cx="389.55" cy="310.32" rx="33.45" ry="16.73"/></g><path class="cls-11" d="M131.69,42.56c.15-4.63,3.72-6.42,7.92-4l120.52,70.28a7.32,7.32,0,0,1,3.37,5.89l-.4,11.91,6.36,12.19a2.72,2.72,0,0,1-1.52,3.8l-5.45,2.12-.67,19.78c-.07,2.12-1.7,2.94-3.63,1.82L133.54,93.69a7.29,7.29,0,0,1-3.37-5.9L130.76,70l.68-20.08Z"/><path class="cls-12" d="M267.94,142.65l-1.82.71a2.61,2.61,0,0,0-.08-2.26l-6.36-12.19.4-11.9a7.34,7.34,0,0,0-3.37-5.9L134.13,39.64a5.84,5.84,0,0,0-1.36-.59c1.36-1.83,3.88-2.18,6.72-.53l120.64,70.35a7.32,7.32,0,0,1,3.37,5.89l-.4,11.91,6.36,12.19A2.71,2.71,0,0,1,267.94,142.65Zm-8.84,3.45-.69,20.38c1.83.93,3.35.12,3.41-1.92l.67-19.78Z"/><polygon class="cls-12" points="250.75 119.57 178.63 77.65 178.78 73.19 250.9 115.04 250.75 119.57"/><polygon class="cls-12" points="250.24 134.71 178.11 92.91 178.26 88.46 250.39 130.31 250.24 134.71"/><polygon class="cls-12" points="217.69 132.29 177.57 109.11 177.72 104.65 217.84 127.89 217.69 132.29"/><polygon class="cls-12" points="139.18 48.28 137.84 91.16 170.22 109.88 171.67 66.91 139.18 48.28"/><path class="cls-12" d="M101.69,269.46l.23-6.9L502.14,58.67c7.51-3.76,16.27-5.92,23.52-1.7L728.22,174.45a10.86,10.86,0,0,1,4.4,4.71l1.07,2.25c4.09,8.57.42,18.63-8.4,23L332.58,400.88c-7.51,3.75-19.58,3.37-26.83-.85L111.93,287.35A20,20,0,0,1,101.69,269.46Z"/><path class="cls-12" d="M107.28,268c-7.24-4.23-7-10.76.49-14.51L501.11,56.7c7.51-3.76,19.59-3.38,26.83.84l199,116c7.25,4.23,7,10.76-.49,14.51L333.12,384.91c-7.51,3.76-19.59,3.38-26.83-.84Z"/><path class="cls-13" d="M115.82,267.75c-7-4.07-6.76-10.35.47-14L501,61.34c7.23-3.62,18.85-3.25,25.82.81l34.77,20.79a3.12,3.12,0,0,1,.06,5.43l-4,2.45a3.56,3.56,0,0,0-.21,6.36l94.68,54.88a9,9,0,0,0,8.31.38l8.51-4a6.64,6.64,0,0,1,6.13.28l43.34,25.1c7,4.07,6.76,10.36-.47,14L333.23,380.27c-7.23,3.62-18.85,3.25-25.82-.81Z"/><path class="cls-14" d="M160.28,244.34c19.69-9.85,51.35-8.86,70.34,2.22s18.41,28.19-1.28,38.05S178,293.46,159,282.39,140.58,254.19,160.28,244.34Z"/><path class="cls-12" d="M230.05,255.29l-4-.12a25.72,25.72,0,0,0-6.24-4.94c-13.59-7.93-36.24-8.64-50.34-1.59a26,26,0,0,0-6.56,4.54l-4-.13-.29,8.81h0c-.2,5,3.09,10,9.92,14,13.59,7.93,36.24,8.64,50.33,1.59,7.08-3.54,10.71-8.4,10.84-13.36h0Z"/><ellipse class="cls-12" cx="194.5" cy="254.17" rx="19.26" ry="35.61" transform="translate(-65.51 440.8) rotate(-88.25)"/><path class="cls-15" d="M201.42,261l-.69,0L185,259.11,184.8,249a3.73,3.73,0,0,1,2.16-3.2c2.94-1.62,7.75-1.08,10.76,1.21a5.07,5.07,0,0,1,2.29,3.84,11.16,11.16,0,0,1,5.48,2.08c3,2.29,3.06,5.46.13,7.09A8.78,8.78,0,0,1,201.42,261Z"/><path class="cls-16" d="M362,58.93c.06-1.86,1.49-2.57,3.17-1.59l98.62,57.5a6.38,6.38,0,0,1,2.94,5.16L463,228.67c-.06,1.86-1.49,2.57-3.17,1.59l-98.62-57.5a6.39,6.39,0,0,1-2.95-5.16Z"/><path class="cls-12" d="M463.75,114.84l-98.62-57.5c-1.68-1-3.11-.27-3.17,1.59v.26l98.14,57.22a6.43,6.43,0,0,1,3,5.16L459.39,230l.48.28c1.68,1,3.11.27,3.17-1.59L466.69,120A6.38,6.38,0,0,0,463.75,114.84Z"/><path class="cls-12" d="M438.36,165.21l-.54-8.27a21.78,21.78,0,0,0-10.69-15.08l-3.65-2.13c0,.09,0,.18,0,.27-.13,4.25-3.39,5.89-7.24,3.65s-6.84-7.48-6.74-11.7a16,16,0,0,0-16.28,3.46l-4.66,4.51A1.93,1.93,0,0,0,389,143l7.38,4.38,2.74-1.39.57,17.11-1.33,14.46a3.91,3.91,0,0,0,1.93,3.68l21.9,13.32a2,2,0,0,0,3.07-1.57l-.15-19,1.43-14.8,1.62,4.07,7,3.82A2.13,2.13,0,0,0,438.36,165.21Z"/><path class="cls-12" d="M430.54,166.42l-.54-8.27a21.81,21.81,0,0,0-10.69-15.08l-3.65-2.13c0,.09,0,.19,0,.28-.14,4.25-3.39,5.89-7.25,3.64s-6.83-7.47-6.74-11.7a16,16,0,0,0-16.28,3.47l-4.65,4.5a1.93,1.93,0,0,0,.4,3.09l7.38,4.38,2.74-1.39.57,17.11-1.33,14.46a3.92,3.92,0,0,0,1.92,3.68l21.91,13.33a2,2,0,0,0,3.07-1.58l-.15-19,1.43-14.81,1.61,4.07,7,3.82A2.13,2.13,0,0,0,430.54,166.42Z"/><polygon class="cls-12" points="369.29 88.72 427.43 121.65 427.23 127.4 369.13 93.52 369.29 88.72"/><polygon class="cls-12" points="369.66 77.77 392.87 91.16 392.68 96.92 369.5 82.56 369.66 77.77"/><path class="cls-17" d="M283.23,92.8c.07-1.86,1.5-2.57,3.18-1.59L385,148.71a6.38,6.38,0,0,1,2.94,5.16l-3.65,108.67c-.06,1.86-1.49,2.57-3.17,1.59l-98.62-57.5a6.39,6.39,0,0,1-2.95-5.16Z"/><path class="cls-12" d="M385,148.71l-98.62-57.5c-1.68-1-3.11-.27-3.18,1.59v.26l98.14,57.22a6.44,6.44,0,0,1,2.95,5.16l-3.65,108.42.48.27c1.68,1,3.11.27,3.17-1.59L388,153.87A6.38,6.38,0,0,0,385,148.71Z"/><polygon class="cls-12" points="290.57 122.59 348.7 155.52 348.51 161.27 290.41 127.39 290.57 122.59"/><polygon class="cls-12" points="290.94 111.64 314.15 125.03 313.96 130.79 290.78 116.43 290.94 111.64"/><path class="cls-18" d="M337.06,174.1a16.65,16.65,0,0,0-8,1.77c-13.36,6.68-14.95,19.87-15.42,34.06l7.36,31.2a1.29,1.29,0,0,0,1.28,1.29,1.3,1.3,0,0,0,1.37-1.2L316.29,210c.45-13.42,1.52-25.9,14.35-32.11a13.64,13.64,0,0,1,12.72.47h0A33.46,33.46,0,0,1,359.11,199l5.07,20.33a1.33,1.33,0,0,0,2.65.08L361.49,198a34.88,34.88,0,0,0-16.42-21.55l-.15-.08A16.71,16.71,0,0,0,337.06,174.1Z"/><polygon class="cls-18" points="288.58 182.27 303.87 186.51 315.19 176.87 318.51 217.43 287.46 215.47 288.58 182.27"/><polygon class="cls-18" points="315.19 176.87 324.01 290.99 401.03 335.9 391.34 222.6 315.19 176.87"/><polygon class="cls-18" points="288.58 182.27 284.3 309.6 361.32 354.51 365.61 227.19 288.58 182.27"/><polygon class="cls-18" points="365.61 227.19 373.09 222.02 391.34 222.6 401.03 335.9 381.4 341.5 361.32 354.51 365.61 227.19"/><polygon class="cls-18" points="365.61 227.19 373.09 222.02 381.4 341.5 361.32 354.51 365.61 227.19"/><path class="cls-19" d="M302.24,213.15c-1.56-.91-2.89-.25-2.95,1.48a6,6,0,0,0,2.74,4.79c1.57.91,2.89.24,3-1.48A5.93,5.93,0,0,0,302.24,213.15Z"/><path class="cls-19" d="M343.86,237.64c-1.56-.92-2.89-.25-2.95,1.47a6,6,0,0,0,2.74,4.79c1.56.91,2.89.25,3-1.47A5.94,5.94,0,0,0,343.86,237.64Z"/><path class="cls-18" d="M333.53,174a16.7,16.7,0,0,1,7.86,2.26c8.85,5.17,11.95,13.05,12.86,22.08a53.72,53.72,0,0,1-2.35,21.27L345,241.89a1.33,1.33,0,0,1-2.65-.08l6.88-22.32a53.39,53.39,0,0,0,2.28-22.08c-.93-7.77-3.8-14.52-11.56-19a13.83,13.83,0,0,0-13.21-.41l-.12.06a33.07,33.07,0,0,0-16.77,19.32l-6.47,20.08a1.32,1.32,0,0,1-2.64-.09l6.76-21a35.1,35.1,0,0,1,17.84-20.48l.15-.07A16.69,16.69,0,0,1,333.53,174Z"/><path class="cls-18" d="M295.91,232a13.56,13.56,0,0,0-6.48,1.43c-10.83,5.42-12.11,16.11-12.5,27.61l6,25.3a1,1,0,0,0,1,1,1,1,0,0,0,1.11-1l-6-25.3c.36-10.88,1.23-21,11.62-26a11.06,11.06,0,0,1,10.32.39h0a27.09,27.09,0,0,1,12.76,16.71l4.12,16.48a1.07,1.07,0,0,0,2.14.07l-4.33-17.36a28.24,28.24,0,0,0-13.31-17.46l-.12-.07A13.48,13.48,0,0,0,295.91,232Z"/><polygon class="cls-18" points="256.61 238.66 269 242.09 278.18 234.28 280.88 267.16 255.71 265.57 256.61 238.66"/><polygon class="cls-18" points="256.61 238.66 269 242.09 278.18 234.28 280.88 267.16 255.71 265.57 256.61 238.66"/><polygon class="cls-18" points="278.18 234.28 285.33 326.79 347.77 363.19 339.92 271.35 278.18 234.28"/><polygon class="cls-18" points="256.61 238.66 253.14 341.87 315.58 378.28 319.05 275.07 256.61 238.66"/><polygon class="cls-18" points="319.05 275.07 325.12 270.88 339.92 271.35 347.77 363.19 331.85 367.74 315.58 378.28 319.05 275.07"/><polygon class="cls-20" points="319.05 275.07 325.12 270.88 331.85 367.74 315.58 378.28 319.05 275.07"/><path class="cls-19" d="M267.69,263.69c-1.27-.74-2.35-.2-2.39,1.19a4.81,4.81,0,0,0,2.22,3.89c1.26.74,2.34.2,2.38-1.2A4.83,4.83,0,0,0,267.69,263.69Z"/><path class="cls-19" d="M301.42,283.54c-1.26-.74-2.34-.21-2.39,1.19a4.86,4.86,0,0,0,2.22,3.89c1.27.74,2.35.2,2.39-1.2A4.8,4.8,0,0,0,301.42,283.54Z"/><path class="cls-18" d="M293.05,231.94a13.54,13.54,0,0,1,6.37,1.84c7.17,4.18,9.68,10.57,10.43,17.89a43.74,43.74,0,0,1-1.9,17.25L302.38,287a1.07,1.07,0,0,1-2.14-.07l5.56-18.09a43.36,43.36,0,0,0,1.86-17.9c-.76-6.3-3.08-11.77-9.37-15.44a11.22,11.22,0,0,0-10.71-.34l-.1,0a26.78,26.78,0,0,0-13.59,15.66l-5.25,16.28a1.07,1.07,0,0,1-2.14-.07L272,250a28.42,28.42,0,0,1,14.46-16.6l.13-.07A13.54,13.54,0,0,1,293.05,231.94Z"/><g class="cls-21"><path class="cls-22" d="M326,409.61c-6.85-4-6.64-10.16.46-13.71l195.23-97.62c7.1-3.55,18.51-3.19,25.35.8l101.14,59c6.84,4,6.64,10.16-.46,13.71L452.47,469.38c-7.1,3.55-18.51,3.19-25.36-.8Z"/><path class="cls-23" d="M326.32,409.46c-6.83-4-6.62-10.14.46-13.68L521.52,298.4c7.08-3.54,18.46-3.18,25.29.8L647.69,358c6.83,4,6.62,10.14-.46,13.68L452.49,469.08c-7.08,3.54-18.46,3.18-25.29-.8Z"/><path class="cls-24" d="M326.66,409.3c-6.81-4-6.6-10.11.46-13.65l194.25-97.13c7.07-3.53,18.42-3.17,25.23.8L647.23,358c6.81,4,6.6,10.11-.46,13.65L452.52,468.77c-7.07,3.53-18.42,3.17-25.23-.8Z"/><path class="cls-25" d="M327,409.14c-6.79-4-6.58-10.09.46-13.61l193.76-96.89c7-3.52,18.37-3.16,25.17.8L646.76,358c6.79,4,6.59,10.09-.46,13.61L452.54,468.46c-7,3.52-18.37,3.17-25.16-.79Z"/><path class="cls-26" d="M327.35,409c-6.78-4-6.57-10.06.45-13.57l193.27-96.65c7-3.51,18.33-3.15,25.1.8l100.12,58.38c6.78,3.95,6.57,10.05-.45,13.57L452.57,468.15c-7,3.52-18.33,3.16-25.1-.79Z"/><path class="cls-27" d="M327.69,408.82c-6.76-3.94-6.56-10,.46-13.54l192.78-96.4c7-3.5,18.27-3.14,25,.8l99.87,58.23c6.76,3.94,6.55,10-.46,13.54l-192.78,96.4c-7,3.5-18.28,3.14-25-.8Z"/><path class="cls-28" d="M328,408.67c-6.74-3.94-6.54-10,.46-13.51L520.78,299c7-3.5,18.23-3.15,25,.79l99.61,58.08c6.74,3.93,6.54,10-.45,13.5L452.62,467.54c-7,3.49-18.24,3.14-25-.79Z"/><path class="cls-29" d="M328.37,408.51c-6.72-3.92-6.52-10,.46-13.47l191.8-95.91c7-3.49,18.18-3.14,24.91.78l99.36,57.94c6.72,3.92,6.52,10-.46,13.47l-191.8,95.91c-7,3.49-18.18,3.13-24.91-.79Z"/><path class="cls-30" d="M328.71,408.35c-6.71-3.91-6.5-10,.46-13.44l191.31-95.66c7-3.48,18.14-3.13,24.84.78l99.11,57.79c6.71,3.91,6.5,10-.45,13.44L452.66,466.92c-7,3.48-18.13,3.13-24.84-.78Z"/><path class="cls-31" d="M329.05,408.19c-6.69-3.9-6.48-9.93.46-13.4l190.82-95.42c6.94-3.47,18.09-3.12,24.78.78L644,357.79c6.69,3.9,6.49,9.93-.45,13.4L452.69,466.61c-6.94,3.47-18.09,3.12-24.78-.78Z"/><path class="cls-32" d="M329.4,408c-6.68-3.89-6.47-9.9.45-13.36l190.33-95.18c6.92-3.46,18-3.11,24.72.78l98.6,57.49c6.67,3.89,6.47,9.91-.45,13.37L452.71,466.31c-6.92,3.46-18,3.11-24.72-.79Z"/><path class="cls-33" d="M329.74,407.88c-6.66-3.89-6.46-9.89.45-13.34L520,299.61c6.9-3.45,18-3.1,24.66.78L643,357.73c6.66,3.89,6.45,9.89-.45,13.34L452.74,466c-6.91,3.45-18,3.1-24.66-.78Z"/><path class="cls-34" d="M330.08,407.72c-6.64-3.87-6.44-9.86.45-13.3l189.35-94.69c6.89-3.44,18-3.09,24.59.78l98.09,57.2c6.64,3.87,6.44,9.85-.44,13.3L452.76,465.69c-6.88,3.44-17.95,3.09-24.59-.78Z"/><path class="cls-35" d="M330.42,407.56c-6.62-3.86-6.42-9.83.45-13.27l188.86-94.44c6.87-3.43,17.91-3.08,24.53.78l97.84,57.05c6.62,3.86,6.42,9.83-.45,13.26L452.79,465.38c-6.87,3.44-17.91,3.09-24.53-.77Z"/><path class="cls-36" d="M330.76,407.4c-6.6-3.85-6.4-9.8.45-13.23L519.58,300c6.85-3.42,17.86-3.07,24.47.78l97.58,56.9c6.61,3.85,6.41,9.8-.45,13.23l-188.37,94.2c-6.85,3.42-17.86,3.07-24.46-.78Z"/><path class="cls-37" d="M331.1,407.24c-6.58-3.84-6.38-9.78.45-13.19L519.43,300.1c6.84-3.42,17.82-3.07,24.4.77l97.34,56.75c6.58,3.84,6.38,9.78-.45,13.2L452.84,464.77c-6.84,3.41-17.82,3.07-24.41-.77Z"/><path class="cls-38" d="M331.45,407.09c-6.58-3.84-6.37-9.76.44-13.17l187.4-93.7c6.81-3.41,17.76-3.06,24.33.77l97.08,56.6c6.57,3.83,6.37,9.75-.45,13.16L452.86,464.46c-6.82,3.41-17.77,3.06-24.34-.77Z"/><path class="cls-39" d="M331.79,406.93c-6.56-3.82-6.36-9.73.44-13.13l186.91-93.46c6.79-3.4,17.72-3,24.27.77l96.82,56.45c6.56,3.82,6.36,9.73-.44,13.13L452.88,464.15c-6.79,3.4-17.72,3.05-24.27-.77Z"/><path class="cls-40" d="M332.13,406.77c-6.54-3.81-6.34-9.7.44-13.09L519,300.46c6.78-3.39,17.67-3,24.21.77l96.57,56.3c6.53,3.81,6.33,9.71-.45,13.1L452.91,463.84c-6.78,3.39-17.68,3.05-24.21-.76Z"/><path class="cls-41" d="M332.47,406.61c-6.52-3.8-6.32-9.68.44-13.06l185.93-93c6.76-3.38,17.63-3,24.14.76L639.3,357.5c6.52,3.81,6.32,9.68-.44,13.06l-185.93,93c-6.76,3.38-17.62,3-24.14-.77Z"/><path class="cls-42" d="M332.81,406.45c-6.5-3.79-6.3-9.65.44-13L518.69,300.7c6.74-3.37,17.58-3,24.08.76l96.06,56c6.51,3.79,6.31,9.65-.44,13L453,463.23c-6.75,3.37-17.58,3-24.09-.76Z"/><path class="cls-43" d="M333.15,406.3c-6.48-3.79-6.28-9.63.44-13l185-92.49c6.73-3.36,17.53-3,24,.76l95.81,55.87c6.48,3.78,6.29,9.62-.44,13L453,462.92c-6.72,3.36-17.53,3-24-.76Z"/><path class="cls-44" d="M333.5,406.14c-6.47-3.77-6.28-9.6.43-13l184.46-92.24c6.71-3.35,17.49-3,24,.76l95.55,55.72c6.47,3.77,6.27,9.6-.44,12.95L453,462.61c-6.71,3.36-17.49,3-24-.76Z"/><path class="cls-45" d="M333.84,406c-6.45-3.76-6.26-9.58.43-12.92l184-92c6.69-3.35,17.44-3,23.89.75l95.31,55.57c6.45,3.76,6.25,9.58-.44,12.92l-184,92c-6.69,3.35-17.44,3-23.89-.75Z"/><path class="cls-46" d="M334.18,405.82c-6.44-3.75-6.24-9.55.43-12.88l183.48-91.75c6.68-3.34,17.4-3,23.83.75L637,357.36c6.43,3.75,6.24,9.55-.44,12.89L453.06,462c-6.68,3.33-17.4,3-23.83-.76Z"/><path class="cls-47" d="M334.52,405.66c-6.42-3.74-6.22-9.52.43-12.85l183-91.5c6.66-3.33,17.35-3,23.77.75l94.79,55.27c6.42,3.74,6.22,9.53-.43,12.86l-183,91.5c-6.66,3.33-17.35,3-23.77-.75Z"/><path class="cls-48" d="M334.86,405.51c-6.4-3.74-6.2-9.5.43-12.82l182.5-91.26c6.64-3.32,17.31-3,23.71.75L636,357.3c6.4,3.74,6.2,9.5-.44,12.82L453.1,461.38c-6.63,3.32-17.3,3-23.7-.75Z"/><path class="cls-49" d="M335.2,405.35c-6.38-3.72-6.18-9.48.43-12.79l182-91c6.61-3.31,17.25-3,23.63.75l94.29,55c6.38,3.72,6.19,9.47-.43,12.78l-182,91c-6.62,3.31-17.26,3-23.64-.75Z"/><path class="cls-50" d="M335.54,405.19c-6.36-3.71-6.17-9.45.43-12.75L517.5,301.67c6.6-3.3,17.21-3,23.57.75l94,54.83c6.37,3.71,6.18,9.44-.43,12.75L453.15,460.77c-6.6,3.3-17.21,3-23.57-.75Z"/><path class="cls-51" d="M335.89,405c-6.35-3.7-6.16-9.42.43-12.71l181-90.53c6.58-3.29,17.16-3,23.51.75l93.78,54.68c6.35,3.7,6.15,9.42-.43,12.71l-181,90.53c-6.59,3.29-17.17,3-23.51-.75Z"/><path class="cls-52" d="M336.23,404.87c-6.33-3.69-6.14-9.39.43-12.68L517.2,301.91c6.56-3.28,17.12-3,23.45.75l93.52,54.53c6.33,3.69,6.14,9.4-.43,12.68L453.2,460.15c-6.56,3.28-17.11,3-23.45-.74Z"/><path class="cls-53" d="M336.57,404.72c-6.31-3.69-6.12-9.38.43-12.65l180-90c6.55-3.28,17.07-3,23.38.73l93.28,54.39c6.31,3.68,6.12,9.37-.43,12.65l-180,90c-6.55,3.28-17.07,2.94-23.39-.74Z"/><path class="cls-54" d="M336.91,404.56c-6.3-3.67-6.1-9.35.43-12.61L516.9,302.16c6.53-3.27,17-2.94,23.32.73l93,54.24c6.3,3.67,6.1,9.35-.43,12.61L453.25,459.53c-6.53,3.27-17,2.94-23.32-.73Z"/><path class="cls-55" d="M337.25,404.4c-6.28-3.66-6.08-9.32.43-12.58l179.07-89.54c6.51-3.26,17-2.93,23.26.73l92.76,54.09c6.28,3.66,6.09,9.32-.42,12.58L453.27,459.23c-6.51,3.25-17,2.92-23.25-.74Z"/><path class="cls-56" d="M337.59,404.24c-6.26-3.65-6.07-9.29.43-12.54L516.6,302.4c6.5-3.25,16.93-2.92,23.19.73l92.52,53.94c6.26,3.66,6.07,9.3-.43,12.55L453.3,458.92c-6.49,3.25-16.93,2.92-23.19-.74Z"/><path class="cls-57" d="M337.94,404.08c-6.25-3.64-6.06-9.27.42-12.5l178.09-89.06c6.48-3.24,16.89-2.91,23.13.73l92.26,53.8c6.25,3.64,6.06,9.27-.42,12.5l-178.1,89.06c-6.47,3.24-16.88,2.91-23.13-.73Z"/><path class="cls-58" d="M338.28,403.93c-6.23-3.63-6-9.25.42-12.48l177.6-88.81c6.46-3.23,16.84-2.9,23.07.73l92,53.65c6.23,3.63,6,9.24-.42,12.47L453.35,458.3c-6.46,3.23-16.84,2.9-23.07-.73Z"/><path class="cls-59" d="M338.62,403.77c-6.21-3.62-6-9.22.42-12.44l177.11-88.57c6.45-3.22,16.8-2.89,23,.73L630.91,357c6.21,3.62,6,9.22-.42,12.44L453.37,458c-6.44,3.23-16.79,2.9-23-.72Z"/><path class="cls-60" d="M339,403.61c-6.19-3.61-6-9.19.42-12.41L516,302.88c6.42-3.21,16.74-2.88,22.93.73L630.44,357c6.2,3.61,6,9.19-.42,12.41L453.4,457.69c-6.43,3.21-16.75,2.88-22.94-.73Z"/><path class="cls-61" d="M339.3,403.45c-6.17-3.6-6-9.17.42-12.37L515.86,303c6.4-3.2,16.7-2.87,22.87.73L630,356.93c6.17,3.6,6,9.17-.42,12.37L453.42,457.38c-6.4,3.2-16.7,2.88-22.87-.73Z"/><path class="cls-62" d="M339.64,403.29c-6.15-3.59-6-9.14.42-12.33l175.65-87.83c6.39-3.2,16.65-2.87,22.81.72l91,53c6.16,3.59,6,9.14-.42,12.34L453.45,457.07c-6.39,3.19-16.66,2.87-22.82-.72Z"/><path class="cls-63" d="M340,403.14c-6.15-3.58-6-9.12.41-12.31l175.16-87.58c6.37-3.19,16.6-2.86,22.75.72L629,356.87c6.14,3.58,6,9.12-.41,12.31L453.47,456.76c-6.37,3.19-16.61,2.86-22.75-.72Z"/><path class="cls-64" d="M340.33,403c-6.13-3.57-5.94-9.09.41-12.27l174.67-87.34c6.35-3.18,16.56-2.86,22.68.72l90.49,52.75c6.12,3.58,5.94,9.1-.42,12.27L453.49,456.46c-6.35,3.17-16.56,2.85-22.68-.72Z"/><path class="cls-65" d="M340.67,402.82c-6.11-3.56-5.92-9.07.41-12.23l174.18-87.1c6.33-3.17,16.51-2.85,22.62.71l90.23,52.62c6.11,3.56,5.92,9.06-.41,12.23l-174.18,87.1c-6.33,3.16-16.51,2.84-22.62-.72Z"/><path class="cls-66" d="M341,402.66c-6.09-3.55-5.9-9,.41-12.2l173.69-86.85c6.32-3.16,16.47-2.84,22.56.71l90,52.47c6.09,3.55,5.91,9-.41,12.2L453.54,455.84c-6.31,3.16-16.46,2.84-22.55-.71Z"/><path class="cls-67" d="M341.35,402.5c-6.07-3.54-5.89-9,.41-12.16L515,303.73c6.3-3.15,16.42-2.83,22.5.71l89.72,52.32c6.07,3.54,5.89,9-.41,12.16l-173.2,86.61c-6.3,3.15-16.42,2.83-22.5-.71Z"/><path class="cls-68" d="M341.69,402.35c-6.05-3.54-5.87-9,.41-12.13l172.71-86.37c6.28-3.14,16.38-2.82,22.43.71l89.47,52.17c6.06,3.53,5.87,9-.41,12.13L453.59,455.22c-6.28,3.14-16.37,2.83-22.43-.71Z"/><path class="cls-69" d="M342,402.19c-6-3.52-5.85-9,.41-12.1L514.66,304c6.27-3.13,16.33-2.81,22.37.71l89.22,52c6,3.52,5.85,9-.41,12.1L453.62,454.92c-6.27,3.13-16.33,2.81-22.37-.71Z"/><path class="cls-70" d="M342.38,402c-6-3.51-5.84-8.94.4-12.06l171.74-85.88c6.24-3.12,16.28-2.8,22.3.71l89,51.87c6,3.51,5.84,8.94-.41,12.06L453.64,454.61c-6.24,3.12-16.28,2.8-22.3-.71Z"/><path class="cls-71" d="M342.72,401.87c-6-3.5-5.82-8.91.4-12l171.25-85.63c6.22-3.12,16.23-2.8,22.23.7l88.71,51.72c6,3.5,5.83,8.92-.4,12L453.67,454.3c-6.23,3.11-16.24,2.8-22.24-.7Z"/><path class="cls-72" d="M343.06,401.71c-6-3.49-5.81-8.88.4-12l170.76-85.38c6.21-3.11,16.19-2.79,22.17.7l88.46,51.58c6,3.49,5.8,8.88-.41,12L453.69,454c-6.21,3.11-16.19,2.79-22.18-.7Z"/><path class="cls-12" d="M343.4,401.56c-6-3.48-5.79-8.87.4-12l170.27-85.14c6.19-3.1,16.14-2.78,22.11.7l88.2,51.43c6,3.48,5.79,8.86-.4,12L453.71,453.68c-6.19,3.1-16.14,2.79-22.11-.7Z"/></g><path class="cls-12" d="M329.62,395.54c.08-2.21.16-4.71.19-5.87,0,0,1.54,1.76,4.91.08L518,298.11c6.66-3.33,17.37-3,23.8.76l94.93,55.35c2.72,1.59,4.56-2.15,4.92-.17l-.21,6.32a7.22,7.22,0,0,1-4.09,6.17L453,458.73c-6.67,3.33-17.38,3-23.8-.75l-96-56.17A7,7,0,0,1,329.62,395.54Z"/><path class="cls-11" d="M334.5,396.19c-6.43-3.75-6.23-9.54.43-12.88l183.26-91.63c6.67-3.34,17.38-3,23.8.75l94.94,55.35c6.42,3.75,6.23,9.54-.44,12.87L453.23,452.29c-6.66,3.34-17.37,3-23.8-.75Z"/><path class="cls-16" d="M381.22,399.73c-12.83-7.48-12.44-19.05.86-25.7s34.69-6,47.52,1.49,12.44,19.05-.86,25.71S394.05,407.21,381.22,399.73Z"/><path class="cls-12" d="M411.85,396.19l-15.85-1a2.65,2.65,0,0,1-2.57-2.75,2.75,2.75,0,0,1,2.92-2.4l10.88.68,2.63-15a2.72,2.72,0,0,1,3.15-2.12,2.61,2.61,0,0,1,2.27,3Z"/><polygon class="cls-12" points="413.42 420.65 425.08 427.61 595.27 343.14 583.46 336.26 413.42 420.65"/><path class="cls-9" d="M351.16,142.68l2,1L357,156.86l-2.12-1.06-.88-3.3-3.75-1.87-.88,2.42-2-1Zm2.26,7.79-1.33-5-1.35,3.7Z"/><path class="cls-9" d="M358.09,146.15l3.77,1.88a11.2,11.2,0,0,1,2.16,1.42,8.86,8.86,0,0,1,1.69,1.88,8.35,8.35,0,0,1,1.11,2.33,9.37,9.37,0,0,1,.39,2.75,5.22,5.22,0,0,1-.4,2.24,2.39,2.39,0,0,1-1.12,1.18,2.87,2.87,0,0,1-1.7.2,7.29,7.29,0,0,1-2.15-.73l-3.75-1.87Zm3.59,11.18a3,3,0,0,0,2.63.38c.6-.32.9-1.07.9-2.27a6.45,6.45,0,0,0-.83-3.23,6.24,6.24,0,0,0-2.7-2.38L360,149v7.5Z"/><path class="cls-9" d="M372.73,163l1.64.81v-6.73l-1.83.17-.75-1.93,2.8-.31,1.56.78v8.92l1.57.78v1.75l-5-2.5Z"/><path class="cls-73" d="M-22.9,372.41v15.68c0,5,3,9.81,9.24,13.38l56.12,32.41c13.68,7.89,37.58,6.9,53.39-2.22l48.44-28c8.64-5,13.07-11.38,13.07-17.43V370.58c0,6.05-4.43,12.44-13.07,17.43L95.85,416C80,425.1,56.14,426.1,42.46,418.2l-56.12-32.4C-19.85,382.22-22.9,377.43-22.9,372.41Z"/><path class="cls-5" d="M-22.9,372.41c0,5,3,9.81,9.24,13.39l56.12,32.4C56.14,426.1,80,425.1,95.85,416l48.44-28c8.64-5,13.07-11.38,13.07-17.43,0-5-3-9.81-9.24-13.38L92,324.79a35.93,35.93,0,0,0-7.79-3.26c-.4,4.87-.75,9.71-1,14.5-.33,5.87-.52,11.65-.49,17.28v.35L95.6,364.33a3.87,3.87,0,0,1-4.46,6.18l-16.4-8.27a4.46,4.46,0,0,1-2.4-5l.74-3.18a6.74,6.74,0,0,0,.19-1.48,7.2,7.2,0,0,0-.22-1.9c-1-3.89-1.8-7.87-2.51-11.94-1.07-6.2-1.87-12.61-2.54-19.24-1.12,0-2.25,0-3.38.13-3.73,7.46-7.44,14.81-12,23.64-1.58,3-3.24,6.2-5.06,9.62a8.9,8.9,0,0,0-.81,4.21c.05,5.54,3,13.16,4.72,17.06a2.3,2.3,0,0,1,.19.95,4.61,4.61,0,0,1-2,3.62,3.13,3.13,0,0,1-4.23-1L34.92,361.1a5.65,5.65,0,0,1-.86-3,5.58,5.58,0,0,1,1-3.24,35.48,35.48,0,0,0,2.39-3.94,28.13,28.13,0,0,0,2.72-7.38c.44-2.17.87-4.32,1.32-6.45,1-4.5,2-8.87,3.05-13A50.2,50.2,0,0,0,38.63,327L-9.82,355C-18.47,360-22.9,366.36-22.9,372.41Z"/><path class="cls-9" d="M34.06,358.08a5.65,5.65,0,0,0,.86,3L45.4,377.67a3.13,3.13,0,0,0,4.23,1,4.61,4.61,0,0,0,2-3.62,2.3,2.3,0,0,0-.19-.95c-1.68-3.9-4.67-11.52-4.72-17.06-3.51-.62-6.71-3.15-9.14-6.11l-.12-.06a35.48,35.48,0,0,1-2.39,3.94A5.58,5.58,0,0,0,34.06,358.08Z"/><path class="cls-73" d="M37.47,350.9l.12.06c2.43,3,5.63,5.49,9.14,6.11a8.9,8.9,0,0,1,.81-4.21c1.82-3.42,3.48-6.61,5.06-9.62h0a56,56,0,0,1-11.07-6.17h0c-.45,2.13-.88,4.28-1.32,6.45A28.13,28.13,0,0,1,37.47,350.9Z"/><path class="cls-73" d="M39.09,201.85c.45,3.82,1.42,8.21,2.56,13.3.28,1.24.62,2.59,1,3.92h0a16.17,16.17,0,0,0,9.66-3.3h0a4.27,4.27,0,0,1-.22-.87l-2.8-17.15c-1.1,2.7-3.17,4.66-7.32,4.66A7.43,7.43,0,0,1,39.09,201.85Z"/><path class="cls-74" d="M67.47,313.88c.18,1.88.35,3.74.53,5.59.67,6.63,1.47,13,2.54,19.24a9.65,9.65,0,0,0,3.86.8A14.76,14.76,0,0,0,83.21,336c.26-4.79.61-9.63,1-14.5,2.21-27.32,5.62-55.62,1.4-79.81-8,8.67-24.41,15.11-41.61,5.27-2.75,11.34,4.61,32.66,9,43.78a14.49,14.49,0,0,1-.89,12.32c-2.8,5-5.29,12.43-7.54,21-1.07,4.1-2.09,8.47-3.05,13h0a56,56,0,0,0,11.07,6.17h0c4.58-8.83,8.29-16.18,12-23.64C65.57,317.71,66.51,315.81,67.47,313.88Z"/><path class="cls-73" d="M42.61,219.07h0c.35,1.34.7,2.65,1,3.76a6.73,6.73,0,0,0,4.1,4.51l1.94.71A179.45,179.45,0,0,0,72,234.5a34,34,0,0,0,5.21.42,25,25,0,0,0,8-1.38c4-1.41,7.32-3.9,7.32-7.56,0-1-.58-1.69-2.06-1.69a39.28,39.28,0,0,0-7.26,1.34l-1.13.26a26.39,26.39,0,0,1-5,.83h-.43v0c-6.93-1.73-16.82-5.82-21.5-7.81a5.26,5.26,0,0,1-2.88-3.11h0A16.17,16.17,0,0,1,42.61,219.07Z"/><path class="cls-73" d="M85.49,234c-.1-.17-.2-.33-.28-.5a25,25,0,0,1-8,1.38A34,34,0,0,1,72,234.5a179.45,179.45,0,0,1-22.35-6.45h0A94.16,94.16,0,0,1,44,247c17.2,9.84,33.59,3.4,41.61-5.27a24,24,0,0,0,2.65-3.41A30.44,30.44,0,0,1,85.49,234Z"/><path class="cls-73" d="M80.66,196.86l13.6,9.64a19.21,19.21,0,0,1,6-10.63,133.83,133.83,0,0,1-16.54-15.51C74.79,170.21,70,171,63.43,174.84c.1.42,4.73-21.48,4.81-21.13.47,2.09-12.42,1.5-14.28,2.59s3,26.62,0,24a15.58,15.58,0,0,0-2.57,5.08c-.9,3.31-.55,8.59-2.11,12.39l2.8,17.15a4.27,4.27,0,0,0,.22.87,5.26,5.26,0,0,0,2.88,3.11c4.68,2,14.57,6.08,21.5,7.81v0h.43a26.39,26.39,0,0,0,5-.83c-2.49-8.06-3-16.5-1.68-20.64A14.77,14.77,0,0,0,80.66,196.86Z"/><path class="cls-73" d="M64.62,319.6c1.13-.08,2.26-.12,3.38-.13-.18-1.85-.35-3.71-.53-5.59C66.51,315.81,65.57,317.71,64.62,319.6Z"/><path class="cls-9" d="M72.34,357.21a4.46,4.46,0,0,0,2.4,5l16.4,8.27a3.87,3.87,0,0,0,4.46-6.18L82.72,353.66v-.35a8.28,8.28,0,0,1-3.6.81,13.71,13.71,0,0,1-5.85-1.57,6.74,6.74,0,0,1-.19,1.48Z"/><path class="cls-73" d="M70.54,338.71c.71,4.07,1.53,8.05,2.51,11.94a7.2,7.2,0,0,1,.22,1.9,13.71,13.71,0,0,0,5.85,1.57,8.28,8.28,0,0,0,3.6-.81c0-5.63.16-11.41.49-17.28a14.76,14.76,0,0,1-8.81,3.48A9.65,9.65,0,0,1,70.54,338.71Z"/><path class="cls-73" d="M86,216.31l-2.78,9.32a39.28,39.28,0,0,1,7.26-1.34c1.48,0,2.06.68,2.06,1.69,0,3.66-3.33,6.15-7.32,7.56.08.17.18.33.28.5L92,235.09l5.32-17.51Z"/><path class="cls-73" d="M94.26,206.5l8.27,5.86a6.45,6.45,0,0,0,9-1.48c3-4.18,7.22-10,10-14V184.44a.5.5,0,0,1,0-.17h0L106.9,199a1.76,1.76,0,0,1-2.31.19c-1-.72-2.49-1.85-4.32-3.3A19.21,19.21,0,0,0,94.26,206.5Z"/><path class="cls-73" d="M219.38,157.09c0,4,2.84,5.66,6.33,3.64A14,14,0,0,0,232,149.79c0-4-2.83-5.67-6.32-3.66A14,14,0,0,0,219.38,157.09Zm-17.66-34c0-4-2.82-5.66-6.31-3.65a14,14,0,0,0-6.32,10.94c0,4,2.83,5.67,6.32,3.65A13.94,13.94,0,0,0,201.72,123.1Zm45.54-45.41V178.92c0,4-2.45,8.68-5.46,10.42L127.37,255.41c-3,1.74-5.45-.11-5.45-4.12V150.06c0-4,2.44-8.69,5.45-10.43L241.8,73.57C244.81,71.83,247.26,73.68,247.26,77.69Zm-75,95.39V136.79l-31.43,18.14v36.3Z"/><path class="cls-73" d="M232,149.79a14,14,0,0,1-6.32,10.94c-3.49,2-6.33.39-6.33-3.64a14,14,0,0,1,6.33-11C229.2,144.12,232,145.76,232,149.79Z"/><path class="cls-73" d="M201.72,123.1A13.94,13.94,0,0,1,195.41,134c-3.49,2-6.32.38-6.32-3.65a14,14,0,0,1,6.32-10.94C198.9,117.44,201.72,119.07,201.72,123.1Z"/><polygon class="cls-74" points="172.21 136.79 172.21 173.08 156.5 164 172.21 136.79"/><polygon class="cls-73" points="172.21 136.79 156.5 164 140.78 154.93 172.21 136.79"/><polygon class="cls-73" points="172.21 173.08 140.78 191.23 156.5 164 172.21 173.08"/><polygon class="cls-75" points="156.5 164 140.78 191.23 140.78 154.93 156.5 164"/><path class="cls-9" d="M105.63,200.87a3.15,3.15,0,0,0,2.24-.94l14.55-14.71a1.35,1.35,0,0,0-1.92-1.9L105.94,198a.42.42,0,0,1-.54.06c-1.12-.81-2.68-2-4.3-3.28a133.25,133.25,0,0,1-16.36-15.35c-9.14-10.37-14.57-10.09-22-5.79A1.35,1.35,0,1,0,64.11,176c5.76-3.33,9.89-4.65,18.6,5.25a137.23,137.23,0,0,0,16.71,15.68c2.27,1.78,3.71,2.85,4.38,3.33A3,3,0,0,0,105.63,200.87Z"/><path class="cls-9" d="M106.25,214.9a7.8,7.8,0,0,0,6.34-3.23c2.45-3.39,7-9.72,10-14a1.35,1.35,0,0,0-2.22-1.54c-2.95,4.25-7.5,10.56-9.95,14a5.12,5.12,0,0,1-7.09,1.17L81.44,195.75A1.36,1.36,0,1,0,79.87,198l21.87,15.5A7.77,7.77,0,0,0,106.25,214.9Z"/><path class="cls-9" d="M61.75,253.24a34.24,34.24,0,0,0,24.86-10.61,24.44,24.44,0,0,0,2.8-3.59,1.35,1.35,0,0,0-.07-1.56,30.27,30.27,0,0,1-2.67-4.08l-.08-.15-.18-.32A1.35,1.35,0,0,0,84,234.14a5.2,5.2,0,0,0,.25.46l.06.11a31.5,31.5,0,0,0,2.31,3.65,24.2,24.2,0,0,1-2,2.44c-7.95,8.59-23.41,13.87-38.94,5.58A92.17,92.17,0,0,0,51,228.28a1.35,1.35,0,0,0-2.67-.44,93.22,93.22,0,0,1-5.56,18.66,1.35,1.35,0,0,0,.59,1.66A36.8,36.8,0,0,0,61.75,253.24Z"/><path class="cls-9" d="M77.21,236.27a26.34,26.34,0,0,0,8.45-1.46c5.3-1.86,8.22-5,8.22-8.83,0-1.47-.9-3-3.41-3a36.37,36.37,0,0,0-7.21,1.29l-.77.18c-.23.05-.45.11-.68.15a26.13,26.13,0,0,1-4.8.81H77c-6.64-1.66-16.17-5.56-21.26-7.74a3.85,3.85,0,0,1-2.13-2.29,3,3,0,0,1-.17-.63l-2.8-17.18A1.36,1.36,0,0,0,49,196.42,1.34,1.34,0,0,0,47.93,198l2.79,17.15a6.2,6.2,0,0,0,.3,1.14,6.55,6.55,0,0,0,3.6,3.85c5.13,2.2,14.68,6.1,21.5,7.83a1.5,1.5,0,0,0,.44.12,21.93,21.93,0,0,0,5.83-.86l.73-.16.76-.18a36.54,36.54,0,0,1,6.59-1.22,1.27,1.27,0,0,1,.68.12h0a.55.55,0,0,1,0,.22c0,3.5-4,5.44-6.42,6.28a23.6,23.6,0,0,1-7.55,1.31,32.69,32.69,0,0,1-5-.41,176.83,176.83,0,0,1-22.1-6.38l-1.92-.71a5.39,5.39,0,0,1-3.28-3.6l-.09-.34c-.28-1-.6-2.2-.91-3.4s-.66-2.65-.94-3.88c-1.17-5.19-2.1-9.45-2.54-13.16a1.35,1.35,0,1,0-2.68.32c.45,3.83,1.4,8.17,2.58,13.43.29,1.26.63,2.62,1,4s.64,2.4.92,3.44l.09.34a8.12,8.12,0,0,0,4.94,5.42l1.94.72a182,182,0,0,0,22.53,6.5A36.23,36.23,0,0,0,77.21,236.27Z"/><path class="cls-9" d="M82.08,227.24a1.39,1.39,0,0,0,.4-.06,1.35,1.35,0,0,0,.89-1.69c-2.57-8.31-2.79-16.27-1.68-19.84a16.07,16.07,0,0,0,.27-9.13,38.53,38.53,0,0,0-1.9-5.29c-.29-.68-.58-1.38-.86-2.09a1.35,1.35,0,1,0-2.51,1c.28.74.58,1.45.87,2.15a36.29,36.29,0,0,1,1.79,4.92,13.36,13.36,0,0,1-.24,7.66c-1.46,4.7-.77,13.51,1.68,21.44A1.36,1.36,0,0,0,82.08,227.24Z"/><path class="cls-9" d="M92,236.44a1.35,1.35,0,0,0,1.29-.95L98.58,218a1.37,1.37,0,0,0-.17-1.13,1.32,1.32,0,0,0-1-.6L86.14,215a1.36,1.36,0,0,0-1.44,1l-2.79,9.31a1.35,1.35,0,0,0,2.59.78L87,217.78l8.56,1L91,233.57l-6.54-1a1.35,1.35,0,1,0-.43,2.66l7.7,1.25Z"/><path class="cls-9" d="M48,380.48a4.52,4.52,0,0,0,2.28-.62A6,6,0,0,0,53,375.08a3.65,3.65,0,0,0-.3-1.5c-1.7-3.92-4.56-11.3-4.61-16.53a7.51,7.51,0,0,1,.65-3.55c1.6-3,3.07-5.83,4.47-8.51l.59-1.13c4.1-7.89,7.7-15,12-23.66,1-1.89,1.89-3.78,2.85-5.72l5.54-11.1C77,297.85,74.45,281,72,264.61c-.52-3.48-1-6.87-1.46-10a1.35,1.35,0,1,0-2.67.36c.43,3.15.94,6.55,1.46,10,2.16,14.43,4.84,32.39,2.46,37.16l-5.53,11.11c-1,1.93-1.9,3.82-2.85,5.71-4.34,8.68-7.93,15.75-12,23.62l-.59,1.13c-1.4,2.67-2.87,5.49-4.46,8.49a10,10,0,0,0-1,4.85c0,5.41,2.66,12.55,4.83,17.58a1,1,0,0,1,.08.42A3.3,3.3,0,0,1,49,377.53a1.77,1.77,0,0,1-2.41-.58L36.06,360.37a4.22,4.22,0,0,1-.65-2.29,4.29,4.29,0,0,1,.77-2.46,35.83,35.83,0,0,0,2.49-4.1,29.39,29.39,0,0,0,2.85-7.74c.43-2.16.86-4.31,1.31-6.43,1-4.74,2-9.08,3-12.91,2.42-9.25,4.91-16.21,7.41-20.7a15.77,15.77,0,0,0,1-13.47c-4.46-11.36-11.56-32.07-8.92-43a1.35,1.35,0,0,0-2.63-.64c-2.81,11.62,4.46,32.93,9,44.59a13.11,13.11,0,0,1-.81,11.17c-2.64,4.75-5.15,11.72-7.67,21.33-1,3.87-2,8.25-3.06,13q-.67,3.21-1.32,6.47a26.39,26.39,0,0,1-2.6,7,34.82,34.82,0,0,1-2.29,3.8,6.85,6.85,0,0,0-1.27,4,7,7,0,0,0,1.07,3.74l10.48,16.57A4.45,4.45,0,0,0,48,380.48Z"/><path class="cls-9" d="M92.83,372.24a5.22,5.22,0,0,0,3.74-8.86l-.11-.09L84.07,353c0-5.06.14-10.6.48-16.93.23-4.23.56-8.82,1-14.46.29-3.66.61-7.33.93-11,2-23.61,4.13-48,.45-69.15a1.36,1.36,0,0,0-2.67.47c3.63,20.78,1.55,45-.47,68.45-.32,3.68-.64,7.36-.93,11-.47,5.66-.79,10.28-1,14.54-.36,6.49-.52,12.17-.49,17.35v.35a1.33,1.33,0,0,0,.49,1l12.82,10.62a2.52,2.52,0,0,1-.57,3.87,2.53,2.53,0,0,1-2.39.1L75.34,361a3.13,3.13,0,0,1-1.69-3.53l.75-3.17a8.64,8.64,0,0,0,.22-1.76,8.78,8.78,0,0,0-.26-2.27c-.94-3.71-1.75-7.58-2.49-11.83-1-5.66-1.77-11.74-2.52-19.15-.19-1.84-.36-3.7-.53-5.57a1.35,1.35,0,0,0-2.69.24c.17,1.89.35,3.75.53,5.6.76,7.47,1.57,13.62,2.55,19.34.75,4.31,1.57,8.25,2.53,12a5.58,5.58,0,0,1,.18,1.55,5.36,5.36,0,0,1-.15,1.18L71,356.9a5.81,5.81,0,0,0,3.12,6.56l16.39,8.25A5.2,5.2,0,0,0,92.83,372.24Z"/><path class="cls-9" d="M52.59,344.59a1.35,1.35,0,0,0,.5-2.61,53.46,53.46,0,0,1-10.79-6,1.35,1.35,0,0,0-1.55,2.21,55.35,55.35,0,0,0,11.34,6.32A1.24,1.24,0,0,0,52.59,344.59Z"/><path class="cls-9" d="M74.4,340.86A16.05,16.05,0,0,0,84,337.1,1.35,1.35,0,1,0,82.38,335a13.45,13.45,0,0,1-8,3.2,8.27,8.27,0,0,1-3.32-.69A1.35,1.35,0,1,0,70,340,11.06,11.06,0,0,0,74.4,340.86Z"/><path class="cls-9" d="M79.12,355.47a9.68,9.68,0,0,0,4.18-.94,1.37,1.37,0,0,0,.64-1.81,1.35,1.35,0,0,0-1.8-.63c-2.33,1.11-4.89.88-8.29-.76a1.35,1.35,0,0,0-1.17,2.44A15,15,0,0,0,79.12,355.47Z"/><path class="cls-9" d="M46.73,358.42a1.35,1.35,0,0,0,.23-2.68c-2.79-.49-5.75-2.49-8.33-5.64a1.35,1.35,0,1,0-2.08,1.72c3,3.64,6.52,6,10,6.58Z"/><path class="cls-9" d="M42.61,220.42h0a17.49,17.49,0,0,0,10.46-3.57,1.35,1.35,0,1,0-1.64-2.15,14.78,14.78,0,0,1-8.86,3,1.35,1.35,0,0,0,0,2.7Z"/><path class="cls-9" d="M94.26,207.85a1.36,1.36,0,0,0,1.33-1.11,17.83,17.83,0,0,1,5.61-9.89l-.92-1-1-.93h0a20.38,20.38,0,0,0-6.36,11.33A1.35,1.35,0,0,0,94,207.83,1,1,0,0,0,94.26,207.85Z"/><path class="cls-9" d="M64.62,321h.09c1.1-.07,2.21-.11,3.31-.12a1.35,1.35,0,0,0,0-2.7h0c-1.15,0-2.31.05-3.46.13a1.35,1.35,0,0,0,.09,2.7Z"/><path class="cls-9" d="M65.63,424.85c10.75,0,22.07-2.61,30.89-7.7l48.44-28c8.74-5.05,13.75-11.82,13.75-18.6,0-5.7-3.52-10.87-9.91-14.55L92.69,323.62a38.25,38.25,0,0,0-8.09-3.39,1.34,1.34,0,0,0-1.67.92,1.36,1.36,0,0,0,.91,1.68,34.68,34.68,0,0,1,7.5,3.13l56.11,32.41c5.52,3.18,8.56,7.52,8.56,12.21,0,5.79-4.52,11.71-12.4,16.26l-48.44,28c-15.41,8.89-38.75,9.89-52,2.22L-13,384.63c-5.52-3.19-8.56-7.53-8.56-12.22,0-5.78,4.51-11.71,12.39-16.26l48.45-28a49,49,0,0,1,5.77-2.83,1.35,1.35,0,0,0,.74-1.76,1.37,1.37,0,0,0-1.77-.74,52.16,52.16,0,0,0-6.09,3l-48.45,28c-8.73,5.05-13.75,11.83-13.75,18.6,0,5.69,3.52,10.86,9.92,14.56l56.12,32.4C48.16,423.05,56.7,424.85,65.63,424.85Z"/><path class="cls-9" d="M65.63,440.53c10.75,0,22.07-2.61,30.89-7.7l48.44-28c8.74-5.05,13.75-11.83,13.75-18.6V370.58a1.35,1.35,0,0,0-2.7,0v15.68c0,5.78-4.52,11.71-12.4,16.26l-48.44,28c-15.41,8.89-38.75,9.88-52,2.22L-13,400.3c-5.52-3.19-8.56-7.53-8.56-12.21V372.41a1.35,1.35,0,0,0-1.36-1.35,1.35,1.35,0,0,0-1.35,1.35v15.68c0,5.69,3.52,10.86,9.92,14.55l56.12,32.41C48.16,438.72,56.7,440.53,65.63,440.53Z"/><path class="cls-9" d="M125.2,257.42a4.06,4.06,0,0,1-2.07-.55c-1.63-.94-2.56-3-2.56-5.58V150.06c0-4.52,2.69-9.62,6.13-11.6L241.13,72.4a4.8,4.8,0,0,1,4.92-.29c1.63.94,2.56,3,2.56,5.58V178.92c0,4.51-2.69,9.6-6.13,11.59h0L128.05,256.58A5.74,5.74,0,0,1,125.2,257.42ZM244,74.26a3.16,3.16,0,0,0-1.48.48L128.05,140.8c-2.59,1.5-4.78,5.73-4.78,9.26V251.29c0,1.59.45,2.8,1.21,3.24a2.3,2.3,0,0,0,2.22-.29l114.43-66.07c2.59-1.5,4.78-5.74,4.78-9.25V77.69c0-1.59-.45-2.8-1.21-3.24A1.48,1.48,0,0,0,244,74.26ZM241.8,189.34h0Z"/><path class="cls-9" d="M192.59,136.26a4.61,4.61,0,0,1-2.32-.6c-1.63-.94-2.53-2.81-2.53-5.27a15.27,15.27,0,0,1,7-12.11c2.13-1.23,4.19-1.38,5.82-.44s2.52,2.81,2.52,5.26a15.21,15.21,0,0,1-7,12.11A7,7,0,0,1,192.59,136.26Zm5.64-16.32a4.45,4.45,0,0,0-2.15.68,12.71,12.71,0,0,0-5.64,9.77c0,1.43.43,2.5,1.18,2.93a3.24,3.24,0,0,0,3.11-.44,12.67,12.67,0,0,0,5.64-9.78,3.25,3.25,0,0,0-1.17-2.92A1.94,1.94,0,0,0,198.23,119.94Z"/><path class="cls-9" d="M222.88,163a4.61,4.61,0,0,1-2.32-.6c-1.63-.94-2.53-2.81-2.53-5.26A15.28,15.28,0,0,1,225,145c2.13-1.23,4.19-1.39,5.82-.44s2.53,2.81,2.53,5.26a15.25,15.25,0,0,1-7,12.11A7.06,7.06,0,0,1,222.88,163Zm5.65-16.32a4.54,4.54,0,0,0-2.15.67,12.74,12.74,0,0,0-5.65,9.79,3.24,3.24,0,0,0,1.18,2.92c.75.43,1.88.27,3.12-.45a12.67,12.67,0,0,0,5.65-9.77c0-1.43-.43-2.49-1.18-2.92A1.94,1.94,0,0,0,228.53,146.63Z"/><path class="cls-9" d="M201,167.87a6.44,6.44,0,0,1-3.28-.85c-2.33-1.34-3.61-4.06-3.61-7.65,0-6.92,4.69-15.05,10.68-18.52l11.17-6.44c4.66-2.7,8.45-9.26,8.45-14.63,0-2.31-.71-4-2-4.73s-3.1-.51-5.1.64l-14.87,8.58a1.35,1.35,0,0,1-1.35-2.34l14.87-8.58c2.87-1.66,5.65-1.88,7.8-.64s3.35,3.76,3.35,7.07c0,6.33-4.31,13.79-9.8,17l-11.17,6.44c-5.14,3-9.33,10.24-9.33,16.18,0,2.58.8,4.47,2.26,5.31s3.48.59,5.72-.7l14-8.06a1.35,1.35,0,0,1,1.35,2.34l-14,8.06A10.45,10.45,0,0,1,201,167.87Z"/><path class="cls-9" d="M140.78,192.58a1.32,1.32,0,0,1-.67-.18,1.34,1.34,0,0,1-.68-1.17v-36.3a1.35,1.35,0,0,1,.68-1.17l31.43-18.14a1.35,1.35,0,0,1,2,1.17v36.29a1.34,1.34,0,0,1-.67,1.17L141.46,192.4A1.38,1.38,0,0,1,140.78,192.58Zm1.35-36.87v33.18l28.73-16.59V139.13Zm30.08,17.37h0Z"/><path class="cls-9" d="M140.78,192.58a1.25,1.25,0,0,1-.67-.18,1.35,1.35,0,0,1-.5-1.84L171,136.11a1.35,1.35,0,0,1,2.34,1.35L142,191.91A1.35,1.35,0,0,1,140.78,192.58Z"/><path class="cls-9" d="M172.21,174.43a1.35,1.35,0,0,1-.67-.18L140.11,156.1a1.35,1.35,0,1,1,1.35-2.34l31.43,18.15a1.36,1.36,0,0,1,.49,1.85A1.35,1.35,0,0,1,172.21,174.43Z"/><path class="cls-9" d="M141.86,211.83a1.37,1.37,0,0,1-1.17-.68,1.35,1.35,0,0,1,.5-1.84l29.27-16.91a1.34,1.34,0,0,1,1.84.49,1.36,1.36,0,0,1-.49,1.85l-29.27,16.91A1.41,1.41,0,0,1,141.86,211.83Z"/><path class="cls-9" d="M141.86,222a1.35,1.35,0,0,1-.67-2.52l29.27-16.91a1.35,1.35,0,0,1,1.35,2.34L142.54,221.8A1.41,1.41,0,0,1,141.86,222Z"/><path class="cls-76" d="M105.63,200.87a3.15,3.15,0,0,0,2.24-.94l14.55-14.71a1.35,1.35,0,0,0-1.92-1.9L105.94,198a.42.42,0,0,1-.54.06c-1.12-.81-2.68-2-4.3-3.28a133.25,133.25,0,0,1-16.36-15.35c-9.14-10.37-14.57-10.09-22-5.79A1.35,1.35,0,1,0,64.11,176c5.76-3.33,9.89-4.65,18.6,5.25a137.23,137.23,0,0,0,16.71,15.68c2.27,1.78,3.71,2.85,4.38,3.33A3,3,0,0,0,105.63,200.87Z"/><path class="cls-9" d="M106.25,214.9a7.8,7.8,0,0,0,6.34-3.23c2.45-3.39,7-9.72,10-14a1.35,1.35,0,0,0-2.22-1.54c-2.95,4.25-7.5,10.56-9.95,14a5.12,5.12,0,0,1-7.09,1.17L81.44,195.75A1.36,1.36,0,1,0,79.87,198l21.87,15.5A7.77,7.77,0,0,0,106.25,214.9Z"/><path class="cls-76" d="M61.75,253.24a34.24,34.24,0,0,0,24.86-10.61,24.44,24.44,0,0,0,2.8-3.59,1.35,1.35,0,0,0-.07-1.56,30.27,30.27,0,0,1-2.67-4.08l-.08-.15-.18-.32A1.35,1.35,0,0,0,84,234.14a5.2,5.2,0,0,0,.25.46l.06.11a31.5,31.5,0,0,0,2.31,3.65,24.2,24.2,0,0,1-2,2.44c-7.95,8.59-23.41,13.87-38.94,5.58A92.17,92.17,0,0,0,51,228.28a1.35,1.35,0,0,0-2.67-.44,93.22,93.22,0,0,1-5.56,18.66,1.35,1.35,0,0,0,.59,1.66A36.8,36.8,0,0,0,61.75,253.24Z"/><path class="cls-76" d="M77.21,236.27a26.34,26.34,0,0,0,8.45-1.46c5.3-1.86,8.22-5,8.22-8.83,0-1.47-.9-3-3.41-3a36.37,36.37,0,0,0-7.21,1.29l-.77.18c-.23.05-.45.11-.68.15a26.13,26.13,0,0,1-4.8.81H77c-6.64-1.66-16.17-5.56-21.26-7.74a3.85,3.85,0,0,1-2.13-2.29,3,3,0,0,1-.17-.63l-2.8-17.18A1.36,1.36,0,0,0,49,196.42,1.34,1.34,0,0,0,47.93,198l2.79,17.15a6.2,6.2,0,0,0,.3,1.14,6.55,6.55,0,0,0,3.6,3.85c5.13,2.2,14.68,6.1,21.5,7.83a1.5,1.5,0,0,0,.44.12,21.93,21.93,0,0,0,5.83-.86l.73-.16.76-.18a36.54,36.54,0,0,1,6.59-1.22,1.27,1.27,0,0,1,.68.12h0a.55.55,0,0,1,0,.22c0,3.5-4,5.44-6.42,6.28a23.6,23.6,0,0,1-7.55,1.31,32.69,32.69,0,0,1-5-.41,176.83,176.83,0,0,1-22.1-6.38l-1.92-.71a5.39,5.39,0,0,1-3.28-3.6l-.09-.34c-.28-1-.6-2.2-.91-3.4s-.66-2.65-.94-3.88c-1.17-5.19-2.1-9.45-2.54-13.16a1.35,1.35,0,1,0-2.68.32c.45,3.83,1.4,8.17,2.58,13.43.29,1.26.63,2.62,1,4s.64,2.4.92,3.44l.09.34a8.12,8.12,0,0,0,4.94,5.42l1.94.72a182,182,0,0,0,22.53,6.5A36.23,36.23,0,0,0,77.21,236.27Z"/><path class="cls-76" d="M82.08,227.24a1.39,1.39,0,0,0,.4-.06,1.35,1.35,0,0,0,.89-1.69c-2.57-8.31-2.79-16.27-1.68-19.84a16.07,16.07,0,0,0,.27-9.13,38.53,38.53,0,0,0-1.9-5.29c-.29-.68-.58-1.38-.86-2.09a1.35,1.35,0,1,0-2.51,1c.28.74.58,1.45.87,2.15a36.29,36.29,0,0,1,1.79,4.92,13.36,13.36,0,0,1-.24,7.66c-1.46,4.7-.77,13.51,1.68,21.44A1.36,1.36,0,0,0,82.08,227.24Z"/><path class="cls-9" d="M92,236.44a1.35,1.35,0,0,0,1.29-.95L98.58,218a1.37,1.37,0,0,0-.17-1.13,1.32,1.32,0,0,0-1-.6L86.14,215a1.36,1.36,0,0,0-1.44,1l-2.79,9.31a1.35,1.35,0,0,0,2.59.78L87,217.78l8.56,1L91,233.57l-6.54-1a1.35,1.35,0,1,0-.43,2.66l7.7,1.25Z"/><path class="cls-76" d="M48,380.48a4.52,4.52,0,0,0,2.28-.62A6,6,0,0,0,53,375.08a3.65,3.65,0,0,0-.3-1.5c-1.7-3.92-4.56-11.3-4.61-16.53a7.51,7.51,0,0,1,.65-3.55c1.6-3,3.07-5.83,4.47-8.51l.59-1.13c4.1-7.89,7.7-15,12-23.66,1-1.89,1.89-3.78,2.85-5.72l5.54-11.1C77,297.85,74.45,281,72,264.61c-.52-3.48-1-6.87-1.46-10a1.35,1.35,0,1,0-2.67.36c.43,3.15.94,6.55,1.46,10,2.16,14.43,4.84,32.39,2.46,37.16l-5.53,11.11c-1,1.93-1.9,3.82-2.85,5.71-4.34,8.68-7.93,15.75-12,23.62l-.59,1.13c-1.4,2.67-2.87,5.49-4.46,8.49a10,10,0,0,0-1,4.85c0,5.41,2.66,12.55,4.83,17.58a1,1,0,0,1,.08.42A3.3,3.3,0,0,1,49,377.53a1.77,1.77,0,0,1-2.41-.58L36.06,360.37a4.22,4.22,0,0,1-.65-2.29,4.29,4.29,0,0,1,.77-2.46,35.83,35.83,0,0,0,2.49-4.1,29.39,29.39,0,0,0,2.85-7.74c.43-2.16.86-4.31,1.31-6.43,1-4.74,2-9.08,3-12.91,2.42-9.25,4.91-16.21,7.41-20.7a15.77,15.77,0,0,0,1-13.47c-4.46-11.36-11.56-32.07-8.92-43a1.35,1.35,0,0,0-2.63-.64c-2.81,11.62,4.46,32.93,9,44.59a13.11,13.11,0,0,1-.81,11.17c-2.64,4.75-5.15,11.72-7.67,21.33-1,3.87-2,8.25-3.06,13q-.67,3.21-1.32,6.47a26.39,26.39,0,0,1-2.6,7,34.82,34.82,0,0,1-2.29,3.8,6.85,6.85,0,0,0-1.27,4,7,7,0,0,0,1.07,3.74l10.48,16.57A4.45,4.45,0,0,0,48,380.48Z"/><path class="cls-76" d="M92.83,372.24a5.22,5.22,0,0,0,3.74-8.86l-.11-.09L84.07,353c0-5.06.14-10.6.48-16.93.23-4.23.56-8.82,1-14.46.29-3.66.61-7.33.93-11,2-23.61,4.13-48,.45-69.15a1.36,1.36,0,0,0-2.67.47c3.63,20.78,1.55,45-.47,68.45-.32,3.68-.64,7.36-.93,11-.47,5.66-.79,10.28-1,14.54-.36,6.49-.52,12.17-.49,17.35v.35a1.33,1.33,0,0,0,.49,1l12.82,10.62a2.52,2.52,0,0,1-.57,3.87,2.53,2.53,0,0,1-2.39.1L75.34,361a3.13,3.13,0,0,1-1.69-3.53l.75-3.17a8.64,8.64,0,0,0,.22-1.76,8.78,8.78,0,0,0-.26-2.27c-.94-3.71-1.75-7.58-2.49-11.83-1-5.66-1.77-11.74-2.52-19.15-.19-1.84-.36-3.7-.53-5.57a1.35,1.35,0,0,0-2.69.24c.17,1.89.35,3.75.53,5.6.76,7.47,1.57,13.62,2.55,19.34.75,4.31,1.57,8.25,2.53,12a5.58,5.58,0,0,1,.18,1.55,5.36,5.36,0,0,1-.15,1.18L71,356.9a5.81,5.81,0,0,0,3.12,6.56l16.39,8.25A5.2,5.2,0,0,0,92.83,372.24Z"/><path class="cls-9" d="M52.59,344.59a1.35,1.35,0,0,0,.5-2.61,53.46,53.46,0,0,1-10.79-6,1.35,1.35,0,0,0-1.55,2.21,55.35,55.35,0,0,0,11.34,6.32A1.24,1.24,0,0,0,52.59,344.59Z"/><path class="cls-9" d="M74.4,340.86A16.05,16.05,0,0,0,84,337.1,1.35,1.35,0,1,0,82.38,335a13.45,13.45,0,0,1-8,3.2,8.27,8.27,0,0,1-3.32-.69A1.35,1.35,0,1,0,70,340,11.06,11.06,0,0,0,74.4,340.86Z"/><path class="cls-9" d="M79.12,355.47a9.68,9.68,0,0,0,4.18-.94,1.37,1.37,0,0,0,.64-1.81,1.35,1.35,0,0,0-1.8-.63c-2.33,1.11-4.89.88-8.29-.76a1.35,1.35,0,0,0-1.17,2.44A15,15,0,0,0,79.12,355.47Z"/><path class="cls-9" d="M46.73,358.42a1.35,1.35,0,0,0,.23-2.68c-2.79-.49-5.75-2.49-8.33-5.64a1.35,1.35,0,1,0-2.08,1.72c3,3.64,6.52,6,10,6.58Z"/><path class="cls-76" d="M42.61,220.42h0a17.49,17.49,0,0,0,10.46-3.57,1.35,1.35,0,1,0-1.64-2.15,14.78,14.78,0,0,1-8.86,3,1.35,1.35,0,0,0,0,2.7Z"/><path class="cls-9" d="M94.26,207.85a1.36,1.36,0,0,0,1.33-1.11,17.83,17.83,0,0,1,5.61-9.89l-.92-1-1-.93h0a20.38,20.38,0,0,0-6.36,11.33A1.35,1.35,0,0,0,94,207.83,1,1,0,0,0,94.26,207.85Z"/><path class="cls-9" d="M64.62,321h.09c1.1-.07,2.21-.11,3.31-.12a1.35,1.35,0,0,0,0-2.7h0c-1.15,0-2.31.05-3.46.13a1.35,1.35,0,0,0,.09,2.7Z"/><path class="cls-9" d="M65.63,424.85c10.75,0,22.07-2.61,30.89-7.7l48.44-28c8.74-5.05,13.75-11.82,13.75-18.6,0-5.7-3.52-10.87-9.91-14.55L92.69,323.62a38.25,38.25,0,0,0-8.09-3.39,1.34,1.34,0,0,0-1.67.92,1.36,1.36,0,0,0,.91,1.68,34.68,34.68,0,0,1,7.5,3.13l56.11,32.41c5.52,3.18,8.56,7.52,8.56,12.21,0,5.79-4.52,11.71-12.4,16.26l-48.44,28c-15.41,8.89-38.75,9.89-52,2.22L-13,384.63c-5.52-3.19-8.56-7.53-8.56-12.22,0-5.78,4.51-11.71,12.39-16.26l48.45-28a49,49,0,0,1,5.77-2.83,1.35,1.35,0,0,0,.74-1.76,1.37,1.37,0,0,0-1.77-.74,52.16,52.16,0,0,0-6.09,3l-48.45,28c-8.73,5.05-13.75,11.83-13.75,18.6,0,5.69,3.52,10.86,9.92,14.56l56.12,32.4C48.16,423.05,56.7,424.85,65.63,424.85Z"/><path class="cls-9" d="M65.63,440.53c10.75,0,22.07-2.61,30.89-7.7l48.44-28c8.74-5.05,13.75-11.83,13.75-18.6V370.58a1.35,1.35,0,0,0-2.7,0v15.68c0,5.78-4.52,11.71-12.4,16.26l-48.44,28c-15.41,8.89-38.75,9.88-52,2.22L-13,400.3c-5.52-3.19-8.56-7.53-8.56-12.21V372.41a1.35,1.35,0,0,0-1.36-1.35,1.35,1.35,0,0,0-1.35,1.35v15.68c0,5.69,3.52,10.86,9.92,14.55l56.12,32.41C48.16,438.72,56.7,440.53,65.63,440.53Z"/><path class="cls-9" d="M125.2,257.42a4.06,4.06,0,0,1-2.07-.55c-1.63-.94-2.56-3-2.56-5.58V150.06c0-4.52,2.69-9.62,6.13-11.6L241.13,72.4a4.8,4.8,0,0,1,4.92-.29c1.63.94,2.56,3,2.56,5.58V178.92c0,4.51-2.69,9.6-6.13,11.59h0L128.05,256.58A5.74,5.74,0,0,1,125.2,257.42ZM244,74.26a3.16,3.16,0,0,0-1.48.48L128.05,140.8c-2.59,1.5-4.78,5.73-4.78,9.26V251.29c0,1.59.45,2.8,1.21,3.24a2.3,2.3,0,0,0,2.22-.29l114.43-66.07c2.59-1.5,4.78-5.74,4.78-9.25V77.69c0-1.59-.45-2.8-1.21-3.24A1.48,1.48,0,0,0,244,74.26ZM241.8,189.34h0Z"/><path class="cls-9" d="M192.59,136.26a4.61,4.61,0,0,1-2.32-.6c-1.63-.94-2.53-2.81-2.53-5.27a15.27,15.27,0,0,1,7-12.11c2.13-1.23,4.19-1.38,5.82-.44s2.52,2.81,2.52,5.26a15.21,15.21,0,0,1-7,12.11A7,7,0,0,1,192.59,136.26Zm5.64-16.32a4.45,4.45,0,0,0-2.15.68,12.71,12.71,0,0,0-5.64,9.77c0,1.43.43,2.5,1.18,2.93a3.24,3.24,0,0,0,3.11-.44,12.67,12.67,0,0,0,5.64-9.78,3.25,3.25,0,0,0-1.17-2.92A1.94,1.94,0,0,0,198.23,119.94Z"/><path class="cls-9" d="M222.88,163a4.61,4.61,0,0,1-2.32-.6c-1.63-.94-2.53-2.81-2.53-5.26A15.28,15.28,0,0,1,225,145c2.13-1.23,4.19-1.39,5.82-.44s2.53,2.81,2.53,5.26a15.25,15.25,0,0,1-7,12.11A7.06,7.06,0,0,1,222.88,163Zm5.65-16.32a4.54,4.54,0,0,0-2.15.67,12.74,12.74,0,0,0-5.65,9.79,3.24,3.24,0,0,0,1.18,2.92c.75.43,1.88.27,3.12-.45a12.67,12.67,0,0,0,5.65-9.77c0-1.43-.43-2.49-1.18-2.92A1.94,1.94,0,0,0,228.53,146.63Z"/><path class="cls-9" d="M201,167.87a6.44,6.44,0,0,1-3.28-.85c-2.33-1.34-3.61-4.06-3.61-7.65,0-6.92,4.69-15.05,10.68-18.52l11.17-6.44c4.66-2.7,8.45-9.26,8.45-14.63,0-2.31-.71-4-2-4.73s-3.1-.51-5.1.64l-14.87,8.58a1.35,1.35,0,0,1-1.35-2.34l14.87-8.58c2.87-1.66,5.65-1.88,7.8-.64s3.35,3.76,3.35,7.07c0,6.33-4.31,13.79-9.8,17l-11.17,6.44c-5.14,3-9.33,10.24-9.33,16.18,0,2.58.8,4.47,2.26,5.31s3.48.59,5.72-.7l14-8.06a1.35,1.35,0,0,1,1.35,2.34l-14,8.06A10.45,10.45,0,0,1,201,167.87Z"/><path class="cls-9" d="M140.78,192.58a1.32,1.32,0,0,1-.67-.18,1.34,1.34,0,0,1-.68-1.17v-36.3a1.35,1.35,0,0,1,.68-1.17l31.43-18.14a1.35,1.35,0,0,1,2,1.17v36.29a1.34,1.34,0,0,1-.67,1.17L141.46,192.4A1.38,1.38,0,0,1,140.78,192.58Zm1.35-36.87v33.18l28.73-16.59V139.13Zm30.08,17.37h0Z"/><path class="cls-9" d="M140.78,192.58a1.25,1.25,0,0,1-.67-.18,1.35,1.35,0,0,1-.5-1.84L171,136.11a1.35,1.35,0,0,1,2.34,1.35L142,191.91A1.35,1.35,0,0,1,140.78,192.58Z"/><path class="cls-9" d="M172.21,174.43a1.35,1.35,0,0,1-.67-.18L140.11,156.1a1.35,1.35,0,1,1,1.35-2.34l31.43,18.15a1.36,1.36,0,0,1,.49,1.85A1.35,1.35,0,0,1,172.21,174.43Z"/><path class="cls-9" d="M141.86,211.83a1.37,1.37,0,0,1-1.17-.68,1.35,1.35,0,0,1,.5-1.84l29.27-16.91a1.34,1.34,0,0,1,1.84.49,1.36,1.36,0,0,1-.49,1.85l-29.27,16.91A1.41,1.41,0,0,1,141.86,211.83Z"/><path class="cls-9" d="M141.86,222a1.35,1.35,0,0,1-.67-2.52l29.27-16.91a1.35,1.35,0,0,1,1.35,2.34L142.54,221.8A1.41,1.41,0,0,1,141.86,222Z"/><path class="cls-77" d="M62.24,145.88c.27.05.56.12.87.2a9.84,9.84,0,0,1,5.25,3.64,7.17,7.17,0,0,1,1.38,5.49c0,.17-.08.37-.14.6l-3.75,13.3a11.67,11.67,0,0,1-3.79,6.19,7.25,7.25,0,0,1-10.13-1.84,11.58,11.58,0,0,1-1.36-7.14l1.27-13.76a4,4,0,0,1,.06-.5l0-.08a7.22,7.22,0,0,1,3.29-4.69,9.88,9.88,0,0,1,6.22-1.52c.26,0,.53.06.81.11Z"/><path class="cls-78" d="M55.29,137.42c-4.55-1.33-9.44,1.92-11.55,6.17s-2.11,9.19-2,13.93.32,9.64-1.47,14-5.18,7.59-7.71,11.44-4.14,9-1.86,13c1.75,3,5.42,4.63,8.93,4.61A13.85,13.85,0,0,0,52.7,190c.73-3.48.07-7.07-.31-10.6a65.71,65.71,0,0,1,.27-16.46c.48-3.42,1.62-7.29,4.79-8.66,3-1.29,6.49.25,9.68-.4a7.41,7.41,0,0,0,5.55-8.53c-1-4.34-4.49-4.93-8.09-5.51A76.46,76.46,0,0,1,55.29,137.42Z"/><ellipse class="cls-9" cx="294.46" cy="97.48" rx="7.95" ry="3.98"/><ellipse class="cls-9" cx="373.13" cy="62.51" rx="7.95" ry="3.98"/><path class="cls-79" d="M453.27,30.59c-11-4.49-25.64-3.88-42,2.89-14.35,5.94-28,15.76-39.44,27.64l-.16.16c-11.33-3.68-25.69-2.87-41.52,5-13.89,7-26.77,17.71-37.38,30.39,0,0-13.55-38.93-50.21-17"/><polygon class="cls-8" points="231.18 95.11 232.81 97.69 235.29 96.45 231.18 89.94 227.07 100.56 229.55 99.32 231.18 95.11"/><polygon class="cls-9" points="235.02 88.02 233.4 92.2 234.64 94.17 235.02 93.19 236.65 95.77 239.13 94.53 235.02 88.02"/><ellipse class="cls-80" cx="233.04" cy="94.01" rx="10.41" ry="6.35" transform="translate(15.52 219.85) rotate(-52.02)"/></g><circle class="cls-81" cx="206.15" cy="206.15" r="200.19"/></g></g></svg>