<?xml version="1.0" encoding="utf-8"?>
<!-- Generator: Adobe Illustrator 26.0.2, SVG Export Plug-In . SVG Version: 6.00 Build 0)  -->
<svg version="1.1" id="Layer_1" xmlns="http://www.w3.org/2000/svg" xmlns:xlink="http://www.w3.org/1999/xlink" x="0px" y="0px"
	 viewBox="0 0 160 26" style="enable-background:new 0 0 160 26;" xml:space="preserve">
<style type="text/css">
	.st0{fill-rule:evenodd;clip-rule:evenodd;fill:#62CB2C;}
	.st1{fill-rule:evenodd;clip-rule:evenodd;fill:#2D2D2D;}
</style>
<g>
	<path class="st0" d="M138.1,24.8h3.4l-8.9-24.1h-3.6L120,24.8h3.4l1.9-5.4h10.8L138.1,24.8z M126.4,16.4l4.3-11.9l4.3,11.9
		C135,16.4,126.4,16.4,126.4,16.4z M157,0.7v9.9c-1.4-2.1-3.6-3.4-6.5-3.4c-4.8,0-8.6,4-8.6,9.1s3.9,9.1,8.6,9.1
		c2.9,0,5.1-1.3,6.5-3.4v3h3V0.7H157z M150.9,22.4c-3.4,0-6.1-2.7-6.1-6.2s2.6-6.2,6.1-6.2c3.5,0,6.1,2.7,6.1,6.2
		S154.4,22.4,150.9,22.4z"/>
	<path class="st1" d="M41.7,25.6c4.4,0,8.3-2.2,10.3-5.7L48,17.6c-1.1,2.1-3.5,3.4-6.3,3.4c-4.7,0-7.8-3.3-7.8-7.9
		c0-4.7,3.1-7.9,7.8-7.9c2.8,0,5.1,1.3,6.3,3.4L52,6.2C50,2.8,46.1,0.5,41.7,0.5c-7.3,0-12.5,5.5-12.5,12.6
		C29.2,20.1,34.4,25.6,41.7,25.6L41.7,25.6z M56.5,5.8c1.5,0,2.8-1.2,2.8-2.7s-1.2-2.8-2.8-2.8c-1.5,0-2.7,1.3-2.7,2.8
		S55.1,5.8,56.5,5.8L56.5,5.8z M54.3,25.2h4.4V7.9h-4.4L54.3,25.2L54.3,25.2z M72,12.2V7.9h-3.9V3.1l-4.4,1.3v3.5h-3v4.3h3v7.2
		c0,4.7,2.1,6.5,8.3,5.8v-4c-2.5,0.1-3.9,0.1-3.9-1.8v-7.2L72,12.2L72,12.2z M79.1,10.9v-3h-4.4v17.2h4.4v-8.2
		c0-3.6,2.9-4.7,5.2-4.4v-5C82.2,7.6,80,8.5,79.1,10.9z M97.6,7.9v9.3c0,3-1.6,4.3-3.8,4.3c-2,0-3.4-1.2-3.4-3.6v-10H86v10.6
		c0,4.6,2.9,7.1,6.5,7.1c2.3,0,4.1-0.9,5.1-2.4v1.9h4.4V7.9C102,7.9,97.6,7.9,97.6,7.9z M109.3,12.8c0-0.9,0.9-1.4,2-1.4
		c1.3,0,2.2,0.7,2.7,1.8l3.8-2.1c-1.3-2.4-3.7-3.7-6.5-3.7c-3.5,0-6.5,2-6.5,5.5c0,6.1,8.9,4.7,8.9,7.2c0,1-1,1.5-2.4,1.5
		c-1.7,0-2.9-0.8-3.4-2.2l-3.8,2.2c1.2,2.7,3.8,4.1,7.2,4.1c3.7,0,6.9-1.8,6.9-5.5C118.2,13.8,109.3,15.4,109.3,12.8L109.3,12.8z"/>
	<path class="st0" d="M13,26c7.2,0,13-5.8,13-13S20.1,0,13,0S0,5.8,0,13S5.8,26,13,26z"/>
</g>
</svg>
