<svg xmlns="http://www.w3.org/2000/svg" viewBox="0 0 555.47 431.26"><defs><style>.cls-1{fill:#231f20;}.cls-2,.cls-9{fill:#1c2b36;}.cls-21,.cls-3,.cls-8{fill:#fff;}.cls-11,.cls-4{fill:#e86427;}.cls-14,.cls-20,.cls-5{fill:#f9c000;}.cls-6{fill:#f7e379;}.cls-12,.cls-7{fill:#adcaeb;}.cls-10,.cls-11,.cls-12,.cls-13,.cls-14,.cls-16,.cls-17,.cls-18,.cls-7,.cls-8,.cls-9{fill-rule:evenodd;}.cls-16,.cls-7{opacity:0.2;}.cls-10{fill:#f7f8fc;}.cls-13{fill:#78bf39;}.cls-15{fill:#fdeccc;}.cls-17{fill:#3b68b0;}.cls-18{fill:#146681;}.cls-19{fill:#150035;}.cls-20,.cls-21{stroke:#1c2b36;stroke-miterlimit:10;}</style></defs><g id="Home"><path class="cls-1" d="M433.49,88.68a.17.17,0,0,1,.16.17.16.16,0,0,1-.17.15.16.16,0,1,1,0-.32Z"/><circle class="cls-1" cx="433.35" cy="85.78" r="0.06" transform="translate(280.14 500.12) rotate(-80.9)"/><ellipse class="cls-1" cx="432.52" cy="90.41" rx="0.17" ry="0.18" transform="translate(274.87 503.2) rotate(-80.9)"/><path class="cls-1" d="M431.21,87.85a.07.07,0,1,1-.07.06A.07.07,0,0,1,431.21,87.85Z"/><ellipse class="cls-1" cx="430.4" cy="90.09" rx="0.09" ry="0.1" transform="matrix(0.16, -0.99, 0.99, 0.16, 273.4, 500.84)"/><g id="illustration"><path class="cls-2" d="M356.15,107.36l7-4.54a.13.13,0,0,0,0-.19l-8.93-10.84a.13.13,0,0,0-.22,0l-1.43,6.6v0l-.34,4.53a.16.16,0,0,0,0,.09l3.66,4.26A.12.12,0,0,0,356.15,107.36Z"/><path class="cls-2" d="M356,108.47l-.64-.57-3.9-4.54v-.46l.33-4.51,1.56-7.24.61-.23a1,1,0,0,1,1,.33l9.18,11.14,0,.47a1,1,0,0,1-.43.67Zm-2.82-5.72,3.06,3.56,5.82-3.76-7.47-9.06-1.1,5.09Z"/><path class="cls-3" d="M382.79,74.6,349.22,55.22a2.46,2.46,0,0,0-2.2-.31h0l-6.56,3.93a.18.18,0,0,0,0,.28l7.84,8.3a.18.18,0,0,1,.05.12V81.25a7.66,7.66,0,0,0,3.44,6l5,2.89.35.49a18.46,18.46,0,0,0,7.78,11.7c.24.16.4-.08.24-.38-.8-1.53-2.33-4.87-1.86-7.5l.55-.24,10.36,6a.25.25,0,0,1,.08.1l4.32,11.54a.18.18,0,0,0,.26.09l6.5-3.91h0a2.4,2.4,0,0,0,.89-2.1V80.56A7.63,7.63,0,0,0,382.79,74.6Z"/><path class="cls-2" d="M378.94,112.82l-.53-.12a1,1,0,0,1-.62-.61l-4.24-11.32L364,95.28a14.49,14.49,0,0,0,1.86,6.24,1.15,1.15,0,0,1-.19,1.42,1,1,0,0,1-1.29,0,19.26,19.26,0,0,1-8.11-12.06l-.13-.19-4.84-2.8a8.42,8.42,0,0,1-3.87-6.69V67.81l-7.95-8.41,0-.56a1,1,0,0,1,.5-.74l6.56-3.92a3.26,3.26,0,0,1,3.05.3l33.58,19.38a8.47,8.47,0,0,1,3.86,6.7v25.31a3.23,3.23,0,0,1-1.27,2.81ZM363.88,93.23l11,6.35.18.39,4,10.77,5.81-3.5a1.62,1.62,0,0,0,.48-1.37V80.56a6.77,6.77,0,0,0-3-5.22L348.79,56a1.66,1.66,0,0,0-1.43-.26l-5.75,3.45,7.5,7.94.05.46V81.25a6.77,6.77,0,0,0,3,5.22l5.27,3.14.5.84a17.63,17.63,0,0,0,5.35,9.49,11.23,11.23,0,0,1-.87-5.68l.08-.45Z"/><path class="cls-4" d="M376.2,78.67,342.53,59.23c-1.85-1.07-3.35-.2-3.35,1.93V86.58a7.4,7.4,0,0,0,3.35,5.8l5.18,3a.58.58,0,0,1,.26.4,18.48,18.48,0,0,0,7.8,11.75c.24.16.4-.08.24-.38-.84-1.59-2.44-5.11-1.81-7.77,0-.13.15-.17.28-.09l21.72,12.54c1.85,1.07,3.35.2,3.35-1.93V84.47A7.4,7.4,0,0,0,376.2,78.67Z"/><path class="cls-2" d="M377.7,113.13a3.94,3.94,0,0,1-1.93-.57l-20.86-12c-.07,2.29,1.23,5,1.85,6.24a1.15,1.15,0,0,1-.19,1.42,1,1,0,0,1-1.29,0A19.45,19.45,0,0,1,347.16,96l-5.05-2.91a8.22,8.22,0,0,1-3.78-6.54V61.16A2.87,2.87,0,0,1,343,58.5l33.66,19.43a8.22,8.22,0,0,1,3.78,6.54v25.42a3.15,3.15,0,0,1-1.41,2.9A2.51,2.51,0,0,1,377.7,113.13ZM354.35,98.39a1.08,1.08,0,0,1,.55.15l21.72,12.54a1.23,1.23,0,0,0,2.08-1.19V84.47a6.58,6.58,0,0,0-2.93-5.07L342.11,60a1.6,1.6,0,0,0-1.52-.24,1.61,1.61,0,0,0-.55,1.43V86.58A6.57,6.57,0,0,0,343,91.65l5.18,3a1.46,1.46,0,0,1,.67,1,17.56,17.56,0,0,0,5.37,9.54,10.75,10.75,0,0,1-.81-6l.1-.41.48-.29A1.14,1.14,0,0,1,354.35,98.39Z"/><rect class="cls-2" x="377.22" y="76.41" width="6.86" height="1.7" transform="matrix(0.85, -0.52, 0.52, 0.85, 15.27, 209.02)"/><rect class="cls-2" x="345.82" y="58.4" width="6.86" height="1.7" transform="translate(20.04 190.06) rotate(-31.3)"/><rect class="cls-2" x="378.96" y="83.05" width="7.65" height="1.7" transform="translate(14.52 217.87) rotate(-32.35)"/><polygon class="cls-2" points="386.23 85.37 379.55 89.42 379.55 111.46 386.01 107.91 386.23 106.33 386.23 85.37"/><rect class="cls-2" x="346.25" y="44.04" width="7.36" height="1.7" transform="translate(276.48 389.96) rotate(-85.29)"/><rect class="cls-2" x="342.19" y="41.07" width="1.7" height="8.48" transform="translate(10.66 141.52) rotate(-23.67)"/><rect class="cls-2" x="336.53" y="46.5" width="1.7" height="7.06" transform="translate(127.81 319.12) rotate(-60.52)"/><path class="cls-3" d="M361.75,97.91a3.07,3.07,0,0,1-1.48-.48,5.31,5.31,0,0,1-1.9-1.8,4.47,4.47,0,0,1-.7-2.44c0-1,.28-1.6.84-1.88a2.3,2.3,0,0,1,2.18.38,5.22,5.22,0,0,1,1.89,1.81,4.66,4.66,0,0,1,.66,2.42q0,1.45-.87,1.86A1.44,1.44,0,0,1,361.75,97.91ZM359.13,92a.47.47,0,0,0-.24,0c-.3.15-.37.69-.37,1.12a3.68,3.68,0,0,0,.57,2,4.48,4.48,0,0,0,1.6,1.51c.59.34,1,.45,1.32.32s.38-.68.38-1.09a3.71,3.71,0,0,0-.54-2,4.26,4.26,0,0,0-1.58-1.51A2.54,2.54,0,0,0,359.13,92Zm3.35-.38-4.32-2.49V87.78a3.61,3.61,0,0,1,.53-2.15,2.75,2.75,0,0,1,1.89-1,2.56,2.56,0,0,0,1.12-.36c.06,0,.23-.17.23-.65a1.5,1.5,0,0,0-.34-.86,3.47,3.47,0,0,0-1-.86,7,7,0,0,0-3.77-.84h-.31l-1.86-5.27.55,0a10.5,10.5,0,0,1,6.13,1.6,12.22,12.22,0,0,1,4.09,3.69,8,8,0,0,1,1.51,4.55,4.14,4.14,0,0,1-.73,2.63,3.53,3.53,0,0,1-2.31,1.16,3.79,3.79,0,0,0-1.28.35.63.63,0,0,0-.14.47Zm-3.47-3,2.62,1.51a1.29,1.29,0,0,1,.46-1.06,3.76,3.76,0,0,1,1.68-.53,2.82,2.82,0,0,0,1.78-.85,3.34,3.34,0,0,0,.54-2.1,7.19,7.19,0,0,0-1.36-4.07,11.52,11.52,0,0,0-3.82-3.44,10.11,10.11,0,0,0-5.07-1.51l1.28,3.63h0a7.64,7.64,0,0,1,3.87,1,4,4,0,0,1,1.24,1.08,2.22,2.22,0,0,1,.52,1.37,1.55,1.55,0,0,1-.57,1.33,3.27,3.27,0,0,1-1.51.52,2,2,0,0,0-1.32.62,2.86,2.86,0,0,0-.37,1.65Z"/><path class="cls-2" d="M356.64,87.12V86a3.17,3.17,0,0,1,.46-1.9,2.28,2.28,0,0,1,1.6-.79,3,3,0,0,0,1.32-.44,1.18,1.18,0,0,0,.4-1,1.9,1.9,0,0,0-.43-1.12,3.63,3.63,0,0,0-1.12-1,7.32,7.32,0,0,0-4-.91l-1.57-4.46A10.1,10.1,0,0,1,359.19,76a11.9,11.9,0,0,1,3.95,3.56,7.6,7.6,0,0,1,1.44,4.32,3.71,3.71,0,0,1-.64,2.36,3.15,3.15,0,0,1-2,1,3.85,3.85,0,0,0-1.49.44,1,1,0,0,0-.3.8v.66Zm-.48,4.29c0-.8.2-1.3.6-1.51s1-.07,1.78.38a4.72,4.72,0,0,1,1.74,1.66,4.2,4.2,0,0,1,.6,2.2q0,1.19-.63,1.47a1.92,1.92,0,0,1-1.71-.33,5,5,0,0,1-1.75-1.66A4.09,4.09,0,0,1,356.16,91.41Z"/><path class="cls-3" d="M274.3,375c-21.2-11.32-155.72-88-160.57-211.73a6,6,0,0,0-2.75-4.6,1.74,1.74,0,0,0-2.06,0l-13.24,7.85,5,47.34,7.68,28.32v36.91a12.28,12.28,0,0,0,5.56,9.63l62.24,35.93,32.37,30.5,54.15,34.52,13.59-8.06a1.86,1.86,0,0,0,.87-1.78v-.07A6,6,0,0,0,274.3,375Z"/><path class="cls-2" d="M262.62,390.83l-54.81-35-32.29-30.42-62.13-35.87a13.2,13.2,0,0,1-6.06-10.49V242.31L99.66,214l-5-48,13.72-8.13a2.72,2.72,0,0,1,3.11-.05,7,7,0,0,1,3.26,5.43c4.78,121.9,134.16,197.07,160,210.9h0a6.91,6.91,0,0,1,3.32,5.62,2.85,2.85,0,0,1-1.42,2.73ZM209.1,354.37l53.56,34.14,13.07-7.75a1,1,0,0,0,.38-.93,5,5,0,0,0-2.28-3.94A404.45,404.45,0,0,1,187.19,312c-47.34-46.28-72.39-96.3-74.44-148.7a5.1,5.1,0,0,0-2.25-3.78c-.15-.08-.67-.34-.93-.12l-.14.11-12.7,7.52,4.89,46.63,7.69,28.5v36.91a11.36,11.36,0,0,0,5.07,8.77l62.42,36.07Z"/><path class="cls-2" d="M218.66,338.28l-17.49,9.94,8,7.55,2.49,1.58,18.25-10.49C226.27,344.17,222.5,341.31,218.66,338.28Z"/><path class="cls-2" d="M211.65,358.51l-3.14-2-9-8.47,19.24-10.93.52.41c3.68,2.91,7.46,5.79,11.23,8.56l1.22.9ZM209.8,355l1.9,1.22,16.42-9.45c-3.21-2.37-6.41-4.82-9.54-7.28l-15.75,8.95Z"/><path class="cls-2" d="M276.23,381.77a1.86,1.86,0,0,0,.87-1.78v-.07a6,6,0,0,0-2.8-4.75c-4.85-2.59-15.64-8.61-29.44-17.82l-17.18,10.19,35,22.29Z"/><path class="cls-2" d="M262.62,391l-36.83-23.48,19.1-11.32.52.34c13.63,9.1,24.24,15,29.36,17.77a6.89,6.89,0,0,1,3.32,5.62,2.87,2.87,0,0,1-1.38,2.72Zm-33.05-23.41,33.09,21.09,13.13-7.79c.2-.1.32-.43.32-.9a5,5,0,0,0-2.28-3.93c-5.08-2.72-15.55-8.58-29-17.53Z"/><path class="cls-2" d="M119.9,202.79l-19.21,10.88,0,.22,2.5,9.21,19.49-10.95Q121.19,207.53,119.9,202.79Z"/><path class="cls-2" d="M102.58,224.58,99.7,213.77l-.06-.64,20.88-11.83.33,1.23c.85,3.12,1.79,6.25,2.79,9.31l.26.78Zm-.77-10.41,2,7.44,17.68-9.92c-.79-2.45-1.54-4.93-2.23-7.41Z"/><path class="cls-2" d="M98.74,195.31l17.31-9.73a176.06,176.06,0,0,1-2.1-19.74l-17.28,9.79Z"/><path class="cls-2" d="M97.91,196.9l-2.29-21.81,19.24-10.9.08,1.6A175.26,175.26,0,0,0,117,185.42l.11.69Zm-.19-20.73,1.84,17.54L115,185.06a176.4,176.4,0,0,1-1.92-17.57Z"/><path class="cls-5" d="M94.71,168.34V287.16a12.28,12.28,0,0,0,5.56,9.63l160.51,92.67c1.49.87,2.71.17,2.71-1.56v-.07a6,6,0,0,0-2.8-4.74c-21.2-11.33-155.72-88-160.57-211.73a6,6,0,0,0-2.75-4.61h0C95.89,165.93,94.71,166.64,94.71,168.34Z"/><path class="cls-2" d="M262,390.82a3.48,3.48,0,0,1-1.71-.5L99.77,297.65a13.22,13.22,0,0,1-6-10.49V168.34a2.62,2.62,0,0,1,4.13-2.46,7,7,0,0,1,3.26,5.44c4.78,121.89,134.16,197.06,160,210.89a6.89,6.89,0,0,1,3.33,5.62,2.92,2.92,0,0,1-1.29,2.68A2.36,2.36,0,0,1,262,390.82ZM96.21,167.4a.33.33,0,0,0-.21,0c-.19.1-.3.45-.3.89V287.16a11.42,11.42,0,0,0,5.06,8.78l160.51,92.67a.72.72,0,0,0,1.23-.71,5,5,0,0,0-2.28-3.94,403.94,403.94,0,0,1-86.64-63.87c-47.35-46.27-72.39-96.3-74.45-148.7a5.06,5.06,0,0,0-2.24-3.78A1.53,1.53,0,0,0,96.21,167.4Z"/><rect class="cls-2" x="116.72" y="237.35" width="15.82" height="1.98" transform="translate(-103.9 96.52) rotate(-30.57)"/><rect class="cls-2" x="176.91" y="317.5" width="15.82" height="1.98" transform="translate(-136.18 138.06) rotate(-30.53)"/><rect class="cls-2" x="120.46" y="243.96" width="15.82" height="1.98" transform="matrix(0.86, -0.51, 0.51, 0.86, -106.65, 99.19)"/><rect class="cls-2" x="134.09" y="268.25" width="15.82" height="1.98" transform="translate(-117.1 109.49) rotate(-30.54)"/><rect class="cls-2" x="196.57" y="335.4" width="15.82" height="1.98" transform="translate(-142.54 150.53) rotate(-30.53)"/><rect class="cls-6" x="262.49" y="378.83" width="10.69" height="1.52" transform="translate(-161.18 201.34) rotate(-32.23)"/><rect class="cls-6" x="101.83" y="173.78" width="10.69" height="1.52" transform="matrix(0.85, -0.53, 0.53, 0.85, -76.58, 84.07)"/><path class="cls-3" d="M94.15,400.47,2.59,347.6c-2.58-1.48-2.25-4.08.72-5.8l60.53-34.95c3-1.72,7.48-1.9,10-.41l91.57,52.86c2.58,1.49,2.25,4.09-.72,5.81l-60.53,34.94C101.23,401.77,96.73,402,94.15,400.47Z"/><path class="cls-2" d="M98.53,402.33a9.71,9.71,0,0,1-4.8-1.13L2.17,348.34A3.81,3.81,0,0,1,0,345.08c0-1.49,1.05-3,2.89-4l60.52-34.94c3.26-1.89,8.06-2.07,10.91-.42l91.56,52.87a3.8,3.8,0,0,1,2.17,3.25c0,1.5-1.05,3-2.89,4l-60.52,35A12.52,12.52,0,0,1,98.53,402.33Zm-29-96a10.9,10.9,0,0,0-5.28,1.3L3.74,342.53c-1.28.74-2,1.69-2,2.55A2.26,2.26,0,0,0,3,346.87l91.56,52.86c2.3,1.33,6.51,1.14,9.21-.41l60.52-34.95c1.28-.74,2-1.69,2-2.55A2.23,2.23,0,0,0,165,360L73.47,307.17A8.09,8.09,0,0,0,69.54,306.29Z"/><path class="cls-6" d="M132.93,358.67,75,325.21c-1-.57-.87-1.58.28-2.24h0a4.35,4.35,0,0,1,3.9-.17l57.94,33.46c1,.57.87,1.58-.28,2.25h0A4.35,4.35,0,0,1,132.93,358.67Z"/><path class="cls-2" d="M134.63,359.9a4.23,4.23,0,0,1-2.12-.5L74.56,326a2,2,0,0,1-1.1-1.71,2.43,2.43,0,0,1,1.38-2,5.16,5.16,0,0,1,4.75-.16l57.95,33.45a2,2,0,0,1,1.09,1.72,2.4,2.4,0,0,1-1.37,2A5.38,5.38,0,0,1,134.63,359.9ZM77.48,323.26a3.71,3.71,0,0,0-1.79.44c-.43.25-.53.48-.53.54s.07.13.25.24l58,33.45a3.48,3.48,0,0,0,3-.16c.44-.25.53-.48.53-.54s-.06-.13-.24-.24L78.74,323.54A2.55,2.55,0,0,0,77.48,323.26Z"/><path class="cls-6" d="M66.65,320.4l-.56-.32c-1-.58-.87-1.59.28-2.25h0a4.31,4.31,0,0,1,3.9-.16l.56.32c1,.58.87,1.58-.28,2.25h0A4.35,4.35,0,0,1,66.65,320.4Z"/><path class="cls-2" d="M68.35,321.64a4.38,4.38,0,0,1-2.13-.5h0l-.56-.33a2,2,0,0,1-1.09-1.71,2.42,2.42,0,0,1,1.38-2,5.2,5.2,0,0,1,4.74-.16l.56.32a2,2,0,0,1,1.1,1.72A2.42,2.42,0,0,1,71,321,5.45,5.45,0,0,1,68.35,321.64Zm-1.27-2a3.52,3.52,0,0,0,3-.17c.43-.25.53-.47.53-.53s-.07-.14-.25-.25l-.56-.32a3.52,3.52,0,0,0-3,.16c-.44.25-.53.48-.53.54s.06.14.25.24Z"/><path class="cls-6" d="M124.25,363.68,66.31,330.23c-1-.58-.88-1.59.28-2.25h0a4.29,4.29,0,0,1,3.89-.16l58,33.45c1,.58.87,1.59-.28,2.25h0A4.31,4.31,0,0,1,124.25,363.68Z"/><path class="cls-2" d="M125.94,364.92a4.3,4.3,0,0,1-2.11-.5L65.88,331a2,2,0,0,1-1.1-1.71,2.42,2.42,0,0,1,1.38-2,5.22,5.22,0,0,1,4.75-.16l57.94,33.45a2,2,0,0,1,1.1,1.72,2.42,2.42,0,0,1-1.38,2A5.46,5.46,0,0,1,125.94,364.92ZM68.8,328.28a3.82,3.82,0,0,0-1.79.43c-.43.26-.53.48-.53.54s.07.14.25.24l58,33.46a3.52,3.52,0,0,0,3-.17c.43-.25.53-.47.53-.53s-.07-.14-.25-.24L70.06,328.55A2.67,2.67,0,0,0,68.8,328.28Z"/><path class="cls-2" d="M58,325.41l-.56-.32c-1-.58-.88-1.58.28-2.25h0a4.29,4.29,0,0,1,3.89-.16l.56.32c1,.58.88,1.59-.28,2.25h0A4.29,4.29,0,0,1,58,325.41Z"/><path class="cls-2" d="M59.66,326.65a4.37,4.37,0,0,1-2.12-.5h0l-.56-.32a2,2,0,0,1-1.1-1.72,2.42,2.42,0,0,1,1.38-2,5.22,5.22,0,0,1,4.75-.16l.56.33a2,2,0,0,1,1.1,1.71,2.42,2.42,0,0,1-1.38,2A5.35,5.35,0,0,1,59.66,326.65Zm-1.27-2a3.54,3.54,0,0,0,3-.16c.43-.25.53-.48.53-.54s-.07-.14-.25-.24l-.56-.33a3.51,3.51,0,0,0-3,.17c-.43.25-.53.47-.53.53s.07.14.25.24Z"/><path class="cls-6" d="M115.57,368.7,57.62,335.24c-1-.58-.87-1.58.28-2.25h0a4.35,4.35,0,0,1,3.9-.16l57.94,33.45c1,.58.88,1.59-.28,2.25h0A4.33,4.33,0,0,1,115.57,368.7Z"/><path class="cls-2" d="M117.26,369.93a4.26,4.26,0,0,1-2.12-.5h0L57.2,336a2,2,0,0,1-1.1-1.71,2.39,2.39,0,0,1,1.38-2,5.16,5.16,0,0,1,4.75-.16l57.94,33.45a2,2,0,0,1,1.1,1.71,2.41,2.41,0,0,1-1.38,2A5.35,5.35,0,0,1,117.26,369.93ZM116,368a3.54,3.54,0,0,0,3.05-.16c.43-.25.53-.48.53-.54s-.07-.14-.25-.24L61.37,333.57a3.49,3.49,0,0,0-3,.16c-.43.25-.53.48-.53.54s.07.13.25.24Z"/><path class="cls-2" d="M49.28,330.43l-.56-.33c-1-.57-.87-1.58.28-2.25h0a4.38,4.38,0,0,1,3.9-.16l.56.33c1,.57.87,1.58-.28,2.25h0A4.38,4.38,0,0,1,49.28,330.43Z"/><path class="cls-2" d="M51,331.66a4.23,4.23,0,0,1-2.12-.5l-.56-.32a2,2,0,0,1-1.1-1.72,2.41,2.41,0,0,1,1.38-2,5.25,5.25,0,0,1,4.75-.17l.56.33A2,2,0,0,1,55,329a2.41,2.41,0,0,1-1.37,2A5.38,5.38,0,0,1,51,331.66Zm.24-3.51a3.71,3.71,0,0,0-1.79.44c-.43.25-.53.48-.53.54s.07.13.25.24l.56.32a3.51,3.51,0,0,0,3-.16c.43-.25.52-.48.52-.54s-.06-.13-.24-.24l-.57-.32A2.51,2.51,0,0,0,51.22,328.15Z"/><path class="cls-6" d="M106.88,373.71,48.94,340.25c-1-.57-.87-1.58.28-2.25h0a4.38,4.38,0,0,1,3.9-.16l57.94,33.46c1,.57.87,1.58-.28,2.25h0A4.35,4.35,0,0,1,106.88,373.71Z"/><path class="cls-2" d="M108.58,374.94a4.23,4.23,0,0,1-2.12-.5L48.51,341a2,2,0,0,1-1.1-1.71,2.43,2.43,0,0,1,1.38-2,5.16,5.16,0,0,1,4.75-.16l58,33.45a2,2,0,0,1,1.09,1.71,2.39,2.39,0,0,1-1.37,2A5.38,5.38,0,0,1,108.58,374.94ZM51.43,338.3a3.71,3.71,0,0,0-1.79.44c-.43.25-.52.48-.52.54s.06.13.24.24l58,33.45a3.51,3.51,0,0,0,3-.16c.43-.25.52-.48.52-.54s-.06-.13-.24-.24L52.69,338.58A2.55,2.55,0,0,0,51.43,338.3Z"/><path class="cls-2" d="M40.6,335.44l-.56-.32c-1-.58-.87-1.59.28-2.25h0a4.31,4.31,0,0,1,3.9-.16l.56.32c1,.58.87,1.58-.28,2.25h0A4.35,4.35,0,0,1,40.6,335.44Z"/><path class="cls-2" d="M42.29,336.67a4.3,4.3,0,0,1-2.11-.49h0l-.55-.33a2,2,0,0,1-1.1-1.71,2.42,2.42,0,0,1,1.38-2,5.2,5.2,0,0,1,4.74-.16l.56.32A2,2,0,0,1,46.3,334a2.39,2.39,0,0,1-1.38,2A5.35,5.35,0,0,1,42.29,336.67Zm-1.26-2a3.52,3.52,0,0,0,3-.17c.43-.25.53-.47.53-.53s-.07-.14-.25-.25l-.56-.32a3.52,3.52,0,0,0-3,.16c-.44.25-.53.48-.53.54s.06.14.25.24Z"/><path class="cls-6" d="M98.2,378.72,40.26,345.27c-1-.58-.88-1.59.28-2.25h0a4.29,4.29,0,0,1,3.89-.16l58,33.45c1,.58.87,1.58-.28,2.25h0A4.31,4.31,0,0,1,98.2,378.72Z"/><path class="cls-2" d="M99.9,380a4.32,4.32,0,0,1-2.12-.5L39.83,346a2,2,0,0,1-1.1-1.71,2.42,2.42,0,0,1,1.38-2,5.22,5.22,0,0,1,4.75-.16l57.94,33.45a2,2,0,0,1,1.1,1.72,2.42,2.42,0,0,1-1.38,2A5.45,5.45,0,0,1,99.9,380Zm-1.27-2a3.52,3.52,0,0,0,3-.17c.43-.25.53-.47.53-.53s-.07-.14-.25-.24L44,343.59a3.54,3.54,0,0,0-3,.16c-.43.25-.53.48-.53.54s.07.14.25.24Z"/><path class="cls-6" d="M31.92,340.45l-.56-.32c-1-.58-.88-1.58.28-2.25h0a4.29,4.29,0,0,1,3.89-.16l.56.32c1,.58.88,1.59-.28,2.25h0A4.29,4.29,0,0,1,31.92,340.45Z"/><path class="cls-2" d="M33.61,341.69a4.37,4.37,0,0,1-2.12-.5h0l-.56-.32a2,2,0,0,1-1.1-1.72,2.44,2.44,0,0,1,1.38-2A5.22,5.22,0,0,1,36,337l.56.33a2,2,0,0,1,1.1,1.71,2.42,2.42,0,0,1-1.38,2A5.35,5.35,0,0,1,33.61,341.69Zm-1.27-2a3.54,3.54,0,0,0,3-.16c.43-.25.53-.48.53-.54s-.07-.14-.25-.24l-.56-.33a3.51,3.51,0,0,0-3,.17c-.43.25-.53.47-.53.53s.07.14.25.24Z"/><path class="cls-6" d="M89.52,383.74,31.57,350.28c-1-.58-.87-1.58.28-2.25h0a4.35,4.35,0,0,1,3.9-.16l57.94,33.45c1,.58.88,1.59-.28,2.25h0A4.33,4.33,0,0,1,89.52,383.74Z"/><path class="cls-2" d="M91.21,385a4.26,4.26,0,0,1-2.12-.5L31.15,351a2,2,0,0,1-1.1-1.72,2.39,2.39,0,0,1,1.38-2,5.17,5.17,0,0,1,4.74-.17l58,33.46a2,2,0,0,1,1.1,1.71,2.42,2.42,0,0,1-1.38,2A5.35,5.35,0,0,1,91.21,385Zm-1.27-2a3.51,3.51,0,0,0,3-.16c.43-.25.53-.48.53-.54s-.07-.14-.25-.24L35.32,348.6a3.52,3.52,0,0,0-3,.17c-.43.25-.53.47-.53.53s.07.14.25.25Z"/><path class="cls-6" d="M23.23,345.47l-.56-.33c-1-.57-.87-1.58.28-2.25h0a4.38,4.38,0,0,1,3.9-.16l.56.33c1,.57.87,1.58-.28,2.25h0A4.38,4.38,0,0,1,23.23,345.47Z"/><path class="cls-2" d="M24.93,346.7a4.26,4.26,0,0,1-2.12-.5l-.56-.32a2,2,0,0,1-1.1-1.71,2.41,2.41,0,0,1,1.38-2,5.16,5.16,0,0,1,4.75-.16l.56.32a2,2,0,0,1,1.1,1.71,2.43,2.43,0,0,1-1.38,2A5.35,5.35,0,0,1,24.93,346.7Zm.24-3.51a3.71,3.71,0,0,0-1.79.44c-.43.25-.53.48-.53.54s.07.13.25.24l.56.32a3.51,3.51,0,0,0,3.05-.16c.43-.25.53-.48.53-.54s-.07-.13-.25-.24l-.56-.32A2.58,2.58,0,0,0,25.17,343.19Z"/><path class="cls-3" d="M101.72,394l-9.06.11a5.71,5.71,0,0,0-2.68.66l-20.85,12a1.16,1.16,0,0,0,0,2.2l26.33,15.2a4.22,4.22,0,0,0,3.82,0L125.6,409a1.16,1.16,0,0,0,0-2.2l-21-12.14A5.69,5.69,0,0,0,101.72,394Z"/><path class="cls-2" d="M97.37,425.49a4.88,4.88,0,0,1-2.34-.56l-26.32-15.2a2,2,0,0,1,0-3.68l20.84-12a6.47,6.47,0,0,1,3.1-.78l9.06-.1a6.63,6.63,0,0,1,3.28.77l21,12.14a2,2,0,0,1,0,3.68L99.7,424.93A4.81,4.81,0,0,1,97.37,425.49Zm4.44-30.65h-.08l-9.06.1a4.88,4.88,0,0,0-2.27.55l-20.84,12c-.27.16-.37.31-.37.37s.1.21.37.37l26.32,15.19a3.37,3.37,0,0,0,3,0l26.32-15.19c.27-.16.37-.31.37-.37s-.1-.21-.37-.37l-21-12.14A4.78,4.78,0,0,0,101.81,394.84Z"/><path class="cls-2" d="M104,408.75l7.38,3.39c2.25-1.63,2.64-3.82,1.2-5.65Z"/><path class="cls-2" d="M111.51,413.12l-10-4.59,11.41-3,.35.44a4.35,4.35,0,0,1,1,3.34,5.34,5.34,0,0,1-2.36,3.52Zm-5-4.15,4.75,2.18a3.49,3.49,0,0,0,1.3-2.07,2.52,2.52,0,0,0-.34-1.61Z"/><path class="cls-6" d="M95.16,407.84l8.58-2.26a6.6,6.6,0,0,0-1.91-1.59,14.72,14.72,0,0,0-13.34,0c-3.68,2.12-3.68,5.57,0,7.7a14.72,14.72,0,0,0,13.34,0,7.92,7.92,0,0,0,.71-.46Z"/><path class="cls-2" d="M95.16,414.15a14.43,14.43,0,0,1-7.09-1.73c-2.06-1.18-3.19-2.81-3.19-4.58s1.13-3.4,3.19-4.59a15.45,15.45,0,0,1,14.19,0,7.57,7.57,0,0,1,2.15,1.81l.8,1-7.54,2,6.54,3-1.17.86q-.36.25-.78.51A14.54,14.54,0,0,1,95.16,414.15Zm0-10.92a12.8,12.8,0,0,0-6.24,1.49c-1.51.88-2.34,2-2.34,3.12s.83,2.24,2.34,3.11a14,14,0,0,0,11.78.37l-8-3.7,9.41-2.47c-.2-.15-.42-.29-.65-.43A12.83,12.83,0,0,0,95.16,403.23Z"/><path class="cls-3" d="M367.35,265.39l-7.3-17.5a88.56,88.56,0,0,0-36.49-42l-17.38-10.33,15.84-9,16.68,9.87a88.49,88.49,0,0,1,36.62,42.08L382.63,256a58.13,58.13,0,0,0,24.69,28h0l8.76-5.24,15.42,9.42-23.6,14.23-15.73-9A58.22,58.22,0,0,1,367.35,265.39Z"/><path class="cls-2" d="M407.91,303.44l-16.16-9.23a59.29,59.29,0,0,1-25.18-28.5l-7.31-17.49a88.19,88.19,0,0,0-36.13-41.59l-18.65-11.08L322,185.63l17.1,10.11a90,90,0,0,1,37,42.49l7.3,17.48a57.66,57.66,0,0,0,23.91,27.36l8.76-5.26,17.05,10.43Zm-39.77-38.38a57.6,57.6,0,0,0,24.45,27.67l15.3,8.74,22-13.24-13.79-8.43L407.33,285l-.43-.25a59.33,59.33,0,0,1-25.06-28.42l-7.3-17.49a88.23,88.23,0,0,0-36.28-41.67L322,187.6l-14.14,8L324,205.16a89.94,89.94,0,0,1,36.83,42.41Z"/><polygon class="cls-3" points="428.63 315.09 413.03 305.74 454.73 281.65 470.33 291 428.63 315.09"/><path class="cls-2" d="M428.62,316.07l-17.27-10.35,43.39-25.05L472,291Zm-13.91-10.32,13.93,8.35,40-23.11-13.92-8.35Z"/><polygon class="cls-3" points="450.08 327.77 434.48 318.42 494.83 283.52 510.42 292.87 450.08 327.77"/><path class="cls-2" d="M450.07,328.76,432.8,318.41l62-35.88,17.27,10.35Zm-13.91-10.32,13.93,8.35,58.66-33.94-13.93-8.34Z"/><polygon class="cls-3" points="493.4 352.97 477.81 343.62 519.51 319.54 535.11 328.89 493.4 352.97"/><path class="cls-2" d="M493.39,354l-17.26-10.35,43.39-25.06,17.26,10.35Zm-13.91-10.32L493.41,352l40-23.12-13.93-8.34Z"/><polygon class="cls-3" points="515.52 365.66 499.92 356.31 520.85 344.13 536.45 353.48 515.52 365.66"/><path class="cls-2" d="M515.51,366.65,498.25,356.3l22.6-13.16,17.27,10.35Zm-13.92-10.33,13.93,8.35,19.25-11.2-13.93-8.35Z"/><polygon class="cls-3" points="537.63 378.48 522.04 369.13 532.5 363.04 548.1 372.39 537.63 378.48"/><path class="cls-2" d="M537.63,379.46l-17.27-10.34,12.15-7.07,17.26,10.35Zm-13.92-10.32,13.93,8.35,8.78-5.11L532.49,364Z"/><polygon class="cls-3" points="471.53 340.46 455.93 331.11 538.2 283.52 553.79 292.87 471.53 340.46"/><path class="cls-2" d="M471.52,341.44,454.25,331.1l84-48.57,17.27,10.35ZM457.6,331.12l13.94,8.35,80.58-46.62-13.93-8.34Z"/><rect class="cls-2" x="544.23" y="300.52" width="8.07" height="1.7" transform="translate(-77.22 314.77) rotate(-30.02)"/><rect class="cls-2" x="525.82" y="337.43" width="8.06" height="1.7" transform="translate(-98.16 310.47) rotate(-30.02)"/><rect class="cls-2" x="474.66" y="285.68" width="8.06" height="1.7" transform="translate(-79.14 277.94) rotate(-30.02)"/><rect class="cls-2" x="521.47" y="310" width="20.79" height="1.7" transform="matrix(0.87, -0.5, 0.5, 0.87, -84.17, 307.83)"/><path class="cls-2" d="M224.15,291l10.17.21a1,1,0,0,0,.51-.13l38.93-22.48c2.39-1.38,6-1.53,8.07-.34l88.31,51a1,1,0,0,0,.18.08l29.31,9.85a1,1,0,0,1,.67.93v7.37c.26,1-.39,2.19-1.91,3.07l-48.66,28.09c-2.39,1.38-6,1.53-8.07.33L224.52,301.35a2.36,2.36,0,0,1-1.37-2V292A1,1,0,0,1,224.15,291Z"/><path class="cls-2" d="M341.18,369.78,224.06,302.16a3.25,3.25,0,0,1-1.84-2.85V292a1.9,1.9,0,0,1,.57-1.37,1.66,1.66,0,0,1,1.38-.55l10.19.21,38.94-22.48c2.69-1.55,6.64-1.69,9-.33l88.31,51,29.32,9.84a1.93,1.93,0,0,1,1.3,1.82v7.26c.29,1.47-.6,2.95-2.38,4l-48.67,28.1a10.23,10.23,0,0,1-5,1.27A8.08,8.08,0,0,1,341.18,369.78ZM274.23,269.4,235.3,291.88a1.52,1.52,0,0,1-1,.26l-10.17-.21,0-.93-.07,8.32a1.51,1.51,0,0,0,.91,1.22l117.13,67.63c1.77,1,5,.87,7.13-.34l48.66-28.09c1.07-.62,1.63-1.4,1.48-2.05l-.06-7.63L370,320.21a1.58,1.58,0,0,1-.35-.16l-88.31-51a6.13,6.13,0,0,0-3-.68A8.59,8.59,0,0,0,274.23,269.4Z"/><path class="cls-3" d="M224.52,293.28,341.65,360.9c2.07,1.2,5.68,1.05,8.07-.33l48.66-28.1c2.39-1.38,2.65-3.46.58-4.66L281.83,260.19c-2.07-1.19-5.68-1-8.07.34L225.1,288.62C222.71,290,222.45,292.08,224.52,293.28Z"/><path class="cls-2" d="M341.18,361.71,224.06,294.08a3.27,3.27,0,0,1-1.87-2.83,4.22,4.22,0,0,1,2.44-3.44l48.67-28.09c2.68-1.55,6.63-1.7,9-.34L399.42,327a3.29,3.29,0,0,1,1.87,2.83,4.22,4.22,0,0,1-2.44,3.44l-48.67,28.09a10.26,10.26,0,0,1-5,1.27A8.18,8.18,0,0,1,341.18,361.71ZM274.23,261.33l-48.66,28.1c-.95.54-1.51,1.23-1.51,1.82a1.55,1.55,0,0,0,.93,1.22L342.12,360.1c1.77,1,5,.87,7.13-.34l48.66-28.09c.95-.55,1.51-1.23,1.51-1.83a1.58,1.58,0,0,0-.93-1.22L281.36,261a6.13,6.13,0,0,0-3-.68A8.48,8.48,0,0,0,274.23,261.33Z"/><rect class="cls-6" x="344.46" y="362.27" width="1.43" height="6.94"/><rect class="cls-6" x="394.3" y="334.6" width="1.43" height="6.94"/><rect class="cls-6" x="227.67" y="295.74" width="1.43" height="6.94"/><path class="cls-3" d="M174.87,25.46a.25.25,0,0,1,.08-.38l8.69-4.83a1.56,1.56,0,0,1,1.82,0L448,171.87a6.14,6.14,0,0,1,2.57,4.9v200.9a2.39,2.39,0,0,1-.76,2l-9.15,5.08-9.12-11,3.58-1.56L185.46,228a6.18,6.18,0,0,1-2.56-4.91V36.34Z"/><path class="cls-2" d="M430,373.39l3-1.33L185,228.83a7.08,7.08,0,0,1-3-5.71V36.65L174.12,26a1.18,1.18,0,0,1,.38-1.75l8.56-4.74a2.49,2.49,0,0,1,2.87,0L448.48,171.06a7.07,7.07,0,0,1,3,5.71v200.9a3.29,3.29,0,0,1-1.24,2.8l-9.83,5.45ZM184.09,21.07l-8,4.45L183.83,36V223.12a5.21,5.21,0,0,0,2.1,4.1L437.2,372.29l-4.14,1.81,7.83,9.44,8.37-4.63a1.57,1.57,0,0,0,.38-1.24V176.77a5.22,5.22,0,0,0-2.1-4.1L185,21.09a1.09,1.09,0,0,0-.51-.16A.65.65,0,0,0,184.09,21.07Z"/><path class="cls-2" d="M176.29,233.12,438.83,384.7c1.42.82,2.57-.05,2.57-1.94V181.86a6.14,6.14,0,0,0-2.57-4.9L176.29,25.38c-1.42-.82-2.57.05-2.57,1.94v200.9A6.14,6.14,0,0,0,176.29,233.12Z"/><path class="cls-2" d="M438.37,385.51,175.82,233.93a7.08,7.08,0,0,1-3-5.71V27.32a3.15,3.15,0,0,1,1.35-2.88,2.54,2.54,0,0,1,2.61.13L439.3,176.15a7.08,7.08,0,0,1,3,5.71v200.9a3.15,3.15,0,0,1-1.35,2.88,2.25,2.25,0,0,1-1.13.3A3,3,0,0,1,438.37,385.51ZM175.07,26.05c-.19.11-.42.51-.42,1.27v200.9a5.22,5.22,0,0,0,2.1,4.1L439.3,383.9c.15.08.52.27.75.13s.42-.51.42-1.27V181.86a5.19,5.19,0,0,0-2.1-4.09L175.82,26.19a1.15,1.15,0,0,0-.55-.19A.46.46,0,0,0,175.07,26.05Z"/><path class="cls-5" d="M176.67,229.37,438.45,380.51c.42.24.75,0,.75-.57V180.88a1.8,1.8,0,0,0-.75-1.44L176.67,28.3c-.42-.24-.75,0-.75.57V227.93A1.78,1.78,0,0,0,176.67,229.37Z"/><path class="cls-2" d="M438,381.32,176.2,230.18h0a2.74,2.74,0,0,1-1.22-2.25V28.87a1.56,1.56,0,0,1,.73-1.41,1.39,1.39,0,0,1,1.42,0L438.92,178.64a2.71,2.71,0,0,1,1.22,2.24V379.94a1.59,1.59,0,0,1-.73,1.42,1.38,1.38,0,0,1-.66.17A1.6,1.6,0,0,1,438,381.32ZM176.85,227.93a1,1,0,0,0,.28.63L438.27,379.33V180.88a.93.93,0,0,0-.29-.63L176.85,29.48Z"/><path class="cls-2" d="M173.72,228.45V217L441.4,371.51V383c0,1.76-1.24,2.47-2.76,1.59L176.48,233.23A6.11,6.11,0,0,1,173.72,228.45Z"/><path class="cls-2" d="M438.17,385.4,176,234a7,7,0,0,1-3.22-5.59v-13.1L441.87,370.7l.46.27v12a2.85,2.85,0,0,1-1.27,2.59,2.31,2.31,0,0,1-1.18.31A3.48,3.48,0,0,1,438.17,385.4ZM174.65,218.58v9.87a5.17,5.17,0,0,0,2.29,4L439.11,383.78a1.13,1.13,0,0,0,1,.2,1.15,1.15,0,0,0,.34-1V372Z"/><rect class="cls-6" x="306.84" y="282" width="1.43" height="39.14" transform="translate(-107.44 416.98) rotate(-59.98)"/><rect class="cls-2" x="440.83" y="175.6" width="10.49" height="1.86" transform="translate(-27.23 254.78) rotate(-30.98)"/><rect class="cls-2" x="190.4" y="30.35" width="10.49" height="1.86" transform="translate(11.81 105.17) rotate(-30.98)"/><rect class="cls-2" x="440.83" y="365.95" width="10.49" height="1.86" transform="translate(-125.21 281.91) rotate(-30.98)"/><polygon class="cls-6" points="378.49 351.7 379.21 350.46 373.52 347.15 372.8 348.39 378.49 351.7"/><path class="cls-2" d="M239.26,297.52l.91-1.62-7.48-4.17a.62.62,0,0,1-.32-.55.65.65,0,0,1,.31-.56l10.41-6.1-.94-1.61L231.74,289a2.5,2.5,0,0,0,0,4.35Z"/><rect class="cls-2" x="441.33" y="359.03" width="10.49" height="1.86" transform="translate(-121.58 281.22) rotate(-30.98)"/><rect class="cls-2" x="196.2" y="33.62" width="10.49" height="1.86" transform="translate(10.96 108.63) rotate(-30.98)"/><rect class="cls-2" x="441.3" y="185.16" width="10.49" height="1.86" transform="translate(-32.09 256.39) rotate(-30.98)"/><path class="cls-3" d="M203.52,140.5,402.24,255.25c3.3,1.9,6-.12,6-4.52V227.06c0-4.4-2.67-9.5-6-11.41L203.52,100.9c-3.3-1.9-6,.12-6,4.52v23.67C197.55,133.49,200.22,138.59,203.52,140.5Z"/><path class="cls-2" d="M406.74,264.6,208,149.85c-3.61-2.08-6.44-7.45-6.44-12.21V114c0-2.65.92-4.7,2.53-5.63a4.73,4.73,0,0,1,4.84.31L407.67,223.39c3.61,2.09,6.44,7.45,6.44,12.21v23.68c0,2.65-.93,4.71-2.53,5.63a3.89,3.89,0,0,1-2,.53A5.73,5.73,0,0,1,406.74,264.6ZM205,109.94c-1,.59-1.6,2-1.6,4v23.68c0,4,2.52,8.87,5.51,10.6L407.67,263a3,3,0,0,0,3,.31c1-.59,1.6-2.05,1.6-4V235.6c0-4-2.52-8.87-5.5-10.59L208,110.26a3.92,3.92,0,0,0-1.91-.6A2.12,2.12,0,0,0,205,109.94Z"/><rect class="cls-6" x="346.77" y="203.67" width="1.86" height="19.7" transform="translate(-11.41 407.23) rotate(-59.9)"/><path class="cls-3" d="M359,222.05l-17-9.89Z"/><rect class="cls-2" x="349.56" y="207.26" width="1.86" height="19.7" transform="translate(-13.14 411.4) rotate(-59.89)"/><path class="cls-6" d="M219.75,131.75l-.32,3.1,2.88.73.26,2.4-2.63-1.3,1.72,3.64-1.75.07-1.21-3.49-1.06,2.17L215.82,137l1.71-1.66-2.61-1.74.3-2.06,2.82,2.56-.32-3.47Z"/><path class="cls-6" d="M228.37,136.73l-.32,3.1,2.89.73.25,2.4-2.63-1.3,1.73,3.64-1.76.07-1.2-3.49L226.27,144l-1.83-2.11,1.71-1.66-2.61-1.74.3-2.06,2.82,2.55-.31-3.46Z"/><path class="cls-6" d="M237,141.71l-.31,3.1,2.88.73.26,2.4-2.63-1.3,1.72,3.64-1.75.07L236,146.86,234.89,149l-1.82-2.11,1.71-1.67-2.62-1.74.31-2.05,2.82,2.55-.32-3.46Z"/><path class="cls-6" d="M245.62,146.69l-.32,3.1,2.89.73.25,2.4-2.63-1.3,1.73,3.64-1.76.07-1.2-3.49L243.52,154l-1.83-2.11,1.71-1.67-2.61-1.74.3-2,2.82,2.55-.32-3.46Z"/><path class="cls-6" d="M254.24,151.67l-.31,3.1,2.88.73.26,2.4-2.63-1.3,1.72,3.64-1.75.07-1.21-3.49L252.14,159l-1.82-2.11L252,155.2l-2.62-1.74.31-2.05,2.82,2.55-.32-3.46Z"/><path class="cls-6" d="M262.87,156.65l-.32,3.1,2.89.73.25,2.4-2.63-1.3,1.73,3.64-1.76.07-1.2-3.49L260.77,164l-1.83-2.11,1.71-1.67L258,158.44l.3-2.05,2.82,2.55-.32-3.46Z"/><path class="cls-6" d="M271.49,161.62l-.31,3.11,2.88.73.26,2.4-2.63-1.3,1.72,3.64-1.75.07-1.21-3.49-1.06,2.16-1.82-2.11,1.71-1.67-2.62-1.74.31-2,2.82,2.55-.32-3.46Z"/><path class="cls-6" d="M280.12,166.6l-.32,3.11,2.88.73.26,2.4-2.63-1.31,1.73,3.65-1.76.07-1.2-3.49L278,173.92l-1.83-2.11,1.71-1.67-2.61-1.74.3-2.05,2.82,2.55-.32-3.46Z"/><path class="cls-6" d="M288.74,171.58l-.31,3.11,2.88.73.25,2.4-2.62-1.31,1.72,3.65-1.75.07-1.21-3.49-1.06,2.16-1.82-2.11,1.71-1.67-2.62-1.74.31-2,2.82,2.55-.32-3.47Z"/><path class="cls-6" d="M297.37,176.56l-.32,3.1,2.88.74.26,2.4-2.63-1.31,1.73,3.65-1.76.07-1.2-3.49-1.06,2.16-1.83-2.11,1.71-1.67-2.61-1.74.3-2.06,2.82,2.56-.32-3.47Z"/><path class="cls-6" d="M306,181.54l-.31,3.1,2.88.74.25,2.4-2.62-1.31,1.72,3.65-1.75.07L305,186.7l-1.06,2.16-1.82-2.11,1.71-1.67-2.62-1.74.3-2.06,2.83,2.56-.32-3.47Z"/><path class="cls-6" d="M314.62,186.52l-.32,3.1,2.88.74.26,2.4-2.63-1.31,1.73,3.65-1.76.07-1.2-3.49-1.06,2.16-1.83-2.11,1.71-1.67-2.61-1.74.3-2.06,2.82,2.56-.32-3.47Z"/><path class="cls-6" d="M323.24,191.5l-.31,3.1,2.88.74.25,2.4-2.62-1.31,1.72,3.65-1.75.06-1.21-3.48-1.06,2.16-1.82-2.12L321,195l-2.62-1.74.3-2.06,2.83,2.56-.32-3.47Z"/><path class="cls-6" d="M331.87,196.48l-.32,3.1,2.88.74.26,2.4-2.63-1.31,1.72,3.65-1.75.06-1.21-3.48-1.05,2.16-1.83-2.12,1.71-1.66L327,198.28l.3-2.06,2.82,2.56-.32-3.47Z"/><path class="cls-2" d="M218.16,132.26l-.32,3.1,2.89.73.25,2.4-2.63-1.3,1.73,3.64-1.76.07-1.2-3.49-1.06,2.16-1.83-2.11,1.71-1.67-2.61-1.74.3-2.05,2.82,2.55-.32-3.46Z"/><path class="cls-2" d="M226.78,137.24l-.31,3.1,2.88.73.26,2.4-2.63-1.3,1.72,3.64-1.75.07-1.21-3.49-1.06,2.16-1.82-2.11,1.71-1.67L222,139l.31-2.05,2.82,2.55-.32-3.46Z"/><path class="cls-2" d="M235.41,142.22l-.32,3.1,2.89.73.25,2.4-2.63-1.3,1.73,3.64-1.76.07-1.2-3.49-1.06,2.16-1.83-2.11,1.71-1.67L230.58,144l.3-2,2.82,2.55-.32-3.46Z"/><path class="cls-2" d="M244,147.19l-.31,3.11,2.88.73.25,2.4-2.62-1.3,1.72,3.64-1.75.07L243,152.35l-1.06,2.16-1.82-2.11,1.71-1.67L239.2,149l.31-2.05,2.82,2.55L242,146Z"/><path class="cls-2" d="M252.66,152.17l-.32,3.11,2.88.73.26,2.4-2.63-1.31,1.73,3.65-1.76.07-1.2-3.49-1.06,2.16-1.83-2.11,1.71-1.67L247.83,154l.3-2.05,2.82,2.55-.32-3.46Z"/><path class="cls-2" d="M261.28,157.15l-.31,3.11,2.88.73.25,2.4-2.62-1.31,1.72,3.65-1.75.07-1.21-3.49-1.06,2.16-1.82-2.11,1.71-1.67L256.45,159l.31-2,2.82,2.55-.32-3.47Z"/><path class="cls-2" d="M269.91,162.13l-.32,3.1,2.88.74.26,2.4-2.63-1.31,1.73,3.65-1.76.07-1.2-3.49-1.06,2.16L266,167.34l1.71-1.67-2.61-1.74.3-2.06,2.82,2.56-.32-3.47Z"/><path class="cls-2" d="M278.53,167.11l-.31,3.1,2.88.74.25,2.4L278.73,172l1.72,3.65-1.75.07-1.21-3.49-1.06,2.16-1.82-2.11,1.71-1.67-2.62-1.74.3-2.06,2.83,2.56-.32-3.47Z"/><path class="cls-2" d="M287.16,172.09l-.32,3.1,2.88.74.26,2.4L287.35,177l1.73,3.65-1.76.07-1.2-3.49-1.06,2.16-1.83-2.11,1.71-1.67-2.61-1.74.3-2.06,2.82,2.56-.32-3.47Z"/><path class="cls-2" d="M295.78,177.07l-.31,3.1,2.88.74.25,2.4L296,182l1.72,3.65-1.75.06-1.21-3.48-1.06,2.16-1.82-2.12,1.71-1.66L291,178.87l.3-2.06,2.83,2.56-.32-3.47Z"/><path class="cls-2" d="M304.41,182.05l-.32,3.1,2.88.74.26,2.4L304.6,187l1.72,3.65-1.75.06-1.21-3.48-1.05,2.16-1.83-2.12,1.71-1.66-2.61-1.74.3-2.06,2.82,2.56-.32-3.47Z"/><path class="cls-2" d="M313,187l-.31,3.1,2.88.74.25,2.39-2.62-1.3,1.72,3.65-1.75.06L312,192.18l-1.06,2.17-1.82-2.12,1.7-1.66-2.61-1.74.3-2.06,2.82,2.56-.31-3.47Z"/><path class="cls-2" d="M321.66,192l-.32,3.1,2.88.74.26,2.39-2.63-1.3,1.72,3.65-1.75.06-1.21-3.49-1.05,2.17-1.83-2.12,1.71-1.66-2.61-1.74.3-2.06,2.82,2.56-.32-3.47Z"/><path class="cls-2" d="M330.28,197l-.31,3.1,2.88.74.25,2.39-2.62-1.3,1.72,3.65-1.76.06-1.2-3.49-1.06,2.17-1.82-2.12,1.7-1.66-2.61-1.74.3-2.06,2.82,2.56-.31-3.47Z"/><rect class="cls-2" x="375.08" y="372.51" width="1.86" height="21.56"/><path class="cls-3" d="M313.83,345a.22.22,0,0,1,.11.2l-.09,31.29c0,5.59,4.19-1.28,9,1.5l22.64,26.74a3.35,3.35,0,0,1,1.08,1l-1.41,18c.68,1,10-6,10.61-6.18a.24.24,0,0,1,.31.1l1.19,2.45a.23.23,0,0,0,.33.09L367,414.6a7.57,7.57,0,0,0,1.11-.67,6.57,6.57,0,0,0,1.92-5.2l.07-36.67c0-5.59-4-12.43-8.87-15.21l-38.67-22.09c-2.21-1.26-3.84-1.59-5.36-.91l-.38.13a7.35,7.35,0,0,0-.81.49l-9.53,5.66a.23.23,0,0,0,0,.4Z"/><path class="cls-2" d="M345.22,424.65a1.08,1.08,0,0,1-.65-.42l-.14-.22,1.39-18a2.23,2.23,0,0,0-.67-.61l-22.81-13c-5.07-2.9-9.23-10-9.25-15.87l.09-31-7.08-4.3a1,1,0,0,1-.48-.86,1,1,0,0,1,.49-.85l9.45-5.61a8.68,8.68,0,0,1,1-.59l.33-.12c1.73-.78,3.54-.49,6,1l38.67,22.09c5.07,2.9,9.22,10,9.25,15.87l-.07,36.66c0,2.56-.74,4.56-2.24,5.83a7.86,7.86,0,0,1-1.16.71L358,420.92a1,1,0,0,1-.8.1,1,1,0,0,1-.6-.51l-.94-1.92-1.49,1c-4.82,3.32-7.1,4.71-8.32,5A1.72,1.72,0,0,1,345.22,424.65Zm11.59-7.25.93,1.92,9-5.42a7.35,7.35,0,0,0,.91-.55,5.91,5.91,0,0,0,1.65-4.62l.07-36.67c0-5.36-3.83-11.88-8.49-14.54l-38.67-22.1c-2-1.17-3.44-1.42-4.73-.85l-.28.09a8.37,8.37,0,0,0-.78.46l-8.77,5.21,6.58,4a1,1,0,0,1,.48.84l-.09,31.29c0,5.37,4-1.81,8.66.85l22.63,26.73a4.23,4.23,0,0,1,1.34,1.3l.14.22L346,423a70.43,70.43,0,0,0,7.31-4.62,15.42,15.42,0,0,1,2.23-1.44.19.19,0,0,1,.1,0A1,1,0,0,1,356.81,417.4Z"/><path class="cls-4" d="M312.34,340.88,351.13,363c4.81,2.75,8.73,9.47,8.75,15l-.07,36.8c0,5.53-3.85,7.8-8.66,5L347.9,418c-.94-.54-1.7-.09-1.7,1l0,3.57c0,1.65-1.66,1.61-2.78-.07l-7.07-10.64a3.35,3.35,0,0,0-1.08-1.05l-22.92-13.1c-4.81-2.75-8.73-9.47-8.76-15l.07-36.8C303.66,340.4,307.53,338.13,312.34,340.88Z"/><path class="cls-2" d="M342.81,423l-7.07-10.64a2.64,2.64,0,0,0-.83-.81L312,398.4c-5-2.86-9.11-9.89-9.14-15.66l.07-36.8c0-3,1-5.2,2.9-6.3s4.33-.89,6.9.58l38.78,22.16c5,2.86,9.12,9.89,9.14,15.66l-.07,36.8c0,3-1,5.2-2.89,6.3s-4.34.89-6.91-.58l-3.25-1.86c-.26-.15-.41-.14-.44-.11s-.12.13-.11.44v3.56a1.82,1.82,0,0,1-1.2,1.91l-.11,0A2.92,2.92,0,0,1,342.81,423Zm5.47-5.57,3.25,1.86c2.08,1.18,4,1.39,5.38.58s2.15-2.58,2.14-5l.07-36.8c0-5.29-3.78-11.72-8.37-14.35L312,341.54c-2.08-1.19-4-1.39-5.39-.58s-2.15,2.58-2.14,5l-.06,36.8c0,5.29,3.77,11.72,8.36,14.35l22.93,13.09a4.11,4.11,0,0,1,1.33,1.3l7.08,10.64c.51.77,1.06,1,1.26.94s.12-.17.12-.45l0-3.57a2,2,0,0,1,.87-1.76,1.49,1.49,0,0,1,.44-.17A2.11,2.11,0,0,1,348.28,417.38Z"/><rect class="cls-2" x="359.07" y="374.29" width="11.86" height="1.52" transform="translate(-139.4 235.51) rotate(-30.31)"/><rect class="cls-2" x="350.02" y="358.82" width="11.86" height="1.52" transform="translate(-132.83 228.83) rotate(-30.31)"/><rect class="cls-2" x="311.8" y="337.28" width="11.86" height="1.52" transform="translate(-127.18 206.58) rotate(-30.31)"/><path class="cls-2" d="M359.67,419l6.6-3.66a7.39,7.39,0,0,0,3.79-6.54l-.4-28.64-10.23,6Z"/><path class="cls-2" d="M303.23,395.76l1-1.13c-4.79-4.38-4.27-13.07-4.26-13.16l-1.53-.1C298.44,381.75,297.88,390.87,303.23,395.76Z"/><polygon class="cls-6" points="361.51 413.8 369.25 409.21 368.49 407.9 360.74 412.48 361.51 413.8"/><polygon class="cls-6" points="361.51 390.57 369.25 385.99 368.49 384.68 360.74 389.26 361.51 390.57"/><path class="cls-3" d="M318.36,391a1.46,1.46,0,0,1-.69-.2l-.17-.1a3.26,3.26,0,0,1-1.4-2.63v-9a1.47,1.47,0,0,1,.62-1.33,1.18,1.18,0,0,1,1.2.06l.18.1a3.29,3.29,0,0,1,1.4,2.64v9a1.45,1.45,0,0,1-.63,1.32A1,1,0,0,1,318.36,391Zm-1.12-12.59a.14.14,0,0,0-.09,0c-.09,0-.2.23-.2.59v9a2.42,2.42,0,0,0,1,1.89l.18.1a.46.46,0,0,0,.35.07.7.7,0,0,0,.2-.59v-9a2.42,2.42,0,0,0-1-1.9l-.17-.1A.57.57,0,0,0,317.24,378.38Z"/><path class="cls-3" d="M323.32,393.84a1.39,1.39,0,0,1-.68-.2l-.18-.1a3.28,3.28,0,0,1-1.39-2.64v-16a1.46,1.46,0,0,1,.62-1.32,1.18,1.18,0,0,1,1.2.06l.18.1a3.28,3.28,0,0,1,1.39,2.63v16a1.45,1.45,0,0,1-.62,1.33A1,1,0,0,1,323.32,393.84Zm-1.11-19.56-.09,0c-.1.06-.2.24-.2.59v16a2.41,2.41,0,0,0,1,1.9l.18.1a.41.41,0,0,0,.35.06c.09,0,.19-.23.19-.59v-16a2.39,2.39,0,0,0-1-1.89l-.18-.1A.57.57,0,0,0,322.21,374.28Z"/><path class="cls-3" d="M328.29,396.71a1.31,1.31,0,0,1-.68-.21l-.18-.1a3.26,3.26,0,0,1-1.4-2.63V371.12a1.46,1.46,0,0,1,.63-1.33,1.18,1.18,0,0,1,1.2.06l.17.11a3.23,3.23,0,0,1,1.4,2.63v22.65a1.47,1.47,0,0,1-.62,1.33A1,1,0,0,1,328.29,396.71Zm-1.11-26.2a.16.16,0,0,0-.1,0c-.09.05-.2.24-.2.59v22.65a2.46,2.46,0,0,0,1,1.9l.17.1c.07,0,.25.12.35.06s.2-.24.2-.59V372.59a2.42,2.42,0,0,0-1-1.9l-.18-.1A.57.57,0,0,0,327.18,370.51Z"/><path class="cls-3" d="M338.23,402.44a1.43,1.43,0,0,1-.69-.2l-.17-.1a3.24,3.24,0,0,1-1.4-2.63V370.65a1.47,1.47,0,0,1,.62-1.33,1.18,1.18,0,0,1,1.2.06l.18.11a3.26,3.26,0,0,1,1.4,2.63V401a1.46,1.46,0,0,1-.62,1.32A1.1,1.1,0,0,1,338.23,402.44Zm-.26-.93a.46.46,0,0,0,.35.06.7.7,0,0,0,.2-.59V372.12a2.42,2.42,0,0,0-1-1.9l-.17-.1c-.07,0-.24-.12-.35-.06s-.2.24-.2.59v28.86a2.42,2.42,0,0,0,1,1.89Z"/><path class="cls-3" d="M343.19,405.31a1.39,1.39,0,0,1-.68-.2l-.18-.1a3.28,3.28,0,0,1-1.39-2.63V381.86a1.44,1.44,0,0,1,.62-1.32,1.18,1.18,0,0,1,1.2.06l.18.1a3.26,3.26,0,0,1,1.39,2.63v20.52a1.46,1.46,0,0,1-.62,1.32A1,1,0,0,1,343.19,405.31Zm-1.11-24.06-.1,0c-.09.05-.19.24-.19.59v20.52a2.39,2.39,0,0,0,1,1.89l.18.1c.06,0,.24.13.34.06s.2-.23.2-.58V383.33a2.39,2.39,0,0,0-1-1.89l-.18-.1A.57.57,0,0,0,342.08,381.25Z"/><path class="cls-3" d="M348.16,408.18a1.39,1.39,0,0,1-.68-.2l-.18-.11a3.26,3.26,0,0,1-1.4-2.63v-13.9a1.46,1.46,0,0,1,.63-1.33,1.18,1.18,0,0,1,1.2.06l.17.1a3.26,3.26,0,0,1,1.4,2.64v13.9a1.47,1.47,0,0,1-.62,1.33A1,1,0,0,1,348.16,408.18ZM347,390.72l-.09,0c-.09.05-.2.24-.2.59v13.9a2.4,2.4,0,0,0,1,1.9l.17.1c.07,0,.25.13.35.06s.2-.24.2-.59v-13.9a2.41,2.41,0,0,0-1-1.9l-.18-.1A.57.57,0,0,0,347,390.72Z"/><path class="cls-3" d="M333.26,399.57a1.29,1.29,0,0,1-.68-.2l-.18-.1a3.27,3.27,0,0,1-1.4-2.63V364.41a1.47,1.47,0,0,1,.62-1.33,1.18,1.18,0,0,1,1.2.06l.18.1a3.26,3.26,0,0,1,1.4,2.63v32.24a1.45,1.45,0,0,1-.62,1.32A1,1,0,0,1,333.26,399.57Zm-.26-.93c.07,0,.24.12.35.06s.2-.24.2-.59V365.87a2.42,2.42,0,0,0-1-1.89l-.18-.1c-.07,0-.24-.12-.35-.06s-.2.23-.2.59v32.23a2.42,2.42,0,0,0,1,1.89Z"/><path class="cls-2" d="M316.61,388.5l-.17-.11a2.81,2.81,0,0,1-1.19-2.26v-9c0-.87.53-1.27,1.19-.89l.17.1a2.83,2.83,0,0,1,1.19,2.26v9C317.8,388.47,317.27,388.87,316.61,388.5Z"/><path class="cls-2" d="M321.58,391.36l-.18-.1a2.83,2.83,0,0,1-1.18-2.26V373c0-.87.53-1.27,1.18-.9l.18.11a2.81,2.81,0,0,1,1.19,2.26v16C322.77,391.34,322.24,391.74,321.58,391.36Z"/><path class="cls-2" d="M326.55,394.23l-.18-.1a2.85,2.85,0,0,1-1.18-2.26V369.21c0-.87.53-1.27,1.18-.89l.18.1a2.85,2.85,0,0,1,1.18,2.26v22.66C327.73,394.21,327.2,394.61,326.55,394.23Z"/><path class="cls-2" d="M336.48,400l-.17-.1a2.83,2.83,0,0,1-1.19-2.27V368.74c0-.87.53-1.27,1.19-.89l.17.1a2.83,2.83,0,0,1,1.19,2.26v28.86C337.67,400,337.14,400.35,336.48,400Z"/><path class="cls-2" d="M341.45,402.84l-.18-.11a2.83,2.83,0,0,1-1.18-2.26V380c0-.87.53-1.27,1.18-.9l.18.11a2.83,2.83,0,0,1,1.18,2.26v20.51C342.63,402.81,342.1,403.21,341.45,402.84Z"/><path class="cls-2" d="M346.42,405.7l-.18-.1a2.85,2.85,0,0,1-1.18-2.26V389.43c0-.87.53-1.27,1.18-.89l.18.1a2.85,2.85,0,0,1,1.18,2.26v13.91C347.6,405.68,347.07,406.08,346.42,405.7Z"/><path class="cls-2" d="M331.52,397.1l-.18-.1a2.85,2.85,0,0,1-1.19-2.26V362.5c0-.87.54-1.27,1.19-.89l.18.1A2.85,2.85,0,0,1,332.7,364v32.24C332.7,397.08,332.17,397.48,331.52,397.1Z"/></g><path class="cls-7" d="M141.12,354.37c-13.35,0-24.18,3.87-24.18,8.66s10.83,8.66,24.18,8.66,24.18-3.88,24.18-8.66S154.48,354.37,141.12,354.37Z"/><path class="cls-8" d="M175.78,337.35l-3.2,2.74,4.11,4.91,1.55-.26,4.19,3.72c.86-1.22,1.42-2.24-.76-5.51C179.82,340.19,179.44,340.25,175.78,337.35Z"/><path class="cls-9" d="M174.85,336.34a1.39,1.39,0,0,1,1.79-.07c.77.62,1.38,1.08,1.88,1.47a14.17,14.17,0,0,1,4.29,4.45,8.39,8.39,0,0,1,1.75,4.25,4.23,4.23,0,0,1-1,2.78l-.12.15a1.38,1.38,0,0,1-1.94.12l-3.7-3.29-.84.14a1.39,1.39,0,0,1-1.34-.46L171.52,341a1.38,1.38,0,0,1,.16-1.93l3.17-2.7Zm2.39,7.17.78-.13a1.37,1.37,0,0,1,1.18.38l2.53,2.25a8.6,8.6,0,0,0-1.2-2.3,12.19,12.19,0,0,0-3.68-3.78l-1-.8-1.31,1.12Z"/><path class="cls-10" d="M144,315.43a3.05,3.05,0,0,1-1.55-2.15c-.51-1.59.69-4.8,2.8-5.49a4.21,4.21,0,0,1,5,1.78l13.63,16.57,10.84,9.61a2.38,2.38,0,0,1,.55.8,2.41,2.41,0,0,1-3.9,2.68l-11-9.81C155.87,326.06,148.76,319.41,144,315.43Z"/><path class="cls-9" d="M144.85,314.32l.07.06c1.57,1.31,3.51,3,5.55,4.84,3.76,3.32,7.82,6.91,10.79,9.09l0,0c3.69,3.3,7.37,6.65,11.09,9.91a1,1,0,0,0,1.13.21,1,1,0,0,0,.56-.56,1.06,1.06,0,0,0,0-.8.52.52,0,0,0-.1-.18h0l-.13-.15-10.88-9.66-13.77-16.72,0-.05a2.81,2.81,0,0,0-3.43-1.22,2.87,2.87,0,0,0-1.47,1.5,3.37,3.37,0,0,0-.44,2.25c.31.95.47,1.06.76,1.26l.29.21Zm-3.67-.62a6.17,6.17,0,0,1,.61-4.35,5.56,5.56,0,0,1,3.07-2.87,5.58,5.58,0,0,1,6.56,2.3l13.51,16.4,10.78,9.58a3.54,3.54,0,0,1,.5.58h0a3.36,3.36,0,0,1,.37.67,3.79,3.79,0,0,1-2,5,3.67,3.67,0,0,1-2.18.24,3.71,3.71,0,0,1-2-1L159.6,330.5c-3-2.23-7.14-5.86-10.95-9.23-1.94-1.71-3.8-3.36-5.48-4.78l-.18-.13A4,4,0,0,1,141.18,313.7Z"/><path class="cls-8" d="M166.49,394.8a1.84,1.84,0,0,1-1.08-1.5,1.81,1.81,0,0,1,1.08-1.49,5.64,5.64,0,0,1,5.18,0l6.81,3.93a1.82,1.82,0,0,1,1.07,1.49,1.84,1.84,0,0,1-1.07,1.5,5.72,5.72,0,0,1-5.18,0Z"/><path class="cls-9" d="M167.17,393.61l6.81,3.93a3.32,3.32,0,0,0,.82.31,4.67,4.67,0,0,0,1.09.12,4.52,4.52,0,0,0,1.08-.12,3.24,3.24,0,0,0,.76-.28l.06,0a1.14,1.14,0,0,0,.36-.3h0v0a1.06,1.06,0,0,0-.35-.29L171.06,393,171,393a3.4,3.4,0,0,0-.81-.31,5,5,0,0,0-2.18,0,3.1,3.1,0,0,0-.81.31h0a1.14,1.14,0,0,0-.36.3h0a1.14,1.14,0,0,0,.36.3Zm-2.67,1.18a2.69,2.69,0,0,1-.46-1.49,2.73,2.73,0,0,1,.54-1.61h0a4,4,0,0,1,1.23-1.07h0a5.83,5.83,0,0,1,1.56-.61,7.5,7.5,0,0,1,3.44,0,6.11,6.11,0,0,1,1.56.61l.07,0,6.73,3.89a3.63,3.63,0,0,1,1.23,1.07l.08.12a2.69,2.69,0,0,1,.46,1.49,2.73,2.73,0,0,1-.54,1.61h0a3.82,3.82,0,0,1-1.22,1.08l-.09.05a6,6,0,0,1-1.47.55,7.15,7.15,0,0,1-3.44,0,5.74,5.74,0,0,1-1.56-.6L165.8,396a4,4,0,0,1-1.23-1.08A.75.75,0,0,1,164.5,394.79Z"/><path class="cls-8" d="M152.44,402.91a1.57,1.57,0,0,1,0-3,5.2,5.2,0,0,1,2.59-.62,5.25,5.25,0,0,1,2.59.62l6.81,3.93a1.58,1.58,0,0,1,0,3,5.37,5.37,0,0,1-2.6.62,5.29,5.29,0,0,1-2.58-.62Z"/><path class="cls-9" d="M153.12,401.72l6.81,3.93a3,3,0,0,0,.82.32,5.41,5.41,0,0,0,2.17,0,3.25,3.25,0,0,0,.76-.29l.06,0a1.14,1.14,0,0,0,.36-.3h0a1.14,1.14,0,0,0-.36-.3L157,401.15l-.07,0a3.34,3.34,0,0,0-.82-.32,5.41,5.41,0,0,0-2.17,0,3.34,3.34,0,0,0-.82.32h0a1,1,0,0,0-.36.3h0a1.14,1.14,0,0,0,.36.3Zm-2.68,1.18a2.74,2.74,0,0,1-.46-1.49,2.78,2.78,0,0,1,.54-1.61h0a4,4,0,0,1,1.23-1.07h0a5.9,5.9,0,0,1,1.55-.61,7.54,7.54,0,0,1,3.45,0,6.11,6.11,0,0,1,1.56.61l.07,0,6.73,3.89a4,4,0,0,1,1.23,1.07l.08.13a2.64,2.64,0,0,1-.08,3.09h0a3.84,3.84,0,0,1-1.23,1.07l-.09.05a5.8,5.8,0,0,1-1.46.55,7.31,7.31,0,0,1-1.73.21,7.15,7.15,0,0,1-1.71-.21,5.74,5.74,0,0,1-1.56-.6l-6.81-3.93a4.09,4.09,0,0,1-1.23-1.07Z"/><path class="cls-11" d="M149.48,347.18c6.83,3.94,14.12,9.07,20.84,13.39a3.94,3.94,0,0,1,2,3.68l.45,27.05v0a1.84,1.84,0,0,1-1.07,1.5,5.72,5.72,0,0,1-5.18,0,1.84,1.84,0,0,1-1.08-1.5l-.88-24.92-18.38-9.47L142,359.36l14.45,9.53a3.91,3.91,0,0,1,1.77,3.55l.51,27v0a1.83,1.83,0,0,1-1.07,1.5,5.36,5.36,0,0,1-2.59.62,5.31,5.31,0,0,1-2.59-.62,1.82,1.82,0,0,1-1.08-1.5l-.94-24.88c-6.43-3.32-14.71-7.5-20.9-11.07a5.11,5.11,0,0,1-1.87-7C128.72,354.65,145.22,344.72,149.48,347.18Z"/><path class="cls-9" d="M148.88,348.42l-.16-.1c-1.72-.84-6.36.93-10.74,3.13-4.58,2.31-8.7,5-9.14,5.75a3.73,3.73,0,0,0,1.37,5.1h0c5.19,3,11.87,6.42,17.68,9.4l3.16,1.62a1.39,1.39,0,0,1,.75,1.18l.93,24.77a.71.71,0,0,1,0,.14l0,0a1.14,1.14,0,0,0,.36.3,3,3,0,0,0,.82.31,5,5,0,0,0,2.17,0,2.85,2.85,0,0,0,.76-.28l.06,0a1.14,1.14,0,0,0,.36-.3h0c-.12-8.95-.34-17.92-.51-26.88v-.21a2.55,2.55,0,0,0-1.15-2.31h0l-14.44-9.52a1.38,1.38,0,0,1,.05-2.35l4.12-2.38a1.38,1.38,0,0,1,1.39-.07l18.38,9.47a1.39,1.39,0,0,1,.74,1.17l.88,24.81a.66.66,0,0,1,0,.14l0,0a1.14,1.14,0,0,0,.36.3,3.32,3.32,0,0,0,.82.31,5,5,0,0,0,2.18,0,3.61,3.61,0,0,0,.76-.28l0,0a1.15,1.15,0,0,0,.36-.3h0l-.46-27v-.21a2.52,2.52,0,0,0-.29-1.38,2.61,2.61,0,0,0-1-1l-.06,0c-2.22-1.42-4.51-2.94-6.82-4.48-4.63-3.08-9.37-6.22-13.88-8.83Zm22.13,11a5.33,5.33,0,0,1,2.65,4.93c.15,9,.45,18.06.45,27h0a2.73,2.73,0,0,1-.54,1.61h0a3.94,3.94,0,0,1-1.22,1.08l-.09,0a6,6,0,0,1-1.47.56,7.5,7.5,0,0,1-3.44,0,5.74,5.74,0,0,1-1.56-.6,4,4,0,0,1-1.23-1.08.75.75,0,0,1-.07-.12,2.69,2.69,0,0,1-.46-1.49v-.06l-.86-24-17-8.77-1.61.94,12.58,8.3h0a5.28,5.28,0,0,1,2.41,4.77c.17,8.95.45,18,.5,26.93h0a2.73,2.73,0,0,1-.54,1.61h0a4,4,0,0,1-1.22,1.07l-.1.05a5.8,5.8,0,0,1-1.46.55,7.19,7.19,0,0,1-3.45,0,5.8,5.8,0,0,1-1.55-.6,4.09,4.09,0,0,1-1.23-1.07l-.08-.13a2.74,2.74,0,0,1-.46-1.49v-.06l-.91-24-2.43-1.25c-5.85-3-12.57-6.45-17.81-9.48h0a6.47,6.47,0,0,1-2.37-8.85c.63-1.1,5.3-4.32,10.3-6.83s10.79-4.52,13.41-3h0c4.62,2.66,9.41,5.85,14.11,9C166.56,356.47,168.81,358,171,359.38Z"/><polygon class="cls-10" points="170.43 358.45 157.66 351.08 140.54 360.96 153.31 368.34 170.43 358.45"/><path class="cls-9" d="M171.1,357.26a1.34,1.34,0,0,1,.52.51,1.37,1.37,0,0,1-.51,1.87L154,369.51a1.36,1.36,0,0,1-1.38,0l-12.76-7.37a1.34,1.34,0,0,1-.52-.51,1.38,1.38,0,0,1,.5-1.88L157,349.9a1.41,1.41,0,0,1,1.39,0l12.76,7.37ZM143.28,361l10,5.79,14.37-8.3-10-5.79Z"/><path class="cls-12" d="M135.76,319.77a4.2,4.2,0,0,0-.14-1.4l-7,1.85c1.61,6.08,1.23,15.21,2.38,21.65a2.8,2.8,0,0,0,.4,1.19l7.16,13.13a2.37,2.37,0,0,0,.59.76,2.41,2.41,0,0,0,3.73-2.91l-6-13.24Z"/><path class="cls-12" d="M137.14,319.78l1.13,20.69,5.87,13a3.75,3.75,0,0,1-.54,4.13,3.76,3.76,0,0,1-2.58,1.3h0a3.77,3.77,0,0,1-2.75-.91h0a4,4,0,0,1-.52-.56,3.79,3.79,0,0,1-.38-.6l-7.14-13.09a4.11,4.11,0,0,1-.38-.83h0a4.05,4.05,0,0,1-.19-.82,89.22,89.22,0,0,1-.94-9.65,67,67,0,0,0-1.41-11.88l-.35-1.32,9.65-2.56L137,318a6.65,6.65,0,0,1,.17.91,6.1,6.1,0,0,1,0,.85Zm-5.68,12.5a86.07,86.07,0,0,0,.9,9.35v.09a3,3,0,0,0,.07.32h0a1.09,1.09,0,0,0,.14.31l7.18,13.18,0,.05a.87.87,0,0,0,.11.18l.15.15h0a1,1,0,0,0,1.46-.11,1,1,0,0,0,.24-.55,1,1,0,0,0-.1-.59l0-.06-6.09-13.46-1.15-21-4.13,1.1A81.28,81.28,0,0,1,131.46,332.28Z"/><path class="cls-8" d="M136.66,307.93a5.57,5.57,0,0,0,5,0c1.39-.8,1.39-2.1,0-2.9a5.57,5.57,0,0,0-5,0C135.27,305.83,135.27,307.13,136.66,307.93Z"/><path class="cls-9" d="M136,309.12h0a3.64,3.64,0,0,1-1.36-1.3h0a2.6,2.6,0,0,1-.37-1.33h0a2.74,2.74,0,0,1,.31-1.24l.06-.1a3.64,3.64,0,0,1,1.36-1.3,6.9,6.9,0,0,1,6.41,0,3.71,3.71,0,0,1,1.36,1.3h0a2.67,2.67,0,0,1,.37,1.33,2.74,2.74,0,0,1-.37,1.34h0a3.6,3.6,0,0,1-1.35,1.3,6.9,6.9,0,0,1-6.41,0Zm5-2.38a.27.27,0,1,0,0-.52,4.2,4.2,0,0,0-3.66,0,.27.27,0,1,0,0,.52h0a3.68,3.68,0,0,0,1.82.42A3.72,3.72,0,0,0,141,306.74Z"/><path class="cls-10" d="M150.14,350.49h0a2,2,0,0,0,1.25-2.08V312c-.37-3.32-5.26-6.14-7.41-4.9l-13.26,7.66c-1.63.91-3.71,2.85-3.75,5.15v37.55a1.31,1.31,0,0,0,0,.68v.16l0,0c.16.48,0,.62,1.2,1.3a8,8,0,0,0,6.16,0l15.78-9.11Z"/><path class="cls-9" d="M150.72,351.74,135,360.79a7.48,7.48,0,0,1-3.64.81,8.62,8.62,0,0,1-3.88-.81c-1.35-.78-1.56-1.17-1.73-1.75a1.37,1.37,0,0,1-.2-.72v0a2.56,2.56,0,0,1,0-.47,2.74,2.74,0,0,1,0-.5V319.9a6.29,6.29,0,0,1,1.29-3.54,10.31,10.31,0,0,1,3.17-2.78l13.24-7.65a3.75,3.75,0,0,1,1.44-.46,7,7,0,0,1,4,1,8.9,8.9,0,0,1,3.22,3.11,5.77,5.77,0,0,1,.75,2.14,1.15,1.15,0,0,1,0,.26v36.29a2.92,2.92,0,0,1-.41,1.93,4.06,4.06,0,0,1-1.4,1.36l-.24.14Zm-.68-3.06a1.24,1.24,0,0,1,0-.27h0V312.08a2.91,2.91,0,0,0-.4-1.08,6.11,6.11,0,0,0-2.2-2.11,4.17,4.17,0,0,0-2.38-.68.86.86,0,0,0-.36.1L131.4,316a7.35,7.35,0,0,0-2.3,2,3.56,3.56,0,0,0-.76,2v37.53a1.55,1.55,0,0,1,0,.31h0v.05l0,.12,0,.17s0,0,.49.27a5.92,5.92,0,0,0,2.52.44,4.91,4.91,0,0,0,2.28-.44l15.66-9.05.21-.12a1.41,1.41,0,0,0,.45-.41A.19.19,0,0,0,150,348.68Z"/><path class="cls-8" d="M135.61,306.48h7.12l.52,6.76a1.49,1.49,0,0,1,0,.21,2.05,2.05,0,0,1-1.2,1.68,6.42,6.42,0,0,1-5.79,0,2.05,2.05,0,0,1-1.2-1.68,1.27,1.27,0,0,1,0-.2Z"/><path class="cls-9" d="M136.89,307.86l-.43,5.49v.1h0a.31.31,0,0,0,.05.11h0a1.57,1.57,0,0,0,.46.38h0a4.65,4.65,0,0,0,2.21.5,4.6,4.6,0,0,0,2.21-.5,1.71,1.71,0,0,0,.46-.38h0a.24.24,0,0,0,.06-.11h0v-.1l-.43-5.49Zm5.84-2.76H144l.62,8c0,.05,0,.1,0,.16s0,.15,0,.2h0a2.9,2.9,0,0,1-.57,1.71h0a4.21,4.21,0,0,1-1.32,1.16,7.74,7.74,0,0,1-7.17,0h0a4.21,4.21,0,0,1-1.32-1.16h0a2.9,2.9,0,0,1-.57-1.71h0c0-.12,0-.24,0-.37l.62-8Zm-.84,8.35"/><path class="cls-8" d="M139.84,290.73H138.5a6.07,6.07,0,0,0-6.14,6.14l.32,7.49a6.25,6.25,0,0,0,6.14,6.14h.67a6.27,6.27,0,0,0,6.14-6.14l.35-7.49A6.05,6.05,0,0,0,139.84,290.73Z"/><path class="cls-9" d="M139.84,289.35h.35a7.71,7.71,0,0,1,5,2.2,7.09,7.09,0,0,1,2.15,5.05s0,.15,0,.32l-.35,7.49a8,8,0,0,1-2.3,5.29,7.31,7.31,0,0,1-5.21,2.17h-.67a7.32,7.32,0,0,1-5.22-2.17,8,8,0,0,1-2.29-5.3l-.32-7.49v-.29a7.15,7.15,0,0,1,2.16-5.07,7.66,7.66,0,0,1,5.05-2.2h1.65Zm-1.54,2.76a4.9,4.9,0,0,0-3.23,1.41,4.36,4.36,0,0,0-1.33,3.11v.18l.31,7.5a5.24,5.24,0,0,0,1.5,3.45,4.58,4.58,0,0,0,3.27,1.36h.67a4.58,4.58,0,0,0,3.26-1.36,5.28,5.28,0,0,0,1.51-3.46l.35-7.49v-.2a4.35,4.35,0,0,0-1.33-3.09,4.92,4.92,0,0,0-3.21-1.41H138.3Z"/><path class="cls-13" d="M139.84,290.73H138.5a6.07,6.07,0,0,0-6.14,6.14l.32,7.49a7,7,0,0,0,3.36-5.92c5.13.61,6.83.32,9.75-3.31A6.21,6.21,0,0,0,139.84,290.73Z"/><path class="cls-9" d="M139.84,289.35a7.65,7.65,0,0,1,4.55,1.51,7.38,7.38,0,0,1,2.71,3.86,1.39,1.39,0,0,1-.24,1.28c-1.64,2-3,3.15-4.71,3.69a12.41,12.41,0,0,1-4.89.27,7.7,7.7,0,0,1-1,2.68,9.48,9.48,0,0,1-2.77,2.84,1.34,1.34,0,0,1-.74.25,1.37,1.37,0,0,1-1.42-1.32l-.32-7.49v-.29a7.15,7.15,0,0,1,2.16-5.07,7.66,7.66,0,0,1,5.05-2.2h1.65Zm-1.54,2.76a4.9,4.9,0,0,0-3.23,1.41,4.36,4.36,0,0,0-1.33,3.11v.18l.18,4.37a5.64,5.64,0,0,0,.75-2.77,1.37,1.37,0,0,1,1.41-1.34h.11c2.39.28,3.95.36,5.14,0a6.52,6.52,0,0,0,2.9-2.2,4.8,4.8,0,0,0-1.47-1.79,5,5,0,0,0-2.92-1H138.3Z"/><path class="cls-8" d="M139.2,357.93l3.66-2.78,4.28,5.53-.63,1.59,3,5.34-2.89.92C141.13,362.67,142.08,363.81,139.2,357.93Z"/><path class="cls-9" d="M140.92,358.34l.47,1a22.86,22.86,0,0,0,1.73,3.23,47.13,47.13,0,0,0,3.81,4.32l.09.09.46-.15-2.17-3.87h0a1.39,1.39,0,0,1-.08-1.18l.34-.86-3-3.84-1.69,1.28Zm3-4h0l4.28,5.53a1.39,1.39,0,0,1,.16,1.41l-.36.91,2.67,4.77a1.37,1.37,0,0,1-.52,1.88,1.4,1.4,0,0,1-.34.13l-2.81.9a1.36,1.36,0,0,1-1.48-.44l-.62-.66a49.08,49.08,0,0,1-4.06-4.62,25,25,0,0,1-2-3.62l-.95-2a1.38,1.38,0,0,1,.43-1.73l3.63-2.75A1.38,1.38,0,0,1,144,354.31Z"/><path class="cls-10" d="M135.6,326.25,127,323.2c1.61,6.08,2.89,12.23,4,18.67a2.8,2.8,0,0,0,.4,1.19l7.16,13.13a2.37,2.37,0,0,0,.59.76,2.41,2.41,0,0,0,3.73-2.91l-6-13.24Z"/><path class="cls-9" d="M128.29,322.85a1.37,1.37,0,1,0-2.65.7c.79,3,1.51,6,2.17,9.13s1.26,6.2,1.84,9.42a4.05,4.05,0,0,0,.19.82h0a4.11,4.11,0,0,0,.38.83l7.14,13.09a3.79,3.79,0,0,0,.38.6,4,4,0,0,0,.52.56h0a3.77,3.77,0,0,0,2.75.91h0a3.76,3.76,0,0,0,2.58-1.3,3.75,3.75,0,0,0,.54-4.13l-5.89-13L137,326.13a1.37,1.37,0,1,0-2.73.23l1.33,14.81,6.07,13.43,0,.06a1,1,0,0,1,.1.59,1,1,0,0,1-.24.55,1,1,0,0,1-1.46.11h0l-.15-.15a.87.87,0,0,1-.11-.18l0-.05-7.18-13.18a1.09,1.09,0,0,1-.14-.31h0a3,3,0,0,1-.07-.32v-.09c-.57-3.21-1.18-6.37-1.86-9.52S129.11,325.92,128.29,322.85Z"/><polygon class="cls-14" points="153.31 368.34 170.43 358.45 180.52 345.42 163.4 355.3 153.31 368.34"/><path class="cls-9" d="M154,369.53a1.38,1.38,0,0,1-1.78-2l10.09-13a1.39,1.39,0,0,1,.41-.35l17.05-9.85a1.38,1.38,0,0,1,1.84,2l-10.06,13a1.31,1.31,0,0,1-.44.4L154,369.53Zm21.16-19.44-10.84,6.26-5.65,7.3,10.84-6.26Z"/><path class="cls-11" d="M139.84,290.73H138.5a6.07,6.07,0,0,0-6.14,6.14c.18,4.09-.86,11.71,3.07,14.19a6.72,6.72,0,0,0,5.51.51c3.61-1.31,4.52-2.32,4.69-6.83-4.27-.12-7.12,2.31-8,2.76a.82.82,0,0,1-.85-.1.9.9,0,0,1-.42-.75l-.33-8.21c5,.59,11.18-1.66,11.81-7C145.48,292.51,142.21,290.73,139.84,290.73Z"/><path class="cls-9" d="M139.84,289.35a14.51,14.51,0,0,1,3.25.54c1.51.37,3.1.76,4.16.31a1.42,1.42,0,0,1,.77-.13,1.37,1.37,0,0,1,1.2,1.53,8.55,8.55,0,0,1-4.39,6.46,14.46,14.46,0,0,1-7.36,1.85l.24,5.93a13.66,13.66,0,0,1,7.92-2.47h.05a1.37,1.37,0,0,1,1.32,1.42c-.09,2.54-.43,4.13-1.31,5.36s-2.22,2-4.29,2.71a8,8,0,0,1-3.43.41,7.47,7.47,0,0,1-3.27-1c-3.83-2.41-3.76-8.21-3.7-12.68,0-1,0-1.85,0-2.62v-.29a7.15,7.15,0,0,1,2.16-5.07,7.66,7.66,0,0,1,5.05-2.2h1.65Zm-1.54,2.76a4.9,4.9,0,0,0-3.23,1.41,4.36,4.36,0,0,0-1.33,3.11v.18c0,.8,0,1.75,0,2.76-.05,3.81-.12,8.74,2.42,10.33a4.63,4.63,0,0,0,2.05.64,5.36,5.36,0,0,0,2.25-.26,6.12,6.12,0,0,0,3-1.72,5,5,0,0,0,.7-2.37,12.08,12.08,0,0,0-5.18,2.1c-.29.18-.51.33-.71.43a2,2,0,0,1-1.2.22,2.42,2.42,0,0,1-1-.4,2.13,2.13,0,0,1-.73-.79,2.23,2.23,0,0,1-.29-1l-.33-8.21a1.37,1.37,0,0,1,1.31-1.43h.21a12,12,0,0,0,7.24-1.39,6.44,6.44,0,0,0,2.49-2.53,16.6,16.6,0,0,1-3.47-.6,12.22,12.22,0,0,0-2.61-.45H138.3Z"/><path class="cls-9" d="M143.18,353.53a1.38,1.38,0,0,0,2.75,0V326.89a40.92,40.92,0,0,1,.22-4.41,40.5,40.5,0,0,1,.71-4.35l1.93-9.09a1.37,1.37,0,1,0-2.69-.57l-1.94,9.08a44.75,44.75,0,0,0-.74,4.65,42.18,42.18,0,0,0-.24,4.69Z"/><path class="cls-9" d="M139.53,349.63a1.38,1.38,0,0,0,2.76,0V329.27a13.65,13.65,0,0,0-1.2-5.69,13.47,13.47,0,0,0-3.51-4.64l-6-5.2a1.37,1.37,0,1,0-1.81,2.07l6,5.19a10.69,10.69,0,0,1,2.81,3.71,10.89,10.89,0,0,1,.95,4.56Z"/><path class="cls-5" d="M245.15,27.28,199.91,1.16A3.09,3.09,0,0,0,197.05.8h0l-.3.17L188,6.1a.27.27,0,0,0,0,.47l4.37,1.91L195.65,13V32.44a9.44,9.44,0,0,0,4.26,7.41l8.36,4.82a3.71,3.71,0,0,1,1.66,2.89v5.77c0,1.31,1.36,2.75,2.16,2.3l6.25-3.54a3.35,3.35,0,0,1,3.35.34L226.14,55l12.27,16.9,10-5.78.07-.06a3,3,0,0,0,1-2.57V34.69A9.45,9.45,0,0,0,245.15,27.28Z"/><path class="cls-15" d="M245.15,30.31,199.91,4.2a3.06,3.06,0,0,0-2.86-.37h0a1.83,1.83,0,0,0-.3.18L188,9.13a.27.27,0,0,0,0,.47l4.37,1.91L195.65,16V35.47a9.42,9.42,0,0,0,4.26,7.41l8.36,4.83a3.68,3.68,0,0,1,1.66,2.88l8.41,4.53a3.35,3.35,0,0,1,3.35.34L226.14,58l23.26-20.3A9.45,9.45,0,0,0,245.15,30.31Z"/><path class="cls-2" d="M238.25,72.67,225.73,55.44l-4.33-2.5a2.82,2.82,0,0,0-2.77-.34l-6.25,3.54a1.43,1.43,0,0,1-1.47-.09,3.38,3.38,0,0,1-1.57-2.72V47.56A3.16,3.16,0,0,0,208,45.18l-8.36-4.82a10,10,0,0,1-4.55-7.92V13.2L192,9l-4.22-1.85a.83.83,0,0,1-.51-.73.86.86,0,0,1,.42-.79L196.45.47a1.79,1.79,0,0,1,.35-.21,3.69,3.69,0,0,1,3.4.39l45.24,26.12A10,10,0,0,1,250,34.69V63.48a3.58,3.58,0,0,1-1.19,3l-.14.1ZM219.57,51.18a4.89,4.89,0,0,1,2.42.74l11-7.85,15.78-9.38a8.81,8.81,0,0,0-4-6.9L199.61,1.67a2.53,2.53,0,0,0-2.3-.34l-.22.13-8.27,4.83L192.74,8l3.5,4.81V32.44a8.84,8.84,0,0,0,4,6.9l8.36,4.82a4.29,4.29,0,0,1,2,3.4v5.77a2.21,2.21,0,0,0,1,1.7c.15.09.26.1.3.08l6.25-3.54A3,3,0,0,1,219.57,51.18Z"/><path class="cls-3" d="M190.58,6.62l45.24,26.12a9.43,9.43,0,0,1,4.26,7.4V68.93c0,2.73-1.91,3.85-4.26,2.49L212.37,57.88a3.37,3.37,0,0,0-3.36-.34l-6.24,3.54c-.81.45-2.16-1-2.16-2.29V53a3.7,3.7,0,0,0-1.67-2.89l-8.36-4.83a9.44,9.44,0,0,1-4.26-7.4V9.1C186.32,6.37,188.23,5.26,190.58,6.62Z"/><path class="cls-2" d="M237.72,72.59a4.47,4.47,0,0,1-2.2-.66L212.07,58.39a2.85,2.85,0,0,0-2.77-.34l-6.24,3.54a1.45,1.45,0,0,1-1.48-.09A3.37,3.37,0,0,1,200,58.79V53a3.1,3.1,0,0,0-1.37-2.38l-8.36-4.83a9.94,9.94,0,0,1-4.56-7.91V9.1a3.58,3.58,0,0,1,1.55-3.29,3.55,3.55,0,0,1,3.6.3l45.23,26.12a9.94,9.94,0,0,1,4.56,7.91V68.93a3.58,3.58,0,0,1-1.55,3.3A2.81,2.81,0,0,1,237.72,72.59Zm-27.48-16a4.84,4.84,0,0,1,2.42.73l23.45,13.54a2,2,0,0,0,3.38-2V40.14a8.79,8.79,0,0,0-4-6.89L190.29,7.13a2.45,2.45,0,0,0-2.42-.3,2.48,2.48,0,0,0-1,2.27V37.9a8.79,8.79,0,0,0,4,6.89l8.36,4.83a4.27,4.27,0,0,1,2,3.4v5.77a2.18,2.18,0,0,0,1,1.69c.15.09.26.11.3.09L208.72,57A3,3,0,0,1,210.24,56.64Z"/><path class="cls-5" d="M227.78,38.05a3.93,3.93,0,0,0-1.64-3.13L201.5,20.69a1,1,0,0,0-1.12-.05h0l0,0-3.3,2s0,0,0,.05l2.83,3.77V38.62a3.93,3.93,0,0,0,1.64,3.13l17.4,10,4.57,6.08a.39.39,0,0,0,.51.1l3.38-2a1.6,1.6,0,0,0,.42-1.21Z"/><path class="cls-15" d="M227.76,39.63a3.92,3.92,0,0,0-1.64-3.13L201.48,22.28a1,1,0,0,0-1.11-.05h0l0,0-3.3,2s0,0,0,.05l2.84,3.77V40.2a4,4,0,0,0,1.63,3.14l17.41,10Z"/><path class="cls-2" d="M223.78,58.63a1,1,0,0,1-.78-.39l-4.5-6-17.29-10a4.48,4.48,0,0,1-1.94-3.64v-12l-2.87-3.82.09-.53.24-.16,3.3-2a1.64,1.64,0,0,1,1.77,0l24.63,14.23a4.48,4.48,0,0,1,1.94,3.64V54.74a2.1,2.1,0,0,1-.62,1.64l-3.46,2.11A1,1,0,0,1,223.78,58.63ZM197.87,22.84l2.58,3.43V38.62a3.33,3.33,0,0,0,1.35,2.62l17.57,10.21,1.87-10,5.95-3.4a3.33,3.33,0,0,0-1.35-2.62L201.21,21.2c-.15-.08-.36-.16-.5-.07Z"/><path class="cls-5" d="M222.61,58.08,198,43.86a3.94,3.94,0,0,1-1.64-3.13V24c0-1.21.74-1.76,1.64-1.24L222.61,37a3.94,3.94,0,0,1,1.64,3.14V56.84C224.25,58.05,223.52,58.61,222.61,58.08Z"/><path class="cls-2" d="M223.26,58.87a1.85,1.85,0,0,1-.94-.28L197.68,44.37a4.51,4.51,0,0,1-1.94-3.64V24a2,2,0,0,1,.87-1.84,1.61,1.61,0,0,1,1.66.09l24.64,14.22a4.54,4.54,0,0,1,1.93,3.65V56.84a2,2,0,0,1-.86,1.84A1.39,1.39,0,0,1,223.26,58.87ZM197.32,23.19a.24.24,0,0,0-.12,0c-.13.08-.28.33-.28.82V40.73a3.33,3.33,0,0,0,1.35,2.62l24.64,14.22a.56.56,0,0,0,.48.09c.13-.07.27-.33.27-.82V40.16a3.36,3.36,0,0,0-1.34-2.63L197.68,23.31A.8.8,0,0,0,197.32,23.19Z"/><path class="cls-5" d="M209.24,39.08a2.42,2.42,0,0,0,2.09,1.16l12.16-2.34a2.86,2.86,0,0,0-1-.95L198.1,22.87a1.39,1.39,0,0,0-1.46.07Z"/><path class="cls-2" d="M211.12,40.85a3.21,3.21,0,0,1-2.35-1.41L195.93,23l.21-.34a1.85,1.85,0,0,1,2.25-.28l24.39,14.08A3.45,3.45,0,0,1,224,37.63l.36.7-12.94,2.49A1.73,1.73,0,0,1,211.12,40.85ZM197.7,23.33l12,15.39c.57.74,1.19,1,1.51.94l11.09-2.13-.11-.07L197.8,23.38Z"/><path class="cls-16" d="M293.66,413c13.91,0,25.19,4,25.19,9s-11.28,9-25.19,9-25.2-4-25.2-9S279.74,413,293.66,413Z"/><polygon class="cls-8" points="299.41 311.75 309.39 317.52 304.91 335 294.93 329.23 299.41 311.75"/><path class="cls-9" d="M300.13,310.52l10,5.76a1.43,1.43,0,0,1,.64,1.69l-4.45,17.38a1.43,1.43,0,0,1-1.74,1,1.68,1.68,0,0,1-.39-.16l-9.95-5.75a1.43,1.43,0,0,1-.67-1.62L298,311.4a1.43,1.43,0,0,1,1.74-1,1.2,1.2,0,0,1,.37.15Zm7.61,7.7-7.41-4.28-3.75,14.6,7.42,4.27Z"/><path class="cls-8" d="M306.61,338.4l-4-.73,1.06-6.12,2.26-.45,1.4-5.46c1.31.6,1.75,1.39,1.51,5.2C308.62,334.05,308.27,334.19,306.61,338.4Z"/><path class="cls-9" d="M306.26,339.79l-3.92-.72a1.43,1.43,0,0,1-1.16-1.65h0l1.06-6.11a1.43,1.43,0,0,1,1.14-1.17l1.37-.27,1.18-4.59a1.43,1.43,0,0,1,1.74-1l.24.09h0a3.46,3.46,0,0,1,2.1,2.27,12.31,12.31,0,0,1,.24,4.33,14,14,0,0,1-1.44,5.84c-.22.53-.48,1.16-.86,2.15a1.45,1.45,0,0,1-1.69.87Zm-2-3.28,1.47.27.44-1.1a11.28,11.28,0,0,0,1.19-4.45l0,.11a1.45,1.45,0,0,1-1.14,1.17l-1.29.25Z"/><path class="cls-17" d="M280.44,417.19c.37-.25-.3-.9-.89-1.25s-1.46-.85-2.16-.51l-7.84,3.79a1.32,1.32,0,0,0,0,2.5,4.83,4.83,0,0,0,4.32,0Z"/><path class="cls-9" d="M281.76,417.82a1.67,1.67,0,0,1-.51.55l-6.52,4.49-.14.1a5.42,5.42,0,0,1-1.38.53,6.34,6.34,0,0,1-3,0,5.42,5.42,0,0,1-1.38-.53h0a3.53,3.53,0,0,1-1.11-1,2.53,2.53,0,0,1,0-3,3.52,3.52,0,0,1,1-.92,1.18,1.18,0,0,1,.19-.11l7.83-3.79a3.55,3.55,0,0,1,3.47.54l0,0h0a4.4,4.4,0,0,1,1.29,1.09l.06.09a2.14,2.14,0,0,1,.33.7,1.63,1.63,0,0,1-.18,1.23Zm-3.42-.92-.33-.18-7.76,3.75h0a2.5,2.5,0,0,0,.6.23,3.61,3.61,0,0,0,.84.09,3.67,3.67,0,0,0,.84-.09,2,2,0,0,0,.57-.22Z"/><path class="cls-17" d="M293.59,424.78c.37-.26-.3-.9-.9-1.25s-1.45-.85-2.16-.51l-7.83,3.79a1.32,1.32,0,0,0,0,2.5,4.81,4.81,0,0,0,4.31,0Z"/><path class="cls-9" d="M294.91,425.41a1.78,1.78,0,0,1-.51.55l-6.57,4.52-.1.07a5.1,5.1,0,0,1-1.23.49l-.14,0a6.38,6.38,0,0,1-3,0h0a5.38,5.38,0,0,1-1.27-.48l-.1-.05a3.46,3.46,0,0,1-1.11-1h0a2.57,2.57,0,0,1-.51-1.51,2.53,2.53,0,0,1,.42-1.38,1,1,0,0,1,.09-.13,3.49,3.49,0,0,1,1-.92l.19-.11,7.84-3.79a3.53,3.53,0,0,1,3.46.54h0a4.56,4.56,0,0,1,1.35,1.18,2.17,2.17,0,0,1,.33.71,1.67,1.67,0,0,1-.17,1.23Zm-3.43-.92-.32-.18-7.76,3.75.06,0a2.73,2.73,0,0,0,.55.2h0a3.7,3.7,0,0,0,.83.1,3.79,3.79,0,0,0,.84-.1l.1,0a2.09,2.09,0,0,0,.46-.17Z"/><path class="cls-8" d="M257.8,360.42l4-.59,1,6.14-1.18,1,.05,5.43c-1.44-.15-2.55-.39-3.54-4.07C257.29,365.18,257.58,364.94,257.8,360.42Z"/><path class="cls-9" d="M257.59,359l4-.59a1.44,1.44,0,0,1,1.63,1.21v.09l.94,6a1.43,1.43,0,0,1-.51,1.32l-.64.53,0,4.76a1.44,1.44,0,0,1-1.43,1.44h-.16a4.31,4.31,0,0,1-2.76-1.09,8.34,8.34,0,0,1-2-4,14,14,0,0,1-.51-6c0-.67.1-1.46.14-2.31a1.42,1.42,0,0,1,1.22-1.35Zm3.06,2.45-1.48.22c0,.45-.05.84-.08,1.18a11.71,11.71,0,0,0,.43,5.07,10,10,0,0,0,.7,2l0-2.93a1.46,1.46,0,0,1,.52-1.15l.55-.44Z"/><path class="cls-8" d="M262.33,345.18,262,359.25a2.17,2.17,0,1,1-4.33,0l-.05-15a2.65,2.65,0,0,1,.37-1.37l10.06-17a3.92,3.92,0,0,1,5.43-1.76c1.84,1.06,2.31,2.46,1.25,4.3C271.38,334.11,266,339.56,262.33,345.18Z"/><path class="cls-9" d="M263.75,345.63l-.37,13.66a3.61,3.61,0,0,1-.6,1.95,3.55,3.55,0,0,1-1.6,1.33l-.15.06a3.72,3.72,0,0,1-1.26.22,3.51,3.51,0,0,1-2-.61,3.59,3.59,0,0,1-1.32-1.59.94.94,0,0,1-.06-.15,3.69,3.69,0,0,1-.22-1.25l-.05-15a4.2,4.2,0,0,1,.14-1.08,3.66,3.66,0,0,1,.42-1l10-17,.19-.37a5.37,5.37,0,0,1,6.75-2.19l.46.24a4.73,4.73,0,0,1,2.37,2.69,4.39,4.39,0,0,1-.59,3.57l-.05.07a78.67,78.67,0,0,1-6.79,9.37c-1.88,2.35-3.75,4.69-5.33,7.07Zm-3.24,13.58.39-14a1.53,1.53,0,0,1,.23-.78c1.67-2.56,3.69-5.09,5.72-7.62a76.46,76.46,0,0,0,6.54-9l.05-.08a1.79,1.79,0,0,0,.33-1.31,2.11,2.11,0,0,0-1-1l-.21-.11a2.54,2.54,0,0,0-3.1,1,1,1,0,0,0-.08.15.93.93,0,0,1-.1.2l-10.06,17a1.57,1.57,0,0,0-.12.3,1.4,1.4,0,0,0-.05.34l.05,15a.78.78,0,0,0,0,.22l0,.06a.75.75,0,0,0,.67.46l.22,0,.07,0a.72.72,0,0,0,.32-.27.66.66,0,0,0,.12-.38Z"/><path class="cls-8" d="M281.43,323.08a6.35,6.35,0,0,1-5.73,0c-1.58-.92-1.58-2.4,0-3.31a6.29,6.29,0,0,1,5.73,0C283,320.68,283,322.16,281.43,323.08Z"/><path class="cls-18" d="M282.15,324.32a7.74,7.74,0,0,1-7.17,0,4,4,0,0,1-1.5-1.44h0a2.86,2.86,0,0,1,0-2.92.61.61,0,0,1,.07-.1,4.11,4.11,0,0,1,1.43-1.33h0a7.74,7.74,0,0,1,7.17,0,3.92,3.92,0,0,1,1.5,1.43l.06.11a2.79,2.79,0,0,1-.06,2.81,4,4,0,0,1-1.5,1.43Zm-3.58-2a4.52,4.52,0,0,0,2.15-.49h0a1.3,1.3,0,0,0,.45-.39l0,0h0l0,0a1.2,1.2,0,0,0-.45-.39,4.41,4.41,0,0,0-2.15-.49,4.35,4.35,0,0,0-2.15.49h0a1.2,1.2,0,0,0-.42.35l0,.06v0h0a1.26,1.26,0,0,0,.46.39A4.46,4.46,0,0,0,278.57,322.33Z"/><path class="cls-14" d="M266.88,363.23l.83,29.69c0,.14,0,.27,0,.39l1.19,24.36a2.79,2.79,0,1,0,5.57,0h0l1.19-24.35a2.61,2.61,0,0,0,0-.4l1.23-18.64,2.3,1.33,1.63,24.91c0,.13,0,.26,0,.39l1.19,24.35a2.79,2.79,0,1,0,5.57,0h0l1.19-24.35c0-.13,0-.26,0-.4l.86-27.79C290.47,367,270,354.49,266.88,363.23Z"/><path class="cls-9" d="M268.32,363.48l.82,29.44h0v.13c.55,8.12.81,16.41,1.2,24.55v.07h0a1.33,1.33,0,0,0,.39.95h0a1.37,1.37,0,0,0,1,.39,1.31,1.31,0,0,0,1-.4l.06-.05a1.34,1.34,0,0,0,.34-.9h0a1,1,0,0,1,0-.18l1.18-24.24,0-.2v-.13a1.09,1.09,0,0,1,0-.18l1.22-18.55a1.43,1.43,0,0,1,1.52-1.34,1.47,1.47,0,0,1,.66.21l2.27,1.31a1.44,1.44,0,0,1,.71,1.15l1.63,24.9v.1h0v.12c.55,8.12.8,16.41,1.2,24.55v.07h0a1.37,1.37,0,0,0,.39,1,1.36,1.36,0,0,0,1.91,0h0a1.31,1.31,0,0,0,.39-1h0c0-.07,0-.12,0-.18l1.19-24.24v-.33c0-.05,0-.11,0-.16l.86-27.67s0-.09,0-.14c.25-1.88-3-5.05-7.08-7.52a26.85,26.85,0,0,0-5.51-2.62,11.61,11.61,0,0,0-4.74-.7,3,3,0,0,0-2.64,1.78Zm-2,29.44-.83-29.6a1.38,1.38,0,0,1,.08-.56,5.68,5.68,0,0,1,5.11-3.91,14.24,14.24,0,0,1,6,.83,29.44,29.44,0,0,1,6.1,2.89c4.85,3,8.76,7.2,8.44,10.25l-.86,27.62v.34l0,.23-1.18,24.21v0a4.24,4.24,0,0,1-1.24,3h0a4.21,4.21,0,0,1-5.95,0h0a4.22,4.22,0,0,1-1.24-3h0L279.45,401c0-.08,0-.15,0-.21v-.26L278,379.3l-.89,13.63v.26l0,.23-1.18,24.21v0a4.23,4.23,0,0,1-1.15,2.89l-.09.1a4.22,4.22,0,0,1-6,0h0a4.23,4.23,0,0,1-1.23-3h0L266.3,393.4c0-.08,0-.15,0-.21v-.27Z"/><path class="cls-8" d="M266.17,361.37l2.71-13.1-1.32-20.53a5.87,5.87,0,0,1,2-4,6,6,0,0,1,5.94-.07l11.75,6.72c.8.45,2,1.49,1.76,2.49l-1.64,22.23,3.52,15.18c.24,1-.45,1.75-1.32,2.26a7.29,7.29,0,0,1-6.56,0l-14-8.08C267.89,363.81,265.84,363,266.17,361.37Z"/><path class="cls-9" d="M264.78,361l2.66-12.84-1.31-20.34a6.59,6.59,0,0,1,.76-3,5.69,5.69,0,0,1,1.92-2.36h0a7.75,7.75,0,0,1,3.72-1,7,7,0,0,1,3.65.94L288,329.15a6.08,6.08,0,0,1,1.85,1.63,2.94,2.94,0,0,1,.59,2.29L288.79,355l3.46,15a3,3,0,0,1-.33,2.26,4.37,4.37,0,0,1-1.66,1.56l-.09.05a8.24,8.24,0,0,1-3.91.94,8.06,8.06,0,0,1-4-1l-14-8.07h0l-.41-.24c-1.52-.82-3.6-1.95-3.09-4.37V361Zm5.5-12.46-2.71,13.1c-.07.34.93.88,1.66,1.28l.48.27h0l14,8.07a5.22,5.22,0,0,0,2.57.59,5.3,5.3,0,0,0,2.5-.55l.06,0a1.66,1.66,0,0,0,.62-.51.22.22,0,0,0,0-.18L286,355.47a1.51,1.51,0,0,1,0-.48l1.63-22.17c0-.1,0-.2,0-.3s-.05,0-.1-.08a3.2,3.2,0,0,0-.93-.8c-3.61-2-8.47-4.54-11.81-6.76a4.14,4.14,0,0,0-2.17-.56,4.73,4.73,0,0,0-2.32.64h0a3.28,3.28,0,0,0-.78,1.14,5,5,0,0,0-.5,1.33l0,.22,1.32,20.53h0A1.25,1.25,0,0,1,270.28,348.56Z"/><path class="cls-8" d="M275.37,320.65h6.39l.47,6.07a1.21,1.21,0,0,1,0,.19,1.83,1.83,0,0,1-1.07,1.5,5.74,5.74,0,0,1-5.2,0,1.82,1.82,0,0,1-1.08-1.5,1.23,1.23,0,0,1,0-.19Z"/><path class="cls-9" d="M275.37,319.21h6.39a1.45,1.45,0,0,1,1.44,1.4l.45,5.94a2.19,2.19,0,0,1,0,.36h0a2.83,2.83,0,0,1-.54,1.65h0a3.86,3.86,0,0,1-1.25,1.09,7.11,7.11,0,0,1-6.63,0l-.09-.06a4.05,4.05,0,0,1-1.16-1l-.08-.13a2.73,2.73,0,0,1-.46-1.52h0a2.28,2.28,0,0,1,0-.36l.46-6a1.44,1.44,0,0,1,1.43-1.32Zm5.06,2.88H276.7l-.37,4.79h0a1.19,1.19,0,0,0,.28.25l.07,0a4.32,4.32,0,0,0,3.76,0,1.21,1.21,0,0,0,.35-.28h0s-.34-4.38-.37-4.8Zm-4.11,4.82"/><path class="cls-8" d="M275.94,321.48a5.78,5.78,0,0,0,5.25,0c1.45-.83,1.45-2.19,0-3a5.78,5.78,0,0,0-5.25,0C274.49,319.29,274.49,320.65,275.94,321.48Z"/><path class="cls-9" d="M276.72,320.28a4.07,4.07,0,0,0,1.85.39,3.91,3.91,0,0,0,1.91-.43.28.28,0,1,0,0-.55,4.48,4.48,0,0,0-3.83,0,1,1,0,0,0-.34.28,1.11,1.11,0,0,0,.35.27l.06,0Zm1.85,3.27a6.84,6.84,0,0,1-3.25-.78l-.09,0a3.85,3.85,0,0,1-1.36-1.25l-.06-.11a2.71,2.71,0,0,1-.39-1.39,2.77,2.77,0,0,1,.39-1.4h0a3.73,3.73,0,0,1,1.42-1.36,7.21,7.21,0,0,1,6.68,0,3.84,3.84,0,0,1,1.35,1.26.36.36,0,0,1,.07.1,2.77,2.77,0,0,1,.39,1.4,2.71,2.71,0,0,1-.39,1.39h0a3.76,3.76,0,0,1-1.43,1.36A6.77,6.77,0,0,1,278.57,323.55Z"/><path class="cls-8" d="M278.57,304.13c-3.45,0-6.72,2.76-6.41,6.22l.68,7.59c.28,3.2,2,6.22,5.71,6.22,3.52,0,5.39-2.81,5.71-6.22l.72-7.59C285.3,306.94,282.09,304.13,278.57,304.13Z"/><path class="cls-9" d="M278.57,305.56l-.46,0a5.48,5.48,0,0,0-3.22,1.44,4,4,0,0,0-1.31,2.87v.34l.68,7.59a6.35,6.35,0,0,0,1.45,3.73,4,4,0,0,0,5.68,0,6.4,6.4,0,0,0,1.44-3.73l.72-7.6a3,3,0,0,0,0-.33,4,4,0,0,0-1.29-2.84,5.4,5.4,0,0,0-3.21-1.46l-.49,0Zm-.71-2.83a6.58,6.58,0,0,1,.71,0,7.32,7.32,0,0,1,.76,0,8.34,8.34,0,0,1,4.92,2.24,6.78,6.78,0,0,1,2.18,4.91q0,.24,0,.6l-.71,7.6a9.28,9.28,0,0,1-2.19,5.41,6.86,6.86,0,0,1-9.9,0,9.22,9.22,0,0,1-2.19-5.43l-.68-7.59c0-.24,0-.43,0-.58a6.8,6.8,0,0,1,2.23-4.95A8.3,8.3,0,0,1,277.86,302.73Z"/><path class="cls-14" d="M276.12,320c4.57-.15,2.88-8.24,8.86-10.59,0-6.95-12.76-8.33-13.63,1.86C271,315.91,271.55,320.17,276.12,320Z"/><path class="cls-9" d="M276.07,318.59c1.27,0,1.85-1.57,2.53-3.34.92-2.41,2-5.12,4.85-6.69a4,4,0,0,0-2.34-2.68,6.17,6.17,0,0,0-4.68-.1c-1.84.73-3.39,2.52-3.65,5.63a12.63,12.63,0,0,0,.41,5.49,2.7,2.7,0,0,0,2.88,1.69Zm5.21-2.32c-1,2.72-1.94,5.08-5.12,5.18a5.31,5.31,0,0,1-5.61-3.46,15,15,0,0,1-.63-6.82c.37-4.37,2.68-6.94,5.46-8.05a8.92,8.92,0,0,1,6.91.15,6.63,6.63,0,0,1,4.12,6.06,1.43,1.43,0,0,1-.91,1.43C283,311.74,282.09,314.16,281.28,316.27Z"/><path class="cls-14" d="M272.38,311h0a3.75,3.75,0,0,1,3.74,3.74v14.33a3.75,3.75,0,0,1-3.74,3.74h0a3.75,3.75,0,0,1-3.74-3.74V314.76A3.75,3.75,0,0,1,272.38,311Z"/><path class="cls-9" d="M272.38,309.58A5.13,5.13,0,0,1,276,311.1l.09.09a5.15,5.15,0,0,1,1.43,3.57v14.33a5.15,5.15,0,0,1-1.52,3.65h0a5.14,5.14,0,0,1-7.3,0h0a5.17,5.17,0,0,1-1.52-3.65V314.76a5.19,5.19,0,0,1,5.18-5.18Zm0,2.87a2.3,2.3,0,0,0-2.3,2.31v14.33a2.27,2.27,0,0,0,.67,1.62h0a2.29,2.29,0,0,0,1.63.68,2.27,2.27,0,0,0,1.62-.68h0a2.26,2.26,0,0,0,.67-1.62V314.76a2.26,2.26,0,0,0-.62-1.57l-.06-.06A2.27,2.27,0,0,0,272.38,312.45Z"/><path class="cls-9" d="M273.26,373.82a1.43,1.43,0,1,1,1.42-2.48l5.26,3a1.43,1.43,0,1,1-1.43,2.48Z"/><path class="cls-8" d="M283.69,337.45,297,353.86a2.71,2.71,0,0,0,4.8-.79l4.87-13.84a2.16,2.16,0,1,0-4-1.59l-3.92,8.93-9.3-13.81-1.19-1.27Z"/><path class="cls-9" d="M284.31,340.48a1.43,1.43,0,0,1,2.22-1.81L298.12,353l.05.06h0a1.55,1.55,0,0,0,.25.26,1.4,1.4,0,0,0,.32.18l.09,0a1.31,1.31,0,0,0,.94-.07,1.35,1.35,0,0,0,.64-.69c1.71-4.61,3.29-9.35,4.92-14l0-.09a.73.73,0,0,0,0-.39.68.68,0,0,0-.2-.36.79.79,0,0,0-.25-.17.71.71,0,0,0-.41,0h-.08a.7.7,0,0,0-.29.19.56.56,0,0,0-.16.24l-3.94,9a1.43,1.43,0,0,1-1.89.74,1.34,1.34,0,0,1-.61-.51h0c-.45-.67-1.15-1.81-2-3.19-2.8-4.57-7.26-11.84-9.34-12.74a1.43,1.43,0,1,1,1.13-2.63c2.92,1.25,7.67,9,10.66,13.88l.51.83,2.83-6.44a3.54,3.54,0,0,1,2.4-2.12l.16,0a3.59,3.59,0,0,1,4.13,4.78l-4.87,13.83a2.83,2.83,0,0,1-.09.27A4.17,4.17,0,0,1,301,356a4.11,4.11,0,0,1-3,.22h0l-.2-.06-.09,0a4,4,0,0,1-1-.58,4.07,4.07,0,0,1-.82-.84Z"/><path class="cls-9" d="M274.26,358a1.45,1.45,0,0,1,1.55-1.32,1.43,1.43,0,0,1,1.32,1.54l-.8,9.83a1.43,1.43,0,0,1-2.86-.22Z"/><path class="cls-3" d="M245.15,106.52l1.3.75v3.43l2.55-2,1.47.85-2.54,2,2.82,6.56-1.57-.9-2.09-5-.64.49v2.93l-1.3-.75Z"/><path class="cls-3" d="M251.55,110.21l4.46,2.57v1.39l-3.16-1.82v2l2.32,1.34v1.4l-2.32-1.34v2.18l3.39,2v1.41l-4.69-2.7Z"/><path class="cls-3" d="M259.12,119.26l-2.38-6.06,1.42.82,1.65,4.29,1.65-2.38,1.36.78L260.44,120v3.67l-1.32-.76Z"/><path class="cls-3" d="M263,116.8l1.42.82,1.12,6.9,1.33-5.25L268,120l1.34,6.79,1.11-5.61,1.36.79-1.8,7.31-1.36-.79-1.28-6.26L266.1,127l-1.34-.77Z"/><path class="cls-3" d="M275.82,132.79a5.75,5.75,0,0,1-1.4-1.15,8.41,8.41,0,0,1-1.14-1.6,9.51,9.51,0,0,1-.76-1.84,6.65,6.65,0,0,1-.28-1.88,3.85,3.85,0,0,1,.28-1.56,2.25,2.25,0,0,1,.76-1,1.84,1.84,0,0,1,1.13-.28,3.13,3.13,0,0,1,1.41.47,5.53,5.53,0,0,1,1.4,1.15,8.62,8.62,0,0,1,1.13,1.59,9,9,0,0,1,.77,1.84,7,7,0,0,1,.28,1.88,4,4,0,0,1-.28,1.55,2.09,2.09,0,0,1-.77,1,1.8,1.8,0,0,1-1.13.3A3.14,3.14,0,0,1,275.82,132.79Zm0-1.49a1.81,1.81,0,0,0,.92.29,1.06,1.06,0,0,0,.7-.24,1.5,1.5,0,0,0,.44-.69,3.25,3.25,0,0,0,.16-1,5.17,5.17,0,0,0-.16-1.22,5.68,5.68,0,0,0-.44-1.19,4.92,4.92,0,0,0-.7-1,3.7,3.7,0,0,0-.92-.77,2,2,0,0,0-.92-.3,1.09,1.09,0,0,0-.7.23,1.52,1.52,0,0,0-.44.68,3.05,3.05,0,0,0-.16,1,4.74,4.74,0,0,0,.16,1.21,5.56,5.56,0,0,0,.44,1.2,4.47,4.47,0,0,0,.7,1.05A3.53,3.53,0,0,0,275.82,131.3Z"/><path class="cls-3" d="M280.57,127l2.28,1.32a4.6,4.6,0,0,1,1.1.87,4.87,4.87,0,0,1,.73,1,4.67,4.67,0,0,1,.41,1,3.69,3.69,0,0,1,.13.92,2.38,2.38,0,0,1-.28,1.23,1,1,0,0,1-.87.47l1.58,4.41-1.46-.84-1.39-4.1-1-.57V136l-1.25-.72Zm2.29,5.08c.33.19.59.22.77.09a.8.8,0,0,0,.27-.69,2.07,2.07,0,0,0-.29-1,2,2,0,0,0-.75-.78l-1-.6v2.42Z"/><path class="cls-3" d="M286.61,130.44l2.57,1.48a7.94,7.94,0,0,1,1.47,1.1,6.79,6.79,0,0,1,1.91,3.18,7.52,7.52,0,0,1,.27,2.05,4,4,0,0,1-.28,1.65,1.6,1.6,0,0,1-.76.85,1.85,1.85,0,0,1-1.16.11,5.13,5.13,0,0,1-1.46-.59l-2.56-1.48Zm2.44,8.36c.79.45,1.39.57,1.8.35s.62-.78.62-1.66a5.13,5.13,0,0,0-.57-2.41,4.65,4.65,0,0,0-1.85-1.83l-1.14-.66v5.55Z"/><path class="cls-3" d="M296,135.83l4.45,2.57v1.39L297.26,138v2l2.32,1.34v1.4l-2.32-1.34v2.18l3.39,2v1.41l-4.69-2.7Z"/><path class="cls-3" d="M303.43,144.18l-2.19-5.3,1.57.9,1.43,3.56,1.38-1.94,1.41.82L304.92,145l2.36,5.72-1.57-.91-1.59-4L302.56,148l-1.41-.81Z"/><path class="cls-3" d="M308.05,142.81l2.21,1.27a4.77,4.77,0,0,1,1.18.95,5.27,5.27,0,0,1,.73,1.08,5,5,0,0,1,.37,1.06,4.47,4.47,0,0,1,.1.89,2.25,2.25,0,0,1-.21,1.08,1,1,0,0,1-.53.51,1.23,1.23,0,0,1-.74,0,3,3,0,0,1-.82-.32l-1-.6v3.1l-1.25-.72Zm2.19,5.18a.76.76,0,0,0,.79.1.82.82,0,0,0,.29-.74,2.28,2.28,0,0,0-.31-1.14,2,2,0,0,0-.77-.81l-.94-.54v2.59Z"/><path class="cls-3" d="M315.74,147.24l1.34.78,2.61,9.86-1.44-.83-.6-2.47-2.56-1.47-.59,1.77-1.37-.78Zm1.54,5.83-.91-3.77-.92,2.71Z"/><path class="cls-3" d="M320.46,150l1.31.75,3.33,7.86v-5.94l1.27.74v8.35l-1.28-.74-3.36-8v6l-1.27-.74Z"/><path class="cls-3" d="M328.32,160.5c.08.17.18.35.29.54s.24.39.38.58a5.07,5.07,0,0,0,.48.56,2.37,2.37,0,0,0,.59.45c.41.24.71.3.9.19a.69.69,0,0,0,.3-.65,1.58,1.58,0,0,0-.09-.52,1.73,1.73,0,0,0-.27-.52,4.92,4.92,0,0,0-.51-.58c-.21-.2-.47-.43-.78-.68a5.34,5.34,0,0,1-.82-.83,5.13,5.13,0,0,1-.57-.89,4.1,4.1,0,0,1-.34-.92,3.43,3.43,0,0,1-.12-.87,2.12,2.12,0,0,1,.15-.83,1,1,0,0,1,.44-.51,1.36,1.36,0,0,1,.75-.1,3,3,0,0,1,1,.41,4.67,4.67,0,0,1,.94.69,8.21,8.21,0,0,1,.66.73,5.21,5.21,0,0,1,.4.63l.21.4-.86.49-.16-.28c-.08-.13-.17-.27-.28-.42a5.45,5.45,0,0,0-.41-.46,2.41,2.41,0,0,0-.54-.41,1.44,1.44,0,0,0-.46-.18.58.58,0,0,0-.33,0,.41.41,0,0,0-.19.2.64.64,0,0,0-.06.28,1.31,1.31,0,0,0,.07.44,1.79,1.79,0,0,0,.23.46,3.55,3.55,0,0,0,.43.52c.19.18.42.39.7.62a6.84,6.84,0,0,1,.78.75,4.92,4.92,0,0,1,.65.9,5,5,0,0,1,.46,1,4.19,4.19,0,0,1,.17,1.2,1.94,1.94,0,0,1-.19.9,1.12,1.12,0,0,1-.51.52,1.37,1.37,0,0,1-.79.1,3.17,3.17,0,0,1-1-.38,5.34,5.34,0,0,1-.93-.69,6.39,6.39,0,0,1-.75-.82,6,6,0,0,1-.58-.84c-.16-.27-.3-.53-.41-.76Z"/><path class="cls-3" d="M333.93,157.74l1.3.74v8.36l-1.3-.75Z"/><path class="cls-3" d="M340,169.81a5.8,5.8,0,0,1-1.4-1.16,8.11,8.11,0,0,1-1.14-1.6,9.26,9.26,0,0,1-.76-1.84,6.59,6.59,0,0,1-.28-1.88,3.83,3.83,0,0,1,.28-1.55,2.13,2.13,0,0,1,.76-1,1.84,1.84,0,0,1,1.13-.29A3.26,3.26,0,0,1,340,161a6,6,0,0,1,1.4,1.15,8.7,8.7,0,0,1,1.13,1.6,8.52,8.52,0,0,1,.77,1.84,6.9,6.9,0,0,1,.28,1.87,4,4,0,0,1-.28,1.56,2.14,2.14,0,0,1-.77,1,1.86,1.86,0,0,1-1.13.29A3.11,3.11,0,0,1,340,169.81Zm0-1.49a1.89,1.89,0,0,0,.92.29,1.08,1.08,0,0,0,.7-.24,1.5,1.5,0,0,0,.44-.69,3.3,3.3,0,0,0,.15-1,5.15,5.15,0,0,0-.15-1.22,5.48,5.48,0,0,0-.44-1.19,5.41,5.41,0,0,0-.7-1,3.84,3.84,0,0,0-.92-.76,1.9,1.9,0,0,0-.93-.3,1,1,0,0,0-.69.23,1.47,1.47,0,0,0-.44.68,3,3,0,0,0-.16,1,4.82,4.82,0,0,0,.16,1.22,5.56,5.56,0,0,0,.44,1.2,5.29,5.29,0,0,0,.69,1.05A3.78,3.78,0,0,0,340,168.32Z"/><path class="cls-3" d="M344.73,164l1.31.75,3.33,7.86v-5.94l1.27.74v8.35l-1.28-.74L346,167v6l-1.27-.74Z"/><polygon class="cls-6" points="240.31 231.77 221.18 220.69 221.18 215.09 240.31 226.17 240.31 231.77"/><path class="cls-19" d="M241,232.87l-20.4-11.81V214L241,225.8Zm-19.13-12.54,17.86,10.34v-4.14l-17.86-10.34Z"/><polygon class="cls-6" points="296.23 263.72 245.35 234.57 245.35 228.97 296.23 258.12 296.23 263.72"/><path class="cls-19" d="M296.87,264.82l-52.15-29.89v-7.06l52.15,29.89ZM246,234.2l49.61,28.43v-4.14L246,230.06Z"/><polygon class="cls-6" points="269.83 211.18 221.41 183.4 221.41 170 269.83 197.78 269.83 211.18"/><path class="cls-19" d="M270.46,212.28l-49.68-28.51V168.91l49.68,28.5ZM222.05,183l47.14,27.05v-12l-47.14-27Z"/><polygon class="cls-3" points="296.46 226.44 274.86 213.98 274.86 200.58 296.46 213.03 296.46 226.44"/><path class="cls-19" d="M297.1,227.53l-22.87-13.18V199.48l22.87,13.18Zm-21.6-13.92,20.33,11.73V213.4L275.5,201.67Z"/><polygon class="cls-6" points="221.18 199.49 296.7 242.83 296.7 232.16 221.18 188.81 221.18 199.49"/><path class="cls-19" d="M297.33,243.93l-76.78-44.07V187.72l76.78,44.07Zm-75.51-44.8,74.24,42.61v-9.22l-74.24-42.61Z"/><polygon class="cls-3" points="221.18 210.05 296.7 253.39 296.7 247.59 221.18 204.25 221.18 210.05"/><path class="cls-19" d="M297.33,254.49l-76.78-44.07v-7.26l76.78,44.07Zm-75.51-44.81,74.24,42.62V248l-74.24-42.61Z"/><polygon class="cls-6" points="321.02 278.38 301.88 267.3 301.88 261.7 321.02 272.78 321.02 278.38"/><path class="cls-19" d="M321.65,279.48l-20.4-11.81v-7.06l20.4,11.8Zm-19.13-12.54,17.86,10.34v-4.13L302.52,262.8Z"/><polygon class="cls-6" points="376.94 310.33 326.06 281.18 326.06 275.58 376.94 304.74 376.94 310.33"/><path class="cls-19" d="M377.57,311.43l-52.15-29.88v-7.07l52.15,29.89Zm-50.88-30.62,49.61,28.43V305.1l-49.61-28.43Z"/><polygon class="cls-6" points="350.53 257.79 302.12 230.02 302.12 216.61 350.53 244.39 350.53 257.79"/><path class="cls-19" d="M351.16,258.89l-49.68-28.51V215.52L351.16,244Zm-48.41-29.24,47.14,27V244.76l-47.14-27Z"/><polygon class="cls-3" points="377.17 273.05 355.57 260.59 355.57 247.19 377.17 259.64 377.17 273.05"/><path class="cls-19" d="M377.8,274.14,354.93,261V246.09l22.87,13.19Zm-21.6-13.91L376.53,272V260L356.2,248.29Z"/><polygon class="cls-6" points="301.88 246.1 377.4 289.44 377.4 278.77 301.88 235.43 301.88 246.1"/><path class="cls-19" d="M378,290.54l-76.78-44.07V234.33L378,278.4Zm-75.51-44.8,74.25,42.61v-9.22l-74.25-42.61Z"/><polygon class="cls-3" points="301.88 256.66 377.4 300 377.4 294.2 301.88 250.86 301.88 256.66"/><path class="cls-19" d="M378,301.1,301.25,257v-7.26L378,293.84Zm-75.51-44.8,74.25,42.61v-4.34L302.52,252Z"/><path class="cls-20" d="M107.6,103.62c0-3.29,2.33-4.64,5.18-3l81.75,47.19a5.27,5.27,0,0,1,2.37,4.12v8.46l4.51,8.51a2,2,0,0,1-.93,2.73l-3.58,1.63v14.06c0,1.51-1.06,2.12-2.37,1.37L110,139.88a5.26,5.26,0,0,1-2.37-4.11V103.62Z"/><path class="cls-20" d="M200.48,171.64l-1.19.54a2,2,0,0,0-.11-1.6l-4.5-8.51v-8.46a5.28,5.28,0,0,0-2.38-4.12l-83.14-48a4.08,4.08,0,0,0-.92-.38c.87-1.34,2.53-1.64,4.46-.53l81.83,47.24a5.27,5.27,0,0,1,2.37,4.12v8.46l4.51,8.51A2,2,0,0,1,200.48,171.64Zm-5.8,2.64v14.49c1.23.62,2.22,0,2.22-1.44V173.27Z"/><polygon class="cls-20" points="188.53 166.39 139.61 138.33 139.61 135.17 188.53 163.26 188.53 166.39"/><polygon class="cls-20" points="166.82 165.41 139.61 149.84 139.61 146.68 166.82 162.28 166.82 165.41"/><polygon class="cls-21" points="112.71 107.51 112.78 137.98 134.74 150.55 134.74 120.01 112.71 107.51"/><path class="cls-2" d="M139.24,127.8l.21.37a3.51,3.51,0,0,0,.27.4,3.17,3.17,0,0,0,.34.39,1.92,1.92,0,0,0,.43.32c.29.17.5.22.64.15a.45.45,0,0,0,.21-.44,1.41,1.41,0,0,0-.05-.35,1.3,1.3,0,0,0-.2-.36,3.3,3.3,0,0,0-.37-.4c-.15-.15-.34-.31-.56-.49a3.53,3.53,0,0,1-.58-.58,2.89,2.89,0,0,1-.41-.62,3.3,3.3,0,0,1-.25-.63,2.6,2.6,0,0,1-.08-.59,1.34,1.34,0,0,1,.1-.56.67.67,0,0,1,.32-.34.85.85,0,0,1,.54,0,2.16,2.16,0,0,1,.75.3,3.3,3.3,0,0,1,.68.49,4.36,4.36,0,0,1,.47.51,4.66,4.66,0,0,1,.29.43,2.34,2.34,0,0,1,.14.28l-.61.31-.12-.19a2.17,2.17,0,0,0-.2-.29,2.8,2.8,0,0,0-.29-.32,1.65,1.65,0,0,0-.39-.29.91.91,0,0,0-.33-.14.55.55,0,0,0-.23,0,.29.29,0,0,0-.14.13.45.45,0,0,0,0,.2.79.79,0,0,0,.05.3,1.15,1.15,0,0,0,.16.31,3,3,0,0,0,.31.37,6.65,6.65,0,0,0,.51.43,6.82,6.82,0,0,1,.55.53,4,4,0,0,1,.47.62,3.86,3.86,0,0,1,.32.72,2.71,2.71,0,0,1,.13.82,1.22,1.22,0,0,1-.14.61.76.76,0,0,1-.37.34.93.93,0,0,1-.56.05,2.31,2.31,0,0,1-.71-.28,3.6,3.6,0,0,1-.67-.49,4.71,4.71,0,0,1-.53-.57,4.93,4.93,0,0,1-.42-.58c-.11-.19-.21-.37-.29-.53Z"/><path class="cls-2" d="M143.22,126l.93.54V130a3,3,0,0,0,.06.61,1.69,1.69,0,0,0,.18.55,1.87,1.87,0,0,0,.33.48,2.63,2.63,0,0,0,.51.39,1.35,1.35,0,0,0,.51.19.37.37,0,0,0,.33-.09.53.53,0,0,0,.18-.34,2.15,2.15,0,0,0,.06-.55v-3.4l.93.54v3.59a2.37,2.37,0,0,1-.13.81.92.92,0,0,1-.4.48,1,1,0,0,1-.63.12,2.38,2.38,0,0,1-.85-.32,3.76,3.76,0,0,1-.85-.67,4.19,4.19,0,0,1-.63-.84,3.7,3.7,0,0,1-.4-.94,3.52,3.52,0,0,1-.13-1Z"/><path class="cls-2" d="M150.83,133.08l1.76,1v2.36a1.35,1.35,0,0,1-.76.11,2.93,2.93,0,0,1-1.21-.46,4.66,4.66,0,0,1-1.08-.85,5.38,5.38,0,0,1-.81-1.1,5.63,5.63,0,0,1-.51-1.22,4.68,4.68,0,0,1-.18-1.26,2.84,2.84,0,0,1,.19-1.07,1.27,1.27,0,0,1,1.32-.84,2.41,2.41,0,0,1,1,.36,3.93,3.93,0,0,1,.66.47,4.83,4.83,0,0,1,.55.56,4.37,4.37,0,0,1,.44.62,5.62,5.62,0,0,1,.34.64l-.66.29a4.55,4.55,0,0,0-.55-.94,2.76,2.76,0,0,0-.78-.7,1.3,1.3,0,0,0-.65-.2.79.79,0,0,0-.49.15,1.09,1.09,0,0,0-.32.47,2.28,2.28,0,0,0-.1.72,3,3,0,0,0,.13.9,3.47,3.47,0,0,0,.35.84,3.75,3.75,0,0,0,.53.71,2.88,2.88,0,0,0,.63.5,1.23,1.23,0,0,0,1.05.23v-.88l-.88-.51Z"/><path class="cls-2" d="M156.17,136.16l1.76,1v2.35a1.35,1.35,0,0,1-.76.11,3,3,0,0,1-1.21-.46,4.66,4.66,0,0,1-1.08-.85,5.6,5.6,0,0,1-.81-1.09,5.71,5.71,0,0,1-.51-1.23,4.68,4.68,0,0,1-.18-1.26,2.75,2.75,0,0,1,.19-1.06,1.35,1.35,0,0,1,.52-.66,1.24,1.24,0,0,1,.8-.18,2.25,2.25,0,0,1,1,.35,3.93,3.93,0,0,1,.66.47,4.14,4.14,0,0,1,.55.56,4.37,4.37,0,0,1,.44.62,5.62,5.62,0,0,1,.34.64l-.66.3a4.38,4.38,0,0,0-.55-.95,2.63,2.63,0,0,0-.78-.7,1.42,1.42,0,0,0-.65-.2.74.74,0,0,0-.49.16.92.92,0,0,0-.31.46,2.27,2.27,0,0,0-.11.72,3.13,3.13,0,0,0,.13.91,3.57,3.57,0,0,0,.35.83,3.75,3.75,0,0,0,.53.71,2.61,2.61,0,0,0,.63.5,1.2,1.2,0,0,0,1.05.23v-.88l-.88-.51Z"/><path class="cls-2" d="M158.92,135.06l3.19,1.85v.94l-2.26-1.3v1.34l1.66,1v1l-1.66-1v1.49l2.43,1.4v1l-3.36-1.94Z"/><path class="cls-2" d="M163.47,141.78c.06.11.13.24.21.37l.28.41a3,3,0,0,0,.34.38,1.7,1.7,0,0,0,.42.33c.29.16.51.21.65.14a.44.44,0,0,0,.21-.43,1.13,1.13,0,0,0-.06-.36,1.46,1.46,0,0,0-.2-.36,3.16,3.16,0,0,0-.36-.4c-.16-.15-.34-.31-.56-.49a3.57,3.57,0,0,1-.59-.57,3.69,3.69,0,0,1-.41-.62,2.62,2.62,0,0,1-.24-.64,2.09,2.09,0,0,1-.08-.59,1.37,1.37,0,0,1,.1-.56.63.63,0,0,1,.32-.34A.9.9,0,0,1,164,138a2.12,2.12,0,0,1,.76.3,3.51,3.51,0,0,1,.67.49,4.29,4.29,0,0,1,.47.51,2.74,2.74,0,0,1,.29.44l.15.27-.61.31a1.07,1.07,0,0,1-.12-.19,2.32,2.32,0,0,0-.21-.29,2.71,2.71,0,0,0-.29-.32,1.82,1.82,0,0,0-.38-.29.83.83,0,0,0-.33-.13.47.47,0,0,0-.24,0,.29.29,0,0,0-.13.14.41.41,0,0,0-.05.19,1,1,0,0,0,.05.3,1.31,1.31,0,0,0,.16.31,2.05,2.05,0,0,0,.32.37c.13.13.3.27.5.44a4.47,4.47,0,0,1,.55.52,3.23,3.23,0,0,1,.47.63,3.06,3.06,0,0,1,.33.71,2.76,2.76,0,0,1,.12.82,1.23,1.23,0,0,1-.13.61.76.76,0,0,1-.37.34.94.94,0,0,1-.56,0,2.13,2.13,0,0,1-.71-.28,3.68,3.68,0,0,1-.67-.48,5.81,5.81,0,0,1-.54-.58,4.12,4.12,0,0,1-.41-.58c-.12-.19-.22-.37-.3-.53Z"/><path class="cls-2" d="M168.5,141.54l-1.67-1v-1l4.27,2.47V143l-1.67-1v4.74l-.93-.54Z"/><path class="cls-2" d="M171.79,142.49l.93.54v5.69l-.93-.54Z"/><path class="cls-2" d="M176.13,150.83a4,4,0,0,1-1-.81,6,6,0,0,1-.81-1.11,6.77,6.77,0,0,1-.55-1.27,4.55,4.55,0,0,1-.2-1.29,2.55,2.55,0,0,1,.2-1,1.46,1.46,0,0,1,.55-.64,1.33,1.33,0,0,1,.81-.17,2.49,2.49,0,0,1,1,.35,4.45,4.45,0,0,1,1,.81,6.31,6.31,0,0,1,.81,1.11,6.18,6.18,0,0,1,.55,1.27,4.54,4.54,0,0,1,.2,1.28,2.49,2.49,0,0,1-.2,1.05,1.4,1.4,0,0,1-.55.64,1.35,1.35,0,0,1-.81.18A2.32,2.32,0,0,1,176.13,150.83Zm0-1a1.47,1.47,0,0,0,.65.22.85.85,0,0,0,.51-.15,1,1,0,0,0,.31-.46,1.93,1.93,0,0,0,.11-.71,3,3,0,0,0-.11-.83,3.85,3.85,0,0,0-.31-.82,3.61,3.61,0,0,0-.51-.72,2.56,2.56,0,0,0-.65-.54,1.54,1.54,0,0,0-.67-.22.73.73,0,0,0-.49.14.9.9,0,0,0-.32.45,2.16,2.16,0,0,0-.11.71,3.44,3.44,0,0,0,.11.83,3.65,3.65,0,0,0,.32.83,3.59,3.59,0,0,0,.49.73A2.65,2.65,0,0,0,176.13,149.82Z"/><path class="cls-2" d="M179.53,147l.94.54,2.39,5.42v-4l.9.52v5.69l-.91-.53-2.41-5.48v4.09l-.91-.52Z"/><path class="cls-2" d="M185.16,154.29c.06.11.13.24.21.37a4.81,4.81,0,0,0,.27.41c.1.13.22.26.34.39a2.29,2.29,0,0,0,.43.32c.29.16.5.21.64.14a.43.43,0,0,0,.22-.43,1.13,1.13,0,0,0-.06-.36,1.66,1.66,0,0,0-.2-.36,4.26,4.26,0,0,0-.37-.4c-.15-.15-.34-.31-.56-.49a3.92,3.92,0,0,1-.58-.57,3.16,3.16,0,0,1-.41-.62,3.3,3.3,0,0,1-.25-.63,2.61,2.61,0,0,1-.08-.6,1.37,1.37,0,0,1,.1-.56.67.67,0,0,1,.32-.34.94.94,0,0,1,.54-.05,2.16,2.16,0,0,1,.75.3,3.3,3.3,0,0,1,.68.49,6.89,6.89,0,0,1,.47.51,3.65,3.65,0,0,1,.29.44l.15.27-.62.32a2,2,0,0,0-.12-.2,2.17,2.17,0,0,0-.2-.29,4,4,0,0,0-.29-.32,1.65,1.65,0,0,0-.39-.29.87.87,0,0,0-.33-.13.35.35,0,0,0-.23,0,.25.25,0,0,0-.14.13.41.41,0,0,0,0,.19.79.79,0,0,0,.05.3,1,1,0,0,0,.16.31,2.43,2.43,0,0,0,.31.37,6.53,6.53,0,0,0,.51.44,5.32,5.32,0,0,1,.55.52,4.13,4.13,0,0,1,.47.63,3.5,3.5,0,0,1,.32.71,2.47,2.47,0,0,1,.13.82,1.2,1.2,0,0,1-.14.61.78.78,0,0,1-.37.35,1,1,0,0,1-.56,0,2,2,0,0,1-.71-.28,4.07,4.07,0,0,1-.67-.48,6.89,6.89,0,0,1-.53-.57,5,5,0,0,1-.42-.59c-.11-.19-.21-.36-.29-.52Z"/></g></svg>