<svg xmlns="http://www.w3.org/2000/svg" viewBox="0 0 659.62 671.96"><defs><style>.cls-1{isolation:isolate;}.cls-2{mix-blend-mode:multiply;}.cls-3,.cls-6,.cls-72,.cls-80{fill:#1c2b36;}.cls-11,.cls-12,.cls-13,.cls-3,.cls-5,.cls-72,.cls-73,.cls-74,.cls-75,.cls-76,.cls-77,.cls-78,.cls-79,.cls-8,.cls-84{stroke:#1c2b36;}.cls-11,.cls-12,.cls-13,.cls-3,.cls-5,.cls-6,.cls-72,.cls-73,.cls-74,.cls-75,.cls-76,.cls-77,.cls-78,.cls-79,.cls-8,.cls-84{stroke-linecap:round;stroke-linejoin:round;}.cls-11,.cls-12,.cls-13,.cls-3,.cls-5,.cls-6,.cls-8{stroke-width:1.72px;}.cls-4{fill:#3c5185;}.cls-15,.cls-5,.cls-73{fill:#fff;}.cls-6{stroke:#0d1826;}.cls-7,.cls-77{fill:#a5cbef;}.cls-7{stroke:#231f20;stroke-width:1.16px;}.cls-7,.cls-70{stroke-miterlimit:10;}.cls-74,.cls-8{fill:#3b68b0;}.cls-9{fill:#b68503;}.cls-10{fill:#ffb806;}.cls-11{fill:#48b8f0;}.cls-12{fill:#75b1ff;}.cls-13{fill:#3d8df5;}.cls-14{fill:#0d1826;}.cls-16{fill:#fefefe;}.cls-17{fill:#fdfdfd;}.cls-18{fill:#fcfcfc;}.cls-19{fill:#fbfbfb;}.cls-20{fill:#fafafb;}.cls-21{fill:#f9f9fa;}.cls-22{fill:#f8f8f9;}.cls-23{fill:#f7f7f8;}.cls-24{fill:#f6f6f7;}.cls-25{fill:#f5f5f6;}.cls-26{fill:#f4f4f5;}.cls-27{fill:#f3f3f4;}.cls-28{fill:#f2f2f3;}.cls-29{fill:#f1f2f3;}.cls-30{fill:#f0f1f2;}.cls-31{fill:#eff0f1;}.cls-32{fill:#eeeff0;}.cls-33{fill:#edeeef;}.cls-34{fill:#ecedee;}.cls-35{fill:#ebeced;}.cls-36{fill:#eaebec;}.cls-37{fill:#e9eaeb;}.cls-38{fill:#e8e9eb;}.cls-39{fill:#e7e8ea;}.cls-40{fill:#e6e7e9;}.cls-41{fill:#e5e6e8;}.cls-42{fill:#e5e5e7;}.cls-43{fill:#e4e4e6;}.cls-44{fill:#e3e3e5;}.cls-45{fill:#e2e2e4;}.cls-46{fill:#e1e1e4;}.cls-47{fill:#e0e0e3;}.cls-48{fill:#dfdfe2;}.cls-49{fill:#dedee1;}.cls-50{fill:#dddde0;}.cls-51{fill:#dcdcdf;}.cls-52{fill:#dbdbde;}.cls-53{fill:#dadadd;}.cls-54{fill:#d9d9dc;}.cls-55{fill:#d8d9dc;}.cls-56{fill:#d7d8db;}.cls-57{fill:#d6d7da;}.cls-58{fill:#d5d6d9;}.cls-59{fill:#d4d5d8;}.cls-60{fill:#d3d4d7;}.cls-61{fill:#d2d3d6;}.cls-62{fill:#d1d2d5;}.cls-63{fill:#d0d1d4;}.cls-64{fill:#cfd0d4;}.cls-65{fill:#cecfd3;}.cls-66{fill:#cdced2;}.cls-67{fill:#cccdd1;}.cls-68{fill:#cbccd0;}.cls-69,.cls-70{fill-rule:evenodd;}.cls-70{fill:#f0f4fa;stroke:#000;stroke-width:1.46px;}.cls-71{fill:#1e3595;}.cls-72,.cls-73,.cls-74,.cls-75,.cls-76,.cls-77,.cls-78,.cls-79{stroke-width:1.77px;}.cls-75{fill:#dcdc39;}.cls-76,.cls-81{fill:#7ea7df;}.cls-78{fill:#d1e1f2;}.cls-79,.cls-82{fill:#adccf7;}.cls-83{fill:#331f4d;}.cls-84{fill:#c9ddf4;stroke-width:2.15px;}</style></defs><g class="cls-1"><g id="Layer_3" data-name="Layer 3"><g class="cls-2"><path class="cls-3" d="M42.4,487.09,322.1,650c24.38,13.4,63.87,12.9,88.22-1.09l196.1-112.76c24.35-14,24.33-36.21,0-49.6L326.69,323.64c-24.35-13.4-63.84-12.9-88.2,1.1l-6.28,3.61L61.34,426.61,42.4,437.5C18.05,451.51,18.05,473.71,42.4,487.09Z"/></g><path class="cls-4" d="M166.5,514.89c-4.67,2.61-4.86,6.8-.42,9.39l59.31,34.55c4.44,2.59,11.82,2.58,16.49,0l48-26.76c4.68-2.6,4.86-6.8.43-9.39L231,488.11c-4.44-2.59-11.82-2.58-16.49,0Z"/><path class="cls-5" d="M615.3,504.77,269.65,303.39c-4.91-2.86-13.09-2.84-18.27.05L5.49,440.44C.31,443.33.1,448,5,450.85L350.66,652.22c4.91,2.86,13.09,2.85,18.27,0l245.88-137C620,512.29,620.2,507.63,615.3,504.77ZM289.89,532.05l-48,26.76c-4.67,2.6-12,2.61-16.49,0l-59.31-34.55c-4.44-2.59-4.25-6.78.42-9.39l48-26.75c4.67-2.61,12-2.62,16.49,0l59.31,34.55C294.75,525.25,294.57,529.45,289.89,532.05ZM441.1,588.13,119.49,400.76,248.24,329,569.85,516.39Z"/><path class="cls-6" d="M1.64,447l0,.15a5.55,5.55,0,0,0,.57,1.18c0,.06.09.13.14.2a5.92,5.92,0,0,0,1,1.11,10.41,10.41,0,0,0,.87.66c.26.18.48.38.78.56L350.66,652.22a14.21,14.21,0,0,0,2.5,1.1l1,.29c.41.11.84.23,1.28.31s1,.2,1.56.26l.38.05c.71.08,1.44.11,2.17.12h.34c.72,0,1.44-.05,2.15-.13l.32,0a20.24,20.24,0,0,0,2.09-.35l.38-.09c.62-.16,1.23-.34,1.82-.55l.31-.1a15.38,15.38,0,0,0,2-.92l245.88-137c2.62-1.46,4-3.36,4-5.26l-.6,16.75c-.07,1.9-1.42,3.8-4,5.26l-245.89,137a13.78,13.78,0,0,1-1.9.88l-.1,0-.32.1c-.39.13-.77.28-1.17.39l-.65.16-.37.09-.35.08c-.42.09-.85.16-1.29.22l-.45.05-.33,0-.48,0c-.42,0-.85.06-1.27.07h-1.32c-.49,0-1,0-1.43-.09h-.1l-.43-.06c-.37,0-.75-.08-1.11-.15-.16,0-.3-.08-.46-.11-.44-.09-.86-.2-1.28-.31-.22-.07-.46-.1-.68-.17s-.18-.09-.28-.12a14.43,14.43,0,0,1-2.49-1.1L4.41,467.6l-.15-.1c-.25-.15-.41-.32-.63-.46a10.62,10.62,0,0,1-.88-.66l-.08-.06a7.49,7.49,0,0,1-.77-.85c0-.06-.08-.13-.13-.2l-.13-.21a3.39,3.39,0,0,1-.23-.34A5.7,5.7,0,0,1,1.1,464a.35.35,0,0,1,0-.11.5.5,0,0,0,0-.13c0-.16-.09-.32-.12-.47a5.84,5.84,0,0,1-.05-.73v-.11l.61-16.75A4.12,4.12,0,0,0,1.64,447Z"/><polygon class="cls-7" points="246.19 321.81 112.23 396.45 446.88 591.43 580.84 516.78 246.19 321.81"/><path class="cls-5" d="M626.45,211.89,278.5,10.53c-4.95-2.87-9.16-.56-9.4,5.17L257.73,287.52c-.25,5.72,3.57,12.68,8.53,15.55L614.2,504.43c5,2.87,9.17.56,9.41-5.17L635,227.44C635.22,221.72,631.41,214.76,626.45,211.89ZM451.87,125.68a7,7,0,0,1-3.17-5.76c.09-2.12,1.65-3,3.49-1.91a7,7,0,0,1,3.17,5.75C455.27,125.89,453.7,126.74,451.87,125.68Z"/><path class="cls-8" d="M268.47,266.09c-.54,6.37,3.52,14.35,9,17.79l326,190.85c6.24,3.93,11.79,1.61,12.39-5.18l9.14-225.77c.6-6.83-4-15.29-10.27-18.93L292.09,37.21c-6.17-2.45-14.86,2.17-15.21,7.9Z"/><path class="cls-9" d="M287.33,64.89a1.55,1.55,0,0,1,0-.22s0,0,0,0a2.11,2.11,0,0,0,0-.26s0,0,0-.05l0-.22s0,0,0,0a.06.06,0,0,0,0,0,.5.5,0,0,0,0-.12s0-.06,0-.09l0-.12s0-.06,0-.1l0-.11,0-.1a.49.49,0,0,0,0-.11.25.25,0,0,0,0-.07v0l-.12-.33a.14.14,0,0,1,0-.06l-.14-.32v0s0,0,0,0l-.17-.34s0,0,0,0-.13-.23-.19-.34h0l0,0-.09-.16-.05-.07a.83.83,0,0,1-.08-.12l-.06-.08-.08-.12,0-.07-.09-.12,0,0,0,0-.13-.17,0,0-.18-.19,0,0a1.21,1.21,0,0,0-.16-.16l-.05-.06-.14-.12L285,60l-.19-.16,0,0-.18-.13-.06-.05-.15-.1-.06,0a1.37,1.37,0,0,0-.2-.13l-.18-.1-.07,0-.12-.06-.07,0-.11-.05-.07,0-.11,0,0,0h0l-.1,0-.07,0-.1,0H283l-.1,0h-.83L282,59,282,59s-.05,0-.08,0l0,0-.12,0-.65.36.11-.06.05,0,.07,0h.06l.07,0h.06l.07,0h.8l.07,0,.1,0,.07,0,.1,0,.06,0,.12.05.06,0,.13.05.06,0,.13.06.05,0,.19.1a1.37,1.37,0,0,1,.2.13l.06,0,.15.1.06,0,.18.15h0l.19.17s0,0,0,0l.15.14,0,0,.16.16,0,0,.18.2,0,0,.14.16,0,0,.27.37,0,0c.09.13.17.27.25.41h0l.19.35s0,0,0,0l.17.34a.05.05,0,0,0,0,0c.05.11.09.22.14.34s0,0,0,0a2.79,2.79,0,0,1,.12.34l0,.08a.56.56,0,0,0,0,.12l0,.09,0,.13a.19.19,0,0,0,0,.08l0,.13,0,.08,0,.14a.13.13,0,0,1,0,.06,2.07,2.07,0,0,1,0,.22.07.07,0,0,0,0,0c0,.09,0,.18,0,.26a.13.13,0,0,0,0,.06v.2a.22.22,0,0,1,0,.08,2.18,2.18,0,0,1,0,.25,2.4,2.4,0,0,1-1.09,2.14l.66-.35a2.41,2.41,0,0,0,1.08-2.15,2.26,2.26,0,0,0,0-.26Z"/><path class="cls-10" d="M283.49,59.75c-1.85-1.08-3.42-.23-3.52,1.89V62a7.27,7.27,0,0,0,2.77,5.15l.41.27c1.85,1.08,3.43.24,3.52-1.89A7,7,0,0,0,283.49,59.75Z"/><path class="cls-9" d="M296.48,69.47a1.55,1.55,0,0,0,0-.22v0a2.3,2.3,0,0,0,0-.26v0a1.85,1.85,0,0,0,0-.23v0a.09.09,0,0,1,0,0,.36.36,0,0,1,0-.11.44.44,0,0,1,0-.1l0-.11,0-.1,0-.11,0-.11,0-.1s0,0,0-.08v0c0-.11-.07-.22-.11-.33l0-.06c0-.11-.09-.21-.13-.32a0,0,0,0,1,0,0l0,0a3.54,3.54,0,0,0-.16-.34l0,0-.19-.35h0a.05.05,0,0,1,0,0,1.4,1.4,0,0,1-.1-.16l-.05-.07-.08-.13a.22.22,0,0,1-.05-.08l-.09-.11-.05-.08-.09-.12,0,0s0,0,0,0-.09-.11-.13-.16l0-.05-.18-.2,0,0-.15-.16-.05,0-.14-.13-.05,0-.2-.17h0l-.17-.14-.06,0-.15-.1-.06,0-.2-.13-.19-.1-.07,0-.12-.06-.07,0-.11,0-.07,0-.11,0h-.07l-.1,0-.07,0-.1,0h-.07l-.09,0h-.84l-.07,0-.06,0-.07,0H291l-.11.06-.66.36.12-.06,0,0,.08,0,.05,0,.07,0h.06l.07,0h.81l.07,0,.09,0,.08,0,.1,0,.06,0,.12,0,.06,0,.13,0,.06,0,.14.06,0,0,.19.1.21.13.06,0,.15.1.05,0a1.33,1.33,0,0,1,.19.14h0l.19.17.05,0,.15.14s0,0,.05.05l.16.17s0,0,0,0a1.63,1.63,0,0,1,.17.2s0,0,0,0l.13.17,0,0c.09.13.19.25.27.37l0,0c.09.13.17.27.25.4h0L295,67s0,0,0,0l.17.34,0,0c.05.11.09.23.14.34s0,0,0,0l.12.33a.24.24,0,0,1,0,.08.5.5,0,0,1,0,.13l0,.08,0,.13s0,0,0,.08l0,.14s0,0,0,.08l0,.13s0,0,0,.07l0,.22v0l0,.25v.07c0,.06,0,.13,0,.2v.32a2.43,2.43,0,0,1-1.09,2.15l.65-.36a2.41,2.41,0,0,0,1.09-2.15,1,1,0,0,0,0-.25Z"/><path class="cls-10" d="M292.63,64.31c-1.85-1.08-3.43-.24-3.53,1.9,0,.13,0,.26,0,.39a7.2,7.2,0,0,0,2.77,5.16l.42.28c1.85,1.08,3.43.24,3.53-1.9A7.09,7.09,0,0,0,292.63,64.31Z"/><path class="cls-9" d="M305.67,74.06a1.62,1.62,0,0,0,0-.22v0l0-.26v0a1.85,1.85,0,0,0,0-.23v-.08l0-.11a.3.3,0,0,0,0-.1.36.36,0,0,0,0-.11l0-.11,0-.11,0-.1,0-.11a.64.64,0,0,1,0-.07v0l-.12-.33a.14.14,0,0,0,0-.06,3.09,3.09,0,0,0-.14-.32v0s0,0,0,0l-.16-.33,0,0c-.06-.12-.13-.23-.19-.34h0l0,0a.86.86,0,0,0-.1-.16.35.35,0,0,0-.05-.08.83.83,0,0,0-.08-.12.22.22,0,0,0-.05-.08.83.83,0,0,1-.08-.12l-.06-.08a1.25,1.25,0,0,1-.09-.12l0,0,0,0a1.83,1.83,0,0,0-.13-.16l0,0-.17-.2,0,0-.15-.16-.06-.05-.14-.13-.05,0-.19-.17h0l-.17-.14-.06,0-.15-.1-.06,0-.21-.13-.18-.1-.07,0-.12-.06-.07,0-.11,0-.07,0-.12,0h-.07l-.09,0-.08,0-.09,0-.07,0h-.94l-.07,0-.06,0-.07,0-.05,0-.11.06-.66.36a.67.67,0,0,1,.12-.06l0,0,.08,0,0,0,.07,0,.06,0h.13l.08,0h.74l.1,0h.07l.1,0,.07,0,.12,0,.06,0,.12,0,.06,0,.14.06.05,0,.19.11a1.37,1.37,0,0,1,.2.13l.06,0,.15.1.06,0,.19.14a0,0,0,0,0,0,0l.19.17.05,0,.15.14s0,0,.05.05l.16.17,0,0,.18.2,0,0,.14.16,0,0a3.18,3.18,0,0,1,.27.37l0,0c.09.13.18.27.26.41h0c.07.11.13.23.19.34l0,0,.17.35s0,0,0,0a3.45,3.45,0,0,1,.14.34.08.08,0,0,1,0,0c.05.12.09.23.13.34a.24.24,0,0,0,0,.08s0,.08,0,.12l0,.09a.65.65,0,0,1,0,.13.24.24,0,0,0,0,.08l0,.13s0,.06,0,.09,0,.08,0,.13a.64.64,0,0,1,0,.07l0,.22s0,0,0,0a2.28,2.28,0,0,1,0,.26.13.13,0,0,1,0,.06,1.34,1.34,0,0,0,0,.2v.32a2.45,2.45,0,0,1-1.1,2.16l.66-.36a2.42,2.42,0,0,0,1.09-2.16,2.08,2.08,0,0,0,0-.25Z"/><path class="cls-10" d="M301.81,68.89c-1.86-1.09-3.45-.24-3.54,1.89a2.67,2.67,0,0,0,0,.4,7.3,7.3,0,0,0,2.79,5.18c.13.09.27.19.41.27,1.87,1.09,3.45.24,3.55-1.9A7.1,7.1,0,0,0,301.81,68.89Z"/><path class="cls-6" d="M650,219c0-.57-.08-2-.09-2.06s-.09-.74-.13-1-.14-.69-.22-1c0-.1-.05-.2-.08-.31s0-.12,0-.18-.3-1-.39-1.28-.2-.54-.31-.81l0,0s-.21-.5-.31-.74-.59-1.19-.7-1.39l0-.07a.61.61,0,0,0,0-.06c-.14-.26-.77-1.29-.94-1.54a3.55,3.55,0,0,0-.23-.31c0-.07-.08-.12-.12-.18s-.15-.22-.23-.32c-.23-.31-.93-1.14-1-1.26l-.29-.32c-.11-.12-.22-.25-.33-.36s-.52-.47-.78-.7l-.52-.46a14.46,14.46,0,0,0-1.68-1.17L293.56,2.09a18.36,18.36,0,0,0-1.67-.77c-.1,0-2.08-.46-2.14-.46a10.79,10.79,0,0,0-1.16.07l-.12,0h-.07l-.33.08a4.2,4.2,0,0,0-.5.17,3.88,3.88,0,0,0-.46.22l-.06,0L272,9.91a4.39,4.39,0,0,1,1.34-.49l.08,0a6,6,0,0,1,1.48-.08l.13,0a7,7,0,0,1,1.49.32,16.1,16.1,0,0,1,2,.87h0l348,201.36a15.37,15.37,0,0,1,1.68,1.17l.51.46c.38.34.76.68,1.12,1.07l.29.31a18.15,18.15,0,0,1,1.28,1.59l.12.16a18.91,18.91,0,0,1,1.2,1.93l0,0a19.31,19.31,0,0,1,1,2.11s0,0,0,0a18.34,18.34,0,0,1,.71,2.13,1.21,1.21,0,0,1,.05.18,15.58,15.58,0,0,1,.39,2c0,.1,0,.21,0,.32a14.36,14.36,0,0,1,.08,2.06L623.61,499.26h0c-.12,2.84-1.22,4.85-2.9,5.79l15.06-8.44c1.67-.94,2.77-2.95,2.89-5.79Z"/><path class="cls-11" d="M452.19,118c-1.84-1.06-3.4-.21-3.49,1.91a7,7,0,0,0,3.17,5.76c1.83,1.06,3.4.21,3.49-1.92A7,7,0,0,0,452.19,118Z"/><path class="cls-12" d="M570.61,511.86l-12.15,6.78a4.18,4.18,0,0,1-1.06.41h0a5.81,5.81,0,0,1-1.16.13h-.06a4.94,4.94,0,0,1-1.1-.13.3.3,0,0,1-.11,0,3.41,3.41,0,0,1-1-.38l-15.08-8.75a2.87,2.87,0,0,1-.56-.52l10.57-5.91a1.65,1.65,0,0,0,1-1.27L550,498a1.61,1.61,0,0,1-1,1.28l-12.15,6.77a4.06,4.06,0,0,1-1,.39l-.05,0a6.65,6.65,0,0,1-1.17.13h0a4.65,4.65,0,0,1-1.09-.13.89.89,0,0,0-.17,0,3.36,3.36,0,0,1-.95-.37l-15.08-8.79a2,2,0,0,1-.58-.52l10.57-5.88a1.67,1.67,0,0,0,1-1.28l.13-4.19a1.59,1.59,0,0,1-1,1.29l-12.15,6.78a4.61,4.61,0,0,1-1,.38h0A5.37,5.37,0,0,1,513,494h0a7.49,7.49,0,0,1-1.1-.1.52.52,0,0,0-.16-.06,3.34,3.34,0,0,1-.95-.35l-15.11-8.79a2.27,2.27,0,0,1-.55-.51l10.57-5.88a1.65,1.65,0,0,0,1-1.3l.16-4.18a1.68,1.68,0,0,1-1,1.27l-12.15,6.78a4.33,4.33,0,0,1-1.06.41h0a5.2,5.2,0,0,1-1.17.14h0a6.75,6.75,0,0,1-1.12-.11l-.14-.06a3.56,3.56,0,0,1-1-.34l-15.07-8.79a3.11,3.11,0,0,1-.59-.54l10.57-5.88a1.62,1.62,0,0,0,1-1.28l.17-4.2a1.22,1.22,0,0,1-.28.7,2.93,2.93,0,0,1-.71.61l-12.15,6.77a4.68,4.68,0,0,1-1.07.38s0,0-.06,0a5.32,5.32,0,0,1-1.16.11h0a4.86,4.86,0,0,1-1.09-.11l-.14,0a6.25,6.25,0,0,1-1-.38l-15.08-8.79a2.1,2.1,0,0,1-.56-.49l10.58-5.9a1.66,1.66,0,0,0,1-1.28l.13-4.2a1.29,1.29,0,0,1-.25.7,2.37,2.37,0,0,1-.71.59l-12.15,6.79a4.75,4.75,0,0,1-1.06.37.09.09,0,0,0-.06,0,5.39,5.39,0,0,1-1.17.12h0a4.89,4.89,0,0,1-1.1-.11.32.32,0,0,0-.16,0,5.19,5.19,0,0,1-1-.38L430.9,447a1.88,1.88,0,0,1-.62-.55l10.55-5.87a1.68,1.68,0,0,0,1-1.31l.13-4.17a1.61,1.61,0,0,1-1,1.27l-12.18,6.78a6.14,6.14,0,0,1-1,.41h0a5.86,5.86,0,0,1-1.19.13h0a4.94,4.94,0,0,1-1.1-.14.3.3,0,0,1-.11,0,3.58,3.58,0,0,1-1-.37l-15.08-8.79a1.69,1.69,0,0,1-.56-.49L419.25,428a1.71,1.71,0,0,0,1-1.3l.14-4.18a1.62,1.62,0,0,1-1,1.28l-12.15,6.78a5,5,0,0,1-1,.4h-.05a5.67,5.67,0,0,1-1.17.14h0a5.43,5.43,0,0,1-1.1-.13.74.74,0,0,0-.16,0,3.1,3.1,0,0,1-.95-.38l-15.11-8.78a1.72,1.72,0,0,1-.55-.52l10.57-5.88a1.63,1.63,0,0,0,1-1.27l.16-4.21a1.63,1.63,0,0,1-1,1.31L385.64,418a3.56,3.56,0,0,1-1,.4h-.06a5.11,5.11,0,0,1-1.16.14h-.06a6.83,6.83,0,0,1-1.1-.11s-.08,0-.13-.05a3.23,3.23,0,0,1-.95-.35l-15.08-8.79a2,2,0,0,1-.59-.52l10.58-5.87a1.67,1.67,0,0,0,1-1.3l.16-4.19a1.7,1.7,0,0,1-1,1.29l-12.15,6.77a4.74,4.74,0,0,1-1.07.41h-.05a6,6,0,0,1-1.17.14h0a7.59,7.59,0,0,1-1.1-.11s-.11,0-.14-.05a3.93,3.93,0,0,1-1-.35l-15.07-8.79a1.78,1.78,0,0,1-.56-.52l10.54-5.9a1.64,1.64,0,0,0,1-1.28l.16-4.17a1.67,1.67,0,0,1-1,1.28l-12.15,6.77a4.36,4.36,0,0,1-1.07.38l0,0a5.08,5.08,0,0,1-1.16.12h0a5.1,5.1,0,0,1-1.13-.11c-.05,0-.1,0-.16,0a4.49,4.49,0,0,1-.95-.38L322.85,384a1.72,1.72,0,0,1-.56-.49l10.58-5.9a1.67,1.67,0,0,0,1-1.28l.14-4.2a1.66,1.66,0,0,1-1,1.3l-12.15,6.77a4.39,4.39,0,0,1-1,.39l-.06,0a5.59,5.59,0,0,1-1.17.12h0a5,5,0,0,1-1.1-.11l-.17,0a4.71,4.71,0,0,1-.95-.38l-15.07-8.79a2.16,2.16,0,0,1-.67-.57v0a.09.09,0,0,1,0-.08l10.47-5.85a1.66,1.66,0,0,0,1-1.28l.13-4.12a1.65,1.65,0,0,1-1,1.22l-12.15,6.78a4.15,4.15,0,0,1-1.06.38l0,0a5.88,5.88,0,0,1-1.2.12h0a4.89,4.89,0,0,1-1.1-.11c-.06,0-.11,0-.16-.06a3.33,3.33,0,0,1-1-.35l-15.07-8.78a1.76,1.76,0,0,1-.56-.51l10.57-5.88a1.7,1.7,0,0,0,1-1.28l.14-4.21a1.7,1.7,0,0,1-1,1.31l-12.16,6.77a4.88,4.88,0,0,1-1,.39h0a5,5,0,0,1-1.19.13h0a5,5,0,0,1-1.1-.1c-.05,0-.11,0-.16-.06a3.23,3.23,0,0,1-1-.35l-15.08-8.79c-.11-.05-.16-.14-.24-.22L268.3,340a1.61,1.61,0,0,0,1-1.27l.16-4.2a1.67,1.67,0,0,1-1,1.3l-12.15,6.78a4.14,4.14,0,0,1-1.06.37,0,0,0,0,0,0,0,5.79,5.79,0,0,1-1.17.11H254a5.06,5.06,0,0,1-1.1-.1c-.06,0-.08,0-.14,0a4.66,4.66,0,0,1-1-.38l-15.08-8.79a1.73,1.73,0,0,1-.64-.57l0,0a1.3,1.3,0,0,1-.19-.68l-.16,4.2v0s0,.11,0,.16,0,.14.05.19l.08.17c0,.05,0,.07,0,.1l0,0,.05.06a1.12,1.12,0,0,0,.18.21,4.2,4.2,0,0,0,.38.3h0l15.11,8.79a2.15,2.15,0,0,0,.68.29,1,1,0,0,0,.27.09.89.89,0,0,0,.17,0,1,1,0,0,1,.16.05c.11,0,.25,0,.38.05l.36,0H254l.31,0c.11,0,.22,0,.3,0s.22,0,.33,0l.09,0h.05l.2-.05a2,2,0,0,0,.39-.14,3.51,3.51,0,0,0,.48-.22l.78-.43-.07,2.73v0a.48.48,0,0,0,0,.17,1.83,1.83,0,0,1,0,.19l.07.15s0,.09.08.12l0,0a.08.08,0,0,0,0,.05.79.79,0,0,0,.19.22,2.31,2.31,0,0,0,.4.27,0,0,0,0,0,0,0l15.07,8.78a3.47,3.47,0,0,0,.68.31,1.67,1.67,0,0,1,.3.08.33.33,0,0,0,.14,0s.11,0,.16.06.28,0,.42.05a1.27,1.27,0,0,1,.33,0h.33l.33,0c.08,0,.19,0,.3,0a2.51,2.51,0,0,0,.31-.05l.08,0s.09,0,.09,0l.16,0,.42-.13a5.11,5.11,0,0,0,.48-.22l1.24-.71-.13,3.26v0a.5.5,0,0,0,0,.17.41.41,0,0,0,.05.18c0,.06.05.12.08.17a.31.31,0,0,0,.05.11l0,0s0,0,0,0,.13.16.18.25a2.9,2.9,0,0,0,.41.27l0,0,6.64,3.87a1.34,1.34,0,0,1-.31.27l-12.16,6.78a4.18,4.18,0,0,1-1.06.41h0a5.81,5.81,0,0,1-1.16.13h0a4.94,4.94,0,0,1-1.1-.13l-.16,0a3.32,3.32,0,0,1-.95-.38L218.1,344.2a2.28,2.28,0,0,1-.67-.57v0a1,1,0,0,1-.23-.68l-.13,4.21v0a.29.29,0,0,0,0,.16,1.37,1.37,0,0,1,0,.19l.08.16a.35.35,0,0,0,.08.11l0,0,0,.05c.05.09.14.14.19.22a2.31,2.31,0,0,0,.4.3h0L232.72,357a2.17,2.17,0,0,1-.46.38l-12.15,6.78a4.3,4.3,0,0,1-1,.39h0a4.34,4.34,0,0,1-1.14.13h0a8,8,0,0,1-1.13-.11l-.14-.05a3.67,3.67,0,0,1-1-.35l-16.32-9.5a2,2,0,0,1-.64-.59l0,0a1.22,1.22,0,0,1-.19-.65l-.16,4.2a1.68,1.68,0,0,0,0,.2.27.27,0,0,0,.05.16l.07.19.05.06,0,.05a.1.1,0,0,1,0,.05c.08.08.13.17.22.22a1.48,1.48,0,0,0,.37.29l0,0,9.93,5.76a1.55,1.55,0,0,1-.41.35L178,382.06a3.89,3.89,0,0,1-1,.37l-.05,0a4.9,4.9,0,0,1-1.17.11h0a4.37,4.37,0,0,1-1.1-.12.12.12,0,0,1-.08,0,4.82,4.82,0,0,1-1-.38l-11.41-6.65a2.58,2.58,0,0,1-.66-.59v0a.93.93,0,0,1-.22-.64l-.14,4.17v0a.43.43,0,0,0,0,.2,1.09,1.09,0,0,1,0,.15.42.42,0,0,0,.1.2l.05.1s0,0,0,0a.16.16,0,0,1,0,.06l.18.19a1.55,1.55,0,0,0,.4.3l0,0,9.93,5.79c-.15.1-.23.24-.43.32l-30.79,17.17a4.29,4.29,0,0,1-1.06.38,0,0,0,0,1,0,0,5.81,5.81,0,0,1-1.16.13h-.06a5.16,5.16,0,0,1-1.1-.13.49.49,0,0,0-.13,0,3.05,3.05,0,0,1-1-.37l-11.43-6.65a1.73,1.73,0,0,1-.64-.57l0,0a1.14,1.14,0,0,1-.19-.65l-.17,4.2a1,1,0,0,1,0,.19c0,.06,0,.12.05.17a1.21,1.21,0,0,1,.08.19l.08.07v0a.08.08,0,0,1,0,.05,2.23,2.23,0,0,0,.21.22c.11.11.24.18.38.3l0,0L136,407.08a4.23,4.23,0,0,0,.68.3c.11,0,.19,0,.3.05s.08,0,.14.05.1,0,.16,0a1.93,1.93,0,0,0,.41.06,1.23,1.23,0,0,0,.33,0h.63l.34-.06a1.07,1.07,0,0,0,.3-.06c.06,0,.09,0,.12,0h0a.87.87,0,0,0,.19-.05,3.38,3.38,0,0,0,.42-.13,4.66,4.66,0,0,0,.45-.22L160,396.22l-.11,2.73v0a.5.5,0,0,0,0,.17.53.53,0,0,0,.05.18.22.22,0,0,0,.08.17.09.09,0,0,0,.05.1l0,0a.1.1,0,0,1,0,.06c0,.08.13.13.19.21l.4.31h0l17.21,10a2.41,2.41,0,0,0,.71.3,1.46,1.46,0,0,0,.27.08c.06,0,.08,0,.14,0l.19.05c.11,0,.24,0,.38.06l.36,0h.33l.33,0c.11,0,.2,0,.31,0s.22,0,.3-.06l.11,0h0a1,1,0,0,0,.2-.05,1.21,1.21,0,0,0,.39-.14,2.81,2.81,0,0,0,.47-.21l1.36-.74-.13,3.34v0c0,.05,0,.1,0,.16a.38.38,0,0,0,.05.19l.07.16.05.08,0,.06s0,.05,0,.05a2.23,2.23,0,0,0,.21.22,1.76,1.76,0,0,0,.37.29l0,0,8.55,4.95a2.65,2.65,0,0,0,.68.32c.08,0,.19,0,.27.06a1,1,0,0,0,.16.05c.06,0,.11,0,.17,0a2.7,2.7,0,0,0,.41.05,1.46,1.46,0,0,0,.36,0h.33a.92.92,0,0,0,.3,0,1.23,1.23,0,0,0,.33,0,1.3,1.3,0,0,0,.31-.06s.06,0,.08,0h.06c.06,0,.14,0,.19-.06s.26-.08.4-.1l.44-.22,2-1.12-.13,4.07v0a.23.23,0,0,0,0,.16.36.36,0,0,0,0,.19.32.32,0,0,0,.08.16.31.31,0,0,0,.05.11l0,0s0,0,0,0a2.88,2.88,0,0,0,.19.24,2.31,2.31,0,0,0,.4.3h0l2.64,1.54a1.61,1.61,0,0,1-.37.3l-12.15,6.77a4.76,4.76,0,0,1-1,.39l0,0a6,6,0,0,1-1.19.14h0a5.35,5.35,0,0,1-1.1-.13.89.89,0,0,0-.17,0,3.37,3.37,0,0,1-.95-.38l-15.07-8.79a1.73,1.73,0,0,1-.59-.49l10.57-5.9a1.62,1.62,0,0,0,1-1.27l.16-4.21a1.7,1.7,0,0,1-1,1.31l-12.15,6.77a4.15,4.15,0,0,1-1.06.38,0,0,0,0,0,0,0,5.76,5.76,0,0,1-1.16.11h-.06a5.13,5.13,0,0,1-1.1-.11s-.08,0-.14,0a4.17,4.17,0,0,1-1-.38l-15.08-8.78a1.91,1.91,0,0,1-.64-.57l0,0a1.25,1.25,0,0,1-.19-.68l-.17,4.24c0,.05,0,.1,0,.16s0,.14,0,.19,0,.11.08.17l.05.08a.06.06,0,0,1,0,.05.12.12,0,0,0,0,.05.93.93,0,0,0,.19.22c.1.1.24.19.37.3h.05l15.08,8.79a3.26,3.26,0,0,0,.68.32,2.56,2.56,0,0,1,.27.05.27.27,0,0,0,.11,0,1.06,1.06,0,0,0,.22.06c.11,0,.25,0,.39.05l.35,0h.33a1.05,1.05,0,0,0,.31,0l.3,0c.11,0,.23,0,.34-.06l.08,0h0a1.67,1.67,0,0,0,.2-.06,1.21,1.21,0,0,0,.39-.14,2.32,2.32,0,0,0,.48-.21l1.24-.68-.1,3.23v.18c0,.06,0,.14,0,.2l.08.16a.21.21,0,0,0,.08.1l0,0v0l.21.22a1.55,1.55,0,0,0,.4.3,0,0,0,0,1,0,0l15.08,8.78a4.23,4.23,0,0,0,.68.3,2.68,2.68,0,0,0,.3.05s.08,0,.13.06.11,0,.17,0a1.84,1.84,0,0,0,.41.05c.11,0,.22,0,.36,0h.33a1.13,1.13,0,0,0,.3,0,1,1,0,0,0,.31,0,1.26,1.26,0,0,0,.33-.05l.11,0h0s.14,0,.19-.06a1.7,1.7,0,0,0,.4-.13,3.38,3.38,0,0,0,.47-.22l1.47-.81-.14,3.52a.92.92,0,0,1,0,.19,1,1,0,0,1,0,.16c0,.05.05.11.08.17a.27.27,0,0,0,.08.1v0s0,.05,0,.05l.21.22a4.2,4.2,0,0,0,.38.3s0,0,.05,0l15.08,8.79a5.35,5.35,0,0,0,.68.29c.08,0,.19,0,.27.06a.44.44,0,0,0,.16,0,.39.39,0,0,0,.17.06,2.32,2.32,0,0,0,.38.05c.14,0,.25,0,.36,0H210a95.93,95.93,0,0,1,.61-.06,1.28,1.28,0,0,0,.33-.06l.11,0h.06c.05,0,.11,0,.17-.06a1.82,1.82,0,0,0,.39-.14,2.3,2.3,0,0,0,.48-.22l1.23-.67-.09,3.23v0a.34.34,0,0,0,0,.17,1,1,0,0,0,0,.19,1.13,1.13,0,0,1,.07.18l.08.09,0,0a.13.13,0,0,0,0,.06,1,1,0,0,0,.19.21,1.4,1.4,0,0,0,.4.3l0,0,15.1,8.78a3.56,3.56,0,0,0,.65.31c.11,0,.19,0,.3.05l.14,0a.3.3,0,0,1,.11,0c.19,0,.33.05.46.05a1.34,1.34,0,0,0,.36,0h.33a1.16,1.16,0,0,0,.31,0,.92.92,0,0,0,.3,0,1.2,1.2,0,0,0,.33-.05.23.23,0,0,0,.12,0h0a1.67,1.67,0,0,0,.2-.06,1.49,1.49,0,0,0,.39-.13,3,3,0,0,0,.48-.22l1.24-.68-.1,3.26v.19a.35.35,0,0,1,0,.18,1.22,1.22,0,0,1,.07.17.44.44,0,0,1,.08.11v0s0,0,.06.06.1.13.18.22a2.78,2.78,0,0,0,.4.26l0,0,101.52,59.16a4.23,4.23,0,0,0,.68.3c.11,0,.19,0,.3,0s.08,0,.13.06a.24.24,0,0,1,.11,0c.19,0,.33,0,.47,0a1.23,1.23,0,0,0,.33,0h.33a1.48,1.48,0,0,0,.31,0,1.27,1.27,0,0,0,.33,0,1.57,1.57,0,0,0,.3,0l.09,0h0a1.67,1.67,0,0,0,.2-.06,3.38,3.38,0,0,0,.42-.13c.16-.06.3-.14.47-.22l1.24-.68-.12,3.26a.34.34,0,0,0,0,.19.28.28,0,0,0,0,.15.29.29,0,0,0,.08.19.14.14,0,0,0,.05.09v0s.05.05.05.08l.19.19a3.81,3.81,0,0,0,.4.29,0,0,0,0,1,0,0l15.08,8.79a3.78,3.78,0,0,0,.7.29c.08,0,.16,0,.27.06l.14,0c.06,0,.11,0,.19,0a2.18,2.18,0,0,0,.39,0,1.46,1.46,0,0,0,.35,0h.66c.09,0,.2,0,.31-.06a1.44,1.44,0,0,0,.31-.05c.05,0,.08,0,.11,0h0a1.09,1.09,0,0,1,.17,0l.39-.11c.17-.09.34-.14.48-.22l1.27-.7-.13,3.25v0a.39.39,0,0,0,0,.15.38.38,0,0,0,0,.19.39.39,0,0,0,.07.17.24.24,0,0,0,.06.11l0,0a0,0,0,0,0,0,0,1.64,1.64,0,0,0,.19.25,2.5,2.5,0,0,0,.4.27l0,0,15.08,8.78a3,3,0,0,0,.7.29c.09,0,.19.06.28.09a.49.49,0,0,0,.13,0,1.09,1.09,0,0,0,.17,0c.14,0,.27,0,.41.05a1.46,1.46,0,0,1,.35,0h.31a1.23,1.23,0,0,1,.33,0c.11,0,.2,0,.31,0s.22,0,.33-.05,0,0,.11,0l0,0,.19,0,.39-.14a1.91,1.91,0,0,0,.48-.22l1.24-.7L386,552v0a.92.92,0,0,0,0,.19s0,.11,0,.19,0,.11.08.16.05.09.08.11v0l.05,0a.93.93,0,0,0,.19.21,1.91,1.91,0,0,0,.4.31l0,0L402,562a2.94,2.94,0,0,0,.68.3l.27.08c.06,0,.11,0,.17,0a1,1,0,0,1,.16,0c.11,0,.25,0,.39.06l.35,0h.33l.34,0c.08,0,.19,0,.3,0l.33-.06.09,0h0a1.42,1.42,0,0,1,.22-.05l.39-.13a3.77,3.77,0,0,0,.45-.22l1.27-.71-.13,3.28a.62.62,0,0,1,0,.19c0,.06,0,.11,0,.16a1,1,0,0,0,.07.19.34.34,0,0,1,.08.09v0s0,.06.06.08a1.08,1.08,0,0,0,.18.2,2.16,2.16,0,0,0,.37.29l.06,0,15.07,8.8a4.79,4.79,0,0,0,.68.3,1.41,1.41,0,0,0,.27,0,1.54,1.54,0,0,0,.17,0,.24.24,0,0,1,.11,0c.19,0,.33,0,.47,0a1.94,1.94,0,0,0,.35,0h.64a2.08,2.08,0,0,0,.3,0,1.35,1.35,0,0,0,.34-.06H427l0,0a.48.48,0,0,0,.22-.06,1.43,1.43,0,0,0,.39-.11l.48-.21,1.21-.68-.09,3.2v.21c0,.06,0,.11,0,.17s.05.13.08.19l.08.07v0s0,.06.05.09a1.7,1.7,0,0,0,.19.18,1.24,1.24,0,0,0,.4.3,0,0,0,0,0,0,0l11.7,6.82a4.34,4.34,0,0,0,.68.29l.27.08a.24.24,0,0,1,.11,0,.34.34,0,0,1,.14,0c.19,0,.33.05.47.05a2,2,0,0,0,.35,0h.64c.11,0,.22,0,.33,0a1.81,1.81,0,0,0,.31-.05h.11l0,0a.43.43,0,0,0,.2-.06,1.63,1.63,0,0,0,.42-.11c.14-.08.3-.13.45-.22l12.15-6.77a1.64,1.64,0,0,0,1-1.3l.15-4a.62.62,0,0,0,.2,0,1.28,1.28,0,0,0,.33-.06h.08l0,0a.59.59,0,0,0,.22-.05,3.75,3.75,0,0,0,.39-.1,3.29,3.29,0,0,0,.46-.23l12.15-6.77a1.59,1.59,0,0,0,1-1.3l.12-3,4.72,2.76a2.68,2.68,0,0,0,.68.27.7.7,0,0,0,.27.08c.06,0,.11,0,.17,0a.52.52,0,0,1,.16.06c.14,0,.28,0,.41.05s.22,0,.36,0h.33a1.24,1.24,0,0,0,.31,0,.92.92,0,0,0,.3,0c.11,0,.22,0,.33-.06l.06,0h.08a1.46,1.46,0,0,0,.2,0,2,2,0,0,0,.39-.13l.45-.2,12.15-6.77a1.69,1.69,0,0,0,1-1.3l.11-2.8.86.51a3,3,0,0,0,.68.3c.08,0,.19,0,.27.06s.11,0,.14,0a.21.21,0,0,1,.11,0,3.23,3.23,0,0,0,.46.06,1.46,1.46,0,0,0,.36,0h.33a1,1,0,0,0,.31,0,1.23,1.23,0,0,0,.33,0,1.44,1.44,0,0,0,.31-.05.12.12,0,0,0,.08,0h.05l.2,0a3.45,3.45,0,0,0,.42-.14,4.66,4.66,0,0,0,.45-.22l12.15-6.75a1.65,1.65,0,0,0,1-1.3l.11-2.82.89.51a2.4,2.4,0,0,0,.67.3l.28.08s.08,0,.13,0a1.09,1.09,0,0,1,.17.05,1.93,1.93,0,0,1,.41.06h.36l.11,0h.22l.3,0,.34,0a1.07,1.07,0,0,1,.3-.06.09.09,0,0,1,.06,0l.08,0,.2,0c.13-.05.27-.08.39-.14a2.31,2.31,0,0,0,.45-.21l12.15-6.78a1.64,1.64,0,0,0,1-1.3l.14-4.18a1.65,1.65,0,0,1-1,1.3l-12.15,6.78a4.94,4.94,0,0,1-1,.38h0a4.43,4.43,0,0,1-1.19.13h0a6.43,6.43,0,0,1-1.1-.1,1.09,1.09,0,0,0-.17-.05,4.18,4.18,0,0,1-1-.35l-33-19.23a1.82,1.82,0,0,1-.64-.57,0,0,0,0,0,0,0,1.42,1.42,0,0,0-.05-.16l10.41-5.79a1.7,1.7,0,0,0,1-1.31l.11-2.88,12.08,7.06a4.23,4.23,0,0,0,.68.3l.27.08.16,0a.58.58,0,0,1,.17.06,2,2,0,0,1,.41.06h.55s.08,0,.11,0h.3c.12,0,.23,0,.31,0a1.28,1.28,0,0,1,.33-.06.11.11,0,0,1,.09,0l.06,0,.19,0a3,3,0,0,1,.39-.13,2.12,2.12,0,0,0,.45-.23l1.27-.7-.13,3.26a.82.82,0,0,1,0,.18.49.49,0,0,0,.05.16c0,.06,0,.14.08.19l.05.06,0,.05s0,.06.06.09a1,1,0,0,0,.18.18,1.74,1.74,0,0,0,.37.3l.06,0,15.07,8.79a5.15,5.15,0,0,0,.68.29l.27.09a.31.31,0,0,1,.12,0,.36.36,0,0,1,.21.05,1.84,1.84,0,0,1,.41,0,1.31,1.31,0,0,1,.36,0h.34c.11,0,.19,0,.3,0s.22,0,.3,0,.23,0,.34-.05l0,0h.06a1.74,1.74,0,0,0,.22,0,2.93,2.93,0,0,1,.39-.14,4.66,4.66,0,0,0,.45-.22l.34-.19,11.82-6.58a1.62,1.62,0,0,0,1-1.28l.11-2.82,7.93,4.62a3.87,3.87,0,0,0,.68.3,2.56,2.56,0,0,1,.27.05l.14,0,.16,0a3,3,0,0,0,.42.05,1.34,1.34,0,0,0,.35,0h.64c.11,0,.22,0,.33-.06a1.18,1.18,0,0,0,.31,0s.08,0,.11,0h0a.87.87,0,0,0,.19-.05l.39-.11c.17-.08.33-.13.48-.22l12.15-6.77a1.68,1.68,0,0,0,1-1.31l.13-4.12A1.59,1.59,0,0,1,570.61,511.86ZM277.3,383.5,261,392.59l-.16,4.18,5.66-3.16-.13,3.53a.45.45,0,0,0,0,.19.37.37,0,0,0,.05.16,2,2,0,0,1,.07.19s0,.05.06.08l0,0,0,.06c.08.07.13.16.21.21a2.69,2.69,0,0,0,.37.3.09.09,0,0,1,.06,0l6.52,3.81c-.11.08-.17.18-.31.27l-12.15,6.78a4.3,4.3,0,0,1-1.06.37h0a4,4,0,0,1-1.19.15h0a5,5,0,0,1-1.1-.11.33.33,0,0,1-.11,0,5.18,5.18,0,0,1-1-.39l-29.83-17.38a2.15,2.15,0,0,1-.66-.6l0,0a1.08,1.08,0,0,1-.19-.65l-.14,4.18V395a.3.3,0,0,1,.05.16,1.21,1.21,0,0,0,.08.19s.05.08.08.11l0,0a.1.1,0,0,1,0,.06c.05.08.13.13.18.22a3.81,3.81,0,0,0,.4.29h0L240.37,404c-.11.07-.17.19-.31.27L227.91,411a3.91,3.91,0,0,1-1,.38h0a5.15,5.15,0,0,1-1.18.14h0a7.62,7.62,0,0,1-1.1-.1c-.05,0-.11,0-.14-.06a3.93,3.93,0,0,1-1-.35l-19.88-11.6a2,2,0,0,1-.66-.6l0,0a.82.82,0,0,1-.09-.38l10.12-5.63a1.73,1.73,0,0,0,1-1.31l.11-2.71.78.46a2.64,2.64,0,0,0,.68.3l.27.08c.05,0,.11,0,.17,0a1.42,1.42,0,0,1,.16.05c.13,0,.27,0,.41.05a1.34,1.34,0,0,1,.35,0h.34c.11,0,.22,0,.3,0l.33,0a2.51,2.51,0,0,1,.31,0l.08,0h0c.08,0,.17,0,.22-.05l.39-.14a2.09,2.09,0,0,0,.45-.22l12.15-6.74a1.74,1.74,0,0,0,1-1.31l.11-2.93,5.5,3.22c.22.1.43.21.68.3a2.56,2.56,0,0,1,.27.05,1.09,1.09,0,0,0,.17.05.23.23,0,0,1,.1,0,3.28,3.28,0,0,0,.47.05,1.23,1.23,0,0,0,.33,0h.33a1.12,1.12,0,0,0,.31,0,1.37,1.37,0,0,0,.3,0,1.28,1.28,0,0,0,.33-.06.15.15,0,0,0,.09,0h.05c.06,0,.12,0,.2-.06l.39-.1c.17-.09.31-.14.45-.22l12.18-6.78a1.76,1.76,0,0,0,1-1.3l.08-3L268.8,378a6.58,6.58,0,0,0,.71.3l.27.05.14.05.19,0a1.73,1.73,0,0,0,.38,0,1.46,1.46,0,0,0,.36,0h.64l.3-.06a1,1,0,0,0,.31-.05.2.2,0,0,0,.11,0h0a.87.87,0,0,0,.19-.05,3.08,3.08,0,0,0,.39-.11,4.3,4.3,0,0,0,.48-.22l1.38-.79-.1,3.37v0a.29.29,0,0,0,0,.19c0,.06,0,.11,0,.19a.5.5,0,0,0,.1.17.45.45,0,0,0,0,.1l0,0a0,0,0,0,0,0,0,1.5,1.5,0,0,0,.18.24c.13.1.27.19.4.3a.08.08,0,0,1,0,0l2.22,1.28C277.54,383.29,277.45,383.4,277.3,383.5Z"/><path class="cls-13" d="M236.71,333.83l15.09,8.79a5,5,0,0,0,4.5,0l12.16-6.77c1.26-.7,1.32-1.85.11-2.56l-15.08-8.78a5,5,0,0,0-4.49,0l-12.16,6.77C235.57,332,235.5,333.13,236.71,333.83Z"/><path class="cls-13" d="M257.87,346.16,273,355a5,5,0,0,0,4.51,0l12.15-6.78c1.26-.69,1.33-1.84.11-2.55l-15.07-8.78a5,5,0,0,0-4.49,0L258,343.6C256.72,344.31,256.66,345.45,257.87,346.16Z"/><path class="cls-13" d="M279.45,358.73l15.08,8.79a5,5,0,0,0,4.52,0l12.16-6.77c1.26-.71,1.31-1.86.09-2.56l-15.08-8.79a5.06,5.06,0,0,0-4.49,0l-12.15,6.76C278.3,356.88,278.25,358,279.45,358.73Z"/><path class="cls-13" d="M301.27,371.45l15.08,8.78a5.07,5.07,0,0,0,4.51,0L333,373.44c1.26-.7,1.33-1.85.11-2.55L318,362.1a5,5,0,0,0-4.49,0l-12.15,6.77C300.12,369.59,300.05,370.74,301.27,371.45Z"/><path class="cls-13" d="M322.85,384l15.08,8.79a5.06,5.06,0,0,0,4.52,0L354.6,386c1.26-.71,1.32-1.87.1-2.58l-15.08-8.78a5.06,5.06,0,0,0-4.49,0L323,381.45C321.7,382.16,321.65,383.32,322.85,384Z"/><path class="cls-13" d="M344.46,396.61l15.08,8.79a5.05,5.05,0,0,0,4.5,0l12.16-6.77c1.26-.71,1.33-1.85.11-2.56l-15.08-8.79a5,5,0,0,0-4.49,0L344.59,394C343.31,394.75,343.25,395.9,344.46,396.61Z"/><path class="cls-13" d="M366.05,409.19,381.13,418a5.07,5.07,0,0,0,4.51,0l12.15-6.76c1.26-.7,1.31-1.87.12-2.56l-15.09-8.79a5.05,5.05,0,0,0-4.5,0l-12.15,6.78C364.89,407.32,364.83,408.48,366.05,409.19Z"/><path class="cls-13" d="M387.65,421.77l15.08,8.79a5.09,5.09,0,0,0,4.52,0l12.15-6.77c1.26-.71,1.31-1.86.1-2.57l-15.08-8.78a5,5,0,0,0-4.49,0l-12.15,6.77C386.5,419.92,386.45,421.07,387.65,421.77Z"/><path class="cls-13" d="M409.24,434.35l15.08,8.79a5,5,0,0,0,4.5,0L441,436.35c1.26-.7,1.33-1.85.11-2.56L426,425a5,5,0,0,0-4.48,0l-12.16,6.77C408.09,432.5,408,433.64,409.24,434.35Z"/><path class="cls-13" d="M430.9,447,446,455.75a5,5,0,0,0,4.51,0L462.64,449c1.26-.69,1.31-1.85.11-2.55l-15.08-8.79a5.08,5.08,0,0,0-4.5,0L431,444.39C429.73,445.1,429.68,446.26,430.9,447Z"/><path class="cls-13" d="M452.47,459.54l15.09,8.79a5,5,0,0,0,4.5,0l12.16-6.76c1.26-.71,1.33-1.85.11-2.55l-15.08-8.8a5,5,0,0,0-4.49,0L452.61,457C451.33,457.69,451.26,458.83,452.47,459.54Z"/><path class="cls-13" d="M474.09,472.13l15.07,8.78a5,5,0,0,0,4.51,0l12.16-6.77c1.26-.71,1.32-1.85.11-2.56l-15.08-8.79a5.06,5.06,0,0,0-4.49,0l-12.15,6.78C472.94,470.27,472.87,471.42,474.09,472.13Z"/><path class="cls-13" d="M495.66,484.7l15.09,8.79a5,5,0,0,0,4.52,0l12.15-6.77c1.26-.71,1.31-1.86.1-2.57l-15.08-8.78a5.06,5.06,0,0,0-4.49,0l-12.16,6.78C494.52,482.85,494.46,484,495.66,484.7Z"/><path class="cls-13" d="M517.27,497.29l15.09,8.79a5.05,5.05,0,0,0,4.5,0L549,499.29c1.27-.7,1.33-1.85.12-2.56L534.05,488a5,5,0,0,0-4.49,0l-12.16,6.78C516.13,495.44,516.06,496.58,517.27,497.29Z"/><path class="cls-13" d="M570.72,509.31l-15.08-8.78a5,5,0,0,0-4.5,0L539,507.3c-1.28.71-1.33,1.86-.11,2.57L554,518.66a5.05,5.05,0,0,0,4.5,0l12.16-6.77C571.87,511.17,571.92,510,570.72,509.31Z"/><path class="cls-13" d="M218.1,344.2,269,373.84a5,5,0,0,0,4.49,0l12.15-6.77c1.28-.71,1.33-1.85.11-2.56l-50.86-29.63a5,5,0,0,0-4.49,0l-12.16,6.77C216.94,342.36,216.88,343.5,218.1,344.2Z"/><path class="cls-13" d="M307.45,377.16l-15.09-8.78a5,5,0,0,0-4.5,0l-12.15,6.78c-1.28.71-1.32,1.85-.1,2.56l15.08,8.79a5,5,0,0,0,4.49,0l12.16-6.77C308.61,379,308.64,377.86,307.45,377.16Z"/><path class="cls-13" d="M329,389.74,313.94,381a5,5,0,0,0-4.48,0l-12.16,6.77c-1.28.72-1.33,1.86-.11,2.56l15.08,8.79a5.07,5.07,0,0,0,4.51,0l12.15-6.77C330.21,391.59,330.24,390.44,329,389.74Z"/><path class="cls-13" d="M350.64,402.32l-15.09-8.79a5,5,0,0,0-4.49,0l-12.15,6.78c-1.28.71-1.33,1.84-.11,2.55l15.08,8.79a5,5,0,0,0,4.49,0l12.15-6.77C351.8,404.17,351.85,403,350.64,402.32Z"/><path class="cls-13" d="M372.21,414.9l-15.08-8.79a5,5,0,0,0-4.49,0l-12.15,6.77c-1.28.71-1.31,1.85-.12,2.56l15.09,8.78a5,5,0,0,0,4.5,0l12.15-6.77C373.39,416.75,373.43,415.6,372.21,414.9Z"/><path class="cls-13" d="M393.82,427.49l-15.08-8.79a5,5,0,0,0-4.49,0l-12.15,6.77c-1.28.71-1.33,1.84-.12,2.56l15.09,8.78a5,5,0,0,0,4.48,0L393.71,430C395,429.33,395,428.2,393.82,427.49Z"/><path class="cls-13" d="M415.41,440.06l-15.08-8.78a5,5,0,0,0-4.5,0l-12.15,6.77c-1.28.72-1.32,1.86-.1,2.56l15.08,8.8a5.06,5.06,0,0,0,4.49,0l12.15-6.78C416.58,441.91,416.62,440.77,415.41,440.06Z"/><path class="cls-13" d="M437.06,452.68,422,443.89a5,5,0,0,0-4.49,0l-12.15,6.77c-1.28.71-1.32,1.86-.12,2.56L420.3,462a5,5,0,0,0,4.51,0L437,455.24C438.24,454.53,438.27,453.38,437.06,452.68Z"/><path class="cls-13" d="M458.65,465.26l-15.08-8.79a5,5,0,0,0-4.49,0l-12.15,6.77c-1.28.71-1.33,1.85-.11,2.55l15.08,8.79a5,5,0,0,0,4.48,0l12.16-6.77C459.82,467.1,459.87,466,458.65,465.26Z"/><path class="cls-13" d="M480.26,477.85l-15.08-8.79a5,5,0,0,0-4.5,0l-12.16,6.77c-1.28.71-1.31,1.85-.09,2.57l15.08,8.78a5,5,0,0,0,4.49,0l12.15-6.77C481.43,479.69,481.46,478.54,480.26,477.85Z"/><path class="cls-13" d="M489.59,499.76,501.74,493c1.28-.71,1.32-1.86.1-2.56l-15.08-8.79a5,5,0,0,0-4.49,0l-12.15,6.77c-1.28.71-1.33,1.85-.12,2.56l15.09,8.78A5,5,0,0,0,489.59,499.76Z"/><path class="cls-13" d="M511.18,512.34l12.16-6.77c1.28-.72,1.32-1.85.11-2.56l-15.08-8.79a5,5,0,0,0-4.49,0L491.73,501c-1.28.71-1.33,1.85-.12,2.56l15.08,8.79A5,5,0,0,0,511.18,512.34Z"/><path class="cls-13" d="M545,515.58,530,506.79a5,5,0,0,0-4.49,0l-12.15,6.77c-1.28.72-1.32,1.86-.12,2.56l15.08,8.78a5,5,0,0,0,4.51,0l12.15-6.77C546.21,517.44,546.24,516.29,545,515.58Z"/><path class="cls-13" d="M199.33,354.67l16.3,9.49a5,5,0,0,0,4.49,0l12.15-6.77c1.28-.71,1.33-1.85.12-2.56l-16.3-9.5a5,5,0,0,0-4.49,0l-12.15,6.77C198.17,352.82,198.12,354,199.33,354.67Z"/><path class="cls-13" d="M254.87,367.92l-16.29-9.49a5,5,0,0,0-4.51,0l-12.15,6.76c-1.28.72-1.32,1.87-.1,2.57l16.3,9.5a5,5,0,0,0,4.49,0l12.15-6.77C256,369.77,256.08,368.63,254.87,367.92Z"/><path class="cls-13" d="M162.11,375.4l11.41,6.66a5,5,0,0,0,4.49,0L208.68,365c1.28-.71,1.35-1.85.13-2.56l-11.42-6.65a5,5,0,0,0-4.5,0l-30.67,17.09C160.94,373.56,160.89,374.7,162.11,375.4Z"/><path class="cls-13" d="M210.83,366.22,198.68,373c-1.26.71-1.33,1.85-.11,2.56L214.86,385a5,5,0,0,0,4.51,0l12.15-6.76c1.28-.72,1.33-1.87.12-2.58l-16.3-9.49A5,5,0,0,0,210.83,366.22Z"/><path class="cls-13" d="M299.23,393.63l-15.08-8.78a5,5,0,0,0-4.51,0l-12.15,6.77c-1.26.71-1.33,1.85-.11,2.56L282.46,403a5.06,5.06,0,0,0,4.49,0l12.15-6.78C300.38,395.48,300.45,394.34,299.23,393.63Z"/><path class="cls-13" d="M257.82,372.15l-18.61,10.37L234.76,385l-7.7,4.3c-1.28.71-1.33,1.87-.12,2.58l29.84,17.38a5.05,5.05,0,0,0,4.5,0l12.16-6.78c1.26-.7,1.33-1.85.11-2.56L261,392.58l16.32-9.09c1.27-.71,1.33-1.86.13-2.57l-15.09-8.78A5,5,0,0,0,257.82,372.15Z"/><path class="cls-13" d="M320.82,406.21l-15.08-8.79a5.06,5.06,0,0,0-4.52,0l-12.15,6.77c-1.26.71-1.32,1.86-.1,2.57l15.08,8.79a5.1,5.1,0,0,0,4.49,0l12.15-6.77C322,408.07,322,406.91,320.82,406.21Z"/><path class="cls-13" d="M342.42,418.8,327.34,410a5,5,0,0,0-4.51,0l-12.15,6.77c-1.26.69-1.31,1.85-.12,2.55l15.09,8.78a5,5,0,0,0,4.5,0l12.15-6.77C343.58,420.65,343.63,419.5,342.42,418.8Z"/><path class="cls-13" d="M364,431.37l-15.08-8.78a5.06,5.06,0,0,0-4.52,0l-12.16,6.78c-1.25.7-1.31,1.85-.1,2.56l15.09,8.79a5,5,0,0,0,4.49,0l12.15-6.77C365.16,433.23,365.23,432.08,364,431.37Z"/><path class="cls-13" d="M385.62,444l-15.09-8.8a5.07,5.07,0,0,0-4.51,0L353.87,442c-1.26.71-1.32,1.86-.12,2.56l15.1,8.8a5,5,0,0,0,4.48,0l12.16-6.77C386.77,445.82,386.82,444.67,385.62,444Z"/><path class="cls-13" d="M407.2,456.53l-15.08-8.78a5,5,0,0,0-4.51,0l-12.15,6.78c-1.26.7-1.33,1.85-.11,2.55l15.08,8.79a5,5,0,0,0,4.49,0l12.15-6.77C408.35,458.39,408.42,457.24,407.2,456.53Z"/><path class="cls-13" d="M428.86,469.15l-15.08-8.78a5.06,5.06,0,0,0-4.52,0l-12.16,6.77c-1.26.71-1.31,1.87-.1,2.57l15.09,8.79a5,5,0,0,0,4.48,0l12.16-6.77C430,471,430.08,469.86,428.86,469.15Z"/><path class="cls-13" d="M450.44,481.72l-15.09-8.78a5,5,0,0,0-4.5,0l-12.16,6.77c-1.25.7-1.3,1.86-.11,2.55l15.08,8.79a5,5,0,0,0,4.51,0l12.15-6.77C451.6,483.59,451.65,482.44,450.44,481.72Z"/><path class="cls-13" d="M472.05,494.32,457,485.53a5,5,0,0,0-4.51,0l-12.16,6.78c-1.25.7-1.32,1.84-.11,2.56l15.08,8.78a5,5,0,0,0,4.49,0l12.16-6.77C473.19,496.17,473.26,495,472.05,494.32Z"/><path class="cls-13" d="M493.64,506.9l-15.08-8.79a5.09,5.09,0,0,0-4.52,0l-12.16,6.78c-1.26.7-1.31,1.86-.09,2.57l15.08,8.78a5.09,5.09,0,0,0,4.49,0l12.15-6.78C494.79,508.75,494.84,507.59,493.64,506.9Z"/><path class="cls-13" d="M533.44,530.09l-33-19.22a5,5,0,0,0-4.5,0l-12.16,6.77c-1.26.7-1.33,1.85-.11,2.55l33,19.23a5.06,5.06,0,0,0,4.49,0l12.15-6.77C534.59,531.94,534.64,530.78,533.44,530.09Z"/><path class="cls-13" d="M263.28,413l15.08,8.79a5.06,5.06,0,0,0,4.52,0L295,415c1.26-.7,1.32-1.86.1-2.56l-15.08-8.79a5.06,5.06,0,0,0-4.49,0l-12.15,6.77C262.13,411.18,262.08,412.34,263.28,413Z"/><path class="cls-13" d="M316.74,425.07l-15.08-8.79a5.06,5.06,0,0,0-4.49,0L285,423.06c-1.28.71-1.35,1.86-.13,2.57L300,434.41a5,5,0,0,0,4.5,0l12.15-6.78C317.89,426.92,318,425.77,316.74,425.07Z"/><path class="cls-13" d="M306.48,438.21,321.56,447a5,5,0,0,0,4.51,0l12.15-6.76c1.26-.71,1.32-1.86.12-2.56l-15.09-8.79a5.08,5.08,0,0,0-4.5,0l-12.16,6.78C305.32,436.35,305.26,437.5,306.48,438.21Z"/><path class="cls-13" d="M328.08,450.78l15.07,8.8a5.12,5.12,0,0,0,4.53,0l12.15-6.78c1.26-.7,1.31-1.85.1-2.56l-15.08-8.79a5.06,5.06,0,0,0-4.49,0l-12.15,6.77C326.93,448.94,326.88,450.09,328.08,450.78Z"/><path class="cls-13" d="M349.67,463.37l15.08,8.79a5.07,5.07,0,0,0,4.51,0l12.15-6.77c1.26-.7,1.33-1.85.11-2.56L366.44,454a5,5,0,0,0-4.49,0L349.8,460.8C348.52,461.52,348.45,462.66,349.67,463.37Z"/><path class="cls-13" d="M371.33,476l15.08,8.79a5.05,5.05,0,0,0,4.5,0L403.07,478c1.26-.7,1.31-1.85.11-2.55l-15.08-8.79a5,5,0,0,0-4.5,0l-12.16,6.77C370.16,474.13,370.11,475.28,371.33,476Z"/><path class="cls-13" d="M392.91,488.56,408,497.35a5.05,5.05,0,0,0,4.5,0l12.16-6.78c1.25-.69,1.32-1.84.11-2.55l-15.08-8.78a5,5,0,0,0-4.49,0L393,486C391.76,486.7,391.69,487.85,392.91,488.56Z"/><path class="cls-13" d="M414.52,501.15l15.07,8.79a5,5,0,0,0,4.51,0l12.16-6.77c1.26-.71,1.32-1.86.11-2.56l-15.08-8.79a5.1,5.1,0,0,0-4.51,0l-12.15,6.77C413.35,499.29,413.3,500.44,414.52,501.15Z"/><path class="cls-13" d="M451.18,522.51a5.06,5.06,0,0,0,4.52,0l12.15-6.77c1.26-.71,1.31-1.86.1-2.57l-15.08-8.78a5.06,5.06,0,0,0-4.49,0l-12.16,6.77c-1.28.72-1.33,1.87-.13,2.57Z"/><path class="cls-13" d="M472.78,535.1a5,5,0,0,0,4.51,0l12.15-6.77c1.26-.71,1.33-1.85.12-2.56L474.48,517a5,5,0,0,0-4.49,0l-12.16,6.77c-1.28.7-1.34,1.85-.13,2.56Z"/><path class="cls-13" d="M514.81,540.47l-18.74-10.93a5.08,5.08,0,0,0-4.5,0l-12.16,6.78c-1.28.72-1.33,1.87-.11,2.57L498,549.81a5.05,5.05,0,0,0,4.5,0L514.7,543C516,542.32,516,541.16,514.81,540.47Z"/><path class="cls-13" d="M192.32,376.54l-12.15,6.77c-1.28.71-1.33,1.84-.12,2.56l16.3,9.49a5.05,5.05,0,0,0,4.5,0L213,388.59c1.28-.71,1.31-1.86.1-2.57l-16.3-9.49A5,5,0,0,0,192.32,376.54Z"/><path class="cls-13" d="M240.2,401.67l-19.89-11.59a5.09,5.09,0,0,0-4.52,0l-12.16,6.78c-1.26.7-1.31,1.86-.1,2.57L223.43,411a5,5,0,0,0,4.48,0l12.16-6.76C241.35,403.53,241.4,402.37,240.2,401.67Z"/><path class="cls-13" d="M230.15,414.93l15.08,8.78a5,5,0,0,0,4.49,0l12.15-6.77c1.28-.71,1.35-1.87.13-2.57l-15.08-8.79a5,5,0,0,0-4.5,0l-12.16,6.76C229,413.08,228.93,414.22,230.15,414.93Z"/><path class="cls-13" d="M251.74,427.51l15.08,8.79a5.09,5.09,0,0,0,4.49,0l12.16-6.78c1.28-.71,1.33-1.86.13-2.56l-15.09-8.79a5,5,0,0,0-4.51,0L251.84,425C250.58,425.65,250.53,426.81,251.74,427.51Z"/><path class="cls-13" d="M273.34,440.09l15.08,8.79a5.05,5.05,0,0,0,4.5,0l12.16-6.77c1.27-.71,1.33-1.87.11-2.58l-15.08-8.78a5.11,5.11,0,0,0-4.51,0l-12.15,6.78C272.19,438.24,272.14,439.39,273.34,440.09Z"/><path class="cls-13" d="M294.93,452.68,310,461.46a5,5,0,0,0,4.49,0l12.15-6.77c1.28-.71,1.35-1.86.13-2.57l-15.08-8.78a5,5,0,0,0-4.52,0L295,450.11C293.77,450.81,293.71,452,294.93,452.68Z"/><path class="cls-13" d="M316.52,465.26l15.1,8.8a5.06,5.06,0,0,0,4.49,0l12.15-6.77c1.28-.71,1.34-1.86.13-2.56l-15.09-8.8a5.07,5.07,0,0,0-4.51,0l-12.15,6.78C315.38,463.4,315.32,464.56,316.52,465.26Z"/><path class="cls-13" d="M338.12,477.84l15.08,8.78a5,5,0,0,0,4.49,0l12.15-6.77c1.28-.71,1.35-1.86.13-2.56l-15.08-8.79a5.05,5.05,0,0,0-4.5,0l-12.16,6.78C337,476,336.91,477.13,338.12,477.84Z"/><path class="cls-13" d="M359.78,490.46l15.08,8.78a5,5,0,0,0,4.49,0l12.15-6.77c1.28-.71,1.35-1.85.13-2.56l-15.08-8.79a5.06,5.06,0,0,0-4.52,0l-12.15,6.77C358.61,488.59,358.56,489.74,359.78,490.46Z"/><path class="cls-13" d="M381.35,503l15.08,8.78a5,5,0,0,0,4.51,0L413.09,505c1.28-.71,1.33-1.87.12-2.57l-15.08-8.79a5,5,0,0,0-4.51,0l-12.15,6.77C380.21,501.17,380.16,502.33,381.35,503Z"/><path class="cls-13" d="M403,515.61l15.09,8.79a5,5,0,0,0,4.48,0l12.16-6.78c1.28-.71,1.34-1.85.13-2.56l-15.08-8.79a5,5,0,0,0-4.51,0l-12.15,6.77C401.82,513.76,401.75,514.91,403,515.61Z"/><path class="cls-13" d="M456.42,527.64l-15.09-8.79a5,5,0,0,0-4.52,0l-12.16,6.77c-1.25.71-1.31,1.86-.09,2.57L439.64,537a5.1,5.1,0,0,0,4.49,0l12.15-6.77C457.56,529.49,457.61,528.34,456.42,527.64Z"/><path class="cls-13" d="M496.21,550.82l-33-19.21a5,5,0,0,0-4.5,0l-12.16,6.77c-1.26.71-1.33,1.85-.11,2.56l33,19.21a5,5,0,0,0,4.49,0l12.15-6.76C497.36,552.68,497.41,551.53,496.21,550.82Z"/><path class="cls-13" d="M171.58,383.14l-11.42-6.65a5,5,0,0,0-4.5,0l-30.81,17.16c-1.27.71-1.34,1.85-.13,2.57l11.43,6.65a5,5,0,0,0,4.5,0l30.8-17.16C172.73,385,172.8,383.86,171.58,383.14Z"/><path class="cls-13" d="M173.15,386.7,161,393.47c-1.26.7-1.33,1.85-.11,2.55l17.2,10a5.05,5.05,0,0,0,4.5,0l12.16-6.76c1.28-.72,1.33-1.87.11-2.58l-17.2-10A5,5,0,0,0,173.15,386.7Z"/><path class="cls-13" d="M184.71,409.91l8.53,5a5,5,0,0,0,4.5,0l12.15-6.77c1.28-.7,1.33-1.86.12-2.57l-8.52-5a5.09,5.09,0,0,0-4.52,0l-12.16,6.77C183.55,408,183.5,409.2,184.71,409.91Z"/><path class="cls-13" d="M200.48,419.09l8.92,5.2a5.1,5.1,0,0,0,4.51,0l12.15-6.77c1.28-.72,1.33-1.87.11-2.58l-8.92-5.2a5,5,0,0,0-4.51,0l-12.15,6.77C199.33,417.24,199.26,418.38,200.48,419.09Z"/><path class="cls-13" d="M216.22,428.27l24.72,14.4a5.07,5.07,0,0,0,4.51,0l12.15-6.77c1.28-.71,1.33-1.87.11-2.57L233,418.92a5.07,5.07,0,0,0-4.51,0l-12.15,6.77C215.07,426.42,215,427.57,216.22,428.27Z"/><path class="cls-13" d="M247.47,446.48l15.08,8.78a5,5,0,0,0,4.49,0l12.15-6.77c1.28-.71,1.35-1.86.14-2.56l-15.09-8.79a5,5,0,0,0-4.5,0l-12.16,6.77C246.32,444.62,246.25,445.76,247.47,446.48Z"/><path class="cls-13" d="M269.07,459.05l15.08,8.79a5.06,5.06,0,0,0,4.49,0l12.15-6.77c1.28-.71,1.33-1.87.13-2.56l-15.08-8.79a5.06,5.06,0,0,0-4.52,0l-12.16,6.78C267.9,457.19,267.85,458.35,269.07,459.05Z"/><path class="cls-13" d="M290.66,471.64l15.08,8.78a5.08,5.08,0,0,0,4.5,0l12.16-6.78c1.28-.71,1.33-1.87.11-2.57l-15.08-8.79a5,5,0,0,0-4.5,0l-12.16,6.77C289.51,469.78,289.46,470.94,290.66,471.64Z"/><path class="cls-13" d="M312.25,484.22,327.34,493a5,5,0,0,0,4.48,0L344,486.22c1.28-.71,1.35-1.85.14-2.56L329,474.87a5,5,0,0,0-4.51,0l-12.15,6.77C311.1,482.37,311,483.51,312.25,484.22Z"/><path class="cls-13" d="M333.91,496.83,349,505.62a5,5,0,0,0,4.49,0l12.15-6.77c1.28-.71,1.33-1.86.13-2.57l-15.08-8.78a5,5,0,0,0-4.52,0L334,494.27C332.75,495,332.69,496.13,333.91,496.83Z"/><path class="cls-13" d="M355.49,509.41l15.08,8.78a5,5,0,0,0,4.49,0l12.15-6.77c1.28-.71,1.35-1.85.13-2.56l-15.08-8.79a5,5,0,0,0-4.5,0l-12.15,6.77C354.34,507.55,354.27,508.7,355.49,509.41Z"/><path class="cls-13" d="M377.1,522l15.08,8.78a5,5,0,0,0,4.49,0L408.82,524c1.28-.71,1.35-1.85.14-2.57l-15.09-8.78a5,5,0,0,0-4.52,0l-12.15,6.77C375.94,520.14,375.88,521.29,377.1,522Z"/><path class="cls-13" d="M398.68,534.57l15.08,8.79a5.08,5.08,0,0,0,4.5,0l12.16-6.77c1.27-.72,1.33-1.87.11-2.58l-15.08-8.79a5.11,5.11,0,0,0-4.51,0L398.79,532C397.53,532.71,397.48,533.87,398.68,534.57Z"/><path class="cls-13" d="M420.29,547.16l15.08,8.78a5,5,0,0,0,4.49,0L452,549.17c1.28-.72,1.35-1.86.13-2.57l-15.08-8.79a5.07,5.07,0,0,0-4.51,0L420.4,544.6C419.14,545.3,419.07,546.45,420.29,547.16Z"/><path class="cls-13" d="M473.74,559.18l-15.09-8.79a5.09,5.09,0,0,0-4.52,0L442,557.18c-1.26.69-1.32,1.85-.1,2.56L457,568.53a5,5,0,0,0,4.49,0l12.16-6.77C474.88,561,474.93,559.88,473.74,559.18Z"/><path class="cls-13" d="M181.12,410,166,401.18a5,5,0,0,0-4.49,0L149.4,408c-1.28.71-1.35,1.85-.13,2.56l15.08,8.78a5,5,0,0,0,4.5,0L181,412.53C182.27,411.82,182.34,410.69,181.12,410Z"/><path class="cls-13" d="M202.72,422.55l-15.09-8.78a5,5,0,0,0-4.5,0L171,420.54c-1.28.71-1.34,1.87-.12,2.57l15.08,8.79a5.07,5.07,0,0,0,4.51,0l12.15-6.77C203.86,424.41,203.91,423.26,202.72,422.55Z"/><path class="cls-13" d="M224.52,435.26l-15.08-8.78a5,5,0,0,0-4.49,0l-12.16,6.77c-1.27.72-1.34,1.86-.12,2.57l15.08,8.79a5.05,5.05,0,0,0,4.5,0l12.15-6.77C225.66,437.12,225.73,436,224.52,435.26Z"/><path class="cls-13" d="M246.11,447.84,231,439.05a5.05,5.05,0,0,0-4.5,0l-12.15,6.77c-1.28.72-1.33,1.87-.12,2.58l15.08,8.78a5.05,5.05,0,0,0,4.5,0L246,450.39C247.26,449.69,247.31,448.54,246.11,447.84Z"/><path class="cls-13" d="M354.15,510.78,252.62,451.63a5,5,0,0,0-4.48,0L236,458.41c-1.28.72-1.35,1.86-.14,2.57l101.52,59.15a5,5,0,0,0,4.51,0L354,513.34C355.3,512.63,355.36,511.49,354.15,510.78Z"/><path class="cls-13" d="M375.72,523.35l-15.07-8.78a5,5,0,0,0-4.49,0L344,521.35c-1.28.71-1.33,1.87-.13,2.56L359,532.7a5.05,5.05,0,0,0,4.53,0l12.15-6.77C376.89,525.22,376.94,524.06,375.72,523.35Z"/><path class="cls-13" d="M397.33,535.94l-15.08-8.78a5,5,0,0,0-4.48,0l-12.16,6.77c-1.28.72-1.34,1.86-.13,2.57l15.08,8.79a5.07,5.07,0,0,0,4.51,0l12.15-6.77C398.48,537.8,398.55,536.65,397.33,535.94Z"/><path class="cls-13" d="M418.93,548.52l-15.08-8.78a5,5,0,0,0-4.51,0l-12.15,6.77c-1.28.71-1.33,1.87-.12,2.57l15.09,8.79a5.08,5.08,0,0,0,4.5,0l12.15-6.78C420.08,550.38,420.13,549.22,418.93,548.52Z"/><path class="cls-13" d="M440.52,561.11l-15.08-8.79a5,5,0,0,0-4.49,0L408.8,559.1c-1.28.71-1.33,1.86-.13,2.56l15.08,8.79a5,5,0,0,0,4.52,0l12.16-6.77C441.69,563,441.74,561.81,440.52,561.11Z"/><path class="cls-13" d="M458.73,571.72,447,564.9a5.05,5.05,0,0,0-4.5,0l-12.15,6.77c-1.28.71-1.33,1.86-.12,2.58l11.7,6.81a5.05,5.05,0,0,0,4.5,0l12.16-6.77C459.88,573.57,459.93,572.41,458.73,571.72Z"/><polygon class="cls-14" points="638.51 240.11 645.03 237.07 635.91 468.09 628.53 471.13 638.51 240.11"/><g class="cls-2"><path class="cls-15" d="M347.65,95.23l-60.33-34.8L227,25.63a13.91,13.91,0,0,0-6.54-1.42A14.25,14.25,0,0,0,213.6,26L212,27.06c-2.19,1.29-3.42,3.13-3.37,5.06S210,35.79,212.17,37L272.5,71.75l60.33,34.8a13.91,13.91,0,0,0,6.54,1.42,14.14,14.14,0,0,0,6.85-1.76l1.64-1.08c2.19-1.29,3.42-3.14,3.37-5.07S349.87,96.39,347.65,95.23Z"/><path class="cls-16" d="M212.12,27.14l-.54.34a5.52,5.52,0,0,0-2.77,4.69c.05,1.88,1.42,3.66,3.59,4.8l60.18,34.71,60.16,34.7a14.07,14.07,0,0,0,6.51,1.45c.46,0,.94,0,1.39-.07a13.41,13.41,0,0,0,5.43-1.64l.69-.45.95-.63a6.65,6.65,0,0,0,3-3.33A4.35,4.35,0,0,0,351,100c-.05-1.87-1.42-3.66-3.59-4.8L287.24,60.5,227.09,25.81a14.07,14.07,0,0,0-6.51-1.45,16.68,16.68,0,0,0-2,.14,12.92,12.92,0,0,0-4.82,1.57l-1.17.77Z"/><path class="cls-17" d="M212.27,27.23a6,6,0,0,0-.53.34A5.36,5.36,0,0,0,209,32.23c0,1.83,1.48,3.63,3.61,4.75l60,34.63,60,34.6a14.26,14.26,0,0,0,6.48,1.47c.46,0,.95,0,1.39-.05a13.18,13.18,0,0,0,5.42-1.61s.68-.44.68-.45l.95-.63a6.26,6.26,0,0,0,2.95-3.31,4.28,4.28,0,0,0,.24-1.7c-.05-1.83-1.47-3.63-3.61-4.75l-60-34.61L227.19,26a14.26,14.26,0,0,0-6.48-1.47,16.65,16.65,0,0,0-2,.12,12.78,12.78,0,0,0-4.8,1.53s-1.16.76-1.17.76Z"/><path class="cls-18" d="M212.43,27.31l-.53.34a5.24,5.24,0,0,0-2.67,4.63c.05,1.8,1.54,3.61,3.64,4.71l59.88,34.55,59.8,34.5a14.46,14.46,0,0,0,6.45,1.5c.45,0,.95,0,1.38,0a13,13,0,0,0,5.41-1.58l.68-.44.95-.63a6,6,0,0,0,2.89-3.31,4.52,4.52,0,0,0,.21-1.67c0-1.8-1.54-3.62-3.63-4.72l-59.82-34.5L227.29,26.16a14.25,14.25,0,0,0-6.44-1.5,16.27,16.27,0,0,0-2,.1,12.69,12.69,0,0,0-4.8,1.49l-1.17.76Z"/><path class="cls-19" d="M212.58,27.4c-.17.1-.36.23-.52.34-1.83,1.23-2.78,2.9-2.62,4.59s1.61,3.6,3.66,4.67l59.73,34.47,59.63,34.4a14.34,14.34,0,0,0,6.42,1.52c.44,0,.95,0,1.37,0a12.83,12.83,0,0,0,5.4-1.54l.67-.44.95-.63a5.81,5.81,0,0,0,2.83-3.3,4.23,4.23,0,0,0,.18-1.66c0-1.76-1.6-3.6-3.65-4.67L287,60.72l-59.6-34.39A14.56,14.56,0,0,0,221,24.81a16.14,16.14,0,0,0-2,.08,12.33,12.33,0,0,0-4.79,1.46L213,27.1Z"/><path class="cls-20" d="M212.74,27.48l-.53.34c-1.82,1.23-2.74,2.89-2.56,4.56S211.32,36,213.33,37l59.58,34.37,59.46,34.31a14.62,14.62,0,0,0,6.39,1.55,12.31,12.31,0,0,0,1.36,0,12.48,12.48,0,0,0,5.38-1.5l.68-.44.94-.62a5.54,5.54,0,0,0,2.77-3.3,4.28,4.28,0,0,0,.16-1.63c-.05-1.73-1.66-3.58-3.67-4.64L286.91,60.79,227.49,26.51A14.65,14.65,0,0,0,221.11,25a16.08,16.08,0,0,0-2,.06,12.47,12.47,0,0,0-4.78,1.42l-1.16.74Z"/><path class="cls-21" d="M212.9,27.57c-.17.1-.38.23-.53.34-1.81,1.21-2.72,2.87-2.5,4.52,0,1.7,1.73,3.57,3.69,4.6L273,71.32l59.28,34.21a14.93,14.93,0,0,0,6.36,1.58c.42,0,.95,0,1.36,0a12.32,12.32,0,0,0,5.37-1.47s.65-.42.67-.43l.94-.62a5.34,5.34,0,0,0,2.72-3.29,4.21,4.21,0,0,0,.12-1.62c-.05-1.69-1.72-3.56-3.69-4.59L286.83,60.86,227.59,26.68a15,15,0,0,0-6.35-1.58,15.88,15.88,0,0,0-2,0,12.32,12.32,0,0,0-4.77,1.38l-1.16.74Z"/><path class="cls-22" d="M213.05,27.65l-.52.34c-1.81,1.21-2.69,2.86-2.45,4.5,0,1.65,1.79,3.54,3.72,4.55l59.28,34.21,59.1,34.11a15.1,15.1,0,0,0,6.33,1.6c.41,0,.95.05,1.35,0a12.15,12.15,0,0,0,5.36-1.43l.67-.43.94-.62a5.12,5.12,0,0,0,2.65-3.29,4.29,4.29,0,0,0,.1-1.6c-.05-1.65-1.79-3.54-3.71-4.55L286.74,60.94,227.69,26.86a14.91,14.91,0,0,0-6.32-1.61,18.07,18.07,0,0,0-2,0,12.09,12.09,0,0,0-4.75,1.36s-1.12.7-1.17.73Z"/><path class="cls-23" d="M213.21,27.74c-.16.09-.38.24-.52.34-1.8,1.2-2.67,2.84-2.4,4.46,0,1.62,1.85,3.52,3.74,4.51l59.13,34.13,58.93,34a15.27,15.27,0,0,0,6.3,1.63c.4,0,.95.06,1.34,0a12.06,12.06,0,0,0,5.35-1.4l.66-.42.94-.63a4.91,4.91,0,0,0,2.6-3.27,4.41,4.41,0,0,0,.06-1.58c0-1.62-1.84-3.52-3.73-4.51L286.66,61,227.79,27a15.23,15.23,0,0,0-6.29-1.63c-.58,0-1.38-.07-1.94,0a12.06,12.06,0,0,0-4.74,1.32c-.06,0-1.11.7-1.16.73Z"/><path class="cls-24" d="M213.36,27.83l-.52.33c-1.79,1.2-2.63,2.83-2.34,4.43,0,1.59,1.92,3.51,3.76,4.47l59,34L332,105a15.39,15.39,0,0,0,6.27,1.67c.39,0,1,.07,1.33,0a12,12,0,0,0,5.33-1.36l.67-.43.93-.62a4.73,4.73,0,0,0,2.54-3.27,4.08,4.08,0,0,0,0-1.56c0-1.58-1.9-3.5-3.74-4.47L286.58,61.08,227.89,27.21a15.34,15.34,0,0,0-6.26-1.66c-.57,0-1.38-.09-1.93,0A11.9,11.9,0,0,0,215,26.81c-.07,0-1.1.69-1.16.72Z"/><path class="cls-25" d="M213.52,27.91l-.52.34c-1.78,1.18-2.61,2.81-2.29,4.39,0,1.55,2,3.49,3.78,4.43l58.83,34,58.59,33.81a15.58,15.58,0,0,0,6.23,1.69c.39,0,1,.09,1.33,0a11.8,11.8,0,0,0,5.32-1.33l.66-.42.93-.62a4.5,4.5,0,0,0,2.48-3.26,4.2,4.2,0,0,0,0-1.54c0-1.55-2-3.49-3.77-4.43L286.5,61.15,228,27.38a15.58,15.58,0,0,0-6.23-1.68c-.55,0-1.38-.11-1.92,0a11.55,11.55,0,0,0-4.72,1.25c-.07,0-1.09.67-1.15.71Z"/><path class="cls-26" d="M213.67,28c-.14.08-.37.24-.51.33-1.78,1.18-2.58,2.8-2.24,4.36.05,1.52,2.05,3.47,3.8,4.4L273.4,71l58.41,33.71a15.71,15.71,0,0,0,6.21,1.72c.38,0,1,.1,1.33.06a11.54,11.54,0,0,0,5.3-1.3s.62-.39.66-.41l.93-.62a4.37,4.37,0,0,0,2.42-3.26,4.1,4.1,0,0,0,0-1.52c0-1.51-2-3.46-3.78-4.39L286.42,61.23,228.09,27.56a15.83,15.83,0,0,0-6.2-1.71c-.54,0-1.38-.13-1.9-.06A11.48,11.48,0,0,0,215.28,27c-.09,0-1.09.67-1.16.71Z"/><path class="cls-27" d="M213.83,28.08l-.51.34c-1.77,1.17-2.56,2.78-2.18,4.33,0,1.47,2.1,3.45,3.82,4.35l58.53,33.79,58.23,33.61a16.15,16.15,0,0,0,6.18,1.75c.36,0,1,.11,1.32.07a11.38,11.38,0,0,0,5.29-1.26l.66-.42.92-.61a4.19,4.19,0,0,0,2.36-3.25,4.29,4.29,0,0,0-.05-1.51c0-1.47-2.09-3.44-3.81-4.34L286.33,61.3,228.19,27.73A16.09,16.09,0,0,0,222,26a17.46,17.46,0,0,0-1.9-.08,11.32,11.32,0,0,0-4.7,1.17c-.09,0-1.08.66-1.16.7Z"/><path class="cls-28" d="M214,28.17c-.14.08-.38.24-.51.33-1.76,1.17-2.52,2.77-2.12,4.3,0,1.44,2.16,3.43,3.84,4.31l58.38,33.7,58.06,33.52a16.25,16.25,0,0,0,6.15,1.77c.35,0,1,.12,1.31.09a11.28,11.28,0,0,0,5.27-1.23c.05,0,.62-.39.66-.41l.92-.61a4.05,4.05,0,0,0,2.31-3.25c.16-.42-.08-1-.09-1.48,0-1.44-2.15-3.43-3.82-4.31L286.25,61.37l-58-33.46a16.38,16.38,0,0,0-6.13-1.77c-.52,0-1.39-.16-1.89-.09a11,11,0,0,0-4.69,1.14c-.1,0-1.07.65-1.15.69Z"/><path class="cls-29" d="M214.14,28.25c-.14.08-.38.25-.51.34-1.75,1.16-2.5,2.75-2.07,4.26,0,1.41,2.23,3.41,3.86,4.27l58.23,33.62,57.89,33.42a16.74,16.74,0,0,0,6.11,1.8c.35,0,1,.13,1.31.1a11,11,0,0,0,5.26-1.2s.61-.38.66-.4l.91-.62a3.87,3.87,0,0,0,2.25-3.23c.16-.41-.1-1-.11-1.47,0-1.4-2.21-3.4-3.85-4.26L286.17,61.44,228.39,28.08a16.68,16.68,0,0,0-6.1-1.79c-.51,0-1.4-.18-1.88-.11a11,11,0,0,0-4.68,1.1c-.1,0-1.06.64-1.15.69Z"/><path class="cls-30" d="M214.3,28.34c-.14.08-.39.25-.51.33-1.75,1.15-2.47,2.75-2,4.23,0,1.37,2.29,3.4,3.88,4.23l58.08,33.54L331.44,104a17.11,17.11,0,0,0,6.09,1.83c.34,0,1,.14,1.3.11a11,11,0,0,0,5.25-1.16l.65-.41.92-.61c1.5-.88,2.26-2.09,2.18-3.23.16-.4-.13-1-.14-1.44,0-1.37-2.27-3.39-3.86-4.23L286.09,61.51,228.48,28.26a16.88,16.88,0,0,0-6.06-1.82c-.49,0-1.4-.2-1.87-.13a11,11,0,0,0-4.67,1.06c-.11,0-1,.63-1.14.69Z"/><path class="cls-31" d="M214.45,28.42l-.5.34c-1.74,1.14-2.45,2.73-2,4.19,0,1.34,2.36,3.38,3.9,4.19L273.82,70.6l57.53,33.22c1.26.66,4.38,1.88,6.06,1.85.33,0,1,.16,1.29.13a10.7,10.7,0,0,0,5.23-1.13c.07,0,.6-.37.66-.4l.91-.61c1.5-.88,2.24-2.1,2.13-3.22.15-.39-.16-1-.18-1.43,0-1.33-2.33-3.37-3.88-4.18L286,61.59,228.58,28.43a17.28,17.28,0,0,0-6-1.84c-.48,0-1.4-.22-1.86-.15a10.59,10.59,0,0,0-4.65,1c-.12,0-1,.62-1.15.67Z"/><path class="cls-32" d="M214.61,28.51c-.13.07-.39.25-.5.33-1.74,1.14-2.43,2.72-1.92,4.17,0,1.29,2.42,3.36,3.93,4.15L273.9,70.52l57.36,33.13c1.23.64,4.39,1.9,6,1.88.32,0,1,.17,1.28.14a10.58,10.58,0,0,0,5.22-1.1c.07,0,.59-.36.65-.39l.91-.61c1.51-.88,2.22-2.1,2.07-3.22.15-.38-.19-1-.2-1.41,0-1.29-2.39-3.34-3.9-4.14l-57.4-33.14-57.24-33c-1.22-.65-4.36-1.89-6-1.87-.46,0-1.4-.23-1.85-.17a10.41,10.41,0,0,0-4.64,1c-.13,0-1,.61-1.15.67Z"/><path class="cls-33" d="M214.76,28.6l-.5.33c-1.72,1.13-2.39,2.7-1.85,4.13,0,1.26,2.47,3.34,3.94,4.11L274,70.45l57.19,33c1.19.63,4.4,1.93,6,1.91.32,0,1,.18,1.28.14a10.43,10.43,0,0,0,5.21-1c.07,0,.59-.36.65-.4l.9-.6c1.51-.88,2.2-2.1,2-3.21.15-.37-.22-1-.23-1.39,0-1.26-2.45-3.33-3.92-4.1L285.84,61.73,228.78,28.78c-1.19-.62-4.38-1.92-6-1.89-.45,0-1.4-.25-1.84-.19a10.39,10.39,0,0,0-4.63.95c-.13,0-1,.6-1.14.67Z"/><path class="cls-34" d="M214.92,28.68l-.5.33c-1.72,1.12-2.37,2.69-1.8,4.1,0,1.23,2.54,3.32,4,4.07l57.48,33.2,57,32.93c1.15.61,4.41,2,6,1.93.3,0,1,.19,1.27.16a10.18,10.18,0,0,0,5.2-1c.07,0,.58-.35.64-.39l.91-.6c1.5-.89,2.17-2.11,1.95-3.2.14-.36-.25-1-.26-1.38,0-1.22-2.52-3.31-3.94-4l-57.05-33L228.88,29c-1.15-.61-4.39-1.95-5.94-1.93-.44,0-1.4-.26-1.82-.2a10.13,10.13,0,0,0-4.63.92c-.14,0-1,.59-1.14.65Z"/><path class="cls-35" d="M215.07,28.77c-.11.06-.39.26-.49.33-1.71,1.11-2.34,2.67-1.75,4.06,0,1.19,2.6,3.31,4,4l57.33,33.12L331,103.14c1.13.59,4.44,2,5.94,2,.29,0,1,.2,1.26.17a10,10,0,0,0,5.18-1c.08,0,.58-.34.65-.38l.9-.61c1.5-.88,2.15-2.1,1.89-3.19.14-.35-.28-1-.29-1.35,0-1.19-2.57-3.29-3.95-4L285.67,61.88,229,29.13c-1.12-.59-4.41-2-5.91-1.95-.42,0-1.4-.28-1.81-.22a10,10,0,0,0-4.62.88c-.14,0-1,.58-1.13.65Z"/><path class="cls-36" d="M215.23,28.85c-.11.07-.39.26-.49.34-1.71,1.1-2.32,2.65-1.7,4,0,1.16,2.67,3.29,4,4l57.18,33L330.89,103c1.09.57,4.45,2,5.91,2,.28,0,1,.21,1.25.18a10,10,0,0,0,5.17-1l.64-.39.9-.6c1.5-.88,2.13-2.11,1.84-3.18.13-.34-.31-1-.32-1.34,0-1.15-2.64-3.27-4-4L285.59,62,229.08,29.31c-1.09-.58-4.42-2-5.88-2-.41,0-1.4-.3-1.8-.24a9.88,9.88,0,0,0-4.6.84c-.16.05-1,.57-1.14.65Z"/><path class="cls-37" d="M215.38,28.94l-.49.33c-1.69,1.1-2.28,2.64-1.64,4,0,1.11,2.73,3.26,4,3.94l57,32.95L330.8,102.8c1.06.55,4.46,2,5.87,2,.28,0,1,.23,1.25.2a9.76,9.76,0,0,0,5.16-.92c.08,0,.56-.34.64-.38l.89-.6c1.5-.88,2.11-2.11,1.78-3.18.12-.33-.34-1-.35-1.32,0-1.11-2.7-3.25-4-3.93L285.51,62,229.18,29.48c-1.05-.55-4.43-2-5.84-2-.41,0-1.41-.32-1.8-.26A9.59,9.59,0,0,0,217,28a12.76,12.76,0,0,0-1.14.64Z"/><path class="cls-38" d="M215.54,29c-.11.06-.39.27-.49.34-1.69,1.08-2.26,2.62-1.58,4,0,1.08,2.78,3.25,4,3.91l56.88,32.86,56.32,32.54c1,.53,4.48,2.06,5.84,2,.27,0,1,.24,1.24.21a9.64,9.64,0,0,0,5.15-.89c.08,0,.56-.33.63-.37l.9-.6c1.49-.88,2.08-2.11,1.71-3.17.12-.32-.37-1-.37-1.3,0-1.08-2.76-3.23-4-3.89L285.43,62.09,229.28,29.66c-1-.54-4.45-2.05-5.81-2-.39,0-1.42-.34-1.79-.28a9.45,9.45,0,0,0-4.58.77c-.17.05-1,.55-1.13.63Z"/><path class="cls-39" d="M215.7,29.11c-.11.06-.4.27-.49.33-1.68,1.08-2.23,2.61-1.53,3.93,0,1.05,2.85,3.23,4.06,3.87L274.47,70l56.14,32.43c1,.52,4.5,2.09,5.82,2.07.26,0,1,.26,1.23.23a9.46,9.46,0,0,0,5.13-.85c.1,0,.56-.33.64-.38l.89-.59c1.5-.88,2.06-2.12,1.66-3.17.11-.3-.4-1-.41-1.28,0-1-2.82-3.21-4-3.85L285.35,62.17l-56-32.34c-1-.52-4.46-2.07-5.78-2-.38,0-1.42-.36-1.78-.31a9.55,9.55,0,0,0-4.57.74c-.17.05-1,.55-1.13.63Z"/><path class="cls-40" d="M215.85,29.19c-.1.06-.39.27-.48.34-1.68,1.07-2.21,2.59-1.48,3.89,0,1,2.91,3.21,4.08,3.83L274.56,70l56,32.33c1,.51,4.51,2.12,5.79,2.1.25,0,1,.26,1.22.24a9.42,9.42,0,0,0,5.12-.82c.1,0,.55-.32.64-.37l.88-.59c1.5-.88,2.05-2.12,1.6-3.16.11-.3-.43-1-.44-1.26,0-1-2.88-3.2-4.05-3.81l-56-32.37L229.48,30c-.95-.5-4.48-2.1-5.75-2.08-.36,0-1.42-.38-1.77-.33a9.33,9.33,0,0,0-4.55.71,11.36,11.36,0,0,0-1.14.62Z"/><path class="cls-41" d="M216,29.28l-.49.33c-1.66,1.07-2.17,2.58-1.42,3.86,0,1,3,3.2,4.11,3.79l56.43,32.61,55.79,32.24c.92.49,4.53,2.15,5.75,2.13.24,0,1,.27,1.22.25a9.22,9.22,0,0,0,5.11-.79c.1,0,.54-.31.63-.36l.88-.6c1.5-.87,2-2.12,1.55-3.15.1-.28-.46-.94-.47-1.24,0-1-2.94-3.17-4.07-3.77L285.18,62.31l-55.6-32.13c-.92-.48-4.49-2.12-5.72-2.11-.35,0-1.42-.38-1.75-.34a9.19,9.19,0,0,0-4.55.67,8.79,8.79,0,0,0-1.13.62Z"/><path class="cls-42" d="M216.16,29.37c-.09.05-.4.27-.48.33-1.66,1.05-2.15,2.56-1.37,3.83,0,.93,3,3.17,4.13,3.74L274.72,69.8l55.62,32.14c.88.47,4.54,2.17,5.72,2.15.23,0,1,.29,1.21.27a9,9,0,0,0,5.09-.75c.11,0,.54-.31.64-.37l.88-.59c1.49-.87,2-2.12,1.48-3.14.1-.28-.49-.94-.5-1.22,0-.94-3-3.16-4.09-3.73L285.1,62.38l-55.42-32c-.88-.47-4.51-2.15-5.69-2.14-.34,0-1.42-.4-1.74-.36a9.18,9.18,0,0,0-4.54.63c-.2.06-1,.52-1.13.61Z"/><path class="cls-43" d="M216.32,29.45c-.09.05-.4.28-.48.33-1.65,1-2.12,2.55-1.32,3.8,0,.9,3.1,3.15,4.15,3.7L274.8,69.73l55.45,32c.85.45,4.55,2.2,5.69,2.18.22,0,1,.3,1.2.28a8.94,8.94,0,0,0,5.08-.72c.11,0,.54-.31.63-.36l.88-.59c1.49-.87,2-2.12,1.42-3.14.1-.26-.52-.92-.52-1.2,0-.9-3.07-3.14-4.11-3.69L285,62.46,229.78,30.53c-.85-.45-4.52-2.17-5.66-2.16-.32,0-1.42-.42-1.73-.38a8.92,8.92,0,0,0-4.53.6,8.56,8.56,0,0,0-1.12.6Z"/><path class="cls-44" d="M216.47,29.54c-.08.05-.4.27-.47.33-1.65,1-2.1,2.53-1.26,3.76,0,.87,3.16,3.14,4.16,3.67l56,32.36,55.26,31.94c.82.43,4.57,2.22,5.67,2.21.21,0,1,.31,1.19.29a8.83,8.83,0,0,0,5.07-.69c.11,0,.53-.3.63-.35l.87-.59c1.49-.87,2-2.13,1.37-3.13.09-.26-.55-.92-.56-1.19,0-.86-3.12-3.11-4.13-3.64l-55.33-32L229.88,30.71c-.82-.43-4.54-2.21-5.63-2.19-.31,0-1.42-.44-1.72-.4a8.77,8.77,0,0,0-4.52.56,9.25,9.25,0,0,0-1.12.6Z"/><path class="cls-45" d="M216.63,29.62l-.48.33c-1.63,1-2.06,2.52-1.2,3.73,0,.83,3.22,3.12,4.18,3.63L275,69.58l55.09,31.85c.78.41,4.59,2.25,5.63,2.23.21,0,1,.33,1.19.31a8.79,8.79,0,0,0,5.06-.65c.11,0,.52-.3.62-.36l.87-.58c1.49-.88,1.94-2.13,1.31-3.13.09-.24-.58-.91-.58-1.16,0-.83-3.19-3.1-4.15-3.61L284.85,62.6,230,30.88c-.78-.41-4.55-2.23-5.6-2.21-.29,0-1.42-.46-1.71-.42a8.68,8.68,0,0,0-4.5.52,12,12,0,0,0-1.13.59Z"/><path class="cls-46" d="M216.78,29.71l-.47.33c-1.63,1-2,2.5-1.15,3.69,0,.8,3.29,3.11,4.21,3.59l55.68,32.19L330,101.26c.75.39,4.6,2.27,5.6,2.26.2,0,1,.33,1.18.31a8.47,8.47,0,0,0,5-.61c.12,0,.52-.29.63-.35l.87-.58c1.48-.88,1.91-2.14,1.24-3.12.09-.23-.6-.9-.61-1.15,0-.79-3.25-3.08-4.17-3.56l-55-31.79L230.08,31.06c-.75-.4-4.56-2.26-5.56-2.24-.29,0-1.43-.48-1.71-.44a7.91,7.91,0,0,0-5.61,1.07Z"/><path class="cls-47" d="M216.94,29.79l-.47.33c-1.62,1-2,2.5-1.1,3.67,0,.75,3.35,3.08,4.23,3.54l55.53,32.11,54.75,31.65c.71.37,4.61,2.3,5.57,2.29.19,0,1,.34,1.17.32a8.36,8.36,0,0,0,5-.57c.13,0,.51-.29.62-.35l.87-.59c1.49-.87,1.89-2.13,1.19-3.11.08-.22-.64-.89-.65-1.12,0-.76-3.3-3.06-4.18-3.53L284.69,62.75,230.18,31.23c-.72-.37-4.58-2.28-5.53-2.27-.28,0-1.44-.49-1.7-.45a8.31,8.31,0,0,0-4.48.45,8.46,8.46,0,0,0-1.12.58Z"/><path class="cls-48" d="M217.1,29.88l-.47.33c-1.61,1-2,2.48-1,3.63,0,.72,3.41,3.06,4.25,3.5l55.38,32,54.57,31.55c.69.36,4.64,2.33,5.55,2.31.17,0,1,.36,1.16.34a8.25,8.25,0,0,0,5-.54,6.21,6.21,0,0,0,.62-.35l.86-.58c1.49-.87,1.87-2.13,1.13-3.1.08-.21-.67-.89-.67-1.11,0-.72-3.37-3-4.21-3.48L284.61,62.82,230.28,31.41c-.68-.36-4.59-2.31-5.5-2.3-.26,0-1.44-.51-1.69-.47a7.45,7.45,0,0,0-5.58,1Z"/><path class="cls-49" d="M217.25,30l-.47.33c-1.6,1-1.95,2.47-1,3.6,0,.69,3.47,3,4.26,3.46L275.3,69.29l54.39,31.46c.65.34,4.65,2.35,5.51,2.34.17,0,1,.37,1.16.35a8.15,8.15,0,0,0,5-.51,6,6,0,0,0,.61-.34l.86-.58c1.49-.87,1.85-2.14,1.08-3.1.07-.2-.7-.87-.71-1.09,0-.68-3.43-3-4.22-3.44L284.52,62.89,230.38,31.58c-.65-.34-4.61-2.33-5.47-2.32-.25,0-1.44-.52-1.67-.49a8.08,8.08,0,0,0-4.47.38,8.23,8.23,0,0,0-1.11.56Z"/><path class="cls-50" d="M217.41,30.05l-.47.33c-1.59,1-1.93,2.45-.93,3.56,0,.65,3.53,3,4.28,3.43l55.09,31.85,54.22,31.36c.61.32,4.66,2.38,5.48,2.37.16,0,1,.38,1.15.36a8.08,8.08,0,0,0,5-.47c.14-.06.5-.27.62-.34l.86-.58c1.48-.87,1.83-2.14,1-3.09.07-.19-.73-.87-.73-1.07,0-.65-3.49-3-4.25-3.4L284.44,63l-54-31.2c-.62-.33-4.62-2.36-5.44-2.35-.23,0-1.44-.54-1.66-.51a8,8,0,0,0-4.45.34,8.36,8.36,0,0,0-1.12.56Z"/><path class="cls-51" d="M217.56,30.14c-.06,0-.41.29-.46.32-1.59,1-1.91,2.44-.88,3.53,0,.62,3.6,3,4.31,3.39l54.93,31.77,54.05,31.26c.58.3,4.67,2.4,5.45,2.39.15,0,1,.4,1.14.38a7.91,7.91,0,0,0,5-.44c.14-.06.49-.27.61-.34l.86-.57c1.48-.87,1.81-2.15.95-3.09.07-.17-.75-.86-.76-1,0-.61-3.55-3-4.26-3.35L284.36,63l-53.78-31.1c-.58-.3-4.64-2.38-5.41-2.37-.22,0-1.44-.56-1.65-.53a7.86,7.86,0,0,0-4.44.3,7.68,7.68,0,0,0-1.11.56Z"/><path class="cls-52" d="M217.72,30.22c-.06,0-.41.29-.46.33-1.58,1-1.88,2.42-.83,3.5,0,.57,3.66,3,4.33,3.34l54.78,31.69,53.87,31.16c.55.28,4.7,2.43,5.43,2.42.14,0,1,.4,1.13.39a7.74,7.74,0,0,0,5-.41c.14,0,.48-.26.61-.33l.85-.57c1.48-.87,1.79-2.15.9-3.08.06-.17-.79-.86-.79-1,0-.58-3.62-3-4.29-3.32l-53.94-31.2-53.6-31c-.55-.29-4.65-2.41-5.38-2.4-.21,0-1.44-.58-1.64-.55a7.74,7.74,0,0,0-4.43.27,7.12,7.12,0,0,0-1.11.54Z"/><path class="cls-53" d="M217.87,30.31l-.46.32c-1.57,1-1.85,2.41-.77,3.47,0,.54,3.72,3,4.35,3.3L275.63,69l53.69,31.06c.51.27,4.71,2.47,5.39,2.46.14,0,1,.41,1.13.4a7.74,7.74,0,0,0,5-.37c.15-.06.49-.26.62-.33l.85-.58c1.47-.86,1.76-2.15.83-3.06.06-.16-.81-.85-.82-1,0-.54-3.67-2.94-4.3-3.27L284.19,63.18l-53.41-30.9c-.51-.27-4.67-2.43-5.35-2.42-.19,0-1.44-.6-1.63-.57a7.61,7.61,0,0,0-4.42.23,7.49,7.49,0,0,0-1.1.54Z"/><path class="cls-54" d="M218,30.39l-.46.33c-1.56,1-1.82,2.39-.72,3.43,0,.51,3.79,3,4.37,3.26l54.49,31.52,53.52,31c.48.25,4.72,2.49,5.36,2.48.13,0,1,.43,1.13.42a7.55,7.55,0,0,0,4.93-.34,5.92,5.92,0,0,0,.61-.33l.85-.57c1.48-.86,1.74-2.15.78-3.06.05-.15-.85-.84-.86-1,0-.5-3.73-2.92-4.32-3.23l-53.6-31L230.88,32.46c-.48-.25-4.68-2.46-5.32-2.46-.18,0-1.44-.61-1.62-.58a7.46,7.46,0,0,0-4.4.19,6.71,6.71,0,0,0-1.11.54Z"/><path class="cls-55" d="M218.18,30.48l-.45.32c-1.56,1-1.8,2.38-.66,3.4,0,.47,3.84,2.94,4.39,3.22l54.33,31.44,53.35,30.86c.44.24,4.74,2.52,5.33,2.51.11,0,1,.44,1.12.43a7.46,7.46,0,0,0,4.92-.31c.15-.06.47-.24.61-.32l.84-.57c1.48-.86,1.72-2.15.72-3,.05-.14-.88-.84-.88-1,0-.47-3.8-2.91-4.34-3.19L284,63.32,231,32.63c-.45-.23-4.69-2.49-5.29-2.48-.16,0-1.44-.63-1.61-.61a7.42,7.42,0,0,0-4.39.17,6,6,0,0,0-1.11.53Z"/><path class="cls-56" d="M218.34,30.56l-.45.33c-1.55.95-1.77,2.36-.61,3.37,0,.43,3.91,2.91,4.41,3.18l54.18,31.35,53.18,30.76a43.79,43.79,0,0,0,5.3,2.54c.1,0,1,.45,1.11.44a7.36,7.36,0,0,0,4.91-.27c.16-.07.46-.24.6-.32l.84-.57c1.48-.87,1.7-2.16.66-3.05,0-.13-.9-.82-.91-1,0-.43-3.85-2.88-4.35-3.15L284,63.4,231.08,32.81c-.41-.22-4.71-2.52-5.25-2.51-.16,0-1.46-.65-1.61-.63a7.3,7.3,0,0,0-4.38.13,6.54,6.54,0,0,0-1.1.52Z"/><path class="cls-57" d="M218.5,30.65,218,31c-1.54.94-1.74,2.34-.55,3.33,0,.39,4,2.9,4.43,3.14l54,31.26,53,30.67a47.46,47.46,0,0,0,5.27,2.56c.1,0,1,.47,1.11.46a7.24,7.24,0,0,0,4.89-.24,4.42,4.42,0,0,0,.61-.32l.84-.56c1.47-.87,1.67-2.16.6-3,0-.12-.94-.82-.94-.94,0-.4-3.92-2.87-4.38-3.11L283.86,63.47,231.17,33A45.56,45.56,0,0,0,226,30.45c-.15,0-1.46-.67-1.59-.65a7.22,7.22,0,0,0-4.38.09,6.54,6.54,0,0,0-1.1.52Z"/><path class="cls-58" d="M218.65,30.73l-.45.33c-1.53.94-1.71,2.33-.5,3.3,0,.36,4,2.88,4.45,3.1L276,68.64l52.82,30.57a54.24,54.24,0,0,0,5.24,2.59c.09,0,1,.47,1.1.47a7.15,7.15,0,0,0,4.88-.21,3.77,3.77,0,0,0,.6-.31l.84-.56c1.47-.87,1.65-2.17.54-3,0-.1-1-.81-1-.92,0-.36-4-2.85-4.39-3.07L283.78,63.54,231.27,33.16a50.84,50.84,0,0,0-5.18-2.56c-.13,0-1.46-.68-1.58-.67a7.1,7.1,0,0,0-4.37.06,6.12,6.12,0,0,0-1.1.51Z"/><path class="cls-59" d="M218.81,30.82l-.45.33c-1.53.92-1.69,2.31-.45,3.26,0,.33,4.1,2.86,4.47,3.06l53.74,31.1L328.77,99a57.56,57.56,0,0,0,5.21,2.61c.08,0,1,.49,1.09.48a7,7,0,0,0,4.87-.16c.17-.07.45-.23.6-.31l.83-.57c1.47-.86,1.64-2.16.48-3,0-.1-1-.8-1-.9,0-.33-4-2.83-4.42-3L283.7,63.61,231.37,33.33a55,55,0,0,0-5.15-2.58c-.12,0-1.46-.7-1.57-.69a7,7,0,0,0-4.35,0,6.14,6.14,0,0,0-1.1.5Z"/><path class="cls-60" d="M219,30.91s-.42.3-.44.32c-1.52.92-1.66,2.3-.39,3.23,0,.29,4.15,2.85,4.49,3l53.58,31,52.48,30.37c.27.14,4.81,2.65,5.18,2.64.07,0,1,.5,1.08.49a6.91,6.91,0,0,0,4.86-.13,5.49,5.49,0,0,0,.59-.31l.83-.56c1.47-.86,1.62-2.16.43-3,0-.08-1-.79-1-.88,0-.29-4.1-2.81-4.43-3L283.62,63.69,231.47,33.51c-.27-.15-4.76-2.62-5.12-2.62-.1,0-1.46-.71-1.56-.7a6.92,6.92,0,0,0-4.34,0,6.14,6.14,0,0,0-1.1.5Z"/><path class="cls-61" d="M219.12,31l-.45.33c-1.51.91-1.63,2.28-.33,3.2a40,40,0,0,0,4.51,3l53.43,30.94,52.3,30.27c.24.12,4.83,2.67,5.15,2.67.06,0,1,.51,1.08.5a6.8,6.8,0,0,0,4.84-.1,5.59,5.59,0,0,0,.6-.3l.83-.56c1.47-.86,1.59-2.17.36-3,0-.08-1.05-.79-1.05-.87a40.05,40.05,0,0,0-4.46-2.94L283.54,63.76l-52-30.08c-.23-.12-4.77-2.64-5.09-2.64-.09,0-1.46-.73-1.55-.72a6.81,6.81,0,0,0-4.33-.05,4.9,4.9,0,0,0-1.09.49Z"/><path class="cls-62" d="M219.27,31.08l-.44.32c-1.5.91-1.6,2.27-.28,3.17a51.34,51.34,0,0,0,4.53,2.94l53.29,30.84,52.12,30.18c.21.11,4.85,2.7,5.12,2.69.05,0,1,.53,1.07.52a6.76,6.76,0,0,0,4.83-.06c.18-.08.43-.21.59-.3l.83-.56c1.47-.86,1.57-2.17.31-3,0-.06-1.09-.78-1.09-.84a47.91,47.91,0,0,0-4.47-2.91L283.45,63.83l-51.78-30c-.2-.11-4.79-2.67-5.06-2.67-.08,0-1.46-.75-1.54-.74a6.7,6.7,0,0,0-4.32-.09,5.4,5.4,0,0,0-1.09.49Z"/><path class="cls-63" d="M219.43,31.16l-.44.33c-1.5.89-1.58,2.26-.23,3.13,0,.18,4.34,2.79,4.55,2.9l53.14,30.76L328.4,98.36c.17.09,4.86,2.72,5.09,2.72,0,0,1,.54,1.06.53a6.63,6.63,0,0,0,4.82,0,4.09,4.09,0,0,0,.59-.3l.82-.55c1.47-.86,1.55-2.18.25-3,0-.06-1.11-.77-1.12-.83s-4.28-2.75-4.49-2.86L283.37,63.9,231.77,34c-.17-.09-4.8-2.69-5-2.69-.06,0-1.46-.77-1.53-.76a6.6,6.6,0,0,0-4.31-.13,5.63,5.63,0,0,0-1.09.48Z"/><path class="cls-64" d="M219.58,31.25l-.43.32c-1.49.89-1.55,2.25-.18,3.1,0,.15,4.41,2.77,4.57,2.86l53,30.68,51.78,30c.13.07,4.87,2.75,5.05,2.75s1,.54,1.06.54a6.47,6.47,0,0,0,4.8,0,3.59,3.59,0,0,0,.59-.29l.82-.55c1.47-.86,1.53-2.18.19-3,0,0-1.14-.76-1.14-.8s-4.35-2.74-4.51-2.83L283.29,64,231.87,34.21c-.13-.08-4.81-2.72-5-2.72s-1.47-.79-1.51-.78a6.57,6.57,0,0,0-4.3-.17A5.7,5.7,0,0,0,220,31Z"/><path class="cls-65" d="M219.74,31.33l-.44.33c-1.48.88-1.52,2.23-.12,3.06,0,.11,4.47,2.75,4.6,2.82l52.83,30.6L328.22,98c.1,0,4.89,2.78,5,2.77s1,.56,1.05.56a6.49,6.49,0,0,0,4.79,0,4.62,4.62,0,0,0,.59-.29l.82-.55c1.46-.86,1.5-2.18.13-3,0,0-1.18-.76-1.18-.79S335,94.06,334.91,94l-51.7-29.94L232,34.38c-.1-.05-4.83-2.74-5-2.74s-1.47-.81-1.5-.8a6.41,6.41,0,0,0-4.29-.2,4.85,4.85,0,0,0-1.09.47Z"/><path class="cls-66" d="M219.9,31.42l-.44.32c-1.47.88-1.49,2.22-.06,3,0,.07,4.53,2.73,4.61,2.77L276.7,68.06l51.42,29.79c.07,0,4.91,2.8,5,2.8s1,.57,1,.57a6.37,6.37,0,0,0,4.78.07,4,4,0,0,0,.59-.29l.81-.55c1.46-.86,1.48-2.18.07-3,0,0-1.2-.74-1.2-.77S334.74,94,334.66,94L283.12,64.12,232.07,34.56c-.07,0-4.84-2.78-4.93-2.77s-1.48-.83-1.5-.82a6.31,6.31,0,0,0-4.28-.24,5,5,0,0,0-1.08.46Z"/><path class="cls-67" d="M220.05,31.5l-.43.33c-1.47.86-1.47,2.2,0,3,0,0,4.59,2.71,4.63,2.73L276.78,68,328,97.68s4.92,2.83,5,2.83l1,.58a6.29,6.29,0,0,0,4.77.1,5.18,5.18,0,0,0,.58-.28l.81-.55c1.46-.86,1.46-2.18,0-3,0,0-1.24-.74-1.24-.75s-4.53-2.68-4.57-2.7L283,64.19,232.17,34.73s-4.86-2.8-4.9-2.8-1.48-.83-1.49-.83a6.27,6.27,0,0,0-4.27-.28,5.24,5.24,0,0,0-1.08.46Z"/><path class="cls-68" d="M340,97.3l-57-33-57-33a6.11,6.11,0,0,0-5.34.14l-.37.22-.43.32c-1.46.86-1.44,2.19,0,3l57,33,57,33a6.14,6.14,0,0,0,5.34-.14l.8-.55C341.51,99.41,341.48,98.08,340,97.3Z"/></g><polygon class="cls-69" points="343.64 105.27 346.13 103.8 346.13 81.29 343.64 82.77 343.64 105.27"/><polygon class="cls-69" points="213.69 7.74 343.64 82.76 346.13 81.29 216.17 5.67 213.69 7.74"/><polygon class="cls-69" points="213.69 7.74 231.58 18.07 234.54 16.36 216.17 5.67 213.69 7.74"/><polygon class="cls-70" points="213.69 30.24 343.64 105.27 343.64 82.77 213.69 7.74 213.69 30.24"/><path class="cls-71" d="M333.48,92.29a3,3,0,0,0,1,2.54c.67.56,1.35.32,1.5-.53a3,3,0,0,0-1-2.55C334.3,91.2,333.63,91.44,333.48,92.29Z"/><path class="cls-71" d="M324.75,87.49A3,3,0,0,0,325.7,90c.68.55,1.36.31,1.51-.54a3,3,0,0,0-1-2.54C325.57,86.4,324.9,86.64,324.75,87.49Z"/><path class="cls-71" d="M316,82.7a3,3,0,0,0,1,2.54c.68.55,1.35.31,1.5-.54a2.92,2.92,0,0,0-1-2.54C316.84,81.61,316.17,81.85,316,82.7Z"/><path class="cls-71" d="M307.28,77.9a3,3,0,0,0,1,2.54c.68.56,1.35.31,1.5-.53a3,3,0,0,0-.95-2.55C308.11,76.81,307.43,77.05,307.28,77.9Z"/><path class="cls-71" d="M298.55,73.1a3,3,0,0,0,1,2.54c.68.56,1.35.32,1.5-.53a3,3,0,0,0-1-2.54C299.38,72,298.7,72.25,298.55,73.1Z"/><path class="cls-71" d="M289.82,68.3a3,3,0,0,0,1,2.55c.68.55,1.35.31,1.5-.54a3,3,0,0,0-1-2.54C290.65,67.22,290,67.46,289.82,68.3Z"/><path class="cls-71" d="M281.09,63.51a3,3,0,0,0,1,2.54c.68.55,1.35.31,1.5-.54a3,3,0,0,0-1-2.54C281.91,62.42,281.24,62.66,281.09,63.51Z"/><path class="cls-72" d="M650.83,284.82c.13-2.78-1.49-6.05-3.61-7.27L493.45,189.21a2.84,2.84,0,0,0-3,.16L488,191,477.61,428.43c-.14,2.78,1.49,6.06,3.6,7.27l155.44,91.89L639,529Z"/><path class="cls-73" d="M648.27,287c.14-2.78-1.49-6.05-3.61-7.27L490.58,191.15c-2.12-1.22-4,.06-4.1,2.84L474.86,434.57l161.79,93Z"/><path class="cls-74" d="M644.66,279.74,490.58,191.15c-2.12-1.22-4,.06-4.1,2.84l-.55,11.41,161.79,93,.55-11.41C648.41,284.23,646.78,281,644.66,279.74Z"/><path class="cls-75" d="M625.53,276.26c-.69-.39-1.29,0-1.33.94a2.75,2.75,0,0,0,1.18,2.36c.69.39,1.29,0,1.33-.93A2.81,2.81,0,0,0,625.53,276.26Z"/><path class="cls-75" d="M631,279.49c-.69-.4-1.29,0-1.33.93a2.75,2.75,0,0,0,1.18,2.36c.69.4,1.29,0,1.33-.93A2.78,2.78,0,0,0,631,279.49Z"/><path class="cls-75" d="M636.47,282.71c-.69-.4-1.29,0-1.33.93a2.75,2.75,0,0,0,1.18,2.36c.69.4,1.29,0,1.33-.93A2.8,2.8,0,0,0,636.47,282.71Z"/><polygon class="cls-76" points="497.71 232.05 494.36 301.54 629.47 378.4 632.8 309.36 497.71 232.05"/><polygon class="cls-77" points="489.89 389.89 489.63 395.22 624.89 473.03 625.15 467.74 489.89 389.89"/><polygon class="cls-77" points="489.19 404.32 488.93 409.65 624.2 487.47 624.45 482.18 489.19 404.32"/><polygon class="cls-77" points="488.46 419.48 488.2 424.81 623.47 502.63 623.72 497.33 488.46 419.48"/><polygon class="cls-78" points="493.84 312.14 491.17 367.56 529.98 390.27 532.64 335.21 493.84 312.14"/><polygon class="cls-78" points="590.11 367.06 587.43 422.47 626.24 445.18 628.9 390.12 590.11 367.06"/><polygon class="cls-78" points="541.97 339.77 539.29 395.19 578.1 417.9 580.76 362.83 541.97 339.77"/><path class="cls-72" d="M656.1,423.51l-6.34-4.2a5.61,5.61,0,0,1-2.08-3.61c-.44-2.52-1-5.48-1.08-5.66l6.35-4c1.29-.81,1.51-3.36.49-5.7l-6.39-14.73a5,5,0,0,0-2.73-2.91h0a1.67,1.67,0,0,0-1.3.11l-7,2.87a4.64,4.64,0,0,1-.9-.92c-.54-.74-1.09-1.45-1.65-2.14a6.23,6.23,0,0,1-1.38-4.25l.74-8.61a7.11,7.11,0,0,0-2.6-6L619.9,357a2.3,2.3,0,0,0-1.35-.44h0l-9.89,7.4.75,3.21,6.51-.14-.06.72c-.12,1.37-.84,2.18-1.81,2.07-.67-.07-1.39-.13-2-.16-1-.06-2-1.05-2.63-2.49l-4-9.14c-.81-1.86-2.15-3-3.31-3v0l-4.64,1.24a3.9,3.9,0,0,0-3,1.94l-10.87,10.2s8-4.68,9-2.34L596.6,375a5,5,0,0,1,.13,4.12c-.35.64-.67,1.31-1,2a1.56,1.56,0,0,1-2.5.74l-6.3-4.16a2.2,2.2,0,0,0-1.56-.42h0l-3.28.27a7.26,7.26,0,0,0-6.14,5.86l-.28,1.28,7.26,3.51-.48,5.65a7.11,7.11,0,0,0,2.61,6l6.35,4.19a5.58,5.58,0,0,1,2.08,3.6c.19,1.06.4,2.19.59,3.16.3,1.52,0,2.84-.83,3.34l-5,3.18c-1.28.82-1.5,3.37-.48,5.71l15.55,14.33c.82-.52,1.95,0,2.85,1.22.54.73,1.1,1.45,1.66,2.14a6.31,6.31,0,0,1,1.38,4.24l-.73,8.63a7.1,7.1,0,0,0,2.6,6l4.09,2.71,0,10.79,8.05-6.35v0a2.94,2.94,0,0,0,1.44-2.42l.74-8.68c.12-1.37.83-2.19,1.8-2.08.68.07,1.4.12,2,.16,1,.06,2,1.05,2.64,2.48l2.1,4.84-3.38.27-.38,7.77,9.06-.74v0c.26,0,.76.67,1,.53l7.85-5.87c1.29-.81,1.5-3.36.49-5.7l-3.93-9a5,5,0,0,1-.14-4.13c.33-.61.63-1.25.92-1.91a1.56,1.56,0,0,1,2.5-.73h0l.5,10.4a91.49,91.49,0,0,0,7.5-5.83h0a4.21,4.21,0,0,0,1.56-2.48l1.21-14A7.09,7.09,0,0,0,656.1,423.51Zm-31.21,10.21c-6.61-.37-14-8.4-17.23-18.74-4.31-13.88-.07-25.9,8.64-25.42,6.62.37,14,8.4,17.24,18.74C637.84,422.18,633.6,434.2,624.89,433.72Z"/><path class="cls-74" d="M638.05,416.69l6.35-4c1.29-.81,1.51-3.36.5-5.7l-6.4-14.74c-1-2.33-2.88-3.57-4.17-2.76l-5,3.13c-.82.52-2,0-2.85-1.22-.54-.74-1.09-1.45-1.65-2.14a6.25,6.25,0,0,1-1.38-4.25l.74-8.61a7.07,7.07,0,0,0-2.6-6l-10.25-6.82c-1.63-1.08-3.11-.15-3.3,2.08l-.75,8.67c-.12,1.37-.83,2.18-1.8,2.07-.68-.07-1.4-.13-2-.17-1-.06-2-1.05-2.63-2.49l-4-9.13c-1-2.34-2.88-3.58-4.17-2.77l-8.11,5.09c-1.29.81-1.51,3.36-.5,5.7l3.93,9.05a5,5,0,0,1,.13,4.12c-.35.64-.67,1.31-1,2a1.56,1.56,0,0,1-2.5.74l-6.3-4.17c-1.62-1.07-3.1-.14-3.29,2.09l-1.18,14a7.07,7.07,0,0,0,2.6,6l6.35,4.19a5.63,5.63,0,0,1,2.09,3.6c.18,1,.39,2.18.58,3.16.3,1.52,0,2.84-.82,3.34l-5,3.18c-1.29.81-1.51,3.37-.49,5.71l6.41,14.72c1,2.34,2.89,3.58,4.17,2.76l5-3.15c.83-.52,2,0,2.85,1.22.55.73,1.1,1.44,1.66,2.13a6.3,6.3,0,0,1,1.38,4.25l-.73,8.62a7.07,7.07,0,0,0,2.6,6L612.8,473c1.63,1.08,3.11.14,3.29-2.08l.75-8.69c.11-1.36.82-2.18,1.8-2.07.67.07,1.39.12,2,.16,1,.06,2,1,2.63,2.48l4,9.13c1,2.34,2.88,3.58,4.17,2.77l8.1-5.12c1.29-.81,1.51-3.36.49-5.7l-3.93-9a5,5,0,0,1-.14-4.13c.33-.61.64-1.25.93-1.91a1.55,1.55,0,0,1,2.49-.73l6.3,4.18c1.63,1.08,3.11.15,3.3-2.08l1.2-14a7.07,7.07,0,0,0-2.6-6L641.21,426a5.64,5.64,0,0,1-2.08-3.6C638.69,419.82,638.09,416.87,638.05,416.69Zm-38.94,4.93c-4.3-13.87-.07-25.89,8.64-25.41,6.62.36,14,8.4,17.24,18.74,4.3,13.88.06,25.9-8.65,25.41C609.73,440,602.31,432,599.11,421.62Z"/><path class="cls-74" d="M581.63,340l-5-3.35a4.45,4.45,0,0,1-1.66-2.87c-.35-2-.83-4.37-.86-4.51l5.06-3.19c1-.65,1.2-2.68.39-4.55l-5.1-11.74a4,4,0,0,0-2.17-2.32h0a1.31,1.31,0,0,0-1,.08l-5.61,2.29a3.84,3.84,0,0,1-.72-.73q-.65-.88-1.32-1.71a5,5,0,0,1-1.09-3.39l.59-6.86a5.68,5.68,0,0,0-2.07-4.77l-8.18-5.43a1.79,1.79,0,0,0-1.08-.35h0l-7.88,5.9.6,2.56,5.19-.11-.05.57c-.1,1.09-.67,1.74-1.44,1.65-.54-.06-1.11-.1-1.6-.13a3,3,0,0,1-2.1-2l-3.16-7.29c-.64-1.48-1.71-2.39-2.64-2.39v0L536,284.8a3.15,3.15,0,0,0-2.35,1.55L523.91,296s6.36-3.73,7.17-1.86l3.12,7.21a4,4,0,0,1,.11,3.28c-.28.51-.53,1.05-.77,1.6a1.24,1.24,0,0,1-2,.59l-5-3.32a1.78,1.78,0,0,0-1.25-.33h0l-2.61.21a5.81,5.81,0,0,0-4.9,4.68l-.22,1,5.79,2.79-.38,4.5a5.63,5.63,0,0,0,2.07,4.76l5.06,3.35a4.47,4.47,0,0,1,1.67,2.86c.14.84.31,1.74.46,2.52a2.55,2.55,0,0,1-.65,2.66l-4,2.54c-1,.65-1.19,2.68-.38,4.55L539.57,351c.66-.41,1.56,0,2.27,1q.66.88,1.32,1.71a5,5,0,0,1,1.11,3.38l-.59,6.88a5.65,5.65,0,0,0,2.08,4.76l3.26,2.16,0,8.6,6.42-5.06h0a2.34,2.34,0,0,0,1.15-1.93l.59-6.93c.09-1.08.66-1.74,1.43-1.65.54.06,1.11.1,1.61.13.76,0,1.59.83,2.09,2l1.68,3.85-2.69.22-.3,6.19,7.22-.59h0c.2,0,.6.53.78.41l6.26-4.67c1-.65,1.2-2.68.39-4.55l-3.13-7.2a4,4,0,0,1-.11-3.29c.26-.49.5-1,.73-1.52a1.25,1.25,0,0,1,2-.58h0l.4,8.28a72.11,72.11,0,0,0,6-4.65h0a3.3,3.3,0,0,0,1.25-2l1-11.18A5.66,5.66,0,0,0,581.63,340Zm-24.87,8.14c-5.28-.3-11.19-6.7-13.74-14.94-3.43-11.06,0-20.64,6.89-20.26,5.27.29,11.18,6.7,13.74,14.94C567.08,338.91,563.7,348.49,556.76,348.11Z"/><path class="cls-79" d="M567.24,334.54l5.07-3.19c1-.65,1.2-2.68.39-4.55l-5.1-11.74c-.81-1.86-2.3-2.85-3.32-2.21l-4,2.5c-.65.41-1.55,0-2.27-1q-.64-.88-1.32-1.71a5,5,0,0,1-1.1-3.39l.6-6.86a5.64,5.64,0,0,0-2.08-4.77L546,292.22c-1.3-.87-2.48-.13-2.63,1.65l-.6,6.91c-.09,1.09-.66,1.74-1.43,1.65-.54-.06-1.12-.1-1.61-.13a3,3,0,0,1-2.1-2L534.45,293c-.81-1.86-2.3-2.85-3.33-2.21l-6.46,4.06c-1,.65-1.21,2.68-.4,4.55l3.13,7.21a3.93,3.93,0,0,1,.1,3.28c-.27.51-.53,1-.77,1.6a1.25,1.25,0,0,1-2,.59l-5-3.32c-1.3-.86-2.47-.12-2.62,1.66l-1,11.19a5.63,5.63,0,0,0,2.08,4.77l5.06,3.35a4.42,4.42,0,0,1,1.66,2.86c.15.84.32,1.74.47,2.52a2.55,2.55,0,0,1-.66,2.66l-4,2.54c-1,.65-1.2,2.68-.39,4.55l5.11,11.73c.82,1.87,2.3,2.85,3.33,2.2l4-2.51c.66-.41,1.55,0,2.27,1,.43.59.87,1.15,1.32,1.7a5,5,0,0,1,1.1,3.39l-.58,6.87a5.66,5.66,0,0,0,2.07,4.77l8.18,5.41c1.3.86,2.47.12,2.63-1.66l.59-6.92c.09-1.09.66-1.74,1.43-1.65.54.06,1.11.1,1.6.13.77,0,1.6.83,2.1,2l3.16,7.28c.82,1.86,2.3,2.85,3.33,2.2l6.46-4.08c1-.65,1.2-2.68.39-4.55l-3.14-7.2a4,4,0,0,1-.11-3.29c.26-.49.51-1,.74-1.52a1.24,1.24,0,0,1,2-.58l5,3.32c1.3.87,2.47.12,2.63-1.65l1-11.18a5.65,5.65,0,0,0-2.08-4.78l-5.05-3.35a4.45,4.45,0,0,1-1.66-2.87C567.76,337,567.28,334.68,567.24,334.54Zm-31,3.93c-3.43-11.06-.05-20.64,6.89-20.26,5.27.29,11.18,6.7,13.73,14.94,3.43,11.06,0,20.64-6.89,20.26C544.67,353.11,538.76,346.71,536.21,338.47Z"/><path class="cls-80" d="M433.58,262c0-.92-.08-1.83-.15-2.76,0-.2,0-.4,0-.61-.09-1.12-.21-2.24-.37-3.38,0-.18-.06-.37-.08-.56-.14-.95-.3-1.9-.47-2.86,0-.16-.05-.31-.08-.48s-.08-.35-.11-.52c-.1-.5-.21-1-.32-1.52s-.18-.83-.28-1.24-.24-1-.37-1.47-.22-.87-.34-1.31-.27-.94-.4-1.41-.27-.91-.41-1.36-.29-.91-.44-1.36-.19-.62-.29-.93l-.12-.29c-.48-1.42-1-2.84-1.58-4.25-.1-.26-.21-.52-.32-.79-.58-1.4-1.18-2.81-1.83-4.2-.05-.1-.08-.19-.12-.28s-.14-.26-.2-.39c-.7-1.47-1.42-2.93-2.2-4.37-.08-.16-.16-.31-.25-.46q-1.21-2.27-2.55-4.46a.05.05,0,0,0,0,0l-.31-.51c-.44-.7-.87-1.4-1.32-2.09l-.67-1c-.35-.54-.71-1.08-1.08-1.61-.24-.35-.48-.68-.73-1-.37-.52-.74-1-1.12-1.54-.23-.33-.48-.65-.72-1l-1.22-1.59-.32-.4c-.1-.13-.21-.25-.31-.37-.59-.74-1.19-1.46-1.8-2.17-.17-.21-.34-.42-.52-.62-.77-.88-1.55-1.75-2.34-2.6l-.38-.39c-.67-.71-1.34-1.4-2-2.08l-.76-.75c-.61-.58-1.21-1.15-1.83-1.71-.24-.22-.48-.45-.72-.66q-1.26-1.12-2.55-2.19l-.28-.23c-.78-.62-1.56-1.23-2.34-1.82l-.82-.61c-.65-.47-1.31-.93-2-1.37-.26-.19-.53-.37-.8-.55-.91-.6-1.82-1.18-2.74-1.73s-1.66-.94-2.48-1.38l-.87-.44c-.53-.27-1.06-.54-1.59-.79l-1-.42c-.5-.23-1-.45-1.49-.65-.31-.13-.63-.25-.94-.36-.5-.2-1-.38-1.49-.55l-.47-.17-.45-.14-1.31-.39-1-.26c-.43-.12-.85-.22-1.28-.31l-.91-.2-1.3-.22c-.29-.05-.58-.1-.86-.13s-.87-.1-1.3-.14c-.21,0-.42-.06-.63-.07h-.2l-.89,0-1,0c-.31,0-.61,0-.91,0l-.95,0-.88.07-.94.11c-.28,0-.56.07-.83.12s-.29,0-.43.06l-.52.12-.75.16-.94.25-.72.21c-.33.1-.65.22-1,.34l-.6.22c-.52.21-1,.43-1.52.67L349.6,190c.49-.24,1-.47,1.52-.67l.59-.22c.32-.12.65-.24,1-.34s.47-.14.72-.21.6-.17.91-.24l.79-.17c.3-.07.6-.12.91-.17s.55-.09.84-.12.65-.09,1-.11.53-.06.8-.07.71,0,1.07,0l.78,0,1.1,0,.83,0,.85.08,1.25.13,1,.15c.39.06.79.13,1.18.21s.65.13,1,.21l1.25.3.94.25,1.34.41.86.29c.53.18,1,.38,1.59.58l.82.32c.55.23,1.11.47,1.66.72l.78.35c.6.28,1.22.59,1.83.91l.64.32c.83.44,1.66.91,2.51,1.4s1.83,1.13,2.73,1.73c.27.17.53.36.8.54.66.45,1.32.91,2,1.4l.78.57c.83.62,1.64,1.25,2.44,1.91l.18.14c.87.72,1.74,1.46,2.59,2.23l.63.57c.65.6,1.29,1.2,1.93,1.82l.68.67c.73.72,1.45,1.46,2.16,2.21l.25.27c.81.86,1.6,1.74,2.38,2.64l.48.58q.92,1.06,1.8,2.16l.49.62q1.86,2.35,3.59,4.82l.23.33c1.2,1.73,2.36,3.5,3.45,5.3l.06.1c.9,1.48,1.75,3,2.57,4.52.07.12.14.24.2.36.8,1.49,1.55,3,2.27,4.52.07.15.15.31.22.47q1,2.17,1.91,4.38l.24.6c.59,1.46,1.13,2.93,1.63,4.39.12.33.22.65.33,1,.18.55.36,1.1.53,1.65.11.36.22.73.32,1.1.17.55.33,1.11.48,1.66.1.36.19.71.28,1.07.15.57.29,1.13.42,1.7l.24,1.05c.12.56.24,1.13.35,1.69.06.3.12.59.17.89.17.94.33,1.89.47,2.83,0,.22.07.44.1.66.14,1.1.26,2.2.36,3.29,0,.26,0,.53.05.79.06.85.11,1.71.13,2.55,0,.31,0,.63,0,.94,0,1.08,0,2.14,0,3.2-.59,13.5-6.13,22.71-14.6,26.69l8.76-4.12c8.5-4,14.05-13.21,14.64-26.73.05-1.08.05-2.16,0-3.25C433.59,262.56,433.58,262.28,433.58,262Z"/><path class="cls-81" d="M381.87,194.35c-24.59-14.57-45.39-4.61-46.56,22.21-.07,1.63-.07,3.27,0,4.95,1.05,23.81,16.38,51.64,36.8,66.87,1.8,1.35,3.63,2.58,5.47,3.71,24.8,15.06,46,5.33,47.17-21.85S406.68,209.06,381.87,194.35Z"/><path class="cls-80" d="M379.23,213.64c-6.79-4.07-12.52-1.28-12.83,6.22s4.94,16.9,11.72,21,12.57,1.34,12.87-6.19S386,217.72,379.23,213.64Z"/><path class="cls-80" d="M378.15,240.15c-12.12-7.31-22.35-2.37-22.89,11l43.95,26.71C399.76,264.4,390.31,247.49,378.15,240.15Z"/><path class="cls-81" d="M326,151.48l-37.72-23.36a1.91,1.91,0,0,0-3,1.39l-1.53,37.68a1.88,1.88,0,0,0,.9,1.65L323.16,193a1.93,1.93,0,0,0,3-1.37l1.5-37.06A3.53,3.53,0,0,0,326,151.48Z"/><path class="cls-80" d="M328.69,149.9l-37.62-23.28c-2.31-1.41-5.28.59-5.44,1.9h0a2,2,0,0,1,2.61-.4L326,151.48a3.53,3.53,0,0,1,1.72,3.11s-1.52,37.15-1.52,37.2a1.86,1.86,0,0,1-2.2,1.53c1.84.41,5.23.14,5.33-2.32l1.49-36.61A5,5,0,0,0,328.69,149.9Z"/><path class="cls-82" d="M305.67,148.43c-3.27-2-6.05-.75-6.19,2.86s2.38,8.2,5.66,10.25,6.06.77,6.21-2.86S309,150.47,305.67,148.43Z"/><path class="cls-82" d="M305.15,161.2c-5.85-3.65-10.8-1.37-11.06,5.09l21.22,13.28C315.57,173.09,311,164.86,305.15,161.2Z"/><path class="cls-81" d="M323.72,231,286,207.64a1.91,1.91,0,0,0-3,1.39l-1.54,37.68a1.89,1.89,0,0,0,.91,1.65l38.52,24.18a1.92,1.92,0,0,0,3-1.37l1.51-37.06A3.51,3.51,0,0,0,323.72,231Z"/><path class="cls-80" d="M326.46,229.42l-37.62-23.28c-2.31-1.41-5.29.6-5.45,1.9h0a2,2,0,0,1,2.6-.4L323.72,231a3.51,3.51,0,0,1,1.73,3.1s-1.52,37.16-1.52,37.2a1.87,1.87,0,0,1-2.21,1.53c1.84.41,5.23.14,5.33-2.32l1.49-36.61A5,5,0,0,0,326.46,229.42Z"/><path class="cls-82" d="M303.44,228c-3.28-2-6.05-.75-6.2,2.86s2.39,8.21,5.66,10.25,6.07.77,6.21-2.86S306.72,230,303.44,228Z"/><path class="cls-82" d="M302.92,240.72c-5.86-3.65-10.8-1.37-11.07,5.09l21.22,13.28C313.34,252.61,308.78,244.38,302.92,240.72Z"/><path class="cls-81" d="M396,139.14l-37.72-23.36a1.91,1.91,0,0,0-3,1.39l-1.53,37.68a1.86,1.86,0,0,0,.9,1.64l38.53,24.18a1.92,1.92,0,0,0,3-1.36l1.5-37.06A3.52,3.52,0,0,0,396,139.14Z"/><path class="cls-80" d="M398.71,137.56l-37.62-23.29c-2.31-1.4-5.28.6-5.44,1.91h0a2,2,0,0,1,2.61-.39L396,139.14a3.51,3.51,0,0,1,1.72,3.1s-1.52,37.16-1.52,37.21A1.86,1.86,0,0,1,394,181c1.84.41,5.23.13,5.33-2.33l1.49-36.6A5,5,0,0,0,398.71,137.56Z"/><path class="cls-82" d="M375.69,136.09c-3.27-2-6.05-.75-6.19,2.86s2.38,8.2,5.66,10.25,6.06.76,6.21-2.86S379,138.12,375.69,136.09Z"/><path class="cls-82" d="M375.17,148.86c-5.85-3.65-10.8-1.37-11.06,5.09l21.22,13.28C385.59,160.75,381,152.52,375.17,148.86Z"/><path class="cls-81" d="M459,207.18l-37.72-23.37a1.91,1.91,0,0,0-3,1.39l-1.53,37.68a1.87,1.87,0,0,0,.91,1.65l38.52,24.18a1.92,1.92,0,0,0,3-1.37l1.51-37.06A3.51,3.51,0,0,0,459,207.18Z"/><path class="cls-80" d="M461.78,205.6l-37.63-23.29c-2.31-1.4-5.28.6-5.44,1.9h0a2,2,0,0,1,2.61-.4L459,207.18a3.5,3.5,0,0,1,1.72,3.1s-1.52,37.16-1.52,37.21A1.86,1.86,0,0,1,457,249c1.84.41,5.23.14,5.33-2.32l1.49-36.61A5,5,0,0,0,461.78,205.6Z"/><path class="cls-82" d="M438.75,204.12c-3.27-2-6-.75-6.19,2.87s2.39,8.2,5.66,10.24,6.06.77,6.21-2.85S442,206.16,438.75,204.12Z"/><path class="cls-82" d="M438.24,216.89c-5.86-3.65-10.81-1.37-11.07,5.09l21.22,13.28C448.65,228.78,444.1,220.55,438.24,216.89Z"/><path class="cls-81" d="M463.14,290l-37.72-23.36a1.91,1.91,0,0,0-3,1.39l-1.53,37.68a1.86,1.86,0,0,0,.9,1.64l38.53,24.18a1.92,1.92,0,0,0,3-1.36l1.51-37.07A3.51,3.51,0,0,0,463.14,290Z"/><path class="cls-80" d="M465.87,288.42l-37.62-23.29c-2.31-1.4-5.28.6-5.44,1.91h0a2,2,0,0,1,2.61-.39L463.14,290a3.5,3.5,0,0,1,1.72,3.1s-1.52,37.16-1.52,37.21a1.86,1.86,0,0,1-2.2,1.53c1.84.4,5.23.13,5.33-2.33l1.49-36.6A5,5,0,0,0,465.87,288.42Z"/><path class="cls-82" d="M442.85,287c-3.27-2-6.05-.75-6.19,2.86s2.38,8.2,5.66,10.24,6.06.77,6.21-2.85S446.13,289,442.85,287Z"/><path class="cls-82" d="M442.33,299.72c-5.85-3.65-10.8-1.37-11.06,5.09l21.22,13.28C452.75,311.61,448.2,303.38,442.33,299.72Z"/><g class="cls-1"><path class="cls-6" d="M324.42,237.4A147.2,147.2,0,0,0,334.18,260a151.26,151.26,0,0,0,9.43,15.41.6.6,0,0,0,.09.13c10.18,14.5,22.18,25.86,34.34,33.08,12.69,7.55,25.58,10.61,36.82,8.1l1-.24a36.3,36.3,0,0,0,3.66-3.26c15-15.36,17.48-45.82,6.74-77.66,7.38,26.08,3,50.1-12.51,58.78a25.51,25.51,0,0,1-7.68,2.76l0,0c-8.36,1.56-17.86-.81-27.22-6.36-12.38-7.35-24.49-20.28-33.43-37-16.49-30.87-16.41-64-.76-77.72a24.41,24.41,0,0,1,4.33-3.07c9.93-5.55,22.56-3.77,34.92,3.58A84.68,84.68,0,0,1,407,197.55c-10.2-14.51-22.18-25.87-34.35-33.11-13.07-7.75-26.34-10.77-37.82-7.84C316.66,170.59,312.92,203.19,324.42,237.4Z"/><path class="cls-83" d="M504.17,430l.15-.08,3.57,6.6c3.72,6.86,1.06,14.85-6,18.8a112.24,112.24,0,0,1-13.9,6.45l-10.25-20C486.6,438,495.52,434.49,504.17,430Z"/><polygon class="cls-6" points="433.72 339.79 447.11 332.17 432.91 305.56 419.53 313.18 433.72 339.79"/><path class="cls-84" d="M416.83,315.67l-.95.77-.85.62C415.65,316.61,416.25,316.15,416.83,315.67Z"/><path class="cls-74" d="M440.34,336.38l-6.19,3.45-12.93,7.23L415,350.52l56.78,104.8a13.82,13.82,0,0,0,19.1,5.18h0a14.68,14.68,0,0,0,6-19.6Z"/><polygon class="cls-72" points="506.35 433.61 496.12 439.27 440.34 336.38 450.7 330.47 506.35 433.61"/><path class="cls-6" d="M340.23,152.17c7.79-4.37,16.84-5.29,26.32-3.28a65.18,65.18,0,0,1,19.5,7.93c10.66,6.33,21.17,15.82,30.46,27.82a147,147,0,0,1,13.41,20.8c20.93,39.2,21.55,81.15,3,100.12a33.59,33.59,0,0,1-7.41,5.74l-13.39,7.62a33.05,33.05,0,0,0,7.42-5.74c18.56-19,17.94-60.92-3-100.12a148.43,148.43,0,0,0-13.41-20.8c-9.29-12-19.81-21.49-30.46-27.82a65.39,65.39,0,0,0-19.51-7.93c-9.48-2-18.52-1.08-26.31,3.28Z"/><path class="cls-84" d="M415,317.06l.85-.62.95-.77C416.25,316.15,415.65,316.61,415,317.06Z"/><path class="cls-84" d="M419.53,313.18c15-15.36,17.49-45.82,6.74-77.66a.1.1,0,0,0,0,0,147.56,147.56,0,0,0-9.73-22.42A151.43,151.43,0,0,0,407,197.56h0c-10.19-14.51-22.18-25.87-34.35-33.11-13.07-7.75-26.34-10.77-37.82-7.84a33.11,33.11,0,0,0-8,3.19c-26.06,14.56-28.16,62-4.71,106,11.75,22,27.65,39,43.88,48.62,12.68,7.53,25.57,10.59,36.8,8.08h0L417,349.12l16.7-9.33Zm-17.8-13.05c-9.92,5.55-22.54,3.79-34.92-3.56-8.08-4.8-16.05-12-23.1-21.06a.55.55,0,0,1-.09-.14,110.74,110.74,0,0,1-10.24-15.84,112,112,0,0,1-9-22.13c-7.34-26.05-3-50,12.55-58.66a24.93,24.93,0,0,1,7.68-2.78c8.36-1.58,17.87.78,27.23,6.34,12.37,7.35,24.49,20.28,33.43,37,16.47,30.88,16.42,64,.77,77.72v0A25.85,25.85,0,0,1,401.73,300.13Zm10.11,18.95a31.87,31.87,0,0,1-3.27,1.6,32,32,0,0,0,3.27-1.61l1.05-.6Zm4-2.64-.85.62c.62-.45,1.22-.91,1.8-1.39Z"/></g></g></g></svg>