<svg xmlns="http://www.w3.org/2000/svg" viewBox="0 0 801.42 408.06"><defs><style>.cls-1,.cls-10,.cls-6{fill:#fff;}.cls-1{fill-rule:evenodd;}.cls-2{fill:#48b8f0;}.cls-3{fill:#1c2b36;}.cls-4{fill:#adccf7;}.cls-5{fill:#b64291;}.cls-7{fill:#f9c000;}.cls-8{fill:#ee7428;}.cls-9{fill:#ed6962;}.cls-10{opacity:0.5;}.cls-11{fill:#d3232a;}.cls-12{fill:#8cbc4f;}.cls-13{fill:#dcdd39;}.cls-14{fill:#191410;}</style></defs><g id="Home"><path class="cls-1" d="M366.35,193.39l4.89,15.83,28.46-7.34-11.87-3a50.48,50.48,0,0,1,13.6-9.52c25.25-12.63,64.63-13.77,92.46-3.45l.65-7c-31.94-9.63-74.08-7.57-101.6,6.19a58.75,58.75,0,0,0-15.81,11.07Zm2.3,20.29c-.41,10.9,7.65,21.85,24.25,30.15,17.6,8.8,41.22,12.82,64.31,12.06l.6,6.06,24.95-10-26.9-8.65.7,6.63c-19.77.69-40-2.75-55.13-10.33-15.94-8-22.73-18.72-20.4-29.09l-8.75,2.26ZM501,182.25l-1.56,16,11.21-3.62c18.67,13.83,15.79,32.69-8.7,44.94A93.84,93.84,0,0,1,480.12,247l11.73,3.79a103.38,103.38,0,0,0,18.58-7c28.49-14.25,31.89-36.34,10.26-52.48l10.14-3.29Z"/><path class="cls-1" d="M197.41,247.45l4.9,15.83,28.45-7.34-11.87-3a50.72,50.72,0,0,1,13.6-9.53c25.25-12.63,64.63-13.76,92.46-3.44l.65-7c-31.93-9.63-74.08-7.57-101.6,6.19a58.91,58.91,0,0,0-15.81,11.07Zm2.3,20.29c-.41,10.9,7.65,21.85,24.25,30.15,17.61,8.8,41.23,12.82,64.31,12.06l.61,6.06L313.82,306l-26.89-8.64.69,6.63c-19.76.69-40-2.76-55.13-10.33-15.93-8-22.72-18.72-20.4-29.09l-8.75,2.26ZM332,236.31l-1.56,16,11.22-3.62c18.67,13.83,15.78,32.69-8.71,44.94a93.67,93.67,0,0,1-21.78,7.47l11.74,3.79a103.28,103.28,0,0,0,18.57-7c28.5-14.25,31.89-36.34,10.27-52.48l10.13-3.29Z"/><path class="cls-1" d="M31.37,306.8l4.89,15.83,28.46-7.34-11.87-3a50.72,50.72,0,0,1,13.6-9.53c25.25-12.63,64.63-13.76,92.46-3.44l.65-7c-31.94-9.62-74.08-7.57-101.6,6.19a58.75,58.75,0,0,0-15.81,11.07Zm2.3,20.29c-.41,10.91,7.65,21.85,24.25,30.15,17.6,8.8,41.23,12.83,64.31,12.06l.6,6.07,25-10.05-26.9-8.64.7,6.62c-19.77.69-40-2.75-55.13-10.33-15.93-8-22.73-18.72-20.4-29.08l-8.75,2.25ZM166,295.67l-1.56,16L175.62,308c18.67,13.83,15.79,32.7-8.7,44.94a93.68,93.68,0,0,1-21.78,7.48l11.73,3.79a103.11,103.11,0,0,0,18.58-7c28.49-14.25,31.89-36.34,10.26-52.48l10.14-3.29Z"/><g id="_6" data-name="6"><path class="cls-2" d="M623.31,272.18a10.13,10.13,0,0,0,.7-1.45l4-8.31H622.9a16.59,16.59,0,0,0-5.55-4.9c-9.68-5.59-25.36-5.59-35,0a16.53,16.53,0,0,0-5.56,4.9h-5.08l4,8.3a9.91,9.91,0,0,0,.71,1.47v0h0a15.91,15.91,0,0,0,6,5.53c9.67,5.59,25.35,5.59,35,0a16,16,0,0,0,5.94-5.53h0Z"/><path class="cls-3" d="M599.83,282.48c-6.45,0-12.89-1.41-17.8-4.25a16.49,16.49,0,0,1-6.15-5.73,10.86,10.86,0,0,1-.76-1.58l-4.35-9.07h5.7A17.18,17.18,0,0,1,582,257c9.82-5.67,25.78-5.67,35.6,0a17.33,17.33,0,0,1,5.57,4.82h5.69L624.52,271a9.48,9.48,0,0,1-.71,1.48l-.2.33a16.54,16.54,0,0,1-6,5.45C612.72,281.07,606.28,282.48,599.83,282.48ZM572.58,263l3.58,7.48a10.09,10.09,0,0,0,.69,1.44,15.35,15.35,0,0,0,5.75,5.34c9.5,5.48,25,5.48,34.46,0a15.21,15.21,0,0,0,5.74-5.32l.05-.08a10.06,10.06,0,0,0,.63-1.33l3.6-7.53H622.6l-.17-.25a15.92,15.92,0,0,0-5.37-4.73c-9.5-5.48-25-5.48-34.46,0a16,16,0,0,0-5.37,4.73l-.16.25Z"/><path class="cls-3" d="M623.29,272.22h0v0a10.24,10.24,0,0,0,.7-1.46l4-8.3H622.9a16.72,16.72,0,0,0-5.55-4.91,31,31,0,0,0-9.14-3.33L594.36,275s1.23,5-7.68,4.72c9.56,3.47,22.34,2.82,30.67-2A16,16,0,0,0,623.29,272.22Z"/><path class="cls-4" d="M578,269.68l3.89,5.13a11,11,0,0,0,5.82,4h0a2.74,2.74,0,0,0,3.38-3.4l-.07-.25Z"/><path class="cls-2" d="M701.85,160.91l-201.19-.14,71.87,103.37a18.73,18.73,0,0,0,6.86,6.29c11.29,6.52,29.59,6.52,40.88,0a18.65,18.65,0,0,0,6.86-6.29Z"/><path class="cls-3" d="M599.83,276.15c-7.56,0-15.11-1.66-20.87-5a19.61,19.61,0,0,1-7.16-6.59L499,159.92l204.5.14-75.7,104.57a19.39,19.39,0,0,1-7.12,6.54C615,274.49,607.39,276.15,599.83,276.15ZM502.29,161.62l70.94,102a18,18,0,0,0,6.59,6.05c11,6.37,29,6.37,40,0a17.92,17.92,0,0,0,6.55-6l73.78-101.92Z"/><path class="cls-4" d="M535.52,187.68l46,70.09A26.38,26.38,0,0,0,600,270.53h0c7.29,1.29,14-4.08,13.62-10.94l0-61Z"/><path class="cls-3" d="M701.36,161.12l-39,0L611.13,198l-3.61,58.05c-.76,5.78-3.54,18.75-13.16,19a50.1,50.1,0,0,0,12-.13V275a43,43,0,0,0,7.85-1.87l.94-.33,0,0a31.19,31.19,0,0,0,5.2-2.36,18.65,18.65,0,0,0,6.86-6.29l1-1.34-.05-.55Z"/><path class="cls-2" d="M703.82,113.83h0l0,0c-.4-.61-.81-1.21-1.23-1.81L695,100.84h-2.73a88.81,88.81,0,0,0-13.6-9.55c-42.73-24.67-112-24.67-154.74,0a89.41,89.41,0,0,0-13.61,9.55h-3.54l-8.35,13.56h0c-14,22.33-5.52,48.32,25.5,66.22,42.73,24.67,112,24.67,154.74,0C710,162.57,718.33,136.29,703.82,113.83Z"/><path class="cls-3" d="M601.31,199.94c-28.18,0-56.35-6.19-77.8-18.58-17.06-9.85-27.9-22.36-31.33-36.18-2.61-10.5-.69-21.3,5.54-31.23l8.59-14H510a90.18,90.18,0,0,1,13.49-9.44c42.9-24.77,112.7-24.77,155.59,0A89.67,89.67,0,0,1,692.59,100h2.87l7.81,11.52c.43.59.84,1.21,1.24,1.83l0,0c6.47,10,8.53,20.92,6,31.55-3.36,13.92-14.22,26.52-31.4,36.44C657.65,193.75,629.48,199.94,601.31,199.94Zm-94-98.25-8.1,13.15c-6,9.54-7.82,19.89-5.32,29.93,3.31,13.36,13.87,25.5,30.52,35.12,21.21,12.24,49.08,18.37,76.95,18.37s55.72-6.13,76.94-18.37c16.76-9.68,27.34-21.91,30.59-35.37,2.45-10.17.47-20.62-5.74-30.22l0,0c-.38-.58-.78-1.18-1.2-1.77l-7.31-10.79H692l-.24-.2A88.06,88.06,0,0,0,678.25,92c-42.43-24.49-111.46-24.49-153.89,0a87.82,87.82,0,0,0-13.47,9.46l-.24.2Z"/><path class="cls-4" d="M625.13,179.39c-4.42-11.91,11.26-30.48,11.26-30.48l-122-23.11-12.8,6.78h0a32.2,32.2,0,0,0,.74,27.57l3.32,6.54a83,83,0,0,0,18.25,13.94c34.84,20.11,87.32,23.82,128.68,11.13l2.94-5.93S629.55,191.3,625.13,179.39Z"/><path class="cls-2" d="M710.33,131c0,16.18-10.65,32.37-32,44.72-42.73,24.67-112,24.67-154.74,0-19.21-11.1-29.78-25.3-31.71-39.8,0,16.17,10.67,32.34,32,44.67,42.73,24.67,112,24.67,154.74,0C702.16,167,712.72,148.8,710.33,131Z"/><path class="cls-4" d="M676.13,181.87c-1.27.51-9,3.44-13.75,1.38-40.11,15.86-94.43,14.57-132.23-3.87v.19a7.44,7.44,0,0,0,4.48,6.62C576.72,204.78,636.83,203.34,676.13,181.87Z"/><path class="cls-3" d="M601.25,199.66c-28.12,0-56.24-6.18-77.65-18.54-20.85-12-32.33-28.08-32.32-45.17l1.13-.08c2,14.84,13.13,28.82,31.43,39.38,42.5,24.54,111.66,24.54,154.17,0,20.5-11.83,31.77-27.54,31.75-44.22l1.13-.08c2.52,18.69-9.14,37-32,50.17C657.49,193.48,629.37,199.66,601.25,199.66ZM493.43,144.55c3.18,13.41,13.82,25.82,30.74,35.58,42.5,24.54,111.66,24.54,154.17,0,18.83-10.87,29.93-25.22,31.55-40.33-3.22,13.77-14.06,26.48-31.31,36.44-42.82,24.72-112.49,24.72-155.31,0C508.19,167.53,497.87,156.51,493.43,144.55Z"/><path class="cls-3" d="M695,162.71c7.39-4.93,10.92-13.11,14-21.86,3.33-9.35.09-19.13-5.92-28.43h0l0,0c-.39-.61-.8-1.21-1.23-1.81l-7.56-11.15h-2.73A88.81,88.81,0,0,0,678,89.88c-1.19-.69-2.41-1.35-3.64-2v43.3l-22.14,39.35s16.5,8,36.58-3.9C690.77,165.45,692.85,164.13,695,162.71Z"/><ellipse class="cls-4" cx="600.9" cy="121.97" rx="100.95" ry="58.29"/><path class="cls-3" d="M600.9,181.06c-26,0-52-5.71-71.81-17.14-19.35-11.17-30-26.07-30-41.95s10.65-30.79,30-41.95c39.59-22.87,104-22.87,143.62,0,19.34,11.16,30,26.06,30,42s-10.65,30.78-30,41.95C652.91,175.35,626.9,181.06,600.9,181.06Zm0-116.51c-25.7,0-51.4,5.65-71,16.94C511.15,92.34,500.8,106.72,500.8,122s10.35,29.62,29.14,40.47c39.13,22.59,102.79,22.59,141.92,0C690.65,151.59,701,137.22,701,122s-10.35-29.63-29.14-40.48C652.29,70.2,626.59,64.55,600.9,64.55Z"/><ellipse class="cls-2" cx="600.9" cy="121.33" rx="93.81" ry="54.22"/><path class="cls-3" d="M600.9,176.19c-21.73,0-43.45-4.37-61.17-13.11C517.34,152,505,137.2,505,121.33s12.34-30.7,34.73-41.75c35.44-17.49,86.89-17.49,122.33,0,22.4,11,34.73,25.88,34.73,41.75S684.46,152,662.06,163.08C644.34,171.82,622.62,176.19,600.9,176.19Zm0-108.39c-21.69,0-43.37,4.27-60.66,12.8-22,10.85-34.1,25.32-34.1,40.73s12.11,29.88,34.1,40.73c34.58,17.06,86.74,17.06,121.32,0,22-10.85,34.09-25.32,34.09-40.73S683.54,91.45,661.56,80.6C644.27,72.07,622.58,67.8,600.9,67.8Z"/><path class="cls-3" d="M643.72,73.41c-33.2-9.86-74.45-7.55-103.86,7C494,103,494,140.21,539.86,162.85c13.54,6.68,29.6,10.77,46.22,12.28-.3-.38-19.47-55.4,12.27-85.79A58.17,58.17,0,0,1,643.72,73.41Z"/><path class="cls-3" d="M523.93,181q3.86,2.21,8,4.16a20.29,20.29,0,0,1-1.7-5.39l0-.15c-2.26-1.11-4.49-2.27-6.62-3.5-19.22-11.1-29.79-25.3-31.71-39.8C491.89,152.52,502.57,168.69,523.93,181Z"/><path class="cls-2" d="M625.75,268.54l1.59-3.16a61.44,61.44,0,0,1-11,6.26c-7.3,3.15-18.76,2.81-18.89,2.8l-3.11,1.42a26.12,26.12,0,0,0,2.67.29c3.88,0,13.82-.28,20-2.94A60.83,60.83,0,0,0,625.75,268.54Z"/></g><g id="_5" data-name="5"><g id="_2" data-name="2"><path class="cls-5" d="M760.15,80,744.74,96.72l-21-4.7,15.41-16.75ZM743.42,91.66l8.14-8.84-11.11-2.49-8.14,8.85Z"/><path class="cls-6" d="M760.77,82.11,745.36,98.85l-21-4.7,15.4-16.75ZM744,93.8,752.18,85l-11.11-2.49-8.14,8.85Z"/><polygon class="cls-5" points="723.72 92.02 725.33 97.24 746.36 101.94 744.75 96.72 723.72 92.02"/><polygon class="cls-3" points="760.15 79.98 761.76 85.2 746.36 101.94 744.75 96.72 760.15 79.98"/><polygon class="cls-6" points="740.45 80.33 742.06 85.55 747.85 86.85 751.56 82.82 740.45 80.33"/><polygon class="cls-3" points="732.31 89.18 740.45 80.33 742.06 85.55 737.63 90.37 732.31 89.18"/><path class="cls-5" d="M752.65,82.48,740.9,79.85h0l-.64-.15-.45.48h0l-8.58,9.34,12.39,2.77Zm-5,3.74-5.15-1.15-1.23-4,9.2,2.06Zm-14.27,2.62,6.81-7.4,1.22,4-4,4.33ZM738.72,90l3.54-3.85,4.51,1L743.22,91Z"/><path class="cls-3" d="M747,102.09l15.4-16.75-1.61-5.22h0l-.19-.62-.64-.15h0l-21-4.7-15.4,16.74h0l-.45.48.19.63h0l1.62,5.22,21,4.71h0l.64.14.45-.48Zm12.9-21,1.23,4-14.52,15.77-1.23-4,5.7-6.19ZM724.81,91.68,739.32,75.9l19.75,4.42L750.2,90l-5.65,6.15-17.42-3.9Zm1,5.07-1.23-4L734.24,95,744.3,97.2l1.22,4Z"/></g><g id="_5-2" data-name="5"><path class="cls-3" d="M745.73,32.9,745,31.48l-2.32-3.68,1.73-3.33a4.47,4.47,0,0,0,.24-4.45l-2.87-4.54L732.37,23l-10.53.46a12.22,12.22,0,0,0-9.22,6.08l-8.1,15.57-13,10.33,2.64,4.15a3.35,3.35,0,0,0,.26.42l.22.36.08,0a4.19,4.19,0,0,0,3,1.07H698l21.66-1a12.21,12.21,0,0,0,9.22-6.07l7.42-14.28,9.31-.41.11-.4A12.28,12.28,0,0,0,745.73,32.9Z"/><path class="cls-7" d="M708,21.7,692.48,51.59c-1.58,3-.23,5.4,3,5.25l21.66-1a11.54,11.54,0,0,0,8.74-5.77l7.58-14.56,9.21-.41s2.34-8.39-4.13-9.39l2.88-5.53c1.58-3,.23-5.39-3-5.25l-21.66,1A11.57,11.57,0,0,0,708,21.7Z"/><path class="cls-3" d="M695.21,57.42a3.86,3.86,0,0,1-3.45-1.6c-.75-1.18-.67-2.77.22-4.49l15.54-29.89a12.23,12.23,0,0,1,9.21-6.08l21.66-1a4,4,0,0,1,3.76,1.6c.75,1.17.68,2.77-.22,4.48l-2.52,4.87a5.29,5.29,0,0,1,3.18,2.24c1.92,3,.7,7.51.64,7.7l-.11.4-9.3.41L726.4,50.38a12.24,12.24,0,0,1-9.22,6.07l-21.66,1ZM708.52,22,693,51.86a3.4,3.4,0,0,0-.27,3.35,2.94,2.94,0,0,0,2.75,1.07l21.66-1a11,11,0,0,0,8.26-5.47L733.11,35l9.12-.4c.24-1.11.75-4.29-.6-6.38a4.33,4.33,0,0,0-3.16-1.89l-.79-.12L740.93,20a3.42,3.42,0,0,0,.26-3.35,2.9,2.9,0,0,0-2.74-1.07l-21.67,1A11,11,0,0,0,708.52,22Z"/><path class="cls-3" d="M714.64,43.86c2.32-.1,3.29,1.58,2.15,3.76a8.27,8.27,0,0,1-6.25,4.13c-2.32.1-3.29-1.58-2.16-3.76A8.3,8.3,0,0,1,714.64,43.86Z"/><path class="cls-3" d="M709,50.49a2.92,2.92,0,0,1-2.61-1.22,3.31,3.31,0,0,1,.15-3.37,8.77,8.77,0,0,1,6.73-4.44,3,3,0,0,1,2.84,1.22,3.33,3.33,0,0,1-.15,3.37,8.8,8.8,0,0,1-6.74,4.44Zm4.5-7.9h-.18a7.69,7.69,0,0,0-5.78,3.82,2.34,2.34,0,0,0-.2,2.24,2,2,0,0,0,1.83.69A7.68,7.68,0,0,0,715,45.53a2.31,2.31,0,0,0,.2-2.24A1.86,1.86,0,0,0,713.51,42.59Z"/><path class="cls-3" d="M720.08,33.39c2.33-.11,3.29,1.58,2.16,3.76A8.31,8.31,0,0,1,716,41.28c-2.32.1-3.29-1.58-2.15-3.76A8.27,8.27,0,0,1,720.08,33.39Z"/><path class="cls-3" d="M714.45,40a2.94,2.94,0,0,1-2.61-1.22,3.31,3.31,0,0,1,.15-3.37A8.79,8.79,0,0,1,718.73,31a3,3,0,0,1,2.83,1.21,3.33,3.33,0,0,1-.15,3.38A8.78,8.78,0,0,1,714.68,40Zm4.5-7.9h-.17A7.71,7.71,0,0,0,713,36a2.28,2.28,0,0,0-.2,2.24,2,2,0,0,0,1.82.69,7.78,7.78,0,0,0,5.78-3.83,2.28,2.28,0,0,0,.2-2.24A1.86,1.86,0,0,0,719,32.12Z"/><path class="cls-3" d="M725.53,22.91c2.32-.1,3.28,1.58,2.15,3.76a8.31,8.31,0,0,1-6.25,4.14c-2.33.1-3.29-1.58-2.16-3.76A8.31,8.31,0,0,1,725.53,22.91Z"/><path class="cls-3" d="M719.89,29.55a2.94,2.94,0,0,1-2.61-1.22,3.35,3.35,0,0,1,.15-3.38,8.82,8.82,0,0,1,6.74-4.43h0A3,3,0,0,1,727,21.73a3.33,3.33,0,0,1-.15,3.38,8.78,8.78,0,0,1-6.73,4.43Zm4.33-7.9a7.83,7.83,0,0,0-5.78,3.83,2.31,2.31,0,0,0-.2,2.24,2,2,0,0,0,1.83.69,7.83,7.83,0,0,0,5.78-3.83,2.33,2.33,0,0,0,.2-2.24,2,2,0,0,0-1.83-.69Z"/><polygon class="cls-8" points="733.47 35.55 735.98 39.53 745.2 39.12 742.68 35.14 733.47 35.55"/><path class="cls-3" d="M735.68,40.11l-2.75-4.35a.51.51,0,0,1,.41-.78l9.65-.42,2.31,3.65a1,1,0,0,1-.79,1.51Zm-1.21-4L736.29,39l7.91-.35-1.82-2.88Z"/></g><path class="cls-8" d="M715.94,46a4.33,4.33,0,0,0,.52-1.72,2.43,2.43,0,0,0-1.14-.43,2.93,2.93,0,0,1-.38,1.62,7.66,7.66,0,0,1-5.78,3.83,2.76,2.76,0,0,1-1.2-.19,2.43,2.43,0,0,0,0,1.21,4.22,4.22,0,0,0,1,.12h.23A8.82,8.82,0,0,0,715.94,46Z"/><path class="cls-8" d="M721.39,35.54a4.68,4.68,0,0,0,.52-1.72,2.48,2.48,0,0,0-1.15-.44,2.94,2.94,0,0,1-.38,1.63,7.69,7.69,0,0,1-5.78,3.83,2.68,2.68,0,0,1-1.19-.19,2.4,2.4,0,0,0,0,1.2,3.87,3.87,0,0,0,1,.13h.22A8.8,8.8,0,0,0,721.39,35.54Z"/><path class="cls-8" d="M726.88,25.06a4.45,4.45,0,0,0,.52-1.72,2.54,2.54,0,0,0-1.14-.43,2.88,2.88,0,0,1-.39,1.63,7.68,7.68,0,0,1-5.77,3.83,2.72,2.72,0,0,1-1.2-.2,2.43,2.43,0,0,0,.05,1.21,3.73,3.73,0,0,0,1,.13h.23A8.77,8.77,0,0,0,726.88,25.06Z"/><g id="_6-2" data-name="6"><path class="cls-2" d="M569.62,58.88l-.92-2a12.76,12.76,0,0,0,1.64-2.92h0c2.58-6.2,1.76-14.93-1.82-19.51L554,15.75l-2.7-5.89-4.87.66v0c-2.16.38-4.21,2.28-5.58,5.57-2.58,6.2-1.76,14.94,1.82,19.52L559.2,56.88c1.59,2,3.46,2.9,5.27,2.69h0Z"/><path class="cls-4" d="M546.57,36.51h0l5.14-.7-.92-2a13.39,13.39,0,0,0,1.65-2.92h0c2.57-6.2,1.75-14.94-1.83-19.51l-.69-.89L546.4,11h0c-2.16.38-4.22,2.28-5.59,5.58a22.58,22.58,0,0,0,.42,17.2l0,.06C542.88,35.85,544.75,36.72,546.57,36.51Z"/><path class="cls-3" d="M573.83,33.42,557.29,12.17c-1.63-2.08-3.62-3.09-5.66-2.92h0l-.19,0h-.08l-5,.68-.74.11,0,.08c-2.16.68-4.07,2.73-5.32,5.75-2.64,6.35-1.79,15.36,1.9,20.08l16.55,21.25a6.67,6.67,0,0,0,5.41,2.94v0l5.3-.72h.08l.9-.12,0-.08c2.15-.68,4.05-2.73,5.31-5.76C578.37,47.14,577.52,38.13,573.83,33.42ZM564.41,59c-1.7.19-3.35-.67-4.77-2.48L543.1,35.28c-3.46-4.43-4.25-12.93-1.75-19,1.23-3,3.11-4.87,5.16-5.24l.25,0,1.38-.19a11.77,11.77,0,0,0-3,4.37c-2.64,6.36-1.79,15.37,1.9,20.09l16.54,21.25h0a8.56,8.56,0,0,0,2.51,2.21l-1.53.21Z"/><path class="cls-4" d="M573,50.17c-1.83,4.46-5.7,5-8.65,1.18a16.75,16.75,0,0,1-2-15c1.83-4.46,5.7-5,8.65-1.17A16.67,16.67,0,0,1,573,50.17Z"/></g><g id="_2-2" data-name="2"><path class="cls-5" d="M482.6,107.86l-26,1.58L443.06,88.91,469,87.33Zm-23-3.63,13.71-.84L466.1,92.54l-13.72.84Z"/><path class="cls-6" d="M481.42,110.11l-26,1.58L441.87,91.15l26-1.58Zm-23-3.64,13.71-.83-7.18-10.85-13.71.83Z"/><polygon class="cls-5" points="443.06 88.91 440.25 94.48 453.83 115.02 456.64 109.44 443.06 88.91"/><polygon class="cls-3" points="482.6 107.86 479.79 113.44 453.83 115.02 456.64 109.44 482.6 107.86"/><polygon class="cls-5" points="466.1 92.54 463.29 98.12 467.03 103.78 473.27 103.39 466.1 92.54"/><polygon class="cls-3" points="452.38 93.38 466.1 92.54 463.29 98.12 455.82 98.57 452.38 93.38"/><path class="cls-3" d="M474.44,104,466.85,92.5h0l-.42-.63-.75,0h0l-14.46.88,8,12.1Zm-7.08-.87-3.32-5,2.13-4.25,5.94,9ZM453.54,94l11.47-.7-2.14,4.23-6.72.41ZM457,99.15l6-.36,2.92,4.4-6,.37Z"/><path class="cls-3" d="M454.24,115.65l26-1.58,2.81-5.58h0l.34-.67-.42-.63h0L469.35,86.66l-26,1.58h0l-.75,0-.33.67h0l-2.81,5.58,13.58,20.54h0l.42.62.74,0Zm27.27-7.07-2.13,4.24-24.46,1.48,2.13-4.23,9.59-.58ZM444.22,89.49,468.68,88l12.75,19.28-14.93.91-9.52.58-11.26-17Zm-3.22,5,2.13-4.24,6.26,9.46,6.5,9.83-2.14,4.24Z"/></g><path class="cls-3" d="M639.42,148.63l0,0-1.25-4.8a1.16,1.16,0,0,0-.8-.83l-.13-.48-.26.43a1.17,1.17,0,0,0-1,.57l-.29.49a11.85,11.85,0,0,0-2-.81l-.24-.06a2.49,2.49,0,0,0-.16-1c-.49-1.1-6.88-2.81-6.94-2.83-1.53-.34-7.3.89-8,1l-.19,0-6.22,7.45,1,.29a1.54,1.54,0,0,0-.19.17,13.35,13.35,0,0,0-1.41,1.51l-1.91.21a1.28,1.28,0,0,0-1.11,1.6l1.24,4.77.08.25h0c.71,2.07,2.63,3.67,5.42,4.53a17.09,17.09,0,0,0,5.1.71c5.6,0,11.91-2.18,15.81-5.79C638.65,153.69,639.82,151.06,639.42,148.63Zm-17.55,5.18L618,151.53a5.43,5.43,0,0,1,.77-.84c2.58-2.39,7.27-3.54,10.44-2.55a4.6,4.6,0,0,1,1.52.75Z"/><path class="cls-9" d="M634.46,150.83c-5,4.66-14.16,6.88-20.35,5S607,148.52,612,143.87s14.16-6.88,20.35-5S639.49,146.18,634.46,150.83Zm-17.31-5.36c-2.71,2.51-2.2,5.4,1.15,6.44s8.28-.16,11-2.68,2.2-5.4-1.15-6.44S619.87,143,617.15,145.47Z"/><path class="cls-7" d="M635.16,152.83c-5,4.65-14.16,6.88-20.36,5s-7.14-7.27-2.11-11.92,14.16-6.88,20.35-5S640.19,148.18,635.16,152.83Zm-17.31-5.36c-2.72,2.51-2.2,5.4,1.14,6.44s8.29-.16,11-2.68,2.21-5.4-1.14-6.44S620.57,145,617.85,147.47Z"/><path class="cls-3" d="M619,157a17.37,17.37,0,0,1-5.1-.71c-3.09-1-5.08-2.77-5.61-5.12-.57-2.52.59-5.28,3.27-7.76,5.17-4.77,14.54-7,20.91-5.08,3.09,1,5.08,2.78,5.61,5.12.57,2.53-.59,5.28-3.27,7.76h0C631,154.86,624.64,157,619,157Zm8.32-18.25c-5.3,0-11.28,2.07-15,5.5-2.34,2.16-3.41,4.59-2.94,6.67.44,1.93,2.16,3.46,4.83,4.29,6,1.86,14.91-.3,19.8-4.83h0c2.34-2.16,3.41-4.6,2.94-6.67s-2.16-3.46-4.83-4.29A16.23,16.23,0,0,0,627.36,138.79ZM621,152.85a9.47,9.47,0,0,1-2.82-.4,4.27,4.27,0,0,1-3.21-2.95c-.33-1.46.33-3,1.85-4.45,2.85-2.63,8-3.89,11.55-2.8a4.28,4.28,0,0,1,3.21,3c.33,1.46-.33,3-1.85,4.44A13.53,13.53,0,0,1,621,152.85Zm4.5-9.87a12.26,12.26,0,0,0-7.91,2.91c-1.19,1.1-1.74,2.32-1.51,3.35a3.22,3.22,0,0,0,2.44,2.13,11.92,11.92,0,0,0,10.44-2.55c1.19-1.11,1.74-2.33,1.51-3.36a3.24,3.24,0,0,0-2.44-2.13A8.89,8.89,0,0,0,625.45,143Z"/><g id="_7" data-name="7"><path class="cls-7" d="M589.39,144.4h0l4.38-4.55-6.36-10.33-8.35-28.88c-1.41-4.86-6-9.65-10.25-10.7l-29.89-7.38-11-6.5-4.32,4.49c-.1.09-.19.2-.29.3l-.06.07h0c-1,1.23-1.3,3.27-.57,5.79l11,37.88c1.4,4.86,6,9.65,10.25,10.7l41,10.13C586.87,145.93,588.44,145.5,589.39,144.4Z"/><path class="cls-3" d="M586.43,146.21a7,7,0,0,1-1.7-.22l-41-10.12c-4.42-1.1-9.21-6.08-10.66-11.1l-11-37.89c-.7-2.4-.55-4.48.39-5.93l.31-.41h0a5.15,5.15,0,0,1,.38-.4l4.6-4.79L539.15,82,569,89.4c4.42,1.09,9.2,6.07,10.66,11.1l8.32,28.8,6.55,10.63-5.07,5.27h0A4.49,4.49,0,0,1,586.43,146.21ZM523.69,81.28v0c-.93,1.13-1.1,3-.46,5.27l10.95,37.88c1.35,4.68,5.77,9.31,9.84,10.31l41,10.12c1.71.43,3.12.12,4-.85l.39-.45,0,0,3.68-3.83-6.19-10.09-8.35-28.88c-1.35-4.68-5.76-9.3-9.84-10.31l-30-7.44L528,76.78,524,81a3.43,3.43,0,0,0-.27.28Z"/><path class="cls-7" d="M589.48,140.64l-41-10.12c-4.26-1.05-8.85-5.85-10.25-10.71l-11-37.88c-1.4-4.86.91-8,5.16-6.9l41,10.12c4.26,1,8.84,5.85,10.25,10.71l11,37.88C596,138.6,593.73,141.69,589.48,140.64Z"/><path class="cls-8" d="M581.71,98c-1.41-4.86-6-9.65-10.25-10.71l-41-10.12a5.17,5.17,0,0,0-3.25.12,7.43,7.43,0,0,0,.06,4.69l11,37.88c1.41,4.87,6,9.66,10.25,10.71l41,10.12a5.18,5.18,0,0,0,3.25-.11,7.46,7.46,0,0,0-.06-4.7Z"/><path class="cls-3" d="M591.05,141.41a7,7,0,0,1-1.71-.22l-41-10.12c-4.42-1.09-9.21-6.07-10.66-11.1l-11-37.88c-.8-2.76-.48-5.14.87-6.55a5,5,0,0,1,5-1.06l41,10.12c4.42,1.09,9.2,6.07,10.66,11.1l10.95,37.88c.8,2.76.48,5.15-.87,6.55A4.38,4.38,0,0,1,591.05,141.41Zm-1.44-1.32a3.9,3.9,0,0,0,3.88-.74c1.06-1.11,1.28-3.1.6-5.45L583.13,96c-1.35-4.68-5.76-9.31-9.84-10.31l-41-10.13a3.9,3.9,0,0,0-3.88.75c-1.06,1.1-1.28,3.09-.6,5.44l10.95,37.88c1.36,4.68,5.77,9.31,9.84,10.32Z"/><path class="cls-7" d="M585.1,129.18c-2.7-4.69-7.65-11.72-13.57-13.19l-3-.73L567.21,112a4.12,4.12,0,0,0,1.11-3.49h0l-.61-8.42c0-.21,0-.41,0-.63v-.17h0a10.08,10.08,0,0,0-.32-1.52c-1.56-5.4-7.25-10.87-12.71-12.22s-8.62,1.94-7.06,7.34a13.47,13.47,0,0,0,.56,1.53h0l.09.19c.13.28.26.56.41.84l4.5,9.31h0a15.43,15.43,0,0,0,3.45,4.61l.49,3-2.95-.73c-5.94-1.47-7.27,4-7.48,8-.1,1.83,2,4.24,4.1,4.77l16,3.95.69.17,15.94,3.93C585.46,133,586.35,131.33,585.1,129.18Z"/><path class="cls-3" d="M552.28,88c5.46,1.35,11.16,6.82,12.72,12.22a10,10,0,0,1,.31,1.52h0l0,.17c0,.21,0,.42,0,.63l.6,8.42h0a4.1,4.1,0,0,1-1.1,3.49l1.33,3.26,3,.73c5.92,1.47,10.86,8.5,13.57,13.19a4.39,4.39,0,0,1,.38.84l.19,0c2.12.53,3-1.16,1.77-3.31-2.71-4.69-7.66-11.72-13.58-13.19l-3-.73L567.21,112a4.12,4.12,0,0,0,1.11-3.49h0l-.61-8.42c0-.2,0-.41,0-.63v-.17h0a10.35,10.35,0,0,0-.32-1.52c-1.56-5.4-7.25-10.87-12.71-12.22-3.57-.88-6.15.23-7.07,2.6A7.36,7.36,0,0,1,552.28,88Z"/><path class="cls-8" d="M551.76,114.11l3,.73,2.33-2.42s-2.89-.7-2.93-.73h0c-3.36-.83-5.24.56-6.28,2.65A5.67,5.67,0,0,1,551.76,114.11Z"/><path class="cls-3" d="M585.6,128.89c-3.08-5.33-8-12-13.93-13.46l-2.71-.67-1.08-2.64a4.39,4.39,0,0,0,1-2.58,7.83,7.83,0,0,0,0-1.08l-.61-8.4c0-.22,0-.44,0-.65l0-.37,0-.21h0a11.25,11.25,0,0,0-.27-1.21C566.27,92,560.38,86.38,554.75,85c-.19,0-.37-.07-.56-.11s-.39-.08-.58-.1l-.53-.06c-.25,0-.48,0-.72,0H552a6.58,6.58,0,0,0-2.09.4l0,0a4.67,4.67,0,0,0-.84.41l-.13.09a4.58,4.58,0,0,0-.7.55l-.06,0-.09.08a4.9,4.9,0,0,0-1,1.64h0l-.34,1.21h0a9,9,0,0,0,.33,3.91c.06.18.12.38.19.58h0l.48,1.21c.13.29.27.58.42.85l4.5,9.31a15.71,15.71,0,0,0,3.43,4.65l.32,2-.62-.15-1.34-.33-.16,0c-.13,0-.26,0-.39-.08l-.5-.09-.47,0-.67,0-.41,0a6,6,0,0,0-.61.08l-.3.06a4.43,4.43,0,0,0-.73.23l-.21.1a4.49,4.49,0,0,0-.53.29l-.24.15-.08,0-.17.16a6,6,0,0,0-.53.48l-.23.28a6,6,0,0,0-.41.55,3.37,3.37,0,0,0-.19.32,3.58,3.58,0,0,0-.25.42l-.55,1.39h0a16.8,16.8,0,0,0-.71,4.18c-.11,2.11,2.13,4.76,4.53,5.35l32.62,8a3.49,3.49,0,0,0,.87.12,2.1,2.1,0,0,0,1.75-.8,2.25,2.25,0,0,0,.41-1.55A4.46,4.46,0,0,0,585.6,128.89ZM548.78,87.18c.12-.12.24-.24.37-.35l.12-.1.37-.25.2-.12a3.68,3.68,0,0,1,.35-.15,2,2,0,0,1,.29-.12l.28-.08a3.2,3.2,0,0,1,.42-.1l.15,0a8.08,8.08,0,0,1,3.15.21c5.28,1.3,10.8,6.61,12.31,11.83a9.91,9.91,0,0,1,.29,1.44l0,.15c0,.21,0,.4,0,.61l.6,8.43a5.69,5.69,0,0,1,0,.92,3.17,3.17,0,0,1-.94,2.1l-.25.24a5.83,5.83,0,0,0,0-.93l-.6-8.4c0-.22,0-.44-.05-.65l0-.59h0a11.25,11.25,0,0,0-.27-1.21c-1.62-5.56-7.5-11.22-13.13-12.61a9.06,9.06,0,0,0-3.65-.22Zm17.78,24.75,1.57,3.81,3.27.81c5.83,1.44,10.78,8.71,13.21,12.91a3.51,3.51,0,0,1,.48,1.28,1.06,1.06,0,0,1-1.51,1.22,5.59,5.59,0,0,0-.32-.65c-3.07-5.32-8-12-13.93-13.45l-2.7-.67-1.09-2.64A4.34,4.34,0,0,0,566.56,111.93Zm-16.82.87.08-.06.46-.28.07,0a3.21,3.21,0,0,1,.54-.22h0a4.26,4.26,0,0,1,.62-.13h0a5.12,5.12,0,0,1,.69,0h0a7.09,7.09,0,0,1,1.7.22l2,.49-1.42,1.48-2.64-.66a8.69,8.69,0,0,0-1.95-.25,6.87,6.87,0,0,0-.8,0A4.42,4.42,0,0,1,549.74,112.8Zm-2.55,6.9a13.89,13.89,0,0,1,1-4.93,5.32,5.32,0,0,1,3.38-.11l3.28.81,2.33-2.42h0l.43-.44-.08-.47h0l-.49-3L557,109a14.86,14.86,0,0,1-3.33-4.45l-4.51-9.33-.36-.73-.11-.25a12.26,12.26,0,0,1-.53-1.47A7.07,7.07,0,0,1,548,88.6a6.92,6.92,0,0,1,4.16-.08c5.27,1.3,10.79,6.61,12.3,11.83a10,10,0,0,1,.3,1.43l0,.16a6,6,0,0,1,0,.61l.61,8.43a3.57,3.57,0,0,1-.93,3l-.29.27,1.59,3.88,3.27.8c5.72,1.42,10.57,8.41,13.05,12.64l-31.26-7.72C549,123.43,547.1,121.24,547.19,119.7Z"/></g><g id="_3" data-name="3"><path class="cls-3" d="M660.63,29.56h0l-4.22-3.31-8.18,6.24L624.57,42c-4,1.6-7.64,5.88-8.17,9.56l-3.7,25.86-4.56,9.85,4.16,3.27a2.92,2.92,0,0,0,.28.21l.07.06h0c1.13.76,2.87.82,4.94,0l31-12.45c4-1.6,7.64-5.88,8.17-9.56l5.08-35.46A3.64,3.64,0,0,0,660.63,29.56Z"/><path class="cls-3" d="M614.8,91.93a4.66,4.66,0,0,1-2-.42l0,.06-.44-.35a3.69,3.69,0,0,1-.38-.29l-4.48-3.52,4.71-10.18,3.69-25.78c.55-3.85,4.37-8.34,8.52-10L648,32l8.47-6.46,5,3.93,0,0a4.39,4.39,0,0,1,1,3.9l-5.08,35.46c-.55,3.86-4.37,8.34-8.52,10L617.8,91.29A8.15,8.15,0,0,1,614.8,91.93Zm-1.89-1.67.05,0c1,.68,2.62.65,4.41-.07l31.06-12.45c3.81-1.53,7.32-5.61,7.82-9.11l5.08-35.46a3.15,3.15,0,0,0-1-3.19l-.48-.34,0,0L656.42,27l-8,6L624.78,42.5C621,44,617.47,48.11,617,51.61l-3.74,26-4.37,9.44,3.8,3a1.83,1.83,0,0,0,.26.2Z"/><path class="cls-9" d="M657.45,29.8l-5.08,35.46c-.53,3.68-4.18,8-8.17,9.56L613.15,87.27c-4,1.6-6.79-.09-6.26-3.77L612,48c.53-3.68,4.19-8,8.17-9.56L651.19,26C655.17,24.43,658,26.12,657.45,29.8Z"/><path class="cls-10" d="M613.15,87.29,644.2,74.84c4-1.6,7.64-5.88,8.17-9.56l5.08-35.46a4.37,4.37,0,0,0-.38-2.75,6.47,6.47,0,0,0-3.86.48L622.16,40c-4,1.6-7.64,5.88-8.17,9.56L608.91,85a4.37,4.37,0,0,0,.38,2.75A6.55,6.55,0,0,0,613.15,87.29Z"/><path class="cls-3" d="M610.35,88.44a3.93,3.93,0,0,1-4-5L611.4,48c.55-3.85,4.37-8.34,8.52-10L651,25.5c2.29-.91,4.36-.84,5.69.2A4.3,4.3,0,0,1,658,29.88l-5.08,35.46c-.55,3.86-4.37,8.35-8.52,10l-31,12.45A8.15,8.15,0,0,1,610.35,88.44ZM654,26a7,7,0,0,0-2.58.56L620.35,39c-3.82,1.53-7.32,5.62-7.82,9.11l-5.08,35.46a3.22,3.22,0,0,0,.92,3.13c1,.79,2.67.8,4.56,0L644,74.3c3.81-1.53,7.32-5.62,7.82-9.12l5.08-35.46a3.22,3.22,0,0,0-.93-3.13A3.17,3.17,0,0,0,654,26Z"/><path class="cls-11" d="M650.4,50.93C649,61.09,640,72.47,630.48,76.3S614.37,75,615.83,64.79s10.39-21.55,19.93-25.37S651.86,40.76,650.4,50.93ZM619.62,63.27c-1.14,7.94,4,12,11.43,9s14.43-11.87,15.57-19.8-4-12-11.44-9S620.75,55.33,619.62,63.27Z"/><path class="cls-3" d="M623.63,76.91A9.22,9.22,0,0,1,617.78,75c-2.93-2.29-4.13-6.37-3.4-11.48,1.48-10.33,10.56-21.9,20.25-25.78,4.8-1.93,9-1.72,12,.58s4.13,6.37,3.4,11.48h0c-1.48,10.34-10.56,21.9-20.25,25.79A16.55,16.55,0,0,1,623.63,76.91ZM640.74,37.5A15.53,15.53,0,0,0,635,38.73c-9.38,3.76-18.17,15-19.61,25-.67,4.72.4,8.46,3,10.51s6.5,2.21,10.93.43c9.38-3.76,18.17-14.95,19.61-24.95h0c.67-4.73-.4-8.46-3-10.52A8.24,8.24,0,0,0,640.74,37.5ZM625.51,72.59a7.34,7.34,0,0,1-4.65-1.5c-2.31-1.82-3.27-5-2.69-9.07h0c1.16-8.1,8.28-17.17,15.88-20.22,3.78-1.52,7.14-1.35,9.46.47s3.27,5,2.69,9.07c-1.16,8.11-8.29,17.18-15.88,20.22A13,13,0,0,1,625.51,72.59Zm13.35-30.77a12,12,0,0,0-4.42,1c-7.29,2.92-14.12,11.62-15.24,19.4h0c-.52,3.65.3,6.52,2.31,8.1s5,1.69,8.42.32c7.29-2.92,14.12-11.62,15.24-19.4.52-3.64-.3-6.52-2.31-8.1A6.32,6.32,0,0,0,638.86,41.82Z"/><polygon class="cls-11" points="639.45 53.93 631.99 60.68 624.96 54.72 628.1 50.83 633.44 55.36 638.15 51.1 639.45 53.93"/><path class="cls-3" d="M631.06,60.2l-7.76-6.59,3.8-4.71,5.4,4.59,4.9-4.43,1.75,3.83Zm-6.3-6.73L631,58.81l6.84-6.19L637,50.79l-4.52,4.09-5.28-4.49Z"/></g><path class="cls-3" d="M528,60.66c-.57-1.46-2.15-1.84-4.68-1.15L479.76,22.05a5,5,0,0,0-4.82-1L440.05,34.87c.39-1.37.37-2.13-.05-2.43s-1.25.15-1.78.56a4.12,4.12,0,0,0-1.94,3.21,4.14,4.14,0,0,0,1.62,2.94l46.89,40.38A5,5,0,0,0,488,80.77a5.15,5.15,0,0,0,1.5-.23L526,66.12a3.33,3.33,0,0,0,.91-.52C527.89,64.85,529.11,63.52,528,60.66Z"/><path class="cls-12" d="M527.1,59.85,480,19.35a4.69,4.69,0,0,0-4.53-1L439.1,32.81a2.07,2.07,0,0,0-.61,3.51L485.38,76.7a4.63,4.63,0,0,0,4.46,1l36.38-14.41C528,62.52,528.15,60.89,527.1,59.85Z"/><path class="cls-13" d="M475.7,19.61,439.31,34A2,2,0,0,0,438,36a2.43,2.43,0,0,0,.26.3l46.9,40.38a4.61,4.61,0,0,0,4.45,1L526,63.25a2.12,2.12,0,0,0,1.52-1.92,2.19,2.19,0,0,0-.2-.25l-47.08-40.5A4.68,4.68,0,0,0,475.7,19.61Z"/><path class="cls-12" d="M522.6,59.44,486,73.61a.81.81,0,0,1-.77-.17L442.83,37.13a.29.29,0,0,1,.08-.49l36.61-14.36a.75.75,0,0,1,.7.15L522.68,59A.27.27,0,0,1,522.6,59.44Z"/><path class="cls-3" d="M485.74,73.91a1.09,1.09,0,0,1-.71-.26L442.65,37.34a.59.59,0,0,1-.18-.55.54.54,0,0,1,.36-.41L479.42,22a1,1,0,0,1,1,.2l42.46,36.55a.54.54,0,0,1,.17.52.5.5,0,0,1-.34.4L486.08,73.86A1,1,0,0,1,485.74,73.91Zm-6-51.39-.14,0L443,36.89l42.37,36.35a.58.58,0,0,0,.52.11l36.6-14.16L480,22.64A.44.44,0,0,0,479.74,22.52Z"/><path class="cls-3" d="M488.45,78.16a5,5,0,0,1-3.26-1.24L438.3,36.53a2.41,2.41,0,0,1-.77-2.3A2.21,2.21,0,0,1,439,32.54l36.37-14.42a5,5,0,0,1,4.83,1L527.3,59.65a2.28,2.28,0,0,1,.71,2.06,2.59,2.59,0,0,1-1.68,1.81l-36.39,14.4A4.84,4.84,0,0,1,488.45,78.16ZM476.9,18.44a4.4,4.4,0,0,0-1.33.21L439.2,33.07a1.65,1.65,0,0,0-1.11,1.28,1.82,1.82,0,0,0,.58,1.75l46.89,40.39a4.36,4.36,0,0,0,4.19.9L526.12,63a2,2,0,0,0,1.33-1.39,1.73,1.73,0,0,0-.55-1.54l-47.06-40.5A4.52,4.52,0,0,0,476.9,18.44Z"/><path class="cls-3" d="M510,67.91h0c.18-.07.18-.24,0-.39h0a.7.7,0,0,0-.61-.14l0,0c-.17.06-.18.24,0,.38h0A.67.67,0,0,0,510,67.91Z"/><path class="cls-3" d="M503.09,70.62l6-2.33c.17-.07.17-.24,0-.38h0a.66.66,0,0,0-.62-.14l-6,2.32c-.18.07-.18.24,0,.39h0A.7.7,0,0,0,503.09,70.62Z"/><path class="cls-3" d="M458.14,28.13l2.26-.87c.45-.18.46-.62,0-1h0a1.75,1.75,0,0,0-1.6-.35l-2.26.87c-.45.18-.46.63,0,1h0A1.73,1.73,0,0,0,458.14,28.13Z"/><polygon class="cls-13" points="492.01 55.23 490.92 38.77 485.55 40.88 486.18 48.6 469.93 43.47 463.12 46.11 492.01 55.23"/><path class="cls-3" d="M492.05,54.29,462,44.8l7.66-3,15.94,5-.61-7.5L490.9,37Zm-28.34-9.54,27.71,8.75-1-15.66-4.81,1.89.65,7.93-16.56-5.23Z"/><path class="cls-3" d="M638.19,117.38c.48-1.31,1.79-1.66,3.88-1l36-33.89a3.87,3.87,0,0,1,4-.91L711,94.05c-.32-1.24-.3-1.93,0-2.2s1,.14,1.47.51a3.77,3.77,0,0,1,1.61,2.9,3.82,3.82,0,0,1-1.34,2.66l-38.82,36.54a3.91,3.91,0,0,1-2.69,1.12,3.8,3.8,0,0,1-1.24-.21l-30.15-13.05a2.64,2.64,0,0,1-.75-.46C638.27,121.18,637.25,120,638.19,117.38Z"/><path class="cls-12" d="M638.92,116.65l39-36.65a3.63,3.63,0,0,1,3.75-.87l30.13,13.05a2,2,0,0,1,.5,3.18L673.45,131.9a3.58,3.58,0,0,1-3.69.86l-30.11-13A1.85,1.85,0,0,1,638.92,116.65Z"/><path class="cls-13" d="M681.46,80.24,711.59,93.3a1.76,1.76,0,0,1,1.09,1.78,1.18,1.18,0,0,1-.22.28L673.65,131.9a3.59,3.59,0,0,1-3.69.86l-30.12-13a1.94,1.94,0,0,1-1.27-1.74l.17-.22,39-36.66A3.65,3.65,0,0,1,681.46,80.24Z"/><path class="cls-12" d="M642.64,116.28,673,129.1a.64.64,0,0,0,.64-.15L708.68,96.1a.29.29,0,0,0-.07-.46l-30.3-13a.59.59,0,0,0-.59.13l-35.15,33.08A.25.25,0,0,0,642.64,116.28Z"/><path class="cls-3" d="M673.16,129.37a.84.84,0,0,0,.58-.24l35.08-32.85a.55.55,0,0,0,.16-.49.52.52,0,0,0-.3-.38l-30.29-13a.78.78,0,0,0-.81.18l-35.15,33.07a.53.53,0,0,0-.15.48.44.44,0,0,0,.29.35l30.31,12.82A.86.86,0,0,0,673.16,129.37Zm5-46.5.12,0,30.29,13-35.08,32.89a.43.43,0,0,1-.43.11l-30.3-12.82L677.87,83A.36.36,0,0,1,678.12,82.87Z"/><path class="cls-3" d="M670.91,133.21a3.9,3.9,0,0,0,2.7-1.12l38.82-36.54a2.3,2.3,0,0,0,.63-2.08,1.92,1.92,0,0,0-1.22-1.53l-30.11-13a3.86,3.86,0,0,0-4,.92l-39,36.66a2.16,2.16,0,0,0-.58,1.86,2.25,2.25,0,0,0,1.39,1.64l30.12,13A3.74,3.74,0,0,0,670.91,133.21Zm9.56-54a3.49,3.49,0,0,1,1.1.19l30.11,13a1.45,1.45,0,0,1,.92,1.15,1.74,1.74,0,0,1-.48,1.59L673.3,131.71a3.36,3.36,0,0,1-3.46.81l-30.11-13a1.76,1.76,0,0,1-1.1-1.26,1.62,1.62,0,0,1,.45-1.39L678,80.2A3.51,3.51,0,0,1,680.47,79.18Z"/><path class="cls-3" d="M653.05,123.94h0c-.14-.06-.15-.21,0-.34h0a.51.51,0,0,1,.51-.13h0c.15.06.15.22,0,.35h0A.51.51,0,0,1,653.05,123.94Z"/><path class="cls-3" d="M658.79,126.39l-4.94-2.1c-.14-.06-.14-.22,0-.35h0a.53.53,0,0,1,.51-.13l4.94,2.11c.14.06.15.22,0,.35h0A.52.52,0,0,1,658.79,126.39Z"/><path class="cls-3" d="M696,88l-1.87-.79c-.37-.16-.38-.56,0-.9h0a1.36,1.36,0,0,1,1.33-.32l1.87.79c.37.16.38.57,0,.9h0A1.36,1.36,0,0,1,696,88Z"/><polygon class="cls-13" points="667.97 112.47 668.87 97.57 673.31 99.49 672.79 106.47 686.24 101.83 691.88 104.22 667.97 112.47"/><path class="cls-3" d="M667.93,111.62,692.81,103l-6.33-2.69-13.2,4.56.51-6.79L668.88,96ZM691.39,103l-22.94,7.92.86-14.17,4,1.72-.54,7.17,13.71-4.73Z"/></g><g id="_1" data-name="1"><path class="cls-2" d="M649,341.3v-5.91l-6.85-1.1-35.78-20.74c-5.34-3.1-14.68-2.73-20.86.83l-33,19q-.41.22-.78.48l-4.34.75v5.68h0c0,1.92,1.22,3.75,3.59,5.13L590,368c5.34,3.1,14.68,2.73,20.86-.82l33-19c3.43-2,5.16-4.52,5.11-6.92Z"/><path class="cls-3" d="M649.52,334.91l-7.22-1.16-35.7-20.69c-5.49-3.19-15.1-2.82-21.42.82l-33,19-.71.44-4.7.81v6.73h0a7.05,7.05,0,0,0,3.84,5.05l39,22.63a19.13,19.13,0,0,0,9.39,2.16,24.79,24.79,0,0,0,12-3l33-19c3.48-2,5.45-4.71,5.4-7.42Zm-59.27,32.62-39-22.63c-2.1-1.21-3.28-2.86-3.32-4.64v-5.19l3.87-.67.21-.09.75-.46,33-19c6-3.46,15.12-3.83,20.29-.83l35.79,20.74,6.56,1.1v1.81L647,339.94l-2.79,2.24-35.62,20.3-5.05,1.45-2.4.39v5.15C597.12,369.8,593.09,369.18,590.25,367.53Z"/><path class="cls-2" d="M590,362.22l-39-22.62c-5.34-3.1-4.66-8.49,1.52-12l33-19c6.18-3.56,15.52-3.93,20.86-.83l39,22.63c5.34,3.09,4.66,8.48-1.51,12l-33,19C604.65,365,595.31,365.32,590,362.22Z"/><path class="cls-4" d="M606.28,310.84c-5.34-3.09-14.68-2.72-20.86.83l-33,19c-2.63,1.52-4.25,3.36-4.85,5.23a7,7,0,0,0,3.31,3.6l39,22.63c5.35,3.1,14.68,2.73,20.86-.83l33-19c2.63-1.51,4.26-3.36,4.85-5.22a7.08,7.08,0,0,0-3.3-3.61Z"/><path class="cls-3" d="M599.07,364.88a19.13,19.13,0,0,1-9.39-2.16l-39-22.63c-2.51-1.46-3.89-3.49-3.89-5.73,0-2.66,2-5.32,5.41-7.3l33-19c6.32-3.63,15.93-4,21.42-.82l39,22.62c2.51,1.46,3.89,3.49,3.88,5.73,0,2.67-2,5.33-5.4,7.3l-33,19A24.79,24.79,0,0,1,599.07,364.88Zm-8.82-3.15c5.18,3,14.28,2.63,20.29-.83l33-19c3.07-1.76,4.83-4.06,4.84-6.31,0-1.82-1.18-3.5-3.32-4.74l-39-22.63c-5.17-3-14.28-2.63-20.29.83l-33,19c-3.06,1.76-4.83,4.06-4.83,6.31,0,1.82,1.17,3.5,3.32,4.75Z"/><path class="cls-2" d="M617.72,311.27c-2.18-3.75-8-6.43-14.78-6.43s-12.61,2.68-14.78,6.43h-.94v3.28c0,5.36,7,9.71,15.72,9.71s15.71-4.35,15.71-9.71v-3.28Z"/><path class="cls-3" d="M602.94,324.51c-8.81,0-16-4.47-16-10V311h1c2.33-3.85,8.3-6.44,14.93-6.44s12.59,2.59,14.92,6.44h1v3.53C618.9,320,611.74,324.51,602.94,324.51Zm-15.47-13v3c0,5.22,6.94,9.46,15.47,9.46s15.46-4.24,15.46-9.46v-3h-.83l-.07-.13c-2.19-3.78-8-6.31-14.56-6.31s-12.38,2.53-14.57,6.31l-.07.13Z"/><ellipse class="cls-2" cx="602.94" cy="311.27" rx="15.71" ry="9.71"/><path class="cls-3" d="M602.94,321.24c-8.81,0-16-4.47-16-10s7.16-10,16-10,16,4.47,16,10S611.74,321.24,602.94,321.24Zm0-19.43c-8.53,0-15.47,4.25-15.47,9.46s6.94,9.47,15.47,9.47,15.46-4.25,15.46-9.47S611.46,301.81,602.94,301.81Z"/><ellipse class="cls-2" cx="602.94" cy="310.84" rx="12.55" ry="7.31"/><path class="cls-3" d="M602.94,318.4c-7.06,0-12.81-3.39-12.81-7.56s5.75-7.56,12.81-7.56,12.8,3.39,12.8,7.56S610,318.4,602.94,318.4Zm0-14.62c-6.79,0-12.3,3.17-12.3,7.06s5.51,7.05,12.3,7.05,12.29-3.16,12.29-7.05S609.72,303.78,602.94,303.78Z"/><path class="cls-2" d="M602.94,303.53c-6.94,0-12.55,3.27-12.55,7.31a4.74,4.74,0,0,0,.14,1.06c.89-3.53,6.1-6.24,12.41-6.24s11.51,2.71,12.4,6.24a4.75,4.75,0,0,0,.15-1.06C615.49,306.8,609.87,303.53,602.94,303.53Z"/><path class="cls-3" d="M615.19,312.42l-.1-.46c-.86-3.45-6.09-6-12.15-6s-11.3,2.6-12.16,6l-.14.56-.35-.56a4.37,4.37,0,0,1-.16-1.12c0-4.17,5.75-7.56,12.81-7.56s12.8,3.39,12.8,7.56a4.37,4.37,0,0,1-.16,1.12Zm-12.25-8.64c-6.79,0-12.3,3.17-12.3,7.06v0c1.53-3.22,6.47-5.47,12.3-5.47s10.76,2.25,12.29,5.47v0C615.23,307,609.72,303.78,602.94,303.78Z"/><polygon class="cls-14" points="600.85 303.7 600.85 305.76 597.35 306.42 593.9 307.9 591.42 310.08 590.53 311.9 590.39 310.08 591.44 307.9 593.33 306.13 596.44 304.58 600.26 303.7 600.85 303.7"/><path class="cls-2" d="M609.63,314.52a2.38,2.38,0,0,0,.76-1.44h0v-1.4l-.95-.4a7.8,7.8,0,0,0-.67-.44,6.28,6.28,0,0,0-2.86-.79,11.66,11.66,0,0,0-4,.79l-3.18-1.78a3.83,3.83,0,0,1,2.26.16l1.75-1.36v-1.29l-2.24.77v0c-.22,0-.45,0-.68,0a7.07,7.07,0,0,0-2.9.71l-.41-.23.15-.12v-.61L595,307v2l.55-.43.26.14a3.7,3.7,0,0,0-.64.59l-.52-.18v1.49a2.36,2.36,0,0,0,1.42,1.75,6.64,6.64,0,0,0,3,.81,9.84,9.84,0,0,0,3.68-.6l3.41,1.91a5.69,5.69,0,0,1-1.47.09,5.89,5.89,0,0,1-1-.18l.08-.28-2.52.19v1.3a9.29,9.29,0,0,0,3.59.73,8,8,0,0,0,3.3-.76l1.48.83,1.16-.69v-1.29ZM599,311.46a2.7,2.7,0,0,1-1.06-.3,1.12,1.12,0,0,1-.58-.65.8.8,0,0,1,.19-.76l2.82,1.58A4.44,4.44,0,0,1,599,311.46Zm8.39,2.44-3.18-1.77a4.59,4.59,0,0,1,1.64-.28,2.75,2.75,0,0,1,1.26.34,1.19,1.19,0,0,1,.68.82A.94.94,0,0,1,607.41,313.9Z"/><path class="cls-3" d="M609.58,316.74l-1.5-.84a8.22,8.22,0,0,1-3.29.73,9.39,9.39,0,0,1-3.68-.75l-.16-.06v-1.7l3.11-.24-.11.38a5.4,5.4,0,0,0,.73.11h.66l-2.65-1.48a10.49,10.49,0,0,1-3.66.58,7.14,7.14,0,0,1-3.09-.85,2.58,2.58,0,0,1-1.55-1.95v-1.55l.35-.19v-2.19l2.21.13,0,.91a7.27,7.27,0,0,1,2.89-.68,3.88,3.88,0,0,1,.59,0l2.58-.89V308l-2,1.51-.13,0a3.79,3.79,0,0,0-1.39-.25l2.43,1.36a11.53,11.53,0,0,1,4-.77,6.52,6.52,0,0,1,3,.83,3.7,3.7,0,0,1,.67.44l1.08.44v1.57l-.08.34a2.33,2.33,0,0,1-.39.81l.79,0v1.7Zm-1.48-1.4,1.47.82.91-.54v-.89l-1.49.07.46-.46a2.07,2.07,0,0,0,.69-1.28l0-.35v-.85l-.86-.37a5.3,5.3,0,0,0-.63-.42,6.09,6.09,0,0,0-2.75-.76,11.57,11.57,0,0,0-3.89.78l-.11,0L598.08,309l.62-.15A4,4,0,0,1,601,309l1.54-1.2v-.82l-1.64.57.06.13h-.42c-.21,0-.43,0-.65,0a7,7,0,0,0-2.81.69l-.11.05-.86-.48.36-.28v-.24l-1.1.15-.11,1,.28-.22.74.41L596,309a3.47,3.47,0,0,0-.6.55l-.11.13-.35-.12v1.14a2.15,2.15,0,0,0,1.29,1.53,6.49,6.49,0,0,0,2.87.78,10,10,0,0,0,3.59-.58l.1,0,4.1,2.29-.65.14a6.26,6.26,0,0,1-1.54.09,5.83,5.83,0,0,1-1.07-.18l-.25-.07,0-.18-1.93.15v.89a8.72,8.72,0,0,0,3.34.65,7.92,7.92,0,0,0,3.19-.73Zm-.66-1.13-3.83-2.14.54-.18a4.64,4.64,0,0,1,1.73-.29,3.07,3.07,0,0,1,1.37.37,1.42,1.42,0,0,1,.81,1,1.2,1.2,0,0,1-.49,1.12Zm-2.56-2,2.49,1.39a.66.66,0,0,0,.2-.55,1,1,0,0,0-.57-.63,2.44,2.44,0,0,0-1.14-.31A3.93,3.93,0,0,0,604.88,312.2Zm-5.57-.48H599a2.87,2.87,0,0,1-1.16-.33,1.38,1.38,0,0,1-.7-.8,1,1,0,0,1,.24-1l.13-.16,3.56,2-.62.15A4.7,4.7,0,0,1,599.31,311.72Zm-.27-.51a4.18,4.18,0,0,0,.61,0l-2-1.11a.45.45,0,0,0,0,.35.87.87,0,0,0,.46.5,2.59,2.59,0,0,0,1,.27Z"/><path class="cls-2" d="M606.13,313.24l-3.41-1.91a9.84,9.84,0,0,1-3.68.6,6.52,6.52,0,0,1-3-.82,2.33,2.33,0,0,1-1.42-1.74,2.21,2.21,0,0,1,1.16-1.9L595,307l1.16-.69.81.45a7.25,7.25,0,0,1,2.9-.72,7.52,7.52,0,0,1,2.91.52L601,307.94a3.75,3.75,0,0,0-2.26-.16l3.18,1.78a11.66,11.66,0,0,1,4-.79,6.28,6.28,0,0,1,2.86.79,2.71,2.71,0,0,1,1.61,1.91,2.47,2.47,0,0,1-1.19,2.15l1.52.85-1.16.69-1.48-.83a7.81,7.81,0,0,1-3.3.75,8.94,8.94,0,0,1-3.59-.73l1.86-1.37a5.51,5.51,0,0,0,1.6.34A5.31,5.31,0,0,0,606.13,313.24Zm-8.56-4.78a.8.8,0,0,0-.19.76,1.12,1.12,0,0,0,.58.65,2.54,2.54,0,0,0,1.06.29,4.13,4.13,0,0,0,1.37-.12Zm9.84,4.15a1,1,0,0,0,.4-.9,1.19,1.19,0,0,0-.68-.81,2.75,2.75,0,0,0-1.26-.34,4.59,4.59,0,0,0-1.64.28Z"/><path class="cls-4" d="M606.06,313.85l-3.42-1.91a10.23,10.23,0,0,1-3.68.6,6.64,6.64,0,0,1-3-.82,2,2,0,0,1-1.22-1.71,2,2,0,0,1,1-1.94l-.37-.57.73-.57.8.45a7.41,7.41,0,0,1,2.91-.71,6.66,6.66,0,0,1,2.73.65L601,308.54a3.85,3.85,0,0,0-2.27-.15l3.19,1.78a11.34,11.34,0,0,1,4-.79,6.2,6.2,0,0,1,2.86.79,2.72,2.72,0,0,1,1.61,1.91,2.44,2.44,0,0,1-1.2,2.14l1.35.94-1,.61-1.49-.83a8,8,0,0,1-3.29.75,7.73,7.73,0,0,1-3.33-.62l1.6-1.48a5.86,5.86,0,0,0,1.6.34A5.31,5.31,0,0,0,606.06,313.85Zm-8.56-4.78a.79.79,0,0,0-.2.75,1.12,1.12,0,0,0,.59.65,2.54,2.54,0,0,0,1.06.3,4.2,4.2,0,0,0,1.37-.13Zm9.83,4.15a1,1,0,0,0,.41-.9,1.2,1.2,0,0,0-.69-.82,2.94,2.94,0,0,0-1.26-.34,4.82,4.82,0,0,0-1.64.28Z"/><path class="cls-3" d="M609.58,315.45l-1.5-.84a8.22,8.22,0,0,1-3.29.73,9.57,9.57,0,0,1-3.68-.75l-.16-.07v-.4l.71-.41,1.36-1,.13.05a5.35,5.35,0,0,0,1.53.32,4.89,4.89,0,0,0,.66,0l-2.65-1.47a10.24,10.24,0,0,1-3.66.57,6.88,6.88,0,0,1-3.09-.85,2.55,2.55,0,0,1-1.55-1.94,2.27,2.27,0,0,1,1-1.89l-.86-.47,1.66-1,.82.46a7.46,7.46,0,0,1,2.89-.69,8.61,8.61,0,0,1,3.17.42h0v.48l-2,1.51-.13-.05a3.77,3.77,0,0,0-1.39-.24l2.43,1.36a11.53,11.53,0,0,1,4-.77,6.51,6.51,0,0,1,3,.82,3,3,0,0,1,1.74,2.1,2.49,2.49,0,0,1-1,2.13l1.33.63v.41Zm-1.48-1.4,1.47.82.76-.45-1.57-.77.29-.23a2.23,2.23,0,0,0,1.1-1.92,2.54,2.54,0,0,0-1.48-1.72,6.09,6.09,0,0,0-2.75-.76,11.57,11.57,0,0,0-3.89.78l-.11,0-3.84-2.15.62-.15a4,4,0,0,1,2.28.12l1.39-1.08a7.53,7.53,0,0,0-2.5-.26,6.94,6.94,0,0,0-2.81.68l-.11.06-.8-.44-.66.39.77.43-.31.23a2,2,0,0,0-1.06,1.68c.05.57.48,1.09,1.29,1.55a6.49,6.49,0,0,0,2.87.78,9.78,9.78,0,0,0,3.59-.59l.1,0,4.09,2.28-.64.14a5.78,5.78,0,0,1-1.54.1,5.86,5.86,0,0,1-1.55-.32l-1.38,1a8.56,8.56,0,0,0,3.07.55,7.6,7.6,0,0,0,3.19-.73Zm-.66-1.13-3.83-2.14.54-.18a4.64,4.64,0,0,1,1.73-.29,2.94,2.94,0,0,1,1.37.37,1.43,1.43,0,0,1,.81,1,1.2,1.2,0,0,1-.49,1.13Zm-2.56-2,2.49,1.39a.66.66,0,0,0,.2-.55,1,1,0,0,0-.57-.64,2.56,2.56,0,0,0-1.14-.3A3.93,3.93,0,0,0,604.88,310.91Zm-5.57-.48-.31,0a3,3,0,0,1-1.16-.32,1.38,1.38,0,0,1-.7-.8,1,1,0,0,1,.24-1l.13-.16,3.56,2-.62.15A4.7,4.7,0,0,1,599.31,310.43Zm-1.66-1.64a.47.47,0,0,0,0,.36.87.87,0,0,0,.46.5,2.41,2.41,0,0,0,1,.26,3.11,3.11,0,0,0,.61,0Z"/><polygon class="cls-3" points="604.7 320.93 604.7 324.26 608.43 323.65 612.02 322.59 615.74 320.23 618.02 317.37 618.65 315.45 618.6 312.85 616.84 316.16 613.34 318.55 608.08 320.45 604.7 320.93"/><polygon class="cls-3" points="602.38 321.02 602.38 324.29 600.85 324.17 600.85 320.74 602.38 321.02"/><path class="cls-2" d="M617.72,306.5c-2.18-3.75-8-6.44-14.78-6.44s-12.61,2.69-14.78,6.44h-.94v3.28c0,5.36,7,9.71,15.72,9.71s15.71-4.35,15.71-9.71V306.5Z"/><path class="cls-3" d="M602.94,319.74c-8.81,0-16-4.47-16-10v-3.53h1c2.34-3.85,8.3-6.44,14.93-6.44s12.59,2.59,14.92,6.44h1v3.53C618.9,315.27,611.74,319.74,602.94,319.74Zm-15.47-13v3c0,5.21,6.94,9.46,15.47,9.46s15.46-4.25,15.46-9.46v-3h-.83l-.07-.12c-2.19-3.78-8-6.31-14.56-6.31s-12.38,2.53-14.57,6.31l-.07.12Z"/><ellipse class="cls-2" cx="602.94" cy="306.5" rx="15.71" ry="9.71"/><path class="cls-3" d="M602.94,316.47c-8.81,0-16-4.47-16-10s7.16-10,16-10,16,4.47,16,10S611.74,316.47,602.94,316.47Zm0-19.43c-8.53,0-15.47,4.25-15.47,9.46s6.94,9.46,15.47,9.46,15.46-4.24,15.46-9.46S611.46,297,602.94,297Z"/><path class="cls-2" d="M615.49,306.07c0,4-5.62,7.3-12.55,7.3s-12.55-3.27-12.55-7.3,5.61-7.31,12.55-7.31S615.49,302,615.49,306.07Z"/><path class="cls-3" d="M602.94,313.62c-7.06,0-12.81-3.39-12.81-7.55s5.75-7.56,12.81-7.56,12.8,3.39,12.8,7.56S610,313.62,602.94,313.62Zm0-14.61c-6.79,0-12.3,3.17-12.3,7.06s5.51,7.05,12.3,7.05,12.3-3.16,12.3-7.05S609.72,299,602.94,299Z"/><path class="cls-2" d="M602.94,298.76c-6.94,0-12.55,3.27-12.55,7.31a4.74,4.74,0,0,0,.14,1.06c.89-3.53,6.1-6.24,12.41-6.24s11.51,2.71,12.4,6.24a4.24,4.24,0,0,0,.15-1.06C615.49,302,609.87,298.76,602.94,298.76Z"/><path class="cls-3" d="M615.19,307.65l-.1-.46c-.86-3.45-6.09-6.05-12.15-6.05s-11.3,2.6-12.16,6.05l-.14.56-.35-.56a4.37,4.37,0,0,1-.16-1.12c0-4.17,5.75-7.56,12.81-7.56s12.8,3.39,12.8,7.56a4.37,4.37,0,0,1-.16,1.12ZM602.94,299c-6.79,0-12.3,3.17-12.3,7.06v0c1.53-3.22,6.47-5.47,12.3-5.47s10.76,2.25,12.29,5.47v0C615.24,302.18,609.72,299,602.94,299Z"/><polygon class="cls-14" points="600.85 298.93 600.85 300.99 597.35 301.65 593.91 303.13 591.42 305.31 590.53 307.13 590.39 305.31 591.44 303.13 593.33 301.36 596.44 299.81 600.26 298.93 600.85 298.93"/><path class="cls-2" d="M609.63,309.75a2.38,2.38,0,0,0,.76-1.44h0v-1.4l-.95-.4a6,6,0,0,0-.67-.44,6.28,6.28,0,0,0-2.86-.79,11.57,11.57,0,0,0-4,.79l-3.19-1.78a3.75,3.75,0,0,1,2.26.16l1.76-1.36v-1.29l-2.25.77v0l-.68,0a7.25,7.25,0,0,0-2.9.72l-.41-.23.15-.12v-.61l-1.71-.09v2l.56-.43.25.14a4.11,4.11,0,0,0-.64.58l-.52-.17v1.49a2.36,2.36,0,0,0,1.42,1.75,6.64,6.64,0,0,0,3,.81,9.84,9.84,0,0,0,3.68-.6l3.41,1.91a5.31,5.31,0,0,1-1.47.08,5.17,5.17,0,0,1-1-.17l.08-.28-2.52.19v1.29a8.94,8.94,0,0,0,3.59.73,7.81,7.81,0,0,0,3.3-.75l1.48.83,1.16-.69V309.7ZM599,306.68a2.54,2.54,0,0,1-1.06-.29,1.12,1.12,0,0,1-.58-.65.78.78,0,0,1,.2-.76l2.82,1.58A4.21,4.21,0,0,1,599,306.68Zm8.39,2.45-3.18-1.77a4.59,4.59,0,0,1,1.64-.28,2.75,2.75,0,0,1,1.26.34,1.19,1.19,0,0,1,.68.81A1,1,0,0,1,607.41,309.13Z"/><path class="cls-3" d="M609.58,312l-1.5-.84a8.22,8.22,0,0,1-3.29.73,9.57,9.57,0,0,1-3.68-.75L601,311v-1.69l3.11-.24-.11.38a5.29,5.29,0,0,0,.73.1,4.89,4.89,0,0,0,.66,0l-2.65-1.47a10.24,10.24,0,0,1-3.66.57,6.88,6.88,0,0,1-3.09-.85,2.57,2.57,0,0,1-1.55-1.94v-1.55l.35-.19V302l2.21.12,0,.92a7.46,7.46,0,0,1,2.89-.69h.59l2.58-.88v1.77l-2,1.51-.13-.05a3.77,3.77,0,0,0-1.39-.24l2.43,1.36a11.53,11.53,0,0,1,4-.77,6.64,6.64,0,0,1,3,.82,6.15,6.15,0,0,1,.68.44l1.07.45v1.57l-.08.34a2.47,2.47,0,0,1-.38.81l.78,0v1.7Zm-1.48-1.4,1.47.82.91-.54V310L609,310l.46-.46a2.07,2.07,0,0,0,.69-1.28l0-.35v-.86l-.86-.36a4.31,4.31,0,0,0-.63-.42,6.09,6.09,0,0,0-2.75-.76,11.57,11.57,0,0,0-3.89.78l-.11,0-3.84-2.15.62-.15a4,4,0,0,1,2.28.12l1.54-1.2v-.82l-1.64.57.06.13h-.42c-.21,0-.43,0-.65,0a6.94,6.94,0,0,0-2.81.68l-.11.06-.86-.48.36-.28v-.24l-1.1.15-.11,1,.28-.21.74.41-.31.23a3.88,3.88,0,0,0-.6.55l-.11.13-.35-.12v1.14c.05.55.48,1.07,1.29,1.53a6.49,6.49,0,0,0,2.87.78,9.82,9.82,0,0,0,3.59-.59l.1,0,4.1,2.28-.65.14a5.78,5.78,0,0,1-1.54.1,5.91,5.91,0,0,1-1.07-.19l-.25-.06,0-.18-1.93.15v.88a8.54,8.54,0,0,0,3.34.65,7.6,7.6,0,0,0,3.19-.73Zm-.66-1.13-3.83-2.14.54-.18a4.64,4.64,0,0,1,1.73-.29,2.94,2.94,0,0,1,1.37.37,1.4,1.4,0,0,1,.81,1,1.2,1.2,0,0,1-.49,1.13Zm-2.56-2,2.49,1.39a.66.66,0,0,0,.2-.55,1,1,0,0,0-.57-.64,2.56,2.56,0,0,0-1.14-.3A3.93,3.93,0,0,0,604.88,307.43Zm-5.57-.48-.31,0h0a3,3,0,0,1-1.16-.32,1.38,1.38,0,0,1-.7-.8,1,1,0,0,1,.24-1l.14-.16,3.56,2-.63.15A4.7,4.7,0,0,1,599.31,307Zm-.27-.52a3.11,3.11,0,0,0,.61,0l-2-1.12a.52.52,0,0,0,0,.36.87.87,0,0,0,.46.5,2.41,2.41,0,0,0,1,.26Z"/><path class="cls-2" d="M606.13,308.47l-3.41-1.91a10.27,10.27,0,0,1-3.68.6,6.65,6.65,0,0,1-3-.82,2.35,2.35,0,0,1-1.42-1.74,2.21,2.21,0,0,1,1.16-1.9l-.81-.45,1.16-.69.81.45a7.25,7.25,0,0,1,2.9-.72,7.61,7.61,0,0,1,2.92.52L601,303.17a3.75,3.75,0,0,0-2.26-.16l3.19,1.78a11.34,11.34,0,0,1,4-.79,6.28,6.28,0,0,1,2.86.79,2.71,2.71,0,0,1,1.61,1.91,2.47,2.47,0,0,1-1.19,2.15l1.52.85-1.16.69-1.48-.83a7.81,7.81,0,0,1-3.3.75,8.94,8.94,0,0,1-3.59-.73l1.86-1.37a5.58,5.58,0,0,0,1.6.34A5.31,5.31,0,0,0,606.13,308.47Zm-8.55-4.78a.78.78,0,0,0-.2.76,1.15,1.15,0,0,0,.58.65,2.54,2.54,0,0,0,1.06.29,4,4,0,0,0,1.38-.13Zm9.83,4.15a1,1,0,0,0,.4-.9,1.21,1.21,0,0,0-.68-.82,2.87,2.87,0,0,0-1.26-.33,4.55,4.55,0,0,0-1.64.27Z"/><path class="cls-4" d="M606.06,309.07l-3.42-1.9a10.23,10.23,0,0,1-3.68.6,6.77,6.77,0,0,1-3-.82,2.08,2.08,0,0,1-.27-3.65l-.37-.57.73-.57.8.45a7.24,7.24,0,0,1,2.91-.71,6.66,6.66,0,0,1,2.73.65L601,303.77a3.85,3.85,0,0,0-2.27-.15l3.19,1.78a11.63,11.63,0,0,1,4-.8,6.33,6.33,0,0,1,2.86.8,2.72,2.72,0,0,1,1.61,1.91,2.44,2.44,0,0,1-1.2,2.14l1.35.94-1,.6-1.49-.82a8,8,0,0,1-3.29.75,7.75,7.75,0,0,1-3.33-.63l1.6-1.47a5.86,5.86,0,0,0,1.6.34A5.28,5.28,0,0,0,606.06,309.07Zm-8.56-4.77a.78.78,0,0,0-.2.75,1.12,1.12,0,0,0,.59.65,2.7,2.7,0,0,0,1.06.3,4.49,4.49,0,0,0,1.37-.13Zm9.83,4.15a1,1,0,0,0,.41-.9,1.2,1.2,0,0,0-.69-.82,2.8,2.8,0,0,0-1.25-.34,4.6,4.6,0,0,0-1.65.28Z"/><path class="cls-3" d="M609.58,310.68l-1.5-.84a8,8,0,0,1-3.29.72,9.37,9.37,0,0,1-3.68-.74l-.16-.07v-.4l.71-.41,1.36-1,.13.05a5.35,5.35,0,0,0,1.53.32,4.89,4.89,0,0,0,.66,0l-2.65-1.48a10.26,10.26,0,0,1-3.66.58,6.88,6.88,0,0,1-3.09-.85,2.59,2.59,0,0,1-1.55-1.94,2.27,2.27,0,0,1,1-1.89l-.86-.48,1.66-1,.82.45a7.63,7.63,0,0,1,2.89-.68,8.59,8.59,0,0,1,3.17.42h0v.47l-2,1.52-.13-.05a3.77,3.77,0,0,0-1.39-.24l2.43,1.36a11.53,11.53,0,0,1,4-.77,6.51,6.51,0,0,1,3,.82,3,3,0,0,1,1.74,2.1,2.49,2.49,0,0,1-1,2.13l1.33.63v.41Zm-1.48-1.4,1.47.82.76-.45-1.57-.77.29-.23a2.23,2.23,0,0,0,1.1-1.92,2.54,2.54,0,0,0-1.48-1.72,6,6,0,0,0-2.75-.76A11.57,11.57,0,0,0,602,305l-.11,0-3.84-2.14.62-.15a4,4,0,0,1,2.28.11l1.39-1.07a7.81,7.81,0,0,0-2.5-.27,7.13,7.13,0,0,0-2.81.69l-.11.06-.79-.44-.67.39.77.43-.31.23a2,2,0,0,0-1.06,1.68c.05.57.48,1.09,1.29,1.54a6.49,6.49,0,0,0,2.87.79,10,10,0,0,0,3.59-.59l.1,0,4.1,2.28-.65.14a5.42,5.42,0,0,1-1.54.09,5.84,5.84,0,0,1-1.55-.31l-1.38,1a8.56,8.56,0,0,0,3.07.55,7.6,7.6,0,0,0,3.19-.73Zm-.66-1.14L603.61,306l.54-.18a4.64,4.64,0,0,1,1.73-.29,3.06,3.06,0,0,1,1.37.36,1.44,1.44,0,0,1,.81,1,1.2,1.2,0,0,1-.49,1.13Zm-2.56-2,2.49,1.39a.66.66,0,0,0,.2-.55,1,1,0,0,0-.57-.64,2.56,2.56,0,0,0-1.14-.3A3.93,3.93,0,0,0,604.88,306.14Zm-5.57-.48-.31,0a3,3,0,0,1-1.16-.32,1.38,1.38,0,0,1-.7-.8,1,1,0,0,1,.24-1l.14-.16,3.56,2-.63.15A4.7,4.7,0,0,1,599.31,305.66ZM597.65,304a.52.52,0,0,0,0,.36.87.87,0,0,0,.46.5,2.41,2.41,0,0,0,1,.26,3.11,3.11,0,0,0,.61,0Z"/><polygon class="cls-3" points="604.7 316.15 604.7 319.49 608.43 318.88 612.02 317.82 615.74 315.46 618.02 312.6 618.65 310.68 618.6 308.07 616.84 311.39 613.34 313.78 608.08 315.68 604.7 316.15"/><polygon class="cls-3" points="602.38 316.25 602.38 319.52 600.85 319.4 600.85 315.96 602.38 316.25"/><path class="cls-2" d="M617.72,301.74c-2.18-3.76-8-6.44-14.78-6.44s-12.61,2.68-14.78,6.44h-.94V305c0,5.36,7,9.71,15.72,9.71s15.71-4.35,15.71-9.71v-3.27Z"/><path class="cls-3" d="M602.94,315c-8.81,0-16-4.47-16-10v-3.53h1c2.34-3.85,8.31-6.43,14.93-6.43s12.59,2.58,14.92,6.43h1V305C618.9,310.5,611.74,315,602.94,315Zm-15.47-13v3c0,5.22,6.94,9.46,15.47,9.46s15.46-4.24,15.46-9.46v-3h-.83l-.07-.13c-2.19-3.77-8-6.31-14.56-6.31s-12.38,2.54-14.57,6.31l-.07.13Z"/><ellipse class="cls-2" cx="602.94" cy="301.74" rx="15.71" ry="9.71"/><path class="cls-3" d="M602.94,311.7c-8.81,0-16-4.47-16-10s7.16-10,16-10,16,4.47,16,10S611.74,311.7,602.94,311.7Zm0-19.43c-8.53,0-15.47,4.25-15.47,9.47s6.94,9.46,15.47,9.46,15.46-4.25,15.46-9.46S611.46,292.27,602.94,292.27Z"/><path class="cls-2" d="M615.49,301.3c0,4-5.62,7.31-12.55,7.31s-12.55-3.28-12.55-7.31S596,294,602.94,294,615.49,297.26,615.49,301.3Z"/><path class="cls-3" d="M602.94,308.86c-7.06,0-12.8-3.39-12.8-7.56s5.74-7.56,12.8-7.56,12.8,3.39,12.8,7.56S610,308.86,602.94,308.86Zm0-14.62c-6.78,0-12.3,3.17-12.3,7.06s5.52,7.05,12.3,7.05,12.3-3.16,12.3-7.05S609.72,294.24,602.94,294.24Z"/><path class="cls-2" d="M602.94,294c-6.93,0-12.55,3.27-12.55,7.31a4.67,4.67,0,0,0,.14,1.06c.89-3.53,6.1-6.24,12.41-6.24s11.51,2.71,12.4,6.24a4.17,4.17,0,0,0,.15-1.06C615.49,297.26,609.87,294,602.94,294Z"/><path class="cls-3" d="M615.19,302.89l-.09-.47c-.87-3.45-6.1-6.05-12.16-6.05s-11.29,2.6-12.16,6.05l-.14.56-.35-.56a4.74,4.74,0,0,1-.15-1.12c0-4.17,5.74-7.56,12.8-7.56s12.8,3.39,12.8,7.56a4.37,4.37,0,0,1-.16,1.12Zm-12.25-8.65c-6.78,0-12.3,3.17-12.3,7.06v0c1.53-3.22,6.47-5.47,12.3-5.47s10.76,2.25,12.3,5.47v0C615.24,297.41,609.72,294.24,602.94,294.24Z"/><polygon class="cls-14" points="600.85 294.16 600.85 296.22 597.35 296.88 593.91 298.36 591.42 300.54 590.53 302.36 590.39 300.54 591.45 298.36 593.33 296.6 596.45 295.05 600.26 294.16 600.85 294.16"/><path class="cls-2" d="M609.63,305a2.28,2.28,0,0,0,.76-1.44h0v-1.4l-.95-.39a4.32,4.32,0,0,0-.67-.44,6.17,6.17,0,0,0-2.86-.8,11.62,11.62,0,0,0-4,.8l-3.19-1.78a3.82,3.82,0,0,1,2.26.15l1.76-1.36V297l-2.25.77v0c-.22,0-.45,0-.67,0a7.08,7.08,0,0,0-2.91.71l-.41-.23.15-.12v-.61l-1.71-.09v2l.56-.43.25.14a3.7,3.7,0,0,0-.64.59l-.52-.18v1.49a2.36,2.36,0,0,0,1.42,1.75,6.78,6.78,0,0,0,3,.82,10.27,10.27,0,0,0,3.68-.6l3.41,1.9a5.21,5.21,0,0,1-1.46.09,6,6,0,0,1-1-.18l.08-.28-2.52.2v1.29a9.29,9.29,0,0,0,3.59.73,8,8,0,0,0,3.3-.76l1.48.83,1.16-.69v-1.29ZM599,301.92a2.7,2.7,0,0,1-1.06-.3,1.1,1.1,0,0,1-.58-.65.78.78,0,0,1,.2-.76l2.82,1.58A4.53,4.53,0,0,1,599,301.92Zm8.39,2.44-3.18-1.77a4.59,4.59,0,0,1,1.64-.28,2.75,2.75,0,0,1,1.26.34,1.22,1.22,0,0,1,.69.82A1,1,0,0,1,607.41,304.36Z"/><path class="cls-3" d="M609.58,307.2l-1.5-.83a8.34,8.34,0,0,1-3.28.72,9.4,9.4,0,0,1-3.69-.75l-.16-.06v-1.7l3.11-.24-.11.38a5.4,5.4,0,0,0,.73.11h.66l-2.65-1.48a10.26,10.26,0,0,1-3.66.58,7,7,0,0,1-3.09-.85,2.62,2.62,0,0,1-1.55-1.95v-1.55l.35-.19v-2.19l2.21.13,0,.91a7.27,7.27,0,0,1,2.89-.68,5.76,5.76,0,0,1,.59,0l2.58-.89v1.77l-2,1.52-.14-.05a3.79,3.79,0,0,0-1.39-.25L602,301a11.57,11.57,0,0,1,4-.77,6.6,6.6,0,0,1,3,.83,4.56,4.56,0,0,1,.67.44l1.08.44v1.57l-.08.34a2.33,2.33,0,0,1-.39.81l.78,0v1.69Zm-1.48-1.4,1.47.82.91-.54v-.89l-1.48.07.45-.46a2,2,0,0,0,.69-1.28l0-.35v-.85l-.86-.37a6.88,6.88,0,0,0-.63-.42,6.18,6.18,0,0,0-2.75-.76,11.57,11.57,0,0,0-3.89.78l-.11,0-3.84-2.15.62-.15a4,4,0,0,1,2.28.12l1.55-1.2v-.82l-1.65.57.06.13h-.42c-.21,0-.43,0-.65,0a6.87,6.87,0,0,0-2.8.69l-.12.05-.86-.47.36-.28v-.25l-1.1.16-.11,1,.28-.22.74.41-.31.24a3.81,3.81,0,0,0-.6.54l-.11.13-.35-.12v1.14c0,.56.48,1.08,1.28,1.53a6.49,6.49,0,0,0,2.87.78,10,10,0,0,0,3.59-.58l.1,0,4.1,2.29-.65.14a5.85,5.85,0,0,1-2.61-.09l-.25-.07,0-.18-1.93.15v.89a8.72,8.72,0,0,0,3.34.65,7.76,7.76,0,0,0,3.19-.73Zm-.66-1.13-3.83-2.14.54-.18a4.85,4.85,0,0,1,1.73-.29,3.07,3.07,0,0,1,1.37.37,1.4,1.4,0,0,1,.81,1,1.2,1.2,0,0,1-.49,1.12Zm-2.56-2,2.49,1.38a.65.65,0,0,0,.2-.54,1,1,0,0,0-.56-.64,2.52,2.52,0,0,0-1.15-.31A3.54,3.54,0,0,0,604.88,302.67Zm-5.57-.49H599a2.87,2.87,0,0,1-1.16-.33,1.38,1.38,0,0,1-.7-.8,1.05,1.05,0,0,1,.24-1l.14-.16,3.56,2-.62.15A4.85,4.85,0,0,1,599.31,302.18Zm-.27-.51a4.16,4.16,0,0,0,.61,0l-2-1.11a.46.46,0,0,0,0,.35.86.86,0,0,0,.47.5,2.48,2.48,0,0,0,.95.27Z"/><path class="cls-2" d="M606.13,303.7l-3.41-1.91a9.84,9.84,0,0,1-3.68.6,6.64,6.64,0,0,1-3-.81,2.36,2.36,0,0,1-1.42-1.75,2.23,2.23,0,0,1,1.16-1.9l-.81-.45,1.16-.69.81.45a7.08,7.08,0,0,1,2.91-.71,7.39,7.39,0,0,1,2.91.51L601,298.4a3.83,3.83,0,0,0-2.26-.16L602,300a11.57,11.57,0,0,1,4-.79,6.28,6.28,0,0,1,2.86.79,2.71,2.71,0,0,1,1.61,1.91,2.44,2.44,0,0,1-1.19,2.15l1.52.85-1.16.69-1.48-.83a8,8,0,0,1-3.3.76,9.29,9.29,0,0,1-3.59-.73l1.86-1.38a5.66,5.66,0,0,0,3.07.26Zm-8.55-4.78a.78.78,0,0,0-.2.76,1.12,1.12,0,0,0,.58.65,2.54,2.54,0,0,0,1.06.29,4.21,4.21,0,0,0,1.38-.12Zm9.83,4.15a1,1,0,0,0,.41-.9,1.21,1.21,0,0,0-.69-.81,2.75,2.75,0,0,0-1.26-.34,4.59,4.59,0,0,0-1.64.28Z"/><path class="cls-4" d="M606.06,304.31l-3.42-1.91a10.2,10.2,0,0,1-3.68.6,6.64,6.64,0,0,1-3-.82,2.07,2.07,0,0,1-.27-3.64l-.37-.57.73-.58.8.45a7.41,7.41,0,0,1,2.91-.71,6.6,6.6,0,0,1,2.74.66L601,299a3.75,3.75,0,0,0-2.26-.16l3.18,1.78a11.34,11.34,0,0,1,4-.79,6.16,6.16,0,0,1,2.86.79,2.74,2.74,0,0,1,1.61,1.91,2.44,2.44,0,0,1-1.2,2.14l1.35.94-1,.61L608,305.4a7.81,7.81,0,0,1-3.3.75,7.69,7.69,0,0,1-3.32-.62l1.59-1.48a5.51,5.51,0,0,0,1.6.34A5.31,5.31,0,0,0,606.06,304.31Zm-8.56-4.78a.83.83,0,0,0-.2.76,1.18,1.18,0,0,0,.59.65,2.7,2.7,0,0,0,1.06.29,4.2,4.2,0,0,0,1.37-.13Zm9.83,4.15a1,1,0,0,0,.41-.9,1.2,1.2,0,0,0-.69-.82,2.93,2.93,0,0,0-1.25-.34,4.83,4.83,0,0,0-1.65.28Z"/><path class="cls-3" d="M609.58,305.91l-1.5-.84a8.18,8.18,0,0,1-3.28.73,9.58,9.58,0,0,1-3.69-.75L601,305v-.4l.71-.41,1.36-1,.13,0a5.73,5.73,0,0,0,1.53.33h.66l-2.65-1.47a10.24,10.24,0,0,1-3.66.57,7,7,0,0,1-3.09-.84,2.62,2.62,0,0,1-1.55-1.95,2.24,2.24,0,0,1,1-1.88l-.86-.48,1.66-1,.82.46a7.46,7.46,0,0,1,2.89-.69,8.59,8.59,0,0,1,3.17.42h0v.48l-2,1.51-.14,0a3.59,3.59,0,0,0-1.39-.25l2.43,1.36a11.53,11.53,0,0,1,4-.77,6.71,6.71,0,0,1,3,.82,3,3,0,0,1,1.73,2.1,2.49,2.49,0,0,1-1,2.14l1.33.63v.4Zm-1.48-1.4,1.47.82.76-.45-1.57-.77.29-.23a2.22,2.22,0,0,0,1.1-1.91c-.07-.64-.57-1.22-1.48-1.73a6.06,6.06,0,0,0-2.75-.76,11.57,11.57,0,0,0-3.89.78l-.11,0-3.84-2.15.62-.15a4,4,0,0,1,2.28.12l1.39-1.08a7.53,7.53,0,0,0-2.5-.26,6.72,6.72,0,0,0-2.8.69l-.12,0-.79-.44-.66.39.76.43-.31.23a2,2,0,0,0-1.06,1.68,2.16,2.16,0,0,0,1.29,1.55,6.49,6.49,0,0,0,2.87.78,9.94,9.94,0,0,0,3.59-.58l.1,0,4.1,2.28-.65.15a6.12,6.12,0,0,1-3.09-.22l-1.38,1a8.77,8.77,0,0,0,3.07.54,7.75,7.75,0,0,0,3.19-.72Zm-.66-1.13-3.83-2.14.54-.18a4.64,4.64,0,0,1,1.73-.29,3.07,3.07,0,0,1,1.37.37,1.4,1.4,0,0,1,.81,1,1.2,1.2,0,0,1-.49,1.13Zm-2.56-2,2.49,1.39a.66.66,0,0,0,.2-.55,1,1,0,0,0-.56-.63,2.52,2.52,0,0,0-1.15-.31A3.93,3.93,0,0,0,604.88,301.37Zm-5.57-.48-.31,0a2.72,2.72,0,0,1-1.16-.32,1.38,1.38,0,0,1-.7-.8,1,1,0,0,1,.24-1l.14-.16,3.56,2-.62.15A4.85,4.85,0,0,1,599.31,300.89Zm-1.65-1.64a.48.48,0,0,0,0,.36.86.86,0,0,0,.47.5,2.32,2.32,0,0,0,.95.26,3.11,3.11,0,0,0,.61,0Z"/><polygon class="cls-3" points="604.7 311.39 604.7 314.72 608.43 314.11 612.02 313.06 615.74 310.69 618.03 307.83 618.65 305.91 618.6 303.31 616.84 306.62 613.34 309.01 608.08 310.92 604.7 311.39"/><polygon class="cls-3" points="602.38 311.48 602.38 314.75 600.85 314.63 600.85 311.2 602.38 311.48"/><path class="cls-2" d="M617.77,296.87c-2.18-3.75-8-6.44-14.78-6.44s-12.61,2.69-14.78,6.44h-.94v3.27c0,5.37,7,9.71,15.72,9.71s15.71-4.34,15.71-9.71v-3.27Z"/><path class="cls-3" d="M603,310.11c-8.81,0-16-4.47-16-10v-3.52h1c2.33-3.86,8.3-6.44,14.93-6.44s12.59,2.58,14.92,6.44h1v3.52C619,305.64,611.79,310.11,603,310.11Zm-15.47-13v3c0,5.22,6.94,9.46,15.47,9.46s15.46-4.24,15.46-9.46v-3h-.83l-.07-.13c-2.19-3.77-8-6.31-14.56-6.31s-12.38,2.54-14.57,6.31l-.07.13Z"/><ellipse class="cls-2" cx="602.99" cy="296.87" rx="15.71" ry="9.71"/><path class="cls-4" d="M618.7,297.64c0,5.36-5.55,8.85-14.23,8.85s-17.2-3.49-17.2-8.85,7-9.71,15.72-9.71S618.7,292.27,618.7,297.64Z"/><path class="cls-3" d="M603,306.83c-8.81,0-16-4.47-16-10s7.16-10,16-10,16,4.47,16,10S611.79,306.83,603,306.83Zm0-19.42c-8.53,0-15.47,4.24-15.47,9.46s6.94,9.46,15.47,9.46,15.46-4.25,15.46-9.46S611.51,287.41,603,287.41Z"/><ellipse class="cls-2" cx="602.99" cy="296.43" rx="12.55" ry="7.31"/><path class="cls-3" d="M603,304c-7.06,0-12.81-3.39-12.81-7.56s5.75-7.56,12.81-7.56,12.8,3.39,12.8,7.56S610,304,603,304Zm0-14.61c-6.79,0-12.3,3.16-12.3,7.05s5.51,7.06,12.3,7.06,12.29-3.17,12.29-7.06S609.77,289.38,603,289.38Z"/><path class="cls-2" d="M603,289.12c-6.94,0-12.55,3.28-12.55,7.31a4.83,4.83,0,0,0,.14,1.07c.89-3.53,6.1-6.25,12.41-6.25s11.51,2.72,12.4,6.25a4.84,4.84,0,0,0,.15-1.07C615.54,292.4,609.92,289.12,603,289.12Z"/><path class="cls-3" d="M615.24,298l-.1-.46c-.86-3.45-6.09-6.06-12.15-6.06s-11.3,2.61-12.16,6.06l-.14.55-.35-.55a4.45,4.45,0,0,1-.16-1.13c0-4.17,5.75-7.56,12.81-7.56s12.8,3.39,12.8,7.56a4.51,4.51,0,0,1-.16,1.13ZM603,289.38c-6.79,0-12.3,3.16-12.3,7.05v0c1.53-3.22,6.47-5.47,12.3-5.47s10.76,2.25,12.29,5.47v0C615.28,292.54,609.77,289.38,603,289.38Z"/><polygon class="cls-14" points="600.9 289.29 600.9 291.35 597.4 292.02 593.96 293.49 591.47 295.67 590.58 297.5 590.43 295.67 591.49 293.49 593.38 291.73 596.49 290.18 600.31 289.29 600.9 289.29"/><path class="cls-2" d="M609.68,300.11a2.33,2.33,0,0,0,.76-1.44h0v-1.4l-1-.39a6,6,0,0,0-.67-.44,6.29,6.29,0,0,0-2.86-.8,11.71,11.71,0,0,0-4,.8l-3.18-1.78a3.82,3.82,0,0,1,2.26.15l1.75-1.35v-1.29l-2.24.77v0a5.1,5.1,0,0,0-.68,0,7.23,7.23,0,0,0-2.9.71l-.42-.23.16-.12v-.6l-1.71-.1v2l.55-.43.26.14a3.72,3.72,0,0,0-.64.59l-.52-.18v1.49a2.36,2.36,0,0,0,1.42,1.75,6.78,6.78,0,0,0,3,.82,10.27,10.27,0,0,0,3.68-.6l3.41,1.9a4.93,4.93,0,0,1-1.47.09,5.87,5.87,0,0,1-1-.17l.08-.29-2.52.2v1.29a9.11,9.11,0,0,0,3.59.73,8.12,8.12,0,0,0,3.3-.75l1.48.82,1.16-.69v-1.29Zm-10.61-3.06a2.7,2.7,0,0,1-1.06-.3,1.1,1.1,0,0,1-.58-.65.78.78,0,0,1,.19-.75l2.82,1.57A4.15,4.15,0,0,1,599.07,297.05Zm8.39,2.45-3.18-1.78a4.59,4.59,0,0,1,1.64-.28,2.88,2.88,0,0,1,1.26.34,1.21,1.21,0,0,1,.68.82A1,1,0,0,1,607.46,299.5Z"/><path class="cls-3" d="M609.63,302.33l-1.5-.83a8.39,8.39,0,0,1-3.29.72,9.21,9.21,0,0,1-3.68-.75l-.16-.06v-1.69l3.11-.24-.11.37a5.4,5.4,0,0,0,.73.11c.23,0,.45,0,.66,0l-2.65-1.48a10.26,10.26,0,0,1-3.66.58,7,7,0,0,1-3.09-.85,2.56,2.56,0,0,1-1.55-2v-1.54l.35-.2v-2.18l2.21.12,0,.91a7.63,7.63,0,0,1,2.89-.68,5.81,5.81,0,0,1,.59,0l2.58-.89v1.77l-2,1.52-.13-.05a3.58,3.58,0,0,0-1.39-.24l2.43,1.35a12,12,0,0,1,4-.77,6.52,6.52,0,0,1,3,.83,4.85,4.85,0,0,1,.67.44l1.08.44v1.57l-.08.35a2.37,2.37,0,0,1-.39.8l.79,0v1.7Zm-1.48-1.4,1.47.82.91-.54v-.89l-1.49.07.46-.46a2,2,0,0,0,.69-1.28l0-.34v-.86l-.86-.37a5.28,5.28,0,0,0-.63-.41,6,6,0,0,0-2.75-.76,11.27,11.27,0,0,0-3.89.77l-.11,0-3.84-2.14.62-.16a4,4,0,0,1,2.28.12l1.54-1.2v-.81l-1.64.56.06.14h-.42a4.66,4.66,0,0,0-.65,0,7.13,7.13,0,0,0-2.81.69l-.11.05-.86-.47.36-.28v-.25l-1.1.16-.11,1,.28-.22.74.42-.31.23a3.41,3.41,0,0,0-.6.54l-.11.13-.35-.12v1.14c0,.56.48,1.08,1.29,1.53a6.49,6.49,0,0,0,2.87.79,10,10,0,0,0,3.59-.59l.1,0,4.1,2.29-.65.14a5.44,5.44,0,0,1-1.54.09,5.83,5.83,0,0,1-1.07-.18l-.25-.07,0-.18-1.93.15v.89a8.54,8.54,0,0,0,3.34.65A7.76,7.76,0,0,0,608,301Zm-.66-1.13-3.83-2.14.54-.18a5,5,0,0,1,1.73-.29,3.2,3.2,0,0,1,1.37.37,1.44,1.44,0,0,1,.81,1,1.2,1.2,0,0,1-.49,1.13Zm-2.56-2,2.49,1.39a.67.67,0,0,0,.2-.55,1,1,0,0,0-.57-.64,2.57,2.57,0,0,0-1.14-.31A4,4,0,0,0,604.93,297.8Zm-5.57-.49h-.31a2.87,2.87,0,0,1-1.16-.33,1.38,1.38,0,0,1-.7-.8,1,1,0,0,1,.24-1l.13-.17,3.56,2-.62.15A4.7,4.7,0,0,1,599.36,297.31Zm-.27-.51a4.18,4.18,0,0,0,.61,0l-2-1.11a.45.45,0,0,0,0,.35.87.87,0,0,0,.46.5,2.26,2.26,0,0,0,1,.27Z"/><path class="cls-2" d="M606.18,298.83l-3.41-1.9a10.27,10.27,0,0,1-3.68.6,6.78,6.78,0,0,1-3-.82,2.36,2.36,0,0,1-1.42-1.75,2.21,2.21,0,0,1,1.16-1.9l-.81-.45,1.16-.69.81.45a7.18,7.18,0,0,1,5.81-.19l-1.75,1.35a3.82,3.82,0,0,0-2.26-.15l3.18,1.78a11.71,11.71,0,0,1,4-.8,6.17,6.17,0,0,1,2.86.8,2.72,2.72,0,0,1,1.61,1.91,2.45,2.45,0,0,1-1.19,2.14l1.52.85-1.16.69-1.48-.83a8,8,0,0,1-3.3.76,9.29,9.29,0,0,1-3.59-.73l1.86-1.37a5.86,5.86,0,0,0,1.6.34A5.28,5.28,0,0,0,606.18,298.83Zm-8.56-4.78a.8.8,0,0,0-.19.76,1.1,1.1,0,0,0,.58.65,2.7,2.7,0,0,0,1.06.3,4.44,4.44,0,0,0,1.37-.13Zm9.84,4.15a.94.94,0,0,0,.4-.89,1.21,1.21,0,0,0-.68-.82,2.75,2.75,0,0,0-1.26-.34,4.59,4.59,0,0,0-1.64.28Z"/><path class="cls-4" d="M606.11,299.44l-3.42-1.91a9.81,9.81,0,0,1-3.68.6,6.52,6.52,0,0,1-3-.82,2,2,0,0,1-1.22-1.71,2,2,0,0,1,.95-1.93l-.37-.57.73-.57.8.45a7.25,7.25,0,0,1,2.91-.72,6.73,6.73,0,0,1,2.71.65L601,294.14a3.78,3.78,0,0,0-2.27-.16l3.19,1.78a11.58,11.58,0,0,1,4-.79,6.32,6.32,0,0,1,2.86.79,2.74,2.74,0,0,1,1.61,1.91,2.46,2.46,0,0,1-1.2,2.15l1.35.93-1,.61-1.49-.83a7.73,7.73,0,0,1-3.29.75,7.42,7.42,0,0,1-3.27-.68l1.54-1.42a5.44,5.44,0,0,0,1.6.34A5.31,5.31,0,0,0,606.11,299.44Zm-8.56-4.78a.8.8,0,0,0-.2.76,1.18,1.18,0,0,0,.59.65,2.54,2.54,0,0,0,1.06.29,3.94,3.94,0,0,0,1.37-.13Zm9.83,4.15a1,1,0,0,0,.41-.9,1.2,1.2,0,0,0-.69-.82,2.8,2.8,0,0,0-1.26-.33,4.59,4.59,0,0,0-1.64.28Z"/><path class="cls-3" d="M609.63,301l-1.5-.83a8.39,8.39,0,0,1-3.29.72,9.57,9.57,0,0,1-3.68-.75l-.16-.06v-.4l.71-.42,1.36-1,.13,0a5.73,5.73,0,0,0,1.53.33h.66l-2.65-1.48a10.26,10.26,0,0,1-3.66.58,7,7,0,0,1-3.09-.85,2.58,2.58,0,0,1-1.55-1.95,2.24,2.24,0,0,1,1-1.88l-.86-.48,1.66-1,.82.46a7.27,7.27,0,0,1,2.89-.68,8.4,8.4,0,0,1,3.17.41h0v.48l-2,1.52-.13-.05a3.59,3.59,0,0,0-1.39-.25l2.43,1.36a11.53,11.53,0,0,1,4-.77,6.52,6.52,0,0,1,3,.83,2.93,2.93,0,0,1,1.74,2.1,2.51,2.51,0,0,1-1,2.13l1.33.63v.4Zm-1.48-1.4,1.47.82.76-.45-1.57-.76.29-.24c.81-.64,1.18-1.28,1.1-1.91a2.5,2.5,0,0,0-1.48-1.72,6.1,6.1,0,0,0-2.75-.77,11.57,11.57,0,0,0-3.89.78l-.11,0-3.84-2.15.62-.15a4,4,0,0,1,2.28.12l1.39-1.07a7.54,7.54,0,0,0-2.5-.27,7.13,7.13,0,0,0-2.81.69l-.11,0-.8-.44-.66.39.77.43-.31.24a2,2,0,0,0-1.06,1.67,2.12,2.12,0,0,0,1.29,1.55,6.49,6.49,0,0,0,2.87.78,9.76,9.76,0,0,0,3.59-.58l.1,0,4.09,2.29-.64.14a5.44,5.44,0,0,1-1.54.09,6.27,6.27,0,0,1-1.55-.31l-1.38,1a8.56,8.56,0,0,0,3.07.55,7.76,7.76,0,0,0,3.19-.73Zm-.66-1.13-3.83-2.14.54-.18a5,5,0,0,1,1.73-.29,3.07,3.07,0,0,1,1.37.37,1.42,1.42,0,0,1,.81,1,1.2,1.2,0,0,1-.49,1.12Zm-2.56-2,2.49,1.38a.65.65,0,0,0,.2-.54,1,1,0,0,0-.57-.64,2.44,2.44,0,0,0-1.14-.31A3.54,3.54,0,0,0,604.93,296.51Zm-5.57-.49h-.31a2.87,2.87,0,0,1-1.16-.33,1.38,1.38,0,0,1-.7-.8,1.05,1.05,0,0,1,.24-1l.13-.16,3.56,2-.62.15A4.7,4.7,0,0,1,599.36,296Zm-1.66-1.63a.45.45,0,0,0,0,.35.87.87,0,0,0,.46.5,2.59,2.59,0,0,0,1,.27,4.16,4.16,0,0,0,.61,0Z"/><polygon class="cls-3" points="604.75 306.52 604.75 309.85 608.48 309.24 612.07 308.19 615.79 305.82 618.07 302.97 618.7 301.04 618.64 298.44 616.89 301.75 613.39 304.15 608.13 306.05 604.75 306.52"/><polygon class="cls-3" points="602.42 306.61 602.42 309.88 600.9 309.77 600.9 306.33 602.42 306.61"/><path class="cls-2" d="M593.73,328.37c-2.18-3.75-8-6.44-14.78-6.44s-12.61,2.69-14.78,6.44h-.94v3.27c0,5.37,7,9.72,15.72,9.72s15.71-4.35,15.71-9.72v-3.27Z"/><path class="cls-3" d="M579,341.61c-8.81,0-16-4.47-16-10v-3.52h1c2.34-3.86,8.31-6.44,14.93-6.44s12.59,2.58,14.92,6.44h1v3.52C594.91,337.14,587.75,341.61,579,341.61Zm-15.47-13v3c0,5.22,6.94,9.47,15.47,9.47s15.46-4.25,15.46-9.47v-3h-.83l-.07-.12c-2.19-3.78-8-6.32-14.56-6.32s-12.38,2.54-14.57,6.32l-.07.12Z"/><ellipse class="cls-2" cx="578.95" cy="328.37" rx="15.71" ry="9.71"/><path class="cls-3" d="M579,338.33c-8.81,0-16-4.47-16-10s7.16-10,16-10,16,4.47,16,10S587.75,338.33,579,338.33Zm0-19.42c-8.53,0-15.47,4.24-15.47,9.46s6.94,9.46,15.47,9.46,15.46-4.24,15.46-9.46S587.47,318.91,579,318.91Z"/><ellipse class="cls-2" cx="578.95" cy="327.93" rx="12.55" ry="7.31"/><path class="cls-3" d="M579,335.49c-7.06,0-12.8-3.39-12.8-7.56s5.74-7.55,12.8-7.55,12.8,3.39,12.8,7.55S586,335.49,579,335.49Zm0-14.61c-6.78,0-12.3,3.16-12.3,7.05S572.17,335,579,335s12.3-3.17,12.3-7.06S585.73,320.88,579,320.88Z"/><path class="cls-2" d="M579,320.63c-6.93,0-12.55,3.27-12.55,7.3a4.75,4.75,0,0,0,.14,1.07c.89-3.53,6.1-6.25,12.41-6.25s11.51,2.72,12.4,6.25a4.25,4.25,0,0,0,.15-1.07C591.5,323.9,585.88,320.63,579,320.63Z"/><path class="cls-3" d="M591.2,329.52l-.09-.46C590.24,325.61,585,323,579,323s-11.29,2.6-12.16,6.05l-.14.56-.35-.56a4.82,4.82,0,0,1-.15-1.13c0-4.16,5.74-7.55,12.8-7.55s12.8,3.39,12.8,7.55a4.45,4.45,0,0,1-.16,1.13ZM579,320.88c-6.78,0-12.3,3.16-12.3,7.05V328c1.53-3.23,6.47-5.48,12.3-5.48s10.76,2.25,12.3,5.48v-.05C591.25,324,585.73,320.88,579,320.88Z"/><polygon class="cls-14" points="576.86 320.79 576.86 322.86 573.36 323.52 569.92 325 567.43 327.17 566.54 329 566.4 327.17 567.45 325 569.34 323.23 572.46 321.68 576.27 320.79 576.86 320.79"/><path class="cls-2" d="M585.64,331.61a2.23,2.23,0,0,0,.76-1.44h0v-1.4l-.95-.39a5.19,5.19,0,0,0-.67-.44,6.16,6.16,0,0,0-2.86-.79,11.34,11.34,0,0,0-4,.79l-3.19-1.78a3.75,3.75,0,0,1,2.26.16l1.76-1.36v-1.29l-2.25.77v0c-.22,0-.45,0-.67,0a7.41,7.41,0,0,0-2.91.71l-.41-.23.15-.12v-.6l-1.71-.1v2l.56-.44.25.15a3.67,3.67,0,0,0-.64.58l-.52-.18v1.49a2.36,2.36,0,0,0,1.42,1.75,6.65,6.65,0,0,0,3,.82,10.27,10.27,0,0,0,3.68-.6l3.41,1.91a5.26,5.26,0,0,1-1.46.08,6,6,0,0,1-1-.17l.08-.28-2.52.19v1.29a9.11,9.11,0,0,0,3.59.73,7.81,7.81,0,0,0,3.3-.75l1.48.83,1.16-.69v-1.3ZM575,328.55a2.7,2.7,0,0,1-1.06-.29,1.15,1.15,0,0,1-.58-.65.78.78,0,0,1,.2-.76l2.82,1.57A4.24,4.24,0,0,1,575,328.55Zm8.39,2.45-3.18-1.78a4.55,4.55,0,0,1,1.64-.27,2.87,2.87,0,0,1,1.26.33,1.22,1.22,0,0,1,.69.82A1,1,0,0,1,583.42,331Z"/><path class="cls-3" d="M585.59,333.84l-1.5-.84a8.2,8.2,0,0,1-3.28.72,9.22,9.22,0,0,1-3.69-.75l-.16-.06v-1.69l3.11-.24-.11.37a4.18,4.18,0,0,0,.73.11,4.89,4.89,0,0,0,.66,0L578.7,330a10.26,10.26,0,0,1-3.66.58,6.88,6.88,0,0,1-3.09-.85,2.61,2.61,0,0,1-1.55-1.94v-1.55l.35-.2v-2.18L573,324l0,.91a7.63,7.63,0,0,1,2.89-.68h.59l2.58-.88v1.76l-2,1.52-.14-.05a3.77,3.77,0,0,0-1.39-.24l2.43,1.36a11.57,11.57,0,0,1,4-.77,6.46,6.46,0,0,1,3,.82,7.07,7.07,0,0,1,.67.44l1.08.44v1.57l-.09.35a2.28,2.28,0,0,1-.38.81l.78,0V333Zm-1.48-1.4,1.47.82.91-.55v-.88l-1.48.06.45-.45a2.07,2.07,0,0,0,.69-1.29l0-.34V329l-.86-.36a4.31,4.31,0,0,0-.63-.42,5.93,5.93,0,0,0-2.75-.76,11.09,11.09,0,0,0-3.89.78l-.11,0-3.84-2.14.62-.15A4,4,0,0,1,577,326l1.54-1.19V324l-1.64.57.06.13h-.42a4.66,4.66,0,0,0-.65,0,7,7,0,0,0-2.8.69l-.12.06-.86-.48.36-.28v-.24l-1.1.15-.11,1,.28-.22.74.42-.31.23a3.43,3.43,0,0,0-.6.55l-.11.12-.35-.11v1.13c0,.56.48,1.08,1.28,1.53a6.49,6.49,0,0,0,2.87.79,10,10,0,0,0,3.59-.59l.1,0,4.1,2.28-.65.14a5.42,5.42,0,0,1-1.54.09,5.83,5.83,0,0,1-1.07-.18l-.25-.06,0-.19-1.93.15v.89a8.54,8.54,0,0,0,3.34.65,7.6,7.6,0,0,0,3.19-.73Zm-.66-1.14-3.83-2.13.54-.18a4.88,4.88,0,0,1,1.73-.3,3.2,3.2,0,0,1,1.37.37,1.42,1.42,0,0,1,.81,1,1.2,1.2,0,0,1-.49,1.13Zm-2.56-2,2.49,1.39a.66.66,0,0,0,.2-.55,1,1,0,0,0-.56-.64,2.65,2.65,0,0,0-1.15-.3A3.51,3.51,0,0,0,580.89,329.3Zm-5.57-.49H575a2.87,2.87,0,0,1-1.16-.33,1.33,1.33,0,0,1-.7-.79,1,1,0,0,1,.24-1l.14-.16,3.56,2-.62.16A4.81,4.81,0,0,1,575.32,328.81Zm-.27-.51a3.11,3.11,0,0,0,.61,0l-2-1.12a.48.48,0,0,0,0,.36.89.89,0,0,0,.47.5,2.32,2.32,0,0,0,.95.26Z"/><path class="cls-2" d="M582.14,330.33l-3.41-1.9a10.27,10.27,0,0,1-3.68.6,6.78,6.78,0,0,1-3-.82,2.36,2.36,0,0,1-1.42-1.75,2.25,2.25,0,0,1,1.16-1.9l-.81-.45,1.16-.69.81.45a7.2,7.2,0,0,1,5.82-.19L577,325a3.82,3.82,0,0,0-2.26-.15l3.19,1.78a11.62,11.62,0,0,1,4-.8,6.29,6.29,0,0,1,2.86.8,2.7,2.7,0,0,1,1.61,1.91,2.43,2.43,0,0,1-1.19,2.14l1.52.85-1.16.69-1.48-.82a8.12,8.12,0,0,1-3.3.75,9.11,9.11,0,0,1-3.59-.73l1.86-1.37a5.93,5.93,0,0,0,1.61.34A4.86,4.86,0,0,0,582.14,330.33Zm-8.55-4.77a.76.76,0,0,0-.2.75,1.1,1.1,0,0,0,.58.65,2.7,2.7,0,0,0,1.06.3,4.24,4.24,0,0,0,1.38-.13Zm9.83,4.15a1,1,0,0,0,.41-.9,1.22,1.22,0,0,0-.69-.82,2.88,2.88,0,0,0-1.26-.34,4.59,4.59,0,0,0-1.64.28Z"/><path class="cls-4" d="M582.07,330.94,578.65,329a9.78,9.78,0,0,1-3.68.6,6.64,6.64,0,0,1-3-.81,2.08,2.08,0,0,1-.27-3.65l-.37-.57.73-.57.8.45a7.08,7.08,0,0,1,2.91-.71,6.66,6.66,0,0,1,2.73.65L577,325.64a3.83,3.83,0,0,0-2.26-.16l3.18,1.78a11.58,11.58,0,0,1,4-.79,6.28,6.28,0,0,1,2.86.79,2.74,2.74,0,0,1,1.61,1.91,2.46,2.46,0,0,1-1.2,2.15l1.35.93-1,.61L584,332a8.21,8.21,0,0,1-6.61.13l1.59-1.48a5.53,5.53,0,0,0,1.6.35A5.69,5.69,0,0,0,582.07,330.94Zm-8.56-4.78a.83.83,0,0,0-.2.76,1.15,1.15,0,0,0,.59.65,2.7,2.7,0,0,0,1.06.3,4.49,4.49,0,0,0,1.37-.13Zm9.83,4.15a1,1,0,0,0,.41-.9,1.18,1.18,0,0,0-.69-.81,2.67,2.67,0,0,0-1.25-.34,4.6,4.6,0,0,0-1.65.28Z"/><path class="cls-3" d="M585.59,332.54l-1.5-.83a8.2,8.2,0,0,1-3.28.72,9.4,9.4,0,0,1-3.69-.75l-.16-.06v-.4l.71-.42,1.36-1,.13,0a5,5,0,0,0,1.53.33c.23,0,.45,0,.66,0l-2.65-1.48a10.26,10.26,0,0,1-3.66.58,7,7,0,0,1-3.09-.85,2.61,2.61,0,0,1-1.55-1.95,2.25,2.25,0,0,1,1-1.88l-.86-.48,1.66-1,.82.46a7.63,7.63,0,0,1,2.89-.68,8.19,8.19,0,0,1,3.17.42h0v.47l-2,1.52-.14-.05a3.58,3.58,0,0,0-1.39-.24l2.43,1.35a12,12,0,0,1,4-.77,6.6,6.6,0,0,1,3,.83,3,3,0,0,1,1.73,2.1,2.5,2.5,0,0,1-1,2.13l1.33.63v.41Zm-1.48-1.4,1.47.82.76-.45-1.57-.76.29-.23c.81-.65,1.18-1.29,1.1-1.92a2.47,2.47,0,0,0-1.48-1.72,5.93,5.93,0,0,0-2.75-.76,11.27,11.27,0,0,0-3.89.77l-.11,0-3.84-2.14.62-.16a4,4,0,0,1,2.28.12l1.39-1.07a7.54,7.54,0,0,0-2.5-.27,7,7,0,0,0-2.8.69l-.12,0-.79-.44-.67.4.77.43-.31.23a2,2,0,0,0-1.06,1.67,2.14,2.14,0,0,0,1.29,1.55,6.49,6.49,0,0,0,2.87.79,10,10,0,0,0,3.59-.59l.1,0,4.1,2.29-.65.14a5.42,5.42,0,0,1-1.54.09,5.84,5.84,0,0,1-1.55-.31l-1.38,1a8.56,8.56,0,0,0,3.07.55,7.76,7.76,0,0,0,3.19-.73Zm-.66-1.13-3.83-2.14.54-.18a5.08,5.08,0,0,1,1.73-.29,3.2,3.2,0,0,1,1.37.37,1.42,1.42,0,0,1,.81,1,1.2,1.2,0,0,1-.49,1.13Zm-2.56-2,2.49,1.39a.66.66,0,0,0,.2-.55,1,1,0,0,0-.56-.64,2.65,2.65,0,0,0-1.15-.31A4,4,0,0,0,580.89,328Zm-5.57-.49H575a2.87,2.87,0,0,1-1.16-.33,1.38,1.38,0,0,1-.7-.8,1,1,0,0,1,.24-1l.14-.16,3.56,2-.62.15A4.85,4.85,0,0,1,575.32,327.52Zm-1.65-1.63a.46.46,0,0,0,0,.35.86.86,0,0,0,.47.5,2.17,2.17,0,0,0,.95.27,3.12,3.12,0,0,0,.61,0Z"/><polygon class="cls-3" points="580.71 338.02 580.71 341.36 584.44 340.75 588.03 339.69 591.75 337.33 594.04 334.47 594.66 332.55 594.61 329.94 592.85 333.26 589.35 335.65 584.09 337.55 580.71 338.02"/><polygon class="cls-3" points="578.39 338.11 578.39 341.39 576.86 341.27 576.86 337.83 578.39 338.11"/><path class="cls-2" d="M593.73,323.6c-2.18-3.75-8-6.44-14.78-6.44s-12.61,2.69-14.78,6.44h-.94v3.27c0,5.37,7,9.71,15.72,9.71s15.71-4.34,15.71-9.71V323.6Z"/><path class="cls-3" d="M579,336.84c-8.81,0-16-4.47-16-10v-3.52h1c2.34-3.86,8.31-6.44,14.93-6.44s12.59,2.58,14.92,6.44h1v3.52C594.91,332.37,587.75,336.84,579,336.84Zm-15.47-13v3c0,5.22,6.94,9.46,15.47,9.46s15.46-4.24,15.46-9.46v-3h-.83l-.07-.13c-2.19-3.77-8-6.31-14.56-6.31s-12.37,2.54-14.57,6.31l-.07.13Z"/><ellipse class="cls-2" cx="578.95" cy="323.6" rx="15.71" ry="9.71"/><path class="cls-4" d="M594.66,324.37c0,5.36-7,8.62-15.71,8.69-6.54.05-15.72-3.33-15.72-8.69s7-9.71,15.72-9.71S594.66,319,594.66,324.37Z"/><path class="cls-3" d="M579,333.56c-8.81,0-16-4.47-16-10s7.16-10,16-10,16,4.47,16,10S587.75,333.56,579,333.56Zm0-19.42c-8.53,0-15.47,4.24-15.47,9.46s6.94,9.46,15.47,9.46,15.46-4.24,15.46-9.46S587.47,314.14,579,314.14Z"/><ellipse class="cls-2" cx="578.95" cy="323.16" rx="12.55" ry="7.31"/><path class="cls-3" d="M579,330.72c-7.06,0-12.8-3.39-12.8-7.56s5.74-7.56,12.8-7.56,12.8,3.39,12.8,7.56S586,330.72,579,330.72Zm0-14.61c-6.78,0-12.3,3.16-12.3,7.05s5.52,7.06,12.3,7.06,12.3-3.17,12.3-7.06S585.73,316.11,579,316.11Z"/><path class="cls-2" d="M579,315.85c-6.93,0-12.55,3.28-12.55,7.31a4.32,4.32,0,0,0,.15,1.07c.88-3.53,6.09-6.25,12.4-6.25s11.51,2.72,12.4,6.25a4.32,4.32,0,0,0,.15-1.07C591.5,319.13,585.88,315.85,579,315.85Z"/><path class="cls-3" d="M591.2,324.75l-.09-.46c-.87-3.45-6.1-6.06-12.16-6.06s-11.29,2.61-12.16,6.06l-.14.55-.35-.55a4.82,4.82,0,0,1-.15-1.13c0-4.17,5.74-7.56,12.8-7.56s12.8,3.39,12.8,7.56a4.51,4.51,0,0,1-.16,1.13ZM579,316.11c-6.78,0-12.3,3.16-12.3,7.05v0c1.53-3.23,6.47-5.48,12.3-5.48s10.76,2.25,12.3,5.48v0C591.25,319.27,585.73,316.11,579,316.11Z"/><polygon class="cls-14" points="576.86 316.02 576.86 318.08 573.36 318.75 569.92 320.22 567.43 322.4 566.54 324.23 566.4 322.4 567.46 320.22 569.34 318.46 572.46 316.91 576.27 316.02 576.86 316.02"/><path class="cls-2" d="M585.64,326.84a2.23,2.23,0,0,0,.76-1.44h0V324l-.95-.39a4.58,4.58,0,0,0-.67-.44,6.29,6.29,0,0,0-2.86-.8,11.62,11.62,0,0,0-4,.8l-3.19-1.78a3.82,3.82,0,0,1,2.26.15l1.76-1.35v-1.29l-2.25.77v0a5,5,0,0,0-.67,0,7.24,7.24,0,0,0-2.91.71l-.41-.23.15-.12v-.6l-1.71-.1v2l.56-.43.25.14a4.14,4.14,0,0,0-.64.59l-.52-.18V323a2.36,2.36,0,0,0,1.42,1.75,6.82,6.82,0,0,0,3,.82,10.27,10.27,0,0,0,3.68-.6l3.41,1.9a4.84,4.84,0,0,1-1.46.09,6,6,0,0,1-1-.17l.08-.29-2.52.2V328a9.11,9.11,0,0,0,3.59.73,8.12,8.12,0,0,0,3.3-.75l1.48.82,1.16-.69v-1.29ZM575,323.78a2.7,2.7,0,0,1-1.06-.3,1.1,1.1,0,0,1-.58-.65.76.76,0,0,1,.2-.75l2.82,1.57A4.24,4.24,0,0,1,575,323.78Zm8.39,2.45-3.18-1.78a4.59,4.59,0,0,1,1.64-.28,2.84,2.84,0,0,1,1.26.34,1.2,1.2,0,0,1,.69.82A1,1,0,0,1,583.42,326.23Z"/><path class="cls-3" d="M585.59,329.06l-1.5-.83a8.17,8.17,0,0,1-3.28.72,9.26,9.26,0,0,1-3.69-.75l-.16-.06v-1.69l3.11-.24-.11.37a5.4,5.4,0,0,0,.73.11c.23,0,.45,0,.66,0l-2.65-1.48a10.26,10.26,0,0,1-3.66.58A7,7,0,0,1,572,325,2.61,2.61,0,0,1,570.4,323v-1.54l.35-.2v-2.18l2.21.12,0,.91a7.63,7.63,0,0,1,2.89-.68,5.76,5.76,0,0,1,.59,0l2.58-.89v1.77l-2,1.52-.13,0a3.86,3.86,0,0,0-1.4-.24L578,322.9a12.08,12.08,0,0,1,4-.77,6.6,6.6,0,0,1,3,.83,5.54,5.54,0,0,1,.67.44l1.08.44v1.57l-.08.35a2.37,2.37,0,0,1-.39.8l.78,0v1.7Zm-1.48-1.4,1.47.82.91-.54v-.89l-1.48.07.45-.45a2.07,2.07,0,0,0,.69-1.29l0-.34v-.86l-.86-.36a3.83,3.83,0,0,0-.63-.42,5.93,5.93,0,0,0-2.75-.76,11.09,11.09,0,0,0-3.89.78l-.11,0-3.84-2.14.62-.16a4,4,0,0,1,2.28.12l1.55-1.2v-.81l-1.65.56.06.14h-.42a4.66,4.66,0,0,0-.65,0,7,7,0,0,0-2.8.69l-.12.05-.86-.47.36-.28v-.25l-1.1.16-.11,1,.28-.22.75.42-.32.23a3.81,3.81,0,0,0-.6.54l-.11.13-.35-.12V323c0,.56.48,1.08,1.29,1.53a6.42,6.42,0,0,0,2.86.79,10,10,0,0,0,3.59-.59l.1,0,4.1,2.29-.65.14a5.42,5.42,0,0,1-1.54.09,5.83,5.83,0,0,1-1.07-.18l-.25-.07,0-.18-1.93.15v.89a8.54,8.54,0,0,0,3.34.65,7.72,7.72,0,0,0,3.19-.73Zm-.66-1.13-3.83-2.14.54-.18a5.08,5.08,0,0,1,1.73-.29,3.16,3.16,0,0,1,1.37.37,1.42,1.42,0,0,1,.81,1,1.2,1.2,0,0,1-.49,1.13Zm-2.56-2,2.49,1.39a.66.66,0,0,0,.2-.55,1,1,0,0,0-.56-.64,2.65,2.65,0,0,0-1.15-.31A4,4,0,0,0,580.89,324.53Zm-5.57-.49H575a2.87,2.87,0,0,1-1.16-.33,1.35,1.35,0,0,1-.7-.8,1,1,0,0,1,.24-1l.14-.16,3.56,2-.62.15A4.85,4.85,0,0,1,575.32,324Zm-.27-.51a4.16,4.16,0,0,0,.61,0l-2-1.11a.46.46,0,0,0,0,.35.9.9,0,0,0,.47.5,2.17,2.17,0,0,0,.95.27Z"/><path class="cls-2" d="M582.14,325.56l-3.41-1.9a10.27,10.27,0,0,1-3.68.6,6.82,6.82,0,0,1-3-.82,2.36,2.36,0,0,1-1.42-1.75,2.23,2.23,0,0,1,1.16-1.9l-.81-.45,1.16-.69.81.45a7.2,7.2,0,0,1,5.82-.19L577,320.26a3.82,3.82,0,0,0-2.26-.15l3.19,1.78a11.62,11.62,0,0,1,4-.8,6.17,6.17,0,0,1,2.86.8,2.7,2.7,0,0,1,1.61,1.91,2.43,2.43,0,0,1-1.19,2.14l1.52.85-1.16.69-1.48-.83a8,8,0,0,1-3.3.76,9.29,9.29,0,0,1-3.59-.73l1.86-1.37a5.93,5.93,0,0,0,1.61.34A5.18,5.18,0,0,0,582.14,325.56Zm-8.55-4.78a.78.78,0,0,0-.2.76,1.1,1.1,0,0,0,.58.65,2.7,2.7,0,0,0,1.06.3,4.53,4.53,0,0,0,1.38-.13Zm9.83,4.15a1,1,0,0,0,.41-.89,1.2,1.2,0,0,0-.69-.82,2.84,2.84,0,0,0-1.26-.34,4.59,4.59,0,0,0-1.64.28Z"/><path class="cls-4" d="M582.07,326.17l-3.42-1.91a9.78,9.78,0,0,1-3.68.6,6.52,6.52,0,0,1-3-.82,2.07,2.07,0,0,1-.26-3.64l-.38-.57.73-.57.8.45a7.25,7.25,0,0,1,2.91-.72,6.84,6.84,0,0,1,2.69.64,0,0,0,0,1,0,.05L577,320.87a3.75,3.75,0,0,0-2.26-.16l3.18,1.78a11.58,11.58,0,0,1,4-.79,6.28,6.28,0,0,1,2.86.79,2.74,2.74,0,0,1,1.61,1.91,2.46,2.46,0,0,1-1.2,2.15l1.35.93-1,.61-1.48-.83a7.81,7.81,0,0,1-3.3.75,7.45,7.45,0,0,1-3.27-.68l1.54-1.42a5.51,5.51,0,0,0,1.6.34A5.31,5.31,0,0,0,582.07,326.17Zm-8.56-4.78a.83.83,0,0,0-.2.76,1.15,1.15,0,0,0,.59.65,2.54,2.54,0,0,0,1.06.29,4.15,4.15,0,0,0,1.37-.12Zm9.83,4.15a1,1,0,0,0,.41-.9,1.22,1.22,0,0,0-.69-.82,2.79,2.79,0,0,0-1.25-.33,4.64,4.64,0,0,0-1.65.28Z"/><path class="cls-3" d="M585.59,327.77l-1.5-.83a8.34,8.34,0,0,1-3.28.72,9.62,9.62,0,0,1-3.69-.75l-.16-.06v-.4l.71-.42,1.36-1,.13.05a5.73,5.73,0,0,0,1.53.33h.66l-2.65-1.48a10.26,10.26,0,0,1-3.66.58,7,7,0,0,1-3.09-.85,2.62,2.62,0,0,1-1.55-2,2.25,2.25,0,0,1,1-1.88l-.86-.48,1.66-1,.82.46a7.27,7.27,0,0,1,2.89-.68,8.37,8.37,0,0,1,3.17.41h0V319l-2,1.52-.13-.05a3.67,3.67,0,0,0-1.4-.25l2.43,1.36a11.53,11.53,0,0,1,4-.77,6.6,6.6,0,0,1,3,.83,2.94,2.94,0,0,1,1.73,2.1,2.48,2.48,0,0,1-1,2.13l1.33.63v.4Zm-1.48-1.4,1.47.82.76-.45-1.57-.76.29-.24c.81-.64,1.18-1.28,1.1-1.91a2.45,2.45,0,0,0-1.48-1.72,6.07,6.07,0,0,0-2.75-.77,11.57,11.57,0,0,0-3.89.78l-.11,0L574.09,320l.62-.15A4,4,0,0,1,577,320l1.39-1.07a7.54,7.54,0,0,0-2.5-.27,7,7,0,0,0-2.8.69l-.12.05-.79-.44-.66.39.77.43L572,320a2,2,0,0,0-1.06,1.67c.05.58.49,1.1,1.3,1.55a6.55,6.55,0,0,0,2.86.79,10,10,0,0,0,3.59-.59l.1,0,4.1,2.29-.65.14a5.42,5.42,0,0,1-1.54.09,6.27,6.27,0,0,1-1.55-.31l-1.38,1a8.56,8.56,0,0,0,3.07.55,7.72,7.72,0,0,0,3.19-.73Zm-.66-1.13-3.83-2.14.54-.18a5.08,5.08,0,0,1,1.73-.29,3.07,3.07,0,0,1,1.37.37,1.42,1.42,0,0,1,.81,1,1.19,1.19,0,0,1-.49,1.12Zm-2.56-2,2.49,1.38a.65.65,0,0,0,.2-.54,1,1,0,0,0-.56-.64,2.52,2.52,0,0,0-1.15-.31A3.54,3.54,0,0,0,580.89,323.24Zm-5.57-.49H575a2.87,2.87,0,0,1-1.16-.33,1.38,1.38,0,0,1-.7-.8,1.05,1.05,0,0,1,.24-1l.14-.16,3.56,2-.62.15A4.85,4.85,0,0,1,575.32,322.75Zm-1.65-1.63a.46.46,0,0,0,0,.35.9.9,0,0,0,.47.5,2.32,2.32,0,0,0,.95.27,4.16,4.16,0,0,0,.61,0Z"/><polygon class="cls-3" points="580.71 333.25 580.71 336.58 584.44 335.97 588.03 334.92 591.75 332.56 594.04 329.7 594.66 327.77 594.61 325.17 592.86 328.49 589.35 330.88 584.09 332.78 580.71 333.25"/><polygon class="cls-3" points="578.39 333.34 578.39 336.61 576.86 336.5 576.86 333.06 578.39 333.34"/><path class="cls-2" d="M625.42,340.16c-2.18-3.75-8-6.44-14.78-6.44s-12.61,2.69-14.78,6.44h-.94v3.27c0,5.37,7,9.72,15.72,9.72s15.71-4.35,15.71-9.72v-3.27Z"/><path class="cls-3" d="M610.64,353.4c-8.81,0-16-4.47-16-10v-3.52h1c2.34-3.86,8.31-6.44,14.93-6.44s12.59,2.58,14.92,6.44h1v3.52C626.6,348.93,619.44,353.4,610.64,353.4Zm-15.47-13v3c0,5.22,6.94,9.46,15.47,9.46s15.46-4.24,15.46-9.46v-3h-.83l-.07-.12c-2.19-3.78-8-6.32-14.56-6.32s-12.37,2.54-14.57,6.32l-.07.12Z"/><path class="cls-2" d="M626.35,340.16c0,5.36-7,9.71-15.71,9.71s-15.72-4.35-15.72-9.71,7-9.71,15.72-9.71S626.35,334.79,626.35,340.16Z"/><path class="cls-4" d="M626.35,340.93c0,5.36-6.36,8.69-15,8.69s-16.39-3.33-16.39-8.69,7-9.71,15.72-9.71S626.35,335.57,626.35,340.93Z"/><path class="cls-3" d="M610.64,350.12c-8.81,0-16-4.47-16-10s7.16-10,16-10,16,4.46,16,10S619.44,350.12,610.64,350.12Zm0-19.42c-8.53,0-15.47,4.24-15.47,9.46s6.94,9.46,15.47,9.46,15.46-4.24,15.46-9.46S619.16,330.7,610.64,330.7Z"/><path class="cls-2" d="M623.19,339.72c0,4-5.62,7.31-12.55,7.31s-12.55-3.27-12.55-7.31,5.62-7.3,12.55-7.3S623.19,335.69,623.19,339.72Z"/><path class="cls-3" d="M610.64,347.28c-7.06,0-12.8-3.39-12.8-7.56s5.74-7.56,12.8-7.56,12.8,3.39,12.8,7.56S617.7,347.28,610.64,347.28Zm0-14.61c-6.78,0-12.3,3.16-12.3,7.05s5.52,7.06,12.3,7.06,12.3-3.17,12.3-7.06S617.42,332.67,610.64,332.67Z"/><path class="cls-2" d="M610.64,332.42c-6.93,0-12.55,3.27-12.55,7.3a4.32,4.32,0,0,0,.15,1.07c.88-3.53,6.09-6.25,12.4-6.25s11.51,2.72,12.4,6.25a4.32,4.32,0,0,0,.15-1.07C623.19,335.69,617.57,332.42,610.64,332.42Z"/><path class="cls-3" d="M622.89,341.31l-.09-.46c-.87-3.45-6.1-6.06-12.16-6.06s-11.29,2.61-12.16,6.06l-.14.56-.35-.56a4.82,4.82,0,0,1-.15-1.13c0-4.17,5.74-7.56,12.8-7.56s12.8,3.39,12.8,7.56a4.45,4.45,0,0,1-.16,1.13Zm-12.25-8.64c-6.78,0-12.3,3.16-12.3,7.05v0c1.53-3.23,6.47-5.48,12.3-5.48s10.76,2.25,12.3,5.48v0C622.94,335.83,617.42,332.67,610.64,332.67Z"/><polygon class="cls-14" points="608.55 332.58 608.55 334.64 605.05 335.31 601.61 336.79 599.12 338.96 598.24 340.79 598.09 338.96 599.14 336.79 601.03 335.02 604.14 333.47 607.96 332.58 608.55 332.58"/><path class="cls-2" d="M617.33,343.4a2.23,2.23,0,0,0,.76-1.44h0v-1.4l-1-.39a4.58,4.58,0,0,0-.67-.44,6.16,6.16,0,0,0-2.86-.79,11.34,11.34,0,0,0-4,.79L606.46,338a3.82,3.82,0,0,1,2.26.15l1.76-1.35v-1.29l-2.25.77v0a5,5,0,0,0-.67,0,7.41,7.41,0,0,0-2.91.71l-.41-.23.15-.12V336l-1.71-.1v2l.56-.43.25.15a3.67,3.67,0,0,0-.64.58l-.52-.18v1.49a2.36,2.36,0,0,0,1.42,1.75,6.69,6.69,0,0,0,3,.82,10.27,10.27,0,0,0,3.68-.6l3.41,1.91a5.21,5.21,0,0,1-1.46.08,6,6,0,0,1-1-.17l.08-.29-2.52.2v1.29a9.11,9.11,0,0,0,3.59.73,8.12,8.12,0,0,0,3.3-.75l1.48.83,1.16-.7v-1.29Zm-10.61-3.06a2.54,2.54,0,0,1-1.06-.3,1.1,1.1,0,0,1-.58-.65.77.77,0,0,1,.2-.75l2.82,1.57A4.24,4.24,0,0,1,606.72,340.34Zm8.39,2.45L611.93,341a4.82,4.82,0,0,1,1.64-.28,3,3,0,0,1,1.26.34,1.2,1.2,0,0,1,.69.82A1,1,0,0,1,615.11,342.79Z"/><path class="cls-3" d="M617.28,345.63l-1.5-.84a8.17,8.17,0,0,1-3.28.72,9.26,9.26,0,0,1-3.69-.75l-.16-.06V343l3.11-.24-.11.37a4.18,4.18,0,0,0,.73.11c.23,0,.45,0,.66,0l-2.65-1.48a10.26,10.26,0,0,1-3.66.58,7,7,0,0,1-3.09-.85,2.61,2.61,0,0,1-1.55-1.95V338l.35-.2v-2.18l2.21.12,0,.91a7.63,7.63,0,0,1,2.89-.68,5.76,5.76,0,0,1,.59,0l2.58-.89v1.77l-2,1.52-.13,0a3.86,3.86,0,0,0-1.4-.24l2.43,1.35a12.08,12.08,0,0,1,4-.77,6.6,6.6,0,0,1,3,.83,5.54,5.54,0,0,1,.67.44l1.08.44V342l-.08.35a2.51,2.51,0,0,1-.39.81l.78,0v1.7Zm-1.48-1.4,1.47.82.91-.55v-.88l-1.48.06.45-.45a2.07,2.07,0,0,0,.69-1.29l0-.34v-.86l-.86-.36a3.83,3.83,0,0,0-.63-.42,5.93,5.93,0,0,0-2.75-.76,11.09,11.09,0,0,0-3.89.78l-.11,0-3.84-2.14.62-.16a4,4,0,0,1,2.28.12l1.55-1.2v-.81l-1.65.56.06.14h-.42a4.66,4.66,0,0,0-.65,0,7,7,0,0,0-2.8.69l-.12.06-.86-.48.36-.28v-.24l-1.1.15-.11,1,.28-.22.75.42-.32.23a3.43,3.43,0,0,0-.6.55l-.11.12-.35-.12v1.14c0,.56.48,1.08,1.29,1.53a6.42,6.42,0,0,0,2.86.79,10,10,0,0,0,3.59-.59l.1,0,4.1,2.28-.65.14a5.42,5.42,0,0,1-1.54.09,5.83,5.83,0,0,1-1.07-.18l-.25-.06.05-.19-1.93.15v.89a8.54,8.54,0,0,0,3.34.65,7.72,7.72,0,0,0,3.19-.73Zm-.66-1.14L611.31,341l.54-.18a5.08,5.08,0,0,1,1.73-.29,3.16,3.16,0,0,1,1.37.37,1.42,1.42,0,0,1,.81,1,1.2,1.2,0,0,1-.49,1.13Zm-2.56-2,2.49,1.39a.66.66,0,0,0,.2-.55,1,1,0,0,0-.56-.64,2.65,2.65,0,0,0-1.15-.31A4,4,0,0,0,612.58,341.09ZM607,340.6h-.31a2.87,2.87,0,0,1-1.16-.33,1.35,1.35,0,0,1-.7-.8,1,1,0,0,1,.24-1l.14-.16,3.56,2-.62.16A5.38,5.38,0,0,1,607,340.6Zm-.27-.51a3.12,3.12,0,0,0,.61,0l-2-1.11a.48.48,0,0,0,0,.36.93.93,0,0,0,.47.5,2.32,2.32,0,0,0,1,.26Z"/><path class="cls-2" d="M613.83,342.12l-3.41-1.9a10.27,10.27,0,0,1-3.68.6,6.82,6.82,0,0,1-3-.82,2.36,2.36,0,0,1-1.42-1.75,2.23,2.23,0,0,1,1.16-1.9l-.81-.45,1.16-.69.81.45a7.2,7.2,0,0,1,5.82-.19l-1.76,1.35a3.82,3.82,0,0,0-2.26-.15l3.19,1.78a11.62,11.62,0,0,1,4-.8,6.29,6.29,0,0,1,2.86.8,2.7,2.7,0,0,1,1.61,1.91,2.43,2.43,0,0,1-1.19,2.14l1.52.85-1.16.69-1.48-.82a8.12,8.12,0,0,1-3.3.75,9.29,9.29,0,0,1-3.59-.73l1.86-1.37a5.93,5.93,0,0,0,1.61.34A5.18,5.18,0,0,0,613.83,342.12Zm-8.55-4.77a.76.76,0,0,0-.2.75,1.1,1.1,0,0,0,.58.65,2.7,2.7,0,0,0,1.06.3,4.53,4.53,0,0,0,1.38-.13Zm9.83,4.15a1,1,0,0,0,.41-.9,1.2,1.2,0,0,0-.69-.82,2.84,2.84,0,0,0-1.26-.34,4.59,4.59,0,0,0-1.64.28Z"/><path class="cls-4" d="M613.76,342.73l-3.42-1.91a9.76,9.76,0,0,1-3.67.6,6.64,6.64,0,0,1-3-.81,2.08,2.08,0,0,1-.26-3.65l-.38-.57.73-.57.8.45a7.25,7.25,0,0,1,2.91-.72,6.77,6.77,0,0,1,2.71.65l-1.55,1.23a3.75,3.75,0,0,0-2.26-.16l3.18,1.78a11.58,11.58,0,0,1,4-.79,6.28,6.28,0,0,1,2.86.79A2.74,2.74,0,0,1,618,341a2.46,2.46,0,0,1-1.2,2.15l1.35.93-1,.61-1.48-.83a7.81,7.81,0,0,1-3.3.75,7.58,7.58,0,0,1-3.27-.67l1.54-1.43a5.51,5.51,0,0,0,1.6.34A5.31,5.31,0,0,0,613.76,342.73ZM605.2,338a.83.83,0,0,0-.2.76,1.15,1.15,0,0,0,.59.65,2.54,2.54,0,0,0,1.06.29,4.15,4.15,0,0,0,1.37-.12ZM615,342.1a1,1,0,0,0,.41-.9,1.18,1.18,0,0,0-.69-.81,2.67,2.67,0,0,0-1.25-.34,4.64,4.64,0,0,0-1.65.28Z"/><path class="cls-3" d="M617.28,344.33l-1.5-.83a8.34,8.34,0,0,1-3.28.72,9.62,9.62,0,0,1-3.69-.75l-.16-.06V343l.71-.42,1.36-1,.13.05a5.73,5.73,0,0,0,1.53.33c.23,0,.45,0,.66,0l-2.65-1.48a10.26,10.26,0,0,1-3.66.58,7,7,0,0,1-3.09-.85,2.61,2.61,0,0,1-1.55-2,2.25,2.25,0,0,1,1-1.88l-.86-.48,1.66-1,.82.46a7.45,7.45,0,0,1,2.89-.68,8.37,8.37,0,0,1,3.17.41h0v.48l-2,1.52-.13-.05a3.67,3.67,0,0,0-1.4-.25l2.43,1.36a11.53,11.53,0,0,1,4-.77,6.6,6.6,0,0,1,3,.83,3,3,0,0,1,1.73,2.1,2.48,2.48,0,0,1-1,2.13l1.33.63v.41Zm-1.48-1.4,1.47.82.76-.45-1.57-.76.29-.24c.81-.64,1.18-1.28,1.1-1.91a2.45,2.45,0,0,0-1.48-1.72,6.07,6.07,0,0,0-2.75-.77,11.57,11.57,0,0,0-3.89.78l-.11,0-3.84-2.15.62-.15a4,4,0,0,1,2.28.12l1.39-1.07a7.54,7.54,0,0,0-2.5-.27,7,7,0,0,0-2.8.69l-.12.05-.79-.44-.66.4.77.43-.32.23a2,2,0,0,0-1.06,1.67c0,.58.49,1.1,1.3,1.55a6.55,6.55,0,0,0,2.86.79,10,10,0,0,0,3.59-.59l.1,0,4.1,2.29-.65.14a5.42,5.42,0,0,1-1.54.09,6.27,6.27,0,0,1-1.55-.31l-1.38,1a8.56,8.56,0,0,0,3.07.55,7.72,7.72,0,0,0,3.19-.73Zm-.66-1.13-3.83-2.14.54-.18a5.08,5.08,0,0,1,1.73-.29,3.07,3.07,0,0,1,1.37.37,1.42,1.42,0,0,1,.81,1,1.2,1.2,0,0,1-.49,1.13Zm-2.56-2,2.49,1.39a.68.68,0,0,0,.2-.55,1,1,0,0,0-.56-.64,2.65,2.65,0,0,0-1.15-.31A3.54,3.54,0,0,0,612.58,339.8Zm-5.57-.49h-.31a2.87,2.87,0,0,1-1.16-.33,1.38,1.38,0,0,1-.7-.8,1.05,1.05,0,0,1,.24-1l.14-.16,3.56,2-.62.15A4.85,4.85,0,0,1,607,339.31Zm-1.65-1.63a.46.46,0,0,0,0,.35.9.9,0,0,0,.47.5,2.32,2.32,0,0,0,1,.27,4.16,4.16,0,0,0,.61,0Z"/><polygon class="cls-3" points="612.4 349.81 612.4 353.14 616.13 352.54 619.72 351.48 623.44 349.12 625.73 346.26 626.35 344.33 626.3 341.73 624.54 345.05 621.04 347.44 615.78 349.34 612.4 349.81"/><polygon class="cls-3" points="610.08 349.9 610.08 353.18 608.55 353.06 608.55 349.62 610.08 349.9"/></g></g></svg>