<?xml version="1.0" encoding="utf-8"?>
<!-- Generator: Adobe Illustrator 23.0.5, SVG Export Plug-In . SVG Version: 6.00 Build 0)  -->
<svg version="1.1" xmlns="http://www.w3.org/2000/svg" xmlns:xlink="http://www.w3.org/1999/xlink" x="0px" y="0px"
	 viewBox="0 0 3105.1 3052.1" style="enable-background:new 0 0 3105.1 3052.1;" xml:space="preserve">
<style type="text/css">
	.st0{fill:url(#SVGID_1_);}
	.st1{fill:#91B3FA;}
	.st2{fill:#BDD0FB;}
	.st3{fill:url(#SVGID_2_);}
	.st4{fill:url(#SVGID_3_);}
	.st5{fill:url(#SVGID_4_);}
	.st6{fill:#7D97F4;}
	.st7{fill:#FFFFFF;}
	.st8{fill:url(#SVGID_5_);}
	.st9{fill:url(#SVGID_6_);}
	.st10{fill:url(#SVGID_7_);}
	.st11{fill:url(#SVGID_8_);}
	.st12{fill:url(#SVGID_9_);}
	.st13{fill:url(#SVGID_10_);}
	.st14{fill:url(#SVGID_11_);}
	.st15{opacity:0.78;fill:#FFFFFF;}
	.st16{fill:url(#SVGID_12_);}
	.st17{fill:url(#SVGID_13_);}
	.st18{fill:url(#SVGID_14_);}
	.st19{fill:url(#SVGID_15_);}
	.st20{fill:url(#SVGID_16_);}
	.st21{fill:url(#SVGID_17_);}
	.st22{fill:url(#SVGID_18_);}
	.st23{fill:url(#SVGID_19_);}
	.st24{fill:url(#SVGID_20_);}
	.st25{fill:url(#SVGID_21_);}
	.st26{fill:url(#SVGID_22_);}
	.st27{fill:url(#SVGID_23_);}
	.st28{fill:url(#SVGID_24_);}
	.st29{fill:url(#SVGID_25_);}
	.st30{fill:url(#SVGID_26_);}
	.st31{fill:url(#SVGID_27_);}
	.st32{fill:url(#SVGID_28_);}
	.st33{fill:url(#SVGID_29_);}
	.st34{fill:url(#SVGID_30_);}
	.st35{fill:url(#SVGID_31_);}
	.st36{fill:url(#SVGID_32_);}
	.st37{fill:url(#SVGID_33_);}
	.st38{fill:url(#SVGID_34_);}
	.st39{fill:url(#SVGID_35_);}
	.st40{fill:url(#SVGID_36_);}
	.st41{fill:#F8A570;}
	.st42{fill:url(#SVGID_37_);}
	.st43{fill:url(#SVGID_38_);}
	.st44{fill:url(#SVGID_39_);}
</style>
<g id="Background">
</g>
<g id="Illustration">
	<g>
		<linearGradient id="SVGID_1_" gradientUnits="userSpaceOnUse" x1="3277.1821" y1="3731.3721" x2="826.0566" y2="687.228">
			<stop  offset="0" style="stop-color:#DAE3FE"/>
			<stop  offset="1" style="stop-color:#E9EFFD"/>
		</linearGradient>
		<path class="st0" d="M2602.9,2530.9c-56.3,59.3-109.6,97.5-151.7,127.7c-494.7,355-1080.2,251.5-1204.6,226.2
			c-183.7-37.3-538.9-109.4-795.6-411.4C62.5,2016.6,123,1296.9,424.3,821.8c55.1-86.9,346.2-569.2,938-646.6
			c358.1-46.8,775.5,47.6,1077.8,300.9C3074.7,1007.7,3029.5,2081.7,2602.9,2530.9z"/>
		<g>
			<g>
				<g>
					<path class="st1" d="M961.9,343.5c-1.2,0.1-2.4-0.4-3.2-1.4c-3-3.8-6-7.6-9.2-11.3c-1.3-1.5-1.1-3.9,0.4-5.2
						c1.5-1.3,3.9-1.1,5.2,0.4c3.2,3.7,6.4,7.6,9.4,11.5c1.2,1.6,0.9,3.9-0.7,5.2C963.3,343.2,962.6,343.5,961.9,343.5z"/>
					<path class="st1" d="M739,841.3c-5.5,0.5-11.3,0.6-16.9,0.7c-2,0-3.7-1.6-3.7-3.6c0-2,1.6-3.6,3.6-3.7
						c5.5-0.1,11.1-0.3,16.5-0.7c4-0.3,8.1-0.6,12.1-1.1c2-0.4,3.8,1.2,4.1,3.2c0.2,2-1.2,3.8-3.2,4.1
						C747.2,840.7,743.1,841.1,739,841.3z M797.5,831.5c-1.7,0.1-3.3-1-3.8-2.7c-0.5-2,0.6-4,2.6-4.5c8.9-2.4,17.8-5.2,26.5-8.4
						l0.8-0.3c1.9-0.7,4,0.3,4.7,2.2c0.7,1.9-0.3,4-2.2,4.7l-0.8,0.3c-8.9,3.3-18,6.2-27.2,8.6C797.9,831.5,797.7,831.5,797.5,831.5
						z M867.8,803.1c-1.4,0.1-2.8-0.6-3.5-1.9c-1-1.8-0.3-4,1.4-5c8.3-4.6,16.5-9.7,24.3-15c1.7-1.1,4-0.7,5.1,1
						c1.1,1.7,0.7,4-1,5.1c-8,5.5-16.4,10.7-24.9,15.4C868.9,802.9,868.3,803,867.8,803.1z M929.1,758.4c-1.1,0.1-2.1-0.3-2.9-1.1
						c-1.4-1.5-1.3-3.8,0.2-5.2c6.9-6.5,13.6-13.4,19.9-20.5c1.3-1.5,3.7-1.7,5.2-0.3c1.5,1.3,1.7,3.7,0.3,5.2
						c-6.4,7.3-13.3,14.4-20.4,21C930.7,758,929.9,758.3,929.1,758.4z M977.6,700c-0.8,0.1-1.5-0.1-2.2-0.6
						c-1.7-1.1-2.2-3.4-1.1-5.1c5.1-8,9.9-16.3,14.3-24.8c0.9-1.8,3.1-2.5,4.9-1.6c1.8,0.9,2.5,3.1,1.6,4.9
						c-4.5,8.7-9.4,17.2-14.7,25.4C979.8,699.4,978.7,700,977.6,700z M1010.5,631.6c-0.5,0-1,0-1.4-0.2c-1.9-0.6-3-2.7-2.3-4.7
						c3-9,5.7-18.3,7.9-27.5c0.5-2,2.5-3.2,4.4-2.7c2,0.5,3.2,2.4,2.7,4.4c-2.2,9.5-5,18.9-8.1,28.2
						C1013.2,630.6,1011.9,631.5,1010.5,631.6z M1025.8,557.3c-0.2,0-0.4,0-0.5,0c-2-0.2-3.5-1.9-3.4-4c0.8-9.5,1.1-19.1,0.9-28.6
						c0-2,1.6-3.8,3.6-3.7c2,0,3.7,1.6,3.7,3.6c0.1,9.7-0.2,19.6-0.9,29.3C1029,555.8,1027.5,557.2,1025.8,557.3z M1022.4,481.5
						c-1.9,0.1-3.5-1.2-3.9-3c-1.6-9.4-3.7-18.8-6.1-28c-0.5-2,0.6-4,2.6-4.5c2-0.5,4,0.6,4.5,2.6c2.5,9.4,4.6,19,6.3,28.6
						c0.3,2-1,3.9-3,4.2C1022.6,481.5,1022.5,481.5,1022.4,481.5z M1000.6,408.8c-1.5,0.1-3-0.7-3.6-2.2
						c-3.8-8.7-8.1-17.4-12.7-25.7c-1-1.8-0.3-4,1.4-5c1.8-1,4-0.3,5,1.4c4.7,8.5,9.1,17.3,13,26.3c0.8,1.9,0,4-1.9,4.8
						C1001.4,408.7,1001,408.7,1000.6,408.8z"/>
					<path class="st1" d="M675.2,839.1c-0.3,0-0.5,0-0.8,0c-4.9-0.7-9.8-1.5-14.7-2.4c-2-0.4-3.3-2.3-2.9-4.3c0.4-2,2.3-3.3,4.3-2.9
						c4.7,0.9,9.6,1.7,14.3,2.3c2,0.3,3.4,2.1,3.1,4.1C678.3,837.7,676.9,839,675.2,839.1z"/>
				</g>
				<g>
					<path class="st1" d="M466.4,713.2c-1.2,0.1-2.5-0.4-3.2-1.5c-2.9-4-5.7-8.1-8.4-12.3c-1.1-1.7-0.6-4,1.1-5.1
						c1.7-1.1,4-0.6,5.1,1.1c2.6,4.1,5.4,8.1,8.2,12c1.2,1.6,0.8,3.9-0.8,5.1C467.7,712.9,467.1,713.1,466.4,713.2z"/>
					<path class="st1" d="M436,660.4c-1.5,0.1-3-0.7-3.6-2.2c-3.1-6.8-6-13.9-8.6-21c-0.7-1.9-1.4-3.9-2.1-5.8
						c-0.7-1.9,0.4-4,2.3-4.7c1.9-0.7,4,0.4,4.7,2.3c0.7,1.9,1.3,3.8,2,5.7c2.5,6.9,5.4,13.8,8.4,20.5c0.8,1.8,0,4-1.8,4.9
						C436.9,660.3,436.4,660.4,436,660.4z M413.6,589.2c-1.8,0.1-3.5-1.1-3.9-3c-1.8-9.4-3.1-19-4-28.6c-0.2-2,1.3-3.8,3.3-4
						c1.9-0.2,3.8,1.3,4,3.3c0.9,9.3,2.2,18.7,3.9,27.9c0.4,2-0.9,3.9-2.9,4.3C413.9,589.1,413.8,589.1,413.6,589.2z M409,514.6
						c-0.2,0-0.3,0-0.5,0c-2-0.1-3.6-1.9-3.4-3.9c0.6-9.6,1.6-19.2,3.1-28.7c0.3-2,2.2-3.4,4.2-3.1c2,0.3,3.4,2.2,3.1,4.2
						c-1.4,9.2-2.4,18.7-3,28C412.3,513,410.8,514.5,409,514.6z M422.5,441.2c-0.4,0-0.9,0-1.3-0.2c-1.9-0.6-3-2.7-2.4-4.6
						c2.9-9.1,6.2-18.3,9.8-27.1c0.8-1.9,2.9-2.8,4.8-2c1.9,0.8,2.8,2.9,2,4.8c-3.6,8.6-6.8,17.5-9.6,26.5
						C425.2,440.1,423.9,441.1,422.5,441.2z M453.1,373.1c-0.7,0.1-1.5-0.1-2.1-0.5c-1.7-1-2.3-3.3-1.2-5c4.9-8.2,10.3-16.3,16-24
						c1.2-1.6,3.5-2,5.1-0.8c1.6,1.2,2,3.5,0.8,5.1c-5.5,7.5-10.8,15.4-15.6,23.4C455.3,372.4,454.2,373,453.1,373.1z M499.1,314.3
						c-1,0.1-2.1-0.3-2.9-1.1c-1.4-1.4-1.4-3.8,0-5.2c6.8-6.8,13.9-13.3,21.3-19.4c1.6-1.3,3.9-1.1,5.2,0.5c1.3,1.6,1.1,3.9-0.5,5.2
						c-7.2,6-14.2,12.4-20.8,19C500.8,313.9,499.9,314.2,499.1,314.3z M557.9,268.3c-1.3,0.1-2.7-0.5-3.4-1.8c-1-1.7-0.5-4,1.3-5
						c8.2-4.9,16.7-9.5,25.4-13.7c1.8-0.9,4-0.1,4.9,1.7c0.9,1.8,0.1,4-1.7,4.9c-8.4,4.1-16.8,8.6-24.8,13.4
						C559,268.1,558.4,268.3,557.9,268.3z M626,237.8c-1.7,0.1-3.2-0.9-3.8-2.6c-0.6-1.9,0.5-4,2.4-4.6c9.1-2.8,18.5-5.3,27.9-7.3
						c2-0.4,3.9,0.8,4.4,2.8c0.4,2-0.8,3.9-2.8,4.4c-9.1,2-18.3,4.3-27.3,7.1C626.6,237.7,626.3,237.8,626,237.8z M728,224
						c-0.1,0-0.3,0-0.4,0c-9.4-0.3-18.8-0.2-28.2,0.4c-2,0.1-3.8-1.4-3.9-3.4c-0.1-2,1.4-3.7,3.4-3.9c0,0,0,0,0,0
						c9.6-0.6,19.3-0.7,28.9-0.4c2,0.1,3.6,1.8,3.5,3.8C731.3,222.4,729.8,223.9,728,224z"/>
					<path class="st1" d="M788.5,232.1c-0.4,0-0.7,0-1.1-0.1c-4.7-1.1-9.4-2.1-14.2-3c-2-0.4-3.3-2.3-2.9-4.3c0.4-2,2.3-3.3,4.3-2.9
						c4.9,0.9,9.8,1.9,14.5,3.1c2,0.5,3.2,2.4,2.7,4.4C791.4,230.9,790.1,232,788.5,232.1z"/>
				</g>
				<g>
					<path class="st1" d="M800.5,306.9c-1.4-0.7-3.1-0.4-4.3,0.7L764,339.1c-20.5-4.9-41.9-6.6-63.5-4.6L673,298.7
						c-1-1.3-2.6-1.8-4.1-1.3l-51.4,17.1c-1.5,0.5-2.5,1.9-2.5,3.5l-0.5,45.1c-18.5,11.4-34.7,25.5-48.2,41.7l-44.7-6
						c-1.6-0.2-3.1,0.6-3.8,2l-24.3,48.4c-0.7,1.4-0.4,3.1,0.7,4.3l31.6,32.3c-4.9,20.5-6.6,41.9-4.6,63.5l-35.8,27.4
						c-1.3,1-1.8,2.6-1.3,4.1l17.1,51.4c0.5,1.5,1.9,2.5,3.5,2.5l45.1,0.5c11.4,18.5,25.5,34.7,41.7,48.2l-6,44.7
						c-0.2,1.6,0.6,3.1,2,3.8l48.4,24.3c1.4,0.7,3.1,0.4,4.3-0.7l32.3-31.6c20.5,4.9,41.9,6.6,63.5,4.6l27.4,35.8
						c1,1.3,2.6,1.8,4.1,1.3l51.4-17.1c1.5-0.5,2.5-1.9,2.5-3.5l0.5-45.1c18.5-11.4,34.7-25.5,48.2-41.7l44.7,6
						c1.6,0.2,3.1-0.6,3.8-2l24.3-48.4c0.7-1.4,0.4-3.1-0.7-4.3l-31.6-32.3c4.9-20.5,6.6-41.9,4.6-63.5l35.8-27.4
						c1.3-1,1.8-2.6,1.3-4.1l-17.1-51.4c-0.5-1.5-1.9-2.5-3.5-2.5l-45.1-0.5c-11.4-18.5-25.5-34.7-41.7-48.2l6-44.7
						c0.2-1.6-0.6-3.1-2-3.8L800.5,306.9z"/>
					<g>
						<path class="st2" d="M721.9,585.1c-5.1,0.4-10.2,0-15.3-1.2c-14-3.1-25.9-11.4-33.6-23.5c-7.7-12.1-10.2-26.4-7.2-40.4
							c3.1-14,11.4-25.9,23.5-33.6c12.1-7.7,26.4-10.2,40.4-7.2c14,3.1,25.9,11.4,33.6,23.5c7.7,12.1,10.2,26.4,7.2,40.4
							c-3.1,14-11.4,25.9-23.5,33.6C739.3,581.7,730.7,584.5,721.9,585.1z M715.1,489.1c-7,0.5-13.8,2.7-19.9,6.6
							c-19.8,12.6-25.6,39-13,58.8c6.1,9.6,15.6,16.2,26.7,18.7c11.1,2.5,22.5,0.4,32.1-5.7c9.6-6.1,16.2-15.6,18.7-26.7
							c2.5-11.1,0.4-22.5-5.7-32.1c-6.1-9.6-15.6-16.2-26.7-18.7C723.3,489.1,719.2,488.8,715.1,489.1z"/>
					</g>
					<path class="st2" d="M726.9,668.6c-24,1.7-48.1-3.1-70.2-14.2c-32.5-16.3-56.7-44.3-68.2-78.8c-3.7-11.1-5.9-22.4-6.7-33.8
						c-1.7-24,3.1-48.1,14.2-70.2c16.3-32.5,44.3-56.7,78.8-68.2c0.9-0.3,1.8-0.6,2.7-0.9c7.4-2.3,15.1-4,22.7-5
						c1-0.1,1.9-0.2,2.9-0.3l1.2,11c-8.8,1-17.6,2.9-26,5.7l0,0c-30,10-54.7,30.5-69.9,58c-0.9,1.5-1.7,3.1-2.5,4.7
						c-10.2,20.3-14.6,42.4-13,64.5c0.7,10.4,2.8,20.9,6.2,31.1c10.5,31.7,32.8,57.5,62.7,72.4c29.9,15,63.8,17.4,95.5,6.9
						c55.3-18.4,89.3-71.8,85.4-127.4c-0.7-10.3-2.7-20.6-6.1-30.8c-7.2-21.5-20-40.7-37.1-55.4l7.2-8.4
						c18.6,16,32.6,36.9,40.4,60.3c3.7,11.1,5.9,22.3,6.6,33.5c4.2,60.5-32.8,118.7-92.9,138.7C749.6,665.6,738.2,667.8,726.9,668.6
						z"/>
				</g>
			</g>
			<g>
				<g>
					<path class="st1" d="M629.8,811.7c-1.5,0.1-3-0.6-4-1.9c-3.4-4.8-7-9.4-10.8-13.9c-1.6-1.9-1.4-4.7,0.5-6.3
						c1.9-1.6,4.7-1.4,6.3,0.5c4,4.6,7.8,9.5,11.3,14.5c1.4,2,0.9,4.8-1.1,6.3C631.4,811.4,630.6,811.6,629.8,811.7z"/>
					<path class="st1" d="M512.3,1113.4c-2.2,0.2-4.2-1.3-4.7-3.5c-0.5-2.4,1-4.8,3.4-5.3c8.5-1.9,17-4.3,25.3-7.4
						c2.9-1.1,5.8-2.2,8.6-3.4c2.3-1,4.9,0.1,5.9,2.4c1,2.3-0.1,4.9-2.4,5.9c-3,1.3-6,2.4-9,3.6c-8.7,3.2-17.6,5.8-26.5,7.7
						C512.7,1113.4,512.5,1113.4,512.3,1113.4z M597.2,1071.4c-1.4,0.1-2.8-0.4-3.7-1.6c-1.6-1.9-1.4-4.7,0.5-6.3
						c9-7.7,17.3-16.3,24.7-25.5c1.6-1.9,4.4-2.2,6.3-0.7c1.9,1.6,2.2,4.4,0.7,6.3c-7.8,9.7-16.5,18.7-25.9,26.7
						C599.1,1071,598.2,1071.3,597.2,1071.4z M652.1,994.1c-0.6,0-1.3,0-1.9-0.3c-2.3-0.9-3.5-3.5-2.6-5.8
						c4.3-11.1,7.6-22.6,9.8-34.2c0.5-2.4,2.8-4.1,5.2-3.6c2.4,0.5,4,2.8,3.6,5.2c-2.3,12.2-5.7,24.2-10.2,35.8
						C655.3,992.9,653.8,994,652.1,994.1z M663.9,900.1c-2.4,0.2-4.5-1.6-4.8-3.9c-1.4-11.7-4-23.4-7.6-34.7
						c-0.8-2.4,0.5-4.9,2.9-5.6c2.4-0.8,4.9,0.5,5.6,2.9c3.8,11.9,6.5,24.1,8,36.4c0.3,2.5-1.4,4.7-3.9,5
						C664.1,900.1,664,900.1,663.9,900.1z"/>
					<path class="st1" d="M453.2,1117c-0.2,0-0.5,0-0.7,0c-6.1-0.6-12.2-1.4-18.2-2.6c-2.4-0.5-4-2.8-3.6-5.2c0.5-2.4,2.8-4,5.2-3.6
						c5.7,1.1,11.6,1.9,17.4,2.4c2.5,0.2,4.3,2.4,4.1,4.9C457.1,1115.2,455.3,1116.9,453.2,1117z"/>
				</g>
				<g>
					<path class="st1" d="M313.4,1036.9c-1.5,0.1-3-0.5-4-1.9c-3.5-4.9-6.9-10.1-10-15.4c-1.3-2.1-0.5-4.9,1.6-6.1
						c2.1-1.3,4.9-0.5,6.1,1.6c2.9,5,6.2,10,9.5,14.7c1.4,2,1,4.8-1,6.3C315,1036.6,314.2,1036.8,313.4,1036.9z"/>
					<path class="st1" d="M282.1,967.9c-2.2,0.1-4.2-1.3-4.7-3.5c-2.4-10.4-4-21-4.8-31.6c-0.1-1.6-0.2-3.1-0.3-4.7
						c-0.1-2.5,1.9-4.4,4.3-4.7c2.5-0.1,4.6,1.8,4.7,4.3c0.1,1.5,0.2,3,0.3,4.4c0.7,10.1,2.2,20.3,4.6,30.2c0.6,2.4-0.9,4.8-3.3,5.4
						C282.6,967.8,282.3,967.8,282.1,967.9z M283.3,874.7c-0.5,0-1,0-1.4-0.1c-2.4-0.6-3.8-3.1-3.2-5.5c3.1-11.8,7.3-23.4,12.5-34.4
						c1.1-2.2,3.7-3.2,6-2.1c2.2,1.1,3.2,3.7,2.2,6c-5,10.5-9,21.6-11.9,32.9C286.8,873.2,285.1,874.5,283.3,874.7z M327.7,792.8
						c-1.2,0.1-2.4-0.3-3.3-1.2c-1.8-1.7-2-4.5-0.3-6.3c8.2-9,17.3-17.3,27.1-24.7c2-1.5,4.8-1.1,6.3,0.9c1.5,2,1.1,4.8-0.9,6.3
						c-9.3,7-18,15-25.8,23.6C329.9,792.2,328.8,792.7,327.7,792.8z M405.2,741c-2,0.1-3.8-1-4.5-3c-0.8-2.3,0.4-4.9,2.7-5.8
						c11.5-4.2,23.5-7.3,35.4-9.2c2.5-0.5,4.8,1.3,5.2,3.7c0.4,2.4-1.3,4.8-3.7,5.2c-11.5,1.9-22.8,4.9-33.9,8.8
						C406,740.9,405.6,741,405.2,741z"/>
					<path class="st1" d="M515.7,734.6c-0.4,0-0.9,0-1.3-0.1c-5.7-1.3-11.5-2.4-17.2-3.2c-2.5-0.3-4.2-2.6-3.8-5.1
						c0.3-2.5,2.6-4.2,5.1-3.8c6,0.8,12.1,2,18.1,3.4c2.4,0.6,3.9,3,3.3,5.4C519.3,733.2,517.6,734.5,515.7,734.6z"/>
				</g>
				<g>
					<path class="st1" d="M523.1,779.5c-0.9-0.4-2-0.3-2.7,0.4l-20.3,19.8c-12.9-3.1-26.3-4.1-39.9-2.9L443,774.3
						c-0.6-0.8-1.6-1.1-2.6-0.8l-32.3,10.7c-0.9,0.3-1.6,1.2-1.6,2.2l-0.3,28.3c-11.6,7.1-21.8,16-30.3,26.2l-28.1-3.8
						c-1-0.1-1.9,0.4-2.4,1.3l-15.2,30.4c-0.4,0.9-0.3,2,0.4,2.7l19.8,20.3c-3.1,12.9-4.1,26.3-2.9,39.9L325,949
						c-0.8,0.6-1.1,1.6-0.8,2.6l10.7,32.3c0.3,0.9,1.2,1.6,2.2,1.6l28.3,0.3c7.1,11.6,16,21.8,26.2,30.3l-3.8,28.1
						c-0.1,1,0.4,1.9,1.3,2.4l30.4,15.2c0.9,0.4,2,0.3,2.7-0.4l20.3-19.8c12.9,3.1,26.3,4.1,39.9,2.9l17.2,22.5
						c0.6,0.8,1.6,1.1,2.6,0.8l32.3-10.7c0.9-0.3,1.6-1.2,1.6-2.2l0.3-28.3c11.6-7.1,21.8-16,30.3-26.2l28.1,3.8
						c1,0.1,1.9-0.4,2.4-1.3l15.2-30.4c0.4-0.9,0.3-2-0.4-2.7l-19.8-20.3c3.1-12.9,4.1-26.3,2.9-39.9l22.5-17.2
						c0.8-0.6,1.1-1.6,0.8-2.6l-10.7-32.3c-0.3-0.9-1.2-1.6-2.2-1.6l-28.3-0.3c-7.1-11.6-16-21.8-26.2-30.3l3.8-28.1
						c0.1-1-0.4-1.9-1.3-2.4L523.1,779.5z"/>
					<g>
						<path class="st2" d="M474,957.5c-13.1,0.9-26.2-5.2-33.8-17c-11-17.2-5.9-40.1,11.3-51l0,0c17.2-11,40.1-5.9,51,11.3
							c11,17.2,5.9,40.1-11.3,51C485.8,955.2,479.9,957.1,474,957.5z M458.7,900.8c-10.9,7-14.1,21.5-7.2,32.4
							c7,10.9,21.5,14.1,32.4,7.2c10.9-7,14.1-21.5,7.2-32.4C484.2,897.1,469.6,893.9,458.7,900.8L458.7,900.8z"/>
					</g>
					<path class="st2" d="M477,1010c-15.7,1.1-31.4-2-45.8-9.3c-21.2-10.6-37-28.9-44.5-51.4c-2.4-7.2-3.9-14.6-4.4-22
						c-1.1-15.7,2-31.4,9.3-45.8c10.6-21.2,28.9-37,51.4-44.5c6-2,12.2-3.4,18.5-4l1.5,13.4c-5.3,0.6-10.6,1.7-15.7,3.4
						c-18.3,6.1-33.2,18.6-42.4,35.4c-0.1,0.3-0.3,0.5-0.4,0.8c-0.3,0.5-0.5,1-0.8,1.6c-6.1,12.2-8.8,25.5-7.9,38.8
						c0.4,6.3,1.7,12.6,3.7,18.7c6.3,19.1,19.7,34.6,37.7,43.6c18,9,38.4,10.5,57.5,4.1c19.1-6.3,34.6-19.7,43.6-37.7
						c6.1-12.2,8.8-25.5,7.9-38.8c-0.4-6.3-1.7-12.6-3.7-18.7c-4.3-13-12-24.5-22.3-33.4L529,854c12.1,10.4,21.3,24,26.3,39.3
						c2.4,7.2,3.9,14.6,4.4,22c1.1,15.7-2,31.4-9.3,45.8c-10.6,21.2-28.9,37-51.4,44.5C491.8,1008,484.5,1009.4,477,1010z"/>
				</g>
			</g>
		</g>
		<g>
			<g>
				<linearGradient id="SVGID_2_" gradientUnits="userSpaceOnUse" x1="2345.6619" y1="2.4342" x2="1640.5879" y2="2314.269">
					<stop  offset="0" style="stop-color:#FF928E"/>
					<stop  offset="1" style="stop-color:#FE7062"/>
				</linearGradient>
				<path class="st3" d="M1408.1,2015.8c3,0.5,6.1,1,9.2,1.5c462.1,73.1,896.5-246.4,970.4-713.5l-845.8-133.7L1408.1,2015.8z"/>
				<linearGradient id="SVGID_3_" gradientUnits="userSpaceOnUse" x1="977.2794" y1="1592.2815" x2="1545.7484" y2="1592.2815">
					<stop  offset="0" style="stop-color:#FEBBBA"/>
					<stop  offset="1" style="stop-color:#FF928E"/>
				</linearGradient>
				<path class="st4" d="M1545.7,1169l-568.5,640.6c115.5,102.7,260.2,175.4,423.7,203.4c5.2,0.9,10.3,1.7,15.4,2.5L1545.7,1169z"/>
				<path class="st1" d="M1541.8,1170.1L702.9,998.5c-1.1,5.3-2.1,10.5-3.1,15.8c-56.5,305.8,57,603.7,273.6,796.2L1541.8,1170.1z"
					/>
				<linearGradient id="SVGID_4_" gradientUnits="userSpaceOnUse" x1="1796.3705" y1="1484.6792" x2="2421.9612" y2="525.4387">
					<stop  offset="0" style="stop-color:#4F52FF"/>
					<stop  offset="1" style="stop-color:#4042E2"/>
				</linearGradient>
				<path class="st5" d="M1646.4,1099.6l830.4,161.1c75.2-387.5-123.7-764.5-461.4-931l-372.2,763.5
					C1641.8,1095.9,1643.4,1099.1,1646.4,1099.6z"/>
				<path class="st6" d="M1544.9,1171.9L1900,394.3c-67.7-32.2-128.2-50.1-205.5-63.9C1333.7,266,985.4,437.9,808.3,735.2
					L1544.9,1171.9z"/>
				<path class="st2" d="M808.7,727.6c-49.6,81.7-86.2,173.1-106.5,271.9l0,0l838.8,172.4L808.7,727.6z"/>
			</g>
			<path class="st1" d="M955.4,601.5c-1.7,0-3.5-0.7-4.8-2c-2.6-2.6-2.6-6.9,0-9.6c90.7-90.5,202.7-159.7,323.9-200.3
				c125.3-41.9,260.9-53.1,392.2-32.3c11.7,1.9,23.6,4,35.2,6.3c3.7,0.7,6,4.3,5.3,8c-0.7,3.7-4.3,6-8,5.3
				c-11.4-2.3-23.1-4.4-34.6-6.2c-256.8-40.6-520.2,44.9-704.5,228.8C958.9,600.8,957.2,601.5,955.4,601.5z"/>
			<path class="st7" d="M970.5,1780.9c-1.7,0-3.4-0.6-4.7-1.9c-168.3-160-262.5-384.3-258.5-615.3c0.1-3.7,3.1-6.7,6.8-6.7
				c0,0,0.1,0,0.1,0c3.7,0.1,6.7,3.2,6.7,6.9c-3.9,227.2,88.8,447.8,254.3,605.2c2.7,2.6,2.8,6.9,0.2,9.6
				C974.1,1780.2,972.3,1780.9,970.5,1780.9z"/>
			<linearGradient id="SVGID_5_" gradientUnits="userSpaceOnUse" x1="1981.6263" y1="1587.2249" x2="2069.7607" y2="800.7953">
				<stop  offset="0" style="stop-color:#FEBBBA"/>
				<stop  offset="1" style="stop-color:#FF928E"/>
			</linearGradient>
			<path class="st8" d="M1741.7,1981.4c-3,0-5.8-2-6.6-5.1c-0.9-3.6,1.3-7.3,4.9-8.3c164-42.2,309-132.8,419.1-262
				c2.4-2.9,6.7-3.2,9.6-0.8c2.9,2.4,3.2,6.7,0.8,9.6c-112,131.4-259.3,223.5-426,266.3C1742.9,1981.3,1742.3,1981.4,1741.7,1981.4z
				"/>
			<path class="st1" d="M1845.1,769.8c-1,0-2-0.2-3-0.7c-3.4-1.7-4.7-5.7-3.1-9.1l193.9-391.8l6.3,3.9
				c63.7,39,122.5,83.9,184.8,141.3c2.8,2.5,2.9,6.8,0.4,9.6c-2.5,2.8-6.8,2.9-9.6,0.4c-59.6-54.9-115.8-98.2-176.4-135.9
				L1851.2,766C1850,768.4,1847.6,769.8,1845.1,769.8z"/>
			<path class="st1" d="M2133.3,1162.7c-0.4,0-0.8,0-1.3-0.1l-437.3-81.7c-3.2-0.6-5.8-2.6-7.3-5.5c-1.4-2.9-1.4-6.2,0-9.1
				l39.5-79.7c1.7-3.4,5.7-4.7,9.1-3.1c3.4,1.7,4.7,5.7,3.1,9.1l-37.5,75.8l433,80.9c3.7,0.7,6.1,4.2,5.4,7.9
				C2139.3,1160.4,2136.5,1162.7,2133.3,1162.7z"/>
		</g>
		<g>
			<linearGradient id="SVGID_6_" gradientUnits="userSpaceOnUse" x1="2966.3591" y1="1008.8675" x2="2017.217" y2="3008.8459">
				<stop  offset="0" style="stop-color:#4F52FF"/>
				<stop  offset="1" style="stop-color:#4042E2"/>
			</linearGradient>
			<path class="st9" d="M1973.3,2677.3l517.9-992.2h-106.1c-19.6,0-30.3-22.8-17.9-37.9l552-672.8c23.9-29.2,71.2-10.7,69,27
				l-38.8,657.9c-2.2,37.7-35.6,65.7-73.1,61.4l-74-8.5l-513.9,1112.9c-13.4,29-42.4,47.5-74.3,47.5H2036L1973.3,2677.3z"/>
			<linearGradient id="SVGID_7_" gradientUnits="userSpaceOnUse" x1="2176.1553" y1="2954.3164" x2="1627.0096" y2="1917.0426">
				<stop  offset="0" style="stop-color:#4F52FF"/>
				<stop  offset="1" style="stop-color:#4042E2"/>
			</linearGradient>
			<path class="st10" d="M1545.1,1981.4l365.6,812.2c21.7,48.1,69.5,79,122.3,79h188.5c25,0,48.1-13.6,60.2-35.4l6.7-12.1l0,0
				c-20.3,0-38.8-11.4-48-29.4l-487.2-954.6L1545.1,1981.4z"/>
			<linearGradient id="SVGID_8_" gradientUnits="userSpaceOnUse" x1="1832.1631" y1="1621.7716" x2="828.7833" y2="2862.4355">
				<stop  offset="0" style="stop-color:#4F52FF"/>
				<stop  offset="1" style="stop-color:#4042E2"/>
			</linearGradient>
			<path class="st11" d="M1802.4,1937.6L1802.4,1937.6c-36.7-29-90.2-20.4-116.1,18.5l-537.6,807.7
				c-43.1,64.7-115.6,103.6-193.3,103.6h-75.6L818.2,2690c0,0,499.8-766.3,628.6-882.3c0,0,128.3-115.6,254.8-28.2
				c33.4,23.1,58.8,56.1,74.3,93.6L1802.4,1937.6z"/>
			<linearGradient id="SVGID_9_" gradientUnits="userSpaceOnUse" x1="936.6684" y1="2739.7827" x2="4.9852" y2="1778.2861">
				<stop  offset="0" style="stop-color:#4F52FF"/>
				<stop  offset="1" style="stop-color:#4042E2"/>
			</linearGradient>
			<path class="st12" d="M233.5,2213c0,0,90-112.5,264.4-130c0,0,82.8,28.2,247.8,323.9c165,295.7,274.5,430.5,403.1,356.9
				l-10.6,17.7c-35.1,58.2-98.1,93.8-166,93.8H901c-78.3,0-146.2-120.5-191.9-184.1C580.6,2512.7,312.3,2240.7,233.5,2213z"/>
			<path class="st1" d="M2925.9,1209.4c-0.2,0-0.4,0-0.6,0c-2.8-0.3-4.8-2.8-4.5-5.6l3.6-32.1c0.3-2.8,2.8-4.8,5.6-4.5
				c2.8,0.3,4.8,2.8,4.5,5.6l-3.6,32.1C2930.7,1207.4,2928.5,1209.4,2925.9,1209.4z"/>
			<path class="st1" d="M2465.1,1614.9c-1.1,0-2.2-0.3-3.1-1.1c-2.2-1.7-2.6-4.9-0.9-7.1l455.8-592.3c5.4-7,14.1-9.4,22.3-6
				c8.2,3.3,12.8,11.1,11.8,19.8l-8,71c-0.3,2.8-2.9,4.8-5.6,4.5c-2.8-0.3-4.8-2.8-4.5-5.6l8-71c0.6-5-2.5-8-5.5-9.3
				c-3-1.2-7.3-1.1-10.4,2.8l-455.8,592.3C2468.1,1614.2,2466.6,1614.9,2465.1,1614.9z"/>
			<path class="st1" d="M1431,2235.8c-1,0-2-0.3-2.8-0.9c-2.3-1.6-2.9-4.7-1.4-7.1l235.7-349.4c8.4-12.5,22.5-19.3,37.5-18.2
				c15.1,1.1,27.9,10,34.4,23.6c1.2,2.5,0.1,5.6-2.4,6.8c-2.5,1.2-5.6,0.1-6.8-2.4c-4.9-10.3-14.6-17-26-17.8
				c-11.3-0.9-22,4.3-28.3,13.7l-235.7,349.4C1434.3,2235,1432.7,2235.8,1431,2235.8z"/>
			<path class="st1" d="M1369.8,2326.6c-1,0-2-0.3-2.8-0.9c-2.3-1.6-2.9-4.7-1.4-7.1l15.1-22.4c1.6-2.3,4.7-2.9,7.1-1.4
				c2.3,1.6,2.9,4.7,1.4,7.1l-15.1,22.4C1373,2325.8,1371.4,2326.6,1369.8,2326.6z"/>
		</g>
		<g>
			<g>
				<g>
					
						<linearGradient id="SVGID_10_" gradientUnits="userSpaceOnUse" x1="2862.2864" y1="1421.955" x2="3033.3857" y2="1223.3579" gradientTransform="matrix(0.9991 -4.100000e-02 4.100000e-02 0.9991 -1071.046 -316.2433)">
						<stop  offset="0" style="stop-color:#E1473D"/>
						<stop  offset="1" style="stop-color:#E9605A"/>
					</linearGradient>
					<circle class="st13" cx="2013.1" cy="777.5" r="127.6"/>
					
						<linearGradient id="SVGID_11_" gradientUnits="userSpaceOnUse" x1="3130.0676" y1="1078.5087" x2="2624.1233" y2="1842.8464" gradientTransform="matrix(0.9991 -4.100000e-02 4.100000e-02 0.9991 -1071.046 -316.2433)">
						<stop  offset="0" style="stop-color:#FF928E"/>
						<stop  offset="1" style="stop-color:#FE7062"/>
					</linearGradient>
					<circle class="st14" cx="2013.1" cy="777.5" r="123.3"/>
					<path class="st15" d="M1909.5,734.6c-0.6,0-1.3-0.1-1.9-0.4c-2.1-0.9-3-3.4-2-5.5c18.5-40.8,57.9-67.3,102.6-69.1
						c7.1-0.3,14.3,0.1,21.3,1c2.3,0.3,3.8,2.4,3.5,4.7c-0.3,2.3-2.4,3.8-4.7,3.5c-6.5-0.9-13.2-1.2-19.9-1
						c-41.6,1.7-78.2,26.4-95.4,64.3C1912.4,733.7,1911,734.5,1909.5,734.6z"/>
					
						<ellipse transform="matrix(0.7071 -0.7071 0.7071 0.7071 38.8363 1653.8986)" class="st15" cx="2015.9" cy="780.1" rx="104.4" ry="104.4"/>
					<g>
						<linearGradient id="SVGID_12_" gradientUnits="userSpaceOnUse" x1="1989.5878" y1="948.6438" x2="2074.3323" y2="433.3961">
							<stop  offset="0" style="stop-color:#FF928E"/>
							<stop  offset="1" style="stop-color:#FE7062"/>
						</linearGradient>
						<path class="st16" d="M2008.8,858l-0.5-11.3c-11.8,0-23.7-2.3-32.1-5.6c-3-1.2-4.7-4.4-3.9-7.6l2.4-10.7
							c0.9-3.9,5-6.1,8.8-4.7c8.4,3.1,18.7,5.4,29.6,5c11.4-0.5,19.7-4.7,19.4-12.6c-0.3-7.1-7-11.1-23-14.7
							c-22.8-5.2-39.5-14.4-40.3-34.3c-0.7-18,11.8-32.2,34.5-36.8l-0.5-11.3c-0.1-3.7,2.7-6.7,6.3-6.9l6.7-0.3
							c3.7-0.1,6.7,2.7,6.9,6.3l0.4,10.2c11,0,19,1.5,25.4,3.5c3.3,1,5.2,4.4,4.4,7.8l-2.2,9.9c-0.9,3.8-4.8,6-8.5,4.8
							c-5.9-2-14.2-3.9-24.9-3.5c-13.5,0.6-17.1,6.3-16.9,11.3c0.3,6.2,8.5,10.1,26.3,14.8c25.4,6.5,36.3,16.5,37,35.2
							c0.7,17.2-11.4,33.2-36,38l0.5,12.7c0.1,3.7-2.7,6.7-6.3,6.9l-6.7,0.3C2012,864.5,2009,861.7,2008.8,858z"/>
					</g>
				</g>
				<g>
					
						<linearGradient id="SVGID_13_" gradientUnits="userSpaceOnUse" x1="3087.6599" y1="1266.7931" x2="3366.8931" y2="942.6836" gradientTransform="matrix(0.9991 -4.100000e-02 4.100000e-02 0.9991 -1071.046 -316.2433)">
						<stop  offset="0" style="stop-color:#E1473D"/>
						<stop  offset="1" style="stop-color:#E9605A"/>
					</linearGradient>
					<circle class="st17" cx="2336.8" cy="480.8" r="208.2"/>
					
						<linearGradient id="SVGID_14_" gradientUnits="userSpaceOnUse" x1="3524.6782" y1="706.2897" x2="2698.9775" y2="1953.6879" gradientTransform="matrix(0.9991 -4.100000e-02 4.100000e-02 0.9991 -1071.046 -316.2433)">
						<stop  offset="0" style="stop-color:#FF928E"/>
						<stop  offset="1" style="stop-color:#FE7062"/>
					</linearGradient>
					<circle class="st18" cx="2336.8" cy="480.8" r="201.2"/>
					<path class="st15" d="M2167.8,407.9c-0.6,0-1.2-0.1-1.8-0.3c-1.9-0.9-2.8-3.2-1.9-5.1c29.8-65.6,93-108.2,165-111.2
						c11.5-0.5,23,0.1,34.3,1.7c2.1,0.3,3.6,2.2,3.3,4.4c-0.3,2.1-2.2,3.6-4.4,3.3c-10.8-1.5-21.9-2.1-32.9-1.6
						c-69,2.8-129.7,43.7-158.2,106.6C2170.5,407,2169.2,407.9,2167.8,407.9z"/>
					
						<ellipse transform="matrix(0.7071 -0.7071 0.7071 0.7071 342.8474 1797.6631)" class="st15" cx="2341.4" cy="485" rx="170.3" ry="170.3"/>
					<g>
						
							<linearGradient id="SVGID_15_" gradientUnits="userSpaceOnUse" x1="1569.3646" y1="3169.7832" x2="1708.3373" y2="2668.1267" gradientTransform="matrix(0.9751 0.222 -0.222 0.9751 22.2694 -174.6634)">
							<stop  offset="0" style="stop-color:#FF928E"/>
							<stop  offset="1" style="stop-color:#FE7062"/>
						</linearGradient>
						<path class="st19" d="M2329.9,612.2l-0.8-18.5c-19.3,0-38.6-3.8-52.4-9.1c-4.9-1.9-7.6-7.3-6.4-12.4l4-17.4
							c1.5-6.4,8.2-10,14.4-7.7c13.7,5.1,30.5,8.9,48.4,8.1c18.6-0.8,32.2-7.6,31.7-20.6c-0.5-11.7-11.5-18.1-37.6-24
							c-37.3-8.6-64.4-23.6-65.7-56c-1.2-29.3,19.3-52.6,56.2-60.1l-0.8-18.5c-0.2-6,4.4-11,10.3-11.2l10.9-0.4
							c6-0.2,11,4.4,11.2,10.3l0.7,16.6c17.9,0,31,2.5,41.5,5.7c5.4,1.6,8.5,7.2,7.2,12.7l-3.7,16.1c-1.4,6.2-7.8,9.9-13.9,7.8
							c-9.6-3.2-23.2-6.4-40.7-5.7c-22.1,0.9-28,10.3-27.6,18.5c0.4,10.1,13.9,16.5,43,24.1c41.5,10.6,59.2,26.9,60.4,57.5
							c1.2,28-18.6,54.1-58.7,62.1l0.9,20.7c0.2,6-4.4,11-10.3,11.2l-10.9,0.4C2335.2,622.8,2330.1,618.1,2329.9,612.2z"/>
					</g>
				</g>
				<g>
					
						<linearGradient id="SVGID_16_" gradientUnits="userSpaceOnUse" x1="3223.0017" y1="1741.3486" x2="3510.3293" y2="1407.8438" gradientTransform="matrix(0.9991 -4.100000e-02 4.100000e-02 0.9991 -1071.046 -316.2433)">
						<stop  offset="0" style="stop-color:#E1473D"/>
						<stop  offset="1" style="stop-color:#E9605A"/>
					</linearGradient>
					<circle class="st20" cx="2499.4" cy="939.4" r="214.2"/>
					
						<linearGradient id="SVGID_17_" gradientUnits="userSpaceOnUse" x1="3672.688" y1="1164.5972" x2="2823.0525" y2="2448.1541" gradientTransform="matrix(0.9991 -4.100000e-02 4.100000e-02 0.9991 -1071.046 -316.2433)">
						<stop  offset="0" style="stop-color:#FF928E"/>
						<stop  offset="1" style="stop-color:#FE7062"/>
					</linearGradient>
					<circle class="st21" cx="2499.4" cy="939.4" r="207.1"/>
					<path class="st15" d="M2325.4,864.4c-0.6,0-1.2-0.1-1.8-0.3c-1.9-0.9-2.8-3.2-1.9-5.1c30.7-67.5,95.7-111.3,169.7-114.3
						c11.8-0.5,23.7,0.1,35.3,1.7c2.1,0.3,3.6,2.2,3.3,4.4c-0.3,2.1-2.2,3.6-4.4,3.3c-11.1-1.6-22.5-2.1-33.9-1.6
						c-71.1,2.9-133.5,45-162.9,109.8C2328.1,863.5,2326.8,864.3,2325.4,864.4z"/>
					
						<ellipse transform="matrix(0.7071 -0.7071 0.7071 0.7071 66.0803 2047.0608)" class="st15" cx="2504.1" cy="943.8" rx="175.3" ry="175.3"/>
					<g>
						
							<linearGradient id="SVGID_18_" gradientUnits="userSpaceOnUse" x1="1409.4905" y1="3284.3828" x2="1656.9319" y2="2747.1304" gradientTransform="matrix(0.9751 0.222 -0.222 0.9751 22.2694 -174.6634)">
							<stop  offset="0" style="stop-color:#FF928E"/>
							<stop  offset="1" style="stop-color:#FE7062"/>
						</linearGradient>
						<path class="st22" d="M2492.2,1074.7l-0.8-19.1c-19.9,0-39.7-3.9-53.9-9.4c-5.1-2-7.8-7.5-6.6-12.8l4.1-17.9
							c1.5-6.6,8.4-10.2,14.8-7.9c14.1,5.2,31.4,9.1,49.8,8.4c19.1-0.8,33.1-7.9,32.6-21.2c-0.5-12-11.8-18.7-38.7-24.7
							c-38.4-8.8-66.3-24.2-67.6-57.6c-1.2-30.2,19.9-54.1,57.9-61.8l-0.8-19.1c-0.3-6.1,4.5-11.3,10.6-11.6l11.2-0.5
							c6.1-0.3,11.3,4.5,11.6,10.6l0.7,17.1c18.4,0,31.9,2.6,42.7,5.9c5.5,1.7,8.7,7.4,7.5,13.1l-3.8,16.6
							c-1.5,6.4-8.1,10.1-14.3,8.1c-9.9-3.3-23.9-6.6-41.9-5.8c-22.7,0.9-28.8,10.6-28.4,19c0.4,10.4,14.3,16.9,44.2,24.8
							c42.7,10.9,60.9,27.7,62.2,59.2c1.2,28.9-19.1,55.7-60.4,63.9l0.9,21.3c0.3,6.1-4.5,11.3-10.6,11.6l-11.2,0.5
							C2497.7,1085.6,2492.5,1080.8,2492.2,1074.7z"/>
					</g>
				</g>
				<g>
					
						<linearGradient id="SVGID_19_" gradientUnits="userSpaceOnUse" x1="3549.1848" y1="1316.4708" x2="3778.9792" y2="1049.7454" gradientTransform="matrix(0.9991 -4.100000e-02 4.100000e-02 0.9991 -1071.046 -316.2433)">
						<stop  offset="0" style="stop-color:#E1473D"/>
						<stop  offset="1" style="stop-color:#E9605A"/>
					</linearGradient>
					<circle class="st23" cx="2752" cy="572" r="171.3"/>
					
						<linearGradient id="SVGID_20_" gradientUnits="userSpaceOnUse" x1="3908.8279" y1="855.2057" x2="3229.3201" y2="1881.7483" gradientTransform="matrix(0.9991 -4.100000e-02 4.100000e-02 0.9991 -1071.046 -316.2433)">
						<stop  offset="0" style="stop-color:#FF928E"/>
						<stop  offset="1" style="stop-color:#FE7062"/>
					</linearGradient>
					<circle class="st24" cx="2752" cy="572" r="165.6"/>
					<path class="st15" d="M2612.9,513.1c-0.6,0-1.3-0.1-1.9-0.4c-2.1-1-3.1-3.5-2.1-5.6c24.7-54.4,77.1-89.6,136.7-92.1
						c9.5-0.4,19.1,0.1,28.4,1.4c2.3,0.3,3.9,2.5,3.6,4.8c-0.3,2.3-2.4,3.9-4.8,3.6c-8.9-1.2-17.9-1.7-26.9-1.3
						c-56.4,2.3-106,35.7-129.3,87.1C2615.9,512.2,2614.4,513.1,2612.9,513.1z"/>
					
						<ellipse transform="matrix(0.7071 -0.7071 0.7071 0.7071 400.1956 2117.1648)" class="st15" cx="2755.7" cy="575.5" rx="140.2" ry="140.2"/>
					<g>
						
							<linearGradient id="SVGID_21_" gradientUnits="userSpaceOnUse" x1="1830.5286" y1="3100.6504" x2="2005.0922" y2="2583.7397" gradientTransform="matrix(0.9751 0.222 -0.222 0.9751 22.2694 -174.6634)">
							<stop  offset="0" style="stop-color:#FF928E"/>
							<stop  offset="1" style="stop-color:#FE7062"/>
						</linearGradient>
						<path class="st25" d="M2746.3,680.2l-0.6-15.2c-15.9,0-31.8-3.1-43.1-7.5c-4.1-1.6-6.3-6-5.3-10.2l3.3-14.4
							c1.2-5.3,6.8-8.2,11.8-6.3c11.3,4.2,25.1,7.3,39.8,6.7c15.3-0.6,26.5-6.3,26.1-16.9c-0.4-9.6-9.4-14.9-30.9-19.8
							c-30.7-7.1-53-19.4-54.1-46.1c-1-24.1,15.9-43.3,46.3-49.4l-0.6-15.2c-0.2-4.9,3.6-9,8.5-9.2l9-0.4c4.9-0.2,9,3.6,9.2,8.5
							l0.6,13.7c14.7,0,25.5,2.1,34.1,4.7c4.4,1.3,7,5.9,6,10.4l-3,13.3c-1.2,5.1-6.5,8.1-11.4,6.5c-7.9-2.6-19.1-5.3-33.5-4.7
							c-18.2,0.7-23,8.5-22.8,15.2c0.3,8.3,11.5,13.6,35.4,19.8c34.1,8.7,48.7,22.2,49.7,47.3c0.9,23.1-15.3,44.5-48.3,51.1
							l0.7,17.1c0.2,4.9-3.6,9-8.5,9.2l-9,0.4C2750.6,688.9,2746.5,685.1,2746.3,680.2z"/>
					</g>
				</g>
			</g>
		</g>
		<g>
			<linearGradient id="SVGID_22_" gradientUnits="userSpaceOnUse" x1="626.0345" y1="2883.2759" x2="863.6978" y2="2883.2759">
				<stop  offset="0" style="stop-color:#53D8FF"/>
				<stop  offset="1" style="stop-color:#3840F7"/>
			</linearGradient>
			<path class="st26" d="M857,2871.8c-40.7,3.5-111.4,9.2-167.1,11.7c-33.5,1.5-52.8-1.8-63.9-6.3c0,1.3,0.1,2.4,0.1,3.5
				c0.3,5.9,5,10.6,10.9,10.9c105.3,5.9,189,2,218.8,0.2c6.2-0.4,9.8-7.1,6.7-12.3C861,2876.9,859.1,2874.3,857,2871.8z"/>
			<linearGradient id="SVGID_23_" gradientUnits="userSpaceOnUse" x1="626.0209" y1="2836.697" x2="856.9865" y2="2836.697">
				<stop  offset="0" style="stop-color:#09005D"/>
				<stop  offset="1" style="stop-color:#1A0F91"/>
			</linearGradient>
			<path class="st27" d="M689.9,2883.5c55.7-2.5,126.4-8.2,167.1-11.7c-40-49.1-167.1-82.2-167.1-82.2H654
				c-24.7,35.6-28.3,69.4-28,87.7C637.1,2881.7,656.4,2884.9,689.9,2883.5z"/>
			<linearGradient id="SVGID_24_" gradientUnits="userSpaceOnUse" x1="647.9764" y1="2771.6665" x2="714.9211" y2="2771.6665">
				<stop  offset="0" style="stop-color:#FEBBBA"/>
				<stop  offset="1" style="stop-color:#FF928E"/>
			</linearGradient>
			<path class="st28" d="M648,2731l3.4,66.5c0.4,7.2,5.8,13.2,13,14.3c7.2,1,16.8,1.2,27-2.2c6.3-2.1,10.9-7.4,12.1-13.8l11.6-64.7
				H648z"/>
			<g>
				<linearGradient id="SVGID_25_" gradientUnits="userSpaceOnUse" x1="201.8373" y1="2942.209" x2="292.9138" y2="2942.209">
					<stop  offset="0" style="stop-color:#53D8FF"/>
					<stop  offset="1" style="stop-color:#3840F7"/>
				</linearGradient>
				<path class="st29" d="M231.5,2948.4c-17.7-3.2-25.6-15-29-27.7c0,0.1,0,0.2-0.1,0.3c-2.6,13.4,3.4,27.2,15.5,33.8
					c14.6,8,30.5,9.3,42.8,8.7c13.3-0.7,25.4-7.8,32.1-19.1l0.1-0.2C279.6,2952.7,260.9,2953.7,231.5,2948.4z"/>
				<linearGradient id="SVGID_26_" gradientUnits="userSpaceOnUse" x1="202.4999" y1="2851.5767" x2="336.1823" y2="2851.5767">
					<stop  offset="0" style="stop-color:#09005D"/>
					<stop  offset="1" style="stop-color:#1A0F91"/>
				</linearGradient>
				<path class="st30" d="M314.7,2751.5h-29.6c-45.1-1.2-73.4,121.7-82.6,169.3c3.3,12.7,11.3,24.5,29,27.7
					c29.4,5.3,48.1,4.3,61.4-4.2c24.4-41.4,36.4-102.1,42.2-137.5C341.7,2766.5,314.7,2751.5,314.7,2751.5z"/>
			</g>
			<linearGradient id="SVGID_27_" gradientUnits="userSpaceOnUse" x1="271.9858" y1="2736.7573" x2="351.9918" y2="2736.7573">
				<stop  offset="0" style="stop-color:#FEBBBA"/>
				<stop  offset="1" style="stop-color:#FF928E"/>
			</linearGradient>
			<path class="st31" d="M289,2689.8l-16.4,65.4c-2,8,1.8,16.3,9.2,20.1c9.2,4.7,22.1,9.7,34,8.2c5.6-0.7,10.2-4.6,12.1-9.9
				l24.1-68.8L289,2689.8z"/>
			<linearGradient id="SVGID_28_" gradientUnits="userSpaceOnUse" x1="-1264.7526" y1="4059.332" x2="1745.3815" y2="1293.2618">
				<stop  offset="0" style="stop-color:#09005D"/>
				<stop  offset="1" style="stop-color:#1A0F91"/>
			</linearGradient>
			<path class="st32" d="M867,1829c0,0-146.8,917.9-144.4,923c0,0-40.6,18.4-84.8,2.3c0,0,13.3-490.7,44.4-678.8
				c0,0-250.6,438.6-330.2,657.1c0,0-41.5-4.9-75.9-27.6c0,0,269.8-789.4,341.8-894.6L867,1829z"/>
			<linearGradient id="SVGID_29_" gradientUnits="userSpaceOnUse" x1="704.5148" y1="2079.605" x2="766.8853" y2="1957.3099">
				<stop  offset="0" style="stop-color:#4F52FF"/>
				<stop  offset="1" style="stop-color:#4042E2"/>
			</linearGradient>
			<path class="st33" d="M688.1,2070.7c-0.8,0-1.6-0.2-2.3-0.7c-2-1.3-2.6-3.9-1.4-6l54.9-87.7c0.6-1,1.7-1.7,2.8-2l40.4-8.1
				c2.4-0.5,4.6,1.1,5.1,3.4c0.5,2.3-1.1,4.6-3.4,5.1l-38.6,7.8l-53.9,86.1C690.9,2070,689.5,2070.7,688.1,2070.7z"/>
			<linearGradient id="SVGID_30_" gradientUnits="userSpaceOnUse" x1="1372.4301" y1="1051.5187" x2="1055.562" y2="1463.7551">
				<stop  offset="0" style="stop-color:#FEBBBA"/>
				<stop  offset="1" style="stop-color:#FF928E"/>
			</linearGradient>
			<path class="st34" d="M1540.9,930.1c0,0-99.1,21.9-159.4,49.7c-12,5.5-21.5,15.2-27,27.1c-18,39.5-72,138.5-176.5,185.8
				c15.1,20,39.3,61.6,49.9,131.5c62.8-46.8,117-124.8,143.1-252.9c0,0,19.8,10.8,44.6-1.2c13.1-6.3,28.2-15.3,39.5-22.4
				c11.3-7.1,19.7-18,23-30.8c4.3-16.9,1.8-31.8,1.8-47.7l50.9-15.8C1530.7,953.2,1546,947.5,1540.9,930.1z"/>
			<linearGradient id="SVGID_31_" gradientUnits="userSpaceOnUse" x1="99.089" y1="2204.1208" x2="810.9438" y2="1370.2335">
				<stop  offset="0" style="stop-color:#FF928E"/>
				<stop  offset="1" style="stop-color:#FE7062"/>
			</linearGradient>
			<path class="st35" d="M1227.9,1324.1c-10.6-69.9-34.8-111.5-49.9-131.5c-65,29.4-149.5,38.7-257.1,1.4
				c-9.9-3.4-20.3-5.5-30.8-6.1c-57.3-3.4-246.1-9.5-402.3,42.1c-32.9,10.9-59.5,35.2-73.2,66.7c-42.3,97-110.7,317.8,79.3,429.4
				c14.6-36.2,31.4-65.4,45.8-86.7c-30.6-51.6-39.6-122.1,14.6-213.8c39.6,106.9,58.1,262.8,62,331.8c1.3,22.7-2.7,45.4-11.6,66.4
				l-1,2.3c-1.9,4.5,0.7,9.6,5.5,10.7c106.9,24,218.1,17.5,251.4,14.7c5.9-0.5,10.9-4.7,12.2-10.5c52-219.1,52.1-368.5,39.4-463
				C960.9,1389,1109.6,1412.2,1227.9,1324.1z"/>
			<linearGradient id="SVGID_32_" gradientUnits="userSpaceOnUse" x1="1504.177" y1="384.5612" x2="446.5641" y2="1991.3208">
				<stop  offset="0" style="stop-color:#E1473D"/>
				<stop  offset="1" style="stop-color:#E9605A"/>
			</linearGradient>
			<path class="st36" d="M912.5,1384c-2.1,0-4-1.6-4.3-3.8c-12.2-92.2-37.1-132.5-37.3-132.9c-1.3-2-0.7-4.7,1.3-6
				c2-1.3,4.7-0.7,6,1.3c1.1,1.7,26.1,42,38.6,136.4c0.3,2.4-1.4,4.6-3.7,4.9C912.9,1384,912.7,1384,912.5,1384z"/>
			<linearGradient id="SVGID_33_" gradientUnits="userSpaceOnUse" x1="684.1838" y1="1379.2684" x2="697.7427" y2="1053.8495">
				<stop  offset="0" style="stop-color:#FEBBBA"/>
				<stop  offset="1" style="stop-color:#FF928E"/>
			</linearGradient>
			<path class="st37" d="M648.6,1060.4c0,0-10.8,114.4-20.3,148.2c-1.4,5.1,0.8,10.5,5.4,13.2c16.2,9.2,54.9,24.3,108-1.7
				c8.6-4.2,13.8-13.2,13.4-22.6l-4.7-110.5L648.6,1060.4z"/>
			<g>
				<linearGradient id="SVGID_34_" gradientUnits="userSpaceOnUse" x1="759.9394" y1="984.0488" x2="562.1496" y2="1135.3882">
					<stop  offset="0" style="stop-color:#FEBBBA"/>
					<stop  offset="1" style="stop-color:#FF928E"/>
				</linearGradient>
				<path class="st38" d="M752.7,914.1c0,0,34.6,79.5,36.9,121.2c2.3,41.7,11.3,68.8-36.9,77.2c-48.2,8.4-88.9-15.6-110.9-57.2
					c0,0-34.5-64-26.8-90.3C622.8,938.8,752.7,914.1,752.7,914.1z"/>
				<linearGradient id="SVGID_35_" gradientUnits="userSpaceOnUse" x1="620.7041" y1="864.2211" x2="804.9142" y2="1101.3912">
					<stop  offset="0" style="stop-color:#09005D"/>
					<stop  offset="1" style="stop-color:#1A0F91"/>
				</linearGradient>
				<path class="st39" d="M658.3,1025.4l2.7-1.2c3.5-1.5,5-5.7,3.2-9.1c-6.8-13.1-20.1-43.3-2.9-50.3
					c22.1-9.1,109.5-26.9,128.4-57.9c18.1-29.8,2.1-68.3-22.1-79.3c-1.6-0.7-3.5-0.2-4.3,1.4l-2,3.8c-1.4,2.6-5.2,2.2-6-0.6
					c-0.8-2.7-4.4-3.2-5.9-0.8c-5.8,9.3-21.5,24.3-63.3,32.1c-59.5,11-98.8,35.1-99.8,76.2c-0.1,2.6-2.8,4.1-5.1,2.7
					c-4.4-2.7-11.4-3.9-20.8,4c-16.3,13.7-9.7,49.4,26.2,78.7c1.7,1.4,1.7,4-0.2,5.2c-6.5,4.2-16.2,14.3,8.9,27.7
					c25.9,13.9,45.3,12.7,52.8,11.5c1.9-0.3,3.1-2.1,2.6-3.9l-8-36.1c-0.5-2,1.1-4,3.2-4H658.3z"/>
				<linearGradient id="SVGID_36_" gradientUnits="userSpaceOnUse" x1="735.406" y1="951.985" x2="537.616" y2="1103.3246">
					<stop  offset="0" style="stop-color:#FEBBBA"/>
					<stop  offset="1" style="stop-color:#FF928E"/>
				</linearGradient>
				<path class="st40" d="M659.8,1033c0,0-13.2-50.8-36-36.5c-22.8,14.2,11.8,56.9,30.1,58.8L659.8,1033z"/>
			</g>
			<path class="st41" d="M1397.4,1059.4c-1,0-1.9-0.3-2.7-1c-1.9-1.5-2.1-4.2-0.6-6.1c3.7-4.6,37-45.3,49.8-52.5
				c4.7-2.6,7.4-5.4,8-7.9c0.3-1.2,0.1-2.5-0.6-4.1l-39.1,7.8l-22.1,19c-1.8,1.6-4.6,1.4-6.1-0.5c-1.6-1.8-1.4-4.6,0.5-6.1l23-19.7
				c0.6-0.5,1.2-0.8,2-1l43.3-8.7c1.7-0.4,3.5,0.4,4.5,1.8c3.2,4.7,4.2,9.1,3.2,13.4c-1.2,5.1-5.2,9.5-12.2,13.4
				c-9.6,5.4-37.4,38.2-47.4,50.4C1399.9,1058.9,1398.7,1059.4,1397.4,1059.4z"/>
			<linearGradient id="SVGID_37_" gradientUnits="userSpaceOnUse" x1="502.7135" y1="1933.8809" x2="1017.96" y2="1269.483">
				<stop  offset="0" style="stop-color:#FEBBBA"/>
				<stop  offset="1" style="stop-color:#FF928E"/>
			</linearGradient>
			<path class="st42" d="M658.1,1781.1L811,1783l-53.5-50.4c-13.3-12.5-33.6-14.6-49-4.6c-9,5.8-18.7,13.7-27.2,24.2
				c0,0-95.4-34.9-141.6-112.9c-14.4,21.4-31.2,50.5-45.8,86.7C535.3,1750.5,589.1,1769.7,658.1,1781.1z"/>
			<g>
				
					<linearGradient id="SVGID_38_" gradientUnits="userSpaceOnUse" x1="-3629.8391" y1="1589.3064" x2="-3942.5901" y2="1675.0232" gradientTransform="matrix(-0.9988 -4.940000e-02 -4.940000e-02 0.9988 -2938.2285 -68.7919)">
					<stop  offset="0" style="stop-color:#09005D"/>
					<stop  offset="1" style="stop-color:#1A0F91"/>
				</linearGradient>
				<path class="st43" d="M674.6,1800.9c0.3,0,0.6,0,0.9,0l388.2-0.4c9.6,0,17.4-7.7,17.4-17.2c0-9.5-7.8-17.3-17.4-17.2l-388.2,0.4
					c-9.6,0-17.4,7.7-17.4,17.2C658.1,1792.9,665.4,1800.4,674.6,1800.9z"/>
				
					<linearGradient id="SVGID_39_" gradientUnits="userSpaceOnUse" x1="-3998.4951" y1="1498.35" x2="-4219.1011" y2="1731.5171" gradientTransform="matrix(-1 0 0 1 -2965.6326 0)">
					<stop  offset="0" style="stop-color:#09005D"/>
					<stop  offset="1" style="stop-color:#1A0F91"/>
				</linearGradient>
				<path class="st44" d="M1412.7,1452.1h-323.3c-23.8,0-45.6,13.6-55.7,35l-149.5,313.6h401.8c15.4,0,29.2-9.3,34.8-23.4
					l115.9-290.2C1443.4,1470.3,1430.9,1452.1,1412.7,1452.1z"/>
				
					<ellipse transform="matrix(0.313 -0.9497 0.9497 0.313 -708.5497 2261.6799)" class="st1" cx="1209.1" cy="1620.6" rx="41" ry="25.4"/>
			</g>
		</g>
	</g>
</g>
</svg>
