<?xml version="1.0" encoding="utf-8"?>
<!-- Generator: Adobe Illustrator 23.0.5, SVG Export Plug-In . SVG Version: 6.00 Build 0)  -->
<svg version="1.1" xmlns="http://www.w3.org/2000/svg" xmlns:xlink="http://www.w3.org/1999/xlink" x="0px" y="0px"
	 viewBox="0 0 482.5 444.9" style="enable-background:new 0 0 482.5 444.9;" xml:space="preserve">
<style type="text/css">
	.st0{fill:none;stroke:#DEE3FC;stroke-width:0.7896;stroke-miterlimit:10;}
	.st1{fill:#DEE3FC;}
	.st2{fill:#A4AFFF;}
	.st3{fill:#FFFFFF;}
	.st4{fill:#002C54;}
	.st5{fill:none;stroke:#698BD1;stroke-linecap:round;stroke-linejoin:round;stroke-miterlimit:10;stroke-dasharray:2.837;}
	.st6{fill:#15467E;}
	.st7{fill:#009BCC;}
	.st8{fill:#B2C1F9;}
	.st9{fill:#5996EF;}
	.st10{fill:#F0F4FF;}
	.st11{fill:#E49191;}
	.st12{fill:#E5918F;}
	.st13{fill:#467CDB;}
	.st14{fill:#8DBD3F;}
	.st15{fill:none;stroke:#FFFFFF;stroke-width:0.8956;stroke-miterlimit:10;}
	.st16{fill:#FFFFFF;stroke:#495AD6;stroke-width:0.8956;stroke-miterlimit:10;}
	.st17{fill:none;stroke:#495AD6;stroke-width:1.6716;stroke-miterlimit:10;}
	.st18{fill:none;stroke:#495AD6;stroke-width:1.6716;stroke-linecap:round;stroke-miterlimit:10;}
	.st19{fill:#193091;}
	.st20{fill:none;stroke:#FFFFFF;stroke-width:0.8956;stroke-linecap:round;stroke-miterlimit:10;}
	.st21{fill:#6589D1;}
	.st22{fill:#3B5FB7;}
	.st23{fill:#B4C1EF;}
	.st24{fill:#7BBEA6;}
	.st25{fill:#FEFEFE;}
</style>
<g id="BACKGROUND">
</g>
<g id="OBJECTS">
	<g>
		<path class="st0" d="M203.1,108.8V98.6c0-1-0.8-1.8-1.8-1.8h-2.6c-0.8,0-1.5-0.5-1.6-1.3c-0.9-4-2.5-7.7-4.6-11.1
			c-0.4-0.7-0.3-1.5,0.2-2.1l1.9-1.9c0.7-0.7,0.7-1.9,0-2.6l-7.2-7.2c-0.7-0.7-1.9-0.7-2.6,0l-1.9,1.9c-0.6,0.6-1.4,0.6-2.1,0.2
			c-3.4-2.1-7.1-3.7-11.1-4.6c-0.8-0.2-1.3-0.9-1.3-1.6v-2.6c0-1-0.8-1.8-1.8-1.8h-10.2c-1,0-1.8,0.8-1.8,1.8v2.6
			c0,0.8-0.5,1.5-1.3,1.6c-4,0.9-7.7,2.5-11.1,4.6c-0.7,0.4-1.5,0.3-2.1-0.2l-1.9-1.9c-0.7-0.7-1.9-0.7-2.6,0l-7.2,7.2
			c-0.7,0.7-0.7,1.9,0,2.6l1.9,1.9c0.6,0.6,0.6,1.4,0.2,2.1c-2.1,3.4-3.7,7.1-4.6,11.1c-0.2,0.8-0.9,1.3-1.6,1.3h-2.6
			c-1,0-1.8,0.8-1.8,1.8v10.2c0,1,0.8,1.8,1.8,1.8h2.6c0.8,0,1.5,0.5,1.6,1.3c0.9,4,2.5,7.7,4.6,11.1c0.4,0.7,0.3,1.5-0.2,2.1
			l-1.9,1.9c-0.7,0.7-0.7,1.9,0,2.6l7.2,7.2c0.7,0.7,1.9,0.7,2.6,0l1.9-1.9c0.6-0.6,1.4-0.6,2.1-0.2c3.4,2.1,7.1,3.6,11.1,4.6
			c0.8,0.2,1.3,0.9,1.3,1.6v2.6c0,1,0.8,1.8,1.8,1.8h10.2c1,0,1.8-0.8,1.8-1.8v-2.6c0-0.8,0.5-1.5,1.3-1.6c4-0.9,7.7-2.5,11.1-4.6
			c0.7-0.4,1.5-0.3,2.1,0.2l1.9,1.9c0.7,0.7,1.9,0.7,2.6,0l7.2-7.2c0.7-0.7,0.7-1.9,0-2.6l-1.9-1.9c-0.6-0.6-0.6-1.4-0.2-2.1
			c2.1-3.4,3.7-7.1,4.6-11.1c0.2-0.8,0.9-1.3,1.6-1.3h2.6C202.3,110.6,203.1,109.8,203.1,108.8z M161.5,132.6
			c-16,0-28.9-12.9-28.9-28.9c0-15.9,12.9-28.9,28.9-28.9c16,0,28.9,12.9,28.9,28.9C190.4,119.7,177.4,132.6,161.5,132.6z"/>
		<path class="st1" d="M250.3,143.5v-7c0-0.7-0.6-1.2-1.2-1.2h-1.8c-0.5,0-1-0.4-1.1-0.9c-0.6-2.7-1.7-5.3-3.1-7.6
			c-0.3-0.5-0.2-1,0.2-1.4l1.3-1.3c0.5-0.5,0.5-1.3,0-1.7l-4.9-4.9c-0.5-0.5-1.3-0.5-1.7,0l-1.3,1.3c-0.4,0.4-1,0.4-1.4,0.1
			c-2.3-1.4-4.8-2.5-7.6-3.1c-0.5-0.1-0.9-0.6-0.9-1.1v-1.8c0-0.7-0.6-1.2-1.2-1.2h-7c-0.7,0-1.2,0.6-1.2,1.2v1.8
			c0,0.5-0.4,1-0.9,1.1c-2.7,0.6-5.3,1.7-7.6,3.1c-0.5,0.3-1,0.2-1.4-0.2l-1.3-1.3c-0.5-0.5-1.3-0.5-1.7,0l-4.9,4.9
			c-0.5,0.5-0.5,1.3,0,1.7l1.3,1.3c0.4,0.4,0.4,1,0.2,1.4c-1.4,2.3-2.5,4.8-3.1,7.6c-0.1,0.5-0.6,0.9-1.1,0.9h-1.8
			c-0.7,0-1.2,0.6-1.2,1.2v7c0,0.7,0.6,1.2,1.2,1.2h1.8c0.5,0,1,0.4,1.1,0.9c0.6,2.7,1.7,5.3,3.1,7.6c0.3,0.5,0.2,1-0.2,1.4
			l-1.3,1.3c-0.5,0.5-0.5,1.3,0,1.7l4.9,4.9c0.5,0.5,1.3,0.5,1.7,0l1.3-1.3c0.4-0.4,1-0.4,1.4-0.2c2.3,1.4,4.8,2.5,7.6,3.1
			c0.5,0.1,0.9,0.6,0.9,1.1v1.8c0,0.7,0.6,1.2,1.2,1.2h7c0.7,0,1.2-0.6,1.2-1.2v-1.8c0-0.5,0.4-1,0.9-1.1c2.7-0.6,5.3-1.7,7.5-3.1
			c0.5-0.3,1-0.2,1.4,0.2l1.3,1.3c0.5,0.5,1.3,0.5,1.7,0l4.9-4.9c0.5-0.5,0.5-1.3,0-1.7l-1.3-1.3c-0.4-0.4-0.4-1-0.2-1.4
			c1.4-2.3,2.5-4.8,3.1-7.6c0.1-0.5,0.6-0.9,1.1-0.9h1.8C249.7,144.8,250.3,144.2,250.3,143.5z M221.9,158.6
			c-10.3,0-18.6-8.3-18.6-18.6c0-10.2,8.3-18.6,18.6-18.6c10.3,0,18.6,8.3,18.6,18.6C240.5,150.3,232.2,158.6,221.9,158.6z"/>
	</g>
	<circle class="st2" cx="118.7" cy="325.1" r="3.4"/>
	<circle class="st2" cx="443.8" cy="70.6" r="2.1"/>
	<path class="st2" d="M132,42.3c0,1.2-1,2.1-2.1,2.1c-1.2,0-2.1-1-2.1-2.1c0-1.2,1-2.1,2.1-2.1C131,40.1,132,41.1,132,42.3z"/>
	<path class="st2" d="M179,173.1c0,1.2-1,2.1-2.1,2.1c-1.2,0-2.1-1-2.1-2.1c0-1.2,1-2.1,2.1-2.1C178,170.9,179,171.9,179,173.1z"/>
	<path class="st2" d="M101.1,328.5c0,1.2-1,2.1-2.1,2.1c-1.2,0-2.1-1-2.1-2.1c0-1.2,1-2.1,2.1-2.1
		C100.1,326.4,101.1,327.3,101.1,328.5z"/>
	<circle class="st2" cx="190.4" cy="33" r="3.4"/>
	<path class="st2" d="M424,187.1c0,2.5-2,4.5-4.5,4.5s-4.5-2-4.5-4.5c0-2.5,2-4.5,4.5-4.5S424,184.6,424,187.1z"/>
	<path class="st2" d="M89.8,131.1c0,2.5-2,4.5-4.5,4.5c-2.5,0-4.5-2-4.5-4.5s2-4.5,4.5-4.5C87.8,126.5,89.8,128.6,89.8,131.1z"/>
	<g>
		<path class="st3" d="M77.1,63.4h-5.7c-0.4,0-0.7-0.3-0.7-0.7v-5.7c0-0.4,0.3-0.7,0.7-0.7h5.7c0.4,0,0.7,0.3,0.7,0.7v5.7
			C77.7,63.1,77.4,63.4,77.1,63.4z"/>
		<path class="st3" d="M86.5,63.4h-5.7c-0.4,0-0.7-0.3-0.7-0.7v-5.7c0-0.4,0.3-0.7,0.7-0.7h5.7c0.4,0,0.7,0.3,0.7,0.7v5.7
			C87.1,63.1,86.8,63.4,86.5,63.4z"/>
		<path class="st3" d="M95.9,63.4h-5.7c-0.4,0-0.7-0.3-0.7-0.7v-5.7c0-0.4,0.3-0.7,0.7-0.7h5.7c0.4,0,0.7,0.3,0.7,0.7v5.7
			C96.5,63.1,96.2,63.4,95.9,63.4z"/>
	</g>
	<g>
		<g>
			<path class="st1" d="M121.2,306.3h-5.7c-0.4,0-0.7-0.3-0.7-0.7V300c0-0.4,0.3-0.7,0.7-0.7h5.7c0.4,0,0.7,0.3,0.7,0.7v5.7
				C121.9,306,121.6,306.3,121.2,306.3z"/>
			<path class="st1" d="M130.6,306.3h-5.7c-0.4,0-0.7-0.3-0.7-0.7V300c0-0.4,0.3-0.7,0.7-0.7h5.7c0.4,0,0.7,0.3,0.7,0.7v5.7
				C131.3,306,131,306.3,130.6,306.3z"/>
			<path class="st1" d="M140,306.3h-5.7c-0.4,0-0.7-0.3-0.7-0.7V300c0-0.4,0.3-0.7,0.7-0.7h5.7c0.4,0,0.7,0.3,0.7,0.7v5.7
				C140.6,306,140.4,306.3,140,306.3z"/>
		</g>
	</g>
	<path class="st4" d="M375.9,366.7H240.6c-11.8,0-21.3-9.6-21.3-21.3V44.2c0-11.8,9.6-21.3,21.3-21.3h135.3
		c11.8,0,21.3,9.6,21.3,21.3v301.2C397.2,357.2,387.7,366.7,375.9,366.7z"/>
	<path class="st3" d="M375.2,361.8H241.3c-10.3,0-18.7-8.4-18.7-18.7V44.6c0-10.3,8.4-18.7,18.7-18.7h133.9
		c10.3,0,18.7,8.4,18.7,18.7v298.6C393.9,353.5,385.5,361.8,375.2,361.8z"/>
	<path class="st1" d="M386.4,44v298.2c0,7-5.7,12.7-12.7,12.7h-131c-7,0-12.7-5.7-12.7-12.7V44c0-7,5.7-12.7,12.7-12.7h21.8
		c1.2,0,2.3,0.7,2.9,1.8l2.3,4.6c1.1,2.1,3.2,3.5,5.6,3.5h65.7c2.4,0,4.6-1.3,5.6-3.5l2.3-4.6c0.5-1.1,1.7-1.8,2.9-1.8h21.8
		C380.7,31.3,386.4,37,386.4,44z"/>
	<path class="st1" d="M335.8,35.8h-52.9c-1.2,0-2.2-1-2.2-2.2l0,0c0-1.2,1-2.2,2.2-2.2h52.9c1.2,0,2.2,1,2.2,2.2l0,0
		C338.1,34.8,337.1,35.8,335.8,35.8z"/>
	<path class="st5" d="M365.6,344.5H247.8c-4.6,0-8.4-3.8-8.4-8.4v-41.6c0-4.6,3.8-8.4,8.4-8.4h117.8c4.6,0,8.4,3.8,8.4,8.4v41.6
		C374,340.8,370.2,344.5,365.6,344.5z"/>
	<path class="st5" d="M359.6,201.3h-58.4c-3.3,0-6-2.7-6-6v-28.9c0-3.3,2.7-6,6-6h58.4c3.3,0,6,2.7,6,6v28.9
		C365.7,198.6,363,201.3,359.6,201.3z"/>
	<path class="st6" d="M372.2,276.4H251.5c-4,0-7.2-3.2-7.2-7.2v-50.9c0-4,3.2-7.2,7.2-7.2h120.7c4,0,7.2,3.2,7.2,7.2v50.9
		C379.4,273.2,376.2,276.4,372.2,276.4z"/>
	<path class="st7" d="M374,213.1V264c0,4-3.2,7.2-7.2,7.2H246.6c-4,0-7.2-3.2-7.2-7.2v-50.9c0-4,3.2-7.2,7.2-7.2h120.2
		C370.8,205.9,374,209.1,374,213.1z"/>
	<path class="st3" d="M285.9,265.9h-35.4c-2.7,0-4.9-2.2-4.9-4.9v-35.4c0-2.7,2.2-4.9,4.9-4.9h35.4c2.7,0,4.9,2.2,4.9,4.9V261
		C290.8,263.7,288.6,265.9,285.9,265.9z"/>
	<g>
		<path class="st8" d="M327.9,226.4h-31.2c-0.8,0-1.5-0.7-1.5-1.5l0,0c0-0.8,0.7-1.5,1.5-1.5h31.2c0.8,0,1.5,0.7,1.5,1.5l0,0
			C329.4,225.8,328.7,226.4,327.9,226.4z"/>
		<path class="st8" d="M313.7,232.6h-17c-0.8,0-1.5-0.7-1.5-1.5l0,0c0-0.8,0.7-1.5,1.5-1.5h17c0.8,0,1.5,0.7,1.5,1.5l0,0
			C315.2,231.9,314.5,232.6,313.7,232.6z"/>
		<path class="st8" d="M365.8,232.6h-45.9c-0.8,0-1.5-0.7-1.5-1.5l0,0c0-0.8,0.7-1.5,1.5-1.5h45.9c0.8,0,1.5,0.7,1.5,1.5l0,0
			C367.4,231.9,366.7,232.6,365.8,232.6z"/>
		<path class="st8" d="M323,238.7h-26.3c-0.8,0-1.5-0.7-1.5-1.5l0,0c0-0.8,0.7-1.5,1.5-1.5H323c0.8,0,1.5,0.7,1.5,1.5l0,0
			C324.5,238,323.8,238.7,323,238.7z"/>
		<path class="st8" d="M345.2,238.7h-16.5c-0.8,0-1.5-0.7-1.5-1.5l0,0c0-0.8,0.7-1.5,1.5-1.5h16.5c0.8,0,1.5,0.7,1.5,1.5l0,0
			C346.8,238,346.1,238.7,345.2,238.7z"/>
		<path class="st8" d="M365.8,238.7h-15.2c-0.8,0-1.5-0.7-1.5-1.5l0,0c0-0.8,0.7-1.5,1.5-1.5h15.2c0.8,0,1.5,0.7,1.5,1.5l0,0
			C367.4,238,366.7,238.7,365.8,238.7z"/>
		<path class="st8" d="M365.8,244.8h-69.1c-0.8,0-1.5-0.7-1.5-1.5l0,0c0-0.8,0.7-1.5,1.5-1.5h69.1c0.8,0,1.5,0.7,1.5,1.5l0,0
			C367.4,244.1,366.7,244.8,365.8,244.8z"/>
		<path class="st8" d="M334.8,251h-38.1c-0.8,0-1.5-0.7-1.5-1.5l0,0c0-0.8,0.7-1.5,1.5-1.5h38.1c0.8,0,1.5,0.7,1.5,1.5l0,0
			C336.3,250.3,335.6,251,334.8,251z"/>
		<path class="st8" d="M365.8,251h-25c-0.8,0-1.5-0.7-1.5-1.5l0,0c0-0.8,0.7-1.5,1.5-1.5h25c0.8,0,1.5,0.7,1.5,1.5l0,0
			C367.4,250.3,366.7,251,365.8,251z"/>
		<path class="st8" d="M319.1,257.1h-22.4c-0.8,0-1.5-0.7-1.5-1.5l0,0c0-0.8,0.7-1.5,1.5-1.5h22.4c0.8,0,1.5,0.7,1.5,1.5l0,0
			C320.6,256.4,319.9,257.1,319.1,257.1z"/>
		<path class="st8" d="M347.5,257.1h-22.4c-0.8,0-1.5-0.7-1.5-1.5l0,0c0-0.8,0.7-1.5,1.5-1.5h22.4c0.8,0,1.5,0.7,1.5,1.5l0,0
			C349,256.4,348.3,257.1,347.5,257.1z"/>
		<path class="st8" d="M365.8,257.1h-13c-0.8,0-1.5-0.7-1.5-1.5l0,0c0-0.8,0.7-1.5,1.5-1.5h13c0.8,0,1.5,0.7,1.5,1.5l0,0
			C367.4,256.4,366.7,257.1,365.8,257.1z"/>
		<path class="st8" d="M327.9,263.2h-31.2c-0.8,0-1.5-0.7-1.5-1.5l0,0c0-0.8,0.7-1.5,1.5-1.5h31.2c0.8,0,1.5,0.7,1.5,1.5l0,0
			C329.4,262.5,328.7,263.2,327.9,263.2z"/>
		<path class="st8" d="M365.8,226.4h-31.2c-0.8,0-1.5-0.7-1.5-1.5l0,0c0-0.8,0.7-1.5,1.5-1.5h31.2c0.8,0,1.5,0.7,1.5,1.5l0,0
			C367.4,225.8,366.7,226.4,365.8,226.4z"/>
	</g>
	<g>
		<g>
			<path class="st6" d="M374,213.1v2.1H239.4v-2.1c0-4,3.2-7.2,7.2-7.2h120.2C370.8,205.9,374,209.1,374,213.1z"/>
			<g>
				<path class="st6" d="M348.6,210.7c0,0.9-0.7,1.7-1.7,1.7s-1.7-0.7-1.7-1.7c0-0.9,0.7-1.7,1.7-1.7S348.6,209.8,348.6,210.7z"/>
				<path class="st6" d="M357.2,210.7c0,0.9-0.7,1.7-1.7,1.7c-0.9,0-1.7-0.7-1.7-1.7c0-0.9,0.7-1.7,1.7-1.7
					C356.4,209,357.2,209.8,357.2,210.7z"/>
				<path class="st6" d="M365.7,210.7c0,0.9-0.7,1.7-1.7,1.7s-1.7-0.7-1.7-1.7c0-0.9,0.7-1.7,1.7-1.7S365.7,209.8,365.7,210.7z"/>
			</g>
		</g>
	</g>
	<path class="st9" d="M281.1,201.3h-26.6c-3.9,0-7.2-3.2-7.2-7.2v-26.6c0-3.9,3.2-7.2,7.2-7.2h26.6c3.9,0,7.2,3.2,7.2,7.2v26.6
		C288.2,198.1,285,201.3,281.1,201.3z"/>
	<g>
		<polyline class="st3" points="261.4,174.9 255.5,180.8 261.4,186.8 		"/>
		<polyline class="st3" points="274.2,174.9 280.1,180.8 274.1,186.8 		"/>
		<line class="st3" x1="270.5" y1="174.9" x2="265" y2="186.8"/>
	</g>
	<path class="st7" d="M374,60.5v83.3c0,4.5-3.7,8.2-8.2,8.2H247.6c-4.5,0-8.2-3.7-8.2-8.2V60.5c0-4.5,3.7-8.2,8.2-8.2h118.2
		C370.3,52.3,374,56,374,60.5z"/>
	<circle class="st10" cx="346.7" cy="78.6" r="19.5"/>
	<path class="st3" d="M318.5,151.9h-70.9c-4.5,0-8.2-3.7-8.2-8.2v-13.1l31-53.8c1.6-2.8,5.7-2.8,7.3,0l23.4,40.6l17.4,30.1
		C319.4,149.1,319.3,150.7,318.5,151.9z"/>
	<path class="st10" d="M349.1,151.9h-67.8l19.9-34.5l10.7-18.6c1.5-2.5,5.1-2.5,6.6,0L349.1,151.9z"/>
	<path class="st11" d="M231.3,260.3l6.8-7c0,0,0.2-3.1,0.6-3.8c0.4-0.7,1.3-3.1,1.8-3.4c0.5-0.3,1.4,0,1.4,0s0.9-0.3,1.4-0.3
		c0.4,0,1.2,0.4,1.2,0.4s1-0.1,1.4-0.1c0.4,0,0.6,0.1,0.6,0.1s1.6-1.9,2.4-2.5c0.8-0.6,2-1.8,2.4-1.8c0.3,0,0.5,0.6,0.2,1.2
		c-0.2,0.6-1.3,1.7-1.3,1.7l-3.1,4.7c0,0,0.5-0.2,0.8-0.4c0.3-0.2,2.2-1.9,2.3-2c0.1-0.1,1-0.6,1.5-0.1s-3.3,5.1-3.9,5.7
		c-0.6,0.6-4,2.3-4,2.3s-3.6,6.5-4,7C239.5,262.5,231.3,260.3,231.3,260.3z"/>
	<path class="st11" d="M237.7,228.1c0,0-3.8,22.1-7.4,22.6c0,0-14.3,0.6-17.5-16.8c-2.8-15,8.3-18.3,13.5-17.1
		C231.5,217.9,238.8,218.7,237.7,228.1z"/>
	<path class="st11" d="M225.1,247.1c0,0-2,2.7-2.7,9.2c0,0-6,0.9-11.5-2c0,0,3-9.2,3.3-19.2"/>
	<path class="st4" d="M221,213.1c-7.8,1.7-7.2,6.6-7.2,6.6c-3.7,0.9-4.4,2.4-4.4,9.2c0,6.8,2.5,14.9,3.8,15.5c1.3,0.7,9,0.7,9.6,0.5
		c0.6-0.2,3.3-6.4,2.7-7.5c-0.6-1.1,0-5.4,1.8-5.5c1.8-0.2,1.4,2.6,1.4,2.6l1.5-0.3l1.1-2.8c10.3,0.6,13-11.2,13-11.2
		C241.9,218.5,228.9,211.3,221,213.1z"/>
	<path class="st12" d="M134.3,362.4l7.9,1.1l-2.6,9.2l-8.6-2.2c0,0-3.5-4.7,1.8-8.2C133,362.2,133.9,362.3,134.3,362.4z"/>
	<path d="M193.3,338.6l-11.7-35.3c0,0-3.5-1.3-5.3,0c0,0-12.1,6.5-10.8,25.1c1,14,3.9,29.2,5.1,35.3l-31.1-1.1c0,0-3.8,4.6-1.4,10.5
		c0,0,39.1,10.5,44.6,11.5c4.5,0.8,9.4,1.4,11.7-0.6C198.6,380.5,193.3,338.6,193.3,338.6z"/>
	<path class="st12" d="M171.1,362.4l7.9,1.1l-2.6,9.2l-8.6-2.2c0,0-3.5-4.7,1.8-8.2C169.8,362.2,170.7,362.3,171.1,362.4z"/>
	<path class="st13" d="M168.2,367.2c-0.2,1.8,1.4,3.5,1.1,3.9c-0.3,0.5-5.6,9.4-5.6,9.4s4,1.7,3.4,4.3h-10.2c0,0-2.7-2.4-2.6-5.8
		c0,0,0.7-3.9,2.5-7.4s5.9-11.4,5.9-11.4s1.2-0.5,3.4,0.1c2.5,0.7,4.9,2.2,4.9,2.2S168.6,362.7,168.2,367.2z"/>
	<path class="st4" d="M249.6,376.6c-2.5-9.4-26.1-49.3-34.1-60.1c-16.4-7.1-33.9-13.2-33.9-13.2c-7.2,1.7-10.8,16.3-6.7,26
		c2.8,6.7,20.7,23.4,31.6,33.3l-30.3,0c0,0-3.6,5.3-0.3,10.4c0,0,50.4,11.5,54.8,12.1c4.4,0.6,14.3,0,14.3,0
		S251.7,384.5,249.6,376.6z"/>
	<path class="st13" d="M131.4,367.2c-0.2,1.8,1.4,3.5,1.1,3.9c-0.3,0.5-5.6,9.4-5.6,9.4s4,1.7,3.4,4.3h-10.2c0,0-2.7-2.4-2.6-5.8
		c0,0,0.7-3.9,2.5-7.4s5.9-11.4,5.9-11.4s1.2-0.5,3.4,0.1c2.5,0.7,4.9,2.2,4.9,2.2S131.8,362.7,131.4,367.2z"/>
	<path class="st11" d="M287.5,253.5l-16.3,28.6l-11.6-11.6l-9.6,14.3l2.8,1.3l-1,0.8c0,0,22.5,10.9,25.2,8.5
		c2.7-2.4,15.2-38.8,15.2-38.8L287.5,253.5z"/>
	<path class="st14" d="M261.7,272.4c0,0-3.1,12.9-9.2,19.1l-15.7-6c0,0-7.3,12.3-14.4,21.7c-2.7,3.6-3.6,8.7-6.9,9.4
		c-0.2-0.1-0.4-0.1-0.6-0.2c-8.7-2.6-21.6,0.2-32.2-3.8c-11.7-4.4-9.5-6.8-9.5-6.8s7.1-12.8,11.2-26.4c1.8-6,3.1-11.6,3.9-15.9
		c1.5-7.7,7.7-13.7,15.4-14.8c0.1,0,0.2,0,0.3,0c8.9-1.1,32.2,1.6,36.7,3.6C245.2,254.1,261.7,272.4,261.7,272.4z"/>
	<path class="st9" d="M236.8,285.5c0,0-7.3,12.3-14.4,21.7c-2.7,3.6-3.6,8.7-6.9,9.4c1.4-0.5,3.8-7.9,4.6-9.6
		c0.8-1.7,2.2-3.3,5.1-9.2c2.9-5.8,6.8-14.4,6.8-14.4L236.8,285.5z"/>
	<g>
		<path d="M206.5,362.7c0,0,0.2-0.1,0.7-0.1c0.4,0,1.1-0.1,1.8-0.2c1.5-0.1,3.5,0,5.5,0.3c1,0.1,2,0.3,2.9,0.5
			c0.9,0.2,1.8,0.5,2.5,0.7c0.7,0.2,1.3,0.5,1.7,0.7c0.4,0.2,0.6,0.3,0.6,0.3s-0.3,0-0.7-0.1c-0.4-0.1-1-0.2-1.8-0.3
			c-1.5-0.2-3.4-0.6-5.4-0.8c-1-0.2-2-0.3-2.9-0.4c-0.9-0.1-1.8-0.2-2.5-0.3C207.5,362.8,206.5,362.7,206.5,362.7z"/>
	</g>
	<path class="st11" d="M299.7,243c-0.3,0-1.9,1.3-2.7,2l0.9-1.8c0,0,1.2-1.2,1.7-1.8c0.4-0.7,0.2-1.3-0.1-1.3
		c-0.2,0-1.7,1.1-2.6,1.8l0.2-0.4c0,0,1.2-1.2,1.7-1.8c0.4-0.7,0.2-1.3-0.1-1.3c-0.3,0-3.2,2.3-3.2,2.3l-1.4,1.8l1-2
		c0,0,0.5-0.7,0.9-1.4s0.1-0.9-0.1-1.2c-0.2-0.2-2.1,1.2-2.6,1.7c-0.5,0.6-2,2.9-2.1,3.2l-1.6,3.3c-0.1-1-0.3-2.6-0.4-3.6
		c-0.2-1.5-1.5-1.8-1.6-1.1c0,0.7-0.8,4.3-0.6,6.2c0.2,1.9,0.5,3.2,0.6,4.3c0.1,1.1-1,3.3-1,3.3s4.5,2.8,5.3,2
		c0.7-0.8,2.3-2.7,3.1-4c1.1-1.7,1.8-4,1.8-4l1.4-3c0,0,1.2-1.2,1.7-1.8C300.3,243.7,300,243,299.7,243z"/>
	<g>
		<path class="st15" d="M140.1,206.9h53.1c3.4,0,6.2,2.8,6.2,6.2v12.5c0,3.1-2.3,5.7-5.4,6.1c-0.4,0.1-0.8,0.4-0.8,0.9v6.9
			c0,0.4-0.5,0.6-0.7,0.2l-5.4-7.6c-0.2-0.2-0.4-0.4-0.7-0.4h-46.2c-3.4,0-6.2-2.8-6.2-6.2v-12.5C134,209.6,136.7,206.9,140.1,206.9
			z"/>
		<g>
			<path class="st15" d="M185.1,219.3c0,1.1,0.9,2,2,2c1.1,0,2-0.9,2-2c0-1.1-0.9-2-2-2C186,217.3,185.1,218.2,185.1,219.3z"/>
			<path class="st15" d="M174.8,219.3c0,1.1,0.9,2,2,2c1.1,0,2-0.9,2-2c0-1.1-0.9-2-2-2C175.8,217.3,174.8,218.2,174.8,219.3z"/>
			<path class="st15" d="M164.6,219.3c0,1.1,0.9,2,2,2c1.1,0,2-0.9,2-2c0-1.1-0.9-2-2-2C165.5,217.3,164.6,218.2,164.6,219.3z"/>
			<path class="st15" d="M154.4,219.3c0,1.1,0.9,2,2,2c1.1,0,2-0.9,2-2c0-1.1-0.9-2-2-2C155.3,217.3,154.4,218.2,154.4,219.3z"/>
			<path class="st15" d="M144.2,219.3c0,1.1,0.9,2,2,2c1.1,0,2-0.9,2-2c0-1.1-0.9-2-2-2C145.1,217.3,144.2,218.2,144.2,219.3z"/>
		</g>
	</g>
	<g>
		<path class="st16" d="M460.6,123h-96.7c-5.3,0-9.7-4.3-9.7-9.7l0,0c0-5.3,4.3-9.7,9.7-9.7h96.7c5.3,0,9.7,4.3,9.7,9.7l0,0
			C470.3,118.7,465.9,123,460.6,123z"/>
		<g>
			<path class="st17" d="M459.2,112.7c0,2.8-2.3,5.1-5.1,5.1c-2.8,0-5.1-2.3-5.1-5.1c0-2.8,2.3-5.1,5.1-5.1
				C456.9,107.6,459.2,109.9,459.2,112.7z"/>
			<line class="st18" x1="457.7" y1="116.3" x2="460.5" y2="119.2"/>
		</g>
	</g>
	<path class="st7" d="M314.1,385.7h-24.3c-4.3,0-7.7-3.5-7.7-7.7v-24.3c0-4.3,3.5-7.7,7.7-7.7h24.3c4.3,0,7.7,3.5,7.7,7.7V378
		C321.8,382.2,318.3,385.7,314.1,385.7z"/>
	<path class="st6" d="M306.8,385.7h-24.3c-4.3,0-7.7-3.5-7.7-7.7v-24.3c0-4.3,3.5-7.7,7.7-7.7h24.3c4.3,0,7.7,3.5,7.7,7.7V378
		C314.6,382.2,311.1,385.7,306.8,385.7z"/>
	<path class="st3" d="M290,358.3l11.4,6.6c0.7,0.4,0.7,1.4,0,1.8l-11.4,6.6c-0.7,0.4-1.6-0.1-1.6-0.9v-13.2
		C288.4,358.4,289.3,357.9,290,358.3z"/>
	<g>
		<path class="st10" d="M424.2,134.1h-20.4c-0.8,0-1.5-0.7-1.5-1.5l0,0c0-0.8,0.7-1.5,1.5-1.5h20.4c0.8,0,1.5,0.7,1.5,1.5l0,0
			C425.7,133.5,425.1,134.1,424.2,134.1z"/>
		<path class="st10" d="M444.6,134.1h-14.8c-0.8,0-1.5-0.7-1.5-1.5l0,0c0-0.8,0.7-1.5,1.5-1.5h14.8c0.8,0,1.5,0.7,1.5,1.5l0,0
			C446.2,133.5,445.5,134.1,444.6,134.1z"/>
		<path class="st10" d="M412.5,140.9h-8.7c-0.8,0-1.5-0.7-1.5-1.5l0,0c0-0.8,0.7-1.5,1.5-1.5h8.7c0.8,0,1.5,0.7,1.5,1.5l0,0
			C414,140.2,413.3,140.9,412.5,140.9z"/>
		<path class="st10" d="M444.6,140.9h-27c-0.8,0-1.5-0.7-1.5-1.5l0,0c0-0.8,0.7-1.5,1.5-1.5h27c0.8,0,1.5,0.7,1.5,1.5l0,0
			C446.2,140.2,445.5,140.9,444.6,140.9z"/>
		<path class="st10" d="M430.7,147.6h-26.9c-0.8,0-1.5-0.7-1.5-1.5l0,0c0-0.8,0.7-1.5,1.5-1.5h26.9c0.8,0,1.5,0.7,1.5,1.5l0,0
			C432.2,147,431.6,147.6,430.7,147.6z"/>
		<path class="st10" d="M444.6,147.6H436c-0.8,0-1.5-0.7-1.5-1.5l0,0c0-0.8,0.7-1.5,1.5-1.5h8.7c0.8,0,1.5,0.7,1.5,1.5l0,0
			C446.2,147,445.5,147.6,444.6,147.6z"/>
	</g>
	<g>
		<path class="st19" d="M165.5,290.9H94.2c-2.1,0-3.8-1.7-3.8-3.8v-36c0-2.1,1.7-3.8,3.8-3.8h71.3c2.1,0,3.8,1.7,3.8,3.8v36
			C169.3,289.2,167.6,290.9,165.5,290.9z"/>
		<line class="st20" x1="93.7" y1="253.2" x2="166" y2="253.2"/>
		<circle class="st3" cx="164.1" cy="250.2" r="0.9"/>
		<circle class="st3" cx="159.5" cy="250.2" r="0.9"/>
		<circle class="st3" cx="155" cy="250.2" r="0.9"/>
		<g>
			<g>
				<path class="st21" d="M107.2,259.1H94.9c-0.7,0-1.2-0.5-1.2-1.2l0,0c0-0.7,0.5-1.2,1.2-1.2h12.3c0.7,0,1.2,0.5,1.2,1.2l0,0
					C108.4,258.5,107.9,259.1,107.2,259.1z"/>
				<path class="st21" d="M107.2,264.6H94.9c-0.7,0-1.2-0.5-1.2-1.2l0,0c0-0.7,0.5-1.2,1.2-1.2h12.3c0.7,0,1.2,0.5,1.2,1.2l0,0
					C108.4,264.1,107.9,264.6,107.2,264.6z"/>
				<path class="st21" d="M107.2,270.2H94.9c-0.7,0-1.2-0.5-1.2-1.2l0,0c0-0.7,0.5-1.2,1.2-1.2h12.3c0.7,0,1.2,0.5,1.2,1.2l0,0
					C108.4,269.7,107.9,270.2,107.2,270.2z"/>
				<path class="st21" d="M107.2,275.8H94.9c-0.7,0-1.2-0.5-1.2-1.2l0,0c0-0.7,0.5-1.2,1.2-1.2h12.3c0.7,0,1.2,0.5,1.2,1.2l0,0
					C108.4,275.3,107.9,275.8,107.2,275.8z"/>
				<path class="st21" d="M107.2,281.4H94.9c-0.7,0-1.2-0.5-1.2-1.2l0,0c0-0.7,0.5-1.2,1.2-1.2h12.3c0.7,0,1.2,0.5,1.2,1.2l0,0
					C108.4,280.9,107.9,281.4,107.2,281.4z"/>
				<path class="st21" d="M107.2,287H94.9c-0.7,0-1.2-0.5-1.2-1.2l0,0c0-0.7,0.5-1.2,1.2-1.2h12.3c0.7,0,1.2,0.5,1.2,1.2l0,0
					C108.4,286.4,107.9,287,107.2,287z"/>
			</g>
			<g>
				<path class="st22" d="M164.8,259.1h-52.8c-0.7,0-1.2-0.5-1.2-1.2l0,0c0-0.7,0.5-1.2,1.2-1.2h52.8c0.7,0,1.2,0.5,1.2,1.2l0,0
					C166,258.5,165.4,259.1,164.8,259.1z"/>
				<path class="st22" d="M164.8,264.6h-52.8c-0.7,0-1.2-0.5-1.2-1.2l0,0c0-0.7,0.5-1.2,1.2-1.2h52.8c0.7,0,1.2,0.5,1.2,1.2l0,0
					C166,264.1,165.4,264.6,164.8,264.6z"/>
				<path class="st22" d="M164.8,270.2h-52.8c-0.7,0-1.2-0.5-1.2-1.2l0,0c0-0.7,0.5-1.2,1.2-1.2h52.8c0.7,0,1.2,0.5,1.2,1.2l0,0
					C166,269.7,165.4,270.2,164.8,270.2z"/>
				<path class="st22" d="M164.8,275.8h-52.8c-0.7,0-1.2-0.5-1.2-1.2l0,0c0-0.7,0.5-1.2,1.2-1.2h52.8c0.7,0,1.2,0.5,1.2,1.2l0,0
					C166,275.3,165.4,275.8,164.8,275.8z"/>
				<path class="st22" d="M164.8,281.4h-52.8c-0.7,0-1.2-0.5-1.2-1.2l0,0c0-0.7,0.5-1.2,1.2-1.2h52.8c0.7,0,1.2,0.5,1.2,1.2l0,0
					C166,280.9,165.4,281.4,164.8,281.4z"/>
				<path class="st22" d="M164.8,287h-52.8c-0.7,0-1.2-0.5-1.2-1.2l0,0c0-0.7,0.5-1.2,1.2-1.2h52.8c0.7,0,1.2,0.5,1.2,1.2l0,0
					C166,286.4,165.4,287,164.8,287z"/>
			</g>
		</g>
	</g>
	<path class="st6" d="M117.9,218.9H82.2c-5.3,0-9.6-4.3-9.6-9.6v-35.7c0-5.3,4.3-9.6,9.6-9.6h35.7c5.3,0,9.6,4.3,9.6,9.6v35.7
		C127.5,214.7,123.2,218.9,117.9,218.9z"/>
	<path class="st7" d="M115.6,214.2H76.1c-4.2,0-7.7-3.4-7.7-7.7V167c0-4.2,3.4-7.7,7.7-7.7h39.5c4.2,0,7.7,3.4,7.7,7.7v39.5
		C123.2,210.8,119.8,214.2,115.6,214.2z"/>
	<path class="st6" d="M105.3,180.5H105v-3.1c0-5.2-4.2-9.4-9.3-9.4c-5.2,0-9.3,4.2-9.3,9.4v3.1h-0.1c-1.4,0-2.6,1.2-2.6,2.6V195
		c0,1.4,1.2,2.6,2.6,2.6h19c1.4,0,2.6-1.2,2.6-2.6v-11.8C107.9,181.7,106.7,180.5,105.3,180.5z M88.7,177.4c0-3.8,3.1-7,7-7
		c3.8,0,7,3.1,7,7v3.1h-14V177.4z"/>
	<path class="st3" d="M98.9,186.6c0-1.9-1.7-3.4-3.7-3c-1.2,0.2-2.1,1.2-2.4,2.3c-0.3,1.4,0.4,2.7,1.4,3.3c0.2,0.1,0.3,0.4,0.3,0.6
		l-0.5,2c-0.3,1.2,0.6,2.3,1.8,2.3c1.2,0,2.1-1.1,1.8-2.3l-0.5-1.9c-0.1-0.2,0.1-0.5,0.3-0.6C98.2,188.7,98.9,187.7,98.9,186.6z"/>
	<path class="st1" d="M106.8,201.7h-22c-0.6,0-1.1-0.5-1.1-1.1l0,0c0-0.6,0.5-1.1,1.1-1.1h22c0.6,0,1.1,0.5,1.1,1.1l0,0
		C107.9,201.2,107.4,201.7,106.8,201.7z"/>
	<path class="st1" d="M106.8,205.5h-22c-0.6,0-1.1-0.5-1.1-1.1l0,0c0-0.6,0.5-1.1,1.1-1.1h22c0.6,0,1.1,0.5,1.1,1.1l0,0
		C107.9,205,107.4,205.5,106.8,205.5z"/>
	<g>
		<path class="st10" d="M160.1,180.9h-12.5c-0.8,0-1.4-0.6-1.4-1.4l0,0c0-0.8,0.6-1.4,1.4-1.4h12.5c0.8,0,1.4,0.6,1.4,1.4l0,0
			C161.5,180.2,160.9,180.9,160.1,180.9z"/>
		<path class="st10" d="M172.7,186.9h-25.1c-0.8,0-1.4-0.6-1.4-1.4l0,0c0-0.8,0.6-1.4,1.4-1.4h25.1c0.8,0,1.4,0.6,1.4,1.4l0,0
			C174.1,186.3,173.5,186.9,172.7,186.9z"/>
		<path class="st10" d="M150.6,193h-3c-0.8,0-1.4-0.6-1.4-1.4l0,0c0-0.8,0.6-1.4,1.4-1.4h3c0.8,0,1.4,0.6,1.4,1.4l0,0
			C151.9,192.4,151.3,193,150.6,193z"/>
		<path class="st10" d="M172.7,193h-17.5c-0.8,0-1.4-0.6-1.4-1.4l0,0c0-0.8,0.6-1.4,1.4-1.4h17.5c0.8,0,1.4,0.6,1.4,1.4l0,0
			C174.1,192.4,173.5,193,172.7,193z"/>
		<path class="st10" d="M172.7,180.9h-7.6c-0.8,0-1.4-0.6-1.4-1.4l0,0c0-0.8,0.6-1.4,1.4-1.4h7.6c0.8,0,1.4,0.6,1.4,1.4l0,0
			C174.1,180.2,173.5,180.9,172.7,180.9z"/>
	</g>
	<path class="st3" d="M102.2,367.8c-1.6,0-3.2,0.4-4.5,1.2c-0.5-4.7-4.5-8.3-9.3-8.3c-5.2,0-9.3,4.2-9.3,9.3c0,0.3,0,0.7,0.1,1
		c-0.4-0.1-0.9-0.1-1.3-0.1c-3.9,0-7.1,3.2-7.1,7.1c0,3.9,3.2,7.1,7.1,7.1h24.4c4.8,0,8.7-3.9,8.7-8.7
		C110.9,371.7,107,367.8,102.2,367.8z"/>
	<g>
		<path class="st1" d="M40.3,330.3c-0.2-1.3-0.2-2.6,0.1-3.9c1.1-4.3,2.4-12.4-0.4-21.1c-4.7-14.6-23.6-27.5-23.6-27.5
			s5.1,21.5,9.4,30.7c3.1,6.7,8.5,14.3,11.5,18.4c0.8,1.1,1.4,2.4,1.7,3.8c3.1,16.9,2.6,30,2.6,30.3l1.4,0.1
			C42.9,360.7,43.4,347.4,40.3,330.3z"/>
		<path class="st23" d="M55.4,316.6c3.8-11.9,5.5-25.9,5.5-25.9s-17,14-18.4,24.8c-0.9,6.6,0.2,12,1.2,15.1c0.4,1.3,0.5,2.7,0.4,4.1
			c-1.7,15.9-0.4,28.2-0.4,28.4l1.3-0.1c0-0.2-1.3-11.6,0.2-26.6c0.2-2.1,1-4,2.3-5.6C50,327.7,53.5,322.7,55.4,316.6z"/>
		<path class="st1" d="M72.6,290.1c0,0-18.3,6.8-23.1,21.7c-2.9,9.1-1.5,17.5-0.4,21.8c0.3,1.2,0.3,2.5,0,3.7
			c-4.3,17.2-4.4,35-4.4,35.2h1.5c0-0.2,0.1-17.6,4.2-34.5c0.4-1.7,1.1-3.2,2.2-4.6c3.1-4.2,8.4-11.8,11.5-18.4
			C68.5,305.7,72.6,290.1,72.6,290.1z"/>
		<path class="st23" d="M40.4,353.2c-0.5-6.3-2.2-11.9-4.2-16.6c-0.4-0.9-0.6-2-0.4-3c0.3-2,0.4-5-0.4-8.9
			c-1.5-7.3-11.2-23.2-25.3-24.1c0,0,4.9,7.8,7.4,14.3c3.2,8.3,7.7,16.9,15.2,20.2c1.3,0.6,2.3,1.7,2.9,3c1.8,4.4,3.3,9.5,3.7,15.1
			L40.4,353.2z"/>
		<g>
			<g>
				<path class="st1" d="M30.8,385.2h23.2l6-36.8c0.3-1.6-1-3.1-2.6-3.1h-30c-1.7,0-2.9,1.5-2.6,3.1L30.8,385.2z"/>
			</g>
		</g>
	</g>
	<path class="st24" d="M679.6,501.8c0.7-1.3,1.3-1.1,2,0C681,501.8,680.3,501.8,679.6,501.8z"/>
	<path class="st7" d="M155.4,125.7c-0.1,0-0.2,0-0.3,0c-0.6-0.1-1.2-0.1-1.8-0.2c-2.3-0.5-4.4-1.4-6.4-2.8c-3.1-2.2-5.2-5-6.5-8.6
		c-0.6-1.7-0.9-3.5-1-5.3c0-3.3,0-6.6,0-9.9c0-4,1.3-7.6,3.9-10.8c2.4-2.9,5.3-4.9,8.9-5.9c1.4-0.4,2.8-0.6,4.3-0.6
		c3.3,0,6.6,0,9.9,0c4.6,0.1,8.6,1.7,11.9,4.9c2.8,2.7,4.5,6.1,5.1,9.9c0.1,0.8,0.2,1.5,0.2,2.3c0,3.3,0,6.6,0,9.9
		c0,0.2,0.1,0.4-0.1,0.6c-0.3-0.1-0.2-0.3-0.2-0.4c0-0.5,0-1,0-1.5c0-0.3-0.1-0.6-0.3-0.8c-1.4-1.3-2.6-2.8-3.9-4.1
		c-1.7-1.8-3.5-3.7-5.2-5.5c-1.9-1.9-4.1-3.1-6.8-3.5c-0.3,0-0.6-0.1-0.9-0.1c-0.1,0-0.1,0-0.2-0.1c-0.6-0.4-0.6-0.6-0.1-1.1
		c0.3-0.3,0.6-0.6,0.9-0.9c0.2-0.2,0.3-0.4,0.1-0.6c-0.2-0.2-0.4-0.1-0.5,0.1c-0.4,0.3-0.8,0.7-1.2,1.1c-0.3,0.3-0.6,0.4-1,0.2
		c-1.7-0.6-3.4-0.6-5,0c-0.3,0.1-0.6,0.1-0.8-0.2c-0.4-0.4-0.8-0.7-1.2-1.1c-0.1-0.1-0.2-0.2-0.3-0.2c-0.2-0.1-0.3-0.1-0.4,0.1
		c-0.1,0.1-0.1,0.3,0,0.4c0.2,0.3,0.5,0.5,0.7,0.7c0.2,0.2,0.3,0.3,0.5,0.5c0.2,0.2,0.2,0.4,0,0.6c-0.3,0.3-0.5,0.5-0.8,0.8
		c-0.9,0.9-1.4,2-1.6,3.3c-0.1,0.5,0,0.6,0.5,0.6c3.9,0,7.9,0,11.8,0c0.2,0,0.4,0,0.6,0c0.1,0,0.2,0,0.2,0.2
		c-0.2,0.2-0.5,0.2-0.7,0.2c-3.6,0-7.2,0-10.8,0c-0.2,0-0.4,0-0.6,0c-0.2,0-0.4,0.2-0.5,0.3c-0.1,0.1-0.1,0.2,0.1,0.2
		c0.1,0,0.3,0,0.4,0c3.7,0,7.4,0,11.1,0c0.2,0,0.4,0,0.6,0c0.2,0,0.4,0,0.4,0.3c-0.2,0.2-0.5,0.2-0.7,0.2c-3.9,0-7.7,0-11.6,0
		c-0.9,0-0.9,0-0.9,0.8c0,3.1,0,6.2,0,9.2c0,0.2,0,0.5-0.1,0.7c-0.1,0.1-0.2,0-0.3-0.1c-0.1-0.1-0.1-0.3-0.1-0.5c0-3.1,0-6.2,0-9.2
		c-0.2,0.4-0.3,0.8-0.5,1.3c-0.1,0.1-0.1,0.3-0.3,0.4c-0.2-0.1-0.2-0.3-0.2-0.5c0-0.3,0-0.6-0.1-0.9c-0.2-0.8-0.8-1.3-1.6-1.2
		c-0.7,0.1-1.3,0.7-1.3,1.4c0,2.5,0,5,0,7.5c0,0.6,0.3,1.1,0.9,1.3c0.6,0.2,1.1,0.1,1.6-0.3c0.2-0.2,0.3-0.4,0.5-0.5
		c0.2,0,0.2,0.2,0.2,0.3c0.5,2.2,1.7,4.1,3.3,5.7c0.1,0.1,0.1,0.3,0.2,0.4c0.2,0.4,0.4,0.7,0.8,0.8c0.1,0.1,0.3,0.1,0.4,0.2
		c0.3,0.5,0.8,0.9,1.2,1.3c1.3,1.4,2.6,2.8,4,4.2c1.1,1.1,2.1,2.3,3.2,3.4c0.2,0.2,0.5,0.4,0.4,0.8c-3.9,0-7.8,0-11.7,0
		C155.5,125.7,155.4,125.7,155.4,125.7z"/>
	<path class="st6" d="M166.1,93.3c0.5-0.1,1,0,1.5,0.1c2.1,0.4,4,1.4,5.6,2.9c1.4,1.3,2.7,2.8,4,4.2c0.5,0.6,1.1,1.1,1.6,1.7
		c0.8,0.9,1.7,1.7,2.5,2.6c0.6,0.6,1.2,1.2,1.8,1.8c0.2,0.2,0.3,0.4,0.3,0.7c0,0.7,0,1.4,0,2.1c0.2,0.3,0.1,0.6,0.1,0.9
		c-0.5,4-2.1,7.5-4.9,10.4c-2.4,2.5-5.3,4-8.6,4.8c-0.7,0.2-1.5,0.1-2.2,0.3c-0.2,0-0.3,0-0.5,0c-0.1-0.3-0.3-0.5-0.4-0.6
		c-0.7-0.8-1.5-1.5-2.2-2.3c-1.2-1.3-2.4-2.5-3.6-3.8c-0.8-0.9-1.6-1.7-2.4-2.6c-0.1-0.1-0.2-0.1-0.1-0.2c0.1-0.1,0.3-0.2,0.4-0.2
		c0.8-0.1,1.3-0.7,1.3-1.7c0-0.9,0-1.8,0-2.6c0-0.9,0.1-1,1-1c0.3,0,0.6,0,0.9,0c0.5,0,0.7,0.2,0.7,0.7c0,0.9,0,1.8,0,2.6
		c0,0.3,0,0.5,0.1,0.8c0.2,0.9,0.8,1.2,1.5,1.2c0.8,0,1.4-0.6,1.5-1.5c0-1,0-2,0-3c0-0.7,0.1-0.9,0.8-0.9c1,0,1.4-0.4,1.4-1.4
		c0-3.2,0-6.3,0-9.5c0-0.2,0-0.5,0.2-0.7c-0.1-0.2-0.3-0.1-0.5-0.1c-4,0-8,0-12,0c-0.1,0-0.4,0.1-0.4-0.1c-0.1-0.1,0.1-0.2,0.2-0.4
		c0.2-0.4,0.5-0.5,0.9-0.5c3.8,0,7.6,0,11.3,0c0.2,0,0.4,0.1,0.5-0.1c-0.2-0.1-0.2-0.4-0.2-0.6c-0.1-1.3-0.7-2.4-1.5-3.4
		C166.3,93.7,166,93.6,166.1,93.3z"/>
	<path class="st25" d="M168.2,99c0,3.4,0,6.8,0,10.3c0,1.1-0.4,1.5-1.5,1.5c-0.7,0-0.7,0-0.7,0.7c0,1,0,1.9,0,2.9
		c0,1-0.7,1.7-1.6,1.8c-1,0-1.7-0.7-1.7-1.7c0-1.1,0-2.2,0-3.2c0-0.3-0.1-0.4-0.4-0.4c-0.5,0-1,0-1.5,0c-0.3,0-0.3,0.1-0.3,0.3
		c0,1,0,2.1,0,3.1c0,1.3-0.6,1.9-1.9,2c-0.8-0.2-1.3-0.7-1.5-1.5c-0.1-0.2-0.2-0.4-0.2-0.7c0-0.8,0-1.6,0-2.4c0-0.6,0-0.6-0.6-0.6
		c-0.4,0-0.8-0.1-1.2-0.4c-0.2-0.2-0.3-0.3-0.2-0.6c0-1.9,0-3.8,0-5.6c0-1.7,0-3.4,0-5c0-0.2,0-0.4,0.3-0.4c4.3,0,8.6,0,12.9,0
		C168.1,99,168.1,99,168.2,99z"/>
	<path class="st25" d="M166.1,93.3c1.3,1.3,2,2.8,2.1,4.6c-0.2,0.1-0.3,0-0.5,0c-4.1,0-8.3,0-12.4,0c-0.4,0-0.5,0-0.5-0.5
		c0.2-1.9,1-3.4,2.5-4.6c0.1,0,0.1-0.1,0.2-0.1c0,0,0,0,0,0c-0.4-0.5-0.9-0.9-1.3-1.4c-0.3-0.3-0.4-0.5-0.1-0.8
		c0.2-0.3,0.6-0.2,0.9,0.1c0.4,0.4,0.9,0.8,1.3,1.3c0.2,0.2,0.3,0.2,0.6,0.1c1.8-0.7,3.6-0.7,5.3,0c0.2,0.1,0.4,0,0.5-0.1
		c0.4-0.4,0.9-0.8,1.3-1.3c0.3-0.3,0.7-0.3,0.9-0.1c0.2,0.2,0.1,0.5-0.2,0.9c-0.4,0.4-0.8,0.9-1.2,1.3
		C165.7,92.9,165.9,93.1,166.1,93.3z"/>
	<path class="st25" d="M153.6,108.6c-0.5,1-1.3,1.3-2.2,1c-0.6-0.2-1.1-0.8-1.1-1.5c0-2.5,0-5,0-7.5c0-0.9,0.7-1.5,1.5-1.6
		c0.9,0,1.7,0.5,1.8,1.4c0.1,0.5,0,0.9,0.1,1.4c0.2,0.1,0.2,0.3,0.2,0.5c0,1.8,0,3.7,0,5.5C153.9,108.1,153.9,108.4,153.6,108.6z"/>
	<path class="st19" d="M153.6,108.6c0.1-1.8,0-3.6,0.1-5.4c0-0.5,0-1,0-1.5c0.3-0.6,0.5-1.2,0.8-1.8c0.1-0.1,0.1-0.3,0.3-0.4
		c0,0.1,0,0.3,0,0.4c0,3.1,0,6.3,0,9.4c0,0.2-0.1,0.4,0.1,0.5c0.3,0.6,0.7,0.8,1.3,0.8c0.9,0,0.9,0,0.9,0.9c0,1,0,2,0,3
		c-0.9-0.8-1.5-1.7-2.1-2.7c-0.5-0.8-0.8-1.7-1.1-2.6C153.7,109.2,153.6,108.9,153.6,108.6z"/>
	<path class="st25" d="M172.6,104.3c0,1.2,0,2.4,0,3.6c0,1-0.7,1.7-1.7,1.7c-1,0-1.7-0.7-1.7-1.7c0-2.5,0-4.9,0-7.4
		c0-1,0.7-1.7,1.7-1.7c1,0,1.6,0.7,1.6,1.7C172.6,101.9,172.6,103.1,172.6,104.3z"/>
	<path class="st7" d="M164.8,95.3c0.1,0.4-0.1,0.5-0.5,0.5c-0.7,0-0.6,0.1-0.6-0.6c0-0.6-0.1-0.5,0.6-0.5
		C164.8,94.7,164.8,94.7,164.8,95.3z"/>
	<g>
		<g>
			<path class="st7" d="M158.2,95.5c0-0.1,0-0.1,0-0.2c0-0.7,0-0.7,0.7-0.7c0.4,0,0.5,0.1,0.4,0.5c0,0.1,0,0.3,0,0.4
				c0,0.1,0,0.2-0.2,0.2c-0.3,0-0.6,0.1-0.9-0.1c0.1-0.2,0.4-0.1,0.6-0.2c0.2,0,0.3-0.1,0.3-0.4C158.7,95.2,158.5,95.6,158.2,95.5z"
				/>
		</g>
	</g>
	<path class="st7" d="M158.2,95.5c0.3-0.2,0.6-0.4,1-0.6c0.1,0.1,0.1,0.3,0.1,0.4c0,0.3-0.1,0.4-0.4,0.4c-0.2,0-0.4,0-0.6,0
		C158.2,95.7,158.2,95.6,158.2,95.5z"/>
	<g>
	</g>
	<g>
	</g>
	<g>
	</g>
	<g>
	</g>
	<g>
	</g>
	<g>
	</g>
</g>
</svg>
