<?xml version="1.0" encoding="utf-8"?>
<!-- Generator: Adobe Illustrator 23.0.5, SVG Export Plug-In . SVG Version: 6.00 Build 0)  -->
<svg version="1.1" id="Ñëîé_1" xmlns="http://www.w3.org/2000/svg" xmlns:xlink="http://www.w3.org/1999/xlink" x="0px" y="0px"
	 viewBox="0 0 408.7 400.9" style="enable-background:new 0 0 408.7 400.9;" xml:space="preserve">
<style type="text/css">
	.st0{fill:#FFFFFF;}
	.st1{fill:#7DC3EA;}
	.st2{fill:#396CAA;}
	.st3{fill:#173D7A;}
	.st4{fill:url(#SVGID_1_);}
	.st5{fill:#D4ECFF;}
	.st6{fill:url(#SVGID_2_);}
	.st7{fill:#092E63;}
	.st8{fill:url(#SVGID_3_);}
	.st9{fill:#FF2C9C;}
	.st10{fill:url(#SVGID_4_);}
	.st11{opacity:0.8;fill:#FFFFFF;}
	.st12{opacity:0.8;fill:#D4ECFF;}
	.st13{opacity:0.8;fill:#FF2C9C;}
	.st14{opacity:0.6;fill:#FFFFFF;}
	.st15{opacity:0.4;fill:#FFFFFF;}
	.st16{opacity:0.4;fill:#FF2C9C;}
	.st17{opacity:0.6;fill:#D4ECFF;}
	.st18{opacity:0.6;fill:#FF2C9C;}
	.st19{opacity:0.4;fill:#D4ECFF;}
	.st20{opacity:0.2;fill:#D4ECFF;}
	.st21{opacity:0.2;fill:#FFFFFF;}
</style>
<g>
	<path class="st0" d="M135.5,123c0,1.9-1.3,4.3-3,5.2c-1.7,1-3,0.2-3-1.7c0-1.9,1.3-4.3,3-5.2C134.1,120.3,135.5,121.1,135.5,123z"
		/>
	<path class="st0" d="M145.2,117.3c0,1.9-1.3,4.3-3,5.2c-1.7,1-3,0.2-3-1.7c0-1.9,1.3-4.3,3-5.2
		C143.9,114.6,145.2,115.4,145.2,117.3z"/>
	<path class="st0" d="M155,111.7c0,1.9-1.3,4.3-3,5.2c-1.7,1-3,0.2-3-1.7c0-1.9,1.3-4.3,3-5.2C153.6,109,155,109.8,155,111.7z"/>
	<path class="st0" d="M164.7,106.1c0,1.9-1.3,4.3-3,5.2c-1.7,1-3,0.2-3-1.7c0-1.9,1.3-4.3,3-5.2
		C163.4,103.4,164.7,104.2,164.7,106.1z"/>
</g>
<g>
	<polygon class="st0" points="329.5,88.2 323.4,91.7 323.4,84.7 329.5,81.3 	"/>
	<polygon class="st0" points="337.8,83.3 331.8,86.8 331.8,79.9 337.8,76.4 	"/>
	<polygon class="st0" points="329.5,97.2 323.5,100.7 323.5,93.8 329.5,90.3 	"/>
	<polygon class="st0" points="337.8,92.4 331.8,95.9 331.8,89 337.8,85.5 	"/>
</g>
<g>
	<path class="st1" d="M360.2,252.9l-98.9-57.3c-5.4-3.1-14.8-2.7-21,0.8L32.8,315.9c-6.2,3.6-6.9,9-1.5,12.1l98.9,57.3
		c5.4,3.1,14.8,2.7,21-0.8L358.7,265C364.9,261.4,365.6,256,360.2,252.9z"/>
	<path class="st0" d="M139.3,374.9c-3.7,0-7.2-0.8-9.9-2.3l-98.9-57.3c-2.8-1.6-4.4-3.9-4.4-6.5c0-3,2.1-6,5.9-8.1l207.6-119.4
		c6.7-3.9,16.6-4.2,22.4-0.8l98.9,57.3c2.8,1.6,4.4,3.9,4.3,6.5c0,3-2.1,6-5.9,8.1L151.9,371.7C148.2,373.8,143.7,374.9,139.3,374.9
		z M252.2,181c-3.8,0-7.9,0.9-11.1,2.8L33.5,303.2c-2.8,1.6-4.4,3.6-4.4,5.6c0,1.9,1.6,3.2,2.9,4l98.9,57.3c5,2.9,13.7,2.5,19.5-0.8
		L358,249.8c2.8-1.6,4.4-3.6,4.4-5.6c0-1.9-1.6-3.2-2.9-4l-98.9-57.3C258.4,181.6,255.3,181,252.2,181z"/>
	<g>
		<g>
			<path class="st2" d="M127.3,355.9L24.4,296.3c-3.4-2-5-4.6-4.8-7.3l0,0l0-14.9l5.7,6.7c0.4-0.2,0.7-0.5,1.2-0.7L237,158.9
				c8.4-4.8,21-5.3,28.2-1.1l101.5,58.8c2.1-2.2,6.4-7,6.4-7l0,14.6l0,0c0.2,3.3-2.2,6.8-6.9,9.5L155.5,354.8
				C147.2,359.6,134.5,360.1,127.3,355.9z"/>
			<path class="st3" d="M71.6,319.4l5.9,3.4c0.8,0.5,1.4,0,1.4-1.1l0,0c0-1-0.6-2.3-1.4-2.7l-5.9-3.4c-0.8-0.5-1.4,0-1.4,1.1l0,0
				C70.2,317.7,70.8,318.9,71.6,319.4z"/>
			<linearGradient id="SVGID_1_" gradientUnits="userSpaceOnUse" x1="140.3131" y1="256.8429" x2="386.5602" y2="256.8429">
				<stop  offset="0" style="stop-color:#86B8E0"/>
				<stop  offset="0.1163" style="stop-color:#98C4E7"/>
				<stop  offset="0.3255" style="stop-color:#B2D6F2"/>
				<stop  offset="0.5401" style="stop-color:#C5E2F9"/>
				<stop  offset="0.7615" style="stop-color:#D0EAFE"/>
				<stop  offset="1" style="stop-color:#D4ECFF"/>
			</linearGradient>
			<path class="st4" d="M237,158.9c8.4-4.8,21-5.3,28.2-1.1l101.5,58.8c2.1-2.2,6.4-7,6.4-7l0,14.6l0,0c0.2,3.3-2.2,6.8-6.9,9.5
				L155.5,354.8c-4.4,2.5-9.9,3.8-15.2,3.9l0.2-144.4L237,158.9z"/>
			<path class="st5" d="M368.1,202.3l-102.9-59.6c-7.2-4.2-19.9-3.7-28.2,1.1L26.5,265c-8.4,4.8-9.3,12.1-2,16.3l102.9,59.6
				c7.2,4.2,19.9,3.7,28.2-1.1l210.5-121.2C374.5,213.8,375.4,206.5,368.1,202.3z"/>
			<path class="st0" d="M127.3,342.5L24.3,282.9c-3.7-2.2-5.3-5.1-4.8-8.2c0.2,2.5,1.8,4.8,4.8,6.6l102.9,59.6
				c7.2,4.2,19.9,3.7,28.2-1.1l210.5-121.2c4-2.3,6.3-5.2,6.8-8.1c0.2,3.3-2.1,6.9-6.9,9.7L155.5,341.4
				C147.1,346.2,134.5,346.7,127.3,342.5z"/>
			<radialGradient id="SVGID_2_" cx="362.5208" cy="208.7847" r="239.8648" gradientUnits="userSpaceOnUse">
				<stop  offset="0" style="stop-color:#173D7A"/>
				<stop  offset="0.4231" style="stop-color:#153B76"/>
				<stop  offset="0.8152" style="stop-color:#0E336B"/>
				<stop  offset="1" style="stop-color:#092E63"/>
			</radialGradient>
			<path class="st6" d="M360.2,204.7l-98.9-57.3c-5.4-3.1-14.8-2.7-21,0.8L32.8,267.7c-6.2,3.6-6.9,9-1.5,12.1l98.9,57.3
				c5.4,3.1,14.8,2.7,21-0.8l207.6-119.4C364.9,213.2,365.6,207.8,360.2,204.7z"/>
			<g>
				<path class="st7" d="M100.8,334.2c0,1.2-0.9,1.7-1.9,1.1s-1.9-2.1-1.9-3.4c0-1.2,0.9-1.7,1.9-1.1
					C99.9,331.4,100.8,332.9,100.8,334.2z"/>
				<path class="st7" d="M106.7,337.6c0,1.2-0.9,1.7-1.9,1.1c-1.1-0.6-1.9-2.1-1.9-3.4c0-1.2,0.9-1.7,1.9-1.1
					C105.9,334.9,106.7,336.4,106.7,337.6z"/>
				<path class="st7" d="M112.7,341.1c0,1.2-0.9,1.7-1.9,1.1c-1.1-0.6-1.9-2.1-1.9-3.4c0-1.2,0.9-1.7,1.9-1.1
					C111.8,338.3,112.7,339.8,112.7,341.1z"/>
				<path class="st7" d="M118.7,344.5c0,1.2-0.9,1.7-1.9,1.1c-1.1-0.6-1.9-2.1-1.9-3.4c0-1.2,0.9-1.7,1.9-1.1
					C117.8,341.8,118.7,343.3,118.7,344.5z"/>
				<path class="st7" d="M124.6,348c0,1.2-0.9,1.7-1.9,1.1c-1.1-0.6-1.9-2.1-1.9-3.4s0.9-1.7,1.9-1.1
					C123.8,345.2,124.6,346.7,124.6,348z"/>
			</g>
		</g>
		<radialGradient id="SVGID_3_" cx="370.4353" cy="217.4114" r="125.4041" gradientUnits="userSpaceOnUse">
			<stop  offset="0" style="stop-color:#173D7A"/>
			<stop  offset="0.4231" style="stop-color:#153B76"/>
			<stop  offset="0.8152" style="stop-color:#0E336B"/>
			<stop  offset="1" style="stop-color:#092E63"/>
		</radialGradient>
		<path class="st8" d="M359.3,204.1l-92.8-53.7c-2.4,0.1-5,0.4-6.8,0.5L52.1,270.8c0,1.9,1,3.7,3.3,5l89.7,52L359.3,204.1z"/>
		<g>
			<polygon class="st9" points="307.8,205.1 296.1,198.3 300.6,195.7 312.4,202.5 			"/>
			<polygon class="st0" points="324.2,214.6 312.4,207.8 317,205.2 328.8,211.9 			"/>
			<polygon class="st0" points="255.3,174.5 243.6,167.8 248.2,165.1 259.9,171.9 			"/>
			<polygon class="st0" points="305.2,212 288.9,202.5 293.4,199.9 309.8,209.3 			"/>
			<polygon class="st5" points="317,218.8 309.8,214.6 314.4,212 321.5,216.1 			"/>
		</g>
	</g>
	<g>
		<g>
			<radialGradient id="SVGID_4_" cx="63.3401" cy="253.5178" r="337.2462" gradientUnits="userSpaceOnUse">
				<stop  offset="0" style="stop-color:#173D7A"/>
				<stop  offset="0.4231" style="stop-color:#153B76"/>
				<stop  offset="0.8152" style="stop-color:#0E336B"/>
				<stop  offset="1" style="stop-color:#092E63"/>
			</radialGradient>
			<path class="st10" d="M202.7,35.3c-0.1,0-0.1-0.1-0.2-0.1l0,0l0,0c-0.2-0.1-0.5,0-0.8,0.1c-0.8,0.4-1.4,1.5-1.4,2.4
				c0,78.1-55,173.4-122.6,212.4l-34.5,19.9c-0.8,0.4-1.4,1.5-1.4,2.4c0,0.4,0.1,0.6,0.3,0.8l0,0l0,0c0.1,0.1,0.2,0.1,0.2,0.1
				l98.4,56.8l15.6-9.6l22.5-13.8l19.4-12.7l16.3-14.1l16.9-18l18.8-23.8l12.3-19.9l11.2-21.1l8.6-17.4l7.1-21.7l4.7-15.1l4.3-22.5
				l2.9-28.4L202.7,35.3z"/>
			<g>
				<g>
					<path class="st0" d="M105.9,234c-6,4.7-12.1,9-18.4,12.8l17.8,10.4c6.3-3.8,12.4-8.1,18.4-12.8L105.9,234L105.9,234z"/>
					<path class="st0" d="M117,224.5c-2,1.8-4.1,3.6-6.2,5.4l17.8,10.4c2.1-1.7,4.1-3.5,6.2-5.4L117,224.5L117,224.5z"/>
					<path class="st0" d="M127.8,214.2c-1.9,2-3.9,4-5.9,5.9l6.3,3.6c2-1.9,4-3.9,5.9-5.9L127.8,214.2L127.8,214.2z"/>
					<path class="st5" d="M138.6,220.5c-1.9,2-3.9,4-5.9,5.9l80.8,46.9c2-1.9,4-3.9,5.9-5.9L138.6,220.5L138.6,220.5z"/>
					<path class="st0" d="M138,203c-1.9,2.1-3.7,4.3-5.6,6.3l6.3,3.6c1.9-2.1,3.8-4.2,5.6-6.3L138,203L138,203z"/>
					<path class="st0" d="M148.9,209.3c-1.9,2.1-3.7,4.3-5.6,6.3l35.8,20.8c1.9-2.1,3.8-4.2,5.6-6.3L148.9,209.3L148.9,209.3z"/>
					<path class="st5" d="M189.6,232.9c-1.9,2.1-3.7,4.3-5.6,6.3l40.1,23.3c1.9-2.1,3.8-4.2,5.6-6.3L189.6,232.9L189.6,232.9z"/>
					<path class="st9" d="M147.7,191c-1.7,2.3-3.5,4.5-5.3,6.7l6.3,3.6c1.8-2.2,3.6-4.5,5.3-6.7L147.7,191L147.7,191z"/>
					<path class="st0" d="M228.1,219.8c-1.6,2.4-3.3,4.7-5,7.1l6.3,3.6c1.7-2.3,3.4-4.7,5-7.1L228.1,219.8L228.1,219.8z"/>
					<path class="st11" d="M198.9,202.9c-1.6,2.4-3.3,4.7-5,7.1l23.8,13.8c1.7-2.3,3.4-4.7,5-7.1L198.9,202.9L198.9,202.9z"/>
					<path class="st5" d="M167.7,184.8c-1.6,2.4-3.3,4.7-5,7.1l25.8,15c1.7-2.3,3.4-4.7,5-7.1L167.7,184.8L167.7,184.8z"/>
					<path class="st11" d="M176.2,171.7c-1.5,2.5-3.1,4.9-4.6,7.4l9.7,5.7c1.6-2.4,3.1-4.9,4.6-7.4L176.2,171.7L176.2,171.7z"/>
					<path class="st12" d="M192.2,181c-1.5,2.5-3.1,4.9-4.6,7.4l27.3,15.8c1.6-2.4,3.1-4.9,4.6-7.4L192.2,181L192.2,181z"/>
					<path class="st11" d="M156.9,178.5c-1.6,2.4-3.3,4.7-5,7.1l6.3,3.6c1.7-2.3,3.4-4.7,5-7.1L156.9,178.5L156.9,178.5z"/>
					<path class="st11" d="M165.3,165.4c-1.5,2.5-3.1,4.9-4.6,7.4l6.3,3.6c1.6-2.4,3.1-4.9,4.6-7.4L165.3,165.4L165.3,165.4z"/>
					<path class="st0" d="M173.1,151.8c-1.4,2.6-2.8,5.1-4.2,7.6l6.3,3.6c1.4-2.5,2.9-5,4.2-7.6L173.1,151.8L173.1,151.8z"/>
					<path class="st13" d="M180.1,137.9c-1.2,2.6-2.5,5.2-3.8,7.8l6.3,3.6c1.3-2.6,2.6-5.2,3.8-7.8L180.1,137.9L180.1,137.9z"/>
					<path class="st14" d="M186.3,123.7c-1.1,2.7-2.2,5.3-3.4,7.9l6.3,3.6c1.2-2.6,2.3-5.3,3.4-7.9L186.3,123.7L186.3,123.7z"/>
					<path class="st15" d="M191.7,109.3c-0.9,2.7-1.9,5.4-2.9,8l6.3,3.6c1-2.7,2-5.3,2.9-8L191.7,109.3L191.7,109.3z"/>
					<path class="st0" d="M224.9,199.9c-1.5,2.5-3.1,4.9-4.6,7.4l6.3,3.6c1.6-2.4,3.1-4.9,4.6-7.4L224.9,199.9L224.9,199.9z"/>
					<path class="st11" d="M232.7,186.3c-1.4,2.6-2.8,5.1-4.2,7.6l6.3,3.6c1.4-2.5,2.9-5,4.2-7.6L232.7,186.3L232.7,186.3z"/>
					<path class="st14" d="M222.2,162.3c-1.2,2.6-2.5,5.2-3.8,7.8l23.8,13.8c1.3-2.6,2.6-5.2,3.8-7.8L222.2,162.3L222.2,162.3z"/>
					<path class="st11" d="M228.4,148.1c-1.1,2.7-2.2,5.3-3.4,7.9l23.8,13.8c1.2-2.6,2.3-5.3,3.4-7.9L228.4,148.1L228.4,148.1z"/>
					<path class="st16" d="M251.2,143.9c-0.9,2.7-1.9,5.4-2.9,8l6.3,3.6c1-2.7,2-5.3,2.9-8L251.2,143.9L251.2,143.9z"/>
					<path class="st0" d="M236.6,206.7c-1.5,2.5-3.1,4.9-4.6,7.4l6.3,3.6c1.6-2.4,3.1-4.9,4.6-7.4L236.6,206.7L236.6,206.7z"/>
					<path class="st14" d="M244.3,193.1c-1.4,2.6-2.8,5.1-4.2,7.6l6.3,3.6c1.4-2.5,2.9-5,4.2-7.6L244.3,193.1L244.3,193.1z"/>
					<path class="st17" d="M251.3,179.2c-1.2,2.6-2.5,5.2-3.8,7.8l6.3,3.6c1.3-2.6,2.6-5.2,3.8-7.8L251.3,179.2L251.3,179.2z"/>
					<path class="st11" d="M257.6,165c-1.1,2.7-2.2,5.3-3.4,7.9l6.3,3.6c1.2-2.6,2.3-5.3,3.4-7.9L257.6,165L257.6,165z"/>
					<path class="st15" d="M262.9,150.6c-0.9,2.7-1.9,5.4-2.9,8l6.3,3.6c1-2.7,2-5.3,2.9-8L262.9,150.6L262.9,150.6z"/>
					<path class="st16" d="M238.6,117.5c-0.7,2.7-1.5,5.4-2.3,8l23.8,13.8c0.8-2.7,1.6-5.4,2.3-8L238.6,117.5L238.6,117.5z"/>
					<path class="st14" d="M267.8,134.4c-0.7,2.7-1.5,5.4-2.3,8l6.3,3.6c0.8-2.7,1.6-5.4,2.3-8L267.8,134.4L267.8,134.4z"/>
					<path class="st14" d="M184,158.1c-1.4,2.6-2.8,5.1-4.2,7.6l6.3,3.6c1.4-2.5,2.9-5,4.2-7.6L184,158.1L184,158.1z"/>
					<path class="st18" d="M195.1,164.6c-1.4,2.6-2.8,5.1-4.2,7.6l32.1,18.6c1.4-2.5,2.9-5,4.2-7.6L195.1,164.6L195.1,164.6z"/>
					<path class="st11" d="M202.2,150.7c-1.2,2.6-2.5,5.2-3.8,7.8l14.6,8.5c1.3-2.6,2.6-5.2,3.8-7.8L202.2,150.7L202.2,150.7z"/>
					<path class="st14" d="M208.4,136.5c-1.1,2.7-2.2,5.3-3.4,7.9l14.6,8.5c1.2-2.6,2.3-5.3,3.4-7.9L208.4,136.5L208.4,136.5z"/>
					<path class="st15" d="M213.7,122.1c-0.9,2.7-1.9,5.4-2.9,8l32.1,18.6c1-2.7,2-5.3,2.9-8L213.7,122.1L213.7,122.1z"/>
					<path class="st17" d="M218.6,105.9c-0.7,2.7-1.5,5.4-2.3,8l14.6,8.5c0.8-2.7,1.6-5.4,2.3-8L218.6,105.9L218.6,105.9z"/>
					<path class="st17" d="M196.6,93.1c-0.7,2.7-1.5,5.4-2.3,8l17.1,10c0.8-2.7,1.6-5.4,2.3-8L196.6,93.1L196.6,93.1z"/>
					<path class="st12" d="M191,144.2c-1.2,2.6-2.5,5.2-3.8,7.8l6.3,3.6c1.3-2.6,2.6-5.2,3.8-7.8L191,144.2L191,144.2z"/>
					<path class="st15" d="M197.2,130c-1.1,2.7-2.2,5.3-3.4,7.9l6.3,3.6c1.2-2.6,2.3-5.3,3.4-7.9L197.2,130L197.2,130z"/>
					<path class="st14" d="M202.5,115.6c-0.9,2.7-1.9,5.4-2.9,8l6.3,3.6c1-2.7,2-5.3,2.9-8L202.5,115.6L202.5,115.6z"/>
					<path class="st5" d="M158.6,197.4c-1.7,2.3-3.5,4.5-5.3,6.7l55,31.9c1.8-2.2,3.6-4.5,5.3-6.7L158.6,197.4L158.6,197.4z"/>
					<path class="st0" d="M219,232.4c-1.7,2.3-3.5,4.5-5.3,6.7l20.5,11.9c1.8-2.2,3.6-4.5,5.3-6.7L219,232.4L219,232.4z"/>
					<path class="st11" d="M239.1,226.2c-1.6,2.4-3.3,4.7-5,7.1l9.5,5.5c1.7-2.3,3.4-4.7,5-7.1L239.1,226.2L239.1,226.2z"/>
					<path class="st0" d="M247.5,213.1c-1.5,2.5-3.1,4.9-4.6,7.4l9.5,5.5c1.6-2.4,3.1-4.9,4.6-7.4L247.5,213.1L247.5,213.1z"/>
					<path class="st11" d="M255.3,199.5c-1.4,2.6-2.8,5.1-4.2,7.6l9.5,5.5c1.4-2.5,2.9-5,4.2-7.6L255.3,199.5L255.3,199.5z"/>
					<path class="st11" d="M262.3,185.6c-1.2,2.6-2.5,5.2-3.8,7.8l9.5,5.5c1.3-2.6,2.6-5.2,3.8-7.8L262.3,185.6L262.3,185.6z"/>
					<path class="st14" d="M268.5,171.4c-1.1,2.7-2.2,5.3-3.4,7.9l9.5,5.5c1.2-2.6,2.3-5.3,3.4-7.9L268.5,171.4L268.5,171.4z"/>
					<path class="st14" d="M273.9,157c-0.9,2.7-1.9,5.4-2.9,8l9.5,5.5c1-2.7,2-5.3,2.9-8L273.9,157L273.9,157z"/>
					<path class="st14" d="M278.8,140.8c-0.7,2.7-1.5,5.4-2.3,8l9.5,5.5c0.8-2.7,1.6-5.4,2.3-8L278.8,140.8L278.8,140.8z"/>
					<path class="st19" d="M259.8,111.4c-0.5,2.7-1.1,5.3-1.7,8l32.1,18.7c0.6-2.7,1.2-5.4,1.7-8L259.8,111.4L259.8,111.4z"/>
					<path class="st16" d="M200.3,76.9c-0.5,2.7-1.1,5.3-1.7,8l54.2,31.4c0.6-2.7,1.2-5.4,1.7-8L200.3,76.9L200.3,76.9z"/>
					<path class="st9" d="M139.8,237.8c-2,1.8-4.1,3.6-6.2,5.4l31.3,18.1c2.1-1.7,4.1-3.5,6.2-5.4L139.8,237.8L139.8,237.8z"/>
					<path class="st0" d="M176,258.8c-2,1.8-4.1,3.6-6.2,5.4l13.7,8c2.1-1.7,4.1-3.5,6.2-5.4L176,258.8L176,258.8z"/>
					<path class="st9" d="M195,269.8c-9.4,8.5-19.3,16-29.6,22.3l13.7,8c10.2-6.2,20.1-13.7,29.6-22.3L195,269.8L195,269.8z"/>
					<path class="st5" d="M128.6,247.2c-6,4.7-12.1,9-18.4,12.8l50,29c6.3-3.8,12.4-8.1,18.4-12.8L128.6,247.2L128.6,247.2z"/>
					<path class="st20" d="M203.6,47.4c-0.2,7-0.9,14.1-1.9,21.3l68.1,39.5c1.1-7.2,1.7-14.3,1.9-21.3L203.6,47.4L203.6,47.4z"/>
					<path class="st21" d="M278.2,90.8c-0.2,7-0.9,14.1-1.9,21.3l17,9.9c1.1-7.2,1.7-14.3,1.9-21.3L278.2,90.8L278.2,90.8z"/>
				</g>
			</g>
			<g>
				<path class="st2" d="M176.2,310.3l-34.5,19.9c-0.8,0.4-1.4,0.1-1.4-0.8c0-0.9,0.6-1.9,1.4-2.4l34.5-19.9
					c67.6-39,122.6-134.3,122.6-212.4c0-0.9,0.6-1.9,1.4-2.4c0.8-0.4,1.4-0.1,1.4,0.8c0,38.7-13,82.6-36.7,123.6
					C241.2,257.7,209.7,291,176.2,310.3z"/>
			</g>
		</g>
		<g>
			<polygon class="st5" points="151.6,308.8 71.9,262.7 77,259.8 156.7,305.8 			"/>
			<polygon class="st5" points="96.1,295.4 55.8,272 60.8,269.1 101.2,292.4 			"/>
			<polygon class="st9" points="115.7,306.7 102.6,299.1 107.7,296.2 120.8,303.7 			"/>
			<polygon class="st0" points="135.5,318.1 122.4,310.5 127.5,307.6 140.6,315.1 			"/>
			<polygon class="st0" points="96.6,286.3 63.8,267.4 68.9,264.5 101.7,283.4 			"/>
			<polygon class="st5" points="136.6,309.4 103.8,290.5 108.9,287.5 141.7,306.5 			"/>
			<g>
				<path class="st9" d="M110.4,269.9c-1.6,0.9-4.3,0.9-5.9,0c-1.6-0.9-1.6-2.5,0-3.4c1.6-0.9,4.3-0.9,5.9,0
					C112,267.5,112,269,110.4,269.9z"/>
				<path class="st0" d="M119.2,275.1c-1.6,0.9-4.3,0.9-5.9,0c-1.6-0.9-1.6-2.5,0-3.4c1.6-0.9,4.3-0.9,5.9,0
					C120.9,272.6,120.9,274.1,119.2,275.1z"/>
				<path class="st5" d="M128.1,280.2c-1.6,0.9-4.3,0.9-5.9,0c-1.6-0.9-1.6-2.5,0-3.4c1.6-0.9,4.3-0.9,5.9,0
					C129.7,277.7,129.7,279.2,128.1,280.2z"/>
				<path class="st9" d="M137,285.3c-1.6,0.9-4.3,0.9-5.9,0c-1.6-0.9-1.6-2.5,0-3.4c1.6-0.9,4.3-0.9,5.9,0
					C138.6,282.8,138.6,284.4,137,285.3z"/>
				<path class="st0" d="M145.8,290.4c-1.6,0.9-4.3,0.9-5.9,0c-1.6-0.9-1.6-2.5,0-3.4c1.6-0.9,4.3-0.9,5.9,0
					C147.5,287.9,147.5,289.5,145.8,290.4z"/>
			</g>
		</g>
	</g>
</g>
</svg>
