<?xml version="1.0" encoding="utf-8"?>
<!-- Generator: Adobe Illustrator 23.0.5, SVG Export Plug-In . SVG Version: 6.00 Build 0)  -->
<svg version="1.1" xmlns="http://www.w3.org/2000/svg" xmlns:xlink="http://www.w3.org/1999/xlink" x="0px" y="0px"
	 viewBox="0 0 3102.7 3102.7" style="enable-background:new 0 0 3102.7 3102.7;" xml:space="preserve">
<style type="text/css">
	.st0{fill:url(#SVGID_1_);}
	.st1{fill:#91B3FA;}
	.st2{fill:#7D97F4;}
	.st3{fill:url(#SVGID_2_);}
	.st4{fill:url(#SVGID_3_);}
	.st5{fill:url(#SVGID_4_);}
	.st6{opacity:0.61;}
	.st7{fill:#FFFFFF;}
	.st8{opacity:0.74;}
	.st9{fill:url(#SVGID_5_);}
	.st10{fill:url(#SVGID_6_);}
	.st11{fill:url(#SVGID_7_);}
	.st12{fill:url(#SVGID_8_);}
	.st13{fill:url(#SVGID_9_);}
	.st14{fill:url(#SVGID_10_);}
	.st15{fill:url(#SVGID_11_);}
	.st16{fill:url(#SVGID_12_);}
	.st17{fill:url(#SVGID_13_);}
	.st18{fill:url(#SVGID_14_);}
	.st19{fill:url(#SVGID_15_);}
	.st20{fill:url(#SVGID_16_);}
	.st21{fill:url(#SVGID_17_);}
	.st22{fill:url(#SVGID_18_);}
	.st23{fill:url(#SVGID_19_);}
	.st24{fill:url(#SVGID_20_);}
	.st25{fill:url(#SVGID_21_);}
	.st26{fill:url(#SVGID_22_);}
	.st27{fill:url(#SVGID_23_);}
	.st28{fill:url(#SVGID_24_);}
	.st29{fill:url(#SVGID_25_);}
	.st30{opacity:0.23;fill:url(#SVGID_26_);}
	.st31{fill:url(#SVGID_27_);}
	.st32{fill:url(#SVGID_28_);}
	.st33{fill:url(#SVGID_29_);}
	.st34{fill:url(#SVGID_30_);}
	.st35{fill:url(#SVGID_31_);}
	.st36{fill:url(#SVGID_32_);}
	.st37{fill:url(#SVGID_33_);}
	.st38{fill:url(#SVGID_34_);}
	.st39{fill:url(#SVGID_35_);}
	.st40{fill:url(#SVGID_36_);}
	.st41{fill:url(#SVGID_37_);}
	.st42{fill:url(#SVGID_38_);}
	.st43{fill:url(#SVGID_39_);}
	.st44{fill:url(#SVGID_40_);}
	.st45{fill:url(#SVGID_41_);}
	.st46{fill:url(#SVGID_42_);}
	.st47{fill:url(#SVGID_43_);}
	.st48{fill:url(#SVGID_44_);}
	.st49{fill:url(#SVGID_45_);}
	.st50{fill:url(#SVGID_46_);}
	.st51{fill:url(#SVGID_47_);}
	.st52{fill:url(#SVGID_48_);}
	.st53{fill:url(#SVGID_49_);}
	.st54{fill:url(#SVGID_50_);}
	.st55{fill:url(#SVGID_51_);}
	.st56{fill:url(#SVGID_52_);}
	.st57{opacity:0.14;fill:#FFFFFF;}
	.st58{opacity:0.77;fill:#FFFFFF;}
</style>
<g id="Background">
</g>
<g id="Illustration">
	<g>
		<linearGradient id="SVGID_1_" gradientUnits="userSpaceOnUse" x1="3187.1147" y1="3330.3616" x2="1246.5879" y2="1264.6398">
			<stop  offset="0" style="stop-color:#DAE3FE"/>
			<stop  offset="1" style="stop-color:#E9EFFD"/>
		</linearGradient>
		<path class="st0" d="M2602.8,2503.2c-71.6,73.8-135.7,117.2-184.8,150c-478.6,319.6-1027.4,281.6-1196.6,250.2
			c-272.9-50.8-501.6-140.8-699.5-319.6C72.1,2177.4,94,1329.7,437.7,804.6c40.7-62.3,383.9-570.9,932.2-642.6
			c13.4-1.8,23.4-2.8,32.2-3.7c84.8-9,610.4-56.4,1039,302.7c61.4,51.4,170.5,137.9,251.6,285.5
			C2983,1275,3028.6,2064.3,2602.8,2503.2z"/>
		<g>
			<g>
				<path class="st1" d="M2578.6,1276.2c-0.8-3.5-1.6-7.1-2.5-10.6c-129.6-533.5-671.9-859.8-1211.2-728.8l237.2,976.6
					L2578.6,1276.2z"/>
				<path class="st1" d="M1599.2,1509.6l950.6,326.4c59.1-171.5,72.4-361.1,28.9-550.9c-1.4-6-2.8-11.9-4.3-17.9L1599.2,1509.6z"/>
				<path class="st2" d="M1602.1,1513.4l193.2,986.2c6.2-1.2,12.4-2.5,18.6-3.8c356.8-76.9,628.1-334.4,738.9-656L1602.1,1513.4z"/>
				<linearGradient id="SVGID_2_" gradientUnits="userSpaceOnUse" x1="1115.7839" y1="299.3824" x2="828.8762" y2="2594.6492">
					<stop  offset="0" style="stop-color:#FF928E"/>
					<stop  offset="1" style="stop-color:#FE7062"/>
				</linearGradient>
				<path class="st3" d="M1478.6,1432l-200.6-972.2c-453.6,93.6-772.2,479.3-800,920.4l995.1,58.2
					C1476.5,1438.6,1479.3,1435.4,1478.6,1432z"/>
				<linearGradient id="SVGID_3_" gradientUnits="userSpaceOnUse" x1="3135.4924" y1="2903.2764" x2="1273.9286" y2="1902.4358">
					<stop  offset="0" style="stop-color:#4F52FF"/>
					<stop  offset="1" style="stop-color:#4042E2"/>
				</linearGradient>
				<path class="st4" d="M1602.7,1509.2L600,1475.9c-4.3,87.8,3.6,161.5,23.6,251.5c93.3,419.9,436.8,719.5,838.8,777L1602.7,1509.2
					z"/>
				<linearGradient id="SVGID_4_" gradientUnits="userSpaceOnUse" x1="1831.5404" y1="1868.703" x2="2965.8318" y2="674.3615">
					<stop  offset="0" style="stop-color:#4F52FF"/>
					<stop  offset="1" style="stop-color:#4042E2"/>
				</linearGradient>
				<path class="st5" d="M1453.9,2507.3c110.9,16.8,226.5,15.2,342.7-7.5l0,0l-192.2-986.4L1453.9,2507.3z"/>
			</g>
			<g class="st6">
				<path class="st7" d="M1243.8,2415.1c-0.8,0-1.7-0.2-2.5-0.5c-138.8-57.3-264.2-147.2-362.8-260.1
					c-101.8-116.6-175.1-258.3-211.9-409.7c-3.3-13.6-6.3-27.4-9-40.9c-0.7-3.6,1.6-7.1,5.2-7.8c3.6-0.7,7.1,1.6,7.8,5.2
					c2.7,13.4,5.7,27,8.9,40.4c36.3,149.4,108.5,289.1,209,404.1c97.2,111.3,220.9,200,357.8,256.5c3.4,1.4,5,5.3,3.6,8.7
					C1248.9,2413.6,1246.4,2415.1,1243.8,2415.1z"/>
			</g>
			<g class="st6">
				<path class="st7" d="M1969.3,2419.4c-2.7,0-5.2-1.6-6.2-4.2c-1.4-3.4,0.3-7.3,3.7-8.7c248.2-98.5,445.6-298.8,541.4-549.6
					c1.3-3.4,5.2-5.2,8.6-3.9c3.4,1.3,5.2,5.2,3.9,8.6c-97.2,254.2-297.3,457.3-549,557.2
					C1970.9,2419.3,1970.1,2419.4,1969.3,2419.4z"/>
			</g>
			<g class="st6">
				<path class="st7" d="M2383.2,940.1c-2,0-4-0.9-5.3-2.7c-119.9-158.8-283.7-275-473.7-336c-3.5-1.1-5.4-4.9-4.3-8.4
					c1.1-3.5,4.9-5.4,8.4-4.3c192.6,61.8,358.7,179.6,480.3,340.7c2.2,2.9,1.6,7.1-1.3,9.3C2386,939.7,2384.6,940.1,2383.2,940.1z"
					/>
			</g>
			<g class="st8">
				<path class="st7" d="M1024.2,1375.5c-0.1,0-0.3,0-0.4,0l-510.6-32.9l1.1-7.2c13.4-86.6,35.5-170.4,69.6-263.8
					c1.3-3.5,5.1-5.2,8.6-4c3.5,1.3,5.2,5.1,4,8.6c-32.8,90-54.4,170.9-67.8,254l496,32c3.7,0.2,6.5,3.4,6.2,7.1
					C1030.6,1372.8,1027.7,1375.5,1024.2,1375.5z"/>
			</g>
			<g class="st8">
				<path class="st7" d="M1424.6,1401.3c-0.2,0-0.5,0-0.7,0l-104.1-6.7c-3.7-0.2-6.5-3.4-6.2-7.1c0.2-3.7,3.5-6.5,7.1-6.2l100.7,6.5
					L1313,880.6c-0.8-3.6,1.5-7.1,5.1-7.9c3.6-0.8,7.1,1.5,7.9,5.1l109,510.5c0.7,3.3-0.2,6.7-2.4,9.3
					C1430.7,1400,1427.8,1401.3,1424.6,1401.3z M1422.1,1391.1L1422.1,1391.1L1422.1,1391.1z"/>
			</g>
		</g>
		<g>
			<g>
				<linearGradient id="SVGID_5_" gradientUnits="userSpaceOnUse" x1="2625.533" y1="641.554" x2="1776.6274" y2="1472.005">
					<stop  offset="0" style="stop-color:#2B3582"/>
					<stop  offset="1" style="stop-color:#150E42"/>
				</linearGradient>
				<polygon class="st9" points="1608.7,1300.4 1603.9,1291.6 1928.4,1114.3 2229.9,1246.8 2488.8,992.9 2489.3,992.6 2793.4,813.1 
					2798.5,821.8 2495,1000.9 2232.1,1258.7 1928.9,1125.4 				"/>
			</g>
			<linearGradient id="SVGID_6_" gradientUnits="userSpaceOnUse" x1="1661.9603" y1="1241.5203" x2="1579.1104" y2="1322.5691">
				<stop  offset="0" style="stop-color:#09005D"/>
				<stop  offset="1" style="stop-color:#1A0F91"/>
			</linearGradient>
			<circle class="st10" cx="1606.3" cy="1296" r="34.9"/>
			<linearGradient id="SVGID_7_" gradientUnits="userSpaceOnUse" x1="1984.2894" y1="1065.4025" x2="1901.4393" y2="1146.4514">
				<stop  offset="0" style="stop-color:#09005D"/>
				<stop  offset="1" style="stop-color:#1A0F91"/>
			</linearGradient>
			<circle class="st11" cx="1928.6" cy="1119.8" r="34.9"/>
			<linearGradient id="SVGID_8_" gradientUnits="userSpaceOnUse" x1="2286.6804" y1="1191.6755" x2="2203.8303" y2="1272.7247">
				<stop  offset="0" style="stop-color:#09005D"/>
				<stop  offset="1" style="stop-color:#1A0F91"/>
			</linearGradient>
			<circle class="st12" cx="2231" cy="1246.1" r="34.9"/>
			<linearGradient id="SVGID_9_" gradientUnits="userSpaceOnUse" x1="2539.2266" y1="942.4522" x2="2456.3767" y2="1023.5012">
				<stop  offset="0" style="stop-color:#09005D"/>
				<stop  offset="1" style="stop-color:#1A0F91"/>
			</linearGradient>
			<circle class="st13" cx="2483.6" cy="996.9" r="34.9"/>
			<linearGradient id="SVGID_10_" gradientUnits="userSpaceOnUse" x1="2851.5867" y1="763.0113" x2="2768.7366" y2="844.0603">
				<stop  offset="0" style="stop-color:#09005D"/>
				<stop  offset="1" style="stop-color:#1A0F91"/>
			</linearGradient>
			<circle class="st14" cx="2795.9" cy="817.5" r="34.9"/>
		</g>
		<g>
			<g>
				<g>
					
						<linearGradient id="SVGID_11_" gradientUnits="userSpaceOnUse" x1="1677.869" y1="2911.7458" x2="1866.8678" y2="2911.7458" gradientTransform="matrix(1 0 0 1 -1140.7335 0)">
						<stop  offset="0" style="stop-color:#4F52FF"/>
						<stop  offset="1" style="stop-color:#4042E2"/>
					</linearGradient>
					<path class="st15" d="M720.8,2902.6c-32.4,2.8-88.6,7.3-132.9,9.3c-26.6,1.2-42-1.4-50.8-5c0,1,0,1.9,0.1,2.8
						c0.2,4.7,4,8.4,8.7,8.7c83.7,4.7,150.3,1.6,174,0.2c4.9-0.3,7.8-5.6,5.3-9.8C724,2906.7,722.4,2904.6,720.8,2902.6z"/>
					
						<linearGradient id="SVGID_12_" gradientUnits="userSpaceOnUse" x1="1677.8583" y1="2874.7046" x2="1861.5309" y2="2874.7046" gradientTransform="matrix(1 0 0 1 -1140.7335 0)">
						<stop  offset="0" style="stop-color:#09005D"/>
						<stop  offset="1" style="stop-color:#1A0F91"/>
					</linearGradient>
					<path class="st16" d="M587.9,2911.9c44.3-1.9,100.5-6.5,132.9-9.3c-31.8-39.1-132.9-65.4-132.9-65.4h-28.5
						c-19.6,28.3-22.5,55.2-22.3,69.7C546,2910.5,561.3,2913.1,587.9,2911.9z"/>
					
						<linearGradient id="SVGID_13_" gradientUnits="userSpaceOnUse" x1="1695.3181" y1="2822.9897" x2="1748.5551" y2="2822.9897" gradientTransform="matrix(1 0 0 1 -1140.7335 0)">
						<stop  offset="0" style="stop-color:#FEBBBA"/>
						<stop  offset="1" style="stop-color:#FF928E"/>
					</linearGradient>
					<path class="st17" d="M554.6,2790.6l2.7,52.8c0.3,5.7,4.6,10.5,10.3,11.4c5.7,0.8,13.3,0.9,21.4-1.8c5-1.7,8.7-5.9,9.6-11
						l9.2-51.4H554.6z"/>
				</g>
				<g>
					<g>
						
							<linearGradient id="SVGID_14_" gradientUnits="userSpaceOnUse" x1="1301.084" y1="2907.6699" x2="1373.5115" y2="2907.6699" gradientTransform="matrix(1 0 0 1 -1140.7335 0)">
							<stop  offset="0" style="stop-color:#4F52FF"/>
							<stop  offset="1" style="stop-color:#4042E2"/>
						</linearGradient>
						<path class="st18" d="M183.9,2911.5c-14-2-20.4-9.3-23.1-17.1c0,0.1,0,0.1-0.1,0.2c-2.1,8.2,2.7,16.8,12.3,20.8
							c11.6,4.9,24.2,5.7,34,5.3c10.5-0.4,20.2-4.8,25.5-11.8l0.1-0.1C222.2,2914.2,207.4,2914.8,183.9,2911.5z"/>
						
							<linearGradient id="SVGID_15_" gradientUnits="userSpaceOnUse" x1="1301.611" y1="2851.9028" x2="1407.9202" y2="2851.9028" gradientTransform="matrix(1 0 0 1 -1140.7335 0)">
							<stop  offset="0" style="stop-color:#09005D"/>
							<stop  offset="1" style="stop-color:#1A0F91"/>
						</linearGradient>
						<path class="st19" d="M250.1,2790.3h-23.5c-35.8-0.7-58.4,74.9-65.7,104.2c2.7,7.8,9,15.1,23.1,17.1
							c23.4,3.3,38.3,2.6,48.8-2.6c19.4-25.5,29-62.8,33.6-84.6C271.6,2799.6,250.1,2790.3,250.1,2790.3z"/>
					</g>
					
						<linearGradient id="SVGID_16_" gradientUnits="userSpaceOnUse" x1="1356.8688" y1="2778.6094" x2="1420.4926" y2="2778.6094" gradientTransform="matrix(1 0 0 1 -1140.7335 0)">
						<stop  offset="0" style="stop-color:#FEBBBA"/>
						<stop  offset="1" style="stop-color:#FF928E"/>
					</linearGradient>
					<path class="st20" d="M229.6,2741.3l-13.1,52c-1.6,6.4,1.4,13,7.3,16c7.3,3.8,17.6,7.7,27.1,6.6c4.4-0.5,8.1-3.7,9.6-7.9
						l19.2-54.7L229.6,2741.3z"/>
				</g>
				<linearGradient id="SVGID_17_" gradientUnits="userSpaceOnUse" x1="-439.678" y1="3491.1084" x2="854.743" y2="2089.929">
					<stop  offset="0" style="stop-color:#4F52FF"/>
					<stop  offset="1" style="stop-color:#4042E2"/>
				</linearGradient>
				<path class="st21" d="M214,2756.3c16.3,14.4,69.1,16.3,69.1,16.3c190.5-457.2,268.4-522.1,268.4-522.1
					c-27.5,172.6-4.4,554.6-4.4,554.6c31.4,13.9,72,0,72,0c2.6-282.5,46-528.9,97.3-723.1c-128.7-2.9-197.2-47-219.6-64.6
					C389.5,2190.3,214,2756.3,214,2756.3z"/>
				
					<linearGradient id="SVGID_18_" gradientUnits="userSpaceOnUse" x1="-1022.7618" y1="3951.573" x2="-385.56" y2="3457.825" gradientTransform="matrix(1 0 0 1 -1140.7335 0)">
					<stop  offset="0" style="stop-color:#FF928E"/>
					<stop  offset="1" style="stop-color:#FE7062"/>
				</linearGradient>
				<path class="st22" d="M529.5,1491.5c-24.4,121.6-15.6,339.1-9.9,438.4c1.6,27.9-17.9,66.6-33.6,92.9c-2.5,4.1-0.9,9.4,3.3,11.6
					c26.3,13.5,115.6,55.5,219.1,60.7c6.9,0.3,13.1-4.4,14.8-11c76.7-286.5,165.9-469.6,165.9-469.6
					C790.7,1457.4,529.5,1491.5,529.5,1491.5z"/>
				<linearGradient id="SVGID_19_" gradientUnits="userSpaceOnUse" x1="567.7858" y1="1663.5747" x2="587.8029" y2="1987.1807">
					<stop  offset="0" style="stop-color:#4F52FF"/>
					<stop  offset="1" style="stop-color:#4042E2"/>
				</linearGradient>
				<path class="st23" d="M564.6,2239.6c-1.1,0-2.2-0.3-3.2-0.9c-2.9-1.8-3.8-5.5-2-8.4c1-1.7,25.7-41.5,75.5-65.6
					c3-1.5,6.7-0.2,8.1,2.8c1.5,3,0.2,6.7-2.8,8.1c-46.5,22.4-70.2,60.5-70.4,60.9C568.7,2238.6,566.6,2239.6,564.6,2239.6z"/>
				<g>
					
						<linearGradient id="SVGID_20_" gradientUnits="userSpaceOnUse" x1="1648.3582" y1="1851.2119" x2="1421.8685" y2="2051.7734" gradientTransform="matrix(1 0 0 1 -1140.7335 0)">
						<stop  offset="0" style="stop-color:#FEBBBA"/>
						<stop  offset="1" style="stop-color:#FF928E"/>
					</linearGradient>
					<path class="st24" d="M376.7,1840.4c7.8,56.6,31,118.4,77.2,184l17.6-14.3c0,0-20.3-82.4-8.8-175.9
						C434.2,1828.6,400.5,1834.3,376.7,1840.4z"/>
					
						<linearGradient id="SVGID_21_" gradientUnits="userSpaceOnUse" x1="-1133.0946" y1="3809.1887" x2="-495.8902" y2="3315.4387" gradientTransform="matrix(1 0 0 1 -1140.7335 0)">
						<stop  offset="0" style="stop-color:#FF928E"/>
						<stop  offset="1" style="stop-color:#FE7062"/>
					</linearGradient>
					<path class="st25" d="M556.7,1641.5l-27.2-150c0,0-181.9,139-152.9,348.9c23.8-6,57.5-11.8,86-6.2
						C471,1766.8,495.9,1693.7,556.7,1641.5z"/>
				</g>
				<g>
					
						<linearGradient id="SVGID_22_" gradientUnits="userSpaceOnUse" x1="-929.0554" y1="4072.5139" x2="-291.8521" y2="3578.7646" gradientTransform="matrix(1 0 0 1 -1140.7335 0)">
						<stop  offset="0" style="stop-color:#FF928E"/>
						<stop  offset="1" style="stop-color:#FE7062"/>
					</linearGradient>
					<path class="st26" d="M889.2,1614.5L819,1765.7c11.4,91.3,60.4,130.7,113.3,145.9c3.3-41.6,13.8-75.2,23.6-98.5
						C888.2,1743.4,889.2,1614.5,889.2,1614.5z"/>
					
						<linearGradient id="SVGID_23_" gradientUnits="userSpaceOnUse" x1="2072.9387" y1="1870.1827" x2="2251.3086" y2="1870.1827" gradientTransform="matrix(1 0 0 1 -1140.7335 0)">
						<stop  offset="0" style="stop-color:#FEBBBA"/>
						<stop  offset="1" style="stop-color:#FF928E"/>
					</linearGradient>
					<path class="st27" d="M955.8,1813.1c-9.8,23.2-20.3,56.9-23.6,98.5c141.1,54.7,178.4-51.4,178.4-51.4l-26.1-4.6
						C1025.6,1861.8,984.5,1842.8,955.8,1813.1z"/>
				</g>
				
					<linearGradient id="SVGID_24_" gradientUnits="userSpaceOnUse" x1="1899.5591" y1="1393.5143" x2="1897.611" y2="1726.6066" gradientTransform="matrix(1 0 0 1 -1140.7335 0)">
					<stop  offset="0" style="stop-color:#FEBBBA"/>
					<stop  offset="1" style="stop-color:#FF928E"/>
				</linearGradient>
				<path class="st28" d="M824.5,1427.9l-33.9,124.6c-3.8,14-18.9,21.5-32.4,16.1c-14.5-5.8-33-13.7-48.8-22.3
					c-16.9-9.1-22.2-30.9-11.5-46.9l70.5-105.1L824.5,1427.9z"/>
			</g>
			<linearGradient id="SVGID_25_" gradientUnits="userSpaceOnUse" x1="1245.9661" y1="1817.0021" x2="255.1275" y2="2183.9785">
				<stop  offset="0" style="stop-color:#09005D"/>
				<stop  offset="1" style="stop-color:#1A0F91"/>
			</linearGradient>
			<path class="st29" d="M1175.2,1776.8l-868.4,316.1c-36.4,13.3-53.8,54.7-37.8,90l2.6,5.8c14.2,31.2,51.1,44.9,82.2,30.5
				l843.2-390.1L1175.2,1776.8z"/>
			
				<linearGradient id="SVGID_26_" gradientUnits="userSpaceOnUse" x1="2286.425" y1="1586.6741" x2="3143.7917" y2="1586.6741" gradientTransform="matrix(1 0 0 1 -1140.7335 0)">
				<stop  offset="0" style="stop-color:#B37CFF"/>
				<stop  offset="1" style="stop-color:#F895E7"/>
			</linearGradient>
			<ellipse class="st30" cx="1574.4" cy="1586.7" rx="428.7" ry="421"/>
			
				<linearGradient id="SVGID_27_" gradientUnits="userSpaceOnUse" x1="2238.0994" y1="1586.674" x2="3192.1174" y2="1586.674" gradientTransform="matrix(1 0 0 1 -1140.7335 0)">
				<stop  offset="0" style="stop-color:#09005D"/>
				<stop  offset="1" style="stop-color:#1A0F91"/>
			</linearGradient>
			<path class="st31" d="M1574.4,1118.3c-263.4,0-477,209.7-477,468.4c0,258.7,213.6,468.4,477,468.4c263.4,0,477-209.7,477-468.4
				C2051.4,1328,1837.8,1118.3,1574.4,1118.3z M1574.4,1986.3c-224.7,0-406.9-178.9-406.9-399.6c0-220.7,182.2-399.6,406.9-399.6
				c224.7,0,406.9,178.9,406.9,399.6C1981.3,1807.4,1799.1,1986.3,1574.4,1986.3z"/>
			<path class="st1" d="M1133.6,1644.7c-1.6,0-3-1.2-3.2-2.8c-1.4-11.2-2.4-22.5-3-33.6c-0.1-1.8,1.3-3.3,3-3.4
				c2.1-0.1,3.3,1.3,3.4,3c0.5,11,1.5,22.1,2.9,33.1c0.2,1.8-1,3.4-2.8,3.6C1133.9,1644.7,1133.8,1644.7,1133.6,1644.7z
				 M1136.9,1513.7c-0.2,0-0.4,0-0.6-0.1c-1.7-0.3-2.9-2-2.6-3.7c5.4-30.1,14.1-59.8,25.7-88.1l0,0
				c68.8-166.8,231.6-274.6,414.9-274.6c85.5,0,168.5,23.7,240.2,68.7c1.5,0.9,1.9,2.9,1,4.4c-0.9,1.5-2.9,2-4.4,1
				c-70.7-44.3-152.6-67.7-236.8-67.7c-180.7,0-341.2,106.2-409,270.6c0,0,0,0,0,0c-11.5,27.9-20,57.1-25.4,86.7
				C1139.8,1512.6,1138.4,1513.7,1136.9,1513.7z"/>
			<g>
				
					<linearGradient id="SVGID_28_" gradientUnits="userSpaceOnUse" x1="1675.6497" y1="3137.7747" x2="1511.6864" y2="3354.6846" gradientTransform="matrix(0.9897 -0.1428 0.1428 0.9897 -1239.5538 -1527.4298)">
					<stop  offset="0" style="stop-color:#FEBBBA"/>
					<stop  offset="1" style="stop-color:#FF928E"/>
				</linearGradient>
				<path class="st32" d="M898.6,1333.2c0.3,2.1-28.3,142.2-28.3,142.2l-79.6-18l7.4-136.7C798.1,1320.6,893.5,1297.4,898.6,1333.2z
					"/>
				<linearGradient id="SVGID_29_" gradientUnits="userSpaceOnUse" x1="717.4241" y1="1374.4401" x2="1286.3044" y2="1446.3674">
					<stop  offset="0" style="stop-color:#09005D"/>
					<stop  offset="1" style="stop-color:#1A0F91"/>
				</linearGradient>
				<path class="st33" d="M816,1351.1l-9.5,71.7c-0.1,0.9-0.1,1.8,0,2.7c0.8,5.6,5,24.7,24.3,19.3c17.5-5,33.6-9.2,44.7-5.8
					c5,1.5,8,6.6,6.9,11.7c-2.6,12.7-9,41.3-18.3,65.2c-1.9,4.9-7.2,7.4-12.2,6c-15.1-4.4-46.7-14.6-70.2-28.7
					c-3.2-1.9-5.1-5.4-4.9-9.1c0.8-18.1,2.9-73.1,1.1-88.5c-1.7-14.5-19.4-23.1-27.2-26.3c-2.5-1-4.5-3-5.5-5.5
					c-3.6-9-8.5-29.7,17.6-38.2c5.5-1.8,8.3-7.7,6.4-13.1c-3.9-10.8-5.5-27.2,14.7-36.3c20.5-9.2,35.9,1.7,44.2,10.6
					c3.3,3.6,8.7,4.1,12.9,1.5c2.4-1.5,5.4-2,9.1,0.3c5,3.1,11.5,1,14.1-4.3c4.9-10.1,14.9-20.9,35-17.5
					c35.7,6.1,39.7,45.6,30.3,68.8s-47.7,14.3-66.9,2.7c-14.6-8.9-33.6,0.4-41.8,5.4C818.1,1345.4,816.4,1348.1,816,1351.1z"/>
				
					<linearGradient id="SVGID_30_" gradientUnits="userSpaceOnUse" x1="1435.5081" y1="3309.5503" x2="1567.0198" y2="3174.6228" gradientTransform="matrix(0.9897 -0.1428 0.1428 0.9897 -1239.5538 -1527.4298)">
					<stop  offset="0" style="stop-color:#FEBBBA"/>
					<stop  offset="1" style="stop-color:#FF928E"/>
				</linearGradient>
				<path class="st34" d="M774.7,1421.6c0,0,14.7-41.1-0.4-51.1c-15.1-10.1-37.4-4.8-32.5,24.9
					C747.9,1432.4,774.7,1421.6,774.7,1421.6z"/>
			</g>
			
				<linearGradient id="SVGID_31_" gradientUnits="userSpaceOnUse" x1="1737.7991" y1="1952.2157" x2="1511.3097" y2="2152.7771" gradientTransform="matrix(1 0 0 1 -1140.7335 0)">
				<stop  offset="0" style="stop-color:#FEBBBA"/>
				<stop  offset="1" style="stop-color:#FF928E"/>
			</linearGradient>
			<path class="st35" d="M464.2,2007.5l82.1-6.7l35.6,32.8c0,0-8.4,11.6-34.7,4.9c-26.3-6.7-62.3-8.3-62.3-8.3s-36.3,16.4-36.7-14.3
				L464.2,2007.5z"/>
			
				<linearGradient id="SVGID_32_" gradientUnits="userSpaceOnUse" x1="2232.3584" y1="1849.2344" x2="2296.2341" y2="1849.2344" gradientTransform="matrix(1 0 0 1 -1140.7335 0)">
				<stop  offset="0" style="stop-color:#FEBBBA"/>
				<stop  offset="1" style="stop-color:#FF928E"/>
			</linearGradient>
			<path class="st36" d="M1100.1,1879.6c7.1,5.5,31.4-6,46.3-14c7.3-3.9,10.8-12.4,8.3-20.2c-3.6-11.3-9.6-25.9-16.9-27.7
				C1125.6,1814.5,1070.9,1856.7,1100.1,1879.6z"/>
			<path class="st1" d="M324,2207c-0.3,0-0.7-0.1-1.1-0.2c-33.9-11.7-41.8-31.8-42.5-46.5c-0.9-21.6,12.6-41.6,33.7-49.8l104.3-40.7
				c1.6-0.6,3.5,0.2,4.1,1.8c0.6,1.6-0.2,3.5-1.8,4.2l-104.3,40.7c-18.5,7.2-30.4,24.7-29.6,43.5c0.8,18.6,13.6,32.3,38.1,40.7
				c1.7,0.6,2.6,2.4,2,4.1C326.5,2206.2,325.3,2207,324,2207z"/>
			<path class="st1" d="M451.7,2063.6c-1.3,0-2.5-0.8-3-2c-0.6-1.7,0.2-3.5,1.8-4.2l13.5-5.3c1.6-0.6,3.5,0.2,4.1,1.8
				c0.6,1.7-0.2,3.5-1.8,4.2l-13.5,5.3C452.5,2063.5,452.1,2063.6,451.7,2063.6z"/>
		</g>
		<g>
			
				<linearGradient id="SVGID_33_" gradientUnits="userSpaceOnUse" x1="-4039.6465" y1="2768.1284" x2="-4615.3174" y2="3394.2974" gradientTransform="matrix(-1 0 0 1 -1645.3792 0)">
				<stop  offset="0" style="stop-color:#4F52FF"/>
				<stop  offset="1" style="stop-color:#4042E2"/>
			</linearGradient>
			<path class="st37" d="M2576.2,2814.8c0,0,6,33.8,8.9,67.2c1.1,13.1-8.9,24.4-22,24.9c-44.5,1.9-139.7,5.5-173.8,3.9
				c-5.1-0.2-8.5-5.5-6.6-10.3c1.6-4,4.7-7.2,8.6-9l157.2-72.3L2576.2,2814.8z"/>
			
				<linearGradient id="SVGID_34_" gradientUnits="userSpaceOnUse" x1="-4226.5005" y1="2814.6353" x2="-4175.3667" y2="2814.6353" gradientTransform="matrix(-1 0 0 1 -1645.3792 0)">
				<stop  offset="0" style="stop-color:#FEBBBA"/>
				<stop  offset="1" style="stop-color:#FF928E"/>
			</linearGradient>
			<path class="st38" d="M2581.1,2794.9l-4.8,40.4c0,0-27.5,12.8-46.3-1.6l11.4-45L2581.1,2794.9z"/>
			
				<linearGradient id="SVGID_35_" gradientUnits="userSpaceOnUse" x1="-4347.751" y1="2423.6492" x2="-4178.6768" y2="2423.6492" gradientTransform="matrix(-1 0 0 1 -1645.3792 0)">
				<stop  offset="0" style="stop-color:#09005D"/>
				<stop  offset="1" style="stop-color:#1A0F91"/>
			</linearGradient>
			<path class="st39" d="M2577.5,2036c2.1,10.5,11.1,526.1-44,757.1c-0.9,3.8,1,7.7,4.6,9.1c8.5,3.5,25,8.5,44.9,9.1
				c6.1,0.2,11.7-3.8,13.4-9.7c15.8-53.6,91.2-322.2,101.1-578.7c11-286.7,0-9.8,0-9.8l-6.5-177.2L2577.5,2036z"/>
			
				<linearGradient id="SVGID_36_" gradientUnits="userSpaceOnUse" x1="-4168.7891" y1="2649.4011" x2="-4744.459" y2="3275.5696" gradientTransform="matrix(-1 0 0 1 -1645.3792 0)">
				<stop  offset="0" style="stop-color:#4F52FF"/>
				<stop  offset="1" style="stop-color:#4042E2"/>
			</linearGradient>
			<path class="st40" d="M2757.1,2832.4c0,0,9.5,17,18.7,62.3c1.7,8.2-4.1,16-12.4,16.8c-14.7,1.4-37.3,3.3-55.4,3.2
				c-8.4-0.1-14.9-7.3-13.9-15.6c2-16.5,8.3-43.6,27.6-64.8L2757.1,2832.4z"/>
			
				<linearGradient id="SVGID_37_" gradientUnits="userSpaceOnUse" x1="-4410.7861" y1="2812.0127" x2="-4366.6367" y2="2812.0127" gradientTransform="matrix(-1 0 0 1 -1645.3792 0)">
				<stop  offset="0" style="stop-color:#FEBBBA"/>
				<stop  offset="1" style="stop-color:#FF928E"/>
			</linearGradient>
			<path class="st41" d="M2765.4,2780.5l-11.2,61.1c0,0-11.1,8.2-33,2.3l5.3-65.7L2765.4,2780.5z"/>
			
				<linearGradient id="SVGID_38_" gradientUnits="userSpaceOnUse" x1="-4458.3726" y1="2418.1169" x2="-4218.3418" y2="2418.1169" gradientTransform="matrix(-1 0 0 1 -1645.3792 0)">
				<stop  offset="0" style="stop-color:#09005D"/>
				<stop  offset="1" style="stop-color:#1A0F91"/>
			</linearGradient>
			<path class="st42" d="M2795.6,2051.8c45.1,272-9.8,672.3-28.3,750.6c-1.1,4.8-5,8.5-9.9,9.3c-8.3,1.4-21.9,2.5-35.3-1.4
				c-4.6-1.3-7.9-5.5-8.1-10.3c-2.5-63.3,2-452.2-40-605.9c-2.1-7.8-6.9-14.6-13.5-19.3l-81.5-57.9l-6.2-93.7L2795.6,2051.8z"/>
			<g>
				<linearGradient id="SVGID_39_" gradientUnits="userSpaceOnUse" x1="2257.8777" y1="2290.4155" x2="2728.2498" y2="1579.8529">
					<stop  offset="0" style="stop-color:#FF928E"/>
					<stop  offset="1" style="stop-color:#FE7062"/>
				</linearGradient>
				<path class="st43" d="M2508.4,1536.4c135.1-2.2,284.1,35.5,284.1,35.5c40.3,234.9,7,505.9,7,505.9
					c-104.6,27.4-222.5-16.8-222.5-16.8c-17.4-98.2-98.5-374.5-98.5-374.5c-66-8.2-120.4-27.2-165.1-52.4
					c34.2-39.6,50.2-90,57.2-119.7C2418.5,1529.1,2466.8,1537.1,2508.4,1536.4z"/>
				
					<linearGradient id="SVGID_40_" gradientUnits="userSpaceOnUse" x1="-4016.0852" y1="1480.6169" x2="-3754.8516" y2="1480.6169" gradientTransform="matrix(-1 0 0 1 -1645.3792 0)">
					<stop  offset="0" style="stop-color:#FEBBBA"/>
					<stop  offset="1" style="stop-color:#FF928E"/>
				</linearGradient>
				<path class="st44" d="M2109.5,1337.4c13.3-16,30.1-8.4,30.1-8.4c19.9,84,124.1,152,231.2,185.3c-7,29.8-23.1,80.1-57.2,119.7
					C2135.8,1534.1,2109.5,1337.4,2109.5,1337.4z"/>
			</g>
			<g>
				
					<linearGradient id="SVGID_41_" gradientUnits="userSpaceOnUse" x1="13653.5137" y1="1436.8282" x2="13828.8086" y2="1835.6626" gradientTransform="matrix(1 0 0 1 -11485.8467 0)">
					<stop  offset="0" style="stop-color:#FEBBBA"/>
					<stop  offset="1" style="stop-color:#FF928E"/>
				</linearGradient>
				<path class="st45" d="M2112.7,1341.5c-1.4,4.4,14.7,11.1,24.2-6.9c0.3-8.7,5.6-45.7,0.4-52.8c-27.5-37.5-80.9-84.6-80.9-84.6
					c-9,8.9-1.6,17.6-1.6,17.6l25.9,27c-5.4,9.8-12,18-15.1,29.9c-2.3,9-0.9,18.5,3.6,26.7c4.5,8.2,10.7,18.8,16.6,27.2
					C2096.9,1341.4,2112.7,1341.5,2112.7,1341.5z"/>
				
					<linearGradient id="SVGID_42_" gradientUnits="userSpaceOnUse" x1="-3756.1055" y1="1304.002" x2="-3682.9626" y2="1191.5448" gradientTransform="matrix(-1 0 0 1 -1645.3792 0)">
					<stop  offset="0" style="stop-color:#FEBBBA"/>
					<stop  offset="1" style="stop-color:#FF928E"/>
				</linearGradient>
				<path class="st46" d="M2092,1259.4l23.6,20l7.4,19.9l-21,23.3c0,0-7.1-39.5-12.3-48.1C2084.4,1266,2087.1,1261.9,2092,1259.4z"
					/>
			</g>
			<linearGradient id="SVGID_43_" gradientUnits="userSpaceOnUse" x1="2394.7205" y1="2381.0015" x2="2865.0933" y2="1670.4376">
				<stop  offset="0" style="stop-color:#FF928E"/>
				<stop  offset="1" style="stop-color:#FE7062"/>
			</linearGradient>
			<path class="st47" d="M2740.7,1702.6l51.8-130.8c0,0,126.2,85.7,146.9,194.4c-23.8,1.8-67.2,8-109.7,29.4
				C2820.5,1744.3,2740.7,1702.6,2740.7,1702.6z"/>
			
				<linearGradient id="SVGID_44_" gradientUnits="userSpaceOnUse" x1="-4587.7183" y1="1850.6473" x2="-4257.125" y2="1850.6473" gradientTransform="matrix(-1 0 0 1 -1645.3792 0)">
				<stop  offset="0" style="stop-color:#FEBBBA"/>
				<stop  offset="1" style="stop-color:#FF928E"/>
			</linearGradient>
			<path class="st48" d="M2630.5,1825.7c0,0,141.6,80.1,189.4,11.7c9.9-14.2,12.3-28.3,9.9-41.7c42.5-21.4,85.8-27.6,109.7-29.4
				c6.3,32.8,2.9,67.6-16.3,102.8c-83.7,153.1-311.4-8.5-311.4-8.5L2630.5,1825.7z"/>
			<g>
				
					<linearGradient id="SVGID_45_" gradientUnits="userSpaceOnUse" x1="-4157.1084" y1="1615.6061" x2="-3975.3274" y2="2373.0295" gradientTransform="matrix(-1 0 0 1 -1645.3792 0)">
					<stop  offset="0" style="stop-color:#09005D"/>
					<stop  offset="1" style="stop-color:#1A0F91"/>
				</linearGradient>
				<path class="st49" d="M2647.5,1927l-77.3-270c-0.9-3.1-3.5-5.3-6.7-5.7c-14-1.6-54.6-6.2-101.5-10.2
					c-56.4-4.8-122-8.6-161.2-5.4c-5.6,0.5-8.9,6.4-6.5,11.4c22.3,45.1,113.9,228.4,159.8,288.4c1.5,2,3.9,3.2,6.4,3.1l179.4-1.7
					C2645.2,1937,2648.9,1932,2647.5,1927z"/>
				
					<linearGradient id="SVGID_46_" gradientUnits="userSpaceOnUse" x1="-4043.2964" y1="1496.2151" x2="-4082.011" y2="1666.2225" gradientTransform="matrix(-1 0 0 1 -1645.3792 0)">
					<stop  offset="0" style="stop-color:#4F52FF"/>
					<stop  offset="1" style="stop-color:#4042E2"/>
				</linearGradient>
				<path class="st50" d="M2454.1,1617.7l-56-9.3c-3-0.5-5.4,2.4-4.5,5.2l5.5,16.8c0.5,1.5,1.8,2.5,3.3,2.7l53.9,7.2
					c2.8,0.4,5.1-2.2,4.4-4.9l-3.4-14.7C2457,1619.2,2455.7,1618,2454.1,1617.7z"/>
				
					<linearGradient id="SVGID_47_" gradientUnits="userSpaceOnUse" x1="-4063.5579" y1="1567.5278" x2="-4082.0735" y2="1678.6221" gradientTransform="matrix(-1 0 0 1 -1645.3792 0)">
					<stop  offset="0" style="stop-color:#4F52FF"/>
					<stop  offset="1" style="stop-color:#4042E2"/>
				</linearGradient>
				<path class="st51" d="M2496,1665.2l-4.6-24.1c-0.5-2.4-2.5-4.2-4.9-4.5l-113.2-11.5c-3.8-0.4-6.9,3.1-6,6.8l7.2,30
					c0.6,2.4,2.7,4.1,5.1,4.3l110.6,5.6C2493.9,1672,2496.7,1668.7,2496,1665.2z"/>
				
					<linearGradient id="SVGID_48_" gradientUnits="userSpaceOnUse" x1="-4281.6699" y1="1815.9846" x2="-4178.6768" y2="1815.9846" gradientTransform="matrix(-1 0 0 1 -1645.3792 0)">
					<stop  offset="0" style="stop-color:#FEBBBA"/>
					<stop  offset="1" style="stop-color:#FF928E"/>
				</linearGradient>
				<path class="st52" d="M2628.8,1861.8c0,0,10.8-44.3,6.4-60c-4.3-15.7-12.8-35.9-40.8-31.4c-28.1,4.5-61.1,16.3-61.1,16.3
					s1.7,20.5,23,13.9l-13.2,10.2c0,0,1.9,16.4,19.9,7.6l-12.3,13.6c0,0,7.7,13.5,21,4.8C2584.9,1828.1,2591.3,1867.1,2628.8,1861.8
					z"/>
			</g>
			<linearGradient id="SVGID_49_" gradientUnits="userSpaceOnUse" x1="2671.9858" y1="1694.2863" x2="2588.5823" y2="1394.0338">
				<stop  offset="0" style="stop-color:#FEBBBA"/>
				<stop  offset="1" style="stop-color:#FF928E"/>
			</linearGradient>
			<path class="st53" d="M2645.3,1426.7l43,124.3c0.7,2.1-0.1,4.3-2,5.4c-11.7,6.5-53.9,25.2-104.8-7c-5.3-3.4-8.9-8.8-9.7-15.1
				l-13.9-107.6H2645.3z"/>
			<g>
				
					<linearGradient id="SVGID_50_" gradientUnits="userSpaceOnUse" x1="-8692.9229" y1="-4412.9253" x2="-8741.7656" y2="-4574.022" gradientTransform="matrix(-0.746 -0.6659 -0.6659 0.746 -6896.79 -1082.5051)">
					<stop  offset="0" style="stop-color:#FEBBBA"/>
					<stop  offset="1" style="stop-color:#FF928E"/>
				</linearGradient>
				<path class="st54" d="M2551.7,1311.6c0,0-47.2,88.8-41.1,124.7c6,35.9,64.5,33.3,115.6,4.2l35.7-95.9L2551.7,1311.6z"/>
				
					<linearGradient id="SVGID_51_" gradientUnits="userSpaceOnUse" x1="-8736.9883" y1="-4693.6123" x2="-8696.1318" y2="-4460.5757" gradientTransform="matrix(-0.746 -0.6659 -0.6659 0.746 -6896.79 -1082.5051)">
					<stop  offset="0" style="stop-color:#09005D"/>
					<stop  offset="1" style="stop-color:#1A0F91"/>
				</linearGradient>
				<path class="st55" d="M2624,1393.4c-2.1-0.9-2.8-3.5-1.6-5.4c3.8-5.8,10.9-17.6,13.1-27.9c0,0,8.5-5.4-21.6-12.6
					c-30.1-7.2-74.9-18.4-84.4-44c-9.2-25,15-87.7,53.5-37.7c1.5,1.9,4.3,1.9,5.8,0c6.3-8.2,22.9-25.3,46-14.9
					c21.6,9.7,24,25.5,23.7,33.5c-0.1,2.3,2,4.2,4.3,3.7c10.9-2.1,37.1-3.9,49.3,23c10.1,22.1,3.5,34.6-2.4,40.8
					c-1.9,2-1.1,5.3,1.6,6.1c7.2,2.2,16.4,8.3,15.5,25.1c-1.3,23.2-27.2,21.2-34.6,20.1c-1.2-0.2-2.4,0.2-3.3,1.1
					c-6.3,7-34.9,36.8-65.8,40.4c-2.7,0.3-4.8-2.3-3.9-4.9l13.4-38.9c0.6-1.8-0.2-3.8-2-4.6L2624,1393.4z"/>
				
					<linearGradient id="SVGID_52_" gradientUnits="userSpaceOnUse" x1="-8742.8516" y1="-4413.6748" x2="-8786.7969" y2="-4558.6172" gradientTransform="matrix(-0.746 -0.6659 -0.6659 0.746 -6896.79 -1082.5051)">
					<stop  offset="0" style="stop-color:#FEBBBA"/>
					<stop  offset="1" style="stop-color:#FF928E"/>
				</linearGradient>
				<path class="st56" d="M2618.6,1398.9c0,0,33.6-23.1,36.1-3.6c2.5,19.4-30.3,28.1-46.5,20.9L2618.6,1398.9z"/>
			</g>
		</g>
		<g>
			<path class="st1" d="M998.2,824.7l129.1,8.8c6.1,0.5,9.5-7,5-11.2l-123.8-91.7L998.2,824.7z"/>
			<path class="st1" d="M260.4,411.4l727.3-4.4c16.7-0.1,30.2,12.2,30,27.4l-3.1,366.2c-0.1,15.3-14,27.4-30.7,27l-719.4-19.7
				c-16-0.4-28.7-12.3-28.9-26.8l-4.8-342C230.6,423.9,243.9,411.5,260.4,411.4z"/>
			<path class="st57" d="M283,433.8l681-3.9c15.6-0.1,28.3,10.7,28.1,24l-2.9,319.9c-0.1,13.3,11.3,32.1-4.4,31.7l-698-25.3
				c-15-0.4-26.9-10.7-27.1-23.5l-4.5-298.8C255,444.7,267.5,433.9,283,433.8z"/>
			<path class="st58" d="M984.9,805.5l-719.6-19.7c-3-0.1-5.4-2.3-5.5-5.1l-4.8-342c0-1.4,0.5-2.7,1.6-3.7c1.1-1,2.5-1.5,4-1.6
				l727.3-4.4c1.6,0,3,0.5,4,1.5c1.1,1,1.7,2.3,1.7,3.7l-3.1,366.2C990.5,803.2,988,805.5,984.9,805.5z M265.6,780.5L985,800.2
				l2.8-366.1l-727.1,4.6L265.6,780.5z"/>
			<path class="st58" d="M302.4,516.5c0,13,7.5,23.5,16.9,23.5h618.6c9.3,0,16.9-10.5,16.9-23.5c0-13-7.5-23.5-16.9-23.5H319.2
				C309.9,493.1,302.4,503.6,302.4,516.5z"/>
			<path class="st58" d="M336.3,580h579.9c12.6,0,22.8,6.3,22.8,14.1c0,7.8-10.2,14.1-22.8,14.1H336.3c-12.6,0-22.8-6.3-22.8-14.1
				S323.6,580,336.3,580z"/>
			<path class="st58" d="M313.4,658.1c0,7.8,10.2,14,22.8,14h580c12.6,0,22.8-6.3,22.8-14v-8.7c0-7.9-10.6-14.2-23.4-14l-580,8.7
				C323.3,644.3,313.4,650.5,313.4,658.1z"/>
			<path class="st58" d="M338.6,702.4h579.9c12.6,0,22.8,6.3,22.8,14.1s-10.2,14.1-22.8,14.1H338.6c-12.6,0-22.8-6.3-22.8-14.1
				S325.9,702.4,338.6,702.4z"/>
		</g>
	</g>
	<g>
	</g>
	<g>
	</g>
	<g>
	</g>
	<g>
	</g>
	<g>
	</g>
	<g>
	</g>
	<g>
	</g>
	<g>
	</g>
	<g>
	</g>
	<g>
	</g>
	<g>
	</g>
	<g>
	</g>
	<g>
	</g>
	<g>
	</g>
	<g>
	</g>
</g>
</svg>
