<?xml version="1.0" encoding="utf-8"?>
<!-- Generator: Adobe Illustrator 23.0.5, SVG Export Plug-In . SVG Version: 6.00 Build 0)  -->
<svg version="1.1" xmlns="http://www.w3.org/2000/svg" xmlns:xlink="http://www.w3.org/1999/xlink" x="0px" y="0px"
	 viewBox="0 0 230.1 146.2" style="enable-background:new 0 0 230.1 146.2;" xml:space="preserve">
<style type="text/css">
	.st0{fill:#DCE8F9;}
	.st1{fill:#BCEBFB;}
	.st2{fill:#A3BACB;}
	.st3{fill:#A7B5BC;}
	.st4{fill:#ACBCD1;}
	.st5{fill:#15467E;}
	.st6{fill:#C3199B;}
	.st7{fill:#FEC64C;}
	.st8{fill:#EAEAEA;}
	.st9{fill:#A94C40;}
	.st10{fill:#7F352A;}
	.st11{fill:#939393;}
	.st12{fill:#009593;}
	.st13{fill:#FE5730;}
	.st14{fill:#B8F4F3;}
	.st15{fill:#6E6E6E;}
	.st16{fill:#E27663;}
	.st17{fill:#00BCBA;}
	.st18{fill:#CA5849;}
	.st19{fill:#681056;}
	.st20{fill:#8B136F;}
	.st21{fill:#8C136F;}
	.st22{fill:#CC4224;}
	.st23{fill:#E27563;}
	.st24{fill:#019694;}
	.st25{fill:#F3BABA;}
	.st26{fill:#AA4C40;}
	.st27{fill:#FEC54C;}
	.st28{fill:#0CAEB1;}
	.st29{fill:#CA584A;}
	.st30{fill:#FE5931;}
	.st31{fill:#6A1357;}
	.st32{fill:#FE5830;}
	.st33{fill:#FDC64F;}
	.st34{fill:#C9594A;}
	.st35{fill:#81372C;}
	.st36{fill:#CB584B;}
	.st37{fill:#FB5A35;}
	.st38{fill:#FC5933;}
	.st39{fill:#FCC34D;}
	.st40{fill:#8E1A73;}
	.st41{fill:#FEA644;}
	.st42{fill:#FE913D;}
	.st43{fill:#922774;}
	.st44{fill:#95276B;}
	.st45{fill:#FE893E;}
	.st46{fill:#FC9948;}
	.st47{fill:#E5E5E5;}
	.st48{fill:#FA5B37;}
	.st49{fill:#681257;}
	.st50{fill:#8C146F;}
	.st51{fill:#885E80;}
	.st52{fill:#B6F3F2;}
	.st53{fill:#FEFEFE;}
	.st54{fill:#EF8B8F;}
	.st55{fill:#FCC14A;}
	.st56{fill:#FE833A;}
	.st57{fill:#FE8D3C;}
	.st58{fill:#FE953E;}
	.st59{fill:#FD883B;}
	.st60{fill:#FE8C3C;}
	.st61{fill:#FE7336;}
	.st62{fill:#681156;}
	.st63{fill:#8C1A65;}
	.st64{fill:#E4E4E4;}
	.st65{fill:#E4E3E4;}
	.st66{fill:#FDC64C;}
	.st67{fill:#E5E0DE;}
	.st68{fill:#FDC44B;}
	.st69{fill:#FE933E;}
	.st70{fill:#FEBA48;}
	.st71{fill:#FE9F41;}
	.st72{fill:#E17663;}
	.st73{fill:#CB594A;}
	.st74{fill:#CD4324;}
	.st75{fill:#FE9E40;}
	.st76{fill:#AB4E40;}
	.st77{fill:#80362B;}
	.st78{fill:#EF8C8F;}
	.st79{fill:#06BCB8;}
	.st80{fill:#B1C36B;}
	.st81{fill:#7EC27E;}
	.st82{fill:#83C27B;}
	.st83{fill:#FE8A3B;}
	.st84{fill:#FE853A;}
	.st85{fill:#FE883B;}
	.st86{fill:#F1A8A9;}
	.st87{fill:#82362B;}
	.st88{fill:#F4C365;}
	.st89{fill:#A71685;}
	.st90{fill:#03BCB9;}
	.st91{fill:#8EC276;}
	.st92{fill:#FE983F;}
	.st93{fill:#EF8C90;}
	.st94{fill:#8DBD3F;}
	.st95{fill:#FEC74E;}
	.st96{fill:#F2BA51;}
	.st97{fill:#F6BA4A;}
	.st98{fill:#EE8A8E;}
	.st99{fill:#F8BE8F;}
	.st100{fill:#FBC176;}
	.st101{fill:#E09093;}
	.st102{fill:#F0B9B7;}
	.st103{fill:#F9AD67;}
	.st104{fill:#F2B9B7;}
	.st105{fill:#FABF86;}
	.st106{fill:#000100;}
	.st107{fill:#EB4D2A;}
	.st108{fill:#1A1816;}
	.st109{fill:#A74B3F;}
	.st110{fill:#7E352A;}
	.st111{fill:#F4BE49;}
	.st112{fill:#6B511D;}
	.st113{fill:#431E19;}
	.st114{fill:#32210F;}
	.st115{fill:#010000;}
	.st116{fill:#31250D;}
	.st117{fill:#E27662;}
	.st118{fill:#DD70AA;}
	.st119{fill:#DC6EAA;}
	.st120{fill:#DC6CAA;}
	.st121{fill:#CB5848;}
	.st122{fill:#E64A29;}
	.st123{fill:#E07461;}
	.st124{fill:#A94B3F;}
	.st125{fill:#050202;}
	.st126{fill:#3A1915;}
	.st127{fill:#4F231D;}
	.st128{fill:#481F1A;}
	.st129{fill:#562620;}
	.st130{fill:#3C1A16;}
	.st131{fill:#4E221D;}
</style>
<g id="Background">
	<circle class="st0" cx="116.4" cy="133" r="109.5"/>
	<path class="st1" d="M6.8-119.5c0.2-31.5,0.3-63,0.5-94.5c0-8.1,0.1-16.3,1.7-24.2c5-24.5,25.5-44.3,49.4-51.9s50.4-4,73.2,6.4
		c12.3,5.6,25.2,13.3,38.4,10.3c15.4-3.5,25.2-20.8,40.9-23c14.9-2.1,27.6,10.1,37,21.8c12,14.8,23.1,30.3,33.1,46.5
		c16.3,26.5,29.1,62.9,9.2,86.9c-9.3,11.2-23.6,16.7-37.4,21.3C197-101.1,139.3-88.2,80.8-81.4c-17.4,2-35.4,3.5-52.3-1.2
		c-33.4-9.3-57.3-44.6-53.7-79"/>
	<g>
		
			<image style="overflow:visible;" width="108" height="94" xlink:href="ECD5263A.jpg"  transform="matrix(0.1918 0 0 0.1918 15.1353 79.2792)">
		</image>
		<path class="st2" d="M25.8,137.6c0-0.1,0-0.2,0-0.2c1.3-0.5,2.7-0.3,4.1-0.2c0.2,0,0.4,0.1,0.6,0c0.3,0,0.4,0.1,0.4,0.4
			C29.2,137.6,27.5,137.6,25.8,137.6z"/>
		<path class="st3" d="M207.9,137.6c0.2-0.3,0.4-0.2,0.6-0.2c0.2-0.2,0.5-0.3,0.8-0.3c0.2,0,0.3,0,0.5,0c0.6,0,1.3,0.1,1.6-0.6
			c0.2,0,0.4-0.1,0.4,0.3c-0.2,0.3-0.1,0.6,0.1,0.8C210.5,137.6,209.2,137.6,207.9,137.6z"/>
		<path class="st4" d="M202.1,137.4c0,0.1,0,0.2,0,0.2c-1,0-1.9,0-2.9,0c0-0.1,0-0.1,0-0.2C200.2,136.9,201.2,137,202.1,137.4z"/>
		<path class="st5" d="M70.6,87.6c0-0.4,0-0.9,0-1.3c0-23.7,0-47.5,0-71.2c0-2.1,0.6-2.7,2.7-2.7c26.9,0,53.7,0,80.6,0
			c2.2,0,2.7,0.5,2.7,2.7c0,36.1,0,72.2,0,108.3c0,2.2-0.5,2.7-2.7,2.7c-26.8,0-53.6,0-80.5,0c-2.2,0-2.8-0.6-2.8-2.8
			c0-10.7,0-21.4,0-32.1c0.4-0.3,0.7,0.1,0.9,0.3c0.4,0.4,0.8,0.4,1.2,0.2c0.5-0.1,1.1-0.2,1.5,0.3c0.3,0.6,0.2,1.1,0.2,1.7
			c0,7.1,0,14.3,0,21.4c0,0.4,0,0.9,0,1.3c0.1,0.9,0.5,1.4,1.5,1.6c0.5,0.1,1,0.1,1.5,0.1c24.1,0,48.2,0,72.3,0c2.7,0,3-0.2,3-3
			c0-32,0-63.9,0-95.9c0-2.9-0.1-3-3.1-3c-4.6,0-9.1,0-13.7,0c-0.5,0-1.1,0-1.6,0.2c-0.6,0.2-0.9,0.7-1.1,1.3
			c-0.6,2-1.2,2.4-3.3,2.5c-9.7,0-19.3,0-29,0c-1.4,0-2.7,0-4.1,0c-1.6,0-2.3-0.6-2.7-2.1c-0.4-1.3-0.9-1.8-2.3-1.8
			c-5.1,0-10.3,0-15.4,0c-1.4,0-1.9,0.6-2,2c0,0.5,0,1,0,1.4c0,22.1,0,44.2,0,66.3c0,0.6,0,1.3-0.1,1.9c-0.2,0.6-0.6,1.1-1.3,1.3
			c-0.4-0.2-1,0.4-1.3-0.1C71.4,88.6,70.5,88.4,70.6,87.6z"/>
		<path class="st6" d="M22.1,112.4c-3-0.4-6-0.9-9-1.3c-0.7-0.1-1-0.4-1.1-1.2c-0.7-7.3,1.7-13.5,6.4-19c0.2-0.2,0.5-0.4,0.5-0.8
			c0.1-0.1,0.2-0.1,0.3-0.1c4.7,1.1,9.3,2.3,14,3.5c0.4,0.1,0.7,0.3,1,0.5c1.5,2,2.6,4.3,3.4,6.7c1.5,4.2,2.2,8.5,2.3,12.9
			c0,1.3,0,1.3-1.2,1.1c-3-0.4-6-0.9-9-1.3c-0.3,0.2-0.6,0.2-0.9,0.2c-1.8-0.3-3.7-0.5-5.5-0.8C22.7,112.7,22.4,112.5,22.1,112.4z"
			/>
		<path class="st7" d="M169.5,41.9c-1.5-0.7-2.5-2-3.4-3.3c-7.1-9.7-1.9-23.4,9.9-25.9c9.8-2,18.5,4.8,19.7,13.8
			c0.6,4.3-0.4,8.3-2.8,11.9c-0.2,0.3-0.4,0.6-0.7,0.7c-0.1,0-0.1,0.1-0.2,0.1c-2.3-0.4-4.5-0.7-6.7-1.6c-0.3-1.4-0.3-2.9-0.4-4.4
			c0-0.4,0-0.8-0.1-1.2c-0.1-0.3-0.1-0.6-0.1-0.9c0.1-1,1-1.6,1.4-2.5c1.1-1.6,1.5-3.3,1.2-5.3c0-0.2-0.1-0.4,0-0.6
			c0.4-1.4-0.4-2.7-0.7-4c-0.4-1.3-1.3-2.2-2.5-2.7c-0.1,0-0.1,0.1-0.1,0.2c0.1,0.4,0.5,0.8,0.2,1.1c-0.4,0.4-0.8-0.1-1.2-0.2
			c-1.6-0.8-3.3-0.8-5-0.6c-1.7,0.2-3.3,1-5.1,0.5c0.8,1.4,0.8,1.4-0.6,1.8c-1.3,0.4-2.1,1.4-2.6,2.7c0.4-0.1,0.7-0.4,1-0.1
			c0.3,0.3,0.1,0.6,0,1c-0.2,0.7-0.1,1.3,0.4,1.9c0.7,0.9,0.8,1,1.8,0.4c0.1-0.1,0.2,0,0.3,0.1c0.6,1.5,0.4,3.2,0.7,4.7
			c0.2,0.9,0.4,1.9,0.6,2.8c0.3,1.3,0.9,2.3,2.3,2.7c0.7,0.2,0.9,0.8,0.9,1.4c0,0.7,0.1,1.4-0.3,2c-1.4,1.1-3.1,1.5-4.8,2.2
			C171.4,41.3,170.6,42,169.5,41.9z"/>
		<path class="st6" d="M36.5,37.3c-5.1-5.9-4.4-15.2,1.5-20.8c8.4-8,22.6-3.8,25.4,7.5c1.5,6.1-0.8,12.5-5.6,16
			c-0.9,0-1.6-0.5-2.4-0.8c-0.9-0.4-1.9-0.7-2.7-1.1c0.1-1.2,0.1-1.2-1.2-1.7c-0.3-0.1-0.7-0.2-0.9-0.5c-0.2-0.3-0.3-0.7,0-1.1
			c1.1-0.4,2.1,0.1,3.1,0.3c0.8,0.1,1,0,1-0.8c-0.1-2.7,0-5.5,0-8.2c0-0.8,0.1-1.5,0.2-2.2c0.2-1.6-0.5-3-1.5-4.1
			c-2-2.5-5.5-3.5-8.6-2.5c-1.8,0.6-3,1.9-3.7,3.6c-0.6,1.5-0.9,3-1.1,4.6c-0.2,2.1-0.3,4.2-0.3,6.3c0,0.7,0.3,1.1,1,1.4
			c0.9,0.4,1.9,0.5,2.7,1.2c0,0.4-0.2,0.6-0.4,0.9c-0.2,0.1-0.4,0.2-0.7,0.2c-1,0.1-1.8,0.5-2.3,1.5C38.8,37,37.7,37.6,36.5,37.3z"
			/>
		<path class="st7" d="M57.2,68.9c1.4,0.9,2.9,1.8,4.3,2.7c0.2,0.1,0.3,0.3,0.3,0.5c1.1,4.8,1.2,9.6,2,14.4c0.1,0.4,0.1,0.8-0.2,1.2
			c0.3,2.4,0.6,4.8,0.9,7.2c0.1,0.9-0.9,0.6-1.2,1c-1.3,0.9-2.6,1.5-4.2,1.4c-3.1-0.1-6.2-0.6-9.3-0.7c-0.4,0-0.8-0.1-1.1-0.4
			c-0.1,0-0.1,0-0.2,0c-2-0.2-2-0.2-1.6-2.1c0.3-1.6,0.6-3.3,0.9-4.9c0.1-0.1,0.1-0.3,0.2-0.4c1.6-1.4,1.1-3.2,0.9-5
			c-0.1-0.7-0.1-1.5-0.1-2.2c-0.3-1.5-0.2-3.1-0.2-4.6c0-1.2,0-2.3,0-3.5c0.1-1-0.2-2,0.3-2.9c0.9-0.4,1.8-0.8,2.7-1.2
			c0.4,0.2,0.5,0.7,0.7,1c0,0.1,0.1,0.2,0.1,0.2c0.1,0.3,0.2,0.5,0.4,0.7c0.1,0.2,0.2,0.3,0.2,0.5c0.1,0.7,0.5,1.3,0.8,1.9
			c0.4-0.2,0.5-0.6,0.6-0.9c0-0.1,0.1-0.2,0.1-0.3c0.4-0.4,0.5-1.4,1.4-0.6c0.6,0.7,0.9,1.5,0.8,2.5c-0.1,4.4,0.3,8.9,0.2,13.3
			c0,1.1,0.2,2.1,0.2,3.2c0.1,1.2,1.1,1.8,1.8,2.7c0.3,0.3,0.5,0.1,0.6-0.2c0.5-1.1,0.9-2.1,0.6-3.4c-1.1-5.2-2.1-10.3-3.2-15.5
			c-0.2-0.9-0.2-1.8,0.1-2.6c0-0.1,0.1-0.2,0.1-0.3c0.1-0.1,0.2-0.2,0.3-0.3c0.2,0,0.3,0,0.4,0.1c0.2,0.2,0.5,0.5,0.7,0.6
			c0,0,0.1,0.1,0.1,0.1c0,0.1,0.1,0.1,0.1,0.1c0-0.1-0.1-0.1-0.1-0.1c-0.3-0.4-0.6-0.8-1-1.1c-0.2-0.2-0.3-0.5-0.4-0.7
			c-0.1-0.3-0.5-0.6-0.6-0.9C57.1,69.2,57.1,69,57.2,68.9z"/>
		<path class="st8" d="M168.3,72.7c-1.3-0.5-2-1.7-2.7-2.7c-2.4-3.7-2.8-7.7-0.9-11.6c1.9-3.9,5.1-6.3,9.6-6.7
			c3.6-0.4,6.7,0.8,9.3,3.1c2.1,1.8,3.2,4.3,3.6,7c0.4,2.9-0.1,5.7-1.9,8.2c-0.2,0.3-0.3,0.7-0.8,0.7c-0.2,0.2-0.4,0.2-0.7,0.2
			c-1.2-0.2-2.3-0.5-3.5-0.8c-0.3-0.1-0.5-0.2-0.6-0.5c-0.5-1.4-0.3-2.9-0.4-4.4c0-0.5,0.3-0.9,0.5-1.3c0.9-1.4,1.4-2.9,1-4.6
			c-0.1-2.8-1-4-3.8-4.5c-2.2-0.4-4.4-0.2-6.2,1.5c-0.7,0.6-1,1.4-1,2.4c-0.1,2.1,0.2,4.2,0.7,6.2c0.3,1.1,0.2,1.3-0.9,1.5
			c-0.2,0-0.5,0-0.6,0.3c-0.1,0.3,0.1,0.4,0.3,0.6c0.3,0.3,0.8,0.5,1.2,0.8c0.1,0.1,0.2,0.2,0.3,0.4c0.4,0.9,1.2,1,2,1.1
			c0.4,0,0.7-0.2,1.1,0.1c0.2,0.2,0.2,0.5,0.1,0.8c-0.1,0.2-0.2,0.3-0.3,0.4c-1.5,0.7-3,1.3-4.6,1.9
			C168.8,72.8,168.6,72.9,168.3,72.7z"/>
		<path class="st5" d="M48.8,96.2c3,0.2,5.9,0.4,8.9,0.8c2.1,0.3,3.9-0.4,5.7-1.1c0.5,3.4,0.9,6.8,1.4,10.2
			c0.7,5.2,1.5,10.5,2.2,15.7c0.4,2.7,0.7,5.4,1.1,8.1c0.1,0.7,0.2,1.2,1,1.3c0.4,0.1,0.7,0.2,1.1,0.4c0.2,0,0.5,0.1,0.7,0.2
			c0.1,0.1,0.3,0.2,0.3,0.4c0,0.3-0.2,0.3-0.4,0.3c-1.1,0-2.2,0-3.2,0c-0.5,0-0.6-0.4-0.7-0.8c-0.1-0.7-0.4-1.3-0.8-2
			c-2.1-3.2-3.9-6.6-5-10.3c-0.7-2.1-0.9-4.3-0.7-6.5c0.1-0.8-0.2-1.4-0.6-2.1c-1.7-2.5-2.9-5.2-3.7-8.1c0-0.9,0.3-1.7,0.5-2.5
			c0.1-0.8,0-1-0.8-0.9c-2,0.1-4,0.3-6,0.4c-1.2,0-1.2,0-1-1.2C48.6,97.8,48.7,97,48.8,96.2z"/>
		<path class="st9" d="M219.6,136c-0.1,0-0.1,0-0.2,0c-1.1-0.5-1.7-1.6-2.5-2.3c-0.4-0.3-0.7-0.7-1.1-1.1c-1.6-1.8-3.3-3.6-4.9-5.4
			c-0.6-0.8-1.3-1.5-1.9-2.2c-0.3-0.3-0.6-0.6-0.9-0.9c-3-3.5-6-7.1-8.9-10.7c-0.6-0.7-1.1-1.5-1.7-2.2c-0.5-0.7-0.4-1.1,0.5-1.4
			c0.3-0.1,0.6-0.2,0.9-0.1c0.3,0,0.5-0.2,0.6-0.1c-1.5,0.3-3.1,0.2-4.7,0.1c-0.3,0-0.8,0.1-0.6-0.5c0.5-0.3,1-0.3,1.6-0.3
			c1.2,0.2,2.3,0.1,3.5,0.1c1.6,0.1,3.3,0,4.9,0.4c3.3,0.8,5.7,2.9,7.8,5.3c0.3,0.3,0.5,0.6,0.7,0.9c0.8,1,1.5,2,2.3,3.1
			c1.4,1.8,1.8,4.1,2.4,6.2c0.2,0.6,0.2,1.2,0.4,1.8c0.1,0.7,0.3,1.4,0.4,2.1c0.2,0.8,0.4,1.6,0.6,2.4c0.2,0.6,0.4,1.2,0.9,1.7
			c0.5,0.8,0.5,1.7,0.5,2.6C220.2,135.7,220.1,136,219.6,136z"/>
		<path class="st10" d="M194.1,109.3c1.5,0.3,3.1,0.1,4.6,0.1c0.4,0,0.8,0,1.3,0c-0.7,0.4-1.5,0.4-2.1,0.6c-0.5,0.2-0.7,0.4-0.3,0.9
			c2.2,2.7,4.4,5.3,6.5,8c1.4,1.7,3,3.3,4.2,5.1c0.2,0.3,0.4,0.5,0.5,0.8c0.6,1.9,1,3.8,1.5,5.7c0.2,0.8,0.5,1.6,1.2,2.1
			c0.1,0.1,0.1,0.2,0.1,0.3c-0.1,0.7,0.2,1.3,0.2,1.9c0,0.4,0,0.9-0.3,1.3c-0.5,0.3-0.8-0.1-1-0.4c-0.7-0.6-1.3-1.4-2.1-2
			c-1.4-1.9-3.2-3.5-4.8-5.3c-0.6-0.7-1.2-1.4-1.8-2.1c-0.3-0.3-0.6-0.7-0.6-1.1c-0.2-0.2-0.3-0.3-0.5-0.5c-0.7-0.3-1-1-1.5-1.6
			c-0.7-1.3-1.8-2.3-2.8-3.5c-2.3-2.8-4.6-5.6-6.9-8.5c-0.7-0.9-0.7-1,0.4-1.3c0.7-0.2,1.4-0.4,2.1-0.5
			C192.6,109,193.3,109.1,194.1,109.3z"/>
		<path class="st5" d="M48.6,98.5c0,0.6,0,1,0.9,0.9c2.2-0.2,4.4-0.2,6.5-0.5c0.8-0.1,1,0.1,0.8,0.9c-0.2,1-0.6,2-0.6,3
			c0,1.3-0.6,2.4-1.1,3.6c-0.7,1.5-1.4,3.1-2.3,4.4c-0.4,0.5-0.5,1.1-0.4,1.7c0.4,3.3-0.4,6.4-1.6,9.5c-1,2.7-2.4,5.3-4,7.7
			c-0.3,0.5-0.6,1.1-0.6,1.7c-0.1,0.6-0.5,0.8-1.1,0.8c-0.8,0-1.6,0-2.4,0c-0.3,0-0.8,0.1-0.8-0.3c-0.1-0.5,0.4-0.6,0.8-0.6
			c0.5-0.2,1-0.4,1.5-0.5c0.3-0.1,0.5-0.3,0.5-0.6c0.4-3.4,0.8-6.8,1.2-10.1c0.4-3.6,0.9-7.1,1.3-10.7c0.4-3.5,0.9-7,1.2-10.5
			C48.4,99,48.4,98.7,48.6,98.5z"/>
		<path class="st11" d="M186.1,107.8c0.8,0.6,1.5,1.3,1.7,2.3c-1.1,1.4-2.3,2.8-3.4,4.1c-0.3,0.4-0.7,0.7-0.8,1.3
			c-0.1,1.4-0.3,2.7-0.7,4c-0.2,0.7-0.1,1,0.7,1c0.3,0,0.7,0,0.8,0.4c-0.2,0.3-0.6,0.3-0.9,0.3c-1-0.1-1.4,0.4-1.7,1.2
			c-0.1,0.5-0.3,0.9-0.5,1.3c-0.8,1.5-1.7,3.1-2.6,4.6c-1.1,0.9-1.9,2-2.1,3.4c-0.1,0.4-0.4,0.7-0.8,0.7c-1,0-2,0.2-2.9-0.1
			c-0.3-0.5-0.4-1,0.1-1.5c0.7,0.5,1.1,0.4,1.3-0.6c0.4-1.4,0.4-2.8,0.6-4.2c0.2-1.2,0.2-2.4,0.4-3.6c0.1-0.7,0-1.3-0.8-1.6
			c1.1-0.6,1.1-1.7,1.2-2.7c0-1.1,0.2-2.2,0.3-3.3c0.2-2,0.3-4,0.5-6c0-0.4,0-0.8,0.3-1.2c0.9-0.5,1.9-0.2,2.9-0.3
			c0.1,0,0.3,0,0.4,0c1.6,0,3.3,0,4.9,0C185.2,107.5,185.7,107.4,186.1,107.8z"/>
		<path class="st12" d="M194.1,109.3c-0.8,0-1.6,0.1-2.4,0.1c-0.2-0.2-0.5-0.3-0.5-0.7c0.5-0.4,1.1,0,1.6,0c0.4,0,0.9,0.1,1.1-0.3
			c0.2-0.4-0.1-0.7-0.3-1c-0.7-1-1.6-1.7-2.7-2.1c-0.3-0.1-0.6-0.1-0.8-0.4c-0.5-2.2-1.1-4.3-1.6-6.5c-0.3-1.1,0.2-1.8,1.3-1.9
			c2.5-0.3,5.1-0.6,7.6-0.9c1.1-0.1,1.5,0.6,1.7,1.4c0.3,1.4,0.6,2.7,1.1,4.1c0.3,0.2,0.3,0.5,0.4,0.8c0,0.1,0.1,0.2,0.1,0.3
			c0.3,1.3,0.6,2.6,1,3.8c0.4,1.7,0.2,2.2-1.1,2.8c-1.6,0.2-3.2,0.4-4.8,0.3C195.3,109.2,194.7,109.3,194.1,109.3z"/>
		<path class="st13" d="M201.6,99c-0.5-1.1-0.1-2,0.5-2.9c1.3-1.9,2.5-4,3.7-5.9c0-0.5,0.3-0.8,0.8-1c0.7-0.2,1.5-0.6,2.3-0.4
			c0.3,0.2,0.1,0.5,0,0.6c-1,0.8-1.1,2-1.5,3.1c0,0.1-0.2,0.2-0.1,0.2c0.1,0.1-0.1,0,0-0.1c0.2-0.3,0.4-0.6,0.6-0.9
			c0.4-0.7,0.9-1.2,1.7-0.5c0.3,0.2,0.6,0.1,1,0c0.8-0.1,1,0.6,1.3,1.1c0.9,1.8,0.8,1.8,1.9,0.1c0.4-0.6,0.8-1.4,1.3-1.9
			c0.9,0.2,1.7,0.4,2.6,0.5c0.4,0.3,0.9,0.5,1.3,0.8c0.1,0.3-0.2,0.4-0.3,0.6c-0.5,0.5-1.1,1-1.5,1.7c-0.1,0.1-0.1,0.2-0.2,0.2
			c-0.8,1-1.2,2.2-1.4,3.5c0,0.6,0,1.3,0,1.9c0,0.2,0.1,0.4,0.1,0.6c0.4,1.1,0.2,2.2,0.3,3.2c0,0.2,0.1,0.4-0.1,0.6
			c-0.2,0.2-0.5,0-0.6-0.2c-0.6-0.5-1.3-1-2-1.4c-1.7-0.9-3.5-1.4-5.4-1.8c-0.7-0.2-1.4-0.6-2.1-0.7c-1.1-0.2-2.2,0-3.3,0.3
			C201.8,100.1,201.7,99.6,201.6,99z"/>
		<path class="st14" d="M32.1,61.4c-2.3-2.9-2.6-6-0.9-9.2c1.7-3.2,4.5-4.9,8.2-4.6c3.3,0.3,5.8,2.1,7.1,5.1
			c1.4,3.3,0.8,6.5-1.7,9.2c-0.3,0.4-0.7,0.7-1.1,1c-0.9-0.5-1.9-0.8-2.8-1.2c-0.4-0.2-0.8-0.3-1.1-0.7c-0.1-0.5-0.4-1.1-0.1-1.6
			c1.1-0.4,1.5-1.2,1.7-2.3c0.2-1.2,0.2-2.4,0.4-3.5c0.7-0.4,1.3-0.9,1.5-1.8c0-0.2,0.2-0.5-0.2-0.5c-1.5,0-2.5-0.9-3.8-1.4
			c-1.5-0.6-2.8-0.4-3.7,0.9c-1.1,1.6-2,3.7-0.4,5.2c0.3,0.4,0.6,0.9,0.7,1.4c0,0.3,0.1,0.6,0,0.8c-0.2,0.8-0.1,1.6-0.4,2.4
			C34.6,61.2,33.4,61.5,32.1,61.4z"/>
		<path class="st7" d="M207.9,100.4c2.9,0.5,5.7,1.4,8,3.7c-0.3-1.4,0-2.6-0.4-3.9c0.2-2.8,1-5.3,3.4-7.1c0.4-0.3,0.8-0.6,1.4-0.7
			c0.7,1.3,0.7,2.7,0.9,4.1c0.4,2.9,0.6,5.8-0.1,8.6c-0.5,2-1.6,3.5-3.8,3.8c-0.8,0.5-1.6,0.2-2.5,0c-0.4-0.1-0.8-0.2-1.2-0.4
			c-3-1.2-4.8-3.6-6.3-6.3c-0.2-0.3-0.3-0.6-0.2-1C207.3,101.1,208,101.1,207.9,100.4z"/>
		<path class="st7" d="M179.7,107.8c-0.1,0-0.1,0-0.2,0c-0.4-0.2-0.7-0.4-0.9-0.8c-2.2-3.3-4.6-6.5-6.8-9.7c-0.2-0.3-0.5-0.6-0.3-1
			c0.3-0.3,0.6-0.5,0.9-0.7c0.7-0.1,1.2,0.3,1.7,0.6c1,0.6,2,1.3,3,2.1c0.3,0.2,0.5,0.5,0.9,0.5c0-0.8-0.2-1.7,0-2.5
			c0.1-0.3,0.1-0.7,0.1-1.1c0-1.8,0.3-3.5,1-5.2c0.4-0.9,0.9-1.7,2-1.9c1-0.1,1.6,0.4,2,1.3c0.9,2.1,1.1,4.3,1,6.5
			c0,0.7-0.1,1.4,0,2c-0.2,3.4-1.3,6.5-3.4,9.1C180.4,107.4,180.1,107.7,179.7,107.8z"/>
		<path class="st12" d="M39.3,76.6c0.5,0.4,0.3,1,0.2,1.5c-0.1,0.6-0.3,1.2-0.4,1.8c-0.4,0.1-0.9,0-1.3,0c-0.7,0.1-0.8,0.3-0.4,0.9
			c0.3,0.5,0.9,0.7,1.2,1.3c-0.1,0.5-0.2,1.1-0.4,1.6c-0.5,2-0.6,2.1-2.7,1.8c-1,0.4-2,0-3-0.1c-0.5,0-1.1-0.1-1.6-0.2
			c-1.2-0.2-2.5-0.3-3.7-0.5c-0.6-0.2-1.2-0.3-1.3-1.1c0-1,0.4-1.9,0.6-2.9c0.3-1.5,0.7-2.9,1.1-4.4c0.3-1.1,0.9-1.5,2-1.4
			c1.9,0.2,3.7,0.5,5.6,0.7c0.9,0.1,1.9,0.1,2.8,0.3C38.3,76.2,38.8,76.3,39.3,76.6z"/>
		<path class="st15" d="M159.9,131.5c1.4-0.8,1.6-1.1,1.4-2.7c-0.9-5-1.8-10.1-2.8-15.1c-0.3-1.8-0.6-3.6-1-5.3
			c-0.1-0.5,0-0.6,0.5-0.6c1,0.3,1.6,1.2,2.3,1.9c1.6,1.5,3.2,3.1,4.7,4.7c0.3,0.3,0.6,0.6,0.6,1c-0.3,1.4,0,2.9,0.4,4.2
			c0.2,0.5,0.3,1,0.3,1.5c-0.4,2.3-1.3,4.4-2,6.6c-0.4,1.2-0.7,2.5-0.8,3.8c0.1,0.6-0.2,0.9-0.8,0.9c-1,0-2,0-3,0
			c-0.3,0-0.6,0.1-0.7-0.3c-0.1-0.4,0.3-0.5,0.6-0.6C159.6,131.6,159.7,131.5,159.9,131.5z"/>
		<path class="st7" d="M165.5,115.2c-2.5-2.5-5-4.9-7.5-7.4c2.2-5.8,4.4-11.6,6.6-17.4c0.4,0,0.4,0.4,0.4,0.7
			c0.6,2.4,1.3,4.9,2.1,7.3c0.3,0.4,0.7,0.8,0.4,1.4c-0.1,0.2-0.3,0-0.4,0.2c-0.9,1.9-2.1,3.6-3.2,5.3c-0.7,1.1-0.7,1.1,0.3,2.1
			c0.1,0.1,0.2,0.2,0.4,0.4c1.2,1.6,1.9,3.4,2.4,5.3c0.1,0.3,0.1,0.7,0,1C166.5,114.5,166.1,115,165.5,115.2z"/>
		<path class="st16" d="M16.7,131.6c0.6-1,0.9-2,0.8-3.2c-0.2-3.5,0.3-6.9,1.9-10.1c0.9-1.8,2.1-3.2,3.6-4.5c0.4-0.3,0.7,0,0.9,0.2
			c1.3,0.5,2.5,1.2,3.7,1.8c0.8,0.4,0.9,0.8,0.3,1.6c-1.5,2.1-2.9,4.3-4.2,6.5c-0.3,0.5-0.6,1-0.8,1.6c-1.5,2.7-3.3,5.3-3.1,8.6
			c0,0.3,0,0.5-0.2,0.8c-0.4,0.3-0.8,0.2-1.1-0.1C17.6,133.9,16.8,133,16.7,131.6z"/>
		<path d="M209,88.9c-1.1,0.3-2.4,0-3.1,1.2c-0.9-0.5-1.7-1.2-2.1-2.2c0.7,0,1.4,0,2.2,0c-0.3-0.6-1-0.7-1.2-1.4
			c0.2-0.3,0.4-0.1,0.6-0.1c1.7,0,1.7,0,1.7-1.7c0-1.6,0-3.3,0-4.9c0-2.5,1.5-4.1,4-4.2c1.7,0,3.2,0.5,4.4,1.7
			c0.9,0.9,1.3,2,1.3,3.2c0,1.8,0,3.6,0,5.4c0,0.5,0.1,0.8,0.7,0.8c0.5,0,1.2-0.3,1.4,0.2c0.2,0.5-0.4,0.9-0.8,1.5c0.7,0,1.3,0,2,0
			c-0.5,1.2-1.3,2.1-2.3,2.6c-0.9,0.3-1.7,0-2.5-0.5c-1.2-0.5-1.5-1.6-1.7-2.7c0-0.3,0-0.7,0-1c0-0.3,0-0.6,0-1c0-1,0-2,0-3
			c0-0.5-0.2-0.8-0.7-0.9c-1.4-0.2-2.7-0.7-4-1.3c-0.6-0.3-0.9-0.1-0.8,0.5c0.1,1.8,0.4,3.7,1.1,5.4c0.2,0.5,0.8,0.7,1.2,1
			c0.1,0.1,0.1,0.2,0.2,0.3C210,88.4,209.7,88.9,209,88.9z"/>
		<path class="st14" d="M169.5,41.9c2.5-1,4.9-2.1,7.4-3.1c0.4,0.3,0.3,0.8,0.3,1.2c0,0.5-0.1,0.9,0,1.6c1.3-0.7,2.7-1.3,3.9-2
			c1.1-0.7,2.3-1.2,3.5-1.8c0.2-0.1,0.5-0.3,0.8-0.2c2.3,0.5,4.5,1,6.8,1.5c-1,1.7-2.6,2.9-4.2,3.8c-5.9,3.4-11.9,3.3-17.7-0.4
			C169.9,42.4,169.5,42.3,169.5,41.9z"/>
		<path class="st17" d="M196.6,64.3c-2.4-1.7-3.7-4.1-4.1-7c-0.7-6.2,3.3-11.1,9.4-11.9c2-0.3,3.9,0.2,5.7,1
			c0.2,0.1,0.4,0.2,0.5,0.5c-0.3,0.3-0.7,0.3-1,0.4c-0.6,0.1-1.1,0.4-1.5,0.8c-1.1,1.1-3,1.1-4.2,0c-1-0.8-2.1-1.1-3.3-0.5
			c-1,0.5-1.6,1.4-1.6,2.5c0,1.3,0.6,2.2,1.8,2.8c0.3,0.1,0.6,0.2,0.8,0.5c0.2,0.8,0.2,1.6,0.1,2.4c-0.1,0.5-0.4,0.7-0.7,1
			c-0.1,0.2-0.3,0.4-0.5,0.6c-0.3,0.4-0.4,0.8-0.2,1.3c0.1,0.1,0.1,0.2,0.2,0.3c0.1,0.3,0.3,0.6,0.7,0.6c0.6,0.2,1.2,0.3,1.9,0.3
			c0.4,0,0.8,0.1,1,0.5c0.2,0.7,0.3,1.4-0.1,2C200,63.2,198.4,64.1,196.6,64.3z"/>
		<path class="st5" d="M167.4,99.8c0.1-0.5-0.2-0.9-0.4-1.3c-0.1-0.5-0.1-1.1-0.3-1.5c-0.1-0.5-0.1-1.1-0.3-1.6
			c-0.1-0.2-0.1-0.4-0.1-0.5c-0.1-0.8-0.3-1.5-0.4-2.3c-0.1-0.2-0.1-0.4-0.2-0.5c-0.1-0.6-0.1-1.1-0.3-1.7c-0.1-0.3-0.2-0.7,0-1
			c0.1-0.1,0.2-0.1,0.2-0.2c0.6,0.1,0.6,0.7,0.8,1c0.4,0.7,0.8,1.2,1.7,1.2c0.1,0,0.2,0.1,0.3,0.1c0.4,0.3,0.5,0.7,0.6,1.1
			c0.6,1.4,1.6,2.6,2.6,3.7c2.1,3,4.2,6,6.3,9c0.6,0.8,1.1,1.6,1.7,2.4c-0.9,0-1.9,0.1-2.8,0.1c-1.5,0.5-3.1,0.2-4.7,0.2
			c-1.3-0.6-2-1.8-2.7-3c-0.8-1.4-1.4-2.8-1.9-4.3C167.3,100.5,167.2,100.1,167.4,99.8z"/>
		<path class="st13" d="M15.6,46.4c-3-3.4-1.6-9.2,2.8-11c3.3-1.4,7.1-0.1,8.9,3c1.8,3.1,1,7-1.8,9.2c-1.3,0-2.3-0.6-3.4-1.2
			c-0.1-0.1-0.1-0.3-0.2-0.5c0-0.5,0-1,0.5-1.3c0.6-0.4,0.8-1.1,1-1.7c0.2-0.9,0.2-1.8,0.2-2.7c0-1.3-0.7-2.3-1.8-2.7
			c-1.1-0.4-2.2-0.1-3,0.7c-0.8,0.8-1,2.2-0.5,3.3c0.2,0.5,0.6,0.9,0.7,1.5c0,0.2,0,0.4,0,0.7c-0.1,0.7-0.1,1.4-0.4,2
			C17.7,46.4,16.8,46.7,15.6,46.4z"/>
		<path class="st13" d="M213.5,108.5c1.2,0.3,2.4,0.7,3.7,0.6c0.4,0.4,1,0.7,1.4,1.2c-0.7,0.9-1.5,1.7-2.3,2.4
			c-1.3,1-2.2,2.3-3.6,3.2c-1.2-1.1-2.2-2.5-3.6-3.5c-2.2-1.7-4.4-2.9-7.3-3c-1.7,0-3.4-0.1-5.1-0.1c-0.3,0-0.6,0.1-0.9-0.2
			c1.6-0.2,3.3-0.3,4.9-0.5c1-0.1,1.5-0.6,1.6-1.6c0-0.4,0.2-0.7,0.2-1.1c0.3-1.3,0.4-2.6,0.9-3.9c0.5-0.4,1.2-0.3,1.8-0.3
			c0.6,0.1,0.7,0.6,0.9,1C207.9,105.6,210.2,107.6,213.5,108.5z"/>
		<path class="st18" d="M22.8,125.4c0.2-1.3,1.1-2.2,1.8-3.3c1-1.7,2.2-3.3,3.3-4.9c0.4-0.6,0.4-0.9-0.3-1.2c-1.5-0.7-3-1.4-4.5-2.1
			c-0.3-0.5-0.6-1-1-1.4c2.5,0.3,4.9,0.7,7.4,1c-0.4,5-0.7,10-1.1,15c-0.1,1.9-0.2,3.8-0.4,5.7c-0.1,1.1,0.2,1.9,1.1,2.4
			c-1,0.7-2.1,0.4-3.1,0.2c-0.3-0.1-0.5-0.4-0.5-0.7c-0.7-3.2-1.9-6.2-2.6-9.4C22.7,126.2,22.6,125.8,22.8,125.4z"/>
		<path class="st19" d="M198.8,53.4c-1.5-0.4-2.4-1.4-2.6-2.8c-0.1-1.3,0.6-2.7,1.7-3.2c1.4-0.6,2.7-0.4,3.8,0.7
			c0.7,0.7,2.8,0.7,3.4,0c0.8-0.9,1.9-1,3-1.1c0.9,0.4,1.9,0.8,2.3,1.8c1.1,1.3,0.7,3.3-0.8,4.3c-0.7,0.5-1.1,1-1.2,1.9
			c-0.1,0.6-0.3,1.2-1,1.4c-0.2,0.1-0.4,0.1-0.6,0c-1.1-0.4-1.8-1.3-2.4-2.3c-0.3-0.4-0.5-0.9-0.7-1.4c-0.8-1.8-1.1-1.8-2.9-1.2
			C199.7,51.9,199.1,52.4,198.8,53.4z"/>
		<path class="st7" d="M39.9,88.3c1.2-1.7,2.5-3.1,4.5-3.8c0.5-0.2,0.4-0.6,0.4-1c0-3.1,0.1-6.2,1-9.2c0.4-1.5,0.9-3,2.6-3.5
			c0.4,0.4,0.2,1,0.2,1.4c0.1,1-0.1,2.1,0.1,3.1c0.1,0.6,0,1.1,0,1.7c0,2,0,4.1,0.2,6.1c0.1,0.7,0.2,1.4,0.1,2.1
			c0,0.8-0.4,1.3-1.3,1.2c-1.9,1.2-3.8,2.4-5.6,3.6c-0.3,0.2-0.6,0.3-0.8,0.6C40.6,90.2,40.1,89.4,39.9,88.3z"/>
		<path class="st20" d="M184.2,121c-0.4-0.4-1-0.2-1.4-0.2c-0.5,0-0.6-0.2-0.5-0.7c0.5-1.6,0.9-3.2,0.9-4.8c1.1-0.6,2.3-0.4,3.5-0.2
			c1,0,2.2,0,2.5,1.1c0.4,1.3,0.5,2.6-0.1,3.9c-0.3,0.6-0.9,0.8-1.6,0.8c-0.5,0-0.7,0.1-0.6,0.6c0.6,3.4,1.1,6.8,1.7,10.2
			c0.1,0.3,0.4,0.6-0.1,0.7c-0.9,0.2-1.7,0.2-2.6,0c-0.2-0.1-0.3-0.3-0.4-0.6c-0.6-3.2-1-6.4-1.5-9.6
			C184.1,121.8,184,121.3,184.2,121z"/>
		<path class="st6" d="M17.1,85.7c-0.7,0.5-1.4,1-2.2,1.6c-0.3-1-0.2-2-0.3-2.9c-0.2-2.9-0.5-5.8-0.2-8.7c0.4-3,1.8-3.7,4.6-2.3
			c0.1,0.1,0.1,0.2,0.1,0.3c0.5,2.7,1.2,5.4,1.7,8.1c0,0.2,0.1,0.5,0.1,0.7c0,0.1,0,0.2-0.1,0.3C19.7,83.9,18.5,84.9,17.1,85.7z"/>
		<path d="M18,61.2c0.6-0.7,1.3-1.2,2.2-1.5c0.4-0.3,0.8-0.3,1.2-0.1c1.9,0.2,3.2,1.2,3.6,3.1c0.1,0.5,0.4,0.6,0.8,0.7
			c1.7,0.6,2.7,1.9,2.8,3.6c0,0.5-0.4-0.7-0.4,0.1c0,0.6-0.5,0.7-1,0.8c-1,0.1-1.9-0.3-2.8-0.7c-1.1-0.5-1.1-0.5-1.6,0.6
			c-0.2,0.6-0.4,1.3-1.1,1.4c-0.2-1.3-0.9-1.9-2.2-2.4c-1.8-0.6-2.4-2.5-1.9-4.8C17.4,61.7,17.7,61.4,18,61.2z"/>
		<path class="st13" d="M63.6,87.7c-0.4-3.4-0.9-6.7-1.2-10.1c-0.2-1.8-0.7-3.7-0.6-5.5c1.8,3.5,3,7.2,3.8,11
			c0.2,0.9,0.5,1.6,1.4,2.1c1.2,0.7,2.4,1.6,3.5,2.5c0.2,0.2,0.5,0.5,0.7,0.7c0.4,0.3,0.6,1.1,1.3,0.5c0,0,0.2,0.2,0.3,0.3
			c0.2,1-0.3,1.9-0.4,2.9c-0.4,0.9-0.8,0.1-0.9-0.1c-0.2-0.4-0.6-0.5-1-0.7C68.3,90,66,88.7,63.6,87.7z"/>
		<path class="st17" d="M207.3,56.2c0.6-0.4,0.7-1.1,0.8-1.8c0.1-0.6,0.3-1.1,1-1.4c1.6-0.7,2-2.5,1.3-4.3c0.4,0,0.5,0.3,0.7,0.5
			c3.2,3.6,3.2,9.7,0.1,13.3c-1.5,0.2-2.9-0.4-4.3-0.9c-0.3-0.4-0.4-0.9-0.3-1.4c0-0.1,0.1-0.2,0.2-0.2c0.3-0.2,0.7-0.2,1-0.5
			c1-1.3,0.9-1.9-0.3-3C207.4,56.5,207.3,56.4,207.3,56.2z"/>
		<path class="st7" d="M179.8,69.6c1.6,0.3,3.1,0.7,4.7,1c-0.2,1-1,1.5-1.7,2c-3.8,3.2-10.1,3.4-14,0.5c-0.2-0.1-0.3-0.3-0.4-0.5
			c1.8-0.7,3.5-1.4,5.3-2.1c0.5,0.5,0.1,1.2,0.3,1.8c1.6-0.6,3-1.5,4.5-2.3C178.9,69.9,179.2,69.5,179.8,69.6z"/>
		<path d="M36.5,37.3c1.1-0.2,2.3-0.5,3.4-0.7c1,0.3,1.9,0.8,2.9,1c0.4,0,0.5,0.4,0.6,0.9c0.1,1.4,0.9,2,2.2,1.5
			c0.9-0.3,1.4-0.3,1.7,0.7c0.4,1,1.5,1.3,2.5,0.8c0.6-0.3,1.1-0.5,1.7-0.2c0.6,0.2,1.1,0.1,1.2-0.7c0-0.1,0-0.2,0.1-0.3
			c0.8-0.8,0.5-1.3-0.3-1.8c-0.2-0.1-0.6-0.5,0.1-0.6c1.7,0.6,3.4,1.3,5.1,2.1c-4.7,4-12.7,4.2-18,0.4
			C38.5,39.5,37.3,38.6,36.5,37.3z"/>
		<path class="st6" d="M19,73.5c0-0.1,0-0.1,0-0.2c0.8,0,1.6,0.3,2.3,0.5c0.6,0,1,0.4,1.4,0.7c1,0.8,2,1.6,3,2.5c0-0.7,0-1.3,0-2
			c0-0.3,0-0.6,0.2-0.9c1.3-0.4,2.7-0.7,4.1-0.8c0.4,0.5,0.3,1,0.1,1.5c-0.3,0.3-0.6,0.2-1,0.2c-1.3,0-1.4,0.2-1.7,1.4
			c-0.3,1.2-0.5,2.5-1,3.8c-1.7,0.6-3.4,1.2-4.9,2.1c-0.2,0.1-0.4,0.1-0.6,0c-0.6-0.9-0.6-2-0.8-3C19.8,77.4,19.2,75.5,19,73.5z"/>
		<path class="st5" d="M178.1,96.3c0.1,0.7,0,1.5,0.2,2.2c0.1,0.2,0.2,0.6-0.1,0.7c-0.3,0.2-0.5-0.2-0.7-0.3
			c-1.4-1.1-2.7-2.1-4.3-2.9c-0.3-0.1-0.6-0.2-0.8-0.4c-0.4-0.5-0.1-1,0.1-1.5c0.3-0.3,0.4-0.7,0.4-1.1c0.1-0.3,0.2-0.7,0.3-1
			c0.4-1.2,0.8-2.5,1.2-3.7c0.2-0.4,0.3-0.9,1-0.8c1.2,0.1,2.5,0.2,3.7,0.3c0.5,0.3,0.2,0.6,0,0.8c-0.3,0.5-0.7,1.1-0.9,1.7
			c0,0.1-0.1,0.2-0.1,0.3c-0.2,0.4-0.5,0.9-0.4,1.4c0,0.9,0,1.8,0,2.7C177.8,95.3,178.2,95.8,178.1,96.3z"/>
		<path class="st21" d="M26,83.8c0.1,0.6,0.7,0.5,1.1,0.7c-0.1,0.3-0.3,0.4-0.6,0.4c-0.9,0-1.4,0.6-1.9,1.2c-0.7,1-1.8,1.7-2.4,2.9
			c3,0.3,5.9,0.5,8.8,0.8c0.3,0.1,0.4,0.3,0.5,0.6c1,1.1,2,2.2,2.7,3.5c-4.7-1.2-9.5-2.3-14.2-3.5c-0.3-0.1-0.6-0.1-0.8-0.4
			c-0.3-0.4,0.1-0.7,0.3-1c1.7-2.2,3.6-4.3,5.3-6.5c0.4-0.4,0.8-0.8,1.3-0.1C26,83,25.8,83.4,26,83.8z"/>
		<path class="st7" d="M206.9,61.5c1.4,0.3,2.9,0.7,4.3,1c-3.2,4.5-10.5,5.3-14.6,1.7c1.6-0.6,3.2-1.3,4.8-1.9
			c0.6,0.1,0.2,0.6,0.3,0.9c0,0.5-0.1,0.9,0.6,0.5c1.2-0.7,2.3-1.3,3.5-1.9C206.1,61.7,206.5,61.4,206.9,61.5z"/>
		<path class="st22" d="M212.6,115.8c1.8-2,3.8-3.8,5.9-5.6c2,2,1.8,6.6-0.7,8.3c-1,0.7-2.1,0.6-3.1,0.2
			C214,117.8,213.2,116.9,212.6,115.8z"/>
		<path class="st9" d="M52.4,65.9c-0.2,0-0.3-0.1-0.3-0.2c0-1,0.3-2-0.2-3c-0.2-0.3,0.1-0.5,0.4-0.6c0.4-0.2,0.8-0.4,1.2-0.6
			c1.1-0.6,2.1-1.1,2.6-2.3c0.7,1.2,1.8,2.1,2.2,3.5c0.2,0.6,0.5,1.1,0.6,1.7c0.4,1.5,0,2.3-1.6,2.6c-0.3,0.1-0.5,0.1-0.8,0.2
			c-1.4,0.3-2.6-0.1-3.7-0.9C52.6,66.1,52.6,66,52.4,65.9z"/>
		<path class="st21" d="M165.2,87.9c-0.5-0.8-0.9-1.7-0.9-2.7c-0.1-1.4,0.5-2.5,1.8-3c3.5-1.4,6.7,0.8,6.5,4c-0.1,0.8,0,1.6-0.6,2.2
			c-0.2,0.2-0.3,0.5-0.6,0.3c-0.1,0-0.1-0.1-0.1-0.1c-0.3-1.5-1.2-2-2.6-2.1c-0.9,0-1.7-0.6-2.6-1.1c-0.1,0.5,0,1-0.1,1.4
			C165.7,87.3,165.8,87.8,165.2,87.9z"/>
		<path class="st21" d="M201,125.3c0.8,1.1,1.9,1.9,2.6,3c0.4,0.9-0.1,1.7-0.2,2.6c-0.2,1.6-0.5,3.2-0.7,4.8c-0.1,0.4-0.1,0.7-0.4,1
			c0,0.2-0.1,0.4-0.1,0.6c-1,0-1.9,0-2.9,0c0-0.2,0-0.4,0-0.6C199.8,133,200.4,129.2,201,125.3z"/>
		<path class="st16" d="M21.7,69.4c0.7-0.6,1-1.4,1.1-2.2c0.1-0.7,0.4-0.7,0.9-0.4c0.9,0.5,1.8,0.9,2.8,1c0.6,0.1,1.4,0.4,1.7-0.7
			c0.1-0.3,0.3,0.1,0.5,0.2c-0.1,2.4-1,4.5-2.8,6.2c-1.7,0.1-2.7-1-3.5-2.3C22.3,70.4,21.8,70,21.7,69.4z"/>
		<path class="st5" d="M179.7,107.8c2.2-2.6,3.5-5.6,4-9c0-0.3,0.2-0.6,0.3-0.8c0.7,2.5,1.3,5,2.2,7.4c0.3,0.8,0.2,1.7-0.1,2.5
			C184,107.8,181.9,107.8,179.7,107.8z"/>
		<path class="st23" d="M25.7,82.6c-0.3-0.2-0.5-0.3-0.8,0c-2,2.4-4,4.8-5.9,7.2C19,89.9,19,90,19,90.1c-0.1,0-0.1,0-0.2,0
			c-0.7-0.5-0.7-1.4-1-2.1c1-1.8,1.6-3.7,2.9-5.3l0,0c0.1-0.1,0.2-0.3,0.4-0.4c1.2-0.6,2.3-1.1,3.5-1.7c0.6-0.3,1.1-0.5,1.8-0.4
			C26.5,81.1,26.3,81.9,25.7,82.6z"/>
		<path d="M56,59.1C56,60,55.6,60.7,54.7,61c-0.4,0.1-0.7,0.4-1.1,0.6c-1,0.4-2,0.8-1.2,2.3c0.3,0.6-0.1,1.3-0.4,1.9
			c0,0-0.1,0-0.1,0c-3.3-2.4-3.3-2.5-1.1-5.9c0.4-0.7,1.1-1.2,1.6-1.8c0.5-0.6,1.1-0.9,2-0.6C55.4,57.7,56,58.1,56,59.1z"/>
		<path class="st21" d="M214.7,118.7c1-0.1,2.1,0.1,3.1-0.2c2.2,0.3,2.6,0.8,2.6,3c0,0.5,0,1.1,0,1.6c-0.1,0.9-0.7,1.7-1.6,1.7
			c-1.3,0-1.2,0.6-1.1,1.5c0.1,0.2,0.2,0.4-0.2,0.4c-0.5-1.7-1-3.5-1.5-5.2C215.8,120.5,215.4,119.6,214.7,118.7z"/>
		<path class="st24" d="M32.1,61.4c1.1-0.3,2.3-0.5,3.4-0.8c1.3,0.2,2.3,1,3.4,1.5c0.5,0.2,0.7,0.2,0.7-0.4c0-0.2,0.1-0.4,0.3-0.5
			c1,0.4,2.1,0.8,3.1,1.2c0.2,0.1,0.6,0.1,0.6,0.6c-3.2,2-6.5,2.2-9.7,0.1C33.3,62.7,32.6,62.1,32.1,61.4z"/>
		<path class="st25" d="M165.2,87.9c0.6-0.9,0.3-1.9,0.5-3c1.5,1,3,1.6,4.7,1.5c0.4,0,0.4,0.4,0.5,0.6c0.2,0.5,0.3,1,0.5,1.6
			c-0.1,1.1-1,2.1-2,2.3c-0.7-0.3-1,0.1-1.3,0.6c-0.8,0.2-1.4-0.2-1.7-0.9c-0.3-0.5-0.5-1-0.8-1.5C165.6,88.6,165.3,88.3,165.2,87.9
			z"/>
		<path class="st9" d="M40.6,91.6c-0.7,1.1-1.3,2.4-2.3,3.4c-0.4,0.4-0.8,0.9-1.4,0.7c-0.5-0.2-0.5-0.9-0.6-1.3c0-0.5,0.1-1,0.1-1.5
			c0.1-0.4,0.2-0.7-0.2-1c-0.3-0.2-0.3-0.5,0.1-0.7c0.4-0.1,0.6-0.4,0.6-0.8c0.1-1.1,0.9-1.3,1.8-1.3C40.3,89.1,41.2,90.3,40.6,91.6
			z"/>
		<path class="st25" d="M171.7,88.3c0.4-0.6,0.6-1.4,0.8-2.1c0,0.7,0.3,1.1,1,1c0.2,0,0.5,0,0.7,0.2c-0.5,0.4-0.7,0.9-0.8,1.5
			c-0.3,1.6-1.3,3.1-0.5,4.8c0.1,0.1,0.1,0.4-0.1,0.6c-0.3,0.4-0.5,0.9-0.4,1.4c-0.1,0.4-0.4,0.7-0.9,0.7c-1.6-0.9-2.2-2.5-3-4
			c-0.1-0.2-0.2-0.5-0.3-0.7c-0.2-0.7,0.1-1.1,0.8-0.8c1,0.2,1.8,0.7,2.5,1.5C171.8,90.9,171.1,89.6,171.7,88.3z"/>
		<path class="st7" d="M22.3,46.4c1.1,0.4,2.2,0.8,3.3,1.3c-3.2,2.4-7.8,1.9-9.9-1.2c1-0.2,1.9-0.4,2.9-0.7c1,0.1,1.8,0.8,2.7,1.1
			c0.3,0.1,0.7,0.5,0.8-0.2C22.1,46.6,22.2,46.4,22.3,46.4z"/>
		<path class="st18" d="M31.3,90.5c-0.1-0.1-0.3-0.3-0.4-0.4c-0.2-0.2-0.3-0.5-0.3-0.7c0-1.1-0.1-2.2-0.2-3.4c0-0.4,0-0.8,0.3-1
			c1.6,0,3.1,0.4,4.7,0.5C34.1,87.2,32.7,88.9,31.3,90.5z"/>
		<path class="st9" d="M190.2,104.9c1.8,0.3,3.1,1.3,4,2.9c0.5,0.8,0.2,1.2-0.7,1.3c-0.8,0.1-1.5-0.1-2.2-0.2
			c-1.3-0.7-1.5-2-1.8-3.3C189.3,105,189.8,104.9,190.2,104.9z"/>
		<path class="st15" d="M186.8,115c-1.1,0.5-2.3,0.1-3.5,0.2c1.2-1.7,2.7-3.2,4-4.9c0.1-0.2,0.3-0.3,0.5-0.2
			C188.2,111.9,187.9,113.5,186.8,115z"/>
		<path class="st26" d="M52.4,65.9c0.1,0.1,0.2,0.2,0.3,0.2c0.8,0.9,2,1.4,2.9,2.1c0.6,0.5,0.4-0.5,0.8-0.6c0.1,0.3,0.1,0.5,0.2,0.8
			c0.1,0.1,0.2,0.3,0.2,0.5c0.1,0.5,0,1,0.1,1.5c-0.2,0.7,0.8,0.4,0.8,1l0,0l0,0c-0.3,0.3-0.7,0.3-1.1,0.2c-0.2-0.1-0.3-0.2-0.5-0.4
			c-0.9-0.5-1.9-1-2.9-1.5c-0.4-0.2-0.8-0.5-0.7-1.1C52.5,67.7,52.7,66.8,52.4,65.9z"/>
		<path class="st23" d="M25.9,75.1c0,0.7,0,1.4,0,2.3c-1.6-1.3-3.1-2.4-4.6-3.6c0.6-0.5,0.4-1.3,0.8-1.9c0.1-0.1,0.3-0.1,0.4,0
			C23.7,72.9,25.1,73.7,25.9,75.1z"/>
		<path class="st27" d="M52.4,68.7c0,0.5,0.4,0.7,0.8,0.8c1,0.5,2,1,3,1.5c-0.5,0.5-1.3,0.8-1.4,1.6l0,0c-0.1,0.1-0.1,0.2-0.1,0.3
			c-0.2,0.3-0.3,0.8-0.7,0.8c-0.4,0-0.4-0.5-0.6-0.8c-0.2-0.3-0.3-0.7-0.5-1.1c0-0.2,0-0.3-0.2-0.4c-0.2-0.3-0.2-0.6-0.4-0.8l0,0
			c0-0.5-0.8-0.9-0.2-1.5C52.2,69,52.3,68.8,52.4,68.7z"/>
		<path class="st28" d="M25.7,82.6c0.3-0.7,0.5-1.5,0.6-2.3c0.3-1.3,0.6-2.5,1-3.8c0.4-1.7,0.5-1.7,2.3-1.6c0.2,0,0.3,0,0.5,0
			c0.5-0.2,1-0.2,1.5,0.2c2.2,0.3,4.3,0.6,6.5,0.8c0.5,0.1,1,0,1.3,0.6c-3.2-0.4-6.5-0.8-9.7-1.2c-1.2-0.2-1.7,0.2-2,1.3
			c-0.5,2.4-1.3,4.7-1.7,7.1C25.6,83.5,25.8,83,25.7,82.6z"/>
		<path class="st5" d="M172.8,94.2c0-0.1,0.1-0.3,0-0.4c-1-1.4-0.3-2.7,0.1-4c0.1-0.6,0.4-1.1,0.5-1.7c0.1-0.6,0.4-0.7,0.9-0.7
			c0.1,0,0.3,0,0.4,0.1c0.2,0.3,0.1,0.6,0,0.9c-0.4,1.2-0.8,2.5-1.3,3.7c0,0.4-0.4,0.7-0.2,1.1C173.1,93.6,173.1,94,172.8,94.2z"/>
		<path class="st29" d="M20.6,82.8c-0.8,1.7-1.6,3.3-2.4,5c-0.1,0.2-0.2,0.3-0.5,0.4c-0.2-0.8-0.5-1.6-0.7-2.4
			C18.2,84.6,19.4,83.7,20.6,82.8z"/>
		<path class="st30" d="M220.3,92.4c-1.6,1.1-3.1,2.4-3.8,4.3c-0.4,1.1-0.4,2.3-0.9,3.4c-0.2-0.1-0.2-0.3-0.2-0.4
			c0.2-0.7,0-1.4,0.1-2.1c0.3-1.3,0.7-2.6,1.5-3.6l0,0c0.5-0.7,1.2-1.1,1.6-1.9c0.1-0.1,0.3-0.2,0.4-0.4
			C219.4,92,219.8,92.2,220.3,92.4z"/>
		<path class="st31" d="M16.7,131.6c0.4,0.8,0.7,1.7,1.4,2.3c0.4,0.4,0.8,0.9,1.4,0.8c0.5,0.6,0.8,1.3,0.9,2.1
			c0,0.2,0.2,0.3-0.1,0.5c-0.3-0.2-0.7-0.3-1-0.5c-1-1-2-2.1-2.9-3.3C16,132.8,15.9,132.2,16.7,131.6z"/>
		<path class="st5" d="M165.3,89.3c0.2,0.3,0.3,0.7,0.2,1.1c0.1,0.5,0.1,1.1,0.2,1.6c0.1,0.1,0.1,0.3,0.2,0.4c0,0.8,0.3,1.6,0.4,2.5
			c0.1,0.1,0.1,0.3,0.2,0.4c0,0.6,0.2,1.1,0.2,1.7c0.7,0.4,0.3,1,0.2,1.6c-0.9-1.8-1.3-3.8-1.9-5.8c-0.2-0.8-0.4-1.6-0.6-2.3
			C164.3,89.7,164.3,89.1,165.3,89.3z"/>
		<path class="st5" d="M181,88.1c-1.6,1-2.1,2.6-2.4,4.3c-0.2,0.9-0.4,1.9-0.3,2.8c-0.5,0.5-0.5,0-0.6-0.3c-0.2-1.1-0.2-2.1,0-3.2
			c0-0.5,0.3-0.8,0.4-1.3l0,0c0.3-0.7,0.6-1.3,1-1.9c0.2-0.3,0.4-0.7,0.8-0.6C180.3,88.1,180.6,88.1,181,88.1z"/>
		<path class="st32" d="M47.9,86.5c1-0.3,1.2-1.1,1.1-2c-0.1-0.4,0-0.9,0-1.3c0-0.5-0.3-1,0.2-1.4c0,1.5,0.2,3,0.4,4.5
			c0.2,1.4-0.7,2.2-1.6,2.9C48,88.3,47.9,87.4,47.9,86.5z"/>
		<path class="st33" d="M21.4,59.6c-0.4,0-0.8,0.1-1.2,0.1c-0.2-1-0.4-1.9-0.7-2.9c-0.2-0.8,0.3-0.6,0.7-0.7
			c0.5-0.1,0.8-0.2,0.8,0.5C21.1,57.6,21.3,58.6,21.4,59.6z"/>
		<path class="st34" d="M38.5,82.1c-0.7-0.2-1.2-0.7-1.5-1.3c-0.4-0.7-0.2-1.2,0.6-1.2c0.5,0,1,0,1.5,0.3
			C39.7,80.8,39.2,81.5,38.5,82.1z"/>
		<path class="st33" d="M18,61.2c-0.2,0.3-0.4,0.6-0.5,1c-0.5-0.3-1-0.6-1.5-0.9c-1.2-0.7-1.2-0.8-0.4-2.1
			C16.4,59.9,17.2,60.5,18,61.2z"/>
		<path class="st35" d="M56.4,67.7c0,0.1,0,0.2,0,0.3c-0.1,0.3,0.2,0.7-0.2,0.8c-0.3,0.2-0.5-0.2-0.8-0.4c-0.7-0.5-1.5-1-2.2-1.5
			c-0.3-0.2-0.7-0.4-0.6-0.8c1.2,0.6,2.4,0.7,3.7,1C56.4,67.3,56.4,67.5,56.4,67.7z"/>
		<path class="st36" d="M25.9,75.1c-1.3-1.1-2.4-2.3-3.8-3.3c0.1-0.3,0.1-0.5,0.2-0.8c0.5,0.1,0.7,0.6,1,0.9
			c0.7,0.8,1.6,1.1,2.5,1.3c0.1,0.3-0.1,0.6,0.2,0.8C25.9,74.5,25.9,74.8,25.9,75.1z"/>
		<path class="st31" d="M25.8,136.6c1.1,0,2.2,0.2,3.3,0c0.2,0.1,0.5,0.2,0.7,0.3c0.2,0.1,0.4,0.3,0.7,0.4c-1.5,0.4-3.1,0.1-4.7,0.2
			c0-0.2-0.1-0.4-0.1-0.6C25.7,136.7,25.7,136.6,25.8,136.6z"/>
		<path class="st37" d="M219.6,136c0.5-0.6,0.2-1.3,0.1-2c0-0.4-0.1-0.8-0.1-1.2c0.5,0.1,0.7,0.6,0.8,1c0.2,1,0.4,2,0.6,2.9
			c-0.1,0.2,0.1,0.6-0.4,0.4C220.5,136.6,219.9,136.5,219.6,136z"/>
		<path class="st38" d="M40.6,91.6c0.1-1.5-0.1-1.8-1.8-2.5c0.4-0.3,0.3-1.3,1.2-0.8c0.5,0.8,1,1.6,1.6,2.4
			C41.6,91.5,41.1,91.6,40.6,91.6z"/>
		<path class="st39" d="M201.6,99c0.3,0.4,0.5,0.8,0.8,1.2c-0.3,0.9-1.4,1.1-1.8,1.8c-0.2-0.3-0.2-0.6-0.2-0.9
			C201,100.5,201.1,99.6,201.6,99z"/>
		<path class="st40" d="M31.6,75.1c-0.5,0-1,0.1-1.5-0.2c0-0.5,0-1.1,0-1.6C31.1,73.5,31.2,74.4,31.6,75.1z"/>
		<path class="st41" d="M48.8,75.3c-0.4-0.9-0.1-1.9-0.2-2.9c0-0.6,0-1.1,0-1.7c0.1-0.1,0.3-0.2,0.4-0.1c0,1,0,1.9,0,2.9
			C48.7,74.1,49.1,74.8,48.8,75.3z"/>
		<path class="st42" d="M173.2,92.2c0.5-1.6,1.2-3,1.4-4.7c0.3,0,0.6-0.1,0.8,0.1c-0.5,0-0.6,0.4-0.7,0.8c-0.5,1.3-0.7,2.6-1.4,3.8
			C173.3,92.3,173.3,92.3,173.2,92.2z"/>
		<path class="st42" d="M180,88.1c-1,0.6-1.2,1.7-1.9,2.5c0-0.7,0.4-1.1,0.7-1.7c0.2-0.3,0.6-0.5,0.4-1
			C179.4,87.9,179.7,87.9,180,88.1z"/>
		<path class="st43" d="M199,123.2c0.7,0.3,1,1.1,1.5,1.6C199.7,124.7,199.2,124.1,199,123.2z"/>
		<path class="st44" d="M217.6,126.7c0.1-0.1,0.1-0.3,0.2-0.4c0.3,0.8,0.3,1.6,0.4,2.5C217.9,128.1,217.8,127.4,217.6,126.7z"/>
		<path class="st45" d="M52.1,69.1c-0.3,0.6,0.3,1,0.2,1.5c-0.3-0.3-0.5-0.8-0.6-1.2C51.7,69.2,51.9,69.2,52.1,69.1z"/>
		<path class="st46" d="M56.6,69c0-0.2,0-0.3,0-0.5c0.3,0.1,0.5,0.2,0.6,0.4c0,0.1,0,0.3,0,0.4c0.1,0.1,0.1,0.1,0.1,0.2
			c0,0.1,0,0.1,0,0.1C56.8,69.7,56.8,69.2,56.6,69z"/>
		<path class="st47" d="M211.3,132.9c0-0.1,0-0.1-0.1-0.2c-0.3-0.5-0.4-1-0.4-1.6c0-1.1,0.1-2.1-0.1-3.2c0-0.3,0-0.6,0.2-0.8
			c1.8,1.7,3.3,3.5,4.9,5.3c0.6,1.4,0.8,2.8,0.7,4.3c-0.2,0.2-0.4,0.2-0.7,0c-1.2,0-2.3,0-3.5,0c-0.6-0.6-0.5-1.4-0.7-2.1
			C211.6,134.1,211.5,133.5,211.3,132.9z"/>
		<path class="st48" d="M211.3,132.9c0.8,0.7,0.6,1.7,0.9,2.5c0.1,0.4,0.2,0.9,0.3,1.4c-0.3,1-0.5-0.1-0.7,0
			c-0.1-0.1-0.2-0.1-0.3-0.2c-0.2-0.1-0.3-0.2-0.2-0.4c0.4-0.7,0.2-1.5,0.1-2.2C211.3,133.6,211.1,133.3,211.3,132.9z"/>
		<path class="st47" d="M202.3,136.8c0.4-2.8,0.9-5.6,1.3-8.5c1.7,1.8,3.4,3.4,4.9,5.4c0.5,1,0.6,2.1,0,3.1c-0.8,0-1.6,0-2.4,0
			c-0.2-0.3-0.4-0.3-0.6,0C204.4,136.8,203.3,136.8,202.3,136.8z"/>
		<path class="st49" d="M208.5,136.8c0-1,0-2.1,0-3.1c1.1,0.7,1.7,1.8,2.7,2.5c0.1,0.1,0.2,0.3,0.2,0.4c0,1.5-1.1,0.6-1.7,0.8
			c-0.1-0.1-0.3-0.1-0.4,0c-0.3,0-0.5,0-0.8,0C208.5,137.2,208.5,137,208.5,136.8z"/>
		<path class="st50" d="M216.6,137.2c0-0.1,0-0.3,0-0.4c-0.2-1.4-0.4-2.9-0.6-4.3c1.2,1.1,2.4,2.3,3.5,3.5c0,0.5,0,0.9,0,1.4
			C218.5,137.4,217.5,137.6,216.6,137.2z"/>
		<path class="st51" d="M209.3,137.4c0-0.2,0-0.5,0.2-0.5c0.3,0,0.2,0.3,0.2,0.5C209.6,137.4,209.5,137.4,209.3,137.4z"/>
		<path class="st1" d="M74.1,88.3c0-4.8,0-9.5,0-14.3c0-18.5,0-37,0-55.5c0-2.1,0.5-2.5,2.5-2.5c5.1,0,10.1,0,15.2,0
			c1.9,0,2.3,0.4,2.6,2.2c0.2,1,0.8,1.5,1.7,1.6c0.2,0,0.5,0,0.7,0c11.1,0,22.3,0,33.4,0c1.8,0,2.2-0.4,2.6-2.2
			c0.2-1.1,0.9-1.6,2.3-1.6c4.9,0,9.9,0,14.8,0c0.5,0,1,0,1.5,0c1,0.1,1.6,0.7,1.6,1.6c0,0.3,0,0.5,0,0.8c0,32.5,0,65,0,97.5
			c0,2-0.5,2.5-2.5,2.5c-24.6,0-49.3,0-73.9,0c-2.1,0-2.6-0.5-2.6-2.6c0-7.9,0-15.9,0-23.8c0.2-0.4,0.6-0.4,1-0.5
			c1.9-0.5,2.4-1.8,1.5-3.5c0-0.1-0.1-0.2-0.1-0.3c0.4-1.5,1.3-2.7,2-4c1.2-2.3,2.5-4.5,3.7-6.8c0.2-0.4,0.4-0.8,0.9-1
			c0.4,0.1,0.6,0.4,0.9,0.6c4.2,5.2,12,6.3,17.6,1.9c4.1-3.3,5.6-7.6,4.5-12.6c-1.2-5.4-4.7-8.9-10.1-9.8
			c-7.5-1.3-13.8,3.6-14.7,10.7c-0.3,2.5-0.2,4.9,1.1,7.2c0.2,0.4,0.4,0.7,0.4,1.1c0,0.4-0.1,0.7-0.3,1c-2.2,3.8-4.3,7.7-6.5,11.4
			c-0.1,0.1-0.3,0.3-0.3,0.5c-0.1,0.4-0.3,0.7-0.7,0.9C74.5,88.8,74.3,88.6,74.1,88.3z"/>
		<path class="st26" d="M75.4,87.7c-0.1-0.3,0.1-0.3,0.3-0.4c0.4-0.1,0.7,0,0.9,0.3c1.4,1.6,0.7,3.6-1.4,4.1
			c-0.4,0.1-0.7,0.2-1.1,0.2c-0.5,0-1.1,0-1.6,0c-0.4-1,0.2-2,0.4-2.9c0.6,0,0.8-0.6,1.2-0.8c0.4,0,0.5,0.3,0.8,0.4
			C75.7,88.7,75.6,88.2,75.4,87.7z"/>
		<path class="st52" d="M127.2,14.4c0.8,0,1.4,0.6,1.5,1.4c0,0.8-0.6,1.5-1.5,1.5c-0.8,0-1.5-0.7-1.5-1.4
			C125.7,15.2,126.4,14.5,127.2,14.4z"/>
		<path class="st13" d="M172.8,24.9c-0.8,1.3-1,1.2-2.1,0c-0.8-1-0.8-2-0.2-3.1c-0.6-0.2-0.9,0.4-1.4,0.5c0.3-2.2,1.5-3.2,4.1-3.8
			c0-0.1-0.1-0.2-0.1-0.2c-0.4-0.3-1-0.6-0.8-1.1c0.2-0.4,0.8-0.1,1.2,0c1.4,0.2,2.6-0.4,3.9-0.6c2.3-0.4,4.4-0.3,6.5,1.1
			c0-0.7-0.6-1.2-0.5-1.8c1.1,0.3,2.1,0.9,2.6,1.8c0.8,1.5,1.6,3,1.4,4.9c-0.1,1.3,0.4,2.6,0,3.9c-0.3,0.9-0.5,1.8-1.2,2.5
			c-0.5,0.2-0.8-0.2-1.1-0.4c-1.5-1.1-2.3-2.6-2.6-4.4c-0.2-1.2-0.7-1.6-2-1.3c-0.8,0.2-1.6,0.6-2.4,1c-1.3,0.5-2.5,0.9-3.8,0
			c-0.3-0.2-0.6-0.1-0.8,0.2C173.3,24.4,173.1,24.8,172.8,24.9z"/>
		<path class="st16" d="M172.8,24.9c0-0.4,0.3-0.6,0.4-0.9c0.4-0.7,0.7-1,1.4-0.3c0.5,0.5,1.4,0.6,2.1,0.3c0.9-0.3,1.8-0.7,2.7-1
			c0.6-0.3,1.3-0.5,2-0.5c0.8,0.1,1.2,0.3,1.3,1.3c0.2,2.3,1.4,4,3.5,5.1c-0.2,0.9-1.1,1.4-1.3,2.2c-1.9,2.1-3.9,4-6.7,4.6
			c-0.6,0.1-0.5,0.9-1,1c0.1-0.7-0.1-1.1-0.9-1.2c-1.2-0.2-1.8-1-2.1-2.1c-0.6-2-0.9-4-1.1-6C172.9,26.6,172.8,25.8,172.8,24.9z"/>
		<path class="st16" d="M185.3,37.6c-2.6,1.4-5.3,2.8-7.9,4.1c-0.2,0.1-0.4,0.2-0.6,0.2c-0.3-0.1-0.1-0.4-0.1-0.6
			c0-0.4,0.1-0.7,0.1-1.1c0.8-1.3,2-2.4,3.2-3.4c1.5-1.2,2.6-2.8,4.2-3.9c0.3-0.2,0.3-0.7,0.6-0.9C185.2,33.8,185.3,35.7,185.3,37.6
			z"/>
		<path class="st18" d="M184.9,31.9c0,0.4,0,0.7-0.3,1c-2.6,2.4-5.1,4.8-7.7,7.2c0-0.5,0-0.9,0-1.4c0.3-0.7,0.2-1.4,0.3-2.1
			c0.1-0.9,0.6-1.2,1.5-1.4c1.9-0.3,3.2-1.6,4.6-2.7c0.6-0.5,0.9-1.2,1.7-1.4C184.9,31.4,184.9,31.7,184.9,31.9z"/>
		<path d="M43.2,34.4c-0.8-0.3-1.6-0.7-2.5-0.9c-1.1-0.3-1.4-0.9-1.4-2c0.1-3.1,0.1-6.2,0.9-9.2c1-4,3.7-6,7.7-5.7
			c4.5,0.4,6.6,3.3,7.3,6.9c0.1,0.6-0.4,1.1-0.4,1.8c0.1,3.1,0,6.3,0.1,9.5c0,0.7-0.2,0.9-0.8,0.7c-1.1-0.3-2.3-0.4-3.4-0.7
			c-0.3-0.2-0.3-0.5-0.2-0.8c0,0,0-0.1,0.1-0.1c2.2-0.4,2.8-2,3.1-3.9c0.1-1,0.4-1.9,0.5-2.9c0.1-0.6,0.1-1.2,0.2-1.7
			c0.1-0.6-0.2-0.9-0.8-0.9c-1.7,0-3.4,0-5,0c-0.5,0-0.8,0.1-0.8,0.7c0,1.8-0.2,3.6,0.1,5.4c0.1,0.9,0.1,1.7,0.1,2.6
			c0,0.9,0.1,1.7-0.1,2.6c-0.1,0.2-0.2,0.3-0.4,0.2C45.7,35.6,44.3,35.3,43.2,34.4z"/>
		<path class="st53" d="M52.6,37.8c-0.4,0.2-0.2,0.3,0,0.4c0.4,0.2,0.9,0.4,1.1,0.9c0.1,0.2,0.1,0.6-0.1,0.7
			c-0.9,0.3-0.3,1.9-1.4,1.7c-1.2-0.3-2.2,0.2-3.2,0.4c-1.1,0.2-1.8-0.4-2.1-1.5c-0.1-0.6-0.4-0.5-0.8-0.3c-0.7,0.3-1.4,0.4-2.1,0.1
			c-0.7-0.3-1.2-0.8-0.9-1.6c0.2-0.8-0.1-0.8-0.7-0.8c-0.9-0.2-1.9-0.3-2.6-1.1c-0.1-0.9,0.6-1.2,1.2-1.3c0.5-0.1,1.1-0.2,1.7-0.2
			c0.5-0.2,0.8,0.2,1.1,0.4c2,1.3,4,2.5,6,3.8c0.1,0.1,0.3,0.2,0.5,0.2c0-0.5-0.1-0.9,0-1.4c0.2-0.7-0.4-1.5,0.3-2.1
			c0.6,0.2,1.2,0.4,1.8,0.6C53.1,36.8,53.3,37.3,52.6,37.8z"/>
		<path class="st25" d="M50.6,38.1c0,0.6,0.1,1.1,0.2,1.9c-2.7-1.7-5.4-3.4-8-5c0-0.3,0-0.6,0.4-0.7c1.4,0.4,2.7,1.1,4.2,1.5
			c0.2-0.3,0.4-0.6,0.7-0.3C48.9,36.5,50,37,50.6,38.1z"/>
		<path class="st54" d="M50.6,38.1c-0.8-0.7-1.7-1.5-2.5-2.2c-0.3-0.3-0.5-0.4-0.8-0.1c0-0.9,0-1.8,0.1-2.7c1.1-0.1,2.1,0.4,3.1,0.8
			c0,0.3,0,0.5,0,0.8c-0.1,0.4,0,0.7,0.1,1.1C50.6,36.6,50.6,37.4,50.6,38.1z"/>
		<path d="M56.4,71.4c0.4,0,0.8,0,1.2,0c-0.5,3,0.7,5.8,1.2,8.7c0.6,3.6,1.4,7.1,2.1,10.7c0.1,0.3,0.1,0.7,0,1
			c-0.4,0.9-0.8,1.8-1.2,2.8c-0.8-1-1.6-1.8-2.3-2.7C57,91.5,57,91.2,57,90.9c-0.1-5.5-0.3-11-0.4-16.4c0-1-0.2-1.9-0.9-2.6
			C55.7,71.2,56,71.3,56.4,71.4z"/>
		<path class="st55" d="M56.6,69c0.2,0.2,0.4,0.4,0.6,0.6c0.3,0.1,0.4,0.4,0.6,0.6c0.1,0.2,0.2,0.4,0.4,0.6c0.1,0.2,0.3,0.4,0.2,0.6
			c-0.1,0.2-0.3,0.2-0.4,0c-0.1-0.1-0.1-0.1-0.2-0.2c-0.3-0.4-1.1,0.1-1.2-0.6C56.6,70.1,56.6,69.5,56.6,69z"/>
		<path class="st56" d="M49.2,81.7c-0.4,0.4-0.1,1-0.2,1.4c-0.4-0.9-0.1-1.9-0.2-2.8c-0.1-1.1,0-2.2,0-3.4c0.1-0.1,0.1-0.1,0.2,0
			C49,78.6,48.9,80.2,49.2,81.7z"/>
		<path class="st57" d="M52.9,71.8c0.3,0.6,0.7,1.1,1,1.7c0.4-0.2,0.5-0.7,0.8-0.9c0.1,0.6-0.5,1-0.7,1.6
			C53.5,73.4,53,72.8,52.9,71.8z"/>
		<path class="st58" d="M49,77L49,77c-0.1,0-0.2,0-0.2,0c0-0.5,0-1.1,0-1.6c0.1-0.6-0.2-1.3,0.2-1.8C49,74.7,49,75.8,49,77z"/>
		<path class="st59" d="M56.4,71.4c-0.3,0.1-0.7,0-0.7,0.4c-0.7-0.1-0.4,0.8-0.9,0.9c0.1-0.9,0.6-1.4,1.4-1.6
			C56.4,71.1,56.4,71.2,56.4,71.4z"/>
		<path class="st60" d="M58,71.4c0.6,0,0.1-0.4,0.2-0.6c0.5,0.2,0.7,0.8,1,1.2c-0.1,0.1-0.3,0.1-0.4,0C58.4,72,58.2,71.8,58,71.4z"
			/>
		<path class="st60" d="M56.6,70.6c0.3,0.5,1.1-0.2,1.2,0.6c-0.1,0.1-0.1,0.1-0.2,0.2C57.4,71,56.5,71.5,56.6,70.6z"/>
		<path class="st61" d="M58.8,72.1c0.1,0,0.3,0,0.4,0c0.2,0.2,0.3,0.5,0.6,0.9C59.3,72.7,59.1,72.4,58.8,72.1z"/>
		<path class="st60" d="M57.9,70.2c-0.3-0.1-0.5-0.3-0.6-0.6c0-0.1,0-0.2,0-0.2C57.6,69.6,57.8,69.8,57.9,70.2z"/>
		<path class="st45" d="M52.3,70.6c0.4,0.1,0.4,0.5,0.4,0.8C52.4,71.2,52.3,70.9,52.3,70.6z"/>
		<path d="M173.8,69.6c-1.6,0.4-2.6,0.1-3.2-1c0.1-0.1,0.5-0.3,0-0.4c-0.9-0.1-1.5-0.5-1.9-1.3c-0.2-0.5-0.2-0.8,0.5-0.7
			c0.1,0,0.3,0,0.4,0c0.9,0.1,1.2-0.2,0.8-1.2c-0.6-1.7-0.8-3.5-0.9-5.3c0-2.6,0.8-4,3.4-4.8c1.9-0.6,3.8-0.6,5.6,0.2
			c2,0.9,2.8,2.1,2.6,4.4c-0.3,0.6-0.9,0.7-1.4,0.6c-1.5-0.2-3,0.2-4.5,0.3c-1.1,0.1-2.2,0.2-3.3,0.1c-0.7-0.1-0.9,0.2-0.8,0.8
			c0.2,1.6,0.3,3.1,0.7,4.6c0.2,1,0.7,1.8,1.8,2c0.2,0,0.3,0.1,0.4,0.3C174.1,68.7,174.2,69.2,173.8,69.6z"/>
		<path class="st9" d="M173.7,68.2c-1.1,0-1.8-0.6-2.1-1.6c-0.6-1.9-0.8-3.9-0.9-5.9c0-0.3-0.1-0.7,0.5-0.6c2.3,0.4,4.5-0.1,6.8-0.4
			c1-0.1,2,0.3,3-0.3c0.5,1.8-0.1,3.3-1,4.8c-0.2,0.3-0.4,0.6-0.6,0.9c0,0.1,0,0.1,0,0.2c-1.1,1.3-2.4,2.3-4,3
			C174.8,68.4,174.3,68.5,173.7,68.2z"/>
		<path class="st9" d="M179.8,69.6c-2,1.1-4,2.1-6.2,3.3c0-0.9,0-1.6,0-2.4c0.1-0.1,0.1-0.1,0.2-0.2c0.3,0.4,0.6,0.2,0.8,0
			c1.4-1.2,2.6-2.7,4.1-3.8c0.4-0.3,0.4-0.9,0.6-1.4c0,0,0-0.1,0.1-0.1C179.7,66.5,179.5,68.1,179.8,69.6z"/>
		<path class="st10" d="M179.3,65.1c0.1,0.7,0,1.3-0.6,1.7c-1.7,1.3-3,3.1-4.8,4.3c-0.3-0.2-0.1-0.5-0.2-0.8c0-0.3,0-0.5,0-0.8
			c0-0.5,0-0.9,0-1.4c2.1,0,3.5-1.4,4.9-2.6C178.9,65.4,179.1,65.3,179.3,65.1z"/>
		<path class="st11" d="M170.5,68.2c0.2,0,0.4,0,0.7,0c-0.2,0.3-0.4,0.4-0.6,0.4C170.5,68.4,170.5,68.3,170.5,68.2z"/>
		<path class="st62" d="M211.1,127.2c0.1,1.8,0.1,3.7,0.2,5.5c-0.6-0.2-0.8-0.7-1-1.2c-0.6-2.2-1.2-4.4-1.7-6.6
			c0.2-0.2,0.4-0.2,0.6,0C209.8,125.6,210.6,126.3,211.1,127.2z"/>
		<path class="st63" d="M209.2,124.9c-0.2,0-0.4,0-0.6,0c-0.1-0.3-0.1-0.6-0.2-0.8C208.7,124.3,209,124.5,209.2,124.9z"/>
		<path class="st15" d="M171.8,107.8c1.6,0,3.3,0.1,4.9,0.1c-0.1,2.4-0.3,4.8-0.6,7.2c-0.4,0.3-0.8,0.3-1.2,0.3
			c-1.3,0-2.6,0-3.8,0.1c-1-0.2-2.1-0.1-3.1-0.1c-0.7,0-1.2-0.2-1-1.1c-0.2-2.4-1.2-4.4-2.5-6.3c0.3-0.3,0.7-0.3,1.1-0.3
			c1.7,0,3.4,0,5.1,0C171,107.5,171.4,107.6,171.8,107.8z"/>
		<path class="st20" d="M170.9,115.2c1.7-0.4,3.4-0.1,5.1-0.2c-0.1,1.7-0.3,3.5-0.4,5.2c0,0.9-1,0.2-1.2,0.8
			c0.3,0.3,0.2,0.7,0.1,1.1c-0.4,2.5-0.7,5.1-1.2,7.6c-0.1,0.4-0.1,0.9-0.5,1.2c-0.3,0.5-0.2,1-0.2,1.4c-0.7,0-1.4,0-2.1,0.1
			c-0.6,0-0.6-0.3-0.6-0.7c-0.3-1.1,0.2-2.2,0.3-3.3c0.3-2.1,0.6-4.2,1-6.3c0.1-0.5,0.1-0.8-0.4-1.1c-1.8-1.2-2.1-3.9-0.6-5.5
			C170.5,115.3,170.7,115.1,170.9,115.2z"/>
		<path class="st47" d="M185.9,131.6c-1.5-0.4-3-0.1-4.5-0.2c-0.4-0.2-0.5-0.6-0.5-1c0-1.7-0.2-3.4-0.2-5.2c0-0.5,0.1-1,0.3-1.5
			c0.1-0.9,0.6-1.7,0.9-2.5c0.2-0.4,0.5-0.5,0.8-0.4c0.5,0,1,0,1.5,0C184.8,124.5,185.3,128.1,185.9,131.6z"/>
		<path class="st62" d="M181,123.9c0.1,2.5,0.1,5.1,0.4,7.6c0.1,0.7-0.2,1-0.9,0.9c-0.3,0-0.6,0-0.9,0c-0.7,0.1-1-0.2-1-0.9
			c-0.5-1-0.5-2-0.1-3.1C179.1,126.8,180,125.3,181,123.9z"/>
		<path class="st64" d="M172.9,130.9c0.5-3.3,1-6.6,1.5-9.9c0.9-0.2,1.1,0.1,1,1c-0.3,2.8-0.5,5.5-1,8.3c-0.1,0.9-0.7,1.3-1.5,1.6
			C173,131.5,173,131.2,172.9,130.9z"/>
		<path class="st65" d="M178.5,128.4c0,1,0,2.1,0.1,3.1c-0.7,0-1.5,0-2.2,0C176.7,130.2,177.2,129,178.5,128.4z"/>
		<path class="st26" d="M200.5,102c0.1-1.1,1.4-1.1,1.8-1.8c1.5-0.8,3.1-0.7,4.6-0.1c0.3,0.1,0.6,0.3,0.9,0.4c0.5,0.8,0.5,0.8-0.9,1
			c-0.5,0.3-1,0.7-1.6,0.4c-0.6,0.3-1.2,0.2-1.8,0.2c-0.8-0.1-1.7-0.1-2.5,0.2C201,102.4,200.6,102.3,200.5,102L200.5,102z"/>
		<path class="st66" d="M200.5,102c0.3,0.1,0.7,0.2,1,0c0.8-0.6,1.5-0.3,2.2,0.1c-0.2,1.3-0.5,2.6-0.8,3.9c-0.4,0.1-0.9,0.4-1.3,0.1
			C201.1,104.7,200.7,103.3,200.5,102z"/>
		<path class="st67" d="M201.5,106c0.5,0.1,0.9-0.5,1.3-0.1c-0.1,0.4-0.2,0.9-0.3,1.3c-0.3,1.4-0.3,1.4-1.8,1.3
			C201.8,108,201.8,107,201.5,106z"/>
		<path class="st7" d="M213.7,87.9c0.2,1.1,0.7,2,1.5,2.7c-0.5,1.2-1.4,2.2-2.1,3.3c-0.3,0.4-0.5,0.4-0.7,0
			c-0.3-0.6-0.6-1.2-0.9-1.8c-0.2-0.3-0.3-0.7-0.8-0.6c-0.2,0.1-0.4,0.1-0.5-0.1c0-0.1,0-0.1,0-0.2C211,89.6,212.1,88.5,213.7,87.9z
			"/>
		<path class="st68" d="M210.2,91.1c0.1,0.2,0.3,0.2,0.4,0.2c-0.4,0.3-0.9,0.3-1.3-0.1c-0.4-0.5-0.7-0.3-1,0.2c-0.3,0.5-0.7,1-1,1.5
			c-0.4,0-0.3-0.2-0.2-0.4c0.2-1.4,0.7-2.7,1.9-3.7c0.4-0.3,0.8-0.7,1.2-1c0.4,0.5,0,1,0.1,1.5C210.3,90,209.9,90.5,210.2,91.1z"/>
		<path class="st57" d="M217,94c-0.6,1.1-1.1,2.3-1.4,3.5c0,0.1-0.1,0.1-0.2,0C215.6,96.3,215.9,95,217,94z"/>
		<path class="st69" d="M218.6,92.2c-0.2,0.9-1,1.3-1.6,1.9C217.2,93.2,218,92.8,218.6,92.2z"/>
		<path class="st70" d="M215.4,97.6c0.1,0,0.1,0,0.2,0c-0.1,0.7,0.2,1.5-0.2,2.2C215.3,99,215.3,98.3,215.4,97.6z"/>
		<path class="st71" d="M207.1,92.6c0,0.2,0,0.3,0.2,0.4c-0.1,0.1-0.2,0.4-0.3,0.3C206.8,93.1,206.9,92.8,207.1,92.6z"/>
		<path class="st16" d="M35.9,57.3c-0.2-0.4-0.5-0.8-0.7-1.2c0-0.3,0.2-0.4,0.3-0.6c0.6-0.5,0.9-1.2,1.2-2c0.4-1.5,1.5-1.9,2.8-1.1
			c0.8,0.5,1.8,0.7,2.5,1.3c0.1,1.5-0.2,2.9-0.5,4.3c-0.2,0.9-0.6,1.7-1.7,1.6c-0.2,0.2-0.5,0.2-0.8,0.1
			C37.7,59.2,36.6,58.5,35.9,57.3z"/>
		<path d="M42,53.6c-1-0.1-1.9-0.6-2.7-1.1c-1.1-0.7-2.2-0.3-2.4,0.9c-0.2,1.2-0.8,2-1.8,2.6c-1.1-1.1-1.3-2.1-0.6-3.4
			c0.1-0.2,0.2-0.4,0.3-0.6c0.4-1.9,2.1-3,4.1-2.5c0.8,0.2,1.5,0.6,2.2,1c0.7,0.4,1.3,0.8,2.1,0.5c0.8-0.3,0.7,0.2,0.5,0.7
			c-0.1,0.4-0.5,0.7-0.7,1c0.1,0.2,0.5,0,0.5,0.4C43.2,53.4,42.6,53.5,42,53.6z"/>
		<path class="st72" d="M39.9,61.8c0,0.3,0.2,0.7,0,0.9c-0.3,0.2-0.5-0.1-0.8-0.3c-1.2-0.6-2.3-1.2-3.5-1.9c0.1-0.8,0.2-1.6,0.3-2.5
			c0.1-0.1,0.2-0.1,0.3,0C37.5,59.2,38.8,60.4,39.9,61.8z"/>
		<path class="st73" d="M39.9,61.8c-1.5-1-2.7-2.5-4.1-3.7c0-0.3,0-0.5,0-0.8c1.2,1,2.3,2.1,3.9,2.3c0.1,0.6,0.1,1.1,0.2,1.7
			C40,61.4,39.9,61.6,39.9,61.8z"/>
		<path class="st74" d="M205.5,101.9c0.6-0.1,1-0.5,1.6-0.4c1.4,3,3.3,5.6,6.4,7c-1.2,0.2-2.2-0.5-3.1-1
			C208.1,106.1,206.6,104.2,205.5,101.9z"/>
		<path class="st75" d="M177.9,95.1c0,0.3,0.2,0.4,0.4,0.2c0,0.4,0.2,0.8-0.2,1c-0.2-0.4-0.4-0.8-0.6-1.2
			C177.6,95,177.8,95,177.9,95.1z"/>
		<path class="st6" d="M30.7,85c0.1,1.7,0.1,3.4,0.2,5.1c-3,0-6-0.5-9-0.6c-0.5,0-0.6-0.2-0.2-0.6c1.1-1.3,2.2-2.5,3.3-3.8
			c0.6-0.7,1.4-0.2,2-0.6C28.3,84.6,29.5,84.8,30.7,85z"/>
		<path class="st47" d="M170.5,115.4c-0.8,0.9-1,3.4-0.5,4.5c0.2,0.4,0.5,0.8,1,0.8c0.8,0.1,0.7,0.5,0.6,1.1
			c-0.6,3.3-1.1,6.5-1.6,9.8c-0.8-0.4-1.6-0.2-2.4-0.2c-1.5,0-2.9,0-4.4,0c-0.2-1.4,0.4-2.7,0.8-4c0.7-2.1,1.3-4.2,2-6.3
			c0.6-0.3,0.9-0.9,1-1.6c0.1-0.4,0.2-0.9,0.3-1.3c0.3-0.8,0.3-1.6-0.1-2.4c-0.3-0.5-0.2-0.9,0.6-0.9c0.7,0,1.4,0,2.1,0
			C170.2,115.1,170.5,115,170.5,115.4z"/>
		<path class="st25" d="M170.5,115.4c-1-0.4-2.1-0.1-3.1-0.2c0,0.2,0,0.3,0,0.4c1.3,1.9-0.2,3.6-0.4,5.3c-0.1,0.5-0.6,0.3-1,0.3
			c-0.3-1-0.5-2-0.7-3c-0.2-1-0.4-2,0.2-3c0.4-0.4,0.6-1.1,1.4-1c0.1,0.8,0.6,0.9,1.3,0.9c0.9,0,1.9-0.2,2.8,0.2
			C170.8,115.3,170.7,115.4,170.5,115.4z"/>
		<path class="st47" d="M171.8,107.8c-2.5,0-5,0-7.5,0c-1.5-1.3-1.5-1.3-0.5-3c0.9-1.5,1.9-3.1,2.8-4.6c0.1-0.2,0.2-0.7,0.7-0.4
			C168.4,102.7,169.4,105.6,171.8,107.8z"/>
		<path class="st9" d="M210.1,87.7c-1-0.2-1.5-0.9-1.8-1.9c-0.4-1.6-0.8-3.2-0.8-4.8c0-1.1,0.1-1.2,1.1-0.7c1.3,0.6,2.7,1.2,4.2,1.4
			c0.6,0.1,0.9,0.3,0.9,1c-0.1,1.1,0,2.1,0,3.2C212.9,87.1,211.5,87.9,210.1,87.7z"/>
		<path class="st76" d="M210.2,91.1c-0.3,0.2-0.4,0.1-0.4-0.3c0.1-0.5,0.1-0.9,0.2-1.4c0.9-1,2-1.7,3-2.5c0.2-0.1,0.4-0.3,0.6-0.2
			c0,0.3,0,0.7,0,1C212.5,88.9,211.1,89.8,210.2,91.1z"/>
		<path class="st77" d="M213.7,86.8c-1.3,0.8-2.3,2-3.7,2.7c0.1-0.5,0.1-1.1,0.2-1.6c0-0.1,0-0.1,0-0.2c1.4-0.2,2.5-0.9,3.5-1.9
			C213.7,86.2,213.7,86.5,213.7,86.8z"/>
		<path class="st25" d="M198.8,53.4c-0.1-1.1,0.5-1.5,1.5-1.9c2.6-1,2.6-1.1,3.7,1.5c0.6,1.3,1.3,2.5,2.7,3.3c0,0.1-0.1,0.1-0.2,0.2
			c-0.5,0.1-0.9,0.4-1.1,0.9c-0.3,0.5-0.2,1.1-0.4,1.7c-0.9,1-1.9,1.6-3.4,1.4c-0.3-0.1-0.7-0.1-1-0.2c-0.5-0.1-0.8-0.4-1-0.9
			c-0.4-0.8-0.5-1.7-0.7-2.6c0-0.2,0.1-0.4,0-0.6C198.9,55.1,198.8,54.2,198.8,53.4z"/>
		<path class="st78" d="M201.6,60.3c1.2-0.2,2.3-0.7,3.3-1.4c0.1-0.1,0.2-0.1,0.3-0.1c0.2,0.1,0.3,0.2,0.5,0.3
			c0.1,0.1,0.1,0.1,0.2,0.2c0,0.1,0,0.2-0.1,0.3c-1.1,1-2.3,2-3.4,3.1c-0.2,0.2-0.4,0.5-0.9,0.5c-0.1-0.3,0.3-0.6,0-0.8
			C201.7,61.7,201.5,61,201.6,60.3z"/>
		<path class="st79" d="M199.1,56.5c0.2,0.8,0.4,1.6,0.7,2.5c0.1,0.5,0.4,0.9,0.9,1.2c-0.7,0.1-1.4,0-2.1-0.4
			c-0.3-0.1-0.5-0.4-0.7-0.6c-0.1-0.1-0.1-0.1-0.2-0.2c-0.2-0.6-0.2-1.1,0.2-1.6c0.1-0.2,0.2-0.4,0.4-0.5
			C198.5,56.6,198.7,56.3,199.1,56.5z"/>
		<path class="st80" d="M197.8,57.3c-0.2,0.5-0.2,1.1-0.2,1.6C197.4,58.3,197.2,57.8,197.8,57.3z"/>
		<path class="st81" d="M199.1,56.5c-0.3,0.1-0.5,0.2-0.8,0.4c-0.1-0.5,0.5-0.5,0.6-0.8C199.1,56.1,199.1,56.3,199.1,56.5z"/>
		<path class="st82" d="M197.8,59.1c0.2,0.2,0.4,0.4,0.7,0.6C198,59.8,197.9,59.5,197.8,59.1z"/>
		<path class="st83" d="M166.4,94.9c-0.3-0.8-0.5-1.6-0.4-2.5C166.2,93.2,166.5,94,166.4,94.9z"/>
		<path class="st84" d="M165.8,92c-0.3-0.5-0.3-1.1-0.2-1.6C165.9,90.9,165.9,91.4,165.8,92z"/>
		<path class="st85" d="M166.8,96.9c-0.3-0.5-0.3-1.1-0.2-1.7C166.8,95.8,167,96.3,166.8,96.9z"/>
		<path class="st86" d="M169.1,91c-0.7-0.3-0.8,0.1-0.9,0.7c-0.1,0-0.1,0-0.2,0c0.1-1.1,0.2-1.2,1.2-0.8
			C169.2,90.8,169.2,90.9,169.1,91z"/>
		<path class="st9" d="M18.8,43.1c-0.4-1-1.1-1.8-1.1-2.9c0.1-1.8,1.4-3,3.2-3c1.7,0,3,1.3,3,3.1c0,1,0,2-0.2,3
			c-0.2,0.7-0.3,1.4-1.1,1.7c-0.5,0.2-0.3,0.7-0.4,1.1c-0.6-0.8-1.5-1.2-2.3-1.7C19.5,44,19,43.6,18.8,43.1z"/>
		<path class="st26" d="M22.2,46.8c0.1,0.7,0,1-0.7,0.6c-1-0.5-2-1-2.9-1.6c0-0.7,0.1-1.4,0.2-2.1c0.2-0.1,0.4,0,0.5,0.2
			C20.3,44.8,21.4,45.7,22.2,46.8z"/>
		<path class="st87" d="M22.2,46.8c-1.4-0.8-2.2-2.2-3.5-3.1c0-0.2,0-0.4,0-0.6c0.9,0.7,1.8,1.5,2.9,1.8c0.6,0.2,0.2,0.8,0.6,1.1
			c0,0.1,0,0.3,0.1,0.4C22.3,46.5,22.3,46.6,22.2,46.8z"/>
		<path class="st88" d="M206.5,56.2c0.1,0,0.2,0,0.2,0c0.2,0,0.4,0,0.6,0c0.1,0.1,0.1,0.2,0.2,0.2c-0.1,0.1-0.3,0.2-0.4,0.2
			c-0.2,0-0.4,0-0.6-0.1C206.4,56.4,206.4,56.3,206.5,56.2z"/>
		<path class="st89" d="M21.1,82.3c-0.1,0.1-0.3,0.3-0.4,0.4c-0.4-2.5-1-5-1.5-7.5c-0.1-0.6-0.5-1.1-0.1-1.7c0.5,2.5,1.1,5,1.6,7.5
			C20.7,81.5,20.7,81.9,21.1,82.3z"/>
		<path class="st25" d="M201.4,63.2c1.1-1.1,2.3-2.1,3.4-3.2c0.2-0.2,0.4-0.5,0.8-0.5c0.1,0,0.2,0.1,0.2,0.1
			c0.2,0.1,0.5,0.2,0.7,0.3c0.1,0,0.1,0.1,0.2,0.2c0.1,0.5,0.1,1,0.2,1.4c-1.8,0.9-3.6,1.9-5.4,2.8
			C201.3,63.9,201.4,63.6,201.4,63.2z"/>
		<path class="st90" d="M207.1,56.4c0.1,0,0.3,0,0.4,0c1.5,0.7,1.6,1.9,0.5,3.3c-0.4,0.2-0.7,0.2-1.1,0.4c0,0-0.1,0-0.1,0
			c0,0-0.1,0-0.1,0c-0.1-0.1-0.1-0.2-0.2-0.3c-0.1-0.4-0.1-0.9-0.1-1.3c0-0.4-0.1-0.7-0.1-1.1C206.3,56.9,206.6,56.7,207.1,56.4z"/>
		<path class="st91" d="M206.9,60.1c0.3-0.4,0.7-0.4,1.1-0.4C207.7,60,207.3,60.1,206.9,60.1z"/>
		<path class="st57" d="M177.9,95.1c-0.1,0-0.3,0-0.4,0c0-1.1,0-2.2,0-3.3c0.1-0.1,0.3-0.1,0.4,0C177.6,92.9,177.7,94,177.9,95.1z"
			/>
		<path class="st42" d="M177.9,91.8c-0.1,0-0.3,0-0.4,0c0.1-0.5,0.3-0.9,0.6-1.2C178,91,178,91.4,177.9,91.8z"/>
		<path class="st92" d="M173.2,92.2c0.1,0,0.1,0,0.2,0c-0.1,0.3-0.1,0.7-0.2,1C172.7,92.9,173.2,92.5,173.2,92.2z"/>
		<path class="st93" d="M169.1,91c0.1-0.1,0.1-0.1,0.2-0.2c1.2-0.2,1.5-1.3,2.1-2.1c0.1-0.1,0.2-0.2,0.4-0.3
			c-0.1,1.3,0.1,2.6,0.2,3.9c0,0.3,0.1,0.6-0.2,0.7c-0.3,0.1-0.3-0.3-0.5-0.4C170.6,91.7,170,91.1,169.1,91z"/>
		<path class="st53" d="M82.5,75.2c-1.3-2.4-1.9-4.9-1.7-7.6c0.2-3.6,1.7-6.5,4.3-8.8c1.8-1.6,3.8-2.6,6.1-3c4-0.7,7.7,0.2,10.9,2.9
			c2.1,1.9,3.6,4.2,4.2,6.9c0.8,4,0.1,7.7-2.5,10.9c-0.7,0.8-1.3,1.6-2.3,2.2c-0.2,0.1-0.5,0.1-0.7,0c-1.7-0.7-3.5-1.3-5.2-2.2
			c-0.7-0.6-0.5-1.3-0.5-2.1c0-0.5,0.3-0.9,0.8-1c0.9-0.2,1.4-0.9,1.6-1.7c0.2-0.7,0.4-1.4,0.7-2c0.7-1.8,1.2-3.5,0.8-5.5
			c-0.6-2.8-3.2-4.9-6.3-4.8c-2.9,0-5,1.9-5.5,4.8c-0.2,1,0,2,0,3.1c-0.9,2.2-2.3,4.2-3.5,6.3C83.5,74.1,83.4,75,82.5,75.2z"/>
		<path class="st94" d="M83.7,46.2c-1.6-1.7-2.4-3.7-2.7-5.9c-1.1-6.1,2.5-12.2,8.4-14.3c8.7-3.1,17.5,3.4,17.3,12.5
			c-0.1,3.9-1.7,7-4.6,9.6c-0.1,0.1-0.3,0.2-0.5,0.3c-0.4,0-0.7,0-1.1-0.2c-1.6-0.7-3.4-1.2-4.9-2.2c-0.3-0.3-0.4-0.7-0.2-1.1
			c0.6-0.3,0.9,0.2,1.3,0.4c1.2,0.8,2.4,0.8,3.7,0.1c0.6-0.3,0.8-0.6,0.2-1.1c-0.6-0.4-1.1-0.8-0.2-1.4c0.3-0.2,0.2-0.6-0.1-0.7
			c-1.3-0.5-1.1-1.6-1.1-2.7c0-0.4,0-0.9,0.1-1.3c0.6-0.8,1.8-1.1,2.3-2.1c-0.7-0.3-1.6,0.3-2.3-0.4c-0.2-0.6-0.2-1.2-0.1-1.8
			c0.1-0.6,0.6-0.7,1.1-0.9c0.5-0.2,1.1-0.4,1.7-0.7c-1.2-0.4-2.4-0.5-3.6-0.9c-0.1-0.1-0.2-0.2-0.3-0.3c-0.6-0.9-1.1-2-1.7-2.9
			c-0.2-0.4-0.5-0.6-1-0.5c-2.9,0.8-5.6,1.8-8.1,3.4c-1.2,0.7-1.2,0.9-0.6,2.1c0.6,1.2,0.6,2.3-0.3,3.4c-0.6,0.7-1,1.6-1.5,2.2
			c0.8-0.2,1.6-0.8,2.5-0.7c0.4,1.3,0,2.2-1.2,2.8c-0.6,0.3-0.9,0.5-0.2,1.1c0.8,0.6,0.7,0.8-0.1,1.3c-1,0.6-1,0.6-0.1,1.4
			c0.3,0.3,1,0.4,0.7,1C85.5,46.2,84.6,46.4,83.7,46.2z"/>
		<path d="M84.6,89.7c1.1-1.2,2.1-2.5,3.6-3.2c2.1-1,4.2-1,6.4-0.6c3.3,0.7,5.9,4,5.9,7.4c0,1,0.1,2-0.2,2.9c0,0.2-0.1,0.3-0.1,0.5
			c-0.2,0.7-0.3,1.5-1.2,1.8c-0.2-0.1-0.3-0.3-0.4-0.5c-0.1-0.7,0-1.4,0-2c0-0.1,0-0.2,0-0.3c0-0.2,0-0.4,0-0.6
			c-0.1-0.9-0.1-0.9-0.9-0.5c-1.5,0.7-3.1,0.4-4.7,0.2c-0.6-0.1-1.2-0.2-1.8-0.4c-0.6-0.2-0.9,0-1,0.6c-0.1,1.3-0.5,2.5-1,3.7
			c-0.2,0.4-0.1,0.7,0.1,1.1c0.2,0.3,0.4,0.6,0.4,0.9c0,0.5,0.2,1.1-0.5,1.3c-1.9-0.3-3.1-1.5-4.1-3C82.9,95.9,82.6,92.8,84.6,89.7z
			"/>
		<path class="st7" d="M100,96.3c0.6-3,0.2-5.7-1.9-8.1c-1-1.1-2.3-1.7-3.5-2.3c5,0.4,8.6,2.8,10.8,7.3c2.7,5.4,1.2,11.7-3.3,15.6
			c-0.2,0.1-0.3,0.2-0.5,0.3c-0.6,0-1.1-0.2-1.7-0.5c-1.4-0.7-3-1-4.4-2c-0.4-1.1-0.3-1.3,1-1.6c1.2-0.3,1.2-0.3,1.2-2.3
			c0-0.9,0.2-1.8,0.5-2.7c0-0.1,0.1-0.2,0.2-0.3c0.9-0.1,1.5-0.7,1.9-1.5c0.1-0.3,0.2-0.6,0.1-0.9C100.3,97,100,96.7,100,96.3z"/>
		<path class="st5" d="M128.5,39.2c-5.1,0-10.2,0-15.3,0c-0.3,0-0.5,0-0.8,0c-0.6,0-0.9-0.4-0.9-0.9c0-0.5,0.3-0.9,0.8-1
			c0.3-0.1,0.7-0.1,1-0.1c10.1,0,20.2,0,30.3,0c0.1,0,0.3,0,0.4,0c0.8,0,1.4,0.2,1.4,1.1c0,0.9-0.7,0.9-1.4,0.9
			C138.8,39.2,133.6,39.2,128.5,39.2z"/>
		<path class="st5" d="M128.5,28.5c5.1,0,10.1,0,15.2,0c0.3,0,0.6,0,0.8,0c0.5,0.1,0.9,0.4,0.9,1c0,0.6-0.3,0.9-0.9,1
			c-0.2,0.1-0.5,0-0.7,0c-10.3,0-20.6,0-30.8,0c-0.2,0-0.5,0-0.7,0c-0.6-0.1-0.9-0.5-0.9-1c0-0.6,0.3-1,1-1c0.6,0,1.2,0,1.7,0
			C118.9,28.5,123.7,28.5,128.5,28.5z"/>
		<path class="st5" d="M128.3,34.4c-5.1,0-10.3,0-15.4,0c-0.7,0-1.5-0.1-1.5-1c0-0.9,0.8-1.1,1.6-1.1c10.3,0,20.5,0,30.8,0
			c0.4,0,0.8,0,1.2,0.2c0.3,0.2,0.5,0.6,0.4,1c-0.1,0.4-0.3,0.7-0.7,0.8c-0.3,0.1-0.6,0-0.9,0C138.6,34.4,133.5,34.4,128.3,34.4z"/>
		<path class="st5" d="M128.4,67.5c5.1,0,10.1,0,15.2,0c0.3,0,0.5,0,0.8,0c0.6,0,0.9,0.4,0.9,0.9c0.1,0.6-0.3,0.9-0.8,1
			c-0.3,0.1-0.6,0-0.9,0c-10.2,0-20.3,0-30.5,0c-0.1,0-0.2,0-0.3,0c-0.8,0-1.5-0.2-1.4-1.1c0-0.8,0.7-1,1.4-1
			C118,67.5,123.2,67.5,128.4,67.5z"/>
		<path class="st5" d="M128.4,95.9c-5.1,0-10.2,0-15.3,0c-0.3,0-0.6,0-0.8,0c-0.5-0.1-0.8-0.5-0.8-0.9c-0.1-0.5,0.2-0.9,0.7-1
			c0.3-0.1,0.7-0.1,1-0.1c10.2,0,20.4,0,30.6,0c0.2,0,0.4,0,0.6,0c0.6,0.1,1.1,0.4,1,1.1c0,0.6-0.4,1-1.1,1c-1.1,0-2.1,0-3.2,0
			C136.9,95.9,132.6,95.9,128.4,95.9z"/>
		<path class="st5" d="M128.5,100.6c-5.1,0-10.2,0-15.3,0c-0.3,0-0.6,0-0.8,0c-0.6-0.1-0.9-0.4-0.9-0.9c-0.1-0.6,0.3-0.9,0.8-1
			c0.3-0.1,0.7-0.1,1-0.1c10.1,0,20.3,0,30.4,0c0.2,0,0.5,0,0.7,0c0.6,0.1,1.1,0.4,1,1.1c0,0.6-0.4,1-1.1,1c-1,0-2,0-3,0
			C137,100.6,132.7,100.6,128.5,100.6z"/>
		<path class="st7" d="M84.6,89.7c0,0.7-0.5,1.2-0.7,1.9c-1.1,4.3,0.8,8.1,5,10.1c0.2,0.1,0.3,0.2,0.4,0.4c0.2,0.9,0.2,1.9,0,2.8
			c-0.1,0.4-0.2,0.8-0.7,1.1c-1.3,0.5-2.8,0.7-4.2,1c-0.3,0.1-0.5,0.1-0.8-0.1C79.5,101.8,79.9,93.9,84.6,89.7z"/>
		<path class="st5" d="M138.5,108.6c-1.3,0-2.6,0-3.9,0c-1.8,0-2.9-1.1-2.9-2.7c0-1.5,1.2-2.6,3-2.6c2.6,0,5.1,0,7.7,0
			c1.8,0,3,1.1,3,2.7c0,1.5-1.2,2.6-3,2.6C141.1,108.6,139.8,108.6,138.5,108.6z"/>
		<path class="st5" d="M138.6,42c1.4,0,2.8,0,4.2,0c1.4,0,2.6,1.1,2.6,2.5c0,1.4-1.1,2.6-2.6,2.7c-2.8,0-5.7,0-8.5,0
			c-1.4,0-2.6-1.2-2.6-2.7c0-1.5,1.1-2.5,2.5-2.5C135.8,42,137.2,42,138.6,42z"/>
		<path class="st5" d="M138.6,77.4c-1.4,0-2.7,0-4.1,0c-1.6,0-2.7-1.1-2.7-2.6c0-1.4,1.1-2.5,2.7-2.6c2.8,0,5.6,0,8.4,0
			c1.5,0,2.6,1.2,2.6,2.6c0,1.4-1.1,2.5-2.5,2.6c-0.1,0-0.1,0-0.2,0C141.3,77.4,139.9,77.4,138.6,77.4z"/>
		<path class="st5" d="M128.4,60.8c-5.1,0-10.1,0-15.2,0c-0.3,0-0.6,0-0.9,0c-0.6-0.1-0.9-0.5-0.8-1c0-0.5,0.3-0.9,0.9-0.9
			c0.2,0,0.5,0,0.7,0c10.2,0,20.5,0,30.7,0c0.3,0,0.5,0,0.8,0c0.5,0.1,0.8,0.4,0.8,0.9c0,0.5-0.2,0.9-0.8,1c-0.3,0-0.6,0-0.9,0
			C138.6,60.8,133.5,60.8,128.4,60.8z"/>
		<path class="st5" d="M128.4,91.8c-5.1,0-10.2,0-15.3,0c-0.3,0-0.6,0-0.9,0c-0.5-0.1-0.8-0.5-0.8-0.9c0-0.4,0.3-0.8,0.7-0.9
			c0.3-0.1,0.7-0.1,1-0.1c10.2,0,20.4,0,30.6,0c0.3,0,0.6,0,0.9,0c0.5,0.1,0.8,0.5,0.8,0.9c0,0.5-0.3,0.9-0.8,0.9
			c-0.3,0-0.6,0-0.9,0C138.6,91.8,133.5,91.8,128.4,91.8z"/>
		<path class="st5" d="M128.4,64.7c-5.1,0-10.1,0-15.2,0c-0.3,0-0.6,0-0.9,0c-0.5,0-0.8-0.4-0.8-0.9c0-0.5,0.2-0.9,0.7-1
			c0.3-0.1,0.6-0.1,0.9-0.1c10.3,0,20.5,0,30.8,0c0.2,0,0.5,0,0.7,0c0.6,0.1,0.8,0.5,0.8,1c0,0.5-0.3,0.8-0.8,0.9
			c-0.3,0-0.6,0-0.9,0C138.6,64.7,133.5,64.7,128.4,64.7z"/>
		<path class="st19" d="M95.8,76.3c1.9,0.8,3.8,1.6,5.7,2.3c-3,2.4-6.4,3.2-10.1,2.5c-3.2-0.5-5.8-2-7.8-4.7
			c0.2-0.4,0.5-0.5,0.8-0.5c1.4-0.3,2.8-0.7,4.2-0.9c1.3,0.3,2.3,1,3.5,1.6c1,0.5,2.1,1,3.1,1.6c0.2-0.3,0.1-0.6,0.1-0.8
			C95.6,77.2,95,76.5,95.8,76.3z"/>
		<path d="M83.6,106.8c1.6-0.4,3.3-0.7,4.9-1.1c0.5-0.2,1-0.1,1.5,0.2c1.5,0.8,3,1.5,4.5,2.3c0.9,0.5,0.9,0.5,1-0.6
			c0-0.4,0-0.8,0.3-1.1c1.9,0.8,3.9,1.6,5.8,2.5c-4.5,3.9-12.2,3.5-16.6-0.8C84.4,107.8,84,107.3,83.6,106.8z"/>
		<path class="st7" d="M95.6,45.9c2,0.8,3.9,1.6,5.9,2.5c-3.2,2.5-6.8,3.2-10.7,2.4c-2.9-0.6-5.4-2.1-7.2-4.6
			c0.9-0.3,1.9-0.3,2.8-0.7c0.9-0.2,1.8,0.1,2.7-0.2c0.5-0.1,1,0.1,1.5,0.3c1.3,0.6,2.5,1.4,3.8,2c0.9,0.4,0.9,0.4,0.9-0.6
			c0-0.3,0-0.7,0.1-1C95.6,46,95.6,46,95.6,45.9z"/>
		<path class="st53" d="M88.9,75.3c-1.7,0.4-3.5,0.8-5.2,1.3c-0.2-0.2-0.4-0.4-0.6-0.6c-0.2-0.4,0-0.7,0.1-1
			c1.1-2.1,2.3-4.1,3.4-6.3c0.2-0.3,0.3-0.6,0.7-0.6c0.7,0.9,1.2,1.9,1.8,2.7c0.1,0.3,0.2,0.5,0.2,0.8c-0.1,0.9,0,1.7-0.1,2.6
			C89.3,74.6,89.2,75,88.9,75.3z"/>
		<path class="st5" d="M118.3,72.2c1.7,0,3.5,0,5.2,0c0.7,0,1.5,0.1,1.5,1c0,0.8-0.7,1.1-1.5,1.1c-3.6,0-7.2,0-10.8,0
			c-0.8,0-1.4-0.2-1.4-1c0-0.8,0.6-1,1.3-1C114.6,72.3,116.4,72.2,118.3,72.2z"/>
		<path class="st5" d="M118.2,105.4c-1.8,0-3.6,0-5.4,0c-0.7,0-1.4-0.2-1.4-1c0-0.8,0.6-1.1,1.4-1.1c3.7,0,7.3,0,11,0
			c0.7,0,1.3,0.3,1.3,1c0,0.7-0.5,1-1.2,1C121.9,105.3,120.1,105.4,118.2,105.4z"/>
		<path class="st5" d="M118.2,43.9c-1.8,0-3.6,0-5.4,0c-0.7,0-1.4-0.2-1.4-1c0-0.7,0.6-0.9,1.3-0.9c3.7,0,7.4,0,11.1,0
			c0.7,0,1.3,0.3,1.2,1c0,0.7-0.5,1-1.2,0.9C121.9,43.9,120.1,43.9,118.2,43.9z"/>
		<path class="st95" d="M87.3,68.1c-1.5,2.6-2.9,5.1-4.2,7.8c-2,3.5-3.9,7.1-5.9,10.6c-0.2,0.4-0.4,0.8-0.6,1.2
			c-0.3-0.1-0.6-0.2-0.9-0.3c2.1-3.6,4.1-7.2,6.2-10.9c0.3-0.4,0.5-0.9,0.7-1.4c1.5-2.6,3-5.2,4.6-7.9c0.3-0.1,0.5,0,0.6,0.2
			C87.8,67.8,87.7,68.1,87.3,68.1z"/>
		<path class="st96" d="M75.4,87.7c0.1,0.1,0.2,0.1,0.2,0.2c0.1,0.3,0.7,0.4,0.3,0.8c-0.3,0.3-0.7,0.2-1-0.1
			C75.1,88.4,75.3,88.1,75.4,87.7z"/>
		<path class="st97" d="M74.9,89.7c0.1,0,0.5,0,0.3,0.3c-0.1,0.3-0.2,0.6-0.6,0.6c-0.3,0-0.4-0.2-0.4-0.5
			C74.3,89.9,74.4,89.7,74.9,89.7z"/>
		<path class="st25" d="M50.5,34c-1.1,0-2.1-0.5-3.1-0.8c0-0.9,0-1.8-0.1-2.6c-0.2-1.4,0-2.7-0.1-4.1c0-0.4,0.2-0.7,0.6-0.6
			c2.1,0.3,4.2,0.6,6.2,1.3c0.1,0,0.1,0.1,0.1,0.2c0,1.6-0.4,3-0.8,4.5C52.8,33.4,52.2,33.9,50.5,34z"/>
		<path class="st98" d="M54.2,27.2c-2-0.4-4-0.7-6-1.2c-0.7-0.1-0.9,0-0.8,0.7c0,1.3,0,2.5,0,3.8c-0.2-1.9-0.1-3.9-0.2-5.8
			c0-0.5,0.2-0.6,0.6-0.6c2,0,4.1,0,6.1,0c0.4,0,0.7,0.1,0.6,0.6C54.4,25.6,54.5,26.4,54.2,27.2z"/>
		<path class="st99" d="M205,58.9c-0.1,0-0.1,0-0.2,0c0-0.6,0-1.3,0.4-1.8c0.1,0.1,0.1,0.1,0.2,0.2c0.1,0.3,0.1,0.6,0,1
			c0,0.1,0,0.2-0.1,0.3C205.3,58.6,205.2,58.8,205,58.9z"/>
		<path class="st100" d="M205.3,57.3c0-0.1,0-0.2,0-0.2c0.3-0.4,0.6-0.9,1.2-0.8c0,0.1,0,0.1,0,0.2
			C206.2,56.9,205.8,57.2,205.3,57.3z"/>
		<path class="st101" d="M206.5,57.4c0.1,0.3,0.2,0.7,0.1,1c-0.3,0.4-0.5,0.7-1,0.8c-0.1,0-0.1,0-0.2,0c-0.2-0.2-0.5-0.5-0.2-0.8
			l0,0C205.6,58,205.8,57.4,206.5,57.4z"/>
		<path class="st102" d="M205.6,59.3c0.3-0.4,0.5-0.7,1-0.8c0,0.5,0,1,0.1,1.4c-0.4,0.1-0.7-0.2-1-0.2c0-0.1,0-0.2,0-0.2
			C205.7,59.4,205.7,59.4,205.6,59.3z"/>
		<path class="st103" d="M205.2,58.5c0.1,0.3,0.2,0.5,0.2,0.8c-0.2-0.1-0.4-0.2-0.4-0.4C205.1,58.7,205.1,58.6,205.2,58.5z"/>
		<path class="st104" d="M206.5,57.4c-0.4,0.3-0.8,0.7-1.2,1c0-0.4,0-0.8,0-1.2c0.4-0.3,0.7-0.7,1.2-0.9c0.2,0,0.4,0,0.6,0
			C207,56.8,206.5,57,206.5,57.4z"/>
		<path class="st105" d="M205.7,59.7c0.4-0.3,0.7,0.1,1,0.2c0,0.1,0,0.2,0,0.2C206.3,60,205.9,60,205.7,59.7z"/>
		<path class="st6" d="M87.3,68.1c0-0.3,0.5-0.8-0.2-0.9c-0.4-1.7-0.3-3.3,0.4-4.8c1.1-2.4,3.6-3.7,6.2-3.4c2.7,0.3,5.1,2.5,5.6,5
			c0.4,2-0.1,3.9-0.8,5.7c-0.6-0.2-0.5-0.7-0.4-1.1c0.1-0.7,0.1-1.5,0.3-2.2c0.2-0.9,0-1.6-1-1.9c-0.2-0.1-0.4-0.2-0.6-0.4
			c-0.2-0.2-0.4-0.2-0.5,0.1c-1.2,3-3.4,5-6.5,6c-0.3,0.1-0.3,0.6-0.7,0.6C88.3,70.1,87.8,69.1,87.3,68.1z"/>
		<path class="st25" d="M89.5,70c3.3-0.8,5.3-2.9,6.6-6c0.1-0.2,0.4-0.2,0.6-0.3c0.3,0.2,0.7,0.6,1,0.6c1.2,0.2,1.1,1,1,1.9
			c-0.1,1-0.2,2-0.4,3c0,0.2,0,0.3,0.2,0.4c-0.2,0.7-0.6,1.3-0.7,2.1c-0.2,1-0.8,1.7-1.9,1.8c-0.4,0-0.4,0.3-0.5,0.6
			c-1.9-0.7-3.7-1.5-5.2-2.9C89.9,71,89.3,70.7,89.5,70z"/>
		<path class="st54" d="M89.5,70c1.2,1.8,3,3,5.1,3.6c0.4,0.1,0.7,0.3,0.9,0.7c0.2,0.7-0.2,1.4,0.4,2c-0.5,0.3,0,0.9-0.2,1.3
			c-0.1,0-0.2,0-0.3-0.1c-1.7-1.9-3.7-3.5-5.5-5.3c-0.2-0.2-0.3-0.5-0.5-0.7c-0.2-0.2-0.1-0.4-0.1-0.6C89.4,70.7,89.1,70.2,89.5,70z
			"/>
		<path class="st13" d="M98.4,31.3c1.4,0.3,2.8,0.6,4.5,0.9c-1.2,0.8-2.5,0.9-3.5,1.5c-0.1,0.2-0.3,0.3-0.5,0.4
			c-1.7,0.7-3.5,1.4-5.3,1.9c-0.9,0.2-1.8,0.1-2.7,0.1c-1,0-1,0-0.8,1c-0.9,0.7-1.8,1.1-3,1.1c-0.9,0.3-1.8,0.6-2.9,1
			c0.8-1.2,1.4-2.3,2.1-3.3c0.5-0.7,0.5-1.3,0.2-2.1c-0.9-2.1-0.9-2.2,1-3.3c2.4-1.4,5.1-2.3,7.8-3.1c0.5-0.2,0.9-0.1,1.1,0.5
			c0.5,1.1,1.1,2.1,1.7,3.1c-1,0.6-2.2,0.3-3.3,0.7c-0.9,0.3-1.9,0.6-2.6,0.8C94,31.9,96.1,31.3,98.4,31.3z"/>
		<path d="M87.2,38.2c1-0.4,2-0.8,2.9-1.1c0.7-0.1,0.9,0.3,1,0.8c0.1,1.8,0.1,3.6,0,5.4c-0.2,1.1-0.7,2-1.9,2.3
			c-1,0.5-1.9,0.3-2.9,0c-0.5-0.4-1.1-0.8-1.6-1.2c-0.5-0.4-0.6-0.7,0.1-1c0.5-0.2,0.9-0.4,1.3-0.6c0-0.2-0.1-0.2-0.2-0.3
			c-0.5-0.2-1.1-0.5-1.1-1c0-0.5,0.7-0.6,1.1-0.7C87.5,40.2,86.9,39,87.2,38.2z"/>
		<path class="st7" d="M91,37.7c-0.2-0.3-0.5-0.5-0.8-0.6c-0.2-0.4-0.7-0.6-0.8-1.2c1.5,0,2.9,0,4.3,0c1-0.2,2-0.3,3-0.3
			c0.7,0.1,1.4,0,2,0c0.3,0,0.5,0.1,0.7,0.3c0.9,0,1.8,0,2.9,0c-0.9,1.2-1.9,1.9-3,2.5c-0.2,0.3-0.5,0.4-0.8,0.5
			c-1.4,0.2-2.4-0.2-2.7-1.9c-0.6,2.1-1.5,2-3.2,1.8c-0.4,0-0.7-0.2-1.1-0.4C91.2,38.2,91.1,38,91,37.7z"/>
		<path class="st106" d="M98.5,38.6c0.3-0.1,0.5-0.2,0.8-0.2c0,0.5,0.1,1,0,1.4c-0.1,1.1,0,2,1.2,2.4c0.6,0.2,0.5,0.6,0.1,0.9
			c-0.2,0.2-0.5,0.3-0.8,0.5c0.3,0.3,0.6,0.5,1,0.7c0.8,0.4,0.5,0.8,0,1.2c-1.4,1-3,1-4.4,0c-0.3-0.2-0.6-0.4-0.9-0.7
			c-0.5-0.9-0.4-1.3,0.6-1.8c1-0.3,1.3-1.1,1.6-2C98,40.2,97.8,39.2,98.5,38.6z"/>
		<path class="st18" d="M96.3,43.3c-1,0.2-0.9,0.9-0.8,1.6c-0.1,0.4-0.1,0.7,0.1,1.1c0,0,0,0,0,0c-0.2,1-0.2,1-1,0.4
			c-1.1-0.8-1.9-1.8-2.8-2.7c-0.2-0.2-0.4-0.5-0.8-0.3c0-1.9,0-3.8,0-5.8c0.1,0.1,0.3,0.3,0.4,0.4c0.2,0.8,0,1.6,0,2.3
			c0,0.6,0.2,1.1,0.8,1.5c1,0.7,2.1,1.3,3.4,1.2C95.8,43,96.1,43,96.3,43.3z"/>
		<path class="st107" d="M98.4,31.3c-2.2,0.2-4.3,0.7-6.4,1.4c2-1,4.1-1.3,6.2-1.6C98.3,31.2,98.3,31.3,98.4,31.3z"/>
		<path class="st108" d="M99.4,35.8c-0.2,0-0.4,0-0.6,0c-0.3-0.3-0.3-0.6-0.3-1c0-0.4,0-0.7,0.3-1c0.2,0,0.4-0.1,0.5-0.1
			C99.3,34.4,99.4,35.1,99.4,35.8z"/>
		<path class="st9" d="M98.3,99.8c0.1,1-0.5,1.9-0.4,2.9c-0.5,0.4-1.1,1-1.7,0.1c-0.1-0.2-0.4-0.2-0.5,0c-0.9,0.9-1.8,0.4-2.6-0.1
			c-0.4-0.2-0.8-0.4-1.2-0.6c-1.1-0.2-2.1-0.5-2.5-1.7c-0.9-0.9-0.9-1.7-0.2-2.8c0.6-1,0.7-2.1,0.7-3.3c0-0.7,0.2-0.8,0.9-0.6
			c1.8,0.5,3.7,0.9,5.6,0.7c0.6-0.1,1.1-0.2,1.5-0.6c0.6-0.6,0.8-0.3,0.9,0.3c0.1,0.4,0.1,0.9,0.1,1.3c-0.2,0.2-0.5,0.2-0.8,0.3
			c-0.3,0-0.5,0.1-0.7,0.3c-0.4,0.4-0.6,0.8-0.9,1.2c-0.4,0.4-0.8,0.6-1.2,0.1c-0.2-0.6-0.3-1.3-1.2-1.5c-0.5-0.1-1-0.2-1.6,0
			c-0.3,0.3-0.7,0.5-1,0.9c-0.4,0.9-0.4,1.8,0.4,2.5c0.2,0.1,0.3,0.2,0.5,0.3c0.5,0.2,1,0.2,1.6,0c0.6-0.3,0.9-0.8,1.2-1.2
			c0.2-0.4,0.5-0.8,1-0.4c0.1,0.1,0.2,0.3,0.3,0.5c0.1,0.5,0.4,0.9,0.9,1.1C97.6,99.7,98,99.6,98.3,99.8z"/>
		<path class="st109" d="M96.3,97.1c0-0.6,0.5-0.8,0.8-1.2c0.3-0.1,0.5-0.3,0.9-0.3c0.3,0,0.6-0.1,0.8,0.1c0,0.7,0,1.5,0,2.2
			c-0.2,0.3,0.1,0.6,0.1,0.9c0,0.4-0.2,0.7-0.5,1c0,0-0.1,0-0.1,0c-0.4,0.2-0.8,0.1-1.2,0c-0.2-0.4-0.7-0.7-0.8-1.2
			c-0.1-0.1-0.1-0.2-0.2-0.4C96.2,97.8,96,97.4,96.3,97.1z"/>
		<path class="st110" d="M89.3,100.4c0.7,0.8,1.6,1.3,2.6,1.4c-0.5,0.3-0.5,0.6-0.2,1.2c0.8,1.3,1.8,2.2,3.5,1.9
			c0.4-0.1,0.9-0.1,1.2,0.3c-0.9,0.1-1.4,0.5-0.8,1.4c0,0.4,0,0.8,0,1.2c-0.9-0.4-1.5-1.2-2.2-1.8c-1.5-1.4-2.8-2.8-4.3-4.2
			c-0.1-0.1-0.2-0.1-0.2-0.2C89.6,101.4,89.1,100.8,89.3,100.4z"/>
		<path class="st111" d="M98.4,99.8c-0.1-0.4,0.2-0.7,0.3-1c-0.1-0.2,0.1-0.3,0.2-0.4c0.4-0.5,0.7-1.1,0.9-1.8
			c0.7,0,0.4,0.6,0.7,0.9c0,0.3,0.1,0.6-0.1,0.9C99.9,99.2,99.6,100.1,98.4,99.8z"/>
		<path class="st112" d="M100.4,97.3c-0.3-0.2-0.2-0.7-0.6-0.8c0.1-0.1,0.1-0.2,0.2-0.3c0.5,0.2,0.4,0.7,0.6,1
			C100.5,97.3,100.5,97.3,100.4,97.3z"/>
		<path class="st113" d="M98.8,95.7c-0.3,0-0.7,0-1,0c0,0-0.1-0.1,0-0.1c0,0,0-0.1,0-0.1c0.3,0,0.7,0,1,0
			C98.8,95.6,98.8,95.6,98.8,95.7z"/>
		<path class="st114" d="M98.9,98.4c-0.1,0.1-0.1,0.3-0.2,0.4c-0.3-0.3-0.2-0.6,0-0.9C98.8,98.1,98.9,98.2,98.9,98.4z"/>
		<path class="st115" d="M96.5,105.2c-0.8,0-1.6,0-2.3,0c-1,0-3.1-2-3.1-3c0-0.7,0.6-0.1,0.9-0.3c0.7,0.4,1.4,0.7,2.1,1.1
			c0.6,0.3,1,0.3,1.3-0.4c0.2-0.5,0.8-0.5,1-0.1c0.3,1.1,0.7,0.5,1.2,0.2c0.1,0,0.2,0.1,0.4,0.1c0,0.3,0,0.6,0.1,0.9
			C98,105,98,105.1,96.5,105.2z"/>
		<path class="st116" d="M100.4,97.3c0,0,0.1,0,0.1,0c0.1,0.4,0.2,0.7-0.2,1.1C100.4,98,100.4,97.7,100.4,97.3z"/>
		<path class="st9" d="M89.1,101.8c0.3,0,0.4,0.1,0.6,0.3c1.9,1.9,3.9,3.8,5.9,5.7c0,0.1,0,0.3,0,0.4c0.1,0.7,0,1-0.8,0.5
			c-1.7-0.9-3.4-1.8-5.1-2.7c-0.4-0.2-0.8-0.4-1.2-0.4c0.6-0.4,0.5-1,0.6-1.5C89.1,103.4,89.1,102.6,89.1,101.8z"/>
		<path class="st25" d="M89.3,71.5c2.2,2,4.4,3.9,6.4,6.1c0,0.4,0,0.7,0.1,1.3c-2.4-1.2-4.6-2.4-6.8-3.6C89,74,89.1,72.7,89.3,71.5z
			"/>
		<path class="st117" d="M91,43.5c0.2-0.3,0.3-0.7,0.7-0.2c1.1,1.2,2.2,2.4,3.6,3.3c0.3-0.1,0-0.5,0.3-0.6c0,0.6,0,1.2,0,1.7
			c0,0.7-0.2,0.7-0.7,0.4c-1.5-0.8-3.1-1.6-4.6-2.4c-0.3-0.2-0.6-0.3-1-0.3C90.1,45,90.7,44.4,91,43.5z"/>
		<path class="st118" d="M96.7,63.8c-0.1,0.3-0.4,0.2-0.6,0.3C96.2,63.8,96.3,63.5,96.7,63.8z"/>
		<path class="st119" d="M97.3,65.7c-0.5-0.2-0.5-0.7-0.6-1.1C97.1,64.8,97.2,65.2,97.3,65.7L97.3,65.7z"/>
		<path class="st120" d="M97.3,65.7c0.3,0.1,0.5,0.3,0.6,0.8C97.5,66.2,97.3,66.1,97.3,65.7C97.3,65.7,97.3,65.7,97.3,65.7z"/>
		<path class="st121" d="M98.8,33.8c0,0.3,0,0.7,0,1c-0.5,0.8-1.3,0.8-2.1,1c-1,0-2,0-3.1,0C95.4,35.2,97.1,34.5,98.8,33.8z"/>
		<path class="st122" d="M88.4,34.3c-0.2,0.2-0.3,0.3-0.5,0.3c0,0,0-0.1,0-0.2C87.9,34.3,88.1,34.2,88.4,34.3z"/>
		<path class="st117" d="M96.3,43.3c-1.7,0.3-3.2-0.3-4.5-1.3c-0.5-0.4-0.7-0.7-0.7-1.4c0.1-0.8-0.2-1.7,0.2-2.5
			c0.8,0.1,1.6,0.5,2.5,0.5c0.9-0.1,1.4-0.4,1.4-1.3c0-0.3-0.1-0.7,0.4-0.7c0.5,0,0.4,0.3,0.5,0.6c0.3,1.3,0.5,1.4,2.4,1.4
			c-0.2,1-0.4,2-0.7,3C97.6,42.4,97.2,43,96.3,43.3z"/>
		<path class="st123" d="M96.7,35.8c0.7-0.3,1.4-0.7,2.1-1c0,0.3,0,0.7,0,1C98.1,35.8,97.4,35.8,96.7,35.8z"/>
		<path class="st124" d="M91.4,96.7c0-0.6,0.7-0.6,0.8-1c0.6-0.1,1.3-0.2,1.9,0c0.9,0.1,1.3,0.6,1.1,1.4c0.5,0.5,0.2,1,0.1,1.5
			c-0.4,0.4-0.6,1-1.2,1.2c-0.6,0.2-1.2,0.1-1.8,0c-0.1-0.1-0.3-0.1-0.4-0.2C91.1,98.7,90.7,97.8,91.4,96.7z"/>
		<path class="st125" d="M93.3,102c0.5-0.7,0.9-1.3,1.4-1.8c0.7-0.7,1.4-0.6,2,0.1c0.1,0.1,0.1,0.2,0.2,0.2c0.2,0.4,0.9,0.9,0.5,1.3
			c-0.3,0.3-0.8-0.3-1.1-0.6c-0.4-0.3-0.6-0.2-1,0c-0.5,0.3-1,0.5-1.5,0.7C93.7,102.1,93.6,102,93.3,102z"/>
		<path class="st126" d="M95.3,98.6c0-0.5-0.1-1-0.1-1.5c0.4,0.4,0.7,0.4,1.1,0c-0.1,0.3,0.1,0.8-0.2,1.1
			C95.4,97.5,95.5,98.5,95.3,98.6z"/>
		<path class="st127" d="M91.4,96.7c-0.6,1.1,0,2,0.4,2.9C90.8,98.7,90.6,97.4,91.4,96.7z"/>
		<path class="st128" d="M94.1,95.7c-0.6,0-1.3,0-1.9,0C92.8,95.4,93.4,95.4,94.1,95.7z"/>
		<path class="st129" d="M96.3,98.5c0.2,0.4,0.8,0.7,0.8,1.2C96.7,99.5,96.1,99.2,96.3,98.5z"/>
		<path class="st130" d="M92.2,99.8c0.6,0,1.2,0,1.8,0C93.4,100.1,92.8,100.1,92.2,99.8z"/>
		<path class="st131" d="M97.7,95.5c0,0.1,0,0.1,0,0.2c-0.2,0.2-0.3,0.4-0.6,0.2C97.2,95.6,97.4,95.4,97.7,95.5z"/>
	</g>
	
		<image style="overflow:visible;" width="174" height="48" xlink:href="ECD52643.jpg"  transform="matrix(1 0 0 1 241.7334 -127.5141)">
	</image>
</g>
<g id="Illustration">
	<g>
	</g>
	<g>
	</g>
	<g>
	</g>
	<g>
	</g>
	<g>
	</g>
	<g>
	</g>
	<g>
	</g>
	<g>
	</g>
	<g>
	</g>
	<g>
	</g>
	<g>
	</g>
	<g>
	</g>
	<g>
	</g>
	<g>
	</g>
	<g>
	</g>
</g>
</svg>
