<?xml version="1.0" encoding="utf-8"?>
<!-- Generator: Adobe Illustrator 23.0.5, SVG Export Plug-In . SVG Version: 6.00 Build 0)  -->
<svg version="1.1" id="Layer_1" xmlns="http://www.w3.org/2000/svg" xmlns:xlink="http://www.w3.org/1999/xlink" x="0px" y="0px"
	 viewBox="0 0 889 869" style="enable-background:new 0 0 889 869;" xml:space="preserve">
<style type="text/css">
	.st0{fill:#001261;}
	.st1{fill:#E5E6EA;}
	.st2{fill:#BCEBFB;}
	.st3{fill:#FEC54F;}
	.st4{fill:#005EC6;}
	.st5{fill:#7AABF8;}
	.st6{fill:#005FC6;}
	.st7{fill:#FDBAC8;}
	.st8{fill:#011361;}
	.st9{fill:#E6E6E9;}
	.st10{fill:#7AABF7;}
	.st11{fill:#0E216A;}
	.st12{fill:#FCB9C7;}
	.st13{fill:#E3E4E8;}
	.st14{fill:#FCBAC7;}
	.st15{fill:#041461;}
	.st16{fill:#79AAF6;}
	.st17{fill:#FBB9C8;}
	.st18{fill:#13226A;}
	.st19{fill:#FECA5A;}
	.st20{fill:#F07F9A;}
	.st21{fill:#17226A;}
	.st22{fill:#68A0E4;}
	.st23{fill:#6DA1E3;}
	.st24{fill:#3383DC;}
	.st25{fill:#DAA9C8;}
	.st26{fill:#F89AAE;}
	.st27{fill:#6BA0E3;}
	.st28{fill:#6A9ADC;}
	.st29{fill:#5E98E0;}
	.st30{fill:#876F9A;}
	.st31{fill:#5D99E1;}
	.st32{fill:#5392DE;}
	.st33{fill:#FEFEFE;}
	.st34{fill:#142871;}
	.st35{fill:#005CC4;}
	.st36{fill:#10236C;}
	.st37{fill:#10236D;}
	.st38{fill:#FEC957;}
	.st39{fill:#FEBAC8;}
	.st40{fill:#025FC6;}
	.st41{fill:#F9FAFB;}
	.st42{fill:#091964;}
	.st43{fill:#0041A1;}
	.st44{fill:#80AEF6;}
	.st45{fill:#0B2470;}
	.st46{fill:#77A5F0;}
	.st47{fill:#7CABF6;}
	.st48{fill:#E4A841;}
	.st49{fill:#FEFEFD;}
	.st50{fill:#81AEF6;}
	.st51{fill:#7BABF7;}
	.st52{fill:#0C61C3;}
	.st53{fill:#006ACA;}
	.st54{fill:#056CCB;}
	.st55{fill:#025EC5;}
	.st56{fill:#F8B9C9;}
	.st57{fill:#5292E6;}
	.st58{fill:#5794E7;}
	.st59{fill:#4E90E2;}
	.st60{fill:#306EC3;}
	.st61{fill:#5092E5;}
	.st62{fill:#5A9AE9;}
	.st63{fill:#5293E6;}
	.st64{fill:#3B87DF;}
	.st65{fill:#4C90E4;}
	.st66{fill:#4D8FE5;}
	.st67{fill:#3784DC;}
	.st68{fill:#287CD9;}
	.st69{fill:#3A87DE;}
	.st70{fill:#3786DD;}
	.st71{fill:#2278D5;}
	.st72{fill:#3181DB;}
	.st73{fill:#237CD7;}
	.st74{fill:#14256C;}
	.st75{fill:#0262C7;}
	.st76{fill:#2D75CB;}
	.st77{fill:#6DA3F2;}
	.st78{fill:#F798AC;}
	.st79{fill:#F68CA2;}
	.st80{fill:#7BABF8;}
	.st81{fill:#E4E5E9;}
	.st82{fill:#7EADF7;}
	.st83{fill:#7DADF6;}
	.st84{fill:#7FADF6;}
	.st85{fill:#82AFF7;}
	.st86{fill:#80ADF7;}
	.st87{fill:#7FADF8;}
	.st88{fill:#FE6059;}
	.st89{fill:#7FAEF7;}
	.st90{fill:#7CABF7;}
	.st91{fill:#7EADF6;}
	.st92{fill:#7FAEF6;}
	.st93{fill:#F28198;}
	.st94{fill:#1062C4;}
	.st95{fill:#84B1F7;}
	.st96{fill:#051862;}
	.st97{fill:#041862;}
	.st98{fill:#11246D;}
	.st99{fill:#091C66;}
	.st100{fill:#12246E;}
	.st101{fill:#051865;}
	.st102{fill:#0A1E67;}
	.st103{fill:#0A1E68;}
	.st104{fill:#122571;}
	.st105{fill:#071962;}
	.st106{fill:#00419E;}
	.st107{fill:#FDC54E;}
	.st108{fill:#FCC34E;}
	.st109{fill:#00419F;}
	.st110{fill:#003C9A;}
	.st111{fill:#01145F;}
	.st112{fill:#041662;}
	.st113{fill:#0A64C9;}
	.st114{fill:#80AEF7;}
	.st115{fill:#80AFF7;}
	.st116{fill:#7AAAF6;}
	.st117{fill:#81ADF6;}
	.st118{fill:#001B6B;}
	.st119{fill:#001D6F;}
	.st120{fill:#00196A;}
	.st121{fill:#F7C658;}
	.st122{fill:#78ABF7;}
	.st123{fill:#79AAF7;}
	.st124{fill:#005FC5;}
</style>
<ellipse class="st0" cx="457.7" cy="781.4" rx="357.3" ry="61.3"/>
<ellipse class="st1" cx="457.7" cy="770.4" rx="357.3" ry="61.3"/>
<image style="overflow:visible;" width="80" height="117" xlink:href="1A69F175.jpg"  transform="matrix(1 0 0 1 544 -362)">
</image>
<path class="st0" d="M267.3,111.9c5.3-3.4,10.7-6.7,17.1-8c1.1-0.9,2.5-1.4,3.9-1.5c38.2-0.3,76.5-0.1,114.7-0.1
	c2.7,0,5.2,0.6,7.8,1.2c7,1.6,14.1,3.6,21.3,0.6c1.8-0.8,3.8-0.5,5.8-0.5c67.1,0,134.1,0,201.2,0c1.9,0,3.9-0.4,5.7,0.6
	c16.4,2.5,27,13.5,30.6,32.1c0.7,2.1,0.4,4.3,0.4,6.5c0,89.8,0,179.5,0,269.3c0,2.1,0.7,4.4-0.7,6.3c-9.1,0.3-18.3,0.7-26.9-3.2
	c-1.9-3.6-1.2-7.6-1.2-11.4c0-78.7,0-157.4,0-236.2c0-11.6-0.2-11.8-11.8-11.8c-113.4,0-226.7,0-340.1,0c-11.5,0-12,0.4-12,11.8
	c0,20.1,0,40.2,0,60.3c0,3.4,0.3,6.8-0.7,10.1c-2.2,3.7-8,5-6.9,10.9c0.2,0.9-1.2,1.8-2.1,1.6c-5.2-1-6.7,4.1-10.1,5.9
	c-3.2,1.9-4.6,4.1-1.6,7.5c0.2,0.8,1.5-0.4,0.6,0.1c-0.2,0.1-0.2-0.1-0.4-0.4c-1-1.8-1.3-3.6-0.3-5.4c2.1-2.5,4.3-1.3,6.4,0
	c1.7,1,3.2,2.3,6,0.6c-2.1-0.2-4.2-0.1-3.7-2.5c0.7-3.2,2.9-5.2,5.9-5.7c3.6-0.6,5.9,1.5,6.7,5.1c0.3,2.9,0.2,5.8,0.2,8.7
	c0,110.2,0,220.4,0,330.7c0,3.8,0.6,7.8-1,11.5c-1.7,2.4-4.1,2.5-6.4,1.4c-6.9-3.2-13.7-6.7-19.7-11.5c-0.9-0.7-1.4-1.9-1.4-3.2
	c0-100.8,0-201.7-0.1-302.5c0-2.7-0.2-5.3-0.3-8c-2-2.8-1.7-6-1.7-9.1c0.2-24.6-0.4-49.3,0.2-73.9c-0.3-3.1-0.1-6.3-0.1-9.5
	c0.3-17.1-0.3-34.2,0.1-51.2C253.1,127.7,256.8,117.9,267.3,111.9z"/>
<path class="st2" d="M267.3,111.9c-9.6,9.6-13.3,21.1-12.8,34.7c0.5,14.2,0,28.4-0.1,42.6c-3.4-0.1-2.6-3.1-3.3-4.9
	c-4.6-11.5-12.3-19.7-24.9-22.1c-12.7-2.4-23.6,1.3-32.1,11.1c-9.2,10.7-9.7,23.4-4.4,35.5c5.6,13,16.8,19.2,31,18.7
	c14.2-0.5,23.8-8.2,29.7-21c1-2.3,0-5.9,3.9-6.6c0,27.7,0,55.3,0,83c-1.2,0.1-2.5,0.3-3.7,0.4c-4.7,1.8-5.1-2.5-6.3-4.9
	c-2.1-4.3-4.9-6.6-9.8-5.2c-5.9-8.7-11.8-11-22.1-9.1c-2.2,0.4-3.3,1.7-4.2,3.5c-1.3,2.3-2.7,4.6-4,6.9c-7.5,12.8-7.5,12.8-21.5,6.9
	c-12.6-5.3-12.6-5.3-9-18.3c0.3-1.2,0.7-2.3,1-3.5c2.2-8.3-2.2-18.4-9.8-21.9c-2.7-1.3-5.2,0.4-7.7,1c-6.3,1.5-13.4,6.3-18.6,3.8
	c-5.2-2.5-5.1-11.4-8.3-17.1c-3.5-6.1-2.9-10.5,4.4-12.9c1.8-0.6,3.2-2.3,5-2.8c9.2-2.8,11.6-9,10.8-18.1c-0.4-4.6-1.4-7.2-5.5-9.6
	c-5.9-3.4-15.3-5.1-16.7-11.3c-1.2-5.5,4.7-12.2,6.7-18.7c1.8-5.9,4.8-7.7,10.5-5.3c1.3,0.6,2.9,0.6,4.2,1.2
	c9.5,4.4,17.5,4.1,24.2-5.4c2-2.9,3.2-5,2.3-8.3c-1.6-5.6-3-11.2-4.7-16.7c-1.1-3.5-0.3-5.2,3.3-6.5c6.1-2.2,12.2-4.7,18.1-7.6
	c3.5-1.7,5.2-0.7,6.8,2.5c1.7,3.4,4.5,6.5,5.8,10c2.7,7.6,7.7,9.4,15.5,9.3c6.6-0.1,9.8-2.1,12.8-7.7c8.6-16,8.9-15.8,25.8-8.7
	C261.9,109.8,264.6,110.8,267.3,111.9z"/>
<path class="st0" d="M256.3,773.3c0.7,2.2,0.4,3.8-2.4,3.6c-9.7-0.5-19.5,1.1-29.1-0.9c-0.8-0.6-1.6-1.3-1.6-2.3
	c0.9-24.4-6.6-47.7-9.3-71.7c-1-8.7-2.9-17.2-4.1-25.8c-1.3-9.6-7.1-17.4-11.1-25.9c-2-4.4-4.8-8.4-6.1-13c0-1.1-1.4,0.1-0.5-0.2
	c0.2-0.1,0.3,0.1,0.3,0.6c-1.3,17.6-3.8,35.1-5.9,52.6c-2.7,22.8-5.5,45.6-8,68.4c-1,9-0.6,9.2,8.2,11c2.6,0.5,5.3,0.8,6.6,3.7
	c1,3.3-1,3.5-3.4,3.5c-7.9,0-15.7-0.2-23.6,0.1c-4.2,0.2-4.7-2.1-4.5-5.3c2-2.8,1.8-5.9,1.6-9.1c-2.3-50.5-4.6-101.1-6.9-151.6
	c-0.1-3.1-0.1-6.3-0.2-9.4c3.7-2.5,6.9-0.3,10.2,1c5.5,3.7,12.1,4.5,18.2,6.5c3.8,1.3,6.5-0.4,9.1-2.8c0.5-0.5,1.1-0.9,1.7-1.2
	c0.7-0.3,1.3-0.5,2-0.7c4.7-0.4,9.2-1.9,13.7-2.8c5.7-0.2,10.2,2.7,14.4,6.1c2.4,2.3,3.9,5.2,4.7,8.4c2.6,20.6,5.8,41,6.6,61.9
	c1,26.3,2.5,52.5,2.8,78.8c0.1,10,1,10.7,11.4,13.1C253.3,770.4,255.4,770.9,256.3,773.3z"/>
<path class="st3" d="M699.8,441.9c14.5,15.3,18.9,33.4,15,53.8c1.1,1.9,0.5,3.7-0.3,5.5c-4.5,10.6-4.9,21.3-0.8,32.1
	c1.7,4.5,1.2,8.9-1.3,13.1c-2.9,3-6.5,4.4-10.6,4.7c-3.6,0.1-5.8-1.7-7.2-5c-5.7-13.4-11.1-26.9-16.9-40.2
	c-2.1-4.7-0.6-8.5,2.8-11.8c3.5-3.5,4.9-7.7,4.2-12.6c-0.8-5.2-5-8.8-9.5-7.9c-5,1.1-7.2,4.5-6.7,9.6c0.2,2.2,1.1,4.2,1.5,6.3
	c0.7,3.1,3.3,7.2-1,9c-4.3,1.8-5.5-2.6-7-5.5c-1-1.9-1.9-3.9-3.3-5.6c-2.8-3.5-6.2-5.7-10.6-2.8c-4.2,2.8-5.4,6.8-3.3,11.4
	c2.5,5.5,7.3,7.8,13,7.7c6.1-0.1,9.2,2.6,11.2,8.1c4,10.7,8.8,21,12.6,31.7c0.7,2,2.3,4.3,0.1,6c-2.2,1.7-4.7,0.5-6.7-0.9
	c-4.6-3-8-7-10.3-11.9c-1.6-3.4-3.7-6-7.3-7.7c-21.8-10.2-37.9-26.5-50.2-46.8c-0.8-2.2-0.8-4.4-0.8-6.7c0-2.6,0.8-5.2,1.4-7.7
	c1.6-6.4,4.2-12.3,7.8-17.8c1.7-2.4,3.3-4.8,5.4-7c19.1-18.9,41.2-22.7,66.7-11.5C692,434.8,697.4,436.6,699.8,441.9z"/>
<path class="st2" d="M286.5,104.1c-0.7-0.1-1.4-0.2-2.1-0.2c0.8-7.3-4.3-8.5-9.7-9.8C262,91,262.1,90.8,264,78.3
	c1.6-9.9,1.6-9.8,12.2-10c5-0.1,9.6,1.1,13.6-5.1c4.7-7.3,1.7-11.9-2-16.8c-4.5-6-5-10.6,2.4-14.3c0.2-0.1,0.4-0.3,0.6-0.5
	c9.7-7.9,10.4-8.5,18.4,1c5.8,6.9,11.6,4.9,18,2.9c2.1-0.6,2.9-2.2,3.4-4.2c0.9-4.2,2.2-8.4,3.2-12.7c0.7-3.1,2.2-4.1,5.7-3.7
	c17.3,1.8,17.3,1.7,18.4,18.7c0.5,7.2,10.5,12.6,16.9,9c14.1-8,13.9-7.8,24.2,5.3c3,3.8,2.8,6.1-0.7,8.9c-1.5,1.2-2.8,2.7-4.2,4.1
	c-6.1,6.1-7.1,11.7-3.3,19c0.5,1,1.6,1.7,2.6,2.3c0.6,0.4,1.4,0.3,2.1,0.5c16,4.1,16,4.1,14.7,20.2c-8.7,1.9-17.5,0.5-26.3,0.8
	c-6.9,0.2-13.9,0-20.8,0.1c-4.8-1.1-2.3-4.4-1.8-6.8c2-9.7,1.2-18.6-6.5-26c-7.7-7.3-18-9.7-27.3-5.3c-9.4,4.4-15.1,11.7-15.2,22.6
	c0,3.4,0.4,6.7,1.1,10c0.4,1.9,1.9,4.3-1.3,5.4C303.4,103.9,294.9,102.9,286.5,104.1z"/>
<path class="st4" d="M228.3,614.3c-1.4-2-2.8-4-4.2-6.1c2.4-1.7,5.2,0.6,7.9-0.7c0.2-2.7-2.1-3.3-3.7-4.5
	c-5.9-4.4-12.2-8.4-18.1-12.8c-2.5-1.8-5-3.8-5.4-7.2c1.5-4.1,3.8-2.1,5.9-0.9c-1.1-2.2-2-5.2-5.4-1.7c-1.2,1.2-3.1,1-4.7,0.4
	c-6.5-4.5-9.5-11.4-13-18c-0.8-1.6-0.8-3.3,0.2-4.8c1-0.8,2.4-1.1,3.4-0.5c7.5,4.3,16.1,6.7,22.3,13.1c1.5,7.5,6.9,7.3,12.7,6.6
	c4.9,0.8,7.9,4.7,11.6,7.5c5.4,3.3,10.5,7.3,17,8.7c7.5,6.1,16.1,10.4,24.8,14.5c1.3,0.5,2.8,0,4,0.7c21.4,11.5,42.3,23.9,63.7,35.2
	c2.1,1.4,4.4,2.5,5.8,4.7c-1,9.6-6.8,16.9-12.2,24.3c-3.5,2.3-6.4,0.4-9.4-1.2c-13.9-7.4-27.4-15.2-41.1-22.9
	c-1.4-0.8-2.8-2-5.2-1.9c-1.1,5.3-0.4,10.8-0.5,16.3c-0.1,8.5,0,16.9-0.1,25.4c0,2.8,0.5,5.9-2.1,8.1c-4.3-1.6-3.2-5.5-3.2-8.6
	c-0.2-12.5-0.2-25,0-37.5c0.1-5.4-1.7-9.1-6.7-11.6c-5.7-3-11.4-6.2-16.9-9.7C246.4,624.4,237.9,618.2,228.3,614.3z"/>
<path class="st5" d="M711.6,545.7c1.6-5.5,1.2-10.7-0.9-16.1c-4.6-12-0.9-23.1,4.1-34c5.7-0.8,11.3-1.5,17-2.3
	c0.7-0.1,1.3,0.1,1.9,0.5c1.4,4.4,2.7,8.9,8.9,8.1c0.7,0.1,1,1.1,1.6,0.9c0.8-0.3-0.1-1.1,0.1-1.6c0.4-3,0-6.2,2.1-8.7
	c1-0.6,2-0.7,3,0.1c20.6,7.8,22.4,19.4,19.7,41.7c-2.1,17.1-3.6,34.1-3.9,51.2c-14.4,3.9-29,6.5-43.9,3c-3.9-1.7-5.6-5-6-9
	c1.7-4.1,3.4-8.2,0.3-12.4c0.9-2,2.6-3.6,2.9-5.9c4.4-4.5,9.5-8.1,14.2-12.3c2.8-2.5,3.2-3.9,0.3-6.8c-7.1-7.2-7.4-7.3-14.1,0.7
	c-1.9,2.3-3.2,6.4-7.7,4.7C710.9,546.9,711.1,546.3,711.6,545.7z"/>
<path class="st5" d="M212.7,571.4c-7.8-5-15.8-9.6-24.4-13.2c-4-2.9-4.5-7-3.9-11.4c1.6-2.5,4.9-0.9,6.8-2.8c0.8-2,0.3-4.2,0.4-6.2
	c-1-2.6-1.8-5.2-1.5-8.1c0,2.9,0.4,5.7,1.5,8.4c-0.1,1.9,0.3,3.7-0.3,5.6c-2.7,2.2-6.8,1.3-9.3,4c-5.2,1.2-10.8,0.6-15.9,2.6
	c-7.1,0.4-9.9-3.7-10.4-10.1c-0.1-3.2,0-6.5-0.3-9.7c0-0.7-0.1-1.3-0.1-2c0-1,0-2.1-0.1-3.1c0,1.2,0.1,2.5-0.4,3.7
	c-0.6,0.4-1.2,0.4-1.8,0c0.3-8.5-1.4-17.2,4.2-24.8c4,0.6,5.4-4.5,9.3-4.2c2.7-0.3,5.4,0,6.5,0c-1.6,0.2-4.9-0.6-8.1,0.4
	c-3.1,0.1-4.1,4.7-7.6,3.9c4-11,12.6-16.9,23.3-20.2c2,1.5,1.7,3.8,1.7,5.9c0,2.8,1.3,4.5,4.1,4.9c3.1,0.5,5-0.8,5.9-3.8
	c0.8-2.5,0.9-5.2,2.8-7.2c1-0.7,1.9-0.8,3-0.2c1,0.1,2,0.2,3,0.4c1.3,2.3,3.7,2.9,5.9,3.9c1.7,1.4,3,3.2,4.9,4.4
	c3,1.7,4.6,4.8,7,7.1c1.7,2.1,2.6,4.5,2.2,7.3c0.2,8.6,1.5,17.1,0.9,25.6c-1.1,6.2-1,12.4-1.4,18.6c-0.2,3.7,0.1,7.3,2.9,10.1
	c1.4,2.2,0.3,5.1,1.9,7.3c2,2.6,2.8,5.4,1.1,8.5C220.2,579.2,216.4,575.5,212.7,571.4z"/>
<path class="st0" d="M720.2,586.9c13,2.3,25.9,0.6,38.7-1.5c2.1-0.3,4.2-1.3,6.2,0.1c9.2,14.4,8.7,30.7,8.9,46.9
	c0,3.1-0.3,6.3-0.4,9.4c-0.1,2.6-0.6,4.8-3.8,5.2c-10.3,4.5-21.1,5.5-32.2,5.5c-2.1-1.4-4.2,0.2-6.3,0.1c-8.5-1.3-16.7-3.9-25-6
	c-2.6-0.7-5.9-1.3-5.4-5.4c0.1-1.1,0.3-2.2,0.4-3.3c-0.9-3.3,0.1-6.3,1.2-9.3c5.7-4,2.8-9.7,2.8-14.8c0.5-5.6,1.6-11.1,3.3-16.5
	C710.5,591.8,713.1,586.8,720.2,586.9z"/>
<path class="st6" d="M788.6,277.5c0.1,18.4,0.1,36.7,0.2,55.1c0,2.8,0.3,5.2-3.9,5.2c-18.6-0.3-37.2-0.4-55.8-0.5
	c-0.7-1.3-3.1-0.6-3.1-2.5c0.1-2,1.7-2.8,3.4-3.1c1.6-0.3,3.4,0.1,5.3-0.8c-3-0.6-3.5-2.2-2.3-4.6c0.6-1.1,0.7-2.4-0.9-2.9
	c-1-0.3-2.6,0-2.6,0.7c-0.4,7.4-8.4,7-11.6,11.5c-0.4,0.6-0.9,1.1-1.4,1.7c-19.1,1.8-19.1,1.8-19.1-17.1c0-14.3,0.1-28.5,0.2-42.8
	c2-0.5,4,0,5.4,1.3c10.8,10.3,22.6,19.7,33.3,30.2c0.9,0.8,1.3,2,1.6,3.2c-2.9,5.9,1.6,8.6,5,11.8c2.8-2.7,4-6.2,4.2-10
	c0.8-2.8,2.8-4.6,4.7-6.6c1.9-1.9,4.2-3.3,6.3-5c7.4-7.8,16.2-14.2,23.7-22C783.2,278.3,785.2,275.9,788.6,277.5z"/>
<path class="st7" d="M736.7,650.9c11.2,0.1,22-3.2,33.2-3.9c-1.5,34.6-2.9,69.2-4.7,103.7c-0.3,6.2-2,12.3-0.2,18.6
	c-3.3,2.2-6.5,2-9.8,0c-5.2-35.1-11.4-70-16.4-105.1C738.1,659.8,735.4,655.6,736.7,650.9z"/>
<path class="st5" d="M736.4,312.2c-12.6-12.2-25.2-24.3-39.3-34.8c1-2.1,2.9-1.4,4.4-1.4c27.6,0,55.2,0,82.7,0
	c1.5,0,3.5-0.8,4.3,1.5c-8.8,4.7-14.6,13-22.4,18.9c-2.9,2.2-5.4,4.7-8.1,7c-3-2.6-6.5,1.1-9.2-0.3c1,1.3,3.3,2.4,3.8,5
	c-1.6,1.8-3.2,3.6-4.8,5.4c-0.9,1.4-1.3,3.2-3,3.9c-2.1,0.7-4,0.2-5.8-1.1C737.6,315.3,737.4,313.5,736.4,312.2z"/>
<path class="st6" d="M157.4,539.3c0.4,5.4,2.3,9.7,8.6,9.9c2.4,1.6,3,4.4,3.9,6.8c3.5,9.1,7.8,17.7,14.8,24.7c1.4,1.4,2.6,2.9,2.6,5
	c-0.2,1.2-0.9,2-2,2.4c-5.5,0.3-9.3-3.4-13.5-5.8c-5.8-3.5-13-5.1-17.1-11.1c-13.6-7.7-27.3-15.5-40.9-23.2
	c1.6-9.7,5.9-17.9,13.3-24.5c7.7,4.3,15.5,8.6,23.2,12.9c1.1,0.8,2.4,0,3.6,0.4c0.9,0.2,1.7,0.6,2.4,1.2
	C156.6,538.4,157,538.8,157.4,539.3z"/>
<path class="st8" d="M176.4,469.2c-2.8,0.9-4.8,0.1-5.8-2.7c-1.2-3.4-1.3-7.3,1.5-9.5c4.3-3.3,5.4-6.3,3.6-11.6
	c-1.6-4.7,2.9-8.8,8.3-7.8c3.7,0.6,7,1.7,10-1.6c1-1.1,2.7-1.2,4.1-0.3c5.7,3.8,10,9,13.8,14.6c0.9,1.4,0.3,3.4-0.9,3.9
	c-5,1.9,1.1,10.9-6.9,10.6c-7.4-4.7-15.2-0.6-22.8-1.2C177.9,463.3,178.4,467.6,176.4,469.2z"/>
<path class="st9" d="M699.8,441.9c-3.9-2.8-7.7-5.6-11.6-8.4c-3.8-5.1-7.5-10.3-13.7-12.8c-1-0.4-1.2-1.4-0.7-2.4
	c3-2.2,1.5-5.4,1.5-8.1c0.1-91.3,0.1-182.6,0.2-273.9c2.3,2.8,1.2,6.1,1.2,9.1c0.1,87.5,0.1,175,0,262.4c0,5.1,0.4,8.4,6.5,10.6
	C693.7,422.1,698.7,430.9,699.8,441.9z"/>
<path class="st10" d="M154.7,571.1c10.1,5.4,20.2,10.8,30.3,16.2c1.5,0.6,3.8,0.2,3.3,3c-2.1,4.3-6.7,2.7-9.9,4.3
	c-3.5,1.7,1.1,7-2.6,9.5c-1,0.7-2,1.3-3.2,1.4c-2-0.7-4.4,0.6-6.3-1.1c-3.3-1.2-6.4-2.7-10-2.7C155.8,591.5,155.2,581.3,154.7,571.1
	z"/>
<path class="st11" d="M286.5,104.1c8.8-2.8,17.8-0.2,26.6-1.5c0.7-0.7,1.5-1.3,2.4-1.4c14.3-1.1,28.6-1.2,43,0
	c0.9,0.1,1.7,0.8,2.5,1.4c16.4,0,32.7,0,49.1,0.1c28,0.1,56.1,0.2,84.1,0.2c46.9,0,93.8,0,140.8,0c3.3,0,6.8-0.7,9.9,1.3
	c-67.8,0-135.5,0.1-203.3,0.1c-4.4,0-8.6-0.1-12.3,2.9c-2.9,2.3-6.3,1.8-9.7,0.3c-6.8-2.9-13.9-3.3-21.3-3.3
	C361,104.4,323.8,104.2,286.5,104.1z"/>
<path class="st12" d="M733.3,494.2c-0.5-0.3-1-0.6-1.5-0.8c0.7-4.4-3.5-5.4-5.6-7.9c2.2-2.8,0.3-5-1-7.2
	c0.6-10.3,12.7-17.2,20.9-11.9c0.1,0,0.5,0.2,0.5,0.5c-0.6,7,5.9,2.9,8.3,5.3c0.3,3.5,1.2,7-0.8,10.3c-4.3,1.3-4.4,6.2-7.4,8.7
	c-2.8,3.1-6.6,3.5-10.4,3.5C735.3,494.5,734.3,494.3,733.3,494.2z"/>
<path class="st13" d="M95.1,537.8c2.6,0.5,4-0.9,5.1-3c3.6-6.8,7.3-13.6,10.9-20.3c5.3,3,10.7,6,16,9c-4.4,8.2-8.8,16.3-13.3,24.5
	C107.5,544.5,101.3,541.2,95.1,537.8z"/>
<path class="st14" d="M176.4,469.2c-0.3-8.2,0.8-9,8.7-6.6c0.9,0.3,1.7,0.9,2.5,0c6.5-6.9,11.3-1.4,16.4,2.2c-0.6,6.7-2.5,13-6,18.9
	c-0.9,0.1-1.9,0.2-2.8,0.3c-0.3,0-0.6,0-0.9,0.1c-1.9,0.1-3.7-0.2-5.4-0.8c-3.2-1.2-5.2-3.6-6.7-6.5
	C181.4,473.3,180.8,469.8,176.4,469.2z"/>
<path class="st15" d="M754.9,472c-3.5-0.4-8.9,2.8-8.8-4.6c-4,0-8.4-1-11.9,0.4c-4.5,1.8-9.1,5-7.8,11.5c0.4,0.7,0.2,1.4-0.4,1.9
	c-3.3-2.7-3.6-5.7-1.5-9.4c1.5-2.7,2.7-5.5,3.9-8.3c2-4.4,5.8-7.1,10.1-7c4.2,0.1,6.5-0.9,9.2-3.9c3-3.3,7.3-2.3,10.2,1
	c3.3,3.8,3.8,8.3-0.6,11.3C754.4,467.1,754.3,469.1,754.9,472z"/>
<path class="st16" d="M220.1,505.6c-0.2-2.2-1.1-4.1-2.7-5.6c-1.2-0.9-0.9-2.7-1.9-3.8c-4.1-4.7,0.8-3.9,2.9-4.8
	c1.9-0.3,1.7,1.8,2.8,2.4c2.2,0.9,3.2,3.1,4.8,4.6l-0.1-0.2c3.8,3.1,4,7.5,4.3,11.9c0,5.8,0,11.6,0,17.4c-1.6,3.6-0.3,7.3-0.8,11
	c-1.1,1.9-3.3,1.9-4.4,1c-2.7-2.1-2.5,0.6-3.4,1.6c0,1.2,0,2.4,0,3.6c1.3,2.3-0.1,5,1,7.4c0.2,1,0.3,2,0.5,3c0.7,2,1.2,4-0.4,5.8
	c-5.1-1.8-4.8-6.3-3.9-9.9c1.5-5.9,0.4-11.9,1.3-17.8c2.2-6.8,0.3-13.7,0.3-20.5C220.4,510.4,219.6,508,220.1,505.6z"/>
<path class="st6" d="M716,337.2c0-0.7-0.1-1.5,0.1-2.2c1.2-4.8,4.4-5.9,8.9-4.8c0.8-3.1-0.9-7.4,3.7-8.8c2.3-0.7,5-1.2,6.7,1.2
	c2,2.9-2,3.9-2.4,6.2c2.2,1.8,3.3-3,5.9-0.7c-1.7,3.7-4.1,5.6-8.7,5.1c-6.2-0.6-1.6,2.3-1.1,3.9C724.7,337.9,720.3,337.9,716,337.2z
	"/>
<path class="st17" d="M195.3,483.9c-0.4,2.3-1,4.7-1.1,7c-0.2,5.8-3.8,6.5-8.3,5.9c-4.6-0.6-6.7-3-5.4-7.8c0.4-1.6,0.1-3.3,0.1-5
	c0.5-1,1-2,1.5-3c2.8-1.3,4.5,1.5,6.8,1.9c2,0.8,4.3-0.3,6.2,0.9L195.3,483.9z"/>
<path class="st18" d="M755.4,768.8c3.2-0.6,6.4-0.9,9.5,0.5c0,0.4,0.2,0.8,0.6,1.1c1.1,5.2-0.7,7.5-6.3,6.8c-4.3-0.5-8.6-0.1-12.9,0
	c-2.7,0.1-4.9-0.3-4.2-3.9C745.5,768.6,750.8,769.8,755.4,768.8z"/>
<path class="st19" d="M234.5,273.1c7.2-4.3,7.3-4.3,11.6,4.6c1.1,2.3,1.2,5.2,4.6,5.6c-5.6,4.3-10,4.5-12.7-3.2
	C237.1,277.6,235.6,275.4,234.5,273.1z"/>
<path class="st20" d="M225.2,576.8c0.8-3,0.5-5.9-0.8-8.7c-0.9-1.6-1-2.9,1.5-2.6c2.9,7.1,8.1,12.7,11.9,19.2c-4-2-8-4.1-12-6.1
	C225.2,578,225,577.5,225.2,576.8z"/>
<path class="st21" d="M746.1,489.7c1.1-2.1,2.1-4.2,3.3-6.3c1.2-2.2,2.6-3.5,4.8-1.1c-0.8,3.8-2.9,7-4.8,10.2c-0.9,0-1.8,0-2.6,0
	c-0.2-0.1-0.5-0.3-0.7-0.4C745.6,491.4,745.8,490.6,746.1,489.7z"/>
<path class="st22" d="M154.5,538c-1.5-0.3-3.3,0-4.3-1.7c3.4-1.5,0.3-5.5,3-7.3c0.5,0,1,0,1.6,0c0.5-0.7,0.9-0.6,1.3,0.1l0-0.1
	c0.8,0.9,0.7,2,0.5,3.1C155.7,533.9,156.6,536.5,154.5,538z"/>
<path class="st23" d="M230.2,510.1c-1.4-4-2.8-7.9-4.3-11.9C232.1,500.5,231.4,505.2,230.2,510.1z"/>
<path class="st24" d="M218.5,491.4c-6.5,2.1-0.1,5.8-1.1,8.6c-2-2.4-4.1-4.9-6.1-7.3c-0.4-0.4-0.6-0.8-0.4-1.1
	c0.2-0.4,0.3-0.5,0.5-0.5C213.7,491.1,216.1,491.3,218.5,491.4z"/>
<path class="st25" d="M225.8,565.4c-0.5,0.9-1,1.8-1.5,2.6c-2.3-2-0.9-4.7-1.6-7.1c0.1-1.9,0.2-3.9,0.3-5.8
	C224.7,558.4,225.7,561.8,225.8,565.4z"/>
<path class="st26" d="M188.1,483.8c-2-0.9-3.9-1.9-5.9-2.8c0-1.4,0-2.9,0.1-4.3c2.4,1.9,4.8,3.8,7.3,5.8
	C189.2,483,188.7,483.5,188.1,483.8z"/>
<path class="st27" d="M221.6,541.1c0-1.7,0-3.3,0-5.5c2.3,2,4.1,4.1,7.1,3.5c0.4-0.7,0.8-0.7,1.2,0
	C227.7,542.3,224.2,539.6,221.6,541.1z"/>
<path class="st28" d="M229.9,539.2c-0.4,0-0.8,0-1.2,0c0.7-3.9-1.5-8.1,1.5-11.6C230.1,531.4,230,535.3,229.9,539.2z"/>
<path class="st29" d="M206.9,488.3c-2.6-0.5-5.3-0.9-5.8-4.3c2.7,1,5.5,1.9,7.4,4.2C208,488.9,207.5,488.9,206.9,488.3z"/>
<path class="st30" d="M726.1,481.2c0.1-0.6,0.3-1.3,0.4-1.9c4.5,2.2,2.8,4.2-0.2,6.1C726.2,484,726.2,482.6,726.1,481.2z"/>
<path class="st31" d="M226,498.4c-2.2-0.9-3.7-2.5-4.8-4.6C224.6,493.5,226.1,495.2,226,498.4z"/>
<path class="st32" d="M206.9,488.3c0.5,0,1.1,0,1.6-0.1c0.9,0.9,1.9,1.9,2.8,2.8c0,0.6-0.1,1.1-0.1,1.7
	C209.4,491.6,207.8,490.3,206.9,488.3z"/>
<path class="st5" d="M222.6,552.1c-2-2.2-0.9-4.9-1-7.4C223.2,547,222.8,549.6,222.6,552.1z"/>
<path class="st33" d="M673.8,418.3c6.7,3.3,13.3,6.6,14.4,15.2c-19.6-8.9-38.6-9-56.9,3.4c-3.4,2.3-6.3,5.1-9.5,7.7
	c-3.6,2.4-7.7,2.4-11.9,2.4c-20,0-40.1-0.1-60.2,0.6c6.7,0.7,13.3,0.6,20,0.6c12.6,0,25.1-0.1,37.7,0.1c3.3,0,6.9-0.5,9.4,2.5
	c-2.5,5.7-5.1,11.4-7.6,17.1c-2.7,2.7-6.3,2.2-9.6,2.2c-14.5,0.1-28.9,0-43.4,0.1c-2.8,0-5.8-0.6-8.9,1.3c2.5,1.9,5.1,1.4,7.5,1.4
	c14.5,0.1,28.9,0,43.4,0.1c3.3,0,6.8-0.5,9.7,1.9c0.1,2.5,0.2,5,0.3,7.5c1.8,3.5,2.9,7,0.4,10.6c-3.4,2.5-7.4,1.8-11.2,1.9
	c-16.7,0.4-33.4-0.6-50,0.2c-1.3,0.8-1.5,1.6,0,2.5c17.2,0.4,34.3-0.1,51.4,0.1c3.6,0,7.2-0.3,10.8,0.7c5.6,4.9,9.1,11.1,10.7,18.4
	c-1.3,2.1-3.4,2.4-5.6,2.5c-22.3,0.8-44.7-0.4-67,1.7c22.6,2,45.2,0.9,67.7,1.6c6.7,0,12.4,3.5,18.8,4.7c6.4,2,12.7,4.2,17.6,8.9
	c1.9,1.9,5.4,4.1,1.1,7.3c-3.5,1.2-7.2,0.9-10.8,0.9c-28.6,0-57.2,0-85.7,0c-3.1,0-6.3-0.6-9.8,1.3c3.2,2,6.2,1.3,9.1,1.3
	c30.5,0.1,61,0,91.6,0c3.6,0,7.3-0.2,10.9,0.5c6.2,3.1,9,9.4,13.3,14.3c0.2,1.7-0.5,3.1-1.4,4.5c-2.2,2.8-4.6,4.9-8.5,3.3
	c-1.2-0.4-2.3-0.6-3.6-0.6c-35.1,0.1-70.1,0-105.2,0.1c-2,0-4.3-0.6-6.1,1.5c3,1.9,6.2,1.2,9.2,1.2c29.5,0.1,59,0,88.5,0
	c3.9,0,7.7-0.3,11.5,0.7c5.6,3.5,11.7,1.9,17.7,1.9c3.3,1.9,5.8,5.3,10.1,5.2c1.9,2.7,1.7,6.9,5.9,7.9c0.6,0.4,0.9,0.9,1.1,1.5
	c0,60.3,0,120.6,0.1,180.9c0,5-0.6,6.5-7.1,7.1c-14.5,1.3-28.7-3.2-43.2,0.3c-5.6,1.3-11.9-1-17.9-1c-88.4-0.1-176.8-0.1-265.2-0.1
	c-3.1,0-6.3-0.2-9.4-0.3c-2.7-2.1-2.3-5.2-2.3-8c-0.1-27.6-0.1-55.1,0-82.7c0-8.9,2.6-10.7,11.3-8.4c3.5,0.9,6.9,2.1,10.4,3.1
	c4.8,1.4,8.2,4,8.5,9.5c0.2,4.6,3,6.1,7.2,6.1c34.6,0,69.1,0,103.7,0c2.3,0,4.3-0.3,5.8-2.3c0.9-1.8,1.1-3.7,1.1-5.7
	c0.1-20.6,0-41.1,0-61.7c0-4.5-1.2-7.4-6.4-7.4c-35.8,0.1-71.6-0.3-107.4,0.2c-0.5,0-0.9,0.2-1.4,0.3c-3.5,1.6-2.6,4.9-2.6,7.6
	c-0.1,11.1,0,22.2-0.1,33.3c0,2.4,0.3,5.3-2,6.6c-2.8,1.7-5-0.8-7-2.4c-5.7-4.6-11.6-9.3-15.2-15.9c-1.8-1.1-3.5-2.2-5.3-3.2
	c-2.5-3-2.5-6.7-2.5-10.3c0-60.7,0-121.5,0-182.2c0-4.4,1.1-8.6,1-12.9c-1.5-6.4-4.3-12.1-9.4-16.4c-2.2-1.9-4.2-4-2.7-7.4
	c3.8-3.7,8.6-2.6,13.1-2.6c69.7-0.1,139.4-0.1,209.1,0c27.3,0,54.7-0.3,82,0.2c3.1,0.2,6.4-0.3,9.4,0.8c0.8,0.4,1.6,0.9,2.2,1.5
	C657.2,417.4,665.9,414.4,673.8,418.3z"/>
<path class="st33" d="M254.4,199.9c-6.3,31.2-41.1,37.7-59.2,19.9c-10.6-10.4-13.8-26.5-7.4-40.1c6.5-14,21.2-21.9,36.9-19.9
	c14.3,1.8,25.9,12.9,28.9,27.5c0.1,0.7,0.5,1.3,0.8,1.9C254.4,192.7,254.4,196.3,254.4,199.9z"/>
<path class="st34" d="M649,415.6c-0.5,0-0.9,0-1.4,0c-3.3-4-2.4-8.7-2.4-13.2c-0.1-76.8,0-153.5,0-230.3c0-14.4,0-14.4-14.1-14.4
	c-110.9,0-221.8,0-332.7,0c-13.5,0-13.4,0-13.5,13.7c-0.1,20.6,0.3,41.2-0.2,61.7c0.3,1.9,0.3,3.8,0,5.7
	c0.5,84.2,0.1,168.4,0.2,252.6c0,35.3,0.1,70.7,0,106c0,4,0.9,8.4-2.7,11.6c-0.9-0.4-1.8-0.8-2.7-1.1c2-1.6,1.6-3.9,1.6-6.1
	c0-116.3-0.1-232.6-0.1-348.9c-1.7-2.1-1.7-4.7-1.7-7.2c0-0.7-0.1-1.4-0.1-2.1c-0.1-1.4-0.3-2.7,0.5-4c2.3-2.2,1.3-5,1.3-7.6
	c0.1-23.5,0.3-47-0.1-70.5c-0.1-6.6,2-8,8.3-8c117.4,0.2,234.9,0.2,352.3,0c6.1,0,7.8,1.8,7.7,7.8C649,246.1,649.1,330.8,649,415.6z
	"/>
<path class="st35" d="M465.5,124.8c23,0,46,0,69,0c3.2,0,7-1,7,4.6c0,5.6-3.6,5.3-7.4,5.3c-46,0-92,0-138.1,0
	c-3.8,0-7.4,0.2-7.4-5.3c0-5.6,3.8-4.6,7-4.6C419,124.7,442.2,124.8,465.5,124.8z"/>
<path class="st36" d="M280.9,243.9c0,3,0,5.9,0,8.9c-4.8-2.4-7.6-0.1-9.8,4.3c2.8,0.8,3.5-3.4,6.1-2.2c-1.6,6.9-4.5,8.5-10.1,4.8
	c-1.7-1.1-2.9-2.5-5-1.2c-0.9-1-0.8-1.9,0-2.9c3.8-1.9,4.3-9.3,11.1-6.6c1.6,0.6,0.6-1.7,0.6-2.6c-0.1-4,1.8-6.2,5.7-6.8
	c0.4,1,0.8,2,1.2,3c-0.6,0.1-0.8,0.5-0.7,1.1C280.3,243.8,280.5,243.9,280.9,243.9z"/>
<path class="st37" d="M262.2,255.6c0,1,0,1.9,0,2.9c-1,3.9,3.4,5.8,4.2,9.6C256.3,263.8,255.5,261,262.2,255.6z"/>
<path class="st38" d="M253.5,265.4c-0.2,2.4-0.1,4.9-2.4,4.2c-2.9-0.8-2.9-4-3.3-6.5c-0.4-2.3,1-5.1,3.3-4.2
	C254,260,251.6,264.1,253.5,265.4z"/>
<path class="st0" d="M254.7,626.7c7.8,4.3,15.6,8.7,23.5,12.9c3.3,1.7,3.2,4.5,3.2,7.4c0,14,0,28,0,42.1c0,2.4-0.7,4.9,0.9,7
	c5.9,10.1,15.2,11.9,26,11.3c6.4-0.4,13-0.8,19.4,0.6c2.1,0.7,2.9,2.5,3.1,4.5c0.5,4.6,3.2,7.4,7.5,9.8c-0.5-2.1-2-3.8-1-5.8
	c0.9-1.4,2.2-2.1,3.9-1.9c4,1.5,5.7,4.6,6.1,8.6c0,16,0,31.9,0,47.9c0,4-0.2,7.4-5.5,7.3c-15.4-0.5-30.9,1.4-46.1-2.2
	c-1.3-0.9-2.8-1.5-4.4-1.2c-4.6,0.3-8.4-1.3-12.2-3.8c-17.2-11.1-26.2-26.6-26.3-47.1c0-29.2,0-58.5,0-87.7
	C252.8,633,252.3,629.5,254.7,626.7z"/>
<path class="st39" d="M731.9,651.4c-6.8,10.7-9.5,22.2-8.9,35c0.8,16.6,0,33.3,0.2,50c0.1,9.9-0.6,19.7-1.4,29.6
	c-2.2,2.3-4.7,2.1-7.3,0.8c-3.4-5.8-3.5-12.4-4.6-18.7c-3-16.5-7.2-32.9-8.8-49.7c-0.2-2.1-0.8-4.2,0.2-6.3
	c-1.4-7.5-3.2-14.9-4.2-22.5c-1.3-9.7,2.6-18.8,3.8-28.2c0.6,3.7,3.9,3,6.2,3.6C715.3,647.2,723.6,649.2,731.9,651.4z"/>
<path class="st13" d="M295.7,776.2c14.9,1.4,29.8,0.5,44.8,0.9c4.8,0.1,6.8-1.1,6.6-6.3c-0.4-16.6-0.4-33.2-0.5-49.8
	c-1.2-1.8-1.4-3.8-1.9-5.9c-0.1-1.7-0.1-3.3-0.1-5c-0.2-6.5-0.2-13-0.1-19.5c0-5.8,0.5-11.6-4-16.3c-0.7-0.7-0.3-1.8,0.2-2.7
	c3.4-7.9,9.8-14.3,11.3-23.1c7.7,5,12.7,13.2,22.2,18.1c0-10.9-0.3-21.4,0.1-31.8c0.2-6.1-1.7-12.5,1.3-18.4
	c2.4,2.6,2.1,5.8,2.2,8.9c0.1,11.4,0.2,22.7-0.1,34.1c-0.1,6,1.3,10.8,6.4,14.4c2.5,1.8,4.7,4.2,5.5,7.4c0.1,3.4-1.2,6-4.6,7.4
	c-1.4,0.4-2.9,0.2-4.3,0.4c-1.4,0.3-2.1,1-2,2.5c0.1,1.1,0.9,1.7,1.8,2c2.6,0.8,5.3,0.6,7.9,0.6c32.1,0,64.3,0,96.4,0
	c3.8,0,7.8-0.8,11.2,1.8c-1.5,2.9-4.3,1.8-6.5,1.8c-36,0.1-72.1-0.1-108.1,0.2c-5.7,0-8.3-1.5-7.3-7.3c0.9-5.3-2.1-7.3-6.6-8.4
	c-4.2-1-8.5-2-12.5-3.6c-5.8-2.4-7.2-0.2-7.1,5.4c0.2,30.7,0.2,61.4,0.3,92.2c-1.2,2.5-3.3,3.2-5.9,3.2c-15.3-0.2-30.6,0.6-45.8-1.2
	C296.2,777.9,295.9,776.8,295.7,776.2z"/>
<path class="st40" d="M720.2,586.9c-3.8,2.8-8.2,4.9-9.7,9.9c-3.6-2.6-7,2.3-10.6,0.4c-4.4-1-7.1-3.5-7.5-8.1
	c-0.2-4.6,4.8-3.8,6.6-6.3c0.6-0.4,1.2-0.6,1.8-0.8c3.5-0.6,6.9-1.5,9.9-3.6c1.8-0.6,3.6-3.6,5.3,0.2
	C717.3,581.3,717.9,584.6,720.2,586.9z"/>
<path class="st41" d="M699.9,597.2c2.8-1.1,5.6-2.3,8.4-3.2c3.3-1.1,1.3,2,2.2,2.9c-1.2,5.9-2.3,11.7-3.5,17.6
	c-1,4.9-0.5,10.2-2.9,14.8c-1,2.9-1.9,5.8-2.8,8.8c-2.9-5-1.1-10.4-1.3-15.5C699.7,614.1,699.9,605.6,699.9,597.2z"/>
<path class="st42" d="M701.6,770.5c4.8-0.3,9.3-1.3,13.1-4.4c2.4-0.1,4.8-0.1,7.2-0.2c4,7.4,3.8,8.1-2.9,9.1c-5,0-10-0.1-15,0.1
	C699.5,775.2,699.6,773.4,701.6,770.5z"/>
<path class="st43" d="M699.9,582.8c-0.2,4.8-5.9,3.1-7.5,6.3c0,0-0.7-0.1-0.7-0.1s-0.7,0.1-0.7,0.1s0.1-0.5,0.1-0.5
	C690.9,581.8,695.5,582.5,699.9,582.8z"/>
<path class="st14" d="M186.6,585.7c-10.2-10.3-17-22.5-20.6-36.5c4.8-4.6,10.9-1.8,16.3-3c1-0.5,2-0.6,2.8,0.4
	c1.1,3.9,2.1,7.8,3.2,11.6c1.6,8.9,6.7,15.6,13,21.6c1.1,1.3,3.9,0.8,3.9,3.5c7,7.6,16.1,12.2,24.2,18.2c2.4,1.8,7.6,2.5,5.5,7
	c-2.1,4.7-5.8,0.9-8.8,0.3c-0.7-0.1-1.4-0.4-2.1-0.5c-4.1-2-7.7-4.9-12.5-5.2c-3-0.2-5.1-2.6-7.8-3.3c-0.6-0.1-1.2-0.4-1.8-0.8
	c-1.8-1.5-3.4-3.2-5.7-3.7c-1.9-0.5-3.3-1.7-4.6-3C189.7,590.2,188.1,588,186.6,585.7z"/>
<path class="st44" d="M202.9,598.7c0.3-0.1,0.7-0.1,1,0c1.7,1.9,0.6,3.2-1.2,3.8c-2.3,0.8-4.4,1.8-6,3.8l-0.4,0.3l-0.5-0.2
	c-3.2,1.7-7,2-9.5-0.3c-3.7-3.4-5.9-0.9-8.7,0.7c-1.7,0.1-3.6,0.9-4.4-1.6c2.3-2.3,3.4-4.7,1.9-8.2c-1.5-3.6,1.2-6,4.2-4.8
	c3.8,1.5,5.7-1.4,8.4-2.1c1.7-0.1,3.3,0.4,4.7,1.4c1.3,0.9,2.7,1.8,4,2.7C198.8,595.6,200.5,597.6,202.9,598.7z"/>
<path class="st45" d="M173.3,605.2c1.3,1.4,3,1,4.6,0.8c6-2.4,11.5,1.8,17.3,1.5c-3.4,4.5-7.7,5.3-12.7,3.1
	c-5.3-2.3-11.5-2.2-16.2-6.1C168.7,604.7,171,604.9,173.3,605.2z"/>
<path class="st46" d="M196.8,606.2c0.7-2.9,0.7-6.4,5.5-5.1c1.5,0.4,1.5-1.4,1.7-2.5c4-1.1,4.9,3.3,7.7,4.4
	C206.8,604.7,202,606.5,196.8,606.2z"/>
<path class="st47" d="M195.2,607.4c-5.8-0.1-11.7,0.2-17.3-1.5c2.4-3.4,4.1-8.2,8.8-1.7c1.9,2.7,6.1,1.2,9.1,2
	C195.7,606.7,195.4,607,195.2,607.4z"/>
<path class="st48" d="M671.4,562.2c-5.2-3.2-8.6-7.9-11.3-13.3c-2.5-1.8-4.8-3.8-5-7.2c-5-7.3-13-9.5-20.5-12.7
	c-5.7-3.2-12.9-4.8-14.4-12.8c-4.2-4.9-6.9-10.8-9.7-16.5c-2.4-1.9-2.7-4.3-2-7.1c-0.1-3.4-0.2-6.8-0.3-10.2
	c6.8,7.1,11.6,15.8,18.8,22.7c9.8,9.5,20.1,18.1,33,22.9c4,1.5,4.7,5.3,6.4,8.4c3.3,6,7.3,11.1,15.7,13.4
	c-5.8-14.5-11.2-27.8-16.5-41.1c-1.5-3.6-4.6-3-7.4-2.9c-6.5,0.1-11.8-2.1-15.1-8c-2.9-5.1-1.4-11.4,3.4-14.7
	c4.9-3.3,9.9-2.3,13.7,3.3c2,3,3.3,6.4,5,9.6c0.7,1.3,1.6,2.6,3.4,2c1.8-0.7,1.5-2.2,1-3.6c-0.7-2.1-1.2-4.2-1.9-6.2
	c-2-5.7-2.3-10.8,3.3-14.9c4.3-3.1,8.5-2.2,12,0.7c5.2,4.3,4.7,10.2,3.1,16c-0.2,0.9-0.6,2-1.3,2.5c-8,5.6-6.3,11.8-2.6,19.3
	c5.4,10.8,9.6,22.1,14.1,33.3c1.1,2.7,2.1,4.9,5.5,4.5c0,1-0.3,2-1.2,2.5c-8.9,4.3-17.7,8.6-27.3,11.1
	C672.5,563.3,671.9,562.7,671.4,562.2z"/>
<path class="st49" d="M690.8,466.5c-12.1-1.5-24-7.3-32.9-18.4c-2.1-2.6-3.8-5.7-2-9.3c1.7-3.3,5.3-3.8,8.2-3.6
	c14.9,1,27.4,7,36.7,18.9c2,2.5,3.2,5.7,1.4,8.8C700.2,466.7,696.4,466.6,690.8,466.5z"/>
<path class="st50" d="M608,474.9c-19.6,0-39.2,0.1-58.9,0c-2.6,0-6.4,1.2-6.5-3.5c-0.1-4.7,3.7-3.6,6.4-3.6c20.1-0.1,40.2,0,60.3,0
	C608.9,470.3,608.4,472.6,608,474.9z"/>
<path class="st51" d="M616.9,450.8c-21.2-0.1-42.5-0.1-63.7-0.2c-1.7,0-3.4,0.1-5.1,0c-2.2-0.2-5.3,0.8-5.4-3
	c-0.1-3.8,2.9-3.2,5.2-3.2c15.2-0.1,30.4-0.1,45.6,0c9.4,0,18.8,0.1,28.2,0.2C620.2,446.6,618.6,448.7,616.9,450.8z"/>
<path class="st52" d="M671.4,562.2c10.2-3.9,20.5-7.6,30.3-12.7c3.7-0.2,6.7-2.4,9.9-3.8c0.1,0.6,0.2,1.3,0.3,1.9
	c0,4.2-3.6,5.4-6.2,7.2c-9.4,6.5-20,10.4-31,13.2c-2.2,0.6-5.4,2.3-5.8-2.3C669.7,564.6,670.5,563.4,671.4,562.2z"/>
<path class="st33" d="M361,102.7c-16,0-31.9,0-47.9,0c-7.7-18.7,0-36.4,17.6-40.5c10.9-2.5,20.2,0.7,27.3,9.2
	c7,8.3,8.2,17.8,4.3,27.9C361.9,100.4,361.5,101.5,361,102.7z"/>
<path class="st2" d="M282.2,608.9c0.1-36,0.2-72.1,0.2-108.1c0-85.6-0.1-171.3-0.1-256.9c0-1.9,0.2-3.9,0.4-5.8
	c7.1,1.7,12.6,7.4,13.4,14.1c0.3,2.9,0.2,5.8,0.2,8.7c0,55.6,0,111.2,0,166.8c0,3.3-0.8,6.8,1.5,9.8c0.7,0.7,1.5,1.4,2.4,1.5
	c15.6,0.4,31.2,2.3,46.6-1.3c2.3,4.7-0.2,9.4-0.1,14.1c0.2,64.5,0.1,128.9,0.1,193.4C324.8,633.7,303.1,622,282.2,608.9z"/>
<path class="st5" d="M340.6,671.5c8.9,6.7,5.5,16.3,6,25c0.2,4.5,0,9.1,0.1,13.6c-0.8,1.7-2.3,1.1-3.6,1.1c-1.4-0.1-2.8-0.1-4.2-0.1
	c-1.5,0-3,0.1-4.4,0c-2-0.1-3.8-0.5-5.2-2c-10.5-0.1-21-0.1-31.6-0.3c-9.3-0.2-13.1-3.6-15.3-12.8c0-17.4,0-34.7,0-52
	c3.3-1.3,5.1,0.8,7,1.9c14.8,8.1,29.5,16.4,44.2,24.7C335.8,671.9,337.9,673.8,340.6,671.5z"/>
<path class="st53" d="M205.2,583.3c-1.3-1.2-2.6-2.3-3.9-3.5c4.6,1.1,4.7-5.2,9.5-5.2c-2.9,5.4,3.4,7.3,4.4,11.3
	C210.7,588.5,210.1,578.7,205.2,583.3z"/>
<path class="st54" d="M225.2,576.8c0.2,0.6,0.3,1.1,0.5,1.7c-11,1.8-11.2,1.7-12.9-7.1C217.3,572.3,220.2,576.8,225.2,576.8z"/>
<path class="st12" d="M668.8,565.8c0.8,2.2,2.4,1.7,4.1,1.2c14-4.4,27.8-9.2,38.9-19.4c4.5-3,7.2-7.7,10.5-11.7c2.3-2.8,3.6-3,6-0.3
	c2.5,2.8,5.6,5.1,8.6,7.4c3,2.3,0.8,3.8-0.8,5.1c-5.8,4.7-10.9,10.1-17.5,13.8c-0.9,2.7-3.6,3.3-5.6,4.7c-4.8,2.7-10.1,4.1-15.3,6.1
	c-7.5,1.2-14.7,5.5-22.7,3c-4.1,0.4-8.1,1-12.2,1.3c-2.5,0.2-5,0.1-5.5-3.1c-0.3-4.6,2.2-5.3,5.9-4.3
	C665.8,569.1,667.5,567.7,668.8,565.8z"/>
<path class="st55" d="M698.4,571.1c4.8-2,9.6-3.9,14.4-5.9c2-0.9,3.4-0.8,3.4,1.9c4.5,3.9,5.2,7.7-0.3,11.4
	c-2.1-1.5-3.2,0.2-4.5,1.5c-3.4,0.9-6.8,1.9-10.2,2.8c-0.5,0-0.9,0-1.4,0c-2.7,2.2-7.8,0.8-8.7,5.7c-6.6,0.9-8.1-2.9-7.7-8.5
	c0.3-0.6,0.7-1.1,1.2-1.5c3.1-1.8,6.7-2.6,9.8-4.4c1.3-0.7,2.8-1,3.8-2.2C698.4,571.7,698.4,571.4,698.4,571.1z"/>
<path class="st56" d="M733.3,494.2c0.5-0.5,1-1.1,1.4-1.6c3.9,3.4,7.7,0.5,11.6-0.1c0,0,0.4,0.1,0.4,0.1c-0.8,3.3,0.8,7.1-1.9,10
	c-0.3,0.6-0.7,0.7-1.2,0.4C734.2,504.4,733.3,503.6,733.3,494.2z"/>
<path class="st57" d="M750.1,539.5c2-4,5-7.1,8.8-9.3C757.1,534.3,753.7,537,750.1,539.5z"/>
<path class="st58" d="M759.9,508.1c-3.4-1.5-5.8-2.6-8.8-3.9C755.9,503.6,755.9,503.6,759.9,508.1z"/>
<path class="st59" d="M715.6,505c0.4-3.4,2.3-5.1,5.6-5.3C719.3,501.5,717.4,503.3,715.6,505z"/>
<path class="st60" d="M716.3,567.1c-0.7-1.4-2-1.7-3.4-1.9c2-1.1,3.9-2.2,5.9-3.3C720.7,565,718.5,566.1,716.3,567.1z"/>
<path class="st61" d="M730.6,516.6c1.8-3.9,3.5-5.3,7-7.2C735.9,513.3,734.1,514.6,730.6,516.6z"/>
<path class="st62" d="M743.6,503c0.4-0.2,0.8-0.4,1.2-0.4c0.8,0.5,1.5,1.1,1.1,2.1c-0.5,1-1.5,1.1-2.3,0.6
	C742.5,504.7,743.3,503.8,743.6,503z"/>
<path class="st63" d="M722.9,527.1c-0.7-0.2-1.2-0.2-1.6-0.3c0.5-0.8,0.8-1.6,1.4-2.3c0.5-0.5,1.5-0.7,1.4,0.3
	C724.2,525.6,723.3,526.4,722.9,527.1z"/>
<path class="st64" d="M220.1,505.6c3.2,8.3,0.1,17.3,2.6,25.8c0.4,1.3-1.3,1.8-2.6,1.9c-0.4-7.7,0.8-15.5-1.3-23.1
	C218.4,508.6,218.4,506.8,220.1,505.6z"/>
<path class="st65" d="M164.7,499.8c4.9-2.5,9.5-2,15.2,1.4c-5.5,0-9.6,0-13.8,0C165.7,500.7,164.8,500.7,164.7,499.8z"/>
<path class="st66" d="M185.2,546.5c-0.9-0.1-1.9-0.2-2.8-0.4c2.3-2.5,5.4-2.7,8.5-2.7c0.9,0.1,1,1,1.5,1.5
	C190.4,547.5,187.6,546,185.2,546.5z"/>
<path class="st67" d="M164.7,499.8c0.5,0.5,1,1,1.5,1.4c-3.5-0.9-4.5,5.9-8.7,2.9c0,0,0,0,0,0C160.1,503.2,161.4,499.8,164.7,499.8z
	"/>
<path class="st68" d="M191,537.7c-1.7-2.8-1.8-5.8-0.9-10.7c0.9,4.7,1.5,7.7,2.1,10.7C191.8,538.4,191.4,538.4,191,537.7z"/>
<path class="st69" d="M155.9,532c0-1,0.1-2,0.1-3c2.7,3.1,1.1,6.9,1.3,10.3c-0.5,0-0.9-0.1-1.4-0.2C155,536.7,155.1,534.4,155.9,532
	z"/>
<path class="st70" d="M185.1,507.2c-1.6-0.7-2.8-1.8-3.6-3.5c3.2-0.8,3.3,1.5,3.7,3.4L185.1,507.2z"/>
<path class="st71" d="M191,537.7c0.4,0,0.8,0,1.2,0c0,2.4,0.1,4.8,0.1,7.2c-0.5-0.5-1-1-1.5-1.5C190.9,541.5,190.9,539.6,191,537.7z
	"/>
<path class="st72" d="M185.2,507.1c1.8,0.9,3,2.2,2.7,4.5c-2.6-0.5-2.4-2.7-2.8-4.4C185.1,507.2,185.2,507.1,185.2,507.1z"/>
<path class="st73" d="M156.1,529c-0.4,0-0.9,0-1.3-0.1c0-1.9,0-3.8,0-6.3C157,524.9,155.6,527.1,156.1,529z"/>
<path class="st74" d="M704.2,629.3c0.4-5.1,1-10.1,2.9-14.8c0.9,2.6-1.3,6.1,2.7,7.9c1.7,0.7-0.1,2.2-0.9,2.3
	C705.8,624.8,706.2,628.2,704.2,629.3z"/>
<path class="st6" d="M736.4,312.2c1,1,2.1,1.9,3.1,2.9c1,4.2,2.8,4.8,5.4,1.1c1-0.9,2-1.8,3-2.6c2.3,5.2-4.9,8.8-1.4,14.7
	C735.4,322.2,733.1,318.3,736.4,312.2z"/>
<path class="st5" d="M752.7,308.1c-2.3-2-4.7-4-7-6.1c-0.9-0.8-1.8-1.7-1.5-3.5c3.4-0.8,4.2,3.3,7.5,3.9c1.5-0.9-0.3-4.2,2.8-5
	c0.7,2.1,1.4,4.6,3.5,6C756.2,305,754.5,306.6,752.7,308.1z"/>
<path class="st75" d="M744.9,316.2c-0.1,2.5-0.4,5.2-3.8,4c-1.7-0.6-4.7-2.2-1.6-5.1C741.2,315.9,742.8,317.2,744.9,316.2z"/>
<path class="st76" d="M192.5,591.5c-1.7,0-3.4,0-4.7-1.4c-1-0.9-1.9-1.8-2.9-2.7c0.5-0.6,1.1-1.1,1.6-1.7
	C189.1,587.1,191.4,588.7,192.5,591.5z"/>
<path class="st77" d="M155.9,532c0,2.4,0,4.7,0.1,7.1c-0.5-0.4-1-0.7-1.5-1.1C154.9,536,153.9,533.6,155.9,532z"/>
<path class="st78" d="M746.3,492.5c-3.8,2.5-7.7,6.3-11.6,0.1c4,0,8.2,0.8,11.3-2.9C746.2,490.7,746.2,491.6,746.3,492.5z"/>
<path class="st79" d="M188.1,483.8c0.5-0.5,0.9-0.9,1.4-1.4c1.9,0.3,4.2-0.8,5.6,1.4C192.8,483.8,190.5,483.8,188.1,483.8z"/>
<path class="st80" d="M388.9,681.7c-1.1-1.3-1.9-3-3.3-3.8c-9.5-5.5-10.8-13.9-10.2-24c0.7-12.5,0.2-25.1,0.3-37.7
	c38,0,76,0,114-0.2c5,0,6.7,1.3,6.6,6.5c-0.3,24.5-0.2,48.9-0.2,73.4c-27,0.1-54,0.3-81.1,0.4c-10.9,0-21.7,0.1-32.6-0.1
	c-2.4,0-5.9,1.4-6.6-2.3c-0.5-2.5-0.7-5.9,0.6-7.6c1.3-1.7,4.4,0,6.7,0.6c0.9,0.2,1.9,0.4,2.8,0.6c2.4-0.5,4.7,0.1,7.7,0.6
	C392.5,685.1,389.4,684.3,388.9,681.7z"/>
<path class="st2" d="M282.7,233.8c-0.1-24.7-0.1-49.4-0.4-74.1c-0.1-6.1,3.9-4.9,7.3-4.9c46.5,0,93,0,139.5,0
	c70.2,0,140.5,0,210.7,0c4,0,8-1.2,8,5.7c-0.2,85-0.2,170-0.3,255.1c-2.9,0-5.7-0.1-8.6-0.1c-1.9-1.8-2.2-4.1-2.3-6.6
	c-0.6-14.3-0.3-28.5-0.3-42.8c0-53.5-0.2-106.9,0.1-160.4c1.5-12.9-1.1-24.2-13-31.6c-4-2.6-8.3-4.1-13.1-3.7
	c-64.7,0.4-129.4,0.1-194,0.2c-28.6,0-57.2,0-85.8,0c-21.9,0-30.7,8-33.1,29.7c-0.1,0.8-0.2,1.6-0.5,2.4c-1.7,5.3-1.4,10.9-1.6,16.4
	C295.2,230.3,294.4,231.4,282.7,233.8z"/>
<path class="st81" d="M638.8,409.7c0.1,1.9,0.1,3.8,0.2,5.8c-99.2,0-198.3,0.1-297.5,0.2c-2.9,0-7.2-2-8.3,3.2
	c-2.5,1.7-5.1,0.4-7.7,0.1c-9.9-1.3-18,1.3-24,9.8c-1.4,2-2.4,5.7-6.4,3.8c0-7.8-1.5-15.7,0.9-23.5c3.1-1.9,6.5-1.6,9.9-1.6
	c107.2,0,214.5,0,321.7,0C631.6,407.4,635.6,406.9,638.8,409.7z"/>
<path class="st0" d="M296.9,433.2c7.6-15.5,17.6-19.4,36.4-14.4c6.8,4.6,11.8,10.5,13.5,18.8c-0.4,2-0.1,4.3-3.4,4.3
	c-15.3-0.2-30.5-0.1-45.8-0.2c-0.7,0-1.5-1-2.2-1.6C294.9,437.7,294.1,435.1,296.9,433.2z"/>
<path class="st82" d="M434.7,524.7c-18.1,0-36.3,0-54.4,0c-2.5,0-5.8,0.9-5.6-3.5c0.2-3.9,3.2-3.6,5.9-3.6c36.5,0,73,0,109.5,0
	c3,0,6.3-0.2,5.9,4.2c-0.3,4.3-3.9,2.8-6.2,2.8C471.4,524.7,453,524.7,434.7,524.7z"/>
<path class="st83" d="M435.2,715.1c18.4,0,36.8,0,55.1,0c2.4,0,5.8-1,5.6,3.4c-0.2,3.9-3.1,3.6-5.8,3.6c-36.5,0-73,0-109.5,0
	c-3,0-6.3,0.2-6-4.2c0.3-4.3,3.9-2.8,6.2-2.9C399,715,417.1,715.1,435.2,715.1z"/>
<path class="st44" d="M435.3,467.9c18.2,0,36.3,0,54.5,0.1c2.3,0,5.9-1.4,6.2,2.8c0.4,4.4-3,4.2-6,4.2c-36.6,0-73.1,0-109.7,0
	c-2.7,0-5.8,0.2-5.6-3.8c0.2-4,3.5-3.3,6-3.3C398.9,467.9,417.1,467.9,435.3,467.9z"/>
<path class="st84" d="M435.4,747.1c-18.2,0-36.3,0-54.5,0c-2.5,0-5.9,0.9-6.1-3.2c-0.3-4.6,3.4-3.9,6.2-3.9c36.3,0,72.7,0,109,0
	c2.9,0,6.3-0.3,6.1,4.1c-0.2,4.4-3.8,2.9-6.1,2.9C471.7,747.1,453.6,747.1,435.4,747.1z"/>
<path class="st82" d="M435.5,492.7c18.2,0,36.4,0,54.5,0.1c2.3,0,5.9-1.3,5.9,3.1c0.1,4.4-3.3,4-6.2,4c-36.4,0-72.7,0-109.1,0
	c-2.6,0-5.9,0.6-6-3.4c-0.2-4.6,3.5-3.8,6.3-3.8C399.2,492.7,417.3,492.7,435.5,492.7z"/>
<path class="st82" d="M435.5,598.9c-18.2,0-36.4,0-54.5,0c-2.8,0-6.4,0.7-6.3-3.8c0.1-4,3.4-3.3,6-3.3c36.4,0,72.7,0,109.1,0
	c2.9,0,6.3-0.5,6.2,4c-0.1,4.4-3.6,3.2-5.9,3.2C471.9,598.9,453.7,598.9,435.5,598.9z"/>
<path class="st85" d="M435.3,573.9c-18.1,0-36.3,0-54.4,0c-2.8,0-6.5,0.7-6.2-3.8c0.3-4,3.7-3.1,6.2-3.1c36.3,0,72.6,0,108.8,0
	c2.8,0,6.5-0.7,6.2,3.8c-0.3,4-3.7,3.1-6.2,3.1C471.6,573.9,453.5,573.9,435.3,573.9z"/>
<path class="st86" d="M602.5,747.1c-17.9,0-35.8,0-53.7,0c-2.8,0-6.3,0.9-6.4-3.7c-0.1-5,3.9-3.4,6.3-3.4
	c35.8-0.1,71.6-0.1,107.4-0.1c0.7,0,1.5,0,2.2,0c2.7-0.1,4.9,0.4,5.1,3.7c0.2,3.8-2.6,3.4-5,3.4
	C639.7,747.1,621.1,747.1,602.5,747.1z"/>
<path class="st87" d="M603.2,648.2c-17.6,0-35.3,0.1-52.9-0.1c-2.8,0-7.7,2.1-7.5-3.7c0.1-5.2,4.5-3.3,7.2-3.3
	c35.5-0.1,71.1-0.1,106.6,0c2.7,0,6.9-1.6,6.8,3.8c-0.1,4.9-4,3.3-6.5,3.3C638.9,648.2,621.1,648.2,603.2,648.2z"/>
<path class="st82" d="M436,541.9c17.9,0,35.8,0,53.7,0c2.6,0,6.5-1.3,6.3,3.5c-0.1,4.4-3.7,3.6-6.5,3.6c-36,0-72.1,0.1-108.1,0
	c-2.4,0-6.4,1.6-6.2-3.5c0.2-4.5,3.6-3.6,6.4-3.6C399.7,541.9,417.8,541.9,436,541.9z"/>
<path class="st50" d="M602.4,672.9c-17.9,0-35.8,0-53.7,0c-2.7,0-6.3,0.9-6.1-3.8c0.2-4.2,3.6-3.2,6-3.2c36-0.1,72.1-0.1,108.1,0
	c2.8,0,6.4-0.8,6.5,3.6c0.1,4.9-3.9,3.3-6.4,3.3C638.7,673,620.6,672.9,602.4,672.9C602.4,672.9,602.4,672.9,602.4,672.9z"/>
<path class="st83" d="M603.2,715.1c18.1,0,36.3,0,54.4,0c2.4,0,5.8-1.1,5.7,3.4c-0.1,3.9-3.1,3.7-5.8,3.7c-36.5,0-73.1,0-109.6,0
	c-2.8,0-5.5,0.1-5.3-4c0.2-3.8,3.1-3.1,5.4-3.1C566.4,715.1,584.8,715.1,603.2,715.1z"/>
<path class="st88" d="M603.2,591.8c17.9,0,35.8,0,53.7,0c2.7,0,6.3-1.1,6.3,3.7c0,5-3.9,3.4-6.4,3.4c-36,0.1-72.1,0.1-108.1,0
	c-2.6,0-6.3,1.3-6.3-3.5c0-4.8,3.8-3.5,6.4-3.5C567,591.7,585.1,591.8,603.2,591.8z"/>
<path class="st89" d="M603.7,616.2c17.7,0,35.3-0.1,53,0.1c2.4,0,6.5-1.8,6.6,3.1c0.2,4.5-3.5,3.9-6.2,3.9c-36.3,0-72.6,0-108.8,0
	c-2.6,0-5.7,0.4-5.5-3.7c0.1-4.3,3.5-3.2,5.9-3.3C566.9,616.1,585.3,616.2,603.7,616.2z"/>
<path class="st85" d="M663.4,569.5c-2.5,0.8-5.2,1.2-5.9,4.3c-36.3,0-72.7,0.1-109,0.1c-2.7,0-6.6,1-6.5-3.5
	c0.1-4.5,3.9-3.4,6.6-3.4c36.3-0.1,72.7-0.1,109,0C659.8,566.9,662.8,565.8,663.4,569.5z"/>
<path class="st82" d="M655.1,541.7c2.5,1.9,4.2,4.2,5,7.2c-37.5,0.1-75,0.2-112.5,0.2c-2.2,0-5.2,0.9-5.2-3.1c0-4.3,3-4.1,6-4.1
	c32.2,0,64.4,0,96.6,0C648.3,541.9,651.7,541.8,655.1,541.7z"/>
<path class="st10" d="M434.9,444.3c18.4,0,36.8,0,55.3,0c2.4,0,5.9-1,5.7,3.4c-0.2,3.8-3.4,2.8-5.6,2.8c-36.3,0.1-72.7,0.1-109,0
	c-2.5,0-5.8,1-5.9-3.3c-0.1-4.9,3.6-2.8,5.7-2.8C399.1,444.3,417,444.3,434.9,444.3z"/>
<path class="st90" d="M602.4,696.5c-17.9,0-35.8,0-53.7-0.1c-2.3,0-6,1.2-5.9-3.1c0-4.3,3.7-3,6-3c36.3-0.1,72.5-0.1,108.8,0
	c2.2,0,5.3-1,5.6,2.8c0.3,4.4-3.2,3.4-5.7,3.4C639.2,696.5,620.8,696.5,602.4,696.5z"/>
<path class="st91" d="M617.3,524.5c-23.2,0.1-46.5,0.1-69.7,0.2c-2.5,0-5,0.1-4.9-3.6c0-3.6,2.6-3.5,5.1-3.5
	c22.5,0.1,45,0.2,67.5,0.3C616.4,519.9,617.7,521.9,617.3,524.5z"/>
<path class="st92" d="M608.6,492.6c0.7,2.4,1.3,4.7,2,7.1c-21,0.1-42.1,0.1-63.1,0.2c-1.6,0-3.5,0.4-4.6-1.4
	c4.6-2.9,9.9-2.6,13.9-3.7c-3.8-0.9-9.2,3.6-13.9-0.7c2.1-2.5,4.9-1.3,7.4-1.3C569.7,492.6,589.1,492.6,608.6,492.6z"/>
<path class="st93" d="M617.3,524.5c-1.7-1.8-3.6-3.6-2.1-6.5c1.7-0.6,3.4-1.1,5-1.7c3.8,5.4,9.6,8.5,14.4,12.8
	C628.5,528.8,623.3,525.2,617.3,524.5z"/>
<path class="st94" d="M685.5,579.8c-0.7,0.1-1.3,0.2-2,0.3c-4.8,2.3-7.3,0.2-8.4-4.5c7.8-1.5,15.5-3,23.3-4.5c0,0,0.3,0.3,0.3,0.3
	c0,2.2-2.3,2-3.3,3.2C692.4,576.8,687.8,576.1,685.5,579.8z"/>
<path class="st16" d="M542.8,494.1c5.3,0,10.6,0,16.7,0c-5.8,2.9-10.8,5.4-16.6,4.4C542.9,497,542.9,495.5,542.8,494.1z"/>
<path class="st95" d="M296.9,433.2c-0.5,2.3-1,4.7-1.5,7c-2.1-2.6-1.1-5.6-1.1-8.4c-0.1-56.7-0.4-113.4,0.2-170.1
	c0.1-10.8-3.4-18-11.8-23.6c0-1.5,0-2.9,0-4.4c2.8-1.6,5-3.8,8.6-4.8c3.4-0.9,2-5.9,2.4-9.1c0.8-5.4-1.2-11.3,2.3-16.3
	c2.3,2.9,1.9,6.4,2,9.8c0,62.2,0,124.4,0,186.6c0,3.4,0.3,6.8-2.1,9.7C296,417.5,294.4,425.4,296.9,433.2z"/>
<path class="st96" d="M280.9,243.9c-1.1,0.7-2.2,1.4-3.6,2.3c-0.1-3,1.6-3.4,3.6-3.5C281,243.1,281,243.5,280.9,243.9z"/>
<path class="st97" d="M269.6,251.3c0.3,1.1,0.8,1.8,0.6,2.2c-0.2,0.5-1,0.8-1.5,1.1c-0.2-0.4-0.6-0.9-0.5-1.3
	C268.4,252.7,268.9,252.2,269.6,251.3z"/>
<path class="st98" d="M314.6,744.2c-1-0.7-1.9-1.5-2.9-1.9c-2.8-1.2-2.8-1.8-1.7-4.1c0.8-1.5,0.2-3.7,0.3-5.6c0.2-2.9,1.4-5,4.4-5.8
	c2.2-1.4,4.7-1.6,7.3-1.5c0.8,0.8,2.3,0.3,2.9,1.4c1.4,0.6,2.3,1.5,2.9,2.9C325.3,739.5,322.1,743.1,314.6,744.2z"/>
<path class="st36" d="M329.1,709.2c1.9,0,3.9,0,5.8,0c-1.2,3.3,5.1,3.7,2.9,7.4c-0.1,2.8,2.2,4.1,3.5,6c0.7,1,1.1,2.2,0,3.2
	c-0.8,0.8-1.7,0.3-2.5-0.3C333.5,721.3,327.4,717.6,329.1,709.2z"/>
<path class="st99" d="M314.6,744.2c7.4-2.1,9-9.4,13.1-14.5c2.7,2.5,4.5,5.2,1.5,8.7c-1.4-1.4-1.2-2.8-1-3.1
	c-1.2,2.3-2.4,6.4-7.1,8.3c1.7-0.5,2.8-0.4,3.7,0.6C321.4,746.5,318,746.5,314.6,744.2z"/>
<path class="st100" d="M324.7,744.2c-1-0.7-5.1,1.5-2.5-2.6c1.8-2.7,3.9-5.3,5.9-8c1.6,1.5,0.6,3.2,0.9,4.7
	C329,741.3,327.1,742.9,324.7,744.2z"/>
<path class="st100" d="M339.3,709.2c1.4,0,2.9,0.1,4.3,0.1c1.5,1.7,1.4,4.2,2.9,5.8c0,1.9,0,3.9,0,5.8c-1.9-1.9-3.9-3.9-5.8-5.8
	C338.3,713.6,337.4,711.7,339.3,709.2z"/>
<path class="st101" d="M339.3,709.2c-0.3,2.2,0.4,4.1,1.4,6c-1,0.5-1.9,1-2.9,1.4c-0.7-2.6-8.2-2.5-2.9-7.4
	C336.4,709.2,337.9,709.2,339.3,709.2z"/>
<path class="st102" d="M314.6,726.8c-1.5,1.9-2.9,3.9-4.4,5.8c-1.9-1.5-1.7-3.8-2.8-6.4C310,726.2,312.3,724.9,314.6,726.8z"/>
<path class="st103" d="M324.8,726.8c-1.2,0-2.3-0.3-2.9-1.4c1.7-3.1-4.7,0.3-2.5-3.1c0.5-0.7,1.6-1.8,2.1-1.7
	C324.2,721.6,324.9,724,324.8,726.8z"/>
<path class="st104" d="M388.9,681.7c3.8,1.6,6.5,4.4,9.4,8.2c-5.3,1.2-8.9-0.3-12.5-2.3C386.8,685.6,387.9,683.6,388.9,681.7z"/>
<path class="st105" d="M346.6,715.1c-2.7-1.1-3.1-3.3-2.9-5.8c1,0.3,2,0.6,3,0.8C346.6,711.8,346.6,713.5,346.6,715.1z"/>
<path class="st106" d="M701.3,582.8c3-2.3,6.5-3.1,10.2-2.8C708.3,581.7,705.2,583.8,701.3,582.8z"/>
<path class="st46" d="M202.9,598.7c-3.7,0.8-5.1-1.7-6.4-4.5C200,593.9,201.9,595.6,202.9,598.7z"/>
<path class="st107" d="M671.9,501.8c2,0.2,1.8,2,2.3,3.2c5.6,13.3,11.3,26.6,16.7,40c0.6,1.5,3.2,4.2-0.2,5.3
	c-2.6,0.9-3.6-1.9-4.4-3.9c-5.6-13.6-11.1-27.2-16.8-40.8C668.2,503,669.9,502.5,671.9,501.8z"/>
<path class="st108" d="M646.3,491.5c0.7-3.1,2.6-6.3,6.1-5.5c5.9,1.5,6.6,7.8,8.6,12.4c1.1,2.5-1.8,2.8-3.7,2.8
	C652,501.2,646.1,496.1,646.3,491.5z"/>
<path class="st107" d="M671,482.9c-0.2-4.2,1.2-6.3,4.9-6.2c4.4,0.1,6.6,2.6,6.6,6.9c0,4.4-1.4,9.8-5.6,9.6
	C671.5,492.9,672.8,486,671,482.9z"/>
<path class="st109" d="M685.5,579.8c1.4-5.3,6.5-4.2,10-5.8c0.4,0.3,0.6,0.6,0.5,1c-0.1,0.3-0.3,0.5-0.4,0.5
	C692.2,576.9,688.9,578.4,685.5,579.8z"/>
<path class="st110" d="M695.6,575.5c0-0.5,0-1,0-1.5c1.1-0.9,2.2-1.7,3.2-2.6c2.4,0.3,3,1.2,0.6,2.5
	C698.2,574.6,696.9,575,695.6,575.5z"/>
<path class="st33" d="M295.9,409.6c-0.1-55.1-0.2-110.3-0.2-165.4c0-13.5,0.3-27.1,0.4-40.6c0,0-0.4-0.3-0.4-0.3
	c3-2.7,6.7-2.5,10.3-2.5c91.8,0,183.6-0.1,275.4,0c3.3,0.5,6.6-0.3,9.9,0.2c12.5,0.2,24.9-0.4,37.4-0.2c3.6,0.1,7.3-0.3,10.2,2.4
	c0.1,60.3,0.2,120.6,0.2,180.9c0,8.5-0.2,16.9-0.2,25.4C524.5,409.7,410.2,409.7,295.9,409.6z"/>
<path class="st6" d="M638.9,203.4c-16-0.1-32-0.2-48-0.3c0.5-8.3,7.8-2.4,11.1-5.3c-3.7,0.3-5.8-0.7-3.7-4.6c1-1.9,2.3-3.6,4-5
	c4.1-1.5,5.1,3,7.8,4.1c0.9-1.4,0.2-3.3,1.4-4.6c3-3.2,1.6-5.8-1.6-7.6c-3.5-2-5.3,0.8-7,3.2c-1,1.4-0.8,3.3-2.1,4.5
	c-3.1,1.4-5.8,2.9-6.9,6.7c-1.6,5.8-8.3,4.9-11.7,8.5c-1.7,0.1-3.4,0.3-5.1,0.3c-93.8,0-187.6,0-281.4,0
	c-1.6-19.4,8.8-29.4,19.6-33.6c3.2-1.2,6.5-1.6,10-1.6c94.1,0,188.3,0,282.4,0.1c1.7,0,3.4,0.2,5.1,0.3c1.5,0.7,3.3,0.8,4.5,2.1
	c2,2,4.2,3.2,7.1,2C636.8,179.3,639.9,190.4,638.9,203.4z"/>
<path class="st6" d="M624.4,172.7c-4.9,0,1.6,4.4-2.7,5c-2.3-3.2-5.1-6.8-9-9.1C617.1,168.6,621.1,169.7,624.4,172.7z"/>
<path class="st111" d="M318.7,736.6c-0.2,1.4-0.9,2.6-2.5,2.7c-1.6,0.1-2.7-0.9-2.6-2.6c0.1-1.6,1.4-2.4,2.9-2.4
	C317.9,734.2,318.7,735,318.7,736.6z"/>
<path class="st112" d="M323,730.5c-0.1,1.1-0.8,1.8-1.8,1.8c-1.4,0-2.2-0.9-1.9-2.3c0.2-1.1,1.1-1.5,2.1-1.4
	C322.6,728.6,322.9,729.5,323,730.5z"/>
<path class="st5" d="M490.8,296.4c-0.1-17.9,0-35.8-0.2-53.7c-0.1-4.5,1.7-5.9,6-5.9c36.6,0.1,73.1,0.1,109.7,0
	c3.8,0,5.1,1.3,5.1,5.1c-0.2,10.4-0.2,20.8-0.2,31.2c-3.1,0.7-4.8-1.8-6.9-3.3c-13.4-9.4-27.8-5.9-35.3,8.5
	c-2.1,4.1-3.8,8.4-6.4,12.2c-5.9,8.6-13.7,11-23.4,7.2c-4.3-1.7-7.9-4.6-11.7-7.2c-11.4-7.8-21.3-7-31.5,2.4
	C494.5,294.3,493.4,296.4,490.8,296.4z"/>
<path class="st4" d="M490.8,296.4c11.2-15.5,24-17.4,39.7-6c3.5,2.5,7.1,5,11.4,6.3c7.8,2.3,13.8,0.7,18.3-6.2c2.9-4.4,5-9.4,7.5-14
	c8.6-15.7,26.1-18.7,39.6-6.9c1.3,1.1,2.5,2.3,3.8,3.4c0.1,13.3,0,26.6,0.3,39.9c0.1,4.4-1.6,5.1-5.5,5.1
	c-36.6-0.1-73.1-0.2-109.7,0c-4.6,0-5.9-1.4-5.6-5.8C491,307.1,490.8,301.7,490.8,296.4z"/>
<path class="st113" d="M384.5,237c17.9,0,35.8,0,53.7,0c2.7,0,6.1-1.1,5.9,3.9c-0.2,4.7-3.7,3-5.9,3c-36.3,0.1-72.5,0.1-108.8,0
	c-2.2,0-5.7,1.7-6-2.9c-0.3-4.9,3.2-3.9,5.9-3.9C347.7,237,366.1,237,384.5,237z"/>
<path class="st114" d="M550.8,392.2c-17.9,0-35.8,0-53.7-0.1c-2.6,0-6.4,1.3-6.4-3.5c0-4.9,3.8-3.5,6.4-3.5
	c36.1-0.1,72.1-0.1,108.2,0c2.3,0,5.7-1.3,6,3.1c0.3,4.8-3.3,3.9-6,3.9C587.1,392.2,568.9,392.2,550.8,392.2z"/>
<path class="st82" d="M383.4,318.1c-17.7,0-35.4,0.1-53-0.1c-2.7,0-7,1.7-6.9-3.7c0.2-5.4,4.5-3.4,7.1-3.4
	c35.6-0.1,71.2-0.1,106.8,0c2.5,0,6.4-1.6,6.5,3.3c0.2,5.5-4.1,3.8-6.8,3.8C419.2,318.2,401.3,318.1,383.4,318.1z"/>
<path class="st89" d="M383.2,342.9c-17.9,0-35.9,0-53.8,0c-2.4,0-5.8,1.2-5.9-3.2c0-4,2.9-3.8,5.6-3.8c36.6,0,73.2,0,109.8,0
	c2.4,0,5-0.3,5.1,3.4c0.1,4.3-3,3.6-5.6,3.6C420,342.9,401.6,342.9,383.2,342.9z"/>
<path class="st92" d="M550.5,342.9c-17.7,0-35.4,0.1-53.1-0.1c-2.5,0-6.5,1.8-6.6-3.1c-0.1-4.5,3.5-3.8,6.3-3.8
	c36.1,0,72.2,0,108.3,0c2.5,0,5.8-0.9,5.8,3.4c0.1,4.9-3.6,3.6-6.2,3.6C586.9,342.9,568.7,342.9,550.5,342.9z"/>
<path class="st115" d="M384.4,261.7c17.9,0,35.8,0,53.7,0c2.4,0,5.7-1.1,5.9,3.3c0.2,4.8-3.4,3.8-6.1,3.8c-36.3,0-72.5,0-108.8,0
	c-2.5,0-5.8,0.8-5.7-3.5c0.1-4,3.2-3.6,5.8-3.6C347.7,261.7,366,261.7,384.4,261.7C384.4,261.7,384.4,261.7,384.4,261.7z"/>
<path class="st10" d="M383.6,287.4c18.2,0,36.3,0,54.5,0c2.4,0,5.9-1.1,5.7,3.4c-0.2,3.9-3.4,2.8-5.5,2.8c-36.3,0.1-72.7,0.1-109,0
	c-2.4,0-5.9,1.1-5.7-3.3c0.2-3.8,3.3-2.8,5.5-2.8C347.3,287.4,365.5,287.4,383.6,287.4z"/>
<path class="st116" d="M550.8,367.8c-17.9,0-35.8,0.1-53.7-0.1c-2.3,0-6,1.4-6.2-2.8c-0.3-4.9,3.8-3.4,6.3-3.4
	c35.8-0.1,71.5-0.1,107.3,0c2.4,0,6.6-1.7,6.6,3.1c0,4.8-4.2,3-6.6,3.1C586.6,367.9,568.7,367.8,550.8,367.8z"/>
<path class="st116" d="M416.4,367.6c-29.1,0.1-58.1,0.2-87.2,0.2c-2.2,0-5.3,1-5.6-2.8c-0.3-4.4,3.2-3.5,5.6-3.5
	c30.5,0,61,0.1,91.6,0.2C422,365.6,418.1,365.9,416.4,367.6z"/>
<path class="st114" d="M383.6,385.1c18.1,0,36.3,0,54.4,0c2.4,0,5.7-1.2,5.9,3.2c0.2,4.9-3.4,3.8-6.1,3.8c-36,0.1-72.1,0.1-108.1,0
	c-2.6,0-6.4,1.3-6.3-3.6c0.1-4.8,3.9-3.4,6.4-3.4C347.8,385.1,365.7,385.1,383.6,385.1z"/>
<path class="st6" d="M582.2,203.1c1.4-3.1,2.9-6.1,7.2-5.8c2.1,0.2,2.9-1.3,2.9-3.2c0.2-5.7,3.8-7.2,8.8-6.8
	c0.8,0.2,1.3,0.7,1.5,1.4c0.4,3.3-3.6,4.4-3.8,7.4c0.5,0.2,1,0.6,1.3,0.5c1.7-0.6,2-3.6,4.5-2.7c0.4,0.1,0.8,1.3,0.7,1.8
	c-0.6,2.6-2.4,4.2-5,4.5c-3.2,0.4-7.4-2.1-9.2,2.8C588,203.1,585.1,203.1,582.2,203.1z"/>
<path class="st117" d="M416.4,367.6c1.5-2,2.9-4,4.4-5.9c6.5-0.1,13-0.1,19.4-0.2c2.2,0,3.7,0.5,3.7,3.2c0,2.7-1.7,3.1-3.8,3.1
	C432.2,367.7,424.3,367.7,416.4,367.6z"/>
<path class="st6" d="M602.5,188.7c-0.5-0.5-1-1-1.5-1.4c-3-5.6,2.2-7.2,5-9.4c2.4-1.9,5.3,0.2,6.9,2.2c2.2,2.6,4.2,5.6,0.1,8.6
	c-0.5,0.4-1,1-1.3,1.6c-0.8,1.9,4,3.9,0.7,5.3c-3.2,1.3-4.8-2.4-6.6-4.5C605,189.8,604.1,188.8,602.5,188.7z"/>
<path class="st118" d="M359.4,189.9c-2.6-0.1-4-1.5-4.1-4c-0.1-2.5,1.1-4.2,3.7-4.2c2.4,0,4.1,1.6,4.3,3.9
	C363.5,188,361.6,189.2,359.4,189.9z"/>
<path class="st119" d="M385.5,185.5c-0.8,2.6-2.1,4.5-4.6,4.2c-2.3-0.3-4.1-1.8-3.7-4.5c0.3-2.1,1.5-3.6,3.9-3.5
	C383.6,181.8,384.7,183.7,385.5,185.5z"/>
<path class="st120" d="M337.2,190c-2.7-0.5-3.9-2.1-3.7-4.5c0.2-2.5,1.6-4,4.2-3.7c2.2,0.3,3.2,1.8,3.2,4
	C340.8,188.3,339.3,189.6,337.2,190z"/>
<path class="st6" d="M612.7,171.9c2.4,2.6,4.9,5.2,7.3,7.8C615,179.4,612.3,177.1,612.7,171.9z"/>
<path class="st121" d="M514,255.5c-3.6-0.3-5.6-2.8-5.3-6.3c0.2-3.1,2.3-5.5,5.8-5.3c3.8,0.2,5.6,2.6,5.4,6.3
	C519.7,253.8,517.7,255.5,514,255.5z"/>
<path class="st122" d="M398.5,386.5c-5.2,3.8-8.9,4.4-13.1,4.4c-17.9-0.2-35.8,0-53.6-0.2c-2.3,0-6.4,1.7-6.4-2.2
	c0-3.2,3.8-1.9,6-1.9C353.1,386.4,374.8,386.5,398.5,386.5z"/>
<path class="st123" d="M426.2,390.8c-3.9,0-7.7,0-11.6,0c-1.4,0-3,0.4-3.1-1.9c-0.1-2,0.8-2.5,2.5-2.5c8.5,0.1,16.9,0,25.4,0.1
	c1.3,0,2.5,0.4,2.7,1.8c0.2,2-1.3,2.4-2.8,2.4C434.9,390.8,430.5,390.8,426.2,390.8C426.2,390.8,426.2,390.8,426.2,390.8z"/>
<path class="st124" d="M608.2,187.1c-2.2-0.1-2.8-1.5-2.6-3.3c0.1-1.5,0.6-3,2.4-2.8c2.1,0.2,3.4,1.5,3.1,3.8
	C610.9,186.6,609.8,187.1,608.2,187.1z"/>
<g>
</g>
<g>
</g>
<g>
</g>
<g>
</g>
<g>
</g>
<g>
</g>
<g>
</g>
<g>
</g>
<g>
</g>
<g>
</g>
<g>
</g>
<g>
</g>
<g>
</g>
<g>
</g>
<g>
</g>
</svg>
