<?xml version="1.0" encoding="utf-8"?>
<!-- Generator: Adobe Illustrator 23.0.5, SVG Export Plug-In . SVG Version: 6.00 Build 0)  -->
<svg version="1.1" id="Layer_1" xmlns="http://www.w3.org/2000/svg" xmlns:xlink="http://www.w3.org/1999/xlink" x="0px" y="0px"
	 viewBox="0 0 2810 1797" style="enable-background:new 0 0 2810 1797;" xml:space="preserve">
<style type="text/css">
	.st0{fill:#F0F5FB;}
	.st1{opacity:0.3;}
	.st2{fill:none;stroke:#2C54AC;stroke-width:0.97;stroke-miterlimit:10;stroke-dasharray:3.9964,3.9964;}
	.st3{opacity:0.25;fill:#9DDCF9;}
	.st4{opacity:0.39;}
	.st5{fill:#2C54AC;}
	.st6{fill:#55A3F3;}
	.st7{fill:none;stroke:#55A3F3;stroke-width:0.7771;stroke-miterlimit:10;}
	.st8{opacity:0.4;}
	.st9{fill:none;stroke:#55A3F3;stroke-width:4.3452;stroke-miterlimit:10;}
	.st10{fill:#9DDCF9;}
	.st11{fill:#FF675D;}
	.st12{fill:none;stroke:#FFFFFF;stroke-miterlimit:10;stroke-dasharray:4;}
	.st13{fill:none;stroke:#2C54AC;stroke-miterlimit:10;}
	.st14{fill:none;stroke:#2C54AC;stroke-miterlimit:10;stroke-dasharray:4.0189,4.0189;}
	.st15{fill:#FFFFFF;}
	.st16{fill:#FF4648;}
	.st17{fill:#FF8775;}
	.st18{fill:#73C3FF;}
	.st19{fill:#0A2A6B;}
	.st20{fill:#FF5748;}
	.st21{opacity:0.6;fill:#FF675D;}
	.st22{opacity:0.2;}
</style>
<circle class="st0" cx="1401.5" cy="1416.5" r="1337.5"/>
<image style="overflow:visible;" width="108" height="94" xlink:href="AE4BF834.jpg"  transform="matrix(5.1354 0 0 5.1354 -93.3125 -816.3646)">
</image>
<g>
	<g class="st1">
		<path class="st2" d="M1196,427.8c-45.2,38.4-76,90.6-113.7,136.3c-45.1,54.8-100.8,100.8-163.1,134.9
			c-66,36.1-139.4,59-200.9,102.4c-102.7,72.4-162.2,202-150.3,327.1c12,125.1,95,241,209.6,292.7c39,17.6,81,28.1,119.1,47.7
			c124.9,64.1,196,218.2,332.6,250.7c74.4,17.7,154.5-6.8,216.2-52.1c61.7-45.2,107.1-109.3,144.4-176.1
			c35.9-64.5,69.3-136.9,134.6-171.4c45.4-24,99.4-25.4,147.3-44.1c101.8-39.8,160.2-157.8,148.9-266.5
			c-11.3-108.7-82.1-205.1-171.9-267.4c-54-37.4-116.3-65.5-158.4-115.9c-27.6-33.1-44.6-73.6-66.4-110.8
			C1539.1,371.2,1328.9,314.8,1196,427.8z"/>
	</g>
	<path class="st3" d="M1278.5,421c-49.7,32.3-87,80.1-130.3,120.6c-51.8,48.5-112.9,87.1-179,112.9
		c-70.1,27.4-145.8,40.7-212.3,75.8C645.7,789,570,909.9,565.9,1035.5c-4.2,125.6,63.3,251.2,170.3,317.1
		c36.4,22.4,76.8,38.3,112,62.6c115.6,79.6,166.4,241.6,297.7,291.3c71.5,27.1,154.1,13,221.1-23.9c67-37,120.3-94.6,165.8-156.1
		c43.9-59.3,86.3-126.9,155.4-152.8c48.1-18,101.8-12.5,151.7-24.9c106.1-26.4,179.1-135.9,181.8-245.2
		c2.7-109.3-55.1-213.9-136.2-287.2c-48.8-44.1-107-79.8-142.3-135.3c-23.2-36.4-34.8-78.7-51.7-118.4
		C1626,408.9,1424.8,326.1,1278.5,421z"/>
	<g class="st4">
		<g>
			<path class="st5" d="M1936.2,517.8h57.2c2,0,3.6-1.6,3.6-3.6v-49.2c0-2-1.6-3.6-3.6-3.6h-57.2c-2,0-3.6,1.6-3.6,3.6v49.2
				C1932.6,516.2,1934.2,517.8,1936.2,517.8z"/>
			<path class="st6" d="M1913.2,531.2h40.7c1.4,0,2.6-1.2,2.6-2.6v-36.3c0-1.4-1.2-2.6-2.6-2.6h-40.7c-1.4,0-2.6,1.2-2.6,2.6v36.3
				C1910.6,530,1911.8,531.2,1913.2,531.2z"/>
		</g>
		<g>
			<path class="st5" d="M1348.3,1622.3h40.1c1.4,0,2.5-1.1,2.5-2.5v-34.4c0-1.4-1.1-2.5-2.5-2.5h-40.1c-1.4,0-2.5,1.1-2.5,2.5v34.4
				C1345.8,1621.2,1346.9,1622.3,1348.3,1622.3z"/>
			<path class="st6" d="M1332.2,1631.7h28.5c1,0,1.8-0.8,1.8-1.8v-25.5c0-1-0.8-1.8-1.8-1.8h-28.5c-1,0-1.8,0.8-1.8,1.8v25.5
				C1330.4,1630.9,1331.2,1631.7,1332.2,1631.7z"/>
		</g>
		<g>
			<path class="st5" d="M692.6,942.2h68.4c2.4,0,4.3,1.9,4.3,4.3v58.7c0,2.4-1.9,4.3-4.3,4.3h-68.4c-2.4,0-4.3-1.9-4.3-4.3v-58.7
				C688.3,944.1,690.2,942.2,692.6,942.2z"/>
			<path class="st6" d="M665.1,926.2h48.6c1.7,0,3.1,1.4,3.1,3.1v43.4c0,1.7-1.4,3.1-3.1,3.1h-48.6c-1.7,0-3.1-1.4-3.1-3.1v-43.4
				C662,927.6,663.4,926.2,665.1,926.2z"/>
		</g>
	</g>
	<g transform="translate(0,-952.3622)">
		<path class="st5" d="M1041.3,2322.6l-3.2,11.2c-2.9,0.8-5.7,1.9-8.3,3.4l-10.3-5.7l-9.2,9.1l5.7,10.2c-1.5,2.6-2.6,5.3-3.4,8.2
			l-11.3,3.2v12.9l11.3,3.2c0.8,2.9,2,5.7,3.4,8.2l-5.7,10.2l9.2,9.1l10.3-5.7c2.6,1.5,5.4,2.6,8.3,3.4l3.2,11.2h13l3.2-11.2
			c2.9-0.8,5.7-1.9,8.3-3.4l10.3,5.7l9.2-9.1l-5.7-10.2c1.5-2.6,2.6-5.3,3.4-8.2l11.3-3.2v-12.9l-11.3-3.2c-0.8-2.9-2-5.7-3.4-8.2
			l5.7-10.2l-9.2-9.1l-10.3,5.7c-2.6-1.5-5.4-2.6-8.3-3.4l-3.2-11.2H1041.3z M1072.2,2368.6c0,13.2-10.9,24-24.4,24
			c-13.4,0-24.4-10.8-24.4-24c0-13.2,10.9-24,24.4-24C1061.3,2344.6,1072.2,2355.4,1072.2,2368.6z"/>
	</g>
	<g transform="translate(0,-952.3622)">
		<path class="st7" d="M1125,2208.2l-4.5,15.7c-4.1,1.1-8.1,2.7-11.8,4.8l-14.5-8l-13,12.8l8.1,14.3c-2.1,3.6-3.7,7.5-4.8,11.6
			l-15.9,4.5v18.1l15.9,4.5c1.1,4.1,2.8,8,4.8,11.6l-8.1,14.3l13,12.8l14.5-8c3.7,2.1,7.6,3.7,11.8,4.8l4.5,15.7h18.4l4.5-15.7
			c4.1-1.1,8.1-2.7,11.8-4.8l14.5,8l13-12.8l-8.1-14.3c2.1-3.6,3.7-7.5,4.8-11.6l15.9-4.5V2264l-15.9-4.5c-1.1-4.1-2.8-8-4.8-11.6
			l8.1-14.3l-13-12.8l-14.5,8c-3.7-2.1-7.6-3.7-11.8-4.8l-4.5-15.7H1125z M1168.5,2273c0,18.7-15.4,33.9-34.3,33.9
			c-18.9,0-34.3-15.2-34.3-33.9s15.4-33.9,34.3-33.9C1153.1,2239.2,1168.5,2254.4,1168.5,2273z"/>
	</g>
	<g class="st8">
		<polyline class="st9" points="802.1,412.1 832.7,442.6 909.3,366 		"/>
		<polyline class="st9" points="712.2,412.1 742.7,442.6 819.3,366 		"/>
	</g>
	<g class="st8">
		<polyline class="st9" points="1630.2,1708.8 1660.7,1739.4 1737.3,1662.7 		"/>
		<polyline class="st9" points="1540.2,1708.8 1570.7,1739.4 1647.4,1662.7 		"/>
	</g>
	<g>
		<g>
			<g>
				<path class="st10" d="M1001.5,832.6H631.2c-6.4,0-11.5-5.2-11.5-11.5V558.7c0-6.4,5.2-11.5,11.5-11.5h370.3
					c6.4,0,11.5,5.2,11.5,11.5v262.4C1013,827.5,1007.8,832.6,1001.5,832.6z"/>
				<polygon class="st10" points="853.3,823.2 816.3,908 779.3,823.2 				"/>
			</g>
			<path class="st11" d="M815.4,796.6l-5.2-3.4C805.9,790.3,704,722,704.5,661c0.3-43.4,31.3-65.8,61.7-65.6
				c19.5,0.1,37.6,9.3,50.4,25.1c13-15.6,31.3-24.6,50.8-24.4c30.4,0.2,61.1,23.1,60.8,66.5c-0.4,61-103.2,127.9-107.6,130.7
				L815.4,796.6z"/>
		</g>
	</g>
	<g>
		<g transform="translate(0,-952.3622)">
			<path class="st6" d="M1087,1307.6l-11.7,40.7c-10.7,2.9-20.9,7.1-30.4,12.4l-37.5-20.6l-33.5,33.1l20.9,37
				c-5.4,9.3-9.6,19.4-12.5,30l-41.2,11.5v46.9l41.2,11.5c3,10.6,7.2,20.7,12.5,30l-20.9,37l33.5,33.1l37.5-20.6
				c9.5,5.3,19.7,9.5,30.4,12.4l11.7,40.7h47.5l11.7-40.7c10.7-2.9,20.9-7.1,30.4-12.4l37.5,20.6l33.5-33.1l-20.9-37
				c5.4-9.3,9.6-19.4,12.5-30l41.2-11.5v-46.9l-41.2-11.5c-3-10.6-7.2-20.7-12.5-30l20.9-37l-33.5-33.1l-37.5,20.6
				c-9.5-5.3-19.7-9.5-30.4-12.4l-11.7-40.7H1087z M1110.8,1387.6c48.8,0,88.7,39.3,88.7,87.6c0,48.2-39.9,87.6-88.7,87.6
				c-48.8,0-88.7-39.3-88.7-87.6C1022.1,1426.9,1061.9,1387.6,1110.8,1387.6z"/>
		</g>
		<ellipse class="st12" cx="1110.8" cy="522.8" rx="111.7" ry="110.2"/>
	</g>
	<g>
		<g transform="translate(0,-952.3622)">
			<path class="st13" d="M1886.3,2482.8l-6.6,23c-6.1,1.7-11.8,4-17.2,7l-21.2-11.7l-19,18.7l11.8,21c-3,5.3-5.4,11-7.1,17
				l-23.3,6.5v26.5l23.3,6.5c1.7,6,4.1,11.7,7.1,17l-11.8,21l19,18.7l21.2-11.7c5.4,3,11.1,5.4,17.2,7l6.6,23h26.9l6.6-23
				c6.1-1.7,11.8-4,17.2-7l21.2,11.7l19-18.7l-11.8-21c3-5.3,5.4-11,7.1-17l23.3-6.5v-26.5l-23.3-6.5c-1.7-6-4.1-11.7-7.1-17
				l11.8-21l-19-18.7l-21.2,11.7c-5.4-3-11.1-5.4-17.2-7l-6.6-23H1886.3z M1899.8,2528.1c27.7,0,50.2,22.3,50.2,49.6
				c0,27.3-22.6,49.6-50.2,49.6s-50.2-22.3-50.2-49.6C1849.6,2550.4,1872.1,2528.1,1899.8,2528.1z"/>
		</g>
		<g>
			<ellipse class="st14" cx="1899.8" cy="1625.3" rx="65.7" ry="64.9"/>
		</g>
	</g>
	<g>
		<g>
			<g>
				<g>
					<path class="st5" d="M1982.8,1142.4c0-12.9-10.5-23.4-23.4-23.4h-383.1c-12.9,0-23.4,10.5-23.4,23.4v13.5h430V1142.4z"/>
					<path class="st10" d="M1552.8,1155.9v292.5c0,12.9,10.5,23.4,23.4,23.4h383.1c12.9,0,23.4-10.5,23.4-23.4v-292.5H1552.8z"/>
				</g>
				<path class="st6" d="M1888.5,1137.4c0,4.8-3.9,8.7-8.7,8.7c-4.8,0-8.7-3.9-8.7-8.7c0-4.8,3.9-8.7,8.7-8.7
					C1884.6,1128.7,1888.5,1132.6,1888.5,1137.4z"/>
				<path class="st15" d="M1923.3,1137.4c0,4.8-3.9,8.7-8.7,8.7c-4.8,0-8.7-3.9-8.7-8.7c0-4.8,3.9-8.7,8.7-8.7
					C1919.4,1128.7,1923.3,1132.6,1923.3,1137.4z"/>
				<path class="st16" d="M1958.2,1137.4c0,4.8-3.9,8.7-8.7,8.7c-4.8,0-8.7-3.9-8.7-8.7c0-4.8,3.9-8.7,8.7-8.7
					C1954.3,1128.7,1958.2,1132.6,1958.2,1137.4z"/>
			</g>
		</g>
		<g>
			<path class="st17" d="M1831.3,1284.7h-68c-3.5,0-6.6-2.4-7.6-5.8c-0.9-3.4,0.5-7,3.6-8.8c29.6-17.5,45-37.9,47-62.4
				c0.7-8.5,8.3-15.3,16.9-15.2c8.8,0.1,17,3.7,23.1,9.9c6.2,6.2,9.5,14.5,9.6,23.3c0,0,0,0,0,0v2.6c0,21.4-6.3,35.1-18.1,52.8
				C1836.4,1283.3,1833.9,1284.7,1831.3,1284.7z"/>
			<path class="st17" d="M1914.6,1293.6c0-13.6-11-24.6-24.6-24.6h-126.6c-1.4,0-2.8,0.4-4,1.1c-8.9,5.3-17.9,9.6-25.1,13.1
				c-2.5,1.2-4.9,2.4-7.1,3.4c-2.7,1.3-4.3,4.1-4.3,7v100.6c0,3,1.7,5.7,4.3,7c31.7,15.9,58.1,17.8,88.9,17.8c4.8,0,9.6,0,14.7-0.1
				c5.5-0.1,11.3-0.1,17.3-0.1h24.8c13.6,0,24.6-11,24.6-24.6c0-4.6-1.2-8.8-3.4-12.5c7.1-4.3,11.8-12.1,11.8-21
				c0-4.6-1.2-8.8-3.4-12.5c7.1-4.3,11.8-12.1,11.8-21c0-6.4-2.4-12.2-6.4-16.6C1912.2,1305.9,1914.6,1299.9,1914.6,1293.6z"/>
			<path id="SVGCleanerId_0" class="st18" d="M1705,1377.5v41.4h-15.7v-41.4c0-4.3,3.5-7.9,7.9-7.9
				C1701.4,1369.6,1705,1373.1,1705,1377.5z"/>
			<g>
				<path id="SVGCleanerId_0_1_" class="st18" d="M1705,1377.5v41.4h-15.7v-41.4c0-4.3,3.5-7.9,7.9-7.9
					C1701.4,1369.6,1705,1373.1,1705,1377.5z"/>
			</g>
			<path class="st5" d="M1730.6,1268.9h-67c-4.3,0-7.9,3.5-7.9,7.9v134.1c0,4.3,3.5,7.9,7.9,8h50.3c9.6-0.1,18-5.7,22-13.7
				c1.7-3.3,2.6-7,2.6-11v-117.3C1738.5,1272.5,1735,1268.9,1730.6,1268.9z"/>
			<path class="st19" d="M1705,1376.9v41.9h-15.7v-41.9c0-4.3,3.5-7.9,7.9-7.9C1701.4,1369.1,1705,1372.6,1705,1376.9z"/>
		</g>
	</g>
	<g>
		<path class="st5" d="M1573.4,1460.6l-69.4,38.8c-13.8,7.7-31.3,3.8-40.4-9.2l-237.1-335.1l149.8-83.7l178.6,319.8
			c3.4,6.1,8.8,10.9,15.3,13.5h0C1594.1,1414.7,1596.1,1447.9,1573.4,1460.6z"/>
		<path class="st19" d="M1562.7,1466.5l-69.4,38.8c-13.8,7.7-31.3,3.8-40.4-9.2l-237.1-335.1l149.8-83.7l178.6,319.8
			c3.4,6.1,8.8,10.9,15.3,13.5l0,0C1583.4,1420.7,1585.4,1453.9,1562.7,1466.5z"/>
		
			<ellipse transform="matrix(0.8731 -0.4876 0.4876 0.8731 -380.5392 658.6693)" class="st6" cx="1074.7" cy="1060.2" rx="65.6" ry="179.6"/>
		<g>
			<path class="st10" d="M1481.4,445.9c-85.1,159-211.4,291.9-365.5,384.9c-13.6,33.9,3.3,106.8,44.9,181.3
				c41.6,74.4,94.8,127.1,130.8,133.3c160-82.4,339.4-120.3,519.4-109.3l11.1,0.7l-335.5-600.6L1481.4,445.9z"/>
			<path class="st6" d="M1160.9,1012.1c-41.6-74.4-58.5-147.4-44.9-181.3c-9.6,5.8-19.4,11.5-29.2,17l-99.6,55.6l175.1,313.5
				l99.6-55.6c9.9-5.5,19.8-10.8,29.8-16C1255.6,1139.2,1202.4,1086.5,1160.9,1012.1z"/>
		</g>
		<g class="st1">
			<path class="st6" d="M1384.5,1171.8l-56,31.3c-3.8,2.1-8.6,0.8-10.8-3.1l0,0c-2.1-3.8-0.8-8.6,3.1-10.8l56-31.3
				c3.8-2.1,8.6-0.8,10.8,3.1v0C1389.7,1164.9,1388.4,1169.7,1384.5,1171.8z"/>
			<path class="st6" d="M1399.9,1199.3l-56,31.3c-3.8,2.1-8.6,0.8-10.8-3.1l0,0c-2.1-3.8-0.8-8.6,3.1-10.8l56-31.3
				c3.8-2.1,8.6-0.8,10.8,3.1l0,0C1405,1192.3,1403.7,1197.1,1399.9,1199.3z"/>
			<path class="st6" d="M1415.2,1226.7l-56,31.3c-3.8,2.1-8.6,0.8-10.8-3.1l0,0c-2.1-3.8-0.8-8.6,3.1-10.8l56-31.3
				c3.8-2.1,8.6-0.8,10.8,3.1l0,0C1420.4,1219.7,1419,1224.5,1415.2,1226.7z"/>
			<path class="st6" d="M1430.5,1254.1l-56,31.3c-3.8,2.1-8.6,0.8-10.8-3.1l0,0c-2.1-3.8-0.8-8.6,3.1-10.8l56-31.3
				c3.8-2.1,8.6-0.8,10.8,3.1l0,0C1435.7,1247.1,1434.3,1252,1430.5,1254.1z"/>
			<path class="st6" d="M1445.8,1281.5l-56,31.3c-3.8,2.1-8.6,0.8-10.8-3.1l0,0c-2.1-3.8-0.8-8.6,3.1-10.8l56-31.3
				c3.8-2.1,8.6-0.8,10.8,3.1l0,0C1451,1274.6,1449.6,1279.4,1445.8,1281.5z"/>
			<path class="st6" d="M1461.1,1308.9l-56,31.3c-3.8,2.1-8.6,0.8-10.8-3.1l0,0c-2.1-3.8-0.8-8.6,3.1-10.8l56-31.3
				c3.8-2.1,8.6-0.8,10.8,3.1l0,0C1466.3,1302,1464.9,1306.8,1461.1,1308.9z"/>
			<path class="st6" d="M1476.4,1336.3l-56,31.3c-3.8,2.1-8.6,0.8-10.8-3.1l0,0c-2.1-3.8-0.8-8.6,3.1-10.8l56-31.3
				c3.8-2.1,8.6-0.8,10.8,3.1l0,0C1481.6,1329.4,1480.2,1334.2,1476.4,1336.3z"/>
			<path class="st6" d="M1491.7,1363.8l-56,31.3c-3.8,2.1-8.6,0.8-10.8-3.1l0,0c-2.1-3.8-0.8-8.6,3.1-10.8l56-31.3
				c3.8-2.1,8.6-0.8,10.8,3.1l0,0C1496.9,1356.8,1495.5,1361.6,1491.7,1363.8z"/>
			<path class="st6" d="M1507,1391.2l-56,31.3c-3.8,2.1-8.6,0.8-10.8-3.1l0,0c-2.1-3.8-0.8-8.6,3.1-10.8l56-31.3
				c3.8-2.1,8.6-0.8,10.8,3.1l0,0C1512.2,1384.2,1510.9,1389,1507,1391.2z"/>
		</g>
		<g class="st1">
			<path class="st6" d="M1491.3,941.5c-155.1,44.5-299.9,120.4-431.7,213.7c39.1,48.5,79.7,74.7,102.7,61.8l66.7-37.2l223.9,316.4
				c9.2,12.9,26.6,16.9,40.4,9.2l69.4-38.8c0,0,0,0,0,0l10.7-6c22.6-12.6,20.7-45.8-3.3-55.7c-6.5-2.7-11.8-7.4-15.3-13.5
				l-162.5-290.9c132.9-50.8,275.6-73,418.7-64.3l11.1,0.7l-0.2-0.3c17.7,3.7,33.5,2.2,46.8-5.2c30.8-17.2,42-63.2,35.4-124.9
				C1766.6,889,1624.9,903.2,1491.3,941.5z"/>
		</g>
		
			<ellipse transform="matrix(0.8731 -0.4876 0.4876 0.8731 -133.905 915.9548)" class="st6" cx="1692.2" cy="715.2" rx="138.1" ry="362"/>
		
			<ellipse transform="matrix(0.8731 -0.4876 0.4876 0.8731 -133.9047 915.9566)" class="st19" cx="1692.2" cy="715.2" rx="123.4" ry="335.2"/>
		<g>
			<path class="st5" d="M1818.1,566.1l-56.2,26.7c13.1,19.5,25.9,40.3,38,62.1c3.1,5.5,6.1,11.1,9.1,16.6l49.9-32.3
				c18.5-12,24.6-36.4,13.8-55.7h0C1862,564.3,1838.1,556.6,1818.1,566.1z"/>
			<path class="st5" d="M1761.9,592.8l-216.9,103.1c11.3,26,24.4,52.7,39.4,79.4c5.8,10.3,11.7,20.4,17.7,30.3L1809,671.6
				c-2.9-5.5-6-11.1-9.1-16.6C1787.8,633.1,1775,612.4,1761.9,592.8z"/>
		</g>
	</g>
	<g>
		<polygon class="st19" points="926.7,1468.9 1139.4,1538.1 1273.6,1363.8 1320.3,1399.9 1165.7,1651.3 908.1,1594.1 		"/>
		<path class="st17" d="M773.9,1344.8c0.2,26.9,1.2,52.9,2.8,79.8c14.8,20.8,35.2,38.5,59.7,45.8c17.2,5.1,35.6,4.8,53.5,2.7
			c15.8-1.9,30.9-6,43.8-15.2c-7.3-11.4-14.8-23.3-17.3-36.6c-1.7-8.7-3.1-97.7-3.1-97.7s40.5-11.2,55.7-20.1
			c4.6-2.7,9.5-5.8,11.8-10.6c2.3-4.7,1.9-10.2,1.2-15.4c-1.2-9.4-3.1-18.9-5.7-28.1c-17.5-1.6-32.8-8.5-46.4-19.7
			c12.5-0.4,25.5-1.9,37.7-4.7c-2.4-4.4-3.8-9.5-5.6-14.3c9.4-10.7,18.9-21.8,27.5-33.1c-17.6-9-35.3-19.5-51.9-30.1
			c-7-17.6-16.4-34.2-27.7-49.4c-4.7-6.4-13.4-9.5-21.1-11.4c-16.3-3.9-33.7-1.8-49.2,4.4c-15.5,6.3-29.2,16.6-40.6,28.9
			c-20.2,21.8-33.3,49.9-36.9,79.4c-2.6,20.7-0.6,41.7,1.9,62.4C767.4,1289.7,773.7,1316.7,773.9,1344.8z"/>
		<path class="st19" d="M909.9,1100.5c0,0-55.1,30-86.6,29.5c3.1,10.6,7.4,20.8,11.7,31c8.1,19.2,14.9,37.6,23,56.8
			c-7,3.5-14.6,6-22.1,8.3c-5.6-13-11.7-26.7-17.3-39.8c-11.8-2.9-24.7,5-29.2,16.3c-4.5,11.3-1.4,24.7,6,34.4
			c4.1,5.4,9.6,9.9,16.1,12.1c7,2.4,15.2,1.5,22.7,1.1c12.5,40,6.8,83.7-16,118.9c0.9-11.4,0.4-23-3.4-33.8
			c-7.5,22.1-20.4,41-38.7,55.4c-1.2-22.7-11.4-44-24.4-62.6c-13-18.6-28.9-35-43.3-52.5s-27.4-36.8-33.5-58.7
			c-6.1-21.9-5.7-48.7,7.7-67c-10.8-10.9-11.7-29.1-5-42.9c6.7-13.8,19.8-23.6,33.7-30.1c13.9-6.5,29-10,43.7-14.5
			c21.4-6.6,42.1-15.4,61.7-26.2c16.5-9.1,33-19.9,51.8-21.7c14-1.3,27.9,2.6,40.9,7.7c18,7.1,36.4,18.2,42.9,36.4
			c5.3,14.9,0,30.6-7.6,44.4c0.4-10.4-1.4-22-6.9-30.8c2,16.6-1.3,35.7-13.8,46.9C918.4,1109.8,909.9,1100.5,909.9,1100.5z"/>
		<path class="st6" d="M999.3,1797.5c0,0-4.3-164.4-19.6-231.8c-15.4-67.4-52.6-118.3-52.6-118.3l-47.2,10.9l46.7,339.2H999.3z"/>
		<path class="st19" d="M671,1797.5l105-406.8c0,0,86,14.5,121,58c35,43.5,49.7,91.3,49.7,91.3l168.8,75.2l202.6-158l47.1,66.1
			l-230.9,183.2l-180-39.3l16.1,130.3H671z"/>
		<g>
			<polygon class="st10" points="1291.7,1477.7 1247.7,1512.2 1203.7,1546.7 1115.7,1615.5 1115.5,1615.6 1115.3,1615.5 
				1039.6,1583.4 963.9,1551.2 888.2,1519 812.6,1486.7 888.4,1518.5 964.2,1550.6 1039.9,1582.6 1115.6,1614.7 1115.2,1614.8 
				1203.4,1546.2 1247.5,1511.9 			"/>
		</g>
		<g>
			<path class="st10" d="M954.3,1667.2c-10.3-2.3-20.6-4.7-30.9-7.1l-30.8-7.3l-30.8-7.6l-15.4-3.9l-15.3-4l15.5,3.5l15.4,3.6
				l30.8,7.3l30.8,7.6C933.8,1661.9,944.1,1664.5,954.3,1667.2z"/>
		</g>
		<polygon class="st19" points="913.2,1323.5 879.9,1332.5 913.5,1339.4 		"/>
		<path class="st19" d="M919.4,1168c0,5-4.1,9.1-9.1,9.1c-5,0-9.1-4.1-9.1-9.1c0-5,4.1-9.1,9.1-9.1
			C915.3,1158.9,919.4,1163,919.4,1168z"/>
		<g>
			<path class="st19" d="M875.5,1169.6c-0.1-5.9,1-11.8,3.1-17.4c1.1-2.8,2.4-5.5,4-8.1c1.6-2.6,3.4-5,5.4-7.3
				c2-2.3,4.2-4.4,6.7-6.3c2.4-1.9,5.1-3.5,7.9-4.6c2.8-1.2,5.8-2,8.8-2.4c3-0.4,6.1-0.5,9.1,0l0,0.5c-2.8,0.9-5.6,1.9-8.2,2.9
				c-2.6,1.1-5.2,2.3-7.6,3.6c-2.4,1.3-4.8,2.7-7.2,4.1c-2.4,1.5-4.6,3.1-6.6,5c-2,1.9-3.9,4-5.5,6.3c-1.7,2.3-3.2,4.7-4.4,7.3
				c-2.6,5.1-4.2,10.7-4.9,16.5L875.5,1169.6z"/>
		</g>
		<g>
			<path class="st20" d="M828.3,1241.2c-4.9-1.2-10.1-2.7-13.3-6.7c-1.1-1.4-1.9-3.1-1.6-4.9c0.4-2.9,3.5-4.6,6.3-5.1
				c2.5-0.5,5.1-0.4,7.6,0.2c-1.9-6-4.6-11.8-8.1-17c-2.1-3.3-4.7-6.5-8.3-8c-3.2-1.4-7.1-1.2-10.2,0.6c-3.1,1.7-5.3,4.9-5.8,8.3
				c0,0-3.4,11.9,9.1,25.5C816.6,1247.6,828.3,1241.2,828.3,1241.2z"/>
			<g>
				<path class="st19" d="M795,1208.5c0.5-4.3,3.7-8.2,7.9-9.5c2.1-0.7,4.4-0.8,6.5-0.2c2.2,0.5,4.1,1.7,5.8,3.2
					c1.6,1.5,3,3.2,4.2,5c1.2,1.8,2.3,3.7,3.4,5.6c2.1,3.8,3.8,7.8,5,12l0.2,0.8l-0.8-0.2c-2.9-0.7-6-0.7-8.8,0.2
					c-1.4,0.5-2.7,1.2-3.6,2.3c-0.9,1.1-1.3,2.6-0.9,4c0.4,1.4,1.2,2.7,2.3,3.7c1,1.1,2.3,2,3.6,2.7c2.7,1.5,5.6,2.3,8.6,3.2
					c-3-0.7-6-1.4-8.8-2.8c-1.4-0.7-2.7-1.6-3.8-2.7c-1.1-1.1-2.1-2.4-2.5-4c-0.5-1.6-0.1-3.4,0.9-4.7c1-1.3,2.5-2.1,4-2.6
					c3-1,6.3-1,9.3-0.3l-0.6,0.6c-1.3-4.1-3-8-5-11.8c-1-1.9-2.1-3.7-3.3-5.5c-1.2-1.8-2.5-3.5-4-4.9c-1.5-1.4-3.3-2.6-5.4-3.1
					c-2-0.6-4.2-0.5-6.2,0.1C799,1200.6,795.8,1204.3,795,1208.5z"/>
			</g>
		</g>
		<path class="st21" d="M925.2,1207.6c1.3,5.4-5.4,11.5-14.9,13.7c-9.5,2.2-18.2-0.4-19.4-5.8c-1.3-5.4,5.4-11.5,14.9-13.7
			C915.3,1199.7,924,1202.2,925.2,1207.6z"/>
		<g class="st22">
			<g>
				<path class="st10" d="M938.5,1073.1c-1.9-6-5.6-11.2-10-15.5c-2.2-2.2-4.6-4.2-7-6.1c-2.5-1.9-5-3.7-7.6-5.3
					c-5.3-3.2-11-5.8-17.1-6.9c-3-0.5-6.1-0.7-9.2-0.4c-3.1,0.3-6.1,1.1-9,2.1c-5.8,2.1-11.2,5.4-16.4,8.7
					c-5.2,3.4-10.4,6.8-15.8,10c-10.7,6.4-21.8,12.1-33.5,16.7c-11.6,4.6-23.8,7.8-36.1,9.8c-12.3,2.1-24.7,3.4-36.7,6.8
					c-6,1.7-11.8,3.8-17.3,6.7c-5.5,2.9-10.6,6.5-14.9,11c-4.3,4.5-7.7,9.8-9.8,15.7c-2.1,5.8-2.8,12.2-1.7,18.4
					c-1.3-6.1-0.6-12.5,1.4-18.4c2-5.9,5.4-11.3,9.7-15.9c4.3-4.6,9.4-8.3,15-11.2c5.5-2.9,11.4-5.1,17.4-6.8
					c12-3.4,24.5-4.9,36.7-7c12.3-2,24.3-5.3,35.9-9.9c11.6-4.5,22.7-10.1,33.4-16.5c5.4-3.2,10.6-6.5,15.8-9.9
					c5.2-3.4,10.6-6.6,16.6-8.7c3-1.1,6-1.8,9.2-2.1c3.1-0.3,6.3-0.1,9.4,0.4c6.2,1.1,12,3.8,17.3,7.1c2.6,1.7,5.2,3.5,7.6,5.4
					c2.4,2,4.8,4,7,6.2C933.1,1061.8,936.8,1067.1,938.5,1073.1z"/>
			</g>
			<g>
				<path class="st10" d="M917.5,1109.9c3.9-4.4,6.1-10.1,6.5-15.9c0.5-5.8-0.7-11.7-3-16.9c-1.2-2.6-2.7-5.1-4.5-7.4
					c-1.8-2.3-3.9-4.3-6.2-6c-2.3-1.7-4.9-3.1-7.7-3.8c-1.4-0.4-2.8-0.6-4.2-0.6c-1.4,0-2.9,0.1-4.3,0.3c-5.7,1-10.9,3.9-15.6,7.2
					c-4.8,3.3-9.3,7-13.6,10.9c-8.7,7.7-17.3,15.8-27.5,21.6c-5.1,2.9-10.7,4.9-16.4,6.2c-5.7,1.2-11.6,1.8-17.4,1.9
					c-11.7,0.3-23.3-0.8-35-0.5c-2.9,0.1-5.8,0.3-8.7,0.6c-2.9,0.3-5.8,0.7-8.6,1.4c-5.7,1.2-11.2,3.2-16.2,6.1
					c-5,2.9-9.4,6.9-13.2,11.3c-3.8,4.4-7.2,9.2-10.5,13.9c3.3-4.8,6.6-9.6,10.4-14.1c3.8-4.5,8.1-8.5,13.1-11.5
					c5.1-3,10.6-5,16.3-6.3c2.9-0.6,5.7-1.1,8.7-1.4c2.9-0.3,5.8-0.5,8.7-0.6c11.7-0.4,23.3,0.7,35,0.3c5.8-0.2,11.6-0.7,17.3-2
					c5.6-1.3,11.1-3.3,16.1-6.2c10.1-5.7,18.7-13.7,27.5-21.4c4.4-3.8,8.9-7.6,13.8-10.8c4.8-3.3,10.1-6.3,15.9-7.3
					c1.5-0.2,2.9-0.3,4.4-0.3c1.5,0.1,3,0.3,4.4,0.7c2.9,0.8,5.5,2.2,7.9,3.9c2.4,1.8,4.5,3.8,6.3,6.2c1.8,2.3,3.3,4.9,4.5,7.5
					c2.3,5.4,3.4,11.3,2.8,17.2C923.8,1099.9,921.5,1105.6,917.5,1109.9z"/>
			</g>
			<g>
				<path class="st10" d="M831.5,1130l-6.3,0.2l-6.3,0.3c-4.2,0.2-8.4,0.4-12.6,0.7c-8.4,0.6-16.7,1.2-25.1,2.1
					c-8.4,0.8-16.7,1.8-25,2.8c-4.2,0.5-8.3,1.1-12.5,1.7l-6.2,0.9l-6.2,1c8.2-1.8,16.5-3.2,24.8-4.5c8.3-1.2,16.7-2.2,25-3.1
					c8.4-0.8,16.8-1.4,25.1-1.8C814.7,1130,823.1,1129.8,831.5,1130z"/>
			</g>
			<g>
				<path class="st10" d="M750.6,1151.2c2.9,2,5.6,4.4,8.1,7.1c2.4,2.6,4.5,5.6,6.3,8.7c1.8,3.1,3.4,6.4,4.6,9.7
					c1.3,3.4,2.3,6.8,3.1,10.3c0.8,3.5,1.5,7,1.8,10.6c0.2,1.8,0.3,3.6,0.4,5.4l0.2,2.7l0,2.7c0.2,7.2-0.6,14.4-1.8,21.4
					c-2.6,14.1-7.9,27.7-15.3,40l-2.9,4.5c-1,1.5-2.1,2.9-3.1,4.4l-1.6,2.2c-0.6,0.7-1.1,1.4-1.7,2.1c-1.2,1.4-2.3,2.8-3.5,4.1
					c-4.8,5.3-10.2,10.1-15.9,14.4c5.6-4.5,10.8-9.4,15.5-14.7c1.2-1.3,2.3-2.8,3.4-4.1c0.6-0.7,1.1-1.4,1.7-2.1l1.6-2.2
					c1-1.5,2.1-2.9,3.1-4.4l2.8-4.5c0.5-0.7,0.9-1.5,1.3-2.3l1.3-2.3l1.3-2.3c0.4-0.8,0.8-1.6,1.2-2.4c0.7-1.6,1.5-3.2,2.3-4.8l2-5
					c0.7-1.6,1.2-3.4,1.8-5c0.5-1.7,1.2-3.4,1.6-5.1l1.4-5.2l1-5.2c1.2-7,2.1-14.1,1.9-21.2l0-2.7l-0.2-2.7
					c-0.1-1.8-0.2-3.6-0.4-5.3c-0.4-3.5-1-7.1-1.7-10.5c-0.7-3.5-1.8-6.9-3-10.2c-1.2-3.3-2.7-6.6-4.5-9.7c-1.8-3.1-3.7-6.1-6.1-8.7
					C756.1,1155.7,753.5,1153.3,750.6,1151.2z"/>
			</g>
			<g>
				<path class="st10" d="M723,1159.7c2.1,4.3,3.8,8.8,5.2,13.4c1.3,4.6,2.2,9.4,2.7,14.2c1,9.6,0.2,19.4-2.3,28.7
					c-2.5,9.3-6.7,18.2-12.3,26c-2.8,3.9-5.9,7.6-9.4,11c-3.4,3.4-7.2,6.4-11.2,9.1c3.9-2.8,7.5-6,10.8-9.4
					c3.3-3.4,6.4-7.1,9.1-11.1c5.4-7.9,9.5-16.6,11.9-25.9c2.5-9.2,3.3-18.9,2.5-28.4C729.3,1177.8,726.9,1168.4,723,1159.7z"/>
			</g>
			<g>
				<path class="st10" d="M679.5,1229.2c4.9-4.2,9.1-9.1,12.5-14.6c3.4-5.4,6-11.3,7.7-17.5c1.8-6.1,2.6-12.6,2.6-19
					c0-6.4-1-12.8-3-19l1.5,4.6l1.1,4.7l0.7,4.8l0.3,4.8c0.2,6.5-0.7,13-2.4,19.2c-1.8,6.2-4.5,12.2-8,17.6l-2.8,3.9l-3.1,3.7
					l-3.4,3.4L679.5,1229.2z"/>
			</g>
		</g>
		<g>
			<path class="st17" d="M1318,1457.1l65.2-66.2l40.5,60c0,0-17.9,17.6-41.5,27.8c-23.6,10.2-39.6,13.1-39.6,13.1L1318,1457.1z"/>
			<path class="st17" d="M1383.6,1391.6c19.2-15.1,40-29.9,64.2-33.8c1.8-0.3,3.7-0.5,5.4,0.2c1.7,0.7,3,2.5,2.5,4.3
				c-0.2,0.7-0.7,1.3-1.2,1.8c-1.8,1.7-4,3-6.2,4.1c-20.4,10.7-39.9,23.1-58.2,37.2c24.1-11.1,47.9-22.1,74.3-24.5
				c4.1-0.4,8.3-0.5,12,1.2c1,0.4,1.9,1.1,2.1,2.2c0.3,1.5-1.1,2.6-2.3,3.4c-11,7.1-24,10.1-36.3,14.3
				c-14.4,4.8-28.3,11.2-41.4,19.1c28.5-9.5,55.6-18.2,85.5-20.6c0.5,0,1-0.1,1.4-0.1c4.7-0.3,7.1,5.7,3.5,8.7
				c-2.6,2.2-5.7,3.9-8.6,5.1c-5,1.9-10.1,3.5-15.3,4.6c-3.4,0.7-6.8,1.3-10.2,2.3c-3.6,1-7,2.5-10.3,4
				c-11.6,5.1-23.2,10.1-34.9,15.2c23.2-8.2,46.6-13.4,71.2-14.2c1.6-0.1,2.5,1.8,2.7,3.4s-0.7,3.1-2,4.1c-1.2,1-2.7,1.5-4.1,2
				c-7.3,2.3-14.9,3.7-22.5,3.8c-8.7,0.2-16.9,5.8-24.6,9.9c-3.9,2.1-7.9,4.5-12.3,4.3c-3.2,0.7-7.3,0.2-10.3-1.2
				c-10-4.7-18.2-13.1-22.6-23.2c-4.4-10.1-5.1-21.8-1.8-32.3"/>
		</g>
		<polygon class="st17" points="1273.6,1363.8 1323.3,1313.1 1365.2,1372.1 1320.3,1399.9 		"/>
		<path class="st17" d="M1273.6,1363.8c0,0,15.6-36.6,28.2-46.1c12.6-9.5,43.7-19,48.6-16.9s0.5,16.8-10,22.9
			c-10.4,6.1-21,13.6-21,13.6L1273.6,1363.8z"/>
		<g>
			<path class="st19" d="M1333.7,1327.8c-2.9,1.6-5.9,3.1-8.8,4.6c-3,1.5-5.9,3-8.9,4.4l0.3-0.5c0,1.6,0,3.3,0,4.9
				c-0.1,1.6-0.2,3.3-0.3,4.9c-0.2,1.6-0.4,3.3-0.7,4.9c-0.4,1.6-0.8,3.2-1.6,4.7c0.6-1.5,0.9-3.1,1.1-4.7c0.2-1.6,0.4-3.2,0.4-4.9
				c0.2-3.2,0.2-6.5,0.2-9.7l0-0.3l0.3-0.1c3-1.4,6-2.9,9.1-4.2C1327.6,1330.4,1330.7,1329,1333.7,1327.8z"/>
		</g>
	</g>
	<g>
		<g>
			<polygon class="st10" points="1697.3,345.7 1552.7,556.6 1692.3,342.3 			"/>
		</g>
		<g>
			<polygon class="st10" points="1927.9,340.2 1564,631.5 1924.1,335.6 			"/>
		</g>
		<g>
			<polygon class="st10" points="1953.7,846.7 1694.4,886 1952.7,840.8 			"/>
		</g>
		<g>
			<polygon class="st10" points="2013.8,677.3 1640.4,833.2 2011.4,671.8 			"/>
		</g>
	</g>
</g>
<g>
</g>
<g>
</g>
<g>
</g>
<g>
</g>
<g>
</g>
<g>
</g>
<g>
</g>
<g>
</g>
<g>
</g>
<g>
</g>
<g>
</g>
</svg>
