<?xml version="1.0" encoding="utf-8"?>
<!-- Generator: Adobe Illustrator 23.0.5, SVG Export Plug-In . SVG Version: 6.00 Build 0)  -->
<svg version="1.1" id="Capa_1" xmlns="http://www.w3.org/2000/svg" xmlns:xlink="http://www.w3.org/1999/xlink" x="0px" y="0px"
	 viewBox="0 0 389.8 389.8" style="enable-background:new 0 0 389.8 389.8;" xml:space="preserve">
<style type="text/css">
	.st0{fill:#EDF7FB;}
	.st1{fill:#325E96;}
	.st2{fill:#00487A;}
	.st3{fill:#6D98D0;stroke:#6D98D0;stroke-width:6.57;stroke-linecap:round;stroke-linejoin:round;stroke-miterlimit:10;}
	
		.st4{fill:none;stroke:#575756;stroke-width:3.4651;stroke-linecap:round;stroke-linejoin:round;stroke-miterlimit:10;stroke-dasharray:0.1149,9.7941;}
	.st5{fill:#FFFFFF;stroke:#575756;stroke-width:2.4485;stroke-miterlimit:10;}
	.st6{fill:#481E0F;}
	.st7{fill:#8E5133;}
	.st8{fill:#F4F2F3;}
	.st9{fill:#E52A1E;}
	.st10{fill:#652C1E;}
	.st11{fill:#52240F;}
	.st12{fill:#FCD4A6;}
	.st13{fill:#9D9D9C;}
	.st14{fill:#72341D;}
	.st15{fill:#212121;}
	.st16{fill:#D28C5D;}
	.st17{fill:#282727;}
	.st18{fill:#DADADA;}
	.st19{fill:#571D10;}
	.st20{opacity:0.3;}
	.st21{fill:#FFFFFF;}
	.st22{fill:#C58B5B;}
	.st23{fill:#2A0700;}
	.st24{fill:#E30613;}
	.st25{fill:#878787;}
</style>
<circle class="st0" cx="194.3" cy="201.3" r="183.4"/>
<path class="st1" d="M325.3,222.3c0.4-4.3,0.7-8.7,0.7-13.1c0-4.4-0.2-8.8-0.6-13.1c-40-14.2-47.9-32.6-29.3-70.4
	c-5.3-6.4-11.2-12.3-17.6-17.6c-37.8,18.5-56.2,10.6-70.3-29.4c-4.3-0.4-8.7-0.7-13.1-0.7c-4.4,0-8.8,0.2-13.1,0.6
	c-14.2,40-32.6,47.9-70.4,29.3c-6.4,5.3-12.3,11.2-17.6,17.5c18.5,37.9,10.6,56.3-29.5,70.3c-0.4,4.3-0.7,8.7-0.7,13.1
	c0,4.4,0.2,8.8,0.6,13.1c40,14.2,47.9,32.6,29.3,70.4c5.3,6.4,11.2,12.3,17.6,17.6c19.9-9.7,34.5-12.2,45.8-6.4v-12.4
	c-31.1-14.3-52.7-45.8-52.7-82.3c0.1-50,40.6-90.4,90.6-90.3c50,0.1,90.4,40.6,90.3,90.6c0,36.4-21.6,67.7-52.6,82v12.3
	c11.3-5.5,25.8-3.1,45.5,6.7c6.4-5.3,12.3-11.1,17.6-17.6C277.4,254.7,285.2,236.3,325.3,222.3z M88.9,216.7c-4.4,0-7.9-3.6-7.9-7.9
	c0-4.4,3.5-7.9,7.9-7.9c4.4,0,7.9,3.6,7.9,7.9C96.8,213.2,93.3,216.7,88.9,216.7z M114.3,278.2c3.1-3.1,8.1-3.1,11.2,0
	c3.1,3.1,3.1,8.1,0,11.2c-3.1,3.1-8.1,3.1-11.2,0C111.2,286.3,111.2,281.3,114.3,278.2z M125.7,139.5c-3.1,3.1-8.1,3.1-11.2,0
	c-3.1-3.1-3.1-8.1,0-11.2c3.1-3.1,8.1-3.1,11.2,0C128.8,131.4,128.7,136.4,125.7,139.5z M195,110.9c-4.4,0-7.9-3.6-7.9-7.9
	c0-4.4,3.6-7.9,7.9-7.9c4.4,0,7.9,3.5,7.9,7.9C203,107.4,199.4,110.9,195,110.9z M275.6,139.7c-3.1,3.1-8.1,3.1-11.2,0
	c-3.1-3.1-3.1-8.1,0-11.2c3.1-3.1,8.1-3.1,11.2,0C278.7,131.6,278.7,136.6,275.6,139.7z M275.4,289.6c-3.1,3.1-8.1,3.1-11.2,0
	c-3.1-3.1-3.1-8.1,0-11.2c3.1-3.1,8.1-3.1,11.2,0C278.4,281.5,278.4,286.5,275.4,289.6z M300.9,201.2c4.4,0,7.9,3.6,7.9,7.9
	c0,4.4-3.5,7.9-7.9,7.9c-4.4,0-7.9-3.6-7.9-7.9C293,204.7,296.5,201.2,300.9,201.2z"/>
<g>
	<path class="st2" d="M234,315.9c0,4.7-3.8,8.5-8.5,8.5h-61.3c-4.7,0-8.5-3.8-8.5-8.5l0,0c0-4.7,3.8-8.4,8.5-8.4h61.3
		C230.2,307.4,234,311.2,234,315.9L234,315.9z"/>
	<path class="st2" d="M228.5,335.1c0,4.7-3.8,8.5-8.5,8.5h-50.2c-4.7,0-8.5-3.8-8.5-8.5l0,0c0-4.7,3.8-8.4,8.5-8.4H220
		C224.7,326.7,228.5,330.4,228.5,335.1L228.5,335.1z"/>
	<path class="st2" d="M222.4,354.3c0,4.7-3.8,8.5-8.4,8.5h-38c-4.7,0-8.5-3.8-8.5-8.5l0,0c0-4.7,3.8-8.5,8.5-8.5h38
		C218.6,345.9,222.4,349.7,222.4,354.3L222.4,354.3z"/>
</g>
<g>
	<line class="st3" x1="194.9" y1="53.2" x2="194.9" y2="27.1"/>
</g>
<g>
	<line class="st3" x1="343" y1="201.2" x2="369.1" y2="201.2"/>
	<line class="st3" x1="20.8" y1="201.2" x2="46.8" y2="201.2"/>
</g>
<g>
	<line class="st3" x1="90.2" y1="96.5" x2="71.8" y2="78.1"/>
	<line class="st3" x1="318.1" y1="324.4" x2="299.6" y2="305.9"/>
</g>
<g>
	<line class="st3" x1="299.6" y1="96.5" x2="318.1" y2="78.1"/>
	<line class="st3" x1="71.8" y1="324.4" x2="90.2" y2="305.9"/>
</g>
<g>
	<path class="st4" d="M242.7,208.6c0,26.4-21.4,47.8-47.8,47.8c-26.4,0-47.7-21.4-47.7-47.8c0-26.4,21.4-47.7,47.7-47.7
		C221.3,160.9,242.7,182.3,242.7,208.6z"/>
	<g>
		<path class="st5" d="M220.5,166.2c0,14.1-11.4,25.6-25.6,25.6c-14.1,0-25.6-11.4-25.6-25.6c0-14.1,11.4-25.6,25.6-25.6
			C209,140.7,220.5,152.1,220.5,166.2z"/>
		<path class="st5" d="M220.5,259.7c0,14.1-11.4,25.6-25.6,25.6c-14.1,0-25.6-11.4-25.6-25.6c0-14.1,11.4-25.6,25.6-25.6
			C209,234.1,220.5,245.6,220.5,259.7z"/>
		<path class="st5" d="M241.7,238.5c-14.1,0-25.6-11.4-25.6-25.6c0-14.1,11.4-25.6,25.6-25.6c14.1,0,25.6,11.4,25.6,25.6
			C267.2,227.1,255.8,238.5,241.7,238.5z"/>
		<path class="st5" d="M148.2,238.5c-14.1,0-25.6-11.4-25.6-25.6c0-14.1,11.4-25.6,25.6-25.6c14.1,0,25.6,11.4,25.6,25.6
			C173.7,227.1,162.3,238.5,148.2,238.5z"/>
	</g>
	<g>
		<path class="st6" d="M206.5,158.6C206.5,158.6,206.5,158.6,206.5,158.6L206.5,158.6C206.5,158.5,206.5,158.5,206.5,158.6
			L206.5,158.6c0-0.8-0.5-1.5-1.2-1.8c0.6-0.5,0.8-1.3,0.5-2.1v0c-0.3-0.8-1-1.3-1.8-1.3c0.4-0.7,0.3-1.5-0.2-2.1c0,0,0,0,0,0
			c-0.5-0.6-1.4-0.8-2.1-0.6c0.1-0.8-0.2-1.6-1-2l0,0c-0.7-0.4-1.6-0.3-2.2,0.2c-0.2-0.8-0.8-1.4-1.6-1.5c-0.8-0.1-1.6,0.2-2,0.9
			c-0.4-0.7-1.2-1-2-0.9l0,0c-0.8,0.1-1.4,0.8-1.6,1.5c-0.6-0.5-1.5-0.6-2.2-0.2l0,0c-0.7,0.4-1.1,1.2-1,2c-0.7-0.2-1.6,0-2.1,0.6
			l0,0c-0.5,0.6-0.6,1.5-0.2,2.2c-0.8,0-1.5,0.5-1.8,1.3c0,0,0,0,0,0c-0.3,0.8,0,1.6,0.6,2.1c-0.7,0.3-1.2,1-1.2,1.8v0
			c0,0.8,0.5,1.5,1.2,1.8c-0.6,0.5-0.8,1.4-0.5,2.1l0,0c0.3,0.8,1,1.3,1.8,1.3c-0.4,0.7-0.3,1.5,0.2,2.2c0,0,0,0,0,0
			c0.5,0.6,1.4,0.8,2.1,0.6c-0.1,0.8,0.2,1.6,1,2l0,0c0.7,0.4,1.6,0.3,2.2-0.2c0.2,0.8,0.8,1.4,1.6,1.5l0,0c0.8,0.1,1.6-0.2,2-0.9
			c0.3,0.6,1,0.9,1.7,0.9c0.1,0,0.2,0,0.3,0l0,0c0.8-0.1,1.4-0.8,1.6-1.5c0.6,0.5,1.5,0.6,2.2,0.2l0,0c0.7-0.4,1.1-1.2,1-2
			c0.7,0.2,1.6,0,2.1-0.6l0,0c0.5-0.6,0.6-1.5,0.2-2.2c0.8,0,1.5-0.5,1.8-1.3c0,0,0,0,0-0.1c0.3-0.8,0-1.6-0.5-2.1
			C206,160.1,206.5,159.4,206.5,158.6L206.5,158.6C206.5,158.6,206.5,158.6,206.5,158.6z"/>
		<g>
			<polygon class="st7" points="196.6,170.2 194.5,172.1 192.5,170.2 192.5,166.2 196.6,166.2 			"/>
			<g>
				<path class="st7" d="M202,161.6c0,0,0.2,0,0.3,0c0.3,0,0.5-0.5,0.6-0.8c0.2-0.6,0.3-1.1,0.3-1.3c0-0.3-0.1-0.9-0.5-0.9
					c-0.5,0-0.8,0.5-0.8,0.5V161.6z"/>
				<path class="st7" d="M187.2,161.6c0,0-0.2,0-0.3,0c-0.3,0-0.5-0.5-0.6-0.8c-0.2-0.6-0.3-1.1-0.3-1.3c0-0.3,0.1-0.9,0.5-0.9
					c0.5,0,0.7,0.5,0.7,0.5V161.6z"/>
			</g>
			<path class="st7" d="M202.1,154.7c0,0-0.2-2.7-2.8-4.5c-1-0.7-2.7-1.3-4.6-1.2v0c0,0,0,0,0,0c0,0,0,0,0,0l0,0c0,0,0,0,0,0h0v0
				c0,0,0,0,0,0c0,0,0,0,0,0v0c-1.9,0-3.6,0.5-4.6,1.2c-2.6,1.8-2.8,4.5-2.8,4.5s-1.1,4.5,0.8,8.6c0.3,0.7,0.8,2.2,3,4.1
				c1.5,1.2,2.5,1.7,3.7,1.7l0,0c0,0,0,0,0,0c1.2,0,2.3-0.4,3.7-1.7c2.2-1.9,2.7-3.4,3-4.1C203.2,159.3,202.1,154.7,202.1,154.7z"/>
			<g>
				<g>
					<g>
						<path class="st8" d="M203.1,161.6c0,0.3-0.3,0.6-0.6,0.6c-0.3,0-0.6-0.3-0.6-0.6c0-0.3,0.3-0.6,0.6-0.6
							C202.8,161,203.1,161.2,203.1,161.6z"/>
					</g>
					<g>
						<path class="st8" d="M187.5,161.6c0,0.3-0.3,0.6-0.6,0.6c-0.3,0-0.6-0.3-0.6-0.6c0-0.3,0.3-0.6,0.6-0.6
							C187.2,161,187.5,161.2,187.5,161.6z"/>
					</g>
				</g>
			</g>
		</g>
		<g>
			<g>
				<g>
					<polygon class="st7" points="202.6,185.3 205.9,185.3 204,172.4 200.8,171 201.9,179.7 					"/>
				</g>
			</g>
			<g>
				<g>
					<polygon class="st7" points="186.6,185.3 187.3,179.7 188.4,171 185.2,172.4 183.3,185.3 					"/>
				</g>
			</g>
		</g>
		<polygon class="st9" points="187.5,178.9 188.4,171 185.2,172.4 184.2,177.6 		"/>
		<polygon class="st9" points="201.7,178.9 200.8,171 204,172.4 205,177.6 		"/>
		<polygon class="st9" points="188,185.3 201.4,185.3 201.8,180.8 201.8,171.6 200.7,171 196.6,170.2 194.5,171.8 192.5,170.2 
			188.5,171 187.3,171.5 187.5,178.1 		"/>
		<path class="st10" d="M202.6,157.1c-0.1-1.5-0.3-2.4-0.3-2.4s-0.2-2.8-2.9-4.6c-1.1-0.7-2.8-1.3-4.7-1.3v0c0,0,0,0,0,0
			c0,0,0,0,0,0v0h0c0,0,0,0,0,0v0c0,0,0,0,0,0c0,0,0,0,0,0l0,0c-1.9,0-3.7,0.5-4.7,1.3c-2.7,1.8-2.9,4.6-2.9,4.6s-0.2,1-0.3,2.4
			c0,0,0,0,0,0c-0.5,0.2-0.9,0.7-0.9,1.3c0,0.8,0.6,1.4,1.4,1.4c0.8,0,1.4-0.6,1.4-1.4c0-0.1,0-0.2,0-0.3c0.2,0.1,0.4,0.1,0.6,0.1
			c0.8,0,1.4-0.6,1.4-1.4c0,0,0-0.1,0-0.1c0.2,0.1,0.4,0.1,0.6,0.1c0.5,0,1-0.3,1.2-0.7c0.3,0.3,0.6,0.4,1,0.4c0.5,0,1-0.3,1.2-0.7
			c0.2,0.4,0.7,0.7,1.2,0.7c0.4,0,0.8-0.2,1-0.4c0.3,0.4,0.7,0.7,1.2,0.7c0.2,0,0.4-0.1,0.6-0.1c0,0,0,0.1,0,0.1
			c0,0.8,0.6,1.4,1.4,1.4c0.2,0,0.4,0,0.6-0.1c0,0.1,0,0.2,0,0.3c0,0.8,0.6,1.4,1.4,1.4c0.8,0,1.4-0.6,1.4-1.4
			C203.4,157.8,203.1,157.3,202.6,157.1z"/>
	</g>
	<g>
		<g>
			<rect x="142" y="201.8" class="st11" width="16.2" height="22.3"/>
			<g>
				<path class="st11" d="M156.1,196.6c0,0,1.6-0.1,1.8,2.5c0.2,2.5,1.4,11-5.4,14.6C152.6,213.7,150.6,199.8,156.1,196.6z"/>
				<path class="st11" d="M156.1,196.6c0,0-1-3.1-6.1-3.1c-5.2,0-12.5,3.8-7.5,15.4c1.7,3.9,5.5,5.2,5.5,5.2L156.1,196.6z"/>
			</g>
			<rect x="147.7" y="213" class="st12" width="4" height="4.3"/>
			<g>
				<g>
					<g>
						<polygon class="st12" points="157.5,229.9 160.7,229.9 159.1,219.1 156,217.7 157.1,226.2 						"/>
					</g>
				</g>
			</g>
			<g>
				<g>
					<g>
						<polygon class="st12" points="142.3,229.9 142.8,226.2 143.9,217.7 140.7,219.1 139.1,229.9 						"/>
					</g>
				</g>
			</g>
			<polygon class="st13" points="156.8,229.9 157,227.3 157,218.3 155.9,217.7 151.8,216.9 148.1,216.9 143.9,217.7 142.8,218.3 
				142.8,227.3 143.1,229.9 			"/>
			<g>
				<g>
					<path class="st12" d="M156.9,207.3c0,0,0.2,0,0.3,0c0.3,0,0.5-0.5,0.6-0.8c0.2-0.6,0.3-1,0.3-1.3c0-0.3-0.1-0.9-0.5-0.9
						c-0.5,0-0.7,0.5-0.7,0.5V207.3z"/>
					<path class="st12" d="M142.4,207.3c0,0-0.2,0-0.3,0c-0.3,0-0.5-0.5-0.6-0.8c-0.2-0.6-0.3-1-0.3-1.3c0-0.3,0.1-0.9,0.5-0.9
						c0.5,0,0.7,0.5,0.7,0.5V207.3z"/>
				</g>
				<path class="st12" d="M157.1,200.6c0,0-0.2-2.7-2.8-4.4c-1-0.7-2.7-1.2-4.6-1.2v0c0,0,0,0,0,0c0,0,0,0,0,0v0h0c0,0,0,0,0,0v0
					c0,0,0,0,0,0c0,0,0,0,0,0v0c-1.9,0-3.5,0.5-4.6,1.2c-2.6,1.8-2.8,4.4-2.8,4.4s-1.1,4.4,0.8,8.4c0.3,0.7,0.8,2.2,3,4
					c1.4,1.2,2.5,1.6,3.6,1.6c0,0,0,0,0,0l0,0c1.2,0,2.2-0.4,3.6-1.6c2.2-1.8,2.7-3.4,3-4C158.1,205,157.1,200.6,157.1,200.6z"/>
			</g>
			<path class="st11" d="M143.1,209c-0.3-0.6-0.5-1.1-0.6-1.7c-0.1,0-0.2,0-0.3,0c-0.3,0-0.5-0.5-0.6-0.8c-0.2-0.6-0.3-1-0.3-1.3
				c0-0.3,0.1-0.9,0.5-0.9c0,0,0,0,0,0c0-0.5,0-1,0-1.2l0,0c0-2.2,0.3-3.8,0.9-5c0,0,0,0,0,0c0,0-1.9,0.8-1.9,3.8c0,1.8,0,5.5,0,8.7
				c0,4.6,2.3,9.6,0.9,12.2c0,0,6.4,1.2,6.8-8.2c-0.8-0.2-1.5-0.7-2.5-1.5C143.9,211.2,143.4,209.7,143.1,209z"/>
			<path class="st14" d="M156.9,204.2c0.1,0.4,0.2,0.9,0.5,1.2c0,0,0-0.6,0-1.2c0.1-0.9,0.7-6.1-2.6-8.4c-3.3-2.4-5.6-2.1-8-1
				c-2.3,0.6-5.1,2.4-5,8.3l0,0c0,0.7,0,2.3,0,2.3c0.4-0.5,0.5-1.3,0.6-1.8h7.3v-3.5c1.3,1.8,3.1,3.5,5.4,4.3c0,0-2.7-1.9-3-4.5
				C152.1,199.9,152.5,202.2,156.9,204.2z"/>
		</g>
		<path class="st15" d="M156.8,204.6c0,0-0.8-0.3-1.8-0.5c-0.1,0-0.2,0-0.3-0.1c-0.6-0.1-1.1-0.1-1.6-0.1c-1.9,0.1-2.6,0.8-2.8,1.1
			h-1.3c-0.2-0.3-0.8-1-2.8-1.1c-0.5,0-1,0-1.6,0.1c-0.1,0-0.2,0-0.3,0.1c-1,0.2-1.7,0.5-1.8,0.5l-0.2,0.1l0.3,0.6l0,0l0.1,0
			c0,0,0.3-0.1,0.4-0.1c-0.1,0.3-0.1,0.7-0.1,1.2c0,1.8,0.8,2,2.4,2c1.3,0,3,0.2,3.4-1.4c0.1-0.5,0.2-0.9,0.1-1.2h1.1
			c-0.1,0.3,0,0.7,0.1,1.2c0.4,1.6,2.1,1.4,3.4,1.4c1.6,0,2.4-0.2,2.4-2c0-0.5,0-0.8-0.1-1.2c0.1,0,0.3,0.1,0.3,0.1l0.1,0l0.4-0.7
			L156.8,204.6z M148.9,206.8c-0.4,1.5-2,1.3-3.3,1.3c-1.5,0-2.2,0-2.2-1.9c0-0.8,0-1.3,0.3-1.6c0.6-0.2,1.6-0.4,2.6-0.4
			c1.3,0.1,2,0.5,2.3,0.7c0.1,0.1,0.2,0.2,0.2,0.3C149.1,205.6,149.1,206.1,148.9,206.8z M153.8,208.1c-1.2,0-2.8,0.2-3.2-1.3
			c-0.2-0.7-0.2-1.2,0.1-1.6c0.1-0.1,0.1-0.2,0.2-0.3c0.3-0.2,0.9-0.6,2.3-0.7c0.1,0,0.3,0,0.4,0c0.8,0,1.6,0.2,2.2,0.4
			c0.3,0.3,0.3,0.9,0.3,1.7C156,208,155.3,208.1,153.8,208.1z"/>
	</g>
	<g>
		<g>
			<polygon class="st16" points="239.2,217.7 245.9,217.7 245.2,212.5 239.9,212.5 			"/>
		</g>
		<polygon class="st16" points="239,217.7 242.6,217.7 246,217.7 246.1,218 242.6,222.4 239,218 		"/>
		<polygon class="st17" points="235.1,230.1 234.2,219 239,217.7 242.6,219.9 246,217.7 250.9,219 250,230.1 		"/>
		<g>
			<g>
				<g>
					<polygon class="st17" points="231.2,230.1 231.5,220.8 234.2,219 235.1,229 235.1,230.1 					"/>
				</g>
			</g>
			<g>
				<g>
					<polygon class="st17" points="250.1,230.1 250,229 250.9,219 253.6,220.8 254.1,230.1 					"/>
				</g>
			</g>
		</g>
		<path class="st18" d="M239.9,212.5h5.4l0.3,2.1c-0.7,0.6-1.2,1-1.5,1h-2.8c-0.3,0-0.9-0.4-1.6-1.1L239.9,212.5z"/>
		<g>
			<g>
				<path class="st16" d="M236.2,207.1c0,0-0.2,0-0.3,0c-0.3,0-0.5-0.5-0.5-0.7c-0.2-0.5-0.3-1-0.3-1.2c0-0.3,0.1-0.8,0.4-0.8
					c0.4,0,0.7,0.4,0.7,0.4V207.1z"/>
				<path class="st16" d="M248.9,207.1c0,0,0.2,0,0.3,0c0.3,0,0.5-0.5,0.5-0.7c0.2-0.5,0.3-1,0.3-1.2c0-0.3-0.1-0.8-0.4-0.8
					c-0.4,0-0.7,0.4-0.7,0.4V207.1z"/>
			</g>
			<path class="st16" d="M238.5,196.9c1.6-1.3,5-2,7.9,0c2.4,1.7,2.7,4.8,2.7,4.8s0,4.9,0,7.5c0,0.5-4.3,5.5-5.3,5.5h-2.7
				c-1,0-5.2-5-5.2-5.5c0-2.6,0-7.8,0-7.8S236.2,198.7,238.5,196.9z"/>
			<path class="st19" d="M238.4,197c0.7-0.3,1.2-0.5,1.2-0.5c0,0.1,0.3,1.5,0.3,1.5s-1.8,0.8-1.8,2.4c0,1.6-2.1,1.1-2.1,2.8
				c0-1,0-1.8,0-1.8S236.2,198.8,238.4,197z"/>
			<path class="st19" d="M246.8,197c-0.7-0.3-1.2-0.5-1.2-0.5c0,0.1-0.3,1.5-0.3,1.5s1.8,0.8,1.8,2.4c0,1.6,2.1,1.1,2.1,2.8
				c0-1,0-1.8,0-1.8S249,198.8,246.8,197z"/>
			<g>
				<g>
					<path class="st19" d="M248.4,200.1v3.9c0,1.7,0.8,2.4,0.8,2.4v-3.1C249.2,202.2,248.9,201,248.4,200.1z"/>
				</g>
				<g>
					<path class="st19" d="M236.9,200.1v3.9c0,1.7-0.8,2.4-0.8,2.4v-3.1C236,202.2,236.3,201,236.9,200.1z"/>
				</g>
			</g>
			<g>
				<path class="st19" d="M246.7,195.9c-0.2-1.3-1.2-2.6-4.5-2.8c-3.4-0.2-4,2.7-5.7,3.7c-1.8,1.1-1.3,3.5-0.4,4.7c0,0,0-3,2.7-3.1
					c2.8-0.1,3.9,1.2,6,0.6C246.1,198.6,246.9,197.4,246.7,195.9z"/>
				<path class="st19" d="M246.2,195.4c0,0,2.8,0.9,3.2,3.7c0.4,2.8-0.6,4.3-0.6,4.3s-0.7-4.5-3.9-4.9
					C244.9,198.5,243.6,196.6,246.2,195.4z"/>
				<g class="st20">
					<g>
						<path class="st21" d="M244.5,198.8c0.7-0.5,1.3-1.1,1.5-1.9c0.2-0.8,0-1.6-0.4-2.4c0.5,0.7,0.8,1.6,0.6,2.5
							C246.1,197.8,245.3,198.5,244.5,198.8z"/>
					</g>
					<g>
						<path class="st21" d="M240.2,198.2c0-0.7,0.1-1.3-0.1-1.9c-0.1-0.3-0.2-0.6-0.4-0.8c-0.2-0.3-0.4-0.4-0.7-0.6
							c0.3,0.1,0.6,0.2,0.9,0.5c0.3,0.2,0.4,0.6,0.5,0.9C240.5,196.8,240.5,197.5,240.2,198.2z"/>
					</g>
					<g>
						<path class="st21" d="M240.7,198.3c0.1-0.8,0.2-1.5,0.1-2.2c0-0.4-0.2-0.7-0.3-1c-0.2-0.3-0.4-0.6-0.6-0.9
							c0.3,0.2,0.6,0.5,0.8,0.8c0.2,0.3,0.3,0.7,0.4,1.1C241.1,196.8,241,197.6,240.7,198.3z"/>
					</g>
					<g>
						<path class="st21" d="M241.2,198.4c0.2-0.8,0.3-1.6,0.3-2.4c0-0.8-0.2-1.6-0.7-2.3c0.3,0.3,0.5,0.7,0.7,1.1
							c0.2,0.4,0.2,0.8,0.2,1.3C241.8,196.8,241.6,197.6,241.2,198.4z"/>
					</g>
					<g>
						<path class="st21" d="M242.9,198.8c0.5-0.8,0.8-1.7,0.9-2.6c0.1-0.9-0.2-1.8-0.5-2.7c0.6,0.7,0.9,1.7,0.8,2.7
							C243.9,197.2,243.5,198.1,242.9,198.8z"/>
					</g>
					<g>
						<path class="st21" d="M242.4,198.7c0.2-0.4,0.3-0.8,0.4-1.3c0.1-0.4,0.2-0.9,0.1-1.3c0-0.9-0.3-1.8-0.7-2.6
							c0.6,0.7,0.9,1.6,0.9,2.6C243.2,197,243,198,242.4,198.7z"/>
					</g>
					<g>
						<path class="st21" d="M244.1,198.9c0.6-0.6,1.1-1.4,1.3-2.2c0.2-0.8,0-1.7-0.4-2.5c0.3,0.4,0.5,0.8,0.6,1.2
							c0.1,0.4,0.1,0.9,0,1.4C245.4,197.6,244.8,198.4,244.1,198.9z"/>
					</g>
					<g>
						<path class="st21" d="M241.8,198.5c0.2-0.4,0.3-0.9,0.3-1.3c0.1-0.4,0.1-0.9,0-1.3c0-0.9-0.3-1.7-0.7-2.5
							c0.6,0.7,0.9,1.6,1,2.5C242.5,196.8,242.3,197.8,241.8,198.5z"/>
					</g>
					<g>
						<path class="st21" d="M243.4,198.8c0.7-0.6,1.1-1.4,1.2-2.3c0.1-0.9-0.1-1.8-0.4-2.6c0.5,0.8,0.7,1.7,0.6,2.7
							C244.7,197.5,244.2,198.4,243.4,198.8z"/>
					</g>
					<g>
						<path class="st21" d="M246.3,198.5c0.2-0.4,0.5-0.7,0.9-0.9c0.4-0.2,0.9-0.3,1.3-0.1c-0.2,0-0.4,0.1-0.6,0.1
							c-0.2,0.1-0.4,0.1-0.6,0.2C247,198,246.7,198.3,246.3,198.5z"/>
					</g>
					<g>
						<path class="st21" d="M246.7,198.8c0.2-0.4,0.6-0.6,0.9-0.8c0.4-0.1,0.8-0.1,1.2,0c-0.4,0.1-0.8,0.1-1.1,0.2
							C247.3,198.4,247,198.6,246.7,198.8z"/>
					</g>
					<g>
						<path class="st21" d="M246.9,199c0.5-0.6,1.6-0.7,2.2-0.2c-0.4-0.1-0.8-0.1-1.1-0.1C247.7,198.8,247.3,198.9,246.9,199z"/>
					</g>
					<g>
						<path class="st21" d="M247.3,199.4c0.3-0.2,0.6-0.3,1-0.3c0.3,0,0.7,0.1,0.9,0.4c-0.3,0-0.6-0.1-0.9-0.1
							C247.9,199.4,247.6,199.4,247.3,199.4z"/>
					</g>
					<g>
						<path class="st21" d="M247.4,199.8c0.3-0.2,0.6-0.2,1-0.1c0.3,0.1,0.6,0.3,0.8,0.6c-0.3-0.1-0.5-0.3-0.8-0.3
							C248,199.9,247.8,199.9,247.4,199.8z"/>
					</g>
					<g>
						<path class="st21" d="M246.1,198.2c0-0.4,0.2-0.8,0.4-1.1c0.3-0.3,0.7-0.5,1.1-0.4c-0.3,0.2-0.6,0.3-0.9,0.6
							C246.5,197.6,246.3,197.9,246.1,198.2z"/>
					</g>
					<g>
						<path class="st21" d="M239.4,198.1c0.1-0.5,0.1-1.1,0-1.6c-0.1-0.5-0.5-0.9-0.9-1.3c0.5,0.1,1,0.6,1.1,1.2
							C239.8,197,239.7,197.6,239.4,198.1z"/>
					</g>
					<g>
						<path class="st21" d="M238.7,198.1c0-0.4,0-0.9-0.1-1.3c0-0.4-0.2-0.8-0.5-1.1c0.2,0.1,0.4,0.2,0.5,0.4
							c0.1,0.2,0.2,0.4,0.2,0.6C238.9,197.2,238.9,197.7,238.7,198.1z"/>
					</g>
					<g>
						<path class="st21" d="M238.1,198.1c0-0.3,0-0.7-0.1-1c0-0.3-0.2-0.5-0.5-0.8c0.2,0,0.3,0.1,0.5,0.2c0.1,0.1,0.2,0.3,0.3,0.5
							C238.3,197.4,238.2,197.8,238.1,198.1z"/>
					</g>
					<g>
						<path class="st21" d="M237.5,198.3c0-0.3,0-0.6-0.1-0.8c0-0.1-0.1-0.2-0.1-0.3c-0.1-0.1-0.2-0.2-0.3-0.3
							c0.1,0,0.3,0.1,0.4,0.2c0.1,0.1,0.2,0.2,0.3,0.4C237.8,197.7,237.7,198.1,237.5,198.3z"/>
					</g>
					<g>
						<path class="st21" d="M237.1,198.5c-0.1-0.3-0.2-0.5-0.3-0.6c-0.1-0.2-0.3-0.4-0.4-0.6c0.3,0,0.5,0.2,0.7,0.4
							C237.2,198,237.2,198.3,237.1,198.5z"/>
					</g>
					<g>
						<path class="st21" d="M236.8,199c-0.1-0.3-0.2-0.5-0.3-0.7c-0.1-0.2-0.4-0.3-0.6-0.5c0.1,0,0.3,0,0.4,0.1
							c0.1,0.1,0.3,0.2,0.4,0.3C236.8,198.4,236.9,198.7,236.8,199z"/>
					</g>
					<g>
						<path class="st21" d="M236.5,199.6c-0.1-0.2-0.3-0.4-0.4-0.6c-0.1-0.2-0.3-0.3-0.5-0.6c0.3,0,0.5,0.2,0.7,0.4
							C236.5,199,236.6,199.3,236.5,199.6z"/>
					</g>
				</g>
			</g>
		</g>
	</g>
	<g>
		<g>
			<polygon class="st22" points="191.1,264.6 197.8,264.6 197.1,259.4 191.7,259.4 			"/>
		</g>
		<polygon class="st22" points="190.9,264.6 194.5,264.6 197.9,264.6 198,264.9 194.5,269.2 190.9,264.9 		"/>
		<path class="st21" d="M187,276.9l-0.9-11.1l4.8-1.2c0,0,1.6,2.1,3.5,2.1c1.5,0,3.5-2.1,3.5-2.1l4.9,1.2l-0.9,11.1H187z"/>
		<g>
			<g>
				<g>
					<polygon class="st22" points="183.1,276.9 183.4,267.6 186.1,265.8 187,275.8 187,276.9 					"/>
				</g>
			</g>
			<g>
				<g>
					<polygon class="st22" points="201.9,276.9 201.9,275.8 202.8,265.8 205.5,267.6 206,276.9 					"/>
				</g>
			</g>
		</g>
		<g>
			<g>
				<g>
					<polygon class="st21" points="186.7,272.4 186.1,265.8 183.4,267.6 183.3,272.4 					"/>
				</g>
			</g>
			<g>
				<g>
					<polygon class="st21" points="205.7,272.4 205.5,267.6 202.8,265.8 202.2,272.4 					"/>
				</g>
			</g>
		</g>
		<path class="st18" d="M191.7,259.4h5.4l0.3,2.1c-0.7,0.6-1.2,1-1.5,1H193c-0.3,0-0.9-0.4-1.6-1.1L191.7,259.4z"/>
		<g>
			<path class="st22" d="M188,254c0,0-0.2,0-0.3,0c-0.3,0-0.5-0.5-0.6-0.8c-0.2-0.6-0.3-1.1-0.3-1.3c0-0.3,0.1-0.9,0.5-0.9
				c0.5,0,0.7,0.5,0.7,0.5V254z"/>
			<path class="st22" d="M200.9,254c0,0,0.2,0,0.3,0c0.3,0,0.5-0.5,0.6-0.8c0.2-0.6,0.3-1.1,0.3-1.3c0-0.3-0.1-0.9-0.5-0.9
				c-0.5,0-0.7,0.5-0.7,0.5V254z"/>
		</g>
		<path class="st22" d="M190.4,243.8c1.6-1.3,5-2,7.9,0c2.4,1.7,2.7,4.8,2.7,4.8s0,4.9,0,7.5c0,0.5-4.3,5.5-5.3,5.5h-2.7
			c-1,0-5.2-5-5.2-5.5c0-2.6,0-7.8,0-7.8S188.1,245.6,190.4,243.8z"/>
		<path class="st23" d="M194.4,260.5L194.4,260.5C194.4,260.5,194.4,260.5,194.4,260.5C194.4,260.5,194.4,260.5,194.4,260.5
			L194.4,260.5c-0.9,0-1.5,0.8-1.5,0.8c0.2,0.1,0.3,0.2,0.5,0.2h1.1h0h0.9c0.1,0,0.3-0.1,0.5-0.2
			C195.9,261.3,195.3,260.6,194.4,260.5z"/>
		<path class="st19" d="M190.3,243.9c0.7-0.3,1.2-0.5,1.2-0.5c0,0.1,0.3,1.5,0.3,1.5s-1.8,0.8-1.8,2.4c0,1.6-2.1,1.1-2.1,2.8
			c0-1,0-1.8,0-1.8S188.1,245.7,190.3,243.9z"/>
		<path class="st19" d="M198.7,243.9c-0.7-0.3-1.2-0.5-1.2-0.5c0,0.1-0.3,1.5-0.3,1.5s1.8,0.8,1.8,2.4c0,1.6,2.1,1.1,2.1,2.8
			c0-1,0-1.8,0-1.8S200.9,245.7,198.7,243.9z"/>
		<g>
			<g>
				<path class="st23" d="M200,247v3.9c0,1.7,1,2.4,1,2.4v-3.1C201.1,249,200.6,247.9,200,247z"/>
			</g>
		</g>
		<g>
			<g>
				<path class="st23" d="M188.9,247v3.9c0,1.7-1,2.4-1,2.4v-3.2C187.9,248.9,188.4,247.9,188.9,247z"/>
			</g>
		</g>
		<path class="st17" d="M201.1,249.2c0-0.3,0.1-0.5,0.1-0.8c0-3.4-3-6.1-6.6-6.1c-3.7,0-6.6,2.7-6.6,6.1c0,0.3,0,0.5,0.1,0.8
			c0,0,3.5-1,6.6-1C197.3,248.1,201.1,249.2,201.1,249.2z"/>
		<path d="M194.5,247.1c-2.7,0-5.8,0.7-6.6,1c0,0.1,0,0.2,0,0.3c0,0.3,0,0.5,0.1,0.8c3.4-1,3.3-1,6.6-1c2.8,0,6.6,1,6.6,1
			c0-0.3,0.1-0.5,0.1-0.8c0-0.1,0-0.2,0-0.3C200.3,247.8,197,247.1,194.5,247.1z"/>
		<g>
			<polygon class="st24" points="194.3,246 195.5,245.7 195.1,246.4 194.7,247.2 193.9,246.7 193.2,246.3 			"/>
			<g>
				<path class="st8" d="M192.2,246.4l-0.2,0l0-0.1c0,0,0,0,0-0.1c0,0,0,0,0,0c0,0,0,0,0,0c0,0,0,0,0,0c0,0,0,0,0,0.1c0,0,0,0,0.1,0
					c0.1,0,0.2,0.1,0.2,0.1c0,0,0.1,0.1,0.1,0.2c0,0.1,0,0.1,0,0.1c0,0,0,0.1-0.1,0.1c0,0-0.1,0-0.1,0c-0.1,0-0.1,0-0.2,0
					c0,0-0.1,0-0.1-0.1c0,0,0-0.1,0-0.1l0-0.1l0.2,0l0,0.1c0,0,0,0.1,0,0.1c0,0,0,0,0,0c0,0,0,0,0,0c0,0,0,0,0-0.1c0,0,0-0.1,0-0.1
					c0,0-0.1,0-0.1-0.1c-0.1,0-0.1,0-0.1-0.1c0,0,0,0-0.1-0.1c0,0,0-0.1,0-0.1c0-0.1,0-0.1,0-0.1c0,0,0-0.1,0.1-0.1c0,0,0.1,0,0.1,0
					c0.1,0,0.1,0,0.1,0c0,0,0.1,0,0.1,0.1C192.2,246.3,192.2,246.3,192.2,246.4L192.2,246.4z"/>
				<path class="st8" d="M192.6,246.1l0.2,0.8l-0.2,0l0-0.1l-0.1,0l0,0.2l-0.2,0l0-0.9L192.6,246.1z M192.6,246.7
					c0-0.1,0-0.2-0.1-0.3C192.5,246.5,192.5,246.6,192.6,246.7L192.6,246.7z"/>
				<path class="st8" d="M193.5,246.1l0.1,0.8l-0.2,0l0-0.6l0,0.6l-0.1,0l-0.1-0.6l0,0.6l-0.2,0l-0.1-0.8l0.3,0c0,0,0,0.1,0,0.2
					l0,0.2l0-0.4L193.5,246.1z"/>
				<path class="st8" d="M193.6,246l0.2,0c0.1,0,0.1,0,0.1,0c0,0,0.1,0,0.1,0c0,0,0,0,0,0.1c0,0,0,0.1,0,0.1l0,0.1
					c0,0.1,0,0.1,0,0.1c0,0,0,0-0.1,0.1c0,0-0.1,0-0.1,0l-0.1,0l0,0.3l-0.2,0L193.6,246z M193.8,246.2l0,0.2c0,0,0,0,0,0
					c0,0,0,0,0,0c0,0,0,0,0-0.1L193.8,246.2C193.9,246.2,193.9,246.2,193.8,246.2C193.9,246.2,193.9,246.2,193.8,246.2z"/>
				<path class="st8" d="M194.4,246l0,0.7l0.1,0l0,0.2l-0.4,0l0-0.8L194.4,246z"/>
				<path class="st8" d="M194.6,246l0.4,0l0,0.2l-0.1,0l0,0.2l0.1,0l0,0.2l-0.1,0l0,0.2l0.2,0l0,0.2l-0.4,0L194.6,246z"/>
				<path class="st8" d="M195.9,246.1l0,0.2l-0.1,0l-0.1,0.7l-0.2,0l0-0.7l-0.1,0l0-0.2L195.9,246.1z"/>
				<path class="st8" d="M196,246.1l0.4,0l0,0.2l-0.1,0l0,0.2l0.1,0l0,0.2l-0.1,0l0,0.2l0.2,0l0,0.2l-0.4,0L196,246.1z"/>
				<path class="st8" d="M196.9,246.2l-0.1,0.4l0.1,0.5l-0.2,0c0-0.1,0-0.2,0-0.3c0,0.1,0,0.1,0,0.2l0,0.1l-0.2,0l0.1-0.5l0-0.4
					l0.2,0c0,0,0,0.1,0,0.1c0,0,0,0.1,0,0.1l0.1-0.2L196.9,246.2z"/>
				<path class="st8" d="M197.4,246.3l0,0.2l-0.1,0l-0.1,0.7l-0.2,0l0.1-0.7l-0.1,0l0-0.2L197.4,246.3z"/>
			</g>
		</g>
		<g>
			<path class="st17" d="M194.5,241.1c-4.2,0-7.6,3.6-7.6,7.9v0.2h0.8V249c0-4,3.1-7.2,6.8-7.2c3.8,0,6.8,3.2,6.8,7.2v0.2h0.8V249
				C202,244.6,198.6,241.1,194.5,241.1z"/>
			<g>
				<path class="st13" d="M201.8,249h-0.2c0-4.1-3.2-7.5-7.1-7.5s-7.1,3.4-7.1,7.5h-0.2c0-4.2,3.3-7.7,7.3-7.7
					C198.5,241.4,201.8,244.8,201.8,249z"/>
			</g>
			<g>
				<path class="st17" d="M186,249.4v4.3c-0.5-0.1-0.9-1-0.9-2.1C185.1,250.4,185.5,249.5,186,249.4z"/>
				<path class="st25" d="M185.9,249.3c0.1-0.2,0.2-0.3,0.5-0.4c0.2-0.1,0.4-0.2,0.5-0.2v5.9c-0.2-0.1-0.3-0.1-0.5-0.2
					c-0.2-0.1-0.4-0.2-0.5-0.4C185.6,253,185.6,250.2,185.9,249.3z"/>
				<path class="st17" d="M186.4,254.2c0,0.2,0.2,0.4,0.3,0.4h0.9c0.2,0,0.3-0.2,0.3-0.4v-5.3c0-0.2-0.2-0.4-0.3-0.4h-0.9
					c-0.2,0-0.3,0.2-0.3,0.4V254.2z"/>
			</g>
			<g>
				<path class="st17" d="M203.1,249.4v4.3c0.5-0.1,0.9-1,0.9-2.1C204,250.4,203.6,249.5,203.1,249.4z"/>
				<path class="st25" d="M203.2,249.3c-0.1-0.2-0.2-0.3-0.5-0.4c-0.2-0.1-0.4-0.2-0.5-0.2v5.9c0.2-0.1,0.3-0.1,0.5-0.2
					c0.2-0.1,0.4-0.2,0.5-0.4C203.5,253,203.5,250.2,203.2,249.3z"/>
				<path class="st17" d="M202.6,254.2c0,0.2-0.2,0.4-0.3,0.4h-0.9c-0.2,0-0.3-0.2-0.3-0.4v-5.3c0-0.2,0.2-0.4,0.3-0.4h0.9
					c0.2,0,0.3,0.2,0.3,0.4V254.2z"/>
			</g>
		</g>
	</g>
</g>
<g>
</g>
<g>
</g>
<g>
</g>
<g>
</g>
<g>
</g>
<g>
</g>
</svg>
