<?xml version="1.0" encoding="utf-8"?>
<!-- Generator: Adobe Illustrator 23.0.5, SVG Export Plug-In . SVG Version: 6.00 Build 0)  -->
<svg version="1.1" xmlns="http://www.w3.org/2000/svg" xmlns:xlink="http://www.w3.org/1999/xlink" x="0px" y="0px"
	 viewBox="0 0 1000 1000" style="enable-background:new 0 0 1000 1000;" xml:space="preserve">
<style type="text/css">
	.st0{fill:#BCEBFB;}
	.st1{fill:#B7CFFE;}
	.st2{fill:#4E73A7;}
	.st3{fill:#A3C0FE;}
	.st4{fill:#41608C;}
	.st5{fill:#2D4C7F;}
	.st6{fill:#82B2FE;}
	.st7{fill:#004A6A;}
	.st8{fill:#E0ECFE;}
	.st9{fill:#5E83ED;}
	.st10{fill:#EAF2FE;}
	.st11{fill:#FEBE00;}
	.st12{fill:#141D30;}
	.st13{fill:#132444;}
	.st14{fill:#1F51CE;}
	.st15{fill:#F96E61;}
	.st16{fill:#9DBCFE;}
	.st17{fill:#699DFE;}
	.st18{fill:#FEA507;}
	.st19{fill:#5D80EB;}
	.st20{fill:#4369EB;}
	.st21{fill:#7FB4EF;}
	.st22{fill:#FEFEFE;}
	.st23{fill:#2E6ADA;}
	.st24{fill:#D65246;}
	.st25{fill:#AEC9FE;}
	.st26{fill:#5F91FE;}
	.st27{fill:#FE7055;}
	.st28{fill:#FEB303;}
	.st29{fill:#A8C4FE;}
	.st30{fill:#E9B300;}
	.st31{fill:#E9F0FE;}
	.st32{fill:#4E73A8;}
	.st33{fill:#5276AA;}
	.st34{fill:#26395E;}
	.st35{fill:#FEB100;}
	.st36{fill:#D3E2FE;}
	.st37{fill:#24375E;}
	.st38{fill:#26385C;}
	.st39{fill:#25385E;}
</style>
<g id="Background">
	<circle class="st0" cx="502" cy="497" r="488.2"/>
	
		<image style="overflow:visible;" width="108" height="94" xlink:href="2168F5FE.jpg"  transform="matrix(3.3711 0 0 3.3711 0 -361.2345)">
	</image>
	<path class="st1" d="M810.9,783.1c-18-0.1-36-0.1-53.9-0.2c-8.5-5-12.6-13.6-16.7-21.9c-6.2-12.9-9.2-26.9-9.3-41.1
		c-0.1-12.2,2.1-24.2,9.9-34.5c6.1-8,14.2-12.6,23.8-14.4c10.1-1.9,18.3,2.2,24.9,9.6c2.5,2.7,5,5.3,7.5,8
		c12.6,14,27.9,15.5,44.7,9.4c3.4-1.2,6.8-2.8,10.1-4.4c1.6-0.8,3.2-2,5.1-0.7c0.1,4.7,0.1,9.3,0.2,14c1.3,1.5,1.4,3.3,1.5,5.1
		c0.4,6.1,0.6,6.2,6.8,6.3c10.3,0.1,20.5,0,30.8,0c9.3,0,9.4,0,9.3,9.2c-0.1,4.8,0.6,9.6-0.4,14.3c0,12.1-0.2,24.2,0,36.3
		c0.1,3.8-1.1,4.8-4.8,4.7c-10.1-0.3-20.2-0.2-30.4-0.2c-0.7-2.1-0.4-4.4-2.3-6.4c-3.8-4.1-2.9-8.6,2-11.4c4.7-2.7,5.9-6.7,3.4-11.4
		c-0.9-1.7-2.4-2.1-4.1-2.4c-7.1-1.3-9.1-4.5-6.5-11c1-2.6,0.2-4.2-1.8-5.5c-2.7-1.8-5.3-4.7-8.9-2c-2.2,1.7-4.5,2.8-7.4,2.3
		c-3.1-0.6-5-2.5-6-5.3c-1.4-3.8-4.4-2.7-7.2-2.5c-2.8,0.2-5.1,0.8-5.9,4.2c-1.8,7.3-5.2,9.3-12.2,6.9c-3.9-1.3-5.4,1.5-7.3,3.7
		c-1.9,2.2-2.6,4.3-0.5,7.1c4,5.3,3.1,9.2-3.1,12.2c-4.3,2.1-3.1,5.3-2.9,8.5c0.2,3.3,2.2,4.3,5.4,4.6
		C809.9,774.7,812.2,778.3,810.9,783.1z"/>
	<path class="st2" d="M715.1,287.1c18-0.1,35.9-0.1,53.9-0.2c18.8,0.1,37.6,0.2,56.4,0.1c3.7,0,4.9,0.8,4.7,4.6
		c-0.3,5.8,0,11.6,0.1,17.4c1.6,2,1.4,4.4,1.4,6.7c0,22.2,0,44.5,0,66.7c0,2.3,0.2,4.7-1.4,6.7c0,7.7,0,15.3,0,23
		c-0.1,2-0.2,4-0.2,6c0,77.4,0,154.9,0.1,232.3c0,4.3-0.8,6.2-5.6,5.8c-6.1-0.5-12.3-0.1-18.5-0.2c-2.5-3.2-1.2-7-1.5-10.5
		c-0.3-3.4,1.1-7.3-0.7-10.2c-2.1-3.4-6.5-1-9.7-2c-0.5-0.1-0.9-0.3-1.4-0.5c-2.4-2.4-0.6-4.8,0-7.3c0.3-0.8,0.7-1.5,1.5-2
		c2.6-1.3,5.5-0.8,8.3-0.9c6.1-0.1,6.4-0.4,5.3-6.7c-0.7-13.9-0.3-27.9-0.2-41.8c0.1-13.9-0.1-27.9-0.1-41.8c0-2.5-0.2-5,0.6-7.4
		c1.8-3.3,5.4-3.7,8.4-4.9c4.1-1.6,5.6-4.3,5-8.5c-2.9-23.3-5.9-46.5-12.5-69.1c-0.7-2.4-1.4-4.8-1.3-7.3
		c-0.4-26.9-0.1-53.8-0.2-80.6c0-2.6-0.2-5.3,0.4-7.9c0.5-2.1,2.2-3.2,3.7-4.5c5.1-4.2,6.3-8.3,4.2-14.6c-0.6-1.9-1.4-3.7-1.8-5.7
		c-0.5-3.3,0.2-6.2,2.7-8.6c4.1-4,5-8.5,2.9-12.4c-2.1-3.8-7.5-6-12.6-4.9c-1.1,0.2-2.3,0.5-3.3,1c-3.9,1.7-7.1,1.3-10.3-2
		c-3.7-3.9-9.4-2.9-12.4,1.5c-1.2,1.7-1.7,4.1-4,4.9c-5.3,0.9-10.6,0.4-15.9,0.4c-12.1-0.2-24.3,0.6-36.4-0.1
		C718.6,298.4,716.8,292.8,715.1,287.1z"/>
	<path class="st3" d="M792.1,632.1c13.9-0.5,13.9-0.5,13.9,13.5c0,3.5,0,6.9,0,10.4c0,2,0.1,4,0.1,6.1c0,4.6,0.1,9.3-0.2,13.9
		c-0.2,3.5,1.3,4.1,4.4,4.1c13.8-0.1,27.6,0.1,41.3-0.2c4.6-0.1,5.9,1.4,5.4,5.6c-0.3,2.5-0.1,5-0.2,7.5c-7.3,2.7-14,6.8-21.7,8.5
		c-14.5,3.3-27.1,0.5-37.8-10.4c-4.2-4.2-8-8.8-12.4-12.8c-9.1-8.3-18.9-7.8-29.1-3.2c-14.8,6.6-20.9,19.2-22.9,34.3
		c-2.4,17.5,1.4,34.2,8,50.3c3.6,8.9,9.5,16.2,15.9,23.3c-10.6,0-21.1,0.1-31.7,0.1c-7.1,0-7.1,0-7.4-7c0-23,0-46,0-69.1
		c-1.3-1.5-1.4-3.3-1.4-5.2c0-13.1-0.2-26.2,0.1-39.3c-0.1-2.2-0.1-4.5,0-6.7c-0.2-6.4-0.2-12.8,0-19.2c0.1-2.9,0.5-5.8,4.6-5.4
		c3.3,2.4,6.9,2.4,10.8,1.6c4.5-0.9,9-1.8,13.7-2.2c7-0.1,14-0.7,20.9,0.4c7.2,2.8,14.7,1.3,22.1,1.3
		C789.8,632.3,791,631.9,792.1,632.1z"/>
	<path class="st2" d="M226,286.8c16.6,0.1,33.3,0.1,49.9,0.2c-0.8,5.9-4,10.4-8.4,14.1c-2.5,0.6-5,0.4-7.5,0.5c-18.7,0-37.3,0-56,0
		c-9.4,0-9.4,0-9.4,9.7c0,38.3,0,76.6,0,114.9c0,2.8,0,5.7-0.3,8.5c-0.3,2.8-2.1,4.9-3.5,7.1c-14,21.4-13.8,47.4,0.5,68.7
		c1.4,2.1,3,4.1,3,6.7c0.5,25.2,0.2,50.3,0.2,75.4c0,1-0.1,2-0.4,2.9c-0.7,2.1-2.2,2.5-3.9,1.4c-6.1-4-12.2-7.9-18.1-12.1
		c-0.7-0.5-1-1.3-1.2-2.1c-0.9-10.7-0.4-21.4-0.3-32c0-1.3,0.4-2.6,1.3-3.7c0-5.7,0-11.3,0-17c0.1-2,0.2-4,0.2-6
		c0-69.7,0-139.4,0-209.1c0-2-0.1-4-0.2-6c0.1-6,0.3-12,0.1-17.9c-0.1-3.3,1-4.1,4.2-4.1C192.7,287,209.4,286.9,226,286.8z"/>
	<path class="st4" d="M280.9,795c-1.1,0.1-2.5-0.2-3.4,0.3c-3.7,1.9-5.4-0.1-6.8-3.1c-2.6-5.4-5.2-10.8-7.8-16.2
		c-3-2.9-3.9-7-5.4-10.6c-6.6-15.9-13.5-31.6-20.1-47.4c-2.9-7.1-3.6-7.4-11.3-6.2c-2,0.3-4,0.5-6,0.6c-13.7,1.8-27.4,3.1-41.1,4
		c-6.4,0.4-12.8,2-19.3,0.5c-4-2.1-7.5-4.9-10.1-8.7c-5.6-8.2-3.4-16.8,5.5-21.3c5.8-2.9,12.2-3.6,18.4-4c13.9-1,27.8-2.6,41.8-2.3
		c7,0.2,13.9,1.2,20.6,3.3c10.6,3.3,17.8,10.7,23.1,20.2c6.6,11.9,10.2,25,14.9,37.6c5.3,14.3,10.7,28.7,15.4,43.3
		c0.7,2.2,1.5,4.4,1.2,6.8C288,795.1,284.5,795.2,280.9,795z"/>
	<path class="st5" d="M290,791.8c-8-25.8-17.7-51-27.1-76.3c-4.6-12.3-11-23.4-23.9-29.1c-6.2-2.7-12.8-4-19.3-4.2
		c-19.4-0.7-38.7,0.9-57.9,3.8c-3,0.5-5.8,1.6-8.3,3.3c-8.1,5.2-7.4,16.2,1.4,23c1.4,1.1,3.2,1.8,4,3.6c-1.5,1.8-3.6,1.5-5.5,1.5
		c-9.2-0.5-18.1-2.2-26.5-6c-3.8-1.7-7-4.3-9.3-8c-0.6-1-1.5-1.9-1.7-3c-2.7-11.8-1.9-23.5,1.6-35c0.1-0.5,0.7-0.7,1.1-1
		c1.7-0.8,3.6-0.7,5.4-0.4c14.9,9.6,31.3,7.8,47.7,6.1c4.9-0.5,9.8-1.8,14.8-1.5c16.4,1.4,32.8,1.7,49.3,1.9
		c4.7,0.1,9.3,0.9,13.9,1.3c8.9,2.8,13.4,9.9,17,17.8c5.7,12.8,10.3,26,15.2,39.1c5.1,13.9,10.1,27.8,15,41.8
		c0.6,2.1,2.1,4.1,1.3,6.5c0.5,1.8,0.8,3.7,1.7,5.4c2.4,4.6,1.8,7.7-3.8,8.7C294.2,792.7,292.2,793.7,290,791.8z"/>
	<path class="st6" d="M221.1,776c0,0.2,0,0.3-0.1,0.5c-0.4,11.5-0.4,11.5-12.3,11.5c-11.2,0-22.5,0.1-33.7,0.1
		c-0.3-2.8,0.2-5.8-2.2-8.3c-1.5-1.6-0.6-3.6,0.8-5.4c2.9-3.9,1.6-7.1-3.1-7.6c-3-0.3-4.4-1.7-5.1-4.5c-1.3-5-3.6-5.8-8.3-3.1
		c-3.8,2.1-5,1.7-7.3-2.4c0.1-3.6-3.1-6.4-2.5-10.2c2.5-3.8,6.7-4.8,10.5-6.2c7.2-2.7,14.7-3.9,22.2-5.4
		c13.6-2.7,26.8-6.4,37.6-15.9c1.2-1.1,3-2.7,4.4,0.1c1.1,4.3,0.6,8.6,0.6,12.9c0.1,12.2,0,24.5,0,36.7
		C222.6,771.3,222.8,773.9,221.1,776z"/>
	<path class="st7" d="M810.9,783.1c-0.6-5.8-2-7-7.7-7.2c-0.9,0-2-0.4-2.8-0.9c-4-2.6-1.9-7-2.9-10.5c-0.6-2.4,2-3.6,4.3-4.5
		c5.4-1.9,6.6-6.2,2.7-10c-2.8-2.7-3.1-4.7-0.4-8c3.3-4,5.5-8.4,11.7-3.9c2.7,1.9,8.2-2.3,8.1-6.1c-0.2-4.8,2.4-6.1,6.4-6.1
		c0.8,0,1.8,0.2,2.5-0.1c3.9-1.8,5.7,0,7,3.6c1.7,4.9,6.5,6.1,10.5,2.8c3.9-3.2,13.5,0.4,14.5,5.4c0.2,1.1-0.1,1.9-0.7,2.8
		c-3.4,5.4-1.3,9.6,5.1,9.5c3.9,0,5.4,1.9,5.7,5.3c0.2,1.5,0.3,2.9,0.7,4.4c0.8,2.7-0.1,4.6-3.1,5.7c-7.4,2.8-8,5.7-2.7,11.2
		c2,2,1.4,4.2,0,6.4c-1.8,0.6-1.9,2.6-3,3.8c-2.5,2.7-4.9,5-8.6,1.5c-2.4-2.3-4.6,0.1-6.6,1.1c-1.9,0.9-3.2,2.6-2.5,4.8
		c1,3.2-0.8,4.6-3.2,5.5c-5.8,2.3-9.7,0.9-12.9-4.4c-2.2-3.8-7.7-4.5-10.4-1.1c-2.3,3-4.6,2.4-7.2,0.9c-0.9-0.5-1.7-1-2.5-1.5
		C807.2,789.6,807.1,788.8,810.9,783.1z"/>
	<path class="st8" d="M431,287.1c1-17,7.5-31.7,19-44.1c8.4-6.6,17.2-12.4,27.8-15c21.6-5.2,40.6-0.1,57.6,13.9
		c0.5,0.4,1.1,0.8,1.6,1.2c8.4,9.2,14.9,19.5,17.4,31.8c0.8,4,1.8,8.1,1.6,12.2c2.8,4,0.4,8.2,0.3,12.3c-1.1,6.5-3.2,12.7-6.3,18.5
		c-0.3,0.7-0.7,1.4-1.1,2.1c-10.8,18.2-26.6,29.1-47.7,31.3c-28.3,3-49.4-8.5-63.8-32.7c-0.5-0.9-0.9-1.8-1.4-2.8
		c-2.2-5.3-4-10.8-5.2-16.4C431.1,295.3,428.3,291.2,431,287.1z"/>
	<path class="st7" d="M95,747c2.5-1.7,4.5-3.3,3.2-7.2c-1.6-5.2,3.5-5.5,6.5-7c2.6-1.3,5.5-1.8,7,1.8c0.5,1.1,1.1,2,2.3,2.5
		c3.1-1.2,6-2.3,8.3-5.1c2.9-3.4,6.4-0.9,9.6,0.1c2.9,1,4.8,2.7,4.8,6.1c0,6.5,0.1,6.5,6.5,6.7c1.9,0.1,3.7,0.1,4.6,2.2
		c0.5,3.5,3.7,6.1,3,9.9c-1.2,0.8-2.6,0.6-3.8,0.9c-2.4,0.6-4.2,1.6-4.4,4.5c-0.2,3.6-2.3,5.2-5.9,5.3c-3.6,0.1-4.7-1.7-5.3-5
		c-1.7-8.7-8.4-13.2-17.1-12c-5.9,1.5-10.3,4.7-11.9,10.9c-0.5,10.1,2.9,15.1,11.7,16.9c4.9,0.5,9.2-0.8,12.9-4.1
		c1.2-1.1,2.3-4.2,4.7-1.8c2.2,2.2,6,4.5,3.2,8.3c-3,4-1.8,7,1.1,10c-1.6,3-8.5,7-11.4,6.5c-1.5-0.3-2.4-1.5-3.3-2.8
		c-2.6-4-6.7-4.3-9-0.3c-3.4,5.8-7.2,2.5-11.2,1.4c-3.9-1.1-3.3-3.8-2.8-6.7c0.7-4.1-2.6-7.2-6.8-5.8c-4.2,1.3-6.1-0.5-7.2-3.8
		c-1.1-3.4-3.6-7,1.7-9.7c4.2-2.2,4.3-6.4,0.2-8.5c-6-3.1-2.5-6.8-1.3-10.5c1.3-4,3.9-4.5,7.4-3.1C93.4,748.1,94.3,748,95,747z"/>
	<path class="st9" d="M136.1,791.2c-4.7-1.4-6-5.8-2.9-9.3c1.7-2,3.3-4.2-0.3-5.9c-1.5-0.7-1.6-2.2-2.4-3.4c-4.1,5.6-9.6,8-16.3,7.4
		c-2.4-2.7-1.5-6-1.6-9.2c-0.2-5.1-0.1-10.1-0.1-15.2c0-2,0-4,1.5-5.6c8.4-2.9,18.2,3.6,18.8,13.3c0.3,4.7,3.6,2.8,5.3,3.2
		c1.9,0.5,3.6-1.5,3.7-3.7c0.3-5.4,3.6-7.6,9.2-5.9c1.4,3.5,3.8,3.7,5.8,1c2.1-2.8,4.2-1.8,6.6-1c2.4,0.8,3.7,2.1,3.4,5.1
		c-0.3,2.5,1.1,4.6,4.3,3.4c3.4-1.3,3.9,1.5,4.9,3.4c1.2,2.1,2,4.4-0.8,6c-2.7,1.5-2.7,4-0.8,5.2c4.1,2.7,2,5.3,0.8,8.1
		c-0.6,1-1.4,1.9-2.7,1.9c-3.8,0-6.8,0.1-5.6,5.7c0.7,3.2-6.4,5.6-9.4,3.1c-2.5-2.2-4.7-2.6-6.7,0.1c-2,2.8-4.3,1.5-6.5,0.7
		c-2-0.8-3.5-1.6-2.9-4.7C141.9,791.6,139.1,790.5,136.1,791.2z"/>
	<path class="st10" d="M221.1,776c-0.1-19.3-0.2-38.7-0.3-58c-1.6-2.4-1.6-4.7,0.3-6.9c4,0.1,7.8-1.7,11.8-1.1
		c1.4,0.2,2.4-0.1,3.3,1.9C244.9,733,254,754,262.9,775c0.1,0.3,0,0.7-0.1,1C248.9,776,235,776,221.1,776z"/>
	<path class="st11" d="M111.8,598c0.3-5.8,4.7-7.9,9.1-10.1c5.2-1.2,7.7-0.3,10.5,4c1.2,1.8,2.1,3.8,2.7,5.8
		c3.3,10.5,5.6,21.2,7.1,32c0.4,3.1,1.3,6.9-3.1,8.4c-6.4,1.2-12.8,1.5-19.2,2.5c-1.7,0.3-3.3,0.3-4.8-0.5c-3.1-1.2-2.5-4-3-6.4
		c-1.7-8.2-0.6-16.5-1.1-24.7C110.5,605.3,111.2,601.7,111.8,598z"/>
	<path class="st10" d="M171.8,547c0.1,12.3,0.1,24.6,0.2,36.9c-5.8,0-11.2-1.7-16.8-3.1c-0.7-0.4-1.3-0.9-1.7-1.7
		c-0.3-0.8-0.4-1.5-0.1-2.3c0.4-1,1.2-1.5,2.1-1.9c4.3-1.7,4.6-5,3.6-8.9c-0.7-2.6-2.5-5.1-1.4-8c6.1-1.2,6.9-5.9,7.2-10.9
		C167.2,547,169.5,547,171.8,547z"/>
	<path class="st12" d="M164.9,547c0.2,1.1,0.4,2.2,0.7,3.3c1.5,4.7-1.4,7.5-7.6,7.8c-4.6-1.6-9.4,1.6-14-0.7c-1.5,3-5.4,2.9-7.1,5.5
		c-3.7-6.7-4.2-11.9,2.3-15.9c6.5-1,12.9-2.1,19.4-3C161.2,543.7,163,545.6,164.9,547z"/>
	<path class="st13" d="M290,791.8c2-0.2,4-0.5,6-0.7c1.9,2.2,5.1,1.7,7.2,3.6c1.1,1,2.4,2.1,1.7,3.8c-0.6,1.3-1.9,1.5-3.4,1.5
		c-4.3,0-8.5-0.1-12.8,0.9c-4.6,1.1-6.9-1.7-7.9-5.9C283.5,793,287.2,793.8,290,791.8z"/>
	<path class="st13" d="M298.1,777c-0.7-2-1.4-4-2.1-6c2.9-2.3,5.8-4.7,9.8-3c2.2,3.7,7.2,4.2,9.3,8c0,2.7-1,4.6-4.1,3.9
		C306.8,779.1,302.4,778,298.1,777z"/>
	<path class="st2" d="M542.1,710c54.9,0,109.9,0.1,164.8-0.1c5,0,7,1.1,6.2,6.2c-0.4,2.3-0.2,4.6-0.2,7c-2.4,2.1-5.3,1.6-8.1,1.6
		c-34.8,0-69.6,0-104.4,0c-98.4,0-196.8,0-295.3,0c-1.5,0-3-0.2-4.5,0c-8.5,1.5-12.6-6.4-11.8-14.8c1.5-1.3,3.3-1.4,5.2-1.4
		c55.3,0,110.7-0.2,166,0.1c25.5-0.3,51-0.1,76.5-0.1C538.5,708.4,540.5,708.6,542.1,710z"/>
	<path class="st5" d="M542.1,710c-27.4,0-54.8,0-82.2,0c-1.4-1.6-1.5-3.6-1.5-5.6c-0.1-14.3-0.1-28.5,0-42.8c0-2,0-4,1.3-5.7
		c2.2-1.7,4.7-1.4,7.2-1.4c22.7,0,45.4,0,68.2,0c2.3,0,4.7-0.2,6.8,1.1c1.9,2.1,1.8,4.3,0.4,6.5c0,15,0,30,0,45
		C542.1,708,542.1,709,542.1,710z"/>
	<path class="st5" d="M289,710.2c0.5,4,2.7,7.4,4,11.2c0.5,1.4,1.4,1.7,2.7,1.7c1.5,0,3,0,4.5,0c137.6,0,275.1,0,412.7,0
		c1.1,4.7-0.4,6.1-5.5,6.1c-135-0.1-270.1-0.1-405.1-0.1c-2,0-3.9,0-6.4,0c4.2,10.8,8,21.3,12.5,31.5c1.7,3.9,1.7,6.1-2.5,7.5
		c-3.6,0-6.4,2.7-9.8,3c-3.9-10.5-7.9-21-11.7-31.6c-6.1-16.7-11.9-33.4-18.9-49.7c-3-7-7.5-12.8-14.3-16.6c2.1-2.2,5.1-1.2,7.5-1.9
		c6.7,0,11.8,3.6,15.9,8.2C282.2,688.2,285.8,699.1,289,710.2z"/>
	<path class="st8" d="M715.1,287.1c2.6,4.4,5.2,8.7,7.8,13.1c1.1,0.8,1.9,1.9,2.3,3.2c9.3,26,1.2,57.1-22.4,73.3
		c-4.3,1.2-6.3-1.8-8.3-4.8c-0.8-1.3-0.9-2.3-3.1-0.8c-2.8,2-5.4-1.1-8-2.4c-6.3-6.3-11.7-13.2-15-21.6c-0.1-2.1,1-3.7,1.9-5.5
		c2.9-4.8,5.7-9.6,8.3-14.5c1.1-2.1,2.2-4.5,4.6-5.6c7.2,1.4,10.9,7.2,14.9,12.3c5.7,7.5,7.6,16.4,8.1,25.7c0,1.3-0.1,2.6-0.3,2.9
		c0-0.4,0.9-1.4,1.8-2.5c13.6-17.5,15.9-36.9,7.4-56.9c-8-18.7-23-29-43.3-31.8c-8-1.1-15.5,0-23.1,2.2
		c-40.4,12.8-49.6,63.3-21.8,91.1c15.6,14.4,33.7,18.3,54.1,13.3c1.3-0.3,2.6-0.7,3.9-0.6c2.9,1.2,6.6,0.6,8.5,3.8
		c-0.5,2.7-3,3-4.9,3.7c-38.1,14.7-80.2-9-86-49.9c-0.2-1.5-0.6-2.9-0.8-4.4c-0.1-0.5-0.1-1.1-0.1-1.6c-0.4-9.7,1.3-19.1,5.1-28.1
		c3-4.5,3.9-10.5,9.2-13.4c20.8-27,60.7-32.1,87.4-11.4C707.7,279.1,711.5,283,715.1,287.1z"/>
	<path class="st2" d="M616,287.1c-2.6,4.4-5.3,8.7-7.9,13.1c-1.8,1.4-4,1.4-6.2,1.4c-13.4,0-26.8,0-40.3,0c-2.3,0-4.7,0.1-6.5-1.7
		c-0.4-4.3,1.7-8.4,1-12.8C576,287.1,596,287.1,616,287.1z"/>
	<path class="st14" d="M808.9,435.9c2.2,10.5,5.5,20.7,7.3,31.3c2.3,13,4.1,26,5.9,39.1c2,14.2,1.3,12.1-11.8,17.5
		c-0.5,0.2-1,0.2-1.5,0.3c-1.8,1.6-3.2,1.4-4.2-0.8c-1.1-2.4-1.9-4.9-3-7.2c-1.8-2.6-2.7-1-3.1,0.9c-0.5,2.3-0.1,4.6,0.1,6.9
		c0.2,2.1-0.4,3.7-2.6,4.1c-6,1-12,2.6-18.1,0.3c-1.5-2.2,0.2-3.8,1.3-5.3c10.1-13.9,14.7-29.6,16.2-46.4c0.1-0.7,0.1-1.3,0.1-2
		c-1.1-11.8-3.2-11.5-12.2-8.9c-18.1,5.3-34.4,0.5-49.5-9.7c-1.1-0.7-2-1.8-2.5-3.1c0.2-8.7,2.8-17,4.5-25.4c0.3-1,0.7-2,0.8-3.1
		c0.6-2.2,1-4.5,1.8-6.7c0.5-1.3,0.6-3.1,2.8-2.7c5.5,4,12.1,4.2,18.5,4.6c12.1,0.6,24.1-0.1,35.6-4.6c1.2-0.5,2.5-0.8,3.9-0.6
		c2.6,0.8,3.4,3.1,4.3,5.2C805.8,424.8,808.1,430.2,808.9,435.9z"/>
	<path class="st13" d="M777.9,300.1c2.4-7.5,4.8-9.5,11.3-9.1c2.1,0.1,3.9,0.5,5,2.5c2,3.6,4.9,3.9,8.4,2.2c4.1-2,8.2-2.3,12.5-0.6
		c3.6,1.5,6.5,3.7,6.8,7.8c0.3,4,0.8,8.1-3.9,10.9c-4.1,2.4-4.1,5.9-1.2,12.9c2.1,5.1,1.9,10-1.9,14.4c-1.6,1.9-3.9,3-6.1,4.2
		c-4.4,2.9-9.2,2.2-12.2-2.7c-2.9-4.8-6.3-7.7-12.1-7.6c-2.7,0-5-1.6-6.5-4c-2.2-3.5-5-6.5-7.7-9.7c-0.5-1.2-0.6-2.5-0.3-3.8
		c1.7-4.9-0.3-8.7-3.4-12.3c0.3-3.2,2.7-3.2,5-3C774.1,302.3,776.2,301.8,777.9,300.1z"/>
	<path class="st1" d="M777.9,300.1c-0.6,2.9-1.7,4.6-5.2,3.3c-2.1-0.8-4.5-1.1-5.8,1.6c-4-0.9-7.9-1.9-11.9-2.4
		c-2.2-0.2-4.3-0.3-6.3,0.7c-3.7,2-4,4.8-0.8,7.6c0.6,0.5,1.3,1,1.5,1.9c0.1,1.8,0.2,3.7-0.3,5.4c-2,7.1,0.7,11.8,7.2,14.6
		c0.8,1.2,0.9,2.5,0.6,3.9c-0.1,0.5-0.4,1-0.7,1.5c-1.6,1.7-3.8,1.9-5.8,2.6c-10.3,3.9-14.6,11.5-12.6,22.3c0.7,4.1,1.8,8.1,3,12.1
		c0.6,2,1.5,4.1,0.3,6.3c-3.2,2.9-7.3,2.8-11.2,2.9c-8.4,0.1-16.3-2.1-24.1-5c-1.6-0.6-3.6-1-3.9-3.3c12.8-9.6,21.1-22.1,24.6-37.9
		c2.9-13.1,0.6-25.6-3.5-38C741.3,300.1,759.6,300.1,777.9,300.1z"/>
	<path class="st15" d="M794.2,624c-0.1,0.7-0.2,1.3-0.3,2c-4.1,3.9-8.8,5.1-14.2,3.7c-1.8-0.5-3.5-1.2-4.1-3.2
		c-0.1-2.1,1.6-2.5,3-3.3c3.7-1.2,5.5-3.7,5.4-7.6c1.7-12.5-0.6-24.8-2.1-37.2c-1.5-12.2-4-24.3-5.7-36.4c-0.3-1.8-0.6-3.6,0-5.4
		c3-4.5,7.4-3.3,11.2-2.2c8,2.3,14.7,6.8,19.5,13.9c2.5,11.6,0.7,23.1-0.9,34.6c-1.6,11.6-5,22.7-8.3,33.9
		C796.7,619.3,796.2,622,794.2,624z"/>
	<path class="st1" d="M771,320.8c3.4,1.9,5.6,4.9,7.3,8.1c2.1,4,5.4,5.2,9.3,4.9c4.5-0.4,6.8,2,8.6,5.6c3.1,6,6.2,7.3,12.7,5.6
		c0,30.3,0,60.5,0.1,90.8c-3.4-6.7-5.1-14.2-9-20.8c-6.3-9.6-8.7-20.4-9.3-31.6c-0.4-7.8-0.3-15.6,0.2-23.4c0.3-5.1,0-10.3-2.8-14.9
		c-2-4-5.9-4.9-9.8-5.8c-1.7-0.4-3.6-0.2-5.4-0.7c-1.3-0.4-2.6-0.8-3.6-1.8c-2.1-3.3-2.5-7-2.6-10.7
		C766.8,323.5,767.5,321,771,320.8z"/>
	<path class="st1" d="M796.2,617c4.5-16.2,9.1-32.4,10.1-49.4c0.4-6.6,0.4-13.1-0.4-19.6c-3.1-8.6-4.5-17.5-5.2-26.6
		c-0.2-1.9-0.6-4.4,2.2-5.4c1,2.1,2.6,4.2,2.9,6.5c0.4,2.8,2,1.4,3.2,1.6c0,30.9,0,61.9,0,92.8C804.7,619.3,800.4,619.2,796.2,617z"
		/>
	<path class="st13" d="M775.8,626c3.5,3.5,7.7,3.7,12.1,2.1c2-0.7,4-1.4,5.9-2.1c-0.6,2-1.2,4.1-1.8,6.1c-3.3,2.7-21.9,2.7-25.2,0
		C767.1,627.3,770.6,624.9,775.8,626z"/>
	<path class="st5" d="M796.2,617c4.2,0,8.5-0.1,12.7-0.1c2.4,5.9,1.7,7.1-4.3,7.1c-3.5,0-7,0-10.5,0
		C794.8,621.7,795.5,619.3,796.2,617z"/>
	<path class="st8" d="M268.9,299.9c1.1-4.9,5.2-8.3,7-12.8c8.5-10.1,18.8-17.4,31.6-21.4c24.9-7.6,51.6,0.7,67.6,21.4
		c5.4,2.8,6.8,8.4,9.3,13.2c3.4,7.7,5,15.8,5,24.2c0,0.5,0,1.1,0,1.6c0,15.8-6,29.3-15.6,41.5c-12.6,14-28.7,21.2-47.2,21.4
		c-16.1,0.2-30.7-5-42.9-16c-0.6-0.5-1.2-1.1-1.7-1.7c-17.6-16.9-22.2-37.6-18-60.9C264.6,306.6,265.3,302.5,268.9,299.9z"/>
	<path class="st2" d="M383.1,299.9c-2.3-4.5-4.7-8.9-8-12.8c18.6,0,37.3,0,55.9,0c-0.5,4.3,1.8,8.4,1,12.8c-1.7,1.8-3.9,1.7-6,1.7
		c-12.3,0.1-24.5,0.1-36.8,0C387,301.6,384.8,301.6,383.1,299.9z"/>
	<path class="st2" d="M721.9,632.1c-3-0.6-4,0.6-3.9,3.7c0.2,6.7,0,13.5,0,20.2c-1.4,1.4-3.3,1.6-5.1,1.6c-26.6,0.1-53.1,0.1-79.7,0
		c-0.8,0-1.7-0.1-2.4-0.3c-3.2-1.1-2-3.1-0.5-4.4c8.4-7.4,14.3-16.4,18.1-26.9c0.5-1.4,1.5-2.6,3.1-3c2.3-0.6,4.6-0.5,7-0.5
		c21.8,0,43.6,0,65.4,0c2.3,0,4.7-0.2,6.9,0.6c2.1,0.9,1.7,2,0.3,3.2C727.6,627.5,725.3,630.7,721.9,632.1z"/>
	<path class="st10" d="M629.1,655.9c29.6,0,59.2,0,88.9,0c0,2-0.1,4-0.1,6.1c-32.6,0-65.3,0-97.9,0
		C621.8,658,624.8,656.1,629.1,655.9z"/>
	<path class="st2" d="M775.8,626c-3.8,0.8-7.7,1.5-9,6.1c-7.3-0.1-14.6-0.2-22-0.2c-0.6-3.5,0-6.5,3-8.7c9.3-1.4,18.7-0.6,28.1-0.5
		c1.2,0,2.3,0.5,3,1.4C778.5,625.6,776.4,624.4,775.8,626z"/>
	<path class="st13" d="M746.9,624.1c-0.2,2.7-0.7,5.3-2,7.8c-5.3,1-10.6,2.3-16,3c-2.5,0.3-6.2,1.9-7.1-2.7c2.1-2.8,4.2-5.5,8-6.1
		c5.9,2.1,11.1-0.9,16.5-2.4C746.5,623.8,746.7,623.9,746.9,624.1z"/>
	<path class="st16" d="M192.8,597c0.1-24.4,0.1-48.7,0.2-73.1c0-2.7,0.1-5.3,0.1-8c2.2-0.3,3.3,1.2,4.6,2.5
		c18.2,17.3,39.3,22.3,63.3,15.1c1.4-0.4,2.8-1,4.3-1.1c2,0.1,3.4,1.2,4.7,2.5c19.2,18.2,41.9,30.8,66,41c2,0.9,4.7,1.2,5.2,4
		c-4,10.4-5.6,21.2-5,32.3c0.1,1.9,0.1,4.1-1.8,5.4c-1.7,0.9-3.5,0.9-5.4,0.9c-14.6,0-29.3,0-43.9,0c-1.8,0-3.7,0-5.4-0.8
		c-0.5-1.5-1.7-1.3-2.9-1.5c-8.3-1.2-16.6-0.9-24.9-0.8c-5.3,0-10.6-0.5-15.8-1.5c-2.5-1-1.6-3-1.1-4.7c3.2-9.8,4.2-20.2,8.5-29.7
		c1.2-2.7,1.3-5.5-0.1-8.2c-0.8-1.6-2.1-2.7-3.9-2.8c-1.7-0.1-2,1.5-2.6,2.6c-0.9,1.5-1.3,3.6-4,2.6c-1.6-0.6-1.6,0.8-1.4,1.7
		c1.7,8.1-1.9,14.9-4.8,22c-2.4,5.7-5.1,11.2-8.1,16.6c-1.8,3.3-4.2,4-7.3,1.6c-3.1-2.5-6.7-4.4-9.6-7.1c-1.7-3-3.8-5.6-6.6-7.6
		C194,600,192.5,599,192.8,597z"/>
	<path class="st16" d="M268.9,299.9c-9.8,21.5-6,51.6,12.3,68.8c0.7,0.7,1.2,1.5,1.8,2.3c0.5,2.6-1.9,3.3-3.3,4.5
		c-9.7,7.9-18.5,16.7-26.4,26.4c-3.3,4.1-5.2,9.3-9.6,12.7c-7.2,1-14.5,0.7-21.6,3.1c-9.6,3.3-17.8,8.8-25.1,15.7
		c-1.2,1.1-1.9,2.9-3.9,2.6c-0.1-34.1-0.2-68.2-0.1-102.3c0-11.1-0.9-22.2,0.6-33.2c11.1-1.1,22.2-0.3,33.3-0.5
		C241,299.9,254.9,299.9,268.9,299.9z"/>
	<path class="st11" d="M192.8,597c1.7,2.9,5.1,3.8,7.1,6.3c1.2,1.4,2.3,2.7,2.2,4.6c-1.2,6.5-3.9,12.2-8.7,16.9
		c-2.7,0.9-5.2-0.1-7.6-1.2c-3.3-1.5-4.5-0.4-4.5,3.1c0.1,4.9,0,9.9,0,14.9c0,1.8,0.1,3.6-0.8,5.3c-7.9,6-19.7,5.1-26.2-2.4
		c-7.6-8.8-12.4-18.8-12.8-30.7c-0.3-8-3.2-15.2-6.8-22.2c-1.5-2.9-3.2-6-0.8-9.3c2-0.4,3.8-1.6,5.9-1.2c1.6,2,2.5,4.4,5.8,4.7
		c6.1,0.5,7.6-0.2,9.4-5.7c5.7,0.8,11.5,1.3,16.9,3.9C178.9,588.2,185.9,592.6,192.8,597z"/>
	<path class="st8" d="M193.2,436c9.8-11.4,21.9-18.8,36.7-21.5c4.7-0.9,9.5-0.7,14.2-0.6c0.7-0.4,1.4-0.7,2.1-1
		c12.9-0.3,24,4.8,34,12.2c10.9,8.1,17.9,19,22.1,31.8c6.5,23.3,1.7,43.9-14.1,62.1c-5.9,5.9-12.4,10.9-20,14.3
		c-0.7,0-1.5,0.1-2.1-0.4c-22.6,10-50.8,4.7-68.3-12.7c-1.5-1.5-3.1-2.9-4.7-4.4c-3.7-6.1-7.9-12-10.2-18.9
		C175.3,474.9,179.1,454.6,193.2,436z"/>
	<path class="st17" d="M221.1,711.1c-0.1,2.3-0.2,4.6-0.3,6.9c-11.9,12-27.4,15.9-43.2,19c-10.3,2-20.8,3.6-29.7,10
		c-1.9-1.3-4.1-1.2-6.2-0.9c-4.8,0.7-8-1.9-6.5-6.1c2-5.6-2-6.2-5.2-7.4c-3.1-1.2-6.5-2.8-8.5,2.1c-1.4,3.5-4.7,2.6-7.5,2.3
		c0-9.7,0.2-19.5-0.2-29.2c-0.1-4,1.3-5.3,5-4.9c6.2,8.7,15.9,10,25.3,12c4.9,1,9.8,1.5,14.8,1c13.1,0.4,26-1.4,39-2.7
		C205.7,712.4,213.4,711.8,221.1,711.1z"/>
	<path class="st8" d="M234.9,612.9c11.4,1.4,22.9,1,34.3,1.1c3.1,0,6.2,0.6,9.3,1.1c1.3,0.2,0.4,1.3,0.5,2c1.3,2.7-1,4.7-1.3,7.1
		c-4.1,10.6-7.8,21.3-11.9,31.9c-2.5,5.2-3.2,11.2-6.9,15.8c-2.4,1.9-5.4,0.3-8,1.1c-21.6-2.1-43.4-1-65-3.3c0.6-2.6,2.8-2,4.4-2.1
		c4.5-0.2,9-0.4,13.4,0c4,0.4,7-1.5,10-3.4c3-1.9,1.7-4.8-2.9-7c-0.4-0.4-0.6-0.8-0.7-1.3c0.3-5.9,3.8-10.8,5.1-16.5
		c0.4-1.8,1.2-3.4,1.6-5.2c2-5.6,3.6-11.4,5.8-16.9C225.2,611.4,228.5,610.3,234.9,612.9z"/>
	<path class="st15" d="M211,656.8c5.8,0.4,7,1.8,5.8,7.7c-0.1,0.4-0.4,1.2-0.4,1.2c-4.2-1.1-6,3.9-10.4,3.6
		c-6.6-0.5-13.4-1.3-20,0.6c-11.2,0.8-22.3,3.4-33.6,3.1c-5.8-0.2-11.7-1-17.4-2.1c-4.1-0.8-7.9-2.9-11-6c-3.7-1.3-5-4.3-5.8-7.8
		c-1.4-5.6-2.8-11.3-4.2-16.9c7.9-1.7,15.9-2.4,23.9-3.1c2.2,2.4,2.2,5.5,2.6,8.4c0.7,5,3.4,8,8.2,9.4c4.7,1.4,9.4,1.7,14.2,1.7
		c6-0.1,11.9-0.1,17.9,0c4.9-0.4,9.8-0.9,14.7-1.5c3.5-0.8,6.5-2.9,10.1-3.7c1.3-0.3,2.7-0.4,3.5,0.9c1,1.5,0.4,2.8-1.1,3.7
		c-0.4,0.2-1,0-1.2,0.3c-0.3,0.3,0,0.4,0.4,0.2C208.6,655.8,209.8,655.9,211,656.8z"/>
	<path class="st18" d="M118.2,657c1.9,2.6,3.9,5.2,5.8,7.8c-1.7,0-3.3,0-5,0C119.1,662.2,117.2,659.8,118.2,657z"/>
	<path class="st1" d="M835.9,780c-9.9,0-16.9-7.3-16.9-17.3c0-9.3,8-16.6,17.9-16.7c8.4-0.1,17.8,5.9,17.6,16.9
		C854.4,771.5,847.8,780.3,835.9,780z"/>
	<path class="st1" d="M373,366.9c4.4-6.6,8.9-13.1,11.5-20.7c2.3-6.6,3.7-13.3,3.6-20.3c5.7-3.6,12.4-3.6,18.6-5
		c7.9-1.8,16-2.8,24.1-4c2.5-0.4,5-0.8,7.2,1c5.8,7.8,11.2,15.8,19.6,21.4c13.1,8.6,27,12.3,42.7,10.8c15.1-1.5,27.5-7.9,38.2-18.2
		c3.9-3.8,7.3-8.1,9.7-13.1c5.3-2.2,10.5,0.2,15.6,1.1c11.7,2,23.4,4.3,34.9,7.7c1.6,0.5,3.1,1,4.4,2.2c1.5,8.3,2.9,16.5,7,24.1
		c9.6,18,24.6,29,44.3,32.7c13.3,2.5,26.6,1,38.8-5.8c2.8-2,5.1-0.3,7.3,1c5.2,3.2,10.4,6.4,15.2,10.3c8.5,8.8,15.4,18.8,20.4,30
		c0.7,1.5,1.3,3,1.2,4.8c-1.7,8.7-3.3,17.3-5,26c0.8,1.5,1,3.1,0.7,4.8c-2.8,17.4-4.6,34.9-6.8,52.4c-0.6,5.3-3.7,9.2-7.1,12.9
		c-17.5,19.7-38.5,34.6-62,46.2c-1.5,0.7-3,1.5-4.7,1.5c-6.4-1.6-11.6-5.8-17.8-7.9c-3.4-1.5-6-4.1-8.9-6.3
		c-7.3-5.5-15.8-8.1-24.3-10.9c-1.5-1-3.2-1.6-4.7-2.7c-1.2-0.9-3.2-1.7-1.3-3.8c2.4-1.1,4.9-0.7,7.4-0.8c23.7,0,47.3,0,71,0
		c27.5,0,49.1-22.7,47.6-50.1c-0.7-13.7-8.4-23.5-18.8-31.6c-6.5-5-13.9-7.7-21.8-9.6c-5.5-1.3-5.9-2-4.8-7.6
		c2.7-13.9-6-28.4-19.9-33.7c-9.2-3.6-18.9-3.6-28.5-4.5c-3.4-0.4-5.3-1.5-6.3-5c-5.8-19.7-19.4-30.5-39.9-32
		c-31.7-2.4-63.5-3.8-95.3-2.9c-15.8,0.4-31.6,1.1-47.2,3.9c-6,1.1-11.7,2.8-17,5.7c-7.7,4.3-13.1,10.6-15.7,19.3
		c-0.6,2.1-0.7,4.3-2.1,6.1c-1.7,1.6-3.1,0.5-4.3-0.7c-9-9-18.5-17.4-26.4-27.5C373.1,367.9,373,367.4,373,366.9z"/>
	<path class="st19" d="M477,235.2c16.3-4.4,31.9-3.3,46.5,5.8c13.7,8.5,22.3,20.8,24.9,36.3c2.6,15.6,0.7,31-9.4,44.2
		c-0.5,0.6-1.3,1-1.9,1.6c-7.8,2.9-14.9,0.4-21.9-2.7c1-3.4-0.7-4.6-3.8-4.7c-0.4-0.3-0.7-0.6-1-1.1c-0.3-1.1-0.2-2.1,0.7-2.9
		c1.8-1.1,3.8-0.8,5.8-1c13.2-0.8,22.3-11,22.9-24.3c0.8-15.2-10.9-25.2-22.7-26c-2.3-0.2-4.7,0.4-6.6-1.5c-1-1.6-0.9-3.5-0.9-5.3
		c0-2.9-1.1-4.2-4.1-4.2c-3,0-4.1,1.5-4.1,4.3c0,3,0.3,5.9-0.5,8.9c-0.8,2.1-2.5,3.4-4,5c-7.2,7.6-9.4,16.4-6,26.4
		c0.6,1.7,1.2,3.4,1.4,5.2c0.1,1.9,0.3,3.9-0.9,5.7c-4.2,0.6-4.6-3.2-6.4-5.5c-1.1-8.4-0.3-16.8-0.5-25.3c0-1.5,0-3-0.1-4.5
		c-0.1-2.6-1.3-3.9-4-4c-2.7-0.1-3.8,1.2-4,3.9c-0.2,3.1,0.6,6.3-1.1,9.2c-2.2,1.1-2.6-0.8-3-2c-4.5-13.1-3.8-26,2-38.5
		C475,236.9,476,236.1,477,235.2z"/>
	<path class="st20" d="M477,235.2c-3.7,8.7-6.6,17.6-5.9,27.2c0.4,5.7,1.3,11.4,3.8,16.7c1.3,1,1.6,2.5,1.6,4
		c0.2,9.5,0.3,19.1,0,28.6c0,1.2-0.3,2.3-1,3.3c-1.4,1.3-2.9,1.3-4.5,0.5c-1.7-1.9-1.4-4.3-1.5-6.6c-0.1-7.5,0-15-0.1-22.5
		c0-1.9,0.5-4-1.4-5.8c-1.9,1.5-1.4,3.6-1.4,5.4c-0.1,7.5,0,15-0.1,22.5c0,2.3,0.2,4.7-1.3,6.7c-1.2,0.8-2.3,0.8-3.5,0.1
		c-1.6-2.2-1.3-4.7-1.3-7.2c-0.1-11,0-21.9-0.1-32.9c0-1.9,0.4-4.1-2.1-5.1c-3.2-1.3-5.6,0.4-5.7,4.4c-0.2,10.6,0,21.2-0.1,31.9
		c0,2.9,0.5,6-1.2,8.7c-1.1,0.9-2.2,0.9-3.5,0.3c-1.7-2-1.4-4.4-1.4-6.6c-0.1-7.5,0-14.9,0-22.4c0-1.9,0.3-4-1.2-5.8
		c-2.1,1.4-1.6,3.3-1.6,5c-0.1,5.8,0,11.6-0.1,17.4c0,2.1,0.2,4.4-1.5,6.1c-6.9-16.3-5.6-32.4,2.6-47.7
		C451.5,248.1,462.3,239.1,477,235.2z"/>
	<path class="st1" d="M555.1,299.9c17.7,0.1,35.3,0.2,53,0.3c-3.3,9.4-5.6,18.9-5.1,29c-6.8-0.8-13.3-3.2-20-4.7
		c-11.3-2.5-22.8-4-34-6.6C551.4,312,553.8,306.1,555.1,299.9z"/>
	<path class="st1" d="M383.1,299.9c16.3,0,32.6,0,48.8,0c1.7,5.4,3.4,10.8,5.1,16.2c-2.5,3.1-6.3,1.7-9.4,2.1
		c-12.8,1.9-25.5,4.2-38.1,7.1c-0.5,0.1-1,0-1.4-0.2C388.2,316.3,386,308,383.1,299.9z"/>
	<path class="st20" d="M484.9,343.9c-8.6-1.9-16.9-4.5-24.1-9.9c-5.5-4.1-10.7-8.5-13.8-14.9c0.9-1.1,2.2-1.5,3.5-1.5
		c14.1,0,28.1-0.8,42.1,0.4c1.7,0.7,2.1,2,1.6,3.6c-2.4,6.8-4.2,13.8-7.3,20.4C486.7,342.9,485.9,343.5,484.9,343.9z"/>
	<path class="st20" d="M515,319.2c7,3.1,14.5,3.9,22.1,3.9c-2.6,5.9-8.1,8.8-12.9,12.3c-6.8,5-14.9,7-23.1,8.6
		c-0.6-0.9-0.6-1.9-0.2-2.9c2.4-6.3,4.3-12.9,6.8-19.2c0.5-1.4,1.2-2.7,2.6-3.5C512,317.7,513.6,317.6,515,319.2z"/>
	<path class="st1" d="M510,319c-3,8.3-5.9,16.6-8.9,24.9c-2.7,0-5.5,0-8.2,0c-1-1.4-0.5-2.9,0-4.2c2.9-7.7,5.4-15.6,8.2-23.3
		c0.5-1.4,1.2-2.7,2.5-3.6c1.8-1,3.5-0.5,5.2,0.2c1,0.3,1.6,1.2,2.3,1.9l0,0.2C512.3,316.8,511.6,318,510,319z"/>
	<path class="st21" d="M504,313c-3.7,10.3-7.4,20.6-11.1,30.9c-2.7,0-5.3,0-8-0.1c3.7-8,6-16.6,9.1-24.9c-0.7-1.4,0-2.7,0.3-4.1
		c0.7-1.8,1-3.7,2.6-5c1.2-0.5,2.4-0.1,3.6,0.2C501.8,310.8,504.1,310.5,504,313z"/>
	<path class="st1" d="M442,308.9c0-9,0-17.9,0-26.9c0-2.3-0.1-4.2,3.3-4.1c3.3,0.1,2.7,2.2,2.7,4.1c0.1,11,0.1,21.9,0.1,32.9
		c-1.3,1.4-2.7,0.9-4.1,0.1C443.1,313,441.7,311.3,442,308.9z"/>
	<path class="st22" d="M444,315c1.4,0,2.7-0.1,4.1-0.1c1,0,1.9,0,2.9-0.1c3.7-2,7.3-2,11,0c1,0,1.9,0,2.9,0.1c2.1-1.5,4.2-1.5,6.2,0
		c1.3,0,2.6,0,3.9-0.1c3.3-2.1,7-1.1,10.6-1.3c1.8,0,3.5-0.1,5.3,0c1.5,0,3,0.2,4.1,1.4c0.2,1.5-0.2,2.7-1,4
		c-15.6,0-31.3,0.1-46.9,0.1C446.1,317.7,445,316.3,444,315z"/>
	<path class="st23" d="M549,317.8c18.2,2.6,36.3,5.9,54,11.3c0.1,0.3,0.1,0.5,0,0.8c-11-2.5-22-5.1-33-7.4
		c-7.2-1.5-14.5-2.4-21.8-3.6C548.4,318.5,548.7,318.2,549,317.8z"/>
	<path class="st23" d="M388.1,325.1c12.4-3.1,24.9-5.2,37.5-7.2c3.8-0.6,7.8-0.3,11.4-1.8c1.2,0.2,0.9,1.1,0.9,1.9
		c-14.1,0.6-27.9,3.8-41.7,6.4c-2.7,0.5-5.4,1-8.1,1.5C388,325.6,388,325.4,388.1,325.1z"/>
	<path class="st10" d="M113.9,750c0,7,0,14,0,21c-4.5,1.1-6.2-2.9-8.9-4.9c-1.7-1.3-2.9-3.2-3.9-5.1
		C103.5,755.2,107.1,750.7,113.9,750z"/>
	<path class="st22" d="M101,761c4.5,3,7.2,8.4,12.9,10c0.1,3,0.2,6,0.2,8.9C104.8,778.6,100.9,773,101,761z"/>
	<path class="st18" d="M181,657.9c-8.3,0-16.6,0.3-24.9,0c-13.1-0.4-17.5-5.6-18.3-20.9c3.8-1.3,2.2-4.7,1.9-6.8
		c-1.4-9.3-3-18.6-5.8-27.6c-0.9-2.7-1.4-5.4-2.6-8c-2.2-4.6-5.4-7-10.5-6.7c3.9-3.1,8.6-4.2,13.1-5.8c-0.2,3,0.3,5.9,1.8,8.6
		c4.6,8.2,6.8,16.9,7.4,26.5c0.6,10.5,5.7,19.7,13,27.3c6.9,7.2,15.4,5.1,23.6,2.5c3.7,2.1,2.3,5.5,2.4,8.6
		C182.1,656.5,181.6,657.2,181,657.9z"/>
	<path class="st15" d="M155.1,580c1.4,6,0.7,6.9-5.8,7c-1.1,0-2.3,0-3.4,0c-4,0-6.6-1.4-6-6c-0.6-6.1,0.3-12.4-3-18
		c0.1-2.3-0.2-4.6,3.6-3.9c3.1,0.6,0.6-2.6,2-3.6c3.6,1.3,7.3,3.3,11.4,0.4c1.9-1.4,2.4,2,4.1,2.3c0.7,2.2,1.3,4.3,2,6.5
		c2.4,7.5,1.5,9.3-6.2,12.4c-3.5,0.9-6.4-0.3-9.2-2.7c2.6,3,6,3.9,9.5,4.6C154.4,579.3,154.8,579.6,155.1,580z"/>
	<path class="st24" d="M154.1,578.9c-5.1,1.5-9.6-1.2-11.8-7.9c3.6,3.6,7.5,4.9,11.6,6C153.9,577.6,154,578.3,154.1,578.9z"/>
	<path class="st8" d="M601.9,544.9c8.8,2.2,17.4,5.2,24.7,10.9c2.7,2.1,5.5,4.1,8.3,6.2c4.5,2.9,7,7.5,10.1,11.7
		c0.5,0.6,0.9,1.2,1.3,1.9c6.7,13,8.9,26.7,6.9,41.1c-0.8,2.5-0.3,5.5-3,7.3c-3.6,11.7-9.6,21.9-19.3,29.7c-0.7,0.6-1.2,1.5-1.8,2.3
		c-3.3,1.6-6.3,3.7-9.1,6c-9.3,3.6-18.7,6.9-28.8,6.9c-10.5,0-20.6-2.5-30.2-6.9c-3.7-1-6.9-2.9-9.8-5.3
		c-11.1-8.5-18.1-19.7-22.1-33c-0.6-2.3-1.2-4.5-1.5-6.8c-1.2-4-0.9-8.1-0.9-12.2c0-0.5,0-1.1,0-1.6c2.3-34.6,30.3-60.6,64.7-60.4
		C595.1,542.6,598.5,543.9,601.9,544.9z"/>
	<path class="st10" d="M551.9,656c3,2,6.1,4,9.1,6c-6.3,0-12.6,0-18.8,0c0-2-0.1-4-0.1-6C545.3,653.4,548.6,654.8,551.9,656z"/>
	<path class="st2" d="M459.9,656c-7.9,0-15.9,0-23.8-0.1c-0.7-2.5,1.3-3.6,2.6-4.9c7.1-6.8,12.4-14.7,15.7-23.9
		c0.8-2.1,1.9-3.9,4.3-4.4c14.1-0.8,28.2-0.2,42.3-0.4c7.5-0.1,14.9,0,22.4,0c2.3,0,4.7-0.1,6.6,1.6c4,10.7,9.2,20.7,17.9,28.5
		c1.3,1.2,2.6,2.3,3.9,3.5c-3.3,0-6.5,0-9.8,0.1C514.7,656,487.3,656,459.9,656z"/>
	<path class="st6" d="M647.9,272.1c30-9.6,61.2,6.3,70.5,35.2c5.9,18.3,3.1,35.9-8.2,51.8c-0.6,0.8-1.5,1.3-2.2,2
		c-1.1,0-2.2-0.1-3-1c-0.7-15.8-6.8-28.6-20.3-37.5c-0.5-0.3-1.2-0.4-1.9-0.6c-0.8,0.1-1.6,0-2.5-0.2c-8.3-2.2-8.6-2.9-3.6-9.6
		c5.3-7.1,5.7-18.9,0.8-26.3c-3.5-5.2-8.2-8.6-14.7-7.2c-7.1,1.5-11,6.8-12.5,13.4c-2,8.5-0.7,16.5,6,22.9c0.9,0.9,2.1,1.8,1.4,3.4
		c-3.3,1.5-6.4,4.2-10.5,2.7C639.3,304.6,639.2,288.3,647.9,272.1z"/>
	<path class="st25" d="M685.1,377.9c-13.8,4.6-27.6,4.5-41.2-0.8c-6.9-2.7-12.8-6.8-17.8-12.1c-2.7-6-1.3-12,0.4-17.9
		c2.5-8.8,7-16.3,14.2-22.1c1.4-1.1,2.9-2.3,4.8-2.4c2.1,0.3,2.7,2.1,3.6,3.7c2.8,5,6.1,9.7,9.6,14.3c1.8,3.8,4.8,7.1,6,11
		c1.6-3.2,1.6-3.2,4.4-4.6c4.6,7.4,9.2,14.7,15.1,21.2C684.8,371.3,684.4,374.7,685.1,377.9z"/>
	<path class="st26" d="M646,322.9c-12.9,7.7-18.7,19.6-19.9,34c-0.2,2.6,0,5.3,0,8c-9.1-8.6-14.6-19.2-15.9-31.5
		c-1.6-15.2,1-29.6,10.7-42.2c7.1-9.2,16.2-15.3,27.1-19.1c0.2,3.6-2,6.6-3,9.8c-4,13.5-1.7,26.4,3.1,39.1
		C648.3,322.7,647.1,322.8,646,322.9z"/>
	<path class="st8" d="M658,318c-6.3-4.6-9.2-11-9.7-18.5c-0.7-10.2,6.1-23.6,18.6-22.5c6,0.5,13.1,6.6,14.7,13.8
		c1.7,7.7,1.3,15.2-3.5,22.1c-1.3,1.9-3.2,2.8-4.7,4.5c2.8,2.6,7,1.9,9.6,4.6c-4.2,6.6-6.9,14-11.9,20.1c-2.9-2.6-3.6-6.3-3.2-9.6
		c0.6-5-1.7-6.4-5.8-6.8C660,323.5,660,320.2,658,318z"/>
	<path class="st27" d="M685.1,377.9c-2.2-3.1-2.7-6.4-1-9.8c1.6,1,3.8,0.9,5.2,2.5c0.5,0.5,2.9,1.9,1.9-1.3c-0.3-1,0.6-1.9,1.6-2.1
		c1.3-0.2,1.3,1.3,1.8,2c1.8,3.1,2.8,6.8,7.3,6.9c9.3,4.5,19.1,7.1,29.6,6.9c3.3,0,6.4-0.7,9.4-2.1c4.8-3.5,9.4-7.2,13.6-11.6
		c1.8-1.9,3.6-2.3,4.9,0.8c1.2,3,4,4.8,6.1,7.1c3.8,4.1,3.7,5-0.9,7.9c-7.1,4.6-14.7,8.4-22.3,12c-7.7,2.3-15.2,1.6-22.7-1
		c-1.9-0.5-2.9-2.3-4.6-3c-5-3.4-10-6.8-15-10.1c-2.1-1.3-4.3-2.4-6.9-2.1C690.6,379.5,687.4,380,685.1,377.9z"/>
	<path class="st11" d="M662,324.8c0.7,0.1,1.3,0.2,2,0.1c4.3-0.4,7.4-0.3,5.2,5.7c-1.3,3.7,1.6,7.4,2,11.3c-0.7,1.6-1.5,3.3-2.2,4.9
		c-2.5,1.1-2.1,4.4-4.5,5.9c-1.9-4-5.5-7.1-6.3-11.8c-0.5-4.7,1.8-9.3,0.3-14.2C657.8,324.8,659.7,323.7,662,324.8z"/>
	<path class="st26" d="M705.1,360.1c1.1-0.1,2.3-0.2,3,1c-0.9,1.1-1.7,2.2-3,3.7C705.1,362.8,705.1,361.4,705.1,360.1z"/>
	<path class="st23" d="M644.9,575.1c-0.3-0.4-0.6-0.8-0.9-1.1c1.6-3.4,5.1-3.2,8.1-3.9c14.3-6.1,27.3-14.3,39.8-23.5
		c11-8.1,20.3-17.8,29.3-28.1c4.5-5.2,3.9-11.4,4.7-17.2c2.2-14.8,3.2-29.7,6-44.3c0.3-1.3,0.2-2.6,0.3-4c9.5,7.4,20,11.8,32.1,13.2
		c7.6,0.8,14.7-0.3,21.8-2.6c7.1-2.3,8.7-1.3,10,6.1c2.1,11.8-1.4,22.9-4.9,33.9c-2.8,8.9-8.3,16.5-13.2,24.3
		c-0.5,0.8-1.3,1.2-2.2,1.4c-6.7,0.6-13.2-0.7-19.7-1.7c-8.3-0.9-16.5-2.8-24.6-5c-5.4-2.4-9.3-1.5-13.5,3.4
		c-17.3,20.1-39.3,34.2-62.9,45.9C651.8,573.1,648.8,575.5,644.9,575.1z"/>
	<path class="st28" d="M742.9,396c8.1-5,17-8.7,24.7-14.3c-2.8-5-9-7-10.1-13.3c-5.7,4.2-9.2,11-16.6,12.5c-1-5.9-3.1-11.5-4.3-17.4
		c-2.8-13.2,4.2-20.6,14.6-24.5c1.5-0.6,3.1-0.7,4.7-1.1c0.7,2.4,1.7,4.1,4.8,3.8c3.9-0.3,7.8-0.2,9.3-4.8c1,0.2,2.4-0.5,3,1
		c0.1,0.3,0.3,0.6,0.5,0.8c2,2.1,1.7,6,4,7.2c2.5,1.3,4.3-2.5,6.9-2.8c1.6-0.2,3-0.2,4.2,0.8c3.7,5.6,3.4,11.7,3.3,18.1
		c-0.3,17.6-1.8,35.6,8.7,51.5c0.4,0.6-0.2,1.2-0.8,1.5c-7.1,1.5-13.7,4.8-21,5.3c-12.1,0.8-24.2,1.3-36.1-2.3
		c-2.2-0.7-1.8-1.9-2.1-3.2C739.4,408.4,740.5,402.2,742.9,396z"/>
	<path class="st24" d="M776,528.2c0.7-0.1,1.3-0.2,2-0.3c6,0.7,11.9-0.3,17.8-0.8c2.1-0.2,2.6-1,1.8-2.9c-1.2-2.7-0.5-5.6-0.5-8.4
		c0-2.1,1.4-3.6,3.4-3.6c2.5-0.1,2.8,1.8,2.4,3.9c-2.1,5.3-0.3,10.5,0.5,15.7c0.9,5.4,2.6,10.7,2.5,16.3c-4.6-4.1-9-8.6-14.9-11
		c-4.5-1.8-9-3-13.8-0.9C774.3,533.7,774.1,531.1,776,528.2z"/>
	<path class="st1" d="M742.9,396c0,6.4-1.1,12.7-2,19c-1,3.3-1.9,6.6-2.9,9.9c-1.2,0.5-1.4-0.4-1.7-1.1c-4.1-9.2-9.6-17.6-15.8-25.6
		c-0.7-0.8-1.8-1.6-1.4-3c4.3-0.1,8.2,2.2,12.6,1.9C735.4,396.9,739.1,396.8,742.9,396z"/>
	<path class="st23" d="M719,395.2c7.5,9.2,13.4,19.3,18.9,29.7c0,0.8,0,1.6-0.8,2.1c-5.9-12.3-12.8-23.8-22.2-33.8
		C717,392.5,717.6,394.7,719,395.2z"/>
	<path class="st27" d="M770.1,337c1.4,2.4,0.9,3.9-1.8,4.9c-2.8,1-5.8,1.1-8.7,1.2c-4.2,0.2-5.6-1.1-3.6-5.1c0-0.3,0.1-0.7,0.2-1
		c3-2.9,7.6-4.1,9.3-8.7c0.3-0.5-0.8-0.3-0.2-0.1c0.1,0,0.1,0.2-0.1,0.5c-2.3,3.1-4.6,6.1-9.2,4.4c-6.9-1.3-10.1-5.7-8.2-12.2
		c0.8-2.7-0.9-5.7,1.3-8c3.3-0.3,6.6-0.5,9.5-2.5c1.5-1,3.1-0.7,3.8,0.9c1.8,3.6,5.1,4.8,8.6,5.8c0,1.3,0.1,2.5,0.1,3.8
		c-6.2,4.2-1.6,9.4-1.4,14.2C769.6,335.7,769.9,336.3,770.1,337z"/>
	<path class="st12" d="M770.9,317.1c-4.7,1.6-7.4-0.8-9.2-4.8c-0.9-2.2-1.8-1.4-3.3-0.5c-2.9,1.6-5.9,3.8-9.4,1.1
		c-2.9-1.2-6.4-2.2-4.9-6.5c1.2-3.5,4.2-5.9,7.8-5.2c5,0.9,10.8-0.7,15,3.8C771.9,308,773.1,311.7,770.9,317.1z"/>
	<path class="st24" d="M755.9,333.1c4.9-0.9,5.7-1.4,11.1-7.7c-1.1,6.9-4.8,10.4-10.8,11.7C756.1,335.7,756,334.4,755.9,333.1z"/>
	<path class="st1" d="M776,528.2c-0.2,2.7,0,5.3,1.2,7.8c0.1,8.1,2.2,15.9,3.3,23.8c1.7,11.9,4.1,23.6,4.7,35.6
		c0.2,4.8,0.8,9.5,0.9,14.3c0,2.5-0.2,4.9-1.2,7.3c-4.9,2.8-10,1.3-15.1,1.1c-5.3-1.2-10.6-2.4-15.8-4c-2.2-0.7-4.5-1.2-5.7-3.5
		c-0.9-6.3,1.8-12.1,2.6-18.1c1.7-12.7,2.3-25.5,3.6-38.2c0.4-3.5-0.9-6.9-0.8-10.4c-0.2-3.9-0.1-7.8-0.1-11.7
		c0.1-2.3,0.4-4.6,2.5-6.1C762.7,526.8,769.3,527.5,776,528.2z"/>
	<path class="st5" d="M769,616.8c5.3,0.1,10.6,0.1,15.9,0.2c0.9,4.7-2.2,6.1-5.8,7.1c-10.7,0-21.4,0-32.2,0c0,0,0-0.1,0-0.1
		c-1.7-2.9-1.9-5.6,1-7.9C755,614.3,762,616.3,769,616.8z"/>
	<path class="st18" d="M788.8,344c-3.6-0.4-6.3,1-8.9,3.4c-1.8,1.6-3.6,2.3-4.2-1.4c-0.4-2.7-2.6-5-2.6-8
		C779.1,338,784.9,338.6,788.8,344z"/>
	<path class="st16" d="M373,366.9c7.7,7.9,15.4,15.8,23.1,23.6c2.2,2.2,4.5,4.3,6.8,6.5c1.8,4.6,1.1,5.8-3.6,5.5
		c-12.9-0.8-25.4,0.7-36.7,7.3c-9.2,5.4-16.3,12.6-18.6,23.6c-0.6,3-0.6,5.9-0.1,8.9c0.4,2.8-0.7,4.7-3.7,4.8
		c-13.1,0.2-25.3,3.5-36.8,9.8c-0.7,0.4-1.6,0.4-2.4,0c-8.1-23.8-24.7-37.8-49.2-42.8c-1.9-0.4-4-0.2-5.9-0.3
		c-0.4-0.6-0.5-1.2-0.1-1.9c10.2-15.9,22.9-29.3,38.3-40.1c10.3,8.5,21.7,13.9,35.3,15.2c20.9,1.9,38.2-4.9,52.6-19.6
		C372.3,367.3,372.7,367.1,373,366.9z"/>
	<path class="st26" d="M369.1,360c-2.3,5.7-7.3,8.9-12.1,11.9c-19.6,12.1-40,13-60,1.4c-13.8-8-22.7-20.4-25.9-36.4
		c-3.7-18.4,0.9-34.9,12.8-49c6.5-7.7,14.9-13.5,25.1-15.8c0.9,1,0.7,2.2,0.3,3.2c-2.8,7.1-4.4,14.5-5.2,22.1
		c-0.1,0.7-0.4,1.2-0.8,1.8c-1.2,0.9-2.5,1.1-4,1.1c-8,0.4-10.3,2.2-9.7,10.3c0.8,10.5,0.7,21,0.9,31.4c0.1,3.4,1.4,6.1,4.6,7.7
		c5.5,2.8,5.9,4.3,3.4,10.1c-0.7,1.7-2,3.1-2.7,5.4c4.8,0.7,8.9-0.4,12.7-3c1.5-1,3.2-2.1,4-3.7c5.1-10.6,14.2-9.8,23.5-8.5
		c9.4,4.9,19.4,7.8,30,8.6C367.1,358.8,368.2,359,369.1,360z"/>
	<path class="st6" d="M369.1,360c-11.8-0.1-23-2.5-33.1-8.9c3.2-2.5,7.1-2.3,10.9-2.6c4.5-0.3,9,0.1,13.4-0.1c6-0.3,8-2.3,8.2-8.2
		c0.1-2.5,0-5,0.1-7.5c-0.4-8.8,0.5-17.6-1-26.4c-1-5.7-2.7-8-8.4-7.7c-15.6,1-31.2,0.3-46.8,1.4c-3.2,0.2-6.6,1.3-9.5-1.3
		c-0.4-9.4,2.8-18.1,6-26.7c12.2-4.5,24.5-3.8,36.3,0.7c18.6,7,30.6,20.5,35.2,40c3.8,16.2,0.2,31.1-8.8,44.9
		C371,358.6,369.9,359.2,369.1,360z"/>
	<path class="st23" d="M284.1,371.9c-6,5.2-12.4,9.9-17.8,15.6c-7.6,8.1-15.6,16.1-20.5,26.4c-0.6,0-1.2,0-1.8,0
		c3.8-7.1,8.7-13.6,14.1-19.6c7.5-8.5,16.2-15.9,24.8-23.2C283.4,371.3,283.8,371.6,284.1,371.9z"/>
	<path class="st15" d="M748,616.8c-2,2.1-0.5,4.8-1.1,7.2c-4.2,1.7-8,4.6-13,4c-1.7-0.2-3.2-0.3-4-2c0.7-0.6,1.5-1.3,2.2-1.9
		c1.4-2.4,4.5-4.1,3.2-7.6c-0.8-3.7-0.9-7.5-1.7-11.2c-1.9-19.8-4-39.5-4.2-59.4c0-2.5-0.3-5,0.8-7.3c1-1.7,2.7-1.8,4.3-1.8
		c7.7-0.2,14.8,1.3,20.2,7.3c2.2,13.5-0.6,26.7-1.6,40c-0.6,9.2-3.3,18-4.1,27C749.6,613.1,749.5,615.1,748,616.8z"/>
	<path class="st5" d="M736.8,617c0.7,3.9-1.3,6-4.8,7.1c-27.3,0-54.6-0.1-81.9-0.1c1.7-2-0.1-5,1.9-6.8c1.9-1.8,4.3-1.7,6.6-1.7
		c23.8,0,47.7,0,71.5,0C732.5,615.4,734.8,615.5,736.8,617z"/>
	<path class="st8" d="M457.2,624c-3.9,12.7-11.9,22.7-21,32c-6.3,2.8-11.8,7.2-18.5,9.3c-20.6,6.7-39.7,4-57.4-8.5
		c-0.6-0.5-1.5-0.6-2.3-0.8c-11.5-7.7-17.9-19-22.1-31.8c-0.6-2.4-1.3-4.8-0.7-7.3c0.1-9.3-0.8-18.7,1.9-27.9c1-3.5,2.6-6.7,4-10
		c-0.3-0.5-0.4-1-0.2-1.5c8.9-17.5,23-28.5,42.1-32.9c38.4-8.9,76.2,19.7,77.5,58.6c0,0.5,0,1.1,0,1.6c-0.1,4.1,0.5,8.3-0.8,12.4
		C459.2,619.5,458.9,622,457.2,624z"/>
	<path class="st15" d="M234.9,612.9c-9.6,0.3-9.5,0.3-12.7,9.6c-1.4,4.2-2.9,8.3-4.4,12.4c-1.8,1.7-3.8,0.7-5.6,0.2
		c-6.3-2-11.8-5.5-17.4-9c-0.7-0.4-1.2-1.1-1-2.1c2.7-5.4,5.5-10.7,8.2-16.1c3.7,1.7,6.9,4.3,10.1,6.8c2.2,1.8,3.7,2.1,5.1-0.7
		c5.3-10.4,10.9-20.6,13.5-32.1c0.4-1.7,0.3-3.5-0.5-5.4c-0.9-2.3-0.8-4.6,1.8-6.2c1.4,0.4,0.3,2.6,2,2.9c0.1,0,0.5,0,0.6-0.1
		c0.4-0.9,0.8-1.8,1.2-2.7c0.8-1.7,1.1-5,3.2-4c2,0.9,5.2,1.1,5.9,4.6c0.6,3,1.3,5.7-0.1,8.6c-4.7,9.9-5.4,20.9-9,31
		C235.7,611.4,235.3,612.2,234.9,612.9z"/>
	<path class="st5" d="M335,616.8c1.7,2.1,0.7,4.9,1.8,7.1c-1.9,1.8-4.3,1.6-6.6,1.6c-15.6,0.1-31.2,0.1-46.8,0
		c-2.3,0-4.7,0.2-6.6-1.6c-0.4-2.7,2-4.4,2.2-6.9C297.7,617,316.4,616.9,335,616.8z"/>
	<path class="st23" d="M341,578c0,0.3,0,0.6-0.1,0.9c-14.9-5.1-28.6-12.4-42-20.5c-11.9-7.2-22.7-15.7-32.7-25.2
		c0.6-0.1,1.2-0.2,1.8-0.2c1.7-0.3,2.8,0.8,3.9,1.8c18.8,17.6,41,29.9,64.5,40C338.1,575.4,340.2,575.7,341,578z"/>
	<path class="st2" d="M193.9,624c7.7,4.4,14.8,10,24,10.9c-1.4,7.3-4.8,14-6.9,21.1c-1.4,0.7-2.7,0.9-4-0.1c0.6-1,2.7-1.2,1.8-2.9
		c-0.9-1.7-2.1-0.4-3.3-0.2c-3.4,0.6-5.9,3.4-9.5,3.4c-4.9,0.1-9.9,1.4-14.8-0.2c-0.7-3,0.9-6.3-1.3-9c0-8.9,0-17.8,0-26.9
		C185.1,621.2,188.9,624.6,193.9,624z"/>
	<path class="st22" d="M301,457c12-7.2,24.9-11.2,39-10.9c2.1,0,3.2-0.6,2.8-2.9c-2.9-16.5,6.4-26.6,19-34.4
		c11.4-7,24.3-8.8,37.3-7.5c4.7,0.5,3.9-1.6,3.7-4.2c2-6.2,3.2-12.7,7.5-18.1c7.4-9.1,17.3-13,28.3-14.8c12.2-2,24.6-2.5,37-3.3
		c18.3-1.2,36.6-1.1,54.9-0.5c19.8,0.6,39.8,0.7,59.4,3.9c13.3,2.2,28.6,13.6,32.7,31.9c0.8,3.7,2.3,3.7,5.2,4
		c9.3,0.9,18.8,1,27.8,4.2c13.5,4.8,22.6,17.6,22.3,32c0,0.8,0.2,1.8-0.1,2.5c-2.9,5.4-0.2,6.2,4.8,7.5
		c19.8,5.2,34.8,16.3,39.7,37.5c3.2,13.7-1.4,25.9-9.5,36.9c-9.9,13.3-23.3,19.5-39.9,19.4c-26-0.1-52,0-78,0.1
		c-1.9,1.8-4.4,1.4-6.7,1.4c-80,0-160,0.1-240-0.1c-13.2,0-26.3-1.9-38.8-6.4c-6.3-2.3-12.2-5.5-17.4-9.6c-2.2-1.7-4.6-3.4-5.1-6.5
		c10.9-12.8,17.2-27.4,16.9-44.4C303.8,468.5,302.6,462.7,301,457z"/>
	<path class="st16" d="M287,518.9c13.9,14,31.4,19.4,50.4,20c83.7,2.6,167.4,0.5,251.1,1.1c2.2,0,4.3,0.1,6.5,0.1
		c1.5,2.7,5.1,2.6,6.9,4.8c-11.1-1.7-22-1.2-32.6,2.9c-22.5,8.6-36.3,24.5-40.4,48.5c-0.4,2.3-1.1,4.5-1,6.8
		c-5.3,2.5-11.1,1.8-16.6,2.1c-15.3,0.7-30.6,0.2-45.9,0.2c-2.4,0-4.7-0.2-6.3-2.3c-1-29-24.4-54.7-52.5-58.2
		c-28.9-3.5-50.2,7.6-64.9,32.4c-0.2,0.3-0.5,0.4-0.8,0.6c-10.8-4.9-21.7-9.5-32-15.4c-14.8-8.4-28.7-18-41-29.8
		C274.7,528.7,281.4,524.5,287,518.9z"/>
	<path class="st20" d="M284.1,512.1c-9.5,11.1-21.6,17.1-36.1,19c-28.8,3.7-54.1-15.1-60.3-40.3c-4.5-18.3-1.9-35.9,11-51
		c6.9-8.2,15.2-13.8,25.3-16.9c2.3,0.3,1.4,1.9,1,2.9c-4.7,11.5-5.8,23.4-2.8,35.5c0.2,0.8,0,1.6-0.3,2.4c-3.2,4.1-7.3,6.6-12.6,6.7
		c-0.7,0,0.2,0-0.5,0c-9.4,0.9-10,1.7-8.3,11.1c0.5,3.2,1.4,6.4,1.9,9.7c0.4,2.8,1.6,5,4,6.5c2.9,5.5,4.1,11.5,6.3,17.3
		c1.9,5.3,2.9,6.1,6.8,4.8c4.1-1.3,4.6-2.9,2.6-8.3c-1.5-4.1-3.1-8.1-4.3-12.2c-0.5-1.7-1.5-3.4-0.5-5.3c1.7-1.4,3.7-1.5,5.6-1.2
		c6.5,1,13.2,0.6,19.6,2.3c4.6,1.9,8.3,5.5,12.9,7.5c7.4,3.2,15.1,5.1,23,6.4C280.4,509.2,283.4,508.8,284.1,512.1z"/>
	<path class="st19" d="M221,463.8c-0.7-4.1-1.6-8.1-1.9-12.2c-0.6-9.2,0.8-18.1,4.9-26.5c0.3-0.7,0.9-1.5,0-2.2
		c22.4-8.6,49.7,1.3,63.4,20.4c14.3,19.8,12.4,52.3-3.3,68.8c-4.4-2.5-9.5-2.1-14.2-3.3c-9.8-2.5-19.1-5.9-26.9-12.7
		c1.4-1.6,3.2-1.3,5-1.2c10.7,0.9,21.3,2.1,32,2.8c3.8,0.7,4.4-1.9,4.6-4.7c0.4-6.3-1-12.4-1.5-18.6c-0.2-2.8,1.3-5.3,1.5-8
		c-0.1-4-2.5-6.9-4.6-10c-2.2-5.6-3.2-11.6-5.7-17c-1-2.2-1.7-4.9-5.1-4.4c-9.7,5.1-18.5,11.6-27.8,17.3
		c-5.3,3.3-10.7,6.6-15.9,10.1C224.1,463.4,222.9,464.8,221,463.8z"/>
	<path class="st2" d="M276.9,624c20,0,39.9,0,59.9,0c3.7,10.7,8.9,20.4,17.5,28c1.3,1.2,2.9,2.2,3.5,4c-30.9,0-61.8,0-92.8,0
		C268.4,645.1,272.4,634.4,276.9,624z"/>
	<path class="st10" d="M207,655.8c1.3,0,2.7,0.1,4,0.1c0,0.3,0,0.6,0,0.8c-1.6,0-3.2,0.1-4.8,0.1c-0.6,0-0.7-0.5-0.1-0.8
		C206.4,656,206.7,655.9,207,655.8z"/>
	<path class="st10" d="M181.2,656c4.9,0.1,9.9,0.1,14.8,0.2c-4.9,1.2-10,1.3-15,1.8C181.1,657.3,181.1,656.6,181.2,656z"/>
	<path class="st16" d="M652.1,570.1c-2.3,2.1-5.6,2.2-8.1,3.9c-3-4-6.1-8-9.1-12C641,563.9,646.3,567.5,652.1,570.1z"/>
	<path class="st22" d="M511,258.8c7.5,0,14.6,0.9,20.8,5.9c3.9,3.2,6.7,7,8,11.5c5.4,18.5-5.2,35.5-24.9,35.7c-1.3,0-2.7,0.1-4,0.2
		c-0.6,0.4-1.3,0.7-2,0.7c-2.8-0.7-5.4-1.8-8-2.8c-1.8-0.7-3.1-2.1-4.5-3.3c-2.2-2.3-4.8-4.3-5.3-7.7c-3-7.6-4.5-15.1-1.3-23.2
		c2.2-5.5,6-9.2,10.2-12.9C503,259.6,506.3,257.4,511,258.8z"/>
	<path class="st11" d="M486,314.8c-3.7,0-7.3,0-11,0c-0.1-11.9-0.1-23.9-0.2-35.8c0.1-2.7,0.2-5.3,0.2-8c0-7.3,0-7.1,7.5-7.1
		c2.9,0,3.5,1,3.5,3.7c-0.1,10.8,0.1,21.6,0.1,32.4C488,305,488.6,309.9,486,314.8z"/>
	<path class="st11" d="M511,258.8c-4,0.4-7.4,2.6-11,4c0-3.8,0.1-7.7-0.1-11.5c-0.1-2.6,0.6-3.7,3.3-3.4c1.5,0.2,3,0.2,4.5,0
		c2.7-0.3,3.5,0.8,3.3,3.4C510.8,253.8,511,256.3,511,258.8z"/>
	<path class="st1" d="M491.1,298.9c2,2.4,3.9,4.7,5.9,7.1c0.8,1.3,1.3,2.6,0.1,3.9c-0.5,1.7-0.7,3.7-2.1,5.1c-1.4,0-2.7-0.1-4.1-0.1
		c-1.9-3.3-2-6.6,0-9.9C490.9,303,491,301,491.1,298.9z"/>
	<path class="st20" d="M490.9,305c0,3.3,0,6.6,0,9.9c-1.6,0-3.3,0-4.9-0.1c0.1-4.9,0.1-9.9,0.2-14.8
		C488.5,301,488.8,303.8,490.9,305z"/>
	<path class="st22" d="M510,319c0.7-1.3,1.2-2.6,1-4c1.3,0,2.6-0.1,3.9,0c1.2,0.1,2.7-0.5,3,1.5c0.4,2.5-1.4,2.5-3,2.6
		C513.3,319.1,511.7,319.1,510,319z"/>
	<path class="st11" d="M509,312.1c0.7,0,1.3,0,2,0c0,0.9,0,1.8,0.1,2.6c-0.7-0.3-1.3-0.6-2-0.9C508.4,313.4,508.4,312.8,509,312.1z"
		/>
	<path class="st11" d="M462,314.8c-3.7,0-7.3,0-11,0c0-14.2,0.1-28.3-0.1-42.5c0-3.4,0.7-4.6,4.3-4.4c6.7,0.3,6.7,0,6.7,6.9
		C462,288.2,462,301.5,462,314.8z"/>
	<path class="st1" d="M471.1,314.9c-2.1,0-4.2,0-6.2,0c0-11,0.1-21.9,0.1-32.9c0-2.3-0.1-4.2,3.3-4.1c3.3,0.1,2.7,2.2,2.7,4.1
		C471,293,471.1,303.9,471.1,314.9z"/>
	<path class="st6" d="M509,312.1c0,0.6,0,1.2,0.1,1.8c-1.7-0.3-3.4-0.6-5-0.9c-1.4-0.7-2.7-1.4-4.1-2.1c-0.5-1,0.1-1.5,1-1.8
		C503.9,309.5,506.3,311.1,509,312.1z"/>
	<path class="st19" d="M500.9,309.1c-0.3,0.6-0.6,1.2-1,1.8c-1-0.3-1.9-0.7-2.9-1c0-1.3-0.1-2.6-0.1-3.9
		C498.3,307.1,499.6,308.1,500.9,309.1z"/>
	<path class="st16" d="M736.8,617c-28.2,0-56.5,0.1-84.7,0.1c0.4-10.6,0.9-21.2-3.1-31.4c-1.4-3.5-2.7-7-4.1-10.5
		c3.3-1.4,6.7-2.8,10-4.3c2.7,0.1,5.1,1.3,7.5,2.4c22.7,10.8,45.4,21.8,69,30.6c1.3,0.5,2.5,1,3.4,2
		C737,609.4,735.1,613.5,736.8,617z"/>
	<path class="st19" d="M573,553.2c21-5.5,40.7-2.5,56.3,13c20.8,20.6,22.4,50.4,6,74c-0.5,0.8-1.5,1.2-2.3,1.8
		c-2.1-2.2-1.6-5-1.6-7.6c-0.1-16.3,0-32.6,0-49c0-6.5-0.3-6.8-6.8-6.8c-16.2,0-32.3,0-48.5,0c-2.5,0-5,0.2-7.4-0.7
		c-2.3-1.3-2.2-3.6-2-5.7C567.4,565.4,568.7,558.8,573,553.2z"/>
	<path class="st1" d="M568,576.9c19.9,0,39.9,0.2,59.8,0.1c4.1,0,5.4,1,5.3,5.2c-0.2,19.9-0.1,39.9-0.1,59.8c-2.1,4.6-6.3,7-10,10.1
		c-7.3-2.7-14.9-1-22.4-1.8c-0.6-0.1-1.1-0.2-1.7-0.5c-1.1-0.8-2.9-1.3-1.6-3.2c6.2-2,12.5-0.6,18.7-0.9c6.7-0.4,10.5-7,7.2-12.9
		c-1.7-3-4.2-4.3-7.8-4.3c-9.3,0.1-18.6,0.1-27.9,0c-2.2,0-4.3,0.1-6.4-0.4c-0.6-0.2-1.1-0.5-1.5-1c-0.4-0.9-0.3-1.8,0.4-2.5
		c2.3-1.4,4.8-1.1,7.3-1.1c9.5-0.1,19,0.1,28.4-0.1c3.7-0.1,6.4-1.6,7.8-5.2c1.4-3.6,0.7-6.8-1.9-9.7c-1.8-2-4-2.1-6.4-2.1
		c-13.1,0-26.3,0-39.4,0c-2.2,0-4.3,0.2-6.5-0.4c-0.6-0.2-1.1-0.5-1.6-0.9c-0.5-0.9-0.4-1.8,0.3-2.5c2.2-1.5,4.8-1.2,7.3-1.2
		c12-0.1,23.9,0.1,35.9-0.1c3.6-0.1,7.4,0.2,10.2-2.8c2.6-2.8,3.5-6,2-9.7c-1.5-3.6-4.2-5.5-8.1-5.5c-18.3,0-36.6-0.2-54.9,0.1
		c-0.6,0-1.2-0.1-1.8-0.4c-1.5-2.1-2.5-4.3-0.6-6.7C561.5,575.2,564.8,574.9,568,576.9z"/>
	<path class="st20" d="M568,576.9c-3.3,0.1-6.6,0.2-9.9,0.3c-0.9,0.7-2,1.1-3.2,1.3c-6.2,1.1-6.2,1.1-6.2,7.5c0,16.1,0,32.3,0,48.4
		c0,2.6,0.5,5.4-1.6,7.6c-25.3-31.1-10.9-77,26-88.8c-0.7,5.2-3.7,9.7-4.3,15C568.3,571,568.2,573.9,568,576.9z"/>
	<path class="st16" d="M458.1,617.1c1.8-4.3,0.4-8.8,1-13.2c2.1,0.4,4.2,0.6,6.4,0.6c15.1,0,30.2,0.1,45.2-0.1
		c5.7-0.1,11.4-1.8,17.2-0.6c0.4,4.4-0.4,8.9,1,13.2c-1.9,1.7-4.3,1.5-6.7,1.5c-19.2,0-38.3,0-57.5,0
		C462.4,618.6,460,618.8,458.1,617.1z"/>
	<path class="st29" d="M547,642c0-19.6,0.2-39.2-0.1-58.7c-0.1-4.9,0.9-7.2,6.2-6.3c1.6,0.3,3.3,0.1,5,0.2c0.3,1.9,0.6,3.8,1,5.8
		c-0.3,2.3-2.3,3.5-3.1,5.6c-2.3,6,0.2,10.9,6.4,12.5c1.7,0.5,3.6,0.5,5.2,1.5c0.2,0.2,0.3,0.4,0.5,0.6c0,0.6,0,1.2,0,1.9
		c-1.4,1.6-3.3,1.3-5.1,1.5c-4.9,0.5-7.3,3.1-7.5,8.1c-0.1,4.9,2.2,8,6.9,8.8c3.3,0.5,6.6,0.2,10,0.3c2.2,0.1,4.3-0.2,6.4,0.5
		c0.5,0.2,0.9,0.5,1.2,1c0,0.6,0,1.2,0,1.8c-1.4,1.6-3.3,1.4-5.1,1.5c-3.3,0.1-6.7,0-10,0.1c-6.2,0.1-9.4,2.9-9.4,8.4
		c0,5.5,3.1,8.6,9.2,8.6c8.1,0.1,16.3,0,24.4,0c2.2,0,4.3-0.2,6.4,0.5c0.6,0.2,1,0.6,1.4,1.1c0.7,0.6,1.3,1.2,2,1.8
		c-1.7,1.8-3.9,1.5-6.1,1.5c-7.8,0-15.7,0.1-23.5,0c-4.2-0.1-8.3,0.6-12.4,0.6C552.8,649,549.8,645.6,547,642z"/>
	<path class="st5" d="M458.1,617.1c23.6,0,47.2,0,70.8,0c0.4,2.3,0.8,4.6,1.2,6.9c-24.3,0-48.6,0-72.9,0
		C457.5,621.7,457.8,619.4,458.1,617.1z"/>
	<path class="st30" d="M576,660.2c-1-0.1-2-0.2-3-0.2c-1.5-4.4-0.8-6.2,3.6-6.3c9.3-0.2,18.6-0.6,27.9,0.2c0.6,0.2,1.2,0.5,1.7,0.9
		c1.2,1.8,1.1,3.5-0.3,5.2c-0.3,0-0.6,0.1-1,0.3C595.3,661.3,585.7,661.5,576,660.2z"/>
	<path class="st29" d="M605.9,655.1c-9.4,0-18.9,0.2-28.3-0.2c-4.2-0.2-5.2,1.4-4.5,5c-5-1.7-9.7-3.9-14-6.9
		c0.7-3.1,3.2-2.4,5.2-2.4c12.1,0,24.2-0.2,36.3,0.1c0.6,0,1.2,0.1,1.8,0.3C604.1,651.8,606.4,652.3,605.9,655.1z"/>
	<path class="st31" d="M602,651.9c-12.6,0-25.2,0-37.8,0.1c-1.7,0-3.7-0.8-5.1,1c-1-0.3-1.6-1-2-1.9c2.4-1.7,5.1-2.1,8-2.1
		c11.3,0.1,22.6,0,33.9,0c0.4,0,0.7,0.1,1.1,0.1C600.9,649.9,602.6,650.1,602,651.9z"/>
	<path class="st23" d="M527.9,603.9c-21,1.6-42.1,1-63.1,1.1c-2,0-4,0.4-5.7-1.1c-0.1-0.3-0.1-0.5,0-0.8c2.7,0.9,5.5,0.9,8.3,0.9
		c13.9,0,27.9,0.1,41.8-0.1c6.2-0.1,12.4-1.6,18.7-0.8C528,603.4,528,603.6,527.9,603.9z"/>
	<path class="st22" d="M602,651.9c-0.7-0.9-1.3-1.9-2-2.8c5.2,0,10.3-0.1,15.5,0c2.8,0,5.6,0.3,7.5,3c-1,0.7-2,1.3-3,2
		c-5.6-1.4-11.5,0.6-17-1.9C602.7,652,602.3,652,602,651.9z"/>
	<path class="st1" d="M603,652.1c4.4,0,8.8-0.1,13.3-0.1c1.5,0,3.5-0.5,3.7,2c-3,1.4-5.5,3.6-9,4c-2.3,0-3.6-1.6-5.1-3c0,0,0,0,0,0
		C605.6,653.4,603.8,653.3,603,652.1z"/>
	<path class="st29" d="M576,660.2c9.6,0,19.3,0,28.9,0C595.3,662.8,585.7,663.2,576,660.2z"/>
	<path class="st29" d="M605.9,655.1c2.2,0.1,3.6,1.7,5.1,3c-1.5,1.3-3.3,1.6-5.1,1.9C605.9,658.3,605.9,656.7,605.9,655.1z"/>
	<path class="st25" d="M662,324.8c-1.5,0.2-4.1,0.2-2.7,2.6c2.8,5,0.3,9.2-1.2,13.6c-5.6-5-8.9-11.6-12.1-18.1
		c0.7-0.6,1.4-1.2,2.1-1.9c3.4-0.8,6.3-3.1,9.9-3.1C662.8,318.3,660.8,322.5,662,324.8z"/>
	<path class="st1" d="M734.8,606c-9.3-2-17.8-6.2-26.4-10c-17.5-7.6-34.7-15.9-52-23.9c-0.6-0.3-1-0.8-1.5-1.3
		c9.7-5.5,19.6-10.7,28.8-16.8c14.2-9.4,26.8-20.7,37.7-33.9c0.9-1.1,1.6-2.3,3.6-0.9c1.6,1.1,4,1.3,6,1.9
		c2.5,5.6,2.3,11.2,0.2,16.8c-0.6,13.2,0.8,26.3,1.6,39.5C733.3,587,735.3,596.4,734.8,606z"/>
	<path class="st24" d="M731.2,538c-0.1-5.6-0.1-11.2-0.2-16.8c8.3,1.7,16.5,4.2,25,5c-2,5.8-0.4,11.9-1.2,17.8
		C747.5,539.8,739.8,536.9,731.2,538z"/>
	<path class="st16" d="M748,616.8c0.1-2-0.4-4.1,1.2-5.8c6.4,2.7,13.2,3.8,19.8,5.8C762,616.8,755,616.8,748,616.8z"/>
	<path class="st22" d="M303,298.8c16-1.9,32.1,0.3,48.1-1.8c3.6-0.5,7.4-0.5,11,0c4,0.6,6.5,2.7,7.1,7.5c1,9.5,0.9,18.9,0.7,28.3
		c-4.8,3.1-10.4,1.8-15.5,3.1c-0.8,0.2-1.7,0.2-2.5,0.2c-11.2,0.3-22.2-0.3-32.8-4.1c-3.5-1.3-7.4-2.3-9.2-6.2
		c-0.1-1.8,1.3-1.7,2.3-1.8c2.3-0.3,3.7-1.4,3.4-3.9c-0.2-1.7-1.3-2.8-3-2.7c-2.7,0.1-3.1,2-3,4.2c0.1,1.2,0.6,2.7-1,3.5
		c-8-4-13.1-18.2-9.5-26.1C300.3,299.1,301.6,299,303,298.8z"/>
	<path class="st31" d="M310,325.2c5.8,6.2,13.7,7.3,21.4,8.8c6.8,1.3,13.7,1.1,20.7,1.1c-0.9,2.6-3.1,1.3-4.6,1.4
		c-14,0.1-28.1,0.1-42.1,0.2c-0.7,0.3,0.2,1.2-0.1,0.6c-0.1-0.2,0-0.3,0.3-0.4c5.6-0.8,11.2-0.2,16.8-0.3c8.6-0.1,17.3-0.1,25.9,0
		c2,0,4-0.1,5.6-1.5c5.2-1.5,10.6-1.6,16-2.1c0,3,0.1,6,0.1,8.9c0,4.9-2.9,8-7.9,8.1c-8.7,0.2-17.5-0.3-26.1,1.2c-1.3,0-2.7,0-4-0.2
		c-8.4-1.3-14.2,1.2-18.9,9c-4.4,7.1-12.6,8-21.8,6.5c4.7-2.9,6.2-6.9,7.5-10.9c0.7-2,0.5-3.2-2.2-3.7c-5.3-1-7.6-4.6-7.5-10
		c0.1-10.8-0.1-21.5-0.8-32.2c-0.6-8.4,2.5-10.9,10.9-10.5c-0.6,10.2,1.8,19.1,10.1,25.8C309.5,324.7,309.8,324.8,310,325.2z"/>
	<path class="st26" d="M440.1,642c-18.7,23.6-53.3,27-76.6,9.4c-17.4-13.1-25.2-31.4-21.5-53.7c3.7-22.6,16.9-36.9,38-44.5
		c0.7,0.6,0.9,1.5,0.6,2.3c-2.2,5.6-3,11.5-5.6,17c-4,0.8-6.3,2.9-5.6,7.4c0.2,1.6-0.1,3.3-1.2,4.6c-2.9,1.4-3.7,3.7-3.7,6.8
		c0.1,4.7,0.2,9.5-0.3,14.2c-1.3,11.3-0.4,22.6-0.6,33.9c-0.1,3.5,2.1,4.1,4.9,4.1c9,0,18,0,27,0c10,0,20,0,30,0
		c1.7,0,3.4,0.3,4.7-1c0.5-0.8,1-1.5,1.8-2C435,639.5,437.9,638.8,440.1,642z"/>
	<path class="st6" d="M374.9,571.9c-0.2-6.7,3.5-12.4,5-18.7c27.1-7.5,53,2.2,66,26.3c11.6,21.6,9.6,43-5.9,62.5
		c-2.5-1.5-5.2-0.9-7.9-1c-2.2-1.9-1.6-4.6-1.7-7c-0.3-9.4,0.6-18.9-0.7-28.3c-0.1-2.1-0.4-4.3-0.1-6.4c0.4-3.8-0.8-6.7-4.2-8.6
		c-1.7-3.8-1-7.8-0.9-11.8c0-4.1-1.6-5.5-5.6-5.5c-12.6,0.1-25.1,0.2-37.7-0.1C379,573.5,376.7,573.8,374.9,571.9z"/>
	<path class="st23" d="M620.9,464.2c-7.8,12.8-15.1,25-22.6,37.2c-2.4,3.9-9.8,4-12.2,0.1c-7.2-11.5-14.2-23.2-22-36
		c0,15-0.2,28.7,0.1,42.4c0.1,4.2-1,5.6-5.2,5.2c-3.8-0.4-7.7-0.2-11.5,0c-2.5,0.1-3.5-0.5-3.5-3.3c0.1-26.5,0.1-53,0-79.4
		c0-2.6,0.7-3.7,3.4-3.3c0.2,0,0.3,0,0.5,0c14.3-3.8,18,7.3,23.3,16.4c6.9,11.8,14.1,23.5,21.3,35.4c9.8-16.5,19.6-32.8,29.2-49.1
		c1.2-2.1,2.4-2.7,4.6-2.7c13.8-0.4,13.8-0.4,13.8,13.4c0,22.6-0.1,45.3,0.1,67.9c0,3.5-0.6,5.2-4.5,4.8c-4.6-0.4-10.8,1.5-13.5-0.9
		c-3.1-2.7-0.9-9.1-1-13.8c-0.2-10.8-0.1-21.6-0.1-32.5C621,465.6,621,465.3,620.9,464.2z"/>
	<path class="st23" d="M531.6,513c-7.3,0-13.6,0-19.9,0c-1.8,0-2.8-0.7-3.9-2.3c-3.9-6-8.4-11.7-12.2-17.8c-1.8-2.9-3.7-4.3-7.1-4
		c-4,0.3-9.2-1.2-11.6,0.8c-2.8,2.4-0.9,7.8-0.9,11.9C475.9,513,476,513,464.8,513c-9.8,0-9.8,0-9.8-9.9c0-23.8,0.1-47.6-0.1-71.5
		c0-3.6,0.7-4.8,4.6-4.8c12.2,0.3,24.3-0.3,36.5,0.2c14.4,0.6,27.9,6.8,32.3,21.5c4.1,13.6-0.1,28.6-13.1,35.3
		c-3.2,1.6-1.4,3-0.4,4.4c4.6,6.7,9.3,13.4,14,20.1C529.7,509.6,530.3,510.9,531.6,513z"/>
	<path class="st23" d="M430.5,486.2c4.2,3.2,7,7.7,11.5,10.4c2.2,1.4,0.8,3.1-0.5,4.5c-7.3,7.8-16.5,11.8-26.8,12.7
		c-10.9,1-21.6-0.2-31.5-5.8c-13.3-7.6-20.2-18.9-21.2-34.2c-0.6-10.5,0.9-20.3,6.8-29.1c7.4-11,18.2-17.1,30.9-18.5
		c12.7-1.5,25.2-0.4,36.2,7.7c7.9,5.8,8.2,6.4,1.4,13.2c-1.1,1.1-2.2,2.1-3.2,3.2c-2.6,2.8-4.5,2.8-7.6,0c-7.8-7-17.1-9-27.2-5.3
		c-9.1,3.3-14.6,9.8-16.2,19.2c-2.2,12.7,2.6,24.1,12.2,28.8c10.5,5.2,24.2,4.9,33.8-5.6C429.5,487,430,486.6,430.5,486.2z"/>
	<path class="st22" d="M221,463.8c14.7-9.4,29.3-18.8,44-28.2c1.2-0.8,2.4-1.7,4-1.6c1,6.7,0.1,13.4,1.4,20.1
		c-0.1,1.6,0.3,3.2,0.2,4.8c-3.1,9-7.7,16.1-18.5,16.3c-2,0-4-0.1-5.9,0.1c-0.7,0.1-1.4,0.3-2.1,0.4c-2,0.5-4.1,0.2-6.1,0.8
		c-0.4,0.1-0.9,0.2-1.3,0.3c-1.6,0.2-3.1,0.5-4.5,1.5c-7.5,3.4-15.5,5.1-23.6,6.6c-3.6,0.7-6.9,0.1-9.4-3.1
		c-2.4-12.3-2.9-11.6,10.6-12.8C214.5,468.8,217.2,465.4,221,463.8z"/>
	<path class="st1" d="M244,475.1c0.4-0.3,0.8-0.7,1.2-1c2.3,0.6,4.5,0.8,6.8-0.1c7.1-0.4,12.4-3.6,15.3-10.4
		c0.7-1.6,1.8-3.1,2.7-4.7c1.3,0.9,1.4,2.3,1.6,3.6c0.9,5.1,2.1,10.2,3.5,15.2c1.2,5.7,3.3,11.1,5.3,16.5c0.6,1.5,1.6,2.9,0.9,4.7
		c-11.6-0.1-23.1-1.5-34.6-2.9c-1.1-0.1-2.3,0-3.4,0.1c-6.3-0.7-12.6-1.6-18.9-2c-2.3-0.2-4.9-1.1-7,0.9c-3,3.5-7,3.6-11.1,3.1
		c-3.9,0.5-4.1-2.8-4.7-5.1c-0.9-3.6-1.4-7.4-2-11.1c4.9,2.4,9.5,0.8,14.6,0.4c6.7-0.6,12-4.1,18.2-5.3c1.5-1.1,3.6,0.3,5.1-1
		l-0.1,0.1C239.1,474.7,241.7,476.3,244,475.1z"/>
	<path class="st6" d="M205.9,498.1c3.7-1,7.4-2.1,11.1-3.1c2.5,6.6,4.9,13.2,7.4,19.8c1.3,3.4-0.4,5-3.4,5.7
		c-2.9,0.7-6.5,3.8-8.3-1.3C210.2,512.3,207.5,505.4,205.9,498.1z"/>
	<path class="st6" d="M281,499c-3.2-6.7-6-13.4-7-20.8c3.2-1.7,6.2-3.8,9.9-4.2c1.8,7.2,2.6,14.6,1.8,22
		C285.5,497.8,284.8,501.4,281,499z"/>
	<path class="st6" d="M269.1,455c-0.6-5.2-1.6-10.4-1.2-15.7c0.1-1.8-0.1-3.6,1-5.2c3.4-2.4,4.2,0.7,5.3,2.6
		c3.3,6.1,4.6,12.9,6.7,19.4C276.9,456.9,272.9,457.1,269.1,455z"/>
	<path class="st11" d="M269.1,455c3.9,0.1,8-0.6,11.8,1.1c2.6,2.8,4.7,5.9,4.9,9.9c-5.6,3.6-10.1,2.8-15.7-3c-0.1-1.3-0.2-2.7-0.3-4
		C269.4,457.7,268.6,456.5,269.1,455z"/>
	<path class="st18" d="M270.2,463c4.9,2.7,9.8,5.4,15.7,3c0.6,3-1.7,5.2-1.9,7.9c-3,2.2-5.8,4.7-9.9,4.2
		C271.6,473.4,271.3,468.1,270.2,463z"/>
	<path class="st32" d="M496,273c1.4-4.3,4.6-6.6,8.5-8.1c15.6-6.1,31.8,1.3,33.3,19.4c1,12-8.1,23.7-21.8,23.8
		c-7.5,0.1-14-1.6-19-7.5c-0.7-0.8-1.2-1.5-1.1-2.6c0.4-0.3,0.9-0.4,1.4-0.2c3,1.8,5.2,4.6,8.6,5.9c6.4,2.6,12.6,2.9,18.7-0.7
		c10.3-6.9,11.5-14.6,9.3-23.5c-2.2-9.3-9.9-14.2-20.7-14.3c-6.8-0.3-11.3,4-16,7.9C496.9,273.3,496.4,273.3,496,273z"/>
	<path class="st33" d="M496,273c0.2,0,0.4,0,0.6,0c1.2,1.3,0.2,2.5-0.3,3.6c-2.6,5.9-2.6,11.8,0,17.8c0.5,1.1,1.5,2.3,0.3,3.6
		c-0.2,0-0.4,0-0.6,0C490.2,292.3,490.2,278.7,496,273z"/>
	<path class="st22" d="M560,582.9c1-1.2,2.4-0.9,3.7-0.9c17.3,0,34.6,0,51.8,0c5,0,8.5,2.4,10.1,7.2c1.5,4.6,0,8.6-3.8,11.4
		c-2.7,2-6.1,2.3-9.4,2.3c-14.8,0-29.6,0-44.4,0.1c0,0,0.1-0.1,0.1-0.1c-2-1.3-3.5-2.7-0.8-4.8c2.2-0.9,4.6-0.7,6.9-0.7
		c12.5,0,24.9,0,37.4,0c6.4,0,6.9-0.4,6.9-5c0-5.4-0.5-5.9-7.2-5.9c-14.1,0-28.3,0-42.4,0c-2.3,0-4.7,0.1-7-0.3
		c-0.6-0.1-1.2-0.4-1.7-0.8C559.4,584.7,559.4,583.8,560,582.9z"/>
	<path class="st22" d="M580,625.1c-0.3-0.1-0.6-0.2-1-0.2c-2-1.3-3.4-2.7-0.8-4.8c5.6-1.3,11.2-0.4,16.9-0.6c6.5-0.2,13-0.1,19.4,0
		c2.5,0,4.3-0.4,4-3.5c-0.3-2.6,0.8-6.1-3.6-6.4c-3.8-0.3-7.6-0.1-11.5-0.2c-8.8-0.1-17.6,0-26.4,0c-2.2,0-4.3,0.2-6.4-0.6
		c-1.4-0.9-2.7-1.8-1.6-3.8c15.8,0,31.6-0.1,47.4-0.1c5.9,0,9.7,4,9.6,9.7c-0.1,6.4-3.6,10.2-9.6,10.2
		C604.2,625.1,592.1,625.1,580,625.1z"/>
	<path class="st22" d="M597,647.1c-0.3-0.1-0.6-0.2-1-0.2c-1.2-0.9-3.5-1.5-1.3-3.6c6.3-1.5,12.8-0.3,19.2-0.7
		c1.7-0.1,3.8,0.8,4.5-1.8c0.1-0.5,0.1-1.1,0.1-1.6c-0.1-7.5-0.2-7.5-7.5-7.6c-9-0.1-18,0.2-26.9-0.2c-0.6-0.1-1.1-0.2-1.7-0.5
		c-1.3-0.9-2-2.1-1.4-3.7c11.8,0,23.6-0.1,35.4,0c6.1,0,9.6,4,9.6,10.2c-0.1,5.9-3.7,9.6-9.6,9.7C609.9,647.1,603.5,647.1,597,647.1
		z"/>
	<path class="st31" d="M581.1,627.1c0.3,0.9,0.7,1.9,1,2.8c-1.7,1.9-3.9,1.5-6.1,1.6c-3,0.1-6,0-9,0.1c-5.8,0.1-8.2,3.4-6.4,9
		c0.7,2.2,2.5,1.9,4.1,1.9c7.3,0.1,14.6,0,22,0c2,0,4-0.2,5.9,0.5c0.6,0.2,1,0.6,1.4,1.1c0.7,0.9,1.3,1.9,2,2.8
		c-10.8,0-21.5,0.1-32.3,0.1c-6.1,0-9.7-3.8-9.7-9.9c0-6.2,3.5-9.9,9.6-10c5.5-0.1,10.9-0.1,16.4-0.1
		C580.3,627,580.7,627,581.1,627.1z"/>
	<path class="st31" d="M569,605.1c0.3,0.9,0.6,1.9,0.9,2.8c-0.2,0.2-0.3,0.4-0.5,0.6c-1,0.7-2.2,0.8-3.3,0.9
		c-5.3,0.6-6.9,2.9-5.7,8.2c0.5,2.1,1.9,1.9,3.3,2c4.2,0.4,8.6-0.8,12.7,1c0.2,0.2,0.3,0.4,0.5,0.6c0.7,1.3,1.3,2.5,2,3.8
		c-5,0-10,0.1-14.9,0.1c-6.7-0.1-10.1-3.7-10.1-10.6c0.1-6.2,3.4-9.4,10-9.4c1.3,0,2.7,0,4-0.1C568.3,605,568.7,605,569,605.1z"/>
	<path class="st31" d="M560,582.9c0,0.6,0,1.3,0.1,1.9c0.5,2.1,0.6,4.3,0.3,6.4c-0.6,4.2,1.1,6.5,5.2,7.2c0.2,0.2,0.3,0.4,0.5,0.6
		c0.7,1.3,1.4,2.5,2,3.8c-3.1,0.5-6-0.4-8.7-1.4c-7.3-2.5-7.4-12.7-0.3-18.6C559.3,583,559.6,583,560,582.9z"/>
	<path class="st23" d="M310,325.2c-0.3-0.1-0.6-0.2-0.9-0.2c-0.3-0.9-0.8-1.8-1-2.7c-0.5-2.5-0.2-4.8,2.3-5.9c1.8-0.8,3.8-0.7,5.4,1
		c1.7,1.9,1.5,4.2,0.8,6c-1,2.2-3.1,3.2-5.7,1.7C310.8,325,310.3,325.1,310,325.2z"/>
	<path class="st23" d="M344.1,320.2c-0.6-3.8,2-5.1,4.6-5c2.4,0,4.4,1.4,4.4,4.7c0,3.6-2.1,4.9-4.8,4.8
		C346,324.7,343.3,323.6,344.1,320.2z"/>
	<path class="st11" d="M335.1,319.8c-0.1,3.6-1.5,5.2-4.6,5.2c-3.1,0-4.5-1.6-4.5-4.6c0.1-2.8,1.5-4.2,4.3-4.3
		C333.4,315.8,334.7,317.6,335.1,319.8z"/>
	<path class="st34" d="M353.9,335.1c-0.4,1.5-1.5,2-3,2c-15.8,0-31.5,0-47.3-1c4.8,0,9.7,0,14.5,0c9.8,0,19.6,0,29.4,0
		c1.5,0,3.3,0.9,4.6-0.9C352.7,335.1,353.3,335.1,353.9,335.1z"/>
	<path class="st34" d="M301.4,339.6c18.3,0,36.6,0,54.8,0c0,0.2,0,0.3,0,0.5c-18.3,0-36.5,0-54.8,0
		C301.4,339.9,301.4,339.8,301.4,339.6z"/>
	<path class="st35" d="M431.8,643c0.5,2.2-1,2-2.3,2c-21.6,0-43.2,0-64.8,0c-1.8,0-2.7-0.4-2.7-2.5c0.1-11.6,0-23.3,0.1-34.9
		c0-0.9,0.7-1.8,1.1-2.6c0.6-3.1,3-4.1,5.6-5c3.1-0.4,6.1-0.9,9.1,0.5c1.3,1.3,1.8,2.8,1.2,4.5c-2.3,0.9-4.7,0.2-7,0.3
		c-0.7-0.1,0.1,1-0.1,0.4c2.1-0.6,4.2-0.1,6.3-0.2c2.1,0.2,3,1.9,4.1,3.3c11.1,14.4,25.4,24.4,42.3,30.9
		C427.1,640.7,429.9,641,431.8,643z"/>
	<path class="st11" d="M431.8,643c-13.7-2.6-24.9-10.1-35.8-18.4c-6.8-5.2-12.5-11.2-17.1-18.5c1.5-1.2,3.2-0.6,4.8-0.6
		c13.3-0.1,26.6,0,39.9,0c-13.3,0-26.6,0-39.9,0c-1.6,0-3.3,0.6-4.8-0.6c-0.8-1.1-1.1-2.3-1-3.7c1.5-1.8,3.5-1.7,5.5-1.7
		c13.6-0.1,27.2,0,40.8,0.3c3.1,0.6,5.3,2.3,6.5,5.2c1.7,3.4,1.1,7.1,1.2,10.7c0.1,8.4,0.1,16.9,0.2,25.3
		C432.1,641.7,431.9,642.3,431.8,643z"/>
	<path class="st31" d="M425.8,601c-15.9,0.1-31.9,0.1-47.8,0.2c-3.3-0.1-6.6-0.1-9.8-0.2c-2.9-5.6-2.4-11.3-0.3-17
		c0-1.6,0.1-3.3,0.1-4.9c0-6.9,0-6.9,7-7.3c2,0.1,4.1,0.2,6.1,0.3c2.3,1.6,3.6,3.5,1.6,6.2c-2.6,0.2-5.2,0.1-7.7,0.1
		c1.2,0,2.3,0,3.5,0c1.8,0,3.6,0,5.4,0c1.9,1.1,3.5,2.3,1.9,4.8c-3.9,0.3-7.7,0.3-11.6,0.1c4.4,0,8.8,0.2,13.3-0.1
		c2,1.1,4.7,1.8,3,5.1c-5.6,0.2-11.2,0-14,0c3.5-0.1,9.7,0.3,15.8-0.2c4.2,2,4.6,2.5,4.1,5.1c-7.1,0.1-14.2,0-21.4,0.1
		c0.3,0.7,0.3,0,0.5,0c8-0.2,16,0.5,23.9-0.5c7.1,3.2,14.5,5.3,22.4,4.6c1.5-0.1,3,0.1,4.2,1C426.6,599.5,426.6,600.3,425.8,601z"/>
	<path class="st5" d="M367.9,584c0.1,5.7,0.2,11.3,0.3,17c-1.4,1.6-4,1.9-5,4c-0.1-5.4,0.1-10.8-0.2-16.2
		C362.6,584.8,364,583.4,367.9,584z"/>
	<path class="st22" d="M397,592.8c-1.3-1.2-3.2-1.9-4-3.7c5.5-1.5,11.1-0.3,16.7-0.6c3.3-0.2,6.7,0,10-0.3c0.6-0.5-0.4-0.9,0-0.4
		c0.2,0.3,0.1,0.4-0.2,0.4c-9.5,0.1-19,0.9-28.5-0.4c-1-1.2-2-2.4-3-3.7c4.9-1.4,9.8-0.4,14.7-0.6c5.7-0.2,11.4,0,17.1-0.4
		c0.6-0.5-0.4-0.9,0-0.4c0.2,0.2,0.1,0.4-0.3,0.4c-11.2,0.1-22.4,0.9-33.5-0.4c0.1-1.6-1.4-2.4-2-3.7c3.3-1.3,6.8-0.6,10.2-0.6
		c8.7-0.1,17.5,0,26.1,0c-12.3-0.5-24.8,0.8-37.3-0.7c-0.6-1.9-1.3-3.8-1.9-5.7c13.8,0,27.5,0,41.3-0.2c2.8,0,3.8,0.9,3.7,3.7
		c-0.1,5.1,0,10.3,0.1,15.4c1.7,2.7,1.9,5.4-0.3,7.9c-8.9,0.1-18,0.9-25.8-4.8c4.7-1.5,9.4-0.3,14.1-0.6c1.7-0.1,3.5,0.3,5.2-0.3
		c0.6-0.2-0.1-1.2,0.1-0.5c0.1,0.2,0,0.3-0.1,0.3C411.9,593.6,404.4,594,397,592.8z"/>
	<path class="st5" d="M425.8,599c0.1-2.6,0.2-5.3,0.3-7.9c3.7-0.7,5.4,0.6,4.9,4.6c-0.4,3.1-0.2,6.2-0.2,9.3c-1.7-1.3-3.3-2.7-5-4
		C425.8,600.3,425.8,599.7,425.8,599z"/>
	<path class="st22" d="M476,458.3c0-3.8,0-7.6,0-11.5c0-1.7,0.2-2.9,2.4-2.8c6.6,0.4,13.2-0.8,19.7,1c7.2,1.9,11.2,6.6,10.9,14.7
		c-0.2,6.4-6.1,11.4-12.8,12.5c-5.6,0.9-11.2,0.8-16.8,0.9c-2.6,0.1-3.6-0.6-3.4-3.3C476.2,465.9,476,462.1,476,458.3z"/>
	<path class="st34" d="M251.9,474c-2.3,1.6-4.5,1.5-6.8,0.1C247.4,474.1,249.7,474,251.9,474z"/>
	<path class="st34" d="M244,475.1c-2.1,2-4.7,0.4-7,1C239,474,241.6,475.4,244,475.1z"/>
	<path class="st34" d="M237,475.9c-1.4,2-3.4,0.7-5.1,1C233.3,475.1,235.4,476.4,237,475.9z"/>
	<path class="st1" d="M512.9,264.2c12.1-1.1,19.7,5.9,22.8,15.6c3,9.2-2.1,20.1-10.7,24.3c-4.8-0.4-7.7-3.9-10.3-7.2
		c-6.8-8.5-8.5-18.1-4.9-28.5C510.4,266.7,511,265,512.9,264.2z"/>
	<path class="st36" d="M512.9,264.2c-7.8,16.2-2.4,31.1,12.1,39.9c-9.4,5.7-19.2,3.6-28.4-6.1c-4.8-8.3-4.8-16.7,0-25
		C501,268,505.8,263.9,512.9,264.2z"/>
	<path class="st1" d="M561,585.1c18.3,0,36.6,0,54.9-0.2c3.3,0,4.3,1.1,4.2,4.3c-0.3,11.9,1.5,9.6-9.7,9.7
		c-14.8,0.2-29.6,0.1-44.4,0.2c0,0,0-0.3,0-0.3c-1.9-1.3-2.7-2.7-0.3-4.3c16.5,0.4,33-0.9,49.4,0.7c0-0.1,0-0.2,0-0.7
		c-16.6,0-33.3,0-50,0C561.1,592.4,559.9,589.7,561,585.1z"/>
	<path class="st29" d="M565,595.2c-0.2,1.4,0.3,2.6,1,3.7c-7,0.3-7.1,0.3-6.9-6.5c0.1-2.5-1-5.2,1-7.5c0.3,0.1,0.6,0.2,0.9,0.2
		c0.1,3.2,2.1,5.8,3,8.7c-0.3,0.7-1,0.5-1.5,0.8c0.4,0.1,0.9-0.2,1.3-0.1C564.3,594.6,564.8,594.6,565,595.2z"/>
	<path class="st1" d="M570,607.9c15,0,29.9,0.2,44.9,0c4.2-0.1,5.8,1.2,5.2,5.3c-0.1,0.8-0.1,1.7,0,2.5c0.6,4-0.9,5.5-5.1,5.4
		c-12.6-0.2-25.3,0-37.9,0c0,0,0-0.3,0-0.3c-1.3-1-2.6-2.1-0.2-3.3c13-0.1,25.9,0,38.9,0c-13.8-0.1-27.6,0.1-41.3-0.1
		c-0.9-0.6-0.9-1.4-0.6-2.4c1.9-1.8,4.3-1.5,6.6-1.5c7.3-0.1,14.5,0.1,21.8-0.5c-9.4-0.3-18.8-1.3-28.2,0.2c-3.5,0-4.1-2.2-3.8-5.1
		L570,607.9z"/>
	<path class="st29" d="M593,643.9c-10,0-19.9-0.1-29.9,0.1c-3.4,0.1-4.3-1.2-4.2-4.3c0.3-11.8-1.5-9.5,9.7-9.7
		c4.5-0.1,9-0.1,13.4-0.1c0.3,0.1,0.6,0.1,1,0.2c1.4,0.7,2,1.7,1,3.2c-2.4,1.8-5.5,0.4-8.6,1.8c4.1,1.2,7.9,0.2,11.5,0.9
		c0.5,0.1,1,0.3,1.5,0.6c0.9,1.2,3.3,2.1,0.7,3.9c-8.4,0.1-16.8,0-25.2,0.2c0.3,0.1,0.6-0.2,1-0.2c8.8-0.1,17.6,0.2,26.4-0.1
		C593.1,641,594,642,593,643.9z"/>
	<path class="st1" d="M584,632.8c-0.3-0.9-0.7-1.8-1-2.7c10.6,0,21.2,0.1,31.8-0.2c4.1-0.1,5.8,1,5.2,5.2c-0.2,1.6-0.1,3.3-0.1,5
		c-0.5,0.4-1.1,0.9-1.7,1c-9,0.3-18,1.2-26.9-0.6c-0.5-0.1-0.9-0.4-1.3-0.7c-0.7-0.9-1.3-1.8-2-2.7c2.3-2.4,5.3-1.4,8-1.6
		c2.1-0.2,4.2,0.1,6.3-0.6c-5.6-1.2-11.4,0.2-17.1-1.1C584.7,633.7,584.3,633.3,584,632.8z"/>
	<path class="st1" d="M593,643.9c-0.3-0.9-0.6-1.8-1-2.8c9.3-1.3,18.6-0.7,27.9-0.3c0.5,3-1.4,3.1-3.6,3.1c-7.4,0-14.8,0-22.3,0.1
		C593.7,644,593.3,644,593,643.9z"/>
	<path class="st37" d="M619.9,640.9c-9.3,0.1-18.6,0.2-27.9,0.3c-9.8,0-19.5,0-29.3,0c0-0.4,0-0.9,0-1.3c9.1,0,18.2,0,27.3,0
		c10,0.1,19.9,0.2,29.9,0.3C620,640.4,620,640.6,619.9,640.9z"/>
	<path class="st29" d="M574,615.2c0,0.6,0,1.1,0,1.7c-3.7,1.5-7.6,0.1-11.4,0.9c-0.6,0.2,0.1,1.2-0.1,0.5c-0.1-0.2,0-0.3,0.1-0.3
		c4.5-0.6,8.9-0.9,13.3,0.2c0.3,0.9,0.6,1.8,1,2.7c-4.6,0-9.3-0.1-13.9,0.2c-3.4,0.2-4.3-1.2-4.1-4.3c0.5-9.8-2.4-8.8,11.1-8.6
		c0.9,1.6,1.9,3.3,2.8,4.9C573.8,613.4,574,614.2,574,615.2z"/>
	<path class="st38" d="M379,604.8c14.8,0,29.5,0,44.3,0c0,0.4,0,0.9,0,1.3c-14.8,0-29.5,0-44.3,0c-2.8,0-5.5,0-8.3,0
		c0-0.3,0-0.6,0-0.9C373.5,605.1,376.2,605,379,604.8z"/>
	<path class="st37" d="M397,592.8c7.8,0,15.5,0,23.3,0c0,0.4,0,0.9,0,1.3c-6.8,0-13.5,0-20.3,0c-8.8,0-17.5,0-26.3,0
		c0-0.4,0-0.9,0-1.3C381.5,592.8,389.2,592.8,397,592.8z"/>
	<path class="st39" d="M391,587.8c9.8,0,19.5,0,29.3,0c0,0.4,0,0.9,0,1.3c-9.1,0-18.2,0-27.3,0c-6.4,0-12.9,0-19.3,0
		c0-0.4,0-0.9,0-1.3C379.5,587.8,385.2,587.8,391,587.8z"/>
	<path class="st39" d="M386,582.8c11.4,0,22.9,0,34.3,0c0,0.4,0,0.9,0,1.3c-10.8,0-21.5,0-32.3,0c-4.8,0-9.6,0-14.3,0
		c0-0.4,0-0.9,0-1.3C377.8,582.8,381.9,582.8,386,582.8z"/>
	<path class="st39" d="M383,577.8c12.4,0,24.9,0,37.3,0c0,0.4,0,0.9,0,1.3c-12.1,0-24.2,0-36.3,0c-3.4,0-6.9,0-10.3,0
		c0-0.4,0-0.9,0-1.3C376.8,577.8,379.9,577.8,383,577.8z"/>
	<path class="st11" d="M589.5,593c-4.6,0-9.3,0-13.9,0c-1.4,0-2.6,0-2.6-2c0-2,1.3-2,2.6-2c9.3,0,18.5,0,27.8,0c1.4,0,2.6,0,2.6,2
		c0,2-1.3,2-2.6,2C598.7,593,594.1,593,589.5,593z"/>
	<path class="st34" d="M565,595.2c-1.2-0.1-2.4-0.3-3.7-0.4c0.7-1.1,1.8-0.6,2.7-0.9c17.4,0,34.8,0,52.3,0c0,0.4,0,0.9,0,1.3
		C599.2,595.2,582.1,595.2,565,595.2z"/>
	<path class="st11" d="M574,615.2c-1.1-0.3-0.9-1.4-1.2-2.2c0.2-2.6,2.1-2,3.7-2c8.6,0,17.3-0.1,25.9,0c1.4,0,3.6-0.9,3.6,2
		c0,2.9-2.2,1.9-3.6,1.9C592.9,615.1,583.5,615.1,574,615.2z"/>
	<path class="st39" d="M576,618.2c-4.8,0-9.5,0-14.3,0c0-0.4,0-0.9,0-1.3c4.1,0,8.2,0,12.3,0c14.4,0,28.8,0,43.3,0
		c0,0.4,0,0.9,0,1.3C603.5,618.2,589.8,618.2,576,618.2z"/>
	<path class="st11" d="M585,633.2c6-0.1,11.9-0.1,17.9-0.1c1.4,0,3.1-0.5,3.1,2c0,2.5-1.7,2-3.1,2c-5,0.1-9.9,0.1-14.9,0.2
		c-0.3-0.1-0.7-0.2-1-0.3C585.9,635.8,584.5,635,585,633.2z"/>
	<path class="st30" d="M585,633.2c0.6,1.2,2.1,2,2,3.7c-3.8,0.1-7.6,0.1-11.4,0.2c-1.4,0-2.6,0-2.6-2c0-2,1.2-2,2.6-2
		c2.8,0,5.6-0.1,8.4-0.2C584.3,632.9,584.7,633.1,585,633.2z"/>
</g>
<g id="Illustration">
	<g>
	</g>
	<g>
	</g>
	<g>
	</g>
	<g>
	</g>
	<g>
	</g>
	<g>
	</g>
	<g>
	</g>
	<g>
	</g>
	<g>
	</g>
	<g>
	</g>
	<g>
	</g>
	<g>
	</g>
	<g>
	</g>
	<g>
	</g>
	<g>
	</g>
</g>
</svg>
