<?xml version="1.0" encoding="utf-8"?>
<!-- Generator: Adobe Illustrator 23.0.5, SVG Export Plug-In . SVG Version: 6.00 Build 0)  -->
<svg version="1.1" xmlns="http://www.w3.org/2000/svg" xmlns:xlink="http://www.w3.org/1999/xlink" x="0px" y="0px"
	 viewBox="0 0 900.7 723.3" style="enable-background:new 0 0 900.7 723.3;" xml:space="preserve">
<style type="text/css">
	.st0{fill:#BCEBFB;}
	.st1{fill:#004A6A;}
	.st2{fill:#D8D9E9;}
	.st3{fill:#C1CCF7;}
	.st4{fill:#394763;}
	.st5{fill:#E9EBFB;}
	.st6{fill:#C8D2FA;}
	.st7{fill:#99A7E4;}
	.st8{fill:#000537;}
	.st9{fill:#5A47AB;}
	.st10{fill:#C1CBF7;}
	.st11{fill:#FE9B36;}
	.st12{fill:#C8D1F9;}
	.st13{fill:#FBFBFC;}
	.st14{fill:#FCFAFA;}
	.st15{fill:#C2CCF6;}
	.st16{fill:#E4EBFB;}
	.st17{fill:#C0CCF6;}
	.st18{fill:#FCFCFA;}
	.st19{fill:#6A7ECA;}
	.st20{fill:#FBFBFB;}
	.st21{fill:#C6CEF0;}
	.st22{fill:#0D0F19;}
	.st23{fill:#F9FAF8;}
	.st24{fill:#CFD6F2;}
	.st25{fill:#171717;}
	.st26{fill:#F9F9F8;}
	.st27{fill:#D9D9E0;}
	.st28{fill:#131416;}
	.st29{fill:#5E4AA6;}
	.st30{fill:#E1E8F9;}
	.st31{fill:#707FC1;}
	.st32{fill:#6F7EBF;}
	.st33{fill:#E3E9FA;}
	.st34{fill:#CCD2F3;}
	.st35{fill:#7988C4;}
	.st36{fill:#F7F7F8;}
	.st37{fill:#2B2B2B;}
	.st38{fill:#FDF1DB;}
	.st39{fill:#FDF1DA;}
	.st40{fill:#CACFEF;}
	.st41{fill:#F2F4F9;}
	.st42{fill:#F0F5F8;}
	.st43{fill:#7179AF;}
	.st44{fill:#D4DAF1;}
	.st45{fill:#B9AAF9;}
	.st46{fill:#0B0836;}
	.st47{fill:#FEC141;}
	.st48{fill:#FD8566;}
	.st49{fill:#FDFBFA;}
	.st50{fill:#F6F7F9;}
	.st51{fill:#FBF2EE;}
	.st52{fill:#FB8E76;}
	.st53{fill:#FD8E6A;}
	.st54{fill:#F9F2F2;}
	.st55{fill:#DDDCE8;}
	.st56{fill:#DCDBE9;}
	.st57{fill:#DDDCEA;}
	.st58{fill:#DBDAE8;}
	.st59{fill:#DBDBE8;}
	.st60{fill:#DCDBEA;}
	.st61{fill:#DCDCEA;}
	.st62{fill:#DCDBE8;}
	.st63{fill:#DBDAE7;}
	.st64{fill:#F9E2E1;}
	.st65{fill:#FBEBD1;}
	.st66{fill:#192336;}
	.st67{fill:#141D2C;}
	.st68{fill:#162033;}
	.st69{fill:#090D15;}
	.st70{fill:#0F1520;}
	.st71{fill:#111A28;}
	.st72{fill:#1B263A;}
	.st73{fill:#0B111D;}
	.st74{fill:#040406;}
	.st75{fill:#07090E;}
	.st76{fill:#0A0F18;}
	.st77{fill:#05080C;}
	.st78{fill:#FEFCF6;}
	.st79{fill:#F4F6F7;}
	.st80{fill:#111724;}
	.st81{fill:#202E49;}
	.st82{fill:#1B255C;}
	.st83{fill:#C0CCF7;}
	.st84{fill:#3A428A;}
	.st85{fill:#1E2C45;}
	.st86{fill:#1B2A41;}
	.st87{fill:#FEEBD5;}
	.st88{fill:#000637;}
	.st89{fill:#FCFCFC;}
	.st90{fill:#212E47;}
	.st91{fill:#F4E5E0;}
	.st92{fill:#C5CCF1;}
	.st93{fill:#EBDDD8;}
	.st94{fill:#BFCAF0;}
	.st95{fill:#DAE1F4;}
	.st96{fill:#000225;}
	.st97{fill:#C2CAEE;}
	.st98{fill:#CBD2F5;}
	.st99{fill:#FCFBFC;}
	.st100{fill:#B8AAF8;}
	.st101{fill:#6F5AC4;}
	.st102{fill:#6F5BBC;}
	.st103{fill:#FD8C6E;}
	.st104{fill:#D3DAFB;}
	.st105{fill:#D3DAFA;}
	.st106{fill:#D4DBFA;}
	.st107{fill:#7162B5;}
	.st108{fill:#6C5DB6;}
	.st109{fill:#6F5BB9;}
	.st110{fill:#E8E1F4;}
	.st111{fill:#6C5DB2;}
	.st112{fill:#6C5EB8;}
	.st113{fill:#725FBC;}
	.st114{fill:#6957B7;}
	.st115{fill:#EAE2F6;}
	.st116{fill:#FDF7FD;}
	.st117{fill:#E1DAF3;}
	.st118{fill:#DBD3EF;}
	.st119{fill:#D7CFED;}
	.st120{fill:#E0D7F0;}
	.st121{fill:#E4DBF1;}
	.st122{fill:#E2D8F1;}
	.st123{fill:#FEF7FD;}
	.st124{fill:#FEF9FD;}
	.st125{fill:#FCF6FD;}
	.st126{fill:#FDF8FE;}
	.st127{fill:#E8DFF4;}
	.st128{fill:#6F5DB0;}
	.st129{fill:#6858AB;}
	.st130{fill:#8675BF;}
	.st131{fill:#6957AF;}
	.st132{fill:#374082;}
	.st133{fill:#FE936B;}
	.st134{fill:#FD936B;}
	.st135{fill:#1A2255;}
	.st136{fill:#654AA3;}
	.st137{fill:#E8898D;}
	.st138{fill:#5148A2;}
	.st139{fill:#8D5DA0;}
	.st140{fill:#B8B6ED;}
	.st141{fill:#814992;}
	.st142{fill:#635FAF;}
	.st143{fill:#FEFEFE;}
	.st144{fill:#FDFDFC;}
	.st145{fill:#A4A6C9;}
	.st146{fill:#F6F7FA;}
	.st147{fill:#222B3F;}
	.st148{fill:#ADBAEC;}
	.st149{fill:#BEC8F4;}
	.st150{fill:#B5C0F6;}
	.st151{fill:#AAB7F1;}
	.st152{fill:#FDF5EA;}
	.st153{fill:#D6DDFA;}
	.st154{fill:#5246A2;}
	.st155{fill:#57459C;}
	.st156{fill:#2D2E7D;}
	.st157{fill:#202567;}
	.st158{fill:#6D60BA;}
	.st159{fill:#6B62B6;}
	.st160{fill:#7368BC;}
	.st161{fill:#FBF5E6;}
	.st162{fill:#F8AD60;}
	.st163{fill:#FDF6E2;}
	.st164{fill:#FBF4E3;}
	.st165{fill:#C5CDF0;}
	.st166{fill:#C6CEF2;}
	.st167{fill:#C7CDF0;}
	.st168{fill:#7383C4;}
	.st169{fill:#7B8AC1;}
	.st170{fill:#7887C6;}
	.st171{fill:#7C89C4;}
	.st172{fill:#6E79B2;}
	.st173{fill:#C9D2EA;}
	.st174{fill:#101114;}
	.st175{fill:#1B1E2F;}
	.st176{fill:#FCEAC5;}
	.st177{fill:#FAFBFC;}
	.st178{fill:#0C1126;}
	.st179{fill:#CFD6F3;}
	.st180{fill:#697DCA;}
	.st181{fill:#0A0E24;}
	.st182{fill:#FEFDFE;}
	.st183{fill:#FDFDFD;}
	.st184{fill:#F7F3F7;}
	.st185{fill:#6F5BBF;}
	.st186{fill:#BEB2EF;}
	.st187{fill:#F96542;}
	.st188{fill:#FEFEFD;}
	.st189{fill:#FE9C36;}
	.st190{fill:#FD8464;}
	.st191{fill:#F47958;}
	.st192{fill:#FE692A;}
	.st193{fill:#FB8E72;}
	.st194{fill:#FBE9DD;}
	.st195{fill:#2B2652;}
	.st196{fill:#CAD0F2;}
	.st197{fill:#F0DBD0;}
	.st198{fill:#EDDCD4;}
	.st199{fill:#EEE9F0;}
	.st200{fill:#E6E8F7;}
	.st201{fill:#FCF8F4;}
	.st202{fill:#FDFCFD;}
	.st203{fill:#F4ECF9;}
	.st204{fill:#FDF6FD;}
	.st205{fill:#E4DAF4;}
	.st206{fill:#EEEEEF;}
	.st207{fill:#FDF4E1;}
	.st208{fill:#6E5AC2;}
	.st209{fill:#FDEDD0;}
</style>
<g id="Background">
	
		<image style="overflow:visible;" width="108" height="94" xlink:href="F2A8124.jpg"  transform="matrix(3.3711 0 0 3.3711 355.6208 -325.4795)">
	</image>
	<path class="st0" d="M5.7,721.4c8.2-11.3,18.5-20.5,29.8-28.7c2.2-1.6,4.5-3.2,6.7-4.9c0.6-0.6,1.3-0.8,2.1-0.7
		c2.8,0.9,4.2,3.5,6.4,5.1c7.6,5.8,15.8,6.1,24,2.4c8-3.6,12-10.3,12.6-19c0.3-3.8-0.7-7.5-1.4-11.1c0.1-0.2,0.1-0.5,0.2-0.7
		c0.2-0.2,0.3-0.4,0.5-0.6c14.2-5.8,28.2-12.1,42.6-17.2c18.5-6.5,37.3-12,56-17.7c1.4-0.4,2.7-0.9,3.8-1.8c0.2,0.2,0.3,0.3,0.5,0.5
		c0.3,3.3-2.2,5.4-3.6,8c-1.4,1.5-2.2,3.3-3.2,5.1c-1.9,2.7-3.2,5.7-5,8.5c-2,3-0.7,4.5,2.4,5.2c2.1,0.5,4.3,0.3,6.3,0.9
		c1.2,0.4,2.5,0.7,3,2c-1.2,7.6-5.8,13.9-8.5,20.9c-0.5,1.4-1.4,2.6-2,4c-1.2,2.5-0.4,4.1,2.3,4.7c0.5,0.1,1,0.2,1.5,0.2
		c13.8-0.1,27.6,0.8,41.4-0.5c5.6-0.5,11.2-0.4,16.7-1.5c2.1-0.4,4.6-0.3,6.4-2.5c-3.8-2.5-8-2.5-11.9-3.2c-3.1-0.6-6.2-0.8-9.2-1.5
		c-4.3-1-5.5-2.9-4.4-7.2c1.2-4.8,3.4-9.3,4.8-14c0.4-0.9,0.8-1.8,1.3-2.7c2.5-4.8,5.2-9.4,7.9-14.1c1.6-2.2,2.5-4.8,4.1-7.1
		c3-5.6,6.7-10.9,9.6-16.6c1-2.2,2.1-4.2,3.7-6c1-0.7,2-1.2,3.3-0.8c0.8,0.6,1.6,1.2,2.6,1c6.9-1.2,14-2,20.5-5
		c2.8,2.3,2.9,5.8,3.7,8.8c3.1,12.4,6.7,24.6,9.5,37.1c0.8,3.6,2.4,5.6,6.2,5.5c2.9,0.8,4.1,3.1,4.9,5.6c2.3,7.3,5.2,14.5,7.5,21.8
		c0.9,2.9,2,4.9,5.7,4.9c18.9-0.1,37.7,0,56.6-0.1c0.8,0,1.6,0,2.6-0.9c-2-2.8-5.3-3.4-8.2-4.1c-3.2-0.7-6.3-1.8-9.4-2.9
		c-7.2-2.4-11.8-7.2-14-14.6c-1.2-4-1.5-8.5-4.3-11.9c-1.7-3.5-3.4-6.9-3.1-11c1.3-3.7,4.5-2.7,7.2-2.9c0.6,0,1.1,0.1,1.7,0.1
		c0.3,0,0.5,0.1,0.8,0.1c0.3,0,0.5,0.1,0.8,0.2c14.5-0.8,29.1-0.3,43.6-0.3c3.4,0,5.6-1.1,7.1-4c2.9-5.9,6.8-11.2,8.8-17.5
		c3.2-6.8,5.4-13.9,6.4-21.4c0.3-2,0.3-4.3,2.9-5.2c0.9-0.3,1.9-0.3,2.8-0.3c7.3-0.2,7.3-0.2,8.4-6.5c3.8,3.4,8.4,2,12.6,1.7
		c7.4-0.7,14.8-1.4,22.2-1.8c4.3-0.2,8.6-0.3,12.8-1.9c2.9,0.2,3.8,2.8,5.3,4.6c1.8,2.2,3.7,4.1,5.6,6.2c4.7,4,5.4,9.5,5.8,15.2
		c0.3,1.6,0.4,3.2,0.3,4.9c-0.3,1.4-0.4,2.9-2.3,3c-3.5-2.1-4.8-6.2-7.9-8.7c-1.4-1.1-2.6-3-4.6-2.2c-2.4,0.9-2,3.3-1.7,5.2
		c1.3,9.4,4.9,18,9.9,26c1.8,2.8,4.6,2.7,7.5,2.7c17.6,0.1,35.2-0.2,52.7,0.1c6.8,2,13.3,5.1,20,7.6c1.5,0.6,3,1.5,2.5,3.6
		c-4.9,5.8-11.7,9.5-16.5,15.4c-1.5,1.8-5,3.4-3.9,5.7c1.2,2.5,4.8,1.3,7.3,1c19.8-2.3,39.3-6,58.9-9.5c16-1.6,32.2-1.9,48.2-3.9
		c2-0.2,3.9,0.1,5.8,0.7c12.6,2.6,25,6.3,38.1,5.9c6.2-0.2,11.7-1.7,14.2-8.3c1.3-2.6,0.8-5.3,0.7-8.1c0.1-0.5,0.3-0.9,0.7-1.3
		c3.8-2.3,8.1-2.2,12.3-2.9c6.9-1.1,13.3-3.1,19-7.2c10-7.2,12.9-18.2,7.7-29.3c-0.8-2-2.7-3.5-3.1-5.7c1-5.8,4.1-10.6,7.8-14.9
		c0.9-1.1,2-2.2,3.8-1.8c5.6,3.4,12.1,2.1,18.1,2.8c14,1.7,28.1,3,42.2,4.8c8.2,1,16.4,2.8,24.7,3.3c0,18.1,0,36.2,0,54.3
		c-2.2,3.3-2.2,6.6,0,9.9c0,3.6,0,7.2,0,10.9c-0.7,3.1-3.2,2.5-5.3,2.3c-0.3,1.9,0,3.6-0.1,5c0.2-0.8,0-1.9,0.1-3
		c0.1-2,1.5-1.8,2.9-1.8c1.5,0,2,0.7,2.1,2.1c0.1,1.8-0.6,3.6,0.5,5.3c0,12-0.1,24,0.1,36c0,2.1-0.4,2.9-2.5,2.5c-0.6-0.1-1.3,0-2,0
		C568.4,721.4,287.1,721.4,5.7,721.4z"/>
	<path class="st1" d="M322.3,192.6c2.1-8.3,6.6-11.9,15.1-11.9c103.1,0,206.1,0,309.2,0c1.8,0,3.6,0.1,5.4,0.2
		c0.7,0.3,1.4,0.6,2,0.8c6.6,3.2,8.5,8.4,8.5,15.6c-0.2,51.1-0.2,102.3-0.1,153.4c0,14.5-0.3,28.9,0.2,43.4
		c0.3,7.1-2.6,12.7-9.6,15.5c-1.1,0.4-2,0.9-3.3,0.9c-101.6-0.7-203.2-0.1-304.8-0.4c-3.1,0-6.2,0.1-9.3,0.3
		c-5.5,0.3-9.1-2.1-12.1-6.1c-0.4-0.4-0.8-0.9-1.1-1.5c-2.4-5.9-1.3-12.2-1.5-18.3c1.1-7.2,4.6-13.6,6.5-20.6
		c4.4-16,7.8-32.2,11.1-48.5c0.5-2.2,0.6-4.6,0.3-6.9c-0.9-3.3-0.2-6.4,1.3-9.4c1.2-2.5,2.5-4.9,3.5-7.5c1.8-4.1,2-8.1-0.1-12.2
		c-0.7-1.3-1.2-2.7-1-4.2c0.1-19.1,0.2-38.2-0.1-57.3c-0.3-2.5-2.1-3.2-4.3-3.3c-3.8-1.1-7.8-0.9-11.7-1c-3.3-0.1-5.1-1.3-4.8-5
		C322.3,203.3,321.6,197.9,322.3,192.6z"/>
	<path class="st0" d="M581,528.1c1.3-2.9,2.7-5.8,4-8.7c2.1-5.5,6.3-8.6,11.1-11.8c5.6-3.8,12-5.8,17.7-9.4c2.5-1.6,5.4-2.2,8.4-2.1
		c4.8,3,9.6,5.9,14.7,8.4c7.5,4.1,15.1,5,23,1.4c4.4-0.5,7.5-3.7,11.2-5.8c2.4-1.4,4.7-3,7.5-3.5c25.8,11.4,35.6,25,36.5,46.3
		c-8,5.3-8.3,13.9-7.2,21.6c2.1,14.1-2.3,25.2-11.8,35.3c-8.7,9.3-16.9,19.2-27.2,26.9c-4.2,3.1-7.7,7.8-13.7,7.9
		c-4.7-3.4-8.3-7.9-12.4-11.9c0.1-0.8,0.6-1.4,1.2-1.8c6-4,12-8,18.1-12c7.3-4.7,13.3-10.6,18.8-17.2c6.3-7.6,7.2-16.3,5.9-25.5
		c-1.3-9.4-3.7-18.7-5.7-27.7c-1.6,9.1-1.7,18.7-3,28.1c-1.6,11.2-5.4,21-16.6,26.1c-2.4,1.1-4.4,3-5.1,5.7
		c-0.9,3.2-3.3,4.6-6.2,5.7c-9.6,3.5-19.6,5.3-29.5,7.9c-1.2,0.3-2.5,0.4-3.8,0.4c-4.5-0.7-8.4-2.9-12.2-5.2c-3.1-2-6.1-4-9.1-6.1
		c0.5-1.7-0.4-2.5-1.8-2.9c0-1.3,1-1.6,1.9-1.9c17.2-4.8,31.9-14.2,46.2-24.4c2.8-2,5.8-3.8,8.7-5.6c1-0.5,2.1-0.9,2.9-1.8
		c5.1-4.4,10.7-8.3,15.1-13.4c1-1.1,2-2.1,2.9-3.3c3.9-5,3.9-9.8-0.6-14.4c-0.6-3.8-0.3-7.5-0.3-11.3c0-2.8-1-4.5-4.1-3.8
		c-5.9,1.3-12,2-18,2.8c-3.7,0.5-5,2.5-4.2,6.2c0.6,2.9,0.6,5.9,0.2,8.8c-0.6,3-3.2,4-5.4,5.2c-2.7,1.5-2.8,3.2-1.3,5.5
		c1.4,2.2,3.2,4.2,3.7,6.8c0.2,1.2,0.6,2.4-0.1,3.6c-12.5,10.3-26.4,18.3-41.2,24.9c-3.6,1.6-7.4,2.8-11.4,2.6
		c-2.9-0.2-5.8-0.6-7.1-3.5c-1.4-3-0.8-6.1,1-8.9c1.6-2.5,4-3.8,6.5-5.1c3.1-1.6,5.7-4,8.9-5.3c5.3-2.3,7.9-6.1,7.6-12.5
		c-3.3,3.5-6.3,6.8-9.7,9.8c-2.5,2.2-5.3,3.9-8.4,5c-5.6,1.9-10.8-0.5-12.7-6c-0.4-1.3-1.1-1.4-2-1.7c-0.8-1.4-0.6-2.9-0.1-4.3
		c1.9-6.1,2.9-12.3,5-18.3C578.2,531.6,578.9,529.4,581,528.1z"/>
	<path class="st2" d="M703.3,340.5c-7.6-2.3-8.9-4.1-8.9-11.8c0-10.7,0-21.3,0-32c0-6.8,3.5-10.4,10.2-10.4c32.7,0,65.4,0,98,0
		c6.4,0,10.8,4.2,11,11.3c0.3,10.8,0.2,21.7,0,32.5c-0.1,5.2-3.3,8.7-8.8,10.4c-1.2-0.7-2.6-0.4-3.8-0.5c-31.3,0-62.6,0-93.9,0
		C705.9,340.1,704.5,339.8,703.3,340.5z"/>
	<path class="st3" d="M719,567.5c4.1-0.5,5.1-4.8,8-6.8c15.8-11.2,20.7-27.7,22.7-45.9c1.5-13.4-0.1-26.9,1.9-40.2
		c0.7-5,2.2-9.9,4-14.6c1.4-2.7,3.6-2.8,5.8-1.3c9.7,6.4,18,14.2,24,24.3c1.1,1.8,0.7,3.8,0.3,5.7c-3.2,15.3-8,30.1-14.5,44.4
		c-4.8,10.6-9.7,21.2-16,31.1c-1.1,1.7-1.9,3.4-3.6,4.6c-3.7,2.8-6.9,6-8.5,10.5c-0.6,1.7-1.6,3.2-2.9,4.5c-3.8,4-4.8,3.9-7.1-1.3
		c-0.5-1-0.9-1.8-2.1-1.6c-2.3,0.4-3.7,2.1-4.7,4c-0.5,0.9-0.4,1.9,0.7,2.6c0.6,0.4,1.2,0.5,1.8,0.7c2.1,0.5,3.8,1.7,3.4,4
		c-0.3,2.1-2.5,1.8-4,2c-1.8,0.3-3.6,0.3-5.2,1.4c-1.3,0.6-2.6,0.8-4,0.3c-1.4-0.6-1.9-1.8-1.8-3.2c0.6-7.2,0.1-14.4,0.4-21.6
		C717.7,569.8,718,568.5,719,567.5z"/>
	<path class="st4" d="M338.2,643.5c0.6,3.4,1.6,6.7,3,9.8c0.6,0.8,0.5,1.5,0,2.3c-1.5,1-3.1,1-4.7,0.2
		c-12.5-12.7-20.1-27.9-22.8-45.4c-3.5-22.2-10-43.5-17.9-64.4c-10.1-26.6-18.1-53.8-21.9-82.1c-1.3-9.6-4.9-18.7-6.5-28.3
		c0.1-0.6,0.3-1.1,0.6-1.5c1-1,2.4-1.4,3.7-1.8c2.7-0.5,5.5-0.6,8.2-0.1c1.9,0.6,3.2,1.9,3.6,3.7c1.4,6.5,4.3,12.6,5.4,19.2
		c4.1,15.4,8.2,30.8,12.3,46.2c3.9,14.7,5.8,30,10,44.6c3.6,12.7,6,25.8,10.5,38.3c4,6.4,4.5,13.8,6.8,20.8
		c2.3,6.9,4.1,14.1,5.7,21.2c0.6,2.2,1.3,4.3,2,6.5C337,636.3,338.2,639.8,338.2,643.5z"/>
	<path class="st5" d="M684.5,91.4c-0.9-17.6,14.4-35.8,34.9-35.7c21.1,0.1,36.2,14.1,36.8,36.1c0.5,19.4-14.8,35.9-36.8,35.8
		C700.8,127.4,683.4,111.2,684.5,91.4z"/>
	<path class="st6" d="M536.6,526c7,11.2,11.1,23.7,15.6,36c3,8.3,4.7,17,8.5,25c1.1-1,0.2-2.5,0.5-3.7c3.7,3.3,3.9,7.7,0.5,10.9
		c-5.2,0.6-10.4-1-15.7-0.7c-4.8,0.3-9.4,1.1-13.4,4c-0.6,0.5-1.3,0.9-2.1,1.1c-3.9-0.3-2.3-2.8-1.8-4.7c1.4-5.9,3.6-11.6,3.5-17.8
		c0-1.1,0.1-2.3-0.1-3.4c-0.6-3.2-1.9-3.7-4.8-2.1c-2.4,1.3-3.2,4.8-6.5,4.8c-3.9-11.4-8.8-22.6-11-34.5c-1.6-9.1-4.2-18-4.6-27.4
		c-0.1-3.3,0.1-6.5,1.1-9.6c1.6-5.4,4.9-6.2,9.5-2.9c7.6,5.5,13,12.8,17.7,20.7C534.4,523.2,535.3,524.8,536.6,526z"/>
	<path class="st7" d="M520.9,575.4c2.4-1.9,3.6-4.9,6.5-6.5c3.9-2.1,5.9-1,6.2,3.6c0.6,7.8-1.7,15.2-4,22.5
		c-0.4,1.2-1.7,2.4,0.7,2.9c-0.8,4.7-2.8,9-5.1,13.1c-0.9-0.3-1.2-0.9-0.8-1.6c-0.9,3-1.6,6.3-3.2,8.9c2.5-0.7-0.1-5.4,3.9-5.4
		c1.1,5.9,2.9,11.6,5.9,16.9c-0.3,2.3-2.3,3-4.1,3.8c2-0.6,3.9-1.5,6-1.6c4.8,2.6,10,4.8,13.6,9.2c-18.8,0-37.7,0.1-56.5,0.1
		c-1.7,0-3.2,0-4.3-1.7c-6-9.5-10.7-19.4-11.4-30.9c-0.1-1.8-0.3-3.8,1.8-4.7c2-0.8,3.8-0.1,5.4,1.4c3.5,3.2,6.5,6.9,8.6,11.2
		c0.7,0.5,1,1.3,1.3,1.9c0.3-0.3-0.1-0.5-0.1-0.7c-0.1-1.4,0.8-2.9-0.2-4.2c0-1.6-0.1-3.3-0.1-4.9c-1.3-9-1.5-17.9,2.8-26.3
		c1.3-2.4,2.2-5.7,5.6-5.4c3.5,0.3,4.8,3.6,5.1,6.5c0.9,7.6,2.6,15.2,1.4,22.9c-0.1,1.8-1.2,3.4-1,5.2c0,0.1-0.1,0.2,0,0.3
		c1.4-9.4,5-18.1,8.9-26.8c0.6-1.4,1.7-2.3,2.9-3.2C518.1,580,519.5,577.7,520.9,575.4z"/>
	<path class="st8" d="M620.5,444.2c4.4-6,9.1-11.3,17.2-12.3c5.4-0.6,10.3,0.8,15.2,2.4c4.6,1.8,8.9,4.1,12,8c1.5,1.8,3,1.9,5.2,1.4
		c3.7-1,6.8-0.1,8.4,3.8c0.3,0.6,0.6,1.1,0.9,1.7c2.6,3.9,0.8,8,0.4,11.9c-0.3,2.4-0.4,4.7-0.4,7c-5,4.6-10.2,4.2-13.7-1.2
		c-1.7-2.6-3.5-5.2-4.2-8.5c-7.2,8.7-16.1,13.4-27.3,12.6c-3.1-0.2-3.9,1.5-4.6,3.9c-0.5,1.7-0.9,3.8-2.9,4.2
		c-2.3,0.5-3.5-1.4-4.7-2.9c-2.2-2.7-3.5-5.9-4.3-9.3c-0.4-1.5-0.7-3-1.1-4.5C616.8,456,616.2,449.6,620.5,444.2z"/>
	<path class="st3" d="M343.2,596.1c-6.4-16.8-12.9-33.6-12.9-52c0-2-0.1-4.1,1.3-5.6c2.5-2.7,5.1-2,7.8,0c9,6.9,14,16.6,18.6,26.6
		c4.1,8.9,7.5,18.1,10,27.6c0.3,1.2,1.1,2,2.1,2.5c0.6,1,0.3,2-0.4,2.7c-5.3,5.2-9,11.7-14.3,16.8c-4.6,2.3-4.9,2.2-6.8-2.2
		c1.8-2.4-0.7-3.8-1.4-5.6C345.4,603.6,343.6,600.1,343.2,596.1z"/>
	<path class="st9" d="M719,567.5c0.1,8.5,1,16.9-0.6,25.3c-0.3,1.4,0.2,2.2,1.6,2.4c0.2,0.7-0.2,1.2-0.6,1.7
		c-1.2,0.9-1.7,2.3-2.3,3.7c-0.2,0.4-0.4,0.8-0.6,1.2c-1.1,1.9-1.9,3.9-3.6,5.5c-0.3,0.3-0.6,0.6-1,0.9c-6.7,5.5-13,11.3-19.5,17
		c-0.5,0.8-1,1.6-1.6,2.2c-6.4,4.8-13.3,8.7-20.4,12.2c-2.8,0.1-5,1.5-7.1,3.3c-0.4,0.2-0.8,0.4-1.3,0.5c-4.1,0.8-4.2-3.2-6.1-5.1
		c-0.9-1.4-2.4-2.7-1-4.6c5.2,0.1,8.2-4.1,11.6-6.7c13.7-10.4,25.3-23.2,35.6-36.8c5.1-6.8,6.1-15,4.6-23.4
		c-1.2-6.6-0.2-13.1,2.2-19.2c1-2.4,1.9-6,6.1-4.7C716.4,551.1,717.7,559.3,719,567.5z"/>
	<path class="st3" d="M723,594.2c1.7-2,4.1-0.4,6-1.3c0.8-0.4,2.8,0.6,2.4-1.4c-0.2-1.1-0.9-2.2-2.3-2.2c-2.2,0-4.9,0-4.7-2.9
		c0.2-3.3,2.7-5.8,5.7-6.8c1.7-0.6,5.6-1.8,4.1,3.1c-0.4,1.2,0.3,2.4,1.3,3c1.1,0.6,1.6-0.7,2.3-1.3c2.3-1.9,3.8-4.4,4.9-7.2
		c1.5-3.9,4.2-6.8,7.9-8.7c0.8,3.4-1.7,5.6-3.3,7.8c-3.2,4.3-6,8.9-8.1,12.3c1.2-2.4,3.5-5.7,5.7-9.1c5-7.8,13.1-10.5,21.6-12.3
		c10.5-2.3,21.3-3.1,31.8-5.9c6.8-1.8,13.6-3.7,20.4-5.3c6.5-1.6,6.5-1.6,6.3,5.2c0,0.8,0.1,1.6-0.5,2.3c-2.8,8.8-10.3,10.1-18,10.9
		c-8.1,0.8-16.3,0.9-24,4c-5,2-9.9,4.2-13.3,8.8c-5.7,4.2-8.4,10.4-10.8,16.7c-1.7,0.7-2.8-0.5-3.9-1.4c-6.2-5.1-13.2-7.3-21.2-7.1
		C730,595.5,726.3,596.5,723,594.2z"/>
	<path class="st10" d="M742,410.7c0,6.6,0,13.1-0.1,19.7c-0.1,5-2.9,7.8-8,7.8c-10.3,0.1-20.7,0.1-31,0c-5.5,0-8.4-3-8.5-8.6
		c-0.1-9-0.1-18,0-27.1c0-5.9,2.9-8.5,8.8-8.8c6-0.3,12.1,1,18-0.8c1.6-0.3,1.9,1.1,2.3,2c2.8,7.6,8.5,11.6,16.2,13.3
		c0.8,0.2,1.6,0.5,2.2,1C742.2,409.8,742.2,410.3,742,410.7z"/>
	<path class="st11" d="M741.8,409.8c-10.7-0.9-17.1-7-20.6-16.8c-1.5-14.2,6.4-22.9,16.6-25.3c7.5-1.8,13.8,0.9,19.5,5.5
		c5.5,5.1,7.4,11.4,6,18.7c-1.2,3.8-2.7,7.4-4.9,10.7C754.4,408.4,748.4,409.9,741.8,409.8z"/>
	<path class="st6" d="M516.7,582.2c-4.4,9.9-8.8,19.8-10.8,30.6c-2.5-1.2-1.3-3.1-1-4.9c0.7-7.2-0.8-14.3-1.1-21.5
		c-0.1-3.1-0.7-7.6-4.1-8.2c-3.7-0.6-4.1,4-5.3,6.6c-3.4,7.6-3.5,15.8-3.3,24c-0.2-0.2-0.6-0.5-0.6-0.7c0.7-5.6-2.2-9.8-5.3-14
		c-4.2-5.3-7.3-11.5-12.8-15.8c-3.6-4.9-6.7-10.1-8.4-15.9c-2.3-7.8,0.8-11,8.7-8.8c11.2,3.1,20.7,9.1,29.3,16.8c1.3,1,2.5,2.1,4,3
		C509.9,575.9,512.2,580.4,516.7,582.2z"/>
	<path class="st3" d="M792.1,523.1c-3,5.4-4.2,11-2.1,17c2.5,6.9,8.3,9.3,14.9,6.2c5.8-2.7,11.7-4.3,17.7-0.5c1.1,1.1,1.2,2.7,2,3.9
		l0,0c1.3,3.4,0,5.1-3.4,5.9c-6.3,1.5-12.5,3.7-18.9,4.9c-3.6-0.6-7.1-0.7-10.4,1.3c-1.1,0.6-2.5,1.2-3.8,1
		c-6-0.7-11.2,1.6-16.6,3.4c-1,0.2-2,0.2-3,0.4c-2.9-0.2-5.8,0.6-8.7,0.4c-3.3-0.3-4.5-1.6-2.8-4.7c1.2-2.3,2.4-4.5,3.3-7
		c1.1-2.9,2.3-5.9,4.4-8.3c2.1-0.8,3.4-2.2,3.9-4.5c0.7-3.4,3-5.9,6-7.2c3.4-1.6,5.1-5.3,8.7-6.6c1.1-0.4,1.3-2.1,2-3.3
		c1.2-1.7,2.9-2.9,4.9-3.5C791.1,521.8,792.3,521.4,792.1,523.1z"/>
	<path class="st12" d="M561,593.2c1.2-0.2,2.5-0.8,2-2.1c-0.9-2.6-0.1-5.5-1.8-7.8c0-11.5-0.3-23,0.1-34.5
		c0.3-8.6,1.6-17.2,4.6-25.4c1-2.6,2.2-4.7,5.2-5.2c3-0.5,3.8,2,5.2,3.7c1.6,2,2.3,4.7,4.7,6.2c-3.3,9.3-6.3,18.8-7.9,28.6
		c1.4,1.8,0.5,3.8,0.2,5.7c-0.9,5-1.6,10-2.4,15c-0.7,4.9-0.5,9.8,1.5,14.4c0.7,1.5,1.9,3.3-0.1,4.9
		C568.2,596.7,564,596.8,561,593.2z"/>
	<path class="st13" d="M423,511.2c-2.7,4.2-6.7,2.2-9.9,1.3c-4.6-1.3-9.7,0.5-9.8,5c-0.1,3.1-0.1,6.5,1.2,9.5c0.2,0.4,0.5,1,0.4,1.3
		c-2.2,4.8,0.9,9.9-0.7,14.7c-3.2-1.1-1.6-4.4-2.8-6.4c-2.5-13.1-3-25.8,8.9-35.3c-3.5,2.5-6.5,5.4-8.2,9.5
		c-0.5,1.2-0.9,2.5-2.5,2.8c-0.5-2.8-1.4-5.3,0-8.4c1.5-3.2-1.7-8.7-5.2-10.8c-1.5-0.9-3.9-2.4-2.3-3.9c1-1,0.6-6.1,4.6-2.9
		c0.8,0.7,1.7-1.4,3-0.9c0.2,2.9,1.3,5,4.7,5.3c-0.1-2.9-4-2.7-4.2-5.3c6.3-0.9,6.3-0.9,4.7-6.8c-0.7-2.6,1-3.8,2.5-5.3
		c3.1-3.3,7.1-1.9,10.1-1.1c2.3,0.7,2,4.7,1.4,7.4c-0.3,1.4-1.3,3.1-0.6,4.2c0.9,1.4-1.6,3,0.5,3.7c1.7,0.6,3.5,0.3,5.1-0.7
		c5-3.1,7.1-2.4,7.9,3.6c0.4,3.1,1.5,7.2-3.9,7.8c-2.3,0.3-1.4,1.5-0.6,2.7C428.8,504.6,426,510.4,423,511.2
		c-0.8-2.1-0.7-4.9-3.9-5.3C418.5,509.2,421,510,423,511.2z"/>
	<path class="st14" d="M323.6,402.6c3.8,5.2,8.8,7.1,15.3,7.1c101.8-0.1,203.6-0.1,305.4-0.1c12.8,0,17.4-4.7,17.4-17.6
		c0-64.6-0.1-129.3,0.1-193.9c0-7-1.8-12.5-7.8-16.4c4.5-2.4,4.5-2.4,7.6-0.2c-1.1,1.2-2.9-0.7-4,1c1,2.4,4.5,3.1,4.3,6.5
		c1.6-1,0.4-2.4,1.2-3.3c3.4,3.5,3.5,3.5,0.6,7.6c-1,1.4-0.8,2.8-0.8,4.2c0,63.8,0,127.6,0,191.4c0,3.2,0.2,6.4,0.2,9.6
		c-0.1,6.2-2.9,9.4-8.5,11c-0.7,0.2-1.2,0.9-1.9,1.4c1.5,1.5,5.1-0.7,4.7,2.3c-0.3,2.3-3.4,1.3-5.1,1.2c-2-0.2-4.3-0.8-5.8-2.1
		c-1.1-0.9,1.4-0.2,1.4-1.7c-1.3,0-2.6,0-4,0c-99.5,0-199,0-298.4,0c-2.4,0-4.9-0.7-7,1.5c-0.4,0.4-2.1,0.5-2.2,0.2
		c-1.8-3.2-3.3-1-4.3,0.4c-1.3,1.8-2.8,2.3-4.7,1.6c-2.1-0.7-1.7-2.3-1.5-4.1c0.2-1.9-0.9-3.4-2.4-4.6
		C322.7,404.6,322.5,403.6,323.6,402.6z"/>
	<path class="st3" d="M349.1,611.9c0.6,4.8,3.4,3.2,6.1,2c1,4.1-2.4,6.3-4,9.3c-1.7,1.8-3.7,3.5-3.2,6.4c-0.1,0.4-0.2,0.9-0.3,1.3
		c-0.4,0.8-0.8,1.6-1.7,2c-1,0.1-1.7-0.4-2.4-1.1c-2.1-3-4.7-5.2-8.2-6.3c-1,0-1.5,0.7-2.1,1.2c-4.3-14-8.4-28.1-11.7-42.4
		c5.8,3.5,10.7,8.2,15.7,12.8c4.6,2.7,7.7,6.9,10.6,11.2C348.2,609.5,349.8,610.3,349.1,611.9z"/>
	<path class="st15" d="M759.6,454.1c7-8.1,15.6-12.9,26.6-12.8c3.4,4.1,2.8,9.2,3.3,13.9c0.6,5.6,0.2,11.3-0.9,16.9
		c-0.1,0.9-0.2,1.7-0.6,2.5c-1.2,2.1-2.8,3.3-5.3,3.1c-4.6-2.6-6.8-7.7-11.1-10.8c-3.5-2.5-6.6-5.8-10.4-8.1
		C759.3,457.6,758.1,456.3,759.6,454.1z"/>
	<path class="st16" d="M787.1,474.8c0-0.7,0-1.3,0.1-2c1.9-0.1,1.8,1.5,2.1,2.6c-0.1,12.8-4.3,24.7-8,36.8c-1.9,6.1-3.8,12.2-7,18.2
		c5.9-3.5,10.7-8,16.6-10.8c0.8-0.2,1.5-0.1,2.1,0.5c0,1.1,0.2,2.3-0.9,3c-2.9-0.8-4.1,1.8-6,3c-2,3.8-6.3,5-9.3,7.6
		c-3.9,3.3-7.9,6.2-9.3,11.4c-0.3,1.1-1.3,1.9-2.1,2.7c-1.9,2.3-3.2,5-3.9,7.9c-2.8,4.5-4.8,9.4-7.7,14.2c4.5-3.2,9.8-3,14.6-4.3
		c1,0,2,0,2.9,0c8.1-3,17-1.9,24.9-5.5c1.9-0.9,3.9,0.7,5.7-0.4c6.6-1.7,13.3-3.4,20-4.9c3-0.7,2.7-2.8,2.7-4.9
		c1.6,4.6,1.6,9.2,0,13.8c0-7.6,0-7.9-7.1-5.8c-16.8,4.8-33.8,8.3-51.1,10.8c-12.4,1.8-20.6,9.2-25.9,20.2c-1,2-1.8,4.3-5,4.2
		c4.3-8.9,10.7-16.1,15.1-24.5c8.4-11.4,14.2-24.2,20-37.1c6.2-13.8,10.5-28.1,13.9-42.8c1.3-5.6-2.3-8.3-4.7-11.6
		c-4.6-6.4-10.7-11.4-17-16.1c-2.1-1.6-4.4-3.8-7.3-1c0.7-2.4,2.2-4.2,3.9-5.9c-0.1,1.6,0.2,2.9,1.7,3.8c8.1,5,14.7,11.8,21,18.9
		c1.1,0.6,1.8,1.6,2.9,2.3C786,477.7,786.2,476,787.1,474.8z"/>
	<path class="st17" d="M371.8,593.2c-1.7-13.8-0.3-27.2,3.9-40.5c1.2-1.3-3.3-2.6,0-3.8c2.2-0.5,4.3-0.7,6.4,0.2
		c3.5,7.8,7.4,15.4,8.8,23.9c-0.2,3.3-3,4.7-4.9,6.9c-1.3,1.5-2.7,2.8-3.7,4.4c-0.7,0.9-1.4,1.7-2.2,2.6
		C377.3,588.9,376,592.9,371.8,593.2z"/>
	<path class="st18" d="M288.8,455.2c-2.2-6.3-4.5-12.6-6.7-18.9c-0.4-1.2-0.8-2.5-1.9-3.3c-2.4-1.7-2.9-4.5-3-7
		c-0.1-11.8-6-21.6-10.2-32c-0.6-1.5-1.3-3-1.7-4.6c0.1-1.8-1.8-4.2,1.5-5c3.4,0.6,5.8,2.9,8.4,4.8c5.3,4,10.8,7.9,16.2,11.8
		c0.3,0.7,0.3,1.4,0,2.1c-0.2,0.2-0.3,0.4-0.5,0.6c-1.6,0.3-3.3,0.7-4.9,1c-0.7-1.5,0.2-4.8-1.8-4.3c-1.7,0.4-4.2,3.9-2.6,5.8
		c3.5,4.2,1,9.6,3.8,13.8c0.9,1.3,0.3,2.1-1.2,2.4c-1.1,0.2-2.6-0.3-2.9,1.2c-0.5,2.1,2.1,0.5,2.2,1.6c0.5,3.8,3.5,7,2.4,11
		c-1.4,5,0.7,9.4,2.6,13.6C289.5,451.8,289.2,453.4,288.8,455.2z"/>
	<path class="st19" d="M427.8,585.3c2.1,7.3,1.8,7.6-6.3,7.8c-1.4,0-2.9,0-4.3,0c-4.6,0.6-8.6-0.7-12.3-3.3c-4-4.2-5.5-9.3-5-15.1
		c0.4-0.7,1.1-0.9,1.9-1c4,1.1,7,3.8,9.9,7.2c-1.7-3.4-4.2-5.3-7.3-6.7c-1-1-3.3-0.5-3.1-2.8c4.7-0.8,9.4-1.7,13.8,1.2
		c1.1,1,2.3,1.7,3.8,1.9c1.6,0.7,3,1.8,4.1,3.3C424.6,580.3,426.2,582.8,427.8,585.3z"/>
	<path class="st20" d="M622.3,496.4c-10.4,3.3-19.9,8.1-28.9,14.2c-3.4,2.3-5.9,5.6-8.4,8.8c0.6-3.3-0.2-6.8,1.4-9.9
		c0.5-1-1.1-3.2,1.3-2.9c2,0.2-0.3,2.3,1.1,3.2c1.7-2.3,3.4-4.2,6.9-3.3c1.9,0.5,4-4.6,2.9-6.9c2.5-0.9,5,0.9,7.7,0
		c2.4-0.8,6.5,1.7,4.9-4.3c-0.6-2.3,3.5-2.1,5.4-3.2c2.2-1.3,2.5,1.2,3.6,2.9c0.3-3.9,4.9-6.4,2.4-10.8c-1.8,1.2-0.7,4.4-3.2,3.9
		c-2.7-0.5-1.6-3.1-1.8-5c-0.1-1.1,0-2.3,0-3.4c0.3-0.1,0.5-0.1,0.8-0.2c9.1,3.8,10.7,6.3,9.7,14.8
		C626.5,496.1,624.6,496.7,622.3,496.4z"/>
	<path class="st20" d="M620.5,444.2c-2.8,5.9-3.5,12.2-3,18.7c0.8,2.7,0.9,5.3-0.6,7.9c-1.8,3,1.1,5.9,0.6,8.9c0,0,0,0,0,0
		c-3.3,1-6.9,2.2-9.6-0.5c-2.4-2.4-1.4-5.3,0.5-8.3c2.1,1.8,0.5,5.5,4.7,6.3c-3.5-5.4,2.4-10.7-1.9-16.6c-2.3-3.1,1.6-8.6,1.3-13.3
		c-0.1-1.2,2-1.2,3.5-0.9c-0.7,4.1-1.3,7.9-2.1,12.5c3-1.6,2.9-3.8,2.8-5.9C616.2,449.3,617.3,446.3,620.5,444.2z"/>
	<path class="st21" d="M793.1,442.2c12.5,4.9,16.6,15.6,19.3,27.5c3.5,15.2-0.9,28.2-9.7,40.3c-0.7,0.9-1.7,1.5-2.5,2.3
		c-0.5,0.3-0.9,0.3-1.3-0.2c-0.4-3.1,1.7-5.2,3.3-7.4c5.7-8.2,9.2-17.2,8.3-27.1c-1-10.7-3.5-21.1-12.3-28.5c-1.5-1.3-2.9-3.1-5-2.8
		c-2.5,0.4-1.3,3-1.9,4.5c-0.4,1-0.2,2.4-1.9,2.3c-1.7-2.8-1.5-6-1.6-9C787.7,439.9,790.9,442,793.1,442.2z"/>
	<path class="st22" d="M371.8,593.2c2.5-2.4,5-4.7,7.5-7.1c1.4-0.5,1.6,0.5,1.9,1.5c-1.2,5-5.7,7.3-8.7,10.9
		c-1.4,1.2-2.4,2.6-3.4,4.1c-4.6,4.9-8.5,10.4-11.9,16.2c-3.6,6-6.8,12.2-7,19.4c0,1.7,0,4.3-3.1,3.3l0,0c-2.4-3.6-1.5-7.2,0.2-10.8
		l-0.1,0.1c0.2-3,1.5-5.5,3.1-8c1.6-3,3.2-5.9,4.9-8.9c5-6.2,9.9-12.4,14.9-18.6C370.6,594.6,371.2,593.9,371.8,593.2z"/>
	<path class="st18" d="M323.6,402.6c0,1-0.1,2.1-0.1,3.1c-1.6-0.4-3.2-4-4.7,0.3c-0.5,1.5-2.6,0.7-4,0.5c-0.9-0.2-1.2-1.1-0.9-1.9
		c0.7-2,1.8-0.2,2.6-0.2c2-0.2,2.1-1.7,1.9-3.3c-2.9,1.3-4.5-3.5-7-1.9c-1.9,1.2-4.6,1.2-5.6,3.6c0.1,1.5-1,2.2-2,3
		c-4.5,0.7-8.9,1.1-12.8-2c0,0,0,0,0,0c1.1-2.1,3.1-2.2,5.1-2.1c1.9,0,3.9,0.6,5.7-0.8c0.4-0.3,0.8-0.5,1.2-0.7
		c4.5-1.9,8.6-4.4,11.9-8.1c1.1-1.2,2-2.6,3.9-2.5c2.5,1.2,2.9,3.6,2.6,5.8C320.8,398.2,321.6,400.5,323.6,402.6L323.6,402.6z"/>
	<path class="st23" d="M678.4,469.1c0.2-6.6,2.7-13.2,1-19.9c2.3,1.9,1.7,5.2,3.7,7.3c0.6,0.7,0,2.2-0.9,2.5c-1.2,0.3,0-1.9-1-1.9
		c-3.1,5.5,0.3,10.2,1.9,14.9c0.9,2.5,1.6,4.1-0.1,6.5c-1.4,1.9-1.6,4.7,0.7,6.6c-2.7,2-4.7-3.4-7.6-0.4c-2.5,2.6-5.6,4.5-5.4,8.7
		c-0.5,0.4-0.9,0.3-1.4-0.1c-1.5-4-0.7-7.8,2.7-10c4.5-3,6.7-6.5,5.7-11.9C677.6,470.6,678.1,469.8,678.4,469.1z"/>
	<path class="st24" d="M536.6,526c-1.9,0-2.3-1.6-3-2.9c-4.7-8.6-11.1-15.9-18.7-22c-3-2.4-6.2-1.5-7.4,2.1c-3.3,9.5-1,18.8,1.1,28
		c0.8,3.2,1.5,6.4,1.3,9.7c-3.7-11.4-6.2-22.9-4.9-35c0.9-7.7,5.2-9.7,11.4-5.4C525.7,507,531.6,516.1,536.6,526z"/>
	<path class="st25" d="M399.5,513.5c2-5.9,5.4-10.7,10.9-13.9c0.9-0.5,1.9-1.8,3-0.5c1.1,1.4-0.4,2-1.3,2.6
		c-9.1,6-11.8,14.8-10.7,25.1c0.3,3-0.7,6.2,1,9c-0.5,1.1,0.1,2.2-0.2,3.3c-0.2,1-0.6,1.9-1.7,2c-1.5,0-2.4-0.7-2.1-2.4
		c2.1,0.5,2.1-0.5,1.8-2.1C398.3,529,397.6,521.3,399.5,513.5z"/>
	<path class="st26" d="M678.5,447.5c-2.8-2.9-6.1-3.8-9.8-2.3c-1.6,0.7-2.7,0.5-3.8-1c-3.2-4.3-7.6-7.1-12-10
		c2.2-0.1,4.1,0.8,6.1,1.7c0.6,0.3,1.2,1.3,1.6-0.3c1.2-4.7,3.6-1.1,3.7,0c0.3,3.5,2.3,4.2,5.2,4.2c-0.4,1.9-2.2,0.8-2.8,1.9
		c1.3,1.6,2.6,0.7,3.9,0.1c3.6-1.9,6.9-3.4,7.3,2.9C677.9,445.6,678.6,446.5,678.5,447.5z"/>
	<path class="st27" d="M703.3,340.5c1.3-1.5,3-0.9,4.6-0.9c30.8,0,61.6,0,92.3,0c1.6,0,3.3-0.5,4.6,0.9
		C771,340.5,737.2,340.5,703.3,340.5z"/>
	<path class="st28" d="M398.4,538.8c1.2,1.9,2.4,3.3,2.9-0.4c0.1-1,0.1-1.9,1.1-2.5c0.6,2.4,1.2,4.7,1.8,7.1c0,3.8,0,7.6,0,11.4
		c-1.2,1.3,0.8,4-2,4.6c-1.6-0.4-1.9-1.7-2.1-3.1c-0.7-4.4,1.5-9.5-2.8-13.1c-0.9-0.8-1.8-1.6-2.9-2.1c-2.9-1-6-0.1-8.9-0.7
		c-4.5-2.1-0.4-3,0.6-4.3c2.1-1.1,4.2-1.4,6.3,0.1C394.3,537.1,396.8,537,398.4,538.8z"/>
	<path class="st29" d="M669.8,493.4c0.3,0.1,0.6,0.1,0.9,0c2.6,1,5.3,2.1,7.9,3.1c-5.8,3.5-11,8.3-17.8,10.1
		C663.7,502.1,665.7,497.1,669.8,493.4z"/>
	<path class="st30" d="M793.1,442.2c-3.8-0.4-6.1,0.4-4.1,4.9c0.8,1.8-0.6,4.2,1.2,5.9c1.9,2,1.4,4.5,1.5,6.9
		c0.2,4.3-0.8,8.4-1.2,12.6c-0.1,1.4-0.2,3.1-2.3,3.2c0-1.1,0.2-2.2-1-3c1.5-10.6,1.2-21.1-1.1-31.5
		C788.4,441.5,791,440.3,793.1,442.2z"/>
	<path class="st31" d="M392.4,535.8c-2,0.3-4.1-0.5-6,0.7c-3.1,1.1-5.6,3.6-9,3.9c-2,0-2.2-1.4-2.2-2.9c0.7-2.2,2.6-2.9,4.5-3.6l0,0
		c4.5-2.4,8.7-2.3,12.7,1.1C392.5,535.3,392.5,535.6,392.4,535.8z"/>
	<path class="st32" d="M382.6,549.8c-2.6,0-5.2-0.1-7.9-0.1c-2.5,1.2-4,0.2-3.7-2.3c0.2-1.8-0.5-3.9,1.1-5.4c0.2,0,0.4,0,0.6,0
		c0.8,0.5,1.2,1.4,2.1,1.8c0.8,0.3,1.5,0.6,1.9,1.5c0.5,0.5-2,1.4,0.3,1.7c3.6,0.5,6.7-0.4,9.4-2.8c1.4-1.3,2.8-2.8,5-1.5
		c0.9,2.4-1.4,3.4-2.3,5C387.3,549.4,385.6,551.6,382.6,549.8z"/>
	<path class="st33" d="M347.1,608.9c-3.3-3.9-6.6-7.9-9.9-11.8c2-0.2,4.6,3.1,5.9-1c1.6,3.6,3.3,7.2,4.9,10.9
		C348.8,608.1,348.8,608.9,347.1,608.9z"/>
	<path class="st34" d="M472.4,578.4c4.2,0.5,5.6,4.2,7.8,6.9c2.1,2.6,4,5.6,5,8.9c-4.3-2.7-6.3-7.5-9.9-10.9
		C474.4,581.6,473.4,580,472.4,578.4z"/>
	<path class="st35" d="M400.2,486.7c2.8,1.5,5.7,2.9,6.6,6.5c-6.9,0.3-9.4-2.1-7.1-6.5C399.9,486.8,400,486.8,400.2,486.7z"/>
	<path class="st36" d="M415.1,572.7c-4.5-1.3-9.1-1.8-13.7-0.7c-3.9,1-4.9,0.3-4.6-3.3c0.4-0.4,0.9-0.5,1.4-0.3
		c4.2,1.7,8.5,3.1,13.1,1.2C413.3,569.6,414.5,570.8,415.1,572.7z"/>
	<path class="st37" d="M398.2,568.3c-0.3,0-0.5,0.1-0.8,0.1c-0.9-0.5-1.4-1.4-1.6-2.4c0.8-4.1,2.1-7.9,5.4-10.7
		c0.4,1.1-0.1,2.6,1.3,3.3c0.7,2-0.5,3.3-1.6,4.7c-0.2,0.6-0.5,1.2-0.7,1.7C400,566.5,399.2,567.5,398.2,568.3L398.2,568.3z"/>
	<path class="st38" d="M741.8,409.8c6.3-0.7,11.9-3.1,16.7-7.3c-0.6,4.6-4.5,5.7-7.9,6.9c-2.7,0.9-5.7,0.9-8.6,1.3
		C741.8,410.5,741.8,410.2,741.8,409.8z"/>
	<path class="st39" d="M763.4,391.9c0.6-7-1.7-13.2-6-18.7c6.4,2.5,5.8,8.6,7,13.7C764.8,388.5,765.2,390.5,763.4,391.9z"/>
	<path class="st40" d="M799,512.2c0.4,0,0.7,0,1.1,0c-1.1,3.7-4.5,5.4-7,7.8c-0.6,0-1.3,0-1.9,0.1c-0.6-0.7-0.8-1.7-0.1-2.2
		C793.6,516,795.4,512.9,799,512.2z"/>
	<path class="st41" d="M372.1,541.9c0.7,2.6-3.7,7,2.6,7.8c-0.3,1.2,4.7,0.7,1,3c-0.5-0.4-0.9-0.9-1.5-1.2
		C369,549,368.6,547.5,372.1,541.9z"/>
	<path class="st42" d="M392.4,535.1c-4.1-2.4-8.3-2.6-12.7-1.1C384.4,530.7,388.7,531,392.4,535.1z"/>
	<path class="st43" d="M373.7,544.8c-1.1-0.7-0.9-1.8-0.9-2.9c0.4-0.9,0.7-1.8,1.1-2.8c0.3-0.9,0.6-1.9,1.9-1.3
		c0.9,0.4-0.1,1.9,1.2,2.1C377,542.4,375.1,543.4,373.7,544.8z"/>
	<path class="st18" d="M307.6,402.7c1.3-0.5,2.6-1.6,4-0.2c0.2,0.2,0.3,1,0.1,1.2c-1.1,1.4-2.7,0.8-4.1,0.9
		C307,404,307,403.4,307.6,402.7z"/>
	<path class="st36" d="M400.9,563.4c0.5-1.6,1-3.2,1.6-4.7c0.6-1.4,1.2-2.8,1.7-4.2C404.3,557.9,404.9,561.5,400.9,563.4z"/>
	<path class="st42" d="M375.8,537.9c-0.6,0.4-1.3,0.8-1.9,1.2c-0.1-4.1,2.6-5,5.9-5.2C378.6,535.5,376.5,536,375.8,537.9z"/>
	<path class="st36" d="M398.2,568.3c0.2-1.3,1.1-2.3,2.1-3.2c0.3,0.5,0.7,1,1,1.6c0.5,0.9,1.9-1.6,1.9,0.5c0,0.9-0.8,1.2-1.7,1.2
		C400.3,568.3,399.2,568.3,398.2,568.3z"/>
	<path class="st14" d="M307.6,402.7c0,0.7,0,1.3,0,2c-1.3,0.3-2.6,0.7-3.9,1c0.7-1,1.3-2,2-3C306.3,402.7,307,402.7,307.6,402.7z"/>
	<path class="st36" d="M411.2,569.4c-1.2,0-2.5,0-3.8,0c0-0.3-0.1-0.7,0.1-0.8C409.1,567.2,410.3,567.6,411.2,569.4z"/>
	<path class="st36" d="M423,577.8c-1.4-1.1-2.7-2.2-4.1-3.3C421.2,574.4,422.4,575.7,423,577.8z"/>
	<path class="st44" d="M506,573.4c-2-0.1-3.1-1.3-4-3C504,570.6,505.1,571.8,506,573.4z"/>
	<path class="st18" d="M286.3,405.5c-0.5,0.7-0.8,1.5-1.2,1.6c-0.9,0.2-1-0.5-0.9-1.2c0.1-0.8,0.7-1,1.3-1.2
		C286.6,404.5,285.3,405.6,286.3,405.5z"/>
	<path class="st16" d="M891.6,584.6c-1.4-1.1-1.9-2.5-2.1-4.2C891.3,581.1,891.7,582.7,891.6,584.6z"/>
	<path class="st45" d="M322.3,192.6c0.1,5.1,0.3,10.2,0.1,15.3c-0.1,3.4,0.9,4.7,4.4,4.5c4.5-0.2,9.2-0.9,13.4,1.8
		c1.6,0.6,2.3,1.8,2.8,3.4c0.2,19.2,0.3,38.4,0,57.7c-0.3,1.3-1.2,2-2.5,1.9c-5.3-0.4-8.4,2.8-10.3,6.9c-2.9,6.1-7.4,8.3-13.9,7.6
		c-11-0.1-21.9,0.2-32.9,0.1c-3.6,0-7.2,0.4-10.8-0.4c-0.6-0.2-1.1-0.5-1.5-1c-5.2-1.7-6.8-5.6-6.8-10.7c0-18.9,0-37.8,0-56.6
		c0-7.9,2.9-10.7,10.7-10.7c14,0,27.9-0.1,41.9,0.1c3.7,0.1,4.8-1,4.8-4.7C321.6,202.6,320.6,197.5,322.3,192.6z"/>
	<path class="st46" d="M211.1,318.5c-1.3-4-4.8-6.5-7.1-9.9c-5.4-8-5.5-14.3,0-22.2c1-1.4,1.4-2.9,1.8-4.5c1.7-5.3,4.7-9.7,9-13.2
		c6.4-5.3,12.8-3,14.5,5.2c0.2,1.1,0.3,2.3,0.4,3.4c0.8,1.5,0.2,2.9-0.4,4.2c-1.1,2.4-1,4.7,0.2,7c1.6,3,1,5.3-2.2,6.9
		c-1.6,0.8-3.7,1.4-3.2,3.7c0.5,2.3,2.8,2.5,4.7,2.7c1.6,0.2,3.3,0.1,4.4,1.7c1,2.8,0.7,5.8,0.5,8.7c-0.2,3.1-1.9,5.4-4.8,6.1
		c-5.5,1.3-10.9,3.3-16.6,3C211.1,320.8,211.6,319.4,211.1,318.5z"/>
	<path class="st47" d="M262.2,304.1c0.7-0.3,1.3-0.7,2-1c6.5-2.5,10.8-1.1,14.8,4.7c1.1,1.6,2,3.4,2.8,5.2c0.4,2.7,2.7,5.6-0.3,8.2
		c-2.3-1.5-4.2-0.6-6.3,0.7c-7.4,4.5-15.3,7.3-24.2,6.3c-3.5-0.4-6.8-0.9-9.4-3.5c-0.3-0.4-0.4-0.9-0.3-1.4
		c4.9-5.8,11.7-9.6,16.8-15.3C260,307.2,261.2,305.7,262.2,304.1z"/>
	<path class="st48" d="M232.3,303.2c-1.3,0-2.6,0.1-3.9,0.1c-3,0-5.2-1.3-5.9-4.1c-0.8-3.2,1.8-4.3,4.2-4.9c2.8-0.7,3.8-2.4,2.2-4.5
		c-3.6-4.6-1-8.5,0.9-12.5c5.3,1,7.3,5.8,10.6,9.1c3,3.8,5,8.1,6,12.9l0,0c1.7,4.1,3.7,8.3,1.9,12.9c-1.1,0.4-2.2-0.1-3.4,0
		c-6.1,0.8-8.4-0.7-10.4-6.7c0-1.3,0.4-2.5,1.2-4.2c-0.8,1.1-0.9,2.3-2.1,2.3C233.1,303.6,232.7,303.4,232.3,303.2z"/>
	<path class="st49" d="M209.2,458.9c-5.5-1.4-1.5-5.9-2.5-8.8c-1.4-4.2-1-8.9-1.5-13.4c-0.1-1.3-0.6-2.5-2-3.2
		c-4.7-2.4-5.8-7.4-4.6-13.1c1-4.8,0.2-10-0.5-15.1c-2.6,6.5,0.8,14-3.2,20.7c-0.9-2.8-1.7-4.7-0.3-7.8c4.1-9.1,0.1-14.2-9.6-12.9
		c-1.5,0.2-1.5,0.2-5.3-1.5c5.3-4.6,11.4,0.7,17.4-1.5c-3.8-0.7-6.1-3.6-9.7-3.1c-2.1,0.3-3.8,1.6-6.3,1.2c-2.6-0.4-2.9-1.2-2.2-2.9
		c1.5-3.5,1.5-6.9-0.3-10.2c-1.6-2.8,2-4.7,1-7.3c0.2-1.7-0.6-3.5,1-4.9c1.9,1.9,1.3,4.3,1.3,6.5c0,3.2,0.5,6.1,1.8,9
		c3,6.3,7.4,7.7,13.9,4.1c1.4-1,2.8-1.9,4.7-1.6c2.6,1,2.6,3.3,2.5,5.4c-1.2,13.1,2.1,25.7,4,38.5c1.1,5.2,1.3,10.6,1.9,15.9
		C210.6,454.9,210.7,457.1,209.2,458.9z"/>
	<path class="st50" d="M263.2,255.8c0.5,8.9-0.9,19.9,0.6,30.8c0.1,0.9-0.1,1.7-0.9,2c-1.4,0.5-1.5-0.7-1.8-1.6
		c-0.7-1.5-0.8-3.1-0.8-4.8c0-19.2,0-38.4,0.1-57.7c0-1.5-0.9-4,1.4-4c2.3,0,1.4,2.5,1.4,4C263.3,234.3,263.2,244,263.2,255.8z"/>
	<path class="st51" d="M198,395.6c-5.9,4.5-12.5,2.5-15.8-4.2c-2.6-5.3-1.7-10.9-1.9-16.4c0.6-9.2,3.8-17.5,7.6-25.8
		c4-8.6,10.1-15,18.7-19c3.3-1.5,5.2-3.5,4-7.5c-0.4-1.3,0.3-2.9,0.4-4.3c0.4,0.8,0.8,1.5,1.2,2.3c1.9,1.6,2,3.6,1.5,5.8
		c-0.6,2.6-2.2,4.3-4.6,5.4c-11.9,5.7-18.6,15.6-22.4,27.8c-2.7,8.7-5.5,17.5-3.1,26.9c0.5,1.9,0.8,3.8,2.2,5.3
		c1.8,2.3,4.3,2.8,7,2.9C194.6,394.9,196.5,394.2,198,395.6z"/>
	<path class="st52" d="M272.2,290.4c3.7,0,7.3,0,11-0.1c1.5,3.4,0.4,8,4.9,9.9c1.2,1.2,2.5,2.3,3.2,3.9c0.3,2.4-0.8,3.7-3.1,4.2
		c-0.4-0.2-0.8-0.5-1-0.9c-0.7-2.6-2.2-4.6-4.8-5.6c-0.6-0.4-1-0.9-1.3-1.4c-4.1-1.3-8.3-3.7-12.2,0.5c-0.9,1-2.2,1.9-3.9,1.1
		c1.4-2.3,2.7-4.6,4.1-6.9C270.6,293.8,270.7,291.6,272.2,290.4z"/>
	<path class="st53" d="M265,302c1.4-0.8,3.3-1.4,4-2.6c1.8-3.3,4.3-3,6.9-1.7c1.4,0.7,2.2,0.5,3.4-0.1c2.5-1.2,2.6,0.7,2.6,2.5
		c-0.8,2.1-2.1,3.7-5.1,3c1.7,1.4,2.7,2.6,4.2,3.4c4.3,2.3,4.3,2.4,0.7,6.2c-0.2,0.1-0.4,0.2-0.6,0.3c-0.5-0.6-1.2-1.2-1.4-1.9
		c-2.9-7-8.4-8.9-15.4-8.1C264.5,302.7,264.7,302.3,265,302z"/>
	<path class="st54" d="M247.5,312c2.1-4.5-1-8.5-1.1-12.8c1.7,0,2.1,1,2.1,2.5c0,1.5,0.5,2.7,2,3.4c-1.5,2.9,1.4,6.2-1.3,9.1
		c3.4-2.1,5.6-5.6,9.2-7.2c0.5,0.3,0.6,0.8,0.1,1.2c-5.2,5.3-10.3,10.8-16.9,14.5c-1.8-2.3-0.1-4.1,1-6
		C244.2,315.2,245.5,313.2,247.5,312z"/>
	<path class="st55" d="M217.9,227.9c-5.2-0.5-8.5-3.1-9.1-8.1c-0.7-5.7,3.6-8.2,8.1-8.7c5.1-0.6,8.3,3.3,8.9,8
		C226.4,224.5,222.5,226.8,217.9,227.9z"/>
	<path class="st56" d="M78.4,170.9c4.3,1.6,8.8,3.3,8.1,9c-0.6,5-3.8,8.2-9,7.9c-4.9-0.3-8.6-3.3-8-8.6
		C70.1,174.4,73.4,171.4,78.4,170.9z"/>
	<path class="st57" d="M77.8,210.7c4.1,1.2,8.6,2.4,8.7,8c0.1,5.1-2.9,8.3-7.8,8.9c-5.7,0.8-8.2-3.5-8.8-7.8
		C69.2,214.8,72.8,212,77.8,210.7z"/>
	<path class="st57" d="M217.6,170.9c5,1.1,8.2,4.3,8.2,9.1c0,5-3.6,8-8.7,7.8c-4.9-0.2-8.5-3.2-8-8.4
		C209.5,174.6,212.7,171.6,217.6,170.9z"/>
	<path class="st56" d="M157,139.5c-1.6,5.1-3.8,9-9.9,8.6c-5-0.3-7.2-2.8-7.3-7.7c-0.1-5.5,3-8.7,7.8-8.6
		C152.2,131.9,155.8,134.8,157,139.5z"/>
	<path class="st58" d="M148.1,210.7c4.4,0.9,8.2,3.9,8.5,8.3c0.3,4.3-2.2,8.7-7.7,8.7c-5.1,0-8.2-3-8.8-7.9
		C139.3,214.2,143.6,212.5,148.1,210.7z"/>
	<path class="st56" d="M121.6,219.3c-1.2,5-4.4,8.2-9.1,8.1c-5,0-7.8-3.6-7.8-8.6c0-5.5,4.3-7.7,8.7-7.8
		C118.3,211,120.9,214.6,121.6,219.3z"/>
	<path class="st59" d="M147.6,171.3c4.2,1.2,9.1,3,9.1,7.9c0,4.9-2.9,8.9-9,8.8c-5.8-0.1-7.3-4.1-7.6-8.7
		C139.7,174.3,143.4,172.6,147.6,171.3z"/>
	<path class="st60" d="M122,180.3c-1.2,4.6-4,7.8-9.1,7.4c-4.9-0.4-8.5-3.3-7.9-8.4c0.5-4.5,3-8.3,8.6-7.6
		C118.6,172.3,121.2,175.3,122,180.3z"/>
	<path class="st58" d="M181.6,170.8c4.3,1.3,8.6,2.4,9,7.4c0.4,5.7-2.7,9.1-8.3,9.6c-4.5,0.4-6.6-2.3-6.9-6.8
		C175,175.9,177.4,172.8,181.6,170.8z"/>
	<path class="st61" d="M216.9,148.1c-4.4-0.9-8.1-3.3-7.8-7.9c0.3-5,4.1-7.5,9.2-7.6c5.3-0.2,7.6,3.4,7.6,7.6
		C225.7,145.3,221.9,147.8,216.9,148.1z"/>
	<path class="st62" d="M122,140.5c-1.4,4.8-4.4,7.5-9.5,7.6c-5.3,0.2-7.7-3.4-7.6-7.6c0.1-5,3.8-8,8.9-7.7
		C118.4,133,121,136,122,140.5z"/>
	<path class="st62" d="M190.7,219.8c-0.8,4.2-3.2,7.7-7.8,7.6c-5-0.1-7.8-3.1-7.7-8.7c0.1-5.1,2.6-8.1,7.2-7.7
		C186.9,211.4,190.9,213.9,190.7,219.8z"/>
	<path class="st63" d="M190.7,139.6c-0.8,4.1-1.7,8.4-7.5,8.5c-4.7,0.1-7.6-1.9-7.9-6.9c-0.2-5.2,1.6-8.5,7.3-8.6
		C187.2,132.5,190.4,134.1,190.7,139.6z"/>
	<path class="st58" d="M78.6,148c-6,0-8.4-3.9-8.7-8.4c-0.3-4.1,3.3-6.6,7.3-6.8c5.1-0.3,8.9,2.6,9.1,7.6
		C86.4,144.9,82.8,147.3,78.6,148z"/>
	<path class="st54" d="M246.4,299.2c-2-4.3-4-8.6-6-12.9C244.7,289.5,246.6,293.9,246.4,299.2z"/>
	<path class="st54" d="M250.4,305.1c-0.1-1.9,0.4-3,1.9-3.3c0.6-0.1,0.9,0.2,0.9,0.8C253.2,304.4,251.9,304.9,250.4,305.1z"/>
	<path class="st64" d="M272.2,290.4c-0.5,1.9-1.1,3.8-3.1,4.7c0.7-1.6,1.3-3.2,2-4.8C271.5,290.3,271.9,290.3,272.2,290.4z"/>
	<path class="st65" d="M258.4,308.2c0-0.4-0.1-0.8-0.1-1.2c1.3-1,2.6-2,3.9-3C261.9,306.3,260.4,307.5,258.4,308.2z"/>
	<path class="st66" d="M253.5,610.4c-0.3,2.3-2.3,3.5-3.1,5.5c-0.6,0.3-1.3,0.4-1.9,0c-5.9-4.2-12.6-3.7-19.2-3.6
		c-4.4,0.1-8.6-0.4-12.9-2c-3.9-1.5-8.5-2.8-12.3,1.2c-1.1,1.1-2.8,1.9-3.2-0.9c3.8-6.9,8.4-13.2,12.8-19.7
		c4.8,0.9,8.8-2.9,13.8-2.2c4.7,0.7,9.1,0.9,13.5,3.4c3.6,2,7.9,2.9,12.3,3c4.3,0.1,4.8,1.4,2.7,5.2c-0.1,0.3-0.7,0.6-0.6,0.7
		C260.1,605.2,254.4,607.3,253.5,610.4z"/>
	<path class="st67" d="M221.8,577.5c1.3-2.8,2.5-5.5,3.8-8.3c1.7,0,1.4-1.5,1.8-2.5c1.1-2.7,3.1-3.6,5.5-2.1c2.3,1.5,4.2,1.2,6.4,0
		c3.4-1.8,7-1.6,10.5-0.6c1.7,0.5,3.4,1.3,5.3,1.2c3.8-0.2,6.4,1.1,7.4,5c0.2,0.9,0.7,2.1,1.9,2c1.4-0.1,1.5-1.5,1.9-2.6
		c0.7-2.2,0-4.2-0.5-6.3c-0.5-2.3-1.6-4.8,0.9-6.8c0.5,0.1,1.1,0.3,1.2,0.7c2.5,8.2,6.2,16.2,4.8,25.1c-0.5,2.9-1,5.7-3.9,7.4
		c-2.9,0.1-4-1.7-4.6-5.2c-2.1,3.9-4.6,4-7.3,1.6c-1.3-1.1-2.9-1.5-4.6-1.5c-3.1,0.1-5.9-0.3-8-2.9c-0.9-1.1-2.4-1-3.7-1.1
		c-4.2-0.2-8.6,0.7-12.5-1.6c-1.2-0.7-2.5,0.7-3.8,0.7C222.8,579.6,220.6,580.2,221.8,577.5z"/>
	<path class="st68" d="M221.8,577.5c0.1,0.6,0.2,1.7,1,1.3c6.5-3.1,12.6,2.7,19,0.6c0.6-0.2,1.8-0.2,1.9,0.1c3,7,11.6,1.1,15.4,6.8
		c1.3,2,2.7-0.1,3.1-1.8c0.2-1.3,0.7-2.3,2.2-1.9c1.2,0.4,2.2,1.5,1.6,2.6c-1.5,2.9,1.6,2.8,2.4,4.1c1,2.1-0.3,3.9-1.3,5.5
		c-3,5.1-5.6,10.7-10.8,14.2c-1,0.4-1.5,1.7-2.8,1.4c-0.2-2.7,1.5-4.5,3.2-6.4c-0.7-2-3.3-1.6-3.9-3.6c0.1-1.4,1.2-0.4,1.8-0.6
		c1-0.4,2.5-0.5,2.3-2c-0.2-1.4-1.5-1.6-2.7-1.6c-3.2-0.2-6.2-0.3-9.5-1.5c-6.2-2.4-12.3-5.7-19.4-4.9c-1.4,0.2-3.1-0.2-4.1,0.9
		c-2.5,2.8-5,1.2-7.5,0.2C216.4,586.4,219.1,581.9,221.8,577.5z"/>
	<path class="st69" d="M217.7,506.4c-1.7-4.5-2.3-9.2-2.8-13.9c0.7-1.9-0.1-3.8-0.3-5.7c-0.2-2.2,2.6-4.4,3.9-3
		c3.1,3.3,7.3,2.2,9.9,1.1c4.8-2,8.1,0,12,2.1c0.5-2.2-1.7-4.3-0.1-6.4c1.2-0.4,1.9,0.3,2.4,1.1c4.3,6.6,9.4,12.9,11.3,20.8
		c0.2,1,0.2,2.1-0.1,3.1c-0.6,1.8-1.6,3.4-3.8,2.9c-7.2-1.5-15.1-0.1-21.1-6.4c-2.8-3-7.2-1.5-9.2,2.3
		C219.5,505.4,219.4,506.8,217.7,506.4z"/>
	<path class="st70" d="M226.7,542.8c-0.7-3-1.3-5.9-2-8.9c0.6-2.2-0.8-4.1-0.9-6.2c-0.1-3.6,1.4-5.7,5-5.9c3.9-0.2,7.8-0.7,11.4,1.8
		c1.8,1.2,4,1.7,6.1,1.7c4.5,0.1,9,1.1,13.5,0.5c3.6,4,3.2,9.1,3.8,14c-0.1,1.9,0,3.9-0.1,5.8c-0.1,1.4,0.1,3.4-1.5,3.8
		c-1.7,0.5-2.2-1.5-3.1-2.5c-0.9-1-1.8-2.2-3.1-2.3c-6.6-0.4-12.5-4-19.3-3.5c-2.2,0.2-5.1,0.8-6.3-2.3c-0.8-0.8-1-2.1-2-2.8
		c0,1.4,1.9,1.8,1.9,3.2c0.3,4.7,1,9.4,0.9,14.1c-0.1,2.3,0.4,4.7-2.4,7.1c-0.7-4-0.3-7.3-0.4-10.6
		C227.1,547.6,227.6,545.1,226.7,542.8z"/>
	<path class="st71" d="M228.7,548.8c0,3.2,0,6.5,0,9.7c0.3,0,0.7,0,1,0c0-1.9,0-3.8,0-5.8c1.6-0.3,2.8-1.8,4.6-1.3
		c5.5,1.4,11,0.2,16.5,0.1c3.3-0.1,6.5,0,8.7,3.2c0.6,0.9,1.8,1.5,3,1c1.2-0.6,0.6-1.7,0.5-2.6c-0.3-2.4,0.4-4.9-0.8-7.2
		c0-2,0-4,0-5.9c1.5-0.1,2.1,1.1,2.3,2.1c0.9,4.8,4,9.5,1.7,14.7c-0.2,2.8-0.1,5.7,1.2,8.1c1.8,3.2-0.7,5.6-1,8.4
		c-0.1,1-1.4,1.2-2.5,1.1c-1.4-0.1-2.2-1.1-2.3-2.2c-0.7-4.9-3.6-6.1-8.2-5.7c-2.7,0.2-5-2.2-8-1.9c-2.3,0.2-4.4,0.3-6.5,1.6
		c-2,1.3-4.3,3-6.7-0.4c-1.1-1.6-3.2-1.3-3.9,1.6c-0.6,2.6-1.5,2.8-2.9,1.9c1.5-6.7,2.5-13.5,2-20.4
		C227.9,548.4,228.3,548.3,228.7,548.8z"/>
	<path class="st72" d="M200.9,610.5c0.6,1.1,1.7,1.6,2.3,0.5c3.7-7,9.6-3.1,13.9-2c3.6,0.9,7.1,2,10.8,1.9c1.1,0,2.3,0.1,3.4,0
		c7-0.7,13.5,0.2,19.1,5c-2.8,5.9-6.5,11.3-9.9,16.7c-2.2-2.4-2.5-2.6-0.5-4.9c1.5-1.6,1.2-3.1,1.1-4.9c-0.1,1.2,0.5,2.5-0.3,3.6
		c-0.4,0.3-0.9,0.4-1.3,0c-0.6-0.5-1-1.8-1.6-1.7c-6.9,1.2-10.5-5.2-16-6.9c-4.2-1.3-8.9-1.7-12.9,0.5c-4.6,2.4-8.4,0.8-12.2-1.3
		c-0.1-0.8,0.1-1.4,0.5-2.1C198.3,613.4,199.6,612,200.9,610.5z"/>
	<path class="st73" d="M259.3,526c0,0.9,0,1.9,0,2.8c-1.5-2.5-3.7-1.8-5.7-1.8c-5.6-0.1-11.1,0.2-16.3-3.5
		c-2.6-1.8-7.1-0.9-10.6-0.1c-1.6,0.4-1.7,2.3-1.9,4.1c-0.2,2.1,1.9,4.4-0.2,6.4c-2-4.8-2.9-9.8-3.9-14.8c0.2-0.3,0.3-0.6,0.3-0.9
		c0-1.9-1.9-4.6-0.4-5.5c2.3-1.4,5.3-2.1,8.2-2.5c0.5-0.1,1.3,0,1.4,0.2c2,4.2,5.4,1.3,8,1.4c3.6,0.2,7.2,0.1,10.1,2.9
		c2.7,2.6,3.9,0.7,4.9-1.7c0.8-2,0.1-4.7,2.8-5.8C259.7,513.1,261.5,519.2,259.3,526z"/>
	<path class="st74" d="M209.2,458.9c-0.6-7.4-1.3-14.8-1.9-22.2c4.4-3.1,9.2-1.8,14-1.1c2.5,1.7,2.3,4.7,3.3,7.2
		c0.2,0.5,0.3,1,0.4,1.5c0.1,0.8,0.2,1.5,0.2,2.3c-0.1,4.5,2,8.6,2.2,13c0.1,2.2,0.4,4.5-1.9,5.6c-2.5,1.2-3.9-0.8-5.1-2.6
		c-1.1-1.6-2.3-2.7-4.4-2.3c-2.1,0.4-2.3,2-2.7,3.6c-0.3,1.3,0,3.2-2.3,3C210.3,464.2,209.7,461.6,209.2,458.9z"/>
	<path class="st75" d="M240.5,480.7c0.1,3,3.1,5.9,0.2,9.3c-1.4-3.9-5.6-3.4-8.3-5.4c-2.7,3.7-6.6,1.6-9.9,1.9
		c-1.2,0.1-3.6,1.7-4-1.7c-0.1-1.3-1.4,0.5-2.3,0.4c-1.4-0.1-1.1,0.7-0.6,1.5c1.3,2.1,0.6,3.9-0.6,5.8c-1.9-6.4-2.9-13-3.2-19.7
		c1.9,1.4,1.9,1.4,1.8,4.5c-0.3-2.6,0.8-4.1,3.7-5.1c4.8-1.6,9.5-3.7,14.7-1.9c0.6,0.2,1.2-0.4,1.8-0.7
		C238.1,472,240.3,475.8,240.5,480.7z"/>
	<path class="st76" d="M255.3,507.3c-0.2,1.8-0.4,3.5-0.7,5.3c-1.2,5.8-2.8,6.4-7.3,2.7c-4-3.3-8.7-1.9-13.1-1.9
		c-1.9,0-0.9,2.6-2.3,3.2c-1,0-1.2-0.8-1.1-1.4c0.8-4.8-1.5-4.7-4.8-3.1c-3.3,1.6-3.3,1.6-5.1,7.1c-1.8-4.1-2.5-8.4-3.1-12.8
		c0.9-5.2,3.7-7.8,9.2-7c1.7,0.2,3.3,0.6,4.2,2.1c2.1,3.5,5.7,4.3,9.1,4.8c3.3,0.5,6.9-0.3,10.1,1.2c2.3,1.1,1.9-1.6,3.1-2.1
		c1.2-0.5,1.6,0.5,1.9,1.3C255.3,506.8,255.3,507.1,255.3,507.3z"/>
	<path class="st77" d="M233.6,469.8c-0.3,1,1.9,4.1-1.9,2.1c-2.4-1.2-15.5,0.2-16.7,1.9c-1.2,1.7-1.1,3.9,0.2,6.5
		c-3.6-2.3-1.1-5.9-3.6-7.6c-0.9-1.9-1-3.9-0.9-5.9c1.1-0.7,1-1.9,1.1-3c0.3-1.8-1.2-4.5,2.3-4.9c2.9-0.3,5.8-0.9,7.1,2.9
		c0.5,1.5,1.3,3.5,3.4,2.6c2-0.8,1.3-2.7,1.3-4.6c-0.2-4.7-2.7-9.1-2.2-13.9c2.3,0,2.4,2,2.8,3.4c1.2,3.4,2.5,6.7,3.9,10
		C231.9,462.9,233.5,466.1,233.6,469.8z"/>
	<path class="st78" d="M44.2,687.9c-0.7,0-1.3,0-2,0c-3.3-5.4-2.1-11.6-2.7-17.5c-0.2-1.8,0.4-3.7,0.4-5.7c0-5.4,5.7-6.2,8.2-9.8
		c0.3-0.5,1.3-0.5,1.7-1c5.6-7.4,13.6-5.4,20.9-5.4c5.3,0.1,8,5.2,11.7,8.1c2,1.6,5.1,2.9,4.2,6.5c0,0,0,0,0,0
		c-3.1,0.3-3.9-2.6-5.5-4.2c-11.3-11.5-28.9-9.3-36.4,4.9c-3.8,7.2-2.5,14.6,0.1,21.9C44.9,686.6,44.8,687.3,44.2,687.9z"/>
	<path class="st79" d="M197.1,614.9c0,0.5-0.1,1-0.1,1.5c-0.2,1.3-0.5,2.5-1.2,3.6c-0.7,1.1-1.4,2.1-2.1,3.2
		c-1.3,1.4-1.8,3.6-4.2,3.7c-0.1-0.1-0.2-0.3-0.3-0.4C191.2,622.2,192.9,617.7,197.1,614.9z"/>
	<path class="st80" d="M228.7,548.8c-0.4,0-0.7,0-1.1,0c-1-1.9-0.9-3.9-0.9-6C228.5,544.4,227.2,547.1,228.7,548.8z"/>
	<path class="st81" d="M233.6,469.8c-2.5-2.8-2.4-6.7-4-9.8c-0.6-3-2.2-5.8-2.8-8.8c-0.5-2.6-0.8-5.3,2.1-5.6
		c-1.3,0.2-3.6,1.4-5.2-1.4c-0.1-0.3-0.1-0.6-0.1-1c1.3-7.3,2-7.5,9.3-6.9c5,0.4,10.1,0,15-0.7c5.3-0.8,10.7-0.1,16-1.4
		c1.5-0.4,2.9,0,4.1,1c5.5,16.1,7.6,33,10.8,49.7c3.8,20,10.1,39.3,17.2,58.3c8.6,22.8,15.5,46,19.5,70.1
		c2.6,15.3,9.4,28.8,20.6,39.9c0.6,0.6,0.3,1.1,0.1,1.7c-0.8,1.3-2.1,1.6-3.4,1.6c-10.1,0.6-20.1,1.8-30.2,0.9
		c-1.4-0.2-2.7-1.3-4.3-0.4c-4.7,0.7-6-1.8-7.1-6c-3.9-15.5-7.4-31.1-12.3-46.3c-3-4.4-3.2-9.7-4.9-14.6c-0.9-2.6-0.9-5.5-3-7.6
		c1.1-9.2-2.5-17.5-5.1-26c-0.7-5.7-1.6-11.4-3.9-16.8c-0.3-4.8-0.9-9.4-3-13.8c-0.4-6.4-0.9-12.8-4-18.7c0,0,0,0,0,0
		c-0.8-1.6-1.1-3.4-2-4.9c-3.3-7.8-7.7-15-12.8-21.7C238.5,476.9,236.9,472.8,233.6,469.8z"/>
	<path class="st82" d="M669.8,638.6c7.2-3.4,13.7-8,20.6-11.9c2.2-1,3.7-2.9,5.3-4.7c1.7-0.8,2.8-2.2,4.4-3.1
		c4.5-2.8,9.8-4.8,11.2-10.9c0.2-0.4,0.5-0.8,0.7-1.1l0.1,0.1c2.4-1.3,2.9-3.7,3.9-5.9l0,0c2-0.1,1.8,1.6,2.1,2.8
		c0.1,1.3-0.3,2.6-0.7,3.9c-1.6,5.7-0.6,8.6,4.8,10.5c10.1,3.5,20.3,3.7,30.2-1.2c3-1.5,5.7-3.3,6.9-6.7c0.3-0.9,0.8-1.8,2.1-1.5
		c5.3,8.4,4.3,18.4-2.5,26.3c-6.3,7.4-14.6,10.8-23.9,12.2c-4.4,0.7-8.7,1.4-13.1,2.1c-1.3,1.3-2.9,1.9-4.7,2.3
		c-16.3,3.2-32.4,7.3-48.7,10.5c-5.4-1.4-10.7,0.2-16,0.5c-13.1,0.8-26.1,1.7-39.1,2.6c-3.7-4.8-2.5-10.6-3.3-16
		c-0.4-2.6,0-5.2-0.1-7.9c-0.1-2.2-1.3-3.1-3.2-2.2c-5.5,2.6-11.5,2.4-17.3,2.9c-5.1,0.5-9.5,3.3-14,5.8c-2.4,1.3-4.3,3.7-7.4,3.4
		c0.1-1.9-1.5-1.9-2.7-2.3c-6.3-2.6-12.6-5.1-19-7.7c-4.9-2.5-9.6-5.4-13.9-8.8c-1.1-0.1-1.8-0.8-2-1.9c-4.2-5.2-6.5-11-6.1-17.7
		c-0.5-0.7-0.5-1.3,0.2-1.8c1.1-4.7,2.4-9.3,5.5-13.1c0.4-0.3,0.9-0.6,1.3-0.9c2-1.2,2.7,0.4,3.3,1.7c2,4.1,5.5,6.4,9.5,8.2
		c22,9.4,45,15.6,68,21.9c4.6,1.3,9.5,1,14.1-0.9c3.4-1.3,6.2-3.2,6.9-7.1c0.4-2.1,1.5-3.2,3.7-3.2c2.6,0.7,5.8,0.6,6.9,4
		c-0.3,0.3-0.6,0.7-0.9,1c-0.4,0.8-1.1,1.3-1.8,1.9c-1.3,0.9-2.7,1.6-4.1,2.2c-2.9,1-4.7,3.5-6.8,5.5c-3.1,3-6.4,5.5-8.3,10
		c-1.7,4.1-2,7.6-0.2,11.1c1.9,3.6,5.8,4.6,9.7,4.5c2.4-0.1,4.9-0.5,6.7-2.4c6.2-3.8,12.7-6.9,18.9-10.6c1.7-1.1,3.8-1.3,5.6-2.4
		l0,0C664.9,640.7,667.5,639.8,669.8,638.6z"/>
	<path class="st83" d="M356.9,617.6c3.1-5.9,7.1-11.1,11.7-15.9c3.3,0.9,3,3.9,3.7,6.3c-0.7-3.3-1.2-6.6-0.5-9.9
		c2.9-3.4,5.9-6.8,8.8-10.2c0.9-1,0.6-2.6,1.8-3.5c1.9-2.8,3.6-6,7.9-4.9c0.9,0.8,1.3,1.9,1.4,3.1c0.1,8.4,0.8,16.9-0.5,25.3
		c0.5-0.9,0.9-1.7,1.4-2.6c0.2-0.4,0.4-0.8,0.7-1.1c1.1-1.4,1.8-2.9,2.3-4.6c1.7-4,4.7-7.1,8.1-9.8c0.6-0.4,1.2-0.6,1.9-0.7
		c3.7,1.8,7.6,3.2,11.7,4c-3.8,2.1-2.2,6-2.9,9c-1.4,5.8-3,11.5-6,16.7c-2.3,6.1-7.9,10.3-9.3,17c-0.7,3.3-3.3,4.8-7,4.8
		c-12.1-0.2-24.2,0-36.4-0.1c-5.2,0-6.4-1.6-5.3-6.7c0.6-2.5,1.2-5.2,2.6-7.4C354.7,623.7,355.8,620.6,356.9,617.6z"/>
	<path class="st11" d="M227.7,655.5c-0.5,4.6-2.9,8.7-4.2,13c-2,6.3-1.9,6.5,4.5,7.5c5.8,0.9,11.6,1.9,17.4,3c1.9,0.4,4.5,1,4.5,3
		c0.1,2.3-2.7,2.4-4.5,2.9c-8.1,2.1-16.6,2.3-24.9,2.6c-12.1,0.5-24.3,0.4-36.4,0.2c-8.3-0.1-9-1.6-5.4-8.8
		c3.7-7.5,7-15.2,10.5-22.8c1.4-1.4,3.2-1.5,5-1.5c8.3,0,16.6-0.1,24.8-0.9C221.9,653.6,225.2,652.9,227.7,655.5z"/>
	<path class="st8" d="M568.2,651.4c8.8-6.4,17.8-12.2,29.5-10.9c3.2,0.3,6-1.5,8.8-2.7c3.4-1.5,5.5-1.5,5.2,3.3
		c-0.6,8.2,0.6,16.3,2,24.3c-19.9,4-39.9,7.5-60.1,9.7c-1.5,0.2-2.9,0.2-4.4,0.1c-1.3,0-2.8,0.3-3.5-1.1c-0.8-1.6,0.4-2.8,1.3-3.9
		c4-4.8,8.6-9,13.5-12.9C562.8,655.2,565.5,653.3,568.2,651.4z"/>
	<path class="st84" d="M761.7,608.8c-2.9,9-10.7,11.4-18.5,12.7c-6.4,1-13,0.9-19.4-1.3c-8.2-2.8-9.8-5.7-6.9-13.8
		c0.3-0.8,0.2-1.6,0.3-2.4c0.8-2.6-0.3-5.6,1.9-7.9c0.3-0.3,0.7-0.6,1-0.9c1-0.3,2-0.7,3-1c7.5-0.1,15-1.1,22.4,1.4
		c5,1.7,9.2,4.8,13.2,8.3C759.4,605.7,761.4,606.7,761.7,608.8z"/>
	<path class="st85" d="M236.5,639.5c-2.3,4.8-4.7,9.5-7.7,13.9c-0.7,0.4-1.5,0.3-1.8-0.2c-3.4-5.3-8.6-3.4-13.3-3.5
		c-2.8-0.1-5.6,0-8-1.8c-1.6-1.4-3.6-1.1-5.6-1.2c-3.5-0.1-7.2,0.5-9.8-2.8c-0.8-1.1-2.4-0.6-3.7-0.7c-2.4-0.2-4.2-1.2-4.4-4
		c0.6-1.9,1.7-3.5,3-4.8c1.5,0.1,1.8-1.1,2.3-2.1c1.4-2.9,3.2-4,6.2-1.9c2,1.4,4.1,0.7,6-0.5c1.9-1.2,4.1-1.9,6.1-0.7
		c3.6,2.2,7.5,2.1,11.4,2.1c3.6,0,7.2-0.1,10.8,0C234.4,631.4,236,633,236.5,639.5z"/>
	<path class="st86" d="M236.5,639.5c-1.6-5.8-5.3-7.9-11.3-7c-3.7,0.5-7.5,0.1-11.3,0.1c-0.8,0-1.7,0.2-2.5,0c-5-1.7-9.9-3.6-14.9,0
		c-0.6,0.5-2.4,0.4-2.8-0.1c-4.1-4.7-4.7-0.5-6.1,2.2c-0.6,1.1-1.8,2.6-2.3-0.2c1.4-2.5,2.8-5,4.2-7.5c1.2-1.5,2.4-2.9,3.6-4.4
		c1.1,0.6,2.1,0.5,2.9-0.6c1-1.4-0.5-1.5-1-2.1c0.3-1.3,1-2.4,2-3.3c4.2,0.7,7.5,2.9,12.7,0.2c3.6-1.9,10.8-3.4,15.1,2.1
		c0.5,0.6,1.4,0.8,2.2,1c0.5,0.2,1,0,1.5,0.2c3.5,1,5.7,6.9,10.5,2.4c0.4,1.2,0.8,2.3,1.2,3.6c1.2-1.4-0.3-3.4,1.4-4.7
		c0.5,2.9,1.2,5.6-1.4,7.9c-0.9,0.8-0.8,2.5,0.4,3.5C239.1,634.9,237.8,637.2,236.5,639.5z"/>
	<path class="st87" d="M44.2,685.9c-6-9.4-2.8-24.6,6.8-31.2c11.8-8.1,27.1-4.1,34.1,7.3c0.3,0.5,1,0.8,1.5,1.2c0,0.3,0,0.6,0,1
		c-0.4,0.5-0.9,1-1.5,1.3c-2.6,1.4-5.3,2.6-8.1,3.5c-0.5,0.1-0.9,0.1-1.4,0c-0.5-0.1-0.9-0.3-1.3-0.5c-7.2-6-12.5-6.5-17.2-1.4
		c-3.5,3.7-2.7,8.2-2.2,12.6c0,0.5-0.1,0.9-0.3,1.4c-2.3,2.5-5,4.3-8.3,5.4C45.4,686.6,44.7,686.5,44.2,685.9z"/>
	<path class="st88" d="M668.8,662.2c0.1-1.1,0.7-1.7,1.8-1.9c16.1-3.3,32.2-6.7,48.3-10c1.1-0.2,2.2-0.5,3.3-0.8
		c-0.1,0.3-0.1,0.6-0.2,1c-0.2,2.6-0.5,5.2,0,7.9c-1.3,6.9-6.6,8.9-12.5,9.7c-6.6,0.9-13.1,0-19.6-1.2
		C682.8,665.4,675.8,663.7,668.8,662.2z"/>
	<path class="st89" d="M271.3,582.6c1.4-1.8,2-0.7,2.4,0.7c1.6,7.2,4.4,14.1,5.4,21.4c-0.2,1.4-0.1,2.9-2.2,3.2
		c-6.4,1-12.8,1.9-19.1,3.3c-3.7,0.8-1-1.7-1.6-2.4c4.4-6.3,9.3-12.3,12.1-19.6C269.9,587.3,270.9,585.1,271.3,582.6z"/>
	<path class="st90" d="M206,647.4c5.5,0.7,11.2,3.2,16.7-1.5c1,3.3,3.3,5.6,6.1,7.5c-0.3,0.7-0.7,1.4-1,2.1
		c-12.9,0.3-25.7,0.5-38.6,0.8c-1-0.3-2-0.6-3-0.9c0.1-0.2,0.1-0.4,0.2-0.7c3.3-4,6.9-7.2,12.7-6.6c2.1,0.2,4.3,0.2,6.3-0.6
		C205.6,647.5,205.8,647.5,206,647.4z"/>
	<path class="st91" d="M298.5,657.2c1.2-0.7,2.4-0.6,3.7-0.2c3,1.6,3.4,4.8,4.3,7.5c1.8,5.6,4,11.2,5.7,16.8
		c1.2,4.1,3.3,5.4,7.4,5.4c17.4-0.1,34.9-0.1,53,0c-5.9-2-11.5-3.3-16.7-5.6c-6.5-2.8-10.8-7.3-12.2-14.4c-0.8-3.8-3.4-7.2-2.6-11.4
		c0.1-0.6,0.1-1.3,0.2-1.9c1.7,1.8,2.5,3.9,3.1,6.4c4.1,16,6.5,17.5,23,22.1c3.2,0.9,6.1,2.2,9.2,3.2c1.2,0.4,2.1,1.2,1.9,2.5
		c-0.1,1.5-1.3,2.2-2.7,2.3c-0.8,0.1-1.6,0-2.5,0c-18.7,0-37.4-0.1-56.1,0.1c-3.7,0-5.7-1.1-6.8-4.7c-2.4-7.9-5.2-15.8-7.9-23.6
		C301.9,659.6,301,657.6,298.5,657.2z"/>
	<path class="st92" d="M356.9,617.6c0.5,3.5-0.4,6.5-2.8,9c-1,1-1.3,2.3-1.7,3.5c-3.1,8.4-2.3,9.5,6.6,9.5c10.8,0,21.6-0.1,32.4,0
		c4.6,0,7.2-1.6,7.1-6.5c0-1-0.2-2.3,0.4-2.8c3.8-3.3,6-7.9,9.5-11.4c-2,7.7-6.9,14-10.5,20.9c-1.1,2.1-2.9,1.8-4.7,1.8
		c-12.8,0-25.5,0.2-38.3-0.1c-2.6-0.1-5.2,2.2-7.8,0.1c1.9,0.4,2.3-0.5,2.1-2.2C348.6,631,352.6,624.2,356.9,617.6z"/>
	<path class="st90" d="M182.2,639.2c1.8,2.4,4.2,3.2,7.1,2.7c0.6-0.1,1.7-0.3,1.8-0.1c2.6,6.2,8,2.8,12.1,3.6c1.4,0.3,2.6,0.3,2.8,2
		c-3.2,2-6.7,0.6-10,1c-2.9,0.3-6.4-0.9-7.2,3.5c-0.2,0.8-1.2,1.3-1.9,1.3c-2.6,0.2,0.3,1.5-0.5,2l-0.1,0.2
		c-12-0.1-12.8-1.5-7.2-11.4C179.9,642.4,181.1,640.8,182.2,639.2z"/>
	<path class="st93" d="M113.1,672.2c0.6,0,1.2,0,1.7,0c0.9-0.3,1.3,0.3,1.8,0.8c9.4,10.5,24.2,9.5,31.3-2.6c2.1-3.5,3.8-8,1.8-12.5
		c-0.7-1.6-1.2-3.3-0.5-5.1c0.6,0,1.2,0,1.7,0c5.9,14.3-2.1,30.1-20.1,30.7c-7.3,0.3-13.2-4-17.9-9.5
		C113,673.4,113.1,672.8,113.1,672.2z"/>
	<path class="st94" d="M338.2,643.5c-1.3-3.5-2.7-7-3.1-10.8c2.6-3.7,5.6-2.4,8.5-0.6c3.9,2.5,2.8,6,1.5,9.4
		C342.8,642.2,339.6,639.8,338.2,643.5z"/>
	<path class="st95" d="M345.1,641.5c0.1-9.3-2.5-11.5-10-8.8c-1-1.9-1.6-3.9-1.8-6c0.2-1.1-0.4-3.1,2-1.9c3.2,2,6.6,3.6,8.9,6.9
		c0.6,0.4,1.3,0.7,1.9,1.1c0.8,3,0.8,5.9,0,8.9C345.8,641.5,345.4,641.5,345.1,641.5z"/>
	<path class="st96" d="M722,658.3c-2.5-2.6-0.8-5.2,0-7.9C723.1,653,723,655.6,722,658.3z"/>
	<path class="st97" d="M346.1,641.5c0-3,0-5.9,0-8.9c0.1-0.8,0.2-1.7,1.2-1.9c-0.2,3.6-1.1,7.2-0.2,10.8
		C346.8,641.5,346.4,641.5,346.1,641.5z"/>
	<path class="st98" d="M491.1,619.8c-0.3-1-0.7-2-1-3c1.2-0.7,0.9-1.9,1-3c1.5,1.4,0.7,3.3,1,5C492.5,619.8,492.1,620,491.1,619.8z"
		/>
	<path class="st0" d="M558.4,293.2c14.8,0,29.6,0,44.4,0c7.3,0,8.8,1.6,8.8,9.1c0,13,0,26,0,38.9c0,6.3-2.4,8.9-8.8,9.2
		c-3.6,0.2-7.2,0-10.8,0c-24.7,0-49.3,0-74,0c-12.3,0-13.9-1.7-13.9-13.8c0-11.3,0-22.7,0-34c0-6.9,2.6-9.4,9.5-9.4
		C528.4,293.2,543.4,293.2,558.4,293.2z"/>
	<path class="st0" d="M429,293.2c15.1,0,30.3,0.1,45.4-0.1c5.1-0.1,7.7,1.9,8.3,6.8c0.2,1.8,0.5,3.6,0.5,5.4c0,12.4,0,24.9-0.2,37.3
		c-0.1,3.6-1.3,6.4-5.9,7c-4.8,0.6-9.5,0.8-14.2,0.8c-25.3,0-50.6,0-76,0c-9.2,0-11.2-2.1-11.2-11.2c0-12.5,0-25,0-37.5
		c0-6.7,1.8-8.5,8.4-8.5C399.1,293.2,414,293.2,429,293.2z"/>
	<path class="st83" d="M318.5,389.9c-3.3,3.4-6.7,6.7-10.9,9.1c-1.5,0.9-3,2-4.9,1.7c-1.6-6.3,1.2-11.5,4.2-16.6
		c3.7-6.4,7.9-12.4,10.2-19.5c3.4-10.7,3.8-21.6,2.2-32.5c-1-6.4-1.5-12.7-1.2-19.1c0.1-3.3,0.4-6.6,2.8-9.2c4.9-2.3,9.9-1,14.9-0.2
		c2.4,0.4,3,2.8,4.3,4.4c1.3,3.3,0.2,6.5-0.4,9.6c-4.7,22.6-9.2,45.2-17.7,66.8C321.3,386.5,321.3,389.1,318.5,389.9z"/>
	<path class="st99" d="M594.6,362.3c2,1.9,2.5,4.2,2,6.8c-0.2,3.3-2.5,3.9-5.2,4c-4.8,0.1-9.5,0-14.3,0c-22.2,0-44.4,0-66.6,0
		c-7.2,0-9.3-3.8-6-10.2c1.9-2,4.3-2.1,6.8-2.1c25.9,0,51.9,0,77.8,0C591.1,360.8,593.2,360.5,594.6,362.3z"/>
	<path class="st100" d="M518.1,215.1c13.1,0,26.3,0.1,39.4,0c3.6,0,6.4,0.8,6.6,4.8c0.2,3.9-2.5,5.4-5.9,5.9
		c-1.3,0.2-2.6,0.1-3.9,0.1c-24.3,0-48.6,0-72.9,0c-1.8,0-3.6-0.2-5.4-0.5c-3.1-0.6-5-2.4-4.7-5.8c0.3-3.5,2.7-4.5,5.9-4.5
		c12.3,0,24.6,0,36.9,0C515.4,215.1,516.8,215.1,518.1,215.1z"/>
	<path class="st101" d="M645.1,188.6c1.4,1.6,2.9,0.6,4.5,0.3c3.1-0.5,6.2-1.1,8.9,1.3c0.6,0.5,1.2,1.4,0.7,2.2
		c-0.6,0.9-1.4,0.5-2.1,0c-1.9-1.4-4.1-0.8-6.2-0.8c-101.5,0-203,0-304.5,0c-2.4,0-5,0.4-7.2-1c-1-2.5,1-2.8,2.5-3.2
		c1.6-0.5,3.3-0.2,4.9-0.2c97.2,0,194.3,0,291.5,0C640.5,187.2,643.1,186.6,645.1,188.6z"/>
	<path class="st102" d="M645.1,188.6c-100,0-200.1,0-300.1,0.1c-2,0-4.8-1.5-5.8,1.9c-1.3,0.3-2.8,2.1-3.7-0.2
		c-0.6-1.5,1-2.1,2.1-2.8c2.1-1.4,4.3-2,6.8-2c98.9,0.1,197.8,0,296.8,0c2.5,0,4.9,0.1,7.1,1.5C647.8,189,646.3,188.5,645.1,188.6z"
		/>
	<path class="st103" d="M340.1,307.9c-5.3-5.9-12.3-3.6-18.7-3.8c-1.5,0.4-2,3-4.2,1.8c-0.3-4.2-2.4-8-2.4-12.3
		c0.2-1.5,1.3-2.5,2.3-3.4c6.1,0.9,9.6-1.7,12.1-7.3c2.3-5.2,6.6-8.5,13-6.8c0.2,0,0.4,0,0.5,0c0.1,0.1,0.3,0.2,0.4,0.4
		c4.7,6.1,3.8,12.3,0.5,18.8C341.7,299.1,338.4,302.9,340.1,307.9z"/>
	<path class="st104" d="M402.8,391c-6.9,0-13.8,0-20.7,0c-3.4,0-6.4-0.9-6.5-5c-0.2-4.1,2.7-5.6,6.1-5.6c13.9-0.2,27.9-0.2,41.8,0
		c3.4,0,6.3,1.9,6.1,5.7c-0.2,3.8-3.1,5-6.6,5C416.3,391,409.6,391,402.8,391z"/>
	<path class="st105" d="M531.1,391c-6.9,0-13.8,0-20.7,0c-3.4,0-6.4-0.8-6.6-4.9c-0.1-4.3,2.8-5.7,6.4-5.8c13.6-0.1,27.2-0.1,40.8,0
		c3.7,0,6.7,1.7,6.6,5.7c-0.1,4.1-3.2,5.1-7,5.1C544.2,390.9,537.7,391,531.1,391z"/>
	<path class="st106" d="M471.5,241.9c-0.5-6.7,0.6-8,7.1-8c13.2,0,26.3,0.1,39.5-0.1c3.8,0,7,1,7.1,5c0.1,4.5-3.3,5.3-7.2,5.3
		c-14.5-0.1-28.9,0-43.4,0.1C472.8,244.4,471.8,243.5,471.5,241.9z"/>
	<path class="st107" d="M420.9,374.1c-12.5,0-25,0-37.4,0c-2,0-3.9,0-5.8-0.9c-5.1-2.5-5.6-8-1-11.4c2.2-1.6,4.6-1.5,7.1-1.5
		c26.1,0,52.2,0.1,78.3-0.1c6-0.1,8.2,1.4,7.9,9.1c-0.1,2-1.6,3.2-3.5,3.6c-2.7,0.6-5.4,1.3-8.2,1.3
		C445.9,374,433.4,374.1,420.9,374.1z"/>
	<path class="st108" d="M505,363.3c-2.3,6.1-0.6,8.9,5.6,9c26.4,0,52.9,0,79.3,0.1c2.9,0,5.1-0.7,6.7-3.2c2.3,3-0.1,4-2.2,4.9
		c-1,0.4-2.3,0.2-3.4,0.2c-26.8,0-53.6,0-80.3,0c-3.5,0-6.3-0.5-8.2-4c-1.8-3.3-0.4-5.5,1.6-7.9C504.5,362.4,504.9,362.7,505,363.3z
		"/>
	<path class="st109" d="M592.1,377.8c-26.4,0-53,0-80.8,0C517.2,375.1,589.6,375.7,592.1,377.8z"/>
	<path class="st109" d="M457.9,377.6c-26.2,0-52.3,0-78.5,0c0-0.3,0-0.7,0-1c26.2,0,52.3,0,78.5,0
		C457.9,377,457.9,377.3,457.9,377.6z"/>
	<path class="st110" d="M403.4,233.9c-1.3-1.3-3-0.6-4.5-0.7c-1.6-0.1-3.3,0.1-3.4-2.2c2.4-2,5-2.2,7.9-1.1c1.6-1.9,0.3-4.1,0.8-6.1
		c0.2-0.6,0.2-1.3,1-1.5c0.8-0.2,1.5,0.4,1.4,0.9c-0.8,6.2,3,8.1,8.8,8c-2.3,3.8-6.8-0.4-8.2,3.7c1,1.5,0.6,3.2,0.5,4.7
		c-0.2,1.8-0.9,3.2-3.2,2.1C403.5,239.3,404.9,236.4,403.4,233.9L403.4,233.9z"/>
	<path class="st111" d="M505,363.3c-0.3-0.3-0.7-0.7-1-1c0.9-2.1,2.8-2,4.6-2c28.1,0,56.2,0,84.3,0.1c0.5,0,4.9-1.8,1.7,2
		c-2.1-0.3-4.2-0.8-6.3-0.8c-25.3-0.1-50.6,0-75.8-0.1C509.8,361.5,507.3,361.8,505,363.3z"/>
	<path class="st112" d="M471.5,241.9c1,0.8,2,1.5,3,2.3c1.8,1.2,3.8,0.6,5.7,0.6c13.9,0.1,27.7,0,41.7,0c-0.3,2.1-1.6,2-2.6,1.9
		c-13.7-1.6-27.4-1-41.1-0.3c-4,0.2-7.3-1.7-9.9-4.1c-1.9-1.6-1-4.2,1.4-5.7C471.4,238.1,469.4,240.7,471.5,241.9z"/>
	<path class="st113" d="M435.1,223.4c1.7-1.8,3.4-1.7,3.6,0.8c0.3,3.6-0.9,7.1-1.4,10.5c-0.4,2.7,2.6,6.4,0.5,10.1
		c-1-1.2-1-2.6-1.2-4.4c-0.6,2-0.1,3.3,1.2,4.3c-1.2,1.9-3.3,3.7-3.6,0.2c-0.6-7,0.1-14,0.2-21C434.4,223.7,434.9,223.5,435.1,223.4
		c1.4,1.4,0.6,3.4,1.4,5.1C436.6,226.5,436.7,224.7,435.1,223.4z"/>
	<path class="st114" d="M343.1,216.2c1.2,1,1,2.3,1,3.6c0,17.6,0,35.3,0,52.9c0,1.3,0.3,2.7-0.9,3.6c0,0,0,0,0,0
		c-0.8-1-0.5-2.2-0.5-3.3c0-18.6-0.1-37.3,0-55.9C342.9,216.8,343,216.5,343.1,216.2z"/>
	<path class="st14" d="M318.5,389.9c1.2-1.9,2.3-3.7,3.5-5.6c0.9,6.1-0.7,12.4,1.6,18.3c-2.7-1.5-4.8-3.1-3.4-6.9
		C321,393.8,319.9,391.6,318.5,389.9z"/>
	<path class="st115" d="M437.8,211.8c0,2.2,0.1,3.2,0,4.1c-0.1,0.9-0.6,1.6-1.5,1.6c-0.9,0-1.3-0.8-1.4-1.7c-0.1-2.3-0.1-4.5-1-6.7
		c-0.3-0.9-0.5-2.1,0.8-2.4c1.2-0.3,1.8,0.7,2.1,1.6C437.4,209.8,437.7,211.4,437.8,211.8z"/>
	<path class="st113" d="M436.8,258.6c-0.1,1.1-0.4,2-1.7,1.9c-1.3-0.2-1.9-1.1-2.1-2.4c-0.5-2.7,0.4-5.3,1.4-7.6
		c1.1-2.6,3.6-1.4,4,0.3C439.1,253.3,440.3,256.6,436.8,258.6c-1.2-1.5-0.1-3.1-0.5-5.1C435.7,255.5,435,257.2,436.8,258.6z"/>
	<path class="st116" d="M376.5,216.2c-1.6,1-3.2-0.4-2.9-1.1c1.2-2.1-1.8-6,2.8-6.6C377.8,211,377.5,213.6,376.5,216.2z"/>
	<path class="st117" d="M384.7,264.5c-1.7-0.1-3.7,0-3.9-2.2c-0.2-1.6,1.3-1.9,2.4-1.4c1.7,0.7,4.6-0.7,5.1,1.7
		C388.7,264.7,386.1,264.3,384.7,264.5z"/>
	<path class="st118" d="M427,261.1c1.6-0.3,3-0.2,2.9,1.3c-0.1,2.2-2.1,2.1-3.7,2.1c-1.5,0-4,0.5-3.7-1.7
		C422.8,260,426,262.3,427,261.1z"/>
	<path class="st119" d="M377.1,255.1c0.3,1.3,0.7,2.9-0.8,2.9c-2.3,0-2.4-2.2-2.5-3.9c0-1.5-0.6-4,1.6-3.7
		C378,250.7,376.1,253.7,377.1,255.1z"/>
	<path class="st120" d="M382.4,205.3c-1.2,0.1-2.6-0.1-2.3-1.3c0.6-2.3,2.9-2.4,4.8-2.5c1.2-0.1,2.9,0.2,2.6,1.5
		C386.9,205.9,383.8,204.1,382.4,205.3z"/>
	<path class="st121" d="M412.3,264.5c-1.5-0.2-3.9,0.4-3.7-2c0.2-1.9,2.4-1.1,3.7-1.1c1.3,0,3.5-0.7,3.7,1.3
		C416.2,265.2,413.7,264.1,412.3,264.5z"/>
	<path class="st122" d="M398.4,261.2c1.6,0.3,3.8-0.4,3.8,1.6c0,2.4-2.4,1.5-3.9,1.6c-1.4,0.1-3.6,0.2-3.5-1.6
		C394.8,260.3,397.3,261.9,398.4,261.2z"/>
	<path class="st123" d="M376.7,226.6c-0.3,1.4,0.6,3.7-1.4,3.7c-1.9,0-1.3-2.3-1.3-3.7c0-1.4-0.7-3.7,1.1-3.8
		C377.5,222.8,376.3,225.3,376.7,226.6z"/>
	<path class="st124" d="M397.3,204.6c-1.2-0.4-3.6,0.6-3.3-1.6c0.3-2.1,2.6-1.3,4.1-1.4c1.2-0.1,3.1-0.2,3,1.4
		C401,205.5,398.6,204.2,397.3,204.6z"/>
	<path class="st125" d="M376.7,240.4c-0.3,1.3,0.5,3.7-1.3,3.7c-2.2,0-1.4-2.5-1.4-3.9c0-1.3-0.7-3.5,1.4-3.4
		C377.3,236.9,376.4,239.1,376.7,240.4z"/>
	<path class="st126" d="M425.1,201.5c1.6,0.3,4-0.4,3.9,1.8c-0.1,1.9-2.3,1.3-3.6,1.2c-1.4-0.1-3.8,1-3.7-1.5
		C421.7,201.1,423.9,201.8,425.1,201.5z"/>
	<path class="st127" d="M411.1,204.7c-1.4-0.3-3.6,0.4-3.4-1.6c0.2-2.1,2.5-1.5,4.1-1.5c1.4,0,3.5-0.4,3.4,1.7
		C414.9,205.5,412.5,204.3,411.1,204.7z"/>
	<path class="st128" d="M404.5,241.8c4.5-0.9,1.7-4.6,2.7-6.8c1.5,3.2,2.4,6.4-1.2,9c-0.7,0.5-1.8,1.2-2.4-0.1
		C403.2,242.9,403.7,242.3,404.5,241.8z"/>
	<path class="st129" d="M403.4,230c-2.6,0.4-5.3,0.8-7.9,1.1C397.8,228.4,400.2,227,403.4,230z"/>
	<path class="st113" d="M442.4,254.7c-0.1,2.2-0.3,3.5-1.5,4.5C440.1,256.8,440.1,256.8,442.4,254.7z"/>
	<path class="st113" d="M440.7,235c1.2,1.9,3.1,3.5,1.5,6.1C441.7,239.1,441.2,237.1,440.7,235z"/>
	<path class="st130" d="M376.5,216.2c0-2.6-0.1-5.1-0.1-7.7C378.5,211,378.2,213.6,376.5,216.2z"/>
	<path class="st114" d="M342,216.3c-0.6-0.7-1.2-1.4-1.7-2.2c2.4-1.3,2.6,0.4,2.9,2.1v0C342.8,216.8,342.4,216.8,342,216.3z"/>
	<path class="st131" d="M403.4,234c0,1.9,0,3.8,0,5.8C402.6,237.8,401.6,235.8,403.4,234C403.4,233.9,403.4,234,403.4,234z"/>
	<path class="st129" d="M402.6,222.8c1.1,1.2,0.5,2.2,0.8,4.2C402.1,225.1,402.4,224.1,402.6,222.8z"/>
	<path class="st132" d="M637.2,618.8c-0.8,0.3-1.9-0.4-2.4,1c-2.7,7.8-6.8,10.4-15,10.9c-6.6,0.4-12.7-1.7-18.7-3.5
		c-18.6-5.6-37.5-10.6-55.4-18.3c-5.4-2.3-10.6-4.6-12.4-10.9c-0.1-0.4-1.1-0.6-1.6-0.9c7.1-6.6,15.6-5.2,24-4.6
		c1.8,0.1,3.5,0.5,5.3,0.7c3.7,1.1,7.4,2.1,11.1,3.2c5-0.7,9.4,1.8,14,2.8c2.3,0.7,4.6,1.2,6.9,1.9c4,1.2,7.9,2.8,11.6,4.8
		c3.9,1.9,7.6,4,11.8,5c7.1,1.4,13.7,4.4,20.5,6.5C637.4,617.8,637.5,618.2,637.2,618.8z"/>
	<path class="st133" d="M669.8,493.4c-2.3,4.8-4.6,9.7-9,13.2c-8.5,4.5-16.7,3.4-24.6-1.3c-4.1-2.8-7.4-6.1-8.3-11.2
		c0-3.3-1.1-6.3-1.8-9.4c-0.3-1.2-0.6-2.1-2.3-2.7c-8.3-2.6-9.9-7.3-5.2-14.8c1.4,3.7,2.9,7.2,5.8,10.1c1.4,1.4,3,2.2,3.1-0.6
		c0.3-7,4.3-7.3,10-7c8.1,0.5,14.8-3.5,20.3-9.3c1.2-1.3,2.3-2.6,4.1-4.4c0.7,3.7,2,6.5,3.8,9c2,2.7,2.9,8,8.3,4
		c1.1-0.8,2.7,1.2,4.2,0.2c1.8,6.7,1.1,12-6.1,15.5C669.3,485.9,669.8,490.2,669.8,493.4z"/>
	<path class="st9" d="M585.9,600.1c-4.6-1.2-9.2-2.4-13.8-3.6c0.2-0.2,0.6-0.6,0.5-0.7c-7.1-13.1-1.6-26.1,0.4-39.1
		c0.5-0.6,0.9-1.3,1.8-2.5c-0.2,4.9,2.7,7.9,6.2,9.1c4.9,1.6,9.3-1.2,12.9-4.4c4.5-3.9,8.7-8.2,13.2-12.4
		c-0.4,7.1-0.9,13.7-9.2,16.7c-4.1,1.5-7.7,4.3-11.5,6.6c-2.3,1.4-4,3.5-4.5,6.2c-0.9,4.8,0.9,7.2,5.9,7.4
		c8.1,0.3,14.8-3.6,21.5-7.2c9.8-5.3,19.5-10.7,28.2-17.7c1-0.8,2-1.8,3.4-1.8c5,1.6,8.3,4.9,10,9.9c-10.5,8-21.3,15.5-33,21.7
		c-7.8,4.1-15.6,7.9-24.2,9.9C591.8,601.2,588.7,600.2,585.9,600.1z"/>
	<path class="st9" d="M637.2,618.8c0-0.3,0-0.6,0-0.9c-5.8-1.8-11.6-3.5-16.8-6.9c9.4-2.6,18.8-5.3,28.2-7.9c3.4-1,6.4-1.9,6.6-6.6
		c0.2-2.5,3.1-4.1,5.5-5.1c10.9-4.7,14.5-14.1,15.8-24.8c1.4-10.9,2.3-21.9,4.5-33.1c1.2,5.2,2.5,10.4,3.7,15.7
		c1.8,8.3,3.9,16.5,3.8,25.1c-0.1,7.2-2.9,13.1-7.2,18.8c-8.4,10.9-19.9,17.7-31.1,25c-2,1.3-3.5,3.7-6.2,3.7
		C641.9,620.3,639.6,619.5,637.2,618.8z"/>
	<path class="st134" d="M671.8,534c4.6,2.2,4.7,5.7,2.9,9.8c-3.2,7.3-9.3,12.1-15.2,17c-1.9,1.6-3.8,3.1-5.7,4.6
		c-5-0.2-6.6-4.8-9.6-7.5c-2.4-3.3-4.1-7-6.6-10.2c-2.8-3.6-1.7-5.6,1.9-7.5c2-1.1,4.8-1.6,4.9-4.8c1.6-2.7,3.5-5.2,5.8-7.3
		c4.2-3.8,7.9-2.7,8.7,2.7c0.5,3.7,1.8,4.3,5.1,3.2C666.4,533.1,669.2,531.8,671.8,534z"/>
	<path class="st135" d="M671.8,534c-3.8,0.1-7.5,0.7-11,2.1c-2.6,1-3.2,0.2-2.9-2.3c0.1-0.6,0.1-1.3,0-2c-0.1-2-0.3-4.1-2.4-5
		c-2.1-0.9-3.4,0.8-4.5,2.1c-2.1,2.2-4,4.7-5.9,7.1c-0.6,0.4-0.9,1.8-2,0.6c0.1-3.6,0.1-7.2-0.7-10.8c-0.7-3.3,0-5.6,4.2-6.1
		c7.1-0.9,14.2-2.3,21.3-3.5c2.7-0.5,3.9,0.5,3.8,3.4C671.6,524.5,671.7,529.2,671.8,534z"/>
	<path class="st136" d="M628.4,494c2,4.1,4.7,7.9,7.8,11.3c-4.7-2.9-10.3-4.3-13.9-9c1.7-0.7,3.3-1.5,5-2.2
		C627.7,493.9,628,493.9,628.4,494z"/>
	<path class="st137" d="M643,536.7c0.7-0.2,1.4-0.4,2-0.6c-0.5,3.7-4.3,3.6-6.4,5.4c-1.9,1.5-2.3,2.2-1.1,4.6
		c2.1,4.2,6.1,7.2,7.4,11.8c-2.6-0.4-3.5-2.5-4.8-4.3c-1.5-2.5-2.9-5-4.5-7.5c-1.5-2.3-1.5-3.9,1.3-5.3
		C639.2,539.6,641.6,538.8,643,536.7z"/>
	<path class="st138" d="M620.4,610.9c1.8-0.1,3.4,0.2,5,1.4c3,2.3,6.3,3.9,10.3,3.6c1.6-0.2,2.1,0.5,1.4,2
		c-7.5-0.5-14.1-3.9-20.7-6.9C617.8,610.9,619.1,610.9,620.4,610.9z"/>
	<path class="st139" d="M641.2,623.7c0.6-0.3,1.3-0.6,1.9-0.9c5,2.5,8.3,6.8,11.8,10.9c0.1,1.5,0.7,2.9,1.9,3.9
		c0.7,0.8,0.7,1.8,0.4,2.7c-1.1,0.9-2,0.1-2.3-0.7C652.1,632.8,646.3,628.5,641.2,623.7z"/>
	<path class="st140" d="M585.9,600.1c2.6-0.7,5.2-1.3,7.8-2c2.7-0.5,2.5,1.2,2.1,3c-0.3,2.3-1.9,1.4-3.1,1.2
		C590.6,601.3,587.9,601.8,585.9,600.1z"/>
	<path class="st141" d="M640.2,553.5c1.6,1.4,3.2,2.9,4.8,4.3c2.5,3.1,5,6,8.8,7.5c-0.5,1.4-1.7,1.1-2.8,1.2c-2.9-3.7-6.3-7-10-9.9
		C640.8,555.6,640.5,554.5,640.2,553.5z"/>
	<path class="st142" d="M592.8,602.2c1.1-0.1,2.3-0.1,3.1-1.2c3.5,0.5,6,2.9,8.7,4.9C600.7,604.7,596.7,603.4,592.8,602.2z"/>
	<path class="st143" d="M760.3,315.9c-11.9,0-21.3,0-30.6,0c-6.6,0-7.4-0.8-6-7.1c0.6-2.5-0.9-4.6-0.1-7.2c1.6-5.3,4.6-8.2,10-8.3
		c19.2-0.1,38.5-0.1,57.7,0c5.5,0,9.2,3.4,9.7,8.4c0.8,8.9-1.2,12.1-7.8,13.3C781.4,317,769.6,315.1,760.3,315.9z"/>
	<path class="st144" d="M752.6,332.7c-14,0-27.9,0-41.9,0c-3.4,0-6.4-0.3-6.5-4.7c-0.1-4.7,3.2-5.2,6.7-5.2c27.8,0,55.5,0,83.3,0
		c3.5,0,6.8,0.4,6.7,5.1c-0.1,4.8-3.5,4.8-6.9,4.8C780.2,332.7,766.4,332.7,752.6,332.7z"/>
	<path class="st145" d="M705.2,311.9c-1.8-3.3-1.6-6.3,1.5-8.7c2.5-1.9,5.3-1.8,7.8-0.1c2.8,1.7,3,4.5,2.5,7.4
		c-0.2,1-0.9,1.2-1.8,1.3C711.7,309.5,711.7,309.5,705.2,311.9z"/>
	<path class="st146" d="M705.2,311.9c0.4-0.3,0.7-0.8,1.1-0.9c2.6-0.6,1.2-5.4,4.7-4.7c2.8,0.5,2,4.3,4.2,5.6
		C712.8,316.5,709.2,316.6,705.2,311.9z"/>
	<path class="st0" d="M317.4,305.9c1.5-0.2,2.3-2.1,4-1.8c-3.4,9.3-1.9,18.7-0.7,28.1c2.4,17.4,0.1,33.9-10.4,48.6
		c-4.3,6-6.6,12.6-7.7,19.8c-0.1,0.2-0.1,0.4-0.1,0.7c-3.9,1.8-7.8,1-11.7,0.2c-8.7-4.4-15.7-11.4-23.9-16.5c-1.1-1.1-2.9-1.2-4-2.5
		c-8.3-6.8-16.5-13.7-24.8-20.8c-1.7,3-0.3,5.1,0.9,6.5c12.6,15.2,16.2,34.6,24.5,51.8c2.2,4.6,3,10.2,7.7,13.4c-1,0.3-2,0.6-3,0.9
		c-11.9,1.1-23.9,2.3-35.9,2c-3.5-0.1-7,2-10.4,0c-4.9,0.1-9.7,0.2-14.6,0.3c-2.8-12.5-5.7-25.1-4.5-38.1c0.2-1.6,1.3-4.1-1.7-4.8
		c1.1-10.1,0.5-20.2,0.1-30.4c-1.9,3.6-3.1,7.3-3.9,11.2c-1.6,7.7-5.4,13.9-12.1,18.3c-3.5-3.2-3.7-7.8-3.6-11.8
		c0.4-14.3,4.2-27.8,13-39.4c3.5-4.6,7.9-8.3,13.3-10.6c2.1-0.9,4.2-1.8,4.7-4.5c2.9,1.5,5.8-0.1,8.7-0.2c2.8-0.1,5.6-0.4,8.3,0.3
		c0.4,0.2,0.8,0.5,1.2,0.8c0.2,4,2.3,6.4,5.9,8.2c14.8,7.4,29.3,15.3,42.5,25.4c1.4,1.1,2.9,2.1,4.5,2.9c5.6,3.1,8.1,1.9,9.9-4.4
		c2.1-6.9,5.5-13.3,7.2-20.3c3.5-9.5,7.2-19,10.6-28.6C312.4,308.3,313.3,305,317.4,305.9z"/>
	<path class="st11" d="M340.3,655.9c1.1,3.3,2.7,6.5,3.4,9.8c1.6,8.3,7,12.5,14.6,15.1c5.2,1.7,10.7,2.6,15.6,5.3
		c-0.8,1.9-2.3,1.2-3.3,1.3c-17.7,0.1-35.3,0-53,0.2c-3.6,0-4.8-1.3-5.8-4.6c-2.6-8.6-5.8-17-8.8-25.5c10.9-0.6,21.8-1.2,32.8-1.8
		C337.3,655.8,338.8,655.8,340.3,655.9z"/>
	<path class="st0" d="M271.2,433.4c-2.8,0.4-3.9-1.2-4.9-3.6c-5.9-13.9-11.7-27.7-16.8-41.9c-2.1-6-6.1-10.8-9.7-15.9
		c-1.6-2.3-2.8-4.8-3.9-7.3c-0.6-1.3-0.9-3.1,0.5-4c1.4-0.9,2.8,0,4,1c7.9,6.8,15.8,13.6,23.7,20.4c0,2.5,1.3,4.6,2,6.8
		c7,13.9,12.4,28.4,14,44C277.2,433.1,274.2,433.3,271.2,433.4z"/>
	<path class="st147" d="M221.9,436.4c15.4-1,30.9-2.1,46.3-2c0,0.3-0.1,0.6-0.1,1c-10.9,0.9-21.7,1.9-32.6,2.8
		c-0.8,0.1-1.7,0.1-2.4-0.2c-4-1.4-7.4-1.5-8.1,3.9c-0.1,0.5-0.9,0.9-1.3,1.4C222.5,441.1,221.9,438.8,221.9,436.4z"/>
	<path class="st143" d="M737.8,92.2c0,9.6-7.9,17.5-17.4,17.5c-10.5,0-18.2-7.9-18.2-18.4c0.1-9.8,7.9-16.6,18.2-17.2
		C729.4,73.4,739.2,82.4,737.8,92.2z"/>
	<path class="st148" d="M524.8,611.1c-0.1,0.6-0.1,1.2-0.2,1.8c-1.2,3-1.5,6.7-5.8,8.4c1.9-4.5,3.6-8.5,5.5-13
		C524.6,609.6,524.7,610.3,524.8,611.1z"/>
	<path class="st149" d="M530.7,630.6c0.7,0.6,1.3,1.3,2,1.9c-2.2,2.2-5.3,1.8-8.1,2.5C526.2,633,528.3,631.6,530.7,630.6z"/>
	<path class="st150" d="M504.9,607.9c0.3,1.6-0.6,3.5,1,4.9c-0.2,1.7-0.7,3.3-2.1,4.5C504,614.1,503.4,610.9,504.9,607.9z"/>
	<path class="st151" d="M491.1,619.8c0.4-0.3,0.7-0.7,1.1-1c1,1,1.6,2.4,0.2,3.1C491.5,622.3,491.3,620.7,491.1,619.8z"/>
	<path class="st152" d="M628.4,494c-0.4,0-0.8,0.1-1.1,0.1c-0.4-2.7-0.7-5.4-1.3-8c-0.4-1.9-1-3.8-3.7-3.5c-2.2,0.2-3.1-2.2-4.8-2.9
		c-2.5-3.7-3.9-7.4-0.6-11.6c0.9-1.2,0.4-3.5,0.6-5.2c1,1.3,0.9,2.9,1.2,4.4c-2.9,9.3-2.9,9.3,6.4,14.6c1,0.6,1.4,1.3,1.6,2.3
		C627.1,487.4,628.7,490.6,628.4,494z"/>
	<path class="st153" d="M347.1,608.9c0.8-0.4,0.9-1.2,1-1.9c1.4,1.2,2.2,2.9,2.6,4.5c0.3,1.5-1,0.4-1.6,0.4
		C348.4,610.9,347.8,609.9,347.1,608.9z"/>
	<path class="st154" d="M712.1,606.9c0,0.3,0,0.7,0.1,1c-2,6-7.6,8.3-12,11.8c-1.3,1-2.6,1.9-3.9,2.9c-1.6,0.8-2.3,3.4-4.8,2.3
		c0.3-0.7,0.4-1.8,1-2.1C699.8,618.5,704.7,611.1,712.1,606.9z"/>
	<path class="st155" d="M656.9,640.5c0-1,0-2-0.1-3c2.2,1.4,1.7,6.1,6,5c-1,1.8-2.9,2.4-4.7,3C656.4,644.2,655.8,642.6,656.9,640.5z
		"/>
	<path class="st156" d="M719,596.1c-0.5,2.7-0.5,5.4-1.9,7.9c-0.1-1.1,0.2-2.2-1-2.9C716.8,599.2,716.3,596.8,719,596.1z"/>
	<path class="st155" d="M669.8,638.6c-1.8,2.3-4.3,3.2-7,4C664.3,639.7,666.7,638.5,669.8,638.6z"/>
	<path class="st157" d="M691.5,624.9c1.6-0.8,3.2-1.5,4.8-2.3c-1.3,2.4-2.8,4.3-5.9,4.1C690.8,626.1,691.1,625.5,691.5,624.9z"/>
	<path class="st156" d="M716.1,601.1c-0.2,2.7-0.6,5.3-3.9,5.9C713.5,605,714.8,603.1,716.1,601.1z"/>
	<path class="st158" d="M701.1,424.4c1.5-1.7,3.1-3.4,4.6-5c2.3-2.4,5-2.7,7.5-0.8c3.4,2.5,6.4,2.6,9.8,0c2.3-1.8,5.2-1.8,7.2,0.2
		c3,3,7.6,5,7.4,10.3c0,1-0.7,1.8-1.8,2.1c-0.5-0.5-0.8-1.1-1-1.7c-1-2.3-3.1-3.7-4.5-5.7c-1.5-2.2-3.9-1.9-6.3-1.3
		c-2.8,0.7-5.7,1.6-8.6,0.8c-4.7-1.4-9.1-1.6-13.1,1.7C701.9,424.9,701.5,424.7,701.1,424.4z"/>
	<path class="st159" d="M701.1,424.4c0.4,0,0.8,0,1.2,0.1c0.7,2.8,2.2,4.1,5.4,4.2c7.8,0.4,15.6,0.3,23.4,0.2c1.6,0,3.2-0.7,4.7,0.5
		c0,0.6,0,1.2,0,1.8c-10.6,0.1-21.3,0.3-31.9,0.2C699.5,431.4,698.7,428.9,701.1,424.4z"/>
	<path class="st160" d="M725.8,412.1c-0.3,1.8-1.4,3.2-3.2,3.2c-2,0-3.4-1.4-3.2-3.5c0.2-1.8,1.5-3,3.3-2.9
		C724.5,409,725.5,410.3,725.8,412.1z"/>
	<path class="st161" d="M749.7,380.1c4.1,0.2,4.1,2.4,2.2,5c-1.1,1.5-2.8,2.6-4.2,3.8c-1.6,0.9-2.9,2.3-4,3.8
		c-4.9,4.5-4.9,4.5-11-2.5c-0.5-1.4-0.9-2.9,0.1-4.2c2.6-0.7,3.2,2.1,4.9,2.9c2.1,1.3,2.9-0.6,4-1.6
		C744.5,385,746.7,382,749.7,380.1z"/>
	<path class="st162" d="M749.7,380.1c-2.6,2.7-5.2,5.4-7.9,8c-1.1,1.1-2.2,2.7-4,0.9c3.3-0.5,4.6-3.6,6.8-5.3
		C746.3,382.3,747.2,380,749.7,380.1z"/>
	<path class="st163" d="M743.7,392.8c0.3-2.3,1.6-3.6,4-3.8C746.7,390.5,745.6,392,743.7,392.8z"/>
	<path class="st164" d="M732.9,386c0,1.4-0.1,2.8-0.1,4.2C731.1,388.8,730,387.4,732.9,386z"/>
	<path class="st165" d="M765.4,547.8c1.8-8.4,8.2-13.1,14.6-17.6c2-1.4,4.1-2.7,6.1-4.1c-0.5,2.8-3.2,3.7-4.6,5.4
		c-3.9,4.7-12,5.5-12.3,13.3C769.3,547.1,767.2,547.4,765.4,547.8z"/>
	<path class="st166" d="M802,559.6c-10,3.1-20.1,5.2-30.6,5.9c4.9-2.1,9.4-5,15.3-3.6c1.8,0.4,4.5-0.4,6.1-1.6
		C795.8,557.9,798.8,558.7,802,559.6z"/>
	<path class="st167" d="M768.4,565.5c-5.2,2.2-10.9,2.8-16,5.6c2.9-5.4,5-11.1,9.1-15.6c-0.7,3.5-2.8,6.5-4.6,9.7
		C760.9,566.9,764.7,565,768.4,565.5z"/>
	<path class="st168" d="M417.4,479c-0.3,3.2-0.4,7.5-3.5,7.9c-2.2,0.3-2.4-4.1-2.4-6.6c-0.1-2.5,1-5.3,3.9-5.4
		C418.2,474.8,417,477.6,417.4,479z"/>
	<path class="st169" d="M423,511.2c-3.7,0.4-6.8-3.2-5.7-6.5c0.4-1.1,0.9-1.1,1.8-0.8C422.4,504.7,424.1,507.9,423,511.2
		C423,511.2,423,511.2,423,511.2z"/>
	<path class="st170" d="M430.1,495.6c-2.3,2.7-5.1,0.9-7.7,0.8c-1-0.1-1.5-1.1-0.8-1.7c2.4-1.9,4.6-4.9,8.2-2.2
		C429.7,493.6,430,494.6,430.1,495.6z"/>
	<path class="st171" d="M415.1,492.7c1.3,0.2,2.1,0.9,2.2,2.2c0.1,1.5-0.6,2.6-2.2,2.6c-1.3,0-2.1-0.9-2.2-2.1
		C412.7,493.8,413.7,493,415.1,492.7z"/>
	<path class="st172" d="M430.1,495.6c-0.9-1-3-1.8-0.2-3.1C431.1,493.5,431.2,494.5,430.1,495.6z"/>
	<path class="st97" d="M344.1,631.6c-2.9-2.3-6.7-3.5-8.9-6.9C339.6,625.3,342.6,627.4,344.1,631.6z"/>
	<path class="st97" d="M350.3,622.8c-1,2.7-2,5.3-3.1,8C345.8,627.2,347.4,624.8,350.3,622.8z"/>
	<path class="st173" d="M787.1,474.8c0.3,2.2-0.5,4.1-1.2,6.2c-2.4-0.5-2.7-2.7-3.7-4.3C784.3,477.1,785.6,475.7,787.1,474.8z"/>
	<path class="st3" d="M799,512.2c-1.8,3.4-6.5,4.1-7.9,7.9c-6,4.4-12.1,8.7-18.4,13.3c-0.5-2.9,1.2-4.9,2.1-6.9
		c6.1-14,9.7-28.7,13-43.5c0.5-2.3,0.3-4.9,0.4-7.3c2.2-7.4,2-15.1,2-22.7c0-1-0.1-2,0-3c0.4-1.9-1.3-4.7,1.4-5.7
		c2.3-0.8,4.7,0.8,6.2,2.3c11.9,11.9,16.4,26.2,12.9,42.7C808.8,498,803.5,504.9,799,512.2z"/>
	<path class="st89" d="M401.2,555.3c-1.7,3.7-3.3,7.4-5,11.1c-0.5,3.6-2.9,5.6-6,7c-2.8-7.2-3.8-15-8.7-21.4
		c-0.9-1.2,0.9-1.4,1.1-2.3c2.7,0.3,4.1-1.7,6-3c1.6-0.3,2.7-1.5,3-2.8c1-4,3.3-4.1,6.3-2.3C403.8,545,400.9,550.6,401.2,555.3z"/>
	<path class="st174" d="M390.2,573.4c2-2.3,4-4.7,6-7c1,0.4,1.1,1.2,1.2,2c-1.6,4.5,3.3,1.6,4,3.6c1.4,0.1,2.7,0.7,3.9,1.6
		c-0.5,2.2-2,1.2-3.2,0.9c-0.5,0-1.1,0-1.6,0.1c-3.6,0.1-6.8,1.1-9.2,4c-0.6,0.4-1.2,0.7-1.9,0.6c-2.3,2-4.9,3.5-6.4,6.3
		c-1.3,0.2-1.8-0.3-1.6-1.6C383.4,579.6,388.2,577.6,390.2,573.4z"/>
	<path class="st175" d="M381.4,583.9c0.5,0.5,1.1,1.1,1.6,1.6c-0.6,1-1.2,2-2.4,2.4c-0.1-0.9-0.4-1.5-1.3-1.8
		C380,585.3,380.7,584.6,381.4,583.9z"/>
	<path class="st14" d="M290.9,401.5c3.9,0.2,7.8,0.7,11.7-0.2c-1,2-2.8,1.9-4.6,1.6c-2.4-0.3-4.9-0.5-7.2,0.8
		C290.9,403,290.9,402.3,290.9,401.5z"/>
	<path class="st176" d="M266.1,389c-1-2.2-4.1-3.8-2-6.8c0.7,1.2,2.8,1.1,2.8,2.9C264.4,385.8,267.1,387.8,266.1,389z"/>
	<path class="st177" d="M390.4,578.2c2.4-3.8,5.5-5.8,10.1-3.6c0.5,5.2,1.8,10.2,5,14.5c-0.4,0.4-0.8,0.8-1.2,1.2
		c-1.1,0.7-2.4,1-3.7,1.3c-8.1,2.4-9.7,1.3-9.6-7.2C391.1,582.3,390.5,580.3,390.4,578.2z"/>
	<path class="st178" d="M402.1,574.5c1.1-0.2,2.3,0.1,3.2-0.9c3.6,1.2,5.7,4.1,7.8,6.9c0.6,0.8,1.2,1.8,0.2,2.5
		c-1,0.7-1.8-0.1-2.4-0.9C408.5,578.9,405.4,576.6,402.1,574.5z"/>
	<path class="st179" d="M371.8,598.1c2.1,3.5,0.6,7.2,0.6,10.8c-1.5-2.4-2-5.1-3.8-7.2C368.9,599.8,370.5,599.1,371.8,598.1z"/>
	<path class="st180" d="M391.4,542.8c-2.1-0.2-3,1.1-4.3,2.5c-3.5,3.8-8.4,2.8-12.9,2.9c-0.3,0-0.8-0.6-1-1
		c-0.3-0.7,0.1-1.2,0.9-1.4c0.9-0.2,2-0.1,2.3-1.3c0.1-0.2,0.3-0.3,0.4-0.5c2.7-1.4,5.3-3,7.9-4.5c0.4-0.2,0.7-0.4,1.1-0.6
		c3.1,0.2,6.3-1,9.3,0.8C393.5,540.2,392.9,542.1,391.4,542.8z"/>
	<path class="st181" d="M385.9,539c-0.2,0.2-0.3,0.5-0.4,0.7c-3.1,1.5-6.1,3.2-9,4.9c0,0-0.1-0.1-0.1-0.1c-0.9,0.1-1.9,0.2-2.8,0.2
		c-0.5-2.7,2.3-3.2,3.3-4.8c3-1.6,6.1-2.9,9.5-3.4C387.7,537.7,382.7,537.4,385.9,539z"/>
	<path class="st41" d="M391.4,542.8c1.1-1.2,1.5-3.4,3.8-3c0.9,0.6,1.8,1.3,2.6,1.9c-3.3-1-5.2,0.3-6,3.5c-0.5,2-1.3,3-3.3,1.6
		C389.4,545.4,391,544.6,391.4,542.8z"/>
	<path class="st182" d="M319.4,259.8c1.8,1.9,3.7,3.7,5.4,5.7c3.4,4.1,2,8.4-3.2,9.3c-6.5,1.2-13,0.3-19.6,0.5
		c-4.6,0.1-9.2,0.1-13.7,0c-2.9-0.1-6-0.1-7.5-3.4c-1.7-3.5,1-5.5,2.6-7.8c1.2-1.7,3-2.9,4.5-4.4
		C296.9,252.9,309.7,252.1,319.4,259.8z"/>
	<path class="st183" d="M294.8,246.8c-1.7-5-1.7-9.7,2.9-13.3c3.5-2.8,9-2.5,12.6,0.7c3.5,3.1,4.4,8.1,2,12
		c-0.8,1.2-1.8,2.3-2.7,3.5c-3.4,2.7-7,3-10.8,1l0,0C296.9,250,295.7,248.6,294.8,246.8z"/>
	<path class="st184" d="M317.1,290.2c-0.5,1.1-1,2.1-1.5,3.2c-0.9-0.2-1.7-0.8-2.7-0.7c-1.6-0.1-3.3,0.1-4.9-0.1
		c-8.4-1.1-15.8,0.1-20.1,8.6c-5.7-1.8-5.4-6.2-4.6-10.8C294.5,290.3,305.8,290.2,317.1,290.2z"/>
	<path class="st185" d="M342,216.3c0.4,0,0.8-0.1,1.2-0.1c0,20,0,40.1,0,60.1c-0.3,0-0.7,0-0.9-0.3
		C342.2,256.1,342.1,236.2,342,216.3z"/>
	<path class="st186" d="M319.4,259.8c-0.2,0-0.3,0-0.5-0.1c-10.4-6.2-20.7-5.8-31,0c2-4.1,6.3-4.3,9.9-5.5
		C305.6,251.9,315.7,254.7,319.4,259.8z"/>
	<path class="st186" d="M298.8,250.7c3.7,0.9,7.3,0.6,10.8-1C305.8,253.6,303.3,253.8,298.8,250.7z"/>
	<path class="st186" d="M294.8,246.8c1.3,1.3,2.7,2.6,4,3.9C295.9,251,294.6,249.7,294.8,246.8z"/>
	<path class="st187" d="M230.6,327.6c-5,0.3-10-0.3-14.9,1.1c-1.9,0.5-3.1,0.3-3.1-2c-0.2-2-0.3-4-0.5-6c4.3-0.9,8.6-2,13-2.7
		c6.3-1,7.8-2.6,7.7-9c-0.1-2-0.3-3.9-0.5-5.9c0.4,0,0.8-0.1,1.3-0.1c1,0.3,0,2.7,2,2c1.7,5.7,4,7.1,9.2,5.3
		c1.8-0.6,2.4,0.1,2.7,1.6c-0.5,2.3-2.3,3.6-4,4.9C238.7,319.8,234,322.9,230.6,327.6z"/>
	<path class="st188" d="M287.9,301.1c1.4-6.6,5.2-9.9,11.5-9.9c5,0,10.1,0,15.1,0c0.6,1.8,0.3,3.8,0.9,5.7c1.3,3.7,2.8,7-1.8,10.6
		c-3.4,2.7-3.5,8.5-5.2,12.9c-1.3,3.5-2.7,7-3.7,10.7c-0.2,0.6-0.4,1.7-0.6,1.8c-3.1,0.8-1.5,3.5-2.3,5.2c-0.3,0.6-0.4,1.2-0.6,1.9
		c-1.5,6.2-4.6,11.8-6.5,17.9c-0.8,2.5-2.5,2.7-4.7,1.7c-2.2-1.1-3.9-2.9-6.2-3.9c-5.9-3.3-10.5-8.2-15.8-12.2
		c-1.1-0.8-1.7-2-1.5-3.4c1.1-2.3,2.7-4.2,4.6-6c1.6-1.1,3-2.4,4-4c0.2-0.3,0.5-0.7,0.8-1c1.1-1,1.7-2.3,2-3.8
		c0.6-1.8,1.3-3.4,3-4.3c2-2.6-0.7-5.2,0-7.9c0,0,0,0,0,0c0.3-0.3,0.6-0.6,0.9-0.8c1.6-0.5,3-1.3,4.2-2.4c0.3-0.3,0.7-0.5,1.1-0.7
		c1.9-1.2,4.7-1.6,3.4-5C289.8,303.1,288.8,302.1,287.9,301.1z"/>
	<path class="st189" d="M281,320.8c0.1,2-1.9,3-2.1,4.8c-0.8,1.5-1.7,2.9-3,4l0,0c-1,2-2.7,3.3-4,5c-1.6,1.7-3.2,3.4-4.8,5
		c-1.1,1.8-2.5,1.3-3.8,0.4c-6.8-4.3-14-7.5-21.8-9.6c-0.8-0.2-1.4-0.9-1.6-1.7c-0.1-1.9,0.1-3.7,1.7-5c12.9,6.5,24.6,2.4,35.5-4.9
		C280.6,316.6,280.9,317.9,281,320.8z"/>
	<path class="st190" d="M241.7,323.9c-0.1,1.7-0.2,3.4-1.1,4.9c-3.5,2.2-6.8,1.6-9.9-1c0,0,0-0.2,0-0.2c1.8-6.5,7-9.1,12.8-10.7
		c-0.8,1.9-2.2,3.6-1.9,5.9C241.6,323.1,241.6,323.5,241.7,323.9z"/>
	<path class="st191" d="M235.6,305.1c-2.4,1.1-1.9-0.8-2-2c0.5-0.7,1.1-1.4,2-2.5C235.6,302.4,235.6,303.7,235.6,305.1z"/>
	<path class="st192" d="M185.2,392.9c0.8-4,5-5.3,7-8.5c3.8-6.2,3.8-13.5,6.7-19.9c0.7-1.6,1-3.4,2.4-4.7c1.9,1.5,1.7,3.3,1.7,5.1
		c0,8-0.1,16.1,0.1,24.1c0,2-0.5,3.5-2,4.7c-1,0.6-2,1.2-3.1,1.8C193.5,395.9,188.6,397.9,185.2,392.9z"/>
	<path class="st193" d="M282,312.9l-0.5,0c0,0-0.5,0-0.5,0c-0.3-2,1.7-2.6,2.7-4.4c-3.8,0-5.5-3.3-8.3-4.9c-0.7-0.4-1.3-1.1-0.9-2
		c0.3-0.7,1.3-0.8,1.7-0.4c2.6,2.6,3.9-0.5,5.7-1.3c0.3,0.3,0.7,0.7,1,1c0.2,3.2,3.3,4,4.9,5.9c0,0.4,0.1,0.8,0.1,1.2
		c0.3,1-0.6,1.3-1.1,1.7l0,0C285.4,311.1,283.8,312.3,282,312.9z"/>
	<path class="st53" d="M287.9,307c-2.5,0.4-3.9-1.7-5.8-2.7c-2.2-1.2,0.3-2.2,0.8-3.2C286,301.9,287.9,303.6,287.9,307z"/>
	<path class="st194" d="M286.9,310c0.4-0.6,0.7-1.2,1.1-1.7c1.6-0.9,2.8-2.1,2.7-4.1C291.8,307.3,291.3,308.1,286.9,310z"/>
	<path class="st73" d="M253.4,502.4c1.6,1.3,2,3,2,4.9c-0.7-0.7-1.3-1.3-2-2C253.4,504.4,253.4,503.4,253.4,502.4z"/>
	<path class="st80" d="M262.2,545.8c2.6,2.8,1.5,6.5,2.4,9.7c0.2,0.9-0.2,1.7-1.2,1.6c-1.4-0.1-3.4,1.3-4.1-0.3
		c-2.8-6.3-8.2-4.3-12.6-3.9c-3.6,0.3-7.1,1-10.5-0.3c-2.3-0.9-4.3,1.7-6.5,0.1c0.6-4.9-1.7-9.9,0-14.8c1,0.5,1.4,2.1,2.7,1.9
		c7.1-0.9,13.6,2.1,20.4,2.8c4.6,0.5,7.2,2.1,8.8,6.3C262.7,547.9,262,546.8,262.2,545.8z"/>
	<path class="st80" d="M228.5,538.2c-1.3,0-1.3-1.4-1.6-2.3c-0.3-0.9-0.1-1.5,1.1-0.8c0.5,0.3,2-1,1.6,0.9
		C229.5,536.8,230.4,538,228.5,538.2z"/>
	<path class="st147" d="M223.8,444.2c2,1.4,4.4,0.8,7.4,1.2c-4.7,1.3-3.8,4.4-3.2,7.1c0.5,2.5,1.9,4.8,1.6,7.5
		c-2.9-4.2-3.2-9.6-5.9-13.9C223.8,445.5,223.8,444.8,223.8,444.2z"/>
	<path class="st75" d="M216.5,469.7c-0.1,0.9-0.8,1-1.5,0.9c-1.3-0.3-2-1.1-1.9-2.4c0-0.2,0.7-0.7,1-0.6
		C215.2,468,216.3,468.3,216.5,469.7z"/>
	<path class="st72" d="M194.9,619.7c0.9,0.1,1.9-1.4,2.5-0.2c0.2,0.5,1.6,2.2-0.3,2.7c-1.5,0.4-1.1,2.3-2.7,2.8
		c-0.4-0.8-0.9-1.7-1.3-2.5C193.2,621.3,193.9,620.4,194.9,619.7z"/>
	<path class="st133" d="M656.9,640.5c0.4,1.7,0.9,3.3,1.3,5c-6.4,3.5-12.7,7-19.1,10.6c-3.3,2.2-7,2.5-10.8,1.8
		c-6.8-1.2-10.3-8.2-7.1-14.3c3.9-7.3,9.3-13.2,16.2-17.8c1.3-0.7,2.5-1.4,3.8-2.2c5.8,2.5,10,6.8,13,12.2
		C655,637.5,656,639,656.9,640.5z"/>
	<path class="st195" d="M637.4,625.8c-4.9,5-10.6,9.3-14,15.6c-1.9,3.4-3.2,6.9-1.5,10.7c1.9,4.3,5.5,5.8,10,5.3
		c2.4-0.3,4.8-0.9,7.2-1.3c-4.1,4.1-11.6,4.2-16.2,0.2c-4.4-3.8-5-9.5-1.5-14.3c2.1-2.9,2.1-3.2,0.5-7.1c3,1.2,4.7-0.1,6.6-2.1
		C631,630,632.9,626.1,637.4,625.8z"/>
	<path class="st157" d="M700.2,619.7c3.4-4.5,8.8-7,12-11.8C712,614.5,706,616.8,700.2,619.7z"/>
	<path class="st5" d="M390.4,578.2c1.8,3,1.1,6.3,1,9.5c0,2.9,1.2,3.7,3.8,3.5c3-0.3,6-1.5,9.1-1c-2.7,3.2-6.2,5.8-7.9,9.8
		c-1.2,1.5-1.7,3.4-3,5l0,0c-1.1,1.1-1.3,2.7-2,4c-0.5,0.6-0.9,1.3-2.2,3c1.8-9.6,1.1-18.1,1.2-26.6c0-2.1,0.1-4.3-1.1-6.2
		C389.8,578.8,390.1,578.5,390.4,578.2z"/>
	<path class="st196" d="M393.5,605c0.4-2,1-3.9,3-5C396.1,602.1,395.5,604,393.5,605z"/>
	<path class="st196" d="M391.5,608.9c-0.1-1.7,0.2-3.2,2-4C393.3,606.6,392.8,607.9,391.5,608.9z"/>
	<path class="st197" d="M149.3,652.8c3.1,5.6,3.3,11.7,0.6,17c-2.6,5-6.4,10.1-12.7,11c-6.7,1-13.4,0.7-19.1-4
		c-1.6-1.3-2-3.1-3.2-4.6c2.4-1.5,4.3-3.6,7.1-4.4c3-0.3,3.9,2.2,5.3,4.1c0.8,1.4-0.1,2.5-0.7,3.9c3.5-0.3,7.5,1.6,9.4-3.3
		c0.6-1.6,3,0,4.5-2.4c2.5-4,2.9-7.4,1.6-11.6c-0.2-0.7-0.2-1.4,0.2-2.1C144.6,655.1,147,653.9,149.3,652.8z"/>
	<path class="st144" d="M121.9,666.9c-2.3-6.7-0.5-11.8,5-14.9c4.5-2.5,9.4-0.9,13.5,4.3c0.5,0.5,0.5,1.2,0.3,1.8
		c-4.8,3.6-10.7,5.4-15.7,8.8C124,667.3,122.9,667.8,121.9,666.9z"/>
	<path class="st198" d="M142.2,656.3c1.6,4.8,4.2,9.6-1.3,13.8c-0.8,0.6-0.2,1.6,0.1,2.5c0.2,0.8-0.1,1.5-0.8,1.8
		c-1,0.5-1.2-0.3-1.6-1c-1.1-1.9-2.9-0.3-2.7,0.3c1.6,4-2,2.5-3.3,3.3c-0.4,0.3-1.2,0.4-1.7,0.1c-2.1-1.2-4.7,1-6.3-0.3
		c-2.7-2.2,4.1-1.9,1.6-4.6c1.5-1.5,3.5-1.1,5.4-1.2c5.9-0.2,9.3-3.8,9.3-9.7c0-1.7-0.6-3.5,0.4-5.1
		C141.7,656.3,141.9,656.3,142.2,656.3z"/>
	<path class="st199" d="M141.4,656.3c0,2.4,1.2,4.5,0.9,6.9c-0.7,5.3-4.7,8.9-10.2,9c-1.9,0-3.8,0-5.7,0c-1.2-1.8-2.6-3.3-4.4-4.4
		c0-0.3,0-0.6,0-0.9c0.9-0.3,1.8-0.6,2.6-0.9c2.1,2.5,4.1,5.1,8,3.9c3.3-1,6.4-4.9,6.8-8.6c0.1-1.2,0.2-2.3,1.1-3.2
		c0-0.6,0-1.2,0-1.8C140.8,656.3,141.1,656.3,141.4,656.3z"/>
	<path class="st85" d="M186.3,655.2c0.5-0.8-4.7-0.7-0.3-2.4c3-1.2,2.9-1.8,0.9-5.4c6.5,0,12.8,0,19.1,0c-0.3,2.4-2.3,2.2-3.8,1.9
		C195.7,648.2,191,651.7,186.3,655.2z"/>
	<path class="st200" d="M794.2,655.3c0.7-1.4,1.4-2.8,2.2-4.3c0.9,1.5,1.7,2.9,2.6,4.3C797.3,658.5,795.7,658.4,794.2,655.3z"/>
	<path class="st201" d="M300.7,339.6c0.1-0.6,0.3-1.3,0.5-1.9c0.5-1.7,0.8-3.2,1.8-4.9c3.1-5.3,4-11.8,6.2-17.7
		c1.4-3.6,1.3-8.1,5.8-10.1c2-0.9,1.2-3,0.7-4.7c-0.8-2.9-2.6-5.7-1.2-8.9c0.9,0.5,1,1.3,1.1,2.2c0.3,4.2,3.6,8,1.8,12.5
		c-3.7,1-4.2,4.3-5.3,7.1c-3.4,8.9-6.8,17.8-10.1,26.7C301.5,340.1,301.1,340.1,300.7,339.6z"/>
	<path class="st202" d="M422,372.2c-13,0-26-0.1-39,0c-3.8,0-7.2-0.6-7.3-5.2c-0.1-4.7,3.6-5.4,7.3-5.4c26.1-0.1,52.3,0,78.4,0
		c3.8,0,7.2,1,7,5.6c-0.1,4.3-3.3,5.1-7,5C448.3,372.2,435.2,372.2,422,372.2z"/>
	<path class="st203" d="M435.1,223.4c2.6,0.9,4,5.8,2.1,7.5c-1.5,1.3-2.1,0-2.2-1.2C434.9,227.6,435.1,225.4,435.1,223.4
		c0,0-0.2-0.2-0.2-0.2L435.1,223.4z"/>
	<path class="st204" d="M437.8,244.7c-1.8,0.5-2.9-0.1-2.7-2c0.1-1.7-0.8-3.7,0.9-5c1.1-0.9,1.8,0.3,1.8,1.3
		C437.8,240.9,437.7,242.8,437.8,244.7C437.7,244.8,437.8,244.7,437.8,244.7z"/>
	<path class="st205" d="M436.8,258.6c-1.4,0.3-3.1,0.3-2.7-1.5c0.5-2-0.1-4.5,1.7-5.8c1.3-0.9,1.9,0.5,2.1,1.7
		C438.2,255,437.4,256.8,436.8,258.6C436.8,258.6,436.8,258.6,436.8,258.6z"/>
	<path class="st206" d="M716.6,328.2c-0.6,1.1-1.2,1-1.9,0.9c-2-0.3-4.1,0.6-6-0.6c-0.2-0.1-0.1-1,0.1-1.2
		C709.5,326.6,714.8,327.2,716.6,328.2z"/>
	<path class="st83" d="M230.7,327.8c3.3,0.5,6.5,1.3,9.9,1c8.6,2.6,17,5.6,24.3,11c0.8,0.6,1.5,0.1,2.3-0.1c0,2.2,1.8,2.9,3.2,4
		c4.5,3.6,9,7.2,13.4,10.8c3.5,2.1,6.1,6.1,10.9,5.7c-1,6.9-4.6,9.1-10.4,5.7c-6.6-3.9-12.5-8.9-19.1-12.8
		c-10-5.9-20.3-11.2-30.4-16.8C231.5,334.4,228.5,332.3,230.7,327.8z"/>
	<path class="st207" d="M294.7,360.1c-5.5,1.6-7.8-2.8-10.9-5.7c2.8,0,4.1,2.5,6.1,3.7c2.3,1.4,4,1.3,4.4-1.3
		c1.1-6.2,5-11.3,6.3-17.3c0.4,0,0.8,0.1,1.2,0.1C300.6,346.8,297.1,353.3,294.7,360.1z"/>
	<path class="st208" d="M735.9,429.4c-8.9,1.9-17.9,0.8-26.8,0.7c-0.9,0-1.8-0.4-2.8-0.3c-5,0.6-5.6-0.3-3.9-5.4
		c3.1-3.3,6.4-5.2,11-2.9c3.8,1.8,7.6,0.7,11.4-0.4c3.6-1,6.7-0.4,7.5,3.6C732.8,427.1,737.3,425.9,735.9,429.4z"/>
	<path class="st32" d="M376.5,544.7c2.3-2.9,5.5-4.2,9-4.9C383,542.2,380.2,544.2,376.5,544.7z"/>
	<path class="st209" d="M271.9,334.6c0.7-2.2,2.2-3.7,4-5C275.8,332.3,274,333.5,271.9,334.6z"/>
	<path class="st194" d="M282,312.9c1.3-1.5,2.9-2.6,4.9-3C285.9,312,284.3,313.2,282,312.9z"/>
	<path class="st209" d="M275.9,329.6c0.4-1.8,1.5-3,3-4C278.7,327.5,278.5,329.5,275.9,329.6z"/>
	<path class="st5" d="M140.5,658.1c1,5.1-0.8,8.8-5.1,11.8c-4.5,3.3-9.7,1.6-10.9-3.9C129.6,662.9,134.8,660.1,140.5,658.1z"/>
</g>
<g id="Illustration">
	<g>
	</g>
	<g>
	</g>
	<g>
	</g>
	<g>
	</g>
	<g>
	</g>
	<g>
	</g>
	<g>
	</g>
	<g>
	</g>
	<g>
	</g>
	<g>
	</g>
	<g>
	</g>
	<g>
	</g>
	<g>
	</g>
	<g>
	</g>
	<g>
	</g>
</g>
</svg>
