<?xml version="1.0" encoding="utf-8"?>
<!-- Generator: Adobe Illustrator 23.0.5, SVG Export Plug-In . SVG Version: 6.00 Build 0)  -->
<svg version="1.1" xmlns="http://www.w3.org/2000/svg" xmlns:xlink="http://www.w3.org/1999/xlink" x="0px" y="0px"
	 viewBox="0 0 432 379.9" style="enable-background:new 0 0 432 379.9;" xml:space="preserve">
<style type="text/css">
	.st0{opacity:0.32;fill:#0F3157;}
	.st1{fill:#E5F1FF;}
	.st2{fill:#A9CCEA;}
	.st3{fill:#0F3157;}
	.st4{fill:#FF4D6B;}
	
		.st5{fill:none;stroke:#FF4D6B;stroke-width:1.1276;stroke-linecap:round;stroke-linejoin:round;stroke-miterlimit:10;stroke-dasharray:0,5.6381;}
	.st6{fill:#289DF2;}
	.st7{fill:#0F3775;}
	.st8{fill:#284D89;}
	.st9{fill:#2889DB;}
	.st10{fill:#FFFFFF;}
	.st11{fill:#282E5C;}
	.st12{fill:none;stroke:#FFFFFF;stroke-width:1.1276;stroke-miterlimit:10;}
	.st13{fill:#289DF2;stroke:#FFFFFF;stroke-width:1.1276;stroke-miterlimit:10;}
	.st14{fill:#289DF2;stroke:#FFFFFF;stroke-width:0.5638;stroke-miterlimit:10;}
	.st15{fill:none;stroke:#284D89;stroke-width:2.2552;stroke-linecap:round;stroke-linejoin:round;stroke-miterlimit:10;}
	.st16{fill:none;stroke:#FF5C66;stroke-width:1.0152;stroke-miterlimit:10;}
	.st17{fill:none;stroke:#F7F7F7;stroke-width:0.2538;stroke-miterlimit:10;}
	.st18{fill:#F7F7F7;}
	.st19{fill:none;stroke:#F7F7F7;stroke-width:0.5076;stroke-miterlimit:10;}
	.st20{fill:#28385E;}
	.st21{fill:none;stroke:#289DF2;stroke-width:1.1276;stroke-miterlimit:10;}
	.st22{fill:#F9FBFC;}
	.st23{fill:none;stroke:#FF4D6B;stroke-width:1.1276;stroke-miterlimit:10;}
	.st24{fill:#1AE5FF;}
	.st25{fill:#287DD1;}
	.st26{fill:none;stroke:#289DF2;stroke-width:1.1276;stroke-linecap:round;stroke-linejoin:round;stroke-miterlimit:10;}
</style>
<g id="BACKGROUND">
</g>
<g id="OBJECTS">
	<ellipse class="st0" cx="217.4" cy="342.6" rx="188.4" ry="21"/>
	<ellipse class="st1" cx="217.4" cy="338.7" rx="188.4" ry="17.1"/>
	<g>
		<circle class="st1" cx="332.1" cy="99.2" r="85.8"/>
		
			<ellipse transform="matrix(0.7071 -0.7071 0.7071 0.7071 -165.5331 160.505)" class="st1" cx="111" cy="280.1" rx="50.2" ry="50.2"/>
		<g>
			<path class="st2" d="M110.3,41.9c-25.3,0-45.9,20.5-45.9,45.9c0,25.3,20.5,45.9,45.9,45.9c25.3,0,45.9-20.5,45.9-45.9
				C156.2,62.5,135.6,41.9,110.3,41.9z M110.3,117.1C94.1,117.1,81,104,81,87.8s13.1-29.3,29.3-29.3c16.2,0,29.3,13.1,29.3,29.3
				S126.5,117.1,110.3,117.1z"/>
			<path class="st3" d="M283.6,335.1c0,2.9-2.4,5.3-5.3,5.3H145.2c-2.9,0-5.3-2.4-5.3-5.3c0-2.9,2.4-5.3,5.3-5.3h47.2l6.5-12h11.3h3
				h11.3l6.5,12h47.2C281.2,329.9,283.6,332.2,283.6,335.1z"/>
			<rect x="199.8" y="306.9" class="st4" width="21.8" height="6.4"/>
			<rect x="199.8" y="296.4" class="st4" width="21.8" height="6.4"/>
			<path class="st5" d="M384.2,274.8c-3.8,1.5-7.9,2.3-12.2,2.3c-18.8,0-34.1-15.3-34.1-34.1s15.3-34.1,34.1-34.1
				c18.8,0,34.1,15.3,34.1,34.1c0,5-1.1,9.8-3.1,14.1"/>
			<path class="st6" d="M288,82.9h-5.4c-1.1-4.8-3-9.4-5.6-13.5l3.8-3.8c1.7-1.7,1.7-4.3,0-6l-8.5-8.5c-1.7-1.7-4.3-1.7-6,0
				l-3.8,3.8c-4.1-2.5-8.6-4.4-13.5-5.6v-5.4c0-2.3-1.9-4.2-4.2-4.2h-12.1c-2.3,0-4.2,1.9-4.2,4.2v5.4c-4.8,1.1-9.4,3-13.5,5.6
				L211,51c-1.7-1.7-4.3-1.7-6,0l-8.5,8.5c-1.7,1.7-1.7,4.3,0,6l3.8,3.8c-2.5,4.1-4.4,8.6-5.6,13.5h-5.4c-2.3,0-4.2,1.9-4.2,4.2
				v12.1c0,2.3,1.9,4.2,4.2,4.2h5.4c1.1,4.8,3,9.4,5.6,13.5l-3.8,3.8c-1.7,1.7-1.7,4.3,0,6l8.5,8.5c1.7,1.7,4.3,1.7,6,0l3.8-3.8
				c4.1,2.5,8.6,4.4,13.5,5.6v5.4c0,2.3,1.9,4.2,4.2,4.2h12.1c2.3,0,4.2-1.9,4.2-4.2v-5.4c4.8-1.1,9.4-3,13.5-5.6l3.8,3.8
				c1.7,1.7,4.3,1.7,6,0l8.5-8.5c1.7-1.7,1.7-4.3,0-6L277,117c2.5-4.1,4.4-8.6,5.6-13.5h5.4c2.3,0,4.2-1.9,4.2-4.2V87.1
				C292.2,84.8,290.3,82.9,288,82.9z M238.6,114.8c-11.9,0-21.6-9.7-21.6-21.6c0-11.9,9.7-21.6,21.6-21.6c11.9,0,21.6,9.7,21.6,21.6
				C260.2,105.1,250.6,114.8,238.6,114.8z"/>
			<path class="st7" d="M62,293.5c-6.3,0-11.5-5.1-11.5-11.5V102.6c0-6.3,5.1-11.5,11.5-11.5h299.5c6.3,0,11.5,5.1,11.5,11.5v179.5
				c0,6.3-5.1,11.5-11.5,11.5H62z"/>
			<rect x="74" y="116.2" class="st8" width="33.3" height="7.3"/>
			<rect x="114.1" y="116.2" class="st8" width="33.3" height="7.3"/>
			<rect x="215.6" y="116.2" class="st8" width="33.3" height="7.3"/>
			<rect x="317" y="116.2" class="st8" width="33.3" height="7.3"/>
			<rect x="151.8" y="116.2" class="st4" width="59.5" height="7.3"/>
			<rect x="252.8" y="116.2" class="st9" width="59.5" height="7.3"/>
			<rect x="74.2" y="110.4" class="st9" width="5.8" height="3.6"/>
			<g>
				<rect x="74.2" y="129.5" class="st10" width="60.8" height="3.6"/>
				<rect x="74.2" y="135.8" class="st10" width="18" height="3.6"/>
			</g>
			<path class="st8" d="M138.6,267.8H82.2c-4.2,0-7.6-3.4-7.6-7.6v-102c0-4.2,3.4-7.6,7.6-7.6h56.4c4.2,0,7.6,3.4,7.6,7.6v102
				C146.2,264.4,142.8,267.8,138.6,267.8z"/>
			<g>
				<rect x="83.6" y="167.8" class="st10" width="24" height="3.7"/>
				<rect x="83.6" y="175.9" class="st10" width="24" height="3.7"/>
				<rect x="83.6" y="184.1" class="st10" width="24" height="3.7"/>
			</g>
			<rect x="83.6" y="218.2" class="st10" width="14.7" height="3.7"/>
			<rect x="83.6" y="226.4" class="st10" width="14.7" height="3.7"/>
			<rect x="108.8" y="226.4" class="st10" width="14.7" height="3.7"/>
			<rect x="83.6" y="208.9" class="st10" width="9.2" height="3.7"/>
			<rect x="123.1" y="208.9" class="st10" width="4.9" height="3.7"/>
			<rect x="96" y="208.9" class="st4" width="25.2" height="3.7"/>
			<rect x="83.6" y="195.1" class="st9" width="3.5" height="3.7"/>
			<rect x="83.6" y="201.6" class="st4" width="3.5" height="3.7"/>
			<polygon class="st10" points="103.2,230.8 101.9,230.8 105,226.1 106.3,226.1 			"/>
			<rect x="83.6" y="237.1" class="st11" width="54.4" height="3.1"/>
			<rect x="83.6" y="244.2" class="st11" width="54.4" height="3.1"/>
			<path class="st6" d="M399.7,199.1H250.1c-3.7,0-6.8-3-6.8-6.8v-40.6c0-3.7,3-6.8,6.8-6.8h149.6c3.7,0,6.8,3,6.8,6.8v40.6
				C406.5,196,403.5,199.1,399.7,199.1z"/>
			<path class="st12" d="M291.9,179.9c0,0,8.3-20.3,31.9-15.4c23.7,4.9,35.7,31.6,66.2,9.8"/>
			<rect x="365.2" y="181" class="st13" width="3.4" height="3.4"/>
			<line class="st14" x1="296" y1="163.5" x2="338.8" y2="163.5"/>
			<line class="st14" x1="345.4" y1="183.6" x2="388.3" y2="183.6"/>
			<rect x="314" y="161.8" class="st13" width="3.4" height="3.4"/>
			<g>
				<path class="st8" d="M271.9,213h-32.3c-2.7,0-4.9-2.2-4.9-4.9v-48.5c0-2.7,2.2-4.9,4.9-4.9h32.3c2.7,0,4.9,2.2,4.9,4.9v48.5
					C276.8,210.8,274.6,213,271.9,213z"/>
				<g>
					<g>
						<rect x="241.3" y="163" class="st10" width="24" height="3.3"/>
						<rect x="241.3" y="170.3" class="st10" width="24" height="3.3"/>
						<rect x="241.3" y="177.7" class="st10" width="9" height="3.3"/>
					</g>
					<g>
						<rect x="241.3" y="185.3" class="st6" width="15.6" height="3.3"/>
						<rect x="241.3" y="192.7" class="st6" width="10.5" height="3.3"/>
						<rect x="241.3" y="200.1" class="st10" width="10.5" height="3.3"/>
					</g>
				</g>
			</g>
			<line class="st15" x1="380.2" y1="137.6" x2="397.1" y2="137.6"/>
			<g>
				<path class="st16" d="M342.2,233l-5.8,4.6l-8.4,1.5c0,0-7.9-0.5-8.6-0.5c-0.8,0-6.1-4.3-6.1-4.3l-9.9-3.6l-6.9,2.5l-8.1-1.8
					l-12.2-0.8l-11.7,4.6l-9.6,1.5l-8.6,2.8l-9.6,0.8l-10.4-8.1l-9.6-1.8l-9.9,5.6l-7.9,2.5l-8.9-0.3l-11.3,6.9h-6.7l-11.3,4"/>
				<g>
					<g>
						<line class="st17" x1="160.7" y1="249.4" x2="342.4" y2="249.4"/>
						<rect x="158.9" y="247.1" class="st18" width="1.9" height="4.6"/>
						<rect x="341.3" y="247.1" class="st18" width="1.9" height="4.6"/>
					</g>
					<path class="st19" d="M160.7,249.4"/>
				</g>
				<line class="st17" x1="342.3" y1="249.4" x2="342.3" y2="234.1"/>
				<path class="st18" d="M343.3,233.3c0,0.8-0.6,1.4-1.4,1.4c-0.8,0-1.4-0.6-1.4-1.4c0-0.8,0.6-1.4,1.4-1.4
					C342.6,231.9,343.3,232.5,343.3,233.3z"/>
				<g>
					<path class="st18" d="M161.5,260.1c0-0.3,0-0.7,0-1v-4.7h0.7v2.5h0c0.3-0.4,0.7-0.7,1.3-0.7c1,0,1.7,0.8,1.7,2
						c0,1.4-0.9,2.1-1.8,2.1c-0.6,0-1-0.2-1.3-0.7h0l0,0.6H161.5z M162.3,258.5c0,0.1,0,0.2,0,0.3c0.1,0.5,0.6,0.8,1.1,0.8
						c0.7,0,1.2-0.6,1.2-1.5c0-0.8-0.4-1.5-1.2-1.5c-0.5,0-0.9,0.3-1.1,0.9c0,0.1,0,0.2,0,0.3V258.5z"/>
					<path class="st18" d="M167.1,258.3c0,1,0.6,1.4,1.3,1.4c0.5,0,0.8-0.1,1.1-0.2l0.1,0.5c-0.3,0.1-0.7,0.2-1.3,0.2
						c-1.2,0-1.9-0.8-1.9-2c0-1.2,0.7-2.1,1.8-2.1c1.3,0,1.6,1.1,1.6,1.9c0,0.1,0,0.3,0,0.3H167.1z M169.2,257.7
						c0-0.5-0.2-1.2-1-1.2c-0.7,0-1,0.7-1.1,1.2H169.2z"/>
					<path class="st18" d="M172.1,255v1.1h1v0.5h-1v2.1c0,0.5,0.1,0.8,0.5,0.8c0.2,0,0.3,0,0.4,0l0,0.5c-0.1,0.1-0.4,0.1-0.6,0.1
						c-0.3,0-0.6-0.1-0.8-0.3c-0.2-0.2-0.3-0.6-0.3-1v-2.1h-0.6v-0.5h0.6v-0.9L172.1,255z"/>
					<path class="st18" d="M176.6,260.1l-0.1-0.5h0c-0.2,0.3-0.6,0.6-1.2,0.6c-0.8,0-1.2-0.6-1.2-1.1c0-1,0.8-1.5,2.4-1.5v-0.1
						c0-0.3-0.1-0.9-0.9-0.9c-0.4,0-0.7,0.1-1,0.3l-0.2-0.5c0.3-0.2,0.8-0.3,1.3-0.3c1.2,0,1.5,0.8,1.5,1.6v1.5c0,0.3,0,0.7,0.1,0.9
						H176.6z M176.5,258.1c-0.8,0-1.7,0.1-1.7,0.9c0,0.5,0.3,0.7,0.7,0.7c0.5,0,0.8-0.3,0.9-0.7c0-0.1,0-0.2,0-0.2V258.1z"/>
					<path class="st18" d="M181.9,255v1.1h1v0.5h-1v2.1c0,0.5,0.1,0.8,0.5,0.8c0.2,0,0.3,0,0.4,0l0,0.5c-0.1,0.1-0.4,0.1-0.6,0.1
						c-0.3,0-0.6-0.1-0.8-0.3c-0.2-0.2-0.3-0.6-0.3-1v-2.1h-0.6v-0.5h0.6v-0.9L181.9,255z"/>
					<path class="st18" d="M184.5,258.3c0,1,0.6,1.4,1.3,1.4c0.5,0,0.8-0.1,1.1-0.2l0.1,0.5c-0.3,0.1-0.7,0.2-1.3,0.2
						c-1.2,0-1.9-0.8-1.9-2c0-1.2,0.7-2.1,1.8-2.1c1.3,0,1.6,1.1,1.6,1.9c0,0.1,0,0.3,0,0.3H184.5z M186.6,257.7
						c0-0.5-0.2-1.2-1-1.2c-0.7,0-1,0.7-1.1,1.2H186.6z"/>
					<path class="st18" d="M188.6,259.4c0.2,0.1,0.6,0.3,0.9,0.3c0.5,0,0.8-0.3,0.8-0.6c0-0.3-0.2-0.5-0.7-0.7c-0.7-0.3-1-0.6-1-1.1
						c0-0.6,0.5-1.2,1.4-1.2c0.4,0,0.7,0.1,1,0.2l-0.2,0.5c-0.2-0.1-0.4-0.2-0.8-0.2c-0.4,0-0.7,0.2-0.7,0.5c0,0.3,0.2,0.5,0.7,0.7
						c0.7,0.3,1,0.6,1,1.2c0,0.7-0.5,1.2-1.5,1.2c-0.4,0-0.8-0.1-1.1-0.3L188.6,259.4z"/>
					<path class="st18" d="M193.3,255v1.1h1v0.5h-1v2.1c0,0.5,0.1,0.8,0.5,0.8c0.2,0,0.3,0,0.4,0l0,0.5c-0.1,0.1-0.4,0.1-0.6,0.1
						c-0.3,0-0.6-0.1-0.8-0.3c-0.2-0.2-0.3-0.6-0.3-1v-2.1h-0.6v-0.5h0.6v-0.9L193.3,255z"/>
				</g>
				<rect x="202.7" y="256" class="st20" width="113" height="2"/>
				<rect x="202.7" y="256" class="st4" width="69.4" height="2"/>
				<rect x="202.7" y="259.9" class="st20" width="55.6" height="2"/>
				<g>
					<polygon class="st4" points="167.4,265.9 174.3,265.9 175.2,264 161.3,264 161.3,267.2 166.2,267.2 					"/>
					<rect x="180.9" y="264" class="st18" width="0.8" height="0.8"/>
					<rect x="185.6" y="264" class="st18" width="0.8" height="0.8"/>
					<rect x="190.3" y="264" class="st18" width="0.8" height="0.8"/>
				</g>
				<g>
					<path class="st18" d="M336.9,223.5h-2l-0.2,1.4c0.1,0,0.2,0,0.4,0c0.4,0,0.8,0.1,1.1,0.3c0.4,0.2,0.8,0.7,0.8,1.4
						c0,1-0.8,1.8-2,1.8c-0.6,0-1.1-0.2-1.3-0.3l0.2-0.5c0.2,0.1,0.6,0.3,1.1,0.3c0.7,0,1.3-0.4,1.3-1.1c0-0.7-0.5-1.2-1.5-1.2
						c-0.3,0-0.5,0-0.7,0.1l0.3-2.5h2.5V223.5z"/>
					<path class="st18" d="M341.9,225.5c0,1.8-0.7,2.8-1.8,2.8c-1,0-1.7-1-1.7-2.7c0-1.8,0.8-2.7,1.8-2.7
						C341.3,222.9,341.9,223.8,341.9,225.5z M339,225.6c0,1.4,0.4,2.2,1.1,2.2c0.7,0,1.1-0.9,1.1-2.2c0-1.3-0.3-2.2-1.1-2.2
						C339.5,223.4,339,224.2,339,225.6z"/>
					<path class="st18" d="M346.6,225.5c0,1.8-0.7,2.8-1.8,2.8c-1,0-1.7-1-1.7-2.7c0-1.8,0.8-2.7,1.8-2.7
						C345.9,222.9,346.6,223.8,346.6,225.5z M343.7,225.6c0,1.4,0.4,2.2,1.1,2.2c0.7,0,1.1-0.9,1.1-2.2c0-1.3-0.3-2.2-1.1-2.2
						C344.1,223.4,343.7,224.2,343.7,225.6z"/>
				</g>
				<g>
					<polygon class="st20" points="323.8,262.1 322.1,262.1 319.4,256 321.1,256 					"/>
					<polygon class="st20" points="328.2,262.1 326.5,262.1 323.8,256 325.5,256 					"/>
					<polygon class="st20" points="332.6,262.1 330.9,262.1 328.2,256 329.9,256 					"/>
					<polygon class="st20" points="337,262.1 335.3,262.1 332.6,256 334.3,256 					"/>
					<polygon class="st20" points="341.3,262.1 339.6,262.1 336.9,256 338.6,256 					"/>
				</g>
			</g>
			<g>
				<g>
					<rect x="306.5" y="52.3" class="st2" width="27.5" height="4.9"/>
					<rect x="306.5" y="61.2" class="st2" width="41.5" height="4.9"/>
					<rect x="306.5" y="70" class="st2" width="51.2" height="4.9"/>
					<rect x="306.5" y="78.8" class="st2" width="19.6" height="4.9"/>
				</g>
			</g>
			<g>
				<g>
					<rect x="17.8" y="111.7" class="st9" width="27.5" height="4.9"/>
					<rect x="17.8" y="120.5" class="st2" width="41.5" height="4.9"/>
					<rect x="17.8" y="129.4" class="st2" width="51.2" height="4.9"/>
					<rect x="17.8" y="138.2" class="st2" width="19.6" height="4.9"/>
				</g>
			</g>
			<rect x="86.4" y="284.8" class="st21" width="117.3" height="15.2"/>
			<rect x="143" y="164.9" class="st21" width="5.6" height="34.6"/>
			<g>
				
					<ellipse transform="matrix(0.9872 -0.1592 0.1592 0.9872 -33.9357 62.3337)" class="st4" cx="372" cy="242.9" rx="19.4" ry="19.4"/>
				<g>
					<g>
						<path class="st22" d="M370.6,241.1l-7.7,2.8l7.7,2.8v2.9l-11-4.2v-3l11-4.2V241.1z"/>
					</g>
					<g>
						<path class="st22" d="M373.1,238.2l11,4.2v3l-11,4.2v-2.9l7.7-2.8l-7.7-2.8V238.2z"/>
					</g>
				</g>
			</g>
			<path class="st23" d="M404.4,258.8c0,1.4-1.1,2.5-2.5,2.5c-1.4,0-2.5-1.1-2.5-2.5c0-1.4,1.1-2.5,2.5-2.5
				C403.3,256.3,404.4,257.4,404.4,258.8z"/>
			<rect x="80.2" y="75" class="st21" width="91.9" height="9.6"/>
			<rect x="84.2" y="78.1" class="st6" width="56.9" height="2.8"/>
			<g>
				<rect x="158.4" y="149.8" class="st8" width="67.3" height="3.4"/>
				<rect x="158.4" y="149.8" class="st9" width="30.5" height="3.4"/>
			</g>
			<g>
				<rect x="158.4" y="158.6" class="st8" width="67.3" height="3.4"/>
				<rect x="158.4" y="158.6" class="st4" width="46.8" height="3.4"/>
			</g>
			<g>
				<rect x="158.4" y="167.3" class="st8" width="67.3" height="3.4"/>
				<rect x="158.4" y="167.3" class="st24" width="13.7" height="3.4"/>
			</g>
			<g>
				<rect x="158.7" y="143.9" class="st8" width="1.3" height="1.3"/>
				<rect x="163.2" y="143.9" class="st8" width="1.3" height="1.3"/>
				<rect x="167.7" y="143.9" class="st8" width="1.3" height="1.3"/>
			</g>
			<g>
				<rect x="283.9" y="190" class="st10" width="2.2" height="2.2"/>
				<rect x="291.4" y="190" class="st10" width="2.2" height="2.2"/>
				<rect x="298.9" y="190" class="st10" width="2.2" height="2.2"/>
			</g>
			<g>
				<rect x="315.5" y="102.8" class="st10" width="4.1" height="4.1"/>
				<rect x="329.6" y="102.8" class="st10" width="4.1" height="4.1"/>
				<rect x="343.7" y="102.8" class="st10" width="4.1" height="4.1"/>
			</g>
			<g>
				<rect x="257.3" y="272.7" class="st10" width="4.1" height="4.1"/>
				<rect x="271.4" y="272.7" class="st10" width="4.1" height="4.1"/>
				<rect x="285.5" y="272.7" class="st10" width="4.1" height="4.1"/>
			</g>
			<g>
				<rect x="84.8" y="158.9" class="st10" width="2.2" height="2.2"/>
				<rect x="92.3" y="158.9" class="st10" width="2.2" height="2.2"/>
				<rect x="99.8" y="158.9" class="st10" width="2.2" height="2.2"/>
			</g>
			<g>
				<rect x="355.8" y="156.2" class="st10" width="36.5" height="3.6"/>
				<rect x="355.8" y="162.5" class="st25" width="10.8" height="3.6"/>
			</g>
			<polygon class="st24" points="61.6,163.5 53.7,163.5 53.7,155.6 46.4,155.6 46.4,163.5 38.5,163.5 38.5,170.9 46.4,170.9 
				46.4,178.8 53.7,178.8 53.7,170.9 61.6,170.9 			"/>
			<polygon class="st9" points="40.5,185.5 35.7,185.5 35.7,180.7 31.2,180.7 31.2,185.5 26.4,185.5 26.4,190 31.2,190 31.2,194.8 
				35.7,194.8 35.7,190 40.5,190 			"/>
			<g>
				<path class="st8" d="M172.2,181.3c-6.8,0-12.3,5.5-12.3,12.3c0,6.8,5.5,12.3,12.3,12.3c6.8,0,12.3-5.5,12.3-12.3
					C184.6,186.8,179.1,181.3,172.2,181.3z M172.2,200.1c-3.6,0-6.4-2.9-6.4-6.4s2.9-6.4,6.4-6.4c3.6,0,6.4,2.9,6.4,6.4
					S175.8,200.1,172.2,200.1z"/>
				<path class="st6" d="M163.8,192.5c1.1,0,2.2-0.7,2.7-1.7c1.1-2.1,3.2-3.5,5.7-3.5c2.5,0,4.7,1.4,5.7,3.5c0.5,1,1.5,1.7,2.7,1.7
					l0,0c2.2,0,3.6-2.3,2.7-4.2c-2-4.1-6.2-6.9-11.1-6.9c-4.9,0-9.1,2.8-11.1,6.9C160.2,190.2,161.7,192.5,163.8,192.5L163.8,192.5z
					"/>
			</g>
			<g>
				<path class="st8" d="M193,193.7c0,6.8,5.5,12.3,12.3,12.3c6.8,0,12.3-5.5,12.3-12.3c0-6.8-5.5-12.3-12.3-12.3
					C198.5,181.3,193,186.8,193,193.7z M211.8,193.7c0,3.6-2.9,6.4-6.4,6.4c-3.6,0-6.4-2.9-6.4-6.4c0-3.6,2.9-6.4,6.4-6.4
					C208.9,187.2,211.8,190.1,211.8,193.7z"/>
				<path class="st4" d="M204.1,202.1c0-1.1-0.7-2.2-1.7-2.7c-2.1-1.1-3.5-3.2-3.5-5.7c0-2.5,1.4-4.7,3.5-5.7c1-0.5,1.7-1.5,1.7-2.7
					l0,0c0-2.2-2.3-3.6-4.2-2.7c-4.1,2-6.9,6.2-6.9,11.1c0,4.9,2.8,9.1,6.9,11.1C201.8,205.7,204.1,204.2,204.1,202.1L204.1,202.1z"
					/>
			</g>
			<rect x="114.4" y="144.9" class="st21" width="22.6" height="54.1"/>
			<g>
				<rect x="117.6" y="155.4" class="st24" width="6.6" height="1.9"/>
				<rect x="117.6" y="159.7" class="st24" width="6.6" height="1.9"/>
				<rect x="117.6" y="164" class="st24" width="6.6" height="1.9"/>
				<rect x="117.6" y="186.6" class="st24" width="6.6" height="1.9"/>
			</g>
			<g>
				<rect x="117.6" y="170.4" class="st24" width="9.6" height="1.9"/>
				<rect x="117.6" y="174.7" class="st10" width="9.6" height="1.9"/>
				<rect x="117.6" y="179.1" class="st10" width="9.6" height="1.9"/>
			</g>
			<rect x="33.6" y="212.6" class="st6" width="28.6" height="28.6"/>
			<rect x="18.6" y="219.4" class="st21" width="28.6" height="28.6"/>
			<rect x="373.4" y="295.3" class="st21" width="12" height="12"/>
			<g>
				<polyline class="st12" points="229.1,276.3 239.2,276.3 244.9,281.9 303.5,281.9 312.5,272.9 344.1,272.9 				"/>
				<circle class="st12" cx="226.1" cy="276.4" r="3"/>
				<circle class="st12" cx="347.2" cy="272.8" r="3"/>
			</g>
			<path class="st6" d="M387,117.1c0,2.1-1.7,3.8-3.8,3.8c-2.1,0-3.8-1.7-3.8-3.8c0-2.1,1.7-3.8,3.8-3.8
				C385.3,113.4,387,115,387,117.1z"/>
			<path class="st4" d="M39.6,263.7c0,2.1-1.7,3.8-3.8,3.8s-3.8-1.7-3.8-3.8c0-2.1,1.7-3.8,3.8-3.8S39.6,261.6,39.6,263.7z"/>
			<path class="st4" d="M56.9,277.6c0,3.6-2.9,6.6-6.6,6.6c-3.6,0-6.6-2.9-6.6-6.6c0-3.6,2.9-6.6,6.6-6.6
				C54,271,56.9,274,56.9,277.6z"/>
			<g>
				<rect x="254.6" y="299.8" class="st21" width="26.3" height="6"/>
				<rect x="254.6" y="311.1" class="st21" width="57.7" height="6"/>
			</g>
			<g>
				<line class="st26" x1="93.5" y1="305.6" x2="87.1" y2="311.9"/>
				<line class="st26" x1="99.6" y1="305.6" x2="93.2" y2="311.9"/>
				<line class="st26" x1="105.7" y1="305.6" x2="99.3" y2="311.9"/>
				<line class="st26" x1="111.9" y1="305.6" x2="105.5" y2="311.9"/>
				<line class="st26" x1="118" y1="305.6" x2="111.6" y2="311.9"/>
			</g>
		</g>
	</g>
	<g>
	</g>
	<g>
	</g>
	<g>
	</g>
	<g>
	</g>
	<g>
	</g>
	<g>
	</g>
</g>
</svg>
