<?xml version="1.0" encoding="utf-8"?>
<!-- Generator: Adobe Illustrator 23.0.5, SVG Export Plug-In . SVG Version: 6.00 Build 0)  -->
<svg version="1.1" id="Layer_1" xmlns="http://www.w3.org/2000/svg" xmlns:xlink="http://www.w3.org/1999/xlink" x="0px" y="0px"
	 viewBox="0 0 1000 630" style="enable-background:new 0 0 1000 630;" xml:space="preserve">
<style type="text/css">
	.st0{fill:#B6CBE1;}
	.st1{fill:#DEE5EC;}
	.st2{fill:#FEFEFE;}
	.st3{fill:#F1F1F1;}
	.st4{fill:#EFEFEF;}
	.st5{fill:#F9BE46;}
	.st6{fill:#263238;}
	.st7{fill:#89ADFE;}
	.st8{fill:#F5F5F5;}
	.st9{fill:#407BFE;}
	.st10{fill:#427CFE;}
	.st11{fill:#F4F4F4;}
	.st12{fill:#FEB473;}
	.st13{fill:#6694FE;}
	.st14{fill:#F9F9F9;}
	.st15{fill:#EEEEEE;}
	.st16{fill:#F8B328;}
	.st17{fill:#E7E7E7;}
	.st18{fill:#8AAEFE;}
	.st19{fill:#E3887B;}
	.st20{fill:#E3897B;}
	.st21{fill:#F6F6F6;}
	.st22{fill:#EBEBEB;}
	.st23{fill:#E3897A;}
	.st24{fill:#F9BF48;}
	.st25{fill:#F2F2F2;}
	.st26{fill:#F4F1EB;}
	.st27{fill:#417BFE;}
	.st28{fill:#5277CB;}
	.st29{fill:#F9F8F8;}
	.st30{fill:#F9BF49;}
	.st31{fill:#3462CC;}
	.st32{fill:#8CAFFE;}
	.st33{fill:#F9C04D;}
	.st34{fill:#8EB0FE;}
	.st35{fill:#F6BD46;}
	.st36{fill:#437CFD;}
	.st37{fill:#CF935E;}
	.st38{fill:#B97165;}
	.st39{fill:#6494FE;}
	.st40{fill:#6192FE;}
	.st41{fill:#4E85FE;}
	.st42{fill:#5086FE;}
	.st43{fill:#4880FE;}
	.st44{fill:#FBDD9E;}
	.st45{fill:#FBDC9D;}
	.st46{fill:#FBD78C;}
	.st47{fill:#FAD380;}
	.st48{fill:#D4E1FE;}
	.st49{fill:#A9C3FE;}
	.st50{fill:#C3D5FE;}
	.st51{fill:#FAFAFA;}
	.st52{fill:#417BFC;}
	.st53{fill:#B66F65;}
	.st54{fill:#DB8679;}
	.st55{fill:#FBFBFB;}
	.st56{fill:#1E282D;}
	.st57{fill:#407BFD;}
	.st58{fill:#4374DF;}
	.st59{fill:#FEFEFD;}
	.st60{fill:#EAEAEA;}
	.st61{fill:#F5F6F6;}
	.st62{fill:#E9E9E9;}
	.st63{fill:#F9FBFE;}
	.st64{fill:#FEFDFA;}
	.st65{fill:#E3E5E6;}
	.st66{fill:#8DB0FE;}
	.st67{fill:#CB915C;}
	.st68{fill:#A85542;}
	.st69{fill:#C75751;}
	.st70{fill:#4A4842;}
	.st71{fill:#EDEEED;}
	.st72{fill:#434546;}
	.st73{fill:#494741;}
	.st74{fill:#504B43;}
	.st75{fill:#F0F0EE;}
	.st76{fill:#DDDFE0;}
	.st77{fill:#FCFDFE;}
	.st78{fill:#FDFDFE;}
	.st79{fill:#F8F8F8;}
	.st80{fill:#F9CD74;}
	.st81{fill:#EDEDED;}
	.st82{fill:#FBFAFA;}
	.st83{fill:#E3E3E3;}
	.st84{fill:#F7F7F7;}
	.st85{fill:#F4F3F3;}
	.st86{fill:#B8CDFE;}
	.st87{fill:#B6CCFE;}
	.st88{fill:#FACB6B;}
	.st89{fill:#B77167;}
	.st90{fill:#E4A267;}
	.st91{fill:#D78376;}
	.st92{fill:#8AADFE;}
	.st93{fill:#F6F6F5;}
	.st94{fill:#F8E1B1;}
	.st95{fill:#F2F2F1;}
	.st96{fill:#F2F1F1;}
	.st97{fill:#FCFCFE;}
	.st98{fill:#FEFBF7;}
	.st99{fill:#FEFBF6;}
	.st100{fill:#F9C353;}
	.st101{fill:#F9C251;}
</style>
<ellipse class="st0" cx="490" cy="548" rx="331" ry="48"/>
<ellipse class="st1" cx="489.5" cy="547.7" rx="299.5" ry="31.3"/>
<g>
	<path class="st2" d="M969.9,485c0,20,0,40,0.1,60c0,2.2-0.5,2.7-2.7,2.7c-198.5-0.1-397.1-0.1-595.6-0.1
		c-118.3,0-236.6,0-354.9,0.1c-2.2,0-2.8-0.5-2.7-2.7c0.1-20,0.1-40,0.1-60c1-0.5,2.2-0.3,3.2-0.3c13.5,0,27.1,0.4,40.6-0.1
		c24.5-1,48.9-0.1,73.4-0.4c1.6,0,3.2-0.2,4.7,0.4c1.5,1,0.7,2.1,0,3c-4.4,5.8-8.8,11.5-12.9,17.4c-0.7,1-1.7,1.6-3,1.7
		c-7.8-0.3-15.5,0.4-23.2,0.8c-7.6,0.4-15.3,0.6-22.8,1.7c-1.7,0.2-3.3,0.7-4.8,1.5c-1.4,0.8-2.3,1.8-2.3,3.5c0,1.9,1.2,2.9,2.7,3.6
		c2,0.9,4.2,1.3,6.4,1.5c4.9,0.4,9.9,1.1,14.8,1.2c6.3,0.1,12.5,0.6,18.8,0.8c12.8,0.4,25.6,0.9,38.4,1.3c5.8,0.2,11.5,0.1,17.3,0.5
		c11,0.7,22.1,0.1,33.1,0.7c8.8,0.5,17.5,0.1,26.2,0.5c16.2,0.8,32.4,0,48.6,0.7c13.2,0.6,26.5,0.2,39.7,0.4
		c50.6,1,101.1,0.2,151.7,0.8c13.9,0.2,27.9,0.7,41.8,0.3c44.9-1.1,89.8,0.2,134.6-0.7c19.5-0.4,39,0.3,58.5-0.6
		c14.3-0.6,28.7,0.2,43-0.6c10.9-0.6,21.9,0.1,32.8-0.6c9.3-0.6,18.5,0.1,27.7-0.6c7.8-0.6,15.5-0.1,23.2-0.5
		c12.1-0.6,24.2-0.7,36.3-1.3c11.1-0.5,22.2-0.8,33.3-1.8c3.9-0.4,7.9-0.3,11.8-1.5c2.2-0.7,4.2-1.6,4.2-4.3c0-2.8-2.1-3.6-4.2-4.3
		c-2.4-0.7-4.9-1.1-7.3-1.2c-8.3-0.3-16.6-1.1-25-1.4c-11.1-0.4-22.2-1-33.3-1.2c-3.3-0.1-6.7-0.4-10.1-0.5c-1.6-0.2-2.4-1.3-3-2.6
		c-0.9-1.7-2.1-3.1-3.8-4c-0.2-0.3-0.2-0.6,0-0.9c1.1-0.7,2.3-0.4,3.5-0.4c12.1,0,24.3,0,34.2,0c-11.1-0.1-24.5,0.2-37.9-0.1
		c-0.5-0.2-0.8-0.5-0.9-1c-0.1-0.9,0.4-1.5,1.2-1.8c2.2-1,2.1-2.3,0.5-3.8c-0.8-1.1-1.2-2.4-1.6-3.7c-0.3-1.1-0.4-2.1,0.9-2.7
		c1.4-0.4,2.8-0.3,4.2-0.3c33.9,0,67.8-0.3,101.8,0.1c12.6,0.2,25.2,0.2,37.8,0.4C969,484.8,969.5,484.7,969.9,485z"/>
	<path class="st3" d="M136.5,485.6c-1.1-1.1-2.5-0.6-3.7-0.6c-39.6,0-79.2,0-118.8,0c0-0.2,0-0.4,0-0.6c14,0,28.1-0.1,42.1,0.1
		c2.8,0,3.4-0.6,3.4-3.5c-0.1-49.5-0.1-98.9-0.1-148.4c3.4-1.5,6.9-1.4,10.3-0.1c1.1,1.7,0.8,3.7,0.8,5.5c0,47,0,94,0,140.9
		c0,4.4,0,4.4,4.4,4.4c16.2,0.1,32.4-0.1,48.7,0.1c3-0.1,6,0,8.9,0c1.6,0.2,3.3-0.2,4.8,0.5C138.3,485.3,137.6,485.5,136.5,485.6z"
		/>
	<path class="st4" d="M969.9,485c-47.3,0-94.5,0-141.8,0c-1.4,0-2.8,0-4.2,0.1c-1-0.7-0.1-0.9,0.3-1.2c1.4-0.4,2.8-0.3,4.1-0.3
		c34,0,68,0,102,0c1.7,0,3.4-0.4,4.9,0.8c11.5,0,23.1,0,34.6,0C969.9,484.6,969.9,484.8,969.9,485z"/>
	<path class="st5" d="M658.5,233.7c-1.3,0-2.6-0.1-3.9-0.1c-38.7,0-77.4,0-116.1,0c-4.4,0-4.7-0.3-4.7-4.8c0-30.6,0-61.3,0-91.9
		c0-4.4,0.4-4.8,4.7-4.8c52.4,0,104.9,0,157.3,0c4.1,0,4.6,0.5,4.6,4.6c0,7.4,0,14.7,0.1,22.1c0.3,4.7,0,9.3,0.1,14
		c0,2.1-1.3,2.5-3.2,2.6c1.1,1.9,3.2,2.6,3.7,4.6c0.3,1.2,0.3,2.4,0.3,3.6c0,14.8,0,29.6,0,44.4c0,5.6-1,6.6-6.6,6.6
		c-3.1,0-6.2,0-9.2-0.2c-0.7-0.1-1.4-0.4-2-0.8c-1.8-1.6-3.4-3.4-6-3.5c-1,0-2,0-1.7,1.3c0.5,2.4-1.2,2.4-2.7,2.4
		C668.4,233.7,663.5,233.8,658.5,233.7z"/>
	<path class="st6" d="M823.7,484.4c0.1,0.2,0.2,0.4,0.3,0.7c0.7,2,1.4,4,2.1,6c0,0.7-0.6,1.1-1.2,1.1c-4.4,0.6-8.8,1.8-13.3,1.8
		c-2-0.8-2.5-2.9-3.6-4.5c-0.9-1.4-1.8-2.8-2.7-4.2c-1.2-2.5-2.7-4.9-4.2-7.2c-0.5-0.8-1.1-1.6-1.6-2.5c-2.6-4.8-5.6-9.5-8.4-14.1
		c-8.7-15.1-17.5-30.1-24.8-46c-4-8.7-5.1-17.6-4.2-27c0.8-9.4,1.8-18.8,2.1-28.2c0.1-4.4,1.1-8.7,0.4-13.1
		c-0.1-1.8,1.2-2.5,2.6-2.9c7.2-2.1,10.7-7.4,12.4-14.3c0.4-1.7,1-3.4,1.7-4.4c-1,0.9-1.2,2.8-2.3,4.3c-3.9,5.3-9.3,8.6-15.2,11.1
		c-2.3,0.9-3.4,2.3-3.9,4.7c-2,10-3.6,20.1-5.2,30.2c-0.1,0.9,0.1,1.8,0.2,2.7c-1.2,6.8-3.7,13.2-5.5,19.8
		c-6.9,24.7-12.7,49.7-18,74.7c-0.8,3.8-1.7,7.6-2.4,11.4c0,0.3-0.1,0.7-0.2,1c-0.8,3.5-1.4,7-2.1,10.5c-0.3,1.3-0.4,2.6-1.6,3.4
		c-5,0.3-9.8-0.3-14.5-2.2c-1.2-3.8-0.7-7.7-0.4-11.6c0.1-0.4,0.3-0.7,0.6-1c0.6-20.1,2-40.1,4.2-60.1c2.7-24.2,6.5-48.3,11.1-72.2
		c3.5-18,7.4-36,12.3-53.7c0.2-0.6,0.4-1.1,0.6-1.7c0.8-0.7,1.8-0.9,2.8-0.9c5.9,0.3,11.7-0.7,17.5-0.7c10.6,0,21.2-0.7,31.8-0.8
		c1,0,2-0.1,2.8,0.6c1.3,3.1,1.3,6.4,2.3,9.6c2.1,4.4,1.8,9.1,1.3,13.7c-1.5,13.5-2.7,27.1-3.4,40.7c-0.6,10.3-1.2,20.6-1.7,30.9
		c-0.2,3.6-0.1,7.1-0.1,10.7c1.2,5.6,4,10.7,5.9,16.1c1,2.9,2.3,5.7,3.3,8.5c3.1,8.4,6.5,16.6,9.7,25c3.2,8.3,6.4,16.6,9.6,24.8
		c0.8,2.9,2.4,5.6,3.1,8.6C823.9,483.9,823.8,484.2,823.7,484.4z"/>
	<path class="st7" d="M271.4,285c0.5-1.7,1.7-2.3,3.4-2.4c0.6,0,1.2,0,1.8,0c35.1,0,70.2,0,105.4,0c4.6,0,5.4,0.9,5.4,5.3
		c0,28.2,0,56.3,0,84.5c0,4.7-0.5,5.2-5.1,5.2c-33.4,0-66.9,0-100.3,0c-1.3,0-2.6,0.1-3.9,0.1c-4.3,1.6-6.6,0.5-7.5-3.4
		c-0.2-12.6-0.2-25.3,0-37.9c-0.1-4.1-0.1-8.1,0-12.2C271.9,311.2,270.8,298,271.4,285z"/>
	<path class="st8" d="M800.8,425.4c-3.4-7.9-6.5-16-9.4-24.1c0.4-3.8,0.3-7.5,0-11.3c0.5-15.7,1.3-31.3,2.5-46.9
		c0.7-8.3,1.5-16.6,2.4-24.9c0.5-4.6-0.3-9.1-0.3-13.7c21.5,0,43,0,64.5,0c0.9-0.5,1-1.9,2.4-1.8c0,0.8,0,1.8,1.1,1.7
		c2-0.1,4.1,0.7,6.1-0.5c1.5-0.6,1.6-1.9,1.5-3.2c-0.8-9.1-1.5-18.2-2.4-27.2c-0.1-1-0.5-1.5-1.5-1.2c-1.1-1.6-0.6-2.4,1.3-2.4
		c14.1,0,28.3,0,42.4,0c1.4,0,2.2,0.5,2.4,2c0.3,3.5,1.1,7.1,1.1,10.6c0,6.3,1.6,12.4,1.2,18.7c-1.5-0.2-3.3,0.8-4.6-0.8
		c-1.4-3.9-1-8.1-1.6-12.1c-0.5-3.6-0.6-7.3-1-11c-0.2-2.2-1.3-3-3.5-3c-8.9,0.1-17.9,0.1-26.8,0c-2.2,0-3,0.8-2.8,3
		c0.5,6.8,1.1,13.7,1.8,20.5c0.2,2,1.1,2.8,3.1,2.8c4.4,0,8.8,0,13.1,0c2,0.2,3.9,0,5.9,0.4c4.5,0.9,4.5,0.8,5,5.3
		c0-0.4,0.1,0.1,0,0c-0.3-3.3,1-5.1,4.5-5.1c2.3,0,4.6,0,6.8,0.1c0.6,2.2,1.5,3.9,4.3,3.2c1.3,1.6,1,3.6,1,5.5c0,36,0,72.1,0,108.1
		c0,17.4,0,34.8,0,52.3c0,1.7,0.2,3.4-0.7,5c-2.5,1.7-5.4,0.8-8.1,0.9c-10.4,0.2-20.9,0.1-31.3,0.1c-18.6,0-37.2,0-55.8,0
		c-1.8,0-3.6,0.2-5.2-1c-3.2-8.4-6.4-16.7-9.7-25.1c1-0.6,2.1-0.4,3.2-0.4c30.9,0,61.7,0,92.6,0c0.7,0,1.4,0,2.1,0
		c2.3,0.1,3.3-0.9,3.3-3.2c0-10.9,0.1-21.7-0.1-32.6c0-3.6-0.7-4.2-4.3-4.2c-10.5,0-20.9,0-31.4,0c-1.9,0-3.4,0.7-5,1.6
		c-1.7-0.8-3.6-1-5.5-1c-7.8-0.1-15.6,0.3-23.4-0.2c-4.1-0.6-8.2-0.3-12.2-0.3c-8-0.1-15.9,0-23.9,0c-4,0-4.1,0.1-4.1,4.2
		c0,2.5,0,5,0,7.5C801.8,423.1,801.9,424.5,800.8,425.4z"/>
	<path class="st6" d="M224.2,385.7c17.8,6.5,36.1,11.3,54,17.5c5.2,1.8,10.3,3.5,15.2,6c1.5,0.8,3.1,1.5,3.9,3
		c0.1,0.8-0.4,1.3-1,1.7c-6.5,4.6-12.9,9.2-19.4,13.7c-6.2,0.4-12.3,0.4-18.5-0.1c-8.2-0.5-16.4-1.2-24.7-2
		c-6.3-0.6-12.6-1.4-19-2.2c-1.4-0.2-2.7-0.6-4.4,0c8.3,19.8,15.9,39.7,19.9,60.8c0.1,1.2,0.1,2.3,0.5,3.4c0.2,2.7,0.7,5.4-0.5,7.9
		c-0.9,1.2-2,1.2-3.2,0.6c-8.8-5-18.1-9-26.7-14.4c-4.9-6.3-8.9-13.2-13-20c-7.6-12.7-14.7-25.7-20.1-39.6c-3-7.7-5.3-15.6-5.9-24
		c-0.2-2.3,0.3-4.6,0.8-6.8c2.2-9.8,7.4-17.7,14.9-24.2c0.5-0.4,1-0.7,1.6-0.7c0.8,0.1,1.2,0.7,1.3,1.4c0.7,4.4,3.8,7.1,7,9.7
		c4.6,3.8,9.7,6.9,15,9.5c3.6,1.8,7.4,1.9,11.3,1.2c2.7-0.4,4.2-2.5,6.1-3.9C221.3,384.2,223,384.2,224.2,385.7z"/>
	<path class="st9" d="M793.8,295c-13.2,0.8-26.4,1-39.5,1.3c-5.2,0.1-10.3,0.3-15.5,0.5c-0.5-11.4-0.6-22.7-1.5-34.1
		c-0.1-1.8-0.2-3.6-0.3-5.3c0.3-0.6,0.5-1.3,0.9-1.9c4.9-6.2,6.9-13.5,8.6-21c0.5-1.7,1.1-3.5,0.9-5.3c1-7,0.4-13.8-1.2-20.6
		c-0.6-2.4-1.3-4.6-3.2-6.3c-0.4-2.6,1.8-2.7,3.4-3.3c0.2-0.1,0.5-0.2,0.7-0.3c2.4-1,4.2,0.3,5.9,1.7c4.9,4.3,9.8,8.7,15.5,12
		c1.8,1,3.7,1.8,5.7,2.5c8,2.6,12.2-2.4,13.7-8.7c0.5-2.2-0.1-4.3-1.5-6.2c-0.7-0.9-1.8-1.6-1.8-3c2.8-0.6,4,1.2,4.7,3.4
		c1.9,5.9,2.5,12,3,18.2c1.7,21.9,1.9,43.8,1.8,65.8C794.2,288,792.6,291.5,793.8,295z"/>
	<path class="st4" d="M920.4,475.5c0-57,0-113.9,0-170.9c7.2,0,14.3,0.1,21.5-0.1c2.8-0.1,3.7,0.7,3.7,3.6
		c-0.1,47.7-0.1,95.5-0.1,143.2c0,7.2-0.1,14.3,0,21.5c0,2.1-0.6,2.8-2.7,2.7c-2.1-0.1-4.2,0-6.3,0c-0.7,0.6-1.5,0.9-2.5,0.9
		c-3.8,0.1-7.5,0.1-11.3,0C921.9,476.3,921,476.2,920.4,475.5z"/>
	<path class="st5" d="M77.9,191.7c1.2-2.7,3.2-3.7,6.1-3.7c14.5,0.1,29.1,0,43.6,0c4.4,0,5.5,0.7,7.1,4.9c1,1.1,0.9,2.5,0.9,3.8
		c0.2,13.7,0.1,27.4,0,41.1c0,5-2.5,7.8-7,7.9c-15.2,0.1-30.4,0.2-45.6-0.1c-2-0.4-3.9-1.1-5-3c-0.4-0.7-0.6-1.4-0.7-2.1
		c-0.2-14.8-0.2-29.7-0.2-44.5C77,194.5,77.5,193.1,77.9,191.7z"/>
	<path class="st10" d="M344.4,484.4c0-4.8,0.1-9.6,0.1-14.3c0-28.5,0-56.9,0-85.4c0-0.8,0-1.6,0-2.4c-0.1-1.4,0.8-1.6,1.9-1.6
		c1.1,0,1.7,0.3,1.7,1.5c0,0.8,0,1.6,0,2.4c0,39,0,78,0,117.1c0,4.5,0,4.5,4.4,4.5c96.5,0,192.9,0,289.4,0c4.4,0,4.4,0,4.4-4.4
		c0-86.5,0-173,0-259.5c0-0.9,0-1.8,0-2.7c0-1.4,1-1.3,1.9-1.3c0.9,0,1.9-0.1,1.9,1.3c0,0.9,0,1.8,0,2.7c0,79.4,0,158.9,0,238.3
		c0,1.3,0.1,2.6,0.1,3.9c0.3,0.3,0.5,0.6,0.7,0.9c0.7,4.9,0.2,9.8,0.3,14.7c0,1,0,2-0.1,3.1c0,0.3,0,0.7-0.1,1
		c-0.2,1.2-0.5,2.3-1,3.3c-0.5,1-1.1,1.8-2.1,2.4c-2.5,1.4-5.2,1.3-7.9,1.3c-41,0-82,0-123,0c-54.1,0-108.3,0-162.4,0
		c-3.1,0-6.2,0.1-8.9-1.9c-1.3-1-1.6-2.5-2-3.9c-0.3-1.1-0.3-2.2-0.3-3.3c0-5.5-0.4-11.1,0.2-16.6C344,485,344.2,484.7,344.4,484.4z
		"/>
	<path class="st7" d="M787.4,118.8c-8,0-15.9,0-23.9,0c-4.1,0-4.5-0.4-4.5-4.4c0-16.1,0-32.2,0.1-48.4c0-3.5,0.5-4,3.9-4
		c16.2,0,32.4,0,48.7,0c3.6,0,4.1,0.6,4.1,4.2c0,16.1,0,32.2-0.1,48.4c0,3.6-0.7,4.2-4.1,4.2C803.5,118.8,795.5,118.8,787.4,118.8z"
		/>
	<path class="st7" d="M233,81.2c8.4,0,16.7,0.1,25.1,0c2.7,0,3.8,1.1,3.8,3.7c-0.2,16.8-0.3,33.6-0.4,50.4c0,1.9-0.8,2.7-2.7,2.7
		c-17,0-34-0.1-51.1-0.1c-2.5,0-3-1.5-3-3.5c0-4.2,0.1-8.4,0.1-12.5c0-11.9,0-23.9,0-35.8c0-4.5,0.4-4.9,5-4.9
		C217.5,81.1,225.2,81.1,233,81.2C233,81.1,233,81.2,233,81.2z"/>
	<path class="st5" d="M908,231.2c-8.4,0-16.7-0.1-25.1,0c-2.4,0-3.4-0.7-3.3-3.2c0.1-16.8,0.1-33.6,0-50.5c0-2.3,0.7-3.2,3.1-3.2
		c16.9,0.1,33.8,0,50.8,0c2.1,0,3,0.7,3,3c-0.1,17-0.1,34,0,51.1c0,2.3-1,2.9-3.1,2.8C925,231.2,916.5,231.2,908,231.2z"/>
	<path class="st9" d="M219.5,384.7c-2.9,4.5-9.8,6.4-15.9,3.7c-7.9-3.4-15.1-8-21.1-14.3c-2.1-2.2-3-4.8-3.1-7.8
		c0.1-2,1.6-3.4,2.4-5c4.7-9.2,8.3-18.9,12.8-28.1c2.2-5.2,5.2-9.9,8.5-14.4c2.2-2.8,5-4.8,8.1-6.3c4.1-1.7,8.3-2.6,12.7-3.2
		c1-0.1,2.3-0.2,2.7,0.8c0.5,1.1-0.8,1.6-1.5,2.2c-0.9,0.8-1.9,1.5-2.7,2.3c-2.2,2.1-2.2,2.4,0.5,3.6c3.3,1.5,6.2,3.5,8.8,6
		c1.9,1.8,3.4,3.9,4.8,6.1c0.7,1.2,1.3,1.4,2.5,0.3c2.6-2.5,5.4-4.3,9.3-4.1c2,0.1,2.1-0.9,1.6-2.5c-1.2-3.3-2.9-6.3-5.3-8.9
		c-0.9-1-2.3-1.7-2.1-3.4c4.7,0.3,7.3,3.5,9.6,7.1c0.6,0.6,1.1,1.2,1.3,2.1c1.3,4.7,0.7,9.4,0,14c-0.3,1.4-0.7,2.7-1,4
		c-1.6,6.4-3.9,12.2-9.7,16.2c-5.2,3.6-9,8.7-12.8,13.6c-0.8,1-1.5,2.1-2.9,2.4c-2.8-0.2-3.5-2.2-3.8-4.5
		c-0.8-5.8-0.9-11.7-1.2-17.5c-0.3-6.6-0.7-13.1-1.3-19.6c-0.2-2.4-0.7-4.7-1.6-7c-1.2-3-3.1-4.2-6.5-4.1c-3.3,0-5.4,1.4-6.5,4.3
		c-1.2,3.2-1.1,6.5-0.8,9.7c1.4,12.2,3.2,24.4,4.5,36.7c0.6,6.1,3.2,10.8,8.6,13.8C218.7,383.5,219.3,384,219.5,384.7z"/>
	<path class="st9" d="M563.4,278.9c-19.7,0-39.4,0-59.1,0.1c-2.5,0-3.3-0.6-3.1-3.1c0.2-4.2,0.2-8.4,0-12.5
		c-0.1-2.2,0.6-2.9,2.9-2.9c10.9,0.1,21.9,0.1,32.9,0.1c28.7,0,57.3,0,86-0.1c3,0,3.7,0.8,3.5,3.7c-0.3,4-0.2,8,0,11.9
		c0.1,2.4-0.6,3-3,3C603.4,278.9,583.4,278.9,563.4,278.9z"/>
	<path class="st11" d="M78.5,242.5c0.9,1.2,2.3,1.8,3.7,2.4c1.7,3.9,1.5,8.2,2,12.3c0.7,5.9,1.3,11.9,1.9,17.8c0.1,0.8,0.2,1.7,1,2
		c1.1,0.4,1.6-0.6,2.1-1.2c3.4-4,6.6-8.2,10.1-12.2c1.6-1.9,3.2-4,6.3-3c0.9,0.4,1.6,1.2,2.3,1.9c2.7,3,2.5,4.8-1,6.7
		c-0.6,0.3-1.5,0.5-1.4,1.3c0.1,0.8,0.9,1,1.6,1.1c1.9,0.5,3.9,0.6,5.9,1.1c1.4,0.4,3,0.7,3,2.4c0.1,1.8-1.5,2.4-3,2.8
		c-0.4,0.1-0.9,0.2-1,0.2c4.7-0.2,9.6,0,14.6-0.1c0.9,0,2.3,0.7,2.7-1c2.2-5.3,5.6-9.9,8.4-14.9c1.3-2.3,2.7-2.3,5.2-1
		c0.3,0.5,0.3,1.1,0.6,1.7c1.7,3.6,1.7,3.6-1.2,6.4c-1.3,1.3-0.9,2,0.6,2.6c0.8,0.3,1.8,0.3,2.6,0.5c1.5,0.4,3,1,3.4,2.6
		c0.4,1.6-0.9,2.4-2.3,3.3c3.7-0.1,7.3,0.1,11.2-0.1c-1.9-3.6-5.8-5-7-8.7c5.1-7.9,10.3-15.8,15.7-23.6c2.2-3.2,5.3-3.7,8.2-1.8
		c1.7,2.4,4,4.4,5.2,7.2c1.5,3.5,0.9,5.5-2.6,7.3c-1.2,0.6-2.6,1-3.8,1.7c-0.9,0.5-1.7,1.1-1.6,2.3c0.1,1.2,0.9,1.7,1.8,2.1
		c1.9,0.8,4,1.2,6,1.6c2.3,0.5,4.7,0.8,6.9,1.7c1.9,0.7,3.7,1.7,3.8,4.1c0.1,2.2-1.4,3.4-3.2,4.2c-1.6,0.8-3.3,1.4-5,1.8
		c7.1,0,14.2,0,21.3,0c0.9,0,1.8,0.1,2.6,0.6c0.9,2.2,1.6,4.4,2.8,6.4c0.7,1.2,1.1,2.7-1.1,3c-13.9,0.1-27.9,0.1-41.8,0
		c-10.3,0.2-20.6,0-30.9,0.1c-0.7,0-1.4,0-2-0.4c-1-1-2.3-0.6-3.4-0.6c-15.2,0-30.4,0-45.6,0c-1.8-0.9-2.4-2.5-2.6-4.4
		c-1.4-12.5-2.7-25-4-37.5C77.3,244.3,76.9,243,78.5,242.5z"/>
	<path class="st9" d="M497.2,60.3c48.6,0,97.2,0,145.7,0c5.6,0,7.1,1.5,7.1,7.1c0,19,0,38,0,57c0,0.5,0,1,0,1.5
		c0,1.1-0.6,1.5-1.7,1.6c-1.2,0-2-0.2-2-1.6c0-1.2,0-2.4,0-3.6c0-17.9,0-35.8,0-53.8c0-4.6,0-4.6-4.5-4.6c-96.3,0-192.5,0-288.8,0
		c-5,0-5,0-5,4.8c0,69.2,0,138.4,0,207.6c0,1.3,1,3.5-1.9,3.3c-1.1-0.1-1.7-0.3-1.6-1.5c0-0.7,0-1.4,0-2.1c0-69.4,0-138.8,0-208.2
		c0-0.4,0-0.8,0-1.2c0.1-4.5,1.8-6.3,6.4-6.3c20.8,0,41.6,0,62.4,0C441.3,60.3,469.3,60.3,497.2,60.3z"/>
	<path class="st9" d="M432.8,382.3c17.9,0,35.8,0.1,53.7-0.1c2.5,0,3.2,0.7,3.1,3.1c-0.2,4.3-0.1,8.6,0,12.8
		c0.1,1.9-0.4,2.6-2.4,2.6c-36.1-0.1-72.3-0.1-108.4,0c-2,0-2.6-0.7-2.5-2.6c0.1-4.4,0.2-8.8,0-13.1c-0.1-2.2,0.6-2.8,2.8-2.8
		C397,382.3,414.9,382.3,432.8,382.3z"/>
	<path class="st2" d="M165.8,287.3c13.1,0,26.2,0,39.3,0c1.1,0,2.2-0.4,3.1,0.5c0.3,2.3-1.8,2.5-3.1,3.4c-1.3,0.9-3.7,0.9-3.6,3.1
		c0.2,2.4,1.9,4.1,4,5.2c1.9,0.9,3.7,0.5,5.3-0.8c3.1-2.4,4.7-5.6,4.5-9.6c0-0.9-0.2-1.8-0.1-2.7c0.2-1.5,0.9-2,2.5-1.6
		c4.3,1.3,4.4,1.2,7.1-2.4c0.6-0.8,1-1.8,2.2-1.8c1,0.6,0.9,1.6,1.1,2.5c-0.2,5.3,1.8,9.9,4.3,14.3c1.3,2.3,2,4.7,1.6,7.4
		c-0.7,2.7-2.1,4.9-4.1,6.8c-1.4,1.3-1.3,2.4-0.3,3.9c2.1,3.2,4.6,6,7,8.9c1.5,1.8,2.9,1.8,5.1,0.1c2.1-1.6,2.5-3.1,1.2-5.1
		c-0.9-1.3-2-2.5-2.3-4.1c-0.4-1.5-0.9-3.2,1.1-4.1c0.2,0.2,0.3,0.4,0.5,0.6c3.9,3.8,6.9,8.1,8.6,13.4c0.4,1.4,0.4,2-1.3,1.9
		c-5.1-0.4-8.9,2.1-12.1,6.4c-4.1-7.8-10.1-13.2-18.4-16.1c2-3,4.6-5,8-7.5c-6,0.2-10.9,1.7-15.9,3.1c-2.1,0.9-4.3,1.1-6.4,0.6
		c-3.6-0.9-7.2-0.4-10.8-0.1c-4.1,0.3-8.2,1-12.3-0.7c-1.8-0.7-3.6,0.7-5.5,0.7c-2.6,0.1-5.1,0.7-7.6-0.3c-0.5-0.2-1-0.1-1.5,0
		c-3.3,0.5-3.4,0.4-4.5-3.1c0.3-7.2,1.4-14.4,2.4-21.5C165.2,288.1,165.5,287.7,165.8,287.3z"/>
	<path class="st12" d="M219.5,384.7c-8.4-3.1-10.3-10.1-11.2-18.1c-1.1-11-2.6-21.9-3.9-32.8c-0.4-3.4-0.5-6.7,0.3-10.1
		c0.8-3.7,3-5.6,6.9-5.9c4.7-0.4,6.7,0.8,8.2,4.8c1.6,4.2,1.9,8.7,2.2,13.2c0.7,10.2,1.2,20.4,1.8,30.6c0.1,2.3,0.6,4.4,3.6,4.5
		c1.9-0.5,3.8-0.4,5.6-0.2c9.8,1,19.6,1.7,29.4,2.4c3,0.2,6.2-0.2,9,1.3c0.3,2.3,1.6,3.2,3.9,3.1c1-0.1,2,0.1,2.9,0.1
		c0.2,2.6,2.1,3.1,4.2,3.2c1.9,0.1,3.8,0,5.7,0c0.5,0,1-0.1,1.2,0.6c0.1,0.6-0.3,0.9-0.7,1.2c-3.3,1.9-6.5,3.8-9.8,5.7
		c-0.7,0.4-1.3,0.1-2,0c-4.2-0.9-8.2-2.3-12.2-3.5c-3-1-6.6-0.3-10,0c-8.8,0.7-17.7,0.5-26.5,0.5c-1.3,0-2.6-0.3-3.8,0.3
		C222.7,385.3,221.1,385,219.5,384.7z"/>
	<path class="st13" d="M742.9,201.8c1.2-0.2,1.8,0.5,2.3,1.5c2.1,4.4,2.7,9.1,3.3,13.9c0.5,4.1,0,8.1-0.2,12.1
		c-0.5,1.7-0.7,3.4-1.4,5c-1.6,4.2-4.2,7.8-6.6,11.6c-1.4,2.2-2.9,4.3-2.7,7c0,0.6-0.2,1.2-0.8,1.5c-0.8-0.8-0.1-2-0.8-2.9
		c-2.2,2.7-4.5,5.3-6.6,8c-1.4,1.7-3.1,3.1-4.8,4.4c-2.2,1.7-4.5,2.1-7.3,1.3c-6.1-2-11.5-5.3-16.9-8.6c-6.7-4.1-12.8-9-19.3-13.4
		c2.1-2.6,3.2-5.7,4.8-8.6c1.3-0.9,2.5-0.1,3.6,0.5c8,3.6,16,7.1,23.9,10.8c1.7,0.8,2.6,0.6,3.6-1.1c2.8-4.6,4.9-9.5,7.5-14.3
		c3.4-6.4,7.3-12.6,10.3-19.2c2.1-2.2,3.3-5,5.2-7.4C740.8,202.9,741.3,201.6,742.9,201.8z"/>
	<path class="st14" d="M203.7,319c-3.3,4.5-6,9.4-8.6,14.3c-1,0.3-1.9,0.4-2.9,0.4c-18.2,0-36.4,0-54.6,0c-1.2,0-2.4,0-3.6-0.2
		c-3.6-0.6-7.2-0.6-10.8,0c-5.5,0.5-10.9,0.2-16.4,0.2c-0.8,0-1.6-0.1-2.3-0.6c-0.3-0.3-0.4-0.6-0.3-1c2.5-1.5,5.2-0.7,7.9-0.8
		c4.3-0.1,4.4-0.1,4.4-4.3c-0.1-7.9,0.9-6.9-7-7.1c-4.2-0.1-8.5,0.7-12.8-0.6c-0.3-0.2-0.4-0.6-0.3-0.9c8.8,0,17.5,0,26.3,0
		c6.2-0.6,12.3-0.3,18.5-0.3c19.2-0.1,38.4-0.1,57.6,0C200.5,318,202.3,317.6,203.7,319z"/>
	<path class="st12" d="M308.6,483.8c0,0.2,0,0.4,0,0.6c0.2,0.3,0.4,0.6,0.5,0.9c0.4,3.2,1.5,6.3,0.6,9.5c-4.1,1.8-8.5,1.6-12.8,1.4
		c-1.9-1.7-1.9-4.2-2.8-6.4c-0.6-1.5-1.1-3.2-1.6-4.8c-0.1-0.3-0.2-0.6-0.3-1c-4.5-15.7-7.7-31.6-9.4-47.8c-0.1-1-0.2-2,0.2-2.9
		c6.6,0.4,11.7-3.6,17.5-5.6c0.7-0.2,1.2-1.2,2.1-0.6c1.6,3.8,1.4,8,1.9,12c1.3,10.9,2.3,21.9,3.5,32.9
		C308.5,475.9,308.9,479.9,308.6,483.8z"/>
	<path class="st6" d="M745.3,173.3c-2.4-1.6-3.4-3.5-2.5-6.5c0.6-2,0.2-4.3,0.2-6.5c0-5.3,2.9-8.5,8.1-8.6c2.2,0,4.1-0.4,6.2-1.2
		c9-3.6,21.4,4,22.7,13.6c0.9,6.9-0.1,13.4-3.6,19.5c-0.3,0.5-0.9,1.2-0.8,1.6c1.6,4.7-2,4.7-4.8,5.4c-0.3,0.1-0.6,0.1-0.9,0.1
		c-5.2,2.1-11-0.8-12.2-6.2c-0.1-0.6-0.2-1.2-0.5-1.7c-1.8-2.6-2.3-5.3-1.3-8.4c0.2-0.7,0.1-1.6-0.2-2.3c-0.3-1-0.9-1.8-2-1.9
		c-1.3-0.1-1.5,1-1.9,2c-0.5,1.4,0.4,3.9-1.4,4.1C748.4,176.3,746.6,174.9,745.3,173.3z"/>
	<path class="st5" d="M463.3,464.7c-7.9,0-15.7-0.1-23.6,0c-2.1,0-2.7-0.6-2.7-2.7c0.1-4.6,0.1-9.2,0-13.7c0-1.5,0.4-2.1,2-2.1
		c16.2,0,32.4,0,48.6,0c1.5,0,1.9,0.6,1.9,1.9c-0.1,4.9-0.1,9.8,0,14.6c0,2-1.1,1.9-2.5,1.9C479.2,464.7,471.3,464.7,463.3,464.7z"
		/>
	<path class="st5" d="M527.2,342.9c-7.9,0-15.7-0.1-23.6,0c-1.9,0-2.6-0.5-2.6-2.5c0.1-4.5,0.1-8.9,0-13.4c0-2,0.7-2.6,2.6-2.6
		c15.8,0.1,31.6,0.1,47.4,0c2,0,2.6,0.6,2.5,2.6c-0.1,4.5-0.1,8.9,0,13.4c0.1,2-0.6,2.5-2.5,2.5
		C543.1,342.9,535.2,342.9,527.2,342.9z"/>
	<path class="st15" d="M165.8,287.3c-0.2,6.7-1.6,13.2-2.1,19.8c-0.1,1.2-0.2,2.3-0.3,3.5c-1.5,1.1-2.9,2.5-5,1.2
		c-0.5-0.3-1.2-0.2-1.7,0.3c-0.9,0.9-1.8,1.2-2.7,0.1c-0.3-0.3-0.8-0.6-1.1-0.4c-2.8,1.8-5.5-0.4-8.2-0.1c-1.5,0.2-5.4,2.9-5.6,4.6
		c-0.3,2.1-1.4,2.5-3.2,2.4c-3.7-0.1-7.3,0-11,0c-1.5,0-2.4-0.4-1.6-2.1c3.8-0.4,4.3-3.1,4.9-6.2c1.4-7.5,3.1-15,4.7-22.4
		c1.2-0.7,2.5-0.6,3.7-0.6C146.4,287.3,156.1,287.3,165.8,287.3z"/>
	<path class="st12" d="M241.8,311.2c-1.5,2.7-0.5,5.1,1.4,7c1.4,1.5,2.2,3,1.1,4.8c-1.2,2.1-3.2,3.2-5.5,3.7c-1,0.2-1.6-0.7-2.2-1.4
		c-3-3.4-5.8-6.8-8.3-10.5c-1-1.5-0.9-2.2,0.6-3.3c2.2-1.6,3.3-4.2,4.5-6.6c0.6-1.3,0.5-2.7,1.1-4c0.8-2.1,0.5-4-1.4-5.6
		c-1.4-1.1-2.5-2.5-2.7-4.5c-0.2-1.7,0.1-3.2,1.6-4.2c1.3-0.9,2.9-1.1,4.2-0.1c1,0.7,1.4,0.5,2.1-0.2c3.6-3.9,8.4-5.9,13-8.2
		c2.1-1.1,4.4-1.7,6.1-3.6c1.1-1.3,2-0.1,2.6,0.7c1.9,2.3,2.3,5.2,3,8c-1,4.2-0.1,8.4-1,12.7c-1.5,7.6-7.7,13.4-14.6,12.9
		c-1.4-0.1-2.7-0.6-4-0.8c-2.1-0.3-3.2-2.1-4.8-3.4c0.4,2.4,2.4,3.6,3.6,5.3C242,310.4,241.9,310.8,241.8,311.2z"/>
	<path class="st3" d="M96.5,319c6,0,12.1,0.1,18.1,0c2.3-0.1,3,0.7,2.8,2.9c-0.2,2.4-0.2,4.8,0,7.1c0.2,2.4-0.5,3.4-3.1,3.2
		c-3.4-0.2-6.7-0.1-10.1-0.1c-2.3-1.9-0.8-4.5-1-6.7c-0.1-0.4-0.5,0.2-0.2,0c0.2-0.1,0.3,0,0.3,0.1c-0.2,1.7-0.4,3.5-0.3,5.3
		c0.1,1-0.2,2-1.4,2.3c-9.8,0-19.6,0-29.5,0c-0.9,0-1.8,0-2.6-0.4c-3.4,0-6.8,0-10.2,0c-0.8-0.9-1.9-0.7-2.8-0.6
		c-2.4,0.3-3.4-0.5-3.2-3.1c0.2-2.6,0.1-5.2,0-7.7c-0.1-1.9,0.7-2.4,2.4-2.4c5.6,0.1,11.1,0,16.7,0c1-0.9,2.2-0.9,3.3-0.9
		c5.7,0,11.5,0,17.2,0C94.4,318,95.5,318.1,96.5,319z"/>
	<path class="st6" d="M226.8,280.7c-0.2,0.2-0.4,0.5-0.5,0.7c-3.3,5.7-4,6-10,3.6c-0.6,1.2-0.2,2.5-0.1,3.7
		c0.3,4.7-1.7,8.3-5.5,10.9c-2,1.3-4.1,1.4-6.1,0.2c-2.2-1.4-3.7-3.3-4.1-5.9c-0.2-1.4,1.1-2,2.2-2.5c2-1,4.3-1.5,5.5-3.7
		c1.3-1.5,0-2.6-0.8-3.5c-1.3-1.6-2-3.3-1.6-5.4c0.1-2.4,1.9-3.5,3.4-4.8c2.8-1.6,4-3.7,3.2-7.1c-0.8-3.2,0.6-6.2,2.2-9
		c1.2-1.7,2.4-3.3,4.4-4.1c8.6-4.9,15.9-1.8,19.6,8.4c-1.3,2.3-3.8,3.2-5.6,5c-0.8,0.8-1.8,1.5-2.5,2.5c-1.4,1.2-1.2,3-1.5,4.5
		c-0.4,1.4-0.8,2.8-1,4.2C227.9,279.3,227.6,280.2,226.8,280.7z"/>
	<path class="st16" d="M784.7,197.2c4.6,3.9,5.5,8.1,2.8,13.1c-3,5.6-6.9,7.3-12.8,5.6c-4.4-1.2-8.1-3.6-11.8-6.2
		c-3.2-2.3-6.3-4.8-9.1-7.7c-1.9-2-3.9-3.2-6.7-3.3c2.9-2.9,6.7-4.1,10.2-5.8c0.3-0.4,0.7-0.7,1.2-0.9c3.7-1.2,7.4-1.5,11.2-0.9
		C775.8,190.7,780.2,194.1,784.7,197.2z"/>
	<path class="st3" d="M308.6,483.8c-0.8-7-1.6-13.9-2.4-20.9c-1.4-12-2.2-24-4.1-35.9c-1.4-2.1-1.3-4.6-2.1-6.8c1.1-2,1.1-4-0.6-5.8
		c-0.5-0.5-0.9-1.3-0.5-2.1c0-9.4,0.1-18.9,0-28.3c0-2.4,0.8-3,3.1-3c7.2,0.1,7.2,0,7.2,7.2c0,30.7,0,61.5,0,92.2
		C309.2,481.6,309.6,482.9,308.6,483.8z"/>
	<path class="st17" d="M458.4,438.4c-9.4,0-18.7-0.1-28,0.1c-2.8,0-3.6-0.9-3.5-3.6c0.1-6.6,0-6.6,6.6-6.6c17.6,0,35.2,0,52.8-0.1
		c2.5,0,3.5,0.4,3.4,3.2c-0.2,7,0,7-7.1,7C474.5,438.4,466.5,438.4,458.4,438.4z"/>
	<path class="st17" d="M532.6,306.4c9.4,0,18.7,0.1,28.1,0c2.2,0,3.2,0.4,3.1,2.9c-0.1,7.2,0,7.2-7.1,7.2c-17.3,0-34.6-0.1-51.9,0.1
		c-2.8,0-3.9-0.8-3.8-3.7c0.2-7.4-0.8-6.5,6.6-6.5C515.9,306.4,524.2,306.4,532.6,306.4z"/>
	<path class="st6" d="M263,283.3c-1.3-0.3-0.9-1.4-1.2-2.2c-0.8-2.5-1.6-5.1-4-7.2c0,1.9-1,2.6-2.4,3.1c-4.1,1.7-8.1,3.7-11.9,6
		c-1.9,1.1-3.8,2.2-5.1,4.1c-0.8,1.1-1.3,1-2.3,0.1c-1.1-1-2.5-1-3.9-0.1c-1.3,0.9-1.6,2.2-1.4,3.7c0.2,1.5,1,2.8,2.1,3.9
		c3.1,3,3.3,4.1,1.4,8.3c-0.3,0.7-0.7,1.4-1.1,2.1c0.3-4-1.6-7.3-3.5-10.7c-2-3.4-2.4-7.3-2.5-11.2c0.7-1.3-0.2-2.7,0.3-4
		c0.3-1.3,0.6-2.6,0.9-3.9c0.6-1.3,0.9-2.8,2.1-3.8c3.8-2,6.7-5.4,10.4-7.5c8.4-2,16.8,0.9,20.7,7.4
		C264.1,275.2,265.1,279.1,263,283.3z"/>
	<path class="st11" d="M219,253.8c-1.2,1.4-2.5,2.8-3.7,4.1c-1.7-0.5-1.7-2-1.9-3.4c-1.9-17.2-3.7-34.4-5.5-51.6
		c-0.5-5.1-1-5.6-5.9-5.6c-20.8,0-41.6,0-62.3,0c-1.7,0-3.4,0.3-4.9-0.9c0-1.2,0-2.4,0-3.6c24,0,47.9,0,71.9,0
		c6.5,0,5.7,1.1,6.3,5.8c1.4,11.1,2.5,22.3,3.6,33.5c0.7,6.7,1.2,13.4,1.8,20C218.4,252.8,218.4,253.4,219,253.8z"/>
	<path class="st8" d="M839.4,299.2c-5.1,0-10.1-0.1-15.2,0c-1.7,0-2.5-0.4-2.5-2.3c0.3-6.5,0.9-13,1.6-19.5c0.6-5.5,1-11,1.4-16.5
		c0-0.4,0-0.8,0-1.2c0.1-5.1,0.3-5.3,5.3-5.3c9.2,0,18.3,0.1,27.5,0c2.2,0,3.3,0.4,3.1,2.9c-0.8,7.6-1.6,15.1-2.3,22.7
		c-0.5,5.5-1,11-1.3,16.5c-0.1,2.1-0.6,2.8-2.7,2.7C849.4,299.2,844.4,299.2,839.4,299.2z"/>
	<path class="st11" d="M123.4,316.6c-0.1,1.2,0.4,1.8,1.7,1.8c3.8,0,7.5,0,11.3,0c0.7,0,1.9,0,1.7-0.7c-1-3.7,3.1-3.9,4-6.1
		c0.1-0.3,0.7-0.8,0.9-0.7c2.3,1.3,5.3-1.5,7.3,1.2c0.8,1.1,0.5-0.1,0.7-0.3c0.4-0.3,0.6-0.9,1-1c1.1-0.3,2-0.3,2.9,0.8
		c1.3,1.7,0.7-1.1,1.8-0.9c1,0.2,2,0,3,0.7c1.2,0.8,2.2-1.5,3.7-0.8c0.8,2.2,1.8,3.7,4,1.2c0.3-0.3,0.7-0.5,1-0.2
		c2.5,2.6,5.3,1,8.1,0.8c1.6-0.1,3-0.4,4.5-1c0.3-0.1,0.7-0.2,0.9,0c4.3,2.9,8.7,1.3,13.3,0.9c3.1-0.3,6.3-1.1,9.6,0.4
		c1.8,0.8,4.3,0.2,6.5,0.2c-2.8,1.7-5.3,3.7-7.5,6c-25.8,0-51.7,0-77.5-0.1c-1.1,0-2.4,0.5-3.4-0.6
		C122.8,317.7,122.7,317,123.4,316.6z"/>
	<path class="st17" d="M524,298c-6.7,0-13.3-0.1-20,0c-2.4,0-3.1-0.8-3.1-3.1c0.2-8.2-1-7,6.9-7c11.8-0.1,23.7,0.1,35.5-0.1
		c2.7,0,3.7,0.8,3.6,3.6c-0.1,6.6,0,6.6-6.5,6.6C535,298,529.5,298,524,298z"/>
	<path class="st17" d="M418,409.8c6.7,0,13.3,0.1,20,0c1.9,0,2.7,0.5,2.6,2.5c-0.2,9.1,1.2,7.6-7.5,7.6c-11.6,0.1-23.3,0-34.9,0.1
		c-2.7,0-3.7-0.7-3.6-3.5c0.2-7.7-0.9-6.6,6.7-6.6C406.9,409.7,412.5,409.8,418,409.8z"/>
	<path class="st17" d="M571.5,298c-6.7,0-13.3-0.1-20,0c-2,0-2.8-0.5-2.8-2.6c-0.1-7.5-0.1-7.5,7.4-7.5c11.7,0,23.4,0,35.2,0
		c2.1,0,3,0.5,3,2.8c0,7.4,0.1,7.4-7.3,7.4C581.8,298,576.6,298,571.5,298z"/>
	<path class="st17" d="M466.9,419.9c-6.7,0-13.3-0.1-20,0c-2,0-2.8-0.5-2.8-2.6c-0.1-7.5-0.1-7.5,7.4-7.5c11.7,0,23.4,0,35.2,0
		c2.1,0,2.9,0.5,2.9,2.8c0,7.4,0.1,7.4-7.3,7.4C477.2,419.9,472.1,419.9,466.9,419.9z"/>
	<path class="st18" d="M545.9,118.2c-6.8,0-13.5-0.1-20.3,0c-1.9,0-2.6-0.4-2.6-2.4c-0.1-7-0.2-7,7-7c12,0,24.1,0.1,36.1,0
		c2.3,0,3.1,0.5,3.1,2.9c-0.1,6.5,0,6.5-6.5,6.5C557,118.2,551.5,118.2,545.9,118.2z"/>
	<path class="st18" d="M603.4,118.2c-6.8,0-13.5-0.1-20.3,0c-1.9,0-2.8-0.3-2.8-2.6c0-6.9-0.1-6.9,6.8-6.9c11.9,0,23.9,0.1,35.8-0.1
		c2.8,0,3.6,0.9,3.5,3.6c-0.2,5.9,0,5.9-6,5.9C614.8,118.2,609.1,118.2,603.4,118.2z"/>
	<path class="st18" d="M488.6,118.2c-6.8,0-13.5-0.1-20.3,0c-1.9,0-2.6-0.5-2.6-2.5c0.2-8.3-1.2-6.9,6.9-6.9
		c12-0.1,24.1,0.1,36.1-0.1c2.6,0,3.2,0.8,3.1,3.2c-0.1,6.3,0,6.3-6.2,6.3C499.9,118.2,494.3,118.2,488.6,118.2z"/>
	<path class="st13" d="M711.3,178c9.2,6.5,18.5,13.1,28.1,19.1c-4.4,2.9-7.6,6.8-9.2,11.9c0,0.1-0.2,0.1-0.2,0.2
		c-2.8,0-4.4-2.3-6.1-3.8c-6.5-5.8-12.5-12.2-17.8-19.2c-0.5-0.6-1-1.2-1-2.1C707,181.8,708.2,178.9,711.3,178z"/>
	<path class="st15" d="M78.5,242.5c-0.9,1.1-0.2,2.2-0.1,3.4c0.7,6.5,1.3,12.9,2,19.4c0.6,6.1,1.2,12.2,1.9,18.2
		c0.2,1.4,0.8,2.6,1.7,3.7c-4.7,0-4.9-0.2-5.4-4.6c-1.2-11.6-2.4-23.2-3.6-34.7c-1.2-11.2-2.2-22.4-3.7-33.5
		c-0.8-6.2-1.2-12.4-2-18.5c-0.2-1.7,0.5-2.9,2.4-3c0.9,0,1.8,0,2.7,0c-0.4,9.4,1.6,18.6,2.3,27.8c0.5,6.8,0.8,13.7,1.1,20.5
		C78.1,241.7,78.3,242.1,78.5,242.5z"/>
	<path class="st19" d="M769.8,191.1c-3.9,0-7.7,0.8-11.4,1.7c-0.1-0.1-0.3-0.2-0.4-0.4c-0.7-2.3-2.1-2.9-4.2-1.8
		c-0.3,0.1-0.6,0.1-0.8-0.1c-3.5-1.6-5.3-4.6-6.4-8c-0.9-3-1.6-6.1-1.4-9.3c1.7,0.8,3.7,0.9,5.2,3.1c0.3-2.2,0.1-4,0.8-5.6
		c0.4-0.9,0.8-1.8,2-2c1.2-0.2,2.1,0.5,2.7,1.5c1.2,2,1.1,4.2,0.4,6.3c-0.2,0.6-1.1,1.3-0.6,1.9c2.1,2.5,2.5,5.5,3.4,8.4
		c0.6,1.9,2.7,2.5,4.5,3c2,0.6,4.1,0.6,6.2,0.6C769.8,190.7,769.8,190.9,769.8,191.1z"/>
	<path class="st20" d="M658.5,233.7c0.9-1.1,2.2-0.7,3.3-0.7c4.5,0,9,0,13.6,0c0.2-1.4-1.6-2.2-0.5-3.4c1-1.2,2.2-0.3,3.3-0.2
		c2.6,0.1,4.1,1.7,5.5,3.5c-1.4,2.9-1.8,6.4-4.8,8.4c-2.8,0.4-5.5,1.5-8.4,1.7c-1.4,0.1-3,0.2-4-0.7
		C663.7,239.6,660.6,237.2,658.5,233.7z"/>
	<path class="st21" d="M96.5,319c-8,0-15.9,0-23.9,0c0.1-6.1,3-8.9,9-9c1.9,0,3.7,0,5.6-0.5c4.6-1,10.4,2.6,9.3,8.8
		C96.5,318.6,96.5,318.8,96.5,319z"/>
	<path class="st22" d="M920.4,475.5c5.4,0,10.8,0,16.1,0c-0.4,2.8-0.8,5.6-1.2,8.4c-7.6,0.6-15.1,0.3-22.7,0.1
		c-1.5-2.8-1.4-5.7,0-8.5C915.2,475.5,917.8,475.5,920.4,475.5z"/>
	<path class="st9" d="M298.9,412.4c0.7,1.1,1.2,2.2,2,3.2c1.4,1.7,1.3,3.1-0.6,4.3c-0.5,1.3-1.8,1.8-2.8,2.5
		c-4.7,3.1-9.2,6.4-14,9.2c-3-0.3-4.4-2.6-5.8-4.8c3-3.4,7.1-5.3,10.6-8c3-2.3,6-4.4,9.1-6.6C297.9,412.3,298.4,412.3,298.9,412.4z"
		/>
	<path class="st9" d="M416.5,116.4c-3,2.1-5.8,2.5-8.6,0.4c-2.6-2-3.1-4.8-2.6-7.8c0.7-4.6,5.1-7,9.4-5.1c0.8,0.3,1.3,1.1,2.4,0
		c1.4-1.5,2.6-0.4,2.6,1.4c0.1,4.3,0.1,8.5,0,12.8c-0.1,2.3-1.4,3.9-3.5,4.8c-2.7,1.2-5.4,0.9-8.1-0.2c-0.9-0.3-1.6-0.9-1.2-2
		c0.4-1.1,1.2-1.5,2.4-0.9c0.8,0.4,1.7,0.7,2.5,0.8C414.5,121,416,119.8,416.5,116.4z"/>
	<path class="st23" d="M700.6,179.2c-1.4-1.1-2.8-2.2-4.1-3.4c-0.4-0.3-0.7-1.2-0.5-1.6c0.3-0.7,1-0.4,1.5-0.1c2,1,2.5,0.2,2.4-1.8
		c-0.1-3.5,0-6.9,0-10.4c0-1.1,0-2.2,0.6-3.1c2.6,2.4,4.6,5.4,6.9,8c2.1,2.3,1.6,5.8,1.8,8.8c-1.5,2.4-2.9,5-5.7,6.2
		C702.3,181.3,701.3,180.4,700.6,179.2z"/>
	<path class="st24" d="M911.3,85.9c-3.7,0.4-7.4,0.8-11.2,1.1c-1.5,0.1-2,0.7-2.1,2.2c-0.3,3.1-0.7,6.3-1.1,9.4
		c-0.5,0.3,0.1,1.5-1.1,1.2c-0.3-3.4-0.7-6.7-0.9-10.1c-0.1-2.2-1.4-2.7-3.3-2.9c-3.5-0.4-6.9-0.8-10.4-1.2c-0.3,0-0.5-0.2-1-0.5
		c4.2-0.4,8.1-1,12.1-1.2c2.2-0.1,2.6-1.2,2.8-2.9c0.4-4.2,0.9-8.5,1.7-12.7c0.4,4.3,1,8.7,1.2,13c0.1,1.9,0.7,2.5,2.6,2.7
		c3,0.2,5.9,0.7,8.9,1C910,85.5,911.5,84.3,911.3,85.9z"/>
	<path class="st25" d="M863,302.8c-0.7,0.7-0.8,2.2-2.4,1.8c0.5-9.1,1.4-18.1,2.3-27.2c0.6-5.5,0.8-11,1.3-16.6
		c0.3-3.3,0.5-6.7,0.9-10c0.1-0.8,0.3-2,1.6-1.7c1.3,0.3,0.4,1.3,0.4,2c-0.1,9-1.5,17.9-2.3,26.9c-0.5,5.4-0.9,10.8-1.2,16.3
		C863.5,297.1,862.6,299.9,863,302.8z"/>
	<path class="st26" d="M77.9,241.2c-1.1-3.6-0.5-7.4-1-11.1c-1.2-8.7-2-17.4-3-26.1c-0.3-2.3-0.4-4.7-0.7-7.1
		c-0.2-1.5,0.1-2.9,1.2-4.1c1.3,0,2.7,0.3,3.5-1.2C77.9,208.2,77.9,224.7,77.9,241.2z"/>
	<path class="st27" d="M429.5,118.2c-4.4,0.1-7.5-3.1-7.5-7.5c0-4.3,3-7.4,7.2-7.5c4.3-0.1,7.7,3,7.8,7.3
		C437,114.8,433.8,118.2,429.5,118.2z"/>
	<path class="st27" d="M396,103.3c4.3,0,7.6,3.3,7.5,7.6c-0.1,4.3-3.4,7.4-7.7,7.3c-4.3-0.1-7.2-3.2-7.2-7.4
		C388.5,106.4,391.6,103.2,396,103.3z"/>
	<path class="st28" d="M729.8,208.9c1.3-5.4,3.9-9.8,9.5-11.8c2.3,1,4.7,1.4,7.1,1.9c-1.2,1-2.4,1.9-3.5,2.9c-2.5,2.1-3.8,5-5.6,7.6
		c-0.6,0.9-1,2-2.3,2.1C732.7,212,730.9,211,729.8,208.9z"/>
	<path class="st29" d="M252.5,320.8c-0.2-0.6-0.4-1.2-0.6-1.9c5.2,0,10.3-0.2,15.5,0.1c2.8,0.1,3.8-0.6,3.7-3.6
		c-0.2-9.1-0.1-18.2-0.1-27.4c0-1.1-0.4-2.2,0.5-3.1c0,13.1,0,26.2,0,39.2c-5.7,0.9-11.2,0.5-16.6-1.6
		C253.9,322.2,253,321.7,252.5,320.8z"/>
	<path class="st30" d="M97.1,106.9c2.9-0.2,5.7-0.5,8.6-0.6c1.5-0.1,2.1-0.5,2.2-2c0.3-3,0.8-6,1.3-9.9c1.3,3,0.9,5.3,1,7.6
		c0.3,4.3,0.3,4.3,4.5,4.8c2.1,0.3,4.1,0.5,6.2,0.7c0.2,1.6-1.4,0.4-1.8,1.1c-2.3,0.2-4.5,0.5-6.8,0.5c-1.6,0-2,0.9-2.1,2.2
		c-0.4,3.4-0.8,6.9-1.7,10.3c-0.2-3.3-0.6-6.6-0.7-10c0-2.1-0.9-2.8-2.8-3c-2.1-0.2-4.1-0.5-6.2-0.7C98.5,107.3,97,108.5,97.1,106.9
		z"/>
	<path class="st9" d="M374.1,108.5c0-2.4,0-4.8,0-7.1c0-1.1,0.2-2.1,1.5-2.2c1.5-0.1,1.8,1,1.8,2.2c0,3,0,6,0,8.9
		c0,4.9,0,4.9,4.8,4.9c0.8,0,1.6,0,2.4,0c0.9,0,1.6,0.4,1.7,1.4c0.1,1.1-0.7,1.6-1.7,1.6c-2.9,0-5.8,0-8.6,0c-1.5,0-1.7-1.1-1.7-2.3
		C374.1,113.5,374.1,111,374.1,108.5z"/>
	<path class="st22" d="M867.8,272.4c0-0.9,0.1-1.9,1.4-1.7c0.9,0.1,0.9,0.9,1,1.6c0.6,7.7,1.2,15.4,1.8,23.1
		c0.2,2.5,0.7,4.9,0.6,7.4c-0.1,2.1-0.9,2.2-2.4,1.3c-0.3-9.3-1.3-18.5-2.3-27.8C867.7,275,867.8,273.7,867.8,272.4z"/>
	<path class="st31" d="M736.8,254.5c-0.5-3.8,1.2-6.7,3.3-9.7c2.3-3.4,4.3-7.1,6.4-10.6c0.5-0.2,0.8,0,0.6,0.6
		c-1.3,7.5-3.5,14.7-8.3,20.8c-0.6,0.7-1,1.5-1.8,1.9C737,256.4,736.9,255.5,736.8,254.5z"/>
	<path class="st32" d="M221.1,208.2c3.1-1.6,6.1-0.7,8.9-1.4c1.6-0.4,2-0.8,2.3-2.4c0.4-2.8,0.1-5.7,1.4-8.8
		c0.3,3.1,0.8,5.8,0.8,8.4c0,2.1,1,2.8,2.7,3c2.5,0.3,5.1,0.3,7.8,1.1c-2.7,0.8-5.2,0.9-7.7,0.9c-1.7,0-2.7,0.5-2.8,2.6
		c-0.2,2.5-0.8,5-1.5,7.5c-0.2-2.6-0.6-5.2-0.7-7.8c-0.1-1.6-0.7-2.3-2.3-2.4C227.1,208.9,224.3,208.5,221.1,208.2z"/>
	<path class="st21" d="M912.6,483.8c7.6,0,15.1,0,22.7,0c0,0.2,0,0.4,0,0.6c-37.2,0-74.4,0-111.6,0c0-0.2-0.1-0.4-0.1-0.6
		c1.1-1.1,2.6-1,3.9-1c27.1,0,54.1,0,81.2,0C910,482.9,911.4,482.8,912.6,483.8z"/>
	<path class="st33" d="M916.1,301.4c-2.5,0.3-4.9,0.8-7.3,0.7c-2.4-0.1-3.1,1.1-3.2,3.1c-0.1,1.5,0.2,3.1-0.7,4.5
		c-0.2-0.2-0.4-0.2-0.4-0.3c-0.6-2.3,0.3-5.9-1.4-6.9c-2.4-1.3-5.7-1.2-8.7-1.1c0.2-2.1,2-1.7,3.3-1.9c1.7-0.3,3.6,0.5,5-1.2
		c0.9-1.5,0.6-3.3,1.6-4.8c0.4-0.3,0.9-0.3,1.4,0c1.1,1.4,0.7,3.3,1.5,4.8c1.1,2.1,3.7,0.3,5,2c1.3,0.7,2.8,0.3,4.1,0.7
		C916.1,301.2,916.1,301.4,916.1,301.4z"/>
	<path class="st34" d="M826,201.3c6.6-0.6,5.9,0.4,6.6-7.2c0.5-0.3-0.2-1.5,1-1.1c0.3,2.4-0.1,5.1,0.9,7c1.2,2.1,4.2,1,6.3,1.5
		c0.8,0.2,1.5,0.4,2.7,0.7c-2.5,0.3-4.6,0.9-6.6,0.7c-2.6-0.2-3,1.4-3.2,3.2c-0.2,2.2-0.3,4.3-1.2,7c-0.1-1.7-0.1-2.9-0.2-4
		c-0.4-6.1-0.4-6.1-6.5-6.7C825.6,202,825.6,201.7,826,201.3z"/>
	<path class="st35" d="M241.1,264.1c-2.9,3.1-6,6-10.1,7.5c-1-0.5-1.3-1.2-0.9-2.2c2.1-3.3,5.5-5,8.5-7.2
		C239.7,262.5,240.2,263.5,241.1,264.1z"/>
	<path class="st36" d="M679,241.2c2.1-2.5,2.4-6,4.8-8.4c0.5,0.3,0.9,0.6,1.4,0.9c0.4,0.3,1.3,0,1.1,1c-1.1,3.2-1.6,6.7-5,8.6
		C679.9,243.1,678.8,242.9,679,241.2z"/>
	<path class="st4" d="M650.2,485c-0.1-0.2-0.1-0.4,0-0.6c20.1,0,40.2,0,60.3,0c0,0.2,0,0.4,0,0.6c-1.1,1.1-2.6,0.9-3.9,1
		c-17.5,0-35,0-52.4,0C652.8,486,651.4,486,650.2,485z"/>
	<path class="st36" d="M703.7,181.4c1.9-2,3.8-3.9,5.7-5.9c0.6,0.8,2,1,1.9,2.4c-2.3,1.7-3.4,4.5-5.9,6c-1.1,0.5-1.9-0.1-2.4-0.9
		C702.5,182.2,702.9,181.7,703.7,181.4z"/>
	<path class="st4" d="M308.7,485c0-0.2,0-0.4,0-0.6c11.9,0,23.9,0,35.8,0c0,0.2,0,0.4,0,0.6c-1.1,1-2.6,0.9-3.9,1
		c-9.3,0-18.6,0-27.9,0C311.2,486,309.8,486.1,308.7,485z"/>
	<path class="st37" d="M242.1,310c-3-1.2-4-3.7-4.3-6.8c1.8,1.6,3.7,3.3,5.5,4.9C243,308.7,242.6,309.3,242.1,310z"/>
	<path class="st38" d="M753,190.6c0.1,0,0.2-0.1,0.3-0.1c4-2,4-2,5.1,2.4c-0.3,0-0.7,0.1-1,0.1C756.2,191.5,754.1,192,753,190.6z"/>
	<path class="st9" d="M505,381.7c-2.6,0-3.2,1.8-3.5,4.2c-1.3-1.6-1.3-3.2-0.6-4.2C501.9,380.4,503.5,381.4,505,381.7z"/>
	<path class="st39" d="M368.3,236.9c0.8,1.8,0.6,3.9,3,3.5c0.2,0,0.5,0.3,0.6,0.6c0.1,0.5-0.2,0.8-0.6,0.8c-1.1,0.1-2.5,0.6-3.1-0.3
		C367.3,240.3,367.5,238.7,368.3,236.9z"/>
	<path class="st40" d="M505.2,488.4c-1.6,1-3.1,1.3-4.3,0.4c-0.8-0.6-0.3-1.9-0.3-2.8c0-0.4,0.2-0.8,0.7-0.8c0.2,0,0.7,0.3,0.6,0.4
		C501.7,487.8,503.1,488.4,505.2,488.4z"/>
	<path class="st41" d="M622.1,241.2c1.6-1.3,4-0.4,3.9-3.5c1.1,1.6,1.3,2.9,0.5,3.5C625.4,242.2,623.9,241.8,622.1,241.2z"/>
	<path class="st9" d="M485.9,260.6c0.9,2.5,0.8,5,0.1,7.5C485.1,265.6,485.5,263.1,485.9,260.6z"/>
	<path class="st9" d="M626.4,439.2c0.8,2.5,0.7,5,0.1,7.5C625.7,444.2,625.8,441.7,626.4,439.2z"/>
	<path class="st9" d="M626.2,385.5c0-2.4-1.2-3.6-4.1-3.3c1.6-1.5,3.3-1.4,4.2-0.8C627.5,382.3,627,384,626.2,385.5z"/>
	<path class="st9" d="M626.3,423.7c1,2.5,0.8,4.9,0.1,7.4C625.6,428.7,625.9,426.2,626.3,423.7z"/>
	<path class="st9" d="M626.7,400.6c-1.1-2.5-0.8-4.9-0.7-7.4c0.2,0,0.5,0,0.7,0C626.7,395.6,626.7,398.1,626.7,400.6z"/>
	<path class="st9" d="M626.4,462.2c-0.7-2.5-0.9-5,0-7.4C627.3,457.2,627,459.7,626.4,462.2z"/>
	<path class="st9" d="M626.7,416.2c-1.1-2.5-0.8-4.9-0.7-7.4c0.2,0,0.5,0,0.7,0C626.7,411.2,626.7,413.7,626.7,416.2z"/>
	<path class="st9" d="M626.7,477.1c-1.1-2.5-0.8-4.9-0.7-7.4c0.2,0,0.5,0,0.7,0C626.7,472.1,626.7,474.6,626.7,477.1z"/>
	<path class="st42" d="M622.6,488.8c1.6-0.9,4.3-0.5,2.8-4.7c2.1,2,2,3.7,1.4,4.6C625.7,490,624,489,622.6,488.8z"/>
	<path class="st9" d="M463.8,261c-2.3,0.7-4.6,0.7-6.8,0C459.2,260.2,461.5,260.3,463.8,261z"/>
	<path class="st9" d="M442.6,261c2.3-0.7,4.6-0.7,6.8,0C447.2,261.8,444.9,261.7,442.6,261z"/>
	<path class="st9" d="M428.2,261.1c2.3-0.9,4.6-0.8,6.9-0.1C432.8,261.9,430.5,261.6,428.2,261.1z"/>
	<path class="st9" d="M420.7,261c-2.3,0.8-4.6,0.5-6.8,0.1C416.1,260.2,418.4,260.3,420.7,261z"/>
	<path class="st9" d="M406.4,261c-2.3,0.7-4.6,0.8-6.8,0C401.8,260.2,404.1,260.4,406.4,261z"/>
	<path class="st9" d="M532.5,381.6c-2.3,0.8-4.6,0.8-6.9,0.1C527.9,380.8,530.2,381.1,532.5,381.6z"/>
	<path class="st9" d="M392.1,260.9c-2.3,0.8-4.6,0.8-6.9,0.1C387.5,260.1,389.8,260.4,392.1,260.9z"/>
	<path class="st9" d="M377.7,261c-2.3,0.7-4.6,0.8-6.8,0C373.1,260.2,375.4,260.4,377.7,261z"/>
	<path class="st9" d="M511.9,381.6c2.3-0.6,4.6-0.7,6.9,0.1C516.4,382.3,514.1,382.5,511.9,381.6z"/>
	<path class="st9" d="M485.9,347.2c1,2.3,0.7,4.6,0.2,6.8C485,351.8,485.6,349.5,485.9,347.2z"/>
	<path class="st9" d="M486.1,339.7c-0.8-2.3-0.8-4.6-0.1-6.8C486.9,335.1,486.6,337.4,486.1,339.7z"/>
	<path class="st9" d="M486,289.9c0.7,2.3,0.7,4.6,0,6.8C485.2,294.5,485.3,292.2,486,289.9z"/>
	<path class="st9" d="M511.9,488.8c2.3-1,4.6-0.7,6.8-0.2C516.5,489.6,514.2,489,511.9,488.8z"/>
	<path class="st9" d="M567.4,381.7c2.3-0.8,4.6-0.5,6.9-0.1C572,382.5,569.7,382.4,567.4,381.7z"/>
	<path class="st9" d="M486,318.5c0.8,2.3,0.8,4.6,0.1,6.9C485.1,323.1,485.4,320.8,486,318.5z"/>
	<path class="st9" d="M601.8,381.7c-2.3,0.9-4.6,0.5-6.9,0.2C597.2,380.8,599.5,381,601.8,381.7z"/>
	<path class="st43" d="M368.6,151.2c-1-1.6-1.4-3.1-0.5-4c0.9-0.9,2.4-0.5,4.6,0.2C370.2,148.1,367.8,148.2,368.6,151.2z"/>
	<path class="st9" d="M379.2,147.5c2.3-0.8,4.5-0.7,6.8,0C383.8,148.2,381.5,148.3,379.2,147.5z"/>
	<path class="st9" d="M414.8,147.4c-2.3,0.9-4.6,0.9-6.9,0.2C410.2,146.5,412.5,147.1,414.8,147.4z"/>
	<path class="st9" d="M486.1,311c-0.9-2.3-0.8-4.6-0.1-6.9C486.9,306.4,486.6,308.7,486.1,311z"/>
	<path class="st9" d="M615.5,381.6c-2.3,0.9-4.6,0.8-6.8,0.1C610.9,380.8,613.2,381.1,615.5,381.6z"/>
	<path class="st9" d="M429.1,147.4c-2.3,0.8-4.6,0.9-6.8,0.1C424.5,146.6,426.8,147,429.1,147.4z"/>
	<path class="st9" d="M436.6,147.5c2.3-0.7,4.6-0.8,6.8,0C441.2,148.3,438.9,148.1,436.6,147.5z"/>
	<path class="st9" d="M368.4,272.8c-1-2.3-0.6-4.6-0.2-6.8C369.2,268.2,368.9,270.5,368.4,272.8z"/>
	<path class="st9" d="M486,275.5c0.7,2.3,0.8,4.6,0,6.9C485.2,280.1,485.3,277.8,486,275.5z"/>
	<path class="st9" d="M400.4,147.4c-2.3,0.8-4.6,0.9-6.8,0.1C395.8,146.6,398.1,147,400.4,147.4z"/>
	<path class="st9" d="M457.8,147.9c-2.3,0-4.6,0-6.9,0c0-0.3,0-0.6,0-0.9C453.2,146.9,455.5,146.7,457.8,147.9z"/>
	<path class="st9" d="M525.6,488.6c2.3-0.6,4.6-0.7,6.9,0.1C530.2,489.2,527.9,489.5,525.6,488.6z"/>
	<path class="st9" d="M472.1,147.4c-2.3,0.9-4.6,0.9-6.9,0.2C467.5,146.5,469.8,147.1,472.1,147.4z"/>
	<path class="st9" d="M479.6,147.5c2.3-0.7,4.6-0.7,6.8,0C484.2,148.3,481.9,148.2,479.6,147.5z"/>
	<path class="st9" d="M574.3,488.5c-2.3,0.9-4.6,0.8-6.9,0.1C569.7,487.7,572,488,574.3,488.5z"/>
	<path class="st9" d="M581.2,381.8c2.3-0.9,4.6-0.8,6.9-0.1C585.8,382.6,583.5,382.3,581.2,381.8z"/>
	<path class="st9" d="M601.8,488.6c-2.3,0.9-4.6,0.8-6.8,0.1C597.2,487.7,599.5,488,601.8,488.6z"/>
	<path class="st9" d="M615.5,488.6c-2.3,0.8-4.6,0.8-6.9,0.1C610.9,487.7,613.2,488,615.5,488.6z"/>
	<path class="st9" d="M500.8,147.4c-2.3,0.8-4.6,0.8-6.9,0.1C496.2,146.6,498.5,146.9,500.8,147.4z"/>
	<path class="st9" d="M478.1,260.9c-2.3,0.8-4.6,0.8-6.9,0.1C473.5,260.1,475.8,260.5,478.1,260.9z"/>
	<path class="st9" d="M508.3,147.5c2.3-0.8,4.6-0.8,6.9-0.1C512.9,148.4,510.6,148.1,508.3,147.5z"/>
	<path class="st9" d="M368.3,191c-0.6-2.3-0.7-4.6,0.1-6.9C368.9,186.4,369.2,188.7,368.3,191z"/>
	<path class="st9" d="M581.2,488.6c2.3-0.9,4.6-0.5,6.9-0.2C585.8,489.5,583.5,489.3,581.2,488.6z"/>
	<path class="st9" d="M540,381.6c2.1-0.7,4.2-0.7,6.3,0C544.2,382.4,542.1,382.4,540,381.6z"/>
	<path class="st9" d="M368.3,204.1c-0.6-2.1-0.7-4.2,0.1-6.3C368.9,199.9,369.2,202,368.3,204.1z"/>
	<path class="st9" d="M368.2,170.9c1,2.1,0.9,4.2,0.3,7C367.3,175.2,367.9,173,368.2,170.9z"/>
	<path class="st9" d="M368.3,164.1c-0.6-2.1-0.7-4.2,0-6.3C369.1,159.9,369.1,162,368.3,164.1z"/>
	<path class="st9" d="M368.3,211c0.8,2.1,0.8,4.2,0.1,6.3C367.4,215.2,367.7,213.1,368.3,211z"/>
	<path class="st9" d="M553.7,488.7c2.1-0.8,4.2-0.8,7.2-0.1C557.9,489.6,555.8,489.2,553.7,488.7z"/>
	<path class="st9" d="M546.2,488.6c-2.1,0.7-4.2,0.7-6.3,0C542,487.8,544.1,487.9,546.2,488.6z"/>
	<path class="st9" d="M368.2,224.1c1,2.1,0.9,4.2,0.3,7C367.3,228.3,367.9,226.2,368.2,224.1z"/>
	<path class="st9" d="M553.7,381.7c2.1-0.7,4.2-0.8,6.3,0C557.9,382.6,555.8,382.3,553.7,381.7z"/>
	<path class="st9" d="M527.1,147.5c-1.5,0.9-3,0.6-4.5,0.2C524.1,146.6,525.6,146.9,527.1,147.5z"/>
	<path class="st9" d="M501.4,393.4c0,2.3,0,4.6,0,6.9c-0.1,0-0.2,0-0.3,0c0-2.3,0-4.6,0-6.9C501.2,393.4,501.3,393.4,501.4,393.4z"
		/>
	<path class="st9" d="M501.1,430.8c0-2.3,0-4.6,0-7c0.1,0,0.2,0,0.3,0c0,2.3,0,4.7,0,7C501.3,430.8,501.2,430.8,501.1,430.8z"/>
	<path class="st9" d="M501.5,455.1c0,2.2,0,4.5,0,6.7c-0.1,0-0.2,0-0.3,0c0-2.3,0-4.6,0-6.9C501.3,455,501.4,455,501.5,455.1z"/>
	<path class="st9" d="M501.1,446.5c0-2.3,0-4.6,0-6.9c0.1,0,0.2,0,0.3,0c0,2.3,0,4.6,0,6.9C501.3,446.5,501.2,446.5,501.1,446.5z"/>
	<path class="st9" d="M501.1,476.8c0-2.3,0-4.6,0-6.9c0.1,0,0.2,0,0.3,0c0,2.3,0,4.7,0,7C501.3,476.8,501.2,476.8,501.1,476.8z"/>
	<path class="st9" d="M501.1,415.8c0-2.3,0-4.6,0-6.9c0.1,0,0.2,0,0.3,0c0,2.3,0,4.7,0,7C501.3,415.9,501.2,415.9,501.1,415.8z"/>
	<path class="st9" d="M428.9,241.2c-2.1,0-4.2,0-6.4,0C424.6,240.6,426.8,240.6,428.9,241.2z"/>
	<path class="st9" d="M443.2,241.1c-2.1,0-4.3,0-6.4,0c0-0.1,0-0.2,0-0.3c2.1,0,4.2,0,6.3,0C443.1,241,443.2,241.1,443.2,241.1z"/>
	<path class="st9" d="M451.2,240.8c2.1,0,4.3,0,6.4,0C455.4,241.4,453.3,241.4,451.2,240.8z"/>
	<path class="st9" d="M471.9,241.1c-2.1,0-4.2,0-6.3,0c0-0.1,0-0.2,0-0.2c2.1,0,4.2,0,6.3,0C471.9,241,471.9,241,471.9,241.1z"/>
	<path class="st9" d="M486.2,241.1c-2.1,0-4.3,0-6.4,0c0-0.1,0-0.2,0-0.3c2.1,0,4.2,0,6.3,0C486.2,240.9,486.2,241,486.2,241.1z"/>
	<path class="st9" d="M414.5,241.2c-2.1,0-4.2,0-6.4,0c0-0.1,0-0.2,0-0.3c2.1,0,4.2,0,6.3,0C414.4,241,414.5,241.1,414.5,241.2z"/>
	<path class="st9" d="M500.5,241.2c-2.1,0-4.2,0-6.4,0c0-0.1,0-0.2,0-0.3c2.1,0,4.2,0,6.3,0C500.5,241,500.5,241.1,500.5,241.2z"/>
	<path class="st9" d="M508.5,240.8c2.1,0,4.2,0,6.3,0c0,0.1,0,0.2,0,0.2c-2.1,0-4.2,0-6.3,0C508.5,241,508.5,240.9,508.5,240.8z"/>
	<path class="st9" d="M522.8,240.8c2.1,0,4.3,0,6.4,0C527.1,241.4,525,241.4,522.8,240.8z"/>
	<path class="st9" d="M543.6,241.1c-2.1,0-4.3,0-6.4,0C539.3,240.6,541.5,240.6,543.6,241.1z"/>
	<path class="st9" d="M399.6,356.4c-2.1,0-4.2,0-6.3,0c0-0.1,0-0.2,0-0.2c2.1,0,4.2,0,6.3,0C399.6,356.3,399.6,356.3,399.6,356.4z"
		/>
	<path class="st9" d="M407.7,356.2c2.1,0,4.2,0,6.3,0c0,0.1,0,0.2,0,0.3c-2.1,0-4.3,0-6.4,0C407.6,356.4,407.6,356.3,407.7,356.2z"
		/>
	<path class="st9" d="M421.9,356.1c2.1,0,4.3,0,6.4,0c0,0.1,0,0.2,0,0.3c-2.1,0-4.2,0-6.3,0C422,356.3,422,356.2,421.9,356.1z"/>
	<path class="st9" d="M442.6,356.5c-2.1,0-4.2,0-6.4,0C438.4,355.9,440.5,355.9,442.6,356.5z"/>
	<path class="st9" d="M457,356.4c-2.1,0-4.2,0-6.3,0c0-0.1,0-0.2,0-0.2c2.1,0,4.2,0,6.3,0C457,356.3,457,356.4,457,356.4z"/>
	<path class="st9" d="M551.5,240.8c2.1,0,4.2,0,6.3,0c0,0.1,0,0.2,0,0.2c-2.1,0-4.2,0-6.3,0C551.5,241,551.5,240.9,551.5,240.8z"/>
	<path class="st9" d="M485.6,356.5c-2.1,0-4.3,0-6.4,0c0-0.1,0-0.2,0-0.3c2.1,0,4.2,0,6.3,0C485.6,356.3,485.6,356.4,485.6,356.5z"
		/>
	<path class="st9" d="M572.3,241.1c-2.1,0-4.3,0-6.4,0C568,240.6,570.2,240.6,572.3,241.1z"/>
	<path class="st9" d="M580.2,240.8c2.1,0,4.3,0,6.4,0C584.5,241.4,582.3,241.4,580.2,240.8z"/>
	<path class="st9" d="M600.8,241.1c-2.1,0-4.2,0-6.3,0c0-0.1,0-0.2,0-0.3c2.1,0,4.3,0,6.4,0C600.9,240.9,600.9,241,600.8,241.1z"/>
	<path class="st9" d="M609,240.8c2.1,0,4.2,0,6.3,0c0,0.1,0,0.2,0,0.3c-2.1,0-4.3,0-6.4,0C609,241,609,240.9,609,240.8z"/>
	<path class="st9" d="M385.9,241.2c-2.1,0-4.2,0-6.4,0C381.6,240.6,383.8,240.6,385.9,241.2z"/>
	<path class="st9" d="M393.8,240.8c2.1,0,4.2,0,6.4,0C398,241.4,395.9,241.4,393.8,240.8z"/>
	<path class="st9" d="M464.9,356.2c2.1,0,4.2,0,6.3,0c0,0.1,0,0.2,0,0.2c-2.1,0-4.2,0-6.3,0C464.9,356.3,464.9,356.2,464.9,356.2z"
		/>
	<path class="st44" d="M119.2,108.6c0.4-0.7,1.5-0.3,1.8-1.1c0.7,0,1.5-0.3,2.3,0.6C121.9,109.1,120.5,108.6,119.2,108.6z"/>
	<path class="st45" d="M895.9,99.6c0.4-0.4,0.7-0.8,1.1-1.2c0.1,1.3,0.2,2.7-0.9,3.9C895.7,101.4,895.8,100.5,895.9,99.6z"/>
	<path class="st46" d="M911.3,85.9c-0.6-0.3-1.2-0.7-1.8-1c1.5-0.3,2.9,0.3,4.4,0.8C913,86.1,912.2,86,911.3,85.9z"/>
	<path class="st47" d="M97.1,106.9c0.6,0.4,1.2,0.7,1.8,1.1c-1.5,0.2-2.9-0.3-4.4-0.8C95.4,106.6,96.3,106.9,97.1,106.9z"/>
	<path class="st48" d="M824.2,202.4c-0.7-0.1-1.6,0.4-2.1-0.6c0.5-0.9,1.4-0.5,2.1-0.6C824.5,201.7,824.5,202,824.2,202.4z"/>
	<path class="st49" d="M824.2,202.4c0-0.4,0-0.8,0-1.2c0.6,0,1.2,0,1.8,0c0,0.4,0,0.7,0,1.1C825.4,202.4,824.8,202.4,824.2,202.4z"
		/>
	<path class="st50" d="M833.6,193c-0.3,0.4-0.7,0.8-1,1.1c0-0.5-0.1-1,0.1-1.4c0.1-0.4,0.5-0.7,0.8-1.1
		C833.5,192.1,833.6,192.5,833.6,193z"/>
	<path class="st51" d="M830.6,504.8c13.5,0.4,27,0.5,40.5,1.3c6.8,0.4,13.7,0.4,20.5,1.1c5.4,0.6,10.9,0.4,16.2,1.8
		c3.2,0.8,5.3,2.9,5.1,5.4c-0.3,3-2.5,4.1-5.2,4.9c-3.8,1.1-7.7,1.2-11.4,1.4c-9.4,0.6-18.8,1.1-28.2,1.4
		c-12.4,0.4-24.8,0.8-37.2,1.3c-7,0.3-13.9-0.1-20.8,0.5c-9.9,0.8-19.9,0-29.8,0.7c-9.3,0.7-18.5,0-27.7,0.5
		c-15.8,0.9-31.6,0-47.4,0.7c-12,0.5-24,0.2-36.1,0.4c-51,1-102.1,0.3-153.1,0.8c-13.5,0.1-27,0.6-40.5,0.3
		c-46.1-1.1-92.1,0.2-138.2-0.7c-19.6-0.4-39.2,0.3-58.8-0.6c-13.9-0.6-27.9,0.2-41.7-0.6c-11.3-0.7-22.7,0.2-34-0.6
		c-9.1-0.6-18.1,0.2-27.1-0.6c-8-0.7-15.9,0.1-23.8-0.6c-6.5-0.6-12.9-0.1-19.3-0.5c-10.2-0.6-20.4-0.9-30.6-1.2
		c-8.6-0.3-17.2-1-25.7-1.8c-2.6-0.2-5.3-0.5-7.7-2c-3.7-2.3-3.6-5.9,0.1-8.2c3-1.8,6.5-2,9.8-2.2c13.7-0.8,27.3-2.1,41-1.9
		c0.6,0,1.2,0,1.8,0c0.1,0.4,0,0.7-0.4,1c-3.1,1.1-6.3,0.7-9.4,0.8c-5.6,0.3-11.1,0.6-16.7,0.9c-6.5,0.3-13.1,0.6-19.5,1.7
		c-0.9,0.2-1.7,0.4-2.6,0.7c-1.5,0.5-3.2,1.2-3.2,3.1c0,2,1.7,2.8,3.3,3.3c3.1,0.8,6.2,1.2,9.4,1.5c8.7,0.8,17.4,0.9,26.1,1.7
		c4.8,0.4,9.7,0.4,14.6,0.5c9.6,0.2,19.3,0.7,28.9,0.9c8.6,0.2,17.3,0,25.9,0.6c7.4,0.5,14.7,0.1,22.1,0.5c12.8,0.8,25.7,0,38.5,0.7
		c11.3,0.6,22.7,0,34,0.5c21.8,0.9,43.6,0.1,65.4,0.7c42.7,1.1,85.4,0.1,128.1,0.5c9.2,0.1,18.5,0.9,27.7,0.6
		c47-1.3,93.9,0,140.9-0.8c19.7-0.3,39.4,0.3,59.1-0.6c14.1-0.6,28.3,0.2,42.4-0.6c11-0.6,22.1,0.1,33.1-0.6
		c9.3-0.6,18.5,0.1,27.7-0.6c7.8-0.6,15.5-0.1,23.2-0.5c12.1-0.7,24.2-0.7,36.3-1.2c8.4-0.4,16.9-0.6,25.3-1.2
		c7.2-0.5,14.5-0.8,21.6-1.8c1.4-0.2,2.7-0.6,4-1.1c1.4-0.6,2.5-1.4,2.5-3c0-1.6-1.4-2.3-2.6-2.9c-1.6-0.7-3.4-1.1-5.2-1.2
		c-5.5-0.6-11.1-1-16.6-1.3c-10.7-0.5-21.4-1.1-32.1-1.4c-5-0.2-9.9-0.3-14.9-0.4c-2.1,0-4.2-0.1-6.2-0.5
		C830.8,506.2,830.3,505.8,830.6,504.8z"/>
	<path class="st6" d="M120.9,506.5c0.1-0.2,0.1-0.4,0.2-0.6c3.5-3.8,6.1-8.3,9.3-12.3c2.1-2.6,4.1-5.3,6.2-8
		c0.4-0.4,0.8-0.8,1.2-1.2c1-1.4,2.2-1.1,3.5-0.5c0.6,0.4,1.1,0.9,1.6,1.4c2,2.1,4.2,4.1,6.2,6.3c1,1.4,0.7,2.8-0.1,4.2
		c-1.3,2.4-2.6,4.8-4.4,6.9c-2.1,1.4-4.7,1.4-6.9,2.3c-1.4,0.6-2.7,1.1-4,1.9c-0.7,0.4-1.4,0.7-2.1,1.1c-0.4,0.3-0.9,0.6-1.3,0.8
		c-0.5,0.4-1,0.8-1.5,1.2c-1,0.9-2.2,1.7-3.2,2.6c-1.6,1.5-3.3,1.6-5,0c-0.4-0.5-0.7-1-0.8-1.6c-0.2-0.9-0.2-1.8-0.1-2.7
		C119.8,507.6,120.2,507,120.9,506.5z"/>
	<path class="st6" d="M830.6,504.8c0.1,0.5,0,1.1,0.6,1.3c0.3,0.2,0.5,0.5,0.6,0.8c0.4,2.7-1.6,2.9-3.4,3.5
		c-7.4,1.7-14.7,4.2-22,6.4c-2,0.6-4,1.3-6-0.1c-1.4-1.9-1.1-3.6,0.8-4.9c1.3-0.8,2.6-1.7,4-2.5c1-0.5,2-1.2,3-1.9
		c1.1-0.9,2.1-2,3.1-3.1c1.3-1.3,2.5-2.8,4.4-3.2c3.1-0.7,6-2.4,9.4-2c1.4-0.5,2.2,0.1,2.8,1.3C828.8,501.8,829.7,503.3,830.6,504.8
		z"/>
	<path class="st52" d="M811.2,493.5c4.9-0.8,9.9-1.2,14.8-2.4c1.1-0.1,1.8,0.3,1.4,1.5c-0.3,0.9,0.2,2.3-1.4,2.6
		c-0.8,0.1-1.5,0.4-2.3,0.5c-2.7,1.8-6,1.3-9,2c-0.7,0-1.3-0.1-1.9-0.4C811.9,496.3,810.5,495.3,811.2,493.5z"/>
	<path class="st11" d="M824.2,497c15,0,29.9,0,45.4,0c-1.1,1.6-2.3,1.2-3.2,1.2c-12.8,0-25.7,0-38.5,0c-1.1,0-2.2-0.4-3.1,0.5
		c-0.6,0.4-0.8,0-1-0.5C823.7,497.7,823.8,497.3,824.2,497z"/>
	<path class="st53" d="M824.2,497c0,0.4-0.1,0.8-0.1,1.2c-2.4,1.9-5.2,1.5-8,1.3c-0.3-0.1-0.6-0.2-0.9-0.4c-0.6-0.6-1-1.2-0.5-2.1
		c3-0.7,6-1.1,9.1-1.3C824,496.1,824.1,496.6,824.2,497z"/>
	<path class="st54" d="M815.3,498.7c3,0.1,5.9,0.2,8.8-0.6c0.2,0.2,0.4,0.3,0.7,0.5c0.2,0.1,0.3,0.2,0.4,0.3
		c-3.1,0.9-6.3,1.8-9.4,2.7C815,500.8,814.4,499.9,815.3,498.7z"/>
	<path class="st2" d="M69.6,332.7c0.7-0.8,1.6-0.6,2.5-0.6c9.1,0,18.2,0,27.3,0c0.9,0,1.8-0.2,2.5,0.6c1.1,1.8,0.2,2.7-1.5,3.1
		c-1.9,0.4-3.8,0.5-5.8,0.4c-1,0-2.1-0.1-3-0.5c1.3,0.4,2.7,0.5,4.1,0.5c6.6,0,7.4,0.7,7.4,7.3c0,1.2-0.1,2.4-0.5,3.5
		c0.9-2.3,0.3-4.8,0.7-7.2c0.3-2.2,1.4-3.4,3.7-3.4c1.8,0,3.5-0.5,5.3-0.3c0.9,0.2,1.8,0.3,2,0.3c-1-0.4-2.7-0.3-4.4-0.3
		c-1.5,0.2-3,0.1-4.4-0.4c-1.6-0.6-2.3-1.5-1.2-3.1c6.4,0,12.7,0,19.1,0c1.5,1.7,1,3.8,1,5.7c0,46.7,0,93.4,0,140.1
		c0,2,0.4,4-0.4,5.9c-17,0-34-0.1-51,0.1c-2.8,0-3.4-0.6-3.4-3.5C69.7,431.6,69.6,382.2,69.6,332.7z"/>
	<path class="st2" d="M141.2,484.5c-1.1-0.6-2.3-0.2-3.4-0.1c-1.6,0-3.2,0-4.8,0c-0.5-0.9-0.4-1.9-0.4-2.9c0-47.8,0-95.6,0-143.4
		c0-1.8-0.4-3.8,1-5.4c19.4,0,38.8,0,58.2,0c1.1,0,2.4-0.5,3.4,0.6c-4.4,10.1-8.5,20.4-13.7,30.2c-0.6,1-1.3,1.9-2,2.9
		c-8.3,6.5-13.9,14.7-16.2,24.9c-1.7,7.8,0.1,15.4,2.4,22.8c5.7,17.7,14.6,33.8,24.2,49.6c3.6,6,7.5,11.9,11.3,17.8
		c-0.9,2.1-2.4,3.3-4.6,3.7c-17.2,0.1-34.4,0-51.5,0.1C143.6,485.3,142.4,485,141.2,484.5z"/>
	<path class="st21" d="M133.5,332.7c0,49.2,0,98.4,0,147.7c0,1.4,0.2,2.8-0.6,4.1c-3,0-6,0-9,0c-0.8-1.3-0.6-2.7-0.6-4.1
		c0-49.2,0-98.4,0-147.7C126.8,331.7,130.2,331.7,133.5,332.7z"/>
	<path class="st2" d="M617.5,155.3c9.9,0,19.7,0,29.6,0c4.3,0,5.7,1.4,5.7,5.7c0,13.8,0,27.7,0,41.5c0,4.3-1.4,5.7-5.7,5.8
		c-19.9,0-39.8,0-59.7,0c-4.3,0-5.7-1.5-5.7-5.8c0-13.8,0-27.7,0-41.5c0-4.2,1.5-5.7,5.8-5.7C597.4,155.2,607.4,155.3,617.5,155.3z"
		/>
	<path class="st2" d="M703.7,181.4c-1.4,2.2,1.2,1.6,1.7,2.5c7.1,9.4,14.6,18.4,24.5,25c1.6,1.3,3.3,2.2,5.3,2.7
		c0.8,0.9,0,1.6-0.4,2.4c-6.1,10.4-11.6,21.1-17.1,31.8c-1,1.9-1.7,2-3.6,1.2c-8.4-3.9-16.8-7.6-25.3-11.4c-0.8-0.4-1.7-0.6-2.5-0.8
		c-0.4-0.3-0.7-0.6-1.1-1c3.8,0,7.6,0,11.3-0.1c3.5,0,4-0.6,4-4c0-15.6,0-31.2,0-46.8c0-1.2,0.1-2.4,0.1-3.6
		C701.8,179.8,703,180.2,703.7,181.4z"/>
	<path class="st55" d="M800.8,425.4c0-4.7,0.1-9.3,0-14c0-1.6,0.4-2.3,2.2-2.3c12.5,0.1,25,0,37.5,0c0.6,0,1.2,0.1,1.6,0.6
		c0.9,1,0.8,2.2,1,3.4c0.5,3.1,1.6,4.1,4.8,4.1c5.6,0.1,11.3,0,16.9,0c3.9,0,4.3-0.3,5.2-4.1c0.1-0.6,0.3-1.2,0.8-1.6
		c0.6-2,1.9-2.5,3.9-2.4c11.3,0.1,22.7,0.2,34,0c2.7,0,3.5,1,3.8,3.3c0.1,0.6,0.1,1.2,0.1,1.8c0,11.3-0.1,22.7,0,34
		c0,2.2-0.6,2.9-2.9,2.9c-32.1-0.1-64.3,0-96.4,0c-1,0-2,0-2.9-0.6C807,442.2,803.7,433.9,800.8,425.4z"/>
	<path class="st2" d="M728.1,484.4c2.4-13.4,5.5-26.6,8.6-39.9c5.1-22.4,11.1-44.5,17.6-66.5c-0.2-1.3,0.3-2.5,0.7-3.8
		c2.3-8.9,5.8-17.4,9-25.9c0.2-0.6,0.6-1.1,1.1-1.3c1.3,3,0.5,6.2,0.3,9.3c-0.7,12.5-1.7,25-2.6,37.5c-0.7,9.7,2.7,18.3,6.9,26.7
		c6.6,13.2,13.8,25.9,21.1,38.7c0.4,0.8,0.8,1.6,1.2,2.4c1.2,2.9,0.8,6,0.9,9c0.1,3.7,0.1,3.8,3.7,3.9c1.3,0,2.6,0.1,3.6,0.9
		c0.6,0.6,1.1,1.4,1.3,2.3c2.7,7.2,2.5,7.5-5.1,7.5c-21.3,0-42.5,0-63.8,0C731.1,485.3,729.4,485.6,728.1,484.4z"/>
	<path class="st2" d="M815.3,498.7c0.2,1,0.3,1.9,0.5,2.9c-1.9,0.4-2.6,2.2-4,3.2c-5.5,1.7-11,0.8-16.6,0.6c-1.4,0-2.8-0.3-4.2-0.3
		c-19.8,0.3-39.6-1-59.4-0.6c-2.5,0-5,0.2-7-1.7c-0.7-1.4-0.8-2.7,0.3-3.9c1-4.6,2-9.2,3-13.8c1-0.5,2.1-0.3,3.2-0.3
		c22.9,0,45.7,0,68.6,0c2,0,4.1-1.2,6.1,0.1c1.8,2.8,3.5,5.7,5.3,8.5c0.6,1.2,1.2,2.3,1.7,3.5c-0.9,1-2,0.6-3.1,0.6
		c-6.1,0-12.1,0-18.2,0c6.7,0,13.4,0,20,0c1.3,0,2.7-0.3,3.4,1.2L815.3,498.7z"/>
	<path class="st2" d="M650.2,485c20.1,0,40.2,0,60.3,0c0,3.9,0.1,7.9,0.1,11.8c-0.6,0.9-2.5,0.5-2.2,2.3c-0.4,2.2-1.9,2.9-3.9,2.9
		c-8.3,0.1-16.7,0.5-25-0.1c-8.3-0.6-16.5-0.2-24.7-0.4c-1.6,0-3.2,0.2-4.6-1C650.2,495.4,650.2,490.2,650.2,485z"/>
	<path class="st4" d="M912.6,483.8c-29.7,0-59.4,0-89.1,0c-1.4-2.7-2.4-5.5-3.4-8.4c30.8,0,61.6,0,92.4,0
		C912.6,478.3,912.6,481.1,912.6,483.8z"/>
	<path class="st56" d="M765,347.1c-3.6,10.3-7.2,20.7-10.8,31c-1.3-2.2,0-4.5,0.3-6.6c1.4-8.5,2.7-17,4.4-25.4
		c0.6-3.1,1.6-4.8,4.8-6.1c7.7-3.1,14.3-7.8,17.8-16.5c0,10.1-5.3,17.9-13.7,21.3C766.7,345.2,765.2,345.4,765,347.1z"/>
	<path class="st57" d="M707.7,497.5c0.7-1.7,2-0.1,2.9-0.6c4.8,0.7,9.6,1.3,14.3,2c0,1.2,0,2.3,0,3.5c-1,1-2.2,0.9-3.4,0.9
		c-3.3-0.3-6.6-0.8-10-1.2c-0.3,0-0.7,0-1-0.1C707.7,501.7,708.1,499.3,707.7,497.5z"/>
	<path class="st11" d="M800.2,475.5c-2.6-0.2-6,1.1-7.7-0.6c-1.7-1.7-0.4-5.1-0.6-7.7c-0.1-1.9,0-3.7,0-5.6
		C794.9,466.1,797.6,470.8,800.2,475.5z"/>
	<path class="st4" d="M805.9,484.9c-14.1,0-28.3,0.1-42.4,0.1c-11.8,0-23.7,0-35.5,0c0-0.2,0.1-0.4,0.1-0.6c23.6,0,47.2,0,70.8,0
		c3.8,0,3.8,0,3-3.8c-0.2-1-0.5-1.9-0.4-2.9C803.3,480,804.6,482.4,805.9,484.9z"/>
	<path class="st2" d="M791.4,390.1c0.8,3.8,0.8,7.5,0,11.3C790.8,397.6,791.4,393.8,791.4,390.1z"/>
	<path class="st2" d="M271.3,374.5c-12.8-0.5-25.5-1.7-38.2-2.9c-2-0.2-4,0.3-5.9-0.6c4.5-5.8,8.7-11.9,14.8-16.2
		c5.1-3.6,7.6-8.8,9.1-14.6c0.4-1.5,0.8-3.1,1.2-4.6c0.7-0.5,1.4-0.8,2.2-0.7c4.7,0.7,9.5,0.3,14.3,0.5c0.9,0,1.8,0.1,2.5,0.9
		C271.6,349,271.6,361.8,271.3,374.5z"/>
	<path class="st2" d="M329.8,304c6.7,0,13.3,0.1,20,0c1.8,0,2.5,0.5,2.4,2.4c-0.1,3.7,0,7.4,0,11c0,0.9,0.3,2.3-1.3,2.1
		c-1.5-0.1-3.5,1-4.5-1.1c-0.3-0.5-0.3-1.2-0.4-1.7c-1.8-6.8-1.8-6.8-8.7-6.1c-1.3,0.1-1.8,0.5-1.8,1.8c0,12.1,0,24.3,0,36.4
		c0,1.2,0.4,1.8,1.6,2.1c1.2,0.3,2.3,0.7,3.5,0.9c2.2,0.3,1.4,2,1.5,3.3c0.2,1.7-1,1.6-2.2,1.6c-6.7,0-13.3,0-20,0
		c-1.1,0-2.4,0.2-2.3-1.5c0.1-1.3-0.6-2.8,1.7-3.5c4.9-1.3,4.8-1.4,4.8-6.7c0-10.5-0.1-20.9,0-31.4c0-2.2-0.4-3.1-2.9-3.1
		c-6.1,0.1-6,0-7.6,5.9c-0.3,1.3,0,3.1-2.3,3.2c-3.6,0.2-3.9,0.1-3.9-3.5c0-3,0.2-6,0-9c-0.2-2.4,0.5-3.3,3.1-3.2
		C316.9,304.1,323.4,304,329.8,304z"/>
	<path class="st12" d="M271.4,336.3c-6.3,0.2-12.7,0.2-19-0.7c0.5-4.9,1-9.8,0.1-14.8c5,2.4,10.3,3.1,15.7,3.1
		c1.1,0,2.1,0.2,3.2,0.3C271.4,328.2,271.4,332.2,271.4,336.3z"/>
	<path class="st55" d="M870.8,319.6c0.6-2,1.9-2.5,3.9-2.4c11.6,0.1,23.3,0.1,34.9,0c2.4,0,3,0.7,3,3c-0.1,11.2,0,22.5-0.1,33.7
		c0,4.8-0.3,5.1-4.9,5.1c-34.3,0-68.7,0-103,0.1c-2.9,0-3.9-0.5-3.9-3.7c0.2-11.7,0.2-23.5,0-35.2c0-2.4,0.8-3,3.1-3
		c12.7,0.1,25.5,0,38.2,0c1,1.1,0.8,2.4,1,3.7c0.5,3.3,1.6,4.3,4.9,4.4c5.5,0.1,11,0,16.4,0c4.2,0,4.6-0.3,5.7-4.4
		C870.2,320.3,870.4,319.9,870.8,319.6z"/>
	<path class="st55" d="M870.8,365.6c0.6-2,1.9-2.5,3.9-2.4c11.6,0.1,23.3,0.1,34.9,0c2.4,0,3,0.7,3,3c-0.1,11.2,0,22.5-0.1,33.7
		c0,4.8-0.3,5.1-4.9,5.1c-34.3,0-68.7,0-103,0.1c-2.9,0-3.9-0.5-3.9-3.7c0.2-11.7,0.2-23.5,0-35.2c0-2.4,0.8-3,3.1-3
		c12.7,0.1,25.5,0,38.2,0c1,1.1,0.8,2.4,1,3.7c0.5,3.3,1.6,4.3,4.9,4.4c5.5,0.1,11,0,16.4,0c4.2,0,4.6-0.3,5.7-4.4
		C870.2,366.3,870.4,365.9,870.8,365.6z"/>
	<path class="st25" d="M903.5,299.2c-1.3,1.4-3,1-4.6,1.2c-1.6,0.2-3.4-0.3-4.7,1.1c-5,0-9.9,0-14.9,0.1c-1.9,0-2.5-0.8-2.7-2.6
		c-0.6-7.9-1.3-15.7-2.1-23.6c-0.1-1.4,0.1-1.8,1.4-1.8c10.6,0,21.3,0,31.9,0c1.4,0,1.4,0.8,1.7,1.9c0.8,3.5,0.5,7.1,1,10.6
		c0.7,4.8,0.9,9.6,1.3,14.5c-2-0.4-4.3,0.7-5.9-1.3c1.2-0.9,1.6-2.1,1.5-3.6c-0.4-5.3-1-10.7-1.4-16c-0.1-1.8-1.1-2.7-2.9-2.7
		c-7.4-0.1-14.7,0-22.1,0c-1.6,0-2.4,0.8-2.3,2.4c0.4,5.5,0.8,11.1,1.4,16.6c0.2,2,1.7,2.5,3.4,2.5c5.3,0,10.5,0,15.8,0
		C901,298.4,902.4,298.2,903.5,299.2z"/>
	<path class="st25" d="M870.8,319.6c0,5.8-0.7,6.6-6.4,6.6c-5.5,0-11,0-16.4,0c-4.1,0-5.7-1.5-5.8-5.7c0-1.1,0-2.2,0-3.3
		c8.7,0,17.4,0,26.1,0C870,317.1,871.1,317.5,870.8,319.6z"/>
	<path class="st25" d="M870.8,365.6c0,5.8-0.7,6.6-6.4,6.6c-5.5,0-11,0-16.4,0c-4.1,0-5.7-1.5-5.8-5.7c0-1.1,0-2.2,0-3.3
		c8.7,0,17.4,0,26.1,0C870,363.1,871.1,363.5,870.8,365.6z"/>
	<path class="st25" d="M870.8,411.6c0,0.9,0.1,1.8,0,2.7c-0.3,2.5-1.3,4-4.2,3.9c-6.2-0.1-12.5,0-18.7,0c-4.1,0-5.6-1.5-5.8-5.7
		c0-0.9,0-1.8,0-2.7c8.7,0,17.4,0,26.1,0C869.4,409.8,870.9,409.5,870.8,411.6z"/>
	<path class="st2" d="M277.7,426.8c1.4,0.4,2.1,1.7,3,2.7c0.8,0.7,1.4,1.7,2.6,1.6c0.6,0.6,0.7,1.3,0.2,2
		c0.6,10.2,2.3,20.3,4.4,30.2c1.5,7.1,3.4,14.1,5.1,21.1c-1.1,1-2.4,0.8-3.7,0.8c-18.6,0-37.3,0-55.9,0c-1.3,0-2.6,0.2-3.7-0.8
		c-3.4-16.1-8.4-31.8-14.5-47.1c-2-5.1-4.2-10.1-6.4-15.5c5.7,0.7,11.1,1.4,16.5,2C242.8,425.7,260.2,427.7,277.7,426.8z"/>
	<path class="st2" d="M293.2,485c1.2,3.6,2.4,7.2,3.6,10.8c-1.3,2.1-0.3,5.3-3.1,6.7c-1.5,0.4-3,0.3-4.4,0.3c-9,0-18-0.1-27.1,0
		c-9.7,0.1-19.4,0.9-29.1,0.6c-1.8-0.1-3.6,0.1-5.2-0.9c-1.1-0.9-0.8-1.9-0.1-2.8c0.7-1,1.5-2.1,1.7-3.4c1.9-2.7,0.7-5.8,0.9-8.7
		c-0.6-1.8-0.4-2.8,1.9-2.8c20,0.1,40.1,0,60.1,0C292.6,484.8,292.9,484.9,293.2,485z"/>
	<path class="st9" d="M229.4,496.2c1.5,2.5-1.6,3.2-2,4.9c-0.8,1.8-1.9,3.2-4.1,2.9c-8.8-4.7-17.4-9.8-26.1-14.8
		c-0.8-0.5-1.4-1-1.7-2c-0.1-0.6,0.1-1.1,0.4-1.6c0.4-0.6,1.2-0.7,1.7-1.2c1.3-0.8,2-2.4,3.6-2.9c9.1,4.8,18.1,9.6,27.2,14.4
		C228.6,496.1,229,496.1,229.4,496.2z"/>
	<path class="st4" d="M293.2,485c-19.9,0-39.8,0-59.7,0c-1.8,0-3.5-0.1-3.2,2.5c-0.6-1-0.6-2-0.5-3.1c21.1,0,42.2,0,63.3,0
		C293.1,484.6,293.2,484.8,293.2,485z"/>
	<path class="st58" d="M747.1,234.7c-0.2-0.2-0.4-0.4-0.6-0.6c0.6-1.6,1.2-3.2,1.8-4.8C748.3,231.2,748.1,233.1,747.1,234.7z"/>
	<path class="st15" d="M134.8,196.5c22.9,0,45.8,0,68.6,0c4.3,0,5.1,0.7,5.4,5.1c0.9,11.2,2.2,22.4,3.5,33.6
		c0.8,6.5,1.2,13,1.9,19.5c0.1,1.2,0.4,2.3,1.1,3.3c-1.9,3.6-3,7.1-1.8,11.3c0.9,3.1-2,4.1-4.1,5.4c-11.7-10.2-23.2-20.6-35.2-30.4
		c-3.4-1.2-5.4-0.7-7.4,2.2c-4.7,6.9-9.3,13.8-13.9,20.8c-0.6,0.8-1.1,1.7-2,2.1c-1.6,0.3-2.3-1-3.1-1.9c-1.8-1.9-4.1-3.4-5.3-5.9
		c-2-1.2-3.4-0.8-4.6,1.2c-2.8,4.8-5.7,9.5-8.6,14.3c-1.5,0.4-2.4-0.8-3.4-1.5c-6.9-4.8-13.8-9.6-20.5-14.6c-2-0.3-3.4,0.4-4.7,2
		c-3.9,4.7-7.8,9.5-11.8,14.1c-0.5,0.6-0.7,2-1.9,1.5c-1-0.4-1.8-1.3-2-2.5c-0.6-6.1-1.2-12.2-1.8-18.3c-0.4-4.3-0.8-8.6-1.2-13
		c14.8,0,29.6,0,44.4,0c6.5,0,7.9-1.5,8-8.1C134.6,223.3,134.7,209.9,134.8,196.5z"/>
	<path class="st59" d="M103.7,225.6c0-6.2,0-12.1,0-18.6c-1.2,1.2-1.9,2.1-2.8,2.8c-0.9,0.8-2.1,0.9-3,0.1c-0.9-0.8-1-1.9-0.2-2.9
		c2.2-2.7,4.3-5.5,6.5-8.1c1.2-1.4,2.6-1.4,3.8,0.1c2.1,2.6,4.1,5.1,6.1,7.7c0.9,1.1,1.3,2.4-0.1,3.4c-1.2,0.8-2.5,0.5-3.4-0.7
		c-0.6-0.8-1.2-1.5-2.2-2.6c0,6.6,0,12.6,0,18.9c1.3-0.6,1.9-1.9,2.8-2.6c0.9-0.7,1.8-1,2.7-0.2c1,0.8,1.3,1.9,0.6,2.9
		c-2.2,2.9-4.5,5.8-6.9,8.6c-1,1.1-2.4,1.1-3.4-0.1c-2.2-2.7-4.4-5.4-6.6-8.1c-0.9-1.1-0.8-2.2,0.2-3.2c1.1-1,2.2-0.6,3.1,0.4
		C101.9,224,102.3,225.1,103.7,225.6z"/>
	<path class="st60" d="M345.7,508.2c1.7,1.3,3.7,1.7,5.9,1.7c97.2,0,194.4,0,291.6,0c1.8,0,3.5-0.4,5.2-1.1
		c6.9-0.6,13.9-0.6,20.8-0.1c10.2,0.7,20.4,0.2,30.6,0.5c1.6,0,3.2-0.1,4.7,0.3c1.9,1,0.5,1.8-0.4,2.2c-2.1,1.1-4.5,1.7-6.8,2.3
		c-2.1,0.5-4,1-3.3,3.8c0.1,0.4-0.4,0.6-0.8,0.8c-1.4,0.7-2.9,0.7-4.4,0.7c-34.5-0.4-69,0.8-103.6,0.6c-28.1-0.2-56.1-0.1-84.2,0
		c-4.4,0-8.7,0.7-13.1,0.6c-46.5-1.3-92.9,0-139.4-0.8c-19.6-0.3-39.2,0.3-58.8-0.6c-14-0.6-28.1,0.2-42.1-0.6
		c-11.2-0.6-22.5,0-33.7-0.5c-12.8-0.6-25.6-0.7-38.4-1.3c-6.1-0.3-12.1-0.3-18.2-0.4c-1.9,0-3.7-0.5-5.6-0.7
		c-0.8-0.1-1.7-0.4-1.7-1.3c-0.1-1.1,0.7-1.5,1.6-1.9c0.6-0.2,1.2-0.3,1.8-0.3c5.2,0.2,10.3-0.7,15.5-0.7
		c18.1,0.1,36.2-1.4,54.3-1.4c8.1,0,16.3-0.3,24.5-0.4c15.2-0.2,30.4-0.8,45.7-0.7c8.6,1.8,17.1,0,25.7-0.1c4-0.1,8.1-0.5,12.1-1.1
		C336,508.4,340.9,507.7,345.7,508.2z"/>
	<path class="st2" d="M308.7,485c11.9,0,23.8,0,35.7,0c0,5.8,0,11.5,0,17.3c-2.3,1.6-5,0.7-7.4,0.9c-1.5,0.1-2.9,0-4.4-0.1
		c-8.5-0.5-16.2-3-22.8-8.6C309.3,491.5,308.7,488.3,308.7,485z"/>
	<path class="st8" d="M649.6,507.1c0.2-1,0.4-2,0.6-3c1.1-0.9,2.4-0.8,3.7-0.8c17.7,0,35.4,0,53.1,0c3.7,0,4,0.3,4.3,3.3
		c-0.1,0.4-0.2,0.8-0.4,1.1c-0.4,0.4-1,0.7-1.6,0.8c-9.2,0.4-18.4,0.7-27.4,0c-9.3-0.8-18.5,0-27.7-0.4
		C652.6,508,651,508.4,649.6,507.1z"/>
	<path class="st51" d="M707.7,497.5c0.4,1.7,0.3,3.8,2.9,3.8c1.3,2.5-0.3,2.6-2.1,2.6c-9.2,0-18.4,0-27.7,0c-9.2,0-18.4,0-27.7,0
		c-1,0-2,0.2-2.9-0.3c0-1,0-2,0-3c8.5,0,17.1-0.5,25.6,0.1c9.4,0.7,18.8,0.1,28.2,0.5C706.9,501.4,708.1,500.3,707.7,497.5z"/>
	<path class="st15" d="M649.6,507.1c20-0.5,39.9,1,59.9,0.6c-0.7,1.9-2,2.9-4.1,2.4c-1.7,0-3.4-0.1-5.1,0
		c-16.3,0.4-32.6-0.8-48.8-0.6c-1.1,0-2.2-0.2-3.2-0.7C648.8,508.3,649.2,507.7,649.6,507.1z"/>
	<path class="st4" d="M345.7,508.2c-3.3,1.6-6.7,0.4-10.1,0.7c-1.4,0.1-3.2,0.8-4.4-0.8c0.3-1.8,0-3.8,1.5-5.3
		c1.4,2.1,3.5,2.5,5.9,2.3c2-0.1,3.9-0.3,5.9,0.1C344.9,506.3,345.3,507.2,345.7,508.2z"/>
	<path class="st61" d="M344.5,505.3c-3.4,1.4-7,0.6-10.5,0.5c-1.6,0-0.4-2.2-1.5-2.8c-0.6,0.2-0.7-0.1-0.6-0.6c4.2,0,8.3,0,12.5,0
		C344.4,503.3,344.5,504.3,344.5,505.3z"/>
	<path class="st62" d="M650.2,503.6c19.1,0,38.3,0,57.4,0c1.7,0,3.3,0.2,3-2.3c0.2-0.1,0.4-0.1,0.6,0c1,1,0.9,2.2,0.9,3.5
		c-0.2,1,0.2,2.3-1.4,2.4c0.3-2.3-0.6-3-2.9-3c-19.2,0.1-38.3,0-57.5,0C650.2,504,650.2,503.8,650.2,503.6z"/>
	<path class="st2" d="M787.2,96.7c-6.4,0-12.7-0.1-19.1,0c-2,0-2.6-0.6-2.5-2.5c0.1-2.7,0.1-5.4,0-8.1c-0.1-1.6,0.6-2.1,2.1-2.1
		c13.2,0.1,26.5,0.1,39.7,0.1c1.4,0,1.9,0.5,1.9,1.9c-0.1,2.8-0.1,5.6,0,8.4c0.1,1.8-0.6,2.4-2.4,2.4
		C800.3,96.7,793.7,96.8,787.2,96.7C787.2,96.7,787.2,96.7,787.2,96.7z"/>
	<path class="st63" d="M233.3,120.5c-4.3,0-8.5,0-12.8,0c-2.7,0-4.2-1-4-4.1c0.2-4.8,0.1-9.5,0-14.3c-0.1-2.5,1.1-3.5,3.4-3.5
		c8.9,0,17.9,0,26.8,0c2.5,0,3.5,1.3,3.4,3.8c-0.1,4.9-0.2,9.7-0.1,14.6c0.1,2.7-1.3,3.5-3.7,3.5
		C242.1,120.5,237.7,120.5,233.3,120.5z"/>
	<path class="st64" d="M908,214.4c-4.5,0-9,0-13.4,0c-3.3,0-4.1-0.8-4-4.1c0.1-2.3-1.1-4.9,2.1-6.4c0.9-0.4,0.6-1.9-0.6-2.7
		c-1.4-0.9-2.2-5.5-1.4-7.8c0.8-2.1,2.6-2.2,4.5-2.2c8.7,0,17.3,0,26,0c3.9,0,4.6,0.8,4.6,4.8c0,2.1,0.5,4.3-2.1,5.7
		c-1.2,0.6-0.6,1.8,0.4,2.7c1.7,1.4,2.4,6.8,1.2,8.6c-0.8,1.3-2.1,1.3-3.4,1.3C917.1,214.4,912.6,214.4,908,214.4z"/>
	<path class="st14" d="M174.2,244.3c2.1,0.4,3.7,1.8,5.3,3.2c8.7,7.8,17.5,15.5,26.5,23c1.4,1.2,3.1,2.2,3.5,4.3
		c-1.2,1.4-2.4,2.8-3.6,4.2c-8.7,0-17.5,0-26.8,0c1.7-1.7,3.7-1.5,5.3-2.3c2.2-1.1,5.5-1.2,5.3-4.7c-0.2-3.3-3.4-3.2-5.6-3.8
		c-3.3-0.9-6.7-1.5-10.1-2.4c-1.5-0.4-3.1-1-3.3-3c-0.2-2.2,1.5-2.8,3-3.6c0.1,0,0.2-0.1,0.3-0.1c7.5-2.2,7.7-4.7,2.3-11.9
		C175.5,246.2,173.8,245.9,174.2,244.3z"/>
	<path class="st55" d="M105.5,261c4,1.2,6.8,4.3,10.2,6.4c4.7,3,9.2,6.4,13.7,9.7c0.2,0.7,1.3,0.6,1.3,1.6c-7,0-14,0-21.2,0
		c1.1-1.2,2.5-1.3,3.7-1.6c1.1-0.2,2.1-0.7,2.2-1.7c0.1-1.4-1.3-1.6-2.3-1.8c-2.2-0.5-4.4-0.9-6.7-1.2c-1.3-0.2-2.4-0.7-2.5-2
		c-0.1-1.3,1.2-1.3,2.1-1.7c3.8-1.5,4-2.7,1.2-5.7C106.6,262.4,106,261.7,105.5,261z"/>
	<path class="st55" d="M142.5,261.6c2.8,2.6,5.6,5.2,8.4,7.8c2.3,2.4,4.7,4.9,7,7.3c0.5,0.5,1.3,0.9,1,1.7c-0.3,0.9-1.2,0.6-1.8,0.6
		c-4.3,0-8.5,0-12.9,0c0.1-1.6,1.4-0.9,2-1.3c0.9-0.6,2.1-1.2,2-2.4c-0.1-1.1-1.2-1.5-2.1-1.9c-1.5-0.6-3.2-0.2-4.6-1
		c-1.7-0.9-2-2.5-0.6-3.2c3.9-1.8,3.4-3.9,1.2-6.6C141.9,262.3,142.1,261.8,142.5,261.6z"/>
	<path class="st65" d="M228,279c-0.1,1.4,0,2.8-0.6,4.2c-0.3-0.8,0.2-1.8-0.6-2.5c0.2-0.8,0.5-1.6,0.7-2.4
		C228,278.3,228.3,278.4,228,279z"/>
	<path class="st66" d="M94.2,335.7c1.9-0.2,3.9-0.5,5.8-0.6c1.9,0,2.1-1,1.9-2.4c1.2-2.4,0-5.3,1.6-7.8c0.4,2.5-0.1,4.9,0.8,7.2
		c0,0.2,0,0.4,0,0.6c-0.2,1.4,0,2.5,1.8,2.5c1.4,0,2.7,0.3,4.1,0.5c0.6,0.8,2.1-0.5,2.3,1.1c-1.4,0.2-2.8,0.6-4.1,0.4
		c-4.3-0.7-4.6,2.2-4.7,5.1c-0.1,1.8-0.2,3.5-1.3,5.9c0-1.9,0-3,0-4.2c-0.3-6.7-0.4-6.8-7.1-7.3C95,336.3,93.8,336.9,94.2,335.7z"/>
	<path class="st6" d="M331.9,502.4c0.2,0.2,0.4,0.4,0.6,0.6c0.6,2,0.1,3.7-1.3,5.1c-4.1,2.1-8.6,1.5-12.9,1.8
		c-6.8,0.6-13.7,0.5-20.5,0.8c-1.6,0.1-2.9-0.3-4.1-1.3c-0.6-0.4-0.7-1-0.7-1.6c-0.1-0.6,0-1.2,0-1.7c0-0.4,0.1-0.8,0.2-1.3
		c0.2-0.5,0.3-1.1,0.4-1.6c0.1-0.6,0.3-1.1,0.7-1.5c1.1-1.9-0.2-4.8,2.4-6c4.4-0.2,8.7-0.4,13-1.1c1.2,0.3,2.3,0.6,3.3,1.4
		C318.6,500.2,325.1,501.8,331.9,502.4z"/>
	<path class="st67" d="M283.6,433.1c-0.1-0.7-0.1-1.3-0.2-2c5.5-4,11.2-7.7,17-11.3c1.2,2.2,1.6,4.7,1.8,7.2
		c-0.1,1.2-0.9,1.6-1.9,1.9c-4.6,1.7-9.3,3.4-13.8,5.5C284.4,435.4,284.1,434.4,283.6,433.1z"/>
	<path class="st68" d="M255,292.6c0.8,1.3,2.4,2.4,1.4,4c-0.8,1.2-2.2,0-1.9-1.6C254.7,294.1,254.8,293.4,255,292.6z"/>
	<path class="st69" d="M250.6,302.9c-2.2-1-3.6-2.3-2.4-4.9c1.5,0.1,1.5,1.6,2.3,2.4C250.9,301.2,251.4,302,250.6,302.9z"/>
	<path class="st70" d="M260,290c-0.8,0.9,0,2.9-2,2.6c-0.7-0.1-0.8-0.9-0.6-1.4C257.7,289.8,258.6,289.3,260,290z"/>
	<path class="st71" d="M249.8,300.4c-0.5-0.8-1.1-1.6-1.6-2.4c0.3-0.5,0.6-1.1,1.3-0.5c1.1,1,2.1,1.9,3.2,2.9
		C251.7,302.7,250.8,300.3,249.8,300.4z"/>
	<path class="st72" d="M249.8,300.4c1-0.9,1.8,1.8,2.8,0.1c0.6,1.5-0.2,2.5-2.1,2.5C250.8,301.9,250.1,301.2,249.8,300.4z"/>
	<path class="st73" d="M246.6,283.8c1.6-1.6,3.1-1.9,5.3-0.4C249.8,283.6,248.2,283.7,246.6,283.8z"/>
	<path class="st70" d="M249.4,287.8c0.6,0,0.9,0.1,0.7,0.9c-0.3,0.9-0.2,2.1-1.5,2.1c-0.6,0-0.9-0.7-0.8-1.4
		C247.8,288.4,248.3,287.9,249.4,287.8z"/>
	<path class="st74" d="M261.7,286.5c-1.3-0.6-2.6-1.3-3.8-1.9C259.7,284,261.1,284.5,261.7,286.5z"/>
	<path class="st75" d="M230.1,269.4c0.3,0.7,0.6,1.5,0.9,2.2c-0.6,1.2-1.3,2.5-1.9,3.7c-1.2,0-0.8-0.7-0.6-1.3
		C228.8,272.4,227.7,270.3,230.1,269.4z"/>
	<path class="st76" d="M228.5,274c0.2,0.4,0.4,0.9,0.6,1.3c-0.4,1.2-0.8,2.4-1.1,3.7c-0.2-0.2-0.3-0.4-0.5-0.6
		C227.2,276.8,228.1,275.5,228.5,274z"/>
	<path class="st4" d="M839.5,295.7c-4.2,0-8.4-0.1-12.5,0c-2,0-2.3-0.8-2.1-2.6c0.6-6.2,1.2-12.4,1.7-18.6c0.4-4.8,0.8-9.6,1.2-14.5
		c0.1-0.8,0.3-1.3,1.2-1.4c1.3-0.2,2.5-0.6,3.8-0.6c6.7,0.1,13.3,0,20,0c4,0,4.5,0.4,4.2,4.2c-0.6,8-1.5,15.9-2.2,23.9
		c-0.3,2.6,0,5.1-0.6,7.7c-0.4,1.6-1,1.9-2.4,1.9C847.7,295.6,843.6,295.7,839.5,295.7z"/>
	<path class="st77" d="M412.6,106.3c2.3,0,4.2,2,4.1,4.5c0,2.5-1.9,4.5-4.2,4.4c-2.4,0-4.1-2-4.1-4.5
		C408.4,108.1,410.2,106.2,412.6,106.3z"/>
	<path class="st78" d="M433.5,110.8c0,2.5-1.8,4.5-4.1,4.5c-2.3,0-4.2-2.1-4.2-4.5c0-2.5,1.9-4.5,4.2-4.4
		C431.8,106.3,433.5,108.2,433.5,110.8z"/>
	<path class="st78" d="M395.9,106.3c2.4,0,4.2,1.8,4.2,4.4c0,2.5-1.8,4.5-4.1,4.5c-2.3,0-4.3-2-4.3-4.4
		C391.7,108.3,393.5,106.3,395.9,106.3z"/>
	<path class="st79" d="M903.5,299.2c-7,0-14.1,0-21.1,0c-1.8,0-2.4-0.5-2.9-2.4c-0.6-2.6-0.2-5.1-0.7-7.7c-0.7-3.7-0.6-7.5-0.9-11.2
		c-0.1-1.5,0.5-2.1,2-2.1c8.2,0,16.5,0.1,24.7,0c2.2,0,2.4,1.6,2.4,3c0.4,6.3,0.9,12.6,1.7,18.8c0.3,2.4-1.8,1.1-2.8,1.5
		c-0.2-1.8-0.5-3.6-0.7-5.4c-0.4-0.5-0.5-1-0.5-1.6c0-0.2,0-0.5,0-0.7c0,0.4,0,0.8,0,1.1c0,0.4-0.2,0.8-0.5,1.1
		C904.1,295.7,903.8,297.5,903.5,299.2z"/>
	<path class="st80" d="M904.3,293.9c0-0.4,0-0.8,0-1.2c0.3-0.3,0.4-1,1.1-0.6c0,0.6,0,1.2,0,1.8C905,293.9,904.7,293.9,904.3,293.9z
		"/>
	<path class="st14" d="M831.5,506.6c-0.2-0.1-0.3-0.3-0.2-0.5c1.2-1.6,2.6,0,3.9-0.1c9.2-0.5,18.5,0.3,27.7,0.7
		c11.6,0.5,23.1,0.8,34.6,2.1c3,0.3,6.1,0.5,9.1,1.3c2.1,0.5,4.1,1.4,4.2,3.9c0.1,2.6-2,3.4-4,4.1c-2.7,1.1-5.7,1.1-8.5,1.4
		c-7.2,0.7-14.4,0.9-21.6,1.3c-11,0.6-22,1-33,1.4c-4.4,0.1-8.9,0.1-13.4,0.5c-9.7,0.7-19.5,0.1-29.2,0.7
		c-8.8,0.6-17.5-0.1-26.2,0.5c-11.3,0.9-22.7-0.1-34,0.6c-12,0.8-24.1,0-36.1,0.5c-21.5,0.9-43,0.1-64.4,0.6
		c-43.3,1.1-86.6,0-129.8,0.6c-9.5,0.1-19.1,0.7-28.6,0.4c-46.1-1.2-92.1,0.1-138.2-0.7c-19.6-0.4-39.2,0.3-58.8-0.6
		c-14-0.6-28.1,0.2-42-0.6c-11.2-0.7-22.5,0.2-33.7-0.6c-9.2-0.7-18.3,0.2-27.4-0.6c-7.9-0.6-15.7-0.1-23.5-0.5
		c-12-0.6-24-0.9-36-1.3c-8.4-0.2-16.8-0.6-25.2-1.2c-8-0.5-16-0.6-23.9-2.3c-0.8-0.2-1.6-0.3-2.3-0.6c-1.7-0.7-3.3-1.7-3.2-3.8
		c0.1-2.3,1.8-3.2,3.6-3.8c4-1.3,8.2-1.6,12.3-1.8c8.8-0.4,17.6-1.3,26.4-1.4c3.5,0,7.1-0.5,10.7-0.5c-0.2,0.6-0.4,1.2-0.6,1.8
		c-1.6,1.3-3.6,0.8-5.4,0.9c-1.7,0.1-3.3-0.3-5,0.2c-5.2-0.8-10.4,0.3-15.6,0.5c-6.2,0.3-12.5,0.8-18.6,1.8c-0.7,0.1-1.4,0.3-2,0.7
		c-0.7,0.4-1.5,0.8-1.5,1.7c-0.1,1.1,0.8,1.5,1.7,1.8c3,1.1,6.2,1.1,9.4,1.5c4.4,0.6,8.9,0.9,13.3,0.9c6.2,0,12.4,1.7,18.6,0.7
		c2.1-0.3,4.3,0.4,6.5,0.6c4,0.4,7.9,0.7,11.9,0.5c1.4-0.2,2.8-0.2,4.2,0.1c5.1,0.6,10.3,0.4,15.5,0.5c1.4-0.2,2.9-0.2,4.3,0.1
		c6.3,0.7,12.7,0.2,19,0.5c1.5-0.2,2.9-0.2,4.3,0.1c2.8,0.7,5.7,0.4,8.6,0.3c4.8-0.1,9.7,0.4,14.5,0.2c1.5-0.2,2.9-0.2,4.4,0.1
		c2.7,0.7,5.5,0.3,8.3,0.4c6.3,0.2,12.7-0.5,19,0.4c0.6,0.1,1.2-0.2,1.7-0.3c1.5-0.3,3-0.2,4.5,0.1c1.3,0.5,2.7,0.4,4.1,0.4
		c8.9,0,17.8,0.1,26.7,0c2.2,0,4.3,0.9,6.5,0.2c1.5-0.3,3-0.2,4.5,0.1c1.4,0.5,2.9,0.4,4.4,0.4c14.2,0,28.3,0.1,42.5,0
		c2.4,0,4.7,0.9,7.1,0.2c1.5-0.3,3.1-0.2,4.6,0.1c1.6,0.5,3.4,0.3,5,0.3c38.7,0,77.4,0,116.1,0c2.7,0,5.3,0.7,8,0.2
		c1.5-0.3,3.1-0.2,4.6,0.1c2.2,0.7,4.5,0.4,6.8,0.4c7-0.2,14.1,0.5,21.1-0.4c1.9-0.3,3.8-0.4,5.7-0.1c2.7,0.6,5.3-0.2,8-0.2
		c37.9,0.1,75.8,0,113.7,0c1.7,0,3.4,0.2,5-0.3c1.5-0.3,3.1-0.4,4.6-0.1c2.4,0.7,4.7-0.2,7.1-0.2c14.3,0.1,28.5,0.1,42.8,0
		c1.4,0,2.8,0.1,4.1-0.3c1.5-0.3,3-0.4,4.5-0.1c2.2,0.8,4.3-0.2,6.5-0.2c9.1,0.1,18.2,0,27.3,0c1.4,0,2.8,0.1,4.1-0.3
		c1.5-0.3,3-0.3,4.5-0.1c2.1,0.8,4.1-0.2,6.2-0.2c6.2,0.1,12.5,0,18.7,0c1.2,0,2.4,0.1,3.5-0.4c1.5-0.3,2.9-0.3,4.4-0.1
		c2.8,0.7,5.5-0.2,8.2-0.2c4.9,0.1,9.9,0.5,14.8-0.3c5.4-1.2,10.9-0.1,16.3-0.2c3.8-0.1,7.6-0.2,11.3-0.9c1.8-0.4,3.5,0.3,5.3,0.3
		c4.9,0,9.7,0.1,14.5-0.9c1.3-0.3,2.6,0.1,3.8,0.2c2.8,0.1,5.5,0.2,8.3-0.2c2.7-0.4,5.4-1,8.3-0.4c2.3,0.5,4.7-0.3,7.1-0.4
		c5.5-0.4,11-0.5,16.5-0.9c4.6-0.4,9.3-0.8,13.9-1.6c0.4-0.1,0.8-0.2,1.2-0.3c0.9-0.4,2-0.7,2-1.9c0-1.2-1.1-1.6-2-1.9
		c-3.5-1.3-7.3-1.2-10.9-1.4c-3.7-0.2-7.5-0.5-11.2-0.9c-6.3-0.7-12.7,0.1-18.9-1.2c-3.7-0.8-7.5,0.7-11.3-0.1
		c-4.6-0.9-9.3-0.9-13.9-0.2c-1.9,0.2-3.7-0.4-5.6-0.7C832,507.5,831.6,507.1,831.5,506.6z"/>
	<path class="st15" d="M800.7,516.1c1.6,1.1,3.2,0.5,4.8,0c7.6-2.1,15.1-5,22.9-6.5c11.4,0,22.8,0.3,34.1,1.2
		c5.4,0.4,10.7,0.4,16,1.2c1.6,0.2,4.1,0.1,4,2.2c-0.1,1.9-2.5,1.9-4.2,2.1c-8.3,1.2-16.8,1.5-25.1,1.8c-9.3,0.3-18.7,0.7-28,0.9
		c-6,0.1-12.1,0-18.1,0.6c-0.4,0.1-0.7,0.1-1.1,0c-4.8-0.6-9.5,0.6-14.3,0.4c-4.1-0.2-8.3-0.5-12.5,0.3c-11.7,0.5-23.5-0.1-35.2,0.7
		c-2.6-1-5.1,0.2-7.7,0.2c-9.4-0.1-18.9,0-28.3,0c-1.4,0-2.8,0-4.1,0.4c-11.7,0.3-23.4,0.1-35.1,0.2c-50.6,0.8-101.2,0.5-151.8,0.5
		c-2,0-3.9,0.8-5.9,0.5c-2.4-1-4.7,0.2-7.1,0.2c-9.3,0-18.5,0.3-27.8-0.1c-21.7-1-43.3-0.4-65-0.5c-22.1-0.1-44.2,0-66.3,0
		c-3.9,0-7.9-0.8-11.8-0.2c-1.4-0.5-2.9-0.4-4.4-0.4c-12.9,0-25.9,0.3-38.8-0.1c-16-0.4-32-0.4-47.9-0.5c-2.7,0-5.3-0.9-8-0.1
		c-6-1-12.1-0.5-18.1-0.4c-5.5,0-11-0.7-16.5-0.3c-1.6-0.6-3.3-0.5-5-0.4c-7.2,0.3-14.5-0.4-21.7-0.4c-0.4,0.1-0.7,0.1-1.1,0
		c-0.6-0.1-1.2-0.2-1.8-0.2c-9.1,0.2-18.2-0.4-27.4-0.7c-7.3-0.2-14.7-0.4-22-0.9c-6.5-0.4-13-0.6-19.5-1.4
		c-1.7-0.2-4.3-0.2-4.4-2.2c-0.1-2.3,2.7-1.8,4.3-2.1c5.7-1,11.5-0.8,17.2-1.3c0.8-0.1,1.6,0.1,2.2,0.7c0.2,0.3,0.5,0.7,0.7,1
		c0.4,1.3,1.3,1.8,2.7,1.9c3.4,0.3,6.8,0.8,10.1,0.7c9.6-0.1,19.1,0.9,28.6,1.2c16.5,0.6,33,0.6,49.5,1.7c0.9,0.1,1.8,0,2.7,0
		c22.3-0.2,44.6,0.5,66.8,0.8c15.5,0.2,31,0,46.5,0.4c48.5,1.1,96.9,0.3,145.4,0.7c5.6,0,11.3,0.7,17,0.5c47-1.3,93.9,0.1,140.9-0.7
		c19.6-0.3,39.2-0.1,58.8-0.5c3.9-0.1,7.7-0.8,11.5-1.2c5.5-0.6,11.1-0.2,16.6-0.3c2.3,0,4.6,0,6.8-0.3c15.9-0.1,31.8-0.2,47.7-0.9
		c6.9-0.3,13.7-0.2,20.6,0C795.9,516.5,798.3,515.2,800.7,516.1z"/>
	<path class="st81" d="M701.7,518.6c-3.1,0.4-6.2,1-9.4,1c-36.7,0.3-73.4,0.5-110.1,0.6c-23.4,0.1-46.8,0-70.2,0
		c-8.6,0-17.3,0.8-25.9,0.6c-47.1-1.3-94.1,0-141.2-0.8c-19.6-0.3-39.2,0.3-58.8-0.6c-13.9-0.6-27.9,0.2-41.7-0.6
		c-11.2-0.7-22.5,0.2-33.7-0.6c-9.1-0.6-18.1,0-27.1-0.5c-11.1-0.6-22.2-0.7-33.3-1.3c-8.1-0.4-16.3,0-24.3-1.1
		c-1.2-0.2-2.3-0.4-3.5-0.6c-1.6-0.2-1.9-1.1-1.4-2.5c1.6,1.4,3,1.3,4.5-0.4c0.9-1,2.1-1.7,3.1-2.5c1.1-0.6,2.4-0.2,3.5-0.2
		c12.2,0,24.5,0,36.7,0c0.9,0,2-0.4,2.9,0.4c-0.4-0.9-1.2-0.4-1.7-0.4c-12.5,0-25.1,0-37.6-0.1c-0.8,0-2,0.7-2.5-0.7
		c0.4-0.2,0.8-0.5,1.1-0.7c2.1-0.2,4.3-0.2,6.4-0.2c9.5,0,19.1,0,28.6,0c7.1,0.1,14.1,1.9,21.2,1.2c1.4-0.1,2.8-0.1,4.1-0.5
		c7.4-0.3,14.9-0.1,22.3-0.1c2.6,0,5.2,0.3,7.8-0.5c22.9,0.2,45.9-1,68.8-0.7c1.1,0,2.2,0,3,0.9c0.1,0.6,0.1,1.1,0.2,1.7
		c-0.6,0.9-1.6,0.7-2.4,0.7c-17.7-0.4-35.4,0.7-53.1,0.7c-13.2,0-26.4,0.2-39.6,0.7c-11.2,0.4-22.4,0.9-33.6,1.2
		c-4.1,0.1-8.3,0.4-12.5,0.5c-0.8,0-1.8,0-1.8,1c0,1,1,0.6,1.6,0.7c3.9,0.8,7.9,0.6,11.9,0.6c8.6,0,17.3,0.5,25.9,0.8
		c6.2,0.2,12.5-0.1,18.7,0.5c11.1,1,22.3-0.1,33.4,0.6c13.9,0.9,27.9-0.1,41.7,0.6c19.4,1,38.8,0,58.2,0.6
		c44.5,1.3,89,0.1,133.4,0.7c5.2,0.1,10.5,0.6,15.8,0.5c46.5-1.3,92.9,0.1,139.4-0.7c19.7-0.4,39.4-0.1,59.1-0.5
		c1.4,0,2.7-0.4,4.1-0.5C696.5,517.5,699.2,517,701.7,518.6z"/>
	<path class="st12" d="M144.4,502.3c1.3-2.3,2.6-4.6,4-6.8c0.8-1.3,1-2.5,0.1-3.8c1.1-1.2,2.8-1,4.2-1.1c13.7-1,27.3-3.1,41-4.2
		c1.8,0.5,2.3,2.4,3.5,3.5c4,3.8,7.4,8,11.2,11.9c1.4,1.4,2.8,2.9,4.9,3.1c0.5,0.1,1.2,0.3,0.9,1.1c-1.6,1.3-3.6,0.6-5.4,0.8
		c-2.3,0.1-4.5-0.3-6.8,0.4c-3.6,0.3-7.3,0.3-10.9,0c-2.8-0.8-5.7-0.3-8.5-0.4c-3.2,0.3-6.3-0.6-9.5-0.6c-2.6,0.2-5.1-0.7-7.7-0.6
		c-1,0-2,0-3-0.2c-1.1-0.4-2.3-0.4-3.5-0.4c-3.7-0.4-7.4-0.8-11.1-1.3C146.6,503.5,145.2,503.4,144.4,502.3z"/>
	<path class="st3" d="M120.3,511.3c-7.3,0.8-14.6,0.7-21.8,1.8c-0.7,0.1-1.6,0-1.6,0.9c0,0.7,0.8,0.8,1.4,0.9c3,0.4,5.9,1.4,8.9,1.2
		c2.8-0.2,5.5,0.2,8.2,0.7c2.7,0.5,5.6,0.3,8.4,0.3c9.2,0.1,18.4,0.9,27.6,0.9c6.3,0,12.7,0.4,19,0.5c0.4,0,0.9,0.4,1.3,0.6
		c-1.1,1.1-2.6,0.8-3.9,0.8c-4,0.2-8.1-0.4-12.1,0.4c-5.8,0.4-11.5,0.4-17.3,0.1c-8.8-0.4-17.6-0.6-26.5-1.1
		c-9.6-0.6-19.2-0.8-28.7-2.3c-1.9-0.3-4.5-0.6-4.6-3c0-2.3,2.6-2.4,4.4-2.7c5.5-0.9,11.1-1,16.6-1.5c3.3-0.3,6.5-0.6,9.8-0.1
		c0.9,0.1-0.2-0.6,0.2-0.7c3.5-1.3,7.1-0.3,10.7-0.6C120.3,509.3,120.3,510.3,120.3,511.3z"/>
	<path class="st2" d="M194.5,487c-15.3,1.7-30.6,3.6-46,4.7c-2-2-4-4-6-6c0-1.4,1.1-0.9,1.8-0.9c16.8,0,33.6,0,50.4,0
		c0.7,0,1.7-0.4,1.7,0.9c-0.2,0.4-0.4,0.7-0.6,1.1C195.3,487.2,194.9,487.2,194.5,487z"/>
	<path class="st82" d="M162.3,504.7c1,0,1.9,0.1,2.9,0.1c0.5,2-1.1,1.7-2.1,1.9c-4.2,0.6-8.4,0.7-12.7,0.6c-1.1,0-2.2,0-3.2,0.1
		c-0.3,0.1-0.6,0.1-1,0.1c-3.3-0.8-6.7,0.2-10,0.1c-1.1,0-2.6,0.8-3.2-1c2.5-2.1,5.6-2.7,8.6-3.6c0.9-0.3,1.9-0.5,2.8-0.8
		c5,0.7,9.9,1.3,14.9,2C160.2,504.8,161.4,504.1,162.3,504.7z"/>
	<path class="st4" d="M196.3,485.7c-0.7-1-1.8-0.7-2.8-0.7c-16.1,0-32.2,0-48.3,0c-1,0-2-0.3-2.8,0.6c-0.6-0.2-1-0.6-1.3-1.2
		c18.8,0,37.6,0,56.3-0.1C197.1,484.9,196.7,485.3,196.3,485.7z"/>
	<path class="st83" d="M130,508.5c1,0.8,2.1,0.4,3.2,0.4c12,0,24.1,0,36.1,0c1,0,2,0,2.9,0c0,0.2,0,0.4,0,0.6c-14.5,0-29,0-43.5,0
		C129.1,509.2,129.6,508.8,130,508.5z"/>
	<path class="st84" d="M133,506.7c3.5,1.2,7-0.4,10.5-0.2c1,0,1.9-0.2,2.6,0.7c-2.8,1.5-6,0.4-9,1.2c-2-0.3-4.1,0.6-6-0.6
		C131.6,507.1,132.2,506.7,133,506.7z"/>
	<path class="st22" d="M800.7,516.1c-2.6,1-5.4,1.3-8.2,1.2c-17.2-0.3-34.3,0.9-51.5,0.7c-3.8,0-7.7,0.4-11.6,0.5
		c-1.5,0-3-0.2-4.4-0.6c-1.3-2.4-2.5-4.8-1.2-7.6c1.3-1,2.7-1,4.3-1c8.5,0,16.9-0.4,25.4,0.1c10.1,0.6,20.3,0.1,30.4,0.6
		c4.8,0.2,9.5,0.4,14.3,0.5c1.4,0,2.8,0.2,3.8,1.4C800.1,512.9,799.5,514.2,800.7,516.1z"/>
	<path class="st25" d="M806.8,519.1c0.5-0.6,1.2-0.6,1.9-0.6c9.2-0.2,18.4-0.2,27.6-0.7c7.1-0.4,14.3-0.8,21.3-0.9
		c5.2,0,10.3-1.3,15.6-0.8c2.7,0.3,6.1-0.4,9.3-1.9c-1.8-1.7-3.9-1.3-5.7-1.6c-2.4-0.4-4.9-0.6-7.4-0.7c-11.1-0.2-22.1-1.7-33.3-1.3
		c-2.6,0.1-5.2-0.6-7.9-1c1.4-0.6,3.8-0.4,3.1-3.1c0.2,0.2,0.4,0.4,0.6,0.6c2.1,1.2,4.4,1.3,6.6,1.2c4.8-0.4,9.5-0.4,14.3,0.4
		c1.6,0.3,3.1,0.2,4.7,0.1c2.7-0.2,5.3-0.1,8,0.2c6,0.7,12,0.6,18.1,1.1c4.5,0.4,9.1,0.6,13.6,1.7c1.3,0.3,2.7,0.8,2.7,2.4
		c0,1.5-1.4,2.1-2.6,2.5c-4.2,1.2-8.6,1.1-13,1.6c-5,0.6-10.1,0.9-15.1,0.9c-7.4,0-14.8,1.2-22.3,0.7c-4.9-0.3-9.9,1-14.8,0.7
		c-3.1-0.1-6.1-0.4-9.2-0.3c-4-0.9-8.1-0.2-12.2-0.4C809.4,519.8,808,520.2,806.8,519.1z"/>
	<path class="st84" d="M721.3,502.5c1.2,0,2.4-0.1,3.6-0.1c1.4,1,3.1,1.2,4.8,1.2c2,0,4,0,6,0c18.9,0.2,37.9,0.1,56.8,0.7
		c6.4,0.2,12.9,0.2,19.3,0.5c-0.8,1.2-2,2.2-3.3,2.9c-4.2,1.8-8.6,1-12.9,0.8c-8.9-0.4-17.8-0.6-26.6-0.4c-3,0.1-5.9-0.7-8.9-0.2
		c-11.9-1-23.8-0.2-35.7-0.5c-1,0-2,0-2.9-0.6C720.3,505.4,720.3,504,721.3,502.5z"/>
	<path class="st15" d="M802,511.9c-2.8-0.8-5.7-0.4-8.6-0.6c-11.6-0.8-23.2,0-34.8-0.7c-10.1-0.6-20.2-0.1-30.3-0.5
		c-1.5-0.1-3,0.1-4.4,0.6c-1-0.8-1.6-1.6-0.4-2.8c1.2-0.7,2.5-0.6,3.8-0.6c8.7,0.2,17.3,0.1,26,0c2.7,0,5.3,1,8,0.5
		c9.2,0.4,18.4-0.2,27.6,0.5c4.3,0.3,8.7,0.3,13,0.2c1.4,0,2.8-0.3,3.9,0.9C804.7,510.6,803.4,511.4,802,511.9z"/>
	<path class="st25" d="M805.8,509.6c-12.9-0.2-25.7-1-38.6-0.6c-1.9,0.1-3.9-1.4-5.8-0.1c-0.5-0.5-1.7-0.6-1.2-1.8
		c1.7-1.2,3.5,0.1,5.2,0.1c6.9-0.2,13.8-0.4,20.6,0c7.5,0.5,15,0.5,22.5,0.5C807.8,508.5,806.9,509.2,805.8,509.6z"/>
	<path class="st85" d="M815.2,498.8c-1.1-0.7-2.3-0.6-3.4-0.6c-7.1,0-14.3,0-21.4,0c-0.9,0-2,0.4-2.8-1.2c8.5,0,17,0,25.4,0
		c0.6,0,1.2,0.1,1.8,0.1C814.9,497.6,815,498.2,815.2,498.8z"/>
	<path class="st86" d="M94.2,335.7c0.4,0.4,0.8,0.7,1.2,1.1c-1.5,0.3-2.8-0.4-4.4-0.8C92.1,335.5,93.2,335.7,94.2,335.7z"/>
	<path class="st87" d="M112.6,336.8c-0.8-0.4-1.6-0.7-2.3-1.1c1.7-0.3,3.2,0.3,4.9,0.8C114.3,337.1,113.4,336.8,112.6,336.8z"/>
	<path class="st5" d="M621.8,196.4c-3.7-6-7.5-12-11.2-17.9c-2.2-3.5-4.8-3.6-7-0.1c-4.8,7.7-9.6,15.3-14.4,23
		c-0.5,0.9-0.9,2.4-2.3,1.9c-1.1-0.4-0.5-1.8-0.5-2.7c0-12.6,0-25.3-0.1-37.9c0-2.2,0.6-2.8,2.8-2.8c18.7,0.1,37.4,0.1,56.1,0
		c2.2,0,2.9,0.5,2.9,2.8c-0.1,12.4,0,24.9-0.1,37.3c0,1.2,1,3.2-1.1,3.4c-2,0.3-4.4,0.8-5.8-1.7c-2.6-4.4-5.4-8.8-8.1-13.2
		c-2.6-4.1-4.4-4.2-6.8,0c-1.4,2.4-3.5,4.3-3.8,7.3C622.6,196.4,622.3,196.5,621.8,196.4z"/>
	<path class="st88" d="M621.8,196.4c0.2-0.2,0.4-0.4,0.5-0.6c1.6,2.4,3.1,4.8,4.7,7.2c-0.2,0.1-0.4,0.3-0.6,0.4
		C624.4,201.4,623.2,198.8,621.8,196.4z"/>
	<path class="st11" d="M769.4,497.9c-3.7,0-7.4,0-11.1,0c0-0.2,0-0.4,0-0.6c3.7,0,7.4,0,11.1,0C769.4,497.5,769.4,497.7,769.4,497.9
		z"/>
	<path class="st89" d="M721.3,502.5c0,1.3,0,2.7,0,4c-0.2,0.2-0.5,0.4-0.9,0.4c-3.1-0.6-6.4-0.4-9.2-2.2c0-1.2,0-2.3,0-3.5
		C714.6,501.7,718,502.1,721.3,502.5z"/>
	<path class="st51" d="M294.3,501.8c-0.1,0.6-0.1,1.2-0.2,1.8c-0.9,1.6-2.5,1.4-4,1.4c-8.6,0-17.2,0-25.9,0c-1.3,0-2.6-0.1-3.8,0.3
		c-1.3,0.3-2.6,0.3-3.9,0c-1.6-0.7-3.1-0.1-4.7,0c-8.8,0.5-17.6,0.1-26.4,0.2c-1.1,0-2.2,0.1-3-1c-0.1-0.6-0.1-1.1,0.7-1.1
		c2.2,0.7,2.8-1.5,4.2-2.3c0.9,1.1,2.2,1.2,3.5,1.2c6.7,0,13.4,0.4,20-0.1C265.3,501.2,279.8,502.1,294.3,501.8z"/>
	<path class="st90" d="M223.2,503.5c-0.2,0.2-0.4,0.4-0.7,0.6c-0.6,1.2-1.8,1.4-2.9,1.6c-1.8,0.3-3.6,1.1-5.3-0.3
		c-4,0.8-5.7-2.5-7.9-4.7c-3.8-4-7.4-8.1-11.1-12.2c-0.4-0.4-0.5-1-0.8-1.5c0.4-0.1,0.8-0.1,1.2-0.2c0.5,1.2,1.6,1.7,2.6,2.3
		C206.6,493.9,214.9,498.7,223.2,503.5z"/>
	<path class="st6" d="M723.3,508.3c0.2,0.8,0.4,1.6,0.6,2.4c0.4,2.4,0.8,4.8,1.2,7.2c-1.2,1.2-2.8,0.7-4.2,0.6
		c-6.4-0.2-12.8-0.2-19.2,0.1c-2.6-0.3-5.3,0.5-7.9-0.7c-1.7-2.9-1.5-3.4,1.6-4.2c3.4-0.9,6.9-1.6,10-3.5c1.6-0.3,2.9-1.4,4.1-2.4
		c0.4-0.1,0.8-0.1,1.2-0.2c3.4-1.4,6.9-0.7,10.4-0.4C722,507.3,723.1,507,723.3,508.3z"/>
	<path class="st83" d="M353,513.5c-5.3,0-10.6,0-15.9,0c0-0.2,0-0.4,0-0.6c5.3,0,10.6,0,15.9,0C353,513.1,353,513.3,353,513.5z"/>
	<path class="st91" d="M721.4,507.6c-3.6,0-7.1,0-10.6,0c0-0.2-0.1-0.3-0.1-0.5c0.8-0.6,0.4-1.6,0.6-2.4c3.3,0.4,6.5,0.8,9.7,1.8
		C721.2,506.8,721.5,507.1,721.4,507.6z"/>
	<path class="st92" d="M785.4,93.2c-5.9,0-10.3-0.1-14.7,0c-2.7,0.1-2.1-1.6-2.2-3.2c-0.2-1.9,0.3-3,2.5-2.8c11,0.8,22,0.4,33,0.4
		c2.7,0,2.1,1.7,2.2,3.2c0.1,1.6,0.1,3-2.2,2.8C797.3,93.2,790.6,93.1,785.4,93.2z"/>
	<path class="st7" d="M233.2,118.3c-4.1,0-8.2-0.1-12.2,0c-1.8,0-2.8-0.4-2.7-2.5c0.1-4.3,0.1-8.6,0-12.8c0-1.7,0.5-2.3,2.2-2.3
		c8.6,0.1,17.1,0,25.7,0c1.5,0,2.1,0.6,2.1,2.1c-0.1,4.5-0.1,9,0,13.4c0,1.6-0.8,2-2.2,2C241.8,118.3,237.5,118.3,233.2,118.3z"/>
	<path class="st5" d="M908,193.3c4.3,0,8.6,0,12.8,0c1.1,0,2.8-0.6,3,1.1c0.2,1.7,0.9,3.6-0.5,5.1c-2.9,3.3-2.9,3.2,0,6.7
		c1.3,1.6,0.8,3.7,0.4,5.4c-0.4,1.5-2,0.9-3.1,0.9c-8.4,0-16.7,0-25.1,0c-1.1,0-2.8,0.6-3-1c-0.2-1.8-1-3.9,0.6-5.6
		c2.5-2.6,2.5-3.6-0.1-6.4c-1.5-1.6-0.9-3.6-0.6-5.3c0.2-1.6,1.9-0.9,3-1C899.6,193.3,903.8,193.3,908,193.3z"/>
	<path class="st93" d="M214.2,505.4c1.8-0.2,3.6-0.3,5.4-0.5c12.3,0.3,24.7,0.4,37-0.1c1.2,0,2.4,0,3.6,0c1.5-0.6,3.1-0.3,4.7-0.3
		c8.7,0,17.4,0,26.1,0c1,0,2-0.3,2.9,0.3c-0.1,0.4-0.1,0.8-0.2,1.1c-1.1,1-2.4,0.9-3.7,0.9c-21.9-0.4-43.7,1-65.6,0.6
		c-1.3,0-2.6,0-3.8,0.4c-0.6,0.1-1.1,0.2-1.7,0.2c-8.2,0-16.4,0.1-24.7,0c-1.3,0-2.6,0.1-3.8,0.5c-6.9,0.4-13.8,0.1-20.8-0.4
		c-1.1-0.1-2.2-0.3-3.2,0.3c-9.8,0-19.5,0-29.3,0c2.9-0.9,5.9-1.1,9-1.2c0.2,0,0.4,0,0.6,0c4.3-0.7,8.6,0,13-0.4
		c4.5-0.4,8.9-0.9,13.4-1.2c3.2,0.2,6.4,0.4,9.6,0.6c2.8,0.5,5.6-0.3,8.4,0.4c3.7,0,7.5,0,11.2,0c2.2-0.7,4.4,0.1,6.6-0.4
		C210.6,505.6,212.5,506.4,214.2,505.4z"/>
	<path class="st25" d="M220.2,507.1c1.2-0.2,2.3-0.6,3.5-0.6c22.3,0.4,44.7-1,67-0.6c1,0,2,0,3,0c-0.1,0.6-0.1,1.2-0.2,1.8
		c-24,0.2-48.1,0.4-72.1,0.6C221,507.9,219.8,508.3,220.2,507.1z"/>
	<path class="st84" d="M293.9,504.8c-11.2,0-22.4,0-33.7-0.1c0.9-1,2-0.6,3.1-0.6c9.1,0,18.3,0,27.4,0c1.2,0,2.4,0.2,3.5-0.6
		C294.2,504,294.2,504.5,293.9,504.8z"/>
	<path class="st94" d="M905.4,292.1c-0.4,0.2-0.7,0.4-1.1,0.6c0-0.9-0.3-1.8,0.5-2.5C905.9,290.6,905.3,291.5,905.4,292.1z"/>
	<path class="st8" d="M109.6,508.9c0.5,1,1.7,0.3,2.7,1.3c-5.4-0.5-10.3,0.3-15.3,0.6c-5.2,0.3-10.4,0.6-15.6,1.8
		c-1,0.2-2.5,0.3-2.4,1.6c0,1.1,1.4,1.2,2.3,1.5c3.4,1.1,7,1.3,10.5,1.5c8.7,0.5,17.4,1.1,26.1,1.4c12.6,0.5,25.1,1.1,37.7,1.1
		c6.7-0.1,13.4,0.2,20.1-0.3c1.2-0.1,2.3,0.1,3.4,0.3c2.3,0.5,4.6,0.3,6.8,0.2c14.9-0.1,29.8,0.9,44.6,0.6c1.3,0,2.6,0.4,3.9,0.3
		c2.9-0.8,5.7,0.3,8.6,0.3c9.3-0.1,18.7-0.2,28,0.1c3.5,0.1,7.1-0.4,10.6,0.3c1.5,0.4,3,0.3,4.5,0.3c14.2,0,28.4-0.3,42.7,0.1
		c45.1,1,90.2,0.1,135.4,0.6c13.1,0.2,26.2,0.4,39.3,0.5c2.6,0,5.1-1.2,7.7-0.4c41.6-0.6,83.2,0.2,124.8-0.4
		c19.4-0.3,38.8,0.1,58.1-0.5c14.8-0.5,29.6-0.4,44.4-0.4c1.1,0.2,2.1,0.5,3.1,1c0.3,0.3,0.4,0.6,0.2,0.9c-1.4,0-2.8,0-4.2,0
		c-1,0.6-2.1,0.3-3.2,0.3c-11.7,0.2-23.4-0.3-35,0.3c-1.4,0-2.8,0-4.2,0c-1,0.5-2.1,0.3-3.2,0.3c-12.8,0-25.6,0-38.4,0
		c-4.3,0-8.5-0.1-12.8,0.3c-1.4,0-2.8,0-4.2,0c-1,0.5-2.1,0.3-3.2,0.3c-34.3,0-68.6,0-102.9,0c-7,0-14.1-0.3-21.1,0.3
		c-1.8,0-3.6,0-5.4,0c-4.4,0.6-8.9,0.3-13.3,0.3c-4.9,0-9.9,0.4-14.8-0.3c-1.4,0-2.8,0-4.2,0c-42-0.7-84.1-0.1-126.1-0.3
		c-1.2,0-2.4,0.3-3.5-0.3c-1.4,0-2.8,0-4.2,0c-17-0.7-34.1-0.1-51.2-0.3c-1.1,0-2.2,0.3-3.2-0.3c-1.4,0-2.8,0-4.2,0
		c-11.5-0.6-23-0.1-34.4-0.3c-1.1,0-2.2,0.3-3.2-0.3c-1.4,0-2.8,0-4.2,0c-8.8-0.6-17.6-0.2-26.4-0.3c-1,0-2,0.3-2.9-0.3
		c-1.4,0-2.8,0-4.2,0c-6.9-0.5-13.8-0.2-20.7-0.3c-0.9,0-1.8,0.2-2.6-0.3c-1.4,0-2.8,0-4.2,0c-6.4-0.7-12.8,0.2-19.1-0.6
		c-1.4,0-2.8,0-4.2,0c-5.2-0.7-10.4,0.1-15.5-0.6c-1.4,0-2.8,0-4.2,0c-4-0.6-8,0.1-11.9-0.6c-6.2-0.7-12.5-0.3-18.8-0.8
		c-4.3-0.3-8.9-0.7-13.4-0.7c-5.1,0-10.5-0.4-15.6-1.9c-1.3-0.4-3.1-0.8-3-2.8c0.1-1.7,1.5-2.4,2.8-2.7c4.3-1.2,8.7-1.6,13.2-1.4
		c1.3,0.1,2.3-0.5,3.5-0.6C96.8,509.4,103.2,507.9,109.6,508.9z"/>
	<path class="st8" d="M741.7,522.7c-0.8-0.1-1.8,0.3-2.4-0.6c-0.2-0.4-0.1-0.7,0.3-0.9c1.8-1,3.6-0.2,5.5-0.3
		c7.4-0.6,14.9,0.1,22.3-0.4c10.7-0.7,21.4-0.1,32-0.7c1.1-0.3,2.2-0.5,3.4-0.4c6.7,0.4,13.4,0.2,20.2,0.3c3.6,0,7.2,0.1,10.8,0
		c12-0.4,24-0.5,36-1.3c8.7-0.6,17.4-0.7,26-2.3c1.5-0.3,3.8-0.3,3.8-2.1c0-1.6-2.3-1.5-3.7-1.8c-3.9-0.6-7.8-1.4-11.7-1.5
		c-9.9-0.3-19.8-1.1-29.7-1.4c-6.2-0.2-12.5-0.3-18.7-0.5c-1.4,0-3.1,0.2-3.6-1.8c7.6,0.9,15.3,0.3,23,0.7
		c6.1,0.3,12.3,1.7,18.5,0.5c2-0.4,3.9,0.6,5.9,0.6c4.8,0,9.5,0.4,14.2,0.9c3.7,0.4,7.7,0.1,11.2,1.6c1.4,0.6,2.9,1.1,2.9,3
		c0,1.8-1.7,2.2-2.9,2.5c-3.3,0.8-6.6,0.9-10,1.3c-4,0.5-8.1,0-11.9,1.1c-3.2,0.9-6.2-0.3-9.4,0.3c-7.2,1.3-14.5,1.1-21.7,1.1
		c-6.4,0-12.8,1.6-19.2,0.8c-7.6-0.9-15.1,1.3-22.7,0.6c-4-0.3-8-0.5-12.1,0c-3.7,0.7-7.5,0.2-11.2,0.3c-4,0.1-8.1-0.1-12.1,0.3
		c-1.4,0-2.8,0-4.2,0c-4.2,0.7-8.5,0.1-12.7,0.3c-4.6,0.2-9.1-0.3-13.7,0.2C743.2,523.3,742.4,523.1,741.7,522.7z"/>
	<path class="st84" d="M342,524.5c42,0,84,0,125.9,0c1.2,0,2.6-0.5,3.7,0.6c-2.2,1.4-4.4-0.1-6.7-0.1c-39.8,0.1-79.5,0.1-119.3,0.1
		C344.5,525,343.1,525.5,342,524.5z"/>
	<path class="st84" d="M509.3,525.1c1.1-1.1,2.5-0.6,3.7-0.6c41.2,0,82.4,0,123.6,0c-1.1,1.1-2.5,0.6-3.7,0.6
		c-39,0-77.9,0.1-116.9-0.1C513.8,525,511.5,526.4,509.3,525.1z"/>
	<path class="st84" d="M283.5,523.9c17,0,34,0,51,0c1.1,0,2.4-0.5,3.4,0.6c-2,1.4-4-0.1-6.1-0.1c-15,0.1-30,0.1-44.9,0
		C285.7,524.4,284.5,524.9,283.5,523.9z"/>
	<path class="st84" d="M640.8,524.5c1-1,2.3-0.6,3.4-0.6c17,0,34,0,51,0c-1,1-2.2,0.6-3.4,0.6c-15,0-30,0.1-44.9,0
		C644.8,524.4,642.8,525.9,640.8,524.5z"/>
	<path class="st84" d="M699.3,523.9c0.9-1,2-0.6,3.1-0.6c11.7,0,23.4,0,35.1,0c-0.9,1-2,0.6-3.1,0.6c-9.7,0-19.4,0.1-29.1-0.1
		C703.3,523.8,701.3,525.3,699.3,523.9z"/>
	<path class="st84" d="M241.7,523.3c11.5,0,23,0,34.5,0c1,0,2.2-0.4,3.1,0.6c-2,1.4-4-0.1-6-0.1c-9.5,0.2-19,0.1-28.5,0.1
		C243.7,523.9,242.6,524.2,241.7,523.3z"/>
	<path class="st84" d="M208.2,522.7c8.7,0,17.5,0,26.2,0c1,0,2.2-0.4,3.1,0.6c-1.9,1.4-3.8-0.1-5.7-0.1c-6.8,0.2-13.6,0.1-20.5,0
		C210.3,523.3,209.1,523.7,208.2,522.7z"/>
	<path class="st84" d="M741.7,522.7c9.6,0,19.1,0,28.7,0c-0.9,1-2,0.6-3.1,0.6c-6.6,0-13.2,0.1-19.9,0c-1.9,0-3.8,1.4-5.7,0.1
		C741.7,523.1,741.7,522.9,741.7,522.7z"/>
	<path class="st84" d="M475.9,525.1c9.4,0,18.7,0,28.1,0c-0.6,0.7-1.4,0.6-2.2,0.6c-7.9,0-15.8,0-23.7,0
		C477.3,525.7,476.4,525.8,475.9,525.1z"/>
	<path class="st84" d="M774.6,522.7c0.9-1,2-0.6,3.1-0.6c6.7,0,13.5,0,20.2,0c-0.5,0.6-1.2,0.6-1.9,0.6c-6.6,0.3-13.2-0.6-19.8,0.5
		C775.7,523.3,775.1,522.9,774.6,522.7z"/>
	<path class="st84" d="M180.7,522.1c6.7,0,13.5,0,20.2,0c1,0,2.2-0.4,3.1,0.6c-1.8,1.4-3.6-0.1-5.4,0c-4.9,0.1-9.9,0.1-14.8,0
		C182.8,522.7,181.6,523.1,180.7,522.1z"/>
	<path class="st84" d="M157.4,521.5c5.3,0,10.7,0,16,0c1,0,2.2-0.4,3.1,0.6c-1.7,1.3-3.4-0.1-5.1,0c-3.7,0.1-7.5,0-11.2,0
		C159.3,522.1,158.2,522.4,157.4,521.5z"/>
	<path class="st84" d="M137.7,520.9c4.3,0,8.5,0,12.8,0c0.9,0,2-0.3,2.8,0.6c-3,1.1-5.9-0.4-9-0.1
		C142.2,521.6,139.8,522.2,137.7,520.9z"/>
	<path class="st84" d="M121.6,520.3c4,0.4,8-0.8,11.9,0.6C129.5,521.2,125.5,521.2,121.6,520.3z"/>
	<path class="st25" d="M739.3,521.5c0,0.2,0,0.4,0,0.6c-4.3,0-8.6,0-12.8,0c-28.4,0-56.9,0.3-85.3,0.8c-43.4,0.7-86.7,0-130.1,0.4
		c-0.3-0.4-0.4-0.8,0-1.2c36.4-1.4,72.8-0.1,109.2-0.6c24.9-0.4,49.8-0.6,74.7-0.7c3,0,6.1,0,9.1,0.1c1.4-0.6,2.9-0.3,4.4-0.3
		c9.1,0,18.2,0,27.3,0C737,520.6,738.3,520.4,739.3,521.5z"/>
	<path class="st25" d="M511.1,522.1c0,0.4,0,0.8,0,1.2c-3.1-0.3-6.1,0.7-9.2,0.6c-52.9-0.9-105.8-0.2-158.7-0.8
		c-19.7-0.2-39.4-0.1-59-0.4c-0.9,0-1.8,0.2-2.5-0.6c0.7-0.8,1.7-0.9,2.7-0.9c15.8,0,31.7,0,47.5,0c0.4,0,0.8,0.1,1.1,0.3
		c43.9,0,87.7-0.2,131.6,0.1c13.1,0.1,26.1,0.3,39.2,0.5C506.3,522.2,508.7,520.5,511.1,522.1z"/>
	<path class="st25" d="M333.1,521.5c-15.5,0-30.9,0-46.4,0c-1.7,0-3.4,0.1-5,0.6c-15.7-0.2-31.5,0.5-47.2-0.6
		c-0.3-0.3-1-0.5-0.6-1.2c2.8-1.1,5.7,0,8.5,0c9.1,0,18.1-0.3,27.2,0.1c20.3,0.8,40.7,0.4,61,0.5
		C331.5,520.9,332.4,520.6,333.1,521.5z"/>
	<path class="st25" d="M233.9,520.3c0.2,0.4,0.4,0.8,0.6,1.2c-7.6,0-15.1,0.3-22.7-0.1c-10.3-0.6-20.6-0.5-31-0.5
		c-0.7,0-1.4,0.1-1.9-0.6c0.3-0.5,0.6-0.8,1.1-0.8c6.4,0,12.8-0.4,19.2,0.2c10.4,0,20.8,0,31.2,0
		C231.6,519.7,232.7,520.1,233.9,520.3z"/>
	<path class="st25" d="M799.7,520.3c-0.7,0.8-1.6,0.6-2.5,0.6c-16.3-0.4-32.6,1-48.9,0.6c-1.2,0-2.4,0-3.6,0c-0.3-0.3-1-0.5-0.6-1.2
		c11.7-1,23.5-0.7,35.2-0.6c6.6-0.6,13.2-0.2,19.7-0.2C799.5,519.4,799.7,519.8,799.7,520.3z"/>
	<path class="st25" d="M744.1,520.3c0.2,0.4,0.4,0.8,0.6,1.2c-1.8,0-3.6,0-5.4,0c-1.6-0.5-3.3-0.6-5-0.6c-10.1,0-20.2,0-30.3,0
		c0.9-1,2-0.6,3.1-0.6c9.9,0,19.8-0.1,29.7,0C739.3,520.4,741.7,518.7,744.1,520.3z"/>
	<path class="st25" d="M176,520.3c-5.7,0-11.5,0-17.2,0c-1,0-2.2,0.4-3.1-0.6c1.8-1.2,3.8-0.5,5.7-0.6c3.5-0.1,6.9,0,10.4,0
		c0.2,0,0.4,0,0.6,0C173.6,519.5,175.6,517.5,176,520.3z"/>
	<path class="st25" d="M823,519.7c-0.9,1-2,0.6-3.1,0.6c-5.7,0-11.5,0-17.2,0c0.4-2.8,2.4-0.8,3.6-1.2c0.2,0,0.4,0,0.6,0
		c4.5,0,8.9,0,13.4,0C821.1,519.1,822.2,518.8,823,519.7z"/>
	<path class="st3" d="M176,520.3c-0.7-2-2.6-0.1-3.6-1.2c1.2-1.1,2.7-0.7,4-0.5c6.8,1.1,13.6,0.3,20.4,0.5c0.9,0,1.8-0.2,2.5,0.6
		c-5.6,0-11.2,0-16.9,0c-1.2,0-2.4-0.1-3.4,0.6C178,520.3,177,520.3,176,520.3z"/>
	<path class="st25" d="M806.2,519.1c-1,1.1-2.9-0.8-3.6,1.2c-1,0-2,0-3,0c-0.9-1-2-0.6-3.1-0.6c-5.7,0-11.5,0-17.2,0
		c0.5-0.6,1.2-0.6,1.9-0.6c7.3-0.2,14.6,0.4,21.9-0.6C804.2,518.4,805.4,518.1,806.2,519.1z"/>
	<path class="st25" d="M190.3,507.7c2.1-0.8,4.3-0.6,6.4-0.6c7.4,0,14.8,0,22.2,0c0.1,1.5-1.2,1.4-2,1.4c-1,0-1.9-0.1-2.8,0.4
		c-7.6,0-15.1,0-22.7,0C191.1,508.5,190,508.9,190.3,507.7z"/>
	<path class="st95" d="M190.3,507.7c0.4,0.4,0.8,0.8,1.2,1.2c-2.8,1.2-5.7,0.2-8.5,0.6c-5.6,0.8-11-1.7-16.6-1.2
		c0.9-1,2-0.6,3.1-0.6C176.4,507.7,183.4,507.7,190.3,507.7z"/>
	<path class="st95" d="M214.2,508.9c1.1-1.9,3.7,0.2,4.8-1.8c0.4,0,0.8,0,1.2,0c0.4,0.4,0.8,0.8,1.2,1.2
		C219.1,509.5,216.6,508.7,214.2,508.9z"/>
	<path class="st84" d="M173,505.5c1.2,1.1,0.3,1.1-0.6,1.1c-8.6,0.1-17.1,1-25.7,0.6c0.9-1,2-0.6,3.1-0.6c4.5,0,9,0,13.4-0.6
		c0.8-0.1,1.9,0.2,2.1-1.1C167.8,505.1,170.4,505.3,173,505.5z"/>
	<path class="st95" d="M191,506.5c-2.8-0.2-5.6,0.5-8.4-0.4C185.4,506.1,188.2,505.6,191,506.5z"/>
	<path class="st95" d="M208.8,506.1c-2.1,1-4.4,0.3-6.6,0.4C204.3,505.7,206.6,506.1,208.8,506.1z"/>
	<path class="st84" d="M162.3,504.7c-1-0.1-2.1,0.4-3-0.5C160.3,504.2,161.4,504,162.3,504.7z"/>
	<path class="st96" d="M721.4,507.6c-0.2-0.3-0.3-0.7-0.5-1c0.1,0,0.3-0.1,0.4-0.1c13,0.4,26-0.7,39,0.6c0.4,0.6,0.8,1.2,1.2,1.8
		c-12.7-1.2-25.4-0.4-38.1-0.6C722.8,507.7,722.1,507.6,721.4,507.6z"/>
	<path class="st2" d="M634.6,166.8c3.6,0.1,6.7,3.2,6.7,6.7c0,3.7-3.3,6.8-6.9,6.7c-3.6-0.1-6.6-3.3-6.5-6.8
		C628,169.8,631,166.8,634.6,166.8z"/>
	<path class="st84" d="M256.6,504.8c-0.8,0.4-1.6,0.6-2.6,0.6c-10.9,0-21.8,0-32.8,0c-0.6,0-1.2,0-1.7-0.5c1-0.3,1.9-0.6,2.9-0.9
		c0.7,1,1.8,0.7,2.7,0.7c9.7-0.2,19.5,0.6,29.2-0.6C255.2,504.1,256,504,256.6,504.8z"/>
	<path class="st97" d="M239.1,109.6c-3.6,2.1-6.8,3.9-10,5.7c-1,0.6-1.7,0.6-1.6-0.9c0-3.2,0-6.4,0-9.5c0-1,0.2-2,1.5-1.2
		C232.2,105.5,235.4,107.4,239.1,109.6z"/>
	<path class="st98" d="M906,203.1c-0.8,0-1.7,0.1-2.4-0.2c-1.8-0.7-2.7-2.1-2.3-4c0.3-1.9,1.7-2.9,3.6-2.9c1.9,0,3.2,1.2,3.4,3.1
		c0.1,0.8-0.2,1.7-0.4,2.6C907.9,203.1,907.3,203.6,906,203.1z"/>
	<path class="st99" d="M910.2,202.5c0.6,0,1.2,0,1.8,0.1c2.1,0.6,3.3,1.9,3,4.1c-0.3,1.9-1.6,3-3.6,2.9c-2.1-0.1-3.2-1.3-3.5-3.4
		c-0.1-0.5,0-1,0-1.5C908.2,203.6,908.9,202.8,910.2,202.5z"/>
	<path class="st99" d="M910.2,202.5c-0.6,1-1.3,1.8-2.3,2.3c-1,0.9-2,1.8-3.1,2.7c-0.4,0.3-0.9,0.5-1.3,0.1
		c-0.5-0.5-0.1-0.9,0.1-1.3c0.7-1.1,2.3-1.6,2.4-3.2c0.9,0,1.6-0.5,1.9-1.4c1-0.9,2-1.9,3-2.8c0.5-0.5,1.1-1.5,1.9-0.6
		c0.6,0.7-0.1,1.2-0.6,1.7C911.6,200.9,910.9,201.7,910.2,202.5z"/>
	<path class="st100" d="M904.6,197.8c1.1,0.1,1.9,0.7,1.9,1.8c0,1-0.7,1.6-1.7,1.7c-1,0-1.7-0.6-1.8-1.6
		C903,198.6,903.6,198,904.6,197.8z"/>
	<path class="st101" d="M911.5,207.9c-1,0-1.8-0.5-1.8-1.5c-0.1-1.1,0.7-1.9,1.8-1.9c0.9,0,1.6,0.7,1.7,1.7
		C913.2,207.2,912.5,207.8,911.5,207.9z"/>
</g>
<g>
</g>
<g>
</g>
<g>
</g>
<g>
</g>
<g>
</g>
<g>
</g>
<g>
</g>
<g>
</g>
<g>
</g>
<g>
</g>
<g>
</g>
<g>
</g>
<g>
</g>
<g>
</g>
<g>
</g>
</svg>
