<?xml version="1.0" encoding="utf-8"?>
<!-- Generator: Adobe Illustrator 23.0.5, SVG Export Plug-In . SVG Version: 6.00 Build 0)  -->
<svg version="1.1" xmlns="http://www.w3.org/2000/svg" xmlns:xlink="http://www.w3.org/1999/xlink" x="0px" y="0px"
	 viewBox="0 0 161.7 146.2" style="enable-background:new 0 0 161.7 146.2;" xml:space="preserve">
<style type="text/css">
	.st0{fill:#BCEBFB;}
	.st1{opacity:0.62;fill-rule:evenodd;clip-rule:evenodd;fill:#ECF4FF;}
	.st2{fill-rule:evenodd;clip-rule:evenodd;fill:#CADCF0;}
	.st3{fill:#D9E6F4;}
	.st4{fill:#ECF4FF;}
	.st5{fill:#FFFFFF;}
	.st6{fill:#017376;}
	.st7{fill:#065659;}
	.st8{fill:#88BBE8;}
	.st9{fill:#E1EBF9;}
	.st10{fill:#F8FAFB;}
	.st11{fill:#D6E0E8;}
	.st12{fill:#FF9700;}
	.st13{fill:#007FF3;}
	.st14{fill:#B5CCDE;}
	.st15{fill:#6CA6D4;}
	.st16{fill:#FF7463;}
	.st17{fill:#A34B2B;}
	.st18{fill:#191919;}
	.st19{fill:#0077D9;}
	.st20{fill:#EFA183;}
	.st21{fill:#004279;}
	.st22{fill:#DAE1E1;}
	.st23{fill:#C3D0D0;}
	.st24{fill:#CED2D2;}
	.st25{fill:#004889;}
	.st26{fill:#896655;}
	.st27{fill:#E6A98E;}
	.st28{fill:#D53D33;}
	.st29{fill:#363435;}
	.st30{fill:#E55437;}
	.st31{fill:#F1F5F8;}
	.st32{fill:#D86C3F;}
	.st33{fill:#D87500;}
	.st34{fill:#4B9BA9;}
	.st35{fill:#0093FB;}
</style>
<g id="Background">
	<path class="st0" d="M-24.7-119.5c0.2-31.5,0.3-63,0.5-94.5c0-8.1,0.1-16.3,1.7-24.2c5-24.5,25.5-44.3,49.4-51.9s50.4-4,73.2,6.4
		c12.3,5.6,25.2,13.3,38.4,10.3c15.4-3.5,25.2-20.8,40.9-23c14.9-2.1,27.6,10.1,37,21.8c12,14.8,23.1,30.3,33.1,46.5
		c16.3,26.5,29.1,62.9,9.2,86.9c-9.3,11.2-23.6,16.7-37.4,21.3c-55.8,18.8-113.5,31.7-171.9,38.5C31.9-79.4,14-77.9-3-82.7
		c-33.4-9.3-57.3-44.6-53.7-79"/>
	
		<image style="overflow:visible;" width="174" height="48" xlink:href="917A0.jpg"  transform="matrix(1 0 0 1 210.2851 -127.5141)">
	</image>
	<g>
		<path class="st1" d="M31,49c-2.9-1.4-9.1,2.2-13.3,8.4c-3.7,5.5-5.6,11.8-2.9,15c2.1,2.4,8.3,2.9,14.3-7.1
			C35.1,55.4,33.1,50.1,31,49z M152.4,65.4c-2-6-7.1-9.7-9.7-8.6c-2.7,1.1-4.3,5.9-2,12.9c1.8,5.4,6.8,9.7,10.2,8.5
			C155.1,76.6,154.1,70.5,152.4,65.4z M149.9,96.2c0-0.2-0.1-0.3-0.1-0.5c0-0.2-0.1-0.4-0.1-0.6c0-0.1-0.1-0.3-0.1-0.4c0,0,0,0,0,0
			c0-0.2-0.1-0.3-0.2-0.5c0-0.1-0.1-0.2-0.1-0.4c0-0.1-0.1-0.2-0.1-0.2c0-0.1-0.1-0.2-0.1-0.3c0-0.1-0.1-0.2-0.2-0.4
			c-0.1-0.2-0.2-0.4-0.2-0.6c-3.1-6.7-9.9-12-12.9-17.6c-4.5-8.3-3.4-16.8-8.1-22.8c-3.8-4.9-10.3-6.4-19.1-9
			c-1.7-0.5-3.4-1-5.2-1.6c-1.4-0.5-2.9-1-4.5-1.6c-13.7-5.1-15.8-11-28.4-12.2c-12.3-1.1-21.8,4.5-27,13.7
			c-4.9,8.7-1.5,22.2-9.6,31.2c-5.5,6-13.8,10.6-17.8,20c0,0.1-0.1,0.2-0.1,0.3c-0.1,0.2-0.1,0.3-0.2,0.5c-0.1,0.4-0.3,0.8-0.4,1.1
			c-0.1,0.2-0.1,0.3-0.2,0.5c0,0.1-0.1,0.2-0.1,0.3c0,0.2-0.1,0.3-0.1,0.5c-0.1,0.2-0.1,0.4-0.2,0.6c-0.1,0.2-0.1,0.4-0.2,0.6
			c-0.1,0.3-0.1,0.5-0.2,0.8c0,0.2-0.1,0.4-0.1,0.6c0,0.2-0.1,0.4-0.1,0.6c0,0.1,0,0.2,0,0.2c0,0.2,0,0.3-0.1,0.5c0,0.1,0,0.1,0,0.2
			c0,0.1,0,0.2,0,0.4c0,0.1,0,0.3,0,0.4c0,0.2,0,0.4-0.1,0.6c-1.2,12.5,4.6,28.1,20,34s29.4-3.3,44.9-2.1c15,1.1,33.8,11,49.6,3.1
			c0.6-0.3,1.2-0.6,1.8-1c0.6-0.3,1.2-0.7,1.7-1.1C146.8,124.1,151.6,104.5,149.9,96.2z"/>
		<path class="st2" d="M131.9,134.1c-0.6,0.4-1.1,0.7-1.7,1.1c-0.6,0.3-1.2,0.7-1.8,1c-15.8,7.9-34.6-2-49.6-3.1
			c-15.5-1.2-29.6,8.1-44.9,2.1s-21.2-21.5-20-34c0-0.2,0-0.4,0.1-0.6c0-0.1,0-0.3,0-0.4c0-0.1,0-0.2,0-0.4c0-0.1,0-0.1,0-0.2
			c0-0.2,0-0.3,0.1-0.5c0-0.1,0-0.2,0-0.2c0-0.2,0.1-0.4,0.1-0.6c0-0.2,0.1-0.4,0.1-0.6c0.1-0.3,0.1-0.5,0.2-0.8
			c0.1-0.2,0.1-0.4,0.2-0.6c0.1-0.2,0.1-0.4,0.2-0.6c0-0.2,0.1-0.3,0.1-0.5c0-0.1,0.1-0.2,0.1-0.3c0.1-0.2,0.1-0.3,0.2-0.5
			c0.1-0.4,0.3-0.8,0.4-1.1c0.1-0.2,0.1-0.3,0.2-0.5c0-0.1,0.1-0.2,0.1-0.3h132.5c0.1,0.2,0.2,0.4,0.2,0.6c0.1,0.1,0.1,0.2,0.2,0.4
			c0,0.1,0.1,0.2,0.1,0.3c0,0.1,0.1,0.2,0.1,0.2c0,0.1,0.1,0.3,0.1,0.4c0.1,0.2,0.1,0.3,0.2,0.5c0,0,0,0,0,0c0,0.1,0.1,0.3,0.1,0.4
			c0.1,0.2,0.1,0.4,0.1,0.6c0,0.2,0.1,0.3,0.1,0.5C151.6,104.5,146.8,124.1,131.9,134.1z"/>
	</g>
	<g>
		<g>
			<path class="st3" d="M28.5,32.8C28.5,32.8,28.5,32.8,28.5,32.8c0.4-0.6,0.4-1.4-0.1-2l-2.2-2.4c-0.6-0.6-0.5-1.6,0.1-2.2l2-1.8
				c0.6-0.6,1.6-0.5,2.2,0.1l2.1,2.4c0.5,0.6,1.3,0.7,1.9,0.3c0,0,0,0,0,0c0.6-0.4,0.9-1.1,0.7-1.8l-1-3.1c-0.3-0.8,0.2-1.7,1-2
				l2.6-0.8c0.8-0.3,1.7,0.2,2,1l1,3.1c0.2,0.7,0.9,1.2,1.6,1.1c0,0,0,0,0,0c0.7-0.1,1.3-0.6,1.4-1.4l0.4-3.2
				c0.1-0.9,0.9-1.5,1.7-1.4l2.7,0.3c0.9,0.1,1.5,0.9,1.4,1.7L49.8,24c-0.1,0.7,0.4,1.4,1.1,1.7c0,0,0,0,0,0
				c0.7,0.2,1.5-0.1,1.8-0.7l1.6-2.8c0.4-0.7,1.4-1,2.1-0.6l2.3,1.4c0.7,0.4,1,1.4,0.6,2.1l-1.6,2.8c-0.4,0.6-0.2,1.4,0.3,1.9
				c0,0,0,0,0,0c0.5,0.5,1.4,0.5,2,0.1l2.6-1.9c0.7-0.5,1.7-0.3,2.2,0.4l1.6,2.2c0.5,0.7,0.3,1.7-0.4,2.2l-2.6,1.9
				c-0.6,0.4-0.8,1.2-0.5,1.9c0,0,0,0,0,0c0.3,0.7,1,1.1,1.7,0.9l3.2-0.7c0.8-0.2,1.7,0.4,1.8,1.2l0.5,2.6c0.2,0.8-0.4,1.7-1.2,1.8
				l-3.2,0.7c-0.7,0.1-1.2,0.8-1.2,1.5c0,0,0,0,0,0c0,0.7,0.5,1.4,1.2,1.5L69,47c0.8,0.2,1.4,1,1.2,1.9l-0.6,2.6
				c-0.2,0.8-1,1.4-1.9,1.2L64.6,52c-0.7-0.2-1.4,0.2-1.8,0.9c0,0,0,0,0,0c-0.3,0.7-0.1,1.5,0.5,1.9l2.6,1.9
				c0.7,0.5,0.8,1.5,0.3,2.2l-1.6,2.2c-0.5,0.7-1.5,0.8-2.2,0.3l-2.6-1.9c-0.6-0.4-1.4-0.4-2,0.1c0,0,0,0,0,0
				c-0.6,0.5-0.7,1.3-0.3,1.9l1.6,2.8c0.4,0.7,0.2,1.7-0.6,2.1l-2.3,1.3c-0.7,0.4-1.7,0.2-2.1-0.6l-1.6-2.8
				c-0.4-0.6-1.1-0.9-1.8-0.7c0,0,0,0,0,0c-0.7,0.2-1.2,0.9-1.1,1.6l0.3,3.2c0.1,0.9-0.5,1.6-1.4,1.7l-2.7,0.3
				c-0.9,0.1-1.6-0.5-1.7-1.4l-0.3-3.2c-0.1-0.7-0.6-1.3-1.4-1.4c0,0,0,0,0,0c-0.7-0.1-1.4,0.4-1.7,1.1l-1,3.1c-0.3,0.8-1.2,1.3-2,1
				l-2.6-0.9c-0.8-0.3-1.3-1.2-1-2l1-3.1c0.2-0.7-0.1-1.5-0.7-1.8c0,0,0,0,0,0c-0.6-0.4-1.4-0.3-1.9,0.3l-2.2,2.4
				c-0.6,0.6-1.6,0.7-2.2,0.1l-2-1.8c-0.6-0.6-0.7-1.6-0.1-2.2l2.2-2.4c0.5-0.5,0.5-1.4,0.1-2c0,0,0,0,0,0c-0.4-0.6-1.2-0.8-1.9-0.5
				l-3,1.3c-0.8,0.3-1.7,0-2.1-0.8l-1.1-2.5c-0.3-0.8,0-1.7,0.8-2.1l3-1.3c0.7-0.3,1.1-1,0.9-1.7c0,0,0,0,0,0
				c-0.1-0.7-0.8-1.2-1.5-1.2l-3.2,0c-0.9,0-1.6-0.7-1.5-1.6l0-2.7c0-0.9,0.7-1.6,1.6-1.5l3.2,0c0.7,0,1.4-0.5,1.5-1.2c0,0,0,0,0,0
				c0.2-0.7-0.2-1.4-0.9-1.8l-2.9-1.3c-0.8-0.4-1.1-1.3-0.8-2.1l1.1-2.5c0.4-0.8,1.3-1.1,2.1-0.8l3,1.3
				C27.3,33.6,28.1,33.4,28.5,32.8C28.5,32.8,28.5,32.8,28.5,32.8z"/>
			<g>
				<circle class="st4" cx="44.6" cy="44.7" r="14.4"/>
				<circle class="st5" cx="44.6" cy="44.7" r="11.5"/>
			</g>
		</g>
		<g>
			<path class="st3" d="M20.3,79.1C20.3,79.1,20.3,79.1,20.3,79.1c0.2-0.3,0.2-0.8,0-1.1l-1.2-1.3c-0.3-0.4-0.3-0.9,0.1-1.2l1.1-1
				c0.4-0.3,0.9-0.3,1.2,0.1l1.2,1.3c0.3,0.3,0.7,0.4,1.1,0.2c0,0,0,0,0,0c0.4-0.2,0.5-0.6,0.4-1l-0.5-1.7c-0.1-0.5,0.1-0.9,0.6-1.1
				l1.4-0.4c0.5-0.1,0.9,0.1,1.1,0.6l0.5,1.7c0.1,0.4,0.5,0.6,0.9,0.6c0,0,0,0,0,0c0.4,0,0.7-0.4,0.8-0.8l0.2-1.8
				c0.1-0.5,0.5-0.8,1-0.8l1.5,0.2c0.5,0.1,0.8,0.5,0.8,1l-0.2,1.8c0,0.4,0.2,0.8,0.6,0.9c0,0,0,0,0,0c0.4,0.1,0.8,0,1-0.4l0.9-1.5
				c0.2-0.4,0.8-0.5,1.2-0.3l1.3,0.8c0.4,0.2,0.5,0.8,0.3,1.2l-0.9,1.5c-0.2,0.4-0.1,0.8,0.2,1.1c0,0,0,0,0,0
				c0.3,0.3,0.7,0.3,1.1,0.1l1.5-1c0.4-0.3,0.9-0.2,1.2,0.2l0.9,1.2c0.3,0.4,0.2,0.9-0.2,1.2l-1.5,1c-0.3,0.2-0.4,0.7-0.3,1
				c0,0,0,0,0,0c0.2,0.4,0.6,0.6,1,0.5l1.7-0.4c0.5-0.1,0.9,0.2,1,0.7l0.3,1.5c0.1,0.5-0.2,0.9-0.7,1l-1.7,0.4
				c-0.4,0.1-0.7,0.4-0.7,0.8c0,0,0,0,0,0c0,0.4,0.3,0.8,0.7,0.8l1.7,0.4c0.5,0.1,0.8,0.6,0.7,1l-0.3,1.5c-0.1,0.5-0.6,0.8-1,0.7
				l-1.7-0.4c-0.4-0.1-0.8,0.1-1,0.5c0,0,0,0,0,0c-0.2,0.4-0.1,0.8,0.3,1l1.4,1.1c0.4,0.3,0.5,0.8,0.2,1.2l-0.9,1.2
				c-0.3,0.4-0.8,0.5-1.2,0.2l-1.4-1.1c-0.3-0.2-0.8-0.2-1.1,0.1c0,0,0,0,0,0c-0.3,0.3-0.4,0.7-0.2,1.1l0.9,1.6
				c0.2,0.4,0.1,0.9-0.3,1.2l-1.3,0.7c-0.4,0.2-0.9,0.1-1.2-0.3l-0.9-1.6c-0.2-0.4-0.6-0.5-1-0.4c0,0,0,0,0,0
				c-0.4,0.1-0.6,0.5-0.6,0.9l0.2,1.8c0,0.5-0.3,0.9-0.8,0.9l-1.5,0.1c-0.5,0-0.9-0.3-0.9-0.8l-0.2-1.8c0-0.4-0.4-0.7-0.8-0.8
				c0,0,0,0,0,0c-0.4,0-0.8,0.2-0.9,0.6l-0.6,1.7c-0.1,0.5-0.6,0.7-1.1,0.5L24,98.9c-0.5-0.1-0.7-0.6-0.5-1.1l0.6-1.7
				c0.1-0.4,0-0.8-0.4-1c0,0,0,0,0,0c-0.3-0.2-0.8-0.1-1.1,0.2l-1.2,1.3C21,97,20.4,97,20.1,96.7l-1.1-1c-0.4-0.3-0.4-0.9-0.1-1.2
				l1.2-1.3c0.3-0.3,0.3-0.8,0.1-1.1c0,0,0,0,0,0c-0.2-0.3-0.7-0.5-1-0.3l-1.6,0.7c-0.4,0.2-0.9,0-1.1-0.4l-0.6-1.4
				c-0.2-0.4,0-0.9,0.4-1.1l1.6-0.7c0.4-0.2,0.6-0.6,0.5-1c0,0,0,0,0,0c-0.1-0.4-0.4-0.7-0.8-0.7l-1.8,0c-0.5,0-0.9-0.4-0.9-0.9
				l0-1.5c0-0.5,0.4-0.9,0.9-0.9l1.8,0c0.4,0,0.8-0.3,0.8-0.7c0,0,0,0,0,0c0.1-0.4-0.1-0.8-0.5-1l-1.6-0.7c-0.4-0.2-0.6-0.7-0.4-1.1
				l0.6-1.4c0.2-0.4,0.7-0.6,1.1-0.4l1.6,0.7C19.6,79.5,20.1,79.4,20.3,79.1C20.3,79.1,20.3,79.1,20.3,79.1z"/>
			<g>
				<circle class="st4" cx="29.2" cy="85.6" r="7.9"/>
				<circle class="st5" cx="29.2" cy="85.6" r="6.3"/>
			</g>
		</g>
	</g>
	<g>
		<g>
			<path class="st6" d="M126.9,77.6c0,0-2.2-1.6-0.5-3.6c1.7-2.1,3.4-2.5,3.6-4.6c0.1-2.1-2.5-5,0.8-6.9s8,2.6,6.9,8.9
				C136.7,77.5,131.4,80.2,126.9,77.6z"/>
		</g>
		<g>
			<path class="st6" d="M131.7,82.8c0,0,2.3,5.4,8.1,4.1c5.8-1.3,6.9-4.3,12.6-5.8c5.7-1.5,4.8-6.8,2.7-8.8
				c-2.3-2.1-5.4-2.2-9.5,1.1c-4,3.3-7.6,3-10.2,3.8C132.7,78.2,131.9,81.1,131.7,82.8z"/>
		</g>
		<g>
			<path class="st6" d="M129.9,88.1c1.2-1.1,6.2-2,9.5,0.5c3.3,2.5,5.6,7,7.9,8.2c2.3,1.2,7.4,9.1,2.5,12.4
				c-4.9,3.3-8.9,0.3-10.9-3.3c-2.1-3.6-2.6-5.9-6.2-8.1C129.1,95.6,126.4,91.3,129.9,88.1z"/>
		</g>
		<g>
			<path class="st7" d="M119.2,79.3c0-0.1,0.1-0.1,0.1-0.1c6.1-0.6,10.2-2.5,12.2-5.6c2.1-3.3,1-6.9,1-6.9c0-0.1,0-0.2,0.1-0.2
				c0.1,0,0.2,0,0.2,0.1c0,0,1.2,3.7-1,7.2c-2.1,3.2-6.2,5.1-12.4,5.7C119.3,79.5,119.2,79.5,119.2,79.3
				C119.2,79.4,119.2,79.4,119.2,79.3z"/>
		</g>
		<g>
			<path class="st7" d="M116.9,80.4C116.9,80.4,116.9,80.4,116.9,80.4c0-0.1,0.1-0.1,0.2-0.1c17,6.7,33-3.1,33.2-3.2
				c0.1,0,0.2,0,0.2,0c0,0.1,0,0.2,0,0.2c-0.2,0.1-16.3,10.1-33.5,3.3C116.9,80.6,116.9,80.5,116.9,80.4z"/>
		</g>
		<g>
			<path class="st7" d="M119.9,84c0-0.1,0.1-0.1,0.1-0.1c0.2,0,15.9,3.4,25.1,19.4c0,0.1,0,0.1,0,0.2c-0.1,0-0.1,0-0.2,0
				c-9.2-15.9-24.8-19.2-25-19.3C120,84.1,119.9,84.1,119.9,84C119.9,84,119.9,84,119.9,84z"/>
		</g>
	</g>
	<g>
		<g>
			<path class="st6" d="M43.6,122.2c0,0,2,0.1,1.7,2.1c-0.2,2-1.2,2.9-0.4,4.3c0.8,1.4,3.6,2.1,2.2,4.6c-1.3,2.6-6,1.5-7.8-2.8
				C37.5,126.1,39.7,122.3,43.6,122.2z"/>
		</g>
		<g>
			<path class="st6" d="M36.9,120.8c0,0-3.6-2.5-6.7,0.6c-3.1,3.1-2.6,5.4-5.6,8.6c-2.9,3.2-0.3,6.2,1.8,6.5
				c2.2,0.4,4.3-0.8,5.5-4.5c1.2-3.7,3.5-4.9,4.9-6.4C38.1,124.1,37.5,121.9,36.9,120.8z"/>
		</g>
		<g>
			<path class="st6" d="M35.9,115.8c-0.4,1.6-4.2,5-8.3,4.7c-4.1-0.3-8.5-2.9-11.1-2.6c-2.6,0.2-11.1-3.7-8.8-9.1
				c2.4-5.4,7.3-5,11-3.1c3.7,1.9,5.4,3.6,9.6,3.5C32.6,109.1,37.1,111.2,35.9,115.8z"/>
		</g>
		<g>
			<path class="st7" d="M47.6,118c0,0,0,0.1,0,0.1c-3.6,2.8-5.4,5.6-5.4,8.3c0,2.9,2.1,4.7,2.1,4.7c0,0,0.1,0.1,0,0.2
				c0,0-0.1,0.1-0.2,0c0,0-2.2-1.9-2.2-4.9c0-2.8,1.9-5.6,5.5-8.5C47.5,117.9,47.6,117.9,47.6,118C47.6,118,47.6,118,47.6,118z"/>
		</g>
		<g>
			<path class="st7" d="M47.1,116.4C47.1,116.4,47.1,116.4,47.1,116.4c0,0.1,0,0.1-0.1,0.1c-13.3,2.6-19.4,15.1-19.5,15.2
				c0,0.1-0.1,0.1-0.2,0.1c-0.1,0-0.1-0.1-0.1-0.2c0.1-0.1,6.2-12.8,19.6-15.4C47,116.3,47.1,116.3,47.1,116.4z"/>
		</g>
		<g>
			<path class="st7" d="M46.5,113.9c0,0.1,0,0.1-0.1,0.1c-0.2,0.1-15.2,5.7-31.6-2.8c-0.1,0-0.1-0.1,0-0.2c0-0.1,0.1-0.1,0.2,0
				c16.3,8.5,31.3,2.9,31.4,2.8C46.4,113.8,46.5,113.8,46.5,113.9C46.5,113.9,46.5,113.9,46.5,113.9z"/>
		</g>
	</g>
	<g>
		<g>
			<circle class="st8" cx="75.3" cy="34.3" r="1.4"/>
			<circle class="st8" cx="133.6" cy="43.6" r="1.4"/>
			<path class="st8" d="M133.8,43h-0.4v-0.8h0.4V43z M133.8,41.1h-0.4V40h0.4V41.1z M133.8,38.8h-0.4v-1.2h0.4V38.8z M133.8,36.5
				h-0.4v-1.2h0.4V36.5z M133.8,34.2h-0.4V33h0.4V34.2z M75.5,33.9h-0.4v-1.2h0.4V33.9z M133.8,31.9h-0.4v-1.2h0.4V31.9z M75.5,31.6
				h-0.4v-1.2h0.4V31.6z M133.8,29.6h-0.4v-1.2h0.4V29.6z M75.5,29.3h-0.4v-1.2h0.4V29.3z M133.8,27.2h-0.4v-1.2h0.4V27.2z M75.5,27
				h-0.4v-1.2h0.4V27z M133.8,24.9h-0.4v-1.2h0.4V24.9z M75.5,24.7h-0.4v-1.2h0.4V24.7z M133.8,22.6h-0.4v-1.2h0.4V22.6z M75.5,22.3
				h-0.4v-1.2h0.4V22.3z M133.8,20.3h-0.4v-1.2h0.4V20.3z M75.5,20h-0.4v-1.2h0.4V20z M133.7,18.1h-1v-0.4h1.2V18L133.7,18.1
				L133.7,18.1z M131.5,18.1h-1.2v-0.4h1.2V18.1z M129.4,18.1h-1.2v-0.4h1.2V18.1z M127.1,18.1H126v-0.4h1.2V18.1z M124.8,18.1h-1.2
				v-0.4h1.2V18.1z M122.5,18.1h-1.2v-0.4h1.2V18.1z M120.2,18.1H119v-0.4h1.2V18.1z M117.9,18.1h-1.2v-0.4h1.2V18.1z M115.9,18.1
				h-1.2v-0.4h1.2V18.1z M113.6,18.1h-1.2v-0.4h1.2V18.1z M111.3,18.1h-1.2v-0.4h1.2V18.1z M109,18.1h-1.2v-0.4h1.2V18.1z
				 M106.7,18.1h-1.2v-0.4h1.2V18.1z M104.4,18.1h-1.2v-0.4h1.2V18.1z M102.1,18.1h-1.2v-0.4h1.2V18.1z M99.8,18.1h-1.2v-0.4h1.2
				V18.1z M97.4,18.1h-1.2v-0.4h1.2V18.1z M95.1,18.1H94v-0.4h1.2V18.1z M92.8,18.1h-1.2v-0.4h1.2V18.1z M90.5,18.1h-1.2v-0.4h1.2
				V18.1z M88.2,18.1H87v-0.4h1.2V18.1z M85.9,18.1h-1.2v-0.4h1.2V18.1z M83.6,18.1h-1.2v-0.4h1.2V18.1z M81.3,18.1h-1.2v-0.4h1.2
				V18.1z M79,18.1h-1.2v-0.4H79V18.1z M76.6,18.1h-1.2v-0.4h1.2V18.1z"/>
		</g>
		<g>
			<g>
				<g>
					<g>
						<path class="st9" d="M83.4,23.5l-8.7,5.2c-0.3,0.2-0.8,0.1-1-0.2l-5.2-8.7c-0.2-0.3-0.1-0.8,0.2-1l8.7-5.2
							c0.3-0.2,0.8-0.1,1,0.2l5.2,8.7C83.8,22.9,83.7,23.3,83.4,23.5z"/>
					</g>
				</g>
				<circle class="st10" cx="71.9" cy="20" r="1.3"/>
				<path class="st10" d="M80.5,18.3l2.8,4.7l0,0l-9.1,5.4l-1.1-1.9l0,0c0.3-1.3,1.7-2.2,3-1.8l0.6,0.1l1.3-5.2
					C78.3,18.7,79.4,18,80.5,18.3L80.5,18.3z"/>
			</g>
			<g>
				<g>
					<path class="st9" d="M116.5,48.7l2.2-13.3c0-0.2,0.2-0.4,0.5-0.3l7.7,1.1l1.9,3.4L127,50.1c-0.1,0.4-0.5,0.7-0.9,0.7l-9.2-1.5
						C116.6,49.2,116.5,49,116.5,48.7z"/>
					<path class="st9" d="M126.4,50.9c-0.1,0-0.2,0-0.3,0l-9.2-1.5c-0.2,0-0.3-0.1-0.4-0.2c-0.1-0.1-0.1-0.3-0.1-0.4l0,0l2.2-13.3
						c0-0.3,0.3-0.5,0.6-0.4l7.7,1.1l1.9,3.5l-1.7,10.5c0,0.2-0.2,0.4-0.4,0.6C126.6,50.8,126.5,50.9,126.4,50.9z M116.6,48.7
						c0,0.1,0,0.2,0.1,0.3c0.1,0.1,0.2,0.1,0.3,0.2l9.2,1.5c0.2,0,0.4,0,0.5-0.1c0.1-0.1,0.2-0.3,0.3-0.4l1.7-10.5l-1.8-3.3
						l-7.6-1.1c-0.2,0-0.3,0.1-0.4,0.3L116.6,48.7z"/>
				</g>
				<g>
					<polygon class="st11" points="126.8,36.2 126.3,39.3 128.7,39.6 					"/>
				</g>
				<g>
					<path class="st8" d="M125,38.8C125,38.8,124.9,38.8,125,38.8l-4.7-0.8c-0.1,0-0.1-0.1-0.1-0.2c0-0.1,0.1-0.1,0.2-0.1l4.7,0.8
						c0.1,0,0.1,0.1,0.1,0.2C125.1,38.7,125,38.8,125,38.8z"/>
				</g>
				<g>
					<path class="st8" d="M126.9,41.4C126.8,41.4,126.8,41.4,126.9,41.4l-6.9-1.2c-0.1,0-0.1-0.1-0.1-0.2c0-0.1,0.1-0.1,0.2-0.1
						l6.8,1.2c0.1,0,0.1,0.1,0.1,0.2C127,41.3,126.9,41.4,126.9,41.4z"/>
				</g>
				<g>
					<path class="st8" d="M126.3,44.2C126.3,44.2,126.3,44.2,126.3,44.2l-6.9-1.2c-0.1,0-0.1-0.1-0.1-0.2c0-0.1,0.1-0.1,0.2-0.1
						l6.8,1.2c0.1,0,0.1,0.1,0.1,0.2C126.4,44.2,126.4,44.2,126.3,44.2z"/>
				</g>
				<g>
					<path class="st8" d="M125.9,46.7C125.9,46.7,125.8,46.7,125.9,46.7l-6.9-1.2c-0.1,0-0.1-0.1-0.1-0.2c0-0.1,0.1-0.1,0.2-0.1
						l6.8,1.2c0.1,0,0.1,0.1,0.1,0.2C126,46.7,125.9,46.7,125.9,46.7z"/>
				</g>
				<g>
					<path class="st8" d="M125.5,48.8C125.5,48.8,125.5,48.8,125.5,48.8l-6.9-1.2c-0.1,0-0.1-0.1-0.1-0.2c0-0.1,0.1-0.1,0.2-0.1
						l6.8,1.2c0.1,0,0.1,0.1,0.1,0.2C125.6,48.8,125.6,48.8,125.5,48.8z"/>
				</g>
			</g>
			<g>
				<g>
					<path class="st12" d="M137.4,32.8h-5.9c-1.4,0-2.5-1.1-2.5-2.5v-4.5c0-1.4,1.1-2.5,2.5-2.5h5.9c1.4,0,2.5,1.1,2.5,2.5v4.5
						C139.9,31.7,138.8,32.8,137.4,32.8z"/>
				</g>
				<g>
					<g>
						<path class="st5" d="M131.4,31.2h-1.1c-0.2,0-0.4-0.2-0.4-0.4v-2.5c0-0.2,0.2-0.4,0.4-0.4h1.1c0.2,0,0.4,0.2,0.4,0.4v2.5
							C131.8,31.1,131.6,31.2,131.4,31.2z"/>
					</g>
					<g>
						<path class="st5" d="M133.8,31.2h-1.1c-0.2,0-0.4-0.2-0.4-0.4v-1.1c0-0.2,0.2-0.4,0.4-0.4h1.1c0.2,0,0.4,0.2,0.4,0.4v1.1
							C134.2,31.1,134.1,31.2,133.8,31.2z"/>
					</g>
					<g>
						<path class="st5" d="M136.2,31.2h-1.1c-0.2,0-0.4-0.2-0.4-0.4v-3.3c0-0.2,0.2-0.4,0.4-0.4h1.1c0.2,0,0.4,0.2,0.4,0.4v3.3
							C136.7,31.1,136.5,31.2,136.2,31.2z"/>
					</g>
					<g>
						<path class="st5" d="M138.7,31.2h-1.1c-0.2,0-0.4-0.2-0.4-0.4v-4.4c0-0.2,0.2-0.4,0.4-0.4h1.1c0.2,0,0.4,0.2,0.4,0.4v4.4
							C139.1,31.1,138.9,31.2,138.7,31.2z"/>
					</g>
				</g>
			</g>
			<g>
				<g>
					<path class="st13" d="M110.6,27.8H97.1c-3.1,0-5.7-2.6-5.7-5.7V11.7c0-3.1,2.6-5.7,5.7-5.7h13.5c3.1,0,5.7,2.6,5.7,5.7v10.4
						C116.3,25.2,113.7,27.8,110.6,27.8z"/>
				</g>
				<g>
					<g>
						<path class="st5" d="M103.8,25.7c-4.8,0-8.8-3.9-8.8-8.8c0-2.4,1-4.7,2.7-6.4c1.6-1.6,3.8-2.4,6-2.4c2.3,0,4.4,0.9,6,2.4
							c1.7,1.6,2.7,4,2.7,6.4C112.6,21.7,108.7,25.7,103.8,25.7z M103.8,8.9c-2.1,0-4,0.8-5.5,2.2c-1.6,1.5-2.5,3.6-2.5,5.8
							c0,4.4,3.6,8,8,8c4.4,0,8-3.6,8-8c0-2.2-0.9-4.3-2.5-5.8C107.8,9.6,105.9,8.9,103.8,8.9z"/>
					</g>
				</g>
				<g>
					<g>
						<g>
							<path class="st5" d="M103.8,13.5c-2.3,0-4.4-0.9-6-2.4c-0.1-0.1-0.1-0.2-0.1-0.3c0-0.1,0-0.2,0.1-0.3c1.6-1.6,3.8-2.4,6-2.4
								c2.3,0,4.4,0.9,6,2.4c0.1,0.1,0.1,0.2,0.1,0.3c0,0.1,0,0.2-0.1,0.3C108.2,12.6,106.1,13.5,103.8,13.5z M98.6,10.8
								c1.5,1.2,3.3,1.9,5.2,1.9c1.9,0,3.8-0.7,5.2-1.9c-1.5-1.2-3.3-1.9-5.2-1.9C101.9,8.9,100.1,9.5,98.6,10.8z"/>
						</g>
					</g>
					<g>
						<g>
							<path class="st5" d="M98,23.3c-0.1,0-0.2,0-0.3-0.1c-0.1-0.2-0.1-0.4,0-0.5c1.6-1.6,3.8-2.4,6-2.4c2.3,0,4.4,0.9,6,2.4
								c0.2,0.1,0.2,0.4,0,0.5c-0.1,0.2-0.4,0.2-0.5,0c-1.5-1.4-3.4-2.2-5.5-2.2c-2.1,0-4,0.8-5.5,2.2C98.2,23.3,98.1,23.3,98,23.3z
								"/>
						</g>
					</g>
				</g>
				<g>
					<g>
						<path class="st5" d="M103.8,25.7c-2.8,0-5-3.9-5-8.8s2.2-8.8,5-8.8c2.8,0,5,3.9,5,8.8S106.6,25.7,103.8,25.7z M103.8,8.9
							c-2.3,0-4.2,3.7-4.2,8c0,4.3,1.9,8,4.2,8c2.3,0,4.2-3.7,4.2-8C108,12.5,106.1,8.9,103.8,8.9z"/>
					</g>
				</g>
				<g>
					<g>
						<path class="st5" d="M103.8,25.7c-0.2,0-0.4-0.2-0.4-0.4V8.5c0-0.2,0.2-0.4,0.4-0.4c0.2,0,0.4,0.2,0.4,0.4v16.8
							C104.2,25.5,104,25.7,103.8,25.7z"/>
					</g>
				</g>
				<g>
					<g>
						<path class="st5" d="M100.1,17.3c-2.6,0-4.6,0-4.7,0c-0.2,0-0.4-0.2-0.4-0.4c0-0.2,0.2-0.4,0.4-0.4c0.3,0,11.1,0,16.8,0
							c0,0,0,0,0,0c0.2,0,0.4,0.2,0.4,0.4c0,0.2-0.2,0.4-0.4,0.4C111.1,17.3,104.7,17.3,100.1,17.3z"/>
					</g>
				</g>
			</g>
		</g>
	</g>
	<g>
		<ellipse class="st14" cx="79" cy="126.4" rx="27.9" ry="1.1"/>
		<g>
			<g>
				<g>
					<g>
						<g>
							<rect x="70.4" y="120.5" class="st15" width="17.3" height="4.9"/>
						</g>
						<g>
							<path class="st8" d="M121.1,67.1v51.7c0,1.2-1,2.1-2.1,2.1H39.1c-1.2,0-2.1-1-2.1-2.1V67.1c0-1.2,1-2.1,2.1-2.1h79.9
								C120.1,64.9,121.1,65.9,121.1,67.1z"/>
						</g>
						<g>
							<path class="st8" d="M121.1,67.1v49H36.9v-49c0-1.2,1-2.1,2.1-2.1h79.9C120.1,64.9,121.1,65.9,121.1,67.1z"/>
						</g>
						<g>
							<rect x="39" y="67.1" class="st4" width="80" height="46.7"/>
						</g>
						<g>
							<path class="st15" d="M93.1,126.4H64.9v-0.2c0-0.7,0.6-1.3,1.3-1.3h25.6c0.7,0,1.3,0.6,1.3,1.3V126.4z"/>
						</g>
					</g>
				</g>
			</g>
		</g>
	</g>
	<g>
		<g>
			<path class="st16" d="M83,51.3c0.2,0.1,0.3,0.1,0.5,0.2c0.7,0.2,1.4,0.2,2.3,0c0.4-0.1,0.5-0.4,0.3-0.6c0.3,0,0.6-0.1,0.9-0.2
				c0.4-0.1,0.4-0.5,0.1-0.7c0.1,0,0.3-0.1,0.4-0.1c0.6-0.2,0.4-0.8-0.2-0.6c-0.8,0.2-1.5,0.2-2.2,0.1c0.6,0,1.2,0,1.8-0.1
				c0.5-0.1,0.4-0.8-0.1-0.7c-1,0.2-2.1,0-3.1-0.3c0.3-0.1,0.6-0.2,1-0.2c0.5,0,0.5-0.7-0.1-0.7c-1.1,0.1-1.9,0.2-3,0.7c0,0,0,0,0,0
				l-0.6,0c0.3,1.1,0.6,2.2,0.8,3.4C82.5,51.5,83,51.3,83,51.3z"/>
			<g id="XMLID_00000036935965859330923990000014713417323179782818_">
				<path class="st17" d="M85.2,49.5L85.2,49.5c0-0.1-1.4-0.3-1.6-0.5l0,0c0.1,0.1,0.3,0.2,0.5,0.3C84.6,49.4,85.2,49.5,85.2,49.5z"
					/>
			</g>
			<g id="XMLID_00000026871035481644240220000006638275361159364483_">
				<path class="st17" d="M87.1,50.2L87.1,50.2c0-0.1-2.2,0.2-3.5-0.5l0,0.1c0.1,0.1,0.3,0.1,0.5,0.2C85.4,50.4,87.1,50.2,87.1,50.2
					z"/>
			</g>
			<g id="XMLID_00000065760671713267038860000005677880589570249352_">
				<path class="st17" d="M86.1,51L86.1,51c0-0.1-2.2,0-2.5-0.5l-0.1,0c0.1,0.1,0.3,0.2,0.5,0.3C84.8,51,86,51,86.1,51z"/>
			</g>
			<path class="st16" d="M41.1,88.1c0,0,0.7-0.6,1.1-0.8l4.2-1.7c0,0,1.5-1.8,1.9-2.4c0.2-0.3,0.6-0.3,0.8-0.2l1.4,0.8
				c0.3,0.2,0.4,0.6,0.2,0.9l-2.4,4.4c-0.8,0.7-1.5,1.2-2.3,1.8L41.1,88.1L41.1,88.1z"/>
			<path class="st18" d="M42.1,86.9l2.8-1.2l0.2-0.2c0.3-0.2,0.6-0.3,0.9-0.1c0.6,0.3,1.2,0.8,1.6,1.1c0.3,0.2,0.3,0.6,0.2,0.9
				L47.7,88c0.1,0,0.1,0,0.2,0.1c1.2,0.3,1-0.2,1.1-0.2c0.1,0-0.4,1.8-0.7,3.1c-0.1,0.6-0.8,0.9-1.4,0.6L40.8,88c0,0,0-0.1,0-0.1
				C41.1,87.3,41.7,87.1,42.1,86.9L42.1,86.9z"/>
			<g>
				<path class="st19" d="M73.1,49.3c-3.2-0.7-7.2-20.8-10.3-9.8c-1.3,2.6,5.8,14.9,8.3,14.5c2.2-0.5,12.8-0.4,10.7-3.9
					c-0.2-0.5-0.3-1.4-0.7-1.7C78.6,48.8,75.8,49.3,73.1,49.3z"/>
			</g>
			<g>
				<path class="st13" d="M64.8,35.7c-1.9-1-3.9-1.8-6.2-1.8c-3.3,0-6.5,0.8-9.4,2.3c-1.2,0.6-1.1,2.8-1.1,4c0,1.6,0.2,3.3,0.9,4.7
					c0.7,1.5,1.9,2.8,2.7,4.3c0.6,0.9,1.3,2.1,1.3,3.2c0,1,0.1,1.9,0.2,2.8c0.1,0.6,0.1,1.6,0.5,2c0.2,0.2,0.6,0.3,0.9,0.4
					c1.6,0.4,3.2,0.3,4.8,0.1c3-0.2,6.1-0.8,8.3-2.7c-0.9-3.1-1.1-6.3-1.5-9.5c-0.2-1.7-0.4-3.5-0.6-5.2c-0.1-1.1-0.1-2.1-0.1-3.3
					C65.5,36.4,65.4,36,64.8,35.7z"/>
			</g>
			<g>
				<g>
					<path class="st19" d="M48.3,57.6c-2.2-1.1-4.1-2.7-5.2-4.9c-0.2-0.4-0.4-0.8-0.5-1.2c-0.1-0.6,0-1.2,0.1-1.8
						c0.6-2.8,1.5-5.6,2.7-8.2c0.6-1.3,1.1-2.6,1.9-3.7c0.7-0.9,1.9-1.8,3.1-1.5c1.3,0.4,1.9,1.8,2.3,3c0.6,1.9-0.1,3.3-0.8,5
						c-0.8,2.2-1.9,4.3-2.8,6.5c2,1.4,4,2.8,6.1,4.1c0.5,0.3,1,0.6,1.5,0.9c0.5,0.4,0.3,0.5,0,1c-0.2,0.3-1.4,3.1-1.4,3.1
						C52.8,59.5,50.5,58.7,48.3,57.6z"/>
				</g>
			</g>
			<path class="st20" d="M64.6,55.8c-0.2-0.3-0.4-0.4-0.5-0.6c-0.8,0.2-1.4,0.2-1.8,0.2c-0.4,0-0.8-0.1-1.3,0.1
				c-0.2,0.1-0.4,0.3-0.5,0.4c-0.5,0.5-1.1,0.9-1.7,1.2c0.1,0.3,0.5,0.5,0.9,0.4c0.1,0,0.2-0.1,0.3-0.1c0.4-0.3,0.8-0.6,1.2-0.9
				c0.1,0,0.2-0.1,0.2,0c-0.3,0.3-0.6,0.6-0.9,0.9c-0.2,0.2-0.5,0.4-0.7,0.5c-0.3,0.2-0.5,0.5-0.8,0.8c-0.1,0.1-0.2,0.2-0.2,0.4
				c0,0.2,0,0.3,0.1,0.4c0.2,0.1,0.4,0,0.5-0.2c0.7-0.5,1.2-1.2,2-1.6c-0.9,0.6-1.8,1.3-2.6,1.9c0,0-0.1,0.1-0.1,0.1
				c-0.1,0.1,0,0.2,0.1,0.3c0,0,0.1,0.1,0.1,0.1c0.1,0,0.2,0,0.3-0.1c0.9-0.6,1.8-1.2,2.6-1.8c-0.2,0.4-0.5,0.7-0.9,0.9
				c-0.4,0.2-0.8,0.4-1.1,0.6c-0.1,0-0.2,0.1-0.2,0.2c0,0.1,0.1,0.3,0.2,0.4c0,0,0.1,0.1,0.1,0.1c0.1,0,0.2,0,0.2,0
				c0.7-0.3,1.4-0.7,1.9-1.2c0.1-0.1,0.3-0.3,0.5-0.2c-0.4,0.6-1,1-1.6,1.5c-0.1,0.1-0.1,0.1-0.1,0.2c0,0.1,0.2,0.1,0.3,0.1
				c1.1-0.4,1.9-1.3,2.6-2.1c0.2-0.2,0.4-0.5,0.6-0.7c0.2-0.3,0.4-0.6,0.5-0.7c0.1-0.1,0.1-0.2,0.2-0.3
				C64.9,56.9,64.9,56.4,64.6,55.8z"/>
			<path class="st21" d="M50.6,85.2c2.1-2.3,4.6-5.1,7.5-8.4c2.8-3.2,5.9-6.8,8.7-12c1.5-2.9,2.4-5.4,1.4-7
				c-0.3-0.6-1.3-1.6-2.6-1.8c-0.9-0.1-1.8,0.2-2.1,0.3c-0.1,0-0.7,0.3-1.4,0.8c-3.2,2.5-6,7.8-6,7.8c-3.9,7.4-2.1,3.7-3.7,6.9
				c-1.4,2.8-3.2,6.5-5.4,10.9C48.2,83.6,49.4,84.4,50.6,85.2z"/>
			<g>
				<path class="st22" d="M68.8,59.8H49c-0.4,0-0.8-0.4-0.8-0.8c-0.2-3.9-0.5-7.7-0.7-11.6c0-0.1,0-0.4,0.3-0.7
					c0.3-0.3,0.7-0.3,0.8-0.3c6.9,0,13.8,0,20.7,0.1c0.1,0,0.3,0.1,0.6,0.3c0.3,0.2,0.3,0.5,0.4,0.6c-0.2,3.9-0.4,7.7-0.6,11.6
					C69.6,59.4,69.2,59.8,68.8,59.8z"/>
				<path class="st23" d="M69.2,59H48.4c-0.1,0-0.2,0-0.3,0c0,0,0,0,0,0c0,0.4,0.4,0.8,0.8,0.8h19.7c0.4,0,0.8-0.4,0.8-0.8
					c0,0,0,0,0,0C69.4,59,69.3,59,69.2,59z"/>
				<ellipse transform="matrix(1 -3.333669e-03 3.333669e-03 1 -0.1782 0.1968)" class="st24" cx="58.9" cy="53.6" rx="1" ry="1"/>
			</g>
			<path class="st25" d="M70.1,64.3c-2.9-0.1-6.5-0.2-10.5-0.4c-3.9-0.2-8.4-0.5-13.7-2c-3-0.9-5.1-1.9-5.6-3.6
				c-0.1-0.6-0.2-1.9,0.5-2.9c0.5-0.7,1.3-1.1,1.6-1.2c0.1,0,0.7-0.3,1.4-0.4c3.8-0.5,9.1,1.1,9.1,1.1c7.5,2.2,3.8,1,7,2
				c2.7,0.9,6.4,2.1,10.8,3.5C70.6,61.6,70.3,63,70.1,64.3z"/>
			<g>
				<path class="st25" d="M55.4,31.5l-0.6-1.3l0.4,0.2c0,0,0.2,0.5,0.3,0.9C55.5,31.6,55.4,31.5,55.4,31.5z"/>
				<path class="st16" d="M55.5,30c0,0.2,0,6,0,6s0.6,0.8,1.6,0.8c1,0,1.9-1.2,1.9-1.2l-0.1-3.4L55.5,30z"/>
				<path class="st26" d="M58.9,33.5c-2.1,0.9-3.1-1.5-3.2-1.6c0.7,0.3,3,1.1,3.1,1.1L58.9,33.5z"/>
				<path class="st16" d="M57.8,33.3c-1.6,0-2.6-1.5-2.6-3l0-2.3c0-1.5,1.1-2.7,2.5-2.7l0,0c1.4,0,2.6,1.2,2.6,2.6l0,2.3
					C60.3,31.8,59.3,33.3,57.8,33.3z"/>
				<path class="st25" d="M54.9,28.7c-0.3,0-0.5,0.3-0.5,0.3s-0.7-1.3-0.7-2.1c0-0.8,0.7-1.1,0.7-1.1s0-0.5,0.2-0.9
					c0.4-0.7,1.3-0.5,1.3-0.5s0.4-0.6,0.9-0.7c1-0.2,1.4,0.2,1.4,0.2s0.4-0.5,1.1-0.2c0.7,0.3,0.6,1,0.6,1s1.3-0.5,1.6,0.6
					c0.2,0.7,0.1,1.6-0.8,1.7c-0.5,0.1-1-0.3-1-0.3s-0.1,0.3-0.8,0.4c-0.8,0.1-1.2-0.6-1.2-0.6s0,0.1-0.5,0.6
					c-0.5,0.4-1.4-0.1-1.4-0.1l-0.1,1l-0.4,1.2l0-0.4C55.2,28.8,55.1,28.7,54.9,28.7z"/>
				<path class="st16" d="M54.4,29.6c0,0.5,0.3,0.8,0.6,0.8c0.7,0,0.6-0.4,0.6-0.8c0-0.5-0.3-0.8-0.6-0.8
					C54.6,28.7,54.4,29.1,54.4,29.6z"/>
				<path class="st27" d="M54.6,29.3c0-0.1,0.1-0.2,0.2-0.3c0.1,0,0.2,0,0.2,0.1c0,0,0,0,0,0c0-0.1-0.1-0.1-0.1-0.1
					c-0.1,0-0.1,0-0.1,0.1c-0.1,0.1-0.1,0.2-0.1,0.3c0,0.1,0.1,0.2,0.1,0.3c0,0,0.1,0.1,0.1,0.1c0,0,0.1,0,0.2,0c0,0,0,0,0,0
					c0,0-0.1,0.1-0.1,0.1c-0.1,0-0.1,0-0.2,0c-0.1-0.1-0.2-0.2-0.2-0.3C54.6,29.6,54.6,29.5,54.6,29.3z"/>
			</g>
			<path class="st16" d="M75.4,64.1c-0.9,0.7-1.8,1.3-2.4,1.3l-4.3-2c-0.3-0.1-0.8-0.2-0.6-0.6l0.5-1.5c0.1-0.3,0.4-0.5,0.7-0.4
				c0.7,0.1,2.9,0.6,2.9,0.6c1.4-0.5,2.7-0.9,4.1-1.4c0.4-0.1,0.8-0.3,1.3-0.1C77.5,59.9,75.4,64.1,75.4,64.1L75.4,64.1z"/>
			<path class="st18" d="M72.7,64.3c0-0.1,0.1-0.1,0.1-0.2l-0.5-0.3c-0.2-0.1-0.4-0.4-0.3-0.7c0-0.5,0.2-1.3,0.4-2
				c0.1-0.3,0.4-0.5,0.7-0.5l0.2,0l3.3-2.3c0.4-0.1,1-0.3,1.5-0.1c0.1,0,0.1,0.1,0.2,0.2L74.5,66c-0.1,0.2-0.4,0.3-0.6,0.2
				c-1.1-0.6-2.6-1.6-2.5-1.6C71.8,64.5,72,65.3,72.7,64.3z"/>
		</g>
		<g>
			<g>
				<path class="st28" d="M58.7,30.1C58.7,30.1,58.7,30.1,58.7,30.1c0.1,0,0.7-0.1,0.8-0.4c0-0.3-0.4-1.1-0.5-1.3c0,0-0.1-0.1-0.1,0
					c0,0-0.1,0.1,0,0.1c0.2,0.4,0.5,1,0.5,1.2c0,0.1-0.4,0.2-0.6,0.3C58.6,30,58.6,30,58.7,30.1C58.6,30.1,58.6,30.1,58.7,30.1z"/>
			</g>
			<g>
				<path class="st29" d="M60.1,28.5c0,0.2-0.1,0.3-0.2,0.3c-0.1,0-0.3-0.1-0.3-0.3c0-0.2,0.1-0.3,0.2-0.3
					C60,28.3,60.1,28.4,60.1,28.5z"/>
			</g>
			<g>
				<path d="M56.9,27.8C56.9,27.8,56.9,27.8,56.9,27.8c0.5-0.4,1-0.1,1-0.1c0,0,0.1,0,0.1,0c0,0,0-0.1,0-0.1c0,0-0.6-0.3-1.1,0.1
					C56.8,27.7,56.8,27.7,56.9,27.8C56.8,27.8,56.9,27.8,56.9,27.8z"/>
			</g>
			<g>
				<path d="M59.5,27.6C59.5,27.6,59.5,27.6,59.5,27.6L59.5,27.6c0.1,0,0.4-0.3,0.7,0c0,0,0.1,0,0.1,0c0,0,0-0.1,0-0.1
					c-0.3-0.2-0.7-0.1-0.9,0C59.4,27.4,59.3,27.5,59.5,27.6C59.4,27.6,59.4,27.6,59.5,27.6z"/>
			</g>
			<g>
				<path class="st30" d="M57.8,30.7c1.3,0.2,1.8,0,1.8,0s0.1,0.8-0.7,0.9C57.9,31.7,57.8,30.7,57.8,30.7z"/>
			</g>
			<g>
				<path class="st5" d="M59.6,30.7c0,0,0,0.1,0,0.2c0,0-0.1,0.1-0.7,0.2c-0.4,0-0.9-0.1-1-0.1c-0.1-0.1-0.1-0.3-0.1-0.3
					c0.1,0,0.1,0,0.2,0C58.9,30.9,59.4,30.7,59.6,30.7C59.6,30.7,59.6,30.7,59.6,30.7z"/>
			</g>
			<g>
				
					<ellipse transform="matrix(0.9971 -7.662366e-02 7.662366e-02 0.9971 -2.0372 4.506)" class="st29" cx="57.7" cy="28.8" rx="0.3" ry="0.3"/>
			</g>
		</g>
	</g>
	<g>
		<g>
			<g>
				<g>
					<path class="st9" d="M113.2,73.3V109c0,0.9-0.7,1.6-1.6,1.6H69.2c-0.9,0-1.6-0.7-1.6-1.6V73.3c0-0.9,0.7-1.6,1.6-1.6h42.4
						C112.4,71.7,113.2,72.4,113.2,73.3z"/>
				</g>
			</g>
			<g>
				<g>
					<path class="st5" d="M69.2,109.7c-0.4,0-0.7-0.3-0.7-0.7V77.2c0-0.4,0.3-0.7,0.7-0.7h42.4c0.4,0,0.7,0.3,0.7,0.7V109
						c0,0.4-0.3,0.7-0.7,0.7H69.2z"/>
				</g>
			</g>
		</g>
		<g>
			<g>
				<g>
					<circle class="st19" cx="69.9" cy="74.5" r="0.7"/>
				</g>
			</g>
			<g>
				<g>
					<circle class="st19" cx="71.7" cy="74.5" r="0.7"/>
				</g>
			</g>
			<g>
				<g>
					<circle class="st19" cx="73.5" cy="74.5" r="0.7"/>
				</g>
			</g>
		</g>
	</g>
	<g>
		<path class="st14" d="M131.9,134.1c-0.6,0.4-1.1,0.7-1.7,1.1c-0.6,0.3-1.2,0.7-1.8,1c-2.4,0-4.9,0.1-7.6,0.1
			c-12.1,0-21.8-0.5-21.8-1.1c0-0.3,2-0.5,5.3-0.7c0.9-0.1,1.9-0.1,2.9-0.1c3.7-0.2,8.5-0.3,13.6-0.3
			C124.9,134,128.7,134,131.9,134.1z"/>
		<g>
			<g>
				<g>
					<path class="st12" d="M88.9,47.2l-0.3-1.8c-0.1-0.3,0.2-0.6,0.5-0.6l10.2-1.1L99,42.3c-0.1-0.3,0.2-0.7,0.5-0.7l8.2-0.8
						c0.3,0,0.5,0.2,0.6,0.5l1.9,17.1c0,0.2-0.1,0.4-0.3,0.4l-0.5,0.1L88.9,47.2z"/>
				</g>
				<g>
					<path class="st12" d="M88.9,47.2l-0.3-1.8c-0.1-0.3,0.2-0.6,0.5-0.6l10.2-1.1L99,42.3c-0.1-0.3,0.2-0.7,0.5-0.7l8.2-0.8
						c0.3,0,0.5,0.2,0.6,0.5l1.9,17.1c0,0.2-0.1,0.4-0.3,0.4l-0.5,0.1L88.9,47.2z"/>
				</g>
				<g>
					<polygon class="st31" points="87.6,49.6 87.1,46.4 107.8,44.5 109.3,58.8 					"/>
				</g>
				<g>
					<path class="st12" d="M89.9,60.4l-3.7-11.7c-0.1-0.4,0.1-0.8,0.6-0.9l18.3-1.8c0.3,0,0.5,0.1,0.6,0.4l3.7,12.3l-18.7,2.1
						C90.3,60.9,90,60.7,89.9,60.4z"/>
				</g>
			</g>
			<g>
				<g>
					<path class="st32" d="M100.7,93c0,0.1,0,0.3,0,0.4c-0.1,0.6-0.4,1.1-0.8,1.7c-0.2,0.3-0.5,0.2-0.5,0.1
						c-0.1,0.2-0.3,0.4-0.5,0.6c-0.2,0.3-0.5,0.1-0.5-0.1c-0.1,0.1-0.2,0.2-0.2,0.3c-0.3,0.4-0.7,0-0.4-0.4c0.5-0.5,0.7-1,0.8-1.6
						c-0.2,0.4-0.4,0.9-0.7,1.3c-0.3,0.4-0.7,0.1-0.5-0.3c0.5-0.7,0.8-1.6,0.9-2.4c-0.2,0.2-0.4,0.4-0.5,0.7
						c-0.2,0.4-0.7,0.1-0.5-0.3c0.5-0.8,0.9-1.4,1.6-2c0,0,0,0,0,0c0.8-1.5,1.7-3,2.5-4.5c2.4-4.1,3.1-4.8,3.3-4.7
						c0.2,0.1,0.1,1.1-1.6,5.7C102.3,89.2,101.5,91.1,100.7,93z"/>
					<g id="_x3C_Trazado_x3E_">
						<g>
							<g>
								<g>
									<path class="st13" d="M131.9,126.6c0,0-0.4,4.3,0.5,4.2c1.2-0.1,3-6.5,3-6.5l0.4,0.4l0.6-0.8l-1.5-1.5L131.9,126.6z"/>
								</g>
							</g>
						</g>
						<g>
							<g>
								<g>
									<path class="st32" d="M120.7,113.4l11.3,10.1c0,0-0.3,5.3,0.5,5.1c1.1-0.3,2.5-6.3,2.5-6.3l-8.8-10.9L120.7,113.4z"/>
								</g>
							</g>
						</g>
						<g>
							<g>
								<g>
									<path class="st13" d="M106.9,131.5c0,0-3.3,2.8-2.6,3.4c0.9,0.7,6.7-2.6,6.7-2.6l0,0.6l1-0.2l0-2.1L106.9,131.5z"/>
								</g>
							</g>
						</g>
						<g>
							<g>
								<g>
									<path class="st32" d="M108.1,116.9l0.9,12.3c0,0-3.9,3.6-3.2,4c1,0.5,6.2-2.8,6.2-2.8l1.2-14L108.1,116.9z"/>
								</g>
							</g>
						</g>
						<g>
							<path class="st12" d="M115.2,88.2c-3,0.2-5.8,0.4-8.7-0.3c-0.1,0-0.2,0-0.3-0.1l0,29.3l25.4-1.9c0,0-5.4-20-7.7-27.5
								C121,88,118,87.9,115.2,88.2z"/>
						</g>
						<g>
							<g>
								<g>
									<path class="st33" d="M119.2,88l0.1,1.2l-2.8,0.3l-2.8,0.3l-0.2-1.5c-0.1,0-0.1,0-0.2,0l0.2,1.6v0c0,0,0,0.1,0.1,0.1l0,0
										l2.9-0.4l2.9-0.4l0,0c0,0,0.1,0,0-0.1L119.2,88C119.3,87.9,119.3,87.9,119.2,88z"/>
								</g>
							</g>
						</g>
						<g>
							<g>
								<g>
									<path class="st33" d="M126.8,104.6c-0.4-1.6-0.8-3.1-1.3-4.7c-0.4-1.6-0.9-3.1-1.3-4.7l-0.7-2.3l-0.7-2.3
										c-0.2-0.8-0.5-1.6-0.7-2.3c0-0.1-0.1-0.2-0.1-0.3c-0.1,0-0.1,0-0.2,0l0.1,0.3c0.2,0.8,0.5,1.6,0.7,2.3l0.7,2.3l0.7,2.3
										c0.4,1.6,0.9,3.1,1.3,4.7l1.3,4.7l1.3,4.7l1.3,4.7c-0.4-1.6-0.8-3.2-1.2-4.7L126.8,104.6z"/>
								</g>
							</g>
						</g>
					</g>
					<path class="st5" d="M108.1,78.2c0,6-1.2,10.8-1.2,10.8s5.4,2.7,11.8,0.7c0.1,0,4.6-1.3,4.6-1.3c-0.1-0.2-0.7-6.5-0.8-6.8
						c-1.4-2.9-1.7-4.1-1.9-5c-0.3-1.7-0.3-3.4-0.2-5c0.4-4.3,1.6-7.9,1.6-7.9c-1.7-0.4-3.4-1.1-5.2-1.8c-0.4,0.5-1.7,1-2.8,1
						c-1.3,0-1.7-0.6-1.6-1.2c-1.4,0.8-2.4,1.5-2.4,1.5c-1.2,2-3.5,4-3.7,7C106.3,71.2,108.1,78,108.1,78.2L108.1,78.2z"/>
					<path class="st34" d="M118.9,78.9c0.5,0.8,1.6,5.5,4.2,6.1c-1.4-3.4-2.4-4.8-2.5-5.9c-0.3-1.9-0.3-3.9-0.2-5.8
						c-0.9-1.5-1.5-2.6-1.5-2.6c-0.1-0.2-1.4-4.3-1.8-0.7C116.7,73.7,118.3,78,118.9,78.9L118.9,78.9z"/>
					<path class="st13" d="M111.8,62.5c-2.4,0.4-3.9,1.6-4.7,2.5c-3.4,3.6-1.6,7.9-5.1,15.8c-1.9,4.2-3.3,8.3-3.3,8.3l3.3,3.2
						C102,92.2,107.6,85.7,111.8,62.5z"/>
					<path class="st13" d="M112.4,61.9c0,0-3,7.4-3.1,8.9c-0.1,1.5-0.4,24.5-0.4,24.5s0.2,1.1-1.9,0.6c-2-0.4-2.6-0.9-2.6-0.9
						s0.5-3.5,0.9-7.7c0.6-5.6,0.2-7.9,0.5-11.4c0.3-3,1-7.3,3.2-12.6C110.2,62.9,111.3,62.4,112.4,61.9z"/>
					<path class="st13" d="M117.1,94.9c0,0,0.8,2.8,3.4,2.4c2.6-0.4,6.4-1.9,6.4-1.9s-1.1-3.6-2.5-8.3c-1.7-5.7-3.8-13-4.8-17.6
						c-0.3-1.3-0.5-2.4-0.5-3.2l-2.2-4.3c0,0-3.3,7.3-3.4,9.2C113.2,73.1,117.1,94.9,117.1,94.9L117.1,94.9z"/>
					<polygon class="st13" points="118.9,68.6 122,63.8 116.8,62.1 116.8,62.9 					"/>
					<path class="st32" d="M104.5,58.3c0.1,0.8,0.3,1.7,0.4,2.5c0.6,3.4,1.2,6.8,1.9,10c1-0.5,2.1-1,3.1-1.5
						c-0.7-3.6-1.4-7.2-2.1-10.8C106.7,58.4,105.6,58.4,104.5,58.3z"/>
					<g>
						<ellipse class="st12" cx="115.9" cy="58.9" rx="1.1" ry="1.6"/>
						<path class="st12" d="M111.9,58.4c0,0-0.2,2.4-0.6,2.7c0,0,1,0.3,2.3,0.2c1.3-0.1-1-3.3-1-3.3L111.9,58.4z"/>
						<path class="st32" d="M115.7,57.6c0,0.1,0,5.4,0,5.4s-1.4,2-2.2,2c-0.9,0-0.7-1.7-0.7-1.7l0-3.7L115.7,57.6z"/>
						<path class="st32" d="M115.4,59.3c0,0-0.8,2.3-2.7,1.4l0-0.5C112.7,60.3,114.8,59.6,115.4,59.3z"/>
						<path class="st32" d="M113.3,60.5c1.4,0.2,2.5-0.9,2.7-2.3l0.4-2.1c0.2-1.3-0.6-2.5-1.9-2.8l0,0c-1.3-0.2-2.4,0.7-2.7,2
							l-0.4,2.1C111.3,58.8,111.9,60.3,113.3,60.5z"/>
						<path class="st12" d="M116.1,53.3c0,0,2.5,1,1.9,5.1c-0.1,0.5,0.4,1.4,0.4,1.8c-0.1,1.1-1,1.1-1,1.1l-2.8,0c0,0,1.3-0.9,1.3-3
							l0.4-2.5L116.1,53.3z"/>
						<path class="st32" d="M116.9,57.7c-0.1,0.4-0.4,0.7-0.7,0.6c-0.6-0.1-0.5-0.4-0.4-0.8c0.1-0.4,0.4-0.7,0.7-0.6
							S117,57.3,116.9,57.7z"/>
						<path class="st32" d="M116.7,57.4c0-0.1,0-0.2-0.1-0.3c-0.1,0-0.2,0-0.2,0.1c0,0,0,0,0,0c0,0,0.1-0.1,0.1-0.1
							c0.1,0,0.1,0.1,0.1,0.1c0,0.1,0,0.2,0,0.3c0,0.1-0.1,0.2-0.2,0.3c0,0-0.1,0.1-0.1,0.1c0,0-0.1,0-0.1,0c0,0,0,0,0,0
							c0,0,0.1,0.1,0.1,0.1c0,0,0.1,0,0.1,0c0.1,0,0.2-0.1,0.2-0.2C116.7,57.6,116.7,57.5,116.7,57.4z"/>
						<path class="st12" d="M115.3,52.9c-0.9-0.2-1.5,0-1.8,0.3c-0.1-0.1-0.4-0.1-0.8,0c-0.3,0.1-0.6,0.6-0.7,1
							c-0.2,0.8-0.1,1.7-0.1,1.7s0.7-1,0.9-1.4c0.1-0.1,0.1-0.2,0.1-0.3c0,0.5,0.1,1.4,0.9,1.6c0.1,0,0.2,0,0.2,0l-0.3-1.1l0.6,1.1
							c0.2,0,0.5,0,0.7,0.1l-0.5-1l0.8,1c0.2,0.1,0.4,0.1,0.6,0.3c0.3,0.2,0.1,1.4,0.1,1.5l0.3-0.8l0,0l0,0c0.1,0,0.2,0,0.2,0
							c0.1,0,0.3,0.1,0.3,0.2l0,0c0,0,0.4-0.7,0.4-1.5C117.3,54.8,117,53.4,115.3,52.9z"/>
					</g>
					<path class="st32" d="M104.5,58.3c0,0-0.2-0.3-0.3-0.4c-0.4-0.6-0.6-1.2-0.7-2.1c-0.1-0.4,0.2-0.6,0.4-0.5
						c-0.1-0.3-0.1-0.6-0.1-0.8c0-0.4,0.4-0.5,0.6-0.3c0-0.1,0-0.3,0-0.4c0-0.6,0.6-0.6,0.6,0c0,0.8,0.3,1.4,0.6,2.1
						c-0.2-0.5-0.3-1.1-0.4-1.6c-0.1-0.5,0.6-0.6,0.6-0.1c0.2,1,0.6,1.9,1.2,2.8c0-0.3,0-0.6-0.1-1c-0.1-0.5,0.5-0.6,0.6-0.1
						c0.3,1.1,0.4,1.8,0.2,2.9c0,0,0,0,0,0c-0.2,0.6-0.4,1.1-0.6,1.7c0.6,0.7,0.8,1.8,0.5,2.7c-0.5,1.3-1.9,1.6-2,1.6
						C105.3,62.5,104.5,58.3,104.5,58.3z"/>
					<g id="XMLID_00000127759151976809373790000012919405063121597595_">
						<path class="st17" d="M105.5,55.7L105.5,55.7c0.1,0,0.7,1.2,1,1.3l0,0.1c-0.1,0-0.3-0.2-0.4-0.4
							C105.7,56.2,105.5,55.7,105.5,55.7z"/>
					</g>
					<g id="XMLID_00000132084165269618915410000015351349651314565528_">
						<path class="st17" d="M104.3,54.2L104.3,54.2c0.1,0,0.5,2,1.5,3l0,0c-0.1-0.1-0.2-0.2-0.3-0.4
							C104.7,55.8,104.3,54.2,104.3,54.2z"/>
					</g>
					<g id="XMLID_00000097479095279054223030000018402348887085587604_">
						<path class="st17" d="M103.8,55.4L103.8,55.4c0.1,0,0.7,2,1.2,2.1l0,0.1c-0.1,0-0.3-0.2-0.4-0.4
							C104.2,56.6,103.8,55.4,103.8,55.4z"/>
					</g>
					<path class="st32" d="M108.1,61.9"/>
					<path class="st35" d="M122,63.8c0,0,2.5,2.5,1.3,5.4c-0.9,2-7.1,11-13,9.5c-1.8-0.5-2.5-2.4-3.5-4.4c-2-4.1-1.8-8-1.6-9.9
						c0.4-0.2,0.9-0.5,1.5-0.7c0.9-0.3,1.8-0.4,2.4-0.4c0.4,1.5,0.9,3,1.4,4.5c0.5,1.5,1,2.9,1.5,4.3
						C115.4,69.4,118.7,66.6,122,63.8z"/>
				</g>
				<g>
					<g>
						<path class="st28" d="M113.3,58.2C113.3,58.2,113.3,58.2,113.3,58.2c-0.1,0-0.5-0.1-0.6-0.3c0-0.2,0.3-0.8,0.4-1
							c0,0,0.1,0,0.1,0c0,0,0,0.1,0,0.1c-0.2,0.3-0.4,0.8-0.4,0.9c0,0.1,0.3,0.2,0.4,0.2C113.3,58.1,113.4,58.1,113.3,58.2
							C113.3,58.2,113.3,58.2,113.3,58.2z"/>
					</g>
					<g>
						<path class="st29" d="M112.2,57c0,0.1,0.1,0.2,0.2,0.2c0.1,0,0.2-0.1,0.2-0.2s-0.1-0.2-0.2-0.2
							C112.3,56.8,112.2,56.9,112.2,57z"/>
					</g>
					<g>
						<path d="M114.6,56.5C114.6,56.5,114.6,56.4,114.6,56.5c-0.3-0.3-0.7-0.1-0.7-0.1c0,0-0.1,0-0.1,0c0,0,0-0.1,0-0.1
							c0,0,0.5-0.2,0.8,0.1C114.7,56.4,114.7,56.4,114.6,56.5C114.6,56.4,114.6,56.5,114.6,56.5z"/>
					</g>
					<g>
						<path d="M112.7,56.3C112.7,56.3,112.7,56.3,112.7,56.3L112.7,56.3c-0.1,0-0.3-0.2-0.5,0c0,0-0.1,0-0.1,0c0,0,0-0.1,0-0.1
							c0.3-0.2,0.5-0.1,0.6,0C112.8,56.2,112.8,56.2,112.7,56.3C112.7,56.3,112.7,56.3,112.7,56.3z"/>
					</g>
					<g>
						<path class="st30" d="M114,58.6c-1,0.2-1.4,0-1.4,0s-0.1,0.6,0.5,0.7C113.9,59.4,114,58.6,114,58.6z"/>
					</g>
					<g>
						<path class="st5" d="M112.6,58.6c0,0,0,0.1,0,0.1c0,0,0.1,0.1,0.5,0.1c0.3,0,0.7,0,0.8-0.1c0-0.1,0-0.2,0-0.2
							c-0.1,0-0.1,0-0.2,0C113.1,58.7,112.7,58.6,112.6,58.6C112.6,58.6,112.6,58.6,112.6,58.6z"/>
					</g>
					<g>
						
							<ellipse transform="matrix(7.662366e-02 -0.9971 0.9971 7.662366e-02 48.2411 166.4872)" class="st29" cx="114" cy="57.2" rx="0.2" ry="0.2"/>
					</g>
				</g>
			</g>
		</g>
	</g>
</g>
<g id="Illustration">
	<g>
	</g>
	<g>
	</g>
	<g>
	</g>
	<g>
	</g>
	<g>
	</g>
	<g>
	</g>
	<g>
	</g>
	<g>
	</g>
	<g>
	</g>
	<g>
	</g>
	<g>
	</g>
	<g>
	</g>
	<g>
	</g>
	<g>
	</g>
	<g>
	</g>
</g>
</svg>
