<?xml version="1.0" encoding="utf-8"?>
<!-- Generator: Adobe Illustrator 23.0.5, SVG Export Plug-In . SVG Version: 6.00 Build 0)  -->
<svg version="1.1" id="Layer_1" xmlns="http://www.w3.org/2000/svg" xmlns:xlink="http://www.w3.org/1999/xlink" x="0px" y="0px"
	 viewBox="0 0 1000 1000" style="enable-background:new 0 0 1000 1000;" xml:space="preserve">
<style type="text/css">
	.st0{fill:#E4EFFB;}
	.st1{fill:#3762CB;}
	.st2{fill:#DFEAFB;}
	.st3{fill:#6BDCDC;}
	.st4{fill:#A3C8FE;}
	.st5{fill:#F8A6A6;}
	.st6{fill:#A4C8FE;}
	.st7{fill:#F8CECE;}
	.st8{fill:#4771C5;}
	.st9{fill:#FEE991;}
</style>
<circle class="st0" cx="502.5" cy="942.5" r="502.5"/>
<g>
	<path class="st1" d="M800.3,117.9c3.2-3.8,6.2-7.8,9.7-11.2c10.7-10.5,25-10.7,35.9-0.3c11.4,10.9,22.4,22.1,33.4,33.3
		c12.3,12.6,12.4,26.3,0,38.8c-25.1,25.3-50.3,50.6-75.7,75.6c-4.2,4.1-6.2,8.3-6.2,14.4c0.2,68.7,0.2,137.4,0,206.2
		c0,5.7,1.6,8.6,6.8,11.4c59.3,31.1,91.8,80.3,91.7,147.3c-0.1,67-32.9,116-92.2,147c-4.7,2.5-6.6,5-6.2,10.1
		c0.4,5.5,0.3,11-0.7,16.5c-2.9,15-15.3,26.2-30.5,27.3c-2.9,0.2-5.8,0.1-8.7,0.1c-176,0-352,0-528,0c-27.2,0-40-12.7-40-39.9
		c0-229.5,0-459,0-688.5c0-26.7,12.9-39.6,39.5-39.6c176.3,0,352.5,0,528.8,0c26.6,0,39.7,13,39.7,39.4c0,3.6,0,7.2,0,10.9
		C798.6,116.9,799.4,117.4,800.3,117.9z"/>
	<path class="st2" d="M700.7,215.6c-14.8,14.7-29.5,29.4-44.3,44.1c-5.5,3.6-11.7,4-18.1,4c-44.6,0-89.2,0-133.8,0
		c-3.4,0-6.8-0.1-10.2,0.2c-10.6,0.9-16.8,6.2-16.7,14.2c0.1,7.9,6.4,13,17.1,13.8c3.7,0.3,7.3,0.2,11,0.2
		c34.4,0,68.7-0.2,103.1,0.2c3.8,0,9.7-2,10.1,5.3c-24.7,24.7-49.4,49.4-74.1,74.1c-5.9,3.7-12.4,3.9-19,3.9
		c-77.9,0-155.7,0-233.6,0c-6,0-12.1-0.2-17.9,1.6c-7.2,2.2-11.2,7.1-11.1,13.5c0.1,6.3,4.1,11.2,11.4,13.3
		c5.6,1.7,11.4,1.5,17.2,1.5c72.9,0,145.8-0.1,218.6,0.1c4.9,0,10.7-1.9,14.2,3.8c-1.9,14.9-4.8,29.5-8,44.2
		c-3.4,4.5-8.3,3.8-13,3.8c-27,0.1-54,0.1-81,0.1c-44,0-88,0-132.1,0c-5.8,0-11.6-0.1-17.1,1.9c-6.7,2.4-10.4,7.2-10.2,13.3
		c0.3,6.6,4.1,10.6,10,12.7c6.3,2.3,12.9,2,19.4,2c112.4,0,224.8,0,337.2,0c4.5,0,8.9-0.2,13.3,0.4c2.8,0.4,6,0.7,5.6,4.9
		c-18.4,11.3-34,25.8-47.3,42.7c-5.7,4-12.3,3.9-18.9,3.9c-96.5,0-193,0-289.5,0c-5.5,0-11-0.2-16.5,1c-8.6,1.9-13.5,7.1-13.4,14.1
		c0.1,7,5,12,13.7,13.9c5.2,1.1,10.4,0.9,15.7,0.9c89.7,0,179.4,0,269.1,0c3.9,0,7.9-0.1,11.8,0.3c3.3,0.3,6.4,1,6.4,5.3
		c-4.7,13.8-8.1,27.9-9.9,42.4c-3.5,4.9-8.9,3.9-13.7,3.9c-50.6,0.1-101.2,0-151.8,0.1c-5,0-10-0.1-14.9,1c-8.6,2-13.7,7.2-13.6,14
		c0.1,6.8,5.2,11.9,13.8,13.9c4.9,1.1,9.9,1,14.9,1c50.3,0,100.7,0,151,0c5.2,0,10.6-0.8,14.7,3.7c3.4,19.9,9.6,38.9,18.7,56.9
		c-2.7,5.1-7.7,3.8-11.8,3.8c-32.5,0.2-65,0.1-97.5,0.1c-26,0-51.9,0-77.9,0c-5.8,0-11.6,0.1-17,2.6c-5.1,2.3-8.6,6.1-8.8,12
		c-0.2,6.3,3.4,10.3,8.8,12.8c6.2,2.8,12.8,2.6,19.3,2.6c64.8,0,129.5,0,194.3,0c6.6,0,13.1,0.5,19,3.8
		c24.6,23.2,53.1,38.9,86.7,44.9c24.9,4.4,49.6,3.4,73.9-3.8c6-1.8,7.6-0.7,7.5,5.6c-0.3,17.8-8.1,25.9-26.1,25.9
		c-177.1,0-354.1,0-531.2,0c-17.6,0-25.6-7.8-25.7-25.3c0-230.8,0-461.6,0-692.5c0-17.2,8-25.1,25-25.1c177.6,0,355.2,0,532.7,0
		c16.6,0,24.7,8,25,24.4c0.6,27.9,0.6,27.9-19.1,47.5c-14.8,14.8-29.7,29.7-44.5,44.5c-2.8,2.7-5.7,5.3-8.6,7.9
		c-4.3,0.1-3.9-3.2-4.5-6c-2-9.8-6.7-14-16.5-15c-1-0.1-2.1-0.2-3.1-0.2c-64-0.1-127.9-0.1-191.9,0c-2.9,0-5.8,0.3-8.6,1.1
		c-6.9,2-11.1,7.3-10.9,13.7c0.2,6.1,4.3,10.8,11.1,12.6c4.6,1.2,9.4,1,14.1,1c60.6,0,121.1,0,181.7,0c3.7,0,7.4-0.1,11,0.3
		C698.3,210.9,701.2,211.5,700.7,215.6z"/>
	<path class="st3" d="M883.8,632.9c0,83.5-67.7,151.1-151.2,151c-83.2,0-150.6-67.4-150.7-150.6c-0.1-83.5,67.4-151.5,150.7-151.5
		C816,481.7,883.9,549.6,883.8,632.9z"/>
	<path class="st3" d="M541,393.7c1.8-1.9,3.4-3.9,5.3-5.8c67.4-67.5,134.9-134.9,202.4-202.4c7.5-7.5,7.2-7.2,15.3-0.1
		c12.1,10.5,23.4,21.7,34,33.6c1.6,3.1,0.3,5.5-1.8,7.8c-1.9,2.1-4,4.2-6,6.2C731,292.1,671.8,351.3,612.7,410.6
		c-8.2,8.2-16.3,15.9-28,18.7c-2.3-0.3-4.7-0.3-7.1-0.5c-13.1-1-16.6-3.6-18.9-16.4c-1.4-7.5-4.1-12.9-12.4-13.8
		C543.3,398.4,541.9,396.3,541,393.7z"/>
	<path class="st4" d="M648.6,492.5c-3.9-2.4-8.2-1.6-12.3-1.6c-115.9,0-231.8,0-347.7,0c-3.4,0-6.8,0.1-10.2-0.1
		c-13.4-0.8-21-7.7-20.9-18.7c0.1-11,7.7-17.6,21.3-18.4c3.4-0.2,6.8-0.1,10.2-0.1c75.8-0.1,151.6-0.1,227.3-0.2
		c-0.2,2.1-0.5,4.1-0.6,6.2c-0.5,8,4.6,13.2,12.5,11.8c22.4-3.9,44.7-8.1,67-12.1c4.8-0.9,7.3-4.7,10.8-7.3
		c9.9-3.2,20.1-2.6,30.2-2.6c23,0,46-0.1,69.1,0.1c8.6,0.1,16.8,1.5,22.8,8.4c2.8,3.3,5.1,6.9,0.9,10.9
		C700.4,470.5,673.4,477.7,648.6,492.5z"/>
	<path class="st2" d="M729,468.8c-1.2-8.4-6.5-12.8-14.4-14.3c-4.1-0.7-8.3-0.9-12.4-1c-28.4-0.1-56.9,0-85.3-0.1
		c-3.6,0-7.4,0.6-10.7-1.5c14.3-14.2,28.5-28.5,42.8-42.7c6.5-3.1,13.2-4.2,20.4-4c9.7,0.3,19.4,0.1,29.1,0.1c2.4,0,4.7,0,7.1-0.1
		c12.6-0.8,19.6-6.2,19.4-15.1c-0.1-8.5-6.9-13.7-19.1-14.6c-4.2-0.3-8.4,0.1-12.6-0.5c-2.8-0.4-6.1-0.6-5.3-5
		c31.9-31.7,63.8-63.4,95.8-95.2c2.2,2.2,1.3,4.7,1.3,6.9c0.1,62.4,0,124.7,0.2,187.1c0,6.5-0.9,8.9-8.1,6.5
		C761.5,470.4,745.3,469.4,729,468.8z"/>
	<path class="st4" d="M579.6,574.6c-4-2.8-8.6-1.8-13-1.8c-93.4-0.1-186.8,0-280.2,0c-5.2,0-10.5,0.1-15.6-1.3
		c-8.2-2.3-13.3-8.9-13.3-17.4c0-8.4,5.1-15,13.3-17.3c5.1-1.4,10.4-1.3,15.6-1.3c100.5,0,200.9,0,301.4,0c4.5,0,8.9-0.1,13.4-0.2
		C592.6,547.6,585.4,560.7,579.6,574.6z"/>
	<path class="st4" d="M524.3,409.2c-79.4-0.1-158.8-0.1-238.3-0.2c-5,0-10,0.1-14.8-1.2c-8.6-2.3-13.9-9.1-13.8-17.8
		c0.2-8.4,5.3-14.8,13.6-17.1c5.1-1.4,10.4-1.2,15.6-1.2c86,0,171.9-0.1,257.9-0.1C532.5,381.2,525.5,393.7,524.3,409.2z"/>
	<path class="st4" d="M617.2,749.1c-72.6,0-145.2,0-217.8,0c-5.5,0-11,0.1-16.4-1.6c-7.4-2.3-12.8-9.5-12.8-17.1
		c0-7.5,5.3-14.8,12.8-17.1c5.3-1.7,10.8-1.6,16.4-1.6c63.2-0.1,126.3-0.1,189.5-0.2C597.1,724.9,606.3,737.6,617.2,749.1z"/>
	<path class="st4" d="M700.7,215.6c-3.4-2.1-7.1-1.4-10.7-1.4c-63.7,0-127.4,0-191.2,0c-3.4,0-6.8,0.1-10.2-0.2
		c-9.6-1-16.1-7.9-16.3-17.1c-0.2-9.8,5.8-17.2,15.5-18.7c3.3-0.5,6.8-0.3,10.2-0.3c62.9,0,125.9,0,188.8,0c20.5,0,25.4,4.8,26,25.2
		C709.5,208,705.2,211.9,700.7,215.6z"/>
	<path class="st4" d="M570.1,654.6c-56.8,0-113.7,0-170.5,0c-4.2,0-8.4-0.1-12.5-0.7c-10.1-1.6-16.7-8.7-16.8-17.7
		c-0.1-9.2,6.7-16.6,17.2-18.2c4.1-0.6,8.4-0.6,12.5-0.6c56.6-0.1,113.2-0.2,169.8-0.2C569.1,629.5,569.4,642.1,570.1,654.6z"/>
	<path class="st4" d="M618.8,297.5c-3.6-2.1-7.7-1.4-11.5-1.5c-38,0-76,0-114.1-0.1c-12.2,0-19.7-5.9-20.8-15.9
		c-1.3-11.4,6.4-20,18.8-20.2c14.9-0.3,29.9-0.1,44.8-0.1c40.1,0,80.2,0,120.3,0C643.8,272.3,631.3,284.9,618.8,297.5z"/>
	<path class="st3" d="M585.3,425.1c10-2.7,17-9.6,24.1-16.7c60.1-60.4,120.4-120.6,180.7-180.8c2.8-2.8,5.3-5.8,8-8.7
		c12.7,10.3,12.7,10.3,1.3,21.7C733.3,306.7,667.1,372.9,601,439c-2.4,2.4-5,4.6-7.5,6.9c-1.9-0.7-4.1-1.6-4.3-3.7
		C588.4,436.3,584.5,431.3,585.3,425.1z"/>
	<path class="st5" d="M828.1,111.6c4-0.2,7,1.6,9.7,4.3c11.1,11.1,22.3,22.2,33.3,33.4c6.2,6.4,6.2,12.9,0,19.4
		c-8.2,8.5-16.7,16.6-24.9,25.1c-2.5,2.6-4.2,2.9-6.9,0.1c-15.3-15.5-30.7-30.9-46.2-46.2c-2.7-2.7-2.5-4.4,0.1-6.9
		c8.5-8.2,16.7-16.6,25.1-25C821.1,113.3,824.1,111.4,828.1,111.6z"/>
	<path class="st6" d="M687.9,370.1c2.6,1.7,5.5,1.5,8.4,1.5c4.4,0.1,8.9-0.1,13.3,0.2c12.6,1,20.4,8.2,20.3,18.6
		c-0.1,10.5-7.8,17.6-20.6,18.3c-9.7,0.5-19.4,0.2-29.1,0.2c-10.5,0.1-20.9,0.2-31.4,0.3C661.9,396.2,674.9,383.2,687.9,370.1z"/>
	<path class="st7" d="M585.3,425.1c5.5,2.4,6.8,7,7,12.4c0.1,2.8,0.8,5.5,1.2,8.3c-9.1,3.9-19,3.7-28.4,6.3
		c-13.2,0-30.6-17.5-30.1-30.3c2-9.4,4-18.8,6-28.2c16-0.7,23.3,6.8,22.5,22.9c-0.2,4.3,2.9,6.6,7,7.2
		C575.4,424.3,580.3,424.7,585.3,425.1z"/>
	<path class="st2" d="M780.6,154.1c1.4,1.2,2.6,2.1,3.6,3.2c15.2,15.2,30.3,30.4,45.6,45.4c2.9,2.8,2.9,4.5,0.1,7.6
		c-10.3,10.9-10.1,11-20.7,0.5c-11.3-11.3-22.6-22.6-33.8-33.8c-9.1-9.1-9.1-9.1,0.4-18.4C777.2,157.1,778.8,155.8,780.6,154.1z"/>
	<path class="st8" d="M535,421.9c0.2,2-0.1,4.1,1.6,5.8c7.6,7.5,15.1,15.1,22.7,22.7c1.7,1.7,3.7,1.7,5.8,1.7
		c-10,1.7-20,3.4-30.1,5.1c-4.2,0.7-6-1.1-5.2-5.3C531.5,441.9,533.3,431.9,535,421.9z"/>
	<path class="st1" d="M370,234.2c17.6,10.8,29.3,26,33.6,46.3c2.4,11.4,1.8,23,1.3,34.5c-0.2,6.1-4.9,6.5-9.7,6.5
		c-30.1,0-60.3,0-90.4,0c-10,0-19.9-0.1-29.9,0c-6.3,0.1-9.1-2.6-8.9-9c0.5-12-1-24.1,2.4-35.9c5.3-18.5,16.7-32.3,32.9-42.5
		c-35.9-29.7-27.6-70.8-8.3-90.3c22.9-23.2,60.1-24.1,83.5-1.6C403,167.7,400.7,201.3,370,234.2z"/>
	<path class="st4" d="M318.1,636.2c0,5.8,0.1,11.5,0,17.3c-0.1,7-3.9,10.6-10.8,10.7c-11.5,0.1-23,0.1-34.6,0
		c-6.6-0.1-10.6-3.6-10.8-10.1c-0.4-12-0.4-24.1,0-36.1c0.2-6.9,4.5-10.3,11.4-10.3c11.3,0,22.5-0.1,33.8,0
		c7.4,0,11.1,3.9,11.1,11.3C318.1,624.7,318.1,630.4,318.1,636.2z"/>
	<path class="st4" d="M318.1,728c0,6,0.2,12-0.1,18c-0.2,5.9-3.6,9.3-9.5,9.4c-12.3,0.2-24.6,0.2-36.9,0c-6.4-0.1-9.7-4-9.9-10
		c-0.3-11.8-0.3-23.5,0-35.3c0.2-6.7,4.3-10.8,11-11c11.8-0.3,23.5-0.3,35.3,0c6.4,0.2,10,4,10,10.7C318.1,716,318.1,722,318.1,728
		C318.1,728,318.1,728,318.1,728z"/>
	<path class="st9" d="M732.4,749.5c-64.3-0.1-116.7-52.7-116.5-116.8c0.3-64.7,52.9-116.8,117.6-116.5
		c64.1,0.3,116.5,53.2,116.1,117.2C849.2,697.9,796.9,749.6,732.4,749.5z"/>
	<path class="st7" d="M335.5,138.4c25.7,0,46.7,20.7,46.8,46.3c0.2,25.9-21,46.9-47.1,46.8c-25.7-0.1-46.4-20.9-46.3-46.7
		C289.1,159.1,309.7,138.4,335.5,138.4z"/>
	<path class="st4" d="M335.4,308.5c-16.5,0-33-0.2-49.5,0.1c-5.5,0.1-7.1-1.7-7.2-7.2c-0.2-24.7,8.5-44.4,30.9-56.7
		c4.3-2.4,8.7-3.1,13.6-2c8.3,2,16.6,2,24.9,0c4.9-1.2,9.2-0.3,13.6,2c21.1,11.1,33.2,34.8,30.4,59.2c-0.5,4.8-3.2,4.6-6.5,4.6
		C368.9,308.5,352.1,308.5,335.4,308.5z"/>
	<path class="st5" d="M820.2,576.9c0.3,4.8-1.8,9-4.6,12.9c-28.8,40-57.4,80.2-86.5,120c-13.6,18.7-35.1,18.5-48.7-0.1
		c-12.4-16.9-24.4-34.1-36.5-51.3c-6.9-9.8-5.5-21,2.8-27.4c8.8-6.7,20.1-4.9,27.5,5.1c8.6,11.6,16.8,23.5,25.2,35.2
		c5.2,7.3,5.6,7.3,10.8,0c24.8-34.5,49.6-69,74.4-103.5c8.9-12.3,22.2-13.8,31.2-3.5C818.9,568,820.4,572.1,820.2,576.9z"/>
</g>
<g>
</g>
<g>
</g>
<g>
</g>
<g>
</g>
<g>
</g>
<g>
</g>
<g>
</g>
<g>
</g>
<g>
</g>
<g>
</g>
<g>
</g>
<g>
</g>
<g>
</g>
<g>
</g>
<g>
</g>
</svg>
