<?xml version="1.0" encoding="utf-8"?>
<!-- Generator: Adobe Illustrator 23.0.5, SVG Export Plug-In . SVG Version: 6.00 Build 0)  -->
<svg version="1.1" id="Layer_1" xmlns="http://www.w3.org/2000/svg" xmlns:xlink="http://www.w3.org/1999/xlink" x="0px" y="0px"
	 viewBox="0 0 275.6 366.6" style="enable-background:new 0 0 275.6 366.6;" xml:space="preserve">
<style type="text/css">
	.st0{opacity:0.95;fill:url(#SVGID_1_);}
	.st1{opacity:0.2;}
	.st2{opacity:0;fill:#AFB6E5;}
	.st3{opacity:4.761900e-02;fill:#ABB2E2;}
	.st4{opacity:9.523800e-02;fill:#A7ADDF;}
	.st5{opacity:0.1429;fill:#A3A9DC;}
	.st6{opacity:0.1905;fill:#9FA4D8;}
	.st7{opacity:0.2381;fill:#9BA0D5;}
	.st8{opacity:0.2857;fill:#979BD2;}
	.st9{opacity:0.3333;fill:#9397CF;}
	.st10{opacity:0.381;fill:#8F92CC;}
	.st11{opacity:0.4286;fill:#8B8EC9;}
	.st12{opacity:0.4762;fill:#8789C6;}
	.st13{opacity:0.5238;fill:#8385C2;}
	.st14{opacity:0.5714;fill:#7F80BF;}
	.st15{opacity:0.619;fill:#7B7CBC;}
	.st16{opacity:0.6667;fill:#7777B9;}
	.st17{opacity:0.7143;fill:#7373B6;}
	.st18{opacity:0.7619;fill:#6F6EB3;}
	.st19{opacity:0.8095;fill:#6B6AB0;}
	.st20{opacity:0.8571;fill:#6765AC;}
	.st21{opacity:0.9048;fill:#6361A9;}
	.st22{opacity:0.9524;fill:#5F5CA6;}
	.st23{fill:#5B58A3;}
	.st24{fill:#AFB6E5;}
	.st25{fill:url(#SVGID_2_);}
	.st26{fill:url(#SVGID_3_);}
	.st27{fill:url(#SVGID_4_);}
	.st28{fill:url(#SVGID_5_);}
	.st29{fill:url(#SVGID_6_);}
	.st30{fill:url(#SVGID_7_);}
	.st31{fill:url(#SVGID_8_);}
	.st32{fill:url(#SVGID_9_);}
	.st33{fill:url(#SVGID_10_);}
	.st34{fill:url(#SVGID_11_);}
	.st35{fill:url(#SVGID_12_);}
	.st36{fill:url(#SVGID_13_);}
	.st37{fill:url(#SVGID_14_);}
	.st38{fill:url(#SVGID_15_);}
	.st39{fill:url(#SVGID_16_);}
	.st40{fill:url(#SVGID_17_);}
	.st41{fill:url(#SVGID_18_);}
	.st42{fill:url(#SVGID_19_);}
	.st43{fill:url(#SVGID_20_);}
	.st44{fill:url(#SVGID_21_);}
	.st45{fill:url(#SVGID_22_);}
	.st46{fill:#FFFFFF;}
	.st47{fill:url(#SVGID_23_);}
	.st48{fill:url(#SVGID_24_);}
	.st49{fill:url(#SVGID_25_);}
	.st50{fill:url(#SVGID_26_);}
	.st51{opacity:0.3;}
	.st52{opacity:0.3074;fill:#9599D0;}
	.st53{opacity:0.3766;fill:#8F93CC;}
	.st54{opacity:0.4459;fill:#8A8CC7;}
	.st55{opacity:0.5152;fill:#8486C3;}
	.st56{opacity:0.5844;fill:#7E7FBE;}
	.st57{opacity:0.6537;fill:#7879BA;}
	.st58{opacity:0.7229;fill:#7272B5;}
	.st59{opacity:0.7922;fill:#6C6CB1;}
	.st60{opacity:0.8615;fill:#6765AC;}
	.st61{opacity:0.9307;fill:#615FA8;}
	.st62{opacity:0.9;fill:#FFFFFF;}
	.st63{opacity:0.9;fill:url(#SVGID_27_);}
	.st64{opacity:0.9;fill:url(#SVGID_28_);}
	.st65{fill:url(#SVGID_29_);}
	.st66{fill:url(#SVGID_30_);}
	.st67{fill:url(#SVGID_31_);}
	.st68{opacity:0.95;fill:url(#SVGID_32_);}
	.st69{fill:url(#SVGID_33_);}
	.st70{fill:url(#SVGID_34_);}
	.st71{fill:#CED3F4;}
	.st72{fill:url(#SVGID_35_);}
	.st73{fill:url(#SVGID_36_);}
	.st74{fill:url(#SVGID_37_);}
	.st75{fill:url(#SVGID_38_);}
	.st76{fill:url(#SVGID_39_);}
	.st77{fill:url(#SVGID_40_);}
	.st78{opacity:9.090900e-02;fill:#A7ADDF;}
	.st79{opacity:0.1818;fill:#A0A5D9;}
	.st80{opacity:0.2727;fill:#989CD3;}
	.st81{opacity:0.3636;fill:#9094CD;}
	.st82{opacity:0.4545;fill:#898BC7;}
	.st83{opacity:0.5455;fill:#8183C1;}
	.st84{opacity:0.6364;fill:#7A7ABB;}
	.st85{opacity:0.7273;fill:#7272B5;}
	.st86{opacity:0.8182;fill:#6A69AF;}
	.st87{opacity:0.9091;fill:#6361A9;}
	.st88{opacity:0.95;fill:url(#SVGID_41_);}
	.st89{fill:url(#SVGID_42_);}
	.st90{fill:url(#SVGID_43_);}
	.st91{opacity:0.95;fill:url(#SVGID_44_);}
	.st92{opacity:0.95;fill:url(#SVGID_45_);}
	.st93{fill:#DCDFF4;}
	.st94{opacity:0.4372;fill:#8A8DC8;}
	.st95{opacity:0.4935;fill:#8687C5;}
	.st96{opacity:0.5498;fill:#8182C1;}
	.st97{opacity:0.6061;fill:#7C7DBD;}
	.st98{opacity:0.6623;fill:#7778B9;}
	.st99{opacity:0.7186;fill:#7372B6;}
	.st100{opacity:0.7749;fill:#6E6DB2;}
	.st101{opacity:0.8312;fill:#6968AE;}
	.st102{opacity:0.8874;fill:#6463AA;}
	.st103{opacity:0.9437;fill:#605DA7;}
	.st104{fill:url(#SVGID_46_);}
	.st105{fill:url(#SVGID_47_);}
	.st106{fill:url(#SVGID_48_);}
	.st107{opacity:0.95;fill:#FFFFFF;}
	.st108{fill:url(#SVGID_49_);}
	.st109{fill:url(#SVGID_50_);}
</style>
<linearGradient id="SVGID_1_" gradientUnits="userSpaceOnUse" x1="192.0506" y1="147.8371" x2="237.0507" y2="276.837">
	<stop  offset="5.050510e-03" style="stop-color:#2BE9A3"/>
	<stop  offset="0.2899" style="stop-color:#07CDBF"/>
	<stop  offset="0.3434" style="stop-color:#00C7C5"/>
	<stop  offset="0.4359" style="stop-color:#09BECA"/>
	<stop  offset="0.5859" style="stop-color:#21A7D9"/>
	<stop  offset="0.7738" style="stop-color:#4881F1"/>
	<stop  offset="0.8173" style="stop-color:#5277F7"/>
</linearGradient>
<path class="st0" d="M246,279.5C246,279.5,246,279.5,246,279.5c-1,0-2-0.2-3.1-0.6c-0.3-0.1-0.4-0.4-0.3-0.6
	c0.1-0.3,0.4-0.4,0.6-0.3c1,0.3,1.9,0.5,2.8,0.5c0.3,0,0.5,0.2,0.5,0.5C246.5,279.2,246.2,279.5,246,279.5z M248.9,278.9
	c-0.2,0-0.4-0.1-0.5-0.3c-0.1-0.3,0-0.5,0.3-0.7c0.8-0.4,1.6-0.9,2.2-1.7c0.2-0.2,0.5-0.2,0.7-0.1c0.2,0.2,0.2,0.5,0.1,0.7
	c-0.7,0.9-1.6,1.5-2.5,1.9C249,278.9,249,278.9,248.9,278.9z M240.3,277.7c-0.1,0-0.2,0-0.2-0.1l-2.6-1.5c-0.2-0.1-0.3-0.4-0.2-0.7
	c0.1-0.2,0.4-0.3,0.7-0.2l2.6,1.5c0.2,0.1,0.3,0.4,0.2,0.7C240.7,277.6,240.5,277.7,240.3,277.7z M235.1,274.7c-0.1,0-0.2,0-0.2-0.1
	l-2.6-1.5c-0.2-0.1-0.3-0.4-0.2-0.7c0.1-0.2,0.4-0.3,0.7-0.2l2.6,1.5c0.2,0.1,0.3,0.4,0.2,0.7C235.5,274.6,235.3,274.7,235.1,274.7z
	 M252.6,274.5c-0.1,0-0.1,0-0.2,0c-0.3-0.1-0.4-0.4-0.3-0.6c0.3-0.8,0.5-1.8,0.5-2.8c0-0.3,0.3-0.5,0.5-0.5c0.3,0,0.5,0.3,0.5,0.5
	c-0.1,1.1-0.3,2.1-0.6,3.1C253,274.4,252.8,274.5,252.6,274.5z M229.9,271.7c-0.1,0-0.2,0-0.2-0.1l-2.6-1.5
	c-0.2-0.1-0.3-0.4-0.2-0.7c0.1-0.2,0.4-0.3,0.7-0.2l2.6,1.5c0.2,0.1,0.3,0.4,0.2,0.7C230.3,271.6,230.1,271.7,229.9,271.7z
	 M224.7,268.7c-0.1,0-0.2,0-0.2-0.1l-2.6-1.5c-0.2-0.1-0.3-0.4-0.2-0.7c0.1-0.2,0.4-0.3,0.7-0.2l2.6,1.5c0.2,0.1,0.3,0.4,0.2,0.7
	C225.1,268.6,224.9,268.7,224.7,268.7z M253.2,268.6c-0.3,0-0.5-0.2-0.5-0.5v-3c0-0.3,0.2-0.5,0.5-0.5c0.3,0,0.5,0.2,0.5,0.5v3
	C253.7,268.3,253.5,268.6,253.2,268.6z M219.6,265.7c-0.1,0-0.2,0-0.2-0.1l-2.6-1.5c-0.2-0.1-0.3-0.4-0.2-0.7
	c0.1-0.2,0.4-0.3,0.7-0.2l2.6,1.5c0.2,0.1,0.3,0.4,0.2,0.7C219.9,265.6,219.7,265.7,219.6,265.7z M214.4,262.7c-0.1,0-0.2,0-0.2-0.1
	l-2.6-1.5c-0.2-0.1-0.3-0.4-0.2-0.7c0.1-0.2,0.4-0.3,0.7-0.2l2.6,1.5c0.2,0.1,0.3,0.4,0.2,0.7C214.7,262.7,214.5,262.7,214.4,262.7z
	 M253.2,262.6c-0.3,0-0.5-0.2-0.5-0.5v-3c0-0.3,0.2-0.5,0.5-0.5c0.3,0,0.5,0.2,0.5,0.5v3C253.7,262.4,253.5,262.6,253.2,262.6z
	 M209.2,259.8c-0.1,0-0.2,0-0.2-0.1l-2.6-1.5c-0.2-0.1-0.3-0.4-0.2-0.7c0.1-0.2,0.4-0.3,0.7-0.2l2.6,1.5c0.2,0.1,0.3,0.4,0.2,0.7
	C209.5,259.7,209.4,259.8,209.2,259.8z M204,256.8c-0.1,0-0.2,0-0.2-0.1l-2.6-1.5c-0.2-0.1-0.3-0.4-0.2-0.7c0.1-0.2,0.4-0.3,0.7-0.2
	l2.6,1.5c0.2,0.1,0.3,0.4,0.2,0.7C204.3,256.7,204.2,256.8,204,256.8z M253.2,256.6c-0.3,0-0.5-0.2-0.5-0.5v-3
	c0-0.3,0.2-0.5,0.5-0.5c0.3,0,0.5,0.2,0.5,0.5v3C253.7,256.4,253.5,256.6,253.2,256.6z M198.8,253.8c-0.1,0-0.2,0-0.2-0.1l-2.6-1.5
	c-0.2-0.1-0.3-0.4-0.2-0.7c0.1-0.2,0.4-0.3,0.7-0.2l2.6,1.5c0.2,0.1,0.3,0.4,0.2,0.7C199.1,253.7,199,253.8,198.8,253.8z
	 M193.6,250.8c-0.1,0-0.2,0-0.2-0.1l-2.6-1.5c-0.2-0.1-0.3-0.4-0.2-0.7c0.1-0.2,0.4-0.3,0.7-0.2l2.6,1.5c0.2,0.1,0.3,0.4,0.2,0.7
	C194,250.7,193.8,250.8,193.6,250.8z M253.2,250.6c-0.3,0-0.5-0.2-0.5-0.5v-3c0-0.3,0.2-0.5,0.5-0.5c0.3,0,0.5,0.2,0.5,0.5v3
	C253.7,250.4,253.5,250.6,253.2,250.6z M188.4,247.8c-0.1,0-0.2,0-0.2-0.1l-2.6-1.5c-0.2-0.1-0.3-0.4-0.2-0.7
	c0.1-0.2,0.4-0.3,0.7-0.2l2.6,1.5c0.2,0.1,0.3,0.4,0.2,0.7C188.8,247.7,188.6,247.8,188.4,247.8z M183.2,244.8c-0.1,0-0.2,0-0.2-0.1
	l-1.7-1c-0.3-0.2-0.6-0.4-0.9-0.6c-0.2-0.2-0.3-0.5-0.1-0.7c0.2-0.2,0.5-0.3,0.7-0.1c0.3,0.2,0.6,0.4,0.9,0.5l1.7,1
	c0.2,0.1,0.3,0.4,0.2,0.7C183.6,244.7,183.4,244.8,183.2,244.8z M253.2,244.6c-0.3,0-0.5-0.2-0.5-0.5v-3c0-0.3,0.2-0.5,0.5-0.5
	c0.3,0,0.5,0.2,0.5,0.5v3C253.7,244.4,253.5,244.6,253.2,244.6z M178.3,241.5c-0.1,0-0.2,0-0.3-0.1c-0.7-0.7-1.5-1.4-2.2-2.1
	c-0.2-0.2-0.2-0.5,0-0.7c0.2-0.2,0.5-0.2,0.7,0c0.7,0.7,1.4,1.4,2.1,2.1c0.2,0.2,0.2,0.5,0,0.7C178.6,241.4,178.4,241.5,178.3,241.5
	z M253.2,238.6c-0.3,0-0.5-0.2-0.5-0.5v-3c0-0.3,0.2-0.5,0.5-0.5c0.3,0,0.5,0.2,0.5,0.5v3C253.7,238.4,253.5,238.6,253.2,238.6z
	 M174.3,237.1c-0.2,0-0.3-0.1-0.4-0.2c-0.6-0.8-1.2-1.7-1.7-2.5c-0.1-0.2-0.1-0.5,0.2-0.7s0.5-0.1,0.7,0.2c0.5,0.8,1.1,1.7,1.6,2.5
	c0.2,0.2,0.1,0.5-0.1,0.7C174.5,237,174.4,237.1,174.3,237.1z M253.2,232.6c-0.3,0-0.5-0.2-0.5-0.5v-3c0-0.3,0.2-0.5,0.5-0.5
	c0.3,0,0.5,0.2,0.5,0.5v3C253.7,232.4,253.5,232.6,253.2,232.6z M171.2,231.9c-0.2,0-0.4-0.1-0.5-0.3c-0.4-0.9-0.8-1.9-1.2-2.8
	c-0.1-0.3,0-0.5,0.3-0.6c0.3-0.1,0.5,0,0.6,0.3c0.3,0.9,0.7,1.8,1.1,2.7c0.1,0.3,0,0.5-0.2,0.7C171.4,231.9,171.3,231.9,171.2,231.9
	z M253.2,226.7c-0.3,0-0.5-0.2-0.5-0.5v-3c0-0.3,0.2-0.5,0.5-0.5c0.3,0,0.5,0.2,0.5,0.5v3C253.7,226.4,253.5,226.7,253.2,226.7z
	 M169.2,226.3c-0.2,0-0.4-0.2-0.5-0.4c-0.2-1-0.4-2-0.5-3c0-0.3,0.2-0.5,0.5-0.5c0.3,0,0.5,0.2,0.5,0.5c0.1,0.9,0.2,1.9,0.5,2.9
	c0.1,0.3-0.1,0.5-0.4,0.6C169.3,226.3,169.3,226.3,169.2,226.3z M253.2,220.7c-0.3,0-0.5-0.2-0.5-0.5v-3c0-0.3,0.2-0.5,0.5-0.5
	c0.3,0,0.5,0.2,0.5,0.5v3C253.7,220.4,253.5,220.7,253.2,220.7z M168.7,220.3c-0.3,0-0.5-0.2-0.5-0.5v-3c0-0.3,0.2-0.5,0.5-0.5
	c0.3,0,0.5,0.2,0.5,0.5v3C169.2,220.1,168.9,220.3,168.7,220.3z M253.2,214.7c-0.3,0-0.5-0.2-0.5-0.5v-3c0-0.3,0.2-0.5,0.5-0.5
	c0.3,0,0.5,0.2,0.5,0.5v3C253.7,214.5,253.5,214.7,253.2,214.7z M168.7,214.3c-0.3,0-0.5-0.2-0.5-0.5v-3c0-0.3,0.2-0.5,0.5-0.5
	c0.3,0,0.5,0.2,0.5,0.5v3C169.2,214.1,168.9,214.3,168.7,214.3z M253.2,208.7c-0.3,0-0.5-0.2-0.5-0.5v-3c0-0.3,0.2-0.5,0.5-0.5
	c0.3,0,0.5,0.2,0.5,0.5v3C253.7,208.5,253.5,208.7,253.2,208.7z M168.7,208.4c-0.3,0-0.5-0.2-0.5-0.5v-3c0-0.3,0.2-0.5,0.5-0.5
	c0.3,0,0.5,0.2,0.5,0.5v3C169.2,208.1,168.9,208.4,168.7,208.4z M253.2,202.7c-0.3,0-0.5-0.2-0.5-0.5v-3c0-0.3,0.2-0.5,0.5-0.5
	c0.3,0,0.5,0.2,0.5,0.5v3C253.7,202.5,253.5,202.7,253.2,202.7z M168.7,202.4c-0.3,0-0.5-0.2-0.5-0.5v-3c0-0.3,0.2-0.5,0.5-0.5
	c0.3,0,0.5,0.2,0.5,0.5v3C169.2,202.2,168.9,202.4,168.7,202.4z M253.2,196.7c-0.3,0-0.5-0.2-0.5-0.5v-3c0-0.3,0.2-0.5,0.5-0.5
	c0.3,0,0.5,0.2,0.5,0.5v3C253.7,196.5,253.5,196.7,253.2,196.7z M168.7,196.4c-0.3,0-0.5-0.2-0.5-0.5v-3c0-0.3,0.2-0.5,0.5-0.5
	c0.3,0,0.5,0.2,0.5,0.5v3C169.2,196.2,168.9,196.4,168.7,196.4z M253.2,190.7c-0.3,0-0.5-0.2-0.5-0.5v-3c0-0.3,0.2-0.5,0.5-0.5
	c0.3,0,0.5,0.2,0.5,0.5v3C253.7,190.5,253.5,190.7,253.2,190.7z M168.7,190.4c-0.3,0-0.5-0.2-0.5-0.5v-3c0-0.3,0.2-0.5,0.5-0.5
	c0.3,0,0.5,0.2,0.5,0.5v3C169.2,190.2,168.9,190.4,168.7,190.4z M253.2,184.7c-0.3,0-0.5-0.2-0.5-0.5V183c0-0.5,0-1.1-0.1-1.6
	c0-0.3,0.2-0.5,0.5-0.5c0.3,0,0.5,0.2,0.5,0.5c0.1,0.6,0.1,1.2,0.1,1.7v1.3C253.7,184.5,253.5,184.7,253.2,184.7z M168.7,184.4
	c-0.3,0-0.5-0.2-0.5-0.5v-3c0-0.3,0.2-0.5,0.5-0.5c0.3,0,0.5,0.2,0.5,0.5v3C169.2,184.2,168.9,184.4,168.7,184.4z M252.7,178.8
	c-0.2,0-0.4-0.2-0.5-0.4c-0.2-0.9-0.5-1.9-0.8-2.8c-0.1-0.3,0-0.5,0.3-0.6c0.3-0.1,0.5,0,0.6,0.3c0.3,1,0.6,2,0.9,2.9
	c0.1,0.3-0.1,0.5-0.4,0.6C252.8,178.8,252.7,178.8,252.7,178.8z M168.7,178.4c-0.3,0-0.5-0.2-0.5-0.5v-3c0-0.3,0.2-0.5,0.5-0.5
	c0.3,0,0.5,0.2,0.5,0.5v3C169.2,178.2,168.9,178.4,168.7,178.4z M250.7,173.2c-0.2,0-0.4-0.1-0.5-0.3c-0.4-0.9-0.9-1.8-1.4-2.6
	c-0.1-0.2-0.1-0.5,0.2-0.7c0.2-0.1,0.5-0.1,0.7,0.2c0.5,0.9,1,1.8,1.4,2.7c0.1,0.3,0,0.5-0.2,0.7
	C250.9,173.1,250.8,173.2,250.7,173.2z M168.7,172.4c-0.3,0-0.5-0.2-0.5-0.5v-3c0-0.3,0.2-0.5,0.5-0.5c0.3,0,0.5,0.2,0.5,0.5v3
	C169.2,172.2,168.9,172.4,168.7,172.4z M247.7,168c-0.2,0-0.3-0.1-0.4-0.2c-0.6-0.8-1.2-1.6-1.9-2.3c-0.2-0.2-0.2-0.5,0-0.7
	c0.2-0.2,0.5-0.2,0.7,0c0.7,0.7,1.3,1.5,1.9,2.4c0.2,0.2,0.1,0.5-0.1,0.7C247.9,168,247.8,168,247.7,168z M168.7,166.5
	c-0.3,0-0.5-0.2-0.5-0.5v-3c0-0.3,0.2-0.5,0.5-0.5c0.3,0,0.5,0.2,0.5,0.5v3C169.2,166.2,168.9,166.5,168.7,166.5z M243.6,163.6
	c-0.1,0-0.2,0-0.3-0.1c-0.8-0.7-1.5-1.3-2.3-1.8c-0.2-0.2-0.3-0.5-0.1-0.7c0.2-0.2,0.5-0.3,0.7-0.1c0.8,0.5,1.6,1.2,2.4,1.9
	c0.2,0.2,0.2,0.5,0,0.7C243.9,163.5,243.8,163.6,243.6,163.6z M168.7,160.5c-0.3,0-0.5-0.2-0.5-0.5v-3c0-0.3,0.2-0.5,0.5-0.5
	c0.3,0,0.5,0.2,0.5,0.5v3C169.2,160.2,168.9,160.5,168.7,160.5z M238.7,160.2c-0.1,0-0.2,0-0.2-0.1l-2.6-1.5
	c-0.2-0.1-0.3-0.4-0.2-0.7c0.1-0.2,0.4-0.3,0.7-0.2l2.6,1.5c0.2,0.1,0.3,0.4,0.2,0.7C239,160.2,238.9,160.2,238.7,160.2z
	 M233.5,157.3c-0.1,0-0.2,0-0.2-0.1l-2.6-1.5c-0.2-0.1-0.3-0.4-0.2-0.7c0.1-0.2,0.4-0.3,0.7-0.2l2.6,1.5c0.2,0.1,0.3,0.4,0.2,0.7
	C233.8,157.2,233.7,157.3,233.5,157.3z M168.7,154.5c-0.3,0-0.5-0.2-0.5-0.5v-3c0-0.3,0.2-0.5,0.5-0.5c0.3,0,0.5,0.2,0.5,0.5v3
	C169.2,154.3,168.9,154.5,168.7,154.5z M228.3,154.3c-0.1,0-0.2,0-0.2-0.1l-2.6-1.5c-0.2-0.1-0.3-0.4-0.2-0.7
	c0.1-0.2,0.4-0.3,0.7-0.2l2.6,1.5c0.2,0.1,0.3,0.4,0.2,0.7C228.7,154.2,228.5,154.3,228.3,154.3z M223.1,151.3c-0.1,0-0.2,0-0.2-0.1
	l-2.6-1.5c-0.2-0.1-0.3-0.4-0.2-0.7c0.1-0.2,0.4-0.3,0.7-0.2l2.6,1.5c0.2,0.1,0.3,0.4,0.2,0.7C223.5,151.2,223.3,151.3,223.1,151.3z
	 M168.7,148.5c-0.3,0-0.5-0.2-0.5-0.5v-3c0-0.3,0.2-0.5,0.5-0.5c0.3,0,0.5,0.2,0.5,0.5v3C169.2,148.3,168.9,148.5,168.7,148.5z
	 M217.9,148.3c-0.1,0-0.2,0-0.2-0.1l-2.6-1.5c-0.2-0.1-0.3-0.4-0.2-0.7c0.1-0.2,0.4-0.3,0.7-0.2l2.6,1.5c0.2,0.1,0.3,0.4,0.2,0.7
	C218.3,148.2,218.1,148.3,217.9,148.3z M212.8,145.3c-0.1,0-0.2,0-0.2-0.1l-2.6-1.5c-0.2-0.1-0.3-0.4-0.2-0.7
	c0.1-0.2,0.4-0.3,0.7-0.2l2.6,1.5c0.2,0.1,0.3,0.4,0.2,0.7C213.1,145.2,212.9,145.3,212.8,145.3z M168.7,142.5
	c-0.3,0-0.5-0.2-0.5-0.5v-3c0-0.3,0.2-0.5,0.5-0.5c0.3,0,0.5,0.2,0.5,0.5v3C169.2,142.3,168.9,142.5,168.7,142.5z M207.6,142.3
	c-0.1,0-0.2,0-0.2-0.1l-2.6-1.5c-0.2-0.1-0.3-0.4-0.2-0.7c0.1-0.2,0.4-0.3,0.7-0.2l2.6,1.5c0.2,0.1,0.3,0.4,0.2,0.7
	C207.9,142.2,207.7,142.3,207.6,142.3z M202.4,139.3c-0.1,0-0.2,0-0.3-0.1l-2.6-1.5c-0.2-0.1-0.3-0.4-0.2-0.7
	c0.1-0.2,0.4-0.3,0.7-0.2l2.6,1.5c0.2,0.1,0.3,0.4,0.2,0.7C202.7,139.2,202.5,139.3,202.4,139.3z M168.7,136.5
	c-0.3,0-0.5-0.2-0.5-0.5v-1.8c0-0.4,0-0.8,0-1.2c0-0.3,0.3-0.5,0.5-0.5c0.3,0,0.5,0.3,0.5,0.5c0,0.4,0,0.8,0,1.2v1.8
	C169.2,136.3,168.9,136.5,168.7,136.5z M197.2,136.3c-0.1,0-0.2,0-0.2-0.1l-2.6-1.5c-0.2-0.1-0.3-0.4-0.2-0.7
	c0.1-0.2,0.4-0.3,0.7-0.2l2.6,1.5c0.2,0.1,0.3,0.4,0.2,0.7C197.5,136.3,197.4,136.3,197.2,136.3z M192,133.4c-0.1,0-0.2,0-0.2-0.1
	l-2.6-1.5c-0.2-0.1-0.3-0.4-0.2-0.7c0.1-0.2,0.4-0.3,0.7-0.2l2.6,1.5c0.2,0.1,0.3,0.4,0.2,0.7C192.3,133.3,192.2,133.4,192,133.4z
	 M169.3,130.6c-0.1,0-0.1,0-0.2,0c-0.3-0.1-0.4-0.4-0.3-0.6c0.4-1.1,0.9-2,1.5-2.8c0.2-0.2,0.5-0.2,0.7-0.1c0.2,0.2,0.2,0.5,0.1,0.7
	c-0.6,0.7-1,1.5-1.3,2.5C169.7,130.5,169.5,130.6,169.3,130.6z M186.8,130.4c-0.1,0-0.2,0-0.2-0.1l-2.6-1.5
	c-0.2-0.1-0.3-0.4-0.2-0.7c0.1-0.2,0.4-0.3,0.7-0.2l2.6,1.5c0.2,0.1,0.3,0.4,0.2,0.7C187.1,130.3,187,130.4,186.8,130.4z
	 M181.6,127.4c-0.1,0-0.2,0-0.2-0.1l0,0c-0.9-0.5-1.8-0.9-2.6-1.2c-0.3-0.1-0.4-0.4-0.3-0.6c0.1-0.3,0.4-0.4,0.6-0.3
	c0.9,0.3,1.9,0.7,2.8,1.3c0.2,0.1,0.3,0.5,0.2,0.7C181.9,127.3,181.8,127.4,181.6,127.4z M173,126.1c-0.2,0-0.4-0.1-0.5-0.3
	c-0.1-0.3,0-0.5,0.3-0.7c0.9-0.4,1.9-0.6,3-0.6l0.2,0c0.3,0,0.5,0.2,0.5,0.5c0,0.3-0.2,0.5-0.5,0.5c0,0,0,0,0,0l-0.1,0
	c-0.9,0-1.8,0.2-2.6,0.5C173.1,126.1,173.1,126.1,173,126.1z"/>
<g class="st1">
	<path class="st2" d="M197.6,360.5c-3.6,0-7-0.8-9.6-2.3l-97.4-57.5c-3.5-2-5.5-5.2-5.5-8.7c0-3.9,2.4-7.5,6.6-9.9l59.2-38.9
		c3.3-1.9,7.4-3,11.6-3c3.6,0,7,0.8,9.6,2.3l53.8,30.2l53.8,30.2c3.5,2,5.5,5.2,5.5,8.7c0,3.9-2.4,7.5-6.6,9.9l-69.4,36
		C205.9,359.5,201.8,360.5,197.6,360.5z"/>
	<path class="st3" d="M148.2,245.3c2.6-1.5,6.1-2.6,9.3-2.9c0.7-0.1,1.4-0.1,2.2-0.1c3.6,0,6.9,0.7,9.5,2.1c0.1,0,6,3.3,6.1,3.3
		l47.2,26.5l7.1,4l46.2,25.9c2.9,1.7,5,4.4,5.5,7.3c0.1,0.4,0.1,0.8,0.1,1.2c0.1,3.8-2.2,7.4-6.4,9.8l-15.6,8.1
		c-0.2,0.1-30.2,15.5-30.4,15.4l-21.6,10.7c-3.1,1.8-7.3,2.7-11.3,2.7c-3.5,0-6.8-0.9-9.3-2.3l-56.7-33.4L92,301.3
		c-3.3-1.9-5.4-5.1-5.4-8.4c0-3.7,2.1-7.3,6.1-9.6l35.5-24.4C128,258.8,148,245.4,148.2,245.3z"/>
	<path class="st4" d="M145.5,247.5c2.5-1.4,6.1-2.6,9.2-2.9c0.7-0.1,1.4-0.1,2.1-0.2c3.5-0.1,6.8,0.6,9.4,2c0.2,0,5.9,3.2,6.1,3.2
		l46.8,26.3l7.1,4l45.8,25.7c2.8,1.6,5.1,4.4,5.5,7.1c0.1,0.4,0.1,0.8,0.2,1.2c0.3,3.7-2,7.3-6.2,9.8l-15.2,7.9
		c-0.4,0.2-29.2,14.9-29.6,14.7l-21,9.9c-3,1.7-7.2,2.4-11,2.4c-3.3,0-6.7-0.9-9-2.3l-55.2-32.5l-37.2-21.9
		c-3.2-1.8-5.4-4.9-5.4-8.1c0-3.5,1.7-7.1,5.5-9.3l32.9-23.7C126,260.6,145.1,247.7,145.5,247.5z"/>
	<path class="st5" d="M142.8,249.6c2.3-1.3,6.2-2.6,9.1-3c0.7-0.1,1.4-0.2,2.1-0.2c3.5-0.2,6.7,0.5,9.4,1.8c0.3,0,5.8,3,6,3.2
		l46.4,26.1l7,4l45.4,25.5c2.6,1.5,5.1,4.4,5.6,7c0.1,0.4,0.2,0.8,0.2,1.2c0.4,3.7-1.8,7.3-5.9,9.7l-14.8,7.6
		c-0.6,0.4-28.3,14.3-28.8,13.9l-20.5,9.1c-2.8,1.6-7,2.1-10.6,2.1c-3.1,0-6.5-1-8.8-2.3L131,323.8l-36.2-21.3
		c-3-1.7-5.3-4.8-5.3-7.8c0-3.3,1.4-6.8,5-8.9l30.2-23C124.1,262.4,142.2,250,142.8,249.6z"/>
	<path class="st6" d="M140.1,251.8c2.2-1.3,6.3-2.7,9-3c0.7-0.1,1.4-0.2,2.1-0.2c3.4-0.2,6.7,0.4,9.3,1.6c0.4,0,5.7,2.9,6,3.1
		l46,25.9l7,3.9l45,25.3c2.5,1.4,5.2,4.4,5.7,6.8c0.1,0.4,0.2,0.8,0.2,1.1c0.5,3.6-1.5,7.2-5.7,9.6l-14.4,7.4
		c-0.9,0.5-27.3,13.6-28.1,13.2l-19.9,8.3c-2.7,1.5-6.9,1.9-10.3,1.9c-3,0-6.4-1.1-8.5-2.3l-52.2-30.7l-35.1-20.7
		c-2.8-1.6-5.3-4.7-5.3-7.5c0-3.1,1-6.6,4.4-8.6l27.5-22.3C122.1,264.2,139.2,252.3,140.1,251.8z"/>
	<path class="st7" d="M137.4,254c2.1-1.2,6.3-2.7,8.9-3c0.7-0.1,1.4-0.2,2.1-0.3c3.4-0.3,6.6,0.3,9.2,1.4c0.5,0,5.6,2.8,6,3
		l45.6,25.7l6.9,3.9l44.6,25.1c2.3,1.4,5.2,4.4,5.7,6.6c0.1,0.4,0.2,0.7,0.3,1.1c0.6,3.5-1.3,7.1-5.5,9.5l-14,7.2
		c-1.1,0.6-26.4,13-27.3,12.5l-19.3,7.5c-2.5,1.5-6.8,1.6-10,1.6c-2.8,0-6.2-1.1-8.2-2.3l-50.7-29.8l-34.1-20
		c-2.7-1.5-5.2-4.5-5.2-7.2c0-3,0.7-6.4,3.9-8.2l24.8-21.6C120.2,266.1,136.3,254.6,137.4,254z"/>
	<path class="st8" d="M134.7,256.2c1.9-1.1,6.4-2.7,8.8-3.1c0.7-0.1,1.3-0.2,2-0.3c3.3-0.3,6.5,0.1,9.1,1.3c0.6,0,5.5,2.6,6,2.9
		l45.2,25.5l6.8,3.9l44.2,24.9c2.2,1.3,5.3,4.3,5.8,6.4c0.1,0.4,0.2,0.7,0.3,1.1c0.8,3.4-1.1,7-5.3,9.4l-13.5,7
		c-1.3,0.7-25.5,12.4-26.6,11.7l-18.7,6.7c-2.4,1.4-6.7,1.3-9.7,1.3c-2.6,0-6.1-1.2-8-2.3l-49.2-28.8L99,304.2
		c-2.5-1.4-5.1-4.4-5.1-6.9c0-2.8,0.3-6.2,3.3-7.9l22.2-20.9C118.2,267.9,133.4,256.9,134.7,256.2z"/>
	<path class="st9" d="M132,258.3c1.8-1,6.5-2.8,8.7-3.1c0.7-0.1,1.3-0.3,2-0.3c3.3-0.4,6.4,0,9.1,1.1c0.7,0,5.4,2.5,5.9,2.8
		l44.8,25.3l6.8,3.8l43.8,24.7c2,1.2,5.3,4.3,5.9,6.3c0.1,0.4,0.3,0.7,0.3,1c0.9,3.4-0.9,6.9-5.1,9.4l-13.1,6.7
		c-1.5,0.9-24.5,11.7-25.8,11l-18.1,5.8c-2.2,1.3-6.5,1.1-9.3,1.1c-2.4,0-5.9-1.3-7.7-2.3l-47.6-27.9l-32.1-18.8
		c-2.3-1.3-5.1-4.3-5.1-6.6c0-2.6,0-5.9,2.8-7.6l19.5-20.1C116.3,269.7,130.5,259.2,132,258.3z"/>
	<path class="st10" d="M129.3,260.5c1.7-1,6.5-2.8,8.6-3.1c0.7-0.1,1.3-0.3,2-0.4c3.2-0.4,6.3-0.1,9,0.9c0.8,0,5.3,2.4,5.9,2.7
		l44.4,25l6.7,3.8l43.4,24.5c1.9,1.1,5.4,4.3,5.9,6.1c0.1,0.3,0.3,0.7,0.4,1c1,3.3-0.7,6.9-4.8,9.3l-12.7,6.5
		c-1.7,1-23.6,11.1-25,10.2l-17.5,5c-2,1.2-6.4,0.8-9,0.8c-2.3,0-5.8-1.3-7.4-2.3l-46.1-27l-31.1-18.2c-2.2-1.2-5-4.1-5-6.3
		c0-2.4-0.4-5.7,2.2-7.2l16.8-19.4C114.4,271.6,127.5,261.5,129.3,260.5z"/>
	<path class="st11" d="M126.5,262.7c1.6-0.9,6.6-2.8,8.5-3.2c0.6-0.1,1.3-0.3,2-0.4c3.1-0.5,6.3-0.2,8.9,0.8
		c0.9,0.1,5.2,2.2,5.9,2.6l44,24.8l6.7,3.8l43,24.3c1.8,1,5.8,4.2,6,5.9c0.2,0.3,0.3,0.6,0.4,1c1.2,3.2-0.4,6.8-4.6,9.2l-12.3,6.3
		c-1.9,1.1-22.6,10.5-24.3,9.5l-16.9,4.2c-1.9,1.1-6.3,0.5-8.7,0.5c-2.1,0-5.6-1.4-7.1-2.3l-44.6-26.1L103.2,306c-2-1.2-5-4-5-6
		c0-2.2-0.7-5.5,1.7-6.9l14.2-18.7C112.4,273.4,124.6,263.8,126.5,262.7z"/>
	<path class="st12" d="M123.8,264.9c1.4-0.8,6.7-2.9,8.4-3.2c0.6-0.1,1.3-0.3,1.9-0.4c3.1-0.5,6.2-0.3,8.8,0.6
		c1,0.1,5.1,2.1,5.8,2.5l43.6,24.6l6.6,3.7l42.6,24c1.6,0.9,5.9,4.2,6.1,5.8c0.2,0.3,0.3,0.6,0.5,0.9c1.3,3.2-0.2,6.7-4.4,9.1
		l-11.9,6.1c-2.1,1.2-21.7,9.8-23.5,8.8l-16.3,3.4c-1.7,1-6.2,0.3-8.4,0.3c-1.9,0-5.5-1.5-6.9-2.3l-43.1-25.2l-29.1-17
		c-1.8-1.1-4.9-3.9-4.9-5.7c0-2-1.1-5.3,1.1-6.5l11.5-18C110.5,275.2,121.7,266.1,123.8,264.9z"/>
	<path class="st13" d="M121.1,267c1.3-0.7,6.7-2.9,8.3-3.2c0.6-0.1,1.3-0.3,1.9-0.5c3-0.6,6.1-0.4,8.8,0.4c1.1,0.1,5,2,5.8,2.4
		l43.2,24.4l6.5,3.7l42.2,23.8c1.5,0.8,5.9,4.1,6.1,5.6c0.2,0.3,0.4,0.6,0.5,0.9c1.5,3.1,0,6.6-4.2,9l-11.5,5.8
		c-2.4,1.4-20.7,9.2-22.8,8l-15.7,2.6c-1.6,0.9-6,0-8,0c-1.7,0-5.4-1.5-6.6-2.3l-41.6-24.3l-28-16.3c-1.7-1-4.8-3.7-4.8-5.4
		c0-1.9-1.4-5,0.6-6.2l8.8-17.3C108.5,277,118.8,268.4,121.1,267z"/>
	<path class="st14" d="M118.4,269.2c1.2-0.7,6.8-3,8.2-3.3c0.6-0.1,1.2-0.4,1.9-0.5c3-0.6,6-0.5,8.7,0.2c1.2,0.1,4.9,1.8,5.8,2.3
		l42.8,24.2l6.5,3.7l41.8,23.6c1.3,0.8,6,4.1,6.2,5.4c0.2,0.3,0.4,0.6,0.5,0.9c1.6,3,0.2,6.5-4,8.9l-11.1,5.6
		c-2.6,1.5-19.8,8.6-22,7.3l-15.1,1.8c-1.4,0.8-5.9-0.3-7.7-0.3c-1.6,0-5.2-1.6-6.3-2.3l-40.1-23.3l-27-15.7
		c-1.5-0.9-4.8-3.6-4.8-5.1c0-1.7-1.8-4.8,0-5.9l6.1-16.6C106.6,278.9,115.9,270.7,118.4,269.2z"/>
	<path class="st15" d="M115.7,271.4c1-0.6,6.9-3,8.1-3.3c0.6-0.1,1.2-0.4,1.8-0.5c2.9-0.7,6-0.6,8.6,0.1c1.3,0.1,4.8,1.7,5.8,2.2
		l42.3,24l6.4,3.6l41.4,23.4c1.2,0.7,6.1,4.1,6.3,5.2c0.2,0.3,0.4,0.6,0.6,0.8c1.7,2.9,0.4,6.5-3.7,8.9l-10.6,5.4
		c-2.8,1.6-18.9,7.9-21.3,6.5l-14.5,0.9c-1.3,0.7-5.8-0.6-7.4-0.6c-1.4,0-5.1-1.7-6.1-2.3l-38.6-22.4l-26-15.1
		c-1.3-0.8-4.7-3.5-4.7-4.8c0-1.5-2.1-4.6-0.5-5.5l3.5-15.9C104.6,280.7,112.9,273,115.7,271.4z"/>
	<path class="st16" d="M113,273.6c0.9-0.5,6.9-3.1,8-3.3c0.6-0.1,1.2-0.4,1.8-0.6c2.9-0.7,5.9-0.7,8.5-0.1c1.4,0.1,4.7,1.6,5.7,2.1
		l41.9,23.7l6.3,3.6l41,23.2c1,0.6,6.2,4.1,6.3,5.1c0.2,0.3,0.4,0.5,0.6,0.8c1.9,2.9,0.6,6.4-3.5,8.8l-10.2,5.2
		c-3,1.7-17.9,7.3-20.5,5.8l-14,0.1c-1.1,0.6-5.6-0.8-7-0.8c-1.2,0-4.9-1.7-5.8-2.3l-37.1-21.5l-25-14.5c-1.2-0.7-4.7-3.3-4.7-4.5
		c0-1.3-2.5-4.4-1.1-5.2l0.8-15.2C102.7,282.5,110,275.3,113,273.6z"/>
	<path class="st17" d="M110.3,275.7c0.8-0.4,7-3.2,7.9-3.4c0.6-0.1,1.2-0.4,1.8-0.6c2.8-0.7,5.8-0.8,8.5-0.3c1.5,0.1,4.6,1.4,5.7,2
		l41.5,23.5l6.3,3.6l40.6,23c0.9,0.5,6.3,4,6.4,4.9c0.2,0.3,0.5,0.5,0.6,0.8c2,2.8,0.9,6.3-3.3,8.7l-9.8,4.9
		c-3.2,1.9-17,6.7-19.7,5.1l-13.4-0.7c-0.9,0.5-5.5-1.1-6.7-1.1c-1,0-4.8-1.8-5.5-2.2l-35.6-20.6l-24-13.9c-1-0.6-4.6-3.2-4.6-4.2
		c0-1.1-2.8-4.2-1.6-4.8l-1.9-14.5C100.7,284.4,107.1,277.6,110.3,275.7z"/>
	<path class="st18" d="M107.6,277.9c0.6-0.4,7-3.2,7.8-3.4c0.6-0.1,1.2-0.5,1.8-0.6c2.7-0.8,5.7-0.9,8.4-0.5c1.6,0.1,4.5,1.3,5.7,2
		l41.1,23.3l6.2,3.5l40.2,22.8c0.7,0.4,6.4,4,6.5,4.7c0.3,0.2,0.5,0.5,0.7,0.7c2.2,2.7,1.1,6.2-3.1,8.6l-9.4,4.7c-3.4,2-16,6-19,4.3
		l-12.8-1.5c-0.8,0.5-5.4-1.4-6.4-1.4c-0.9,0-4.6-1.9-5.3-2.2L136,323.3l-23-13.3c-0.8-0.5-4.5-3.1-4.5-3.9c0-0.9-3.2-3.9-2.2-4.5
		l-4.5-13.7C98.8,286.2,104.2,279.9,107.6,277.9z"/>
	<path class="st19" d="M104.9,280.1c0.5-0.3,7.1-3.3,7.7-3.4c0.6-0.2,1.1-0.5,1.7-0.7c2.7-0.8,5.7-1,8.3-0.6
		c1.7,0.1,4.4,1.2,5.7,1.9l40.7,23.1l6.2,3.5l39.8,22.6c0.6,0.3,6.5,4,6.5,4.6c0.3,0.2,0.5,0.5,0.7,0.7c2.3,2.6,1.3,6.1-2.9,8.5
		l-9,4.5c-3.6,2.1-15.1,5.4-18.2,3.6l-12.2-2.3c-0.6,0.4-5.3-1.6-6.1-1.6c-0.7,0-4.5-2-5-2.2l-32.6-18.8l-21.9-12.6
		c-0.7-0.4-4.5-2.9-4.5-3.6c0-0.7-3.5-3.7-2.7-4.2l-7.2-13C96.8,288,101.2,282.2,104.9,280.1z"/>
	<path class="st20" d="M102.2,282.3c0.4-0.2,7.1-3.4,7.6-3.5c0.5-0.3,1.1-0.5,1.7-0.7c2.6-0.9,5.6-1.1,8.2-0.8
		c1.8,0.1,4.3,1,5.6,1.8l40.3,22.9l6.1,3.5l39.4,22.4c0.4,0.3,6.5,4,6.6,4.4c0.3,0.2,0.5,0.4,0.8,0.7c2.5,2.6,1.5,6-2.6,8.4
		l-8.6,4.3c-3.9,2.2-14.1,4.8-17.5,2.8l-11.6-3.1c-0.5,0.3-5.1-1.9-5.7-1.9c-0.5,0-4.3-2-4.7-2.2l-31-17.8l-20.9-12
		c-0.5-0.3-4.4-2.8-4.4-3.3c0-0.6-3.9-3.5-3.3-3.8l-9.9-12.3C94.9,289.8,98.3,284.5,102.2,282.3z"/>
	<path class="st21" d="M99.5,284.4c0.3-0.1,7.2-3.5,7.5-3.5c0.5-0.3,1.1-0.5,1.7-0.7c2.6-0.9,5.5-1.3,8.2-1c1.9,0.1,4.2,0.9,5.6,1.7
		l39.9,22.7l6,3.4l39,22.2c0.3,0.2,6.6,3.9,6.7,4.2c0.3,0.2,0.6,0.4,0.8,0.7c2.6,2.5,1.7,6-2.4,8.4l-8.2,4
		c-4.1,2.4-13.2,4.1-16.7,2.1l-11-4c-0.3,0.2-5-2.2-5.4-2.2c-0.3,0-4.2-2.1-4.4-2.2l-29.5-16.9l-19.9-11.4c-0.3-0.2-4.4-2.7-4.4-3
		c0-0.4-4.2-3.3-3.8-3.5l-12.6-11.6C92.9,291.7,95.4,286.8,99.5,284.4z"/>
	<path class="st22" d="M96.8,286.6c0.1-0.1,7.3-3.5,7.4-3.6c0.5-0.3,1.1-0.5,1.7-0.8c2.5-1,5.4-1.4,8.1-1.1c2,0.1,4.1,0.7,5.6,1.6
		l39.5,22.5l6,3.4l38.6,21.9c0.1,0.1,6.7,3.9,6.7,4c0.3,0.2,0.6,0.4,0.8,0.6c2.8,2.4,1.9,5.9-2.2,8.3l-7.8,3.8
		c-4.3,2.5-12.3,3.5-16,1.4l-10.4-4.8c-0.2,0.1-4.9-2.4-5.1-2.4c-0.2,0-4-2.2-4.2-2.2l-28-16l-18.9-10.8c-0.2-0.1-4.3-2.5-4.3-2.7
		c0-0.2-4.6-3-4.4-3.2l-15.2-10.9C91,293.5,92.5,289.1,96.8,286.6z"/>
	<path class="st23" d="M182.9,348.8l-45-25.6l-45-25.6c-3.9-2.3-3.4-6.2,1.1-8.8l7.3-3.6c4.5-2.6,11.3-2.9,15.2-0.6l45,25.6l45,25.6
		c3.9,2.3,3.4,6.2-1.1,8.8l-7.3,3.6C193.6,350.8,186.8,351,182.9,348.8z"/>
</g>
<g>
	<g>
		<path class="st24" d="M186.8,342.9L107.3,297c-9-5.2-16.2-19.1-16.2-31V54.2c0-6.1-5-7.4-2-9.6c0.1-0.1,12.1-5.5,12.3-5.5
			c3.3-1.2,6.7-1.8,11,0.6l79.5,45.9c9,5.2,16.2,19.1,16.2,31v211.8c0,6.4-2.1,10.9-5.3,13c-0.2,0.1-13.6,6.3-13.9,6.4
			C186,348.8,190.8,345.2,186.8,342.9z"/>
		<linearGradient id="SVGID_2_" gradientUnits="userSpaceOnUse" x1="100.4585" y1="39.9661" x2="199.295" y2="345.0701">
			<stop  offset="0" style="stop-color:#B0B7E6"/>
			<stop  offset="0.1919" style="stop-color:#B2B8E6"/>
			<stop  offset="0.2828" style="stop-color:#B3B9E6"/>
			<stop  offset="0.4091" style="stop-color:#AFB6E5"/>
			<stop  offset="0.9091" style="stop-color:#AFB6E5"/>
			<stop  offset="1" style="stop-color:#B0B7E6"/>
		</linearGradient>
		<path class="st25" d="M186.8,342.9L107.3,297c-9-5.2-16.2-19.1-16.2-31V54.2c0-6.1-5-7.4-2-9.6c0.1-0.1,11.9-5.4,12.1-5.5
			c3.3-1.2,6.7-1.8,11,0.6l79.5,45.9c9,5.2,16.2,19.1,16.2,31v211.8c0,6.4-2.1,10.9-5.3,13c-0.2,0.1-13.4,6.3-13.7,6.3
			C186,348.8,190.8,345.2,186.8,342.9z"/>
		<linearGradient id="SVGID_3_" gradientUnits="userSpaceOnUse" x1="100.3618" y1="40.0066" x2="199.1956" y2="345.1023">
			<stop  offset="0" style="stop-color:#B2B9E6"/>
			<stop  offset="0.1919" style="stop-color:#B4BBE7"/>
			<stop  offset="0.2828" style="stop-color:#B7BDE7"/>
			<stop  offset="0.4091" style="stop-color:#AFB6E5"/>
			<stop  offset="0.9091" style="stop-color:#AFB6E5"/>
			<stop  offset="1" style="stop-color:#B2B9E6"/>
		</linearGradient>
		<path class="st26" d="M186.8,342.9L107.3,297c-9-5.2-16.2-19.1-16.2-31V54.2c0-6.1-5-7.4-2-9.6c0.1-0.1,11.7-5.3,11.9-5.4
			c3.3-1.2,6.7-1.8,11,0.6l79.5,45.9c9,5.2,16.2,19.1,16.2,31v211.8c0,6.4-2.1,10.9-5.3,13c-0.2,0.1-13.3,6.2-13.5,6.3
			C186,348.8,190.8,345.2,186.8,342.9z"/>
		<linearGradient id="SVGID_4_" gradientUnits="userSpaceOnUse" x1="100.2651" y1="40.0471" x2="199.0962" y2="345.1345">
			<stop  offset="0" style="stop-color:#B3BAE7"/>
			<stop  offset="0.1919" style="stop-color:#B7BDE9"/>
			<stop  offset="0.2828" style="stop-color:#BAC0E9"/>
			<stop  offset="0.4091" style="stop-color:#AFB6E5"/>
			<stop  offset="0.9091" style="stop-color:#AFB6E5"/>
			<stop  offset="1" style="stop-color:#B3BAE7"/>
		</linearGradient>
		<path class="st27" d="M186.8,342.9L107.3,297c-9-5.2-16.2-19.1-16.2-31V54.2c0-6.1-5-7.4-2-9.6c0.1-0.1,11.5-5.3,11.7-5.3
			c3.3-1.2,6.7-1.8,11,0.6l79.5,45.9c9,5.2,16.2,19.1,16.2,31v211.8c0,6.4-2.1,10.9-5.3,13c-0.2,0.1-13.1,6.1-13.3,6.2
			C186,348.8,190.8,345.2,186.8,342.9z"/>
		<linearGradient id="SVGID_5_" gradientUnits="userSpaceOnUse" x1="100.1684" y1="40.0875" x2="198.9969" y2="345.1666">
			<stop  offset="0" style="stop-color:#B5BBE8"/>
			<stop  offset="0.1919" style="stop-color:#B9C0EA"/>
			<stop  offset="0.2828" style="stop-color:#BEC4EA"/>
			<stop  offset="0.4091" style="stop-color:#AFB6E5"/>
			<stop  offset="0.9091" style="stop-color:#AFB6E5"/>
			<stop  offset="1" style="stop-color:#B5BBE8"/>
		</linearGradient>
		<path class="st28" d="M186.8,342.9L107.3,297c-9-5.2-16.2-19.1-16.2-31V54.2c0-6.1-5-7.4-2-9.6c0.1-0.1,11.4-5.2,11.5-5.2
			c3.3-1.2,6.7-1.8,11,0.6l79.5,45.9c9,5.2,16.2,19.1,16.2,31v211.8c0,6.4-2.1,10.9-5.3,13c-0.2,0.1-12.9,6-13.1,6.1
			C186,348.8,190.8,345.2,186.8,342.9z"/>
		<linearGradient id="SVGID_6_" gradientUnits="userSpaceOnUse" x1="100.0718" y1="40.128" x2="198.8975" y2="345.1988">
			<stop  offset="0" style="stop-color:#B6BDE8"/>
			<stop  offset="0.1919" style="stop-color:#BCC2EB"/>
			<stop  offset="0.2828" style="stop-color:#C2C7EB"/>
			<stop  offset="0.4091" style="stop-color:#AFB6E5"/>
			<stop  offset="0.9091" style="stop-color:#AFB6E5"/>
			<stop  offset="1" style="stop-color:#B6BDE8"/>
		</linearGradient>
		<path class="st29" d="M186.8,342.9L107.3,297c-9-5.2-16.2-19.1-16.2-31V54.2c0-6.1-5-7.4-2-9.6c0.1-0.1,11.2-5.1,11.3-5.2
			c3.3-1.2,6.7-1.8,11,0.6L190.9,86c9,5.2,16.2,19.1,16.2,31v211.8c0,6.4-2.1,10.9-5.3,13c-0.2,0.1-12.7,6-12.9,6
			C186,348.8,190.8,345.2,186.8,342.9z"/>
		<linearGradient id="SVGID_7_" gradientUnits="userSpaceOnUse" x1="99.9751" y1="40.1684" x2="198.7982" y2="345.231">
			<stop  offset="0" style="stop-color:#B8BEE9"/>
			<stop  offset="0.1919" style="stop-color:#BEC5EC"/>
			<stop  offset="0.2828" style="stop-color:#C6CBEC"/>
			<stop  offset="0.3927" style="stop-color:#B2B9E6"/>
			<stop  offset="0.4091" style="stop-color:#AFB6E5"/>
			<stop  offset="0.9091" style="stop-color:#AFB6E5"/>
			<stop  offset="1" style="stop-color:#B8BEE9"/>
		</linearGradient>
		<path class="st30" d="M186.8,342.9L107.3,297c-9-5.2-16.2-19.1-16.2-31V54.2c0-6.1-5-7.4-2-9.6c0.1-0.1,11-5,11.1-5.1
			c3.3-1.2,6.7-1.8,11,0.6l79.5,45.9c9,5.2,16.2,19.1,16.2,31v211.8c0,6.4-2.1,10.9-5.3,13c-0.2,0.1-12.5,5.9-12.7,6
			C186,348.8,190.8,345.2,186.8,342.9z"/>
		<linearGradient id="SVGID_8_" gradientUnits="userSpaceOnUse" x1="99.8785" y1="40.2089" x2="198.6988" y2="345.2631">
			<stop  offset="0" style="stop-color:#B9BFEA"/>
			<stop  offset="0.1919" style="stop-color:#C1C7EE"/>
			<stop  offset="0.2828" style="stop-color:#CACEEE"/>
			<stop  offset="0.3784" style="stop-color:#B6BDE7"/>
			<stop  offset="0.4091" style="stop-color:#AFB6E5"/>
			<stop  offset="0.9091" style="stop-color:#AFB6E5"/>
			<stop  offset="1" style="stop-color:#B9BFEA"/>
		</linearGradient>
		<path class="st31" d="M186.8,342.9L107.3,297c-9-5.2-16.2-19.1-16.2-31V54.2c0-6.1-5-7.4-2-9.6c0.1-0.1,10.8-5,10.9-5
			c3.3-1.2,6.7-1.8,11,0.6l79.5,45.9c9,5.2,16.2,19.1,16.2,31v211.8c0,6.4-2.1,10.9-5.3,13c-0.2,0.1-12.3,5.8-12.5,5.9
			C186,348.8,190.8,345.2,186.8,342.9z"/>
		<linearGradient id="SVGID_9_" gradientUnits="userSpaceOnUse" x1="99.7818" y1="40.2494" x2="198.5994" y2="345.2953">
			<stop  offset="0" style="stop-color:#BAC1EA"/>
			<stop  offset="0.1919" style="stop-color:#C4C9EF"/>
			<stop  offset="0.2828" style="stop-color:#CDD2EF"/>
			<stop  offset="0.37" style="stop-color:#B9C0E8"/>
			<stop  offset="0.4091" style="stop-color:#AFB6E5"/>
			<stop  offset="0.9091" style="stop-color:#AFB6E5"/>
			<stop  offset="0.999" style="stop-color:#BAC1EA"/>
			<stop  offset="1" style="stop-color:#BAC1EA"/>
		</linearGradient>
		<path class="st32" d="M186.8,342.9L107.3,297c-9-5.2-16.2-19.1-16.2-31V54.2c0-6.1-5-7.4-2-9.6c0.1-0.1,10.6-4.9,10.7-4.9
			c3.3-1.2,6.7-1.8,11,0.6l79.5,45.9c9,5.2,16.2,19.1,16.2,31V329c0,6.4-2.1,10.9-5.3,13c-0.2,0.1-12.1,5.8-12.3,5.8
			C186,348.8,190.8,345.2,186.8,342.9z"/>
		<linearGradient id="SVGID_10_" gradientUnits="userSpaceOnUse" x1="99.6851" y1="40.2898" x2="198.5001" y2="345.3275">
			<stop  offset="0" style="stop-color:#BCC2EB"/>
			<stop  offset="0.1919" style="stop-color:#C6CCF0"/>
			<stop  offset="0.277" style="stop-color:#D0D4F0"/>
			<stop  offset="0.2828" style="stop-color:#D1D5F0"/>
			<stop  offset="0.361" style="stop-color:#BDC3EA"/>
			<stop  offset="0.4091" style="stop-color:#AFB6E5"/>
			<stop  offset="0.9091" style="stop-color:#AFB6E5"/>
			<stop  offset="0.9881" style="stop-color:#BAC0EA"/>
			<stop  offset="1" style="stop-color:#BCC2EB"/>
		</linearGradient>
		<path class="st33" d="M186.8,342.9L107.3,297c-9-5.2-16.2-19.1-16.2-31V54.2c0-6.1-5-7.4-2-9.6c0.1-0.1,10.4-4.8,10.5-4.9
			c3.3-1.2,6.7-1.8,11,0.6l79.5,45.9c9,5.2,16.2,19.1,16.2,31v211.8c0,6.4-2.1,10.9-5.3,13c-0.2,0.1-11.9,5.7-12.1,5.8
			C186,348.8,190.8,345.2,186.8,342.9z"/>
		<linearGradient id="SVGID_11_" gradientUnits="userSpaceOnUse" x1="99.5884" y1="40.3303" x2="198.4007" y2="345.3596">
			<stop  offset="0" style="stop-color:#BDC3EC"/>
			<stop  offset="0.1919" style="stop-color:#C9CEF1"/>
			<stop  offset="0.2716" style="stop-color:#D3D7F1"/>
			<stop  offset="0.2828" style="stop-color:#D5D9F1"/>
			<stop  offset="0.3538" style="stop-color:#C1C7EB"/>
			<stop  offset="0.4091" style="stop-color:#AFB6E5"/>
			<stop  offset="0.9091" style="stop-color:#AFB6E5"/>
			<stop  offset="0.9836" style="stop-color:#BAC0EA"/>
			<stop  offset="1" style="stop-color:#BDC3EC"/>
		</linearGradient>
		<path class="st34" d="M186.8,342.9L107.3,297c-9-5.2-16.2-19.1-16.2-31V54.2c0-6.1-5-7.4-2-9.6c0.1-0.1,10.2-4.7,10.3-4.8
			c3.3-1.2,6.7-1.8,11,0.6l79.5,45.9c9,5.2,16.2,19.1,16.2,31v211.8c0,6.4-2.1,10.9-5.3,13c-0.2,0.1-11.7,5.6-11.9,5.7
			C186,348.8,190.8,345.2,186.8,342.9z"/>
		<linearGradient id="SVGID_12_" gradientUnits="userSpaceOnUse" x1="99.4918" y1="40.3708" x2="198.3014" y2="345.3918">
			<stop  offset="0" style="stop-color:#BFC5EC"/>
			<stop  offset="0.1919" style="stop-color:#CBD1F3"/>
			<stop  offset="0.2627" style="stop-color:#D5D9F3"/>
			<stop  offset="0.2828" style="stop-color:#D9DCF3"/>
			<stop  offset="0.3478" style="stop-color:#C5CAEC"/>
			<stop  offset="0.4091" style="stop-color:#AFB6E5"/>
			<stop  offset="0.9091" style="stop-color:#AFB6E5"/>
			<stop  offset="0.9763" style="stop-color:#BAC0EA"/>
			<stop  offset="1" style="stop-color:#BFC5EC"/>
		</linearGradient>
		<path class="st35" d="M186.8,342.9L107.3,297c-9-5.2-16.2-19.1-16.2-31V54.2c0-6.1-5-7.4-2-9.6c0.1-0.1,10-4.7,10.1-4.7
			c3.3-1.2,6.7-1.8,11,0.6l79.5,45.9c9,5.2,16.2,19.1,16.2,31v211.8c0,6.4-2.1,10.9-5.3,13c-0.2,0.1-11.5,5.5-11.7,5.6
			C186,348.8,190.8,345.2,186.8,342.9z"/>
		<linearGradient id="SVGID_13_" gradientUnits="userSpaceOnUse" x1="99.3951" y1="40.4112" x2="198.202" y2="345.424">
			<stop  offset="0" style="stop-color:#C0C6ED"/>
			<stop  offset="0.1919" style="stop-color:#CED3F4"/>
			<stop  offset="0.2591" style="stop-color:#D8DCF4"/>
			<stop  offset="0.2828" style="stop-color:#DDE0F4"/>
			<stop  offset="0.3431" style="stop-color:#C9CEEE"/>
			<stop  offset="0.4091" style="stop-color:#AFB6E5"/>
			<stop  offset="0.9091" style="stop-color:#AFB6E5"/>
			<stop  offset="0.9732" style="stop-color:#BAC0EA"/>
			<stop  offset="1" style="stop-color:#C0C6ED"/>
		</linearGradient>
		<path class="st36" d="M186.8,342.9L107.3,297c-9-5.2-16.2-19.1-16.2-31V54.2c0-6.1-5-7.4-2-9.6c0.1-0.1,9.8-4.6,9.9-4.7
			c3.3-1.2,6.7-1.8,11,0.6l79.5,45.9c9,5.2,16.2,19.1,16.2,31v211.8c0,6.4-2.1,10.9-5.3,13c-0.2,0.1-11.3,5.5-11.5,5.5
			C186,348.8,190.8,345.2,186.8,342.9z"/>
		<linearGradient id="SVGID_14_" gradientUnits="userSpaceOnUse" x1="99.2985" y1="40.4517" x2="198.1027" y2="345.4561">
			<stop  offset="0" style="stop-color:#C2C7EE"/>
			<stop  offset="0.1919" style="stop-color:#D0D6F5"/>
			<stop  offset="0.253" style="stop-color:#DADEF5"/>
			<stop  offset="0.2828" style="stop-color:#E1E3F5"/>
			<stop  offset="0.3388" style="stop-color:#CDD1EF"/>
			<stop  offset="0.4091" style="stop-color:#AFB6E5"/>
			<stop  offset="0.9091" style="stop-color:#AFB6E5"/>
			<stop  offset="0.9679" style="stop-color:#BAC0EA"/>
			<stop  offset="1" style="stop-color:#C2C7EE"/>
		</linearGradient>
		<path class="st37" d="M186.8,342.9L107.3,297c-9-5.2-16.2-19.1-16.2-31V54.2c0-6.1-5-7.4-2-9.6c0.1-0.1,9.6-4.5,9.7-4.6
			c3.3-1.2,6.7-1.8,11,0.6l79.5,45.9c9,5.2,16.2,19.1,16.2,31v211.8c0,6.4-2.1,10.9-5.3,13c-0.2,0.1-11.1,5.4-11.3,5.5
			C186,348.8,190.8,345.2,186.8,342.9z"/>
		<linearGradient id="SVGID_15_" gradientUnits="userSpaceOnUse" x1="99.2018" y1="40.4922" x2="198.0033" y2="345.4883">
			<stop  offset="0" style="stop-color:#C3C9EE"/>
			<stop  offset="0.1919" style="stop-color:#D3D8F6"/>
			<stop  offset="0.253" style="stop-color:#DDE1F6"/>
			<stop  offset="0.2828" style="stop-color:#E4E7F6"/>
			<stop  offset="0.3361" style="stop-color:#D0D5F0"/>
			<stop  offset="0.4091" style="stop-color:#AFB6E5"/>
			<stop  offset="0.9091" style="stop-color:#AFB6E5"/>
			<stop  offset="0.9656" style="stop-color:#BAC0EA"/>
			<stop  offset="1" style="stop-color:#C3C9EE"/>
		</linearGradient>
		<path class="st38" d="M186.8,342.9L107.3,297c-9-5.2-16.2-19.1-16.2-31V54.2c0-6.1-5-7.4-2-9.6c0.1-0.1,9.4-4.5,9.5-4.5
			c3.3-1.2,6.7-1.8,11,0.6l79.5,45.9c9,5.2,16.2,19.1,16.2,31v211.8c0,6.4-2.1,10.9-5.3,13c-0.2,0.1-10.9,5.3-11.1,5.4
			C186,348.8,190.8,345.2,186.8,342.9z"/>
		<linearGradient id="SVGID_16_" gradientUnits="userSpaceOnUse" x1="99.1051" y1="40.5326" x2="197.9039" y2="345.5205">
			<stop  offset="0" style="stop-color:#C4CAEF"/>
			<stop  offset="0.1919" style="stop-color:#D6DAF8"/>
			<stop  offset="0.2504" style="stop-color:#E0E3F8"/>
			<stop  offset="0.2828" style="stop-color:#E8EAF8"/>
			<stop  offset="0.3328" style="stop-color:#D4D8F1"/>
			<stop  offset="0.4091" style="stop-color:#AFB6E5"/>
			<stop  offset="0.9091" style="stop-color:#AFB6E5"/>
			<stop  offset="0.9635" style="stop-color:#BAC0EA"/>
			<stop  offset="1" style="stop-color:#C4CAEF"/>
		</linearGradient>
		<path class="st39" d="M186.8,342.9L107.3,297c-9-5.2-16.2-19.1-16.2-31V54.2c0-6.1-5-7.4-2-9.6c0.1-0.1,9.2-4.4,9.3-4.4
			c3.3-1.2,6.7-1.8,11,0.6l79.5,45.9c9,5.2,16.2,19.1,16.2,31v211.8c0,6.4-2.1,10.9-5.3,13c-0.2,0.1-10.7,5.3-10.9,5.3
			C186,348.8,190.8,345.2,186.8,342.9z"/>
		<linearGradient id="SVGID_17_" gradientUnits="userSpaceOnUse" x1="99.0084" y1="40.5731" x2="197.8046" y2="345.5526">
			<stop  offset="0" style="stop-color:#C6CBF0"/>
			<stop  offset="0.1919" style="stop-color:#D8DDF9"/>
			<stop  offset="0.2458" style="stop-color:#E2E6F9"/>
			<stop  offset="0.2828" style="stop-color:#ECEEF9"/>
			<stop  offset="0.3299" style="stop-color:#D8DCF3"/>
			<stop  offset="0.4091" style="stop-color:#AFB6E5"/>
			<stop  offset="0.9091" style="stop-color:#AFB6E5"/>
			<stop  offset="0.9597" style="stop-color:#BAC0EA"/>
			<stop  offset="1" style="stop-color:#C6CBF0"/>
		</linearGradient>
		<path class="st40" d="M186.8,342.9L107.3,297c-9-5.2-16.2-19.1-16.2-31V54.2c0-6.1-5-7.4-2-9.6c0.1-0.1,9-4.3,9.1-4.4
			c3.3-1.2,6.7-1.8,11,0.6l79.5,45.9c9,5.2,16.2,19.1,16.2,31v211.8c0,6.4-2.1,10.9-5.3,13c-0.2,0.1-10.5,5.2-10.7,5.3
			C186,348.8,190.8,345.2,186.8,342.9z"/>
		<linearGradient id="SVGID_18_" gradientUnits="userSpaceOnUse" x1="98.9118" y1="40.6136" x2="197.7052" y2="345.5848">
			<stop  offset="0" style="stop-color:#C7CDF0"/>
			<stop  offset="0.1919" style="stop-color:#DBDFFA"/>
			<stop  offset="0.2439" style="stop-color:#E5E8FA"/>
			<stop  offset="0.2828" style="stop-color:#F0F1FA"/>
			<stop  offset="0.3274" style="stop-color:#DCDFF4"/>
			<stop  offset="0.4091" style="stop-color:#AFB6E5"/>
			<stop  offset="0.9091" style="stop-color:#AFB6E5"/>
			<stop  offset="0.9581" style="stop-color:#BAC0EA"/>
			<stop  offset="1" style="stop-color:#C7CDF0"/>
		</linearGradient>
		<path class="st41" d="M186.8,342.9L107.3,297c-9-5.2-16.2-19.1-16.2-31V54.2c0-6.1-5-7.4-2-9.6c0.1-0.1,8.8-4.2,8.9-4.3
			c3.3-1.2,6.7-1.8,11,0.6l79.5,45.9c9,5.2,16.2,19.1,16.2,31v211.8c0,6.4-2.1,10.9-5.3,13c-0.2,0.1-10.3,5.1-10.5,5.2
			C186,348.8,190.8,345.2,186.8,342.9z"/>
		<linearGradient id="SVGID_19_" gradientUnits="userSpaceOnUse" x1="98.8151" y1="40.654" x2="197.6059" y2="345.617">
			<stop  offset="0" style="stop-color:#C9CEF1"/>
			<stop  offset="0.1919" style="stop-color:#DDE2FB"/>
			<stop  offset="0.2404" style="stop-color:#E7EAFB"/>
			<stop  offset="0.2828" style="stop-color:#F4F5FB"/>
			<stop  offset="0.3252" style="stop-color:#E0E3F5"/>
			<stop  offset="0.4091" style="stop-color:#AFB6E5"/>
			<stop  offset="0.9091" style="stop-color:#AFB6E5"/>
			<stop  offset="0.9551" style="stop-color:#BAC0EA"/>
			<stop  offset="1" style="stop-color:#C9CEF1"/>
		</linearGradient>
		<path class="st42" d="M186.8,342.9L107.3,297c-9-5.2-16.2-19.1-16.2-31V54.2c0-6.1-5-7.4-2-9.6c0.1-0.1,8.6-4.2,8.7-4.2
			c3.3-1.2,6.7-1.8,11,0.6l79.5,45.9c9,5.2,16.2,19.1,16.2,31v211.8c0,6.4-2.1,10.9-5.3,13c-0.2,0.1-10.1,5-10.3,5.1
			C186,348.8,190.8,345.2,186.8,342.9z"/>
		<linearGradient id="SVGID_20_" gradientUnits="userSpaceOnUse" x1="98.7184" y1="40.6945" x2="197.5065" y2="345.6491">
			<stop  offset="0" style="stop-color:#CACFF2"/>
			<stop  offset="0.1919" style="stop-color:#E0E4FD"/>
			<stop  offset="0.2404" style="stop-color:#EAEDFD"/>
			<stop  offset="0.2828" style="stop-color:#F7F8FD"/>
			<stop  offset="0.3236" style="stop-color:#E3E6F6"/>
			<stop  offset="0.4066" style="stop-color:#B1B8E6"/>
			<stop  offset="0.4091" style="stop-color:#AFB6E5"/>
			<stop  offset="0.9091" style="stop-color:#AFB6E5"/>
			<stop  offset="0.9539" style="stop-color:#BAC0EA"/>
			<stop  offset="1" style="stop-color:#CACFF2"/>
		</linearGradient>
		<path class="st43" d="M186.8,342.9L107.3,297c-9-5.2-16.2-19.1-16.2-31V54.2c0-6.1-5-7.4-2-9.6c0.1-0.1,8.4-4.1,8.5-4.1
			c3.3-1.2,6.7-1.8,11,0.6L188.2,87c9,5.2,16.2,19.1,16.2,31v211.8c0,6.4-2.1,10.9-5.3,13c-0.2,0.1-9.9,5-10.1,5
			C186,348.8,190.8,345.2,186.8,342.9z"/>
		<linearGradient id="SVGID_21_" gradientUnits="userSpaceOnUse" x1="98.6218" y1="40.735" x2="197.4072" y2="345.6813">
			<stop  offset="0" style="stop-color:#CCD1F2"/>
			<stop  offset="0.1919" style="stop-color:#E2E7FE"/>
			<stop  offset="0.2374" style="stop-color:#ECEFFE"/>
			<stop  offset="0.2828" style="stop-color:#FBFCFE"/>
			<stop  offset="0.3217" style="stop-color:#E7EAF8"/>
			<stop  offset="0.4009" style="stop-color:#B5BBE7"/>
			<stop  offset="0.4091" style="stop-color:#AFB6E5"/>
			<stop  offset="0.9091" style="stop-color:#AFB6E5"/>
			<stop  offset="0.9514" style="stop-color:#BAC0EA"/>
			<stop  offset="1" style="stop-color:#CCD1F2"/>
		</linearGradient>
		<path class="st44" d="M186.8,342.9L107.3,297c-9-5.2-16.2-19.1-16.2-31V54.2c0-6.1-5-7.4-2-9.6c0.1-0.1,8.2-4,8.3-4.1
			c3.3-1.2,6.7-1.8,11,0.6L188,87.1c9,5.2,16.2,19.1,16.2,31v211.8c0,6.4-2.1,10.9-5.3,13c-0.2,0.1-9.7,4.9-9.9,5
			C186,348.8,190.8,345.2,186.8,342.9z"/>
		<linearGradient id="SVGID_22_" gradientUnits="userSpaceOnUse" x1="98.5251" y1="40.7754" x2="197.3078" y2="345.7135">
			<stop  offset="0" style="stop-color:#CDD2F3"/>
			<stop  offset="0.1919" style="stop-color:#E5E9FF"/>
			<stop  offset="0.2361" style="stop-color:#EFF2FF"/>
			<stop  offset="0.2828" style="stop-color:#FFFFFF"/>
			<stop  offset="0.3201" style="stop-color:#EBEDF9"/>
			<stop  offset="0.3957" style="stop-color:#B9BFE8"/>
			<stop  offset="0.4091" style="stop-color:#AFB6E5"/>
			<stop  offset="0.9091" style="stop-color:#AFB6E5"/>
			<stop  offset="0.9503" style="stop-color:#BAC0EA"/>
			<stop  offset="1" style="stop-color:#CDD2F3"/>
		</linearGradient>
		<path class="st45" d="M186.8,342.9L107.3,297c-9-5.2-16.2-19.1-16.2-31V54.2c0-6.1-5-7.4-2-9.6c0.1-0.1,8-3.9,8.2-4
			c3.3-1.2,6.7-1.8,11,0.6l79.5,45.9c9,5.2,16.2,19.1,16.2,31V330c0,6.4-2.1,10.9-5.3,13c-0.2,0.1-9.5,4.8-9.7,4.9
			C186,348.8,190.8,345.2,186.8,342.9z"/>
	</g>
	<path class="st46" d="M179.2,346.5l-79.5-45.9c-9-5.2-16.2-19.1-16.2-31V57.8c0-12,7.3-17.5,16.2-12.3l79.5,45.9
		c9,5.2,16.2,19.1,16.2,31v211.8C195.5,346.2,188.2,351.7,179.2,346.5z"/>
	<linearGradient id="SVGID_23_" gradientUnits="userSpaceOnUse" x1="-58.2575" y1="276.9361" x2="290.2969" y2="134.2968">
		<stop  offset="0" style="stop-color:#AFB6E5"/>
		<stop  offset="0.1449" style="stop-color:#B6BCE8"/>
		<stop  offset="0.3485" style="stop-color:#C8CDF1"/>
		<stop  offset="0.5808" style="stop-color:#E5E9FF"/>
		<stop  offset="0.8551" style="stop-color:#F5F6FF"/>
		<stop  offset="1" style="stop-color:#FFFFFF"/>
	</linearGradient>
	<path class="st47" d="M185.7,346.9c-1.8,0-3.7-0.6-5.6-1.7l-79.5-45.9c-8.5-4.9-15.4-18.2-15.4-29.6V57.8c0-7.7,3.2-12.6,8.2-12.6
		c1.8,0,3.7,0.6,5.6,1.7l79.5,45.9c8.5,4.9,15.4,18.2,15.4,29.6v211.8C193.9,341.9,190.7,346.9,185.7,346.9z"/>
	<path class="st24" d="M88.9,272.3v-211c0-8.8,5.3-12.8,11.9-9L178.2,97c6.6,3.8,11.9,14,11.9,22.8v211c0,8.8-5.3,12.8-11.9,9
		L100.8,295C94.2,291.2,88.9,281,88.9,272.3z"/>
	<linearGradient id="SVGID_24_" gradientUnits="userSpaceOnUse" x1="77.4209" y1="77.6645" x2="231.4658" y2="371.3994">
		<stop  offset="5.050510e-03" style="stop-color:#273B98"/>
		<stop  offset="0.2274" style="stop-color:#2F2BA2"/>
		<stop  offset="0.399" style="stop-color:#361CAC"/>
		<stop  offset="0.768" style="stop-color:#440B89"/>
		<stop  offset="1" style="stop-color:#4E0070"/>
	</linearGradient>
	<path class="st48" d="M101.7,54.6C95.5,51,90.4,53.9,90.4,61v213.3c0,7.1,5,15.8,11.2,19.4l75.6,43.7c6.2,3.6,11.2,0.7,11.2-6.4
		V117.7c0-7.1-5-15.8-11.2-19.4L101.7,54.6z"/>
	<linearGradient id="SVGID_25_" gradientUnits="userSpaceOnUse" x1="218.7838" y1="187.1426" x2="168.626" y2="160.2724">
		<stop  offset="0" style="stop-color:#AFB6E5"/>
		<stop  offset="0.1449" style="stop-color:#B6BCE8"/>
		<stop  offset="0.3485" style="stop-color:#C8CDF1"/>
		<stop  offset="0.5808" style="stop-color:#E5E9FF"/>
		<stop  offset="0.8551" style="stop-color:#F5F6FF"/>
		<stop  offset="1" style="stop-color:#FFFFFF"/>
	</linearGradient>
	<path class="st49" d="M201.6,192.1L201.6,192.1c-2.3,1.3-4.1-0.1-4.1-3.1v-17.2c0-3,1.8-6.6,4.1-7.9l0,0c2.3-1.3,4.1,0.1,4.1,3.1
		v17.2C205.7,187.2,203.9,190.7,201.6,192.1z"/>
</g>
<path class="st46" d="M168.6,105.6l10.5,6.1c0.4,0.2,0.7,0,0.7-0.4c0-0.5-0.3-1-0.7-1.2l-10.5-6.1c-0.4-0.2-0.7,0-0.7,0.4
	C167.9,104.8,168.2,105.3,168.6,105.6z M179.1,113.7l-10.5-6.1c-0.4-0.2-0.7,0-0.7,0.4c0,0.5,0.3,1,0.7,1.2l10.5,6.1
	c0.4,0.2,0.7,0,0.7-0.4C179.8,114.5,179.5,113.9,179.1,113.7z M179.1,117.4l-10.5-6.1c-0.4-0.2-0.7,0-0.7,0.4c0,0.5,0.3,1,0.7,1.2
	l10.5,6.1c0.4,0.2,0.7,0,0.7-0.4C179.8,118.2,179.5,117.7,179.1,117.4z"/>
<g>
	<path class="st46" d="M112.7,75.1c0,1.1-0.8,1.6-1.7,1c-1-0.6-1.7-1.9-1.7-3c0-1.1,0.8-1.6,1.7-1C111.9,72.7,112.7,74,112.7,75.1z"
		/>
	<path class="st46" d="M107.4,72.1c0,1.1-0.8,1.6-1.7,1c-1-0.6-1.7-1.9-1.7-3c0-1.1,0.8-1.6,1.7-1C106.7,69.6,107.4,71,107.4,72.1z"
		/>
	<path class="st46" d="M102.2,69c0,1.1-0.8,1.6-1.7,1c-1-0.6-1.7-1.9-1.7-3s0.8-1.6,1.7-1C101.4,66.5,102.2,67.9,102.2,69z"/>
</g>
<g>
	<linearGradient id="SVGID_26_" gradientUnits="userSpaceOnUse" x1="122.5495" y1="287.6658" x2="153.6367" y2="103.0264">
		<stop  offset="0" style="stop-color:#5277F7"/>
		<stop  offset="9.119592e-02" style="stop-color:#5B76F7"/>
		<stop  offset="0.2393" style="stop-color:#7374F6"/>
		<stop  offset="0.4247" style="stop-color:#9A70F4"/>
		<stop  offset="0.5606" style="stop-color:#BB6DF3"/>
		<stop  offset="1" style="stop-color:#F36DD4"/>
	</linearGradient>
	<path class="st50" d="M173.3,296.1L173.3,296.1c-1.9,0-3.9-0.6-6-1.8l-58.8-33.8c-7.3-4.2-13.2-14.4-13.2-22.7V104.2
		c0-5.9,3-9.6,7.6-9.6c1.9,0,3.9,0.6,6,1.8l58.8,33.8c7.3,4.2,13.2,14.4,13.2,22.7v133.5c0,2.9-0.7,5.3-2.1,7
		C177.4,295.2,175.5,296.1,173.3,296.1z M102.9,95.6c-4.1,0-6.6,3.3-6.6,8.6v133.5c0,8,5.7,17.8,12.7,21.8l58.8,33.8
		c1.9,1.1,3.9,1.7,5.5,1.7l0,0c1.9,0,3.6-0.8,4.7-2.2c1.2-1.5,1.9-3.7,1.9-6.4V153c0-8-5.7-17.8-12.7-21.8l-58.8-33.8
		C106.5,96.2,104.6,95.6,102.9,95.6z"/>
</g>
<g>
	<g class="st51">
		<path class="st7" d="M71.4,61.5c-7.9-4.6-14.3-0.9-14.3,8.1v153.6c0,9.1,6.4,20.1,14.3,24.6l73.8,42.4c7.9,4.6,17.5,0.4,17.5-8.6
			V128c0-9.1-9.6-19.6-17.5-24.1L71.4,61.5z"/>
		<path class="st52" d="M71.2,61.7c-7.9-4.6-14.3-0.9-14.3,8.1v153c0,9,6.4,20.1,14.3,24.6l73.5,42.2c7.9,4.6,17.1,0.5,17.1-8.6
			v-153c0-9-9.3-19.6-17.1-24.2L71.2,61.7z"/>
		<path class="st53" d="M71,62c-7.9-4.5-14.3-0.9-14.3,8.1v152.4c0,9,6.4,20,14.3,24.6l73.3,42.1c7.9,4.5,16.8,0.5,16.8-8.5V128.3
			c0-9-9-19.6-16.8-24.2L71,62z"/>
		<path class="st54" d="M70.8,62.3c-7.9-4.5-14.2-0.9-14.2,8.1v151.8c0,9,6.4,20,14.2,24.6l73.1,42c7.9,4.5,16.5,0.5,16.5-8.5V128.4
			c0-9-8.7-19.7-16.5-24.2L70.8,62.3z"/>
		<path class="st55" d="M70.7,62.5c-7.9-4.5-14.2-0.9-14.2,8.1v151.2c0,9,6.4,20,14.2,24.5l72.8,41.8c7.9,4.5,16.2,0.6,16.2-8.4
			V128.6c0-9-8.4-19.7-16.2-24.2L70.7,62.5z"/>
		<path class="st56" d="M70.5,62.8c-7.8-4.5-14.2-0.9-14.2,8.1v150.6c0,9,6.4,20,14.2,24.5l72.6,41.7c7.8,4.5,15.9,0.6,15.9-8.4
			V128.7c0-9-8.1-19.7-15.9-24.2L70.5,62.8z"/>
		<path class="st57" d="M70.3,63c-7.8-4.5-14.2-0.9-14.2,8.1v149.9c0,9,6.3,19.9,14.2,24.5l72.4,41.6c7.8,4.5,15.6,0.7,15.6-8.3
			V128.8c0-9-7.8-19.7-15.6-24.2L70.3,63z"/>
		<path class="st58" d="M70.1,63.3C62.3,58.8,56,62.4,56,71.4v149.3c0,9,6.3,19.9,14.2,24.4l72.1,41.4c7.8,4.5,15.3,0.7,15.3-8.3
			V129c0-9-7.5-19.7-15.3-24.3L70.1,63.3z"/>
		<path class="st59" d="M70,63.5c-7.8-4.5-14.1-0.9-14.1,8.1v148.7c0,9,6.3,19.9,14.1,24.4l71.9,41.3c7.8,4.5,15,0.8,15-8.2V129.1
			c0-9-7.2-19.8-15-24.3L70,63.5z"/>
		<path class="st60" d="M69.8,63.8c-7.8-4.5-14.1-0.9-14.1,8.1V220c0,9,6.3,19.9,14.1,24.4l71.7,41.2c7.8,4.5,14.7,0.8,14.7-8.1
			V129.2c0-9-6.9-19.8-14.7-24.3L69.8,63.8z"/>
		<path class="st61" d="M69.6,64c-7.8-4.5-14.1-0.9-14.1,8v147.5c0,8.9,6.3,19.8,14.1,24.3l71.4,41c7.8,4.5,14.4,0.9,14.4-8.1V129.4
			c0-8.9-6.6-19.8-14.4-24.3L69.6,64z"/>
		<path class="st23" d="M69.5,64.3c-7.8-4.5-14.1-0.9-14.1,8v146.9c0,8.9,6.3,19.8,14.1,24.3l71.2,40.9c7.8,4.5,14.1,0.9,14.1-8
			V129.5c0-8.9-6.3-19.8-14.1-24.3L69.5,64.3z"/>
	</g>
	<g>
		<path class="st62" d="M154.7,128.6c0-9-6.3-19.9-14.1-24.4L69.1,63.1c-7.8-4.5-14.1-0.9-14.1,8.1v109.5l99.8,57.4V128.6z"/>
		<linearGradient id="SVGID_27_" gradientUnits="userSpaceOnUse" x1="125.5182" y1="288.3712" x2="47.4868" y2="84.2889">
			<stop  offset="3.030300e-02" style="stop-color:#BB6DF3"/>
			<stop  offset="0.3763" style="stop-color:#976DF3"/>
			<stop  offset="0.5556" style="stop-color:#836DF3"/>
			<stop  offset="0.691" style="stop-color:#796FF4"/>
			<stop  offset="0.9246" style="stop-color:#5D75F6"/>
			<stop  offset="1" style="stop-color:#5277F7"/>
		</linearGradient>
		<path class="st63" d="M69.1,250.5l71.5,41.1c7.8,4.5,14.1,0.9,14.1-8.1v-45.5l-99.8-57.4v45.4C54.9,235.1,61.2,246,69.1,250.5z"/>
		<linearGradient id="SVGID_28_" gradientUnits="userSpaceOnUse" x1="148.5456" y1="290.0795" x2="59.8231" y2="182.1104">
			<stop  offset="3.030300e-02" style="stop-color:#BB6DF3"/>
			<stop  offset="0.601" style="stop-color:#5B41E0"/>
			<stop  offset="0.7138" style="stop-color:#594BE4"/>
			<stop  offset="0.9083" style="stop-color:#5567F0"/>
			<stop  offset="1" style="stop-color:#5277F7"/>
		</linearGradient>
		<path class="st64" d="M69.1,250.5l71.5,41.1c7.8,4.5,14.1,0.9,14.1-8.1v-45.5l-99.8-57.4v45.4C54.9,235.1,61.2,246,69.1,250.5z"/>
	</g>
	<radialGradient id="SVGID_29_" cx="104.815" cy="95.573" r="93.5009" gradientUnits="userSpaceOnUse">
		<stop  offset="0" style="stop-color:#711F56"/>
		<stop  offset="0.1614" style="stop-color:#6C1E52"/>
		<stop  offset="0.3626" style="stop-color:#5C1946"/>
		<stop  offset="0.5849" style="stop-color:#431233"/>
		<stop  offset="0.8208" style="stop-color:#200918"/>
		<stop  offset="1" style="stop-color:#000000"/>
	</radialGradient>
	<path class="st65" d="M140.6,104.2L69.1,63.1c-7.8-4.5-14.1-0.9-14.1,8.1v1.4c0-9,6.3-12.6,14.1-8.1l71.5,41.1
		c7.8,4.5,14.1,15.4,14.1,24.4v-1.4C154.7,119.6,148.4,108.7,140.6,104.2z"/>
	
		<radialGradient id="SVGID_30_" cx="-1041.1705" cy="176.977" r="21.0901" gradientTransform="matrix(0.6974 0 0 1.5969 830.6479 -32.2942)" gradientUnits="userSpaceOnUse">
		<stop  offset="0" style="stop-color:#836DF3"/>
		<stop  offset="0.1142" style="stop-color:#6655BD"/>
		<stop  offset="0.2347" style="stop-color:#4B3E8B"/>
		<stop  offset="0.3582" style="stop-color:#342B60"/>
		<stop  offset="0.4824" style="stop-color:#211C3E"/>
		<stop  offset="0.6078" style="stop-color:#130F23"/>
		<stop  offset="0.7347" style="stop-color:#08070F"/>
		<stop  offset="0.8641" style="stop-color:#020204"/>
		<stop  offset="1" style="stop-color:#000000"/>
	</radialGradient>
	<ellipse class="st66" cx="104.5" cy="250.3" rx="14.7" ry="33.7"/>
</g>
<g>
	<ellipse transform="matrix(0.8633 -0.5047 0.5047 0.8633 -80.59 38.4124)" class="st46" cx="30.6" cy="168" rx="11.4" ry="19.7"/>
	<linearGradient id="SVGID_31_" gradientUnits="userSpaceOnUse" x1="18.616" y1="122.5917" x2="41.616" y2="209.5917">
		<stop  offset="3.030300e-02" style="stop-color:#BB6DF3"/>
		<stop  offset="0.3763" style="stop-color:#976DF3"/>
		<stop  offset="0.5556" style="stop-color:#836DF3"/>
		<stop  offset="0.691" style="stop-color:#796FF4"/>
		<stop  offset="0.9246" style="stop-color:#5D75F6"/>
		<stop  offset="1" style="stop-color:#5277F7"/>
	</linearGradient>
	<path class="st67" d="M36.9,186.4c-2,0-4.2-0.7-6.5-2c-7.8-4.5-14.2-15.5-14.2-24.5c0-6.3,3.2-10.4,8.2-10.4c2,0,4.2,0.7,6.5,2
		C38.7,156,45.1,167,45.1,176C45.1,182.3,41.9,186.4,36.9,186.4z M24.3,150.5c-4.4,0-7.2,3.6-7.2,9.4c0,8.7,6.2,19.3,13.7,23.7
		c2.1,1.2,4.2,1.9,6,1.9c4.4,0,7.2-3.6,7.2-9.4c0-8.7-6.2-19.3-13.7-23.7C28.2,151.1,26.2,150.5,24.3,150.5z"/>
</g>
<g>
	
		<ellipse transform="matrix(0.8633 -0.5047 0.5047 0.8633 -63.8795 153.9944)" class="st46" cx="252.3" cy="194.9" rx="11.4" ry="19.7"/>
	<linearGradient id="SVGID_32_" gradientUnits="userSpaceOnUse" x1="236.4253" y1="150.6828" x2="278.6755" y2="268.1831">
		<stop  offset="5.050510e-03" style="stop-color:#2BE9A3"/>
		<stop  offset="0.2899" style="stop-color:#07CDBF"/>
		<stop  offset="0.3434" style="stop-color:#00C7C5"/>
		<stop  offset="0.4359" style="stop-color:#09BECA"/>
		<stop  offset="0.5859" style="stop-color:#21A7D9"/>
		<stop  offset="0.7738" style="stop-color:#4881F1"/>
		<stop  offset="0.8173" style="stop-color:#5277F7"/>
	</linearGradient>
	<path class="st68" d="M258.6,213.4c-2,0-4.2-0.7-6.5-2c-7.8-4.5-14.2-15.5-14.2-24.5c0-6.3,3.2-10.4,8.2-10.4c2,0,4.2,0.7,6.5,2
		c7.8,4.5,14.2,15.5,14.2,24.5C266.8,209.3,263.6,213.4,258.6,213.4z M246.1,177.5c-4.4,0-7.2,3.6-7.2,9.4c0,8.7,6.2,19.3,13.7,23.7
		c2.1,1.2,4.2,1.9,6,1.9c4.4,0,7.2-3.6,7.2-9.4c0-8.7-6.2-19.3-13.7-23.7C250,178.1,247.9,177.5,246.1,177.5z"/>
</g>
<linearGradient id="SVGID_33_" gradientUnits="userSpaceOnUse" x1="244.8241" y1="199.6532" x2="261.1574" y2="190.9865">
	<stop  offset="7.575760e-02" style="stop-color:#B4F759"/>
	<stop  offset="0.1428" style="stop-color:#ADF65D"/>
	<stop  offset="0.2399" style="stop-color:#9AF467"/>
	<stop  offset="0.3551" style="stop-color:#7AF178"/>
	<stop  offset="0.4832" style="stop-color:#4FED90"/>
	<stop  offset="0.5758" style="stop-color:#2BE9A3"/>
	<stop  offset="0.6953" style="stop-color:#24E4A8"/>
	<stop  offset="0.8676" style="stop-color:#11D4B8"/>
	<stop  offset="0.9848" style="stop-color:#00C7C5"/>
</linearGradient>
<path class="st69" d="M260.5,196.5l-4.7-2.7v-5.4c0-0.5-0.3-1.1-0.8-1.3l-4.3-2.5c-0.4-0.2-0.8,0-0.8,0.4v5.4l-4.7-2.7
	c-0.4-0.2-0.8,0-0.8,0.4v4.9c0,0.5,0.3,1.1,0.8,1.3l4.7,2.7v5.4c0,0.5,0.3,1.1,0.8,1.3l4.3,2.5c0.4,0.2,0.8,0,0.8-0.4v-5.4l4.7,2.7
	c0.4,0.2,0.8,0,0.8-0.4v-4.9C261.2,197.3,260.9,196.7,260.5,196.5z"/>
<linearGradient id="SVGID_34_" gradientUnits="userSpaceOnUse" x1="25.7049" y1="159.0591" x2="35.7048" y2="180.059">
	<stop  offset="6.060610e-02" style="stop-color:#F36DD4"/>
	<stop  offset="0.1953" style="stop-color:#E96DDA"/>
	<stop  offset="0.4275" style="stop-color:#CD6DE9"/>
	<stop  offset="0.5505" style="stop-color:#BB6DF3"/>
	<stop  offset="1" style="stop-color:#836DF3"/>
</linearGradient>
<path class="st70" d="M38.4,171.7l-9.9-13.6c-0.9-1.2-2.1-1.2-2.1,0V174c0,1.2,1.2,2.7,2.1,2.5l9.9-2.3
	C39.1,174.1,39.1,172.8,38.4,171.7z"/>
<g>
	<path class="st71" d="M104.4,196.1c-22.3-12.9-40.5-44.2-40.5-69.8c0-25.6,18.2-36,40.5-23.1c22.3,12.9,40.5,44.2,40.5,69.8
		C144.9,198.6,126.7,209,104.4,196.1z M104.4,106c-21-12.1-38-2.4-38,21.7c0,24.1,17.1,53.5,38,65.6c21,12.1,38,2.4,38-21.7
		S125.4,118.1,104.4,106z"/>
	<path class="st71" d="M104.4,189.6c-19.2-11.1-34.9-38.1-34.9-60.2c0-22.1,15.6-31,34.9-19.9c19.2,11.1,34.9,38.1,34.9,60.2
		C139.3,191.8,123.6,200.7,104.4,189.6z M104.4,112.4c-17.9-10.3-32.4-2-32.4,18.5c0,20.5,14.5,45.6,32.4,55.9
		c17.9,10.3,32.4,2,32.4-18.5C136.8,147.8,122.3,122.7,104.4,112.4z"/>
	<path class="st71" d="M104.4,183.2c-16.1-9.3-29.3-32-29.3-50.5c0-18.5,13.1-26,29.3-16.7c16.1,9.3,29.3,32,29.3,50.5
		S120.5,192.5,104.4,183.2z M104.4,118.8c-14.8-8.5-26.8-1.7-26.8,15.3c0,17,12,37.7,26.8,46.3c14.8,8.5,26.8,1.7,26.8-15.3
		C131.2,148.1,119.2,127.4,104.4,118.8z"/>
	<linearGradient id="SVGID_35_" gradientUnits="userSpaceOnUse" x1="64.8679" y1="108.1225" x2="93.7954" y2="192.3048">
		<stop  offset="0" style="stop-color:#836DF3"/>
		<stop  offset="0.1447" style="stop-color:#8C6DF3"/>
		<stop  offset="0.3787" style="stop-color:#A46DF3"/>
		<stop  offset="0.5606" style="stop-color:#BB6DF3"/>
		<stop  offset="1" style="stop-color:#F36DD4"/>
	</linearGradient>
	<path class="st72" d="M104.4,196.1c-22.3-12.9-40.5-44.2-40.5-69.8c0-9.4,2.5-17.1,7.1-22.2c0.4-0.4,1.1-0.1,1.7,0.6
		c0.6,0.8,0.7,1.7,0.3,2.1c-4.4,4.8-6.7,12-6.7,20.8c0,24.1,17.1,53.5,38,65.6c0.7,0.4,1.2,1.3,1.2,2.1S105.1,196.5,104.4,196.1z"/>
	<linearGradient id="SVGID_36_" gradientUnits="userSpaceOnUse" x1="87.3906" y1="110.3548" x2="88.6907" y2="183.6487">
		<stop  offset="0" style="stop-color:#66CCFF"/>
		<stop  offset="0.4496" style="stop-color:#5EA8FC"/>
		<stop  offset="1" style="stop-color:#5277F7"/>
	</linearGradient>
	<path class="st73" d="M104.4,189.6c-19.2-11.1-34.9-38.1-34.9-60.2c0-22.1,15.6-31,34.9-19.9c0.7,0.4,1.2,1.3,1.2,2.1
		c0,0.8-0.5,1.1-1.2,0.7c-17.9-10.3-32.4-2-32.4,18.5c0,20.5,14.5,45.6,32.4,55.9c0.7,0.4,1.2,1.3,1.2,2.1
		C105.6,189.7,105.1,190,104.4,189.6z"/>
	<linearGradient id="SVGID_37_" gradientUnits="userSpaceOnUse" x1="117.7141" y1="133.552" x2="85.8613" y2="154.1913">
		<stop  offset="0" style="stop-color:#DFED72"/>
		<stop  offset="0.4444" style="stop-color:#B4F759"/>
		<stop  offset="0.5742" style="stop-color:#ADF65D"/>
		<stop  offset="0.7618" style="stop-color:#9AF467"/>
		<stop  offset="0.9836" style="stop-color:#7BF178"/>
		<stop  offset="1" style="stop-color:#78F179"/>
	</linearGradient>
	<path class="st74" d="M104.4,183.2c-16.1-9.3-29.3-32-29.3-50.5c0-18.5,13.1-26,29.3-16.7c8.8,5.1,17.1,14.4,22.7,25.5
		c0.4,0.9,0.3,1.7-0.2,1.9c-0.5,0.2-1.3-0.3-1.7-1.2c-5.1-10.2-12.7-18.7-20.8-23.4c-14.8-8.5-26.8-1.7-26.8,15.3
		c0,17,12,37.7,26.8,46.3c0.7,0.4,1.2,1.3,1.2,2.1S105.1,183.6,104.4,183.2z"/>
	<linearGradient id="SVGID_38_" gradientUnits="userSpaceOnUse" x1="110.8036" y1="157.1247" x2="107.2137" y2="171.6841">
		<stop  offset="0" style="stop-color:#FFE585"/>
		<stop  offset="0.2765" style="stop-color:#DBEE70"/>
		<stop  offset="0.5505" style="stop-color:#B4F759"/>
		<stop  offset="0.6555" style="stop-color:#ADF65D"/>
		<stop  offset="0.8073" style="stop-color:#9AF467"/>
		<stop  offset="0.9867" style="stop-color:#7BF178"/>
		<stop  offset="1" style="stop-color:#78F179"/>
	</linearGradient>
	<path class="st75" d="M106.7,183.2c0,1.3-0.9,1.8-2,1.2c-1.1-0.7-2-2.2-2-3.5c0-1.3,0.9-1.8,2-1.2
		C105.8,180.3,106.7,181.9,106.7,183.2z"/>
	<linearGradient id="SVGID_39_" gradientUnits="userSpaceOnUse" x1="108.2876" y1="173.1398" x2="104.7973" y2="187.8987">
		<stop  offset="0" style="stop-color:#66CCFF"/>
		<stop  offset="0.4496" style="stop-color:#5EA8FC"/>
		<stop  offset="1" style="stop-color:#5277F7"/>
	</linearGradient>
	<path class="st76" d="M106.7,189.6c0,1.3-0.9,1.8-2,1.2c-1.1-0.7-2-2.2-2-3.5c0-1.3,0.9-1.8,2-1.2
		C105.8,186.7,106.7,188.3,106.7,189.6z"/>
	<linearGradient id="SVGID_40_" gradientUnits="userSpaceOnUse" x1="107.7535" y1="174.1412" x2="105.3602" y2="190.2959">
		<stop  offset="0" style="stop-color:#836DF3"/>
		<stop  offset="0.1447" style="stop-color:#8C6DF3"/>
		<stop  offset="0.3787" style="stop-color:#A46DF3"/>
		<stop  offset="0.5606" style="stop-color:#BB6DF3"/>
		<stop  offset="1" style="stop-color:#F36DD4"/>
	</linearGradient>
	<path class="st77" d="M106.7,196.1c0,1.3-0.9,1.8-2,1.2c-1.1-0.7-2-2.2-2-3.5s0.9-1.8,2-1.2C105.8,193.2,106.7,194.8,106.7,196.1z"
		/>
</g>
<g>
	<g class="st51">
		<path class="st2" d="M149.4,137.6c-7.9-4.6-14.3-0.9-14.3,8.1v81.7c0,9.1,6.4,20.1,14.3,24.6l66.6,38.4c7.9,4.6,17.5,0.4,17.5-8.6
			v-81.7c0-9.1-9.6-19.6-17.5-24.1L149.4,137.6z"/>
		<path class="st78" d="M149.3,137.9c-7.9-4.6-14.3-0.9-14.3,8.1v81.1c0,9,6.4,20.1,14.3,24.6l66.4,38.2c7.9,4.6,17.1,0.5,17.1-8.6
			v-81.1c0-9-9.3-19.6-17.1-24.2L149.3,137.9z"/>
		<path class="st79" d="M149.1,138.2c-7.9-4.5-14.3-0.9-14.3,8.1v80.5c0,9,6.4,20,14.3,24.6l66.2,38.1c7.9,4.5,16.8,0.5,16.8-8.5
			v-80.5c0-9-9-19.6-16.8-24.2L149.1,138.2z"/>
		<path class="st80" d="M148.9,138.4c-7.9-4.5-14.2-0.9-14.2,8.1v79.9c0,9,6.4,20,14.2,24.6l65.9,38c7.9,4.5,16.5,0.5,16.5-8.5
			v-79.9c0-9-8.7-19.7-16.5-24.2L148.9,138.4z"/>
		<path class="st81" d="M148.7,138.7c-7.9-4.5-14.2-0.9-14.2,8.1v79.3c0,9,6.4,20,14.2,24.5l65.7,37.8c7.9,4.5,16.2,0.6,16.2-8.4
			v-79.3c0-9-8.4-19.7-16.2-24.2L148.7,138.7z"/>
		<path class="st82" d="M148.6,138.9c-7.8-4.5-14.2-0.9-14.2,8.1v78.7c0,9,6.4,20,14.2,24.5l65.5,37.7c7.8,4.5,15.9,0.6,15.9-8.4
			v-78.7c0-9-8.1-19.7-15.9-24.2L148.6,138.9z"/>
		<path class="st83" d="M148.4,139.2c-7.8-4.5-14.2-0.9-14.2,8.1v78.1c0,9,6.3,19.9,14.2,24.5l65.2,37.6c7.8,4.5,15.6,0.7,15.6-8.3
			V201c0-9-7.8-19.7-15.6-24.2L148.4,139.2z"/>
		<path class="st84" d="M148.2,139.4c-7.8-4.5-14.2-0.9-14.2,8.1V225c0,9,6.3,19.9,14.2,24.4l65,37.4c7.8,4.5,15.3,0.7,15.3-8.3
			v-77.5c0-9-7.5-19.7-15.3-24.3L148.2,139.4z"/>
		<path class="st85" d="M148.1,139.7c-7.8-4.5-14.1-0.9-14.1,8.1v76.9c0,9,6.3,19.9,14.1,24.4l64.8,37.3c7.8,4.5,15,0.8,15-8.2
			v-76.9c0-9-7.2-19.8-15-24.3L148.1,139.7z"/>
		<path class="st86" d="M147.9,140c-7.8-4.5-14.1-0.9-14.1,8.1v76.3c0,9,6.3,19.9,14.1,24.4l64.5,37.1c7.8,4.5,14.7,0.8,14.7-8.1
			v-76.3c0-9-6.9-19.8-14.7-24.3L147.9,140z"/>
		<path class="st87" d="M147.7,140.2c-7.8-4.5-14.1-0.9-14.1,8v75.7c0,8.9,6.3,19.8,14.1,24.3l64.3,37c7.8,4.5,14.4,0.9,14.4-8.1
			v-75.7c0-8.9-6.6-19.8-14.4-24.3L147.7,140.2z"/>
		<path class="st23" d="M147.5,140.5c-7.8-4.5-14.1-0.9-14.1,8v75.1c0,8.9,6.3,19.8,14.1,24.3l64.1,36.9c7.8,4.5,14.1,0.9,14.1-8
			v-75.1c0-8.9-6.3-19.8-14.1-24.3L147.5,140.5z"/>
	</g>
	<linearGradient id="SVGID_41_" gradientUnits="userSpaceOnUse" x1="132.9938" y1="178.5539" x2="225.6693" y2="178.5539">
		<stop  offset="5.050510e-03" style="stop-color:#2BE9A3"/>
		<stop  offset="0.2899" style="stop-color:#07CDBF"/>
		<stop  offset="0.3434" style="stop-color:#00C7C5"/>
		<stop  offset="0.4359" style="stop-color:#09BECA"/>
		<stop  offset="0.5859" style="stop-color:#21A7D9"/>
		<stop  offset="0.7738" style="stop-color:#4881F1"/>
		<stop  offset="0.8173" style="stop-color:#5277F7"/>
	</linearGradient>
	<path class="st88" d="M225.7,200.7c0-9-6.3-19.9-14.1-24.4l-64.4-37.1c-7.8-4.5-14.1-0.9-14.1,8.1v19.1l92.7,53.3V200.7z"/>
	<path class="st62" d="M147.1,254.8l64.4,37.1c7.8,4.5,14.1,0.9,14.1-8.1v-64L133,166.4v64C133,239.4,139.3,250.3,147.1,254.8z"/>
	<radialGradient id="SVGID_42_" cx="179.3314" cy="169.7247" r="87.2162" gradientUnits="userSpaceOnUse">
		<stop  offset="0" style="stop-color:#711F56"/>
		<stop  offset="0.1614" style="stop-color:#6C1E52"/>
		<stop  offset="0.3626" style="stop-color:#5C1946"/>
		<stop  offset="0.5849" style="stop-color:#431233"/>
		<stop  offset="0.8208" style="stop-color:#200918"/>
		<stop  offset="1" style="stop-color:#000000"/>
	</radialGradient>
	<path class="st89" d="M211.5,176.3l-64.4-37.1c-7.8-4.5-14.1-0.9-14.1,8.1v1.4c0-9,6.3-12.6,14.1-8.1l64.4,37.1
		c7.8,4.5,14.1,15.4,14.1,24.4v-1.4C225.7,191.8,219.3,180.9,211.5,176.3z"/>
	
		<radialGradient id="SVGID_43_" cx="250.4042" cy="92.423" r="15.7457" gradientTransform="matrix(1.0275 0 0 1.7001 -104.7368 4.1162)" gradientUnits="userSpaceOnUse">
		<stop  offset="0" style="stop-color:#00C7C5"/>
		<stop  offset="2.526999e-02" style="stop-color:#00BDBB"/>
		<stop  offset="0.1579" style="stop-color:#008B8A"/>
		<stop  offset="0.2937" style="stop-color:#00605F"/>
		<stop  offset="0.4304" style="stop-color:#003E3D"/>
		<stop  offset="0.5683" style="stop-color:#002322"/>
		<stop  offset="0.708" style="stop-color:#000F0F"/>
		<stop  offset="0.8505" style="stop-color:#000404"/>
		<stop  offset="1" style="stop-color:#000000"/>
	</radialGradient>
	<ellipse class="st90" cx="152.6" cy="161.2" rx="16.2" ry="26.8"/>
	<linearGradient id="SVGID_44_" gradientUnits="userSpaceOnUse" x1="168.9056" y1="203.0385" x2="143.6556" y2="153.0385">
		<stop  offset="5.050510e-03" style="stop-color:#2BE9A3"/>
		<stop  offset="0.2899" style="stop-color:#07CDBF"/>
		<stop  offset="0.3434" style="stop-color:#00C7C5"/>
		<stop  offset="0.4359" style="stop-color:#09BECA"/>
		<stop  offset="0.5859" style="stop-color:#21A7D9"/>
		<stop  offset="0.7738" style="stop-color:#4881F1"/>
		<stop  offset="0.8173" style="stop-color:#5277F7"/>
	</linearGradient>
	<path class="st91" d="M171.6,188.7c0,8.9-6.3,12.4-14,8c-7.7-4.5-14-15.2-14-24.1c0-8.9,6.3-12.4,14-8
		C165.3,169.1,171.6,179.9,171.6,188.7z"/>
	<linearGradient id="SVGID_45_" gradientUnits="userSpaceOnUse" x1="177.3786" y1="211.7793" x2="153.6286" y2="170.2792">
		<stop  offset="5.050510e-03" style="stop-color:#2BE9A3"/>
		<stop  offset="0.2899" style="stop-color:#07CDBF"/>
		<stop  offset="0.3434" style="stop-color:#00C7C5"/>
		<stop  offset="0.4359" style="stop-color:#09BECA"/>
		<stop  offset="0.5859" style="stop-color:#21A7D9"/>
		<stop  offset="0.7738" style="stop-color:#4881F1"/>
		<stop  offset="0.8173" style="stop-color:#5277F7"/>
	</linearGradient>
	<path class="st92" d="M157.6,164.6c7.7,4.5,14,15.2,14,24.1c0,8.9-6.3,12.4-14,8V164.6z"/>
	<g>
		<path class="st46" d="M163.9,193.7c-0.2,0-0.5-0.1-0.7-0.2l-11.7-6.8c-0.6-0.4-1.1-1.2-1.1-1.9v-2.5c0-1.8,1.3-2.9,2.9-2.4
			c0.7,0.2,1.3,0.2,1.8,0c0-0.1,0-0.4-0.2-0.7c-0.5-0.9-0.9-1.8-1.2-2.7c-0.4-0.4-1-1.3-1-2c0-0.7,0.3-1.1,0.6-1.3
			c0.2-2.5,1.4-3.1,2.4-3.1c0.7,0,1.4,0.2,2.3,0.8c2.5,1.5,3.9,3.8,4.1,6.9c0.4,0.5,0.6,1.1,0.6,1.8c0,0.7-0.5,1.2-1.2,1.3
			c-0.3,0.5-0.7,0.9-1.2,1.2c0,0,0,0.3,0.2,0.7c0.6,1,1.4,1.9,2.2,2.6c1.3,1.2,2.3,3.1,2.3,4.7v2.5c0,0.3-0.1,0.6-0.3,0.8
			C164.5,193.6,164.2,193.7,163.9,193.7z M152.5,181.1c-0.8,0-0.8,0.9-0.8,1.3v2.5c0,0.3,0.2,0.6,0.4,0.8l11.5,6.7l0-2.3
			c0-1.2-0.8-2.8-1.8-3.7c-0.9-0.8-1.8-1.8-2.5-3c-0.3-0.6-0.5-1.2-0.3-1.7c0.1-0.3,0.3-0.6,0.6-0.8c0.4-0.2,0.7-0.6,0.9-1l0.2-0.5
			l0.7,0.2c0-0.4-0.2-0.8-0.4-1l-0.2-0.2l0-0.3c-0.1-2.8-1.2-4.8-3.4-6.1c-0.8-0.5-1.4-0.6-1.6-0.6c-0.3,0-1,0-1.1,2.3l0,0.8
			l-0.5-0.1c0,0,0,0.1,0,0.1c0,0.3,0.3,0.9,0.7,1.2l0.1,0.1l0.1,0.2c0.3,0.8,0.6,1.7,1.1,2.6c0.3,0.6,0.5,1.2,0.3,1.8
			c-0.1,0.3-0.3,0.6-0.6,0.7c-0.8,0.4-1.8,0.5-2.8,0.1C152.8,181.1,152.7,181.1,152.5,181.1z"/>
	</g>
	<g>
		<polygon class="st93" points="215.1,253.6 143.3,212.1 143.3,195.1 215.1,236.6 		"/>
		<polygon class="st24" points="145.1,211.4 145.1,196.1 143.3,195.1 143.3,212.1 215.1,253.6 215.1,251.9 		"/>
	</g>
	<g>
		<polygon class="st93" points="215.1,276.7 143.3,235.1 143.3,218.1 215.1,259.7 		"/>
		<polygon class="st24" points="145.1,234.4 145.1,219.2 143.3,218.1 143.3,235.1 215.1,276.7 215.1,274.9 		"/>
	</g>
</g>
<path class="st71" d="M118.3,157.7c0-0.8-0.1-1.7-0.2-2.5l3.4-0.4c0.5-0.1,0.7-0.6,0.6-1.3c-0.3-1.3-0.7-2.6-1.2-3.9
	c-0.3-0.7-0.8-1.4-1.4-1.5l-3.9-1.2c-0.8-1.8-1.8-3.5-3-5.1l0.9-3.9c0.1-0.6-0.1-1.4-0.6-2c-0.9-1.1-1.8-2-2.8-3
	c-0.5-0.5-1.1-0.6-1.4-0.2l-2.1,2.7c-0.7-0.5-1.4-1-2.1-1.4c-0.7-0.4-1.4-0.7-2.1-1l-2.1-5.1c-0.3-0.7-0.9-1.3-1.4-1.5
	c-1-0.2-1.9-0.3-2.8-0.3c-0.5,0-0.8,0.5-0.6,1.2l0.9,5c-1.1,0.3-2.1,0.9-3,1.7l-3.9-3.3c-0.6-0.5-1.1-0.5-1.4-0.1
	c-0.5,0.8-0.9,1.6-1.2,2.6c-0.2,0.5,0.1,1.3,0.6,2l3.4,4.3c-0.1,0.7-0.2,1.5-0.2,2.3c0,0.8,0.1,1.7,0.2,2.5l-3.4,0.4
	c-0.5,0.1-0.7,0.6-0.6,1.3c0.3,1.3,0.7,2.6,1.2,3.9c0.3,0.7,0.8,1.4,1.4,1.5l3.9,1.2c0.8,1.8,1.8,3.5,3,5.1l-0.9,3.9
	c-0.1,0.6,0.1,1.4,0.6,2c0.9,1.1,1.8,2,2.8,3c0.5,0.5,1.1,0.6,1.4,0.2l2.1-2.7c0.7,0.5,1.4,1,2.1,1.4c0.7,0.4,1.4,0.7,2.1,1l2.1,5.1
	c0.3,0.7,0.9,1.3,1.4,1.5c1,0.2,1.9,0.3,2.8,0.3c0.5,0,0.8-0.5,0.6-1.2l-0.9-5c1.1-0.3,2.1-0.9,3-1.7l3.9,3.3
	c0.6,0.5,1.1,0.5,1.4,0.1c0.5-0.8,0.9-1.6,1.2-2.6c0.2-0.5-0.1-1.3-0.6-2l-3.4-4.3C118.2,159.3,118.3,158.6,118.3,157.7z
	 M104.5,156.1c-3.1-1.8-5.5-6-5.5-9.5c0-3.5,2.5-4.9,5.5-3.2c3.1,1.8,5.5,6,5.5,9.5S107.6,157.9,104.5,156.1z"/>
<g>
	<g class="st51">
		<path class="st10" d="M90.7,213.5c-5.3-3.1-9.7-0.6-9.7,5.5v14.1c0,6.1,4.3,13.6,9.7,16.7l35.2,20.5c5.3,3.1,11.8,0.3,11.8-5.8
			v-14.1c0-6.1-6.5-13.2-11.8-16.3L90.7,213.5z"/>
		<path class="st94" d="M90.4,214c-5.3-3.1-9.6-0.6-9.6,5.5v13.5c0,6.1,4.3,13.5,9.6,16.6l34.9,20.3c5.3,3.1,11.6,0.3,11.6-5.8
			v-13.5c0-6.1-6.2-13.2-11.6-16.3L90.4,214z"/>
		<path class="st95" d="M90.1,214.4c-5.3-3-9.6-0.6-9.6,5.5v12.8c0,6.1,4.3,13.4,9.6,16.5l34.5,20.1c5.3,3,11.3,0.3,11.3-5.7v-12.8
			c0-6.1-6-13.2-11.3-16.2L90.1,214.4z"/>
		<path class="st96" d="M89.8,214.8c-5.3-3-9.5-0.6-9.5,5.4v12.1c0,6,4.3,13.4,9.5,16.4l34.2,19.9c5.3,3,11.1,0.4,11.1-5.7v-12.1
			c0-6-5.8-13.1-11.1-16.2L89.8,214.8z"/>
		<path class="st97" d="M89.5,215.2c-5.2-3-9.5-0.6-9.5,5.4v11.4c0,6,4.2,13.3,9.5,16.3l33.9,19.8c5.2,3,10.8,0.4,10.8-5.6v-11.4
			c0-6-5.6-13.1-10.8-16.1L89.5,215.2z"/>
		<path class="st98" d="M89.2,215.7c-5.2-3-9.4-0.6-9.4,5.4v10.7c0,6,4.2,13.2,9.4,16.3l33.6,19.6c5.2,3,10.6,0.4,10.6-5.6v-10.7
			c0-6-5.4-13.1-10.6-16.1L89.2,215.7z"/>
		<path class="st99" d="M88.9,216.1c-5.2-3-9.4-0.6-9.4,5.3v10.1c0,5.9,4.2,13.2,9.4,16.2l33.3,19.4c5.2,3,10.3,0.4,10.3-5.5v-10.1
			c0-5.9-5.2-13-10.3-16L88.9,216.1z"/>
		<path class="st100" d="M88.6,216.5c-5.2-3-9.3-0.6-9.3,5.3v9.4c0,5.9,4.2,13.1,9.3,16.1l33,19.2c5.2,3,10.1,0.5,10.1-5.4v-9.4
			c0-5.9-5-13-10.1-16L88.6,216.5z"/>
		<path class="st101" d="M88.4,217c-5.1-3-9.3-0.6-9.3,5.3v8.7c0,5.9,4.2,13.1,9.3,16l32.6,19c5.1,3,9.9,0.5,9.9-5.4v-8.7
			c0-5.9-4.7-13-9.9-15.9L88.4,217z"/>
		<path class="st102" d="M88.1,217.4c-5.1-2.9-9.2-0.6-9.2,5.3v8c0,5.9,4.1,13,9.2,15.9l32.3,18.8c5.1,2.9,9.6,0.5,9.6-5.3v-8
			c0-5.9-4.5-12.9-9.6-15.9L88.1,217.4z"/>
		<path class="st103" d="M87.8,217.8c-5.1-2.9-9.2-0.6-9.2,5.2v7.3c0,5.8,4.1,12.9,9.2,15.8l32,18.7c5.1,2.9,9.4,0.6,9.4-5.3v-7.3
			c0-5.8-4.3-12.9-9.4-15.8L87.8,217.8z"/>
		<path class="st23" d="M87.5,218.3c-5-2.9-9.1-0.6-9.1,5.2v6.7c0,5.8,4.1,12.9,9.1,15.8l31.7,18.5c5,2.9,9.1,0.6,9.1-5.2v-6.7
			c0-5.8-4.1-12.9-9.1-15.8L87.5,218.3z"/>
	</g>
	<linearGradient id="SVGID_46_" gradientUnits="userSpaceOnUse" x1="69.7986" y1="212.0454" x2="127.4651" y2="263.0453">
		<stop  offset="0" style="stop-color:#FFFA84"/>
		<stop  offset="0.392" style="stop-color:#C8F864"/>
		<stop  offset="0.5253" style="stop-color:#B4F759"/>
		<stop  offset="0.8312" style="stop-color:#88F371"/>
		<stop  offset="1" style="stop-color:#6EF07F"/>
	</linearGradient>
	<path class="st104" d="M125.3,269.9l-40.5-23.6c-4.4-2.5-7.9-9.3-7.9-15.2v-8.6c0-5.8,3.6-8.5,7.9-6l40.5,23.6
		c4.4,2.5,7.9,9.3,7.9,15.2v8.6C133.2,269.7,129.7,272.4,125.3,269.9z"/>
	<radialGradient id="SVGID_47_" cx="102.2833" cy="232.6192" r="54.5476" gradientUnits="userSpaceOnUse">
		<stop  offset="0" style="stop-color:#711F56"/>
		<stop  offset="0.1614" style="stop-color:#6C1E52"/>
		<stop  offset="0.3626" style="stop-color:#5C1946"/>
		<stop  offset="0.5849" style="stop-color:#431233"/>
		<stop  offset="0.8208" style="stop-color:#200918"/>
		<stop  offset="1" style="stop-color:#000000"/>
	</radialGradient>
	<path class="st105" d="M125.3,240.1l-40.5-23.6c-4.4-2.5-7.9,0.2-7.9,6v0.9c0-5.8,3.6-8.5,7.9-6l40.5,23.6
		c4.4,2.5,7.9,9.3,7.9,15.2v-0.9C133.2,249.5,129.7,242.7,125.3,240.1z"/>
	<linearGradient id="SVGID_48_" gradientUnits="userSpaceOnUse" x1="98.7801" y1="234.554" x2="135.7197" y2="267.2231">
		<stop  offset="0" style="stop-color:#FFFA84"/>
		<stop  offset="0.392" style="stop-color:#C8F864"/>
		<stop  offset="0.5253" style="stop-color:#B4F759"/>
		<stop  offset="0.8312" style="stop-color:#88F371"/>
		<stop  offset="1" style="stop-color:#6EF07F"/>
	</linearGradient>
	<path class="st106" d="M125.3,240.1l-20.8-12.1v29.7l20.8,12.1c4.4,2.5,7.9-0.2,7.9-6v-8.6C133.2,249.5,129.7,242.7,125.3,240.1z"
		/>
</g>
<g>
	<g>
		<path class="st24" d="M119.4,155.1l2.1-0.3c0.4,0,0.6-0.4,0.6-0.8l-2.8,0.4C119.4,154.6,119.4,154.8,119.4,155.1z"/>
		<path class="st24" d="M107.8,134.5l1.6-2c-0.3,0-0.5,0-0.7,0.2l-1.2,1.6C107.6,134.3,107.7,134.4,107.8,134.5z"/>
		<path class="st24" d="M113.9,166.3l0.1,0.4c0.6-0.3,1.1-0.6,1.6-1.1C115,165.9,114.4,166.2,113.9,166.3z"/>
		<path class="st24" d="M96.3,131.9c0.4-0.2,0.8-0.4,1.3-0.5l-0.9-5c0-0.1,0-0.2,0-0.3c-0.2,0-0.4,0-0.6,0c-0.5,0-0.8,0.5-0.6,1.2
			L96.3,131.9z"/>
		<path class="st24" d="M100.1,165.8c-1-0.9-1.9-1.9-2.8-3c-0.5-0.6-0.8-1.4-0.6-2l0.9-3.9c-1.1-1.6-2.1-3.4-3-5.1l-3.9-1.2
			c-0.6-0.2-1.1-0.8-1.4-1.5c-0.5-1.3-0.9-2.6-1.2-3.9c0-0.2-0.1-0.3-0.1-0.5l-0.6,0.1c-0.5,0.1-0.7,0.6-0.6,1.3
			c0.3,1.3,0.7,2.6,1.2,3.9c0.3,0.7,0.8,1.4,1.4,1.5l3.9,1.2c0.8,1.8,1.8,3.5,3,5.1l-0.9,3.9c-0.1,0.6,0.1,1.4,0.6,2
			c0.9,1.1,1.8,2,2.8,3c0.5,0.5,1.1,0.6,1.4,0.2l0.5-0.7C100.6,166.1,100.4,166,100.1,165.8z"/>
		<path class="st24" d="M111.3,172.3c-0.5-0.1-1.1-0.7-1.4-1.5l-2.1-5.1c-0.7-0.3-1.4-0.6-2.1-1c-0.7-0.4-1.4-0.9-2.1-1.4l-0.9,1.1
			c0.6,0.4,1.2,0.8,1.8,1.2c0.7,0.4,1.4,0.7,2.1,1l2.1,5.1c0.3,0.7,0.9,1.3,1.4,1.5c1,0.2,1.9,0.3,2.8,0.3c0.4,0,0.6-0.4,0.6-0.9
			C112.9,172.5,112.1,172.4,111.3,172.3z"/>
		<path class="st24" d="M120.7,167.9l-3.9-3.3c-0.4,0.4-0.8,0.7-1.2,0.9l3.8,3.3c0.6,0.5,1.1,0.5,1.4,0.1c0.1-0.2,0.2-0.5,0.4-0.7
			C121.1,168.2,120.9,168.1,120.7,167.9z"/>
		<path class="st24" d="M90.9,139.5c-0.1,0.7-0.2,1.5-0.2,2.3c0,0.6,0,1.2,0.1,1.8l1.3-0.2c-0.1-0.9-0.2-1.7-0.2-2.5
			c0-0.8,0.1-1.6,0.2-2.3l-3.4-4.3c-0.5-0.6-0.7-1.4-0.6-2c0.2-0.7,0.5-1.3,0.8-1.9c-0.4-0.1-0.7-0.1-0.8,0.2
			c-0.5,0.8-0.9,1.6-1.2,2.6c-0.2,0.5,0.1,1.3,0.6,2L90.9,139.5z"/>
		<path class="st24" d="M94.8,133c-0.1,0-0.1,0.1-0.2,0.1l0,0C94.7,133.1,94.7,133.1,94.8,133z"/>
	</g>
</g>
<path class="st46" d="M175.4,275.6l-3.5,3.7c-0.3,0.3,0,1.2,0.6,1.6l7.1,4.1c0.6,0.3,0.9-0.2,0.6-0.9l-3.5-7.8
	C176.2,275.7,175.6,275.3,175.4,275.6z"/>
<path class="st107" d="M108.4,246.4c0,2.4-1.7,3.3-3.7,2.1c-2.1-1.2-3.7-4.1-3.7-6.4c0-2.4,1.7-3.3,3.7-2.1
	C106.7,241.1,108.4,244,108.4,246.4z"/>
<linearGradient id="SVGID_49_" gradientUnits="userSpaceOnUse" x1="28.7343" y1="165.5201" x2="40.9843" y2="181.77">
	<stop  offset="6.060610e-02" style="stop-color:#F36DD4"/>
	<stop  offset="0.1953" style="stop-color:#E96DDA"/>
	<stop  offset="0.4275" style="stop-color:#CD6DE9"/>
	<stop  offset="0.5505" style="stop-color:#BB6DF3"/>
	<stop  offset="1" style="stop-color:#836DF3"/>
</linearGradient>
<path class="st108" d="M38.4,171.7l-7.1-9.8v14l7.1-1.6C39.1,174.1,39.1,172.8,38.4,171.7z"/>
<linearGradient id="SVGID_50_" gradientUnits="userSpaceOnUse" x1="250.3134" y1="197.3235" x2="268.5634" y2="191.1985">
	<stop  offset="7.575760e-02" style="stop-color:#B4F759"/>
	<stop  offset="0.1428" style="stop-color:#ADF65D"/>
	<stop  offset="0.2399" style="stop-color:#9AF467"/>
	<stop  offset="0.3551" style="stop-color:#7AF178"/>
	<stop  offset="0.4832" style="stop-color:#4FED90"/>
	<stop  offset="0.5758" style="stop-color:#2BE9A3"/>
	<stop  offset="0.6953" style="stop-color:#24E4A8"/>
	<stop  offset="0.8676" style="stop-color:#11D4B8"/>
	<stop  offset="0.9848" style="stop-color:#00C7C5"/>
</linearGradient>
<path class="st109" d="M260.5,196.5l-4.7-2.7v-5.4c0-0.5-0.3-1.1-0.8-1.3l-2.2-1.3V205l2.2,1.3c0.4,0.2,0.8,0,0.8-0.4v-5.4l4.7,2.7
	c0.4,0.2,0.8,0,0.8-0.4v-4.9C261.2,197.3,260.9,196.7,260.5,196.5z"/>
<path class="st46" d="M170.7,321.3c-0.8,0-1.6-0.2-2.3-0.5c-0.3-0.1-0.4-0.4-0.3-0.7c0.1-0.3,0.4-0.4,0.7-0.3
	c0.8,0.4,1.8,0.5,2.6,0.3c0.3,0,0.5,0.1,0.6,0.4c0,0.3-0.1,0.5-0.4,0.6C171.3,321.3,171,321.3,170.7,321.3z M174.2,319.9
	c-0.1,0-0.3-0.1-0.4-0.2c-0.2-0.2-0.2-0.5,0-0.7c0.7-0.6,1.2-1.4,1.4-2.3c0.1-0.3,0.3-0.4,0.6-0.4c0.3,0.1,0.4,0.3,0.4,0.6
	c-0.3,1.1-0.9,2-1.7,2.8C174.4,319.9,174.3,319.9,174.2,319.9z M166,319.4c-0.1,0-0.2,0-0.2-0.1l-2.6-1.5c-0.2-0.1-0.3-0.4-0.2-0.7
	c0.1-0.2,0.4-0.3,0.7-0.2l2.6,1.5c0.2,0.1,0.3,0.4,0.2,0.7C166.3,319.3,166.1,319.4,166,319.4z M160.7,316.4c-0.1,0-0.2,0-0.2-0.1
	l-2.6-1.5c-0.2-0.1-0.3-0.4-0.2-0.7c0.1-0.2,0.4-0.3,0.7-0.2l2.6,1.5c0.2,0.1,0.3,0.4,0.2,0.7C161.1,316.3,160.9,316.4,160.7,316.4z
	 M175.9,314.4c-0.3,0-0.5-0.2-0.5-0.5v-3c0-0.3,0.2-0.5,0.5-0.5c0.3,0,0.5,0.2,0.5,0.5v3C176.4,314.2,176.2,314.4,175.9,314.4z
	 M155.5,313.4c-0.1,0-0.2,0-0.2-0.1l-2.6-1.5c-0.2-0.1-0.3-0.4-0.2-0.7c0.1-0.2,0.4-0.3,0.7-0.2l2.6,1.5c0.2,0.1,0.3,0.4,0.2,0.7
	C155.9,313.4,155.7,313.4,155.5,313.4z M150.3,310.5c-0.1,0-0.2,0-0.2-0.1l-2.6-1.5c-0.2-0.1-0.3-0.4-0.2-0.7
	c0.1-0.2,0.4-0.3,0.7-0.2l2.6,1.5c0.2,0.1,0.3,0.4,0.2,0.7C150.7,310.4,150.5,310.5,150.3,310.5z M175.9,308.4
	c-0.3,0-0.5-0.2-0.5-0.5v-3c0-0.3,0.2-0.5,0.5-0.5c0.3,0,0.5,0.2,0.5,0.5v3C176.4,308.2,176.2,308.4,175.9,308.4z M145.1,307.5
	c-0.1,0-0.2,0-0.2-0.1l-2.6-1.5c-0.2-0.1-0.3-0.4-0.2-0.7c0.1-0.2,0.4-0.3,0.7-0.2l2.6,1.5c0.2,0.1,0.3,0.4,0.2,0.7
	C145.4,307.4,145.3,307.5,145.1,307.5z M139.9,304.6c-0.1,0-0.2,0-0.2-0.1L137,303c-0.2-0.1-0.3-0.4-0.2-0.7
	c0.1-0.2,0.4-0.3,0.7-0.2l2.6,1.5c0.2,0.1,0.3,0.4,0.2,0.7C140.2,304.5,140.1,304.6,139.9,304.6z M175.9,302.4
	c-0.3,0-0.5-0.2-0.5-0.5v-3c0-0.3,0.2-0.5,0.5-0.5c0.3,0,0.5,0.2,0.5,0.5v3C176.4,302.2,176.2,302.4,175.9,302.4z M134.7,301.6
	c-0.1,0-0.2,0-0.2-0.1l-2.6-1.5c-0.2-0.1-0.3-0.4-0.2-0.7c0.1-0.2,0.4-0.3,0.7-0.2l2.6,1.5c0.2,0.1,0.3,0.4,0.2,0.7
	C135,301.5,134.8,301.6,134.7,301.6z M129.4,298.6c-0.1,0-0.2,0-0.2-0.1l-2.6-1.5c-0.2-0.1-0.3-0.4-0.2-0.7c0.1-0.2,0.4-0.3,0.7-0.2
	l2.6,1.5c0.2,0.1,0.3,0.4,0.2,0.7C129.8,298.5,129.6,298.6,129.4,298.6z M175.9,296.4c-0.3,0-0.5-0.2-0.5-0.5v-3
	c0-0.3,0.2-0.5,0.5-0.5c0.3,0,0.5,0.2,0.5,0.5v3C176.4,296.2,176.2,296.4,175.9,296.4z M124.2,295.7c-0.1,0-0.2,0-0.2-0.1l-2.6-1.5
	c-0.2-0.1-0.3-0.4-0.2-0.7c0.1-0.2,0.4-0.3,0.7-0.2l2.6,1.5c0.2,0.1,0.3,0.4,0.2,0.7C124.6,295.6,124.4,295.7,124.2,295.7z
	 M119,292.7c-0.1,0-0.2,0-0.2-0.1l-2.6-1.5c-0.2-0.1-0.3-0.4-0.2-0.7c0.1-0.2,0.4-0.3,0.7-0.2l2.6,1.5c0.2,0.1,0.3,0.4,0.2,0.7
	C119.4,292.6,119.2,292.7,119,292.7z M175.9,290.4c-0.3,0-0.5-0.2-0.5-0.5v-3c0-0.3,0.2-0.5,0.5-0.5c0.3,0,0.5,0.2,0.5,0.5v3
	C176.4,290.2,176.2,290.4,175.9,290.4z M113.8,289.7c-0.1,0-0.2,0-0.2-0.1l-1.3-0.7c-0.4-0.3-0.9-0.5-1.3-0.8
	c-0.2-0.2-0.3-0.5-0.1-0.7c0.2-0.2,0.5-0.3,0.7-0.1c0.4,0.3,0.8,0.5,1.2,0.8l1.3,0.7c0.2,0.1,0.3,0.4,0.2,0.7
	C114.1,289.6,114,289.7,113.8,289.7z M109,286.2c-0.1,0-0.3-0.1-0.4-0.2c-0.7-0.7-1.4-1.6-1.9-2.4c-0.1-0.2-0.1-0.5,0.2-0.7
	c0.2-0.1,0.5-0.1,0.7,0.2c0.5,0.8,1.1,1.6,1.8,2.3c0.2,0.2,0.2,0.5,0,0.7C109.2,286.2,109.1,286.2,109,286.2z M175.9,284.4
	c-0.3,0-0.5-0.2-0.5-0.5V281c0-0.3,0.2-0.5,0.5-0.5c0.3,0,0.5,0.2,0.5,0.5v2.9C176.4,284.2,176.2,284.4,175.9,284.4z M105.8,281.2
	c-0.2,0-0.4-0.1-0.5-0.3c-0.4-1-0.7-2-0.8-3c0-0.3,0.1-0.5,0.4-0.6c0.3,0,0.5,0.1,0.6,0.4c0.2,1,0.4,1.9,0.8,2.8
	c0.1,0.3,0,0.5-0.3,0.6C105.9,281.2,105.8,281.2,105.8,281.2z M104.7,275.3c-0.3,0-0.5-0.2-0.5-0.5v-3c0-0.3,0.2-0.5,0.5-0.5
	c0.3,0,0.5,0.2,0.5,0.5v3C105.2,275.1,105,275.3,104.7,275.3z M104.7,269.3c-0.3,0-0.5-0.2-0.5-0.5v-3c0-0.3,0.2-0.5,0.5-0.5
	c0.3,0,0.5,0.2,0.5,0.5v3C105.2,269.1,105,269.3,104.7,269.3z M104.7,263.3c-0.3,0-0.5-0.2-0.5-0.5v-3c0-0.3,0.2-0.5,0.5-0.5
	c0.3,0,0.5,0.2,0.5,0.5v3C105.2,263.1,105,263.3,104.7,263.3z M104.7,257.3c-0.3,0-0.5-0.2-0.5-0.5v-3c0-0.3,0.2-0.5,0.5-0.5
	c0.3,0,0.5,0.2,0.5,0.5v3C105.2,257.1,105,257.3,104.7,257.3z M104.7,251.3c-0.3,0-0.5-0.2-0.5-0.5v-3c0-0.3,0.2-0.5,0.5-0.5
	c0.3,0,0.5,0.2,0.5,0.5v3C105.2,251.1,105,251.3,104.7,251.3z"/>
</svg>
