<?xml version="1.0" encoding="utf-8"?>
<!-- Generator: Adobe Illustrator 23.0.5, SVG Export Plug-In . SVG Version: 6.00 Build 0)  -->
<svg version="1.1" xmlns="http://www.w3.org/2000/svg" xmlns:xlink="http://www.w3.org/1999/xlink" x="0px" y="0px"
	 viewBox="0 0 491.6 375.8" style="enable-background:new 0 0 491.6 375.8;" xml:space="preserve">
<style type="text/css">
	.st0{fill:#D2E5FA;}
	.st1{fill:#79E069;}
	.st2{fill:none;stroke:#5AA64E;stroke-width:0.5;stroke-linecap:round;stroke-miterlimit:10;}
	.st3{fill:#FFFFFF;}
	.st4{fill:#D9D9D9;}
	.st5{fill:#F7204B;}
	.st6{fill:#FAAF78;}
	.st7{fill:#FF9B21;}
	.st8{fill:#3D5D99;}
	.st9{fill:#7A7371;}
	.st10{fill:#99908E;}
	.st11{fill:#474342;}
	.st12{fill:#512566;}
	.st13{fill:#E69361;}
	.st14{fill:#371945;}
	.st15{opacity:0.43;fill:#430F82;}
	.st16{fill:#BF7A47;}
	.st17{fill:#996239;}
	.st18{clip-path:url(#SVGID_2_);}
	.st19{fill:none;stroke:#3D5D99;stroke-miterlimit:10;}
</style>
<g id="BACKGROUND">
	<path class="st0" d="M308.2,28.9c35.9,11.2,75,29.5,96.1,61.1c27.9,41.8,47.6,104.3,29.3,159c-18.5,55.2-88,97.1-145.7,94.5
		c-44.6-2-78.5-30.4-121.7-11.6c-19,8.2-20.6,17.2-32,17.4c-40.7,0.6-106.8-113.1-76-206.8C91.3,41.5,208.3-2.1,308.2,28.9z"/>
</g>
<g id="OBJECTS">
	<path class="st1" d="M147.7,317.3c8.9-6.8,20-3.8,23.6-3.4c6.2,0.6,7.4,5.1,12.2,4.6c7.4-0.8,7.8-11.9,16.2-14.4
		c7.1-2.1,9.2,5.2,19.4,4.3c7.8-0.7,9.6-5.3,18.7-5.5c3.4-0.1,8.7-0.2,11.2,3.2c3.6,4.8,0.8,15.3-5.1,18.8
		c-6.9,4.2-13.4-3.9-21.1,0.1c-7.4,3.8-5.1,13.2-12,16.3c-7,3.2-12.5-5.2-21.9-4c-9.4,1.1-9.5,11.4-19.6,16.8
		c-13.6,7.3-34.7,1.3-36.7-7.5C130.8,339.5,134.7,327.2,147.7,317.3z"/>
	<g>
		<path class="st1" d="M139.4,315.2c1.7-12.7,13.4-19.4,16.6-22.1c5.6-4.6,10.3-2.1,13.9-6.4c5.5-6.8-3.4-15.8,1.5-24.6
			c4.1-7.5,11.9-3.5,19.5-12.6c5.9-7,3.6-12,10.9-19.7c2.8-2.9,7-7.3,11.9-6.7c6.9,0.8,13.2,11.4,11.2,19c-2.3,9-14.3,7.9-17.4,17.4
			c-2.9,9.1,6.6,14.7,3.5,22.8c-3.2,8.3-14.5,6.2-21.4,14.8c-6.9,8.6,1.5,16.8-2.4,29.3c-5.2,16.9-27.5,29.6-36.5,24.3
			C143.8,346.7,136.9,333.8,139.4,315.2z"/>
		<path class="st2" d="M151.7,343.5c-1.8-5.2-3.8-13.8-0.8-23c2.8-8.5,8.7-13.9,13.7-18.5c9.9-9,13.8-7.2,17.3-13.5
			c4.9-8.7-1.2-14.4,4-22.5c3.9-6.1,8.7-5,14.2-11.4c5.3-6.1,6.6-13.6,6.9-18.7"/>
		<path class="st2" d="M137.6,345.7c1.9-4.6,5.8-11.6,13.4-15.9c7.1-4,14.3-4,20.4-4c12.1,0,13.6,3.5,19.8,1.5
			c8.6-2.9,7.9-10.4,16.4-12.6c6.3-1.7,8.9,1.9,16.4,1c7.2-0.9,12.6-5.1,16-8.4"/>
		<g>
			<path class="st1" d="M63.4,332.1c-1.1-9-9.1-13.7-11.3-15.5c-3.8-3.2-7.1-1.4-9.5-4.5c-3.7-4.7,2.5-11.2-0.8-17.4
				c-2.8-5.3-8.2-2.4-13.4-8.8c-4-4.9-2.3-8.5-7.4-13.9c-1.9-2-4.8-5.1-8.2-4.7c-4.8,0.6-9.3,8.1-8,13.5c1.5,6.3,9.8,5.5,11.9,12.2
				c1.9,6.4-4.7,10.4-2.6,16.2c2.1,5.8,10,4.3,14.7,10.4c4.7,6.1-1.2,11.9,1.3,20.8c3.4,11.9,18.8,20.8,25,17
				C60.1,354.4,65,345.2,63.4,332.1z"/>
			<path class="st2" d="M46.3,339.8c1.2-3,2.7-8,1.1-13.5c-1.4-5.1-4.7-8.5-7.6-11.3c-5.6-5.6-7.9-4.6-9.8-8.4
				c-2.6-5.3,1.1-8.4-1.7-13.4c-2.1-3.7-5-3.2-8-7.1c-2.9-3.7-3.5-8.2-3.5-11.2"/>
		</g>
	</g>
	<g>
		<g>
			
				<rect x="35" y="123.8" transform="matrix(1 -1.146088e-03 1.146088e-03 1 -0.2654 0.1172)" class="st3" width="134.4" height="215.7"/>
		</g>
		<g>
			<g>
				<rect x="44.1" y="227.9" class="st4" width="52.4" height="52.4"/>
				<rect x="102.8" y="227.9" class="st4" width="52.4" height="52.4"/>
				<rect x="44.1" y="286.6" class="st4" width="52.4" height="52.4"/>
				<rect x="102.8" y="286.6" class="st4" width="52.4" height="52.4"/>
				<g>
					<g>
						<circle class="st4" cx="54.6" cy="206.2" r="10.5"/>
						<path class="st3" d="M54.6,214.9c-4.8,0-8.7-3.9-8.7-8.7s3.9-8.7,8.7-8.7c4.8,0,8.7,3.9,8.7,8.7S59.4,214.9,54.6,214.9z
							 M54.6,198.4c-4.3,0-7.7,3.5-7.7,7.7c0,4.3,3.5,7.7,7.7,7.7c4.3,0,7.7-3.5,7.7-7.7C62.3,201.9,58.9,198.4,54.6,198.4z"/>
					</g>
					<g>
						<circle class="st4" cx="84.6" cy="206.2" r="10.5"/>
						<path class="st3" d="M84.6,214.9c-4.8,0-8.7-3.9-8.7-8.7s3.9-8.7,8.7-8.7c4.8,0,8.7,3.9,8.7,8.7S89.4,214.9,84.6,214.9z
							 M84.6,198.4c-4.3,0-7.7,3.5-7.7,7.7c0,4.3,3.5,7.7,7.7,7.7c4.3,0,7.7-3.5,7.7-7.7C92.4,201.9,88.9,198.4,84.6,198.4z"/>
					</g>
					<g>
						<circle class="st4" cx="114.6" cy="206.2" r="10.5"/>
						<path class="st3" d="M114.6,214.9c-4.8,0-8.7-3.9-8.7-8.7s3.9-8.7,8.7-8.7c4.8,0,8.7,3.9,8.7,8.7S119.5,214.9,114.6,214.9z
							 M114.6,198.4c-4.3,0-7.7,3.5-7.7,7.7c0,4.3,3.5,7.7,7.7,7.7c4.3,0,7.7-3.5,7.7-7.7C122.4,201.9,118.9,198.4,114.6,198.4z"/>
					</g>
					<g>
						<circle class="st4" cx="144.7" cy="206.2" r="10.5"/>
						<path class="st3" d="M144.7,214.9c-4.8,0-8.7-3.9-8.7-8.7s3.9-8.7,8.7-8.7c4.8,0,8.7,3.9,8.7,8.7S149.5,214.9,144.7,214.9z
							 M144.7,198.4c-4.3,0-7.7,3.5-7.7,7.7c0,4.3,3.5,7.7,7.7,7.7c4.3,0,7.7-3.5,7.7-7.7C152.4,201.9,148.9,198.4,144.7,198.4z"/>
					</g>
					<polygon class="st3" points="52.4,202.8 52.4,209.5 57.1,206.2 					"/>
					<g>
						<rect x="81.2" y="205.4" class="st3" width="6.7" height="4.6"/>
						<polygon class="st3" points="88.9,205.8 80.2,205.8 81.8,202.6 87.3,202.6 						"/>
						<path class="st4" d="M85.4,210.1h-1.7v-2.2c0-0.5,0.4-0.9,0.9-0.9l0,0c0.5,0,0.9,0.4,0.9,0.9V210.1z"/>
					</g>
					<path class="st5" d="M130.3,183.8l-3.4-3.2c-0.6-0.8-0.5-2,0.3-2.6c0.8-0.6,2-0.5,2.6,0.3l0.5,0.6l0.4-0.5
						c0.6-0.8,1.8-1,2.6-0.4c0.8,0.6,1,1.8,0.4,2.6L130.3,183.8z"/>
					<g>
						<polygon class="st3" points="114.6,207.4 110.4,204.2 110.4,209.4 118.9,209.4 118.9,204.2 						"/>
						<polygon class="st3" points="118.6,203.2 110.7,203.2 114.6,206.2 						"/>
					</g>
				</g>
				<g>
					<path class="st4" d="M65.1,184.2L65.1,184.2c-11.6,0-20.9-9.4-20.9-20.9v0c0-11.6,9.4-20.9,20.9-20.9l0,0
						c11.6,0,20.9,9.4,20.9,20.9v0C86,174.8,76.6,184.2,65.1,184.2z"/>
					<g>
						<path class="st3" d="M74.2,175.4c0-5-4.1-9.1-9.1-9.1s-9.1,4.1-9.1,9.1H74.2z"/>
						<path class="st3" d="M65.1,167.3L65.1,167.3c-3.4,0-6.2-2.8-6.2-6.2v-5.6c0-3.4,2.8-6.2,6.2-6.2l0,0c3.4,0,6.2,2.8,6.2,6.2
							v5.6C71.3,164.5,68.5,167.3,65.1,167.3z"/>
						<path class="st4" d="M61.8,160.7c0,1.8,1.4,3.2,3.2,3.2s3.2-1.4,3.2-3.2H61.8z"/>
					</g>
				</g>
				<g>
					
						<ellipse transform="matrix(0.1602 -0.9871 0.9871 0.1602 -105.5353 229.7484)" class="st1" cx="82.3" cy="176.9" rx="8.1" ry="8.1"/>
					<path class="st3" d="M81.4,180.9l-3.8-4c-0.4-0.4-0.4-1,0-1.4c0.4-0.4,1-0.4,1.4,0l2.4,2.5l4-4.3c0.4-0.4,1-0.4,1.4,0
						c0.4,0.4,0.4,1,0,1.4L81.4,180.9z"/>
				</g>
				<g>
					<path class="st4" d="M118,150.2h-17.1c-0.5,0-1-0.4-1-1c0-0.5,0.4-1,1-1H118c0.5,0,1,0.4,1,1C119,149.8,118.6,150.2,118,150.2z
						"/>
					<path class="st4" d="M137.6,156.5h-36.7c-0.5,0-1-0.4-1-1c0-0.5,0.4-1,1-1h36.7c0.5,0,1,0.4,1,1
						C138.5,156.1,138.1,156.5,137.6,156.5z"/>
					<path class="st4" d="M126.3,162.8h-25.4c-0.5,0-1-0.4-1-1c0-0.5,0.4-1,1-1h25.4c0.5,0,1,0.4,1,1
						C127.3,162.3,126.9,162.8,126.3,162.8z"/>
					<path class="st4" d="M137.6,169h-36.7c-0.5,0-1-0.4-1-1c0-0.5,0.4-1,1-1h36.7c0.5,0,1,0.4,1,1C138.5,168.6,138.1,169,137.6,169
						z"/>
				</g>
			</g>
			<g>
				<g>
					<g>
						<path class="st4" d="M145.6,182h-8.9c-0.5,0-1-0.4-1-1s0.4-1,1-1h8.9c0.5,0,1,0.4,1,1S146.1,182,145.6,182z"/>
					</g>
				</g>
			</g>
			<g>
				<path class="st6" d="M139.9,290.6c-0.3,5.6-3.3,46.5-3.5,48.5c-0.2,1.6-11.2,1.9-11.3,1.2c-0.3-3.9-4.3-47-4.5-49.9
					c-0.4-4.8,3.8-17.3,5.6-24.4l18.7,3.7C144.2,275.3,139.9,290.6,139.9,290.6z"/>
				<g>
					<path class="st5" d="M124.8,337.5l-19.1,10.8c-2,1.2-1.2,4.3,1.2,4.2l31.1-0.8c2.4-0.1-1.3-16.1-1.3-16.1l-1.2,1.4
						C132.9,340.3,127.9,340.5,124.8,337.5L124.8,337.5z"/>
					<path class="st7" d="M103.6,350l0.1,2.3c0,0.6,0.5,1.1,1.2,1.1l33.8-0.8c0.6,0,1.1-0.5,1.1-1.2l-0.1-2.3c0-0.6-0.5-1.1-1.2-1.1
						l-33.8,0.8C104.1,348.9,103.6,349.4,103.6,350z"/>
					<path class="st7" d="M124.5,342.7c0.2,0,0.4-0.1,0.6-0.2c0.4-0.3,0.5-0.9,0.2-1.3l-2.1-2.9c-0.3-0.4-0.9-0.5-1.3-0.2
						c-0.4,0.3-0.5,0.9-0.2,1.3l2.1,2.9C123.9,342.6,124.2,342.7,124.5,342.7z"/>
					<path class="st7" d="M121.3,344.6c0.2,0,0.4-0.1,0.6-0.2c0.4-0.3,0.5-0.9,0.2-1.3l-2.1-2.9c-0.3-0.4-0.9-0.5-1.3-0.2
						c-0.4,0.3-0.5,0.9-0.2,1.3l2.1,2.9C120.7,344.5,121,344.6,121.3,344.6z"/>
					<path class="st7" d="M117.9,346.6c0.2,0,0.4-0.1,0.6-0.2c0.4-0.3,0.5-0.9,0.2-1.3l-2.1-2.9c-0.3-0.4-0.9-0.5-1.3-0.2
						c-0.4,0.3-0.5,0.9-0.2,1.3l2.1,2.9C117.3,346.5,117.6,346.6,117.9,346.6z"/>
				</g>
				<path class="st8" d="M135.8,223.2l27.6-5.6c0,0,3.3,28.1-10.8,39.5c-3.6,2.9-7.6,15-9.6,23.8l-24.2-3.7
					C124,260.3,135.8,223.2,135.8,223.2z"/>
			</g>
			<g>
				<path class="st9" d="M163.6,107.6l-123.3,0.1c-5.8,0-10.5,4.7-10.5,10.5l0.3,228.6c0,5.8,4.7,10.5,10.5,10.5l123.3-0.1
					c5.8,0,10.5-4.7,10.5-10.5l-0.3-228.6C174.1,112.3,169.4,107.6,163.6,107.6z M169.4,339.4l-134.4,0.2l-0.2-215.7l134.4-0.2
					L169.4,339.4z"/>
			</g>
			<path class="st10" d="M116.6,351.1l-28,0c-1.4,0-2.5-1.1-2.5-2.5l0,0c0-1.4,1.1-2.5,2.5-2.5l28,0c1.4,0,2.5,1.1,2.5,2.5l0,0
				C119.2,349.9,118,351.1,116.6,351.1z"/>
			<path class="st10" d="M106.2,116.1c0,2.1-1.7,3.8-3.8,3.8c-2.1,0-3.8-1.7-3.8-3.8c0-2.1,1.7-3.8,3.8-3.8S106.2,114,106.2,116.1z"
				/>
			<rect x="35.1" y="123.7" class="st11" width="134.1" height="7.3"/>
			<g>
				<path class="st12" d="M147,145.9c-7.3,4.8-11,18.3-9.8,27.7c3.7,29.5,26,51.4,41.6,49c12.1-1.9,28-18.4,23-27.2
					c-5.1-9.1-12.1-12.4-19.9-23.8c-5.2-7.6-3.2-14.4-6.5-19.2C170.5,145.2,160.2,137.3,147,145.9z"/>
				<g>
					<g>
						<g>
							<polygon class="st6" points="227.8,221.3 227.9,212.6 198,203.8 174.9,181 163.3,194.9 189,215.9 							"/>
						</g>
						<g>
							<g>
								<path class="st6" d="M233.9,218.5l-3-5.3l-4.1-0.5c0,0-4.3,4.2,1.4,10.7c0.4,0.5,0.9,0.8,1.5,0.9L233.9,218.5z"/>
							</g>
							<path class="st6" d="M232.6,215.1l-0.7-1.7c-0.3-0.8,0.3-1.2,0.9-1.9l1.9-1.8c0.2-0.2,0.2-0.6-0.1-0.8
								c-0.6-0.2-1.8-0.7-3.1,0.3l-5,3.6L232.6,215.1z"/>
						</g>
					</g>
					<g>
						<g>
							<polygon class="st6" points="112.2,244.1 120.8,245.6 134.1,217.2 152.6,186.9 142.4,175.4 123.4,206.6 							"/>
						</g>
						<g>
							<g>
								<path class="st6" d="M111.1,250.1l-1.5,7.4c0,0.2-0.1,0.4-0.3,0.6c-0.5,0.5-1.4,1.5-1.7,0.9c-0.3-0.8,1.1-8.9,1.1-8.9"/>
								<path class="st6" d="M119.7,248.4l-1.7,1.7c-0.3,0.3-0.5,0.6-0.7,1l-2.5,6.3c0,0-1.3,1.6-1.9,0.8c-0.5-0.8,0.8-7.9,0.8-7.9
									l-1.7,8.6c0,0.2-0.1,0.3-0.2,0.5c-0.5,0.5-1.7,1.8-2,1.1c-0.4-0.9,1.3-10.1,1.3-10.1"/>
								<path class="st6" d="M106.9,257c0.3-0.2,0.7-0.7,1-1.3l0.7-5l5.5-0.1l5.7-2.2l1.1-4c0,0-3.5-4.9-10.8-0.2
									c-0.5,0.3-0.9,0.8-1.2,1.3l-2.2,4.6c0,0.1,0,0.2-0.1,0.3c-0.1,1-0.9,6.2-0.7,6.6C106,257.2,106.6,257.2,106.9,257z"/>
							</g>
							<path class="st6" d="M117.6,249.8l1.8-0.5c0.8-0.2,1.2,0.5,1.7,1.1l1.5,2.1c0.2,0.3,0.6,0.3,0.8,0c0.3-0.6,1-1.6,0.2-3.1
								l-2.8-5.5L117.6,249.8z"/>
						</g>
					</g>
					<path class="st3" d="M164.6,165.7l-0.3,0.7c1.7,0.9,2.4,3,1.5,4.7c-0.9,1.7-3,2.3-4.7,1.5c-0.8-0.4-1.4-1.1-1.7-2
						c-0.3-0.9-0.2-1.8,0.2-2.6c0.2-0.5,0.6-0.9,1-1.2c-0.2-0.2-0.3-0.4-0.4-0.6c-0.5,0.4-1,0.9-1.3,1.5c-0.5,1-0.6,2.1-0.3,3.2
						c0.3,1.1,1.1,1.9,2.1,2.5c1,0.5,2.2,0.6,3.2,0.3c1-0.3,1.9-1,2.4-2.1C167.4,169.3,166.6,166.8,164.6,165.7z"/>
					<path class="st6" d="M191,308.4c3.2,4.5,8.2,13.4,9.1,15.1c0.8,1.4-8.1,8.2-8.6,7.6c-2.5-3.1-9.3-11.5-11.1-13.6
						c-3.1-3.7-24.5-32.2-27.9-36.9l19.6-10.9C174.8,274.7,189.3,306.1,191,308.4z"/>
					<g>
						<path class="st5" d="M189.8,329l-9.6,19.7c-1,2.1,1.5,4.2,3.3,2.8l25.2-18.3c1.9-1.5-10.2-12.6-10.2-12.6l-0.2,1.8
							C197.9,326.7,194,329.7,189.8,329L189.8,329z"/>
						<path class="st7" d="M179.3,351.3l1.3,1.9c0.4,0.5,1.1,0.6,1.6,0.3l27.4-19.8c0.5-0.4,0.6-1.1,0.3-1.6l-1.3-1.9
							c-0.4-0.5-1.1-0.6-1.6-0.3l-27.4,19.8C179.1,350.1,179,350.8,179.3,351.3z"/>
						<path class="st7" d="M191.9,333.6c0.4,0,0.8-0.3,0.9-0.6c0.2-0.5-0.1-1.1-0.6-1.2l-3.4-1.2c-0.5-0.2-1.1,0.1-1.2,0.6
							c-0.2,0.5,0.1,1.1,0.6,1.2l3.4,1.2C191.6,333.6,191.7,333.6,191.9,333.6z"/>
						<path class="st7" d="M190.3,337c0.4,0,0.8-0.3,0.9-0.6c0.2-0.5-0.1-1.1-0.6-1.2l-3.4-1.2c-0.5-0.2-1.1,0.1-1.2,0.6
							c-0.2,0.5,0.1,1.1,0.6,1.2l3.4,1.2C190.1,337,190.2,337,190.3,337z"/>
						<path class="st7" d="M188.7,340.6c0.4,0,0.8-0.3,0.9-0.6c0.2-0.5-0.1-1.1-0.6-1.2l-3.4-1.2c-0.5-0.2-1.1,0.1-1.2,0.6
							c-0.2,0.5,0.1,1.1,0.6,1.2l3.4,1.2C188.4,340.5,188.6,340.6,188.7,340.6z"/>
					</g>
					<path class="st8" d="M142.5,224.4l24.5-8.2c0,0,11.1,19.1,8,37c-1.3,7.6,2.5,17.1,4.4,23.9l-28.8,7
						C145.4,267.2,142.5,224.4,142.5,224.4z"/>
					<path class="st6" d="M134.1,229.5c1.1-3.9,1.7-6.3,1.7-6.3l26.3-5.3l4.9-1.7c0,0,3.6,6.2,6.2,14.9c-1.8,0.4-3.7,0.8-5.8,1.1
						c-12.6,1.8-21.6,0-27.6-1.2C137.4,230.5,135.6,230,134.1,229.5z"/>
					<path class="st5" d="M147.8,173.3l16.7,2.4c1.6,0.2,9.9,3.7,10.4,5.2c0.2,0.6-0.7,9.2-1.8,14.1l-5,20.1l4.3,11
						c0,0-12,2.5-24.9,1.9c-6-0.3-9.1-1.8-14.3-4.9l2.7-16.7c-4.9-12.7,0.5-24.3,5-29.3c0.9-1,2.6-3.7,3.6-4
						C145.6,172.9,146.7,173.1,147.8,173.3z"/>
					<path class="st6" d="M163.7,160.3l0.6,15.2c-0.1,1.6-3.9,6.4-8.7,6.4c-2.6,0-4.8-1.8-4.4-4.4L153,166L163.7,160.3z"/>
					<path class="st13" d="M151.6,174.9l1.1-7.5l9.1-1.9l-0.4,2.1C161.5,167.6,160.1,171,151.6,174.9z"/>
					<path class="st6" d="M150.9,164c-0.1,4.1,3.3,7.4,7.4,7.1l7.5-0.6c2.2-0.1,4-1.4,4.9-3.2c0.8-1.4,0.8-3.1,0.4-4.6l-2.7-12.7
						l-16.9-5.7L150.9,164z"/>
					<g>
						<path class="st12" d="M168.4,150.1c0.5,0.8-12.1-2.1-16.6,14l-2.3,0.5c0,0-10.9-6.6-3.1-17.6
							C150.9,140.8,163.7,142.2,168.4,150.1z"/>
					</g>
					<path class="st6" d="M149.5,165.7c1.4,1.6,3.8,1.7,5.4,0.3c1.6-1.4,1.7-3.8,0.3-5.4c-1.4-1.6-3.8-1.7-5.4-0.3
						C148.2,161.7,148.1,164.1,149.5,165.7z"/>
					<path class="st3" d="M152.3,164.8l-0.7,0.4c0.9,1.7,0.3,3.8-1.3,4.7c-1.7,0.9-3.8,0.3-4.7-1.4c-0.4-0.8-0.6-1.7-0.3-2.6
						c0.3-0.9,0.8-1.6,1.6-2.1c0.5-0.3,1-0.4,1.5-0.4c0-0.2,0-0.5,0-0.7c-0.7,0-1.3,0.2-1.9,0.5c-1,0.5-1.7,1.4-2,2.5
						c-0.3,1.1-0.2,2.2,0.4,3.2c0.6,1,1.5,1.7,2.6,2c1,0.3,2.2,0.2,3.2-0.4C152.7,169.4,153.5,166.8,152.3,164.8z"/>
					<g>
						<polygon class="st14" points="153.3,163.8 151.4,162.2 151.6,162 153.4,163.6 						"/>
						<polygon class="st14" points="151.7,163.8 151.5,163.6 153.2,162 153.4,162.1 						"/>
					</g>
					<path class="st14" d="M166.7,156.6c0,0.3,0.3,0.6,0.6,0.5c0.3,0,0.6-0.3,0.5-0.6c0-0.3-0.3-0.6-0.6-0.5
						C166.9,156,166.7,156.3,166.7,156.6z"/>
					<path class="st6" d="M169.2,154.1l2.4,3.1c0.3,0.4,0.3,1-0.1,1.3l-1.2,1.2L169.2,154.1z"/>
					<path class="st15" d="M145.1,273.1c-0.5-3,0-22.6,0.4-21.2c0.9,3.6,0.7,11.8,1.6,15.3C146.3,269.6,145.8,270.3,145.1,273.1z"/>
					<path class="st3" d="M164.5,160.4c0,0,2,1.1,5.6,0.8C170.2,161.2,166.6,166.1,164.5,160.4z"/>
					<path class="st12" d="M156.2,182.6c5.7-0.1,8.4-5.2,9.1-6.7c-0.3,0-0.5-0.1-0.8-0.1l-0.3,0c-0.9,1.8-4,7.1-10.5,5.6
						c-0.1,0-0.9-0.2-1.5-1.2c-0.6-0.9-1.1-2.7-0.4-6.2l-1-0.1c-0.6,3-0.5,5.3,0.5,6.9c0.9,1.3,2.1,1.6,2.1,1.6
						C154.5,182.5,155.4,182.6,156.2,182.6z"/>
				</g>
				<g>
					<g>
						<polygon class="st7" points="261.7,227.9 277.2,238.2 277.4,232.6 290.5,236.7 273.5,223 273.3,229.6 						"/>
						<g>
							
								<rect x="256.7" y="207.8" transform="matrix(0.209 -0.9779 0.9779 0.209 -1.7112 424.2625)" class="st3" width="9.4" height="10.7"/>
							<path class="st5" d="M249.9,241.6l-7.2-1.5c-9.4-2-15.4-11.3-13.4-20.7c2-9.4,11.3-15.4,20.7-13.4l7.2,1.5l-2,9.2l-7.2-1.5
								c-4.3-0.9-8.6,1.8-9.6,6.2c-0.9,4.3,1.8,8.6,6.2,9.6l7.2,1.5L249.9,241.6z"/>
							
								<rect x="251.4" y="232.7" transform="matrix(0.209 -0.9779 0.9779 0.209 -30.2775 438.7549)" class="st3" width="9.4" height="10.7"/>
						</g>
					</g>
					<g>
						<g>
							<path class="st6" d="M238.6,222.1l-1.2-3.6c-0.1-0.3-0.2-0.6-0.1-0.9c0.1-0.9,0.4-2.8,1.2-2.4c0.9,0.6,2.7,4.8,2.7,4.8"/>
							<path class="st6" d="M236.9,224.1l-1.2-3.6c-0.1-0.3-0.2-0.6-0.1-0.9c0.1-0.9,0.4-2.8,1.2-2.4c0.9,0.6,2.7,4.8,2.7,4.8"/>
							<path class="st6" d="M235.3,226.1l-1.2-3.6c-0.1-0.3-0.2-0.6-0.1-0.9c0.1-0.9,0.4-2.8,1.2-2.4c0.9,0.6,2.7,4.8,2.7,4.8"/>
							<path class="st6" d="M235.6,225.5c0,0-1.3-3.8-2.3-4.3c-0.7-0.4-1,1.4-1.2,2.4c0,0.3,0,0.6,0.1,0.9l0.7,2
								c0.3,1,1.3,1.5,2.3,1.1c1.6-0.5,3.6-3.2,5.3-5.5c2.8-3.7,1.1-5.7,1.1-5.7l-1.7,1.4L235.6,225.5z"/>
						</g>
					</g>
				</g>
				<polygon class="st7" points="152.6,186.4 154.5,192.3 160.4,194.1 155.4,197.7 155.5,203.8 150.5,200.2 144.6,202.2 
					146.6,196.3 142.9,191.4 149.1,191.4 				"/>
			</g>
			<g>
				<g>
					<g>
						<path class="st4" d="M121,182h-8.9c-0.5,0-1-0.4-1-1s0.4-1,1-1h8.9c0.5,0,1,0.4,1,1S121.5,182,121,182z"/>
					</g>
					<g>
						<path class="st8" d="M108.7,178.9L108.7,178.9c0-0.4-0.3-0.7-0.7-0.7h-1.9c0.4-0.5,0.4-1.8,0.3-2.1c-0.1-0.3-0.1-0.9-0.6-0.9
							c-0.5,0-0.6,0.5-0.6,0.5l0,0.5c0,0.1,0,0.2-0.1,0.2l-1.8,2l0,0c-0.1,0.1-0.1,0.1-0.1,0.2v4.6c0,0.2,0.2,0.4,0.4,0.4v0h0.1h3.7
							h0.7c0.4,0,0.7-0.3,0.7-0.7v0c0-0.3-0.2-0.6-0.5-0.7c0.3-0.1,0.5-0.4,0.5-0.7v0c0-0.3-0.2-0.6-0.5-0.7
							c0.3-0.1,0.5-0.4,0.5-0.7v0c0-0.3-0.2-0.6-0.5-0.7C108.5,179.5,108.7,179.2,108.7,178.9z"/>
						<path class="st8" d="M102.3,178.5h-1.7c-0.2,0-0.3,0.1-0.3,0.3v4.5c0,0.2,0.1,0.3,0.3,0.3h1.7c0.2,0,0.3-0.1,0.3-0.3v-4.5
							C102.6,178.7,102.5,178.5,102.3,178.5z"/>
					</g>
				</g>
			</g>
		</g>
	</g>
	<g>
		<g>
			<g>
				<g>
					<polygon class="st16" points="370.3,241.8 380.4,243.5 394.2,222.5 411.2,187.5 395.4,178.7 380.7,215.9 					"/>
				</g>
			</g>
			<path class="st7" d="M408.8,177.1l-2.5-1.5c-3.7-2.3-8.5-1.1-10.8,2.5l-11.4,21.4l15.7,10l11.6-21.6
				C413.6,184.2,412.4,179.4,408.8,177.1z"/>
		</g>
		<g>
			<g>
				<path class="st16" d="M459.6,306.6c3.8,4.7,10.8,14.9,11.9,16.8c0.9,1.5-9.5,8.5-10,7.9c-2.9-3.2-10.8-11.9-12.9-14.2
					c-3.5-3.8-7.7-8.5-11.7-13.4l14.2-10.3C454.3,298.7,457.7,304.1,459.6,306.6z"/>
				<g>
					<path class="st5" d="M459.5,329l-9.3,22c-1,2.3,1.8,4.5,3.8,2.8l26.3-21.4c1.9-1.7-11.8-13.1-11.8-13.1l-0.1,2
						C468.3,326,464.1,329.6,459.5,329L459.5,329z"/>
					<path class="st12" d="M449.4,353.8l1.7,2.1c0.4,0.5,1.1,0.6,1.6,0.2l28.8-23.3c0.5-0.4,0.6-1.1,0.2-1.6l-1.7-2.1
						c-0.4-0.5-1.1-0.6-1.6-0.2l-28.8,23.3C449.1,352.7,449,353.4,449.4,353.8z"/>
					<path class="st12" d="M462,333.9c0.4,0,0.8-0.3,0.9-0.8c0.2-0.6-0.2-1.1-0.7-1.3l-3.8-1.1c-0.6-0.2-1.1,0.2-1.3,0.7
						c-0.2,0.6,0.2,1.1,0.7,1.3l3.8,1.1C461.8,333.9,461.9,333.9,462,333.9z"/>
					<path class="st12" d="M460.6,337.7c0.4,0,0.8-0.3,0.9-0.8c0.2-0.6-0.2-1.1-0.7-1.3l-3.8-1.1c-0.6-0.2-1.1,0.2-1.3,0.7
						c-0.2,0.6,0.2,1.1,0.7,1.3l3.8,1.1C460.4,337.7,460.5,337.7,460.6,337.7z"/>
					<path class="st12" d="M459,341.7c0.4,0,0.8-0.3,0.9-0.8c0.2-0.6-0.2-1.1-0.7-1.3l-3.8-1.1c-0.6-0.2-1.1,0.2-1.3,0.7
						c-0.2,0.6,0.2,1.1,0.7,1.3l3.8,1.1C458.7,341.7,458.9,341.7,459,341.7z"/>
				</g>
				<path class="st8" d="M406.4,243.4l23.4-20.9c0,0,15.4,20,11.3,37.1c-2.8,11.6,9.6,30.3,19,37.7l-25.1,18.3
					c-5.4-6.6-9.5-14.8-11.6-20.3C417.4,279.3,406.4,243.4,406.4,243.4z"/>
				<path class="st16" d="M406.1,320.1c0,6.2-0.9,18.8-1.2,21c-0.2,1.8-12.9,0.7-13,0c-0.3-4.4-1-16.4-1.3-19.5
					c-0.4-5.3-0.7-11.7-0.8-18.1l17.9,0.8C406.9,310.5,406.1,316.9,406.1,320.1z"/>
				<g>
					<path class="st5" d="M391.7,338l-21.4,11.7c-2.3,1.2-1.4,4.7,1.2,4.7l34.6-0.3c2.6-0.1-1.1-18-1.1-18l-1.3,1.5
						C400.6,341.1,395.1,341.3,391.7,338L391.7,338z"/>
					<path class="st12" d="M367.9,351.3l0,2.8c0,0.6,0.5,1.1,1.1,1.1l37.9-0.3c0.6,0,1.1-0.5,1.1-1.1l0-2.8c0-0.6-0.5-1.1-1.1-1.1
						l-37.9,0.3C368.4,350.2,367.9,350.7,367.9,351.3z"/>
					<path class="st12" d="M391.2,343.7c0.2,0,0.4-0.1,0.6-0.2c0.5-0.3,0.6-1,0.3-1.5l-2.3-3.3c-0.3-0.5-1-0.6-1.5-0.3
						c-0.5,0.3-0.6,1-0.3,1.5l2.3,3.3C390.6,343.5,390.9,343.7,391.2,343.7z"/>
					<path class="st12" d="M387.7,345.8c0.2,0,0.4-0.1,0.6-0.2c0.5-0.3,0.6-1,0.3-1.5l-2.3-3.3c-0.3-0.5-1-0.6-1.5-0.3
						c-0.5,0.3-0.6,1-0.3,1.5l2.3,3.3C387,345.6,387.4,345.8,387.7,345.8z"/>
					<path class="st12" d="M383.9,347.9c0.2,0,0.4-0.1,0.6-0.2c0.5-0.3,0.6-1,0.3-1.5l-2.3-3.3c-0.3-0.5-1-0.6-1.5-0.3
						c-0.5,0.3-0.6,1-0.3,1.5l2.3,3.3C383.2,347.7,383.5,347.9,383.9,347.9z"/>
				</g>
				<path class="st8" d="M399.3,236.1l30.4-4.9c0,0,7.9,27.5-5.9,38.3c-9.4,7.3-13.7,35.7-10.9,47.3l-31-1.3
					c-0.1-8.6,4.4-28.1,6.2-33.7C393.3,265.5,399.3,236.1,399.3,236.1z"/>
				<path class="st15" d="M415.4,285c-0.5-2.9-0.7-18.4-0.3-17.1c0.9,3.5,1.7,7.4,2.6,10.7C416.9,281,415.9,282.6,415.4,285z"/>
			</g>
			<path class="st7" d="M402.1,174.4l25,0.6c10.9,1,14.3,7.4,14.3,13.4l-0.5,28.2l4.8,29.3l-52.1,3l-1.4-50.6
				c-1.4-7.1,0.4-14.2,4-20.5c0.6-1.1,1.4-1.9,2.3-2.5C399.7,174.7,400.9,174.4,402.1,174.4z"/>
			<path class="st16" d="M417.2,161.4l1.7,13c0.2,1.7-3.2,6.8-7.6,8.7c-2.6,1.1-5.4-0.8-5.6-3.6l-0.7-12.5L417.2,161.4z"/>
			<path class="st17" d="M405.3,172.5l-0.3-5.6l8.8-6.5l0.1,2.3C413.9,162.6,413.3,166.5,405.3,172.5z"/>
			<path class="st16" d="M417.7,165.5l-15.5,3.5c-2.3,0.5-4.5-0.2-6-1.7c-1.2-1.2-1.8-2.9-1.8-4.5l0.8-14.6l20.3-4.8L417.7,165.5z"
				/>
			<path class="st14" d="M392.6,144.8c1.9,10.1,17.2,1,17.5,5.4c0.8,11.3,7,8.7,7,8.7s8-16.9-2-17.1
				C405.1,141.6,389.8,129.9,392.6,144.8z"/>
			<path class="st16" d="M420,155c0.5,2.3-0.9,4.5-3.1,5.1c-2.3,0.5-4.5-0.9-5.1-3.1c-0.5-2.3,0.9-4.5,3.1-5.1
				C417.2,151.3,419.5,152.7,420,155z"/>
			<path class="st16" d="M395.8,151.2l-3.2,5.6c-0.5,0.8,0.2,1.7,1.3,1.6l2.2-0.3L395.8,151.2z"/>
			<g>
				<polygon class="st14" points="415.3,157.3 415,157.1 416.6,154.6 416.8,154.8 				"/>
				<polygon class="st14" points="417.1,156.9 414.6,155.3 414.8,155.1 417.3,156.6 				"/>
			</g>
			<path class="st14" d="M399,154.3c0.1,0.3-0.1,0.7-0.5,0.7c-0.3,0.1-0.7-0.1-0.7-0.5c-0.1-0.3,0.1-0.7,0.5-0.7
				C398.6,153.8,399,154,399,154.3z"/>
			<g>
				<path class="st16" d="M426.4,184.3l2.2-2c3.2-2.9,5.6-5.2,8.5-2l28.6,31.8l-1.5,29.3c0.6,4.3,2.8,11.1,1.4,13.1
					c-1,1.3-1.3,0.3-2.7,0.9c-1.4,0.5-1,0.4-2.5,0.3c-1.5-0.1-2.6,1.1-3.6,0.3c-1-0.8-1.2-0.8-2.8-1.2c-1.6-0.4-0.3-4.2-0.1-7
					l-1.8,2.5c-0.9,0.8-1.5,0.3-1.6-0.3c-0.1-0.3-0.2-0.8,0-1.6c0.4-2.3,1.6-4.3,3.3-5.9l1.2-1.2l-2.9-23.2l-27.1-26.8
					C422,188.2,423.2,187.2,426.4,184.3z"/>
				<path class="st7" d="M426.1,178.1l-2.1,2c-3.2,2.9-3.3,7.9-0.4,11.1l16.3,17.9l13.8-12.5l-6.2-7l-10.2-11
					C434.3,175.3,429.3,175.2,426.1,178.1z"/>
			</g>
			<path class="st14" d="M399.2,160.4c0.5-0.3,1.1-0.9,1.6-1.8c0-0.1,0-0.1,0-0.2c-0.1,0-0.1,0-0.2,0.1c-1.5,2.8-3.8,2.1-3.9,2.1
				c-0.1,0-0.1,0-0.2,0.1c0,0.1,0,0.1,0.1,0.2C396.6,160.8,397.9,161.2,399.2,160.4z"/>
		</g>
		<g>
			<path class="st3" d="M397.2,158c-1.7-0.9-2.6-2.9-2-4.8l0,0c0.7-2.1,3-3.3,5.1-2.7c2.1,0.7,3.3,3,2.7,5.1c-0.7,2.1-3,3.3-5.1,2.7
				C397.6,158.2,397.4,158.1,397.2,158z M395.9,153.5c-0.5,1.7,0.4,3.5,2.1,4.1c1.7,0.5,3.5-0.4,4.1-2.1c0.5-1.7-0.4-3.5-2.1-4.1
				C398.3,150.8,396.5,151.7,395.9,153.5L395.9,153.5z"/>
		</g>
		<path class="st3" d="M402.7,154.6l-0.1-0.8c0,0,4.9-0.7,8.9-0.4l-0.1,0.8C407.5,153.9,402.7,154.6,402.7,154.6z"/>
	</g>
	<g>
		<path class="st3" d="M384.4,112c0-11.6-9.4-21-21-21c-11.6,0-21,9.4-21,21s9.4,21,21,21c4.1,0,7.9-1.2,11.1-3.2
			c2.2,0.7,5.3,1.3,9.4,1.1l-4.1-5.8C382.6,121.6,384.4,117,384.4,112z"/>
		<g>
			<path class="st8" d="M373.7,107.8L373.7,107.8c0-1.1-0.8-2-1.9-2h-5c1.1-1.4,1-4.8,0.9-5.6c-0.2-0.8-0.2-2.3-1.7-2.3
				s-1.7,1.3-1.7,1.3l-0.1,1.4c0,0.2-0.1,0.5-0.3,0.7l-4.9,5.4l0,0c-0.2,0.1-0.3,0.4-0.3,0.6v12.3c0,0.6,0.4,1.1,1,1.2v0h0.2h9.9h2
				c1,0,1.9-0.8,1.9-1.9v-0.1c0-0.9-0.6-1.6-1.4-1.8c0.8-0.2,1.4-1,1.4-1.8v-0.1c0-0.9-0.6-1.6-1.4-1.8c0.8-0.2,1.4-1,1.4-1.8v-0.1
				c0-0.9-0.6-1.6-1.4-1.8C373.1,109.4,373.7,108.6,373.7,107.8z"/>
			<path class="st8" d="M356.5,106.9h-4.6c-0.5,0-0.9,0.4-0.9,0.9v12.2c0,0.5,0.4,0.9,0.9,0.9h4.6c0.5,0,0.9-0.4,0.9-0.9v-12.2
				C357.3,107.3,356.9,106.9,356.5,106.9z"/>
		</g>
	</g>
	<path class="st16" d="M370.3,241.8l-1.8,10.1c-0.1,0.3,0,0.7,0.1,1l2.7,9.1c0.3,0.9,1.1,1.5,2,1.5l0,0c1,0,1.8-0.7,2.1-1.6l1.9-7.8
		l3.2-10.9L370.3,241.8z"/>
	<path class="st16" d="M379.5,243.8l1.7,9.1c0.1,0.5-0.4,0.9-0.8,0.6c-0.8-0.4-2-1.5-3.1-4.1C375.5,244.8,379.5,243.8,379.5,243.8z"
		/>
	<circle class="st4" cx="204" cy="139.1" r="1.9"/>
	<g>
		<path class="st3" d="M191.8,139.1c0-11.1,9-20,20-20c11.1,0,20,9,20,20c0,11.1-9,20-20,20c-3.9,0-7.5-1.1-10.6-3
			c-2.1,0.7-5,1.2-8.9,1.1l3.9-5.5C193.4,148.2,191.8,143.8,191.8,139.1z"/>
		<g>
			<path class="st8" d="M205.6,138.8c0,1.2-1,2.1-2.1,2.1c-1.2,0-2.1-1-2.1-2.1c0-1.2,1-2.1,2.1-2.1
				C204.7,136.6,205.6,137.6,205.6,138.8z"/>
			<path class="st8" d="M213.9,138.8c0,1.2-1,2.1-2.1,2.1c-1.2,0-2.1-1-2.1-2.1c0-1.2,1-2.1,2.1-2.1
				C213,136.6,213.9,137.6,213.9,138.8z"/>
			<path class="st8" d="M222.3,138.8c0,1.2-1,2.1-2.1,2.1s-2.1-1-2.1-2.1c0-1.2,1-2.1,2.1-2.1S222.3,137.6,222.3,138.8z"/>
		</g>
	</g>
	<g>
		<path class="st3" d="M307.9,127.4c0-11.6-9.4-21-21-21c-11.6,0-21,9.4-21,21c0,11.6,9.4,21,21,21c4.1,0,7.9-1.2,11.1-3.2
			c2.2,0.7,5.3,1.3,9.4,1.1l-4.1-5.8C306.2,137,307.9,132.4,307.9,127.4z"/>
		<path class="st5" d="M286.8,135.3l-8.6-8.1c-1.6-2-1.2-5,0.8-6.6c2-1.6,5-1.2,6.6,0.8l1.2,1.6l1-1.4c1.5-2.1,4.5-2.5,6.5-1
			c2.1,1.5,2.5,4.5,1,6.5L286.8,135.3z"/>
	</g>
	<g>
		<g>
			<g>
				<g>
					<polygon class="st6" points="343.5,249.5 335.5,246.1 331.6,212.8 321.1,184.7 339.1,181.2 349.3,217.8 					"/>
				</g>
				<g>
					<g>
						<path class="st6" d="M341.3,255.1l-2.7,7c-0.1,0.2-0.1,0.4-0.1,0.7c0.1,0.7,0.4,2,1,1.6c0.7-0.5,3.8-8,3.8-8"/>
						<path class="st6" d="M334.9,249.1l0.5,2.3c0.1,0.4,0.1,0.8,0.1,1.2l-1.2,6.6c0,0,0.3,2,1.2,1.6c0.9-0.4,3.5-7.1,3.5-7.1
							l-3.1,8.1c-0.1,0.2-0.1,0.4-0.1,0.5c0.1,0.7,0.5,2.4,1.1,2c0.8-0.6,4.3-9.2,4.3-9.2"/>
						<path class="st6" d="M341.1,263.2c-0.2-0.3-0.2-0.9-0.1-1.6l2.1-4.6l-4.6-3l-3.6-4.8l1.2-3.9c0,0,5.5-2.2,9.2,5.6
							c0.3,0.5,0.3,1.1,0.3,1.7l-0.6,5c0,0.1-0.1,0.2-0.1,0.3c-0.5,0.9-2.6,5.7-2.9,5.9C341.8,263.8,341.3,263.5,341.1,263.2z"/>
					</g>
					<path class="st6" d="M336,251.4l-1.2-1.3c-0.6-0.6-1.3-0.2-2,0l-2.4,1c-0.3,0.1-0.6-0.1-0.6-0.4c0-0.6,0-1.9,1.5-2.7l5.3-3.1
						L336,251.4z"/>
				</g>
			</g>
			<path class="st6" d="M352.8,295.6c3.2,4.6,18.1,27.2,19,29c0.7,1.4-8.2,8-8.7,7.4c-2.4-3.1-21.1-25.6-22.9-27.8
				c-3-3.7-15.9-35-19.2-39.7l22.2-8.1C345.8,261.4,351.2,293.2,352.8,295.6z"/>
			<g>
				<path class="st8" d="M361.4,329.8l-9.9,19.4c-1.1,2.1,1.4,4.2,3.3,2.8l25.3-17.7c1.9-1.4-9.9-12.7-9.9-12.7l-0.2,1.8
					C369.5,327.7,365.6,330.6,361.4,329.8L361.4,329.8z"/>
				<path class="st7" d="M350.6,351.8l1.3,1.9c0.4,0.5,1.1,0.6,1.6,0.3l27.6-19.2c0.5-0.4,0.6-1.1,0.3-1.6l-1.3-1.9
					c-0.4-0.5-1.1-0.6-1.6-0.3l-27.6,19.2C350.4,350.6,350.3,351.3,350.6,351.8z"/>
				<path class="st7" d="M363.4,334.5c0.4,0,0.8-0.2,0.9-0.6c0.2-0.5-0.1-1.1-0.6-1.2l-3.4-1.2c-0.5-0.2-1,0.1-1.2,0.6
					c-0.2,0.5,0.1,1.1,0.6,1.2l3.4,1.2C363.1,334.5,363.3,334.5,363.4,334.5z"/>
				<path class="st7" d="M361.8,337.8c0.4,0,0.8-0.2,0.9-0.6c0.2-0.5-0.1-1-0.6-1.2l-3.4-1.2c-0.5-0.2-1,0.1-1.2,0.6
					c-0.2,0.5,0.1,1,0.6,1.2l3.4,1.2C361.6,337.8,361.7,337.8,361.8,337.8z"/>
				<path class="st7" d="M360.1,341.3c0.4,0,0.8-0.2,0.9-0.6c0.2-0.5-0.1-1-0.6-1.2l-3.4-1.2c-0.5-0.2-1,0.1-1.2,0.6
					c-0.2,0.5,0.1,1,0.6,1.2l3.4,1.2C359.9,341.3,360,341.3,360.1,341.3z"/>
			</g>
			<path class="st6" d="M314,295.8c0,5.5-5.7,41.2-5.9,43.2c-0.2,1.6-11.2,1.7-11.2,1c-0.3-3.9-0.1-43.1-0.3-45.9
				c-0.4-4.7,7.8-31.9,7.7-37.7l23,1.4C326.4,263.3,314,292.9,314,295.8z"/>
			<g>
				<path class="st8" d="M296.6,337.2l-19.1,10.4c-2,1.1-1.2,4.2,1.1,4.2l30.9-0.3c2.3-0.1-1-16.1-1-16.1l-1.2,1.4
					C304.6,340.1,299.7,340.3,296.6,337.2L296.6,337.2z"/>
				<path class="st7" d="M275.3,349.3l0,2.3c0,0.6,0.5,1.1,1.1,1.1l33.6-0.3c0.6,0,1.1-0.5,1.1-1.1l0-2.3c0-0.6-0.5-1.1-1.1-1.1
					l-33.6,0.3C275.8,348.2,275.3,348.7,275.3,349.3z"/>
				<path class="st7" d="M296.2,342.3c0.2,0,0.4-0.1,0.6-0.2c0.4-0.3,0.5-0.9,0.2-1.3l-2.1-2.9c-0.3-0.4-0.9-0.5-1.3-0.2
					c-0.4,0.3-0.5,0.9-0.2,1.3l2.1,2.9C295.6,342.2,295.9,342.3,296.2,342.3z"/>
				<path class="st7" d="M293.1,344.2c0.2,0,0.4-0.1,0.6-0.2c0.4-0.3,0.5-0.9,0.2-1.3l-2.1-2.9c-0.3-0.4-0.9-0.5-1.3-0.2
					c-0.4,0.3-0.5,0.9-0.2,1.3l2.1,2.9C292.5,344.1,292.7,344.2,293.1,344.2z"/>
				<path class="st7" d="M289.6,346.1c0.2,0,0.4-0.1,0.6-0.2c0.4-0.3,0.5-0.9,0.2-1.3l-2.1-2.9c-0.3-0.4-0.9-0.5-1.3-0.2
					c-0.4,0.3-0.5,0.9-0.2,1.3l2.1,2.9C289,346,289.3,346.1,289.6,346.1z"/>
			</g>
			<path class="st12" d="M322.2,174.3l16.6,2.7c1.5,0.3,3.1,0.7,4.5,1.4c7.5,3.8,8.1,13.9,6.9,18.8l-6.9,27.3l2.6,14.3l-7.8,2.4
				c-5.7,1.8-11.8,2.6-17.7,2.1c-5.9-0.4-9-1.9-14.2-5.1l0,0l3-25.4c-7-13.7,2.4-31.8,7-36.7c0.9-0.9,1.8-1.5,2.8-1.8
				C320,174.1,321.2,174.1,322.2,174.3z"/>
			<g>
				<defs>
					<path id="SVGID_1_" d="M322.2,174.3l16.6,2.7c1.5,0.3,3.1,0.7,4.5,1.4c7.5,3.8,8.1,13.9,6.9,18.8l-6.9,27.3l2.6,14.3l-7.8,2.4
						c-5.7,1.8-11.8,2.6-17.7,2.1c-5.9-0.4-9-1.9-14.2-5.1l0,0l3-25.4c-7-13.7,2.4-31.8,7-36.7c0.9-0.9,1.8-1.5,2.8-1.8
						C320,174.1,321.2,174.1,322.2,174.3z"/>
				</defs>
				<clipPath id="SVGID_2_">
					<use xlink:href="#SVGID_1_"  style="overflow:visible;"/>
				</clipPath>
				<g class="st18">
					<g>
						<path class="st19" d="M311.6,179.6c0,0,8.7,13.5,42.7,10.8"/>
						<path class="st19" d="M313.7,173.8c0,0,8.7,13.5,42.7,10.8"/>
						<path class="st19" d="M308.8,186.2c0,0,8.7,13.5,42.7,10.8"/>
						<path class="st19" d="M306.1,192.8c0,0,8.7,13.5,42.7,10.8"/>
						<path class="st19" d="M304,200c0,0,8.7,13.5,42.7,10.8"/>
						<path class="st19" d="M303.3,207.4c0,0,8.7,13.5,42.7,10.8"/>
						<path class="st19" d="M304,217c0,0,10.1,12.6,43.6,6.3"/>
					</g>
				</g>
			</g>
			<path class="st7" d="M307.2,229.3L307.2,229.3c8.1,1.9,16.4,1.8,24.5-0.2l11.9-2.9c0,0,4.3,14,9.3,45.3l-28.1,5
				c-9.7,1-19-2.6-28.1-6.1l0,0C302,253.5,307.2,229.3,307.2,229.3z"/>
			<path class="st6" d="M337.1,161.7l0.4,15.1c-0.2,1.6-4.4,5.5-8.7,6.2c-2.6,0.4-4.8-1.9-4.3-4.4l2-11.5L337.1,161.7z"/>
			<path class="st13" d="M324.8,176l0.9-5.2l9.4-4l-0.4,2.1C334.7,168.8,333.3,172.3,324.8,176z"/>
			<path class="st6" d="M337.2,171.4l-15.2-0.1c-2.2,0-4-1.1-5.1-2.8c-0.8-1.3-1-3-0.7-4.5l1.8-12.7l18.6,1.5L337.2,171.4z"/>
			<path class="st5" d="M318.1,151.3c-0.5,0.7,13.8,14,17.4,12.8l2.3,0.3c0,0,10.4-7.3,1.9-17.6
				C334.9,140.8,322.5,145.2,318.1,151.3z"/>
			<path class="st14" d="M320.2,157.6c0,0.3-0.3,0.6-0.6,0.6s-0.6-0.3-0.6-0.6c0-0.3,0.3-0.6,0.6-0.6
				C320,157,320.2,157.3,320.2,157.6z"/>
			<path class="st14" d="M319.8,163.8c0.7-0.2,1.4-0.6,2.1-1.3c0.1-0.1,0.1-0.1,0-0.2c0-0.1-0.1-0.1-0.2,0c-2.4,2.3-4.5,1-4.6,0.9
				c-0.1,0-0.1,0-0.2,0c0,0.1,0,0.1,0,0.2C317,163.4,318.2,164.2,319.8,163.8z"/>
			<path class="st6" d="M317.6,155.3l-2.2,3.2c-0.3,0.4-0.2,1,0.2,1.3l1.2,1.1L317.6,155.3z"/>
			<g>
				<polygon class="st6" points="300.5,255.2 296.7,247.4 316,219.9 326.8,191.9 342.5,201.3 325.8,235.4 				"/>
			</g>
			<g>
				<g>
					<path class="st6" d="M295.7,258.3l-6.2,4.2c-0.2,0.1-0.3,0.3-0.4,0.5c-0.3,0.6-0.8,1.9-0.1,1.9c0.9,0,7.7-4.4,7.7-4.4"/>
					<path class="st6" d="M293.9,249.7l-0.9,2.2c-0.2,0.4-0.4,0.7-0.7,1.1l-4.8,4.7c0,0-0.9,1.8,0,2c0.9,0.2,6.9-3.8,6.9-3.8
						l-7.2,4.9c-0.2,0.1-0.3,0.2-0.4,0.4c-0.3,0.6-1,2.3-0.2,2.3c1,0,8.8-5.1,8.8-5.1"/>
					<path class="st6" d="M290.9,264.8c0.1-0.4,0.4-0.9,0.8-1.4l4.3-2.5l-2-5.1l-0.2-6l3.2-2.5c0,0,5.8,1.3,4.4,9.8
						c-0.1,0.6-0.4,1.1-0.8,1.6l-3.4,3.8c-0.1,0.1-0.2,0.1-0.3,0.2c-0.9,0.5-5.4,3.2-5.8,3.2C291.1,265.7,290.9,265.1,290.9,264.8z"
						/>
				</g>
				<path class="st6" d="M293.4,252.2l-0.2-1.8c-0.1-0.8-0.9-0.9-1.7-1.2l-2.5-0.6c-0.3-0.1-0.5-0.5-0.3-0.7
					c0.4-0.5,1.1-1.5,2.8-1.4l6.1,0.4L293.4,252.2z"/>
			</g>
		</g>
		<g>
			<path class="st12" d="M341.5,146.6c0,0.6-0.5,1-1,1c-0.6,0-1-0.5-1-1c0-0.6,0.5-1,1-1C341.1,145.5,341.5,146,341.5,146.6z"/>
			<path class="st12" d="M321.5,145.2l20.7,15.8C342.2,161.1,349.9,137.7,321.5,145.2z"/>
			<path class="st12" d="M328.5,150.6c0,0-14.7-9.3-8.6-9.1C328.1,141.7,328.5,150.6,328.5,150.6z"/>
		</g>
		<path class="st5" d="M333.7,161c0,0,13.4,3,11.5,15.5c-1.9,12.5-18,11.7-21.8,12.5c-3.7,0.8-7,5.8-6,9.3c0,0-9.6-5.4-2.9-16.2
			c6.7-10.9,22.2-10.4,19.8-15.3C332,162,333.7,161,333.7,161z"/>
		<path class="st6" d="M337.9,165.4c-1.3,1.7-3.7,2-5.4,0.7c-1.7-1.3-2-3.7-0.7-5.4c1.3-1.7,3.7-2,5.4-0.7
			C338.9,161.4,339.2,163.8,337.9,165.4z"/>
		<g>
			<polygon class="st14" points="334.1,164 335.9,162.3 335.7,162.1 334,163.9 			"/>
			<polygon class="st14" points="335.7,163.9 335.9,163.8 334.1,162.2 334,162.4 			"/>
		</g>
	</g>
</g>
<g id="DESIGNED_BY_FREEPIK">
</g>
</svg>
