<?xml version="1.0" encoding="utf-8"?>
<!-- Generator: Adobe Illustrator 23.0.5, SVG Export Plug-In . SVG Version: 6.00 Build 0)  -->
<svg version="1.1" xmlns="http://www.w3.org/2000/svg" xmlns:xlink="http://www.w3.org/1999/xlink" x="0px" y="0px"
	 viewBox="0 0 3710 3710" style="enable-background:new 0 0 3710 3710;" xml:space="preserve">
<style type="text/css">
	.st0{fill:#FFFFFF;}
	.st1{fill:url(#SVGID_1_);}
	.st2{fill:#91B3FA;}
	.st3{opacity:0.43;fill:#FFFFFF;}
	.st4{fill:#BDD0FB;}
	.st5{opacity:0.3;}
	.st6{fill:url(#SVGID_2_);}
	.st7{fill:url(#SVGID_3_);}
	.st8{opacity:0.56;fill:#BDD0FB;}
	.st9{fill:url(#SVGID_4_);}
	.st10{fill:url(#SVGID_5_);}
	.st11{fill:url(#SVGID_6_);}
	.st12{fill:url(#SVGID_7_);}
	.st13{fill:url(#SVGID_8_);}
	.st14{fill:url(#SVGID_9_);}
	.st15{fill:url(#SVGID_10_);}
	.st16{fill:url(#SVGID_11_);}
	.st17{fill:url(#SVGID_12_);}
	.st18{fill:url(#SVGID_13_);}
	.st19{fill:url(#SVGID_14_);}
	.st20{fill:url(#SVGID_15_);}
	.st21{fill:url(#SVGID_16_);}
	.st22{fill:url(#SVGID_17_);}
	.st23{fill:url(#SVGID_18_);}
	.st24{fill:url(#SVGID_19_);}
	.st25{fill:url(#SVGID_20_);}
	.st26{fill:url(#SVGID_21_);}
	.st27{fill:url(#SVGID_22_);}
	.st28{fill:url(#SVGID_23_);}
	.st29{fill:url(#SVGID_24_);}
	.st30{fill:url(#SVGID_25_);}
	.st31{fill:url(#SVGID_26_);}
	.st32{fill:url(#SVGID_27_);}
	.st33{fill:url(#SVGID_28_);}
	.st34{fill:url(#SVGID_29_);}
	.st35{fill:url(#SVGID_30_);}
	.st36{fill:url(#SVGID_31_);}
	.st37{fill:url(#SVGID_32_);}
	.st38{fill:url(#SVGID_33_);}
	.st39{fill:url(#SVGID_34_);}
	.st40{fill:url(#SVGID_35_);}
	.st41{fill:url(#SVGID_36_);}
	.st42{fill:url(#SVGID_37_);}
	.st43{fill:url(#SVGID_38_);}
	.st44{fill:url(#SVGID_39_);}
	.st45{fill:url(#SVGID_40_);}
	.st46{opacity:0.37;fill:#FFFFFF;}
	.st47{fill:url(#SVGID_41_);}
	.st48{fill:url(#SVGID_42_);}
	.st49{fill:url(#SVGID_43_);}
	.st50{fill:url(#SVGID_44_);}
	.st51{fill:url(#SVGID_45_);}
	.st52{fill:url(#SVGID_46_);}
	.st53{fill:url(#SVGID_47_);}
	.st54{fill:url(#SVGID_48_);}
	.st55{fill:url(#SVGID_49_);}
	.st56{fill:url(#SVGID_50_);}
	.st57{fill:url(#SVGID_51_);}
	.st58{fill:url(#SVGID_52_);}
	.st59{fill:url(#SVGID_53_);}
	.st60{fill:url(#SVGID_54_);}
	.st61{fill:url(#SVGID_55_);}
	.st62{fill:url(#SVGID_56_);}
	.st63{fill:url(#SVGID_57_);}
	.st64{fill:#3840F7;}
	.st65{fill:url(#SVGID_58_);}
	.st66{fill:url(#SVGID_59_);}
	.st67{fill:url(#SVGID_60_);}
	.st68{fill:url(#SVGID_61_);}
	.st69{fill:url(#SVGID_62_);}
	.st70{fill:url(#SVGID_63_);}
	.st71{fill:url(#SVGID_64_);}
	.st72{fill:url(#SVGID_65_);}
	.st73{fill:url(#SVGID_66_);}
	.st74{fill:url(#SVGID_67_);}
	.st75{fill:url(#SVGID_68_);}
	.st76{fill:url(#SVGID_69_);}
	.st77{fill:url(#SVGID_70_);}
	.st78{fill:url(#SVGID_71_);}
	.st79{fill:url(#SVGID_72_);}
	.st80{fill:url(#SVGID_73_);}
	.st81{fill:url(#SVGID_74_);}
	.st82{fill:url(#SVGID_75_);}
	.st83{fill:url(#SVGID_76_);}
	.st84{fill:url(#SVGID_77_);}
	.st85{fill:url(#SVGID_78_);}
	.st86{fill:url(#SVGID_79_);}
</style>
<g id="Background">
	<g>
		<g>
			<rect class="st0" width="3710" height="3710"/>
		</g>
	</g>
</g>
<g id="Illustration">
	<g>
		<linearGradient id="SVGID_1_" gradientUnits="userSpaceOnUse" x1="3995.4172" y1="4584.3052" x2="946.9965" y2="798.3578">
			<stop  offset="0" style="stop-color:#DAE3FE"/>
			<stop  offset="1" style="stop-color:#E9EFFD"/>
		</linearGradient>
		<path class="st1" d="M3166.6,3084.5c-70.6,73.3-137.3,120.6-190.1,158c-620,439.3-1353.7,311.2-1509.6,280
			c-230.3-46.2-675.3-135.4-997.1-509.1C-17,2448.1,58.8,1557.5,436.4,969.6c69.1-107.5,433.9-704.4,1175.5-800.1
			c448.8-57.9,971.9,58.9,1350.8,372.3C3757.9,1199.7,3701.3,2528.6,3166.6,3084.5z"/>
		<g>
			<g>
				<path class="st2" d="M3401.4,489.7c-5.5-18.3-31.8-17.1-35.5,1.6c-35.7,180.9-144.2,652.2-347.6,913.7
					c-331.3,425.9-521.7,1090.2-263.1,1406.1C2755.1,2811.2,3997.3,2480,3401.4,489.7z"/>
				<path class="st3" d="M3386.3,744.9c0,5.8-0.4,10.6-0.7,15.8l-1.1,15.3l-2.6,30.5c-1.8,20.3-4,40.6-6.2,60.8
					c-4.5,40.5-9.4,81-14.8,121.4c-10.8,80.8-23.8,161.3-38,241.6c-14.1,80.3-30.4,160.3-48.5,239.8
					c-18.1,79.5-37.3,158.8-59.2,237.5c-43.3,157.3-95.3,312.4-158,463.3c-32.1,75.1-66.2,149.3-104.6,221.5
					c-38.9,71.8-80.8,142-127.6,208.9c-1,1.5-3,1.8-4.5,0.8c-1.4-1-1.8-2.9-0.9-4.4l0,0c44.1-68.4,84.4-139,121.1-211.4
					c37-72.3,69.7-146.8,100.5-221.9c30.7-75.2,58.4-151.6,84.3-228.6c25.9-77,48.6-155.1,70.9-233.2
					c43.9-156.6,79.4-315.4,110.5-475.1c15.4-79.9,29.2-160.1,41.5-240.5c6.2-40.2,12.1-80.5,17.5-120.8l7.6-60.5l3.5-30.3l1.6-15.2
					c0.4-5,1-10.3,1.2-14.7l0-0.7c0.1-1.8,1.6-3.1,3.3-3C3385,741.8,3386.3,743.3,3386.3,744.9z"/>
			</g>
			<g>
				<path class="st4" d="M2756.5,136.2c-10-15.3-33.9-7-32.1,11.2c16.6,175.6,45.7,637.4-69.5,932.8
					c-187.6,481-181,1142.1,142.3,1361.2C2797.2,2441.4,3846,1798.8,2756.5,136.2z"/>
				<path class="st3" d="M2812.4,374.3c1.6,5.3,2.5,9.9,3.7,14.7l3.2,14.3l6,28.7c3.9,19.1,7.4,38.3,11,57.5
					c7,38.4,13.5,76.8,19.6,115.4c12.1,77.1,22.2,154.4,31.1,232c9,77.5,15.8,155.3,21,233.2c5.1,77.9,9.1,155.9,10.5,233.9
					c3.2,156.1-2.2,312.5-18.5,468c-9,77.6-20,155-35.5,231.6c-16.1,76.5-35.4,152.3-60.1,226.4c-0.5,1.6-2.3,2.5-4,2
					c-1.6-0.5-2.5-2.2-2-3.8l0,0c21.7-74.7,39.4-150.5,53.4-226.9c14.2-76.4,23.9-153.6,31.5-230.9c7.6-77.3,12.2-155,15-232.7
					c2.7-77.7,2.3-155.5,1.4-233.2c-2.5-155.5-13.2-310.9-28.3-465.8c-7.7-77.4-16.9-154.7-27.5-231.9
					c-5.2-38.6-10.8-77.1-16.9-115.5l-9.6-57.6l-5.1-28.7l-2.7-14.3c-1-4.7-1.9-9.7-2.9-13.8l-0.2-0.7c-0.4-1.7,0.6-3.3,2.3-3.8
					C2810.3,371.8,2812,372.7,2812.4,374.3z"/>
			</g>
		</g>
		<g>
			<g>
				<g class="st5">
					<path class="st4" d="M1123.9,729c6.3-1,12.5,2.9,14.2,9.2c3.7,13.8,6.9,28,9.5,42.1c1.2,6.9-3.3,13.5-10.2,14.7
						c-0.1,0-0.2,0-0.2,0c-6.8,1.1-13.2-3.4-14.5-10.2c-2.4-13.4-5.5-26.9-9-40c-1.8-6.8,2.2-13.7,8.9-15.5
						C1123,729.1,1123.5,729,1123.9,729z M1140.7,838.1c0.5-0.1,1-0.1,1.5-0.2c7-0.3,12.9,5.1,13.2,12.1c0.6,14.4,0.6,28.9,0,43.2
						c-0.3,7-6.2,12.4-13.2,12.1c-7-0.3-12.4-6.2-12.1-13.2c0.6-13.6,0.6-27.4,0-41C1129.8,844.6,1134.4,839.1,1140.7,838.1z
						 M1133,948.1c1.4-0.2,2.8-0.2,4.3,0.1c6.9,1.3,11.4,7.9,10.2,14.8c-2.6,14.1-5.8,28.3-9.6,42.1c-1.9,6.7-8.8,10.7-15.6,8.9
						c-6.7-1.9-10.7-8.8-8.9-15.6c3.6-13.1,6.7-26.6,9.2-40C1123.6,952.9,1127.9,949,1133,948.1z M1101,1053.7
						c2.3-0.4,4.7-0.1,7,0.9c6.4,2.8,9.4,10.2,6.6,16.7c-5.7,13.2-12,26.3-18.8,38.9c-3.3,6.2-11,8.5-17.2,5.2
						c-6.2-3.3-8.5-11-5.2-17.2c6.4-12,12.5-24.4,17.9-37C1093.1,1057.1,1096.8,1054.4,1101,1053.7z M1046.1,1149.5
						c3.2-0.5,6.7,0.2,9.5,2.3c5.6,4.1,6.9,12.1,2.7,17.7c-8.5,11.6-17.5,22.9-26.9,33.7c-4.6,5.3-12.6,5.8-17.9,1.2
						c-5.3-4.6-5.8-12.6-1.2-17.9c9-10.3,17.6-21.1,25.6-32.1C1040,1151.8,1043,1150.1,1046.1,1149.5z M971.5,1230.8
						c4.2-0.7,8.6,0.8,11.6,4.2c4.6,5.3,4,13.3-1.2,17.9c-10.8,9.4-22.2,18.5-33.7,27c-5.7,4.1-13.6,2.9-17.7-2.8
						c-4.1-5.6-2.9-13.6,2.7-17.7c11-8,21.8-16.7,32.1-25.6C967.1,1232.2,969.2,1231.2,971.5,1230.8z M518,1334.6
						c1.7-0.3,3.5-0.2,5.3,0.3c13.1,3.6,26.6,6.6,40,9.1c6.9,1.3,11.4,7.9,10.2,14.7c-1.3,6.9-7.8,11.4-14.7,10.2
						c-14.1-2.6-28.3-5.8-42.1-9.6c-6.8-1.8-10.7-8.8-8.9-15.6C509.2,1338.8,513.3,1335.4,518,1334.6z M880.7,1293.5
						c5.2-0.8,10.6,1.6,13.2,6.5c3.3,6.2,1,13.8-5.2,17.2c-12.6,6.8-25.7,13.1-38.9,18.8c-6.4,2.7-13.9-0.2-16.6-6.6
						c-2.8-6.4,0.2-13.9,6.6-16.6c12.5-5.4,24.9-11.4,36.9-17.8C878.1,1294.2,879.4,1293.7,880.7,1293.5z M627.1,1351.5
						c0.8-0.1,1.7-0.2,2.5-0.2c13.6,0.6,27.4,0.5,41.1-0.1c7-0.3,12.9,5.1,13.2,12.1c0.3,7-5.1,12.9-12.1,13.2
						c-14.3,0.6-28.9,0.7-43.2,0.1c-7-0.3-12.4-6.2-12.1-13.2C616.7,1357.3,621.3,1352.4,627.1,1351.5z M778.3,1334.4
						c6.3-1,12.5,2.9,14.2,9.2c1.8,6.8-2.1,13.7-8.9,15.6c-13.8,3.8-28,7-42.1,9.6c-0.1,0-0.2,0-0.3,0c-6.8,1.1-13.2-3.4-14.5-10.2
						c-1.3-6.9,3.3-13.5,10.2-14.7c13.4-2.5,26.9-5.5,40-9.1C777.4,1334.5,777.8,1334.4,778.3,1334.4z"/>
					<path class="st4" d="M434.7,1303.5c2.5-0.4,5.1-0.1,7.5,1.1c5.9,2.8,11.9,5.6,18,8.2c6.4,2.8,9.4,10.2,6.6,16.6
						c-2.8,6.4-10.2,9.4-16.6,6.6c-6.3-2.7-12.7-5.6-18.9-8.6c-6.3-3-9-10.6-5.9-16.9C427.1,1306.6,430.7,1304.1,434.7,1303.5z"/>
				</g>
				<g class="st5">
					<path class="st4" d="M179.4,1013.7c6-1,12.1,2.5,14,8.5c2,6.2,4.3,12.5,6.6,18.6c2.5,6.5-0.8,13.9-7.4,16.3
						c-6.6,2.5-13.9-0.8-16.3-7.4c-2.4-6.5-4.8-13.1-6.9-19.6c-2.2-6.6,1.4-13.8,8.1-16C178.1,1013.9,178.7,1013.8,179.4,1013.7z"/>
					<path class="st4" d="M568.7,371.6c5.8-0.9,11.5-1.8,17.4-2.5c6.9-0.9,13.3,4,14.2,11c0.9,6.9-4.1,13.3-11,14.2
						c-13.5,1.7-26.8,4-39.8,6.7c-6.9,1.4-13.6-2.9-15-9.8c-1.5-6.8,2.9-13.6,9.8-15C552.2,374.4,560.5,372.9,568.7,371.6z
						 M652.8,365.2c0.7-0.1,1.4-0.2,2.2-0.2c14.1,0.1,28.4,0.9,42.5,2.2c7,0.7,12.1,6.8,11.4,13.8c-0.7,7-6.8,12.1-13.8,11.4
						c-13.3-1.2-26.9-1.9-40.3-2.1c-7-0.1-12.6-5.8-12.5-12.8C642.2,371.3,646.8,366.1,652.8,365.2z M480.1,394.5
						c5.9-1,11.8,2.4,13.9,8.2c2.4,6.6-1,13.8-7.6,16.2c-12.6,4.5-25.2,9.7-37.4,15.3c-6.4,2.9-13.9,0.1-16.8-6.2
						c-2.9-6.4-0.1-13.9,6.2-16.8c12.8-5.9,26.1-11.3,39.3-16.1C478.5,394.8,479.3,394.6,480.1,394.5z M760.7,378.1
						c1.6-0.3,3.2-0.2,4.9,0.2c13.7,3.2,27.5,7.1,40.9,11.5c6.7,2.2,10.3,9.3,8.1,16c-2.2,6.7-9.3,10.3-16,8.1
						c-12.7-4.2-25.8-7.8-38.9-10.9c-6.8-1.6-11-8.4-9.4-15.2C751.6,382.6,755.8,378.9,760.7,378.1z M382.7,442.4
						c4.8-0.8,9.9,1.3,12.7,5.7c3.8,5.9,2,13.7-3.9,17.5c-11.3,7.2-22.4,15-33.1,23.1c-5.6,4.2-13.5,3.2-17.8-2.4
						c-4.2-5.6-3.2-13.5,2.4-17.8c11.2-8.6,22.9-16.8,34.8-24.3C379.4,443.2,381,442.6,382.7,442.4z M298.1,510.5
						c3.9-0.6,8,0.5,11,3.5c5,4.9,5,13,0.1,17.9c-9.5,9.5-18.6,19.5-27.3,29.8c-4.5,5.4-12.5,6.1-17.8,1.5c-5.4-4.5-6-12.5-1.5-17.9
						c9.1-10.8,18.7-21.3,28.7-31.4C293.1,512.1,295.6,510.9,298.1,510.5z M230.5,595.4c2.9-0.5,6.1,0.1,8.8,1.8
						c5.9,3.7,7.7,11.6,4,17.5c-7.2,11.4-13.9,23.1-20.1,35c-3.2,6.2-10.9,8.6-17.1,5.4c-6.2-3.2-8.6-10.9-5.4-17.1
						c6.5-12.5,13.6-24.9,21.2-36.9C223.8,598,227,596,230.5,595.4z M182.9,693.1c2-0.3,4.2-0.2,6.3,0.6c6.6,2.3,10,9.6,7.7,16.2
						c-4.5,12.6-8.5,25.6-11.9,38.6c-1.8,6.8-8.7,10.8-15.5,9c-6.8-1.8-10.8-8.7-9-15.5c3.6-13.6,7.8-27.3,12.6-40.6
						C174.6,696.8,178.5,693.8,182.9,693.1z M158,798.8c1.1-0.2,2.3-0.2,3.5-0.1c6.9,0.8,11.9,7.2,11.1,14.1
						c-1.6,13.3-2.7,26.8-3.1,40.2c-0.3,7-6.1,12.5-13.1,12.2c-7-0.2-12.5-6.1-12.2-13.1c0.5-14.1,1.6-28.4,3.3-42.4
						C148.1,804.1,152.6,799.7,158,798.8z M156.9,907.4c0.3,0,0.5-0.1,0.8-0.1c7-0.7,13.2,4.4,13.9,11.4c1,9.8,2.3,19.7,3.8,29.5
						c0.6,3.5,1.2,7,1.8,10.5c1.3,6.9-3.3,13.5-10.2,14.8c-6.9,1.4-13.5-3.3-14.7-10.2c-0.7-3.7-1.3-7.4-1.9-11.1
						c-1.7-10.2-3-20.7-4-31C145.6,914.5,150.3,908.5,156.9,907.4z"/>
					<path class="st4" d="M863.3,414.7c2.5-0.4,5.1-0.1,7.5,1.1c6.2,3,12.4,6.2,18.5,9.5c6.2,3.3,8.5,11,5.2,17.2
						c-3.3,6.2-11,8.5-17.2,5.2c-5.8-3.1-11.7-6.1-17.6-9c-6.3-3.1-8.9-10.6-5.9-16.9C855.8,417.8,859.4,415.3,863.3,414.7z"/>
				</g>
				<g>
					<path class="st4" d="M869.8,562.5c-1.9-1.7-4.6-2-6.8-0.7l-62.8,35.3c-29.6-16-62-27.4-96.1-33.3l-27.5-66.6
						c-1-2.3-3.3-3.8-5.8-3.7l-86.3,5.1c-2.5,0.2-4.7,1.9-5.4,4.3l-19.4,69.4c-33.2,9.9-64,25-91.5,44.4L401.8,589
						c-2.3-1-5-0.4-6.7,1.5l-57.4,64.6c-1.7,1.9-2,4.6-0.7,6.8l35.3,62.8c-16,29.6-27.4,62-33.3,96.1l-66.6,27.5
						c-2.3,1-3.8,3.3-3.7,5.8l5.1,86.3c0.1,2.5,1.9,4.7,4.3,5.4l69.4,19.4c9.9,33.2,25,64,44.4,91.5l-27.7,66.5
						c-1,2.3-0.4,5,1.5,6.7l64.6,57.4c1.9,1.7,4.6,2,6.8,0.7l62.8-35.3c29.6,16,62,27.4,96.1,33.3l27.5,66.6c1,2.3,3.3,3.8,5.8,3.7
						l86.3-5.1c2.5-0.1,4.7-1.9,5.4-4.3l19.4-69.4c33.2-9.9,64-25,91.5-44.4l66.5,27.7c2.3,1,5,0.4,6.7-1.5l57.4-64.6
						c1.7-1.9,2-4.6,0.7-6.8L928,1025c16-29.6,27.4-62,33.3-96.1l66.6-27.5c2.3-1,3.8-3.3,3.7-5.8l-5.1-86.3
						c-0.1-2.5-1.9-4.7-4.3-5.4l-69.4-19.4c-9.9-33.2-25-64-44.4-91.5l27.7-66.5c1-2.3,0.4-5-1.5-6.7L869.8,562.5z"/>
					<linearGradient id="SVGID_2_" gradientUnits="userSpaceOnUse" x1="563.2117" y1="874.9394" x2="737.0029" y2="874.9394">
						<stop  offset="0" style="stop-color:#DAE3FE"/>
						<stop  offset="1" style="stop-color:#E9EFFD"/>
					</linearGradient>
					<path class="st6" d="M636.3,789.1c41.8-6.8,83.5,18,96.6,59.6c14.5,45.7-11,94.6-56.6,109.1c-22.1,7-45.7,5-66.3-5.7
						c-20.6-10.7-35.8-28.8-42.8-50.9c-14.5-45.7,11-94.6,56.6-109.1C628,790.8,632.2,789.8,636.3,789.1z M660.6,940.7
						c3.2-0.5,6.4-1.3,9.6-2.3c35-11.1,54.5-48.6,43.4-83.6c-11.1-35-48.6-54.5-83.6-43.4c-35,11.1-54.5,48.6-43.4,83.6
						c5.4,17,17,30.8,32.8,39C632.2,940.7,646.6,943,660.6,940.7z"/>
					<linearGradient id="SVGID_3_" gradientUnits="userSpaceOnUse" x1="435.3487" y1="876.3933" x2="862.6551" y2="876.3933">
						<stop  offset="0" style="stop-color:#DAE3FE"/>
						<stop  offset="1" style="stop-color:#E9EFFD"/>
					</linearGradient>
					<path class="st7" d="M614.6,665.5c7.2-1.2,14.5-2,21.8-2.4l0,0c2.3-0.1,4.6-0.2,7-0.3c11.4-0.3,22.9,0.3,34.2,1.8
						c0.2,0,0.3,0,0.5,0.1c0.4,0.1,0.9,0.1,1.3,0.2c0.8,0.1,1.7,0.2,2.5,0.4c2.2,0.3,3.9,2.1,4.2,4.2c0.1,0.5,0.1,1,0,1.6
						c-0.4,2.8-3,4.7-5.8,4.2c-14.2-2.2-28.8-2.9-43.3-2c-72,4.2-133.1,45.6-165.9,104.4c-18.2,32.7-27.6,70.7-25.3,110.8
						c0.4,7,1.2,14,2.3,20.8c7.4,46.1,30.3,87.9,65.7,119.3c40.6,36.1,92.9,54.2,147.2,51c112.1-6.6,197.8-103.2,191.1-215.2
						c-0.4-6.9-1.2-13.8-2.3-20.6c-4.8-29.4-15.9-57.4-32.7-82.1c-0.4-0.6-0.7-1.3-0.8-2c-0.3-1.9,0.5-3.8,2.1-5
						c2.3-1.6,5.5-1,7,1.3c17.7,25.8,29.3,55.3,34.3,86.2c1.2,7.1,1.9,14.3,2.4,21.6c7,117.6-83.1,218.9-200.7,225.9
						c-57,3.4-111.8-15.6-154.5-53.5c-37.1-33-61.2-76.9-69-125.3c-1.2-7.2-2-14.5-2.4-21.9c-3.4-57,15.6-111.8,53.5-154.5
						C522.3,697.4,566.2,673.3,614.6,665.5z"/>
				</g>
			</g>
			<g>
				<g class="st5">
					<path class="st4" d="M1497.5,330.5c3.3-0.5,6.8,1.1,8.3,4.4c2.9,6,5.6,12.2,8.1,18.3c1.6,4-0.3,8.6-4.3,10.2
						c-4,1.6-8.6-0.3-10.2-4.3c-2.4-5.9-5-11.7-7.7-17.5c-1.9-3.9-0.2-8.6,3.7-10.4C1496,330.8,1496.8,330.6,1497.5,330.5z"/>
					<path class="st4" d="M1518.3,387c3.9-0.6,7.8,1.8,8.8,5.7c3,11,5.4,22.4,7.2,33.7c0.4,2.4,0.7,4.8,1.1,7.2
						c0.6,4.3-2.6,8.1-6.7,8.8c-4.3,0.6-8.2-2.4-8.8-6.7c-0.3-2.3-0.7-4.6-1-6.8c-1.7-10.8-4.1-21.6-6.9-32.1
						c-1.1-4.2,1.4-8.5,5.5-9.6C1517.8,387.1,1518.1,387,1518.3,387z M1529.6,467.4c0.4-0.1,0.7-0.1,1.1-0.1c4.3-0.1,7.9,3.4,8,7.7
						c0.2,13.9-0.4,27.9-1.8,41.6c-0.5,4.3-4.3,7.4-8.6,7c-4.3-0.5-7.4-4.3-7-8.6c1.4-13.1,2-26.5,1.8-39.7
						C1522.9,471.3,1525.8,468,1529.6,467.4z M1521,548.2c1-0.2,2-0.1,3,0.1c4.2,1,6.8,5.2,5.8,9.4c-3.2,13.5-7.2,26.9-12,39.9
						c-1.5,4.1-6,6.1-10.1,4.6c-4.1-1.5-6.1-6-4.6-10.1c4.6-12.4,8.4-25.2,11.5-38.1C1515.4,551,1517.9,548.7,1521,548.2z
						 M1492.8,624.4c1.6-0.3,3.3,0,4.8,0.8c3.8,2,5.3,6.7,3.3,10.6c-6.4,12.3-13.6,24.3-21.4,35.7c-2.4,3.6-7.3,4.5-10.9,2
						c-3.6-2.4-4.5-7.3-2-10.9c7.5-10.9,14.3-22.3,20.4-34.1C1488.3,626.2,1490.4,624.8,1492.8,624.4z M1446.8,691.4
						c2.2-0.4,4.6,0.2,6.4,1.9c3.2,2.9,3.5,7.8,0.7,11c-9.2,10.4-19.1,20.3-29.4,29.5c-3.2,2.9-8.2,2.6-11-0.7
						c-2.9-3.2-2.6-8.2,0.7-11c9.9-8.7,19.3-18.2,28.1-28.1C1443.5,692.5,1445.1,691.7,1446.8,691.4z M1386,745.2
						c2.9-0.5,5.9,0.7,7.7,3.3c2.4,3.6,1.5,8.4-2,10.9c-11.4,7.8-23.4,15-35.7,21.4c-3.9,2-8.6,0.5-10.5-3.4
						c-2-3.8-0.5-8.6,3.4-10.5c11.7-6.1,23.2-12.9,34.1-20.4C1383.8,745.8,1384.9,745.4,1386,745.2z M1313.9,782.5
						c3.6-0.6,7.3,1.5,8.6,5c1.5,4.1-0.6,8.6-4.6,10.1c-13,4.8-26.4,8.8-39.9,12c-4.2,0.9-8.4-1.6-9.4-5.8c-1-4.2,1.6-8.4,5.8-9.4
						c12.9-3,25.7-6.9,38.1-11.4C1312.9,782.7,1313.4,782.6,1313.9,782.5z M1194.1,802.9c0.4-0.1,0.9-0.1,1.4-0.1
						c11.4,0.2,23-0.3,34.5-1.3c1.7-0.2,3.5-0.3,5.2-0.5c4.3-0.5,8.2,2.6,8.6,6.9c0.5,4.3-2.6,8.3-6.9,8.6c-1.8,0.2-3.6,0.4-5.5,0.5
						c-12,1.1-24.2,1.6-36.2,1.4c-4.3-0.1-7.8-3.6-7.7-7.9C1187.6,806.6,1190.5,803.5,1194.1,802.9z"/>
				</g>
				<g class="st5">
					<path class="st4" d="M1142.4,147.6c4.2-0.7,8.2,2.2,9,6.4c0.7,4.3-2.1,8.3-6.4,9.1c-12.8,2.2-25.6,5.3-38,9
						c-4.1,1.2-8.5-1.1-9.8-5.2c-1.3-4.1,1.1-8.5,5.2-9.8c13-3.9,26.4-7.1,39.8-9.5C1142.3,147.6,1142.3,147.6,1142.4,147.6z
						 M1182.1,143.1c0.3,0,0.6-0.1,0.8-0.1c13.6-0.7,27.4-0.6,41,0.3c4.3,0.3,7.6,4,7.3,8.3c-0.3,4.3-4,7.6-8.3,7.3
						c-13-0.9-26.1-1-39.1-0.3c-4.3,0.2-8-3.1-8.2-7.4C1175.4,147.2,1178.2,143.7,1182.1,143.1z M1065.9,170.8
						c3.4-0.6,6.9,1.2,8.4,4.6c1.7,3.9,0,8.6-4,10.3c-11.9,5.3-23.6,11.3-34.7,18c-3.7,2.2-8.5,1-10.7-2.7c-2.2-3.7-1-8.5,2.7-10.7
						c11.7-7,23.9-13.3,36.4-18.8C1064.6,171.1,1065.2,170.9,1065.9,170.8z M1261.9,148.5c0.9-0.1,1.8-0.1,2.7,0
						c13.4,2.6,26.8,6,39.7,10.2c4.1,1.3,6.4,5.7,5,9.9c-1.3,4.1-5.7,6.4-9.8,5c-12.4-4-25.1-7.2-37.9-9.7c-4.2-0.8-7-4.9-6.2-9.2
						C1256.1,151.5,1258.7,149,1261.9,148.5z M997.3,211.8c2.7-0.4,5.6,0.6,7.4,2.9c2.7,3.4,2,8.3-1.4,11
						c-10.3,8-20.1,16.6-29.4,25.8c-3.1,3.1-8,3-11.1,0c-3-3.1-3-8,0-11.1c9.7-9.6,20-18.7,30.8-27
						C994.8,212.5,996.1,212,997.3,211.8z M940.6,268c2.1-0.3,4.3,0.2,6.1,1.6c3.4,2.7,4,7.6,1.3,11c-8.1,10.2-15.6,21-22.4,32.1
						c-2.3,3.7-7.1,4.9-10.8,2.6c-3.7-2.3-4.8-7.1-2.6-10.8c7.1-11.6,15-22.9,23.4-33.6C936.9,269.3,938.7,268.3,940.6,268z
						 M898.9,336.2c1.5-0.2,3-0.1,4.5,0.6c3.9,1.8,5.7,6.4,3.9,10.4c-5.4,11.8-10.1,24.1-14,36.5c-1.3,4.1-5.7,6.4-9.8,5.1
						c-4.1-1.3-6.4-5.7-5.1-9.8c4.1-13,9-25.8,14.7-38.3C894.2,338.2,896.4,336.6,898.9,336.2z"/>
					<path class="st4" d="M1338.3,173.2c1.5-0.2,3.1-0.1,4.5,0.6c6.1,2.8,12.1,5.8,17.9,9c3.8,2,5.2,6.8,3.2,10.6
						c-2.1,3.8-6.8,5.2-10.6,3.2c-5.5-3-11.3-5.9-17.1-8.5c-3.9-1.8-5.6-6.5-3.8-10.4C1333.6,175.2,1335.8,173.6,1338.3,173.2z"/>
				</g>
				<g>
					<path class="st4" d="M1348,274c-1.3-1.1-3.1-1.3-4.6-0.5l-42,23.6c-19.8-10.7-41.5-18.4-64.3-22.3l-18.4-44.6
						c-0.6-1.6-2.2-2.5-3.9-2.4l-57.7,3.4c-1.7,0.1-3.1,1.3-3.6,2.9l-13,46.4c-22.2,6.6-42.8,16.8-61.2,29.7l-44.5-18.5
						c-1.6-0.6-3.4-0.2-4.5,1l-38.4,43.2c-1.1,1.3-1.3,3.1-0.5,4.6l23.6,42c-10.7,19.8-18.4,41.5-22.3,64.3l-44.6,18.4
						c-1.6,0.6-2.5,2.2-2.4,3.9l3.4,57.7c0.1,1.7,1.3,3.1,2.9,3.6l46.4,13c6.6,22.2,16.8,42.8,29.7,61.2l-18.5,44.5
						c-0.6,1.6-0.2,3.4,1,4.5l43.2,38.4c1.3,1.1,3.1,1.3,4.6,0.5l42-23.6c19.8,10.7,41.5,18.4,64.3,22.3l18.4,44.6
						c0.6,1.6,2.2,2.5,3.9,2.4l57.7-3.4c1.7-0.1,3.1-1.3,3.6-2.9l13-46.4c22.2-6.6,42.8-16.8,61.2-29.7l44.5,18.5
						c1.6,0.6,3.4,0.2,4.5-1l38.4-43.2c1.1-1.3,1.3-3.1,0.5-4.6l-23.6-42c10.7-19.8,18.4-41.5,22.3-64.3l44.6-18.4
						c1.6-0.6,2.5-2.2,2.4-3.9l-3.4-57.7c-0.1-1.7-1.3-3.1-2.9-3.6l-46.4-13c-6.6-22.2-16.8-42.8-29.7-61.2l18.5-44.5
						c0.6-1.6,0.2-3.4-1-4.5L1348,274z"/>
					<path class="st8" d="M1191.6,424.6c12.5-2,25.2,0,36.6,5.9c14,7.3,24.4,19.6,29.1,34.7c9.8,31.1-7.5,64.4-38.6,74.3
						c-31.2,9.8-64.4-7.5-74.3-38.6c-4.8-15.1-3.4-31.1,3.9-45.1c7.3-14,19.6-24.4,34.7-29.2
						C1185.9,425.8,1188.8,425.1,1191.6,424.6z M1207.9,526.1c2.1-0.3,4.2-0.8,6.2-1.5c22.9-7.2,35.6-31.8,28.4-54.6
						c-3.5-11.1-11.1-20.1-21.4-25.5c-10.3-5.4-22.1-6.4-33.2-2.9l0,0c-11.1,3.5-20.1,11.1-25.5,21.4c-5.4,10.3-6.4,22.1-2.9,33.2
						C1166,517.1,1186.9,529.5,1207.9,526.1z"/>
					<linearGradient id="SVGID_4_" gradientUnits="userSpaceOnUse" x1="1052.8151" y1="484.087" x2="1347.6193" y2="484.087">
						<stop  offset="0" style="stop-color:#DAE3FE"/>
						<stop  offset="1" style="stop-color:#E9EFFD"/>
					</linearGradient>
					<path class="st9" d="M1176.6,338.6c4.9-0.8,9.9-1.3,14.9-1.6c10-0.6,20.1-0.2,30,1.3c0.4,0.1,0.9,0.1,1.3,0.2
						c3.4,0.5,6,3.2,6.5,6.5c0.1,0.8,0.1,1.6,0,2.5c-0.7,4.3-4.7,7.2-8.9,6.5c-9.2-1.4-18.7-1.9-28-1.3l0,0c-0.5,0-1,0.1-1.5,0.1
						c-22.1,1.5-43.1,8.5-61.3,20.1c-9.9,6.3-19,14-27.1,22.9c-0.1,0.1-0.1,0.1-0.2,0.2c-0.2,0.2-0.4,0.4-0.6,0.7
						c-23.4,26.3-35.1,60.1-33,95.3c0.3,4.5,0.8,9,1.5,13.5c4.8,29.8,19.6,56.9,42.5,77.2c26.3,23.4,60.1,35.1,95.3,33
						c35.1-2.1,67.3-17.7,90.7-44c23.4-26.3,35.1-60.1,33-95.3c-0.3-4.5-0.8-8.9-1.5-13.3c-3.1-19-10.3-37.2-21.2-53.1
						c-0.7-1-1.1-2.1-1.3-3.2c-0.5-2.9,0.7-5.9,3.3-7.7c3.6-2.4,8.4-1.5,10.9,2.1c12.2,17.8,20.2,38.1,23.7,59.4
						c0.8,4.9,1.3,9.9,1.6,14.9c2.3,39.3-10.8,77.2-36.9,106.6c-26.1,29.4-62.2,46.9-101.5,49.2c-39.3,2.3-77.2-10.8-106.6-36.9
						c-25.6-22.8-42.2-53-47.6-86.4c-0.8-5-1.4-10-1.7-15.1C1048.6,416.7,1102.9,350.5,1176.6,338.6z"/>
				</g>
			</g>
		</g>
		<g>
			<linearGradient id="SVGID_5_" gradientUnits="userSpaceOnUse" x1="2061.8125" y1="2776.5518" x2="2559.2363" y2="1889.4781">
				<stop  offset="0" style="stop-color:#09005D"/>
				<stop  offset="1" style="stop-color:#1A0F91"/>
			</linearGradient>
			<polygon class="st10" points="1536,2745.5 1466.5,3368.8 2272.9,3368.8 2167.9,2745.5 			"/>
			<linearGradient id="SVGID_6_" gradientUnits="userSpaceOnUse" x1="1848.3993" y1="1012.0907" x2="1707.4624" y2="3068.1113">
				<stop  offset="0" style="stop-color:#09005D"/>
				<stop  offset="1" style="stop-color:#1A0F91"/>
			</linearGradient>
			<path class="st11" d="M132.9,1165.1v1469.1c0,120.9,96.3,219.7,217.1,222.8c536.6,13.8,2413.3,47.4,2924,39.9
				c87.8-1.3,158.9-71.5,161.4-159.3c9.8-341.3,25.8-1162-33.4-1543c-12.5-80.2-80.2-140.2-161.3-142.8
				c-449.6-14.4-2439-60.1-2949.5-48.6C203.2,1005.1,132.9,1077,132.9,1165.1z"/>
			<path class="st2" d="M225,1157.9v1395.7c0,70.6,56.6,128.1,127.2,129.1l2848.3,35.2c69.9,1,127.3-55.2,127.5-125.2l4.8-1383.2
				c0.2-50-39.7-91-89.7-92.2L327,1058.4C271.1,1057,225,1102,225,1157.9z"/>
			<linearGradient id="SVGID_7_" gradientUnits="userSpaceOnUse" x1="220.4554" y1="2744.5879" x2="3354.0767" y2="2744.5879">
				<stop  offset="0" style="stop-color:#DAE3FE"/>
				<stop  offset="1" style="stop-color:#E9EFFD"/>
			</linearGradient>
			<path class="st12" d="M3349.5,2775.8C3349.5,2775.8,3349.4,2775.8,3349.5,2775.8L225,2722.5c-2.5,0-4.5-2.1-4.5-4.7
				c0-2.5,2.1-4.5,4.7-4.5l3124.5,53.2c2.5,0,4.5,2.1,4.5,4.7C3354,2773.8,3352,2775.8,3349.5,2775.8z"/>
			<linearGradient id="SVGID_8_" gradientUnits="userSpaceOnUse" x1="1911.9022" y1="2182.7224" x2="1895.3209" y2="2564.085">
				<stop  offset="0" style="stop-color:#09005D"/>
				<stop  offset="1" style="stop-color:#1A0F91"/>
			</linearGradient>
			<path class="st13" d="M2446.6,3496.4H1266.4c-32.1,0-56.1-22.8-49.9-47.3l15.1-59.9c4.6-18,24.4-31.2,47.9-32l1137.8-35.5
				c24.6-0.8,46.4,12.3,51.7,31l27.3,95.4C2503.4,3472.8,2479.2,3496.4,2446.6,3496.4z"/>
		</g>
		<g>
			<path class="st0" d="M1202.7,2462.4l-509.9-0.8c-8.3,0-15.1-6.2-15.1-13.8v-32.4c0-7.6,6.7-13.8,15.1-13.7l509.9,2.9
				c7.7,0,14,6,14,13.4v31.3C1216.7,2456.4,1210.4,2462.4,1202.7,2462.4z"/>
			<path class="st0" d="M712.5,2473.8l43.8,160.8c2.8,10.2,12.7,17.2,24.1,17.1l339.4-3.8c10.9-0.1,20.3-7.2,22.9-17.1l41.3-156.5
				L712.5,2473.8z M838.4,2625.1c0,6.4-5.6,11.6-12.5,11.7l-11.9,0.1c-6.9,0.1-12.5-5.1-12.5-11.4v-124.6c0-6.4,5.6-11.6,12.5-11.6
				l11.9,0c6.9,0,12.5,5.2,12.5,11.5V2625.1z M904.6,2624.5c0,6.3-5.5,11.6-12.4,11.6l-11.8,0.1c-6.9,0.1-12.4-5-12.4-11.4v-124
				c0-6.4,5.6-11.5,12.4-11.5l11.8,0c6.8,0,12.4,5.1,12.4,11.5V2624.5z M970.3,2623.9c0,6.3-5.5,11.5-12.3,11.6l-11.7,0.1
				c-6.8,0.1-12.3-5-12.3-11.3v-123.5c0-6.3,5.5-11.5,12.3-11.5l11.7,0c6.8,0,12.3,5.1,12.3,11.4V2623.9z M1035.3,2623.3
				c0,6.3-5.4,11.5-12.2,11.5l-11.6,0.1c-6.7,0.1-12.2-5-12.2-11.3v-122.9c0-6.3,5.5-11.4,12.2-11.4l11.6,0
				c6.7,0,12.2,5.1,12.2,11.4V2623.3z M1099.8,2622.6c0,6.3-5.4,11.4-12,11.5l-11.5,0.1c-6.7,0.1-12.1-5-12.1-11.2v-122.4
				c0-6.3,5.4-11.4,12.1-11.4l11.5,0c6.7,0,12,5.1,12,11.3V2622.6z"/>
			<g>
				<g>
					<path class="st0" d="M769.8,2385.7c-7.7,6.2-19.5,5.3-26.3-1.8c-6.8-7.2-6-18,1.8-24.2c7.8-6.2,19.5-5.3,26.3,1.9
						C778.4,2368.7,777.5,2379.5,769.8,2385.7z"/>
					<path class="st0" d="M933.4,2232.9c-2.6-2.8-7.8-2.5-11.8,0.7l-161.5,128.2c-4.1,3.2-5.2,8.1-2.6,10.9c2.6,2.8,8,2.4,12.1-0.8
						l161.3-128.2C934.9,2240.5,936,2235.7,933.4,2232.9z"/>
				</g>
				<g>
					<path class="st0" d="M1130,2388.1c7.4,6.1,18.5,5.5,24.9-1.4c6.4-6.9,5.6-17.4-1.7-23.6c-7.3-6.1-18.5-5.5-24.9,1.4
						C1121.9,2371.4,1122.7,2382,1130,2388.1z"/>
					<path class="st0" d="M970.8,2233.5c2.5-2.7,7.8-2.2,11.7,1.1l156.7,130.3c3.8,3.2,5,8,2.5,10.6c-2.5,2.7-7.6,2.2-11.5-0.9
						l-156.9-130.3C969.4,2241,968.3,2236.2,970.8,2233.5z"/>
				</g>
			</g>
		</g>
		<g>
			<linearGradient id="SVGID_9_" gradientUnits="userSpaceOnUse" x1="2986.5652" y1="1202.3982" x2="2721.2717" y2="2147.5073">
				<stop  offset="0" style="stop-color:#4F52FF"/>
				<stop  offset="1" style="stop-color:#4042E2"/>
			</linearGradient>
			<circle class="st14" cx="2903.1" cy="1499.7" r="263.1"/>
			<g>
				<linearGradient id="SVGID_10_" gradientUnits="userSpaceOnUse" x1="2721.4004" y1="1503.1099" x2="3085.9299" y2="1503.1099">
					<stop  offset="0" style="stop-color:#DAE3FE"/>
					<stop  offset="1" style="stop-color:#E9EFFD"/>
				</linearGradient>
				<path class="st15" d="M2905,1673.5c-2.9,0-5.8-0.1-8.8-0.2c-100.4-4.4-178.8-84.4-174.7-178.2c2-45.6,22.9-87.6,58.9-118.3
					c35.8-30.4,82.2-46,130.6-43.9c100.4,4.4,178.8,84.4,174.7,178.2v0c-2,45.6-22.9,87.6-58.9,118.3
					C2993.3,1658,2950.3,1673.5,2905,1673.5z M2902.3,1356.7c-39.6,0-77.1,13.5-106.3,38.4c-30.9,26.3-48.8,62.2-50.5,101.1
					c-3.5,80.6,64.5,149.3,151.7,153.2c42.4,1.8,82.9-11.7,114-38.2c30.9-26.3,48.8-62.2,50.5-101.1
					c3.5-80.6-64.5-149.3-151.7-153.2C2907.5,1356.8,2904.9,1356.7,2902.3,1356.7z"/>
				<g>
					<g>
						<linearGradient id="SVGID_11_" gradientUnits="userSpaceOnUse" x1="2860.0103" y1="1504.3595" x2="2947.1636" y2="1504.3595">
							<stop  offset="0" style="stop-color:#DAE3FE"/>
							<stop  offset="1" style="stop-color:#E9EFFD"/>
						</linearGradient>
						<path class="st16" d="M2947.2,1503.9c0,27.9-1.9,55.9-6.9,83.5c-1.2,6.9-2.7,13.7-4.4,20.5c-1.7,6.8-3.7,13.5-6.1,20.1
							c-2.5,6.6-5.3,13-9.2,18.9c-1.9,2.9-4.1,5.7-6.9,8c-1.4,1.1-2.9,2.2-4.5,2.9c-1.6,0.7-3.4,1.2-5.3,1.2c-1.8,0.1-3.6-0.3-5.3-1
							c-1.7-0.7-3.2-1.6-4.6-2.8c-2.8-2.2-5-5-7-7.9c-3.9-5.9-6.8-12.3-9.3-18.8c-2.5-6.6-4.5-13.3-6.2-20
							c-1.7-6.8-3.2-13.6-4.4-20.5c-2.5-13.8-4.2-27.6-5.4-41.6c-1.1-13.9-1.7-27.9-1.8-41.9c0-7,0.2-14,0.4-21
							c0.3-7,0.6-14,1.2-20.9c1-13.9,2.6-27.8,4.9-41.6c1.1-6.9,2.5-13.8,4.1-20.6c1.6-6.8,3.5-13.5,5.8-20.1
							c1.2-3.3,2.4-6.6,3.9-9.7c1.5-3.2,3.1-6.3,5-9.2c1.9-2.9,4.1-5.7,6.9-8c1.4-1.1,2.9-2.1,4.5-2.7c1.7-0.7,3.4-1,5.2-0.9
							c1.8,0.1,3.5,0.5,5.2,1.2c1.6,0.7,3.1,1.7,4.5,2.8c2.7,2.2,5,5,7,7.8c4,5.8,7,12.1,9.6,18.6c2.6,6.5,4.7,13.2,6.6,19.9
							c1.9,6.7,3.4,13.6,4.8,20.4C2944.9,1447.9,2947.1,1475.9,2947.2,1503.9z M2945.1,1503.9c0-13.9-0.5-27.8-1.7-41.7
							c-1.1-13.9-2.9-27.7-5.4-41.4c-1.3-6.8-2.8-13.6-4.5-20.4c-1.8-6.7-3.8-13.4-6.3-19.8c-2.5-6.5-5.4-12.8-9.3-18.5
							c-1.9-2.8-4.1-5.6-6.8-7.8c-1.3-1.1-2.7-2.1-4.3-2.8c-1.5-0.7-3.2-1.2-4.9-1.2c-1.7-0.1-3.4,0.3-5,0.9c-1.6,0.6-3,1.6-4.3,2.7
							c-2.6,2.2-4.8,5-6.6,7.9c-1.9,2.9-3.4,6-4.8,9.2c-1.4,3.2-2.6,6.4-3.8,9.7c-2.2,6.6-4,13.3-5.6,20.1
							c-1.5,6.8-2.8,13.6-3.9,20.5c-2.1,13.8-3.5,27.6-4.4,41.5c-0.9,13.9-1.2,27.8-1.2,41.7c0,13.9,0.4,27.8,1.5,41.7
							c1,13.9,2.6,27.7,5,41.4c1.2,6.9,2.6,13.7,4.3,20.4c1.7,6.7,3.6,13.4,6,19.9c2.4,6.5,5.2,12.9,9,18.6c1.9,2.9,4.1,5.6,6.7,7.7
							c1.3,1.1,2.7,2,4.3,2.6c1.5,0.6,3.2,1,4.9,0.9c1.7,0,3.3-0.5,4.8-1.2c1.5-0.7,2.9-1.7,4.2-2.8c2.6-2.2,4.7-5,6.6-7.8
							c3.7-5.8,6.5-12.2,8.9-18.7c2.4-6.5,4.3-13.2,5.9-20c1.7-6.7,3-13.6,4.2-20.4c2.4-13.7,3.9-27.6,5-41.4
							C2944.6,1531.7,2945.1,1517.8,2945.1,1503.9z"/>
						<linearGradient id="SVGID_12_" gradientUnits="userSpaceOnUse" x1="2855.9556" y1="1504.3623" x2="2951.2183" y2="1504.3623">
							<stop  offset="0" style="stop-color:#DAE3FE"/>
							<stop  offset="1" style="stop-color:#E9EFFD"/>
						</linearGradient>
						<path class="st17" d="M2903.6,1663.1c-2.1,0-4.3-0.4-6.4-1.3c-1.9-0.8-3.7-1.9-5.6-3.3c-2.8-2.2-5.3-5-7.8-8.8
							c-3.6-5.3-6.7-11.6-9.7-19.7c-2.3-6.2-4.4-12.9-6.3-20.5c-1.7-6.5-3.1-13.3-4.5-20.8c-2.4-13.2-4.2-26.9-5.4-42
							c-1.1-13.7-1.7-27.9-1.8-42.2c0-7.5,0.2-14.9,0.4-21.1c0.3-7.1,0.7-14.2,1.2-21.1c1.1-15.1,2.7-28.9,4.9-42
							c1.2-7.5,2.6-14.3,4.1-20.8c1.8-7.6,3.8-14.4,5.9-20.6c1.3-3.7,2.6-7,4-10.1c1.7-3.7,3.4-6.9,5.3-9.8c2.5-3.8,5-6.7,7.7-8.9
							c1.8-1.5,3.7-2.6,5.6-3.4c2.2-0.9,4.6-1.3,6.9-1.2c2.2,0.1,4.4,0.6,6.6,1.6c1.8,0.8,3.6,1.9,5.4,3.4c2.7,2.2,5.2,5,7.8,8.7
							c3.6,5.3,6.8,11.4,10.1,19.4c2.5,6.2,4.7,12.8,6.7,20.3c1.8,6.6,3.4,13.3,4.9,20.7c5.1,26.1,7.6,53.6,7.7,84.1v0
							c0,30.8-2.3,58.3-6.9,84.2c-1.3,7.4-2.8,14.2-4.5,20.8c-1.9,7.6-4,14.3-6.3,20.5c-3,8.1-6.1,14.4-9.6,19.7
							c-2.5,3.8-5,6.6-7.6,8.9c-1.8,1.5-3.6,2.7-5.4,3.5c-2.3,1-4.6,1.6-6.9,1.6C2903.9,1663.1,2903.8,1663.1,2903.6,1663.1z
							 M2901.5,1354.4c-1,0-2.1,0.2-3.1,0.6c-1.1,0.4-2.2,1.1-3.3,2.1c-2,1.7-3.8,3.9-5.8,6.9c-1.6,2.5-3.1,5.3-4.5,8.6
							c-1.3,2.8-2.4,5.9-3.6,9.4c-2,5.9-3.8,12.3-5.4,19.7c-1.4,6.4-2.7,13-3.8,20.2c-2,12.9-3.4,26.3-4.3,41.1
							c-0.8,12.7-1.2,26.2-1.2,41.5c0,14.1,0.4,28,1.4,41.4c1.1,14.7,2.7,28.1,5,41c1.3,7.2,2.6,13.8,4.2,20.1
							c1.8,7.3,3.7,13.7,5.9,19.5c2.8,7.4,5.5,13.1,8.6,17.8c2,3,3.9,5.2,5.9,6.8c1.1,0.9,2.2,1.6,3.3,2c1.1,0.5,2.2,0.6,3.2,0.6
							c1.1,0,2.1-0.3,3.3-0.8c1.1-0.5,2.2-1.2,3.3-2.2c2-1.7,3.8-3.9,5.8-7c3-4.7,5.7-10.4,8.5-17.9c2.1-5.9,4-12.3,5.8-19.5
							c1.5-6.3,2.9-12.9,4.2-20.1c2.2-12.8,3.8-26.2,4.9-41c1-13.4,1.5-27.3,1.5-41.4v0c0-14-0.5-28-1.6-41.4
							c-1.2-14.8-3-28.1-5.4-41c-1.3-7.1-2.8-13.7-4.5-20.1c-1.9-7.2-3.9-13.6-6.2-19.4c-2.9-7.4-5.7-13-8.9-17.7
							c-2.1-3-4-5.2-6-6.9c-1.1-0.9-2.3-1.7-3.4-2.2c-1.2-0.5-2.3-0.8-3.3-0.8C2901.7,1354.4,2901.6,1354.4,2901.5,1354.4z"/>
					</g>
					<g>
						<linearGradient id="SVGID_13_" gradientUnits="userSpaceOnUse" x1="2780.8442" y1="1503.9331" x2="3017.3521" y2="1503.9331">
							<stop  offset="0" style="stop-color:#DAE3FE"/>
							<stop  offset="1" style="stop-color:#E9EFFD"/>
						</linearGradient>
						<path class="st18" d="M3017.4,1503.9c-0.1,18-2.4,36-7.2,53.3c-4.9,17.3-12.2,34-22.2,48.9c-5,7.5-10.7,14.5-17,20.9
							c-6.3,6.4-13.3,12.1-20.9,16.9c-7.6,4.8-15.8,8.6-24.4,11.2c-8.6,2.6-17.5,4-26.5,4c-9,0-17.9-1.3-26.5-3.9
							c-8.6-2.6-16.8-6.4-24.4-11.2c-7.6-4.8-14.6-10.5-20.9-16.9c-6.3-6.4-12-13.4-17-20.9c-10-14.9-17.4-31.6-22.3-48.9
							c-2.4-8.7-4.2-17.5-5.4-26.4c-1.2-8.9-1.8-17.9-1.8-26.9c0-9,0.6-18,1.8-26.9c1.2-8.9,3-17.8,5.4-26.4
							c4.9-17.3,12.3-34,22.3-48.9c5-7.5,10.7-14.5,17-20.8c6.3-6.4,13.3-12.1,20.9-16.8c7.6-4.8,15.8-8.5,24.4-11.1
							c8.6-2.6,17.5-3.9,26.5-4c9,0,17.9,1.4,26.5,4c8.6,2.6,16.8,6.4,24.4,11.2c7.6,4.8,14.6,10.5,20.9,16.9
							c6.3,6.4,12,13.4,17,20.8c10,14.9,17.4,31.6,22.3,48.9C3014.9,1467.9,3017.2,1485.9,3017.4,1503.9z M3015,1503.9
							c0-17.8-2.2-35.6-6.9-52.7c-4.7-17.1-11.8-33.7-21.5-48.6c-4.9-7.4-10.4-14.4-16.6-20.8c-6.2-6.4-13-12.1-20.5-16.9
							c-7.5-4.8-15.6-8.6-24.1-11.2c-8.5-2.6-17.3-4-26.2-4c-8.9,0-17.7,1.4-26.2,4c-8.5,2.6-16.6,6.4-24.1,11.2
							c-7.5,4.8-14.3,10.5-20.5,16.9c-6.2,6.4-11.7,13.4-16.6,20.8c-9.7,14.9-16.8,31.4-21.5,48.5c-2.3,8.6-4,17.3-5.2,26.1
							c-1.1,8.8-1.7,17.7-1.7,26.6c0,8.9,0.6,17.8,1.7,26.6c1.1,8.8,2.8,17.5,5.2,26.1c4.7,17.1,11.8,33.7,21.5,48.5
							c4.9,7.4,10.4,14.4,16.6,20.8c6.2,6.4,13,12.1,20.5,16.9c7.5,4.7,15.6,8.6,24,11.1c8.5,2.6,17.3,4,26.2,4
							c8.9,0,17.7-1.4,26.2-4c8.5-2.6,16.6-6.4,24.1-11.1c7.5-4.8,14.3-10.5,20.5-16.9c6.2-6.4,11.7-13.4,16.6-20.8
							c9.7-14.9,16.8-31.4,21.5-48.5C3012.7,1539.5,3015,1521.7,3015,1503.9z"/>
						<linearGradient id="SVGID_14_" gradientUnits="userSpaceOnUse" x1="2776.7881" y1="1503.9347" x2="3021.4065" y2="1503.9347">
							<stop  offset="0" style="stop-color:#DAE3FE"/>
							<stop  offset="1" style="stop-color:#E9EFFD"/>
						</linearGradient>
						<path class="st19" d="M2899.2,1663.1c-9.3,0-18.6-1.4-27.7-4.1c-8.7-2.6-17.3-6.5-25.4-11.6c-7.6-4.8-14.9-10.7-21.6-17.4
							c-6.3-6.4-12.2-13.6-17.5-21.5c-9.9-14.8-17.6-31.7-22.8-50.1c-2.4-8.8-4.3-17.9-5.5-27c-1.2-9-1.8-18.2-1.9-27.4
							c0-9.3,0.7-18.5,1.9-27.5c1.2-9.2,3.1-18.2,5.5-27c5.2-18.4,12.9-35.2,22.9-50.1c5.3-7.9,11.2-15.1,17.5-21.4
							c6.7-6.8,14-12.6,21.6-17.4c8-5,16.6-8.9,25.4-11.6c9-2.7,18.3-4.1,27.6-4.1c9.3,0,18.6,1.4,27.6,4.2
							c8.8,2.7,17.3,6.6,25.3,11.6c7.6,4.8,14.9,10.7,21.6,17.4c6.3,6.4,12.2,13.6,17.5,21.4c9.9,14.8,17.6,31.7,22.8,50
							c4.8,17.3,7.3,35.6,7.4,54.4v0c-0.1,18.8-2.6,37.1-7.3,54.4c-5.2,18.4-12.8,35.2-22.8,50.1c-5.3,7.9-11.1,15.1-17.5,21.5
							c-6.7,6.8-14,12.6-21.6,17.5c-8.1,5.1-16.6,9-25.4,11.6C2917.8,1661.7,2908.5,1663.1,2899.2,1663.1z M2899.2,1353.8
							c-8.4,0-16.8,1.3-25,3.8c-7.9,2.4-15.7,6-23.1,10.7c-6.9,4.4-13.5,9.9-19.8,16.3c-5.8,6-11.2,12.8-16.1,20.2
							c-9.1,14-16.2,29.9-20.9,47.4c-2.2,8.1-3.9,16.7-5.1,25.6c-1.1,8.5-1.7,17.3-1.7,26.1c0,8.8,0.6,17.5,1.7,26
							c1.2,8.9,2.9,17.5,5.1,25.6c4.8,17.5,11.8,33.4,21,47.4c4.8,7.4,10.2,14.2,16.1,20.2c6.3,6.4,12.9,11.9,19.8,16.3
							c7.3,4.7,15.1,8.3,23,10.7c8.2,2.5,16.6,3.8,25,3.8c8.4,0,16.8-1.3,25-3.8c8-2.4,15.7-6,23.1-10.7c6.8-4.4,13.5-9.8,19.8-16.3
							c5.8-6,11.3-12.8,16.1-20.2c9.1-13.9,16.2-29.9,21-47.4c4.5-16.4,6.8-33.8,6.8-51.7c0-17.9-2.3-35.3-6.8-51.7
							c-4.8-17.5-11.9-33.4-21-47.4c-4.8-7.4-10.3-14.2-16.1-20.2c-6.3-6.4-12.9-11.9-19.8-16.3c-7.4-4.7-15.2-8.3-23.1-10.7
							C2916,1355.1,2907.6,1353.8,2899.2,1353.8z"/>
					</g>
					<g>
						<linearGradient id="SVGID_15_" gradientUnits="userSpaceOnUse" x1="2761.1257" y1="1442.6411" x2="3045.2949" y2="1442.6411">
							<stop  offset="0" style="stop-color:#DAE3FE"/>
							<stop  offset="1" style="stop-color:#E9EFFD"/>
						</linearGradient>
						<path class="st20" d="M2761.3,1442.5l35.5-0.3l35.5-0.2l71-0.1l71,0.1l35.5,0.2l35.5,0.3c0.1,0,0.1,0,0.1,0.1
							c0,0,0,0.1-0.1,0.1l-35.5,0.3l-35.5,0.2l-71,0.1l-71-0.1l-35.5-0.2l-35.5-0.3c-0.1,0-0.2-0.1-0.2-0.1
							C2761.1,1442.6,2761.2,1442.5,2761.3,1442.5z"/>
						<linearGradient id="SVGID_16_" gradientUnits="userSpaceOnUse" x1="2757.0735" y1="1442.6407" x2="3049.3503" y2="1442.6407">
							<stop  offset="0" style="stop-color:#DAE3FE"/>
							<stop  offset="1" style="stop-color:#E9EFFD"/>
						</linearGradient>
						<polygon class="st21" points="2903.2,1447.5 2796.7,1447.2 2759.6,1446.8 2757.1,1444.4 2757.1,1442.5 2757.2,1438.6 
							2761.2,1438.4 2832.2,1438 2903.2,1437.8 3009.7,1438.2 3049.2,1438.5 3049.4,1446.7 3045.2,1446.8 2974.2,1447.3 						"/>
					</g>
					<g>
						<linearGradient id="SVGID_17_" gradientUnits="userSpaceOnUse" x1="2802.2979" y1="1382.9697" x2="3004.1216" y2="1382.9697">
							<stop  offset="0" style="stop-color:#DAE3FE"/>
							<stop  offset="1" style="stop-color:#E9EFFD"/>
						</linearGradient>
						<path class="st22" d="M2802.5,1382.8c8.4-0.1,16.8-0.2,25.2-0.3l25.2-0.2c8.4-0.1,16.8-0.1,25.2-0.1l25.2,0l50.4,0.1l25.2,0.2
							c8.4,0.1,16.8,0.2,25.2,0.3c0.1,0,0.1,0,0.1,0c0,0.1,0,0.2-0.1,0.2c-8.4,0.1-16.8,0.2-25.2,0.3l-25.2,0.2l-50.4,0.1l-25.2,0
							c-8.4,0-16.8,0-25.2-0.1l-25.2-0.2c-8.4-0.1-16.8-0.2-25.2-0.3c-0.1,0-0.2-0.1-0.2-0.2
							C2802.3,1382.9,2802.4,1382.8,2802.5,1382.8z"/>
						<linearGradient id="SVGID_18_" gradientUnits="userSpaceOnUse" x1="2798.2422" y1="1382.9701" x2="3008.218" y2="1382.9701">
							<stop  offset="0" style="stop-color:#DAE3FE"/>
							<stop  offset="1" style="stop-color:#E9EFFD"/>
						</linearGradient>
						<path class="st23" d="M2903.2,1387.8l-31.7-0.1c-6.2,0-12.5,0-18.7-0.1l-33.6-0.3c-5.6-0.1-11.2-0.1-16.8-0.2l-4-0.1l-0.2-8.2
							l4.1-0.2c5.4-0.1,10.9-0.1,16.3-0.2l34.1-0.3c5.9,0,11.8-0.1,17.7-0.1l32.7-0.1l84.8,0.4c5.4,0.1,10.7,0.1,16.1,0.2l4.1,0.1
							l-0.2,8.2l-4,0.1c-5.5,0.1-11.1,0.2-16.8,0.2l-33.6,0.3L2903.2,1387.8z"/>
					</g>
					<g>
						<linearGradient id="SVGID_19_" gradientUnits="userSpaceOnUse" x1="2748.7927" y1="1502.3113" x2="3057.627" y2="1502.3113">
							<stop  offset="0" style="stop-color:#DAE3FE"/>
							<stop  offset="1" style="stop-color:#E9EFFD"/>
						</linearGradient>
						<path class="st24" d="M2748.9,1502.2l38.6-0.3l38.6-0.2l77.1-0.1l77.1,0.1l38.6,0.2l38.6,0.3c0.1,0,0.1,0,0.1,0.1
							c0,0,0,0.1-0.1,0.1l-38.6,0.3l-38.6,0.2l-77.1,0.1l-77.1-0.1l-38.6-0.2l-38.6-0.3c-0.1,0-0.2-0.1-0.2-0.2
							C2748.8,1502.2,2748.9,1502.2,2748.9,1502.2z"/>
						<linearGradient id="SVGID_20_" gradientUnits="userSpaceOnUse" x1="2744.7383" y1="1502.3129" x2="3061.7063" y2="1502.3129">
							<stop  offset="0" style="stop-color:#DAE3FE"/>
							<stop  offset="1" style="stop-color:#E9EFFD"/>
						</linearGradient>
						<polygon class="st25" points="2903.2,1507.1 2787.5,1506.8 2744.9,1506.5 2744.7,1498.2 2748.9,1498.1 2826.1,1497.6 
							2903.2,1497.5 3019,1497.8 3059.3,1498.1 3061.7,1500.6 3061.5,1506.4 3057.5,1506.5 2980.4,1507 						"/>
					</g>
					<g>
						<linearGradient id="SVGID_21_" gradientUnits="userSpaceOnUse" x1="2761.1257" y1="1561.9829" x2="3045.2949" y2="1561.9829">
							<stop  offset="0" style="stop-color:#DAE3FE"/>
							<stop  offset="1" style="stop-color:#E9EFFD"/>
						</linearGradient>
						<path class="st26" d="M2761.3,1561.8l35.5-0.3l35.5-0.2l71-0.1l71,0.1l35.5,0.2l35.5,0.3c0.1,0,0.1,0,0.1,0
							c0,0.1,0,0.2-0.1,0.2l-35.5,0.3l-35.5,0.2l-71,0.1l-71-0.1l-35.5-0.2l-35.5-0.3c-0.1,0-0.2-0.1-0.2-0.2
							C2761.1,1561.9,2761.2,1561.8,2761.3,1561.8z"/>
						<linearGradient id="SVGID_22_" gradientUnits="userSpaceOnUse" x1="2757.0735" y1="1561.9818" x2="3049.3503" y2="1561.9818">
							<stop  offset="0" style="stop-color:#DAE3FE"/>
							<stop  offset="1" style="stop-color:#E9EFFD"/>
						</linearGradient>
						<polygon class="st27" points="2903.2,1566.8 2796.7,1566.5 2759.6,1566.2 2757.1,1563.7 2757.1,1561.9 2757.2,1557.9 
							2761.2,1557.8 2832.2,1557.3 2903.2,1557.2 3009.7,1557.5 3049.2,1557.8 3049.4,1566.1 3045.2,1566.2 2974.2,1566.6 						"/>
					</g>
					<g>
						<linearGradient id="SVGID_23_" gradientUnits="userSpaceOnUse" x1="2806.9844" y1="1621.6543" x2="3009.6411" y2="1621.6543">
							<stop  offset="0" style="stop-color:#DAE3FE"/>
							<stop  offset="1" style="stop-color:#E9EFFD"/>
						</linearGradient>
						<path class="st28" d="M3009.1,1622.2h-201.6c-0.3,0-0.5-0.2-0.5-0.5s0.2-0.5,0.5-0.5h201.6c0.3,0,0.5,0.2,0.5,0.5
							S3009.4,1622.2,3009.1,1622.2z"/>
						<linearGradient id="SVGID_24_" gradientUnits="userSpaceOnUse" x1="2802.9307" y1="1621.6539" x2="3013.6956" y2="1621.6539">
							<stop  offset="0" style="stop-color:#DAE3FE"/>
							<stop  offset="1" style="stop-color:#E9EFFD"/>
						</linearGradient>
						<path class="st29" d="M3009.1,1626.3h-201.6c-2.5,0-4.6-2.1-4.6-4.6s2.1-4.6,4.6-4.6h201.6c2.5,0,4.6,2.1,4.6,4.6
							S3011.6,1626.3,3009.1,1626.3z"/>
					</g>
				</g>
			</g>
		</g>
		<g>
			<linearGradient id="SVGID_25_" gradientUnits="userSpaceOnUse" x1="2428.4392" y1="416.3904" x2="2154.855" y2="1378.0826">
				<stop  offset="0" style="stop-color:#4F52FF"/>
				<stop  offset="1" style="stop-color:#4042E2"/>
			</linearGradient>
			<circle class="st30" cx="2342.6" cy="718.2" r="273.6"/>
			<g>
				<g>
					<g>
						<linearGradient id="SVGID_26_" gradientUnits="userSpaceOnUse" x1="2145.5759" y1="713.5111" x2="2416.417" y2="713.5111">
							<stop  offset="0" style="stop-color:#DAE3FE"/>
							<stop  offset="1" style="stop-color:#E9EFFD"/>
						</linearGradient>
						<path class="st31" d="M2401.5,799.2h-159.4c-4.3,0-8.1-3-9.1-7.2c-0.3-1.3-0.7-2.5-1.3-3.6c-0.1-0.1-0.1-0.3-0.2-0.4
							c-0.7-1.5-1.4-2.8-2.3-4.1c-5.4-8-14.3-12.8-23.9-12.8c-9.5,0-18.5,4.8-24,12.8c-0.9,1.3-1.6,2.6-2.3,4.1
							c-0.1,0.1-0.1,0.3-0.2,0.4c-0.6,1.1-1,2.3-1.3,3.6c-1,4.2-4.8,7.2-9.1,7.2h-8c-8.2,0-15-6.7-15-14.9V642.8
							c0-8.2,6.7-14.9,15-14.9h240.9c8.2,0,15,6.7,15,14.9v141.4C2416.4,792.5,2409.7,799.2,2401.5,799.2z M2248.7,780.5h149.1
							V646.5h-233.5v129.4c0.5-0.9,1.1-1.7,1.7-2.6c9-13.1,23.7-20.9,39.4-20.9c15.8,0,30.5,7.8,39.3,20.9c1.5,2.2,2.8,4.4,3.9,6.9
							C2248.6,780.3,2248.6,780.4,2248.7,780.5z"/>
					</g>
				</g>
				<g>
					<g>
						<linearGradient id="SVGID_27_" gradientUnits="userSpaceOnUse" x1="2421.2903" y1="728.8967" x2="2534.2207" y2="728.8967">
							<stop  offset="0" style="stop-color:#DAE3FE"/>
							<stop  offset="1" style="stop-color:#E9EFFD"/>
						</linearGradient>
						<path class="st32" d="M2518.9,799.2h-6.8c-4.3,0-8.1-3-9.1-7.2c-0.3-1.3-0.7-2.5-1.3-3.6c-0.1-0.1-0.1-0.3-0.2-0.4
							c-0.7-1.5-1.4-2.8-2.3-4.1c-5.5-8-14.5-12.8-24-12.8s-18.5,4.8-24,12.8c-0.9,1.3-1.6,2.6-2.3,4.1c-0.1,0.1-0.1,0.3-0.2,0.4
							c-0.6,1.1-1,2.3-1.3,3.6c-1,4.2-4.8,7.2-9.1,7.2h-2.1c-8.2,0-15-6.7-15-15V673.6c0-8.2,6.7-14.9,15-14.9h24.1
							c6-0.3,33.9-0.1,54.9,22.4c20.7,22.2,19.3,49.5,18.6,56.2v47C2533.9,792.5,2527.2,799.2,2518.9,799.2z M2475.2,752.5
							c15.7,0,30.4,7.8,39.4,20.9c0.2,0.3,0.4,0.5,0.6,0.8v-37.4c0-0.4,0-0.7,0.1-1.1c0.5-4,2.1-25-13.7-41.8
							c-15.7-16.8-36.6-16.6-40.6-16.4c-0.2,0-0.3,0-0.5,0H2440v90.7C2449,758.2,2461.8,752.5,2475.2,752.5z"/>
					</g>
				</g>
				<g>
					<g>
						<linearGradient id="SVGID_28_" gradientUnits="userSpaceOnUse" x1="2180.0925" y1="811.3358" x2="2230.5007" y2="811.3358">
							<stop  offset="0" style="stop-color:#DAE3FE"/>
							<stop  offset="1" style="stop-color:#E9EFFD"/>
						</linearGradient>
						<path class="st33" d="M2205.4,836.6c-13.9,0-25.3-11.3-25.3-25.3c0-6,2.2-11.8,6.1-16.3c4.7-5.7,11.6-8.9,19.1-8.9
							c7.5,0,14.4,3.3,19,8.9c3.9,4.6,6.1,10.4,6.1,16.3C2230.5,825.3,2219.2,836.6,2205.4,836.6z M2205.4,804.8
							c-2,0-3.6,0.7-4.7,2.1c-0.1,0.1-0.2,0.2-0.3,0.3c-0.7,0.8-1.6,2.2-1.6,4.1c0,3.6,2.9,6.6,6.6,6.6c3.6,0,6.5-2.9,6.5-6.6
							c0-1.9-0.9-3.3-1.6-4.1c-0.1-0.1-0.2-0.2-0.3-0.3C2208.9,805.5,2207.2,804.8,2205.4,804.8z"/>
					</g>
				</g>
				<g>
					<g>
						<linearGradient id="SVGID_29_" gradientUnits="userSpaceOnUse" x1="2449.979" y1="811.3358" x2="2500.5" y2="811.3358">
							<stop  offset="0" style="stop-color:#DAE3FE"/>
							<stop  offset="1" style="stop-color:#E9EFFD"/>
						</linearGradient>
						<path class="st34" d="M2475.2,836.6c-13.9,0-25.3-11.3-25.3-25.3c0-6,2.2-11.8,6.1-16.3c4.7-5.7,11.6-8.9,19.1-8.9
							c7.5,0,14.5,3.3,19.1,8.9c3.9,4.6,6.1,10.4,6.1,16.3C2500.5,825.3,2489.2,836.6,2475.2,836.6z M2475.2,804.8
							c-1.9,0-3.6,0.8-4.7,2.1c-0.1,0.1-0.2,0.2-0.3,0.3c-0.7,0.8-1.6,2.2-1.6,4.1c0,3.6,3,6.6,6.6,6.6s6.6-3,6.6-6.6
							c0-1.9-0.9-3.3-1.6-4.1c-0.1-0.1-0.2-0.2-0.3-0.3C2478.9,805.5,2477.1,804.8,2475.2,804.8z"/>
					</g>
				</g>
			</g>
		</g>
		<g>
			<linearGradient id="SVGID_30_" gradientUnits="userSpaceOnUse" x1="1275.681" y1="966.3286" x2="1418.6832" y2="381.8825">
				<stop  offset="0" style="stop-color:#4F52FF"/>
				<stop  offset="1" style="stop-color:#4042E2"/>
			</linearGradient>
			<circle class="st35" cx="1350.9" cy="658.7" r="272.4"/>
			<g>
				<linearGradient id="SVGID_31_" gradientUnits="userSpaceOnUse" x1="1325.6609" y1="560.9227" x2="1438.2256" y2="560.9227">
					<stop  offset="0" style="stop-color:#DAE3FE"/>
					<stop  offset="1" style="stop-color:#E9EFFD"/>
				</linearGradient>
				<path class="st36" d="M1337.7,600.6h88.4c6.7,0,12.1-5.4,12.1-12.1v-55.3c0-6.7-5.4-12.1-12.1-12.1h-88.4
					c-6.7,0-12.1,5.4-12.1,12.1v55.3C1325.7,595.2,1331.1,600.6,1337.7,600.6z M1343.7,582.6v-43.3h76.4v43.3H1343.7z"/>
				<linearGradient id="SVGID_32_" gradientUnits="userSpaceOnUse" x1="1146.822" y1="695.1779" x2="1571.095" y2="695.1779">
					<stop  offset="0" style="stop-color:#DAE3FE"/>
					<stop  offset="1" style="stop-color:#E9EFFD"/>
				</linearGradient>
				<path class="st37" d="M1568.6,641.8c-3.5-6.3-10.1-10.2-17.3-10.2c0,0-0.1,0-0.1,0h-48.4v-12.3c0-6.7-5.4-12.1-12.1-12.1h-88.4
					c-6.7,0-12.1,5.4-12.1,12.1v51.2l-7.2,0.1v-51.3c0-6.7-5.4-12.1-12.1-12.1h-88.4c-6.7,0-12.1,5.4-12.1,12.1v52.1l-104.8,0.8
					c-7,0.1-13.3,3.9-16.6,10.1c-3.3,6.2-2.9,13.7,1.1,19.6l42.9,62.4c8,11.6,21.2,18.6,35.4,18.6H1474c12.5,0,23.9-6.3,30.6-17
					l63.5-103.9C1571.9,655.9,1572.1,648.2,1568.6,641.8z M1408.3,670.5v-45.1h76.4v6.3h-23.8c-11,0-21.3,5.4-27.6,14.5l-16.7,24.2
					L1408.3,670.5z M1288.5,625.4h76.4v45.4l-74.7,0.5l-1.7,0V625.4z M1552.7,652.6l-63.5,103.9c-3.3,5.3-9,8.4-15.3,8.4h-245.6
					c-8.2,0-15.8-4-20.5-10.8l-42.8-62.3c-0.1-0.1-0.3-0.5-0.1-1c0.2-0.5,0.6-0.5,0.8-0.5l124.6-1l94.5-0.7l14.4-0.1h0l22.1-0.2
					c2.9,0,5.7-1.5,7.4-3.9l19.4-28.1c2.9-4.2,7.6-6.7,12.7-6.7l90.4,0h0c0.7,0,1.2,0.3,1.6,0.9
					C1553.1,651.3,1553.1,651.9,1552.7,652.6z"/>
			</g>
		</g>
		<g>
			<linearGradient id="SVGID_33_" gradientUnits="userSpaceOnUse" x1="802.594" y1="1224.7734" x2="611.914" y2="2103.5618">
				<stop  offset="0" style="stop-color:#4F52FF"/>
				<stop  offset="1" style="stop-color:#4042E2"/>
			</linearGradient>
			<circle class="st38" cx="754" cy="1448.7" r="264.2"/>
			<g>
				<g>
					<linearGradient id="SVGID_34_" gradientUnits="userSpaceOnUse" x1="688.6135" y1="1431.2125" x2="908.0855" y2="1431.2125">
						<stop  offset="0" style="stop-color:#DAE3FE"/>
						<stop  offset="1" style="stop-color:#E9EFFD"/>
					</linearGradient>
					<path class="st39" d="M898.5,1440.8H698.2c-5.3,0-9.6-4.3-9.6-9.6c0-5.3,4.3-9.6,9.6-9.6h200.2c5.3,0,9.6,4.3,9.6,9.6
						C908.1,1436.5,903.8,1440.8,898.5,1440.8z"/>
					<g>
						<linearGradient id="SVGID_35_" gradientUnits="userSpaceOnUse" x1="751.3275" y1="1468.6696" x2="770.5797" y2="1468.6696">
							<stop  offset="0" style="stop-color:#DAE3FE"/>
							<stop  offset="1" style="stop-color:#E9EFFD"/>
						</linearGradient>
						<path class="st40" d="M761,1570c-5.3,0-9.6-7.1-9.6-15.8v-171.1c0-8.7,4.3-15.8,9.6-15.8c5.3,0,9.6,7.1,9.6,15.8v171.1
							C770.6,1563,766.3,1570,761,1570z"/>
						<linearGradient id="SVGID_36_" gradientUnits="userSpaceOnUse" x1="824.4847" y1="1468.6696" x2="843.737" y2="1468.6696">
							<stop  offset="0" style="stop-color:#DAE3FE"/>
							<stop  offset="1" style="stop-color:#E9EFFD"/>
						</linearGradient>
						<path class="st41" d="M834.1,1570c-5.3,0-9.6-7.1-9.6-15.8v-171.1c0-8.7,4.3-15.8,9.6-15.8c5.3,0,9.6,7.1,9.6,15.8v171.1
							C843.7,1563,839.4,1570,834.1,1570z"/>
					</g>
					<linearGradient id="SVGID_37_" gradientUnits="userSpaceOnUse" x1="688.6135" y1="1498.5942" x2="903.0547" y2="1498.5942">
						<stop  offset="0" style="stop-color:#DAE3FE"/>
						<stop  offset="1" style="stop-color:#E9EFFD"/>
					</linearGradient>
					<path class="st42" d="M892.3,1508.2h-193c-5.9,0-10.7-4.3-10.7-9.6c0-5.3,4.8-9.6,10.7-9.6h193c5.9,0,10.7,4.3,10.7,9.6
						C903.1,1503.9,898.3,1508.2,892.3,1508.2z"/>
					<linearGradient id="SVGID_38_" gradientUnits="userSpaceOnUse" x1="679.5743" y1="1468.2333" x2="915.4915" y2="1468.2333">
						<stop  offset="0" style="stop-color:#DAE3FE"/>
						<stop  offset="1" style="stop-color:#E9EFFD"/>
					</linearGradient>
					<path class="st43" d="M903.1,1575.9H692c-6.9,0-12.4-5.6-12.4-12.4V1373c0-6.9,5.6-12.4,12.4-12.4h211
						c6.9,0,12.4,5.6,12.4,12.4v190.6C915.5,1570.4,909.9,1575.9,903.1,1575.9z M704.4,1551.1h186.2v-165.7H704.4V1551.1z"/>
				</g>
				<linearGradient id="SVGID_39_" gradientUnits="userSpaceOnUse" x1="589.314" y1="1436.3579" x2="704.4444" y2="1436.3579">
					<stop  offset="0" style="stop-color:#DAE3FE"/>
					<stop  offset="1" style="stop-color:#E9EFFD"/>
				</linearGradient>
				<path class="st44" d="M692,1575.9h-90.3c-3.5,0-6.8-1.5-9.2-4.1c-2.4-2.6-3.5-6.1-3.2-9.6l24.4-254.3c0.6-6.4,6-11.2,12.4-11.2
					h43.6c6.4,0,11.8,4.9,12.4,11.4l22.2,254.3c0.3,3.5-0.9,6.9-3.2,9.5S695.5,1575.9,692,1575.9z M615.4,1551.1h63l-20.1-229.4
					h-20.9L615.4,1551.1z"/>
			</g>
		</g>
		<g>
			<g>
				<linearGradient id="SVGID_40_" gradientUnits="userSpaceOnUse" x1="3146.3169" y1="2755.4392" x2="2963.927" y2="3617.6433">
					<stop  offset="0" style="stop-color:#FF928E"/>
					<stop  offset="1" style="stop-color:#FE7062"/>
				</linearGradient>
				<path class="st45" d="M2507.5,3476.6v-459.5c0-60.4,48.5-109.5,108.9-110.2c181.2-2,554.8-2.1,860.6,23.7
					c41.7,3.5,74.2,37.7,75.7,79.6l28.6,444.2c2.1,58.8-44.3,107.9-103.1,109l-865.4,16.4
					C2554.9,3580.9,2507.5,3534.4,2507.5,3476.6z"/>
				<path class="st46" d="M3002.1,3298.2l124.4,13.4c17.4,1.9,32.3-12.5,31-29.9l-27.2-370c-52.1-1.7-103.6-2.9-153.2-3.7v362.3
					C2977,3284.6,2987.8,3296.6,3002.1,3298.2z"/>
				<path class="st0" d="M3053,3234c0.4,6.7,5.9,11.8,12.5,11.8c0.2,0,0.5,0,0.7,0c6.9-0.4,12.2-6.3,11.8-13.2l-18.8-322.9
					c-8.4-0.2-16.8-0.4-25.1-0.6L3053,3234z"/>
			</g>
			<g>
				<linearGradient id="SVGID_41_" gradientUnits="userSpaceOnUse" x1="3039.854" y1="2188.0847" x2="3023.2727" y2="3017.1301">
					<stop  offset="0" style="stop-color:#FF928E"/>
					<stop  offset="1" style="stop-color:#FE7062"/>
				</linearGradient>
				<path class="st47" d="M2652.7,2859.7V2537c0-42.4,34.1-76.9,76.5-77.4c127.2-1.4,389.7-1.5,604.4,16.6
					c29.3,2.5,52.1,26.5,53.2,55.9l20.1,312c1.5,41.3-31.1,75.7-72.4,76.5l-607.7,11.5C2686,2933,2652.7,2900.3,2652.7,2859.7z"/>
				<path class="st46" d="M3000.1,2734.4l87.3,9.4c12.2,1.3,22.7-8.8,21.8-21l-19.1-259.8c-36.6-1.2-72.7-2-107.6-2.6v254.5
					C2982.5,2724.9,2990.1,2733.3,3000.1,2734.4z"/>
				<path class="st0" d="M3035.9,2689.4c0.3,4.7,4.1,8.3,8.8,8.3c0.2,0,0.3,0,0.5,0c4.8-0.3,8.5-4.4,8.3-9.3l-13.2-226.8
					c-5.9-0.1-11.8-0.3-17.6-0.4L3035.9,2689.4z"/>
			</g>
		</g>
		<g>
			<g>
				<g>
					<linearGradient id="SVGID_42_" gradientUnits="userSpaceOnUse" x1="1957.2948" y1="1228.4668" x2="1372.7607" y2="3914.8325">
						<stop  offset="0" style="stop-color:#4F52FF"/>
						<stop  offset="1" style="stop-color:#4042E2"/>
					</linearGradient>
					<path class="st48" d="M2490.1,2174.4l-46.4-55.4c-12.5-15-16.7-35.2-11.7-54c12.8-47.5,19.9-95.8,21.6-144
						c0.7-19.6,10.6-37.6,27-48.3l60.7-39.4c25.6-16.6,37.8-47.6,30.5-77.2l-22-88.4c-7.4-29.6-32.7-51.3-63.1-54l-72.1-6.4
						c-19.5-1.7-36.7-13-46.5-30c-24-41.8-52.9-81.2-86.5-117.1c-13.3-14.3-19.1-34.1-15-53.2l15.1-70.7
						c6.4-29.8-6.9-60.4-33.1-76.1l-78-47c-26.1-15.7-59.4-13.1-82.8,6.4l-55.4,46.4c-15,12.6-35.2,16.7-54,11.7
						c-47.5-12.8-95.8-19.9-144-21.6c-19.6-0.7-37.6-10.6-48.3-27l-39.4-60.7c-16.6-25.6-47.6-37.8-77.2-30.5l-88.4,22
						c-29.6,7.4-51.3,32.7-54,63.1l-6.4,72.1c-1.7,19.5-13,36.7-30,46.5c-41.8,24-81.2,52.9-117.1,86.5
						c-14.3,13.3-34.1,19.1-53.2,15l-70.7-15.1c-29.8-6.3-60.4,6.9-76.1,33.1l-47,78c-15.7,26.1-13.1,59.4,6.4,82.8l46.4,55.4
						c12.5,15,16.7,35.2,11.7,54c-12.8,47.5-19.9,95.8-21.6,144c-0.7,19.6-10.6,37.6-27,48.3l-60.7,39.4
						c-25.6,16.6-37.8,47.6-30.5,77.2l22,88.4c7.4,29.6,32.7,51.3,63.1,54l72.1,6.4c19.5,1.7,36.7,13,46.5,30
						c24,41.8,52.9,81.2,86.5,117.1c13.3,14.3,19.1,34.1,15,53.2l-15.1,70.7c-6.3,29.8,6.9,60.4,33.1,76.1l78,47
						c26.1,15.7,59.4,13.1,82.8-6.4l55.4-46.4c15-12.5,35.2-16.7,54-11.7c47.5,12.8,95.8,19.9,144,21.6c19.6,0.7,37.6,10.6,48.3,27
						l39.4,60.7c16.6,25.6,47.6,37.8,77.2,30.5l88.4-22c29.6-7.4,51.3-32.7,54-63.1l6.4-72.1c1.7-19.5,13-36.7,30-46.5
						c41.8-24,81.2-52.9,117.1-86.5c14.3-13.3,34.1-19.1,53.2-15l70.7,15.1c29.8,6.3,60.4-6.9,76.1-33.1l47-78
						C2512.3,2231,2509.7,2197.8,2490.1,2174.4z M1585.5,2377.3c-264.7-124.9-378-440.7-253.1-705.4
						c124.9-264.7,440.7-378,705.4-253.1c264.7,124.9,378,440.7,253.1,705.4C2166,2388.8,1850.2,2502.2,1585.5,2377.3z"/>
				</g>
				<g>
					<linearGradient id="SVGID_43_" gradientUnits="userSpaceOnUse" x1="2147.5542" y1="1492.1774" x2="1774.4843" y2="2250.7532">
						<stop  offset="0" style="stop-color:#FF928E"/>
						<stop  offset="1" style="stop-color:#FE7062"/>
					</linearGradient>
					<path class="st49" d="M1495.8,1750.8c0,0,227.4-57,467.6-22.6c67.6,9.7,127.5,49,163.9,106.7c65.7,104,158.6,289.3,139,482.6
						l-103.1,25.5c0,0-71.3-229.4-151.5-322.7c0,0-95,216.6-90.2,335.5c0.1,3.4,0.4,6.6,0.7,9.8c10.9,116.4-456.1,21.7-456.1,21.7
						L1495.8,1750.8z"/>
					
						<linearGradient id="SVGID_44_" gradientUnits="userSpaceOnUse" x1="1632.6716" y1="1603.3146" x2="1627.9543" y2="1282.5317" gradientTransform="matrix(0.9329 0.3602 -0.3602 0.9329 756.8203 -140.6929)">
						<stop  offset="0" style="stop-color:#FEBBBA"/>
						<stop  offset="1" style="stop-color:#FF928E"/>
					</linearGradient>
					<path class="st50" d="M1741.5,1556.7l-48.4,154.2c-4.5,14.3,0,29.7,11.2,38.4c25.9,20,77.1,51.7,139.7,50.8
						c11.4-0.2,21.1-9.9,21.9-21.9l17.2-257.7L1741.5,1556.7z"/>
					<g>
						
							<linearGradient id="SVGID_45_" gradientUnits="userSpaceOnUse" x1="12570.6934" y1="1205.7938" x2="12290.3379" y2="1420.3083" gradientTransform="matrix(0.9672 0.2541 -0.2541 0.9672 -9938.2715 -2874.2493)">
							<stop  offset="0" style="stop-color:#FEBBBA"/>
							<stop  offset="1" style="stop-color:#FF928E"/>
						</linearGradient>
						<path class="st51" d="M1929,1387.7c0,0,18.8,121.4,7,179.4c-11.8,58-9.3,98.4-78.4,92.5c-69.2-5.9-116.2-53.4-131.4-118.3
							c0,0-24.2-100.2-4.2-133.4C1742,1374.8,1929,1387.7,1929,1387.7z"/>
						
							<linearGradient id="SVGID_46_" gradientUnits="userSpaceOnUse" x1="12373.7363" y1="1036.4581" x2="12627.5957" y2="1363.3021" gradientTransform="matrix(0.9672 0.2541 -0.2541 0.9672 -9938.2715 -2874.2493)">
							<stop  offset="0" style="stop-color:#09005D"/>
							<stop  offset="1" style="stop-color:#1A0F91"/>
						</linearGradient>
						<path class="st52" d="M1759.5,1506.3l8.4,2.2c0,0-15.9-79.7,17.6-84.2c33.5-4.5,159.8,2.6,196.9-33.2
							c35.7-34.5,27.4-93.3-2-116.8c-1.9-1.5-4.6-1.2-6.2,0.6l-4.1,4.5c-2.8,3.1-8,1.1-8.1-3l0,0c-0.1-4-4.8-6.1-7.7-3.3
							c-11.3,10.6-38.1,25.7-98.4,21.2c-85.5-6.4-148.2,12.5-164.3,68.5c-1,3.5-5.4,4.5-7.9,1.9c-5.1-5.3-14.2-9.5-30-2.1
							c-27.4,13-31,64.2,7.5,117.3c1.8,2.5,0.9,6.2-2.1,7.1c-10.4,3.5-27.3,13.8,2.2,41.2c30.2,28,51.6,31.5,60,31.5
							c2.3,0,4.2-1.5,4.6-3.8l10-50.8c0.5-2.6,3.1-4.3,5.7-3.6L1759.5,1506.3z"/>
						
							<linearGradient id="SVGID_47_" gradientUnits="userSpaceOnUse" x1="12535.9189" y1="1160.3433" x2="12255.5635" y2="1374.8579" gradientTransform="matrix(0.9672 0.2541 -0.2541 0.9672 -9938.2715 -2874.2493)">
							<stop  offset="0" style="stop-color:#FEBBBA"/>
							<stop  offset="1" style="stop-color:#FF928E"/>
						</linearGradient>
						<path class="st53" d="M1758.8,1517.3c0,0,0.2-74.4-36.1-63s-4.3,82.2,20.1,91.4L1758.8,1517.3z"/>
					</g>
					<g>
						<linearGradient id="SVGID_48_" gradientUnits="userSpaceOnUse" x1="1804.6661" y1="1323.5443" x2="1431.5977" y2="2082.1172">
							<stop  offset="0" style="stop-color:#FF928E"/>
							<stop  offset="1" style="stop-color:#FE7062"/>
						</linearGradient>
						<path class="st54" d="M1497.2,2214.5c-10.1-71.1,63.6-175.7,94-215.3c8.7-11.3,13.6-25.2,13.7-39.5
							c0.9-100.7-41.4-165.4-109.2-208.8c0,0-245.9,286.5-183.3,506.9c6.8,23.8,17.2,44.2,30.5,61.8
							C1352.8,2236.5,1448.8,2218.4,1497.2,2214.5z"/>
						<linearGradient id="SVGID_49_" gradientUnits="userSpaceOnUse" x1="1489.6793" y1="1899.6735" x2="1595.8177" y2="2281.772">
							<stop  offset="0" style="stop-color:#E1473D"/>
							<stop  offset="1" style="stop-color:#E9605A"/>
						</linearGradient>
						<path class="st55" d="M1501.7,2187l-9.4-1.1c7.9-69.7,69.1-155.8,95.1-189.6l7.5,5.7C1569.5,2035.2,1509.4,2119.6,1501.7,2187
							z"/>
						<linearGradient id="SVGID_50_" gradientUnits="userSpaceOnUse" x1="1471.3026" y1="2132.9905" x2="1650.5679" y2="2604.741">
							<stop  offset="0" style="stop-color:#FEBBBA"/>
							<stop  offset="1" style="stop-color:#FF928E"/>
						</linearGradient>
						<path class="st56" d="M1499.1,2224.4c-0.9-3.2-1.5-6.5-1.9-9.8c-48.4,3.8-144.3,21.9-154.2,105
							c109.7,145.2,412.3,92.8,412.3,92.8v-56.5C1755.2,2355.8,1522.9,2312.6,1499.1,2224.4z"/>
					</g>
					<linearGradient id="SVGID_51_" gradientUnits="userSpaceOnUse" x1="1693.7222" y1="2048.4719" x2="1872.9868" y2="2520.2207">
						<stop  offset="0" style="stop-color:#FEBBBA"/>
						<stop  offset="1" style="stop-color:#FF928E"/>
					</linearGradient>
					<path class="st57" d="M1726.1,2396.7c0,0,44.7-105.4,123.4-68c78.7,37.4,72.5,61.8,72.5,61.8L1726.1,2396.7z"/>
					<linearGradient id="SVGID_52_" gradientUnits="userSpaceOnUse" x1="2082.7871" y1="2219.7747" x2="1990.0095" y2="2339.2847">
						<stop  offset="0" style="stop-color:#09005D"/>
						<stop  offset="1" style="stop-color:#1A0F91"/>
					</linearGradient>
					<path class="st58" d="M1716.1,2418.6L1716.1,2418.6c0.6,8,7.4,14,15.4,13.8l407.8-14.2c6.3-0.2,11.8-4.4,13.7-10.5l11.8-37.9
						c2.9-9.3-3.7-18.9-13.5-19.4l-148.7-7.9c-1.4-0.1-2.7,0-4,0.3l-270.9,60C1720.5,2404.4,1715.5,2411.1,1716.1,2418.6z"/>
					<linearGradient id="SVGID_53_" gradientUnits="userSpaceOnUse" x1="2152.1072" y1="2273.5891" x2="2059.3301" y2="2393.0986">
						<stop  offset="0" style="stop-color:#09005D"/>
						<stop  offset="1" style="stop-color:#1A0F91"/>
					</linearGradient>
					<polygon class="st59" points="1989.5,2403.7 2000.7,2351.4 2153.4,2358.7 2143.4,2402.1 					"/>
					<linearGradient id="SVGID_54_" gradientUnits="userSpaceOnUse" x1="2331.2275" y1="1680.6117" x2="2165.4189" y2="2294.104">
						<stop  offset="0" style="stop-color:#09005D"/>
						<stop  offset="1" style="stop-color:#1A0F91"/>
					</linearGradient>
					<path class="st60" d="M1911.1,1840.8c-8.6,70.6-47.5,357.7-58.7,439.7c-1.6,11.5,7.6,21.7,19.2,21.3l659.8-18.9
						c8.6-0.2,16-6.3,17.9-14.8L2652,1806c2.7-12.2-7-23.6-19.5-22.9l-703.7,41.2C1919.7,1824.9,1912.3,1831.8,1911.1,1840.8z"/>
					<linearGradient id="SVGID_55_" gradientUnits="userSpaceOnUse" x1="2163.6223" y1="2034.2317" x2="2257.9727" y2="2614.4829">
						<stop  offset="0" style="stop-color:#09005D"/>
						<stop  offset="1" style="stop-color:#1A0F91"/>
					</linearGradient>
					<path class="st61" d="M2176.4,2130.7l-97.5,276.8l226.7,4.8l18.9-279.9c0.9-13.1-10-24-23.1-23.2l-105.9,7
						C2186.8,2116.8,2179.2,2122.5,2176.4,2130.7z"/>
					<linearGradient id="SVGID_56_" gradientUnits="userSpaceOnUse" x1="2121.146" y1="2371.7595" x2="2399.478" y2="2554.1692">
						<stop  offset="0" style="stop-color:#09005D"/>
						<stop  offset="1" style="stop-color:#1A0F91"/>
					</linearGradient>
					<path class="st62" d="M1986.9,2411.4L1986.9,2411.4c-2.5,7.6,3.2,15.4,11.2,15.4h355.1c6.5,0,11.8-5.3,11.8-11.8v-15.2
						c0-6.7-5.6-12.1-12.3-11.8l-355.1,15.2C1992.7,2403.5,1988.4,2406.8,1986.9,2411.4z"/>
				</g>
				<path class="st4" d="M1901.2,2132.8l-4.7-0.6l32.4-255.7c2-15.9,15-28.1,31-29l608.1-36.7l0.3,4.7l-608.1,36.7
					c-13.7,0.8-24.9,11.3-26.6,24.9L1901.2,2132.8z"/>
				
					<rect x="1858.2" y="2230.7" transform="matrix(0.125 -0.9922 0.9922 0.125 -565.1763 3825.2495)" class="st4" width="55.8" height="4.7"/>
			</g>
			<g>
				<g>
					<g>
						
							<linearGradient id="SVGID_57_" gradientUnits="userSpaceOnUse" x1="1784.5513" y1="1789.7808" x2="1894.7311" y2="1715.0826" gradientTransform="matrix(0.9856 -0.1691 0.1691 0.9856 -316.3687 156.5187)">
							<stop  offset="0" style="stop-color:#4F52FF"/>
							<stop  offset="1" style="stop-color:#4042E2"/>
						</linearGradient>
						<path class="st63" d="M1864.2,1595.7c-73.3,5.5-115.9-70.2-116.3-71l4.9-2.7c0.4,0.7,41.3,73.4,111,68.1L1864.2,1595.7z"/>
					</g>
					<path class="st64" d="M1894.1,1592.8c0,4.3-3.5,7.9-7.9,7.9h-21c-4.3,0-7.9-3.5-7.9-7.9l0,0c0-4.3,3.5-7.9,7.9-7.9h21
						C1890.6,1585,1894.1,1588.5,1894.1,1592.8L1894.1,1592.8z"/>
				</g>
				<g>
					<linearGradient id="SVGID_58_" gradientUnits="userSpaceOnUse" x1="1840.0626" y1="1255.2338" x2="1721.9242" y2="1501.8741">
						<stop  offset="0" style="stop-color:#4F52FF"/>
						<stop  offset="1" style="stop-color:#4042E2"/>
					</linearGradient>
					<path class="st65" d="M1753,1440.6c0,0,26.3-134.9,103.8-147.6c0,0-21.9-11-44.8,0.9c-22.9,12-80.7,77.6-78.3,150
						C1749.3,1449.6,1753,1440.6,1753,1440.6z"/>
					<linearGradient id="SVGID_59_" gradientUnits="userSpaceOnUse" x1="1880.7307" y1="1248.2863" x2="1806.1171" y2="1383.0054">
						<stop  offset="0" style="stop-color:#4F52FF"/>
						<stop  offset="1" style="stop-color:#4042E2"/>
					</linearGradient>
					<path class="st66" d="M1739.5,1434.3c-40.3,8.2-35.3,59.1-35.3,59.1c-2.9,37,7.9,55.3,21.7,64c9.4,6,21.3,6.5,31.3,1.5
						c10-5,16.6-14.9,17.4-26.1c0.7-10.1,1.6-19.6,2.3-23C1778.8,1501.6,1779.8,1426.1,1739.5,1434.3z"/>
				</g>
				<linearGradient id="SVGID_60_" gradientUnits="userSpaceOnUse" x1="1862.9401" y1="1356.8604" x2="2211.1382" y2="958.9193">
					<stop  offset="0" style="stop-color:#4F52FF"/>
					<stop  offset="1" style="stop-color:#4042E2"/>
				</linearGradient>
				<path class="st67" d="M1743.2,1447.1c-8.4-1.5-16.6,3-20,10.8c-24.1,55.8,5.5,92,20,92.8c15.3,0.8,15-72.8,11.7-91.6
					C1753.6,1451.2,1748.6,1448.1,1743.2,1447.1z"/>
			</g>
		</g>
		<g>
			<g>
				
					<linearGradient id="SVGID_61_" gradientUnits="userSpaceOnUse" x1="828.2925" y1="3944.8047" x2="976.9874" y2="2206.9331" gradientTransform="matrix(-1 0 0 1 1415.2515 0)">
					<stop  offset="0" style="stop-color:#FEBBBA"/>
					<stop  offset="1" style="stop-color:#FF928E"/>
				</linearGradient>
				<path class="st68" d="M572.2,2946.4l4.5,82.8c0,0-25.7,277.2-31.1,400c-0.8,19.2,4.1,38.3,14.2,54.7l52.7,85.5l-133.9-79
					l-2.7-16.3l21.9-30.1l-28.7-343.8c-1.7-20.2,2.5-40.4,12-58.3l27.7-52L572.2,2946.4z"/>
				<linearGradient id="SVGID_62_" gradientUnits="userSpaceOnUse" x1="607.2686" y1="3444.2578" x2="824.0111" y2="3133.426">
					<stop  offset="0" style="stop-color:#09005D"/>
					<stop  offset="1" style="stop-color:#1A0F91"/>
				</linearGradient>
				<path class="st69" d="M621.3,3581.8h-42.7c-8,0-15.5-3.7-20.4-10c-13.3-17.3-40.9-51.1-54.1-52c-17.8-1.2-15.5,62-15.5,62h-10
					l-12.6-78.5c-3.2-19.7,6.6-39.3,24.4-48.6l0,0c0,0,4.1,30,26.1,43.3c22,13.3,89.6,60.8,89.6,60.8s8.3-1.2,17.4,0.5
					C636.9,3561.8,635,3581.8,621.3,3581.8z"/>
			</g>
			<g>
				
					<linearGradient id="SVGID_63_" gradientUnits="userSpaceOnUse" x1="941.1782" y1="3944.6138" x2="1089.873" y2="2206.7422" gradientTransform="matrix(-1 0 0 1 1415.2515 0)">
					<stop  offset="0" style="stop-color:#FEBBBA"/>
					<stop  offset="1" style="stop-color:#FF928E"/>
				</linearGradient>
				<path class="st70" d="M457.1,2946.4l9,53.2c0,0-30.3,306.9-35.7,429.6c-0.8,19.2,4.1,38.3,14.2,54.7l52.7,85.5l-133.9-79
					l-2.7-16.3l21.9-30.1l-28.7-343.8c-1.7-20.2,2.5-40.4,12-58.3l27.7-52L457.1,2946.4z"/>
				
					<linearGradient id="SVGID_64_" gradientUnits="userSpaceOnUse" x1="897.7398" y1="3518.2849" x2="1064.9307" y2="3518.2849" gradientTransform="matrix(-1 0 0 1 1415.2515 0)">
					<stop  offset="0" style="stop-color:#09005D"/>
					<stop  offset="1" style="stop-color:#1A0F91"/>
				</linearGradient>
				<path class="st71" d="M506.2,3581.8h-42.7c-8,0-15.5-3.7-20.4-10c-13.3-17.3-40.9-51.1-54.1-52c-17.8-1.2-15.5,62-15.5,62h-10
					l-12.6-78.5c-3.2-19.7,6.6-39.3,24.4-48.6l0,0c0,0,4.1,30,26.1,43.3c22,13.3,89.6,60.8,89.6,60.8s8.3-1.2,17.4,0.5
					C521.8,3561.8,519.9,3581.8,506.2,3581.8z"/>
			</g>
			
				<linearGradient id="SVGID_65_" gradientUnits="userSpaceOnUse" x1="1953.0051" y1="2168.2146" x2="1706.777" y2="2367.064" gradientTransform="matrix(0.9684 -0.2493 0.2493 0.9684 -1636.6222 344.8383)">
				<stop  offset="0" style="stop-color:#FEBBBA"/>
				<stop  offset="1" style="stop-color:#FF928E"/>
			</linearGradient>
			<path class="st72" d="M544.6,2067.4c0,0,19.5-0.1,52.4,21.1c32.9,21.2,92.1,81,92.1,81l-59.8-165.9l43.9-11.3
				c0,0,110.6,200.6,89.8,235.8c-20.8,35.2-127.2,25.5-181.5-66.7C553.1,2093.7,544.6,2067.4,544.6,2067.4z"/>
			<linearGradient id="SVGID_66_" gradientUnits="userSpaceOnUse" x1="2216.4673" y1="198.2791" x2="1694.1162" y2="807.6886">
				<stop  offset="0" style="stop-color:#09005D"/>
				<stop  offset="1" style="stop-color:#1A0F91"/>
			</linearGradient>
			<path class="st73" d="M305.3,2125.2c-5,3.9,83.1,190.6,83.3,342.6c0,0,84.5,18.4,155-15.1c0,0,69-204.2,66.5-228.2
				c-2.8-27.2-57.6-156.4-57.6-156.4S429.1,2029.2,305.3,2125.2z"/>
			
				<linearGradient id="SVGID_67_" gradientUnits="userSpaceOnUse" x1="1535.5233" y1="2322.9763" x2="1617.2173" y2="2504.2053" gradientTransform="matrix(0.9684 -0.2493 0.2493 0.9684 -1636.6222 344.8383)">
				<stop  offset="0" style="stop-color:#FEBBBA"/>
				<stop  offset="1" style="stop-color:#FF928E"/>
			</linearGradient>
			<path class="st74" d="M596.9,2324.1c-3.9-6.5-10.6-10.8-18.1-11.8l-73.2-9.6c0,0-3.2-8.3,10.3-17.9c13.5-9.7,5.7-25.6,5.7-25.6
				s-18.1,14.6-44.3,37.2c-15,12.9-20.8,30.4-23,43l22.9,18.1c44.1,1.8,86.1-6.6,126.6-22.2L596.9,2324.1z"/>
			
				<linearGradient id="SVGID_68_" gradientUnits="userSpaceOnUse" x1="1392.2311" y1="2387.573" x2="1473.926" y2="2568.8042" gradientTransform="matrix(0.9684 -0.2493 0.2493 0.9684 -1636.6222 344.8383)">
				<stop  offset="0" style="stop-color:#FEBBBA"/>
				<stop  offset="1" style="stop-color:#FF928E"/>
			</linearGradient>
			<path class="st75" d="M305.3,2125.2c0,0-139.7,125-81.3,277.9c58.4,152.9,265.3-54.5,265.3-54.5l-15.7-36.4
				c0,0-138.2,81.8-172.7,50.9c-25.3-22.6,19.4-102.5,45-143.4c9.4-15,8.2-34.3-2.9-48.1L305.3,2125.2z"/>
			<g>
				
					<linearGradient id="SVGID_69_" gradientUnits="userSpaceOnUse" x1="7356.4644" y1="2284.7498" x2="7296.689" y2="2369.0864" gradientTransform="matrix(0.844 -0.5364 0.5364 0.844 -6838.6943 3975.4028)">
					<stop  offset="0" style="stop-color:#FEBBBA"/>
					<stop  offset="1" style="stop-color:#FF928E"/>
				</linearGradient>
				<path class="st76" d="M605.4,2007.7c0,0-15.2-8.3-21-19.1c-5.8-10.8-21.8-21.9-14.3-25.1c7.5-3.2,8.4-5,18.1,6.2
					C597.9,1980.8,643.6,2015.9,605.4,2007.7z"/>
				<g>
					
						<linearGradient id="SVGID_70_" gradientUnits="userSpaceOnUse" x1="7424.9678" y1="2237.9392" x2="7215.6045" y2="2533.3286" gradientTransform="matrix(0.844 -0.5364 0.5364 0.844 -6838.6943 3975.4028)">
						<stop  offset="0" style="stop-color:#09005D"/>
						<stop  offset="1" style="stop-color:#1A0F91"/>
					</linearGradient>
					<path class="st77" d="M608.5,1898.3c-1.3-1.9-3.4-3.1-5.7-3.3c-2.3-0.2-4.5,0.6-6.2,2.3l-40.3,40.7c-1.6,1.6-1.7,4.1-0.3,5.8
						l91.6,113.9c0.4,0.5,1,0.8,1.6,0.9c0.6,0.1,1.3-0.1,1.7-0.5l38-31.2c3.1-2.6,3.7-7.1,1.5-10.4L608.5,1898.3z"/>
					
						<linearGradient id="SVGID_71_" gradientUnits="userSpaceOnUse" x1="7410.5562" y1="2252.4351" x2="7241.8965" y2="2490.3958" gradientTransform="matrix(0.844 -0.5364 0.5364 0.844 -6838.6943 3975.4028)">
						<stop  offset="0" style="stop-color:#FF928E"/>
						<stop  offset="1" style="stop-color:#FE7062"/>
					</linearGradient>
					<path class="st78" d="M599.7,1913.8c-0.8-1.1-2-1.7-3.3-1.8c-1.3-0.1-2.6,0.4-3.5,1.4l-26.1,27.5c-1.5,1.6-1.6,4-0.2,5.8
						l78.1,96.9c0.4,0.5,1,0.8,1.7,0.9c0.7,0,1.3-0.2,1.8-0.6l25.4-23.3c0.9-0.8,1-2.1,0.3-3.1L599.7,1913.8z"/>
					
						<linearGradient id="SVGID_72_" gradientUnits="userSpaceOnUse" x1="7079.0566" y1="5668.2065" x2="7064.7231" y2="5688.4292" gradientTransform="matrix(0.7176 -0.6964 0.3659 0.377 -6578.8594 4715.9165)">
						<stop  offset="0" style="stop-color:#8D55D1"/>
						<stop  offset="0.9964" style="stop-color:#1C2873"/>
					</linearGradient>
					<path class="st79" d="M580.1,1922.3c0.3,0.3,0.1,1.1-0.5,1.7l-9,8.7c-0.6,0.6-1.4,0.8-1.7,0.5l-0.3-0.3
						c-0.3-0.3-0.1-1.1,0.5-1.7l9-8.7c0.6-0.6,1.4-0.8,1.7-0.5L580.1,1922.3z"/>
				</g>
				
					<linearGradient id="SVGID_73_" gradientUnits="userSpaceOnUse" x1="7422.2559" y1="2265.3335" x2="7321.9937" y2="2406.7927" gradientTransform="matrix(0.844 -0.5364 0.5364 0.844 -6838.6943 3975.4028)">
					<stop  offset="0" style="stop-color:#FEBBBA"/>
					<stop  offset="1" style="stop-color:#FF928E"/>
				</linearGradient>
				<path class="st80" d="M637.4,1917.6c-7.6,1.6-33-11.6-30.9-3.2c2.1,8.3,11.3,15.7,12.2,19.2c0.9,3.5,4.5,24,12.3,29.6
					c5.6,4,19.7,18.3,27.2,26c2.5,2.5,6.4,3,9.4,1.1c3-1.9,4.2-5.6,3-9C670,1980,645,1915.9,637.4,1917.6z"/>
			</g>
			
				<linearGradient id="SVGID_74_" gradientUnits="userSpaceOnUse" x1="1549.4675" y1="2318.0342" x2="1697.3542" y2="2043.3879" gradientTransform="matrix(0.9684 -0.2493 0.2493 0.9684 -1636.6222 344.8383)">
				<stop  offset="0" style="stop-color:#FEBBBA"/>
				<stop  offset="1" style="stop-color:#FF928E"/>
			</linearGradient>
			<path class="st81" d="M462.7,1955.9c0,0-14.7,76.5-26.2,110.1c-3.4,9.9,1.2,20.7,10.7,25.1c10.8,5,27.2,8.4,49.8,2.8
				c9.5-2.3,16.2-10.9,16.3-20.7l1.2-83.4L462.7,1955.9z"/>
			<g>
				
					<linearGradient id="SVGID_75_" gradientUnits="userSpaceOnUse" x1="-92.0245" y1="-2130.3301" x2="81.7818" y2="-2012.2732" gradientTransform="matrix(-0.8724 -0.4888 -0.4888 0.8724 -533.7189 3750.0251)">
					<stop  offset="0" style="stop-color:#FEBBBA"/>
					<stop  offset="1" style="stop-color:#FF928E"/>
				</linearGradient>
				<path class="st82" d="M558.6,1871.3c0,0,23.8,30.7,19.8,87.7c-4,57-31.6,69-53.1,60.7c-21.5-8.3-51.1-25.4-66.2-72.2
					C443.9,1900.7,526.8,1832.9,558.6,1871.3z"/>
				
					<linearGradient id="SVGID_76_" gradientUnits="userSpaceOnUse" x1="1660.9063" y1="1987.7416" x2="1503.1537" y2="1722.9421" gradientTransform="matrix(0.9684 -0.2493 0.2493 0.9684 -1636.6222 344.8383)">
					<stop  offset="0" style="stop-color:#E1473D"/>
					<stop  offset="1" style="stop-color:#E9605A"/>
				</linearGradient>
				<path class="st83" d="M493.8,1935.2c0,0,13.4-79.2,72.4-47.2l8.4,17.3c0,0,42-24.6,16.5-61.8c-25.5-37.2-86.8-51.1-128.4-12
					c-41.6,39.1-50,74.7-37.8,111.4c12.2,36.7,36.9,16.7,36.9,16.7s-1.7-28.9,10.2-37.1c11.9-8.3,17,12.6,17,12.6L493.8,1935.2z"/>
				
					<linearGradient id="SVGID_77_" gradientUnits="userSpaceOnUse" x1="-81.6079" y1="-2145.6648" x2="92.1984" y2="-2027.6079" gradientTransform="matrix(-0.8724 -0.4888 -0.4888 0.8724 -533.7189 3750.0251)">
					<stop  offset="0" style="stop-color:#FEBBBA"/>
					<stop  offset="1" style="stop-color:#FF928E"/>
				</linearGradient>
				<path class="st84" d="M483.1,1938.9c0,0,7.1-40.7-16.3-36c-23.5,4.6-4.7,38.6,3.3,50.8L483.1,1938.9z"/>
				
					<linearGradient id="SVGID_78_" gradientUnits="userSpaceOnUse" x1="1518.0084" y1="2072.8794" x2="1360.2594" y2="1808.0856" gradientTransform="matrix(0.9684 -0.2493 0.2493 0.9684 -1636.6222 344.8383)">
					<stop  offset="0" style="stop-color:#E1473D"/>
					<stop  offset="1" style="stop-color:#E9605A"/>
				</linearGradient>
				<path class="st85" d="M449.5,1863c12.6-4.9,13.6-22.3,2.4-29.6c-36.5-23.8-99.1-44.4-162,28.2
					c-70.9,81.8-110.6,120.8-133.2,120.6c-14.9-0.1-23.4,16.7-13.5,27.9c7.3,8.2,19.7,15.6,40.3,19.9
					C342.3,2063.2,375.9,1891.8,449.5,1863z"/>
			</g>
			<linearGradient id="SVGID_79_" gradientUnits="userSpaceOnUse" x1="574.0081" y1="2467.5183" x2="346.0198" y2="3093.4485">
				<stop  offset="0" style="stop-color:#4F52FF"/>
				<stop  offset="1" style="stop-color:#4042E2"/>
			</linearGradient>
			<path class="st86" d="M312.4,2596.4c7.3-58.7,76.2-128.5,76.2-128.5c109.6,16.4,161.3-21.4,161.3-21.4s23,77.3,23.3,137.8
				c0.3,60.5,12,449.8,12,449.8c-107.3,45-241.9,20.2-241.9,20.2C351.5,2914.4,305.1,2655,312.4,2596.4z"/>
		</g>
	</g>
	<g>
	</g>
	<g>
	</g>
	<g>
	</g>
	<g>
	</g>
	<g>
	</g>
	<g>
	</g>
	<g>
	</g>
	<g>
	</g>
	<g>
	</g>
	<g>
	</g>
	<g>
	</g>
	<g>
	</g>
	<g>
	</g>
	<g>
	</g>
	<g>
	</g>
</g>
</svg>
