<?xml version="1.0" encoding="utf-8"?>
<!-- Generator: Adobe Illustrator 23.0.5, SVG Export Plug-In . SVG Version: 6.00 Build 0)  -->
<svg version="1.1" id="Layer_1" xmlns="http://www.w3.org/2000/svg" xmlns:xlink="http://www.w3.org/1999/xlink" x="0px" y="0px"
	 viewBox="0 0 435.2 515.9" style="enable-background:new 0 0 435.2 515.9;" xml:space="preserve">
<style type="text/css">
	.st0{opacity:0.68;fill:#EAECF1;enable-background:new    ;}
	.st1{opacity:0.18;}
	.st2{clip-path:url(#SVGID_2_);}
	.st3{fill:#C2C2C2;}
	.st4{fill:#A1A9B9;}
	.st5{fill:#004B8D;}
	.st6{fill:#FFFFFF;}
	.st7{fill:#F6F6F6;}
	.st8{fill:#F63838;}
	.st9{fill:#FFBA19;}
	.st10{fill:#43C939;}
	.st11{fill:#EAECF1;}
	.st12{fill:#66C5E7;}
	.st13{fill-rule:evenodd;clip-rule:evenodd;fill:#B28B67;}
	.st14{fill-rule:evenodd;clip-rule:evenodd;fill:#191847;}
	.st15{fill:#C2CBE3;}
	.st16{fill-rule:evenodd;clip-rule:evenodd;fill:#1F28CF;}
	.st17{fill-rule:evenodd;clip-rule:evenodd;fill:#2B44FF;}
	.st18{fill-rule:evenodd;clip-rule:evenodd;fill:#E4E4E4;}
	.st19{fill-rule:evenodd;clip-rule:evenodd;fill:#00116F;}
	.st20{fill-rule:evenodd;clip-rule:evenodd;fill:#DDE3E9;}
	.st21{fill-rule:evenodd;clip-rule:evenodd;fill:#D4A181;}
	.st22{fill-rule:evenodd;clip-rule:evenodd;fill:#BA8B72;}
	.st23{fill-rule:evenodd;clip-rule:evenodd;fill:#69A1AC;}
	.st24{fill-rule:evenodd;clip-rule:evenodd;fill:#89C5CC;}
	.st25{fill-rule:evenodd;clip-rule:evenodd;fill:#2026A2;}
	.st26{fill:none;stroke:#AFB8CC;stroke-dasharray:3,2;}
</style>
<ellipse id="Ellipse_5" class="st0" cx="227.3" cy="405.1" rx="199.8" ry="42.9"/>
<g id="Group_152" transform="translate(0 330.85)" class="st1">
	<g id="Group_151" transform="translate(0 0)">
		<g>
			<defs>
				<rect id="SVGID_1_" x="119.2" y="32.2" width="251.9" height="17.4"/>
			</defs>
			<clipPath id="SVGID_2_">
				<use xlink:href="#SVGID_1_"  style="overflow:visible;"/>
			</clipPath>
			<g id="Group_150" class="st2">
				<path id="Path_10488" class="st3" d="M119.2,41c0-7.7,44-8.7,127.1-8.7c75.1,0,124.8,0,124.8,8.7s-48.3,8.7-124.8,8.7
					C160.2,49.7,119.2,49.7,119.2,41"/>
			</g>
		</g>
	</g>
</g>
<path id="Path_10489" class="st4" d="M162.9,32.2C162.9,32.2,162.9,32.2,162.9,32.2c-12.8,0-23.1,10.4-23.1,23.1v291.5c0,0,0,0,0,0
	c0,12.8,10.4,23.1,23.1,23.1h135.6c0,0,0,0,0,0c12.8,0,23.1-10.4,23.1-23.1V55.3c0,0,0,0,0,0c0-12.8-10.4-23.1-23.1-23.1H162.9"/>
<path id="Path_10490" class="st5" d="M184.1,32.2C184.1,32.2,184.1,32.2,184.1,32.2c-12.8,0-23.1,10.4-23.1,23.1v291.5c0,0,0,0,0,0
	c0,12.8,10.4,23.1,23.1,23.1h135.6c0,0,0,0,0,0c12.8,0,23.1-10.4,23.1-23.1V55.3c0,0,0,0,0,0c0-12.8-10.4-23.1-23.1-23.1H184.1"/>
<path id="Path_10491" class="st4" d="M256.2,357c-7.7,0-14-6.3-14-14c0,0,0,0,0,0c0-7.7,6.3-14,14-14c7.7,0,14,6.3,14,14
	C270.2,350.7,263.9,357,256.2,357"/>
<path id="Path_10492" class="st4" d="M235.2,45.7c-0.8,0-1.5,0.7-1.5,1.5c0,0.8,0.6,1.5,1.5,1.6h32.3c0,0,0.1,0,0.1,0
	c0.8,0,1.5-0.7,1.5-1.6c0-0.8-0.7-1.5-1.6-1.5H235.2"/>
<path id="Path_10493" class="st4" d="M274.9,49.2c-0.1,0-0.3,0-0.4,0c-0.1,0-0.3-0.1-0.4-0.1c-0.1-0.1-0.2-0.1-0.3-0.2
	c-0.2-0.1-0.4-0.3-0.6-0.6c-0.1-0.1-0.1-0.2-0.2-0.3c-0.1-0.1-0.1-0.2-0.1-0.4c0-0.1,0-0.3,0-0.4c0-0.1,0-0.3,0-0.4
	c0-0.1,0.1-0.3,0.1-0.4c0.1-0.1,0.1-0.2,0.2-0.4c0.1-0.1,0.2-0.2,0.3-0.3c0.1-0.1,0.2-0.2,0.3-0.3c0.1-0.1,0.2-0.1,0.3-0.2
	c0.1-0.1,0.3-0.1,0.4-0.1c0.3-0.1,0.5-0.1,0.8,0c0.1,0,0.3,0.1,0.4,0.1c0.1,0.1,0.2,0.1,0.4,0.2c0.1,0.1,0.2,0.2,0.3,0.3
	c0.1,0.1,0.2,0.2,0.3,0.3c0.1,0.1,0.1,0.2,0.2,0.4c0,0.1,0.1,0.2,0.1,0.4c0.1,0.3,0.1,0.5,0,0.8c0,0.1-0.1,0.3-0.1,0.4
	c-0.1,0.1-0.1,0.2-0.2,0.3c-0.1,0.1-0.2,0.2-0.3,0.3C275.9,49,275.4,49.2,274.9,49.2"/>
<rect id="Rectangle_76" x="176.3" y="61.9" class="st6" width="153.1" height="254.3"/>
<rect id="Rectangle_77" x="176.3" y="61.9" class="st7" width="153.1" height="25.8"/>
<path id="Path_10494" class="st8" d="M312.5,74.2L312.5,74.2c0-2.1,1.7-3.7,3.7-3.7c2.1,0,3.7,1.7,3.7,3.7s-1.7,3.7-3.7,3.7
	C314.1,77.9,312.5,76.2,312.5,74.2"/>
<path id="Path_10495" class="st9" d="M300.5,74.2L300.5,74.2c0-2.1,1.7-3.7,3.7-3.7c2.1,0,3.7,1.7,3.7,3.7s-1.7,3.7-3.7,3.7
	C302.2,77.9,300.5,76.2,300.5,74.2"/>
<path id="Path_10496" class="st10" d="M288.6,74.2L288.6,74.2c0-2.1,1.7-3.7,3.7-3.7s3.7,1.7,3.7,3.7s-1.7,3.7-3.7,3.7
	C290.3,77.9,288.6,76.2,288.6,74.2"/>
<path id="Path_10497" class="st11" d="M194.3,125.4L194.3,125.4c-1.8,0-3.3-1.5-3.3-3.3V122c0-1.8,1.5-3.3,3.3-3.3h101.4
	c1.8,0,3.3,1.5,3.3,3.3v0.1c0,1.8-1.5,3.3-3.3,3.3H194.3"/>
<path id="Path_10498" class="st11" d="M220.3,163.7L220.3,163.7c-1.8,0-3.3-1.5-3.3-3.3v-0.1c0-1.8,1.5-3.3,3.3-3.3h73.6
	c1.8,0,3.3,1.5,3.3,3.3v0.1c0,1.8-1.5,3.3-3.3,3.3H220.3"/>
<path id="Path_10499" class="st11" d="M195.3,163.7L195.3,163.7c-1.8,0-3.3-1.5-3.3-3.3v-0.1c0-1.8,1.5-3.3,3.3-3.3h11
	c1.8,0,3.3,1.5,3.3,3.3v0.1c0,0,0,0,0,0c0,1.8-1.5,3.3-3.3,3.3H195.3"/>
<path id="Path_10500" class="st11" d="M261.4,145.1L261.4,145.1c-1.8,0-3.3-1.5-3.3-3.3v-0.1c0,0,0,0,0,0c0-1.8,1.5-3.3,3.3-3.3H308
	c1.8,0,3.3,1.5,3.3,3.3v0.1c0,1.8-1.5,3.3-3.3,3.3H261.4"/>
<path id="Path_10501" class="st11" d="M210,145.1L210,145.1c-1.8,0-3.3-1.5-3.3-3.3v-0.1c0,0,0,0,0,0c0-1.8,1.5-3.3,3.3-3.3h34.6
	c1.8,0,3.3,1.5,3.3,3.3v0.1c0,1.8-1.5,3.3-3.3,3.3H210"/>
<path id="Path_10502" class="st12" d="M261.6,211.3c0-13.6,11-24.7,24.7-24.7c0,0,0,0,0,0c13.6,0,24.7,11,24.7,24.7
	s-11,24.7-24.7,24.7S261.6,224.9,261.6,211.3"/>
<path id="Path_10503" class="st12" d="M194.8,211.3c0-13.6,11-24.7,24.7-24.7c0,0,0,0,0,0c13.6,0,24.7,11,24.7,24.7
	s-11,24.7-24.7,24.7S194.8,224.9,194.8,211.3"/>
<path id="Rectangle_78" class="st12" d="M310.7,259.2v33.1c0,3.9-3.1,7-7,7h-33.1c-3.9,0-7-3.1-7-7v-33.1c0-3.9,3.1-7,7-7h33.1
	C307.6,252.2,310.7,255.4,310.7,259.2z"/>
<path id="Rectangle_79" class="st12" d="M243,259.2v33.1c0,3.9-3.1,7-7,7h-33.1c-3.9,0-7-3.1-7-7v-33.1c0-3.9,3.1-7,7-7H236
	C239.8,252.2,243,255.4,243,259.2z"/>
<g id="Head_Front_Airy" transform="translate(0 163.589)">
	<g id="Head" transform="translate(78.237 0)">
		<path id="Path_1715" class="st13" d="M13,97.4h15.3l-2.6-18.3c4.1,2.5,8.2,3.7,10.1,3.2c4.8-1.2,5.2-18.7,1.5-25.5
			c-3.7-6.9-22.6-9.9-23.6,3.7c-0.3,4.7,1.7,8.9,4.6,12.4L13,97.4z"/>
	</g>
	<path id="hair" class="st14" d="M115.5,53.6c0.8,1.9,0.3,4.1-3.2,3.9c-3.5,4.2-8.6,7.1-9.2,7.1c0,0-2.3-3.1-4.4-1.8
		c-2.5,1.5-2,4.3-0.7,6.4c0.7,1.1,1.8,2.8,0,4.1c-2.8,2-10.1-2.5-11.3-6.4c-2.2-7.2,0.9-17,8.8-18.4c-0.5-1.4-2.4-1.9-3.7-2.2
		c-3.1-0.6-6.4,0-9.5,0.7c-3.8,0.8-7.6,2-11.4,2c-2,0-4-0.4-5.8-1c-1.8-0.8-3.6-1.8-5.2-3c-1.6-1.1-3.4-0.8-5.1-0.3
		c-1.8,0.5-3.6,1.2-5.3,2.1c-3.6,1.9-6.9,4.2-10.8,5.5C36,53.4,33,54,29.9,54c-5.3,0.1-11.6-1-15-5.5c-2.4-3.1-2.4-6.9-0.9-10.4
		c1.4-3.1,3.7-5.7,6.6-7.4c3-2.1,6.5-3.5,10.2-3.9c3.9-0.2,7.8,0.9,11.1,3.1c3.3,2,6.2,4.1,10.1,4.7c3.8,0.5,7.7,0.2,11.4-1.1
		c3.9-1.3,7.6-2.6,11.7-3c3.9-0.4,7.8,0.1,11.4,1.6c3.2,1.4,5.8,3.8,7.5,6.8c0.9,1.6,1.6,3.4,2,5.2c0.2,0.6,0.3,1.3,0.4,1.9
		c0.1,0.6,0,1.4,0.3,1.8c0.4,0.6,1.1,0.4,1.7,0.4c1,0,6.4,0.2,8.4,0.6C109.5,49.4,114.7,51.7,115.5,53.6z"/>
</g>
<g id="Bottom_Sitting_Sweat-Pants" transform="translate(23.04 0)">
	<g id="Objects_Seat_Ball" transform="translate(0)">
		<ellipse id="Ballsy-Ball" class="st15" cx="61.8" cy="377.5" rx="48.8" ry="47.1"/>
	</g>
	<path id="Skin" class="st13" d="M162.1,415c-6.8-41.5-12.4-69-15.6-77.3c-2.1-5.5-18.3-4.9-16.4,6.2c0.8,4.7,3.9,17.1,7.9,31.3
		c2.4,8.3,8.3,24,16.4,42L162.1,415z M62.2,368.3c2.9-0.4,36.3-3.9,59.9-7.3c9.5-1.4,4.4-19.1-5.5-17.2c-3.3,0.6-6.8,1.3-10.5,2.1
		c-12.6,2.6-38.8,11.9-46.3,14.8C55.1,362.5,58.2,368.8,62.2,368.3z"/>
	<path id="Leg-Back" class="st16" d="M122.7,341c-0.5,25.2,17.7,39.9,23.4,61l14.9-2.2c-1.5-3.9-6.2-56-13.9-66.6l-0.1-0.1
		c0,0,0-0.1,0-0.1c-0.9-2.8-20.9-9.2-60-19.2h-4.8v4.5l40.4,20.6C122.5,339.6,122.6,340.3,122.7,341z"/>
	<path id="Leg-Front" class="st17" d="M73.3,355.3l3.8,11.9c8.1-2.1,32.5,4.6,63.3-8.2c0.2-0.1,0.3-0.3,0.3-0.5
		c5.7-4.1,8.9-19.8-1.2-24.1c-15.3-6.6-44.7-18.9-50.4-20.6H54.4c-3.2,22,2.2,32.1,21.1,35.4c2.9,0.5,6.3,1.2,10,1.9L73.3,355.3z"/>
	<g id="Accessories_Shoe_Flat-Sneaker" transform="matrix(0.438, -0.899, 0.899, 0.438, 40.6, 62.718)">
		<path id="shoe" class="st18" d="M-256.6,149.3C-256.6,149.3-256.6,149.3-256.6,149.3c0.3,0.6,0.1,1.4-0.5,1.7l0,0
			c-1.3,0.6-2.4,1.4-3.3,2.4c-0.9,1.3-1.5,2.8-1.8,4.4l1.4,2.4l0,0c0,0,0,0,0,0c0.2,0.3,0,0.7-0.3,0.9l-16.1,8.5
			c-1,0.9-2.2,2.1-3.6,3.5c-1.4,1.4-3.1,0.8-4.9-1.8l22.1-28.3c1.5,0.8,2.9,1.6,4.3,2.6C-258.2,146.8-257.3,148-256.6,149.3
			C-256.6,149.3-256.6,149.3-256.6,149.3z"/>
	</g>
	<g id="Accessories_Shoe_Flat-Sneaker-2" transform="translate(136.613 1.391)">
		<path id="shoe-2" class="st18" d="M14.1,412.5C14.1,412.5,14.1,412.5,14.1,412.5c0.3-0.6,1.1-0.9,1.7-0.6l0,0
			c1.2,0.6,2.5,1,3.9,1.1c1.6-0.1,3.1-0.6,4.5-1.3l1.1-2.6l0,0c0,0,0,0,0,0c0.1-0.3,0.5-0.5,0.8-0.3l16.7,7.4c1.3,0.2,3,0.4,5,0.7
			s2.5,1.9,1.6,5H13.5c-0.3-1.7-0.5-3.3-0.6-5C13.1,415.3,13.5,413.9,14.1,412.5C14,412.5,14.1,412.5,14.1,412.5z"/>
	</g>
</g>
<path id="Skin-2" class="st13" d="M152,305.8l17.3-13.2c8.6-1.6,12.6-2.9,12-4.1c-0.9-1.7-3.3-0.6-4.1-1.6c-0.8-1,1.2-4.3,3.3-7.3
	s0.1-2.9-1-2.5c-4.3,2.5-8.2,5.6-11.7,9.2l-23,10.1L152,305.8z M35.6,337.5c-1.2,1.6-8.9,5.9-14.1,8.1c-2.1,0.9-1.6,2.7-1,3.2
	c5,4.6,9.5,1.2,14.9-0.1c5.9-1.5,4,5.5,8.7,4.4c-0.7-3.2-2.7-9.2-0.6-12.5c1-1.5,8-14.4,21.1-38.8l-13-2.6
	C42.6,322.5,37.3,335.3,35.6,337.5z"/>
<path id="Coat-Back" class="st19" d="M119,314c10,6,34.6-4.5,46.2-17l-3.9-8.7c-12.7,4.6-23.4,7.9-31,4.5
	c-8-3.7-12.9-31.6-24.9-43.2l-5.5,0.9C99.3,269.9,103,304.4,119,314z"/>
<path id="Shirt" class="st20" d="M93.9,247l14,2.2c0,26.6,14.5,46.8,18.2,65.5c0.3,1.6,0.7,4.8-1.5,4.8H75.9
	C78.2,288.7,82.2,265.7,93.9,247z"/>
<path id="Coat-Front" class="st19" d="M65.1,332.9h43.8c5.7-14.3,2.2-42.9-10.4-85.9H93c-31.5,19.4-50.5,49.5-57.1,90.2l10.2,2
	c6.8-7.9,15.1-20.8,25-38.7C68,311.1,66,322,65.1,332.9z"/>
<g id="Head_Front_Pony" transform="matrix(0.966, 0.259, -0.259, 0.966, 32.19, 0)">
	<g id="Head-2" transform="translate(30.312 7.094)">
		<path id="Path_10504" class="st21" d="M353.9,103.2l-13.4,7.7l-7-17.4c-2.4,4.3-5.3,7.4-7.2,7.9c-4.8,1.3-14-13.7-14.3-21.6
			s14.9-20.1,22.6-8.7c2.7,4,3.1,8.7,2.3,13.2L353.9,103.2z"/>
	</g>
	<path id="hair-2" class="st14" d="M362.9,87.6C362.9,87.6,362.9,87.6,362.9,87.6c-1.1-1.9-3.4-2.5-5.3-1.4
		c-0.7,0.5-1.2,1.3-1.3,2.1c-0.8-0.9-1.5-1.9-2.1-2.9c-0.6-1-1.1-2.1-1.4-3.2c-2.2,1.1-4.5,2-6.9,2.5c-3,1.5-6.8,0.4-8.5-2.5
		c-1.8-3.1-0.7-7,2.3-8.8c3.1-1.8,7-0.7,8.8,2.3c0.6-0.3,1.2-0.7,1.8-1c2.8-1.6,5.8-2.7,9-3.4c0.5-0.1,0.9-0.2,1.4-0.2
		c0.6-0.1,1.3,0,1.9,0.2c2,0.5,3.9,1.5,5.5,2.8c2.4-3.6,5.6-7,13.5-11.6c11.6-6.7,18,12,9.7,16.8c-6.1,3.5-13.3-0.7-19.7-1.2
		c0.1,0.2,0.3,0.4,0.4,0.6c3.6,6.3,3.9,13.9-0.5,16.4c-2.3,1.3-6,0.3-9.5-2C363.8,92.1,364.2,89.8,362.9,87.6z"/>
</g>
<g id="Bottom_Standing_Sweatpants" transform="translate(0 117.186)">
	<path id="Leg" class="st22" d="M359.1,145.9l-11.1,142.5h11.2l11.1-61.1l23.6-81.4H359.1z"/>
	<path id="Leg-2" class="st21" d="M363.4,145.9c9.3,40.5,15.8,63.5,17.9,69.2c2.2,5.7,8.8,31.4,27.7,74.6h11.6
		c-14.3-45-16.4-70.8-16.7-74.6c-0.4-3.8-1-26.9,0.6-69.2H363.4z"/>
	<path id="Pant" class="st23" d="M358.9,145.9c-8.9,29.6-14,71.1-12.8,134.1h16.3c15.1-61.4,25.7-106.1,31.9-134.1H358.9z"/>
	<path id="Pant-2" class="st24" d="M360.9,145.9c9.3,50.8,22.8,92.2,41.8,134.8h17.4c-13-50.8-17.1-92.5-15.5-134.8H360.9z"/>
	<g id="Accessories_Shoe_Flat-Simple" transform="translate(0 140.594)">
		<path id="Shoe-3" class="st14" d="M420.9,159.4h-36.5l-0.9-3.1c0,0,0-0.1,0-0.1c0,0,0,0,0,0c-0.1-0.7,0.4-1.4,1.1-1.5
			c9.2-1.6,16.8-4.5,22.9-8.8c5.6,2,10.3,2.4,14.1,1.3l0.6,10.3L420.9,159.4z"/>
	</g>
	<g id="Accessories_Shoe_Flat-Simple-2" transform="translate(60.623 140.594)">
		<path id="Shoe-4" class="st14" d="M299.7,159.4h-36.5l-0.9-3.1c0,0,0-0.1,0-0.1c0,0,0,0,0,0c-0.1-0.7,0.4-1.4,1.1-1.5
			c9.2-1.6,16.8-4.5,22.9-8.8c5.6,2,10.3,2.4,14.1,1.3l0.6,10.3L299.7,159.4z"/>
	</g>
</g>
<g id="Body_Pointing-Forward" transform="translate(27.596 44.693) rotate(10)">
	<path id="Skin-3" class="st21" d="M342.1,135l-20.4-8.4c-8.9,0.7-13.1,0.4-12.8-0.8c0.5-1.9,3.1-1.4,3.6-2.6s-2.3-3.9-5.1-6.3
		c-2.8-2.4-0.9-2.8,0.3-2.7c4.9,1.3,9.5,3.3,13.9,5.9l25.2,3.9L342.1,135z M320.3,155c-4.3-1.3-8.8-1.9-13.2-1.7
		c-7.2,0.6-10.4,0.1-15.1-2.8c-2.5-1.6-5.6-5.4-4.5-7.5c0.8-1.4,8.9,1.1,11.7,0.6c2.8-0.4-1.9-5.8-0.2-5.6c1.8-0.6,4.3,1.3,7.4,5.8
		l11.1,1.7L320.3,155z"/>
	<path id="Sleeve" class="st25" d="M360.5,122.2c1.7,4.4-0.5,9.4-4.9,11.1c-8.8,3.5-21.1,1.3-31-3.3l0.8-10.7
		c10.2,2.3,20.8,1.7,30.7-1.8C358.2,118.4,359.7,120.1,360.5,122.2z"/>
	<path id="Clothes" class="st16" d="M347.2,94.4l16.8-6.1c1.8-0.7,23.1,18.8,28.8,34.4c5.2,14.2,21.8,18.5,23,43.2
		c-11.7,1.8-40.3,24.6-50.2,14.8c-4.8-4.8-7.9-10.8-10-17.5c-11.2,3.8-26.1,5.1-44.9,2.6c-1.8-3.9-2.1-11.4-1-22.5
		c20.8-0.1,34.8-2.6,41.9-7.4C350.7,121.5,350.6,106.6,347.2,94.4z"/>
</g>
<path id="Path_10510" class="st26" d="M139.1,76.9c-15.4,32.5,65.1,10.6,127.2,7s51.2,45,51.2,45"/>
<image style="overflow:visible;" width="213" height="68" xlink:href="22916BB9.jpg"  transform="matrix(0.2594 0 0 0.2594 182.0118 65.9579)">
</image>
</svg>
