<?xml version="1.0" encoding="utf-8"?>
<!-- Generator: Adobe Illustrator 23.0.5, SVG Export Plug-In . SVG Version: 6.00 Build 0)  -->
<svg version="1.1" id="Layer_1" xmlns="http://www.w3.org/2000/svg" xmlns:xlink="http://www.w3.org/1999/xlink" x="0px" y="0px"
	 viewBox="0 0 1500 869" style="enable-background:new 0 0 1500 869;" xml:space="preserve">
<style type="text/css">
	.st0{fill:#00033A;}
	.st1{fill:#BCEBFB;}
	.st2{fill:#003860;}
	.st3{fill:#BCEBFB;stroke:#3FA9F5;stroke-width:8;stroke-miterlimit:10;}
	.st4{fill:#5B5D8A;}
	.st5{fill:#EDEDED;}
	.st6{fill:#60A2E6;}
	.st7{fill:#003357;}
	.st8{fill:#2F2E40;}
	.st9{fill:#44383C;}
	.st10{fill:#313042;}
	.st11{fill:#FEB4B8;}
	.st12{fill:#CEE4F2;}
	.st13{fill:#CAE2F1;}
	.st14{fill:#7DB2E9;}
	.st15{fill:#7CA2FF;}
	.st16{fill:#403538;}
	.st17{fill:#B86E7C;}
	.st18{fill:#B36B78;}
	.st19{fill:#C8E0EF;}
	.st20{fill:#B66D7A;}
	.st21{fill:#F6B4BA;}
	.st22{fill:#F9B9BE;}
	.st23{fill:#D0DEEC;}
	.st24{fill:#F4F4F4;}
	.st25{fill:#FEFEFE;}
	.st26{fill:#FBFCFD;}
	.st27{fill:#6FA9E5;}
	.st28{fill:#BBD3EE;}
	.st29{fill:#F8FAFB;}
	.st30{fill:#F1F4F8;}
	.st31{fill:#545681;}
	.st32{fill:#7190A3;}
	.st33{fill:#6D8C9F;}
	.st34{fill:#B3C3CD;}
	.st35{fill:#B7B6CA;}
	.st36{fill:#B8B7CA;}
	.st37{fill:#E4E5EB;}
	.st38{fill:#E8E7E8;}
	.st39{fill:#B6B5C7;}
	.st40{fill:#5DA9D7;}
	.st41{fill:#8C5761;}
	.st42{fill:#E7E8EA;}
	.st43{fill:#FBB4B8;}
	.st44{fill:#7DB9DD;}
	.st45{fill:#8DC0DF;}
	.st46{fill:#ABCFE6;}
	.st47{fill:#E6E6E6;}
	.st48{fill:#535460;}
	.st49{fill:#EBEBEB;}
	.st50{fill:#EFEFEF;}
	.st51{fill:#C2CED6;}
	.st52{fill:#F0F0F0;}
	.st53{fill:#D3E6F2;}
	.st54{fill:#CBE2F1;}
	.st55{fill:#DDDDDD;}
	.st56{fill:#EDF2F4;}
	.st57{fill:#E9F0F4;}
	.st58{fill:#CCE3F1;}
	.st59{fill:#D7D7D7;}
	.st60{fill:#73B1D6;}
	.st61{fill:#D5E6F1;}
	.st62{fill:#69ACD5;}
	.st63{fill:#71B2D9;}
	.st64{fill:#67ABD4;}
	.st65{fill:#64ADD8;}
	.st66{fill:#E2E2E2;}
	.st67{fill:#E5E5E5;}
	.st68{fill:#686973;}
	.st69{fill:#656670;}
	.st70{fill:#7F8089;}
	.st71{fill:#7D808A;}
	.st72{fill:#787982;}
	.st73{fill:#686873;}
	.st74{fill:#686A75;}
	.st75{fill:#738FA1;}
	.st76{fill:#FDFEFE;}
	.st77{fill:#DFDFDF;}
	.st78{fill:#BDBDBD;}
	.st79{fill:#FCFCFD;}
	.st80{fill:#063D64;}
	.st81{fill:#97C6E4;}
	.st82{fill:#65ACD7;}
	.st83{fill:#1689C2;}
	.st84{fill:#093F65;}
	.st85{fill:#9ECAE6;}
	.st86{fill:#248FC6;}
	.st87{fill:#60ABD8;}
</style>
<path class="st0" d="M838.2,416.1C736,395.7,629.9,397,525,398.4c-38.5,0.5-77.3,1-115.2,7.3C330,418.7,259.1,456.2,190.2,493
	c-17.6,9.4-35.4,18.9-50.5,31c-32.6,26.1-50.9,62.9-61.1,100.1c-4.3,15.7-7.3,32-3.8,47.9c9.1,41.5,57.9,66.7,103.8,82.3
	c102.5,34.7,213.2,47.5,323,55.7c211.9,15.9,425.5,16,637.4,0.4c52.9-3.9,106.3-8.9,155.9-25.2c49.5-16.3,95.4-45.1,118.5-86
	c16.2-28.6,20.2-61,22-92.7c1.9-35,0.9-71.4-16.8-103.1c-31.1-55.7-104.9-83-174.4-99.6c-88.4-21.1-179.9-32.6-271.6-34.2
	c-31.8-0.5-63.7,0.1-94.9,5c-58.1,9-113.2,32.5-172.2,34.2"/>
<path class="st1" d="M838.2,414.1c-102.2-19.5-208.3-18.3-313.2-17c-38.5,0.5-77.3,1-115.2,6.9c-79.8,12.5-150.7,48.4-219.6,83.5
	c-17.6,9-35.4,18.1-50.5,29.7c-32.6,25-50.9,60.1-61.1,95.6c-4.3,15-7.3,30.6-3.8,45.8c9.1,39.6,57.9,63.8,103.8,78.6
	c102.5,33.2,213.2,45.4,323,53.3c211.9,15.2,425.5,15.3,637.4,0.4c52.9-3.7,106.3-8.5,155.9-24.1c49.5-15.5,95.4-43.1,118.5-82.2
	c16.2-27.3,20.2-58.3,22-88.6c1.9-33.5,0.9-68.3-16.8-98.5c-31.1-53.2-104.9-79.3-174.4-95.2c-88.4-20.2-179.9-31.2-271.6-32.7
	c-31.8-0.5-63.7,0.1-94.9,4.8c-58.1,8.6-113.2,31-172.2,32.6"/>
<path class="st1" d="M696.6,151.3c0,8.8-0.2,17.6,0.1,26.4c0.2,5.9-1.7,8.8-8.2,8.7c-18.8-0.3-37.6-0.2-56.5,0
	c-5.6,0.1-7.8-2.2-7.8-7.8c0.2-18.8,0.2-37.6,0-56.5c-0.1-6.6,2.9-8.1,8.8-8.1c18.4,0.2,36.8,0.2,55.3,0c6.2-0.1,8.6,2.2,8.4,8.4
	C696.3,132,696.6,141.7,696.6,151.3z"/>
<path class="st2" d="M434.9,536.9c-5.2-2.1-11.7-4.3-11.4-10.5c0.2-6.1,6.7-8.4,11.9-10.4c30.8-11.8,63.4-14.7,95.7-18.7
	c3.2-0.4,6.3-0.7,9.5-1.1c5-3.9,11-5.1,17-5.2c25.6-0.5,51.1-4,76.8-3.2c6.8,0.2,13,4.6,20,1.9c3.9-0.1,7.8-0.3,11.7-0.4
	c0.3-0.7,0.8-1.5,0.9-2.2c2-27.8,2-27.8-25.7-27.8c-41.7,0-83.4-0.1-125.1,0.1c-12.8,0-25.5-0.3-38.3,1.8c-17.9,2.9-35.8-2.4-53.8-2
	c-7.1,0.2-7.2-6.6-8.3-11.4c-4.9-21.5-8.3-43.3-12.6-64.9c-3.6-18.5-7.5-36.9-11.1-55.4c-3.6-18.5-2.4-37.6-0.6-56.3
	c1.7-18,1.1-35.8,0.3-53.7c-1.3-29-4.1-58.2,1.6-87.1c9.9-5.7,20.8-2.6,31.2-3.2c7.4-0.4,14.9-0.3,22.4,0.2
	c30.7-0.7,61.5-0.2,92.2-0.2c4.8,0,9.6,0.1,13.6,3.4c97,0,194,0,291,0c1.9-1.4,3.9-2.3,6.2-2.7c22.4-1.1,44.9-0.8,67.3-0.2
	c3.1,0.1,6,0.9,8.4,3c20.1,0.1,40.2,0.2,60.3,0.3c2.2,10.3,0.9,20.7,0.9,31.1c0.2,30,0,60.1,0.1,90.1c0.1,18.1-11.4,30.2-21.8,42.7
	c-3.6,4.4-7.1,2-8.4-3.1c-1.1-4.3-0.8-8.8-0.8-13.2c0-39.3,0-78.5,0-117.8c0-6.9,0.7-14.5-9.8-14c-165.6,0-331.2,0-496.7,0
	c-22.8,0-22.8,0-22.8,23.3c0,80.2,0,160.4,0,240.5c0,21.9,0,22,21.5,22c157.1,0,314.3,0,471.4,0c7.2,0,14.4,0,21.6,0.7
	c14,1.7,24.3,10.6,35,18.5c2.1,1.5,4.3,3.9,1.6,6.9c-26.7,1.3-53.3,0.9-80,0.4c-22.6-0.4-44.4,8.2-67.1,4.9
	c-2.9,0.1-5.9,0.2-8.9,0.1c-30,0.4-60,0-90.1,0.3c-5.3,0.1-11.6-1.2-13.7,6.5c-2.5,9.2,1,13.9,11,15c30.3,3.1,60.7,2.4,91,5.4
	c3.4,0.3,6.6,1.7,10.1,2c10.7-0.2,21.4,0.5,31.9,2.6c5-0.3,8.7,3,12.8,5.1c20.3,3.5,40.8,6.1,60.5,12.8c24.8,8.5,28.2,19.5,12,41.2
	c-23.8,19.8-52.5,26-82.2,29.6c-62.5,7.6-122.8-4.9-182.9-19.2c-51.5-12.3-103.7-19.5-156.7-22.4
	C495.6,541.2,464.9,543.2,434.9,536.9z"/>
<path class="st3" d="M299.6,487c-44.5,0-88.9-0.2-133.4,0.2c-9.5,0.1-13.3-1.8-13.2-12.4c0.5-50.1,0.3-100.1,0.1-150.2
	c0-7,0.7-11.1,9.5-11c54.9,0.5,109.7,0.4,164.6,0.6c1.7,6.3-2.8,10.8-4.9,15.9c-15.7,12.7-13,31.4-13.5,47.8
	c-0.8,25.4-5.1,49.9-9.8,74.6c-1,5.1-1.7,10.2,0.4,15.3C300.3,474.1,304.1,480.6,299.6,487z"/>
<path class="st4" d="M297.8,469.4c-5.3-1.8-4.4-5.4-3.4-9.7c8.4-35.6,11.5-71.8,12.8-108.2c0.4-11,7.1-17.3,13.8-24
	c5.5,6.9,6.6,14.3,1.6,21.9c-3.5,5.3-4.7,10.3,0.6,15c5.1,4.5,8.9,0.4,12.6-2.6c3.9-3.2,7.7-2.8,12.3-1.8c11.9,2.6,13-0.5,17.5-11.3
	c4.7-11.2,7.8-22.5,10.5-34.2c5.8-1.7,9.6,2.4,13.4,4.5c-3.1-13.8,0.1-28.2-1.8-42.3c-0.2-3.5,0.8-6.5,3.8-8.6c0-16,0-32-0.1-47.9
	c-2-2.5-3.1-5.4-3.2-8.6c-1-22.7-0.5-45.5-0.2-68.2c0.1-4.5-1.8-11,6-12c0,59.3,0.3,118.6,0,178c-0.1,18.6,7,35.7,9.8,53.6
	c4.5,28.3,11.1,56.4,15.6,84.7c1.5,9.1,5.2,10.4,13.2,10.4c73-0.3,145.9-0.2,218.9-0.2c17,0,17.1,0,16.8,16.8
	c-0.1,4.9,2.2,10.4-2.3,14.7c0.4-29.3,0.4-29.3-28.7-29.2c-50.6,0.2-101.3,0.4-151.9,0.6c-1.7,1.3-3.5,2.4-5.7,2.8
	c-9.9,0.9-19.8,0.9-29.7,0c-2.2-0.3-4-1.5-5.7-2.8c-11.7-2.7-21.6-1.6-25.9,11.9c-2.7,2.7-6.2,2.9-9.7,3.3c-7.6,1.1-1.2,8.4-5,11.2
	c2.7,19.2,4.8,38.4,8.3,57.4c1.5,8.3-0.1,13-8.2,15.2c-7.4,6.5-15.6,6.3-24.1,2.6c-13.7-0.3-27.3-0.6-41-0.8
	c-8.9,1.2-18.1,3.1-24.3-6.3c-14.8-5.4-16.3-16.6-14-30.2c1.6-9.3,1.8-18.8,2.7-28.3c0.5-2.7,0.6-5.4,1.6-8
	C308.3,480.1,306.6,473.5,297.8,469.4z"/>
<path class="st5" d="M947.4,143.1c10-2.7,12,2,11.9,11.2c-0.4,47.1-0.2,94.2,0.9,141.7c10.9-18.7,29.2-32.7,27.2-58.7
	c-2.6-35.4,0.7-71-1.5-106.6c4.3,3.4,2.4,8.1,2.4,12.3c0.2,35.9,0.4,71.9-0.1,107.8c-0.1,8.3,2.6,13.2,9.5,17.2
	c13,7.6,25.7,15.9,38.5,24c7.7,0.5,12.4,6.6,18.6,9.9c4,2.3,8.6,1.2,12.7,2.4c2.2,0.7,4.1,1.8,5.3,3.9c-2.8,4.2-1.1,5.7,3.4,5.3
	c8.5,2.8,16.3,6.5,21,14.6c-0.1,4.4-3.1,6.4-6.7,7.3c-9.7,2.3-14.2,9.5-17.7,17.9c-2.8,6.6-5.3,13.3-8.1,20
	c-5.2,12.7-11.9,24.2-22.2,33.6c-14.3,13-23.4,30.2-35.5,44.9c-6.9,4.8-12,12.3-21,14c-0.3-2.2-0.7-4.3-3-5.4
	c-1.6-1.3-3.4-2.4-4.4-4.4c-11.5-5.9-20.9-15.5-33.7-19.2c-4.5-3.5-10.6-3.7-14.9-7.5c-18-15.9-39.2-19.1-62.6-18.4
	c-39.6,1.2-79.3,0.5-119,0.3c-17.9-0.1-20.3-2.8-19.3-20.2c0.6-11.2,0.1-22.4,0.3-33.7c0.4-15.4,2.9-18.2,18.5-18.3
	c44.9-0.3,89.8-0.1,134.7-0.1c6,0,12.1,0.4,18-0.1c10.5-0.9,23,4.4,30.9-5.1c11.5-13.7,22.4-27.8,21.9-47.9
	c-0.9-38.1-0.3-76.1-0.2-114.2C953.4,161.6,953.5,151.7,947.4,143.1z"/>
<path class="st6" d="M1004.9,451c13.3-18.9,25.7-38.3,43-54.3c11.3-10.5,14.9-26.1,20.5-40.2c4.9-12.2,9.8-23.8,25.4-25.1
	c1-0.1,1.9-2.2,2.9-3.3c2.2-2.9,6-3.7,8.4-6.4c1.9-1.8,3.8-3.7,5.8-5.4c5.3-3.3,10.8-5.7,17.2-5.3c10.5,3.2,19.9,9.7,31.4,9.4
	c3.9-0.5,6.1,2.2,8.5,4.5c2.2,2.6,4,5.5,5,8.8c0.6,2.4,0.1,4.5-1.4,6.5c-1.2,11.8-6.9,22.3-9.9,33.6c1.7,7-3.8,11.9-5.3,17.9
	c-4.3,9.7-2.3,19.3,0.4,28.9c2.6,10.2,2.9,20.6,4.7,30.9c1.5,8.2-1.1,14.2-8.4,18c-7,3.7-12.7,10-21.1,11.1
	c-3.7-0.4-3.8-4.1-5.4-6.6c1.6,3.3,1.6,6.3,0.2,9.5c-3.9,4.9-9.8,4.9-15.2,6.3c-3.8,0.3-7.6,0.7-11.3,1.9
	c-26.8,1.6-52.6-1-75.7-16.5c-3.1-4.1-2.7-12.2-11.4-10.3C1006.4,462.7,1002.3,458.9,1004.9,451z"/>
<path class="st0" d="M434.9,536.9c1.9-1.8,4.4-2,6.8-1.8c39.7,3.8,79.6,3.1,119.4,6.6c57.4,5,113,18.3,168.9,30.8
	c37.7,8.4,76.4,13,115.2,10.4c34.7-2.3,69.2-6.9,98.5-28.5c1.5-1.1,2.8-1.5,3.9,0.4c-19.5,27.8-48.8,40.7-79.7,49.8
	c-55.2,16.2-111.2,14-166.1-0.3C632.3,586,561.9,571.2,492,554.5C472.6,549.9,452.9,546.2,434.9,536.9z"/>
<path class="st7" d="M1024.9,472.5c19.2,12.8,41.1,15.3,63.2,16.7c4.3,0.3,8.7,0,13.1,0c5.8,0,4.7,4.4,4.3,7.6
	c-1.8,15.4-2.8,30.9-4.8,46.2c-0.7,5.4-0.7,10.2,3.6,14.3c9.2,8.8,15.2,19.7,17.7,31.9c4,19.1,11.3,37.2,15.9,56
	c-7.1,5.7-14.3,5.4-21.7,0.5c-10.8-41.1-38.7-75.4-46.1-117.8c-3.6-3.8-3-8.9-4.2-13.3c-3.2-4.2,3.1-12.1-5.7-14
	c-19,21.2-38.2,42.4-41,72.6c-2,21.6-9.1,42.3-11.1,63.9c-0.5,4.8-0.7,9.6,0.3,14.4c-7.7,10-15.2,8.9-22.3-3.3
	c-3.3-25.4,1.8-50.2,5.9-75c2.3-14.2,0.6-28.9,6.3-42.6c2.7-17.7,9.8-33.7,19-48.9C1019.7,478.6,1020.8,474.3,1024.9,472.5z"/>
<path class="st1" d="M552.8,130.4c-35.3,0-70.7,0-106,0c-6.9-16.9-3.9-34.3-2.1-51.6c0.5-5.1,5.6-6.3,10.2-6.7
	c8-0.7,15.9-0.8,23.9,0c3.2,0.3,6.3,0.8,8.6,3.3c18.3,0,36.6,0.5,54.9-0.1c8.5-0.3,11,2.8,10.7,11
	C552.4,101,552.8,115.7,552.8,130.4z"/>
<path class="st8" d="M374.8,315.8c-0.9,4.3,1.4,7.7,2.9,11.4c2.2,5.5-0.5,9.5-4.6,12.3c-3.5,2.5-5.6,4.9-5.5,9.7
	c0.2,12.8-7,18.9-18.9,14.3c-6.7-2.6-9.7-1.1-14,3.1c-3.3,3.2-7.7,6.6-12.5,1.6c-4.2-4.3-10.3-9.5-5.1-15.2c7.4-8.2,5.1-16.7,4-25.5
	c0.1-5.4,4.9-8.6,6.3-13.4c3.1-3.3,2.7-7.3,2-11.3c-3.1-18.6,4.4-31.9,20.8-40.6c15.2-8.1,28.5-2.6,41.3,5.9
	c-0.8,2.2-1.6,4.5-2.4,6.7c-0.4,2.6-2.3,3.9-4.6,4.8c-9.2,1.3-11.5,6.1-7.4,14.2c2,4,3.1,8.2,2.2,12.8
	C378.7,310.1,377.4,313.3,374.8,315.8z"/>
<path class="st5" d="M1130.7,479.2c29.8-15.8,29.7-15.8,24.4-48.5c-0.6-3.5-0.7-7.1-1.1-10.6c-0.1-0.4-0.5-0.8-0.4-1.1
	c3.4-9.5,5-19,0.4-28.6c2.6-5.5,5.1-11,7.7-16.4c12.4,8,24.6,16.3,37.2,23.9c6.2,3.8,5.5,7.3,2.1,12.5
	c-23.4,36.1-46.7,72.3-70,108.4c-1.3,2-2.7,3.9-3.8,6.1c-4.9,9.5-9.9,18.8-22.9,17.7c-5.8-6.4-1.9-13.9-1.1-20.4
	c1.5-11.8-1-24.8,8-34.9c4.8-2,10.5-1.1,14.8-4.6C1126.8,480.4,1127.7,478.2,1130.7,479.2z"/>
<path class="st2" d="M487.3,75.4c-2.2,0-4.5,0-6.7,0.1c-2.2-2.5-3.7-5.5-3.5-8.7c0.7-12.5-6.8-14-16.9-14
	c-66.1,0.2-132.2,0.1-198.4,0.1c-14.8,0-15.6,0.8-15.6,15.7c-0.1,41.7-0.1,83.4,0,125c0,14,1.2,15.1,15.1,15.2
	c37.3,0.2,74.5,0,111.8,0.1c6.3,0,12.9-0.9,18.4,3.7c0,2.6,0,5.1-0.1,7.7c-47.7-0.1-95.4-0.5-143.1-0.1c-9.9,0.1-13.2-2.9-13.1-12.9
	c0.4-50.9,0.4-101.8,0-152.7c-0.1-9.2,2.4-12.6,12.2-12.6c76.2,0.4,152.3,0.3,228.5,0c9.1,0,12.3,3.1,11.6,11.9
	C487,60.9,487.4,68.2,487.3,75.4z"/>
<path class="st9" d="M1086.1,283c-5.8-5.5-16.8-3.2-20-14c7.9-0.7,13.8-5.2,20-9.2c14.1-9.1,37.6-3.6,46.7,10.7
	c2.8,4.4,3.1,9.3,2,13.9c-1.8,7.6-4.5,14.9-6.9,22.3c-1.3,0.9-3,2.5-4.2,1.8C1110.7,300.8,1091.7,301.7,1086.1,283z"/>
<path class="st1" d="M654.4,489.7c-26.7,1.5-53.5,2.9-80.2,4.4c-11.2,0.6-22.3,1.4-33.5,2.1c0.5-17.5-2.8-16.4,17.1-16.4
	c24,0,47.9,0,71.9,0c7.5,0,16.2-2.6,19.2,8.4C649,489.2,652.4,489.3,654.4,489.7z"/>
<path class="st10" d="M336.1,616.7c1.6,6.1,3.1,12.3,4.9,18.4c2.6,9,2.7,19.7,17.3,19.9c-9.1,10.1-19.4,13.1-29.6,12
	c-11-1.2-11.4-13.6-9.8-19.5c2.7-9.8-0.1-18.9,0.9-28.2C324.8,615.8,329.8,612.2,336.1,616.7z"/>
<path class="st10" d="M401,616.8c1.9,7.7,3.6,15.5,5.8,23.2c2.1,7.1,2.7,15.8,14.5,14.2c-6.6,9.4-23.9,16.9-30.6,12.8
	c-6.7-4.1-9.3-13.8-7.3-19.7c3.4-9.8-0.3-18.9,1.5-28.2C389.7,615.2,394.8,611.9,401,616.8z"/>
<path class="st11" d="M336.1,616.7c-5.4,0.9-10.8,1.8-16.3,2.6c3.1-9-0.8-17.8-1-26.8c-0.3-12.5-2.8-24.9-4.3-37.4
	c7,6.4,16.7,2.1,24.3,6.3C337.9,579.9,337,598.3,336.1,616.7z"/>
<path class="st12" d="M848.8,130.4c-1.7,0-3.3,0-5,0c0-12,0.3-24.1-0.1-36.1c-0.2-6.5,1.7-9.5,8.8-9.4c21.2,0.3,42.5,0.2,63.7,0.1
	c6.6,0,9.5,2.9,9.4,9.4c-0.1,12,0.1,24,0.1,36.1c-2.5,0-4.9-0.1-7.4-0.1c-5.5-7-3.2-15.3-3.4-23.1c-0.1-8-3.1-11.6-11.3-11.5
	c-12.7,0.3-25.5,0.2-38.2,0c-7.6-0.1-10.7,3.3-10.8,10.8C854.6,114.9,855.1,123.6,848.8,130.4z"/>
<path class="st13" d="M1019.5,482.1c-9.2,15.2-13.3,32.6-21.3,48.4c-6.3-2.6-7.9-7.3-7.7-13.9c0.5-14.6,0.1-29.1,0.1-43.7
	c2.8-3.7,6.8-3.3,10.7-3.1C1008.7,472,1015.6,474.8,1019.5,482.1z"/>
<path class="st11" d="M401,616.8c-5.4,0.8-10.8,1.6-16.2,2.4c4.1-12.2-1-24.1-1.6-36.2c-0.3-6.7,0.5-14.3-3.4-20.7
	c8-0.9,16.1-1.7,24.1-2.6C402.9,578.7,402,597.8,401,616.8z"/>
<path class="st7" d="M1111.1,487.1c-4.2,18.2-5.7,36.7-6.9,55.3c-1.5,7.2,0.4,12.6,6.1,17.9c7.1,6.6,11.2,15.6,13.9,24.9
	c5.5,19.4,10.6,39,15.9,58.5c-0.9,0.8-1.7,0.8-2.4-0.1c-7.5-11-11.9-23.5-14.3-36.3c-3.5-18.7-8.4-36.5-22.8-50.1
	c-3.6-3.4-4.5-7.4-3.5-12c3.6-17.1,2.2-34.9,6.4-51.9c0.3-1.1-1.4-2.6-2.1-3.9C1104,486.2,1107.7,487.3,1111.1,487.1z"/>
<path class="st7" d="M1008.2,650.9c-5.9-8.9-3.4-18.3-1.4-27.4c4.3-20.2,8.7-40.3,10.5-60.9c0.7-7.9,5.1-14.3,8.8-20.7
	c9-15.5,19.2-30.2,30.4-44.2c2.4-3.1,3.7-2.1,4.1,1.3c1.3,2.3,0,4.2-1,6.2c-5.7,7.8-9.3,17.3-17.9,22.8
	c-11.7,14.1-18.5,29.9-19.7,48.7c-1.6,25-11.1,48.8-11.9,74C1009.5,651.7,1008.9,651.8,1008.2,650.9z"/>
<path class="st14" d="M978.8,456c2.5,0.5,3.7,2.1,4.4,4.4c-28.7,0.1-57.4,0.2-86.1,0.2c-24.7,0-24.7,0-24.6,25.3
	c0,5.1-1.3,10.5,2.6,14.9c-4-0.7-8.1-1.4-12.1-2.1c-4.6-5.5-3-12.1-3.3-18.3c-0.5-12.9-0.9-13.5-13.4-13.9
	c-5.5-0.2-11.2,0.7-16.2-2.5c-1.2-1.1-1.4-2.3-0.6-3.6c45.7-1.7,91.4-2.2,137.2-2C970.7,458.3,975.5,460.4,978.8,456z"/>
<path class="st15" d="M1137.6,644.6c0.7,0,1.4,0.1,2.1,0.1c0.6,1.6,1.5,3.1,1.9,4.7c1.1,4.5,4.2,9.2,0.3,13.4
	c-3.9,4.2-8.3-0.1-12.4-0.4c-5-0.4-9.9-1.8-14.8-2.9c-3.7-0.8-7.6-1.7-7.5-6.7c0.2-5.3,4.7-3.5,7.6-4.4c1.6-0.5,3.2-1.2,4.7-1.8
	C1125.5,645.7,1131.9,648.2,1137.6,644.6z"/>
<path class="st15" d="M1006.2,650.9c0.5-0.1,1-0.2,1.5-0.2c0.5,1.2,1.3,2.4,1.5,3.7c3,14,1.8,15.2-12.3,12.5
	c-5.9-1.1-11.8-2.5-17.7-3.8c-3.4-0.8-5.4-3.1-5.3-6.4c0.2-3.5,3.2-3.9,6-3.9c3.3,0,5.8-1.4,7.5-4.3
	C993.2,653.3,998.8,658.8,1006.2,650.9z"/>
<path class="st16" d="M1106.3,323.2c-1.8,4.5-5.5,5.2-9.6,5c-7-4.1-13.9-8.2-20.9-12.3c-3.3-1.2-2.2-3.9-2.1-6.3
	c-1.4-7,3.3-8.6,8.5-9.7c2.5,0.7,4.9,1.3,7.4,2c7.5-0.4,13.6,2.4,18.4,8.2C1109.9,314.7,1108.8,319,1106.3,323.2z"/>
<path class="st17" d="M1082.1,299.8c-3.3,2.6-7,4.8-7.8,9.5c-0.6,0.9-1.3,1-2,0.2c-1.4-1.1-2.8-2.1-4.2-3.2
	c-4.7-2.6-10.1,0.5-14.8-2c-5.7-4.1-11.3-8.1-17-12.2c11.3-8.5,22.5-4.3,33.5,0.5C1074.2,294.5,1078,297.3,1082.1,299.8z"/>
<path class="st1" d="M444.3,460.7c1.7,0,3.4,0,5.1,0.1c2,2.2,2.9,4.8,2.9,7.6c-0.1,8.6,3,13.1,12.6,13.1c9.5,0,12.7-4.5,12.6-13.1
	c0-2.8,0.9-5.5,2.9-7.6c1.7,0,3.4,0,5.1-0.1c0,0.8,0,1.6,0,2.4c-0.2,31.5-0.2,31.4-31.9,28.7c-6.5-0.5-9.3-3.1-9.2-9.6
	C444.5,475,444.3,467.9,444.3,460.7z"/>
<path class="st18" d="M1106,309c-6-1.4-11.5-3.7-16.5-7.3c-0.7-6.3-6.3-11.8-3.4-18.7c10.7,13.6,26.5,18.2,41.8,23.7
	c0.1,1.5,0.1,3,0.2,4.4c-4.8,4.5-11.7,4.2-17,7.5C1104,318.3,1110,311,1106,309z"/>
<path class="st19" d="M1041.6,528c4.7-8.5,10.2-16.5,16.6-23.8c4.1,2.1,7,5.7,9.8,9.2c2.9,4.5,2.2,9.5,2.2,14.5
	C1060.6,528,1051.1,528,1041.6,528z"/>
<path class="st20" d="M1002.4,472.3c-3.9,0.2-7.9,0.4-11.8,0.6c-2.9-1.5-4.4-3.9-4.4-7.2c5.3-6.2,11.6-10.9,18.7-14.7
	c1.2,5.7,2.8,11,9.6,12.2C1013.9,470.8,1007.6,470.8,1002.4,472.3z"/>
<path class="st21" d="M297.8,469.4c14,1.3,16.1,11.9,5.4,27.3c-2.3-2.8-3.2-6.2-3.6-9.7C299,481.1,298.4,475.3,297.8,469.4z"/>
<path class="st22" d="M405.9,473c4.2-0.2,8.3-0.3,12.5-0.5c1.4,3.7,2.4,7.5,1.5,11.4c-0.8,3.3-1.2,7.7-4.9,8.7
	c-3.7,0.9-3.9-4.3-6.5-5.7C405.7,482.6,401.9,478.5,405.9,473z"/>
<path class="st23" d="M405.9,473c0.8,4.6,1.7,9.2,2.5,13.9c-1.5,0.1-3.1,0.1-4.6,0.2C404.8,482.4,395.4,476.2,405.9,473z"/>
<path class="st24" d="M947.4,143.1c7.1,2.3,9.9,6.2,9.8,14.5c-0.6,44.9-0.3,89.8-0.3,134.7c0,20.8-15.7,33.3-25.6,48.9
	c-2.1,3.3-7.6,1.4-11.5,1.4c-57.7,0.1-115.4,0.4-173.1-0.2c-11.4-0.1-14.1,3.5-13.9,14.3c0.3,14.3,1.8,28.7-1.3,43.1
	c-1.7,7.9,4.7,7.9,10.1,7.9c27.7,0,55.3,0,83,0c19.2,0,38.5,0.8,57.7-0.3c15.3-0.9,28.4,2.8,40,12.4c7.3,6.1,16.9,9,22.8,17.1
	c-4,0.2-8,0.7-11.9,0.7c-165.5,0-331-0.1-496.5,0.3c-10.9,0-14-2.6-13.9-13.9c0.5-90.2,0.4-180.3,0.1-270.5c0-7.8,1.1-11,10.1-11
	c169.5,0.3,339,0.2,508.6,0.2C943.4,142.6,945.4,142.9,947.4,143.1z"/>
<path class="st25" d="M391.5,212.5c-46.9,0.1-93.7,0.1-140.6,0.5c-7.1,0.1-8.7-2.7-8.6-9.2c0.2-48.9,0.2-97.8,0-146.6
	c0-6.1,1.7-8.4,8.1-8.3c74.1,0.2,148.2,0.2,222.3,0c6.6,0,8.2,2.6,7.9,8.5c-0.3,6,0,12,0,18c-10.7,0.8-24.3-4.5-31.3,2.2
	c-7.1,6.8-1.7,20.5-2.4,31.1c-0.4,7.2-0.1,14.4-0.2,21.6c-17.6,0.3-35.2,0.6-52.8,0.9c-4.3,2.9-2,7.3-2.1,10.8
	C391.6,165.6,391.6,189.1,391.5,212.5z"/>
<path class="st25" d="M822,494.2c-34.3-1.5-68.6-3-103-4.4c-4.6-0.2-5.9-1.8-6.3-6.3c-2.3-24.1-2.4-24.4,22.2-24.1
	c29.1,0.3,58.3-1.2,87.4,0.9C827.4,471.7,828.2,483,822,494.2z"/>
<path class="st25" d="M848.8,130.4c1.2-10.3,3.1-20.5,2.3-30.9c-0.5-6.1,3.1-7.3,8.3-7.2c16.8,0.1,33.6,0.3,50.5-0.1
	c7.1-0.1,8.9,3,8.7,9.4c-0.3,9.6-0.1,19.2-0.1,28.8C895.2,130.4,872,130.4,848.8,130.4z"/>
<path class="st25" d="M664.3,502.5c-4.1,1.2-8.4,2-12.4,3.6c-2.7,1.1-7.1,1.7-6.5,5.8c0.5,3.5,4.4,4.9,7.3,5.4
	c20.1,3.3,40.4,5.2,60.7,2c5.8-0.9,12.1,0.1,17.5-3.5c4.7-3.1,5.6-6.1-0.2-8.3c-5.8-2.2-11.8-3.6-18.4-5.6
	c11.2-4.8,35.4-0.1,42.5,8.3c5.8,6.8-0.3,10.1-5.1,12.8c-11.4,6.4-24.4,8.3-36.9,9c-25.8,1.4-52,2.6-77-6.6
	c-5.6-2.1-12.6-3.8-12.7-10.9c-0.1-6.9,6.9-7.8,12-9.8C644.5,501,653.9,496.9,664.3,502.5z"/>
<path class="st26" d="M829.4,462.8c7.5,0,15.1,0.7,22.6-0.1c9.9-1.1,12.5,3.2,11.6,12.2c-0.7,7.9-0.5,15.8-0.7,23.8
	c-11.1-0.9-22.2-1.8-33.3-2.7C823.9,484.9,824,473.9,829.4,462.8z"/>
<path class="st27" d="M829.4,462.8c0.1,11,0.1,22.1,0.2,33.1c-2.6-0.6-5.1-1.1-7.7-1.7c0.1-11.3,0.2-22.6,0.3-33.9
	c2.4,0,4.8,0,7.2,0C829.5,461.1,829.5,462,829.4,462.8z"/>
<path class="st28" d="M690.2,442.2c5.2,0.4,8.1,3,8.1,8.4c0,5.8-3,8.9-8.8,8.8c-6.1-0.1-8.4-3.8-8.1-9.5
	C681.8,444.4,685.2,442.4,690.2,442.2z"/>
<path class="st29" d="M480.4,460.8c0,1.6,0.1,3.2,0.1,4.8c0.1,19-5.3,23-24.5,19c-4.9-1-6.6-3.8-6.6-8.3c0-5.2,0-10.3,0-15.5
	C459.7,459.6,470.1,459.6,480.4,460.8z"/>
<path class="st2" d="M336.3,388.3c12.3,0,24.7,0.1,37,0.1c4.3,0,8.5,0.9,8.1,6.3c-0.5,6.1-4.9,4.1-8.9,3.9
	c-11.9-0.7-23.9-0.6-35.8-0.9C333.3,394.8,333.7,391.6,336.3,388.3z"/>
<path class="st30" d="M384.7,278.1c1.5-1.1,2.9-2.1,4.4-3.2c6.3,9.8,1.4,20.6,2.7,30.9c0.7,5.1,0.1,10.3,0.1,15.7
	c-7,0.3-10.8-6.4-17.1-5.6c-1.4-3.6,0.5-6.3,2.6-8.9C385.6,298.8,385.9,288.6,384.7,278.1z"/>
<path class="st31" d="M391.8,473.2c-5.1-23.1-7-46.6-8-70.3c4,23.2,8,46.4,12,69.6C394.5,472.8,393.2,473,391.8,473.2z"/>
<path class="st2" d="M336.3,388.3c0.1,3.1,0.3,6.3,0.4,9.4c-2,2.6-4.6,3.9-11.3,4.7C333.1,398.4,320.7,385.6,336.3,388.3z"/>
<path class="st32" d="M923.6,354.6c-6,10.1-11.6,20.5-19.2,29.5c-46.7-3.4-93.5-0.6-140.2-1.6c-7.5-0.2-15.3,1.5-22.1-3.5
	c-2.8-3.8-2.8-8.2-2.8-12.6c0.2-11.6,3.3-15.1,15-15.3c20.8-0.4,41.5-0.1,62.3-0.1c30.4,0,60.7-0.1,91.1,0
	C913.2,351.1,919,350.1,923.6,354.6z"/>
<path class="st33" d="M742.7,378.7c49.7,0,99.4-0.1,149,0.1c4.6,0,11-2.7,12.6,5.3c-1.7,7-8.7,11.2-9.5,18.7
	c-2.5,1.7-5.4,1.1-8.1,1.1c-47.5,0-95,0.2-142.5-0.1c-7.6-5.9-4-13.9-3.9-21.3C740.8,381,741.6,379.7,742.7,378.7z"/>
<path class="st34" d="M742.7,378.7c-0.1,0.7-0.1,1.5,0,2.2c-1.7,7.2-1.9,14.4,0.1,21.5c50.7,0.1,101.3,0.2,152,0.3
	c0.4,0.1,1,0,1.1,0.3c0.3,0.5,0.4,1.1,0.6,1.7c-2.3,0.2-4.7,0.5-7,0.5c-47.3,0-94.6-0.2-141.9,0.2c-9.1,0.1-13.1-2.1-12.3-12.1
	c0.9-12,0.6-24,0.2-36.1c-0.2-6.9,1.7-10,9.4-10c58.1,0.3,116.2,0.1,174.3,0.1c5.6,0,11-0.1,4.3,7.2c-55.6-0.1-111.3,0.1-166.9-0.4
	c-10.5-0.1-16,2.1-14.2,13.7C743.1,371.4,742.7,375.1,742.7,378.7z"/>
<path class="st35" d="M965.2,404.6c-2.4-1.5-4.4-2.2-5.7-3.5c-2.8-2.8-0.1-5.3,1.3-7.4c10.2-16.2,20.6-32.4,31-48.6
	c6-9.4,12.1-18.8,18-28.4c1.9-3.1,3.6-5,7.6-2.9c3.8,2,4,4.5,2,7.8c-16.7,26.3-33.4,52.7-50.2,79C968,402,966.5,403.2,965.2,404.6z"
	/>
<path class="st35" d="M1057.7,342.9c-1.1,1.6-2,2.9-2.8,4.2c-15.8,25-31.6,50-47.5,74.9c-1.7,2.6-2.9,7.6-7.8,4.8
	c-5.6-3.2-3.1-7.3-0.7-11.2c15.6-24.6,31.2-49.3,47.1-73.8c1.4-2.2,2.2-6.9,6.7-5.1C1055.3,337.8,1057.1,340,1057.7,342.9z"/>
<path class="st35" d="M983.2,415.6c-5.7-1.9-7.8-4.3-3.7-10.4c11.7-17.6,22.8-35.5,34.1-53.4c4.5-7.1,8.7-14.3,13.4-21.2
	c1.9-2.9,3.2-8.4,8.7-4.4c4.7,3.4,2.1,7.1-0.1,10.4c-13.3,20.8-26.6,41.6-39.9,62.4c-2.8,4.4-5.4,8.8-8.3,13.1
	C986.4,413.7,985.8,416,983.2,415.6z"/>
<path class="st36" d="M960.6,358.9c-0.6,1.3-1.1,2.8-1.9,4.1c-6.4,10-12.9,20-19.3,29.9c-1.7,2.7-3.3,5.9-7.3,2.6
	c-2.6-2.2-4.6-4.4-2.3-8.1c6.7-10.7,13.4-21.5,20-32.3c1.6-2.7,3.6-2.5,6-1.2C957.8,355.1,960.1,355.9,960.6,358.9z"/>
<path class="st37" d="M1072.3,309.5c0.7-0.1,1.4-0.2,2-0.2c0.5,2.2,1,4.4,1.4,6.6c-3.2,0.5-5.9-0.8-8.5-2.6
	C1069,312,1070.6,310.7,1072.3,309.5z"/>
<path class="st37" d="M1053.3,304.3c4.8,1.4,10.3-1.8,14.8,2C1063.2,305.8,1057.8,308.4,1053.3,304.3z"/>
<path class="st38" d="M1002.4,472.3c4.1-3,8.1-6.1,12.2-9.1c14.4-9.1,7.2,5.9,10.4,9.3c-0.8,3.8-2.6,7-5.5,9.6
	C1013.8,478.9,1008.1,475.6,1002.4,472.3z"/>
<path class="st39" d="M1154,390.3c15.1,9.9,4.6,19.8-0.1,29.7C1150.5,410.1,1148.1,400.2,1154,390.3z"/>
<path class="st40" d="M1130.7,479.2c-1.6,1.1-3.2,2.2-4.8,3.3c-0.1-3.4-0.3-6.8-0.5-10.6C1129.6,473.2,1129.7,476.4,1130.7,479.2z"
	/>
<path class="st41" d="M1106,309c4.5,1.7,1,7.6,5,9.6c-1,2.1-2.4,3.9-4.8,4.6C1106.2,318.5,1106.1,313.7,1106,309z"/>
<path class="st42" d="M1067.9,513.4c-4.1-2.2-9.5-3-9.8-9.2c0.8-1.7,1.6-3.4,2.4-5.2c2,0.3,3.7-6.7,5.6-0.6
	C1067.5,503.2,1067.4,508.4,1067.9,513.4z"/>
<path class="st43" d="M384.7,278.1c6.7,14.6,4.9,21.7-7.3,28.9c-0.4-3.9-0.1-7.5-2.4-11.4C367.7,283.2,370.3,278.9,384.7,278.1z"/>
<path class="st40" d="M661.1,349.8c0-17.6,0.6-35.3-0.2-52.9c-0.5-10.4,3.3-13.7,12.9-12.2c2.4,0.4,4.8,0.3,7.2,0
	c6.5-0.7,9.2,1.5,9.1,8.6c-0.3,37.7-0.3,75.3,0,113c0.1,7.1-2.7,9.2-9.2,8.5c-2.8-0.3-5.7-0.4-8.4,0c-8.7,1.2-12.1-1.6-11.6-11
	C661.6,385.8,661.1,367.8,661.1,349.8z"/>
<path class="st44" d="M612.5,366.1c0-12.8,0.2-25.6-0.1-38.3c-0.2-6.4,1.6-9.1,8.7-9.3c18.8-0.5,18.8-0.9,18.8,18.3
	c0,21.6-0.7,43.2,0.3,64.7c0.5,11.7-3.9,13.7-14.3,13.7c-10,0-14.6-1.9-13.6-13.1C613.3,390.1,612.5,378.1,612.5,366.1z"/>
<path class="st45" d="M541,373c0,10.8-0.4,21.6,0.1,32.4c0.4,7.5-2.6,10.1-9.8,9.4c-4-0.4-8-0.2-12,0c-5,0.2-7.3-1.8-7.3-7
	c0.1-22.8,0.1-45.6,0-68.4c0-6.1,2.8-8.2,8.7-8.7c20.2-1.5,20.2-1.7,20.2,18.2C541,357,541,365,541,373z"/>
<path class="st46" d="M591.2,384.5c0,5.2-0.7,10.5,0.1,15.6c2,12.7-3.5,15.3-15.2,15.1c-10.8-0.2-14.9-2.7-14-14
	c1-11.9,0.7-24,0.1-35.9c-0.5-8.7,3-11.6,11.1-10.6c1.6,0.2,3.2,0.2,4.8,0c10.4-1.7,14.8,2.3,13.3,13.1
	C590.6,373.3,591.2,378.9,591.2,384.5z"/>
<path class="st47" d="M692.3,246.3c-80.9,0-161.7,0-242.6-0.1c-4.2,0-8.9,1.6-12.4-2.3c1.2-2,2.6-3.8,4.9-4.7
	c6.2-2.1,12.7-1.5,19.1-1.5c68.1-0.1,136.2,0,204.3,0c19.7,0,19.7,0,20.7-19.4c0.2-4.4,0.1-8.9,3.2-12.6c2.5-1,4,0.1,3.9,2.5
	C693,220.9,694.9,233.7,692.3,246.3z"/>
<path class="st46" d="M463.7,392.3c0-0.8,0-1.6,0-2.4c0-18.9,4.4-22.2,23.4-18.6c4.9,0.9,5.5,3.7,5.5,7.5c0,6.8,0,13.6,0,20.4
	c0,15.6,0,15.7-15.5,15.5C460.8,414.5,464,416.3,463.7,392.3z"/>
<path class="st48" d="M437.2,253.1c4.1,6.4,3,10.5,3,14.4c0.1,46.1,0.5,92.2-0.3,138.3c-0.2,12.1,3.5,14.2,14.7,14.1
	c82.6-0.5,165.1-0.3,247.7-0.2c4.3,0,8.8-1.1,13.2,1.1c-3.6,2.9-7.7,1.5-11.3,1.5c-85,0.1-170,0-254.9,0.2
	c-8.6,0-12.4-1.2-12.3-11.4c0.6-48.9,0.3-97.8,0.3-146.7C437.2,261.7,437.2,259,437.2,253.1z"/>
<path class="st49" d="M692.3,246.3c-1.3-13.6,2.8-27.5-2.3-40.9c-6.7-9-3.4-19.4-3.7-29.1c-0.6-17.1-0.6-17.6-17.6-17.6
	c-69.4,0-138.8-0.1-208.2,0c-16.2,0-16.7,0.8-17.1,17c-0.3,9.5,1.7,19.3-2.3,28.5c-0.9,1.5-2.2,1.9-3.9,1.2
	c0-14.4,0.3-28.8-0.1-43.2c-0.2-7.1,1.9-9.9,9.5-9.9c78.8,0.2,157.6,0.1,236.3,0.1c4.4,0,9.6-0.6,9.3,6.1c-1.4,28,4.3,55.7,2.3,83.7
	C694.4,243.7,693.1,245,692.3,246.3z"/>
<path class="st50" d="M730.8,239.1c0-14.4,0.2-28.7-0.1-43.1c-0.2-6.9,1.7-10.1,9.3-10c22.3,0.4,44.7,0.2,67,0.1
	c5.9,0,10.3,1.4,10.3,8.4c0,26.3,0,52.7-0.2,79c0,1.3-1.4,2.7-2.2,4c-1.9-1.1-3.7-2.4-4.6-4.5c-3.4-20.7-0.3-41.5-1.4-62.2
	c-0.8-15.7-0.6-16.1-16.3-16.2c-14.8-0.1-29.6,0.1-44.4,0c-8.1,0-11.4,3.4-11.6,11.4c-0.3,10.7,1.6,21.6-2.3,32
	C733.6,239.5,732.4,239.9,730.8,239.1z"/>
<ellipse class="st51" cx="830.7" cy="167" rx="135.7" ry="1.7"/>
<path class="st52" d="M928.2,234.3c2.6,2,2.4,4.8,2.4,7.6c0,24.6,0,49.2,0,73.9c0,2.8,0.2,5.6-2.4,7.6c-2.1-2.1-4.3-4.1-5-7.2
	c-2.3-19.6-0.9-39.2-1-58.8c-0.1-15.9-0.7-16.8-17-16.9c-14.8-0.1-29.6,0.1-44.5-0.1c-5.1-0.1-10.5,0.5-14.7-3.7
	c0-1.8,0.9-3.3,2.6-3.3C875.1,233.7,901.7,231.7,928.2,234.3z"/>
<path class="st53" d="M733.2,313.8c0.5-5.1,4.4-4.8,8-4.8c23.5,0,47.1,0,70.6,0c3.6,0,7.5-0.3,8,4.8c-26,1-51.9,4.2-77.9,3.2
	C738.7,316.8,735.7,316,733.2,313.8z"/>
<path class="st54" d="M928.9,192.3c-27.8,0-55.5,0-83.3,0c0-0.8,0-1.6,0-2.4c27.8,0,55.5,0,83.3,0
	C928.9,190.6,928.9,191.5,928.9,192.3z"/>
<path class="st54" d="M843.9,210.3c0.5-5.2,4.4-4.8,8-4.8c23.5,0,47,0,70.5,0c3.6,0,7.5-0.4,8.1,4.7c-26,1.2-51.8,4.2-77.9,3.3
	C849.4,213.4,846.4,212.5,843.9,210.3z"/>
<path class="st13" d="M735,292.9c27.8,0,55.5,0,83.3,0c0,0.8,0,1.6,0,2.4c-27.8,0-55.6,0-83.3,0C734.9,294.5,734.9,293.7,735,292.9z
	"/>
<path class="st55" d="M925.8,318.6c1.9,1,2.4,2.8,2.4,4.8c-24.6,0-49.2,0.1-73.8-0.1c-3.9,0-9.3,2-10.3-4.7c1.2-1,2.5-1.8,3.9-2.5
	c23-2.7,46.1-1,69.1-1C920.3,315.1,923.3,316.3,925.8,318.6z"/>
<path class="st13" d="M867.1,202.9c-6,0-11.9,0.1-17.9,0c-2.5,0-4.9-0.7-4.6-4c0.3-2.4,2.4-2.9,4.5-2.9c12.7,0,25.4,0,38.1,0
	c2.1,0,4.1,1,4.1,3.4c0,2.3-1.8,3.4-4,3.4C880.6,202.9,873.9,202.8,867.1,202.9C867.1,202.9,867.1,202.9,867.1,202.9z"/>
<path class="st49" d="M928.2,234.3c-23.1,0-46.3-0.1-69.4,0.1c-4.2,0-8.9-1.6-12.4,2.3c6.5,16.3,4.4,32.8,1.5,49.3
	c-0.9,1.5-2.2,1.9-3.9,1.2c0-15.6,0.1-31.2,0-46.8c0-4.9,0.7-8.6,7-8.6c24.4,0.2,48.8,0.1,73.2,0.3
	C925.5,232.2,926.8,233.6,928.2,234.3z"/>
<path class="st56" d="M733.2,313.8c28.9,0,57.8,0,86.6,0c-7.2,4.8-15.2,1.3-22.8,2.4c-5.2,0.8-11-2.1-15.7,2.4
	c-16,3.9-32.1,3.9-48.1,0C733.2,317,733.2,315.4,733.2,313.8z"/>
<path class="st57" d="M843.9,210.3c28.9,0,57.7-0.1,86.6-0.1c-6.7,5-14.4,1.4-21.6,2.5c-5.6,0.9-11.8-2.2-16.9,2.4
	c-16,3.8-32.1,3.9-48.1-0.1C843.9,213.4,843.9,211.9,843.9,210.3z"/>
<path class="st13" d="M733.2,318.6c16,0,32.1,0,48.1,0C774.8,325.5,739.8,325.6,733.2,318.6z"/>
<path class="st13" d="M779.7,305.6c-14.9,0-29.8,0-45.6,0C741,300.8,767,300,779.7,305.6z"/>
<path class="st58" d="M843.9,215c16,0,32.1,0,48.1,0.1C885.4,222.1,850.4,222,843.9,215z"/>
<path class="st59" d="M812.5,275c0.8,0.9,1.6,1.7,2.5,2.6c-23.9,0-47.8,0.1-71.7-0.1c-4.2,0-8.9,1.6-12.4-2.3c1.2-1,2.5-1.9,3.9-2.5
	c23.4-2.6,46.8-1,70.2-0.9C807.8,271.9,810.4,273.1,812.5,275z"/>
<path class="st60" d="M634.2,287.7c-1.9,4.3-3.8,8.4-9.3,8.1c-2.1-0.1-5.2,1.4-4.7-2.9c0.5-4.2,1.6-8.1,7-8
	C629.7,285,632.8,284.4,634.2,287.7z"/>
<path class="st61" d="M799.5,325.8c-2.9-0.5-7.5,1.2-7.7-3.2c-0.3-5.6,4.9-3.7,8-3.9c2.9-0.1,7.3-1,7.2,3.6
	C806.9,326.8,802.4,325.3,799.5,325.8z"/>
<path class="st61" d="M799.6,306.5c-2.8-0.5-7.4,1.2-7.7-3.2c-0.4-5.6,4.8-3.8,7.9-4c2.9-0.2,7.3-1,7.3,3.6
	C807,307.5,802.5,306.1,799.6,306.5z"/>
<path class="st62" d="M533.4,299.7c-0.4,5.6-4.4,4.1-7.2,4.4c-3.8,0.4-5-1.6-4.2-5c0.8-3.4,2.5-6.1,6.4-5.7
	C532,293.9,533.7,296.5,533.4,299.7z"/>
<path class="st13" d="M909.7,222.3c-2.9-0.4-7.2,0.9-7.3-3.7c-0.1-3.8,3.7-3.4,6.3-3.4c3,0,7.4-0.8,7.9,3.1
	C917.1,222.7,912.5,221.8,909.7,222.3z"/>
<path class="st13" d="M909,203c-2.6-0.3-6.3,0.6-6.6-3.2c-0.3-4.9,4-3.8,6.9-3.9c3-0.1,7.5-0.5,7.3,3.6
	C916.5,203.5,912.1,202.8,909,203z"/>
<path class="st63" d="M483.2,340.7c0,4.2-0.5,8.2-5.7,8.7c-3.4,0.3-5.3-2.3-5.2-5.1c0.2-4.9,3.9-6.3,8.3-6.1
	C481.8,338.7,483.2,339,483.2,340.7z"/>
<path class="st64" d="M581.8,338.3c0.2,4.6-1.4,7.7-6.7,6.9c-3.4-0.5-4.7-3.7-4.4-6.1c0.9-6.7,6.7-2.7,10.2-3.9
	C582.6,335.8,583,336.8,581.8,338.3z"/>
<path class="st65" d="M670,269.8c1-4.7,4.1-5.4,8-3.9c2.1,0.9,2.6,3,2.2,5c-1.4,5.7-5.6,4.3-9.5,3.5
	C669.2,273.1,669.2,271.5,670,269.8z"/>
<path class="st66" d="M437.3,205.5c0.8,0,1.6,0,2.3,0c5.9,12,5.7,23.9,0.1,35.9c-0.8,0.8-1.7,1.7-2.5,2.5
	C437.2,231.1,437.2,218.3,437.3,205.5z"/>
<path class="st67" d="M733.4,275.1c-0.8,0.1-1.7,0.1-2.5,0.2c0-12,0-24.1-0.1-36.1c0.8,0,1.6,0,2.3,0
	C739.1,251.1,738.8,263.1,733.4,275.1z"/>
<path class="st67" d="M843.9,287.3c0.8,0,1.5,0,2.3,0c5.7,10.4,5.5,20.8,0.1,31.3c-0.8,0-1.6,0-2.4,0
	C844,308.1,844,297.7,843.9,287.3z"/>
<path class="st68" d="M510.5,314.5c-2.5,4.9-6,8.8-11.7,10.4C501.1,319.8,504.9,316.4,510.5,314.5z"/>
<path class="st69" d="M581.8,338.3c-0.3-1-0.6-2-0.9-3.1c3.3-3.5,6.5-7,9.8-10.5C590.1,331.4,586.1,335,581.8,338.3z"/>
<path class="st70" d="M661,277.6c-3.5,2.1-7,4.4-12.7,3.5c3.7-4.8,8-5.8,12.4-6.7C661.9,275.4,661.9,276.5,661,277.6z"/>
<path class="st71" d="M661,277.6c-0.1-1.1-0.2-2.1-0.2-3.2c3.1-1.5,6.1-3.1,9.2-4.6c0.2,1.5,0.4,3.1,0.7,4.6
	C667.4,275.5,664.2,276.6,661,277.6z"/>
<path class="st68" d="M553,323.1c5.4-0.9,8.2,1.3,10.6,8.6C558.5,327.6,555.8,325.3,553,323.1z"/>
<path class="st72" d="M646.2,281.6c-1.8,3.8-4.5,5.3-8.8,4.2C639,280.7,643.3,282.4,646.2,281.6z"/>
<path class="st73" d="M547.2,316.6c-6-3.1-9.1-5.2-10.9-9.7C541.6,307.2,544,310,547.2,316.6z"/>
<path class="st74" d="M483.2,340.7c-0.9-0.8-1.7-1.7-2.6-2.5c2.8-1.3,4.1-5,8-4.8C489.5,337.9,485.4,338.6,483.2,340.7z"/>
<path class="st75" d="M742.9,402.4c-3.6-7.2-3.2-14.3-0.1-21.5C742.8,388.1,742.8,395.3,742.9,402.4z"/>
<path class="st25" d="M439.7,241.4c0-12-0.1-23.9-0.1-35.9c0-13.6,0.3-27.2,0-40.8c-0.2-7.1,1.9-9.9,9.5-9.9
	c77.2,0.2,154.4,0.2,231.6,0c7.5,0,9.7,2.8,9.5,9.9c-0.4,13.6-0.1,27.2-0.1,40.8c0,7.6-0.7,15.2,0.1,22.7
	c1.1,10.3-2.2,13.7-13.1,13.6c-51.5-0.6-103-0.2-154.6-0.3C494.8,241.5,467.3,241.4,439.7,241.4z"/>
<path class="st76" d="M733.4,275.1c-0.1-12-0.1-24-0.2-35.9c0-12.8,0.3-25.5,0-38.3c-0.2-6.9,1.6-10.2,9.3-10
	c20.3,0.4,40.7,0.4,61,0c7.7-0.2,9.4,3.1,9.3,10c-0.3,24.7-0.2,49.5-0.2,74.2C786.1,275.1,759.8,275.1,733.4,275.1z"/>
<path class="st76" d="M846.3,318.5c0-10.4,0-20.8-0.1-31.3c0-16.9,0-33.7,0.1-50.6c23.1,0,46.2,0.3,69.3-0.2
	c7.8-0.1,10.4,2.5,10.3,10.3c-0.4,23.9-0.1,47.8-0.1,71.7C899.3,318.5,872.8,318.5,846.3,318.5z"/>
<path class="st77" d="M495,200.7c-3.3-4.3,0-4.7,3-4.8c8-0.2,16-0.1,24.1-0.1c46.5,0,93-0.1,139.6,0.1c4.1,0,8.7-1.6,12.3,4.8
	c-40.4,0-80.7,0-121.1,0c-11.9,6.5-24.8,2.4-37.2,3.1C508.7,204.2,501.2,205.9,495,200.7z"/>
<path class="st58" d="M466.2,207.9c-6.5,0.9-10.7-2.9-11.1-9c-0.4-6,3.1-10.5,10.2-10.3c6.2,0.2,11.5,2.8,11.8,9.2
	C477.4,203.8,473.7,208.2,466.2,207.9z"/>
<path class="st13" d="M555.2,205.4c-0.3,3.4-2.3,4.8-5.6,4.8c-17.1,0-34.1,0-51.2,0c-3.2,0-5.3-1.2-5.8-4.6
	c7.4-4.5,15.6-2.6,23.4-2.4C529.1,203.7,542.4,200.5,555.2,205.4z"/>
<path class="st78" d="M553.8,190.2c-19.7,0-39.4,0-59.1,0c19.6-5.1,39.3-3.1,59-3.7C553.6,187.8,553.7,189,553.8,190.2z"/>
<path class="st79" d="M555.2,205.4c-20.8,0.1-41.7,0.1-62.5,0.2c0.8-1.6,1.6-3.3,2.3-4.9c19.3,0,38.5,0,57.8,0
	C553.6,202.3,554.4,203.8,555.2,205.4z"/>
<path class="st80" d="M757.7,263.4c-16.1-10.8-22.1-25.3-17.3-41.4c4.2-14,16.5-23,31.9-23.3c2.3,2.6,2.3,5.7,1.5,8.9
	c-1.1,3.4-4.1,4.5-7,6c-15.6,8.3-18.1,20-7.5,34c1.4,1.9,3.1,3.6,4,5.9C763.9,258.2,763.6,262.4,757.7,263.4z"/>
<path class="st81" d="M797.9,208.1c16.6,21,13,42.5-9.2,55.2c-3.1-2.5-4.9-5.5-4.4-9.6c8.1-11.4,11-23.6,5.6-37.1
	C790.5,211.9,793.8,209.6,797.9,208.1z"/>
<path class="st82" d="M786.2,253.7c0.8,3.2,1.7,6.5,2.5,9.7c-10.3,5.6-20.7,6.1-31,0c3-2.5,4.4-5.7,4.5-9.5
	C770.2,252.4,778.1,250.8,786.2,253.7z"/>
<path class="st83" d="M797.9,208.1c-1.2,3.6-3.9,5.8-7.1,7.4c-7.4,0.3-13.1-3.3-18.5-7.8c0-3,0-6,0-9
	C782.6,196.9,790.5,201.9,797.9,208.1z"/>
<path class="st84" d="M887.2,258.1c-8,0-16-0.1-23.9,0c-4,0.1-5.8-1.5-5.7-5.6c0.1-4.1,2.9-4.1,5.8-4.1c16.8,0,33.5,0,50.3,0
	c3.3,0,5.1,1,5,4.8c-0.1,3.6-1.7,4.9-5.1,4.9C904.7,258,895.9,258.1,887.2,258.1z"/>
<path class="st85" d="M885.2,306.1c-6.8,0-13.6,0-20.4,0c-3.5,0-6.6-0.8-6.3-5.2c0.2-3.8,3-4.3,6-4.3c14,0,28-0.1,42.1,0
	c2.8,0,6.1,0,6.4,3.7c0.3,4-2.4,5.7-6.1,5.8C899.6,306.2,892.4,306.1,885.2,306.1C885.2,306.1,885.2,306.1,885.2,306.1z"/>
<path class="st86" d="M878.8,273.3c-5.6,0-11.1,0-16.7,0c-2.9,0-4.3-1.5-4.3-4.4c0-2.7,1.1-4.7,4-4.8c11.9-0.1,23.8-0.1,35.7-0.1
	c2.9,0,4.1,1.7,4.2,4.5c0.2,3.8-1.9,4.7-5.2,4.7C890.7,273.3,884.8,273.4,878.8,273.3C878.8,273.3,878.8,273.3,878.8,273.3z"/>
<path class="st87" d="M872.8,290.2c-4.6-3.1-14.3,4.1-14.1-5.7c0.1-8.1,8.9-4.3,13.5-4.1c5,0.2,14.3-4.5,14.7,4.1
	C887.2,294.3,877.4,287,872.8,290.2z"/>
<path class="st76" d="M772.2,207.7c6.8,1.1,13.1,3.3,18.5,7.8c8.7,15.7,7.8,22.7-4.6,38.1c-8,2.4-16,4-24,0.2
	c-9.5-5.6-13.6-13.7-12.2-24.8C751.6,215.8,761.5,211.4,772.2,207.7z"/>
<image style="overflow:visible;" width="80" height="117" xlink:href="9BBDC2E4.jpg"  transform="matrix(1 0 0 1 885 -362)">
</image>
<g>
</g>
<g>
</g>
<g>
</g>
<g>
</g>
<g>
</g>
<g>
</g>
<g>
</g>
<g>
</g>
<g>
</g>
<g>
</g>
<g>
</g>
<g>
</g>
<g>
</g>
<g>
</g>
<g>
</g>
</svg>
