<?xml version="1.0" encoding="utf-8"?>
<!-- Generator: Adobe Illustrator 23.0.5, SVG Export Plug-In . SVG Version: 6.00 Build 0)  -->
<svg version="1.1" id="Layer_1" xmlns="http://www.w3.org/2000/svg" xmlns:xlink="http://www.w3.org/1999/xlink" x="0px" y="0px"
	 viewBox="0 0 1000 677" style="enable-background:new 0 0 1000 677;" xml:space="preserve">
<style type="text/css">
	.st0{fill:#B8CBE3;}
	.st1{fill:#D5EBFE;}
	.st2{fill:#FE7572;}
	.st3{fill:#A15059;}
	.st4{fill:#FD7572;}
	.st5{fill:#4571D8;}
	.st6{fill:#38295C;}
	.st7{fill:#723247;}
	.st8{fill:#FEC5C6;}
	.st9{fill:#834150;}
	.st10{fill:#4D1226;}
	.st11{fill:#D9EDF9;}
	.st12{fill:#F97877;}
	.st13{fill:#B9C7DB;}
	.st14{fill:#9F4854;}
	.st15{fill:#ECF6F7;}
	.st16{fill:#F67D7D;}
	.st17{fill:#DE7775;}
	.st18{fill:#E07271;}
	.st19{fill:#F2F8F8;}
	.st20{fill:#090521;}
	.st21{fill:#3969BB;}
	.st22{fill:#F9F8F4;}
	.st23{fill:#E47873;}
	.st24{fill:#DE7674;}
	.st25{fill:#3D64AD;}
	.st26{fill:#312952;}
	.st27{fill:#E17173;}
	.st28{fill:#E1716F;}
	.st29{fill:#4D70BB;}
	.st30{fill:#FDA399;}
	.st31{fill:#C8DDF6;}
	.st32{fill:#D26453;}
	.st33{fill:#534887;}
	.st34{fill:#524888;}
	.st35{fill:#FDC5C7;}
	.st36{fill:#524786;}
	.st37{fill:#D35E5B;}
	.st38{fill:#4D4481;}
	.st39{fill:#382A5E;}
	.st40{fill:#F45B67;}
	.st41{fill:#D2605C;}
	.st42{fill:#5A4B87;}
	.st43{fill:#EA929D;}
	.st44{fill:#ADCBE6;}
	.st45{fill:#AFCDE8;}
	.st46{fill:#AECBE8;}
	.st47{fill:#D1B7C5;}
	.st48{fill:#3F3873;}
	.st49{fill:#090734;}
	.st50{fill:#4E487E;}
	.st51{fill:#414174;}
	.st52{fill:#DAB2B4;}
	.st53{fill:#C0A1BB;}
	.st54{fill:#F75965;}
	.st55{fill:#184ECA;}
	.st56{fill:#C9DEF4;}
	.st57{fill:#D6EAFC;}
	.st58{fill:#DDE4F3;}
	.st59{fill:#D57475;}
	.st60{fill:#C9DDF4;}
	.st61{fill:#4571D7;}
	.st62{fill:#D6E9FC;}
	.st63{fill:#F8716D;}
	.st64{fill:#534886;}
	.st65{fill:#B9CBE3;}
	.st66{fill:#C8DCF5;}
	.st67{fill:#372A5D;}
	.st68{fill:#A0555C;}
	.st69{fill:#534888;}
	.st70{fill:#251A40;}
	.st71{fill:#392A5E;}
	.st72{fill:#A14C54;}
	.st73{fill:#88577B;}
	.st74{fill:#9C4865;}
	.st75{fill:#30265D;}
	.st76{fill:#A84E51;}
	.st77{fill:#A24B54;}
	.st78{fill:#6B3679;}
	.st79{fill:#4D1337;}
	.st80{fill:#FEFEFD;}
	.st81{fill:#4471D8;}
	.st82{fill:#3665BC;}
	.st83{fill:#CFDFFB;}
	.st84{fill:#D9757C;}
	.st85{fill:#F37272;}
	.st86{fill:#EB706D;}
	.st87{fill:#E2DDE9;}
	.st88{fill:#F4F2F8;}
	.st89{fill:#E3DBE2;}
	.st90{fill:#F1F9FC;}
	.st91{fill:#4671D8;}
	.st92{fill:#4472D8;}
	.st93{fill:#4572D5;}
	.st94{fill:#5271CB;}
	.st95{fill:#4F72CE;}
	.st96{fill:#FB8B8E;}
	.st97{fill:#3C74E4;}
	.st98{fill:#392B5E;}
	.st99{fill:#F49090;}
	.st100{fill:#362D69;}
	.st101{fill:#3F3664;}
	.st102{fill:#18032F;}
	.st103{fill:#1A0635;}
	.st104{fill:#160939;}
	.st105{fill:#180228;}
	.st106{fill:#2F1A43;}
	.st107{fill:#180636;}
	.st108{fill:#3D326B;}
	.st109{fill:#3A2E61;}
	.st110{fill:#140024;}
	.st111{fill:#140538;}
	.st112{fill:#271248;}
	.st113{fill:#3E326D;}
	.st114{fill:#2E0833;}
	.st115{fill:#1F0B36;}
	.st116{fill:#813951;}
	.st117{fill:#6E3043;}
	.st118{fill:#6D2F42;}
	.st119{fill:#3971E1;}
	.st120{fill:#1E0023;}
	.st121{fill:#F98C8E;}
	.st122{fill:#362B60;}
	.st123{fill:#3A73E1;}
	.st124{fill:#C8DEF4;}
	.st125{fill:#534787;}
	.st126{fill:#184EC7;}
	.st127{fill:#3C2960;}
	.st128{fill:#3C2A5C;}
	.st129{fill:#332659;}
	.st130{fill:#352556;}
	.st131{fill:#3D2B63;}
	.st132{fill:#796CB7;}
	.st133{fill:#281C46;}
	.st134{fill:#291B46;}
	.st135{fill:#7969B9;}
	.st136{fill:#291D46;}
	.st137{fill:#271C43;}
	.st138{fill:#271C45;}
	.st139{fill:#261B42;}
	.st140{fill:#281D44;}
	.st141{fill:#2C1F5C;}
	.st142{fill:#30216A;}
	.st143{fill:#6F60A7;}
	.st144{fill:#5F5493;}
	.st145{fill:#164ECA;}
	.st146{fill:#FCA499;}
	.st147{fill:#174EC9;}
	.st148{fill:#1A50C7;}
	.st149{fill:#F05B56;}
	.st150{fill:#2A51C6;}
	.st151{fill:#D7E3F6;}
	.st152{fill:#F2AEB0;}
	.st153{fill:#2354C4;}
	.st154{fill:#3573E1;}
	.st155{fill:#2D5BCB;}
	.st156{fill:#9782C3;}
	.st157{fill:#3C70D8;}
	.st158{fill:#3441A6;}
	.st159{fill:#416FD2;}
	.st160{fill:#3262CF;}
	.st161{fill:#1D4DBF;}
	.st162{fill:#2651CA;}
	.st163{fill:#2655C6;}
	.st164{fill:#2457C6;}
	.st165{fill:#4C4883;}
	.st166{fill:#3E71D7;}
	.st167{fill:#2A5CC7;}
	.st168{fill:#144AC5;}
	.st169{fill:#4169C2;}
	.st170{fill:#3673E2;}
	.st171{fill:#0F3EA6;}
	.st172{fill:#3865CD;}
	.st173{fill:#3A67CD;}
	.st174{fill:#C9DDF3;}
	.st175{fill:#C9DCF4;}
	.st176{fill:#ACBED5;}
	.st177{fill:#444361;}
	.st178{fill:#D0DBF1;}
	.st179{fill:#DCF0FE;}
	.st180{fill:#E7D6E3;}
	.st181{fill:#BCD1E7;}
	.st182{fill:#454772;}
	.st183{fill:#994336;}
	.st184{fill:#F35B67;}
	.st185{fill:#FCF0F0;}
	.st186{fill:#F8A8A5;}
	.st187{fill:#652F3F;}
	.st188{fill:#4E1949;}
	.st189{fill:#EC6E70;}
	.st190{fill:#3B0A32;}
	.st191{fill:#974D5C;}
	.st192{fill:#B05D62;}
	.st193{fill:#E45C61;}
	.st194{fill:#5B1A4A;}
	.st195{fill:#CD6D70;}
	.st196{fill:#2B000D;}
	.st197{fill:#ACBED6;}
	.st198{fill:#0E0A36;}
	.st199{fill:#0A0430;}
	.st200{fill:#221D4A;}
	.st201{fill:#0D0737;}
	.st202{fill:#0AABF4;}
	.st203{fill:#242383;}
	.st204{fill:#7E9CC8;}
	.st205{fill:#C27E89;}
	.st206{fill:#151448;}
	.st207{fill:#4F233F;}
	.st208{fill:#454A8A;}
	.st209{fill:#170A3C;}
	.st210{fill:#412D66;}
	.st211{fill:#2E1843;}
	.st212{fill:#FDA3A0;}
	.st213{fill:#F89B97;}
	.st214{fill:#F99D97;}
	.st215{fill:#523C71;}
	.st216{fill:#F8988F;}
	.st217{fill:#F28D89;}
	.st218{fill:#F4908C;}
	.st219{fill:#F69592;}
	.st220{fill:#E47974;}
	.st221{fill:#FEA48B;}
	.st222{fill:#E9585F;}
	.st223{fill:#FEC0C8;}
	.st224{fill:#E88783;}
	.st225{fill:#173FA3;}
	.st226{fill:#EE5D6A;}
	.st227{fill:#EE5E6D;}
	.st228{fill:#ED5F6B;}
	.st229{fill:#D8658D;}
	.st230{fill:#4872D9;}
	.st231{fill:#3965C4;}
	.st232{fill:#4572BF;}
	.st233{fill:#5D77C8;}
	.st234{fill:#3A64C3;}
	.st235{fill:#D6E7F7;}
	.st236{fill:#D6EAFD;}
	.st237{fill:#3272E3;}
	.st238{fill:#665B9F;}
	.st239{fill:#4B4183;}
	.st240{fill:#FDA499;}
	.st241{fill:#F45964;}
	.st242{fill:#524785;}
	.st243{fill:#D4BFC3;}
	.st244{fill:#4F4C82;}
	.st245{fill:#4C4980;}
	.st246{fill:#4C4A83;}
	.st247{fill:#4D4C7D;}
	.st248{fill:#271D42;}
	.st249{fill:#2F2445;}
	.st250{fill:#9BA3BD;}
	.st251{fill:#04021E;}
	.st252{fill:#C1D0EA;}
	.st253{fill:#1E153B;}
	.st254{fill:#413675;}
	.st255{fill:#1F0013;}
	.st256{fill:#35011F;}
	.st257{fill:#EC5A63;}
	.st258{fill:#F15C6A;}
	.st259{fill:#4C0E40;}
	.st260{fill:#2849B9;}
	.st261{fill:#4349AF;}
	.st262{fill:#75387B;}
	.st263{fill:#543A8E;}
	.st264{fill:#4E4BA5;}
	.st265{fill:#D5E9FA;}
	.st266{fill:#DBECF9;}
	.st267{fill:#DCECFA;}
	.st268{fill:#DBEBF8;}
	.st269{fill:#DCEAF9;}
	.st270{fill:#D5EAF9;}
	.st271{fill:#DDEAF8;}
	.st272{fill:#DAEAF8;}
	.st273{fill:#DDEAFA;}
	.st274{fill:#3B76E5;}
	.st275{fill:#3B73E1;}
	.st276{fill:#2771E2;}
	.st277{fill:#FEFEFE;}
	.st278{fill:#3B73DD;}
	.st279{fill:#F7FAF9;}
	.st280{fill:#4F75CC;}
	.st281{fill:#3273E0;}
	.st282{fill:#3374DF;}
	.st283{fill:#4070E1;}
	.st284{fill:#395FB5;}
	.st285{fill:#3C5DB6;}
	.st286{fill:#4F72D1;}
	.st287{fill:#3571E6;}
	.st288{fill:#3E71EA;}
	.st289{fill:#F8F2F0;}
	.st290{fill:#D62E33;}
	.st291{fill:#D95154;}
	.st292{fill:#4D1D40;}
	.st293{fill:#ED9CA1;}
	.st294{fill:#4D1E4E;}
	.st295{fill:#9E6C80;}
	.st296{fill:#0D062C;}
	.st297{fill:#D32B33;}
	.st298{fill:#FECADA;}
	.st299{fill:#310514;}
	.st300{fill:#E79595;}
	.st301{fill:#12053A;}
	.st302{fill:#1B1A58;}
	.st303{fill:#04154C;}
	.st304{fill:#250020;}
	.st305{fill:#E89DA6;}
	.st306{fill:#E67471;}
	.st307{fill:#F48D87;}
	.st308{fill:#EE8981;}
	.st309{fill:#FEA289;}
	.st310{fill:#573F6E;}
	.st311{fill:#0A4FD7;}
	.st312{fill:#0E51DA;}
	.st313{fill:#FB9691;}
	.st314{fill:#F98E8C;}
	.st315{fill:#FD908C;}
	.st316{fill:#FD9592;}
	.st317{fill:#FD9794;}
	.st318{fill:#FB9791;}
	.st319{fill:#F9847D;}
	.st320{fill:#F77675;}
	.st321{fill:#B9789D;}
	.st322{fill:#6475C5;}
	.st323{fill:#4A61AB;}
	.st324{fill:#3E72CC;}
	.st325{fill:#F35A64;}
	.st326{fill:#ED5F68;}
	.st327{fill:#AF4E67;}
	.st328{fill:#F37979;}
	.st329{fill:#F76274;}
	.st330{fill:#D7CEDB;}
	.st331{fill:#D6CED8;}
	.st332{fill:#D6CED9;}
	.st333{fill:#D7D0D9;}
	.st334{fill:#3D72E3;}
	.st335{fill:#3962BE;}
	.st336{fill:#FCF7FC;}
</style>
<path class="st0" d="M300.1,180.2c0.9,4.6,4.1,6.5,8.2,8c12.9,4.7,25.6,10,39.1,13.2c2,1.2,2,3.3,2.2,5.2c1.4,13.5,6.9,25.2,14.9,36
	c1.5,4,4.4,6.8,8.3,8.6c11.2,7.5,23,12.7,36.7,13.7c22.2,1.6,40.4-6.3,54.3-23.1c18.1-21.8,19.2-46,7.7-71.3
	c-0.7-3.4-4.8-5.8-3.3-9.9c17.2-11.8,35.6-21.2,54.7-29.4c2.7,0.1,2.7,2.6,3.8,4.1c11.6,21.8,29.4,35.1,54.2,37.5
	c16.7,1.6,31.9-3.8,44.9-14.2c10-8,17.1-18.3,21.4-30.5c2.2-6.2,2.3-12.5,2.4-18.9c0.1-2.9-1.1-6.3,2.2-8.4
	c2.4,3.5-1.7,9.1,2.7,11.4c3.3,1.7,7.7,1.3,11.6,2.1c14.3,2.7,27.9,7.4,41.2,13.3c1.2,0.5,2.1,1.6,3.1,2.4c2.6,4,1,8.4,0.9,12.6
	c-0.1,15.2,4.9,28.4,14.3,40.2c10,12.5,22.9,20.2,38.8,23c2.4,1.2,5.9-0.1,7.5,3c8.7,26.7,15.6,54.1,29.8,78.7
	c4.6,7.9,11,14.2,17.8,20.2c1.4,0.5,2,1.6,2.6,2.8c5.4,19.9,16.5,35.1,35.4,44.3c2.2,1.1,5.3,1.7,5.2,5.2c-2.1,3.3-5.8,3-8.9,3.5
	c-36,6-70,17.6-101.4,36.4c-13.2-3.6-27-6-36.4-17.6c-1-1.3-1.8-2.5-1.6-4.1c0-6.1-0.1-12.2,0.1-18.4c0.1-0.9-1.5,0.1-0.6,0
	c0.9,6.4,0.4,12.8,0.2,19.2c-0.6,0.6-1.3,0.8-2.1,0.4c-3.7-6.5-2.9-13.6-2.9-20.7c0-1.5,0.3-3,1.1-4.4c1.7-2.1,4.5-1.7,6.7-2.6
	c9.8-2.4,14.6-9,16-18.6c0.1-3.6,0.5-7.2-0.6-10.7c-0.3-4.6-3.6-8.2-3.8-12.8c2.6-8.7,3.5-17.6,3.3-26.6c0.3-1.7,1-3.2,2.4-4.2
	c1.8-1.5,0.4-2.6-0.5-3.9c-7.5-11.5-17.6-19.6-31-23.3c-7.9-3.4-14.8-9.3-24.1-8.8c-9.6-2.4-15-10.4-21.9-16.8
	c-1.9,1.5-1,3.6-1.2,5.4c-0.5,6.7-2.2,9-8.9,8.8c-16.9-0.4-30,7.1-41,19.2c8.7,1.1,9.3,1.7,5.8,9.6c-6.3,13.9-3.6,26.6,4.1,39
	c1.3,2.3,2.9,4.6,2.2,7.5c-0.7,2.6-1.7,5.1-1.8,7.8c-0.1,3.7-0.1,7.4,0,11.1c0,6,3.9,10.1,7,14.6c1.1,14.1,9.7,24.7,17.3,35.6
	c2.8,4,6.8,5.3,11.6,4.3c3.7-0.7,7.4-1.5,11,0.4c1.3,1.3,0.5,2.5-0.2,3.6c-10.3,11.4-24.2,16.5-37.8,22.3
	c-14.1,6-25.8,15.1-34.7,27.7c-1.4,1.9-2.2,4.5-5.3,4.4c-3.5-2.1-3.4-6.2-4.9-9.3c-0.6-1.9-1.2-3.7-2.1-5.5
	c-9.1-24.9-17.5-50-27.3-74.6c-1.6-2.9-4.2-4.5-7.4-5.2c-2.1-0.8-4.4-0.6-6.6-0.6c-94,0-187.9,0-281.9,0c-1.3,0-2.6,0-3.9,0.2
	c-1.7,0.5-3.4,1-4.9,1.7c-2.4,1.1-3.5,3.2-4.1,5.6c-0.9,2.3-0.8,5.2-3,7c-5.5,0.7-10.3-1.9-15.4-3.3c-26.8-7.4-54-12.7-81.9-14
	c-3.2-0.1-6.4-1.6-10.3-0.7c7.7,9.1,14.6,18.4,20,28.7c12,23,19.1,47.9,27.9,72.1c2.7,7.4,6.7,14.4,7.4,22.5
	c-1.2,2.3-3.8,2.9-5.4,4.7c-3.7,4.2-2.2,8.7-0.4,13c3.9,9.7,4.1,19.6,2.4,29.6c-34.7-2.1-64.1,13.8-94,26.4
	c-0.6,2.2,0.4,2.5,1.2,2.7c17.9,5.2,32.1,16.5,45.5,28.6c15.7,14.2,32.9,26.4,49.7,39.1c0.4-0.5,0.8-0.9,1.5-0.9
	c2.7,2.1,4.4,4.6,3.3,8.2c-2.3,2.3-5.3,1.8-8.1,1.8c-11.6,0.1-23.2,0.2-34.8,0c-8-0.2-14.8,1.3-18.4,9.5c-0.4,1-1.4,1.7-2.5,2
	c-25.4-4.9-47.9-15.7-67.7-32.3c-25.7-21.6-42-48.8-49.5-81.3c-1-4.5-1.4-9.1-2.1-13.6c0-9.7,0-19.4,0-29.1
	c2.1-22.6,10.9-42.5,24.9-60.1c10.3-12.9,22.7-24,31.5-38.1c13.1-20.9,19.7-44,24.4-68c3-15.3,5.3-30.7,11.5-46.1
	c26.2,28.6,58.6,42.5,96.8,39.3c32.5-2.7,59.7-17.1,80-43.3c1-1.4,0.2-3.3,1.4-4.6c1.3-1.5,2.2-3.2,3.2-5c0.8-1.2,1.8-2.3,2.7-3.6
	c4.7-7.4,8.3-15.2,9.9-23.9c4.9-13,6.4-26.5,5.3-40.3C298.3,184.3,298,181.9,300.1,180.2z"/>
<path class="st0" d="M932.3,369.9c19.5,20.1,34,43.3,43.3,69.6c5,14.2,8.2,28.8,8.3,43.9c0.2,24.9-8.8,46.4-23.7,65.9
	c-19.5,25.3-42.8,46.2-70.8,61.7c-7.7,4.2-16.1,7.2-23.4,12.1c-5.9,3.6-12.1,2.1-18.3,1.4c-2.2-0.9-2.3-2.5-0.9-4
	c3.1-3.2,4.4-7.8,7.8-10.8c0.7-0.3,0.8,1.1,2.1,0.1c16.3-12,32.3-24.4,49.7-34.9c8.3-5,17.3-8.5,27.5-10.9
	c-26.6-17.6-55.1-28.8-85.3-35.8c-1.1-0.9-1.9-1.9-1.4-3.4c13.2-17.3,22.6-36.8,31.7-56.4c13-28,23.4-57.2,39.5-83.7
	c2.4-4,5.1-7.8,8-11.3C928,371.5,929.3,369.2,932.3,369.9z"/>
<path class="st1" d="M932.3,369.9c-7.2,5.5-11.4,13.4-15.6,21c-10.7,19.2-19.4,39.5-28,59.7c-10.5,24.7-21.9,49-37,71.4
	c-1,1.5-1.9,3-4,3c-2.7-1.3-3-4.1-4-6.4c-4-9.2-7.2-18.7-12-27.5c-4.3-11-7.5-22.4-11.8-33.4c-2.6-6.8-6-13.1-9.1-19.6
	c-0.5-2.5,0.8-4.2,2.6-5.6c19.8-15.3,39.9-30.3,61.9-42.4c1.2-0.6,2.5-0.8,3.7-1.4c0.3-0.2,0.6-0.4,0.9-0.7c-0.5,0.4-0.9,0.7-1.4,1
	c-16.8,5.7-31.8,14.8-47,23.7c-8,4.6-15.9,9.4-23.2,15.1c-1.2,1-2.6,1.6-4.3,1.5c-8.1-4-14.7-10.2-22.7-14.5
	c-7.4-3.9-15-7.3-22.6-10.8c-2.5-1.2-5.5-1.8-6.7-4.9c7.9-7.7,18.2-11.2,27.9-15.7c25.4-11.7,52.3-18.8,79.9-22.9
	c0.8-0.1,1.5-0.8,2.2-1.2c2.2-1.9,4.6-1.1,6.9-0.4c14.9,4.2,29.2,1.9,43.2-3.5c2.4-0.9,4.8-2.2,7.6-1.5c8.2,0.6,16.4,1.2,25.2,1.8
	C941.6,361.7,934.6,363.7,932.3,369.9z"/>
<path class="st2" d="M919.9,353.8c-18.5,10-37.8,11.2-57.7,5.5c-9.6-5.2-19.1-10.5-26.5-18.9c-7.7-8.7-12.7-18.7-14.6-30.1
	c-1.1-8.9-0.9-17.9-0.1-26.9c2.7-19.2,13.7-32.9,29.3-43.3c5.3-3.5,11-6.4,17.4-7.5c1.9,0,3.9,0.6,5.4-0.2c-0.5,0.3-1.2,0.3-1.8-0.5
	c18.9-5.1,36.4-1.2,52.1,9.7c19.2,13.5,29.2,32.4,28.7,56.1c-0.3,15.1-4.8,29-15.2,40.5c-4.1,4.8-9.5,8.2-13.7,12.8
	C921.9,352,920.9,352.9,919.9,353.8z"/>
<path class="st2" d="M472.6,169.6c19.5,32.4,2.7,79.1-33.5,92.8c-24.5,9.3-47,4.9-67.8-10.4c-2.7-2.5-5.6-4.9-7.7-8
	c-10.2-12.3-15.3-26.6-16.2-42.5c0.4-16.7,6.1-31.5,16.4-44.6c0.6-2.1,1.7-3.7,4-4.3c16.6-14.2,35.4-21.1,57.5-17.5
	c2.3,0.4,4.2,1,5.7,2.7c7,1.5,6.8,1.7,13.7,7.8c1.1,1,4.1-0.6,6.6,1.4C459.5,153.5,466.7,160.8,472.6,169.6z"/>
<path class="st3" d="M846.6,623.1c6.5,0,13-0.1,19.5-0.1c10,0.1,20,0.1,30,0.2c2.6,0,5.2-0.5,7.6,1c-12,2-24.1,0.4-36.1,0.7
	c-0.5,0-0.8-0.2-0.9,0.3c-0.9,0.1,0.5,1.3-0.1,0.6c-0.2-0.2,0-0.4,0.5-0.4c10.1-0.6,20.2-0.1,30.3-0.3c2.4-0.1,4.8,0.7,7.1-0.7
	c5.4,2,8.9,5.2,7.3,11.7c-1.3,1.6-3,1.8-4.9,1.6c-3-0.9-6.1-0.7-9.2-0.7c-231,0-462,0-693,0c-3.1,0-6.2-0.3-9.2,0.8
	c-17.7,1.1-35.4,0.2-53.1,0.5c-4.2,0.1-8.3,0-12.5,0.1c-0.9,0-1.7-0.2-2.4-0.7c-0.4-0.4-0.9-0.9-1.3-1.3
	c3.9-11.2,6.7-13.2,18.8-13.2c12.8,0,25.5,0,38.3,0c2.3,0,4.9,0.8,6.9-1.2c8.2-1.7,16.5-0.3,24.8-0.8c6.4,0.1,12.8-0.1,19.2-0.4
	c27.1,0.6,54.3,0.2,81.4,0.2c15,0,30,0.3,45,0.2c1.3,0,2.5-0.4,3.8-0.4c17.9,0.6,35.9,0.2,53.8,0.3c30.6,0,61.2-0.3,91.8,0.1
	c3.4-0.2,6.7-0.1,10.1,0c13.2-0.3,26.4-0.2,39.6,0c2.7,0.1,5.5,0,8.2-0.5c1.2-0.2,2.4-0.1,3.6,0.2c16.3,1,32.5,0.4,48.8,0.3
	c6.8,0,13.6,0,20.4,0.1c2.4,0,4.7,0,7.1,0.2c0.8,0.1,1.5,0.2,2.3,0.4c3.6,1.4,7.5,0.4,11.1,1.5c6.3,1.8,12.7,0.5,19,0.5
	c9.8,0,19.7,1.1,29.5-0.8c5.5-0.6,11-0.6,16.5-0.1c7.7,1.9,15.7-0.6,23.4,0.9c1.9,0.4,4.1-0.4,5.9,0.3c2.6,1,3.4-0.8,4.6-2.3
	c3.9-1.3,7.9-0.9,11.8-0.8c21.5,0.3,43.1-0.4,64.6-0.1C840,621.1,843.6,620.5,846.6,623.1z"/>
<path class="st2" d="M651.8,100.8c0.4,14.7-1.1,29-9.4,41.8c-14,21.5-33.8,32.9-59.2,32c-25.7-1-44.8-14.2-57.1-36.9
	c-0.4-0.7-0.5-1.7-0.7-2.5c-1.2-2.4-0.6-5.5-2.8-7.6c-13.6-36.5,13.9-80,53.1-85.4C613.2,37,647.6,64,651.8,100.8z"/>
<path class="st4" d="M763.8,206.9c-15.3-1.3-27.3-9.3-37.2-20.2c-14.7-16.1-19.3-35.4-16.2-56.8c4.5-19.6,14.9-35,32.4-45.4
	c35.9-21.4,84.8-2.4,96.4,37.6c0.2,3.1,0.9,6,1.9,8.9c3.3,14.3,0.8,27.9-5.6,40.8c-7,14.2-18,24.5-32.4,31.2
	c-1.4,0.6-2.9,0.8-4.4,1.2c-1.1,1.2-3.1-0.2-4.1,1.3c-2.5,1.6-5.3,2-8.2,2.1C778.8,206.9,771.3,208.2,763.8,206.9z"/>
<path class="st5" d="M133,220.1c-17,6.2-34.5,11.7-42.6,30.4c-0.2,0.5-0.9,0.8-1.4,1.2c-32.9-50.6-16.7-127,42.7-158.6
	c2.7-0.3,5.6-0.9,4.8,3.5c-6.4,14.4-10.5,29.2-9.9,45.3c0.9,22.9,9.3,40.4,31.4,49.6c1.2,0.5,2.4,1.1,3.3,2.1
	c2.2,5.2,0.6,10-1.9,14.6C151.5,214.1,142.7,218.2,133,220.1z"/>
<path class="st6" d="M161,194c-20.3-5.2-34.5-23.4-36.1-46.2c-1.3-18.5,1.6-36,10.6-52.4c1.1-1.7,0.7-4.2,2.7-5.4
	c5.8-5.2,11.1-10.7,17.8-14.9c6.8-4.3,14.5-5.3,22-7.3c0.8,0.5,1.6,0.7,2.5,1c3.9,0.4,7.8,0,11.6,0.3c0.6,0.1,1.1,0.3,1.6,0.5
	c1.8,0.9,3.6,0.9,5.5,0.4c0.5-0.3,0.9-0.6,1.3-0.9c9,1.9,16.6,6.3,23,12.9c2.7,2.7,5.6,5.1,8.5,7.7c2.8,0.2,4.1,2.5,5.2,4.5
	c3.9,7.9,7.5,16,7.5,25.1c0.2,5.2-3.1,9.9-2.1,15.3c0.3,1.5-0.8,3-2.5,3.3c-2.2,0.4-3-1.3-3.7-2.9c-1-2.5-0.1-5.2-1.3-7.6
	c-0.5-0.4-1-0.7-1.5-0.9c-5.1-1.6-11.8-1.2-12.3-9.1c0-0.1-1.1,1.1-2,0.9c-1.7-1.2-1.7-2.8-1.3-4.5c-0.5,3-0.6,6.3-4.9,6.4
	c-0.2,0-0.4,0-0.6,0c0.2,0.3,0.7,0.1,1,0.3c1.7,0.4,3.8-0.2,4.6,2.2c-2.6,3.5-6.2,2.3-9.6,2c-1-0.3-1.8-0.7-2.7-1.2
	c-1.8-1.1-3-2.7-4.4-4.2c-0.7-0.4-1.6-0.6-2.3-1.1c-1.7-1.6-1.5-4.2-3.1-5.8c-1.1,1.6,0.5,2.9,0.3,4.4c-0.4,5-4.3,6.6-8.2,8
	c-3.5,1.2-6.9,2.4-10.7,2.4c-1.1-0.1-2.1-0.4-3.1-0.9c-1-0.5-2-0.9-3.1-0.8c0.5,0.6,2.3,0.1,1.6,1.8c-8.9,2-9.5,8.6-8.9,16
	c0.2,2.4,0.1,4.8-0.4,7.2c-0.7,2.3-0.9,4.6-1.4,6.9c-0.3,1-0.8,1.8-1.8,2.3c-1.1,0.1-1.9-0.3-2.7-1c-1.4-1.3-2.3-3-3.3-4.6
	c-4-6.6-4-6.6-9.6-2.4c-1.6,2.6-1.8,5.1,0.1,7.6c3.1,4.3,3.2,10.6,8.9,13.2c1.8,1.3,4,1.2,6,2c3.7,1.9,6.1,4.8,7.3,8.7
	c0.2,1,0.1,1.9-0.5,2.8c-1.6,1-3.4,1.7-3.2,4.2C163.4,191.6,163.2,193.5,161,194z"/>
<path class="st7" d="M127.6,637.7c0.4,0,0.9,0,1.3,0c0.8-0.3,1.7-0.4,2.5-0.1c24.9,0.2,49.8-0.2,74.7-0.3
	c88.7-0.3,177.4-0.1,266-0.1c136.6,0.1,273.2,0,409.8,0c9,0,18.1-0.1,27.1,0.3c1.2-0.4,2.5-0.6,3.7,0.2c0.2,6-3.3,9.3-8.3,11.6
	c-0.8-0.4-1.6-0.7-2.4-0.8c-2.4-0.2-4.9-0.1-7.3-0.1c-249.2,0-498.4,0-747.6,0c-2.6,0-5.3-0.1-7.9,0.2c-0.8,0.2-1.6,0.6-2.3,1.1
	C131,647.8,127.1,644.4,127.6,637.7z"/>
<path class="st5" d="M243,119.1c-0.7-10.9-4.6-20.7-11-29.5c6.8-0.2,11.1,4.5,16.2,7.8c20.6,13.4,35.9,31.2,44.9,54.2
	c3.4,8.8,6,17.9,6.6,27.4c-0.5,2.7-1.1,5.3,0.4,7.9c2,13.9-0.6,27.2-4.7,40.4c-0.1,0.3-1.2,0.4-1.8,0.5c-5.8-1.4-8.6-6.6-12.5-10.3
	c-12.9-12.2-23-25.1-16.5-45c2.6-8,0.5-16.5-6.4-23.1c-5.6-5.3-8.2-13.1-14.5-17.9c-0.4-0.6-0.6-1.3-0.8-2
	C242.4,126.1,244.7,122.6,243,119.1z"/>
<path class="st8" d="M133,220.1c8.5-4,17-8,25.5-11.9c3.6-1.9,7.3-0.6,11-0.6c9,0.2,17.9-0.6,26.9-0.7c0.6,0.2,1.6,0.6,1.6,1
	c-0.6,8.7,6.5,10.1,12.2,12.8c3.7,1.8,8.6,2,10.3,6.9c-3.2,16.5-12.5,29.3-24.8,40.3c-2.1,1.8-4.6,1.4-6.9,0.4
	c-23.1-10.3-42.5-24.8-55.5-47C132.9,221,133,220.5,133,220.1z"/>
<path class="st5" d="M220.3,227.7c-5.7-2.8-11.1-6.1-17-8.2c-5.9-2.1-7.7-5.7-6.3-11.4c-0.6-1.3-0.5-2.6,0.3-3.9
	c6-2.1,12.1-3.8,16.8-8.4c3.7,2,4.7,0.3,4.3-3.2c0.3-0.5,0.8-1,1.4-1.2c3.3-0.5,6.3,0,8.8,2.4c0.6,2.6,3.1,3,4.9,3.8
	c9.6,4.1,16.4,11.2,22.3,19.5c7.4,10,15.1,19.8,22.2,30.1c1.6,2.3,3.5,4.5,3.8,7.5c-0.7,2.3-0.9,4.9-4.2,5c-2.4,0.5-3.7-1.5-5.5-2.5
	c-1.8-1.8-3.6-3.7-5.3-5.5c-1.2-1.5-2.3-3.2-4.4-3.5C249.7,238.6,235.2,232.7,220.3,227.7z"/>
<path class="st9" d="M912.8,637.7c-1,0-2,0-3,0.1c-2.3,1.2-4.8,0.6-7.1,0.6c-143.4,0-286.9,0-430.3,0c-111.4,0-222.9,0-334.3,0
	c-2.6,0-5.3,0.6-7.8-0.6c-0.5,0-0.9,0-1.4-0.1c2-2.1,4.6-1.3,6.9-1.3c19.8-0.1,39.6-0.1,59.5-0.1c2.3-1.2,4.8-0.6,7.2-0.6
	c232.5,0,465.1,0,697.6,0c2.4,0,4.9-0.6,7.2,0.6c1.6-0.1,3.1-0.2,4.7-0.3C912.7,636.3,913.1,636.8,912.8,637.7z"/>
<path class="st10" d="M904.5,648.7c0,0,0,0.6,0,0.6c-2.7,1.2-5.6,0.9-8.5,0.9c-250.8,0-501.7,0-752.5,0c-2.2,0-4.4-0.3-6.6-0.5
	c0-0.4,0-0.9,0-1.3c2.3-1.2,4.8-0.6,7.2-0.6c251.2,0,502.3,0,753.5,0C899.8,647.8,902.4,646.7,904.5,648.7z"/>
<path class="st11" d="M181.9,274.4c3.8,1.2,7.5,2.5,11.3,3.5c3.1,0.8,5.5,0.5,8.3-2.1c7.7-7.1,14.1-15,18.9-24.2
	c0.8-1.5,1.7-2.9,3.2-4c-0.1,6.7-3.5,12.1-6.6,17.6c-3.8,6.5-9.3,11.7-14.4,17.1c-2.4,2.6-4.7,1.8-7.1,0.8
	c-5.5-2.4-10.8-4.9-16.3-7.4C179.3,273.6,180.4,273.5,181.9,274.4z"/>
<path class="st12" d="M472.6,169.6c-1.1,0-2.2-0.2-2.7-1.4c-4.4-9.4-13.9-14-20.4-21.3c-1.2-1.4-2.5-1.7-3,0.9
	c-0.3,1.9-1.9,1.4-3.1,0.7c-0.7-0.4-1.7-1-1.8-1.7c-0.7-3.1-2.8-5.9-6.2-7.5c-1.4-0.6-2.8-1.1-4.3-1.7c2.5-2,4.6,0,6.7,0.7
	c12.5,4.2,21.7,12.9,30.5,22.3C469.6,163.7,471.1,166.6,472.6,169.6z"/>
<path class="st13" d="M9.1,504c1.5,7.3,1.6,14.6,0,21.9C7.7,518.7,7.7,511.3,9.1,504z"/>
<path class="st14" d="M904.5,624.4c-2.2,2.4-5,1.3-7.5,1.3c-10.7,0.1-21.5,0.1-32.2-1.5c13,0,25.9,0,38.9,0
	C904,624.1,904.3,624.2,904.5,624.4z"/>
<path class="st15" d="M181.9,274.4c-1.1,0-2.1,0.3-2.7,1.4c-4.9-0.9-8.6-3.8-11.9-7.6C172.4,269.8,177.7,270.7,181.9,274.4z"/>
<path class="st16" d="M923,351c3.2-5.7,8.4-9.3,13.7-12.8C933.5,343.9,928.4,347.7,923,351z"/>
<path class="st17" d="M820.9,283.4c0,9,0.1,17.9,0.1,26.9c-0.5-0.9-1.1-1.8-1.6-2.7C820.1,299.5,817.8,291.3,820.9,283.4z"/>
<path class="st18" d="M763.8,206.9c7.5,0.3,15.1-1,22.6,0.7c-4.9,0.3-9.7,0.7-14.6,1.1C769.2,207.7,766.1,209,763.8,206.9z"/>
<path class="st19" d="M272.1,257.2c2.2-0.1,3.9,1.1,5.5,2.5c0.6,1.8,0.8,3.4-1.5,4.1C272.9,262.7,271.1,260.8,272.1,257.2z"/>
<path class="st20" d="M179.4,69c-0.4-0.4-0.9-0.8-1.3-1.3c5.3,0.1,10.8-2,16,1.1c-0.3,0.2-0.6,0.4-1,0.6
	C188.5,69.4,183.9,70.1,179.4,69z"/>
<path class="st21" d="M138.3,90c0,2.3-1,4-2.7,5.4c0.3-3.4-3.3-0.4-3.9-2.4C133.7,91.7,135.7,90.1,138.3,90z"/>
<path class="st22" d="M367.7,152.6c-1.3,1.4-2.7,2.8-4,4.3c0.4-1.8-2.4-3.7-0.2-5.3C364.9,150.6,366.4,152.1,367.7,152.6z"/>
<path class="st23" d="M841,131c-2.4-2.6-2.9-5.6-1.9-8.9C840.5,124.9,841.2,127.9,841,131z"/>
<path class="st24" d="M522.5,127.6c3.3,1.7,2.7,4.8,2.8,7.6c-0.8-1.3-1.6-2.6-2.4-3.9C522.7,130,522.6,128.8,522.5,127.6z"/>
<path class="st25" d="M300.1,186.9c-2.3-2.5-1.9-5.2-0.4-7.9c0.2,0.4,0.3,0.8,0.4,1.2C300.1,182.5,300.1,184.7,300.1,186.9z"/>
<path class="st26" d="M200.5,69.1c0,0.4,0,0.8,0,1.3c-2.2,0.9-4.4,1-6.6-0.1l0,0c-0.4-0.3-0.6-0.6-0.5-0.9c0.1-0.3,0.2-0.5,0.4-0.5
	c0,0,0.2,0,0.2,0C196.2,69,198.4,68,200.5,69.1z"/>
<path class="st27" d="M794.6,205.6c-0.4-0.1-1-0.1-1.2-0.4c-0.5-0.8,0.1-1,0.7-1c1.5,0,3,0,4.6,0
	C797.6,205.6,796.1,205.6,794.6,205.6z"/>
<path class="st28" d="M871.2,231.9c0.4,0.1,1,0.1,1.2,0.3c0.8,0.7,0.1,1-0.5,1c-1.5,0.1-3,0.4-4.3-0.7
	C868.8,232.4,870,232.1,871.2,231.9z"/>
<path class="st29" d="M262.4,248.2c2.6-0.3,4.1,0.9,4.4,3.5C264.9,251,263.4,249.8,262.4,248.2z"/>
<path class="st6" d="M238.7,365.9c0.6-2.6,1.1-5.2,1.7-7.9c3.7-1.1,7.5-0.9,11.2-0.9c92.1-0.1,184.3-0.1,276.4,0
	c1.5,0,3.1,0,4.6,0.2c7.2,1.2,11.7,5.4,14.2,12.2c18.3,50.2,36.4,100.4,54.3,150.7c2.2,6.2,4.5,12.4,6.7,18.7
	c1.4,4,1.5,7.8-1.6,11.1c-4.3,3-9.1,1.9-13.8,2.1c-7.9,0.2-15.8,0.2-23.7,0.1c-2.4,0-4.8,0-7-1.4c-2.3-3.5-0.4-4.1,2.7-4.1
	c8.1,0.2,16.1,0,23.4,0.1c1.7-0.2,0.5-1.5,0.9-0.7c-11.9,1.9-24.3-1.4-35.9,3.6c-9.2-0.9-18.4-0.2-27.6-0.4
	c-2.6-0.1-5.3,0.1-7.8-0.7c-3.1-2-6.6-1.9-10.1-2c-11.8-0.4-23.7,1-35.4-0.8c-2-1.1-2.7-3.1-2.4-5.1c0.8-7.5-2.8-14.7-0.9-22.3
	c0.8-3-1.1-4.6-3.9-5c-3.9-0.5-5-3-6.2-6.5c-1.9-5.4-5.4-10.1-7.5-15.5c-1.6-2.5-4.1-2.1-6.5-2.1c-2.4,0-4.8-0.5-6.9-1.6
	c-6.4-1.8-12.9-0.4-19.3-0.8c-5.6,0.2-11.2-0.6-16.8,0.5c-3.5,3.2-3.7,7.9-5.5,11.9c-1.1,7.3-4.5,13.9-5.9,21.1
	c-0.9,2.8-1.9,5.6-2.7,8.5c-1,3.3-1.8,6.6-2.5,9.9c-1,3.3-1.3,6.9-5.1,8.4c-15.2,1.2-30.4,0.2-45.6,0.6c-6.4,0.1-12.8-0.4-19.2,0.4
	c-1.4,0.6-2.9,0.9-4.3,1.2c-6.7-0.5-9.2-5.6-11-10.8c-10.5-28.8-20.8-57.7-31.2-86.5c-3.2-8.4-5.8-17.1-9.3-25.5
	c-6-17.4-12.5-34.7-18.6-52.1C239.4,372,237.7,369.2,238.7,365.9z"/>
<path class="st5" d="M752,399.1c10.5,5,21.3,9.1,31.5,14.9c7.2,4.1,14,8.8,20.2,14.3c4.4,1.6,6.5,5.2,8,9.4
	c7.5,9.3,10.1,20.7,14.3,31.5c2.7,6.9,4.8,14,7.1,21c1,8.3,3.9,16.2,5.8,24.3c3,12.6,5.9,25.2,7.8,38.1c0.1,0.7,0.1,1.3-0.1,2
	c-5.5,7.8-13.1,12.7-21.7,16.3c-0.6,0.1-1.2,0-1.9-0.2c-3.8-2.3-7.3-3.4-9.6,2c-3.9,1.6-7.9,2.1-12,2.1c-0.7,0-1.4,0-2.1,0
	c-3.2,0-6.4,0-9.7,0c-0.7,0-1.4-0.1-2.2-0.1c-6-0.7-8.5-4.5-9.3-10.2c-1.3-9.2-3.3-18.2-5-27.3c-2.6-14-8.6-26.8-14.4-39.6
	c-1.2-3.1-2.1-6.3-3.4-9.4c1.6,3.7,2.4,7.6,3.3,11.4c1.4,13.5,3.6,27,3.2,40.7c-0.1,6-1.7,11.1-5.4,15.8c-5.6,7.2-12,13.4-20.5,19
	c7.7-0.6,14.4-2.2,21.2-1.5c2.2,1.3,3.4,3.4,2.3,5.6c-1.9,3.7-6.1,2-9.2,2.8c-0.8,0.3,0.7,0.9,0.2,0.2c3.2-1,6.5-0.3,9.7-1
	c1.1,0.1,2.1,0.5,2.7,1.6c-0.6,2.1-2.5,2.3-4.2,2.6c-21.7,3.6-43.4,7.2-65.2,10.7c-18.5,3-35.9,0.1-52.8-7.4
	c-5.8-2.6-11.8-4.9-18-6.5c-1.1-0.5-1.9-1.2-2.5-2.2c-1.3-2.8,0.5-5.5,0.1-8c-0.7,1.1,0.8,3.4-1.7,4c-2.2-1.4-2.4-3.7-2.3-5.8
	c0.4-9.2-1.6-18.3-1.5-27.5c0.3-4.1-0.1-8.2-1.4-12.1c0-0.7,0-1.4,0.2-2.1c2.9-5.8,0.3-11.7,0.1-17.5c-0.3-8.4-1.6-16.8-2.4-25.2
	c-0.7-0.8-1.7,0.6-1,0.1c0.3-0.2,0.5-0.1,0.6,0.2c1.7,5.5,1.5,11.2,0.9,16.7c-0.3,2.6-1.9,5-5.3,4.6c-2.1-1.2-3-3.2-3.7-5.3
	c-5.3-16.1-11.7-31.8-17.1-47.9c-0.7-2.2-1.9-4.5-0.7-7c5.1-5.7,8.9-12.3,14.7-17.6c11.1-10.3,24.5-16.3,38.2-21.5
	c9.3-3.5,16.1-10.4,24-15.7c0.2,0.2,0.4,0.4,0.6,0.7c0.3,0.8,0.3,1.7,0,2.5c-0.6,1.2-1.5,2.3-1.9,3.7c-0.4,2.6,0.2,5.1,0.3,7.7
	c0.1,2,1,3.8,1.8,5.6c0.5,1.3,0.9,2.7,1.4,4c0.4,1.3,0.8,2.7,1.5,3.9c0.8,1.6,1.8,2.9,2.7,4.5c3.4,6,5.2,6.7,10.4,2.2
	c10.2-9,23.3-14.9,30.5-27.3c5.5-7.4,6.2-12.6,2.6-17.8c-0.2-1-0.1-1.9,0.9-2.5c0.3,0,0.7,0,1-0.1c0.5-0.5,1-0.5,1.3,0.2
	C724.2,391.7,739.2,393.4,752,399.1z"/>
<path class="st1" d="M238.7,365.9c7.2,20.2,14.4,40.4,21.7,60.5c-0.3,3.8-2.7,1.9-4,1.2c-3-1.5-5.4-3.8-7.9-5.9
	c-18-15.7-38.6-27.6-57.2-37.6c27.6,18.3,53.9,42,78.3,67.9c10,27.5,20,55,30.1,82.5c2.1,5.8,2.9,12.9,10.9,14.4
	c0.2,0.3,0.4,0.5,0.6,0.8c0.2,0.6,0.4,1.2,0.5,1.8c12.2-1,24.3,0.3,36.5-0.7c0.7-0.1,1.4,0,2,0.3c6.7,10.9,16.1,20.2,20.3,32.7
	c-0.5,9.6-5.6,18-7.5,27.3c-0.4,2.5-0.6,4.9,0.8,7.2c0.6,1.2,1,2.3,0.4,3.6c-0.6,0.4-1.3,0.8-1.9,1.2c-23.8-1.9-44.7-12.1-65.4-23
	c-4.8-2.6-9.9-4.9-14.4-8.1c-1.9-1.2-3.9-2.2-5.8-3.3c-6.7-4.5-13.7-8.7-20.2-13.6c-7.7-6.7-15-14-22.2-21.3c-2-2-4.3-3.8-4.3-7
	c0.4-3.4,2.9-5.3,5.5-7c2-1.3,4.2-2.3,6.5-3.3c14.7-6.6,17.1-13,10.2-27.5c-1-2.2-2.1-4.4-3.2-6.5c-4.3-8.5-4.9-16.8,0.9-25
	c0.5-0.7-0.1,0.2,0.3-0.6c9.3-16.1,2.1-31.1-16.6-34.3c-7.6-1.3-14.2,5-15.1,14.7c-0.8,9.3-0.2,18.5,1.7,27.6
	c1.4,7.1,0.9,14-1.8,20.8c-1.2,2.9-2.4,5.7-4.6,8c-1.8,1.1-2.5,4.5-5.7,3c-1.7-2.5-1.1-5.3-1.3-8.1c-0.2-2.5,0.5-5.2-1.9-7.1
	c-3.4-2.7-6-6.2-6.7-10.3c-1.4-8.2-4.9-14.9-12.2-19.2c-9.6-26-19-52-29-77.9c-6.4-16.6-15-31.8-27.9-44.5c-0.7-0.7-1.3-1.6-2.8-3.4
	C165.4,347.8,202.6,354,238.7,365.9z"/>
<path class="st30" d="M663.1,390c-3.7-0.5-7.4-0.5-11,0.6c-5,1.5-9.2,0-12.3-4c-6.1-8-11.5-16.4-15.9-25.5c-2-4.1-1.7-8.5-2.1-12.9
	c-0.5-1-1.2-2-1.1-3c0.5-10.1-2.3-19.8-4-29.6c0.8-2.7-1.2-4.6-2.3-6.7c0.5-1.7,0.2-3.5,0.6-5.2c1.3-6.8,2.5-7.6,9.1-5.7
	c2.4,0.7,5.2,2.5,5.4-2.3c0.1-1.6,1.6-2.2,3-1.7c6.9,2.7,14.6,2.6,21.4,5.8c2,2.7-2.2,3-2,5c4.1-0.2,8-2.3,12.2-1.2
	c1,0.2,1.9,0.6,2.8,0.9c0.8,0.3-0.2,0.6,0.5,0.2c0.6-0.4-0.5-0.3-0.7-0.7c-3.2-2.4-7.4-0.7-10.7-2.7c-2.2-2.4-5.3-4-6.4-7.3
	c-0.8-2.6-0.2-4.8,2.9-4.2c12.8,2.3,26.3,1.7,37.6,9.9c2.4,2.7,4.2,5.7,4.8,9.3c0.1,3.2-1.6,5.9-2.5,8.8c-3.8,12.8-0.8,24,7.7,31.3
	c3.4,2.9,8.2,1.8,11.1,5.1c-0.2,1.3-0.4,2.5-0.6,3.8c-6.8,13.9-19.4,20.9-32.8,26.8c-4.2,1.8-8.5,3.4-12.8,5.2
	C664.4,390.3,663.7,390.3,663.1,390z"/>
<path class="st31" d="M186.1,614.9c-0.4,0.6,0.2,2.5-1.8,1.2c-13.4-8.4-26-17.9-38.1-28.1c-18.3-15.4-35.1-33-59.4-39.1
	c-1.1-0.3-2.5-0.4-2.2-1.8c0.2-0.9,1.3-1.8,2.2-2.3c15.3-7.7,30.9-14.8,47.3-19.8c12.8-3.9,25.6-7.6,39-9.1c3.6-0.4,7.8-2,8.9,3.7
	c4.3,6.8,9.5,13,13.7,19.8c3,5,6.7,10.6,1.9,16.8c-2.9,1.2-5.7,0.2-8.4-0.4c-13.4-2.8-26.9-5.1-40.6-6.2
	c-10.7-0.9-21.4-1.5-30.5-1.5c-2.5,0.4-1.5,1.7-1.8,0.9c-0.1-0.3,0-0.4,0.3-0.5c9-0.8,17.9,0.2,26.9,1c14.3,1.4,28.3,4.6,42.3,7.8
	c2.1,0.5,7.3,0.7,2.5,5.1c-4.4,2.8-6.8,6.4-4.9,11.8c0.4,1.6,0.5,3.2,0.6,4.8c0,1.9,0.1,3.9,0.8,5.7c0.4,1.6,0.5,3.2,0.6,4.9
	c0,1.9,0.1,3.9,0.8,5.7c0.4,1.6,0.5,3.2,0.6,4.9c0,2,0.1,3.9,0.8,5.8c0.4,1.7,0.5,3.3,0.5,5C187.4,612.6,187.2,613.9,186.1,614.9z"
	/>
<path class="st32" d="M689.5,301.2c-8.1-5.6-17.6-6.4-26.8-8c-4-0.7-8.1-1.2-12.2-1.9c0.2,4.5,4.3,6.2,5.8,9.5
	c-0.7,0.8-1.5,1-2.3,0.1c-7.6-2.2-15.8-1.9-22.7-6c-2.6,2.1,1.1,4.3-0.4,6.2c-0.2,0.1-0.4,0.3-0.5,0.3c-4.2,0-8.3-3.9-11.7-2.8
	c-3.4,1.1-0.7,7.6-4.2,10.4c-10.2-18-10.3-20.2-2.1-46.8c-3.2-2.4-7.5,1.7-10.6-1.5c12.3-13,26.1-23.1,45.3-22.2
	c5.1,0.2,7.8-1.5,7.1-7.3c-0.4-2.9-0.7-6.1,1.1-9.7c7.8,7.2,13.4,16.6,24,19.8c5.4,3.1,10.1,6.7,11.2,13.3
	c2.8,12.1,3.3,24.4,2.4,36.7C692.5,294.8,692.4,298.5,689.5,301.2z"/>
<path class="st33" d="M585,446.8c7.1,19.9,14.3,39.7,21.4,59.6c5.2,6.6,8.2,14,8,22.5c-0.1,0.4-0.2,0.8-0.2,1.2
	c1.5,3.8,0.7,7.8,1.3,11.6c-1.3,6.2-3.3,7.7-9.3,7c3.4-7.5-1.6-13.7-3.7-20c-7.1-21.3-15.2-42.2-22.9-63.3
	c-11.8-32.5-23.5-64.9-35.1-97.4c-1.8-4.9-5.6-7-9.8-8.9c1.7-4.2,5.6-4.6,9.1-4.6c3.1,0,1.6,3.6,2.9,5.8c0.3-3.6,0.4-7.5,5.1-3.8
	c6.7,13.5,10.5,28,15.9,41.9c4.3,11.1,8,22.4,11.9,33.7c-0.1,1.9-0.3,3.8,1.6,5C582.5,440.4,583.8,443.6,585,446.8z"/>
<path class="st34" d="M551.7,356.7c-1.6,0-4.3-1.9-3.7,2.1c0.2,1.4,3.7,3.5-0.4,4.2c-2.5,0.4-4-2.6-3.7-3.8c1.3-5.8-1.1-4.2-3.8-2.1
	c-1.6,1.2-4.1,0.2-5.4,2.1c-94.8,0-189.6,0.1-284.3-0.1c-3.2,0-6.9,2.1-9.9-1.1c0.5-2.4,1.6-4.2,3.9-5.2c3-0.1,5.7-2,8.9-1.5
	c94,0,188.1,0,282.1,0c3.7,0,7.4,0.5,11.2,0.3C548.9,352.6,550.9,354,551.7,356.7z"/>
<path class="st35" d="M244.5,131.2c7.7,3.1,9.4,11.5,14.9,16.6c11.9,11.3,6.9,25.2,5.4,38.4c-0.6,5.6,0,9.7,3.8,14.4
	c7.8,9.5,16.6,18.2,25,27.1c0.7,9.6-4.9,16.7-9.5,24.1c-3.5,0-4.5-3.1-6.1-5.2c-7.1-9-13.2-18.7-20-27.8
	c-2.3-7.2-12.3-11.8-8.8-20.5c2.9-7.1,3.8-14.8,7-21.7c0.6-3.7,6.4-5.9,3.1-10.7c-1-2.7-3-4.2-5.9-4.2c-3.9-1.3-8.5,0.1-12.1-2.8
	c-1.5-2.6-1.5-5,0.7-7.1c1.6-0.9,3.3-1.1,5-1c1,0.2,2,0.2,3,0.3c-0.7-0.8-1.8-0.2-2.6-0.6c-2.5-0.8-4.3-2.3-4.7-5
	c-0.3-2.2-0.2-4.5-0.2-6.7C243.2,136.3,242.1,133.3,244.5,131.2z"/>
<path class="st36" d="M688.5,253.2c-1.3-5.4-6.8-7.5-9.4-11.8c9.4-0.9,16.4,4.4,23.8,8.8c11.5,10.3,14.9,24.1,16.4,38.5
	c0.5,5.2,0.3,10.5,1.4,15.7c-0.9,1.9-2.8,1.8-4.5,2.2c-9.8,2.4-14.8,8.3-16.2,19c-1.2,9.1,3.1,17.7,11.1,22.1
	c2.4,1.3,5.6,1.8,6.6,4.9c-1.8,1.8-4.3,1-6.5,1.6c-18,0.9-25.7-19.9-20.9-36.1c0.9-3.1,2.2-6.2,3.3-9.3c10.5-9.8,3.9-21.5,2.8-32.2
	C695.6,268.6,692.1,260.7,688.5,253.2z"/>
<path class="st6" d="M186.1,614.9c0-1.3,0.1-2.6,0.1-3.8c0.8-1.6,0.5-3.3,0.4-5c-0.1-1.6-0.5,0.6-0.8,0c-1-1.8-1.2-3.7-0.9-5.7
	c1.1-1.7,0.3-3.6,0.6-5.5c0.1-0.6-0.4,0.8-1,0.5c-1.1-1.7-1.1-3.7-1-5.6c1.2-1.8,0.4-3.8,0.6-5.7c0.1-0.5-0.1-0.9-0.4-1.1
	c0.6,0.9,0.2,1.4-0.5,1.9c-0.9-1.8-1.2-3.8-0.9-5.8c0.3-1.7,1.6-3.4-0.4-4.9c-2.4-5.5-0.8-9.6,4.3-12.5c0.2,0.1,0.5,0.2,0.7,0.3
	c0.5,0.3,1,0.5,1.5,0.7c3.4,0.6,6.7,0.5,9.9-0.6c0.6-0.2,1.3-0.3,2-0.4c2.5-0.1,5-0.4,7.1,1.2c0.4,0.6,0.7,1.3,0.7,2.1
	c0.3,18.9,2.1,37.6,7.2,55.8c0.2,0.7,0.1,1.3-0.1,1.9c-8.3-0.4-16.6,1.5-24.8-1.1C187.7,620.3,187.1,617.5,186.1,614.9z"/>
<path class="st37" d="M197.6,555.5c0.9-7.8-1.9-14.2-6.9-19.9c-4.1-4.7-8-9.4-8.9-15.9c0.8-11.6,1-23-4.6-33.9
	c-2-3.8-1.8-8.7,3.2-11.3c12.7-2.6,19.8,5.5,16.6,19c-0.7,1.5-1.4,3-2.9,4c-2.6,0.2-3.2-1.5-3.4-3.6c-0.4-1.6-1.1-3.2-1.5-4.7
	c-0.3-0.7,0.8-0.7,0-0.3c-0.6,0.3,0.3,0.6,0.2,1.1c0.4,1.4,1,2.7,1.3,4.1c-0.7,4.7,3.3,7.8,4,12c0.4,2.5,2,4.9,1.4,7.6
	c-1.2,2.3-2.5,0.3-3.5,0.4c1.1,1.2,3.6,1,4.8,2.8c0.9,1.3,1.5,2.7,2,4.3c0.6,4,3.4,7.4,3.4,11.6c-2.1,1.4-2.1,1.4-5.1,0.2
	c1.7,1.7,3.9,1.8,5.6,2.8c4,4,4.2,9.2,4.5,14.3c0,1.1,0.1,2.2-0.1,3.2c-1,4.1,0.4,6.2,4.9,6c1.5-0.1,3,0.3,4.2,1.4
	c0.3,0.7,0.3,1.3-0.2,1.9c-1.9,1.4-4.1,1.3-6.2,1.2c-3.1-1.1-6.2-1.1-9.4-1c-0.7,0-1.4-0.2-2-0.6
	C196.9,560.2,196.1,558.1,197.6,555.5z"/>
<path class="st32" d="M720.4,304.8c-1.3-1.7-2.9-3.2-2.7-5.8c1.4-18.2-4.6-34.2-14.8-48.8c11.1,2.5,20,8.4,27.2,17.2
	c2.5,3,5,6.1,7.4,9.2c1.5,1.9,1.5,3.2-1.4,3.1c-3-1.1-3.8,0-2.7,2.9c0.7,9.5,0.6,18.9-3.9,27.7C725.3,310.2,722.9,307.4,720.4,304.8
	z"/>
<path class="st38" d="M546.4,351.7c-1.9,1.7-4.2,1-6.4,1c-96.4,0-192.8,0-289.2,0c-0.7-0.9-2.1-0.3-2.8-1.4c2.6-1.7,5.6-1.1,8.4-1.1
	c93.7,0,187.3,0,281,0C540.5,350.1,543.6,350.1,546.4,351.7z"/>
<path class="st39" d="M720.4,304.8c3.8,0.5,6.1,3.5,9,5.4c1.8,3.8,5.4,7,4.1,11.9c1.6,3.9-0.3,8.1,1.1,12c-1.9,9.7-6.3,17.1-17,18.7
	c-6.3-3-12.9-5.2-16.6-12c-6.4-12-2.2-29.2,9.7-34.5C714,304.8,717.2,305.1,720.4,304.8z"/>
<path class="st40" d="M664.6,389.8c4.2-4.6,10.4-4.9,15.7-7.3c12.1-5.6,22-13.9,30.3-24.3c0.7,7,1.3,14,2,21.1
	c0,0.9,0.1,1.7,0.1,2.6c1.6,2.8,1.7,5.6-0.2,8.4c-4.3,2.5-9,1.2-13.5,1.5c-6.3,0.4-12.7-0.6-18.9,0.7c-2.6,0.6-5.2,0.7-7.8,0.2
	c-2.3-0.7-4.8-0.9-7-2C665.1,390.3,664.8,390,664.6,389.8z"/>
<path class="st41" d="M195.2,493.2c2.7-7.9,0.9-14.6-5-17.6c-1.9-1-4.1-3.8-6.2,0.4c-0.6,1.3-2.3-1.4-3.7-1.6c1.4-1.8,3.6-2,5.6-2.6
	c7.4,1.4,11.1,6.1,12.3,13.3c1,5.6,2.6,11,7.5,14.7c4,5,1.3,10.9,2.2,16.3c0.8,2.4,1.3,4.9,2.4,7.2c2.8,5.1,4.7,10.4,3.9,16.4
	c-0.5,3.4-1.4,6.5-4.8,8.1c-1.7,0-1.9-1.4-2.5-2.6c-1.9-4-0.3-8.8-3-12.4c-3-4-3.7-8.7-5.4-13.1c-1.2-3,0.3-5.4,1.8-7.8
	c1.5-1.3,0.7-2.3-0.4-3.4c3.6-5.6,0.7-9.5-3.3-13.2C195.9,494.8,195.7,493.9,195.2,493.2z"/>
<path class="st42" d="M616.6,315.7c6.4,10.1,5.6,21.4,5.2,32.6c-4.9-3-6.6-7.7-7.4-13.1c0.7-4.3,0.8-8.7,0-13
	C614.5,319.9,614.9,317.6,616.6,315.7z"/>
<path class="st43" d="M259,218.6c7.6,7.9,12.2,18,19.4,26.2c2,2.3,3.8,4.8,5.6,7.2c-0.8,0.9-1.6,1.8-2.3,2.8
	c-9.1-12.4-18.1-24.8-27.2-37.2C256.5,216.2,257.5,218.4,259,218.6z"/>
<path class="st44" d="M596.7,177.4c-7.8,0-15.7,0-23.5,0c0-0.2,0-0.4,0-0.7c7.8,0,15.6,0,23.4,0
	C596.6,176.9,596.6,177.1,596.7,177.4z"/>
<path class="st45" d="M427.1,270.2c-7.8,0-15.7,0-23.5,0c0-0.2,0-0.4,0-0.6c7.8,0,15.7,0,23.5,0C427.1,269.8,427.1,270,427.1,270.2z
	"/>
<path class="st46" d="M714.9,379.3c-0.4,0-0.9-0.1-1.3-0.2c0-7,0-13.9,0-20.9c0.4,0,0.8,0,1.3,0
	C714.9,365.2,714.9,372.3,714.9,379.3z"/>
<path class="st47" d="M363.6,244c3.1,2.2,5.9,4.6,7.7,8C367.5,250.5,364.6,248.1,363.6,244z"/>
<path class="st48" d="M614.4,322.3c1.8,4.3,1.8,8.7,0,13C613.6,331,613.4,326.6,614.4,322.3z"/>
<path class="st49" d="M734.6,334c-2.3-3.8-0.6-8-1.1-12C736.5,325.8,734.7,330,734.6,334z"/>
<path class="st50" d="M581.2,437.2c-2.8-0.7-3.1-1.6-1.6-5C580.1,433.9,580.7,435.6,581.2,437.2z"/>
<path class="st51" d="M248.1,351.3c1.1,0.1,2.2,0.3,2.8,1.4c-2.2-0.9-4.3,2.2-6.5,0.2C245.4,351.9,246.6,351.2,248.1,351.3z"/>
<path class="st52" d="M733.4,282.5c-1-1-1.7-2.3-0.6-3.5c1.1-1.2,2.4-0.4,3.4,0.6C734.4,279.8,733.6,280.9,733.4,282.5z"/>
<path class="st53" d="M663.1,390c0.5-0.1,1-0.2,1.5-0.3c0,0,0,0,0,0c0.6,0.7,1.1,1.5,1.2,2.5c0.1,0.9-0.1,1.8-0.6,2.6
	c-0.4,0.5-0.9,0.7-1.5,0.7c-1.4-0.4-0.7-2.1-1.8-2.7c0.1-0.3,0.1-0.5,0.1-0.8C662.4,391.4,662.7,390.7,663.1,390z"/>
<path class="st31" d="M849,527.7c3.5-0.9,6.9,0.1,10.2,1.1c21.6,6.4,42.5,14.2,62.2,25.2c5.3,3,9.8,7.2,16.6,9.4
	c-5.3,3.6-10.3,3.4-14.7,5.1c-13.5,5.2-25.3,13.2-36.9,21.6c-9.6,7-19.4,13.6-29.1,20.5c-1.6,1.1-1.7,0.6-1.9-0.7
	c-1.2-1.2-1.4-2.7-1.3-4.3c1.3-8.4-0.5-16.6-1.9-24.8c-0.7-4.3-2.4-8.5-1.9-13c0.6-2.2,2.3-3.2,4.4-3.4c15.1-1.8,30.3-3.3,45.6-1.5
	c-3.3-0.3-6.6-0.9-10-0.9c-3.7,0.1-7.5,0-11.2,0.2c-9.6,0.6-19.3,1-29-0.2c-3.4-1.5-4.7-4.1-3.9-7.7l-0.1-0.6
	c1.1-3.6,4.6-5.3,6.5-8.3c1.2-2,0.4-3.9-0.3-5.7C851.2,535.8,847.9,532.3,849,527.7z"/>
<path class="st54" d="M855.3,606c0,1.3,0.1,2.7,0.1,4c-2.1,4.9-4.9,9.4-8.8,13.1c-29.3,0-58.6,0-87.9,0c-2.5,1.2-5,0.2-7.5-0.2
	c-5.2-1.4-10.6,0.1-15.7-1.2c-10.3-1.5-20.7-0.3-31-0.7c-5.1-0.2-10.1,0.3-15.2-0.4c-3.7-1.7-8.1,0-11.6-2.7
	c-0.3-0.9-0.1-1.6,0.6-2.2c8.4-2.6,17.1-0.5,25.7-1.3c3.3-0.2,6.5-0.1,9.8,0.5c1.9,0.5,3.8,0.9,5.9,0.9c23.8-0.6,47.5,1.3,71.2,1.2
	c9.4-0.1,18.9-0.7,28.2-2.1c3.5-1.7,7.3-1.9,11-2.1C839,612.5,846.7,607.8,855.3,606z"/>
<path class="st55" d="M849,527.7c1.6,4,3.1,8,4.7,12c-0.4,2.2,0.3,4.3,0.2,6.5c-2,3.2-5.1,5.2-7.8,7.6c-3.7-3.6-1.9-8.5-3-12.7
	c-3.7-14.6-6.8-29.4-10.5-44.1c-0.6-2.6-0.7-4.7,0.4-6.9c5.8,11.2,10.6,22.9,14.7,34.9C848.2,525.9,848.6,526.8,849,527.7z"/>
<path class="st56" d="M811.7,437.7c-2.7-3.1-5.3-6.2-8-9.4c8.9-5.6,17.6-11.3,26.6-16.7c13.6-8.1,27-16.5,42-21.9
	c2.3-0.8,4.6-1.5,7.1-1.3c-4.4,5.1-10.7,7.5-16.3,10.8c-17.3,10.3-32.8,23-49.2,34.5C812.5,434.8,811.8,436,811.7,437.7z"/>
<path class="st56" d="M879.3,388.5c1.3-2.2,2.8-2.9,5-3.2C883.7,388.6,881.5,388.4,879.3,388.5z"/>
<path class="st57" d="M868.3,263.9c0-4.5,0.9-7.7,6.7-6.9c2.8,0.4,4.2,0.9,4.5,4.1c0.6,5.8,5.6,7.9,10.1,4.3
	c3.2-2.5,4.9-1.4,7.2,0.8c2.5,2.4,2.9,4.2,0.4,7.2c-3.6,4.2-1.2,9.4,4.6,9.9c3.9,0.3,4.1,2.3,4.1,5.2c0,3,0.2,5.5-4.2,5.8
	c-6.1,0.5-8,5.1-4,9.8c2.8,3.4,0.9,5-1.2,7.2c-1.9,2-3.4,3.6-6.5,1c-4.9-4.1-9.5-2.2-10.4,4.3c-0.5,3.8-2.7,4-5.5,4
	c-2.9,0-5-0.3-5.4-4.1c-0.8-6.3-5.4-8.3-10.2-4.3c-3.6,3-5,0.3-7-1.5c-2.2-2-3.4-3.5-0.7-6.5c3.9-4.3,1.9-9.3-4.1-9.9
	c-4.2-0.5-4.3-2.7-4.4-5.8c-0.2-3.6,0.9-5,4.8-5.2c4.8-0.2,7.5-6,4.4-9.4c-3.2-3.4-2.2-5.5,0.5-8.2c3-3.1,5.3-2.2,7.7,0.5
	c1.1,1.2,2.4,2.1,3.9,0.5C864.9,265.4,867.2,265.6,868.3,263.9z"/>
<path class="st58" d="M928.7,323.2c2.5,3.8-0.1,5.4-2.9,4.3c-3.6-1.5-4.7-0.7-5.7,2.5c-0.6,1.9-3.7,1.6-3.7,1.3
	c-0.2-7.8-12,0.5-11-7.8c0.4-3.3,0.2-4.5-2.9-5.9c-2.5-1.1-2.7-3.7,0.2-4.9c2.8-1.2,4-2.5,2.6-5.4c-0.2-0.4-0.4-0.8-0.4-1.2
	c0-1.5,1.9-3.1,2-3c5.3,5.6,8.2-8.9,13.3-1.6c1.5,2.2,2.7,3.4,5.1,1.7c1.7-1.3,2.9-0.3,4,0.9c1.5,1.6,1,2.7-0.8,3.6
	c-0.3,0-0.6-0.1-0.9-0.1c-3-0.3-5.9,0.1-8.8-1.7c-3.2-2.1-6.6,0.9-8.6,2.6c-1.7,1.5-3.8,4.8-2.7,8.2c2.3,6.9,6.3,9,13.5,7
	c1.9-0.5,3.9,0,5.9-0.3C927.6,323.3,928.2,323.3,928.7,323.2z"/>
<path class="st58" d="M928.6,307.7c4.8,5.1,4.2,10.3,0.2,15.5c0,0-0.4,0.3-0.4,0.3c-1.9,0.3-2.7-1.8-2.2-2.3c4.3-4.4-2.7-9.4,1-13.7
	c0.3-0.3,0.8-0.2,1.2-0.1L928.6,307.7z"/>
<path class="st59" d="M868.3,263.9c-0.6,2.7-2.9,2.3-4.8,2.9C864.5,264.7,866.4,264.3,868.3,263.9z"/>
<path class="st60" d="M452.2,221.3c0,4.6-3,5.4-6.6,5.4c-20.7,0-41.4,0-62.1,0c-4.7,0-7.8-2-7.8-6.9c0-13.2,0.3-26.4,0.4-39.6
	c1.9-0.8,2.4,0.3,2.7,1.8c-0.5,11.9,0,23.8-0.3,35.2c9.1-5.8,18.7-11.1,27.7-17.3c4.8-0.1,9.8,2.6,14.6-0.3
	c9.9,4.7,18.3,11.9,27.9,17C450.5,217.7,451.3,219.5,452.2,221.3z"/>
<path class="st61" d="M378,181.7c-0.6-0.5-1.3-0.9-1.9-1.4c0-4.4,2.9-5.4,6.5-5.4c21.1,0,42.1,0,63.2,0c3.7,0,6.5,1.2,6.3,5.6
	c-0.3,0.6-0.5,1.3-1,1.7c-9.8,6.6-19.1,14.2-30.4,18.3c-4.5,4.2-9,3.2-13.4-0.2c-8.1-1.5-13.4-7.8-20.3-11.4
	C383.7,187.1,379.6,185.9,378,181.7z"/>
<path class="st62" d="M420.7,200.4c10.5-6.7,21-13.3,31.4-20c0.7,13.6,0.6,27.2,0,40.9c-8.6-5.6-17.1-11.4-25.8-16.7
	C424.3,203.4,422.5,201.9,420.7,200.4z"/>
<ellipse class="st63" cx="454.4" cy="201.7" rx="0.3" ry="27.7"/>
<path class="st64" d="M364.1,621.9c-0.6-1-1.3-2.1-1.9-3.1c-1.5-2.3,0.2-5.1-1.1-7.5c2.7-9.1,5.3-18.3,8-27.4
	c0.7-2.8-0.1-5.9,1.3-8.6c2.3-6.6,3.8-13.5,6.3-20.1c0.5-1.3,1.1-2.7,1.5-4c0.3-0.8,0.6-1.5,0.9-2.2c0.2-0.5,0.4-1,0.6-1.4
	c0.3-0.4,0.6-0.8,1-1.2c0.9-2.7,1.8-5.3,2.7-8c1.3-2.8,2.5-5.5,3-8.6c0.8-2.7,1.7-5.5,2.7-8.1c1.4-7.4,4.8-14.3,6.3-21.7
	c1.6-3.6,2.1-7.7,4.4-11c0.7-0.2,1.3-0.3,2.1-0.2c7,0.1,14,0.8,20.9-0.5c3.7-0.7,7.6-0.7,11.2-2c1.7,0,3.5-0.6,5.1,0.5
	c2.8,2.4,6.2,1.4,9.2,1c2.9-0.3,2.6,1.2,2.6,3c0.7,2.5-0.1,4.8-0.8,7.1c-11.3,35.5-22.1,71.1-33.6,106.6c-2.1,6.6-2.6,12.7,1.3,18.7
	c-16.3,0.1-32.6,0.1-48.9,0.2C367.3,623.2,365.5,623.1,364.1,621.9z"/>
<path class="st65" d="M606.2,548.8c4.2-0.6,7.3-2.7,9.1-6.6c-0.4-0.7-0.3-1.1,0.5-1.2c1.8,7.8,1.8,15.8,2.3,23.7
	c0.2,3.6-0.7,7.4,1.2,10.9c1.5,0.9,0.1,2.9,1.5,3.8c0.4,0.4,0.8,0.7,1.2,1.1c-2,2.4-4.5,1-6.8,0.8c-9.1-0.8-20.3,2.1-26.7,6.9
	c6.2,5.7,6.2,5.9-1.8,9.8c-3.3,1.6-5.3,3.7-5.1,7.4c-1.8,3-5.4,3.4-7.8,5.5c-2.4,2.1-5.2,4-5.6,7.6c0.1,1.1,0.3,2.3-0.2,3.4
	c-2,2.2-4.5,1-6.8,1c-2.5-2.7-5.8-3.7-9.2-4.4c-7.8-1.8-16-2-23.6-5.1c-2.3-2.2-0.7-3.9,0.9-5.3c2.1-1.9,4.4-3.5,6.4-5.4
	c2.1-1.9,3-4.6,4.4-7c2.8-4.3,7-7.2,10.1-11.2c4-5.2,7.9-10.5,9.8-16.9c1.3-4.1,3.4-7.6,7.3-9.7c2.8-0.5,4.4,1.6,6.1,3.2
	c3.6,3.5,6.3,2.8,9-1.1c2.8-3.9,5.8-7.6,10.5-9.5C597.3,549.6,602,551.2,606.2,548.8z"/>
<path class="st66" d="M282.7,590c19.9,11.7,40.2,22.2,62.6,28.4c5.6,1.5,11.4,2.6,16.9,4.6c-41.6,0.1-83.2,0.1-124.8,0.2
	c-1.5,0-3.1,0.2-4.4-1c0.1-4.3,2.9-8,2.8-12.4c0.1-1.7,0.2-3.3,0.6-4.9c0.6-1.9,0.8-3.8,0.8-5.8c0.1-3-0.1-6,0.3-9
	c0.1-0.7,0.2-1.3,0.4-1.9c1.1-2.8,0.3-5.9,1.5-8.7c0.4-0.9,1.1-1.7,1.8-2.4c2.2-1.7,4.6-1.4,6.9-0.6c9.5,3.3,19.3,6.2,28.1,11.3
	C278.5,588.4,280,590.8,282.7,590z"/>
<path class="st67" d="M417.9,623c-5.7-3.1-6.3-7.8-4.5-13.5c6.7-21.3,13.4-42.7,20.1-64c5.5-17.6,10.9-35.1,16.3-52.7
	c0.2-0.8,0.8-1.5,1.2-2.3c0.8,0.3,2.3,0.5,2.4,0.8c0.6,6,5.9,9.9,6.8,15.5c0.6,3.5,1.3,5.3,5,5c4.9-0.5,7,2.6,5.5,6.4
	c-1.7,4.2-0.4,7.6,0.1,11.5c0.6,5,0.2,10.1,0.2,15.2c-1.1,1.6-2.7,2.3-4.4,3.1c-0.6-0.1-1.2-0.4-1.6-0.9c-1.7-2.5-2.3-5.2-1.8-8.2
	c1.7-3.8-0.8-6.2-2.9-8.7c-2-5.6-4.3-11.2-3.8-17.4c0.2-1.3,0.9-2.5,0.6-3.9c-0.4-2.4-2-4.4-4.2-4.4c-3.2,0-1.6,2.9-1.7,4.6
	c-0.1,1.8-0.1,3.5-0.1,5.3c0,0.9-0.2,1.8-0.5,2.6c-1.5,2-3.5,3.7-2.6,6.7c0.3,8-4.5,14.9-4.7,22.7c5.2,1.6,10.5,0.4,15.7,0.7
	c2.7,0.1,5.3,0.3,7.8,1.1c5.8-1.9,11.8-1.1,17.7-1c10.3,0.2,20.6-1.1,30.9,0.8c0.8,0.4,1.2,1,1.1,1.9c-2.5,3-6,2.2-9.2,2.2
	c-19.2,0.1-38.4,0-57.6,0.1c-8.4,0-9.1,0.6-11.6,8.7c-4.5,14.6-8.8,29.2-13.8,43.5c-0.5,1.5-1.2,2.9-1.7,4.4
	c-0.1,0.5-0.1,1.1-0.1,1.6c0.1,0.8,0.5,1.5,1.1,2.1c1,0.9,2.4,0.9,3.6,1.2c3,1,6.1,0.8,9.2,0.8c22.5,0,45,0,67.5,0
	c7.6,0,9,1.9,7,8.2C479.8,622.9,448.9,622.9,417.9,623z"/>
<path class="st64" d="M238.8,599.2c0.1,2,0.1,4-0.9,5.8c-1-1-1.4-1.9-0.7-2.5c-0.3,2.1-0.4,4.6,0.3,7.3c-0.4,4.5,0,9.3-4.4,12.4
	c-5.9,1.9-12,0.7-18,0.8c-5.6-5.7-4.6-13.3-5.5-20.2c-1.5-10.6-2.6-21.2-3.6-31.8c-0.2-2.1-0.7-4.4,1.3-6.1
	c6.2-2.6,12.9-1.2,19.3-2.1c0.7-0.3,1.3-0.4,2-0.6c3.1-0.4,6.2-0.4,9.3-0.7c2.8,0.6,4.4,2.2,4.6,5.1c-0.5,4.6,0.3,9.4-2.7,13.5
	c-0.3,2.9,0.6,5.9-0.6,8.7l0.1-0.1C237.6,592.2,238.1,595.7,238.8,599.2z"/>
<path class="st68" d="M907.2,636.4c-237.3,0-474.6,0-711.9,0c2-2.1,4.6-1.3,6.9-1.3c232.7,0,465.4,0,698.2,0
	C902.6,635.1,905.2,634.2,907.2,636.4z"/>
<path class="st69" d="M528,611.9c9.5,1.9,18.9,4.1,28.4,5.6c3.5,0.6,5.2,1.8,4.9,5.4c-13.8,0-27.6,0-41.4,0
	c-3.2-2.8-3.4-6.2-2.1-9.9c0.4-0.6,0.9-1.1,1.5-1.4C522.3,610.6,525.2,609.2,528,611.9z"/>
<path class="st70" d="M518.9,612.7c-0.3,3.5,0.1,6.9,1,10.2c-3.1,0-6.1,0-9.2,0c0.9-5.4-1.7-6.6-6.7-6.5
	c-20.6,0.3-41.3,0.1-61.9,0.1c-6.3,0-12.7,0.3-18.9-1.3c1.4-4.4,5.3-3.1,8.2-3.1c20.5-0.2,40.9-0.1,61.4-0.1c3.1,0,6.2,0.1,9.2-0.2
	c0.7-0.3,1.5-0.4,2.2-0.5c1.1-0.1,2.2-0.1,3.2,0.1c3.2,1.1,6.4,0.9,9.6,0.6C517.9,611.9,518.5,612.2,518.9,612.7z"/>
<path class="st71" d="M642.1,623c-22.3,0-44.7,0.1-67,0.1c-1.7,0-3.5,0.2-5-1.2c0.5-0.7,1.2-1.4,2.1-1.5c13.7-0.7,27.4-1.4,41,0.7
	c0.8,0.1,0.9,0.4,0.4,0.5c-0.1,0-0.1-0.4-0.2-0.5c-0.6-0.3-1.2,0-1.8-0.1c-2.1-0.3-2.1-1.3-0.7-2.5c1.8-1.5,4.3-0.7,6.5-1.5
	c-3.4-5.4-9.7-2.9-14.1-5.1c-0.5-4.3,2.7-3.9,5.3-4.3c0.6,0,1.2,0,1.7,0.1c2.2,0.6,4.4,0.5,6.7,0.9c0.5,0.1,1.1,0.3,1.6,0.5
	c1.7,0.9,3.5,1.8,5.4,2.3c4.3,0.8,7.5,4.1,11.6,5.4c2.2,0.1,2.5,4.5,5.7,2.4c1.6-0.1,3.1,0.1,3.8,1.8
	C644.8,622.9,642.9,622.1,642.1,623z"/>
<path class="st72" d="M355.2,625.4c-40.5,0-80.9,0-121.4,0c0-0.2,0-0.4,0-0.7c40.5,0,81.1,0,121.6,0
	C355.3,625,355.3,625.2,355.2,625.4z"/>
<path class="st73" d="M726.9,624.5c-5.8,0-11.5,0-17.3,0c-16.3,1-32.7,1-49,0c-3.5-0.6-7.3,1.2-10.6-1.3c1.8-2.1,4.3-1.7,6.7-1.9
	c1.2,0,2.4,0,3.6,0c14.9-0.2,29.8,0.1,44.6,0c2.8,0,5.6,0,8.4,0c3.9,0,7.9,0,11.8,0c2,0.1,4,0.1,5.6,1.5
	C730.8,626.6,728.6,624.9,726.9,624.5z"/>
<path class="st74" d="M726.9,624.5c1.4-0.1,3,0.2,4-1.3c2-2.5,5.1-1.1,7.5-2c4.6,0.3,9.2-0.8,13.7,0.6c2.3,0,4.6,0,6.7,1.3
	c-0.1,0.9,3.4,2.6-0.3,2.6c-5.7,0-11.5,1.1-17-0.7C736.5,623.4,731.5,628.4,726.9,624.5z"/>
<path class="st75" d="M610.1,620.5c2.6,0,5.1,0,7.7,0c0,0.5,0,1,0,1.5c-15.9,0-31.8,0-47.7,0c-0.7,0-1.3,0-2,0
	c-0.6-1-1.3-1.9-1.9-2.9c3.5-2.6,7.6-2.3,11.5-1.8c8.3,1,16.7,1.3,25,1.2C605.3,618.4,608.1,618.3,610.1,620.5z"/>
<path class="st76" d="M660.6,624.5c16.3,0,32.7,0,49,0c-2.4,2.3-5.4,1.2-8.2,1.3c-11.8,0.4-23.7-0.6-35.5,0.5
	C664.1,626.5,662,626.2,660.6,624.5z"/>
<path class="st77" d="M188.2,625.4c-15.3,0-30.6,0-45.9,0c0-0.2,0-0.4,0-0.7c15.4,0,30.7,0,46.1,0
	C188.3,625,188.2,625.2,188.2,625.4z"/>
<path class="st78" d="M656.7,623.1c-2.2,0-4.4,0.1-6.7,0.1c-0.5-0.1-0.9-0.1-1.4-0.2c-0.4-0.7-0.2-1.3,0.4-1.8c2-1.1,4-1.1,6.1-0.5
	C656.1,621.2,656.9,621.8,656.7,623.1z"/>
<path class="st79" d="M648.5,621.9c0.1,0.4,0.1,0.8,0.1,1.2c-2.2,0-4.3,0-6.5,0c0.5-1,1.4-1.2,2.4-1.2
	C645.9,620.7,647.2,620.7,648.5,621.9z"/>
<path class="st80" d="M549.3,141.6c-0.8-1.8-1.7-3.5-2.5-5.3c0-0.2,0-0.5,0-0.7c1.8-10.9,0.3-22,0.8-32.9c0.2-3.7,0.2-7.5,0.3-11.2
	c2.4-2.1,5.3-1.8,8.2-1.8c19.8,0,39.6,0,59.3,0c2.8,0,5.8-0.3,8.1,1.9c0.1,14.6,0.2,29.2,0.3,43.9c0,2.3-0.4,4.3-1.8,6.1
	c-1.9,2.1-4.5,1.7-6.8,1.7c-19,0-38,0.1-57,0C555.1,143.1,552,143.1,549.3,141.6z"/>
<path class="st81" d="M549,79.2c2.7-4.1,6.9-1.7,10.3-2.3c1.6,0.1,2.9,1.2,4.5,1c1.4-0.1,2.5-0.7,3.8-1c11.9,0,23.8-0.1,35.8-0.1
	c1.5,0.4,3.1,0.8,4.7,0.7c1.3,0,2.5-0.5,3.8-0.6c11.7-0.1,12.5,0.8,11.3,12c-1.1,0.8-2.2,1-3.5,0.8c-19.6-0.7-39.3-0.1-58.9-0.3
	c-3.1,0-6.2,0.3-9.2-0.7c-3.2-1.5-2-4.8-2.7-7.3C548.6,80.7,548.6,79.9,549,79.2z"/>
<path class="st82" d="M620.8,88.8c0.8,0,1.7,0.1,2.5,0.1c0.3,0.4,0.3,0.8,0.1,1.2c-0.9,0.8-2,0.7-3.1,0.7c-23,0-46.1,0-69.1,0
	c-1.1,0-2.2,0-3.1-0.7c-0.1-3.7-1.5-7.5,1.1-10.9c0.1,0.6,0.1,1.2,0.2,1.7c2.1,1.9-1.8,6.6,3.3,7.2c20.6,0,41.2,0,61.8,0
	C616.5,88.2,618.7,87.7,620.8,88.8z"/>
<path class="st83" d="M548,90.1c25.1,0,50.3,0,75.4-0.1c0,0.5,0.1,1,0.1,1.4c-25.2,0-50.4-0.1-75.7-0.1
	C547.7,90.9,547.8,90.5,548,90.1z"/>
<path class="st84" d="M549.3,141.6c24.2,0.9,48.5,0.9,72.7-0.1c-0.4,0.6-0.8,1.2-1.2,1.7c-8.3,1.3-16.6,0.6-24.9,0.5
	c-14.2-0.1-28.4,0.8-42.6-0.5C551.7,143.1,550,143.5,549.3,141.6z"/>
<path class="st85" d="M553.2,143.3c22.5,0,45,0,67.5,0c-1.3,1.6-3.2,1.3-4.9,1.3c-19.3,0-38.5,0-57.8,0
	C556.4,144.5,554.6,144.9,553.2,143.3z"/>
<path class="st86" d="M546.7,135.6c0.2,0.2,0.2,0.5,0,0.7c-0.4,0.4-1.2,2.8-1.3,0.6c-0.4-15.1-0.2-30.2,1.3-45.3
	C546.7,106.2,546.7,120.9,546.7,135.6z"/>
<path class="st87" d="M608.7,78.5c-2.2,0.7-4.7,2.4-5.3-1.7c0.6-3.6,3.2-2.4,5.4-2.2C610,76,610,77.3,608.7,78.5z"/>
<path class="st88" d="M563.7,79.2c-2.2,0.7-4,0.5-4.4-2.3c0.4-2.7,2.1-3.1,4.3-2.4C565.2,76.1,565.2,77.6,563.7,79.2z"/>
<path class="st89" d="M563.7,79.2c0-1.6,0-3.1,0-4.7c2.3-0.8,3.7-0.2,4,2.4C567.4,79.4,566,80.1,563.7,79.2z"/>
<path class="st90" d="M608.7,78.5c0-1.3,0.1-2.6,0.1-3.9c2.2-0.8,2.6,0.8,3.1,2.3C611.4,78.4,611.2,80.7,608.7,78.5z"/>
<path class="st91" d="M742.7,172.6c-13.1-12.7-16.1-33.5-7.2-51.1c8.8-17.5,28.1-27.5,47-24.3c11.3,1.9,21.4,6.3,28,16.3
	c4.8,6.3,7.6,13.5,9.8,21c-0.6,4.9-1.5,9.8,0,14.7c-1.2,6-3.2,11.6-6.7,16.6c-2.2,3-4.2,4.7-5.2-0.7c1.6-4.6,5.8-8.4,5-13.9
	c-0.1-0.8,0-1.7,0.1-2.5c0.3-1.4,0.1-2.6-1.1-3.5c-1.2-1.2-2.9-1.9-3.7-3.5c-0.1-0.6,0.2-1.2,0.6-1.6c1.3-0.9,2.7-0.9,4.2-0.5
	c3-1.5,0.1-2.9-0.1-4.4c-3.5-7.3-5.9-15.1-12.3-20.9c-3.8-3.5-8.9-4.7-12.7-8.2c-1.1-1-2.1-2.2-2.9-3.5c-6.7-2.5-13.4-2.2-20.1,0.1
	c-0.7,0.7-1.4,1.1-2.4,1.3c-3.1,0.3-7.7-1.4-6.6,4.7c-0.6,1.2-1.6,1.8-3,1.8c-2.2-0.9-4.1-0.6-6,0.9c-4.9,4-7.7,9.3-10.1,14.9
	c-1,2.4,0.6,4.1,1.4,6.1c-0.1,3.9,5.2,3.3,5.6,6.7c-1.6,1-3.2,0.5-4.3,0.6c1.5,0.7,3.3-0.2,5.2-0.7c2.4,2.3,2.3,4.6,0.1,6.9
	c-3.5-2.7-8.7-1-11.9-4.5c0.7,1.4-0.6,3.5,1.7,4.3c1.1-0.2,2.2-0.6,3.1,0.5c0.8,1.4,0.8,2.9,0.4,4.5c0.3,1.8-4.7,4.6,1,5.4
	c1.3,0.6,1.5,1.7,1.4,3c-1.6,2.7-0.3,4.9,1.1,7.2C743.2,168.2,745,170.2,742.7,172.6z"/>
<path class="st92" d="M742.7,172.6c0.6-3.5-2.1-5.6-3.8-8c-2.2-3-1-4.3,1.5-5.6c2.5,0,3.1,2.2,4.2,3.7c6.1,8.2,13.8,14,23.6,17.1
	c3.8,1.5,3.4-3.6,6.1-3.8c1.3,0.6,1.7,2.4,3.3,2.5c1.9,1.4,4.1,1.9,6.3,2.7c0.5,0.5,0.8,1,1,1.6c0.1,1.1-0.1,2-0.8,2.9
	c-11.1,3.2-21.1-0.1-30.9-5c-2.4-1.2-4.2-3.1-6.6-4.2C744.8,175.6,743.5,174.4,742.7,172.6z"/>
<path class="st93" d="M809.1,164.4c0.2,3.6,1.6,3.9,3.9,1.3c0.6,0.5,0.7,1.1,0.2,1.7c-1.4,4.1-4.6,6.6-7.9,9
	c-4.9,3.4-10,6.7-15.8,8.3c-1.5-0.7-2.7-1.7-3.5-3.1c-0.7-3.4,2.1-3.9,4.2-4.9c4-1.8,7.9-3.8,10.9-7.1c1.5-1.4,3-2.8,4.2-4.5
	c0.6-0.7,1.3-1.2,2.2-1.3c0.3,0,0.6,0.1,0.9,0.1C808.6,164,808.9,164.2,809.1,164.4z"/>
<path class="st94" d="M789.1,184.2c5.4-2.6,10.8-5.2,16.2-7.8c-14.9,15.2-43.6,15.4-58.8,0c7.4,2.8,13.8,8.2,22.1,8.7
	c5.1,0.3,10.3,1.7,15.3-0.9C785.6,182.9,787.4,182.9,789.1,184.2z"/>
<path class="st95" d="M813.2,167.4c-0.1-0.6-0.1-1.1-0.2-1.7c2.6-5.6,5.6-11.1,6.6-17.3c-1.1-4.4-0.8-8.7,0-13.1
	c-1.8-7.8-6-14.6-9.1-21.8c5.7,4.1,7.9,10.5,9.3,16.8C822.7,143.4,822.6,156.3,813.2,167.4z"/>
<path class="st96" d="M198.1,204.6c-0.4,1.2-0.7,2.4-1.1,3.5c-10,1.8-20.1,1.2-30.2,1.4c-2.9,0-5.7-0.5-8.4-1.3
	c1.2-4.7,2.5-9.3,2.6-14.2c1.7-1.2,1.8-2.9,1-4.5c-2.7-5.5,0.3-4.9,4-3.9c1.6-0.9,3.2-0.2,4.7,0.3c2.1,0.9,3.8,2.3,5.2,4
	C181.7,197.3,190.1,200.6,198.1,204.6z"/>
<path class="st97" d="M60.3,297.9c0-6.5,0-13.1,0-19.6c0.1,0,0.3,0,0.4,0c0,6.5,0,13.1,0,19.6C60.5,297.9,60.4,297.9,60.3,297.9z"/>
<path class="st8" d="M198.1,204.6c-9.1-0.7-15.9-5.6-21.9-12c-1.9-2-4.2-3.8-6.3-5.7c-1.5-1.1-2.8-2.3-3.8-4
	c-2.2-2.6-4.4-5.3-6.6-7.9c-1.8-2-4.9,0.8-6.6-1.7c-6.1-2.8-6.7-9.2-9.2-14.4c-1.3-2.5-1.2-5-0.1-7.5c1.7-2.6,3.5-5.8,6.9-5
	c3.4,0.8,3.7,4.8,4.9,7.6c2.4,4.1,1.3,7.8-1.8,11.4c4.4-1.1,2-5.6,4.4-7.5c0.5,0.4,1,0.9,1.6,1.3c0.6,0.5,1.4,0.6,2,1.2
	c0.2-0.2,0.5,1.3,0.6,0c0.1-0.4-0.1-0.8-0.1-1.2c0-1.4,0-2.9-0.6-4.2c-0.1-1.2-0.2-2.4,0.3-3.5c0-4.2-0.2-8.4,0-12.5
	c0.6-10,0.7-10,11.3-12.5c1-1.3,2.3-0.9,3.5-0.4c4.4-1.2,8.8-2.2,13.1-3.5c3.3-1,5.5-3.2,5.4-7c-0.7-1.7-1.1-3.4,0.3-5
	c4.5,0.9,2.6,5.8,4.9,8c1.7,2.4,3.8,4.3,6.8,4.8c3.7,0.1,7.3,0.6,10.8-1.1c-0.1-0.7-0.1-1.4,0.1-2.2c0.2-0.7,0.5-1.4,1.2-1.7
	c1.4-1.5,0.1-4,2.9-5.9c-1,9.9,5,12.1,12.5,12.4c1.8,1.4,1.6,3.3,1.4,5.2c-1.3,8.3-0.1,16.8-0.7,25.1c-1.2,14.2-6.4,26.8-16.5,37.2
	l0.2-0.1c-1,1.9-1.6,4.1-4.3,4.4C210.4,201.8,205.2,205.1,198.1,204.6z"/>
<path class="st98" d="M218.8,192.1c0-1.9,1.4-3.2,2.3-4.6c9.3-14,14.4-29.1,12.9-46.2c-0.3-3.9-1.1-7.9,0.7-11.7
	c2.1-1.2,0-3.5,1.4-4.9c2.8,2.9,0.8,6.6,1.5,9.9c0.2,1.1,0.6,2.3,1.8,2.4c1.2,0.1,2.3-1.2,1.9-2.1c-2.5-5.6,2.4-10.4,1.7-15.7
	c2,3.5,1.1,7.3,1.1,11c-1.2,3.1-0.3,6.3-0.5,9.4c0,2.2,0,4.4,0,6.6c-0.2,2.1,1.5,4.5-0.9,6.3c-1.8,2-0.4,4.2-0.5,6.3
	c0,0.3-0.1,0.6-0.1,0.9c-1.6,3-1.6,6.1-0.5,9.3c0.3,2.1,0.6,4.3-1.2,6c-2.4,2.4-0.3,5.4-0.9,8.1c-0.7,3.1,2.2,5,2.7,7.7
	c-3.6,6.5-6.7,7.4-13.8,3.7C225.1,193.6,222.2,192,218.8,192.1z"/>
<path class="st99" d="M158,157.8c0,2.4,0,4.9,0,7.3c0,1.7-0.4,3.1-2.4,3.3c-1.9,0.2-3.5,0-4.4-2c-0.7-1.7-0.2-3.4,1.2-4
	c4.6-1.7,2.5-5.4,2.9-8.4C156.3,155.2,157.1,156.5,158,157.8z"/>
<path class="st100" d="M212.5,120.7c-0.6,0-1.3,0-1.9-0.2c-0.5-0.1-1.4-1-0.2-1c7.6,0.5,5.7-5.3,6.3-9.4c0-0.1,0.3-0.3,0.5-0.3
	c0.2,0,0.4,0.1,0.6,0.2c1.2,3.5,0.7,7,0.3,10.5C216.2,121.7,214.3,121.6,212.5,120.7z"/>
<path class="st101" d="M193.8,68.9c0,0.5,0.1,0.9,0.1,1.4c-4.8-0.7-9.9,1.4-14.5-1.2C184.2,69,189,69,193.8,68.9z"/>
<path class="st102" d="M207.1,123.1c-3.9,0.8-7.7,1.3-6.8-4.8c0.5-0.5,1-1.1,1.5-1.6c1,2,0.6,5.1,4,5.2
	C206.2,122.3,206.6,122.7,207.1,123.1z"/>
<path class="st103" d="M160.3,139.3c0,2.5,0,5,0,7.5c-0.2,0-0.3,0-0.5,0.1c0-2.4,0-4.8,0-7.3C160,139.5,160.2,139.4,160.3,139.3z"/>
<path class="st104" d="M217.8,120.6c0-3.5,0-7.1-0.1-10.6c2.3,2.4,0.5,5.5,1.5,8.2c-0.1,0.8-0.3,1.6-0.4,2.4
	C218.5,121.1,218.2,121.1,217.8,120.6z"/>
<path class="st105" d="M143.6,151.3c0,2.5,0,5,0.1,7.5c-3.1-2.2-1-5.1-1.1-7.7c0,0,0.4-0.2,0.5-0.2
	C143.2,151,143.4,151.2,143.6,151.3z"/>
<path class="st106" d="M176.6,125.8c-1.2,0.1-2.3,0.3-3.5,0.4c-1-0.2-2-0.4-4.2-0.8C172.3,124.4,174.5,124,176.6,125.8z"/>
<path class="st107" d="M236.2,124.7c0,1.9,0.7,4.1,0,5.6c-1,2.1-0.8-0.5-1.4-0.7c0-1.6-0.1-3.3-0.1-4.9
	C235.2,124.7,235.7,124.7,236.2,124.7z"/>
<path class="st108" d="M205.7,121.9c-4.4,0.6-3.9-2.5-4-5.2C203.1,118.4,204.4,120.2,205.7,121.9z"/>
<path class="st109" d="M162.2,154.8c0.3,1.4,0.7,2.9,1,4.3c-0.7,1-1.2,2.3-2.9,1.4c-0.8-0.2-1.1-0.7-0.8-1.5c0.4-0.5,0.8-1,1.2-1.5
	C161.8,156.9,161,155.4,162.2,154.8z"/>
<path class="st110" d="M152.9,173.3c2,1.4,5.3-2,6.6,1.7C157.3,174.5,154.5,176.2,152.9,173.3z"/>
<path class="st111" d="M195.4,110.3c-0.1,1.7-0.2,3.3-0.3,5C193.6,113.5,192.9,111.8,195.4,110.3z"/>
<path class="st112" d="M217.8,120.6c0.3,0,0.7,0,1,0c0.2,0.8-0.1,1.3-0.9,1.4c-1.8-0.4-4,0.5-5.4-1.4
	C214.2,120.7,216,120.7,217.8,120.6z"/>
<path class="st113" d="M193.9,70.3c2.2,0,4.4,0,6.6,0.1C198.2,72.2,196.1,72.2,193.9,70.3z"/>
<path class="st114" d="M166.1,183c2.1,0.5,2.9,2.3,3.8,4c-1.3-0.5-2.6-0.9-3.8-1.4C166,184.7,166.1,183.8,166.1,183z"/>
<path class="st115" d="M162.2,154.8c-0.5,0.9-0.9,1.8-1.4,2.7c0.2-2.1-0.8-4.4,1-6.3C161.9,152.4,162.1,153.6,162.2,154.8z"/>
<path class="st116" d="M904.5,648.7c-2.9-0.1-5.7-0.4-8.6-0.4c-253,0-506,0-759,0c2-2.1,4.6-1.3,6.9-1.3c251.2,0,502.3,0,753.5,0
	C899.7,647.1,902.6,645.8,904.5,648.7z"/>
<path class="st117" d="M472.3,637.8c145.8,0,291.7,0,437.5,0c-0.2,1.2-0.6,1.7-2.1,1.7c-145.1-0.2-290.3-0.3-435.4-0.4
	c-0.4-0.3-0.6-0.6-0.4-0.9C472,637.9,472.2,637.8,472.3,637.8z"/>
<path class="st118" d="M472.3,637.8c0,0.4,0,0.9,0,1.3c-111.5,0-223,0-334.5,0c-2.5,0-5.3,1-7.5-1.2
	C244.3,637.8,358.3,637.8,472.3,637.8z"/>
<ellipse class="st119" cx="268.8" cy="175.7" rx="0.5" ry="6.5"/>
<path class="st120" d="M243,139.1c0.5-3-1.3-6.2,1.1-9c0.1,0.4,0.2,0.7,0.4,1.1c-0.1,2.7-0.2,5.3-0.3,8
	C243.7,139.8,243.3,139.8,243,139.1z"/>
<path class="st121" d="M228.2,194.5c5.6,1.1,10.7,1,14-4.8c0-3.3,2.7-4.7,4.8-6.4c1.8-1.1,3.3-2.5,4.7-4c1.8-1.2,2.9-4.2,5.9-2.7
	c-3.4,7.5-2.3,16.6-8.2,23.2c-1.5,1.7,0.4,3.2,1.2,4.7c2.7,4.7,6.8,8.7,8.4,14.1c-2.1,2.1-2.8-1.5-4.5-1.1
	c-6.6-8-13.5-15.8-23.7-19.6C229.9,197.6,227.2,197.1,228.2,194.5z"/>
<path class="st122" d="M214.7,196.4c1.2-1.7,2.1-3.7,4.3-4.4c-0.6,2.7,1.8,4.7,2.1,7.7C218.3,199.6,216.2,198.7,214.7,196.4z"/>
<path class="st123" d="M201.5,215.7c-3.6-1.8-1.9-4.8-2-7.4C201.3,210.5,199.3,213.7,201.5,215.7z"/>
<path class="st124" d="M269.6,452.1c-6.6-2.6-10.4-8.5-15-13.2c-16.6-16.8-34.9-31.6-53.3-46.2c-5-4-10.7-7.2-15.8-11.3
	c12.3,3.1,22.6,10,33.1,16.6c12.8,8.1,25.4,16.6,36.5,27c1.4,1.3,2.8,3.8,5.4,1.5C264,434.8,267.1,443.3,269.6,452.1z"/>
<path class="st125" d="M408.6,430.9c-6.2-0.1-11.7-5.4-11.8-11.7c-0.1-6,3.8-9.7,10.1-9.6c6.7,0.1,12.5,5.7,12.3,12.1
	C419,427.4,414.9,431,408.6,430.9z"/>
<path class="st126" d="M593,550.5c-3.4,3.8-7.1,7.3-10,11.4c-3.3,4.7-6.3,4.3-10,0.8c-1.6-1.5-3.4-2.8-5.1-4.1
	c-2.2-0.6-3.5-2.3-5-3.7c-1-1.1-2.1-2.3-2.1-4c0.2-0.2,0.4-0.5,0.6-0.7C571.9,550.2,582.4,550.3,593,550.5z"/>
<path class="st127" d="M467,547.6c0.1-2.7,2.1-2.7,4-2.6c13.2,0,26.4,0,39.6,0c2.6,0,5.4-0.5,6.8,2.6
	C500.6,548.6,483.8,548.6,467,547.6z"/>
<path class="st128" d="M516,550c0-0.4,0-0.7,0-1.1c12.4-1.1,24.7-1,37.1-0.1c12.5-5.9,25.5-0.7,38.2-3c0,0.6,0.1,1.2,0.1,1.8
	c-8.1,0-16.2-0.1-24.3,0.1c-2,0-5.2-1.5-5.7,2.4c0,0-0.1,0.2-0.1,0.2c-0.9,0.9-1.9,1.3-3.1,1.5c-1.6,0.3-3.2,0.2-4.7,0.3
	c-11.4,0.1-22.8,0.5-34.2-0.2C517.9,551.6,516.8,551.1,516,550z"/>
<path class="st129" d="M553.1,548.8c-12.4,0-24.7,0-37.1,0.1c-16.8,0-33.6,0-50.4,0c-0.2-0.2-0.3-0.5-0.5-0.7
	c0.2-0.2,0.4-0.4,0.5-0.6c0.4,0,0.9,0,1.3,0c16.8,0,33.6,0,50.4,0c9.9,0,19.7,0,29.6,0C549,547.6,551.4,546.9,553.1,548.8z"/>
<path class="st130" d="M380.7,547.6c0,0.4,0,0.8,0,1.3c-6.6,3.6-13.8,1.8-20.7,1.8c-13.6,0-27.2,0.3-40.7,0.1
	c-3-0.1-6.2,0.4-8.8-1.8c0,0,0,0,0,0c0.6-1.1,1.6-1.3,2.7-1.3c11.6-1.4,23.2-0.5,34.8-0.5C358.9,547,369.8,546.1,380.7,547.6z"/>
<path class="st131" d="M380.7,547.6c-22.5,0-45,0-67.5,0c2-2.2,4.5-1.3,6.9-1.3c20.2-0.1,40.5,0,60.7,0
	C380.8,546.7,380.8,547.1,380.7,547.6z"/>
<path class="st132" d="M400.7,489.2c-1.3,3.6-2.7,7.1-4,10.7c-1.4,0.8-1.8-0.4-2.4-1.3c2.3-3.8,2.4-8.5,5.1-12.1
	c6-1.1,12.1-0.2,18.1-0.5c2,0.2,4.1-0.5,5.9,0.6c-0.7,3.5-3.6,2.5-5.8,2.6C412,489.3,406.4,489.3,400.7,489.2z"/>
<path class="st133" d="M516.4,518.9c0.5,1.8-0.1,2.9-1.3,2.7c-4.7-0.8-4.6-5.2-5.8-8.5c-0.5-1.5-0.3-2.9,1.6-2.4
	C515.2,511.8,515.1,516.1,516.4,518.9z"/>
<path class="st134" d="M335.8,520.8c-2.9-1.1-3.6-3.8-3.9-6.7c-0.2-1.5,0-3.8,2-3.3c3.3,1,3.8,4.4,4.4,7.4
	C338.5,519.7,337.9,520.9,335.8,520.8z"/>
<path class="st135" d="M394.3,498.6c0.8,0.4,1.6,0.8,2.4,1.3c-2.2,7.5-4.5,15-6.7,22.4c-1.2,0.3-2,0-1.4-1.5
	C390.5,513.4,392.4,506,394.3,498.6z"/>
<path class="st136" d="M506.2,518.8c0.1,1.6-0.7,2.4-1.9,2c-3.5-1.1-3.9-4.5-5-7.2c-0.5-1.3,0.7-2.9,2.1-2.5
	C505.4,512,504.9,516.2,506.2,518.8z"/>
<path class="st137" d="M355.1,521c-3.3-1.3-2.8-5-3.9-7.8c-0.5-1.3,0.6-2.5,1.6-2.2c4,0.9,3.7,4.8,4.8,7.7
	C358.3,520.3,357.2,520.9,355.1,521z"/>
<path class="st138" d="M520.7,511c1.7,0.6,3.1,1.5,3.5,3.4c0.4,2,2.1,3.9,1.1,6.1c-0.2,0.4-1.9,0.6-2.3,0.3c-2.5-2.2-3.3-5.4-4-8.4
	C518.7,511.3,519.7,510.9,520.7,511z"/>
<path class="st139" d="M341,510.8c6.2,0.7,5.7,5.2,6.9,8.4c0.3,0.9-0.1,1.7-1.3,1.7c-1.2,0.1-2.3-0.1-2.7-1.3
	C343,517,342.2,514.3,341,510.8z"/>
<path class="st138" d="M531,511c3.2,1.5,3.2,4.9,4.3,7.7c0.5,1.3-0.2,2.4-1.5,2.2c-3.8-0.5-3.2-4.2-4.3-6.7
	C529.1,513,529,511.5,531,511z"/>
<path class="st140" d="M367.4,517.3c0.1,2-0.1,3.6-1.8,3.5c-4.3-0.2-2.9-4.3-4-6.6c-0.6-1.3,0.2-2.3,1.4-2.2
	C366.4,512.4,366.4,515.6,367.4,517.3z"/>
<path class="st128" d="M525.6,546c5.4-3,11.1-2.6,18-2.2C537.3,548.1,531.3,545.2,525.6,546z"/>
<path class="st141" d="M423.1,486.8c-1.7-0.1-3.4-0.2-5.1-0.4c-0.4-0.3-0.6-0.5-0.5-0.8c0.1-0.3,0.3-0.4,0.4-0.4
	c7.1,0.7,14.3-1.5,21.2,1.3c-1.8,0-3.6,0.1-5.4,0.1C430.2,487.9,426.6,488.8,423.1,486.8z"/>
<path class="st142" d="M417.9,485.3c0,0.4,0,0.8,0,1.2c-6.2,0-12.4,0-18.5,0C405.5,483.9,411.8,485.8,417.9,485.3z"/>
<path class="st143" d="M388.6,520.8c0.5,0.5,0.9,1,1.4,1.5c-0.9,2.7-1.7,5.4-2.6,8c-1.2,0.3-1.9,0-1.4-1.4
	C386.3,526,387,523.3,388.6,520.8z"/>
<path class="st144" d="M386.1,528.9c0.5,0.5,0.9,0.9,1.4,1.4c-0.5,3.1-1.7,5.8-4,8C383.7,535,384.4,531.8,386.1,528.9z"/>
<path class="st30" d="M609.2,608.1c-1.1,3-4.8-0.1-6.1,2.6c-0.4,1.8-1.8,2.5-3.2,3.4c-2.4,1.2-4.7,2.4-7.5,2.7
	c-7.5-0.5-7.9-0.9-6.7-6.3c4.2-2.6,8.7-4.8,14.2-7.8c-5.6,2.8-10,5.2-14.3,7.7c-3.1,0-5.4-0.8-4.5-4.7c-2.7-4.7-0.3-7.2,3.9-8.9
	c2.4-1,4.7-2.1,7.2-3.2c-0.5-0.8-0.6-1.3-0.9-1.5c-2-1.3-6.1-0.2-6-3.9c0-3.5,3.7-3.1,6-4.1c9.9-4.3,20.1-6.1,30.8-3.7
	c9.7,0.6,18.3,5.2,26.8,8.9c14.8,6.4,29.7,6.4,44.8,4.3c22.7-3.2,45.3-7.1,67.9-10.8c0.4-0.1,0.7-0.5,1.1-0.7
	c4-3.9,9.4-2.6,14.2-3.7c2.6-0.6,5.2-0.7,7.7-1.5c1.3-0.4,2.7-0.5,4-0.6c4,0.1,8.1,0.1,11-3.4c0.4-0.1,0.9-0.1,1.3,0.1
	c8,2.4,15.5,0.6,22.8-2.8c8.3-4.1,15.6-9.6,22.5-15.8c0.9,2.2,1.9,4.3,2.8,6.5c3.9,1.6,1.1,5.3,2.4,7.7c2.6,9.5,4.1,19.2,5.2,29
	c0.3,2.8,0.4,5.7-1.3,8.3c-8.5,6.5-18.5,8.1-28.7,9.2c-1.9,0.2-4-0.4-5.6,1.2c-13.8,1.4-27.6,1.8-41.4,1.4
	c-19.8-0.6-39.6-0.6-59.4-0.6c-2.2,0-4.4,0.6-6.5-0.6c-3,0-6.1,0-9.1-0.1c-8.6-1.3-17.3-0.3-25.9-0.6c-1.8,0.4-3.5,1.2-5.5,1.1
	c-5.9-1.8-11.3-1.2-17.3,0.7c-6.3,2-12.9-0.8-19.1-2.7C628,610.6,619,607.9,609.2,608.1z"/>
<path class="st145" d="M785.2,578.3c-7.3,2.5-15,2.7-22.5,3.9c-0.9-0.1-1.7-0.2-2.6-0.3c-2.1-2.2,1.2-6.3-2.8-7.9
	c-8.4,1.4-16.7,2.6-25.5,2.1c9.2-6.2,17.4-13.3,23.9-22.1c2.8-3.9,4.3-7.7,4.5-12.7c0.6-14.4-2.6-28.4-2.9-42.7
	c-0.5-2.2,0.5-3,2.6-2.7c11.5,21.6,16.9,45,20,69c0.6,4.9,3.1,7.5,7.9,7.9c0.3,0.3,0.4,0.7,0.4,1.1c0,0.4-0.1,0.6-0.2,0.6
	c-1.4,1.9-3.2,2-5.2,1.1c0.5,1.1,2,0.1,2.7,1C785.8,577.3,785.7,577.8,785.2,578.3z"/>
<path class="st146" d="M671.3,391.1c2.6,0,5.3,0,7.9-0.1c10.6-1.2,21.2-0.2,31.8-0.5c4.4,3.8,0.3,6.7-1.2,9.8
	c-6.8,13.8-21,19.5-31.8,28.8c-6.5,5.5-8,4.4-10.9-4.4c-0.8-2.2-2.4-4.1-2-6.6c0.8-7.7-0.3-15.4,0.7-23.1
	C666.3,391.5,667.4,389.5,671.3,391.1z"/>
<path class="st147" d="M683.1,432.2c5-1.6,9.9-3.5,15-4.7c8.2-2.1,13.2,0.6,17,8.3c0.7,1.5,0.3,5,3.9,3.1c1.2-0.3,1.8-0.1,1.2,1.3
	c-2.3,4-5.1,1.2-7.4,0.2c-9.5-4.1-18.9-8.7-29.7-6.8c-0.3-0.3-0.5-0.6-0.3-0.9C682.9,432.4,683,432.2,683.1,432.2z"/>
<path class="st148" d="M614.5,529c-2.7-7.5-5.3-15-8-22.5c3.4-1.2,4.5-3.5,3.9-7.2c-0.8-5.1,1.1-10.3,0.5-15.5
	c3.3,8.4,4.4,17.3,4.4,26.2C615.4,516.2,619.8,522.9,614.5,529z"/>
<path class="st55" d="M643.3,433.5c1.8-2.5,3.4-5.1,5.5-7.3c5.8-6.4,8.2-6.1,13.2,0.8c1,1.4,2,2.8,3.6,4.9c-7.5,0.1-14.3,0.9-20.9,3
	C643.3,435.4,643,434.7,643.3,433.5z"/>
<path class="st149" d="M823.7,570.3c0.5,1.3,1.9,3.2-0.6,3.6c-6.6,1.1-13.3,1.9-19.9,2.6c-2.2,0.2-1.9-1.9-2.2-3.3
	c4.3-0.9,9-0.3,13.1-2.4c2.8-3,6.3-1.5,9.5-1.3C823.6,569.7,823.6,570,823.7,570.3z"/>
<path class="st150" d="M709.8,400.3c-0.4-3.3,3.2-5.7,2-9.2c-0.3-0.4-0.3-0.9,0.1-1.3c0.3-2.7,0.5-5.3,0.8-8c2,0.3,3.6,1.4,3.4,3.4
	C715.4,390.7,715,396.5,709.8,400.3z"/>
<path class="st151" d="M799.7,573c-0.7,7.4-6.5,4.2-10.4,5c-1.4-1.8-1.4-3.5,0.2-5.1C792.8,572.9,796.2,572.9,799.7,573z"/>
<path class="st152" d="M665.9,418.9c0.4,1.9,0.8,3.8,1.1,5.8c-1.6-1-2.2-2.6-2.6-4.3c-1.3-8.4-3.7-16.7-0.1-25.1
	c0.1-0.9,0.1-1.8,0.2-2.8c1.4-0.1,1.9,0.7,1.9,2C666.2,402.6,667.3,410.8,665.9,418.9z"/>
<path class="st153" d="M782.5,434.8c-6.6-0.2-11.5,3.3-16.6,6.8c3.3-5.9,8.5-8.4,15.2-8.2C782.6,433,782.8,433.7,782.5,434.8z"/>
<path class="st154" d="M689.7,592.2c-0.8,0.1-1.5,0.4-2.3,0.4c-7.5,0-14.9,0-22.4-0.8c8.2,0,16.4,0,24.7,0
	C689.6,591.9,689.6,592.1,689.7,592.2z"/>
<path class="st155" d="M782.5,434.8c-0.4-0.4-0.9-0.9-1.3-1.3c5.1-2.5,10.1-1.2,15.2,0C791.7,433.5,787.2,435.1,782.5,434.8z"/>
<path class="st156" d="M664.4,395.2c0,8.4,0,16.8,0.1,25.1c-1.4-1.1-1.2-2.7-1.4-4.2c-0.9-7.1-3.8-14.2,0.3-21.1
	C663.7,395.1,664.1,395.1,664.4,395.2z"/>
<path class="st157" d="M757.3,574c1.4-1.2,2.4-0.9,2.6,0.9c0.2,2.3,0.1,4.7,0.2,7c-3.5,0-6.9,0-10.8,0
	C751.8,578.7,762.2,583.9,757.3,574z"/>
<path class="st158" d="M663.4,395c-0.1,7-0.2,14.1-0.3,21.1c-1.4-1-1.1-2.5-1.2-3.8c-1.6-5.8-2.1-11.5-0.1-17.3
	c0-0.7,0.1-1.5,0.1-2.2C663.3,393,663.1,394.2,663.4,395z"/>
<path class="st159" d="M823.6,569.5c-3.1,1.2-6.3,1.1-9.5,1.3c-0.1-2.8,3.9-5.1,6.5-3.6C821.7,567.7,822.6,568.7,823.6,569.5z"/>
<path class="st160" d="M722.9,427c0.6-4.9,1.2-9.7,1.8-14.6c0.2,5.8,2.3,11.6-0.5,17.2C723.3,429,723.8,427.6,722.9,427z"/>
<path class="st161" d="M759.9,495.9c-0.9,0.9-1.8,1.8-2.6,2.7c-1-3.9-1.9-7.8-2.9-11.7c0.3-0.1,0.7-0.2,1-0.3
	C756.9,489.7,758.4,492.8,759.9,495.9z"/>
<path class="st162" d="M661.7,395.1c0,5.8,0,11.5,0.1,17.3c-1.6-1.4-2.4-3.2-2.5-5.4c1.3-3.1,0.5-6.1,0-9.2
	C659.7,396.5,660.5,395.6,661.7,395.1z"/>
<path class="st163" d="M607.1,452.6c-2.1-4.6-2.7-8.9-1.6-13.5C606.5,443.4,608.4,447.5,607.1,452.6z"/>
<path class="st164" d="M722.9,427c1.1,0.6,1.3,1.6,1.3,2.6c-0.4,3.9-1.2,7.6-4,10.6c-0.4-0.4-0.8-0.8-1.2-1.3
	C720.6,435,723.4,431.6,722.9,427z"/>
<path class="st165" d="M615.9,541c-0.1,0.4-0.2,0.8-0.5,1.2c-2.3-3.8-0.7-8-1.1-12C616.7,533.5,617.3,537.1,615.9,541z"/>
<path class="st166" d="M741.9,584.5c-4.2,0-7.6,0-12.4,0C734.3,582.7,737.8,581,741.9,584.5z"/>
<path class="st167" d="M643.3,433.5c0.4,0.5,0.9,0.9,1.3,1.4c-3.9,0.6-3.9,0.6-3.7-5.7C641.9,430.9,642.6,432.2,643.3,433.5z"/>
<path class="st168" d="M659.3,397.8c2,3.1,2,6.1,0,9.2C659.8,403.9,657.9,400.9,659.3,397.8z"/>
<path class="st169" d="M620.9,579.4c-2-0.6-1.5-2.3-1.5-3.8c0.4-1.3-0.5-3,1.5-4.8C620.9,574.1,620.9,576.8,620.9,579.4z"/>
<path class="st170" d="M703.2,589.6c2.1-1.1,4.1-1.1,6.2,0C707.4,589.6,705.3,589.6,703.2,589.6z"/>
<path class="st171" d="M789.4,572.9c-0.1,1.7-0.1,3.4-0.2,5.1c-1.3,0.1-2.7,0.2-4,0.3c0-0.5,0-1,0-1.5c0.9-0.8,2-1.5,2.6-2.6
	c0-0.4,0-0.9,0.1-1.3C788.4,572.8,788.9,572.8,789.4,572.9z"/>
<path class="st172" d="M758.6,454.6c-0.3,0.4-0.7,1.3-1.4,1.7c-0.8,0.5-1.2-0.4-1.1-1c0.2-0.8,0.6-1.7,1.3-2.1
	C758.2,452.7,758.5,453.5,758.6,454.6z"/>
<path class="st173" d="M683.1,432.2c0,0.4,0,0.9,0,1.3c-1.1,1.4-2.5,1.6-4.2,0.9C679.8,432.5,681.5,432.5,683.1,432.2z"/>
<path class="st4" d="M208.5,547.6c7.3-7.9,4-15.9,0-23.8c1-1.4-0.3-3,0.3-4.4c1.2-2.1,2.4-4.3,3.6-6.3c8-10.7,7.4-22.7,4.9-34.9
	c-1.4-7-1.6-14-1-21.1c1.4-14.6,11.5-20.3,24.6-14.1c3.8,1.8,7.3,4.1,10.3,7.1c7.1,7.1,8.9,14.6,2.9,22.6c-8.9,11.9-8.2,23-0.7,34.8
	c0.8,1.3,1.4,2.8,1.9,4.2c5,12.3,1.6,19.8-10.8,25.3c-5.3,2.4-11.5,3.8-13.7,10.4c-0.8,5,0.5,10.4-2.8,15c-2.9,1.4-5.8,1.3-8.8,0.3
	c-1.6-8.9,1.1-17,4.8-24.8c2.8-2.1,6.4-2.4,8.7-3.6c1.7-0.6,0.4-1.5,0.9-0.8c-3,1.3-6.5,4.1-7.8-1.9c0.9-4.6,3.9-7.4,8-9.2
	c3.5-0.9,7.3-1.2,9.6-4c-2.5,0.2-4.6,6.7-8.1,0.6c0.9-3,1.1-5.9,0.1-9c-1.1-3.5-1.2-6.9,2.1-9.6c0.5-0.8,1.3-1.4,1.3-2.4
	c-0.1,0.7-0.5,1.2-0.9,1.7c-3.5,3.8-4.6,0.2-5.1-2.1c-2.4-9.7-5-19.4-0.8-29.3c-0.7,1.4-1.2,2.9-1.3,4.4c-0.1,2.3-4.4,3.2-2.1,6.3
	c2.1,5,1.7,10.6,3.4,15.7c0.9,2.9-3.6,6.7,1.4,9c1.7,3.9,2.8,7.9,2.5,12.1c-0.1,1.8-1,3.8-3,3.8c-2,0-2.4-2-2.5-3.6
	c3.9,8.3-5.3,12.1-6.9,18.7c-4.7,3-4.6-1.4-5.8-3.7c0,0.1,0.2-0.2,0.2-0.2s-0.3,0-0.3,0.1c0.7,3.9,4.5,6.5,4,10.8
	c-2.1,6.3-1,13.4-5.5,19c-10.9,0.1-10.9,0.1-10.2-10.6C207,549.5,207.4,548.2,208.5,547.6z"/>
<path class="st174" d="M371.7,575.5c-0.4,2.9-1.1,5.8-2.6,8.4c-3.2-10.2-11.5-17.2-16.2-26.4c-1-1.9-2.4-3.6-2.6-5.9
	c1.7-1.8,3.9-1.2,6-1.2C366.2,555.9,369,565.7,371.7,575.5z"/>
<path class="st175" d="M228.3,561.6c0.2-4.8-0.7-9.8,2.6-14.1c7.4,8.2,14.8,16.4,23.6,23.2c1.2,0.9,2,2.3,2.9,3.4
	c-5.6,2.3-9.7-1.9-14.4-3.3c-1.4-1.3-1.8-2.9-1.5-4.7c-0.6-2.1-1.8-3.4-4-3.8c-2.6,0.9-5.4,0.3-8,0.4
	C228.7,562.8,228.3,562.4,228.3,561.6z"/>
<path class="st176" d="M243.1,570.1c5.2-0.1,9.3,3.9,14.4,4.1c6.6,4.4,13.3,8.8,19.9,13.2c0.4,0.3,0.5,0.6,0.4,0.9
	c-0.1,0.3-0.3,0.5-0.4,0.5c-9.6-3.5-19.2-7-28.9-10.3c-2.1-0.7-4.4-2.4-6.7-0.3C240.2,575.1,240.7,572.5,243.1,570.1z"/>
<path class="st177" d="M310.5,548.9c23.4,0,46.8,0,70.2-0.1c-0.4,0.5-0.8,0.9-1.3,1.4c-4.8,3.3-10.4,2.3-15.3,1.6
	c-11.6-1.7-23.1,0.3-34.7-0.3c-5-0.3-10.1,0-15.1-0.1c-1.3-0.1-2.5-0.5-3.5-1.4C310.8,549.7,310.6,549.3,310.5,548.9z"/>
<path class="st178" d="M313.2,550.4c22.1-0.1,44.2-0.1,66.2-0.2c0.2,1.6,0,3.1-1.1,4.3c-7-1.9-14.6,0.3-21.4-3c-2.2,0-4.5,0-6.7,0
	c-0.4,0-0.9,0-1.3,0c-11.4,1.3-22.8,0.3-34.2,0.5C313.7,552.1,313.2,551.5,313.2,550.4z"/>
<path class="st179" d="M313.2,550.4c6.8,2.5,13.8,0.6,20.7,1.1c5,0.3,10.1,0.1,15.1,0.1c-5.6,2.8-11.6,0.8-17.4,1.2
	c-5.2,0.4-10.5,0.2-15.8,0c-1.9-0.1-4.9,1-4.9-2.8C311.7,550.2,312.4,550.3,313.2,550.4z"/>
<path class="st180" d="M207.3,517.2c-0.5-5.8,1.1-11.7-1.6-17.3c4.3,2,2.5,6,2.8,9.3c0.2,2.6,0,5.2,0,7.9c-0.2,0.2-0.4,0.3-0.5,0.5
	C207.7,517.4,207.5,517.3,207.3,517.2z"/>
<path class="st180" d="M212.4,513.1c-0.8,2.3-1.7,4.5-2.5,6.8c-2.3,0.1-2.2-1.1-1.5-2.7c0,0,0.1-0.1,0.1-0.1
	C209.8,515.7,211.1,514.4,212.4,513.1z"/>
<path class="st181" d="M277.4,588.7c0-0.5,0-0.9,0-1.4c1.8,0.9,3.5,1.8,5.3,2.7C280.3,592.2,279,590,277.4,588.7z"/>
<path class="st182" d="M361.1,611.3c2.1,2.2,0.8,5,1.1,7.5C359.7,616.6,360.8,613.9,361.1,611.3z"/>
<path class="st183" d="M688.5,253.2c6.8,7.2,8.2,16.7,10.4,25.8c1,4.2,0.4,8.9,1.7,13c2.5,7.9-0.1,13.2-6.9,17
	c-1.4-2.6-2.8-5.2-4.1-7.8C692.4,285.1,691.1,269.1,688.5,253.2z"/>
<path class="st184" d="M657.6,358.9c2.3,1.6,2.1,4,1.2,5.9c-2.6,5.2-7.9,5.7-12.9,6.4c-4.4,0.6-7.9-0.4-9-5.3
	c1.9-1.4,4.1-0.2,6.4-0.9c0.6-0.1-0.1-1.3,0.1-0.4c0.1,0.3-0.1,0.5-0.5,0.4c-1.7-0.3-4.3,1.6-4.8-1.8
	C644.4,360.8,651.2,360.6,657.6,358.9z"/>
<path class="st185" d="M657.6,358.9c-5.9,4.3-12.6,5.1-19.6,4.4c-0.3-0.2-0.5-0.3-0.8-0.5c-1.5-1.5-1.7-3.1-0.6-4.8
	c5.8-0.8,11.6-1.6,17.5-2.5C656.8,355.2,659.2,354.9,657.6,358.9z"/>
<path class="st186" d="M654,300.9c0.8,0,1.6-0.1,2.4-0.1c4.1,0.8,9-1.5,12.2,3.1c-0.9,0.7-2,0.9-3.1,0.7c-5.4-0.8-10.7,0-15.8,1.7
	c-2.3-0.5-1.4-1.7-0.3-2.5C650.7,302.7,652.4,301.9,654,300.9z"/>
<path class="st187" d="M649.6,306.3c4.7-5.2,10.7-2.7,16.2-2.6c0.4,1.3-0.1,1.8-1.4,1.6C659.3,304.2,654.6,308.1,649.6,306.3z"/>
<path class="st188" d="M628.9,328.6c-2.1-0.4-1.8-2.2-1.8-3.6c-0.1-1.5,0-3.6,1.8-3.7c2.3-0.1,2.3,2.2,2.3,3.9
	C631.4,326.8,630.8,328.1,628.9,328.6z"/>
<path class="st189" d="M645.2,344.1c-0.8,3.3-2.7,4.4-5.3,3.9c-0.6-0.1-1.5-1.5-1.4-1.8C640.1,343.5,643.1,345.2,645.2,344.1z"/>
<path class="st190" d="M660.6,326.2c-3,1.9-3-0.9-3.3-2.4c-0.5-2.4,0.9-3.4,3.2-3.4C661.9,322.3,660.7,324.3,660.6,326.2z"/>
<path class="st191" d="M628.9,310.5c-2.6,1.7-5.5,0.6-8.3,1c0-2.3,1.4-2.4,3-2.5C625,310.5,627.5,308.6,628.9,310.5z"/>
<path class="st192" d="M664.4,305.3c0.5-0.5,0.9-1.1,1.4-1.6c0.9,0.1,1.8,0.1,2.7,0.2c0.5,0.6,1.1,1.2,1.6,1.7
	C668.1,306.9,666.2,306.2,664.4,305.3z"/>
<path class="st193" d="M638,363.3c1.3,1.9,3.5,0.9,5.2,2.6c-2.1,0-4.2,0-6.4,0c-0.1-0.9-0.1-1.8-0.2-2.7
	C637.1,362.7,637.6,362.8,638,363.3L638,363.3z"/>
<path class="st194" d="M660.6,326.2c-1.3-1.9,0.2-3.9-0.1-5.8C663.5,322.3,662.4,324.3,660.6,326.2z"/>
<path class="st195" d="M638,363.3c-0.4,0-0.9,0-1.3,0c-1.8-1.8-1.9-3.5,0-5.3C637.1,359.8,637.6,361.5,638,363.3z"/>
<path class="st196" d="M628.9,310.5c-1.7-0.8-4,0.5-5.4-1.5C625.3,309.4,628.1,306.4,628.9,310.5z"/>
<path class="st197" d="M197.6,555.5c0.5,2.1,1,4.2,1.5,6.2c-4.3,2.8-8.7,2-13.2,0.7c0,0,0.1-0.6,0.1-0.6c0.9-0.6,1.7-1.1,2.8-1.8
	c-24.6-5.5-49.2-10.2-74.3-12c16.3-0.3,32.7-1.5,48.9,1.5C174.8,551.6,186.2,553.5,197.6,555.5z"/>
<path class="st198" d="M185.7,606.2c0.5-0.4,0.8-2.2,1.2-1.3c0.7,1.9,1,4.3-0.7,6.2C186,609.5,185.9,607.8,185.7,606.2z"/>
<path class="st199" d="M184.4,595.6c0.5-0.3,0.9-2.1,1.2-1.2c0.6,1.9,1,4.3-0.8,6.1C184.7,598.9,184.5,597.2,184.4,595.6z"/>
<path class="st200" d="M183,585.1c0.1-0.4,0.2-0.9,0.4-1.2c0.4-0.6,1.1-0.9,1.1,0.1c0,2,0.9,4.3-1.2,6
	C183.2,588.4,183.1,586.8,183,585.1z"/>
<path class="st201" d="M181.7,574.4c2.8,1.4,1.7,3.2,0.4,4.9C181.9,577.7,181.8,576,181.7,574.4z"/>
<path class="st202" d="M239.1,175.3c1.3-2.2,1.1-4.6,0.9-7.1c-0.8-3.2-0.5-6.2,1.3-9c0.3-0.1,0.6-0.2,0.8-0.4
	c4.3,0.5,8.5,1.1,12.8,1.6c2.1,1.2,3.9,2.7,3.8,5.5c-2.9,8.3-9.9,12.8-16.2,17.9c-1.4,1.1-3.8,1.9-4.2-1.5
	C238.7,180,237.5,177.5,239.1,175.3z"/>
<path class="st203" d="M238.7,182.8c1.2,1.3,2.8,0.7,3.5-0.1c5.1-5.8,12-10,15.7-17c1-0.8,2-0.7,3,0c4.7,5.3-1.5,7.5-3.2,10.9
	c-1.7,1.3-3.4,2.6-5.1,3.9c-1.9,0.6-3.1,1.9-4.1,3.5c-2.1,1.9-4.2,3.9-6.2,5.8c-5.5,0.3-4.5-3.6-4.5-6.9
	C238,182.4,238.3,182.4,238.7,182.8z"/>
<path class="st204" d="M242.6,152.5c0.1-2.2,0.2-4.4,0.3-6.5c0.4-0.7,0.7-0.7,0.9,0.1c0.4,2.5,3.1,2.1,4.5,3.4
	c0.7,0.8,0.8,1.7,0.2,2.7C246.5,152.2,244.6,152.3,242.6,152.5z"/>
<path class="st205" d="M248.5,152.1c-0.1-0.9-0.1-1.8-0.2-2.7c1.9,0.7,4-1.7,6.4,0.5C252.8,151.7,251.1,152.8,248.5,152.1z"/>
<path class="st206" d="M260.8,165.7c-1,0-2,0-3,0c-1-1.7-2-3.5-3-5.2C259.9,158.8,259.6,163.1,260.8,165.7z"/>
<path class="st207" d="M243.8,146l-0.4-0.1c0,0-0.5,0-0.5,0c0-2.3,0-4.6,0.1-6.9c0.4,0.1,0.8,0.1,1.2,0.1
	C244.1,141.5,243.9,143.8,243.8,146z"/>
<path class="st208" d="M228.3,563.5c-6.9,2.8-14.1,0.6-21.2,1.3c0-0.4,0-0.8,0.1-1.2c1-1,2.2-0.7,3.4-0.8
	C216.5,563,222.5,562.1,228.3,563.5z"/>
<path class="st209" d="M185.9,562.5c4.4-0.2,8.8-0.5,13.2-0.7c0,0,0,0.6,0,0.6c0.4,0.3,0.6,0.5,0.4,0.7c-0.2,0.2-0.3,0.4-0.5,0.4
	c-0.4,0-0.9,0.1-1.3,0.1c-4,0.8-7.9,1.1-11.9-0.2C185.9,563.1,185.9,562.8,185.9,562.5z"/>
<path class="st210" d="M185.9,563.4c4,0.1,7.9,0.1,11.9,0.2C193.8,565.5,189.8,565.7,185.9,563.4z"/>
<path class="st211" d="M199.1,563.4c0-0.4,0-0.7,0-1.1c3.5,0,7,0,10.4,0c0.6,0.2,0.8,0.4,0.6,0.7c-0.2,0.3-0.3,0.4-0.5,0.4
	c-0.8,0.1-1.6,0.2-2.4,0.2C204.5,563.5,201.8,563.5,199.1,563.4z"/>
<path class="st212" d="M223,534.3c1-2.4,1.5-5.3,3.2-7.1c3.8-4,6-7.8,1.5-13.5c3.9,0.8,3.4,4.1,5.8,5.1c2.8-5.3,0.2-10.1-1.1-15
	c-2.3-2.3,0.5-5.5-1.3-8c-1.3-5.7-2.7-11.5-4-17.2c-0.2-2.4,2.7-3.1,2.7-5.4c0.1-3.9,1.9-7,5-9.7c-3.3,8.4-3.6,16.9-2.4,25.6
	c0.5,3.3,1.6,6.4,2.6,9.5c1,3,1.9,1.2,2.8-0.1c1.2-0.3,1.8-0.1,1.3,1.3c-2.4,2.9-3.3,5.9-2,9.7c1.2,3.3,1,6.9-0.7,10.2
	c-1,1.1,0,2.9-1.4,3.9c-3.7,1.6-6.5,4.2-7.9,8c-1.6,2,0.2,4.6-1.3,6.6c-4,4.7-3.6,10.9-5.2,16.4c-0.7,2.3-0.9,4.6-1.3,7
	c-0.9,1.5-1.8,1.4-2.8,0.1c0-0.3,0-0.7-0.1-1c1.4-6.6,2.8-13.2,4.2-19.9C221.2,538.7,221.1,536.1,223,534.3z"/>
<path class="st213" d="M208.5,547.6c-0.4,1.3,0.9,4.2-2.5,2.6c-0.4-5.1-0.8-10.3-4.2-14.5c0.1-0.9,1-1.7,0.1-2.7
	c-1.4-4-3.8-7.6-4.1-12c0.4-0.5,0.6-1.4,1.4-1.5c1.3,3.2,2.5,6.4,3.8,9.6c0.6,1.6,0.5,4.5,3.7,2.4c1.1-0.7,1.8,0,1.2,1
	C204.7,537.8,207.7,542.6,208.5,547.6z"/>
<path class="st214" d="M199.3,519.6c-0.5,0.5-1,1-1.4,1.5c-0.5-1.3-0.9-2.6-1.4-3.9c-0.5-0.9-0.9-1.8-1.3-2.8
	c-0.9-7.3-6-13.5-5.5-21.2c0.5-0.5,1-0.5,1.5,0c0.2,1.7,0.8,3.2,2.6,3.8c0.5,0.4,0.9,0.8,1.1,1.4c0.7,4.1,2.1,8,3.4,11.9
	c0.3,1,0.3,1,2.3-0.3c1.1,0.1,1.8,0.4,1.2,1.7C200.8,514.3,198.7,516.5,199.3,519.6z"/>
<path class="st215" d="M216.3,561.8c0.9,0,1.9-0.1,2.8-0.1c3.1,0.5,6.1,0.5,9.2-0.1c0,0,0.1,0.5,0.1,0.5c0.4,0.3,0.5,0.6,0.3,0.9
	c-0.2,0.3-0.3,0.4-0.4,0.4c0,0,0,0,0,0c-6.2,0-12.5-0.1-18.7-0.1c0.1-0.4,0-0.7-0.1-1C211.8,562.2,214.1,562,216.3,561.8z"/>
<path class="st216" d="M201.9,533c1.4,0.9,1.2,1.8-0.1,2.7c-2.8-0.7-5.5-1.6-7.8-3.9C197.3,530.4,199,534.9,201.9,533z"/>
<path class="st217" d="M195.2,514.4c1.1,0.6,1.3,1.6,1.3,2.8c-2.2-1.7-5.4-2-7.4-4.8C191.7,511.8,193.2,513.9,195.2,514.4z"/>
<path class="st218" d="M194,498.6c-0.1-0.5-0.1-1.1-0.2-1.7c0.5-1.3,0.9-2.5,1.4-3.8c0.5,0.4,0.9,0.9,1.4,1.3
	C197.9,497.3,196.8,498.5,194,498.6z"/>
<path class="st219" d="M191.2,493.2c-0.5,0-1,0-1.5,0c-1.4-1-1.1-2.6-1.2-4c-0.5-1.4,0.1-1.6,1.3-1.2
	C190.3,489.7,190.7,491.5,191.2,493.2z"/>
<path class="st220" d="M189.8,488c-0.4,0.4-0.9,0.8-1.3,1.2c-1.4-1-1.5-2.4-0.9-4.7C188.6,486,189.2,487,189.8,488z"/>
<path class="st36" d="M732.2,327.6c0,9.5-4.7,15.8-11.9,15.9c-8.6,0.1-13.4-5.6-13.4-15.8c0-8.4,5.9-15.8,12.6-15.8
	C726.2,311.7,732.2,319.2,732.2,327.6z"/>
<path class="st221" d="M665.9,418.9c-0.9-8.8,1.6-17.8-1.3-26.5c0-0.9,0-1.8,0-2.7c2.3,0.3,4.8-0.6,6.7,1.3
	c-3.2-0.2-4.2,1.4-4.1,4.4c0.1,5.7,0.1,11.5,0,17.2C667.1,414.8,667.9,417.2,665.9,418.9z"/>
<path class="st222" d="M711.9,389.8c0.2,0.4,0.2,0.9-0.1,1.3c-10.9,0-21.8,0-32.6-0.1c6.6-2.7,13.4-0.7,20.1-1.2
	C703.5,389.6,707.7,389.8,711.9,389.8z"/>
<path class="st37" d="M194,498.6c1.6-0.9,2.5-2.3,2.6-4.1c6.7,2.5,8.4,8.6,3.9,14.7c0.4,0.3,0.5,0.6,0.4,0.9
	c-0.1,0.3-0.2,0.4-0.4,0.4c-0.5,0.9-1.1,1.9-2.1,3.5C196.2,508.8,193.9,504.1,194,498.6z"/>
<path class="st223" d="M208.4,517.2c0.1,1.1,0.4,2.1,1.5,2.7c0,1.5,0.2,3-1.4,3.9c-0.9-2.1-1.7-4.3-1.1-6.7
	C207.7,517.1,208,517.1,208.4,517.2z"/>
<path class="st224" d="M200.6,510.5c0-0.4,0-0.9,0-1.3c0.9-0.3,2.5-1.1,2.6-0.9c1,1.6-0.3,2.5-1.3,3.5
	C201.4,511.4,201,510.9,200.6,510.5z"/>
<path class="st176" d="M851.4,568.7c-2.1-2.2-0.8-5.4-2.4-7.7c17.5,0.3,35.1-1.4,52.5,1.9c-10,0.5-19.9,0.8-29.8,1.9
	c-5.9,0.7-11.8,1-17.7,1.4C852.5,566.3,851.7,567.3,851.4,568.7z"/>
<path class="st225" d="M853.9,546.2c-1.6-2.1-1.5-4.3-0.2-6.5C854.7,541.9,855.6,544,853.9,546.2z"/>
<path class="st226" d="M713.6,616.5c35.8,0,71.6-0.1,107.4-0.1c-1.8,2.4-4.5,1.5-6.7,1.4c-14-0.3-27.8,2-42,0.7
	c-18-1.6-36.3-0.5-54.5-0.6C716.3,617.8,714.7,617.9,713.6,616.5z"/>
<path class="st227" d="M648.5,621.9c-1.3,0-2.7,0-4,0c-1.2-0.6-2.5-1.1-3.7-1.7c0.2-2,1.9-2.7,3.2-2.5c9.4,1.9,18.3-2.8,27.6-1.8
	c2.2,0.1,4.7-0.6,6.1,1.9c3.5,0.6,7.3-1.1,10.7,1.2c-2.9,3-6.8,1.6-10.2,2c-5.3,0.2-10.6-0.2-15.8,0.7c-2.5,0.4-5.1-0.7-7.6,0
	C652.8,621.8,650.7,621.8,648.5,621.9z"/>
<path class="st228" d="M677.6,619.3c3.6-0.1,7.3-0.2,10.9-0.2c13.6,0,27.2,0,40.8,0.2c2.3,0,4.9-0.8,6.9,1.2
	c-5.4,3.1-11.4,0.4-16.9,1.8c-1.5,0.4-3,0.4-4.6,0c-5.8-0.8-11.7-0.2-17.5-0.4c-4.8,0-9.6,0.1-14.4-0.1
	C680.8,621.7,678.3,622.4,677.6,619.3z"/>
<path class="st229" d="M718.8,621.5c5.7-2.3,11.6-0.4,17.4-1c5.3,0.8,10.8-1.3,15.8,1.4c-4.9,0-9.7,0-14.6,0.1
	c-3.9,1.2-7.9,0.3-11.8,0.6C723.3,622,720.8,623.5,718.8,621.5z"/>
<path class="st227" d="M677.8,615.3c8.9,0.4,17.9-1.3,26.7,1.1c-8.9,0-17.8,0-26.7,0.1c-0.4-0.3-0.5-0.5-0.4-0.8
	C677.6,615.4,677.7,615.3,677.8,615.3z"/>
<path class="st226" d="M677.8,615.3c0,0.4,0,0.8,0,1.2c0,0.4,0,0.9,0,1.3c-1.7-0.8-3.4-1.5-5.3-1.3c-0.4-0.3-0.6-0.6-0.4-0.8
	c0.1-0.3,0.3-0.4,0.4-0.4C674.3,615.3,676,615.3,677.8,615.3z"/>
<path class="st230" d="M870.1,302.1c-4.9-1.2-8-4.2-9.3-9.1c1.1-3,0.5-6.1,0.2-9.1c1.2-4.5,4.2-7.1,8.6-8.2c3.2-0.6,6.3-1,9.4,0.2
	c0.5,0.5,1.1,0.9,1.6,1.4c2.4,1.1,3.7,3.6,5.8,5.1c4.1,9,0.9,16.4-8.6,19.9C875.4,301.3,872.7,301.4,870.1,302.1z"/>
<path class="st231" d="M861,283.8c1.6,3.1,1.8,6.1-0.2,9.1C860.1,289.9,859.6,286.9,861,283.8z"/>
<path class="st232" d="M886.5,282.3c-2.8-0.7-4.3-2.9-5.8-5.1C884.2,277.1,885.4,279.7,886.5,282.3z"/>
<path class="st233" d="M879.1,275.8c-3.1-0.1-6.3-0.1-9.4-0.2C872.8,273.9,876,273.6,879.1,275.8z"/>
<path class="st234" d="M870.1,302.1c2.6-1.7,5.2-1.8,7.8,0.1C875.3,302.9,872.7,302.8,870.1,302.1z"/>
<path class="st235" d="M928.3,307.5c-4.2,4.5,0.2,5.6,3.3,7.5c-1.6,2.6-7.2,4-3.2,8.6c-0.1,1.3-0.6,2-2.1,1.6c-4-1-7.4-0.7-8.4,5.1
	c-1.8-6.2-5.9-5.9-9.8-4.9c-1.8-2.1,1.5-3.2,0.5-4.3c-4.1-3.8-3.3-6.9-0.9-11.8c1.4-2.9,0.7-4.6,4.7-3.6c2.7,0.7,3.3-3.1,6-4.4
	c1,4.7,3.9,5.8,8.2,4.2C927.9,304.9,928.1,306.4,928.3,307.5z"/>
<path class="st236" d="M378,181.7c9.8,6.2,19.5,12.3,29.3,18.5c-7.6,7.5-17.3,11.7-26.2,17.3c-1.3,0.8-2.5,1.7-4.5,3
	C377.7,207.2,375.3,194.4,378,181.7z"/>
<path class="st237" d="M381.2,176.8c22.1,0,44.2,0,66.3,0c0,0.3,0,0.6,0,0.9c-22.1,0-44.3,0-66.4,0
	C381.1,177.3,381.1,177,381.2,176.8z"/>
<path class="st236" d="M357,551.6c5.5,0,11,0,16.4,0c2.3,0,4.5,0,4.9,3c-1.7,7.1-3.7,14.2-6.6,21c-2.8-5.6-5.6-11.2-8.6-16.6
	C361.6,556.1,359.7,553.5,357,551.6z"/>
<path class="st238" d="M423.1,486.8c3.5,0,7.1,0,10.6-0.1c-2.9,3.4-6.8,2.3-10.5,2.5c-7.5,1.1-15,0.9-22.5,0.1c0,0,0-0.2,0-0.2
	c4.5-2.6,9.4-0.6,14.1-1.3C417.6,487.5,420.6,488.9,423.1,486.8z"/>
<path class="st239" d="M400.8,489.4c7.5,0,15-0.1,22.5-0.1C415.8,491.5,408.3,491.2,400.8,489.4z"/>
<path class="st240" d="M518.5,550.4c12,0,24,0,36,0c2,2.1,1.2,4.5,0.7,6.9c-1.6,7.7-4.7,14.8-9.9,20.6c-4,4.4-6.5,8.7-5,14.7
	c0.3,1.3-0.2,2.6-0.4,3.9c-0.7,2.3-1.6,4.5-2.6,6.6c-3.1,2.9-6.1,5.8-9.2,8.7c-2.6,0.1-5.2,0.3-7.9,0.4c-0.9-0.4-1.8-0.8-2-1.8
	c0-4.3,3.6-6.3,5.9-9.1c3.9-4.7,4.3-8.9,1.1-12.4c-0.9-1-1.8-2.3-3.2-1.9c-1.6,0.4-1.4,2-1.5,3.2c-0.9,6.9-1.1,13.9-2.7,20.8
	c-0.5,0.4-1.1,0.7-1.8,0.8c-3-0.4-6.1,0-8.9-1.4c-0.5-0.4-0.9-1-1-1.7c0.8-4,0.5-8.1,1.6-12c-0.6,2-0.9,4.1-0.9,6.2
	c-0.2,2.7-1.3,4.8-4.3,4.5c-6-0.6-12.1,0.1-18-1.5c-3.6-7.4-2.7-14.6,2.5-19.9c4.5-4.5,9.1-9,14.6-12.3c3.4-2,4.4-5.4,5.7-8.6
	C509.8,559.5,511.9,553.3,518.5,550.4z"/>
<path class="st241" d="M538.6,596.6c-0.1-2.6,0.5-5.5-0.4-7.8c-1.6-4,0.2-6,2.7-8.5c8.3-8.2,12.4-18.4,13.6-29.8
	c1.4,0,2.7,0,4.1-0.1c1.7,1.1,3,2.8,4.8,3.8c2,0.9,3.3,2.6,4.5,4.3c-3.5,3.2-5.5,7.1-7.1,11.6c-3.9,10.6-11.4,18.7-19.7,26.1
	C540.4,597.6,539.5,597.3,538.6,596.6z"/>
<path class="st242" d="M581.2,605.7c0.8,2.5,2.3,4.1,5.1,4.2l0,0c-2.2,7.2,3.5,4.8,6.7,5.5c2.9,1,4.8-0.7,6.5-2.7
	c1.2-0.7,2.4-1.3,3.6-2c4.1,1.6,9-0.7,12.9,2.6c1.8,1.5,4,2.5,5.2,5c-3.5,2.2-7.8-0.8-11,2.1c-14.7,0.7-29.3-1.1-43.9-1.4
	C567.9,610.9,574.4,608.1,581.2,605.7z"/>
<path class="st243" d="M538.6,596.6c0.8-0.1,1.7-0.2,2.5-0.3c-1,2.5-1.7,5.2-3.9,7C537.7,601,538.1,598.8,538.6,596.6z"/>
<path class="st244" d="M243.1,570.1c-0.7,2.6-1.6,5.2-1.2,8.1c-0.5,0.4-0.9,0.9-1.4,1.3c-0.5,0.7-1,0.7-1.5-0.1
	c3-4-0.4-9.3,2.6-13.2C242.1,567.5,242.6,568.8,243.1,570.1z"/>
<path class="st245" d="M238.8,599.2c-1.7-3.6-2.1-7.1,0.4-10.5C238.8,592.2,239.9,595.8,238.8,599.2z"/>
<path class="st246" d="M239,579.4c0.5,0,1,0,1.5,0.1c-0.5,3.1,1.8,6.6-1.4,9.4C239,585.7,239,582.5,239,579.4z"/>
<path class="st247" d="M237.4,609.8c-1.9-2.5-1.1-5.2,0-7.9c0.1,1,0.3,2.1,0.4,3.1C237.7,606.6,237.5,608.2,237.4,609.8z"/>
<path class="st0" d="M518.5,550.4c-5.1,5.6-8.5,12.2-11,19.3c-2.4,6.8-9.7,8.7-14.7,13c-8.4,7.3-10.8,12.7-7.3,23.1
	c1.4,0.8,2.1,1.9,1.1,3.5c-1.1,1.3-2.6,1.5-4.2,1.2c-17.4-0.3-34.7,0-52.1-0.2c-3.4,0-7.4,0.5-8.2-4.4c5.3-17,10.7-33.9,15.7-50.9
	c1.2-4,3.2-4.9,7-4.9c23.8,0.1,47.5-0.1,71.3-0.2C516.9,550.1,517.7,550.3,518.5,550.4z"/>
<path class="st248" d="M457.7,511.8c-0.1,6.5,2.7,12.4,4,18.5c1.9,2.3,3,4.9,2.6,8c0.5,3.1,0.9,6.2,1.4,9.3c0,0-0.1,0-0.1,0
	c-8.4,1.1-16.8,1.1-25.1,0c2.2-8.4,4.4-16.8,6.6-25.2c-0.2-2.3,1.6-3.6,2.6-5.3c0-0.9,0-1.8,0-2.6c0.6-1.8,1.2-3.7,1.4-5.6
	c0.2-1.9,1-3.6,2.9-3.8c2.2-0.2,2.4,2.1,3.1,3.5C457.7,509.6,457.7,510.7,457.7,511.8z"/>
<path class="st249" d="M504.1,612.6c-2,2-4.6,1.2-6.9,1.2c-22.4,0.1-44.8,0-67.1,0.1c-2.3,0-4.9-0.9-6.8,1.3
	c-1.1-0.5-1.3-1.5-1.4-2.5c2.4-2.6,5.7-1.9,8.7-2c20.4-0.1,40.8,0,61.1,0C495.8,611.2,500.4,609.4,504.1,612.6z"/>
<path class="st250" d="M484.2,609.8c0.8-0.4,1.6-0.8,2.5-1.2c0.4,0,0.7,0,1.1-0.1c1.7,0.3,3.9,0.2,3.2,3c-0.8,0.3-1.5,0.4-2.3,0.3
	c-20.5,0-41,0-61.5,0c-2.1,0-4.4,0.7-6.4-0.7c0-0.4,0.1-0.9,0.2-1.3c7.2-1.3,14.5-0.5,21.7-0.5C456.4,609.4,470.3,608.6,484.2,609.8
	z"/>
<path class="st251" d="M420.6,611.1c23.4,0,46.8,0,70.1,0c0.5-0.4,1-0.4,1.6-0.1c0.4,0.6,0.3,1-0.2,1.5c-23.4,0.1-46.8,0.1-70.2,0.2
	C421.5,612.2,421,611.6,420.6,611.1z"/>
<path class="st252" d="M484.2,609.8c-21.1,0-42.2,0-63.4,0c-0.6-1.6,0.5-2.7,1.3-3.9c1.8,3,4.8,2.6,7.6,2.6c15.9,0,31.7,0,47.6,0
	C479.6,608.6,482.2,607.7,484.2,609.8z"/>
<path class="st6" d="M457.7,511.8c-1.2-1.9-2.4-3.8-3.7-5.9c-2.5,2.4-1.1,6.6-4.2,8.5c-1.3-1.9,0.2-3.8-0.1-5.6
	c-0.4-2.5-1.3-5.5,1.4-6.9c1.6-0.9,3.6,1,5,2.4C458.2,506.3,460.8,508.5,457.7,511.8z"/>
<path class="st253" d="M440.5,547.6c8.4,0,16.8,0,25.1,0c0,0.4,0,0.9,0,1.3c-8.3-0.1-16.7-0.1-25-0.2c-0.1,0-0.3-0.3-0.3-0.5
	C440.3,548,440.4,547.8,440.5,547.6z"/>
<path class="st6" d="M464.3,538.3c-1.9-2.3-1.7-5.3-2.6-8C464.7,532.3,467.4,534.4,464.3,538.3z"/>
<path class="st6" d="M449.7,517.1c-0.2,2.1-0.9,3.9-2.6,5.3C443.9,518.6,448,518.5,449.7,517.1z"/>
<path class="st254" d="M228.3,563.4c0-0.4,0.1-0.9,0.1-1.3c3,0.1,6.1,0.2,9.1,0.3C234.7,564.5,231.4,563,228.3,563.4z"/>
<path class="st255" d="M516.1,611c0.5-0.1,1-0.2,1.5-0.3c0.3,0,0.6,0,0.9,0c0.6,0.6,1.1,1.1,1.7,1.6c-0.4,0.1-0.9,0.2-1.3,0.4
	c-0.5,0-1-0.1-1.6-0.1c-3.1,1-6.1,0.9-9.2,0c-0.9,0-1.8-0.1-2.7-0.1c-0.4-0.8-0.3-1.4,0.5-1.9C509.3,610.7,512.7,610.2,516.1,611z"
	/>
<path class="st256" d="M505.5,611.4c0,0.4,0,0.7,0,1.1c-0.5,0-0.9,0.1-1.4,0.1c-4-0.1-8-0.1-12-0.2c0-0.3,0-0.7,0.1-1
	C496.6,608.4,501,608.4,505.5,611.4z"/>
<path class="st249" d="M508.1,612.6c3.1,0,6.1,0,9.2,0C514.3,614.6,511.2,614.6,508.1,612.6z"/>
<path class="st257" d="M672.5,615.2c0,0.4,0,0.8,0,1.3c-10.5,2-21.1,2.6-31.7,3.6c-2.8,1.5-3.9-1.2-5.7-2.2c1.3-1.1-2.6-4.3,1.7-4.2
	c4.7,0.9,9.4,1.9,14.1,2.6c1.7,0.3,3.9,0.6,5.2-0.2C661.5,612.9,666.8,612,672.5,615.2z"/>
<path class="st258" d="M636.8,613.8c-3.3,0.3,2.5,4.2-1.7,4.2c-4.5-0.5-7.6-4.2-11.7-5.4c-1.4-1.6-3.7-1.5-5.2-2.9l0.1,0.1
	c-2.5-1.4-5.4,0.4-7.8-1.2c-0.4-0.2-0.8-0.3-1.3-0.5C619.3,605.6,628.3,608.3,636.8,613.8z"/>
<path class="st259" d="M610.4,608.6c2.7-0.3,5.5-0.8,7.8,1.2C615.6,609.5,612.7,611.1,610.4,608.6z"/>
<path class="st259" d="M618.2,609.6c2.3-0.1,4.2,0.5,5.2,2.9C621.3,612.2,619.4,611.7,618.2,609.6z"/>
<path class="st260" d="M677.6,619.3c6.6,2,13.5,0.3,20.1,1.3c2.3,1.9,6.1-1.5,7.8,2.4c-15.4,0-30.7,0-46.1,0c-0.9-2.5,2-1.2,2.5-2.4
	C667,618.5,672.4,620,677.6,619.3z"/>
<path class="st261" d="M705.5,623c-2.1-2.5-5.7,0.2-7.8-2.4c5.8,0.2,11.7-1.3,17.3,1.2c-0.1,0.8-1,0.8-1.4,1.2
	C710.9,623,708.2,623,705.5,623z"/>
<path class="st262" d="M725.6,621.8c3.9,0,7.9,0.1,11.8,0.1c-1.9,2.1-4.4,0.9-6.6,1.3c-1.8,0-3.6-0.1-5.4-0.1
	c-0.4-0.3-0.5-0.6-0.3-0.9C725.3,621.9,725.5,621.8,725.6,621.8z"/>
<path class="st263" d="M725.6,621.8c-0.1,0.4-0.1,0.8-0.2,1.3c-4,0-7.9,0-11.9,0c0.5-0.4,0.9-0.8,1.4-1.2c1.3-0.1,2.5-0.3,3.8-0.4
	C721.1,621.6,723.3,621.7,725.6,621.8z"/>
<path class="st264" d="M661.9,620.5c-0.8,0.8-1.6,1.6-2.5,2.4c-0.9,0-1.8,0.1-2.8,0.1c-0.6-0.4-1.2-0.9-1.7-1.3
	C657,620.3,659.5,620.4,661.9,620.5z"/>
<path class="st265" d="M576.1,98.3c2.8-0.1,3.6,1.1,3.5,3.2c-0.1,2.1-0.4,4.3-3.1,4.1c-1.7-0.1-3.4-1.1-3.4-3.3
	C573.1,99.9,574.3,98.5,576.1,98.3z"/>
<path class="st266" d="M595.6,101.6c0,2.4-1.3,3.8-3.6,3.6c-2-0.2-2.9-1.6-3-3.7c0-2.6,1.2-3.5,3.7-3.4
	C595,98.3,595.6,99.6,595.6,101.6z"/>
<path class="st267" d="M595.6,116.1c0.1,2.4-1.1,3.2-3.3,3.2c-2.7,0-3.4-1.5-3.3-3.8c0.1-1.9,0.5-3.7,3.1-3.2
	C594.2,112.7,595.9,113.5,595.6,116.1z"/>
<path class="st268" d="M564.4,115.5c-0.2,2.1-0.9,3.8-3.4,3.7c-2.3,0-3.6-1.3-3.7-3.6c-0.1-2.9,2-2.8,4-2.9
	C563.4,112.5,564.7,113.1,564.4,115.5z"/>
<path class="st269" d="M608.6,119.2c-2.9,0.2-3.9-1.2-3.7-3.6c0.1-1.8,0.3-3.7,2.9-3.3c2.1,0.3,3.8,1,3.7,3.7
	C611.4,118.1,610.6,119.4,608.6,119.2z"/>
<path class="st270" d="M577.1,112.2c2.1-0.2,2.5,1.5,2.5,3.4c0.1,1.8-0.1,3.6-2.6,3.6c-2.3,0.1-3.6-1.1-3.9-3.4
	C572.9,113.1,574.9,112.7,577.1,112.2z"/>
<path class="st271" d="M576.4,126c2.4-0.2,3.8,1.1,3.8,3.3c0,1.8-1.1,3.3-3.3,3.2c-2.3-0.1-3.6-1.2-3.8-3.5
	C573,126.7,574.3,125.9,576.4,126z"/>
<path class="st269" d="M611.5,129.3c0.1,2.2-1,3.2-3.2,3.2c-2.1,0-3.3-0.8-3.4-3c-0.1-2.5,1-3.6,3.5-3.5
	C610.7,126,611.5,127.3,611.5,129.3z"/>
<path class="st272" d="M561.2,104.9c-2.9,0.6-3.7-0.5-3.9-2.2c-0.3-2.5,0.7-4.3,3.4-4.5c2.2-0.2,3,1.1,3.1,3.2
	C563.9,103.9,562.5,104.9,561.2,104.9z"/>
<path class="st273" d="M595.6,129.1c0,2.6-1.1,3.7-3.3,3.3c-2.1-0.3-3.1-1.6-3.1-3.6c0-2.4,1.6-2.8,3.5-2.8
	C595,126,595.7,127.4,595.6,129.1z"/>
<path class="st274" d="M620.8,88.8c-23.4,0-46.8,0-70.2,0c-0.4-0.3-0.5-0.6-0.4-0.9c0.1-0.3,0.2-0.4,0.4-0.4c21.1,0,42.2,0,63.3,0.1
	C616.2,87.6,618.8,86.6,620.8,88.8z"/>
<path class="st275" d="M601.3,79.5c-9.8,0-19.6,0-29.3,0c0-0.3,0-0.6,0-0.8c9.8,0,19.6,0,29.4,0C601.3,78.9,601.3,79.2,601.3,79.5z"
	/>
<path class="st276" d="M550.6,87.5c0,0.4,0,0.9,0,1.3c-2.5-2.3-0.9-5.2-1.3-7.9C551.5,82.8,550.1,85.3,550.6,87.5z"/>
<path class="st277" d="M802.6,170c-3.3,4.3-7.9,6.4-12.6,8.5c-1.5,0.7-3.5,0.6-3.8,2.9c-0.7,0.8-1.5,1-2.3,0.1l0,0
	c-4.2,0.1-5.7-2.6-6.3-6.1c-1.3-1.7-2.6-1.3-4-0.2c-1.4,2.6-1,6.8-5.7,6.3c-12.2-3.9-21.2-11.6-27.6-22.6c-0.4-1-0.9-2-1.3-3
	c-1.9-1.2-2.4-2.8-1.5-4.9c0.1-1.7,0.1-3.5,0.2-5.2c2-2,4.1-1.7,6.4-0.5c2.1-2.1,2-4.2,0.1-6.3l-0.1-0.1c-2.9-1.3-8.3-0.1-6.5-6.4
	c0.6-9.9,7.7-20.3,15.7-23c0.9-0.4,1.8-0.9,2.6-1.3c1.7-2.8,4.3-3.9,7.3-4.4c8-2.9,8.5-2.7,11,4.6c1.2,0.9,2.4,0.9,3.4-0.3
	c2.5-7.3,3-7.5,11.3-3.2c13.7,5.6,22.1,15.7,25.4,30c1.2,5.2-3.3,3.2-5.4,4.3c-2.3,1.6-0.9,3.7-0.9,5.6c0.3,3.9,4.3,6.3,4.4,10.3
	c-0.1,0.6-0.3,1.1-0.6,1.7c-1.6,2.2-4.3,3.7-4.4,6.9c-0.5,0.6-0.9,1.1-1.4,1.7C803.9,166.2,803,167.9,802.6,170z"/>
<path class="st92" d="M753.3,109.8c-7.5,6.2-12.5,14-15.7,23c-2.9-2.8-3.3-5-1-9.1c3.1-5.4,6-10.5,10.9-14.6
	C750.1,107,751.6,107.2,753.3,109.8z"/>
<path class="st278" d="M764,102.1c0.2-1.4,0.8-2.5,2.4-2.5c6.3-0.1,12.6-0.1,18.8-0.1c2.2,0,1.7,1.4,1.3,2.7c-3.6,1-8.4,0.2-9.2,5.7
	c-1,0.5-2,0.4-3-0.2c-1-4-3.1-6-7.4-4.5C765.8,103.5,764.8,102.9,764,102.1z"/>
<path class="st92" d="M744.1,145.5c-2.1,0.2-4.2,0.3-6.4,0.5c-1,0.4-2,0.8-2.9,1.2c-3.9-2.2-0.6-6.4-2.6-9.2
	c0.7-1.5,2.3-3.1,2.4-0.2c0.1,3.9,1.3,4.8,4.9,4.2C741.9,141.5,743.8,142.7,744.1,145.5z"/>
<path class="st279" d="M811.8,156.5c-0.3-4.3-5-6.6-5.1-11.1c3.5-1.2,7.1-2.7,8,3c-0.1,0.9-0.2,1.8-0.3,2.7
	C814.2,153.3,814.7,155.7,811.8,156.5z"/>
<path class="st92" d="M762.8,105.1c-2.3,1.1-4.6,2.2-6.8,3.4c-0.4-1.4-4.2-1.7-2.3-3.4c2.3-1.9,5.3-5.3,9-1.7
	C763.4,103.9,763.5,104.5,762.8,105.1z"/>
<path class="st280" d="M762.8,105.1c0-0.6-0.1-1.1-0.1-1.7c0.4-0.4,0.9-0.9,1.3-1.3c1.9,0,3.9,0.2,5.7,0c4.2-0.5,5.2,1.7,4.9,5.3
	c1,1.7-0.3,2.6-1.3,3.6c-0.2-0.1-0.5-0.2-0.5-0.4C772.8,102.7,768.1,103.5,762.8,105.1z"/>
<path class="st280" d="M777.2,107.4c-0.1-7.4,5.5-4.8,9.3-5.3c0.8,1,1.7,2.1,2.5,3.1c-0.9-0.1-1.8-0.1-2.6-0.4
	c-4.9-2-7.5-0.9-6.8,4.9c0,0.4-0.8,0.9-1.2,1.4C777.5,110,776.2,109.1,777.2,107.4z"/>
<path class="st93" d="M811.8,156.5c0.9-1.8,1.7-3.6,2.6-5.4c1.7,5.8-1.3,9.7-5.2,13.3c0,0-0.3-0.3-0.3-0.3
	C807.7,160.7,810.2,158.8,811.8,156.5L811.8,156.5z"/>
<path class="st92" d="M737.6,151.1c0.5,1.6,1,3.3,1.5,4.9c-0.9,1.2-1.9,4-3.5,1.9C733.8,155.7,734.4,152.7,737.6,151.1z"/>
<path class="st95" d="M814.6,148.4c-1.3-4.8-5.7-1.1-8-3c0.2-2.1-1.3-4.5,1.1-6.3c0.2,0.1,0.5,0.1,0.7,0.2c0.4,0.3,0.6,0.7,0.7,1.2
	c0,0.4,0,0.8,0,1.3c0.8,1.6,2.8,1.6,4,2.6C815.7,144.9,816.5,146.2,814.6,148.4z"/>
<path class="st281" d="M819.6,135.3c0,4.4,0,8.7,0,13.1c-0.8,0.3-2.4,0.5-2.2,0.1C818.9,144.2,817.2,139.4,819.6,135.3z"/>
<path class="st95" d="M807.7,139.2c1.7-2.3,6.8,1.3,6.8-3.9c4,1.9,1.5,3.5-0.1,5.3c-1.9-1.4-4.3,0-6.3-1L807.7,139.2z"/>
<path class="st282" d="M732.2,138c2.6,2.6,0.3,6.5,2.6,9.2c-0.9,1.4-2.1,3.1-2.5,0C731.9,144.2,732.2,141,732.2,138z"/>
<path class="st283" d="M813,144.5c-1.3-0.9-5.3,2.3-4-2.6C811,141.9,812.3,142.7,813,144.5z"/>
<path class="st284" d="M744.2,139.2c-1.5,2-3.4,1.1-5.3,0.4C740.6,139.5,742.3,139.3,744.2,139.2
	C744.1,139.2,744.2,139.2,744.2,139.2z"/>
<path class="st285" d="M808.1,139.5c2.1,0,4.4-0.9,6.3,1c-1.8,0-3.5,0.1-5.3,0.1C808.7,140.2,808.4,139.9,808.1,139.5z"/>
<path class="st286" d="M778.6,173.6c2.1,2.4,0.1,7.6,5.4,7.9c-3,1.2-5.4,0.7-6.8-2.6c-1.1-1-1.2-2.2-0.8-3.6
	C776.9,174.4,777.6,173.8,778.6,173.6z"/>
<path class="st286" d="M767.9,181.6c5.2-0.3,3.2-5.5,5.3-7.9c0.8,0.1,1.4,0.6,1.8,1.3c0.1,0.5,0,1-0.4,1.4
	C772.4,178.2,773.7,184.3,767.9,181.6z"/>
<path class="st287" d="M783.9,181.5c0.8,0,1.5,0,2.3-0.1c1.7,0.2,2.9,0.8,2.9,2.8c-1.8,0-3.5,0-5.3,0.1
	C783.9,183.4,783.9,182.5,783.9,181.5z"/>
<path class="st288" d="M774.6,176.3c0-0.4,0-0.8,0-1.3c0.9-0.7,1.7-0.7,2.6,0c0,1.3,0,2.6,0,3.9
	C773.9,180.5,774.7,177.9,774.6,176.3z"/>
<path class="st279" d="M811.8,156.5c-1,2.5-2,5.1-3,7.6c-0.4,0-0.8-0.1-1.1-0.1C803.9,158.7,809.4,158.5,811.8,156.5z"/>
<path class="st279" d="M802.6,170c-0.8-3.1-2.1-6.6,3.6-4.4C805.9,167.9,804.2,168.9,802.6,170z"/>
<path class="st289" d="M193.9,176.4c2.9-3.5,16.3-6,18.9-3.3c0.9,0.9,0.7,2.9,1,4.3c-4.4,3.9-9.6,3.7-14.9,2.9
	C196.7,179.7,194.8,178.6,193.9,176.4z"/>
<path class="st290" d="M198.1,178.9c5.3,0.1,10.6-0.2,15.7-1.5c-0.5,0.9-1.1,1.9-1.6,2.8c-5.2,1.4-10.5,2.9-16,1.6
	c-0.5-0.4-1-0.9-1.5-1.3C195.4,179.2,196.3,178.2,198.1,178.9z"/>
<path class="st291" d="M196.2,181.9c5.4-0.2,10.6-2.2,16-1.6C207.2,183.8,201.9,184.8,196.2,181.9z"/>
<path class="st292" d="M187.6,143.9c0.2-1.3,0.1-2.9,1.7-3.2c1.7-0.3,2.1,1.2,2.2,2.6c0.1,1.6-0.1,3.5-1.9,3.6
	C188,147,187.9,145.2,187.6,143.9z"/>
<path class="st293" d="M202.2,163.9c2.8-1,4.9-1.2,7.6,0.4C206.9,166.3,204.9,166.2,202.2,163.9z"/>
<path class="st294" d="M220.1,145.1c-1.5-2.9-1.8-4.9,0-7C222.7,140.1,222.3,142.1,220.1,145.1z"/>
<path class="st295" d="M193.8,128.8c-2.1,2.8-4.2,4-6.4,0C189.6,127.5,191.7,127.5,193.8,128.8z"/>
<path class="st296" d="M160.4,160.6c1-0.5,1.9-0.9,2.9-1.4c0.3,2.1,2.2,3.8,1.2,6.3C162.5,164.3,161.4,162.5,160.4,160.6z"/>
<path class="st297" d="M198.1,178.9c-1.1,0.6-2.3,1.1-3.4,1.7c-1.8-1.1-2.1-2.5-0.8-4.2C195.1,177.5,197.3,176.9,198.1,178.9z"/>
<path class="st298" d="M193.8,128.8c-2.1,0-4.2,0-6.4,0C189.6,126.3,191.7,126.6,193.8,128.8z"/>
<path class="st299" d="M212.5,128.2c4.2-1.4,6.4-1.7,8.8-0.3C218.8,129.1,216.6,128.7,212.5,128.2z"/>
<path class="st300" d="M152.6,151.5c-1.8,1.3-2.9,2.1-4,2.9C148.5,152,149.5,151.1,152.6,151.5z"/>
<path class="st301" d="M235.4,153.8c0-4.7,0-9.5,0-14.2c0.2,0,0.3,0,0.5,0c0,4.7,0,9.5,0,14.2C235.7,153.8,235.6,153.8,235.4,153.8z
	"/>
<path class="st6" d="M238.2,140.6c1.8,1.9,2.9,3.7,0.9,6.1C236.7,144.8,238,142.5,238.2,140.6z"/>
<path class="st302" d="M241.3,159.2c-0.4,3-0.9,6-1.3,9C238.5,165,237.9,161.8,241.3,159.2z"/>
<path class="st303" d="M238.7,182.8l-0.5,0c0,0-0.5,0-0.5,0c0.1-2.6,0.2-5.2,0.3-7.8c0-0.1,0.4-0.2,0.6-0.1c0.2,0.1,0.3,0.3,0.5,0.4
	C238.9,177.8,238.8,180.3,238.7,182.8z"/>
<path class="st304" d="M248.4,183.9c0.3-2.5,1.6-3.7,4.1-3.5C251.5,182,250.3,183.3,248.4,183.9z"/>
<path class="st305" d="M563.4,554.2c-3,0.5-4-1.6-4.8-3.8c0.9,0,1.8-0.1,2.6-0.1C562,551.6,562.7,552.9,563.4,554.2z"/>
<path class="st306" d="M586.3,609.9c3.7-4.6,9.3-5.6,14.5-7.5C595.9,604.8,592.5,609.8,586.3,609.9
	C586.3,609.9,586.3,609.9,586.3,609.9z"/>
<path class="st307" d="M594.8,589.5c4.5-1,7.2-1.6,9.8-2.2C602.4,589.7,600.1,591.6,594.8,589.5z"/>
<path class="st308" d="M584.4,603.4c1.2-1.9,2.6-3,5.1-2.3C588.5,603.7,586.2,603.2,584.4,603.4z"/>
<path class="st309" d="M702.1,596c-2.6,0.8-4.8,1-7.4-0.1C697.3,595.1,699.5,594.9,702.1,596z"/>
<path class="st310" d="M599.5,612.7c-1.2,3.2-3.1,4.7-6.5,2.7C595.2,614.5,597.4,613.6,599.5,612.7z"/>
<path class="st311" d="M774.6,578.6c-4,1.1-6.6,0.9-10.6,0.2C768,577.8,770.6,577.9,774.6,578.6z"/>
<path class="st312" d="M787.8,574.1c0.1,1.8-0.9,2.6-2.6,2.6c-0.8-0.1-1.7-0.1-3.9-0.3C784.3,575.4,786.1,574.8,787.8,574.1z"/>
<path class="st313" d="M225.7,538.3c-1.7-2.6-0.9-4.8,1.3-6.6c0.2,2.4,1.5,2.8,3.6,2.1c2.3-0.8,4.7-1.5,7.1-2.3
	c0.2,0.5,0.4,1.1,0.6,1.6C234.1,534.8,229.9,536.6,225.7,538.3z"/>
<path class="st314" d="M223,534.3c-0.4,2.4-0.8,4.8-2.5,6.7c-0.6-4.6-4.9-8.2-4-13.3c1.5-0.8,1.9,0.6,2.6,1.3
	C219.5,531.4,218.4,535,223,534.3z"/>
<path class="st315" d="M234.9,523.6c0.1-1.4-0.2-3,1.4-3.9c5.8,2.2,7.1-4.5,11.6-5.9C245.5,520.2,240.1,521.8,234.9,523.6z"/>
<path class="st316" d="M231,495.9c2.4,2.3,0.9,5.3,1.3,8c-0.7-0.5-1.5-0.9-2.1-1.5c-2.3-2.2-2.2-2.2,0.5-4
	C231.2,498,230.9,496.7,231,495.9z"/>
<path class="st317" d="M239,499.9c-0.4-0.4-0.9-0.9-1.3-1.3c1-1.6,1.8-3.4,4.3-3.5C241.6,497.2,240.3,498.6,239,499.9z"/>
<path class="st318" d="M229.6,473.3c0.6,2.5-1.2,3.9-2.7,5.4C223.2,474.6,229.5,475.5,229.6,473.3z"/>
<path class="st319" d="M219,529c-0.9-0.4-1.8-0.9-2.6-1.3c0.3-0.9,0.2-2.4,1.7-1.9C219.5,526.3,218.9,527.9,219,529z"/>
<path class="st212" d="M236.8,476.1c-0.6,0.5-1.2,1.3-1.9,1.5c-0.9,0.3-1-0.7-0.6-1.1c0.5-0.6,1.3-1,1.9-1.5
	C236.3,475.3,236.5,475.6,236.8,476.1z"/>
<path class="st320" d="M879.3,281.2c3.1,3.6,4.8,7.5,2.2,12c-1.8,3.1-4.7,4.4-8.4,3.9c-7.4-1-9.4-8.2-4.2-15.8
	C872.3,279.3,875.8,279.4,879.3,281.2z"/>
<path class="st233" d="M879.3,281.2c-3.5-0.6-7-0.6-10.5,0.1C872.3,277.3,875.8,277.4,879.3,281.2z"/>
<path class="st321" d="M918.8,322.1c-0.6,0-1.3,0-1.9,0c-4.3-2.7-6.7-6.1-3.4-11.1c4.4-3,7.3-1.4,9.4,2.9
	C923.4,317.6,921.5,320.1,918.8,322.1z"/>
<path class="st322" d="M914,311.7c-2.3,4.4,0.9,7.3,2.9,10.5c-7.3-2-8.5-5.3-4.4-12C913.3,310.3,913.8,310.8,914,311.7z"/>
<path class="st323" d="M914,311.7c-0.5-0.5-1-1-1.6-1.5c4-2.8,7.6-2.8,10.7,1.4c0.8,1.3,1.2,2.4-1,2.5
	C920,311.1,917.8,308.9,914,311.7z"/>
<path class="st324" d="M922.1,314.1c0.3-0.8,0.7-1.7,1-2.5c3,5.3,1.5,8.8-4.3,10.6C919.3,319.2,922.7,317.5,922.1,314.1z"/>
<path class="st325" d="M518.5,610.7l-0.5,0.2c0,0-0.5-0.2-0.5-0.2c-1-7.7,1-15.2,1.2-22.9c0.1-3.7,1.7-5.4,5.4-2.5
	c6.1,4.8,6.7,11,1.5,16.9C523.2,605,520,607.1,518.5,610.7z"/>
<path class="st326" d="M486.6,608.6c-0.4-0.9-0.7-1.8-1.1-2.7c5.4-1.4,10.9-0.3,16.2,0.4c2.9,0.3,3.4-0.7,3.8-2.8
	c3.4,1,1.7,3.3,1.3,5.2c0,0.4-0.1,0.8-0.2,1.2c-0.6,0.4-1.3,0.5-2.1,0.2c-5.7-0.7-11.6,0.8-17.2-1.7
	C487.2,608.4,486.9,608.5,486.6,608.6z"/>
<path class="st327" d="M505.4,609.8c0.4,0,0.8,0,1.3,0c3.1,0.9,6.4-0.6,9.4,1.1c-3.5,0.1-7.1,0.3-10.6,0.4c-4.4,0-8.9,0-13.3,0.1
	c-0.5-0.1-0.9-0.3-1.4-0.4c0.1-0.4,0.2-0.7,0.2-1.1C495.8,608.7,500.6,609,505.4,609.8z"/>
<path class="st328" d="M506.8,608.6c-0.3-1.8,0.6-3.8-1.3-5.2c-0.3-2.9,1-5.4,2.1-8C507.7,599.9,509.3,604.4,506.8,608.6z"/>
<path class="st329" d="M505.4,609.8c-4.8,0.1-9.6,0.1-14.4,0.2c-1.2-0.4-3,0.3-3.5-1.6C493.4,609.4,499.6,607,505.4,609.8z"/>
<path class="st330" d="M778.5,146.5c-0.5,1.6-1,3.5-1.7,5.3c-0.2,0.5-1,1-1.5,1c-1,0.1-1.5-0.8-1.7-1.7c-0.7-4-11.5-2.7-5.2-10.2
	c2.7-3.3,2.9-10.7,6.8-10.1c4.3,0.6,1.2,7.1,2.1,10.9C777.7,143.3,778,144.7,778.5,146.5z"/>
<path class="st331" d="M759.4,148.6c1.3,2.2,4.2,0.1,5.2,2.5c-0.7,2-2.5,1.4-3.9,1.4c-1.9-0.1-4.3,0.9-5.5-1.1
	c-1.2-2,0.7-3.7,1.5-5.4c1.4-2.7,3.3-5.3,4.2-8.2c0.7-2.2,0.4-4.9-3.2-3c-0.9,0.5-1.6,1.9-2.6,0.5c-0.8-1.1-0.6-2.6,0.4-3.6
	c1.7-1.6,3.9-2.5,6.1-1.4c2.8,1.5,3.7,4,3.1,7.2C763.9,141.8,760.9,145,759.4,148.6z"/>
<path class="st332" d="M793.9,152.1c1.4-4.7,2.7-8.8,4-13c0.9-2.7,2.5-5.7-2.7-5.4c-0.8,0-1.7-0.5-1.7-1.6c-0.1-1,0.5-1.8,1.4-1.9
	c2.6-0.2,5.4-1.1,7.6,0.7c2.3,1.9,0.5,4-0.2,6c-1.3,3.7-2.6,7.5-3.7,11.2C797.9,150.4,797.7,152.6,793.9,152.1z"/>
<path class="st333" d="M789.6,129.4c-1.9,8.7-3.5,17.5-8.5,25.2C782.9,145.8,784.8,137.1,789.6,129.4z"/>
<path class="st334" d="M777.2,107.4c0.4,1.2,0.8,2.4,1.3,3.7c-1.7,0.7-3.5,0.8-5.2,0c0.4-1.2,0.9-2.4,1.3-3.6
	C775.5,107.4,776.4,107.4,777.2,107.4z"/>
<path class="st335" d="M777.2,175.1c-0.9,0-1.7,0-2.6,0c-0.5-0.5-0.9-0.9-1.4-1.4c1.8-1.5,3.6-1.4,5.4,0
	C778.2,174.1,777.7,174.6,777.2,175.1z"/>
<path class="st336" d="M772.6,140.1c1,1.5,1.2,3.2-0.4,3.6c-1.8,0.4-1-1.2-0.7-2.1C771.7,141.2,772.1,140.7,772.6,140.1z"/>
<g>
</g>
<g>
</g>
<g>
</g>
<g>
</g>
<g>
</g>
<g>
</g>
<g>
</g>
<g>
</g>
<g>
</g>
<g>
</g>
<g>
</g>
<g>
</g>
<g>
</g>
<g>
</g>
<g>
</g>
</svg>
