<?xml version="1.0" encoding="utf-8"?>
<!-- Generator: Adobe Illustrator 23.0.5, SVG Export Plug-In . SVG Version: 6.00 Build 0)  -->
<svg version="1.1" id="Layer_1" xmlns="http://www.w3.org/2000/svg" xmlns:xlink="http://www.w3.org/1999/xlink" x="0px" y="0px"
	 viewBox="0 0 663 477" style="enable-background:new 0 0 663 477;" xml:space="preserve">
<style type="text/css">
	.st0{fill:#BCEBFB;}
	.st1{fill:#FEFEFE;}
	.st2{fill:#004A6A;}
	.st3{fill:#FEB9B3;}
	.st4{fill:#FCD9D8;}
	.st5{fill:#F7F5F7;}
	.st6{fill:#2D2E33;}
	.st7{fill:#FCF8F8;}
	.st8{fill:#FBFBFB;}
	.st9{fill:#FAFBF9;}
	.st10{fill:#FBF7F6;}
	.st11{fill:#F7F6F6;}
	.st12{fill:#FBFAFA;}
	.st13{fill:#FAF9F8;}
	.st14{fill:#F6F5F7;}
	.st15{fill:#F8F7F8;}
	.st16{fill:#FAF6F4;}
	.st17{fill:#FBF6F4;}
	.st18{fill:#F8B2BB;}
	.st19{fill:#FCFCFC;}
	.st20{fill:#2B2C31;}
	.st21{fill:#FDFDFD;}
	.st22{fill:#F8F9F5;}
	.st23{fill:#FBF6F5;}
	.st24{fill:#F4F0EF;}
	.st25{fill:#F8F8F9;}
	.st26{fill:#F1C2C0;}
	.st27{fill:#FDB8A9;}
	.st28{fill:#FDBAA5;}
	.st29{fill:#F7F7F6;}
	.st30{fill:#F5B5AE;}
	.st31{fill:#FEB9B7;}
	.st32{fill:#FBBDB5;}
	.st33{fill:#FEB6AC;}
	.st34{fill:#7D5A5C;}
	.st35{fill:#FAFAFA;}
	.st36{fill:#F8F7F6;}
	.st37{fill:#F9F9F9;}
	.st38{fill:#FD1699;}
	.st39{fill:#F5F5F5;}
	.st40{fill:#DA9F77;}
	.st41{fill:#F8F9F6;}
	.st42{fill:#929292;}
	.st43{fill:#F4F7F6;}
	.st44{fill:#808080;}
	.st45{fill:#6B6B6B;}
	.st46{fill:#0F628D;}
	.st47{fill:#F4F3F0;}
	.st48{fill:#848484;}
	.st49{fill:#F9F5F0;}
	.st50{fill:#F9F1F7;}
	.st51{fill:#CDC9C5;}
	.st52{fill:#E7F1F2;}
	.st53{fill:#FD1D9A;}
	.st54{fill:#F3F3EE;}
	.st55{fill:#EBFBF7;}
	.st56{fill:#5F431B;}
	.st57{fill:#767676;}
	.st58{fill:#F5C047;}
	.st59{fill:#F0AF8F;}
	.st60{fill:#745A20;}
	.st61{fill:#007D98;}
	.st62{fill:#A1A1A1;}
	.st63{fill:#D8E1E7;}
	.st64{fill:#72582E;}
	.st65{fill:#008CC0;}
	.st66{fill:#919191;}
	.st67{fill:#A3A3A3;}
	.st68{fill:#262C2E;}
	.st69{fill:#312D34;}
	.st70{fill:#202D2D;}
	.st71{fill:#4D1F6D;}
	.st72{fill:#747474;}
	.st73{fill:#878787;}
	.st74{fill:#B69757;}
	.st75{fill:#727272;}
	.st76{fill:#156A97;}
	.st77{fill:#F6C6AB;}
	.st78{fill:#DCDCDC;}
	.st79{fill:#E5BD92;}
	.st80{fill:#3FA5BE;}
	.st81{fill:#F7D0B7;}
	.st82{fill:#F2FCF0;}
	.st83{fill:#D6D6D6;}
	.st84{fill:#A3805F;}
	.st85{fill:#63471B;}
	.st86{fill:#969696;}
	.st87{fill:#6F6F6F;}
	.st88{fill:#B3B3B3;}
	.st89{fill:#EEA48A;}
	.st90{fill:#838383;}
	.st91{fill:#717171;}
	.st92{fill:#6D6D6D;}
	.st93{fill:#6E6E6E;}
	.st94{fill:#70706F;}
	.st95{fill:#878786;}
	.st96{fill:#969695;}
	.st97{fill:#8A8A89;}
	.st98{fill:#6F6F6E;}
	.st99{fill:#FC1694;}
	.st100{fill:#FE0393;}
	.st101{fill:#FE1F9C;}
	.st102{fill:#FBC24A;}
	.st103{fill:#0076BB;}
	.st104{fill:#9B743E;}
	.st105{fill:#29919A;}
	.st106{fill:#4D1D6D;}
	.st107{fill:#C3923E;}
	.st108{fill:#F7B08E;}
	.st109{fill:#F6BCA0;}
	.st110{fill:#EDD0EE;}
	.st111{fill:#118CB0;}
	.st112{fill:#E7D8DB;}
	.st113{fill:#402169;}
	.st114{fill:#C6ABC1;}
	.st115{fill:#8E4B8F;}
	.st116{fill:#D7C0D9;}
	.st117{fill:#D3E6E6;}
	.st118{fill:#B66D4B;}
	.st119{fill:#FCD3B8;}
	.st120{fill:#DBDBDB;}
	.st121{fill:#2B004D;}
	.st122{fill:#EDD9E8;}
	.st123{fill:#F0A786;}
	.st124{fill:#4F236F;}
	.st125{fill:#CAA18A;}
	.st126{fill:#916D5C;}
	.st127{fill:#E6A582;}
	.st128{fill:#F6BB9E;}
	.st129{fill:#C27A58;}
	.st130{fill:#D6CAD8;}
	.st131{fill:#2B2C30;}
	.st132{fill:#F9D1CF;}
	.st133{fill:#FDD8D7;}
</style>
<circle class="st0" cx="339" cy="361" r="279"/>
<path class="st1" d="M465.4,478.6c-78.7,0-157.4,0-236.1,0c-0.6-5.2,3.1-8.2,6-11.6c2.6-0.9,4.1,0.7,5.1,1.9
	c-3.4-2.9,1.2-7.2-0.7-10.8c-0.1-0.6-0.1-1.2,0.1-1.8c1.3-3,3.1-5.8,3.6-9.2c1.1-2.6,1.4-5.6,4.4-7.1c2.3-1.1,0.3-2.6,0.3-4
	c-0.1-0.6,0-1.2,0.4-1.7c6.1-0.2,3.3-3.6,2.3-6.3c-0.1-0.6-0.1-1.2,0.1-1.8c1.4-2.7,1.9-5.7,2.9-8.5c0.9-2.2,1-4.8,3.4-6.2
	c0.6,0.2,1.2,0.4,1.8,0.8c-0.2-0.7-1.1-0.2-1.4-0.8c-2.1-4.9,3.8-8.5,2.1-13.3c0.2-0.6,0.4-1.2,0.8-1.6c2.8-2.3,1.5-5.8,2.5-8.6
	c0.3-2.1,0.1-4.3,0.7-6.5c0.2-0.6,0.6-1.1,1-1.6c2.4-3.4,8.6-2.8,8.8-8.4c0.3-0.6,0.6-1.1,1.1-1.6c2.9-1.5,4.5-8.4,9.2-2
	c-1.8-2.8-1.8-5.4-0.2-8c5,0.9,6.4-1.8,7.5-6.3c1.2-4.9,1.7-11.2,9.2-11.4c13,2.6,26,0.1,39-0.1c3.8-0.1,5-2.6,6.3-5.2
	c1.9-3.7,4.3-5.8,8.6-3.9c1.2,0.8,1.8,1.9,2.1,3.2c-0.3,6.6,4.4,11.3,6.7,16.9c0.4,0.5,0.7,1,1,1.5c0.6,1.3,1.4,2.6,2.3,3.7
	c0.3,0.5,0.5,1.1,0.6,1.7c-1.3,4.2-1.5,7.8,4.1,9.1c1.5,0.4,2.6,2.4,4.1,3.3c8.7,9.1,16.9,18.7,27,26.3c5.9,4.5,12.3,8.4,17.8,13.3
	c3.2,4.2,8,6.4,12.3,9.3c0.5,0.3,1.1,0.6,1.6,0.9c2.6,1.6,5.2,3.4,8,4.7c0.6,0.3,1.1,0.6,1.6,1c2.8,2.1,5.6,4,9.1,4.7
	c2.9,1.1,4.7,2.8,3.3,6.1c-1.1,3.4-0.1,6.7,0.9,9.9c2.3,7.5,5.4,14.8,7.9,22.3C465.2,473.3,466.7,475.8,465.4,478.6z"/>
<path class="st2" d="M235.5,467.5c-2.1,3.7-4.1,7.4-6.2,11.1c-18.2,0-36.4,0-54.6,0c-30.6-6-56.1-21.2-78.3-42.6
	c-0.4-2.5,1.1-4.4,2.2-6.4l0,0.1c0.2-2.4-0.1-5,1-7.3c6.4-13.7,10.4-28.5,18.4-41.4c3.2-8.6,8.8-15.9,12.8-24.1
	c0.3-0.6,0.6-1.1,1-1.6c1.1-1.4,2.1-3,2.9-4.7c1.7-2.7,3-5.9,6.4-7c2.9-0.5,5.3,0.1,7,2.6c0.7,2.4,2.5,3.1,4.8,2.9
	c8.4,2.4,15.7,7.2,23.5,10.7c25,11.1,51.1,18.9,77.8,24.3c1.8,0.4,3.5,0.8,5.2,1.5c1.4,0.6,2.5,1.5,3.2,2.9c0.2,2.9,0.1,5.8-2,8.2h0
	c-0.5,0.5-1.1,0.7-1.7,0.7c-2.6-0.6-0.9-6.3-5.2-4.5c-1.2-0.4-0.8,1-0.7,0.1c0-0.2,0.2-0.1,0.6-0.1c4.6,0.1,3.8,5,6.3,7
	c-0.5,6.5-4.6,12-5.5,18.4c-1.8,2.5-1.2,6.1-3.4,8.4l0,0c-0.2,3-0.3,6-2.9,8.2l0,0c0.1,4.1-3.1,7.2-3.5,11.2
	c-2.1,3.4-2.3,7.5-4.6,10.8l0-0.1C239.6,460.7,239.7,465,235.5,467.5z"/>
<path class="st2" d="M465.4,478.6c-4-11.5-8-23-12-34.6c-0.9-2.5-1.3-4.9,1.2-6.7c9.1-5,19.1-6.4,29.1-8.2
	c6.9,0.3,13.4,3.6,20.4,3.6c0.9-0.2-0.1-1.3,0.2-0.5c1,2.5-8.3-0.6-12-4c-0.1-0.7,0-1.3,0.3-1.9c4.1-3.1,9.2-3.9,13.8-5.6
	c23.5-8.6,46-19.2,66.9-33.1c1.5-0.3,2.8-0.2,3.9,1.1c1.8,2.3,3.6,4.6,5.4,6.9c1.8,0.7,2.8,2.3,3.9,3.7c1.4,2.4,2.6,4.9,4.4,7
	c7.7,12.7,13.6,26.2,19.9,39.6c4.5,6.3,4.7,14,7.3,20.9c0,4.2,3.3,7.5,2.9,11.7C569.1,478.6,517.2,478.6,465.4,478.6z"/>
<path class="st2" d="M96.5,436c3.9-0.5,5.7,3,7.8,4.9c14.1,13,30.4,22,47.9,29.4c7.4,3.1,15.3,4.9,22.5,8.4c-38.2,0-76.4,0-114.6,0
	c0.4-0.6,0.9-1.1,1.3-1.7c1.8-2.7,3.2-5.7,6-7.7c2.1-2.8,4.2-5.5,6.4-8.3c2.2-4.9,6.1-8.5,9.6-12.4c0.6-1.1,2.6-0.8,2.7-2.4
	C88.4,441.7,91.2,437.5,96.5,436z"/>
<path class="st3" d="M259.2,387c-37.6-6.9-73.3-19.3-107.2-36.9c-1.9-0.2-3.5-0.9-4.5-2.7c-1.7-2.3-4-2.9-6.7-2.9
	c2-6.6,2.1-13.3,1.1-20.1l0,0c-1.8-3,0.4-6.6-1.3-9.7c-1.7-20.4-3.5-40.8-5.2-61.3c-0.4-4.9-0.2-9.9-0.3-14.9
	c0.5-7.7,1.8-15.3,3.4-22.9c0.7-3.5,0.9-7.1,3.5-9.9l0,0c3.1-9.8,6.2-19.5,10.9-28.7l0,0c1.2-2.2,1.5-4.7,2.8-6.8l0,0
	c1.8-4.9,4.4-9.6,4.9-15c1.1-2.8,1.5-5.9,3-8.6c0.2-0.4,0.5-0.9,0.8-1c11.1-2.9,13.9-11.8,15.6-21.4c0.4-2.3,1.1-4.4,3.7-5.2
	c4.5-0.2,6.7,3.7,9.9,5.5c0.7-24.1,0.1-48,0.3-72c0-1.8-0.2-3.6,1.1-5.2c0.9-0.4,1.6-0.3,2.3,0.5c1.8,2.9,1.5,6.1,1.5,9.3
	c-0.1,77.8,0.1,155.7-0.1,233.5c0,4.9,1,10-1.9,14.6c-4.8-0.7-2.8-4.5-2.8-6.9c-0.2-23-0.1-46.1-0.1-69.1c0-3.8-0.3-7.7-0.1-11.5
	c-0.3-15.7-1.5-31.4,0.8-47c0-0.3,0.1-0.5,0.1-0.7c-0.3,0.4,0,0.9-0.1,1.3c0.9,0.1-0.6,0,0,0.7c-3.7,10.9-6.3,22-7,33.5
	c-0.3,5,0.4,9.1,5.8,10.8c1.2,17.5,0.5,34.9,0.5,52.4c0,18.4,0.5,36.7,0.6,55.1c0,4.6,1,8.5,4.3,11.8c1.9,2.7,5.1,3.2,7.9,4.3
	c19.7,1,39.3,0.2,59,0.4c8.4,0.1,16.7-0.2,25.1,0.2c0.8,0.1,1.5,0.3,2.2,0.7c0.6,0.4,1,0.9,1.2,1.7c-0.8,2.4-2.9,4.2-3.1,6.9
	c-1.4,4.3-4.5,7.4-7.7,10.4c-1.8,4.5-6.1,6.9-8.9,10.6l0,0c-2.6,3.8-5.8,6.9-9.5,9.6l0,0C263.2,382.8,261.9,385.5,259.2,387z"/>
<path class="st4" d="M180.1,117c1.4,0.9,2.8,1.8,4.1,2.7c-2.5,1.1-2.7,3.2-2.8,5.6c-0.1,5.3-2.8,9.9-4.8,14.6
	c-2.3,5.4-8.1,5.6-12.9,7.2c-1.7-3.1,0.6-5.5,1.4-8.2c1.6-4.9,3.1-9.8,4.7-14.7C171.4,119.2,174.1,115.6,180.1,117z"/>
<path class="st5" d="M609.8,446c0.5,0,1.1-0.1,1.6-0.1c5.4,1,9,2.6,5.4,9.3c-1.9,3.7,2,7.6,1.2,11.7
	C615.3,459.9,612.6,452.9,609.8,446z"/>
<path class="st6" d="M349.5,25.8c-0.1,5.4-0.2,10.7-0.3,16.1c-1.2,0.7-2.3,0.1-3.4-0.4c-1.5-1.2-2.6-2.7-2-4.8
	c2.1,0.4,5,2.5,4.3-2.4c-0.4-3.3-0.1-6.6-0.1-9.9C348.5,24.8,349,25.3,349.5,25.8z"/>
<path class="st7" d="M165.1,138.8c-0.5,2.7-0.9,5.5-1.4,8.2c-0.9,2.7-0.8,5.8-2.6,8.2c-0.5,0.6-1,0.6-1.5,0
	C162.1,149.9,161.1,143.5,165.1,138.8z"/>
<path class="st8" d="M189.3,19.2c0.4,2.5,0.7,5-3.6,6.5C187.3,22.9,188.3,21,189.3,19.2z"/>
<path class="st8" d="M187.7,13.6c1.1,0.1,1.7,0.9,1.3,1.8c-0.3,0.7-1.2,1.4-1.9,1.5c-1.2,0.2-1.3-0.9-1.3-1.8
	C186,13.9,186.8,13.6,187.7,13.6z"/>
<path class="st8" d="M349.5,328.3c4.4-0.4,3.5,3.2,4.1,5.6c-3.5-0.9-5.6-0.3-6.7,3.9c-0.7,2.7-1.8,7-7.1,5.8
	c-5.5-1.3-10.9,1.3-16.4,1.3c-7.7-0.1-15.5,0.6-23.2-1.4c-2.8-0.8-4.7-1.9-2.1-5c7.9-2.1,16.1-0.6,24.1-1c5.1-0.3,10.3,0.3,15.4-0.4
	C343.2,336.4,345.1,330.6,349.5,328.3z"/>
<path class="st9" d="M297.5,339.6c-0.1,2,2,2.5,2.7,3.9c-7.4,0.6-6.1,7.4-8.1,11.7c-1.1,2.4-1.3,5.2-1.9,7.9c-3,0.3-3.5-3.9-6.4-3.2
	c-0.5,0.5-0.9,0.5-1.4,0c1.9-3.8,5.7-6.5,6.9-10.7c1.3-1.9,1.9-4.3,4-5.6l0,0c1-1.4,0.4-3.7,2.5-4.4
	C296.6,338.9,297.1,339.1,297.5,339.6z"/>
<path class="st10" d="M365.8,358.5c3,4.9,6.5,9.5,8.3,15c-2.8-0.8-4.1-3.5-7.1-4.6C361.7,366.8,365.4,362.1,365.8,358.5z"/>
<path class="st11" d="M235.5,463.5c1.3-3.7,2.3-7.5,4.6-10.8c1.2,2.2,3.8,4,1,7c-2.7,2.9,2.1,5,1.6,8.1
	C239.6,467.2,238.7,463.4,235.5,463.5z"/>
<path class="st12" d="M282.5,359.9c0.5,0,0.9,0,1.4,0c0,2.7,0,5.4,0,8.5c-2.2-1.3-4.2-4-5.8,0.1c-0.6,1.6-2.1,2.3-3.9,2.2
	C275.5,366,280,363.7,282.5,359.9z"/>
<path class="st13" d="M354.9,336.5c3.5,5.6,7,11.2,8.2,17.8C358.5,349.3,354.6,343.9,354.9,336.5z"/>
<path class="st14" d="M259.7,396.9c0.3,0,0.7-0.1,1-0.2c2.8,5.7-2.9,9.8-2.7,15h0c-1.8,1.9-2.1,4.4-2.7,6.8
	c-0.6,0.6-1.1,0.5-1.6-0.1c1.8-6.4,3.6-12.7,5.4-19.1C258.6,398.4,258.3,397.5,259.7,396.9z"/>
<path class="st12" d="M264.7,380.3c2.9-3.4,5-7.7,9.5-9.6C276.5,379.3,268.4,377.7,264.7,380.3z"/>
<path class="st15" d="M244.1,445.5c0.6-3.9,1.9-7.4,4-10.7c3.2,3.7,3.1,3.6-1,7.3c-1.4,1.2-1.8,3.5-2.7,5.3
	C243.7,446.8,243.6,446.2,244.1,445.5z"/>
<path class="st15" d="M248.1,434.8c0.3-3,1.2-5.7,2.9-8.2c3.6,2.4,2.8,6.2,3.6,10.2C252,436.4,250.7,432.9,248.1,434.8z"/>
<path class="st12" d="M259.2,387c0.5-3.4,3-5,5.5-6.7c0,2.7,0,5.5,0,8.2c-0.9,0.8-1.9,0.8-2.9,0.1C261,388.1,260.1,387.6,259.2,387z
	"/>
<path class="st16" d="M419,413.1c5.1,2.4,10.1,4.9,13.7,9.5C427.4,420.5,422.5,417.8,419,413.1z"/>
<path class="st14" d="M261.9,388.6c1,0,1.9,0,2.9-0.1c-1.5,1.7-0.5,3.9-0.9,5.7c-0.3,1.5-0.3,4-3.2,2.4
	C260.5,393.9,262.6,391.5,261.9,388.6z"/>
<path class="st11" d="M244.1,445.5c0.1,0.6,0.2,1.2,0.3,1.8c0.3,3.9-1.4,7-4.4,9.4C240.7,452.7,241.9,449,244.1,445.5z"/>
<path class="st17" d="M442.2,428c3.8,0.7,6.7,3.1,9.5,5.5C447.5,433.6,444.6,431.2,442.2,428z"/>
<path class="st17" d="M432.7,422.6c4.2,0.2,7,2.6,9.6,5.5C438.3,427.6,435.4,425.2,432.7,422.6z"/>
<path class="st15" d="M253.6,418.5c0.5,0,1.1,0,1.6,0.1c-2,2.4-0.2,6.8-4.2,8.1C251.2,423.8,252,421,253.6,418.5z"/>
<path class="st14" d="M257.9,411.7c0.8-0.7,1.6-1.7,2.5-2c0.8-0.2,0.6,0.9,0.4,1.4C260.1,412.6,259.3,413.5,257.9,411.7L257.9,411.7
	z"/>
<path class="st10" d="M363.1,354.4c1.7,0.9,2.7,2.2,2.7,4.2C362.9,358.4,363,356.4,363.1,354.4z"/>
<path class="st0" d="M241,413.1c-6,0.7-8.9-2.6-8.8-7.7c0-4.9,3.4-8.3,8.2-8c4.7,0.4,8.2,3.3,8.1,9
	C248.3,411.6,245.9,413.9,241,413.1z"/>
<path class="st0" d="M234.7,440.4c-8,0.7-12.4-3.1-9.6-13.6c3.2-2.9,6.9-3.8,10.6-1.8c2.5,1.3,5.3,3.4,4.9,6.7
	C240.3,435.5,239.3,439.3,234.7,440.4z"/>
<path class="st0" d="M234.7,440.4c3.4-2.8,6.7-6.2,4.6-10.6c-3.1-6.3-8.8-4.6-14.1-3c1.6-5.1,6-4.9,9.4-3.7c3.7,1.3,7.5,4.2,6.8,9
	C240.8,435.8,240.9,440.9,234.7,440.4z"/>
<path class="st0" d="M259.7,396.9c-0.2,0.8-0.4,1.7-0.6,2.5c-2.6-2.7-4-7.2-9.4-5.5C256,390.4,256,390.4,259.7,396.9z"/>
<path class="st2" d="M159.3,362c3.5-2.5,5.6-2.4,7.9-0.4C165.1,361.7,163,361.8,159.3,362z"/>
<path class="st2" d="M147.5,347.3c1.9,0.3,3.3,1.4,4.5,2.7C148.9,351.8,146.9,351.6,147.5,347.3z"/>
<path class="st2" d="M483.9,430.7c0.2-0.4,0.4-0.8,0.6-1.2c2.4-1.7,4.9-2.5,7.8-1.6c4.4,4,10,4.2,15.7,4.3
	C499.6,434.6,491.9,431.9,483.9,430.7z"/>
<path class="st18" d="M492.3,427.9c-2.6,0.5-5.2,1-7.8,1.6c-2.1-2.9-6.1,0.1-8.2-2.7c0.4-0.5,0.9-0.5,1.3,0c1.4,0,2.7,0,4.1,0
	c1.4-1.1,2.7-1.1,4.1,0c2.4,0,4.7,0.1,7.1,0.1C492.8,427.2,492.5,427.6,492.3,427.9z"/>
<path class="st1" d="M346.4,116.9c0,3.6,0,7.2,0,10.8c-5.5,3.8-12,2.9-18,3.5c-3.6,0.3-0.8,2-1.2,3c-0.1,2.3-1.4,3.6-3.5,4.4
	c-5,0-9.9,0.7-14.9,0.5c-2-0.1-4.6-0.2-4.8-2.8c-0.3-2.9,1.8-4,4.4-3.9c1.7,0,3.5,0.4,3.1-2.2c-0.6-3.4,0.5-7.4-2.9-10
	c-1.7-1.3-3.6-0.9-4.9,0.5c-3.2,3.3-7.2,3.5-11.4,3.4c-9.3,0-18.6,0-28,0c-2,0-4.1,0.1-6.1-0.5c-6.3-1.8-6.2-1.8-10.5,0.5
	c-0.9-0.4-1-1.4-1.5-2.1c0.2,0.8,0.6,1.6,1.3,2.2c-1.3,6.3,0,12,3.6,17.3c0.4,0.5,0.8,1,1.1,1.5c0.5,0.8,0.8,1.7,0.5,2.7
	c-0.4,0.5-0.9,0.9-1.4,1.2c-0.8,1.4-3.6,1.8-1.3,4.7c2.2,2.8,3,0,4.4-0.3c3.3-0.7,6.7-0.4,10.1-0.4c6.9-0.1,14.8,1.8,16.3-8.5
	c1.2-0.6,2.5-0.7,3.8-0.5c4.2,1.1,8.7,1,12.9,2.3c1.9,0.6,2.8-0.5,3.9-1.6c0.9-0.5,1.8-0.6,2.8-0.5c5.5-0.2,10.4,3.5,16.1,1.8
	c2.1-0.6,2.9,1.5,3.5,3.2c0.6,1.8-0.4,3.8,0.8,5.5c0.5,3.1,1,6.2,1.5,9.4c-1.7,8.6,0.7,15.8,7.6,21.4c0.4,0.3,0.7,0.8,0.6,1.1
	c-2.9,13.5,13.5,18.7,13.4,31c0.2,6.1,0.2,12.2,0,18.3c-2.8,14.4-1.9,29-2.6,43.6c0,5.6-2.1,11-2.1,16.6c-0.9,3.3-0.8,6.7-0.2,10
	c0.2,0.7,0.1,1.4-0.3,2c-4.2,2.8-7,7.2-11.8,9.3c-33.8,0.6-67.7,0.5-101.5,0.1c-3-0.8-4.6-2.5-1.4-4.8c1.9-1.4,2.8-2.6,2-4.8
	c0.3-2.6,2.6-2,4.1-2.6c2.7-2.2,1.8-4.6,0.7-7.1c-0.4-0.5-0.8-0.9-1.2-1.4c-1.5-5.1-4.9-9.5-5-15c0-0.6,0.2-1.2,0.6-1.7
	c0.1-0.6,2.3-0.3,1.1-1.2c-4.4-3-8.2-6.8-12.7-9.6c-8.7,0.3-10.3,1.3-10.5,9.5c-0.2,7.9-1,15.8-1.1,23.7c0,3-0.7,5.7-4.2,5.9
	c-4,0.2-4-3.2-3.8-5.8c4.9-45.2-0.1-90.6,2.7-135.8c0.6-8.9,1-9.4,9.8-9.8c1.1,0,2.3,0,3.4,0c1.7,0,3.5,0.1,5.2-0.3
	c3.3-0.9,7.5,2.6,10.1-2c1.1-0.4,2.3-0.4,3,0.3c2,2.2,1.7-0.6,2.4-1.1c1.8-1.7,3.8-3.1,5.6-4.7c1.2-1,3.9-0.2,3.7-3
	c-0.2-2.4-1.6-4.8-3.8-5.1c-6.6-0.8-7.8-5.8-9.4-10.7c-0.4-1.9-0.5-3.8-1.1-5.7c-0.2-0.9-0.5-1.9-0.8-2.8
	c-7.2-2.7-14.3-1.6-21.4,0.6c-2.2,0.7-0.7,3-1.5,4.5c-0.6,1-1,2.1-2.3,2.3c-1.6,0.2-2.4-1-2.9-2.3c-0.7-2-0.7-4-0.7-6
	c0-15.2,0-30.3,0-45.5c0-0.9,0-1.8,0.1-2.7c0.2-2,0.1-4.8,2.3-5.2c2.7-0.5,3.5,2.3,4.2,4.5c0.4,1.3,0.7,2.6,1,3.9
	c3.4,7.5,0,14.7-0.8,22.1c2.4,8.8,3.8,9.5,12.6,9.7c6.5,0.1,13-0.8,19.4,0.1c3.6,0.5,6.1-0.5,6.7-4.6c0.3-2.1,1.3-3.8,3.8-4
	c19,1.1,38-0.1,57-0.2c6.2,1,12.3,1.2,18.5-0.4c3.8-0.5,7.6-0.7,11.5-1c5.9-0.4,8.6,2.4,9,8.3C345.6,108,344.2,112.6,346.4,116.9z"
	/>
<path class="st19" d="M206.1,74.6c-0.9-2.8-0.8-6.1-3.6-9.5c0,20.9,0,40.6,0,60.5c0.9-0.2,1.6-0.3,1.6-0.4c0-8.6,6.3-8.1,12.2-8.9
	c3.5-0.5,7,1.5,10.6-0.4c1-0.5,5.6-0.7,3.8,3.7c-2.6-0.1-5.2-0.3-7.8,0.6c-0.6,0.1-1.2,0.2-1.8,0.1c-4.9-1-9.1-0.7-9.3,5.8
	c-0.6,2.7-1,5.3,0.6,7.8c0.8,1.9,2.6,3.1,3.8,4.7c0.2,0.6,0.3,1.1,0.2,1.7c-1.1,2.6-3.4,2.3-5.6,2.4c-0.9,0-1.3,0.3-0.4,0.2
	c0,0,0.1,0.4,0.2,0.6c-0.6,1.8-1.3,3.7,0.6,5.2c1.5,1.8,4,2.7,5.2,5c0.2,1,0.1,1.9-0.6,2.6c-13.2,0-13.4,0-13.6,14.6
	c-0.2,12.5,0,24.9,0,37.4c0,24.5,0,49,0,73.5c0,5.1,1.1,10.4-2.3,15.1c-0.8,1.1-0.3,3.1-0.3,4.7c0,1.6,0.2,3.5,2.5,3.2
	c2.2-0.3,2.7-1.8,2.7-3.9c0-9,0-17.9,0.4-26.9c0.1-3.4,2.7-9,4.1-8.4c3.7,1.4,8.4-5.6,10.8,1.4c-0.4,1.8-2.2,2.7-3,4.3
	c-2.1,3.7-4.3,7.3-2.6,11.8c0.1,0.6,0.2,1.2,0.3,1.8c2.2,5.6-3.3,6.8-5.5,10c-1.1,2.1-0.8,4.2-0.3,6.3c4.9,4.3,10.3,7.7,17.2,7.3
	c0.7,1.4,0.5,2.7-0.3,3.9c-8.7,4.2-17.4,3.8-26.1,0c-0.7-0.3-1.3-0.7-1.9-1.2c-1.4-1.8-2.6-3.7-1.3-6c0.1-23.2,0.3-46.3,0.3-69.5
	c0-59.6,0-119.2,0-178.8c0-3.2-0.2-6.3-0.2-9.5c0-2.7,2.1-4.4,3.1-6.6c2.5-2.6,5.5-3.7,9.2-3.7c42,0.1,84,0.1,126,0
	c3.7,0,6.5,1.5,9.3,3.6c0,0-0.1,0-0.1,0c0.9,1.3,1.8,2.7,2.8,4c0.9,0.9,0.9,1.8,0.3,2.8c-0.2,0.8-0.3,1.7-0.5,2.5
	c-5.8-2.1-11.4-5.5-17.8-2.2c-39.5,0.4-79,0-118.4,0.2c-7.3,0-4.5,5.3-4.7,9c0.9,2.5,3.1,2,5,2.1c39.6,0.1,79.3-0.3,118.9,0.2
	c1.3,0.2,2.5,0.6,3.4,1.6c-0.6,6.8-5.9,5.9-10.1,5.7c-34.9-1.7-69.8-0.3-104.8-0.8c-1.4,0-2.7,0.5-3.9,1c-2.5,0.5-1.7,2.2-1.9,4
	C211.7,74.1,211.1,78.2,206.1,74.6z"/>
<path class="st20" d="M198.1,310.7c0.4,0.1,0.8,0.1,1.2,0.1c3.5,2.9,7.6,3.5,12.1,3.5c33.8-0.1,67.5-0.1,101.3,0
	c10.6,0,21.2,0.5,31.3-3.4c4.2,5.1,5.7,11,5.6,17.5c-1.9,4.6-4.3,8.7-9.7,9.9c-14.1,1.2-28.3,0.2-42.4,0.5c-0.8-0.1-1.6-0.5-2.1-1.1
	c-1.3-1.6-3-1.8-4.9-1.8c-27.3,0.1-54.6-0.1-82,0.1c-0.7,0-1.3,0.2-2,0.3c-1.8,0.7-3.6,1.8-5.6,1.4c-5.4-3-8.7-7.1-7.4-13.7
	c0.8-3.8,0.1-7.7,0.5-11.5C194.2,309.7,195.3,308,198.1,310.7z"/>
<path class="st21" d="M331.7,45.8c6.5-4.3,10.3,0.9,14.7,4.1c0,10.5,0,21,0,31.4c-0.9,0.9-0.9,1.9,0,2.8c0,10.9,0,21.8,0,32.7
	c-4.7-2.4-2.2-6.7-2.4-10.1c-0.4-9.4-1.2-10.3-10.5-9.1c-2.9,0.4-5.8,0.1-8.7,0.1c-1.7-1.6-2.1-3.8-2.9-5.8c1.3-3.5,4.5-2.4,7-2.6
	c2.9-0.2,5.8,0.7,8.7-0.3c-0.4-1.6-1.9-1.8-2.9-2.6c-12-1-24.1-0.1-36.1-0.7c-15.2,0.2-30.5,0-45.7,0.4c-0.6,0.2-1.2,0.4-1.8,0.7
	c-3.6,3-1.1,7.5-2.7,11c-0.4,0.5-1.2,1.1-1.1,1.6c1.3,8.4-3.9,8.6-9.8,7.9c-0.8-2.5-4.5-2.5-4.7-5.5c0.1-0.6,0.4-1.2,0.8-1.7
	c1.7-1.8,4.3-0.9,7-2.6c-3.9-2.9-4.7-7.9-9-10.6c-3.6-2.3-3.5-7.4-0.3-11.7c-3.5,0.9-4,0.9-3.9-2.5c0.2-4.6-2.3-4.1-5.2-3.5
	c-3.1,0.1-6-0.9-9-1.5c-0.7-0.3-1.2-0.7-1.6-1.2c2.1-2.6,5-2.7,8-2.7c32.7,0,65.4,0,98.2,0c5.3,0,11,2.5,15.3-2.7
	c0.3-0.2,0.5-0.3,0.8-0.5c1.5,0.1,2.7,0.4,2,2.3c3.1-5.1,0.6-9.6-2.1-14c-0.7-0.6-1.4-1.2-1.8-2C331.8,46.4,331.7,46.1,331.7,45.8z"
	/>
<path class="st4" d="M357.6,237.1c0.7,7.6,0.7,15.2-1.4,22.5c-1,3.5-2.5,6.9-6.8,7.5c-2.9,0.4-2.5,2.6-2.7,4.6
	c-0.4,3.5,1.2,7.2-1.3,10.4c-1.1-1.3-0.6-3-0.7-4.5c-0.1-11.8,0.9-23.6,1.5-35.3c0.1-2.3,1.6-3.2,3.5-3.8c0.4-0.5,0.8-0.9,1.2-1.4
	C353,235.3,355.3,235,357.6,237.1z"/>
<path class="st22" d="M345.2,278c0,1.4,0.1,2.8,0.1,4.1c-1.7,9.5-1.6,19.1-1.3,28.7c-2.7,3.2-6.1,4.1-10.2,4.1
	c-41.5-0.1-82.9,0-124.4,0c-3.9,0-7.8-0.3-10.1-4.1c8.4,4,17.1,2.9,25.9,1.4c0.6,0.2,1.1,0.7,1.4,1.2c35.5,0,70.9,0,106.4,0
	c4.1-1.7,7.4-4.1,9.5-8.1c0-0.5,0-0.9,0-1.4c-1-3.2-1-6.4,0-9.5c0.5-5.5,0.9-10.9,1.4-16.4C344.3,277.4,344.8,277.4,345.2,278z"/>
<path class="st8" d="M346.3,213.9c-1.5-0.3-2.6-1.2-2.4-2.8c1-7.1-3.5-9.9-9-11.8c-1.7-0.6-2.3-2-1.8-3.1c3-8.1-2.1-14.2-6.3-19.1
	c-5-5.8-2.9-10.1-0.6-15.2c5.1,11.6,10.1,23.2,15.2,34.7c1,2.2,2.5,4.3,3.8,6.4C346.1,206.5,349.3,209.9,346.3,213.9z"/>
<path class="st23" d="M377.3,275.6c5,5.3,4.8,11.9,7.5,17.2c4.1,8.2,8.3,16.5,12.3,24.8c0.6,1.1,1.7,2.5,0.2,3.6
	c-1,0.7-2.3,0.2-2.8-0.9C387.9,306,373,295,377.3,275.6z"/>
<path class="st24" d="M357.6,237.1c-2.3,0-4.5,0-6.8,0c0-6.3,0-12.6,0-18.9c0.4-0.2,0.8-0.4,1.2-0.6c2.7,5.4,5.5,10.8,8,16.3
	C360.8,235.8,359.5,236.8,357.6,237.1z"/>
<path class="st25" d="M346.4,133.2c-4.5-0.5-8.7-4.1-13.5-1.3c-2.1,1.1-4,3.3-6.7,1.5c-0.4-1.3-3-0.2-2.6-2.3c0.2-1,0.9-1.7,1.8-1.6
	c7.1,0.6,14-1.1,21-1.6C346.4,129.6,346.4,131.4,346.4,133.2z"/>
<path class="st26" d="M346.3,213.9c1.1-3.8-1.5-7.2-1.1-10.9c1.9,2.7,5.3,4.9,2.8,9c1.9,8.7-0.4,17.5,1.3,26.2c0,0,0.4,0.4,0.4,0.4
	c-0.3,1.6-1.1,2.6-2.8,2.6c-1.8-2.1-0.7-4.4-0.4-6.7C346.4,227.6,346.3,220.7,346.3,213.9z"/>
<path class="st27" d="M485.8,426.8c-1.4,0-2.7,0-4.1,0c-0.5-0.7-1.6-1.8-1.4-2c1.1-1.5,2.8-0.6,4.2-0.6
	C486.9,424,486.3,425.5,485.8,426.8z"/>
<path class="st28" d="M477.6,426.8c-0.4,0-0.9,0-1.3,0c-1.2-0.2-2.7,0.5-3.8-1.6C474.7,424.9,476.3,425.2,477.6,426.8z"/>
<path class="st25" d="M346.4,80.2c-1.3-0.2-2.8-0.3-2.8-2c0-0.2,1.8-0.5,2.8-0.8C346.4,78.4,346.4,79.3,346.4,80.2z"/>
<path class="st29" d="M192.4,215.5c-3,1.7-6.4,4.2-6.8-2.1c-1-13.7,2.4-26.7,6.2-39.7c0.1-0.4,1.1-0.6,1.7-0.9
	c2,6.6,0.6,13.3,0.9,20c0.3,6.5,0.1,13.1,0,19.6C194.4,213.8,193.7,214.9,192.4,215.5z"/>
<path class="st30" d="M192.4,215.5c0.4-0.5,0.7-1,1.1-1.5c1.3,1,0.9,2.4,0.9,3.7c0.3,29.9-0.4,59.9,0.3,89.8
	c0.1,5.5,0.4,11.3-0.8,16.9c-0.6,5.6,1.5,9.8,6.6,12.3c0.3,0.4,0.5,0.7,0.4,1.1c-0.1,0.4-0.2,0.6-0.3,0.6c-1,0.4-1.9,0.4-2.7-0.3
	c-4.7-4.6-5.6-10.3-5.6-16.7c0.2-31.1,0-62.1,0.3-93.2C192.6,223.9,189.5,219.7,192.4,215.5z"/>
<path class="st31" d="M189,223.3c0,33.1,0,66.2,0,99.3C185.4,312.8,186.6,226.2,189,223.3z"/>
<path class="st32" d="M197.9,338c1-0.1,2-0.1,3.1-0.2c1.2-0.6,2.5-0.5,3.8-0.5c27.2,0.2,54.5,0,81.7,0.1c3.3,0,6.9-0.7,9.7,2.1
	c-0.9,1.3-1.8,2.6-2.7,3.9c0-0.5,0-0.9,0-1.4c-2.3-1.3-4.9-0.6-7.3-0.7c-24.7-0.1-49.3,0-74-0.1c-2.4,0-5,0.6-7.3-0.6
	C202.3,340.2,199.8,339.9,197.9,338z"/>
<path class="st33" d="M204.7,340.8c27.2,0,54.4,0,81.6,0c2.4,0,5-0.9,7.1,1.3c-27.2,0-54.4,0-81.6,0
	C209.4,342.1,206.7,343,204.7,340.8z"/>
<path class="st32" d="M293.4,343.5c-1,2.1-1.8,4.4-4,5.6C289.7,346.5,290.1,344,293.4,343.5z"/>
<path class="st34" d="M296.1,339.6c-28.4-0.1-56.7-0.1-85.1-0.2c-2.6,0-5.5,0.8-7.9-1.2c2.3-2.4,5.4-2.1,8.3-2.1
	c25.6,0,51.3,0,76.9,0c2.7,0,5.5-0.2,7.8,1.7c14.6,0.1,29.1,0.2,43.7,0.3c-5.6,2.5-11.5,0.8-17.3,1.1c-8.3,0.4-16.7,0.3-25,0.4
	C297,339.6,296.6,339.6,296.1,339.6z"/>
<path class="st35" d="M320.7,241.2c0.6,1.7,1.1,3.5,1.9,5c1.4,2.7,0.4,4.9-1.5,6.7c-1.7,1.5-3.6,2-6.2,0.9c-6.8-3-14.1-3-20.8-0.1
	c-3.1,1.4-6.8,1-8.3,0.2c-6.6-3.4-13.3-1.3-19.9-1.8c-2.9-0.2-5.9-0.3-8.6-1.4c-3.4-1.4-6.6-2.3-8.2,2.3c-1,3-2.5,0.7-3.4,0.2
	c-2.1-1.1-2.3-3.6-3.9-7c-0.7,13.2-9.5,7.4-15.2,8.6c-0.3-0.3-0.4-0.7-0.4-1.1c0.1-0.4,0.1-0.6,0.2-0.6c0.8-1,1.9-1.7,2.9-2.4
	c0.7-0.6-0.2,0.2,0.5-0.4c1.8-1.6,4.5-2.7,4.2-5.6c-0.1-1.2-1.5-1.6-2.7-1.5c-3.3,0.1-3.8,2.7-4.5,5.1c-0.3,0.9-0.6,1.7-1.2,2.4
	c-5.6-0.6-3.2-5-3.9-8c0.2-1.6,1.4-2.6,2.3-3.8c1.6-2.2,1.9-4.7,1.7-7.3c0-0.6,0.1-1.1,0.4-1.7c1.2-1.7,1.7-3.5,1.2-5.5
	c-2.1-4.4-6-3.8-9.3-2.6c-4.5,1.6-3.2,5.8-3,9.4c1.1,3.3,4.9,5.9,2.5,10.1c-2.5,2.5-6.7,0.9-8.9,3.8c-1.2,0.9-2.4,1.3-3.8,0.5
	c-1.9-7.7,3.5-15,0.6-23c-0.8-2.2,0.2-7.1,6.1-6.4c4.5,0.5,9.2-2.6,13.8,1.3c1.4,1.2,3.7-3.3,7.1-1.3c-2.6,1.9-3,4-0.9,7
	c2,2.8,4.2,5.9,3.3,9.9c-0.2,1.1,0.4,2.7,1.7,2.2c4.7-1.6,9.7,2.4,14.6-1.1c2.2-1.6,6.1-1,9.2-1c19.2,0,38.5-0.4,57.7,1.3
	c2.1,0.2,4.2,0.1,5.1,2.5C323.8,238.9,322.5,240.2,320.7,241.2c-0.4-0.5-0.9-1-1.4-1.5c-1.6-1.3-3.4-2.1-5.5-2.1
	c-9.2,0-18.4-0.5-27.5,0.3c-0.2,0-0.4,0.3-0.4,0.4c0,0.2,0.2,0.4,0.3,0.6c8.8,0.6,17.5,0.1,26.3,0.3
	C315.4,239.3,318.4,238.9,320.7,241.2z"/>
<path class="st8" d="M234.7,185.2c7.8,1.5,14.4-5.7,12.9-13.9c-0.3-1.4-3.1-2.3-2.1-2.3c2.6-0.2,4.3-2.9,5.9-2.6
	c16.5,2.6,33.1,0.3,49.6,1.1c0.6,0,1.2,0.3,1.8,1.2c-15.8,0-31.6,0-47.4,0c0,0.5,0,1,0,1.5c9.1,0,18.1,0.3,27.2-0.1
	c9-0.4,18.1,1.7,27-1.6c2.7-1,3.6,2.3,3.6,3.8c0,3.3,0.5,7.7-5.1,7.3c-2-4.8-5.7-6.2-10.8-6.1c-12.5,0.3-25,0.1-37.5,0.1
	c-2.5,0-5-0.2-7.6,1.4c1.9,3.5,5.1,2.6,7.7,2.6c12.7,0.1,25.4,0,38.1,0.1c3.1,0,6.4-0.5,9,2.1c5.1,4.7,10.8,6.9,17.6,4.7
	c2.2-0.7,3.4,0.3,4.1,2.2c-4.2,3.1-9,1.3-13.6,1.9c-4.3,0.6-8.9-1.4-12.8,1.7c-1.7,1-3.4,1.5-5.2,0.2c-2.9-3.1-6.7-1.6-11.1-2.3
	c4.3,1.7,8.1-0.2,11.2,2.2c-0.8,1-1.6,2-2.5,3.1c-0.5,0.5-1.2,0.8-1.9,0.9c-0.7,0.1-1.4,0-2.1-0.2c-5-1.4-10.7,1.5-15.3-2.4
	c-0.2-0.7-0.3-1.3-0.1-2c0.3-2.9-1.9-2.6-3.6-2.7c-5.9-0.1-11.8,0-17.6-0.1c-3.4,0-5,1.4-5,4.8c0,3.7,1.7,5.2,5.4,5.2
	c10.6-0.1,21.3-0.1,31.9,0c2.9,0,5.9-0.5,8.4,1.8c0.5,3.7-3.9,0.9-4.5,3.1c0.6,1.8,2.8,0.1,3.3,2.4c-10.5-2.3-20.5,3.4-31,1.4
	c-2.1-0.4-4.9,0.8-6.1-1.8c-2.7-6.1-7.5-3.2-10.1-1.3c-6.6,4.9-13.2,2.1-19.9,1.8c1.6-2.5,4.9-3.2,5.8-6.3c1.5-2.1,1.8-3.9-1.1-5.2
	c-1.8-0.8-3.8-1.3-4.9-3.1c-0.7-1.9,0.7-2.8,1.9-3.8c1-0.7,2-1.3,3.2-1.4C232.6,184.5,233.6,185,234.7,185.2z"/>
<path class="st8" d="M323.5,137.4c-0.1,3.2-0.1,6.3-0.2,9.5c-4.9-0.9-9.8-1.9-14.7-2.7c-1.5-0.2-3.2,0.1-4.3-1.3
	c3.2-3,7.3-1.2,10.9-2.2c-4.5,0.3-9.2-1.4-13.4,1.7c-0.2,1.9,0,4.9-2.9,3.7c-4.5-1.8-9.5-0.6-13.7-3.1c1.8-2.2,4.6-1.5,7.9-2.2
	c-6.6-0.3-12.3-0.1-18.4-0.2c2.3,1.1,4.9,0.3,6.3,2.4c-2,9.5-2,9.5-12.3,9.5c-3.8,0-7.7-0.2-11.5,0.1c-1.1,0.1-5-2.1-3.2,2.5
	c0.1,0.3-0.2,0.7-0.3,1.1c-0.8-0.3-2.4-0.6-2.4-0.9c0-2.8-6.4-2.2-3.4-6.7c1-1.4,0.1-4.5,3.4-2.7c0.6,2,2.1,3,4,3.1
	c6,0.5,11.9,0.6,17.9-0.4c-6.8-2.7-14.3,1-20.8-2.8c-0.4-1-0.9-1.9-1.3-2.9c3.3-2.8,7.3-1,10.9-2.2c-3.6,0.6-7.8-1.8-10.9,2.2
	c-5.2-5.5-8.7-11.4-4.2-19.1l0,0c1.1-0.9,3.4-0.6,3-2.9c-0.2-1-2.6-2.1-0.3-3c1.2-0.5,3.1-1.2,4.2,0.8c2.2,4.3,6.2,3.8,10.1,3.8
	c8.4,0,16.8,0.1,25.2,0c5.2-0.1,10.8,1.4,14.6-4.5c1.3-2,4.2-1.1,6.4,1.1c4.5,4.4,1.9,10,3.2,14.9c0.3,1.2-1.6,1.9-3.1,0.8
	c-1.6-1.2-3.3-1.7-4.8,0c-0.4,0.4-0.6,1.4-0.4,1.8c1.3,1.8,3.3,1,5,1C314.6,137.6,319.1,136,323.5,137.4z"/>
<path class="st19" d="M311.2,279.4c1.7,4.9,5.3,6.2,10.1,5.5c2-0.3,4.1,0,6.1-0.1c3.6-0.1,7.2,0,6.9,5.1c-0.2,4.9-3,4.1-6.7,3.6
	c-5.9-0.8-7.7,2.3-5.1,7.7c1.5,3.1,0.2,4.9-2.8,5.3c-2.7,0.3-5.5,0.3-8.2,0.1c-6.8-0.5-13.6-1.1-20.4-1.6c-0.8-0.1-2,0-2.5-0.5
	c-10.2-10.9-22-5.7-33.6-3.8c-3.3,0.5-6.3,0.8-9.2,2.5c-1.9,1.1-2.9-0.3-2.9-2.3c0.1-7.4,1.8-14.1,8.2-18.7c1.3-1.2,2.8-1.2,4.4-0.7
	c3.6,2.4,7.7,1.4,11.6,1.6c2.8,0.2,5.8-0.4,8.3,1.4c0.9,1.2,0.3,2-0.6,2.7c-4.5,1.8-9.3,0.6-13.9,1.1c-2.3,0.2-4.9-0.9-6.9,1
	c6.8,1.6,13.6,0.6,20.4,0.6c0.5-0.2,1-0.5,1.4-0.9c1.4-1.5,0-4.5,2.9-5.2c7.1-1.2,14.3-0.2,21.5-0.6c2.4-0.1,5,0.9,7-1.4
	C308.2,280.3,309,278.7,311.2,279.4z"/>
<path class="st36" d="M337.1,85.6c1.2,1.5,3.8,2.8,2.5,4.9c-0.6,1-3.3,1.2-5,1.1c-4.2-0.3-8.4-1.6-12.4,0.8
	c-0.2,0.2-0.4,0.5-0.6,0.7c-2.4,1.4-5.1,1-7.7,1.1c-2.6,0.1-4.6,1-6,3.2c-0.3,0.2-0.5,0.3-0.8,0.5c-7.5,2.3-15.2-0.1-22.6,0.5
	c-9.7,0.8-19.3,0.3-28.9,0.8c-2.5,0.1-5,0-7.2-1.4c-2-4.4-1.7-8.5,1.5-12.2c3.6,3.7,8.1,1.7,12.2,2.1c2.9,0.3,5.8,0.2,8.6,0
	c-6.8-1.2-14.1,1.7-20.8-2c1.9-2.4,4.6-1.4,6.9-1.4c14.1-0.1,28.1,0,42.2,0c1.6,0.6,2.9,1.6,4.3,2.6c9.5,2,19.1,0.6,28.6,0.8
	c1.5,0,2.3-1.2,3.4-2C335.8,85,336.4,85,337.1,85.6z"/>
<path class="st0" d="M307.1,179.8c-16.8-0.1-33.6-0.1-50.4-0.3c-3,0-7.6,1.7-7.7-3.8c-0.2-6.2,4.9-4.1,8-4.2
	c14.8-0.2,29.5,0.2,44.3-0.2c6.7-0.2,8.8,2,6.9,8.3c0,0-0.6,0-0.6,0S307.1,179.8,307.1,179.8z"/>
<path class="st0" d="M255.2,230.2c-1.6,0-3.2-0.1-4.9-0.1c-2.5-1.5-3.4-3.8-2.2-6.4c1.2-2.7,3.7-2.5,6.4-2.5
	c16.5,0.3,33.1,0.5,49.6-0.1c3.3-0.1,5.5,0.5,5.6,4c0.1,2.9-1,5.7-4.4,5.7C288.6,230.6,271.9,231.8,255.2,230.2z"/>
<path class="st37" d="M255.2,282.1c-1.4,0-2.7,0-4.1,0c-1.7-0.6-4.3,1.4-5.2-1.4c-0.9-2.8-3.1-6,1.1-8.2l0,0
	c2.7-1.7,5.7-1.4,8.6-1.4c15.6,0,31.3,0,47-1.1c-16.6,0-33.3,0-49.9,0c0-0.5,0-1,0-1.5c17.1,0,34.2-0.4,51.3,0.3
	c3.3,0.1,6.8,4.3,9.6,7.1c1,1-0.9,2.7-2.4,3.5c-1.3,0.5-2.2,1.4-2.7,2.7C290.7,284.3,272.9,284.3,255.2,282.1z"/>
<path class="st35" d="M255.2,230.2c15.6-0.1,31.3-0.2,46.9-0.3c3.1,0,6.7,0.8,6.6-4.3c-0.1-5-3.8-3.5-6.4-3.6
	c-15.6-0.1-31.3-0.1-46.9,0c-7.1,0-7.6,1-5,8.1c-6.4,0.6-2.9-6-5.8-7.9c2.8-1.1,5.4-2.8,8.5-2.4c15.8,2.1,31.7,0.3,47.5,1
	c2.5,0.1,4.1-1.7,6.3-2.1c4.5-0.8,6.9,2,6.3,6.2c-1,6.3-3.2,7.8-10.1,7.2c-13.5-1.3-27.2-0.3-40.8-0.4
	C259.8,231.5,257.1,232.5,255.2,230.2z"/>
<path class="st38" d="M226.5,189.3c1.8,0.6,3.7,1.2,5.5,1.9c4.6,1.9,5.7,4.4,1.4,7.9c-2.7,2.9-6.1,4.5-10.1,4.5
	c-2.9-1.3,0.2-3.7-1-5.3c-0.3-0.9-0.1-1.9,0-3c-0.7,1.5-1.6,2.7-1.6,4.3c0.1,1.2,0.1,2.4-0.7,3.4c-0.5,0.4-1.1,0.5-1.7,0.3
	c-2.1-1.1-4.8-1.3-5.7-4.1c0.6-0.7,0.8-1.6,0.8-2.5c-0.4,0.8-0.1,1.9-0.9,2.6c-0.9,0.6-1.8,0.6-2.8,0.4c-1.7-1.8-5.4-2.5-3.2-6.3
	c0.9-0.8,1.7-1.6,2.6-2.4c2-3.1,5.9-0.2,8-2.7c2.4-0.8,4.7-0.6,7,0.1C224.9,188.7,225.6,189.1,226.5,189.3z"/>
<path class="st39" d="M294.8,198.8c-13.6,0-27.2-0.3-40.8,0.2c-5.7,0.2-7.4-2.9-7.4-7c0-3.9,1.6-7.6,7.4-7
	c6.8,0.6,13.6,0.1,20.4,0.2c4.1,0.1,5.7,1.7,2.6,5.4c-0.4-0.5-0.9-0.9-1.3-1.3c-7.4-1.8-14.9-1-22.3-0.5c-0.4,0.9,0.2,1.1,0.9,1.3
	c6.6,0.2,13.1,0.2,19.7-0.1c0.7,0,1.3,0.3,1.9,0.8c5.1,3.3,11.3-0.9,16.4,2.5c-1.6,2-4,2-6.2,1.9c-9.9-0.1-19.7,0.4-29.4-0.2
	c10.8,1.3,21.4,0.2,32.1,0.6c1.8,0.1,3.5-0.3,4.6-2c0.6-0.1,1.2-0.1,1.7-0.2c0,0,0,0,0,0c0.5,0.3,0.6,0.6,0.5,0.9
	c-0.1,0.3-0.3,0.5-0.4,0.5C294.8,196.1,294.8,197.5,294.8,198.8z"/>
<path class="st40" d="M212.8,285c0-0.5,0-1,0-1.4c2.2-8.2,4.5-9.6,12.1-7c0.7,0.6,1.2,1.2,1.6,2c0.3,0.5-0.3,1.4,0.7,1.6
	c-0.1-0.7,0-1.3,0.3-1.9c0.5-0.4,1-0.5,1.6-0.1c0,0.4,0,0.9,0.2,1.3c3,5.7-2.3,8.6-4.2,12.7c-0.2,0.9-0.4,1.8-0.9,2.5
	c-0.5,0.4-1,0.7-1.5,1c-1.8,0.4-3.2,1.8-5.1,1.8c-2.1-1.1-2-3.1-2-5C216.4,289.3,213.8,287.5,212.8,285z"/>
<path class="st41" d="M211.5,66.4c0.5,0,0.9,0,1.4,0c1.4,1.9,4.2,0.9,5.7,2.6c-1.4,3.7-5.4,6.5-3.8,11.2c0.3,2.2,2.3,3.6,3.1,5.6
	c0.6,1.6,0.7,3.2,0.4,4.8c-0.2,0.6-0.5,1.2-0.8,1.7c-3.3,1.2-7.4,0.4-10,3.6c-0.5,0.4-1.1,0.6-1.7,0.7c-1.5-3.4-1.6-6.4,1.1-9.7
	c3.4-4-1.4-8.1-0.8-12.4c3.7,0.3,5.8-0.9,4.3-5.1C209.8,68.1,208.8,66.6,211.5,66.4z"/>
<path class="st8" d="M232,127.9c2.5,3.4,1.8,9.9,9.3,8.8c1.4-0.2,4.3,3.4,4.8,6.3c0.3,1.8-0.7,3.9-1,5.8c-4.8-2.6-6.4,3.7-10.3,3.7
	c-2.2,0.4-1.9-1-1.8-2.4c4.1-4,1.8-7.5-1.3-10.2c-3.7-3.1-4.7-6.3-2.9-10.7C229.5,128.2,230.4,127.2,232,127.9z"/>
<path class="st42" d="M252.5,145.7c6.8,0.1,13.6,0,20.4,0.2c2.1,0.1,5.3-0.7,5.2,2.6c-0.1,2.7-3,2.2-4.9,2.2
	c-6.4,0.1-12.7,0.1-19.1,0c-3.5-0.1-5.5-1.3-2.7-5C251.8,145.9,252.1,145.9,252.5,145.7z"/>
<path class="st43" d="M229.4,129.4c-2.3,6.3,3.6,8.6,6.2,12.4c2.8,4,2.9,6.4-2,8.1c-0.2-0.3-0.3-0.5-0.5-0.8c-0.1-1.9,0.7-4.2-2-5.1
	c-1.1-0.4-2.4-0.4-3.1,0.7c-1.5,2.3-1.7,4.6,0.4,6.7c0.5,0.3,0.8,0.8,1.1,1.3c-1.7,6.9-6.2,2.7-9.7,2.5c-0.3-0.5-0.3-1.1-0.1-1.6
	c0.3-0.5,0.5-1,0.9-1.5c1.1-2.6,0.2-5.1-0.2-7.6c-0.1-0.6-0.1-1.2-0.1-1.8c0.4-2.2,2-3.7,3.4-5.3c0.4-0.5,0.8-0.9,1.1-1.3
	c1.8-1.8,1.4-4.3,2.4-6.4c0.4-0.5,0.9-0.8,1.5-0.8C228.9,129,229.1,129.2,229.4,129.4z"/>
<path class="st36" d="M233.3,101.8c1.2,2,4.4,2.5,4.1,5.6c-6.6-0.2-13.1-0.7-19.7-0.6c-8.6,0.2-10.6-1.2-12.1-10.2
	c0,0,0.4-0.2,0.4-0.2c3.5-0.7,4.9,2.6,7.4,3.9c2.4,1.3,4.7,2.6,7.5,2.6c0.9,0,1.8,0,2.7,0c1.8,0,3.6-0.2,5.1-1.4
	C230.4,100.9,231.9,100.5,233.3,101.8z"/>
<path class="st44" d="M281.1,142.9c-0.2,0-0.5-0.1-0.7-0.1c-3.5-1.2-10.2,2.1-10.2-2.6c0-3.7,6.9-1.4,10.7-1.7c4.5-0.4,9-0.1,13.6,0
	c1.4,0,2.9,0.1,3,1.9c0,1.7-1.4,2.2-2.8,2.2c-3.2,0.2-6.3,0.2-9.5,0.3C283.9,142.9,282.5,142.9,281.1,142.9z"/>
<path class="st45" d="M302.4,190.2c-1.3-3.3,0.5-4,3.3-3.9c7.7,0.2,15.4,0.3,23.1,0.4c0,0,0,0,0,0c1.6,4.4-1.4,3.9-4,3.9
	C317.3,190.4,309.9,190.3,302.4,190.2z"/>
<path class="st22" d="M225.2,308c-3.5,2.8-8,2.2-11.4-1.6c-1.3-1.4-3.1-1.8-4.9-1.7c-4.7,0.3-1.6-2.2-1.5-3.7
	c4.7-0.7,8.5,3,13.2,2.5c5.9,0,10.7-1.8,12.9-7.8c0.3-0.6,0.7-1,1.3-1.4c0.4,0,0.9,0,1.3,0c0.7,3.8,2.2,7.7-1.4,10.9
	c-1.4,0.5-2.7-1.6-4.1,0C229.2,307,227.5,308.2,225.2,308z"/>
<path class="st46" d="M204.8,245.4c0.9-0.5,1.8-1.1,2.6-1.6c4.2-2.4,8.3-4.2,11.9,1.1c-0.1,3.3,5,8.2-2.8,9.2
	c-3.7-0.4-6.4-2.5-9.1-4.8C206.6,248,205.7,246.7,204.8,245.4z"/>
<path class="st29" d="M217.2,189.3c-1.9,4.3-5.5,1.2-8.2,1.7c-1-2.5-2.6,0.9-4.1-0.6c3.8-4.6,2.8-10.4,2.7-15.7
	c-0.1-4.8,2.5-7.7,8-7.2c0.5,3.3-4.1,4.1-3.7,7.4c-1.5,5.6-0.5,10.1,5.2,12.7C217.5,188.1,217.5,188.7,217.2,189.3z"/>
<path class="st19" d="M346.4,234.4c0.1,2.2,0.3,4.4,0.4,6.7c-0.1,7.6,0.4,15.3-0.5,22.8c-0.6,4.7-0.7,9.4-1,14.1c-0.4,0-0.9,0-1.3,0
	c0-12.5,0-24.9,0.2-37.4C344.2,238.5,345.6,236.5,346.4,234.4z"/>
<path class="st47" d="M210.4,174.7c-0.7-4.2,3.3-5,5.2-7.3c3.4,0,7,0.8,10-0.2c4.9-1.7,6.1,1.8,6.2,4.4c0.1,4.8,3.6,8.7,2.9,13.5
	c-1,1.5-2,1.3-2.8-0.2c-1.8-1.7-1.7-4.1-2.4-6.2c-2.8-8.3-7.4-10.1-14.9-5.8C213.3,173.8,212.1,174.9,210.4,174.7z"/>
<path class="st48" d="M301.8,142.4c-0.1-1.8-0.4-3.8,2.3-3.9c4.5-0.1,9-0.1,13.4,0c1.1,0,2.4,0.1,2.6,1.5c0.3,1.8-1.1,2.4-2.4,2.5
	c-4.5,0.2-8.9,0.3-13.4,0.4C303.5,142.8,302.7,142.6,301.8,142.4z"/>
<path class="st49" d="M234.8,294.3c0,0.5-0.1,1-0.1,1.4c-4.2,0.1-7.4-2.3-11-4c-1.2-2,0.4-3.1,1.6-3.7c3.7-1.9,4.3-5.1,4-8.8
	C230.9,284.4,233.9,289,234.8,294.3z"/>
<path class="st37" d="M299.8,266.9c-15.6,0-31.2,0-46.9,0c0-0.2,0-0.5,0-0.7c15.7,0,31.4,0,47.1,0
	C300,266.4,299.9,266.7,299.8,266.9z"/>
<path class="st49" d="M229.1,278.1c-0.3,0-0.6,0-0.9-0.1c-1.2-0.3-2-1.2-3-1.8c-2.7-2.7-6.3-4.2-9.5-6.3c0.9-1.6,2.7-2,4.1-2.8
	c4.9,1.9,7.7,6.9,12.6,8.7c0.9,0.3,1.2,1.9,0.5,2.2C231.7,278.4,230.3,278.1,229.1,278.1z"/>
<path class="st50" d="M222.4,203c4.4,0.8,7.4-2.3,11-3.9c-0.7,3.9-3.9,4.5-6.9,5.3c-5.4,0.5-10.8,0.9-17.8,1.5
	c2.8-1.5,4.1-2.2,5.5-2.9c1.3-1.3,2.7-1,4.1-0.2c0.5,0,0.9,0.1,1.4,0.1C220.6,202.1,221.5,202.1,222.4,203z"/>
<path class="st19" d="M225.2,308c1.4-1.8,3.3-2.5,5.5-2.7c1.2,1.3,2.3,2.6,3.6,4.1c-1.8,2.7-6.5,0.1-7.6,4c-0.5-0.4-1-0.8-1.4-1.2
	C225.2,310.8,225.2,309.4,225.2,308z"/>
<path class="st19" d="M342.5,305.3c-0.5,5.9-3.9,8.3-9.5,8.1C334.6,308.8,338,306.4,342.5,305.3z"/>
<path class="st25" d="M322.2,92.3c3.5,0.6,2.4,3.4,2.6,5.5c-5.9,1.9-11.8,2.4-17.7,0c0.2-0.3,0.5-0.6,0.7-1c2.4-1.9,5.2-0.6,7.8-0.7
	c2.9-0.1,5.3-0.6,6.4-3.7L322.2,92.3z"/>
<path class="st51" d="M215.7,253.6c2.2-0.3,5.4,0.5,3.3-3.7c-0.7-1.3-0.6-2.9-0.9-4.4c0.5-0.6,1.1-0.8,1.8-0.8
	c3.3,2.3,2.3,7.7,6.7,9.1c-0.1,0.3-0.1,0.7-0.1,1c-3.6,0-7.2,0-10.8,0c-0.5-0.2-0.7-0.5-0.5-0.8
	C215.3,253.7,215.5,253.6,215.7,253.6z"/>
<path class="st50" d="M206.4,193.5c-0.3,2.7,1.2,4.3,3.3,5.5c1.2,0.4,2.5,0.8,1.8,2.6C206.4,202,204.4,198.8,206.4,193.5z"/>
<path class="st52" d="M215.7,253.6c0,0.4,0,0.8,0,1.1c-3,0.3-5.1-2.5-8.3-2.4c-2,0,0-2,0.1-3.1C210.2,250.7,212.9,252.2,215.7,253.6
	z"/>
<path class="st53" d="M211.5,201.6c-0.6-0.9-1.2-1.7-1.8-2.6c1.1-0.1,2.1-0.1,3.2-0.2l0,0c1.3,2,4.7,1.2,5.4,4
	c-1.4,0.1-2.7,0.1-4.1,0.2C213.3,202.5,212.4,202.1,211.5,201.6z"/>
<path class="st54" d="M222.6,119.9c2.6-2.6,5.3-3.3,8-0.2c0,0.9,0.1,1.7,0.1,2.6c-0.3,0.2-0.5,0.3-0.8,0.5
	C227.4,122.3,224.8,121.5,222.6,119.9z"/>
<path class="st8" d="M324.8,190.5c2-0.6,4.4-0.8,4-3.9c1.9,0.2,3.3,0.8,1.8,2.8C329.1,191.3,327.3,193.5,324.8,190.5z"/>
<path class="st19" d="M234.7,305.3c2.1-3.4,1.2-7.2,1.4-10.9C237.6,298.3,239.8,302.2,234.7,305.3z"/>
<path class="st43" d="M233.5,149.8c-0.1,1.1,0.1,2,1.2,2.6c-1.5,4.5-3.5-0.2-5.3,0.3c0,0-0.3-0.4-0.3-0.4c0.1-2.7,1.9-3.1,4.1-2.7
	L233.5,149.8z"/>
<path class="st19" d="M342.5,294.4c0,3.2,0,6.4,0,9.5C340.4,300.7,340.4,297.6,342.5,294.4z"/>
<path class="st55" d="M219.7,154c0,0.4,0,0.8,0,1.2c-1,1.6-2.6,1.3-4.1,1.3c0-0.8,0-1.7,0-2.5c0.1-1,0.6-1.6,1.5-2
	c1-0.1,1.7,0.3,2.3,1.1C219.5,153.4,219.6,153.7,219.7,154z"/>
<path class="st8" d="M247,123.8c-1.6-1.5-2.9-3.1-2.3-5.9C247.9,119.1,246.7,121.7,247,123.8L247,123.8z"/>
<path class="st54" d="M232,127.9c-0.9,0.5-1.8,1-2.6,1.5c0,0-0.4-0.5-0.4-0.5c-1.1-2.4-0.1-4.4,1.3-6.2c0,0,0.5-0.4,0.5-0.4
	C232.5,123.9,231.9,126,232,127.9z"/>
<path class="st37" d="M247,272.5c-1.8-1.6-1.7-3.2-0.2-5.2C249,269.4,246.5,270.9,247,272.5L247,272.5z"/>
<path class="st8" d="M294.9,194.8c0-0.5,0-0.9-0.1-1.4c1.7,0.2,3.7-0.5,4.5,1.9C297.6,196.4,296.4,194.3,294.9,194.8z"/>
<path class="st56" d="M230.3,122.7c0.4,2.2-0.2,4.3-1.3,6.2c-0.4,0-0.8,0.1-1.1,0.5c-2.6,2-5.3,0.2-7.9,0.4c-1.1,0-2.1,0.5-3,1.1
	c-0.4,0.4-0.8,0.7-1.3,1c-1.5,0.8-1.7,3.7-4.4,2.9c-3.1-2.3-2.3-5.1-1-8c3-8.5,3.2-8.7,12.3-6.9c0,0,0,0,0,0
	C225.5,119.8,228.3,120.1,230.3,122.7z"/>
<path class="st48" d="M207.5,42.2c39.6-0.1,79.2-0.2,118.8-0.2c1.8,0,3.6-0.1,5.4-0.1c0,0-0.3,0.4-0.3,0.4c-0.1,2.5-2.1,2.5-3.7,3
	c-36.8,0.8-73.7,0.1-110.5,0.2c-2.9,0-5.9,0.4-8.7-1C207.6,43.9,207.2,43.2,207.5,42.2z"/>
<path class="st57" d="M330.2,56.9c-40.9,0-81.8,0-122.7,0c-0.4-1-0.1-1.7,0.8-2.2c2.5-1.4,5.3-1,8-1.1c34.1-0.1,68.2-0.3,102.3-0.1
	c3.6,0,7.3-0.4,10.7,1.2C330.3,55.2,330.6,55.9,330.2,56.9z"/>
<path class="st58" d="M221.1,304.9c-5.4,1.6-9.3-1.7-13.6-3.9c-1.9-2.2-1.5-4.4,0-6.6c2.7-2.8,5.5-5,9.6-2.6
	c0.1,1.8-0.7,3.6,0.9,5.1c2.5,1.3,2.4,4,3.5,6.2C221.6,303.7,221.5,304.3,221.1,304.9z"/>
<path class="st59" d="M218.4,127.9c3.5-1.6,6.1,2.6,9.5,1.4c-0.3,2.9,0.9,6.3-2.7,8.1l-0.4-0.4l0.4,0.3c-1.4,1.8-2.8,3.6-4.2,5.5
	c-1.5,1-2.7,0-4-0.6c-0.8-0.5-1-1.4-1.3-2.2c-0.1-0.5-0.2-0.9-0.3-1.4c-2.1-2.7-3.3-5.4,0-8.2l0.2,0.2
	C216.7,129.8,218.7,130,218.4,127.9z"/>
<path class="st60" d="M215.6,269.9c5.8-2.2,7.3,3.5,10.8,5.6c1.1,1.6,1,2.6-1.2,2.4c-6.8-4.1-9.3,1.4-12.4,5.6
	C209.2,278,213.5,274.2,215.6,269.9z"/>
<path class="st61" d="M217.4,152.5c-0.6,0.5-1.2,1-1.8,1.5c-1.8-1.4-4.5-1.6-5.7-3.8c2.4-2.1,0.1-5.1,1.4-7.4
	c3.3-1.3,4.7,0.8,5.8,3.4C217.5,148.2,218.7,150.3,217.4,152.5z"/>
<path class="st62" d="M330.2,56.9c0-0.5,0-0.9,0-1.4c1-4.2,1.1-8.3-1.6-12c0.9-0.4,1.8-0.9,2.7-1.3c1,0.4,1.9,0.8,2.9,1.1
	c0.4,4.6,4.1,9.6-1.3,13.7c0,0,0,0,0,0C332.1,57,331.1,56.9,330.2,56.9z"/>
<path class="st49" d="M217,291.8c-3.6-0.5-6.7,0.7-9.6,2.6c0-1.5,0.7-2.8,2.1-3.1c3.9-0.8,3.9-3.3,3.2-6.4
	C213.8,287.5,219.1,287.4,217,291.8z"/>
<path class="st54" d="M222.6,119.9c-5.9-0.9-10.2,1-12.3,6.9C211.3,117.4,213.3,116.2,222.6,119.9z"/>
<path class="st63" d="M216.1,146.8c-0.6-2.4-1.4-4.5-4.6-3.9c-0.6,0.6-1.1,0.5-1.5-0.1c0.9-3.1,4.6-0.1,5.8-2.7
	c0.4,0.4,0.9,0.7,1.3,1.1c0.8,1.2,2.5,2,1.9,3.9C218.5,146.5,217.6,147.2,216.1,146.8z"/>
<path class="st64" d="M215.5,130.6c-2.6,2.7,1.4,5.5,0,8.2c-2.9,0.3-4.1-1.3-4.3-3.9C213.3,134,212.5,130.4,215.5,130.6z"/>
<path class="st65" d="M210,142.9c0.5,0,1,0.1,1.5,0.1c-0.2,2.5,1.4,5.4-1.7,7.2C206.4,147.7,206.2,145.2,210,142.9z"/>
<path class="st66" d="M207.5,42.2c0,0.4,0,0.9,0,1.3c0,0.9-0.3,1.8-0.6,2.6c-0.9,2.6,0.1,5.6-1.6,8.1c-0.5,0.5-1.1,0.5-1.6,0
	C204.4,50.1,199.8,44.1,207.5,42.2z"/>
<path class="st67" d="M203.5,54.2c0.5,0,0.9,0,1.4,0c0.4-0.4,0.9-0.6,1.4-0.6c0.8,0.3,1.4,0.8,1.1,1.8c0,0.5,0,0.9,0.1,1.4
	C205.3,57.3,204,56.3,203.5,54.2z"/>
<path class="st68" d="M204.7,335.3c1.8-2.1,4.2-1.3,6.4-1.3c26.8,0,53.5-0.1,80.3,0.1c1.5,0,5.8-2.9,4.8,2.6
	c-2.4,1.3-4.9,0.6-7.4,0.6c-25,0.1-50,0-75,0c-2.7-0.4-5.5-0.5-8.2-1.2C205.3,335.8,205,335.6,204.7,335.3z"/>
<path class="st69" d="M211.5,336.7c28.2,0,56.4,0,84.6,0c0,0.4,0,0.8,0,1.2c-31,0.1-62,0.2-93,0.3c-0.7-0.1-1.5-0.2-2.2-0.3
	c-0.1-0.4-0.3-0.8-0.4-1.2c1.4-0.5,2.8-0.9,4.1-1.4h0C206.7,337,209.5,335.1,211.5,336.7z"/>
<path class="st70" d="M345,321.6c0.4-0.6,0.8-1,1.1-1.4c0.5,0.9,1.1,1.7,1.3,2.7c0.1,0.6-0.6,1.3-1.2,0.8
	C345.7,323.2,345.5,322.3,345,321.6z"/>
<path class="st0" d="M248.5,69.3c1.1-4,4.4-2.4,6.7-2.4c17.6-0.1,35.2-0.1,52.7-0.1c2.7,7.4,2.1,8.6-4.9,8.7
	c-16.2,0.2-32.5-0.4-48.7,0.3c-2.2,0.1-4.6,0.2-5.8-2.5l0.1,0C247.2,72,247.4,70.6,248.5,69.3z"/>
<path class="st36" d="M222.4,67.8c6.5-1.8,7.3-0.9,6.2,7.3c2.1,1,1.9-2.4,2.6-1.8c0.7,0.6,1,2.7,0.5,3.7c-2.6,5.1-2.7,8.9,4.1,10
	c0.7,0.1,2.4,0.2,1.3,1.1c-3.7,3.1,0.2,3.7,1.5,4.6c2.2,1.8,4.1,3.2,3.1,6.6c-1.3,4.3-3.9-1.4-5.4,1c-0.3,0.4-1.7,0.1-2.6,0.2
	c-0.2-0.2-0.4-0.4-0.6-0.6c0.1-1.2,0.8-2.1,1.4-3c1-1.4,0.2-2.3-1-3.1c-0.5-0.2-1-0.5-1.5-0.7c-2-0.7-4.1-0.4-6.1-1.1
	c-0.6-0.3-1-0.7-1.4-1.2c-1.4-3.6,2.4-6.3,1.6-9.8c0-1.2-0.3-2.4-0.6-3.6c-0.2-0.9-0.4-1.8-0.5-2.7c0-2.3-1.3-3.8-2.8-5.3
	C221.9,68.8,222,68.3,222.4,67.8z"/>
<path class="st0" d="M248.5,73.2c2,2,4.5,1.8,7,1.8c15.3,0,30.7,0,46,0c7.7,0,7.8-0.2,6.4-8.2c3.8-1,4.1,1.8,3.5,4
	c-0.6,2.5,3,4.2,0.2,6.6c-1.4-0.2,0-3-1.2-2.8c-15.7,3.6-31.5,0.8-47.2,1.5c-3.2,0.1-6.3,0.5-9.4,0.8
	C251.9,77,248.6,76.9,248.5,73.2z"/>
<path class="st19" d="M333,57c2.8-4.3,1.4-9.1,1.3-13.7c3,3.6,5.6,7,4.3,12.4c-0.8,3.6-2.3,5-5.5,5.2C331.5,59.5,338.1,58.3,333,57z
	"/>
<path class="st25" d="M301.6,82.9c-1.8,0-2.7-0.9-2.8-2.7c12.7,0.6,25.6-1.5,38.2,1.4c-0.5,0-1,0-1.5,0.1c-1.8,1.7-4,2-6.3,1.9
	C320,83.3,310.8,84.3,301.6,82.9z"/>
<path class="st71" d="M233.3,101.8c-1.3,0.8-3.2-0.4-4.1,1.4c-2.9,1.5-4.7,0.9-5-2.6c1.3-1.9-0.2-4.5,1.5-6.3
	c1.3-2.3,3.4-2.9,5.9-2.5c2,1.6,1.6,3.8,0.7,5.5c-0.9,1.7-0.1,2.4,0.9,3.2l0.2-0.3c0,0,0.3,0.1,0.3,0.1
	C233.6,100.9,233.4,101.4,233.3,101.8z"/>
<path class="st19" d="M222.4,63.8c0,0.5,0,0.9,0,1.4c-1.2,1.1-2.4,1.1-3.7,0.2c-2.1-0.6-5.3,0.9-5.9-2.9
	C216.1,62.9,219.3,63.4,222.4,63.8z"/>
<path class="st19" d="M341.8,54.4c0.9,1.9,1.1,3.9-0.8,5.9C339.8,58,341.7,56.2,341.8,54.4z"/>
<path class="st25" d="M248.5,69.3c0,1.3,0.1,2.7,0.1,4c-1-0.1-2.3,0.1-2.4-1.3C246.1,70.4,247.3,69.8,248.5,69.3z"/>
<path class="st25" d="M247.6,79.8c-1,0-1.7,0.2-2.2-0.1c-0.5-0.3-0.9-1-1-1.6c-0.1-0.7,0.3-1.3,1.1-0.7
	C246.3,78.1,246.8,78.9,247.6,79.8z"/>
<path class="st72" d="M286.4,247.8c-10.7-0.1-21.4-0.1-32-0.2c-1.7,0-4.4,0.5-4.5-1.8c-0.1-2.7,2.6-1.9,4.2-1.9
	c11.6,0,23.2,0.1,34.8,0.2C291.2,247.5,287.6,246.9,286.4,247.8z"/>
<path class="st73" d="M281.2,239.6c-0.1-3.4,2.2-3.5,4.6-3.5c10,0,20-0.1,29.9,0.1c2.3,0,5.4-0.3,5,3.7
	C307.6,240.6,294.4,241.2,281.2,239.6z"/>
<path class="st74" d="M213,231.5c-1.3-10.7,3.9-15.4,12.8-11.7c2.2,0.9,4.1,2.1,3.4,5c-1.8,4.4-8.2,1.4-9.9,6
	c-0.6,0.9-1.4,1.5-2.4,1.8C215.5,232.9,214.2,232.5,213,231.5z"/>
<path class="st75" d="M306.3,243.9c3.4,0,6.8,0,10.2,0c1.3,0,2.9,0.1,2.7,2.1c-0.2,1.4-1.4,1.6-2.5,1.6c-7,0-14.1,0-21.1-0.1
	c-1.4,0-3.1-0.7-3.1-2c0-2.4,2.3-1.6,3.7-1.6C299.5,243.8,302.9,243.9,306.3,243.9z"/>
<path class="st76" d="M225.1,250.7c1.2-3.6-1.2-9.2,5.5-9.6c2.5-0.2,5,0,6.4,2.5c1.7,3-1.9,3.5-2.7,5.3c-0.7,1.5-3.2,2.2-4.9,3.3
	C227.8,252.4,225.6,254,225.1,250.7z"/>
<path class="st75" d="M262.9,240c-3.6,0-7.2,0-10.9,0c-1.1,0-2.4-0.5-2.1-1.9c0.1-0.6,1.3-1.3,1.9-1.3c7.7-0.1,15.4,0,23.1,0
	c0.8,0,1.8,0.3,1.8,1.5c0,1.6-1.3,1.7-2.4,1.8C270.6,240.1,266.7,240.1,262.9,240C262.9,240.1,262.9,240.1,262.9,240z"/>
<path class="st77" d="M213,231.5c1.3,0,2.6,0.1,3.9,0.1c1.7,0.7,3.6,1.1,5,2.4c1.5,1.7,4.9,2.3,3.2,5.8c-0.9,0.8-1.8,1.7-2.6,2.5
	c-0.6,0.9-1.5,1.1-2.5,1c-1.3-0.3-2.3-1.1-3.1-2.2C218.2,236.9,213.7,235,213,231.5z"/>
<path class="st78" d="M281.2,239.6c13.2,1,26.4,0.4,39.5,0.3c0,0.4,0,0.9,0,1.3c0,0-0.1,0-0.1,0c-10.9,0-21.8,0.1-32.7,0
	C285.7,241.2,283,242.3,281.2,239.6z"/>
<path class="st79" d="M218.3,230.3c-0.1-2.6,0.6-4.5,3.8-4.2c2.5,0.2,5,0.1,7.2-1.3c-0.5,2,0.8,4.8-2.5,5.5c-1.2-0.2-1,1-1.5,1.6
	c-0.7,0.5-1.4,0.8-2.3,0.8c-0.5,0-1.1-0.1-1.6-0.3c-0.7-0.3-1.4-0.6-2.1-1.1C219,231,218.6,230.6,218.3,230.3z"/>
<path class="st80" d="M220.1,242.7c0.8-0.1,1.6-0.3,2.5-0.4c2,2.5-0.2,6.2,2.6,8.4c1.1,1.6,2.8,1.3,4.4,1.5c-0.9,0.5-1.9,1-2.8,1.5
	c-7.3,1.1-4.7-5.5-6.7-8.5C218.8,244.3,219.1,243.5,220.1,242.7z"/>
<path class="st81" d="M222.5,231.6c0.9,0,1.9-0.1,2.8-0.1c0.5-0.6,0.9-0.6,1.3,0.1c2.7,3.3,0,5.6-1.5,8.2c0.4-3.1-4.4-2.3-4.1-5.3
	C221,233.2,221.6,232.3,222.5,231.6z"/>
<path class="st82" d="M220.1,242.7c0,0.8-0.1,1.7-0.1,2.5c-0.6,0.1-1.3,0.1-1.9,0.2c-2.8-5.3-6.8-2.9-10.7-1.6
	c2.2-4.2,6.2-2.3,9.6-2.7C218.3,241.2,219.3,241.6,220.1,242.7z"/>
<path class="st83" d="M286.4,247.8c1.2-1,3.2-1.4,2.5-3.7c1.2,0.4,2,1.1,1.5,2.4C289.6,248.4,287.9,248,286.4,247.8z"/>
<path class="st84" d="M226.6,231.6c-0.4,0-0.9-0.1-1.3-0.1c0.2-0.6,0.3-1.3,0.5-1.9c0.4,0.3,0.7,0.5,1.1,0.8
	C226.6,230.7,226.6,231.2,226.6,231.6z"/>
<path class="st85" d="M210.4,174.7c3.6-5.4,9-7.4,14.5-5.1c6.3,2.6,7.4,9,7,15.4c-1,0.6-1.9,1.2-2.9,1.7c-1.6,0.6-3.2,1.1-4.2-0.9
	c-1.4-3.2,2.6-9.3-4.9-9.2c-1.1,0.7-1.4,1.8-1.6,3c-0.1,0.6-0.2,1.1-0.3,1.7c-0.2,1.5,0.6,2.8,1.1,4.1c0.2,1,0.1,1.9-0.4,2.7
	c-0.6,0.4-1.1,0.4-1.8,0.2C209,185.9,208.6,185,210.4,174.7z"/>
<path class="st86" d="M249.8,194.8c2.2-2.5,5.1-1.3,7.6-1.3c11.5-0.2,23.1-0.1,34.6-0.1c0.3,0.2,0.6,0.3,1,0.3
	c0.7,2.2,0.8,4-2.4,3.9c-2.1-2-4.7-1.3-7.1-1.3c-8.9-0.1-17.7,0-26.6-0.1C254.5,196.1,251.9,196.6,249.8,194.8z"/>
<path class="st87" d="M297.2,190.3c-4.3-0.1-8.6-0.1-12.9-0.3c-1.3-0.1-2.9-0.4-2.6-2.4c0.3-1.4,1.6-1.4,2.7-1.4
	c3.4-0.1,6.8,0,10.2,0C297.8,186.2,297.8,188.1,297.2,190.3c-0.1,0.1,0.2,0.3,0.2,0.3L297.2,190.3z"/>
<path class="st88" d="M251.2,190.8c-0.5-0.5-0.9-1-1.4-1.5c9.1-2.2,18.2-2.2,27.3,0c0,0.4,0,0.9-0.1,1.3c-0.4,0-0.8,0.1-1.2,0.2
	c-0.5,0-1,0-1.5,0C266.5,191.6,258.9,191.6,251.2,190.8z"/>
<path class="st89" d="M225.6,185.4c0.7,1.7,2.3,0.9,3.5,1.3c-0.9,0.8-1.7,1.7-2.6,2.5c-0.3,0.4-0.6,0.8-0.9,1.2
	c-1.9-2.9-5.5-1.1-7.8-2.7c0-0.8,0.1-1.7,0.1-2.5c1.9-1.5,4.1-1,6.2-1C224.8,184.5,225.2,184.9,225.6,185.4z"/>
<path class="st0" d="M279.5,123.7c8.2,0,16.3,0.1,24.5,0c2.9,0,4.7,0.5,4.7,4.1c0,3.5-1.9,4.1-4.8,4.1c-16.8,0-33.6,0-50.4,0
	c-2.9,0-4.8-0.7-4.8-4.1c0-3.4,1.9-4.1,4.8-4.1C262.3,123.8,270.9,123.7,279.5,123.7z"/>
<path class="st90" d="M251.2,142.8c-0.8-1.3-2.2-3.4-0.1-3.9c4.8-1.2,9.8-0.9,14.7-0.2c0.9,0.1,1.2,1.2,0.8,2.2
	c-0.4,1.2-1.5,1.6-2.6,1.6C259.7,142.7,255.4,142.8,251.2,142.8C251.1,142.8,251.2,142.8,251.2,142.8z"/>
<path class="st1" d="M255.2,282.1c17.7,0,35.5,0,53.2,0c1.3,3.9-1.8,2.7-3.3,2.7c-9.4,0.1-18.8,0.1-28.1,0.1c-0.4,0.5-0.8,0.5-1.2,0
	c-5.1,0-10.3,0-15.4-0.1C258.2,284.8,255.7,285.4,255.2,282.1z"/>
<path class="st91" d="M282.5,290.5c-2.4-2.1-0.5-3.7,1.1-3.7c8.1-0.2,16.1-0.1,24.2,0.2c1.4,0,2.1,1.5,1.9,3.1
	C300.6,291.8,291.6,291,282.5,290.5z"/>
<path class="st92" d="M249.9,294.2c8.2,0,16.5-0.3,24.7,0.1c4.7,0.2,9.7-2,14.1,1.4c-4.2,3.9-9.2,1.4-13.8,1.7
	c-6.3,0.5-12.6,0.1-19,0.1c-2.1,0-4.4,0.5-6.1-1.1C249.9,295.7,249.9,294.9,249.9,294.2z"/>
<path class="st93" d="M249.7,290.3c-0.7-4.1,2.3-3.7,4.7-3.7c6.6-0.1,13.1-0.1,19.7-0.2c1.7,0.7,4.7,0.5,2.9,3.9l0,0
	C267.9,291.4,258.8,291.3,249.7,290.3z"/>
<path class="st93" d="M317.8,294.8c-0.2,3.8-3,3.3-5.5,3.3c-5.6,0.1-11.3,0.1-16.9,0.1c-2.1-2.2-1.8-4.3,1.3-4.3
	C303.8,294,310.9,292.4,317.8,294.8z"/>
<path class="st93" d="M316.9,286.4c3,0,6,0,9.1,0c1.2,0.8,3.5,0.4,3.4,2.7c-0.2,2.2-2.1,1.9-3.6,1.9c-2.7,0-5.5,0.4-8.2-0.1
	C313.3,290.1,313.9,288.3,316.9,286.4z"/>
<path class="st78" d="M316.9,286.4c-1.6,1.8-2.7,3.5,1,3.8c2.6,0.2,5.3,0.1,8,0.1c1.1,0,2.5,0,2.7-1.3c0.2-1.7-1.8-1.7-2.6-2.6
	c2.2-0.4,4.3-0.3,4.2,2.7c-0.1,2.1-1.6,2.6-3.3,2.6c-3.4,0-6.8,0-10.2,0c-1.5,0-2.5-0.9-2.6-2.5
	C313.9,287.1,314.9,286.2,316.9,286.4z"/>
<path class="st78" d="M317.8,294.8c-6.5-1.1-13-0.3-19.4-0.5c-2.8-0.1-4.5,0.7-2.9,3.9c-3.3-1.4-2.6-4.6-0.4-4.7
	C302.6,293.2,310.4,290.9,317.8,294.8z"/>
<path class="st78" d="M249.7,290.3c9.1,0,18.2,0,27.3,0C267.9,292.7,258.8,292.6,249.7,290.3z"/>
<path class="st78" d="M282.5,290.5c9.1-0.1,18.1-0.3,27.2-0.4C300.7,293,291.6,292.2,282.5,290.5z"/>
<path class="st78" d="M277,290.2c0.6-2.5-1.5-2.9-2.9-3.9c0.5-0.5,1.1-1,1.6-1.5c0.4,0,0.8,0,1.2,0
	C277.6,286.7,279.9,288.4,277,290.2z"/>
<path class="st94" d="M301.6,82.9c5-2.8,10.5-1,15.8-1.3c6-0.3,12.1,0,18.2,0c0.6,2.4,0.1,4-2.8,4c-9.3,0-18.5,0-27.8,0
	C303.1,85.6,301.9,84.8,301.6,82.9z"/>
<path class="st95" d="M266.2,96.9c-4.3,0-8.6,0.1-12.8,0c-1.5,0-3.6,0.3-3.5-2c0-1.6,1.7-2,3-2c9,0,18,0.1,27,0.2
	c1.3,0,3.1,0.2,3.3,1.8c0.2,2.3-2,2-3.4,2.1C275.2,97,270.7,96.9,266.2,96.9z"/>
<path class="st94" d="M249.8,81.6c8,0,15.9,0,23.9,0c1.6,0,3.5,0,3.3,2.3c-0.1,1.7-1.9,1.7-3.2,1.7c-7,0-14.1,0-21.1,0
	C249.7,85.6,249.1,84.1,249.8,81.6C249.8,81.6,249.8,81.6,249.8,81.6z"/>
<path class="st96" d="M322,92.5c2.2,2.9,1.5,4.8-2.1,4.9c-4,0.1-8.1-0.3-12.1-0.5c-1.1-3.8,1.4-4.2,4.1-4.3
	C315.2,92.5,318.6,92.6,322,92.5z"/>
<path class="st97" d="M295.8,97.4c-1.1,0-1.3,0-1.5,0c-2.5-0.4-6.6,1.1-6.7-2.4c0-3.9,4.2-1.7,6.6-2.4c0.2-0.1,0.5,0,0.7,0
	c3,0.8,8.6-1.7,8.6,2.3C303.5,99.4,297.5,95.2,295.8,97.4z"/>
<path class="st98" d="M289.5,85.8c-2.8-1-7.6,1.6-7.7-2.1c-0.1-4.1,4.7-1.3,7.2-2.1c0.2-0.1,0.5-0.1,0.7,0c2.6,0.7,7.5-1.7,7.4,1.8
	C297.1,87.6,292,84.6,289.5,85.8z"/>
<path class="st0" d="M279,279.7c-8.2,0-16.3,0-24.5,0c-2.8,0-5.7,0.3-5.6-3.9c0.1-3.7,2.6-3.6,5.2-3.6c16.6,0,33.1,0,49.7,0
	c2.7,0,4.9,0.2,4.8,3.9c-0.1,3.8-2.6,3.6-5.2,3.6C295.3,279.7,287.2,279.7,279,279.7z"/>
<path class="st99" d="M219.7,198.8c-0.1-0.4-0.2-0.8-0.3-1.2c3.4-0.4-1.1-6.2,3.4-5.2c4.5,1-1,4.5,1,6.4
	C222.4,200,221.1,199.9,219.7,198.8z"/>
<path class="st100" d="M219.7,198.8c1.4,0,2.7,0,4.1,0c1.6,2.1-1.4,2.6-1.4,4.1c-0.9,0-1.8,0-2.7-0.1
	C219.7,201.6,219.7,200.2,219.7,198.8z"/>
<path class="st99" d="M217.8,187.8c2.7,0.5,6.2-1.2,7.8,2.7c-2.7-1.1-5.5-1.4-8.5-1.2c-0.3-0.3-0.4-0.7-0.2-1.1
	C217.2,188,217.5,187.8,217.8,187.8z"/>
<path class="st53" d="M212.9,198.8c-0.4-1.5-2.3-3.2,0.8-4c0.6-0.1,1.8,0.1,1.8,0.2C215.4,196.8,214,197.7,212.9,198.8
	C212.9,198.8,212.9,198.8,212.9,198.8z"/>
<path class="st101" d="M230.9,196.2c-0.5,0.1-1.1,0.5-1.6,0.4c-0.7-0.2-1.9-0.3-1.4-1.5c0.1-0.3,1.2-0.3,1.9-0.3
	C230.4,194.8,231.2,194.9,230.9,196.2z"/>
<path class="st57" d="M249.8,194.8c12.3,0,24.5-0.1,36.8,0.1c1.3,0,5.3-2.2,4.1,2.6c-12,0.1-24,0.2-36,0.1
	C252.7,197.5,249.7,198.6,249.8,194.8z"/>
<path class="st87" d="M277,189.3c-9.1,0-18.2,0-27.3,0c-0.4-2,0.6-3,2.5-3c7.4,0,14.7,0,22.1,0C276.2,186.3,277.4,187.2,277,189.3z"
	/>
<path class="st19" d="M251.2,190.8c7.7,0,15.3,0,23,0C266.5,192.8,258.9,192.8,251.2,190.8z"/>
<path class="st102" d="M221.1,304.9l-0.1-0.4c0.1-0.6,0.3-1.2,0.5-1.8c0.8-2.7,0-5.8,2.1-8.2c0-0.9,0-1.7,0-2.6
	c4.4-0.7,7.8,1.3,11,4C233.6,302.2,229.3,305,221.1,304.9z"/>
<path class="st103" d="M222.4,303.8c-0.4,0.2-0.9,0.4-1.3,0.6c-2.3-2-2.7-4.7-3.1-7.5c0.2-3,2.3-2.6,4.3-2.3
	C223.6,297.7,223.4,300.7,222.4,303.8z"/>
<path class="st104" d="M225.2,277.9c1.1-0.5,1.2-1.5,1.2-2.4c1.4,0.2,1.4,1.4,1.7,2.4c-0.1,0.9,0,1.8-0.2,2.7
	c-0.3,1.2,1.1,3.8-1.9,3c-2.5-0.7-0.3-2-0.2-3.1C225.8,279.7,225.4,278.8,225.2,277.9z"/>
<path class="st105" d="M222.4,303.8c0-3-0.1-6.1-0.1-9.1c0.5-0.1,0.9-0.2,1.4-0.3C223.2,297.5,224.9,300.9,222.4,303.8z"/>
<path class="st106" d="M220.9,104.1c-6.7,0.8-10.6-3.7-14.8-7.6c2.1-5.6,5.8-6.4,10.7-3.5c0.6,0.3,1,0.7,1.3,1.3
	c1,2.5,1.6,5.2,3.4,7.4C221.8,102.5,221.8,103.4,220.9,104.1z"/>
<path class="st107" d="M218.7,65.4c1.2-0.1,2.5-0.1,3.7-0.2c4.2-0.4,5.2,1.7,4,5.3c-2.8,2.4-7,2.8-8.6,7.1c-0.6,1.7-3.2,1.1-4.7-0.2
	C211.8,71.8,212.4,67.3,218.7,65.4z"/>
<path class="st108" d="M213.1,81.4c1.3-0.2,3.8-0.4,3.8-0.5c-0.2-7.3,5.7-5.3,9.6-6.3c0.1,0.9,0.2,1.8,0.3,2.7
	c-0.9,2.1-2.1,4-3.1,6.1c0,0.2-0.1,0.4-0.1,0.7c-0.3,2.2,1.9,5.3-1.9,6.2c-3.5,0.8-3.2-3-4.8-4.6C215.1,84.6,213.5,83.5,213.1,81.4z
	"/>
<path class="st109" d="M216.7,85.6c0.6,0.6,1.3,1.2,1.9,1.8c0.9,1.1,1.8,2.5,3.2,1.6c2.8-1.9-0.6-2.2-1.1-3.2
	c-0.8-1.8,0.5-2.3,1.7-3c2-0.6,2.8-3.4,5.4-2.7c1.8,4.3-2.9,7-2.8,10.9c0.7,2.3-1.2,2.6-2.6,3.2c-2.6,0.1-4-1.6-5.4-3.4
	C217,89.1,216.9,87.4,216.7,85.6z"/>
<path class="st110" d="M217.2,90.9c2.3,0,3.4,2.1,5.3,2.9c0.8,0.7,0.9,1.7,0.8,2.7c-0.4,1.3-1,2.4-2.2,3.1c-3.3-0.6-2.5-4-4.1-5.8
	c-0.3-0.2-0.3-0.5-0.1-0.8C216.9,92.2,217,91.5,217.2,90.9z"/>
<path class="st111" d="M233.2,149.6c-1.4,0.9-2.7,1.8-4.1,2.7c-1.5-0.3-4,2.2-4.2-1c-0.2-3.2-1.2-7.2,2.3-9.2
	c2.3-1.3,5.5-0.5,7.6,1.3C237.9,146.2,233.7,147.5,233.2,149.6z"/>
<path class="st112" d="M218.3,145.6c-0.4-1.5-0.8-2.9-1.2-4.4c1.3,0.6,2.7,1.1,4,1.7c0,0.4,0,0.8-0.1,1.2c0,0.3,0,0.7,0,1
	c-0.3,1.8,0.7,4.2-2.2,4.9C216.8,148.8,217.3,147.2,218.3,145.6z"/>
<path class="st113" d="M221,144.1c1.7,3.2,4.2,6.3,0.2,9.6c-2.1-3.1-0.8-6.3,0-9.4L221,144.1z"/>
<path class="st114" d="M221.2,144.3c0,3.1,0,6.3,0,9.4c-0.5,0.1-1,0.2-1.5,0.3c0,0,0-0.1,0-0.1c-0.9-1.4-1.2-2.7,0-4.1
	C220.2,147.9,218.4,145.5,221.2,144.3z"/>
<path class="st115" d="M220.9,99.1c0.3-1.1,0.1-2.4,1.6-2.9c2.2,0.1,2.1,1.6,2,3.1c-0.4,1.7,0.9,3.7-1,5.1c-0.9-0.1-1.7-0.2-2.6-0.4
	c0-0.8,0.1-1.6,0.1-2.4C220.3,100.9,220.2,100,220.9,99.1z"/>
<path class="st116" d="M223.5,104.4c0.1-1.8,0.3-3.5,0.4-5.3c0.4-0.5,0.8-0.5,1.1,0c-0.2,3,0.1,5.4,4.1,4
	C227.8,105.7,225.5,104.5,223.5,104.4z"/>
<path class="st117" d="M219.7,149.7c0,1.4,0,2.7,0,4.1c-0.8-0.4-1.5-0.9-2.3-1.3c0.6-2.1-2.5-3.4-1.3-5.7c0.7-0.4,1.5-0.8,2.2-1.2
	C218.4,147.1,218.1,148.7,219.7,149.7z"/>
<path class="st118" d="M218.4,127.9c0.4,1.2,1.4,3,0.9,3.6c-1.3,1.6-2.1-1.5-3.7-0.8C216.1,129.3,217.1,128.4,218.4,127.9z"/>
<path class="st35" d="M207.4,55.4c-0.4-0.4-0.9-0.9-1.3-1.3c-1.4-1.9-0.1-2.9,1.4-3.8c10.6-1.9,21.2-0.1,30.4-0.9
	c-9.2-0.6-19.9,1-30.5-0.8c-1.5-0.9-2.7-1.9-1.4-3.8c0.4-0.4,0.9-0.9,1.3-1.3c40.4,0,80.9,0,121.3,0c5.2,3.1,5.7,6.6,1.6,12
	C289.3,55.5,248.4,55.5,207.4,55.4z"/>
<path class="st119" d="M225.3,137.5c-1.2-0.1-2.7,0.2-3.5-1c-0.2-0.2,0.3-1.3,0.7-1.4C224.5,134.5,225,135.9,225.3,137.5
	C225.2,137.5,225.3,137.5,225.3,137.5z"/>
<path class="st120" d="M206.1,44.8c0,1.2,0.3,2.3,1.6,2.9c1,1.3,0.7,2.6-0.2,3.8c-1.1,0.5-1.4,1.5-1.4,2.6c-0.4,0-0.8,0.1-1.3,0.1
	C205.1,51,203.5,47.6,206.1,44.8z"/>
<path class="st20" d="M211.5,336.7c-2.3-0.3-4.9,0.9-6.8-1.4C207,335.6,209.6,334.4,211.5,336.7z"/>
<path class="st121" d="M233.2,100.6c-1-0.5-3.4,1-2.6-1.9c0.6-2,1.1-4.1,1.7-6.1c0.3-0.6,0.7-0.8,1.3-0.5l0,0
	c0.8,1.8,3.2,2.9,2.4,5.5C235,98.6,234.1,99.6,233.2,100.6z"/>
<path class="st122" d="M225.1,99.2l-0.6,0c0,0-0.6,0-0.6,0c-0.5-1-1-2-1.5-2.9c0-0.8,0-1.7,0-2.5c0.9-0.9,1.8-1.8,2.7-2.7
	c0.6,0,1.1,0.1,1.7,0.1c0.6,1.4,0.7,2.7-0.3,4C224.9,96.1,225.9,97.9,225.1,99.2z"/>
<path class="st123" d="M227.9,76.1c-1.5,1.5-2.9,3.3-5.4,2.7c1.5-1.8,0.7-5.4,4.3-5.5C227.7,74,228,75,227.9,76.1z"/>
<path class="st71" d="M236,97.6c-0.9-1.8-3-3-2.4-5.5C236.6,92.9,240,93.6,236,97.6z"/>
<path class="st124" d="M226.5,95.1c0.1-1.3,0.2-2.6,0.3-4c2.3-0.2,4.7-0.9,6.8,0.9c-0.4,0.2-0.9,0.3-1.3,0.5
	C229.6,91.7,228.1,93.6,226.5,95.1z"/>
<path class="st125" d="M222.5,231.6c0,1.2-0.3,2.2-1.4,2.9c-2-0.1-3.3-1-4.2-2.8c0.4-0.5,0.9-0.9,1.3-1.4c0.6,0,1.1,0.1,1.7,0.1
	c0.3,0.4,0.7,0.8,1,1.1C221.5,231.6,222,231.6,222.5,231.6z"/>
<path class="st126" d="M221,231.5c-0.3-0.4-0.7-0.8-1-1.1C220.3,230.8,220.6,231.2,221,231.5z"/>
<path class="st127" d="M218.3,175.7c2-1.9,5.7-2.6,6.3-0.5c0.9,3.1,3.8,6.6,1,10.3c-0.2-0.1-0.4-0.2-0.6-0.4c-2-3-6.4-1.2-8.4-4.2
	c0.1-0.4,0.3-0.8,0.5-1.1C221.1,179.5,217,176.8,218.3,175.7z"/>
<path class="st128" d="M216.5,180.9c2.7,1.6,8.4-2.8,8.4,4.2c-2.3,0.9-4.7,1.5-7.1,0.3C216.9,184,214,183.3,216.5,180.9z"/>
<path class="st129" d="M218.3,175.7c0.5,1.7,4.6,4.5-1.3,4.1C217,178.2,216.6,176.6,218.3,175.7z"/>
<path class="st130" d="M220.9,99.1c0.1,0.9,0.1,1.7,0.2,2.6c-4.9-0.8-2.9-5.2-4.1-8C218.2,95.5,219.5,97.3,220.9,99.1z"/>
<path class="st57" d="M207.5,51.5c0.1-1.3,0.1-2.6,0.2-3.8c11.1-0.1,22.1-0.2,33.2-0.3c1.7,0,4.1-0.4,4.3,2c0.3,2.7-2.1,2.5-3.9,2.5
	C230.1,51.8,218.8,51.6,207.5,51.5z"/>
<image style="overflow:visible;" width="108" height="94" xlink:href="1BFBF411.jpg"  transform="matrix(1 0 0 1 366 -159)">
</image>
<path class="st131" d="M193,35.9c0,0-6.7-19.7,15.1-19.4l128.1-0.1c0,0,13.8-0.6,13.3,10.2L349,38H195L193,35.9z"/>
<rect x="194" y="33" class="st131" width="4" height="288"/>
<path class="st132" d="M326.2,133.4c2.2-0.5,4.5-1,6.7-1.5c0.7,0,1.6-0.2,2,0.2c2,2.1-0.7,1.1-1,1.2c-5.3,1.8-8.4,5.1-7.8,11
	c-2.5,2.4-0.8,5.5-1.4,8.2c-1.9-1.5-1.1-3.7-1.4-5.6c-1-3.2-2.7-6.4,0.2-9.5C325.2,136.6,326.1,135.3,326.2,133.4z"/>
<rect x="344" y="32" class="st131" width="4" height="288"/>
<path class="st3" d="M483.9,430.7c-9.8,2.2-19.6,4.5-29.3,6.7c1.2-2.9-1.4-2.9-2.9-3.8c-3.5-1.4-6.4-3.6-9.5-5.5l0,0
	c-3.2-1.8-6.2-4.1-9.6-5.5l0,0c-4.5-3.3-9.3-6.1-13.7-9.5c-16.5-11.5-32.1-23.9-44.9-39.6c-3.4-4.7-7.2-9.1-8.3-15l0,0
	c-1.4-1.1-1.7-2.8-2.7-4.2l0,0c-2.8-5.9-6.2-11.5-8.2-17.8c0-1.1-0.2-2.1-1.2-2.6c-1.7-2.3-2.9-4.8-5.4-6.5
	c-0.7-6.3-3.5-12-5.8-17.8c-0.9-8.9-0.8-17.8,1.2-26.6c0.8-2.4,1.3-4.8,1.1-7.3c-0.4-5.1,0.8-9.1,5.9-11.8c3.9-2.1,4.4-6.6,4.9-10.7
	c0.5-5.2,0.4-10.4,1-15.6c2.9-6.4-3.3-10.4-4.1-17.4c-0.3,6.6,0.5,11.6-0.6,16.6c-0.5,1-1.1,1.8-2.4,1.8c-0.6-0.4-1.1-1-1.4-1.7
	c-1.4-7.6-0.1-15.3-0.9-23c-0.1-3.9-0.6-7.7-3.7-10.5c-8.4-13-13-27.6-18.7-41.8c-0.8-3.1-1.7-6.2-1.9-9.5c0.2-2.8-0.6-5.8,1.9-8.1
	c5.1,1.3,5.2,6.8,8,10c4.5,5.1,9.5,5.6,13.8,0.8c2.9-3.2,2-6.7,0.7-10.1c-1.6-4-3.5-7.9-2.7-12.4c0-1.8-0.1-3.6,0-5.4
	c-0.1-3.6-0.2-7.1,0-10.7c0.3-10.5-0.5-21-0.1-31.5c0-1.3,0-2.5,0-3.8c-0.1-10.2-0.4-20.5,0.3-30.7c0.3-1.3,0.9-2.5,2.1-3.2
	c3.2,1.3,2.2,4.1,2.3,6.4c0.2,10.6-0.1,21.2,0.2,31.8c0.9,8.9,0.2,17.7,0.4,26.6c-0.7,7.3-0.7,14.7-0.4,22.1
	c0.2,0.7,0.5,1.4,0.9,2.1c0.5,2.5,2.1,4.2,4.2,5.5c3.5,3.7,6.5,7.9,8.9,12.4c7.7,11,13.1,23.2,18.5,35.4c0,1.1,0.1,2.1,1.2,2.7
	c3.4,3.7,4.7,8.7,7.7,12.7c0.8,1.6,0.8,3.6,2,5l0,0c4.1,4.4,6,9.9,8.2,15.4c1,2.7,2.2,5.4,4.4,7.5c1.4,4.6,4.9,8,6.6,12.4
	c0.4,0.1,0.9,0.1,1.3,0.1c6.5-6.5,12.9-13.2,22.6-14.9c1.8-0.4,3.8-0.9,5.4-0.3c8.8,3.4,16.8,2.5,25.1-2.2c6.1-3.5,13.2-2.3,20-2.2
	c2.9,0.7,6.1,1.3,8,3.4c3.6,4,6.8,2.8,10.7,0.8c15.6-8,26.9,1.1,32.8,14.3c1.5,3.4,2.5,7.2,3.8,10.7c4.4,14,10.2,27.6,14.2,41.7
	c4,14,5.5,28.4,7.6,42.6c0.2,1.5-0.1,3.2,1.2,4.4c2.3,9.6,3,19.4,4.8,29.1c0.7,3.5,1.7,6.9,2.1,10.5l0,0c1.1,1.8,2.8,3.4,1.6,5.8
	c-21.6,15.6-45.8,26-70.7,35c-3.2,1.1-6.5,2-9.7,2.9c-1.7,1.4-3.7,1.7-5.8,1.1c-1.5-0.4-2.2-1.9-3.7-2.5c-2.5-1.1-1,1.4-1.8,1.7
	c-1.1,0.4-2.3,0.2-3.4,0.2c-0.9-0.4-1.6-1-2.4-1.4c0.2,0.7,1.1,0.6,1.5,1.1c2.3,1.7,6.1-1.7,7.8,2.3
	C485.1,430.1,484.8,430.6,483.9,430.7z"/>
<path class="st133" d="M346.4,133.2c-1.7,4.7,1.7,8.2,3.1,12c2.4,6.2,0.7,10.3-4.9,13.6c-4.8,2.9-8.9,1.8-12-2.2
	c-2.9-3.7-5.8-7.6-6.6-12.4c-1.9-6.1,0.3-10,6.7-11.6c0.4-0.1,0.8,0.2,1.1-0.1c-0.7-0.1-1.1-0.6-1.3-1.3
	C337.6,129.2,342.3,129.1,346.4,133.2z"/>
<path class="st3" d="M295.5,30h-47c-1.4,0-2.5-1.1-2.5-2.5v0c0-1.4,1.1-2.5,2.5-2.5h47c1.4,0,2.5,1.1,2.5,2.5v0
	C298,28.9,296.9,30,295.5,30z"/>
<rect x="345" y="32" class="st131" width="4" height="100"/>
<g>
</g>
<g>
</g>
<g>
</g>
<g>
</g>
<g>
</g>
<g>
</g>
<g>
</g>
<g>
</g>
<g>
</g>
<g>
</g>
<g>
</g>
<g>
</g>
<g>
</g>
<g>
</g>
<g>
</g>
</svg>
