<?xml version="1.0" encoding="utf-8"?>
<!-- Generator: Adobe Illustrator 23.0.5, SVG Export Plug-In . SVG Version: 6.00 Build 0)  -->
<svg version="1.1" id="Layer_1" xmlns="http://www.w3.org/2000/svg" xmlns:xlink="http://www.w3.org/1999/xlink" x="0px" y="0px"
	 viewBox="0 0 972.31 285" style="enable-background:new 0 0 972.31 285;" xml:space="preserve">
<style type="text/css">
	.st0{fill:#FFFFFF;}
	.st1{fill:#ED9202;}
	.st2{fill:#95BD1A;}
	.st3{fill:#2498D0;}
	.st4{fill:#DF1078;}
</style>
<g>
	<g>
		<path class="st0" d="M405.69,89.36v27.44H326.9c-1.64,0-2.45,0.87-2.45,2.61v11.8h80.78v19.93h-80.78v12.57
			c0,1.84,0.82,2.76,2.45,2.76h78.79v26.52h-94.43c-9.71,0-14.56-4.8-14.56-14.41v-75.26c0-9.3,4.91-13.95,14.72-13.95h94.27V89.36z
			"/>
		<path class="st0" d="M528.32,166.47v26.52h-91.36c-4.09,0-7.41-0.61-9.96-1.84c-2.56-1.23-4.6-2.86-6.13-4.91
			c-2.56-3.37-3.83-7.1-3.83-11.19c0-1.84,0.36-3.73,1.07-5.67c0.71-1.94,1.84-3.83,3.37-5.67c0.71-0.82,1.58-1.61,2.61-2.38
			c1.02-0.77,2.55-1.86,4.6-3.3l55.64-39.09c0.31-0.1,0.46-0.41,0.46-0.92c0-0.82-0.41-1.23-1.23-1.23H417.8V89.36h89.37
			c3.88,0,7,0.51,9.35,1.53c2.35,1.02,4.29,2.35,5.83,3.99c1.53,1.64,2.71,3.45,3.53,5.44c0.82,1.99,1.23,3.96,1.23,5.9
			c0,2.66-0.56,5.26-1.69,7.82c-0.51,1.23-1.25,2.43-2.22,3.6c-0.97,1.18-2.63,2.63-4.98,4.37l-55.95,41.69
			c-0.61,0.51-0.92,0.97-0.92,1.38c0,0.92,0.61,1.38,1.84,1.38L528.32,166.47L528.32,166.47z"/>
		<path class="st0" d="M650.64,166.47v26.52h-91.36c-4.09,0-7.41-0.61-9.96-1.84c-2.56-1.23-4.6-2.86-6.13-4.91
			c-2.56-3.37-3.83-7.1-3.83-11.19c0-1.84,0.36-3.73,1.07-5.67s1.84-3.83,3.37-5.67c0.71-0.82,1.58-1.61,2.61-2.38
			c1.02-0.77,2.55-1.86,4.6-3.3l55.64-39.09c0.31-0.1,0.46-0.41,0.46-0.92c0-0.82-0.41-1.23-1.22-1.23h-65.76V89.36h89.37
			c3.88,0,7,0.51,9.35,1.53s4.29,2.35,5.82,3.99s2.71,3.45,3.53,5.44c0.82,1.99,1.23,3.96,1.23,5.9c0,2.66-0.56,5.26-1.69,7.82
			c-0.51,1.23-1.25,2.43-2.22,3.6c-0.97,1.18-2.63,2.63-4.98,4.37l-55.95,41.69c-0.61,0.51-0.92,0.97-0.92,1.38
			c0,0.92,0.61,1.38,1.84,1.38L650.64,166.47L650.64,166.47z"/>
		<path class="st0" d="M781.09,89.36v103.62h-27.9v-40.01h-61.78v40.01h-27.9V89.36h27.9v37.56h61.78V89.36H781.09z"/>
		<path class="st0" d="M928.09,188.39c0.41,0.82,0.74,1.59,1,2.3c0.25,0.72,0.48,1.48,0.69,2.3h-31.27
			c-0.21-0.71-0.41-1.35-0.61-1.92c-0.21-0.56-0.41-1.1-0.61-1.61l-5.52-12.57h-61.32l-5.37,12.42c-0.21,0.61-0.41,1.23-0.61,1.84
			c-0.21,0.61-0.36,1.23-0.46,1.84h-32.04c0.2-0.82,0.43-1.58,0.69-2.3c0.25-0.71,0.59-1.48,1-2.3l37.1-82.16
			c2.96-6.44,6.85-11.24,11.65-14.41c4.8-3.17,10.93-4.75,18.39-4.75c7.25,0,13.31,1.59,18.17,4.75c4.85,3.17,8.76,7.97,11.73,14.41
			L928.09,188.39z M881.65,154.05l-15.94-37.1c-0.51-1.12-1.18-1.94-1.99-2.45c-0.82-0.51-1.74-0.77-2.76-0.77
			c-0.92,0-1.79,0.23-2.61,0.69s-1.48,1.3-1.99,2.53l-15.79,37.1L881.65,154.05L881.65,154.05z"/>
	</g>
</g>
<g>
	<polygon class="st1" points="22.94,99.12 22.94,188.88 127.66,85.23 83.85,40.34 	"/>
	<polygon class="st2" points="86.09,253 175.85,251.91 70.93,148.45 26.58,192.81 	"/>
	<polygon class="st3" points="238.8,189.26 238.85,99.5 134.07,203.09 177.86,248 	"/>
	<polygon class="st4" points="176.31,35 86.54,34.98 190.17,139.73 235.07,95.93 	"/>
	<polygon class="st4" points="22.94,99.12 22.94,188.88 127.66,85.23 83.85,40.34 	"/>
	<polygon class="st2" points="86.09,253 175.85,251.91 70.93,148.45 26.58,192.81 	"/>
	<polygon class="st1" points="238.8,189.26 238.85,99.5 134.07,203.09 177.86,248 	"/>
	<polygon class="st3" points="176.31,35 86.54,34.98 190.17,139.73 235.07,95.93 	"/>
</g>
</svg>
