<?xml version="1.0" encoding="utf-8"?>
<!-- Generator: Adobe Illustrator 23.0.5, SVG Export Plug-In . SVG Version: 6.00 Build 0)  -->
<svg version="1.1" id="Layer_1" xmlns="http://www.w3.org/2000/svg" xmlns:xlink="http://www.w3.org/1999/xlink" x="0px" y="0px"
	 viewBox="0 0 500 500" style="enable-background:new 0 0 500 500;" xml:space="preserve">
<style type="text/css">
	.st0{fill:#EBEBEB;}
	.st1{fill:#F5F5F5;}
	.st2{fill:#E0E0E0;}
	.st3{fill:#00487B;}
	.st4{fill:#407BFF;}
	.st5{fill:#263238;}
	.st6{fill:#00B9E4;}
	.st7{fill:#FFFFFF;}
	.st8{opacity:0.8;fill:#263238;enable-background:new    ;}
	.st9{fill:#E9F3FA;}
	.st10{opacity:0.8;fill:#FFFFFF;enable-background:new    ;}
	.st11{fill:none;}
	.st12{opacity:0.8;}
	.st13{opacity:0.2;}
	.st14{fill:#CB7A63;}
	.st15{opacity:0.1;}
	.st16{opacity:0.1;enable-background:new    ;}
	.st17{fill:#B74D3C;}
	.st18{opacity:0.2;enable-background:new    ;}
	.st19{opacity:0.4;enable-background:new    ;}
	.st20{opacity:0.3;enable-background:new    ;}
	.st21{fill:#B97964;}
	.st22{fill:#00222B;}
	.st23{fill:#A86955;}
	.st24{opacity:0.4;}
	.st25{opacity:0.2;fill:#FFFFFF;enable-background:new    ;}
</style>
<rect x="416.8" y="398.5" class="st0" width="33.1" height="0.3"/>
<rect x="322.5" y="401.2" class="st0" width="8.7" height="0.3"/>
<rect x="396.6" y="389.2" class="st0" width="19.2" height="0.3"/>
<rect x="52.5" y="390.9" class="st0" width="43.2" height="0.3"/>
<rect x="104.6" y="390.9" class="st0" width="6.3" height="0.3"/>
<rect x="131.5" y="395.1" class="st0" width="93.7" height="0.3"/>
<path class="st0" d="M237,337.8H43.9c-3.2,0-5.7-2.6-5.7-5.7V60.7c0-3.1,2.6-5.7,5.7-5.7H237c3.2,0,5.7,2.6,5.7,5.7c0,0,0,0,0,0
	v271.4C242.7,335.2,240.2,337.8,237,337.8z M43.9,55.2c-3,0-5.5,2.4-5.5,5.5v271.4c0,3,2.4,5.5,5.5,5.5H237c3,0,5.5-2.4,5.5-5.5
	V60.7c0-3-2.4-5.5-5.5-5.5H43.9z"/>
<path class="st0" d="M453.3,337.8H260.2c-3.2,0-5.7-2.6-5.7-5.7V60.7c0-3.1,2.6-5.7,5.7-5.7h193.1c3.1,0,5.7,2.5,5.7,5.7v271.4
	C459,335.2,456.5,337.8,453.3,337.8z M260.2,55.2c-3,0-5.5,2.4-5.5,5.5v271.4c0,3,2.4,5.5,5.5,5.5h193.1c3,0,5.5-2.4,5.5-5.5V60.7
	c0-3-2.4-5.5-5.5-5.5H260.2z"/>
<rect y="382.4" class="st0" width="500" height="0.3"/>
<polygon class="st1" points="314.7,171.9 169,171.9 177.7,72.6 323.4,72.6 "/>
<rect x="186" y="154.2" class="st2" width="79.1" height="0.8"/>
<path class="st2" d="M266.8,139.8H187v-0.4l4.8-54.9h79.8v0.4L266.8,139.8z M187.8,139H266l4.7-53.8h-78.2L187.8,139z"/>
<path class="st2" d="M190.2,166h-2.1c-1.7,0-3.1-1.3-3.1-3c0-0.1,0-0.3,0-0.4l0.2-2.1c0.2-1.9,1.7-3.3,3.6-3.3h2.1
	c1.7,0,3.1,1.3,3.1,3c0,0.1,0,0.3,0,0.4l-0.2,2.1C193.7,164.5,192.1,166,190.2,166z M188.8,157.9c-1.5,0-2.7,1.1-2.8,2.6l-0.2,2.1
	c-0.1,0.7,0.1,1.3,0.6,1.8c0.4,0.5,1.1,0.8,1.7,0.7h2.1c1.5,0,2.7-1.1,2.9-2.6l0.2-2.1c0.1-0.7-0.1-1.3-0.6-1.8
	c-0.4-0.5-1.1-0.8-1.7-0.7H188.8z"/>
<path class="st2" d="M226.4,149.6h-40.3l0.4-4.3h40.3L226.4,149.6z M187,148.9h38.7l0.2-2.7h-38.7L187,148.9z"/>
<path class="st2" d="M264.6,163.7h-16l0.4-4.3h16L264.6,163.7z M249.4,162.9h14.5l0.2-2.7h-14.5L249.4,162.9z"/>
<path class="st2" d="M265.9,149.6h-4.3l0.4-4.3h4.3L265.9,149.6z M262.5,148.9h2.7l0.2-2.7h-2.7L262.5,148.9z"/>
<path class="st2" d="M260,149.6h-4.3l0.4-4.3h4.3L260,149.6z M256.6,148.9h2.7l0.2-2.7h-2.7L256.6,148.9z"/>
<path class="st2" d="M254.1,149.6h-4.3l0.4-4.3h4.3L254.1,149.6z M250.7,148.9h2.7l0.2-2.7h-2.7L250.7,148.9z"/>
<path class="st2" d="M272,80.3h-60l0.3-3.8h60L272,80.3z M212.8,79.6h58.5l0.2-2.2H213L212.8,79.6z"/>
<path class="st2" d="M208,80.6h-16l0.4-4.3h16L208,80.6z M192.8,79.8h14.5l0.2-2.7h-14.4L192.8,79.8z"/>
<path class="st2" d="M309.6,102.4h-28.2l1.4-16.2h28.2L309.6,102.4z M282.3,101.7h26.6l1.3-14.7h-26.6L282.3,101.7z"/>
<path class="st2" d="M307,132.8h-28.2l1.4-16.2h28.2L307,132.8z M279.7,132.1h26.6l1.3-14.6h-26.6L279.7,132.1z"/>
<path class="st2" d="M304.3,163.3h-28.2l1.4-16.2h28.2L304.3,163.3z M277,162.5h26.6l1.3-14.6h-26.6L277,162.5z"/>
<rect x="280" y="93.9" transform="matrix(0.8811 -0.473 0.473 0.8811 -9.3769 151.3562)" class="st2" width="32.6" height="0.8"/>
<polygon class="st2" points="309.1,102.4 283,87 283.4,86.3 309.5,101.7 "/>
<rect x="277.3" y="124.4" transform="matrix(0.8817 -0.4718 0.4718 0.8817 -24.1294 153.2748)" class="st2" width="32.6" height="0.8"/>
<rect x="293.2" y="109.6" transform="matrix(0.5092 -0.8607 0.8607 0.5092 36.7391 313.9212)" class="st2" width="0.8" height="30.3"/>
<path class="st2" d="M276.1,163.5l1.5-16.8l13.4,7.9l14.2-7.6l0.4,0.7l-13.8,7.4l12.4,7.4l-0.4,0.7l-12.8-7.6L276.1,163.5z
	 M278.3,148.1l-1.3,14.1l13.1-7L278.3,148.1z"/>
<rect x="179.3" y="111.8" transform="matrix(0.838 -0.5457 0.5457 0.838 -24.0487 143.2775)" class="st2" width="100" height="0.8"/>
<rect x="228.9" y="66.1" transform="matrix(0.5923 -0.8057 0.8057 0.5923 3.1287 230.455)" class="st2" width="0.8" height="92.1"/>
<polygon class="st1" points="372.5,383 292.3,383 303.6,253.7 383.8,253.7 "/>
<path class="st2" d="M318.5,377.2H299l1.2-13.7h19.5L318.5,377.2z M299.9,376.4h17.9l1.1-12.1h-17.9L299.9,376.4z"/>
<path class="st2" d="M342.3,377.2h-19.5l1.2-13.7h19.5L342.3,377.2z M323.6,376.4h17.9l1.1-12.1h-17.9L323.6,376.4z"/>
<path class="st2" d="M366,377.2h-19.5l1.2-13.7h19.5L366,377.2z M347.4,376.4h17.9l1.1-12.1h-17.9L347.4,376.4z"/>
<rect x="302.3" y="343.9" class="st2" width="66.3" height="0.8"/>
<path class="st2" d="M347.4,325.4h-43.8l0.4-5.1h43.8L347.4,325.4z M304.4,324.6h42.3l0.3-3.5h-42.2L304.4,324.6z"/>
<path class="st2" d="M367.8,357.7h-18.2l0.4-5h18.2L367.8,357.7z M350.4,356.9H367l0.3-3.4h-16.6L350.4,356.9z"/>
<path class="st2" d="M369.5,338.2h-6.9l0.6-6.9h6.9L369.5,338.2z M363.4,337.4h5.3l0.5-5.3h-5.3L363.4,337.4z"/>
<path class="st2" d="M339.4,338.2h-6.9l0.6-6.9h6.9L339.4,338.2z M333.4,337.4h5.3l0.5-5.3h-5.3L333.4,337.4z"/>
<path class="st2" d="M309.4,338.2h-6.9l0.6-6.9h6.9L309.4,338.2z M303.3,337.4h5.3l0.5-5.3h-5.3L303.3,337.4z"/>
<path class="st2" d="M329.5,265.8h-20.6l0.5-5.3h20.6L329.5,265.8z M309.7,265h19l0.3-3.8H310L309.7,265z"/>
<path class="st2" d="M307.2,359.1h-1.7c-2.4,0-4.4-1.9-4.4-4.3c0-0.2,0-0.4,0-0.6l0.1-1.7c0.3-2.7,2.5-4.7,5.2-4.8h1.7
	c1.2,0,2.4,0.5,3.3,1.4c0.8,0.9,1.2,2.2,1.1,3.4l-0.1,1.7C312.1,357,309.9,359,307.2,359.1z M306.4,348.6c-2.3,0-4.1,1.8-4.4,4
	l-0.1,1.7c-0.2,2,1.2,3.7,3.1,4c0.2,0,0.3,0,0.5,0h1.7c2.3,0,4.1-1.8,4.4-4l0.1-1.7c0.2-2-1.2-3.7-3.1-4c-0.2,0-0.3,0-0.5,0H306.4z"
	/>
<path class="st2" d="M371.3,316.1h-66.9v-0.4l4-46h66.9v0.4L371.3,316.1z M305.2,315.4h65.3l3.9-44.9h-65.3L305.2,315.4z"/>
<rect x="339.5" y="254.3" transform="matrix(0.5923 -0.8057 0.8057 0.5923 -97.4325 393.2593)" class="st2" width="0.8" height="77.1"/>
<polygon class="st2" points="305,316.1 304.6,315.4 374.3,270.1 374.7,270.8 "/>
<polygon class="st2" points="317.9,377.1 300.3,364.2 300.8,363.5 318.4,376.5 "/>
<rect x="297.5" y="369.9" transform="matrix(0.838 -0.5457 0.5457 0.838 -151.942 228.7932)" class="st2" width="23.7" height="0.8"/>
<polygon class="st2" points="341.7,377.1 324.1,364.2 324.6,363.5 342.2,376.5 "/>
<rect x="321.3" y="369.9" transform="matrix(0.8379 -0.5458 0.5458 0.8379 -148.122 241.8511)" class="st2" width="23.7" height="0.8"/>
<polygon class="st2" points="365.5,377.1 347.9,364.2 348.3,363.5 365.9,376.5 "/>
<rect x="345" y="369.9" transform="matrix(0.8379 -0.5458 0.5458 0.8379 -144.2674 254.8228)" class="st2" width="23.7" height="0.8"/>
<path class="st0" d="M396.8,102.4c0-2.2-0.3-4.4-1-6.6l5.8-5.1l-3.6-6.3l-7.2,2.5c-3.1-3.3-7-5.5-11.4-6.6l-1.5-7.5h-7.2l-1.5,7.5
	c-4.4,1-8.3,3.3-11.4,6.6l-7.3-2.4l-3.6,6.3l5.8,5.1c-1.3,4.3-1.3,8.8,0,13.1l-5.8,5.1l3.6,6.3l7.3-2.4c3.1,3.3,7,5.5,11.4,6.6
	l1.5,7.5h7.2l1.5-7.5c4.4-1,8.3-3.3,11.4-6.6l7.3,2.4l3.6-6.3l-5.8-5.1C396.4,106.9,396.8,104.7,396.8,102.4z M374.2,114.6
	c-6.5,0-11.7-5.3-11.7-11.7c0-6.5,5.3-11.7,11.7-11.7c6.5,0,11.7,5.3,11.7,11.7v0C385.9,109.4,380.7,114.6,374.2,114.6z"/>
<path class="st0" d="M148.7,292.5c1.9-3.6,3.2-7.4,4-11.4l13.6-3.3l-0.5-13.2l-13.8-2.2c-2.1-7.9-6.6-14.9-12.7-20.2l3.9-13.4
	l-11.7-6.2l-8.8,10.8c-7.9-2.1-16.2-1.8-23.9,0.9l-9.6-10.1l-11.2,7l5,13.1c-5.7,5.8-9.6,13.2-11.2,21.2l-13.6,3.3l0.5,13.2
	l13.8,2.2c2.2,7.9,6.6,14.9,12.7,20.3l-4,13.4l11.7,6.2l8.8-10.8c7.9,2.1,16.2,1.7,23.9-0.9l9.6,10.1l11.2-7l-5-13
	C144.4,299.4,146.8,296.1,148.7,292.5z M101.9,292.9c-10.5-5.5-14.5-18.5-8.9-28.9c5.5-10.5,18.5-14.5,28.9-8.9s14.5,18.5,8.9,28.9
	c0,0,0,0,0,0C125.3,294.4,112.4,298.4,101.9,292.9L101.9,292.9z"/>
<path class="st3" d="M396,257.4l7.8,4.3c0.3,0.1,0.6,0.3,0.8,0.6c0.1,0.2,0.2,0.4,0.2,0.7c0,0.3-0.1,0.6-0.4,0.9
	c-0.2,0.2-0.5,0.4-0.9,0.4c-0.4,0-0.7-0.2-1-0.4l-10.1-5.6c-0.5-0.3-0.6-0.9-0.4-1.4c0.1-0.2,0.2-0.3,0.4-0.4l10.1-5.6
	c0.3-0.2,0.6-0.3,1-0.3c0.3,0,0.6,0.1,0.9,0.4c0.2,0.2,0.4,0.6,0.4,0.9c0,0.2-0.1,0.5-0.2,0.7c-0.2,0.2-0.5,0.4-0.8,0.6L396,257.4z"
	/>
<path class="st3" d="M416.2,249.2l-7.8,16.8c-0.1,0.3-0.3,0.6-0.5,0.8c-0.2,0.2-0.5,0.3-0.7,0.3c-0.3,0-0.6-0.1-0.9-0.4
	c-0.2-0.2-0.4-0.5-0.4-0.8c0-0.3,0.1-0.6,0.3-0.9l7.8-16.7c0.1-0.3,0.3-0.6,0.5-0.8c0.2-0.2,0.5-0.2,0.7-0.2c0.3,0,0.6,0.1,0.9,0.3
	c0.2,0.2,0.3,0.5,0.4,0.8C416.4,248.6,416.3,249,416.2,249.2z"/>
<path class="st3" d="M425.9,257.4l-7.8-4.4c-0.3-0.1-0.6-0.3-0.8-0.6c-0.1-0.2-0.2-0.4-0.2-0.7c0-0.3,0.1-0.6,0.4-0.9
	c0.2-0.2,0.5-0.4,0.9-0.4c0.3,0,0.7,0.2,1,0.3l10.1,5.6c0.5,0.3,0.6,0.9,0.4,1.4c-0.1,0.2-0.2,0.3-0.4,0.4l-10.1,5.6
	c-0.3,0.2-0.6,0.3-1,0.4c-0.3,0-0.6-0.1-0.9-0.4c-0.2-0.2-0.4-0.6-0.4-0.9c0-0.2,0.1-0.5,0.2-0.7c0.2-0.2,0.5-0.4,0.8-0.6
	L425.9,257.4z"/>
<g id="freepik--Shadow--inject-26">
	<ellipse id="freepik--path--inject-26" class="st1" cx="245.2" cy="412.4" rx="193.9" ry="11.3"/>
</g>
<path class="st3" d="M113.6,186.3h-37c-3.2,0.1-5.8-2.5-5.8-5.6c0-0.2,0-0.5,0-0.7l7.7-88.5c0.4-3.5,3.3-6.2,6.8-6.3h9.6
	c0.9,0,1.6,0.7,1.7,1.6v0.3c0,1.2,1.1,2.2,2.3,2.2h9.1c1.4,0,2.5-1,2.8-2.3l0.1-0.3c0.2-0.9,0.9-1.5,1.8-1.5h9.6
	c1.6,0,3.2,0.7,4.3,1.9c1.1,1.2,1.6,2.9,1.5,4.5l-7.8,88.5C120,183.6,117.1,186.3,113.6,186.3z M85.3,86.3c-3,0.1-5.5,2.4-5.8,5.3
	l-7.7,88.5c-0.3,2.6,1.6,4.9,4.2,5.2c0.2,0,0.4,0,0.6,0h37c3-0.1,5.5-2.4,5.8-5.4l7.7-88.5c0.1-1.4-0.3-2.7-1.2-3.7
	c-0.9-1-2.2-1.5-3.6-1.5h-9.6c-0.4,0-0.8,0.3-0.8,0.7l-0.1,0.3c-0.4,1.8-1.9,3-3.8,3.1h-9.1c-1.8,0-3.3-1.4-3.3-3.2v-0.3
	c0-0.3-0.3-0.6-0.6-0.6c0,0,0,0,0,0L85.3,86.3z"/>
<rect x="78.3" y="99.1" class="st3" width="48.6" height="1"/>
<rect x="112.7" y="85.3" class="st3" width="9.6" height="1"/>
<path class="st3" d="M113.3,140.5H84.9l2.5-28.4h28.4L113.3,140.5z M86,139.5h26.4l2.3-26.4H88.3L86,139.5z"/>
<path class="st3" d="M113.6,172.5H78.8l0.9-10.5h34.8L113.6,172.5z M79.9,171.5h32.8l0.8-8.5H80.7L79.9,171.5z"/>
<path class="st3" d="M90.7,155.1c-1.5,0-2.7-1.2-2.7-2.7c0-0.1,0-0.2,0-0.3c0.2-1.7,1.6-2.9,3.2-2.9c0.8,0,1.5,0.3,2.1,0.9
	c0.5,0.6,0.8,1.4,0.7,2.1l0,0C93.8,153.8,92.4,155.1,90.7,155.1z M91.2,150.1c-1.1,0-2.1,0.9-2.2,2c-0.1,0.5,0.1,1,0.4,1.4
	c0.3,0.4,0.8,0.6,1.3,0.6c1.1,0,2.1-0.9,2.2-2l0,0c0-0.5-0.1-1-0.4-1.4C92.1,150.3,91.7,150.1,91.2,150.1L91.2,150.1z"/>
<path class="st3" d="M97.9,155.1c-1.5,0-2.7-1.2-2.8-2.7c0-0.1,0-0.2,0-0.3c0.2-1.6,1.5-2.9,3.2-2.9c1.5,0,2.8,1.2,2.8,2.7
	c0,0.1,0,0.2,0,0.3C100.9,153.8,99.6,155,97.9,155.1z M98.4,150.1c-1.1,0-2.1,0.9-2.2,2c-0.1,1,0.6,1.8,1.5,1.9c0.1,0,0.2,0,0.2,0
	c1.1,0,2.1-0.9,2.2-2l0,0c0.1-1-0.6-1.8-1.5-1.9C98.5,150.1,98.4,150.1,98.4,150.1z"/>
<path class="st3" d="M105.1,155.1c-0.8,0-1.5-0.3-2.1-0.9c-0.5-0.6-0.8-1.4-0.7-2.1c0.2-1.6,1.5-2.9,3.2-2.9c0.8,0,1.5,0.3,2.1,0.9
	c0.5,0.6,0.8,1.4,0.7,2.1l0,0C108.1,153.8,106.8,155,105.1,155.1z M105.5,150.1c-1.1,0-2.1,0.9-2.2,2c0,0.5,0.1,1,0.4,1.4
	c0.3,0.4,0.8,0.6,1.3,0.6c1.1,0,2.1-0.9,2.2-2l0,0c0.1-1-0.6-1.8-1.5-1.9C105.7,150.1,105.6,150.1,105.5,150.1z"/>
<rect x="354.3" y="286.5" class="st4" width="48.6" height="1"/>
<path class="st3" d="M389.5,373.7h-37c-3.2,0.1-5.8-2.5-5.8-5.6c0-0.2,0-0.5,0-0.7l7.7-88.5c0.4-3.5,3.3-6.2,6.8-6.3h9.6
	c0.9,0,1.6,0.7,1.6,1.6v0.3c0,1.2,1.1,2.2,2.3,2.2h9.2c1.3,0,2.5-1,2.8-2.3l0.1-0.3c0.2-0.9,1-1.5,1.8-1.5h9.6
	c1.6,0,3.2,0.7,4.3,1.9c1.1,1.2,1.6,2.9,1.5,4.5l-7.7,88.5C396,371,393,373.7,389.5,373.7z M361.3,273.6c-3,0.1-5.5,2.4-5.8,5.4
	l-7.7,88.5c-0.1,1.4,0.3,2.7,1.2,3.7c0.9,1,2.2,1.6,3.6,1.5h37c3-0.1,5.5-2.4,5.8-5.4l7.7-88.5c0.3-2.6-1.6-4.9-4.2-5.2
	c-0.2,0-0.4,0-0.6,0h-9.6c-0.4,0-0.8,0.3-0.9,0.7l-0.1,0.3c-0.4,1.8-1.9,3-3.8,3.1h-9.1c-1.8,0-3.2-1.4-3.3-3.1v-0.3
	c0-0.3-0.3-0.6-0.6-0.6c0,0,0,0,0,0H361.3z"/>
<path class="st4" d="M395.7,300.4h-36.5c-1.5,0-2.7-1.2-2.7-2.6c0-0.1,0-0.2,0-0.3c0.2-1.6,1.5-2.8,3.1-2.8h36.5
	c0.8,0,1.5,0.3,2,0.9c0.5,0.6,0.8,1.3,0.7,2.1C398.7,299.2,397.3,300.4,395.7,300.4z M359.6,295.7c-1.1,0-2,0.9-2.1,1.9
	c0,0.5,0.1,0.9,0.4,1.3c0.3,0.4,0.8,0.6,1.3,0.5h36.5c1.1,0,2-0.9,2.1-1.9c0-0.5-0.1-0.9-0.4-1.3c-0.3-0.4-0.8-0.5-1.3-0.5H359.6z"
	/>
<path class="st4" d="M394.9,310h-36.6c-0.8,0-1.5-0.3-2-0.9c-0.5-0.6-0.8-1.3-0.7-2.1c0.2-1.6,1.5-2.8,3.1-2.8h36.5
	c1.5,0,2.7,1.1,2.7,2.6c0,0.1,0,0.2,0,0.3C397.8,308.7,396.5,310,394.9,310z M358.8,305.2c-1.1,0-2,0.8-2.1,1.9c0,0.5,0.1,1,0.4,1.3
	c0.3,0.3,0.8,0.5,1.3,0.5h36.5c1.1,0,2-0.9,2.1-2c0-0.5-0.1-1-0.4-1.3c-0.3-0.3-0.8-0.5-1.3-0.5L358.8,305.2z"/>
<path class="st4" d="M394,319.5h-36.5c-1.5,0-2.7-1.1-2.7-2.6c0-0.1,0-0.2,0-0.3c0.2-1.6,1.5-2.8,3.1-2.8h36.5
	c1.5,0,2.7,1.2,2.7,2.6c0,0.1,0,0.2,0,0.3C397,318.3,395.6,319.5,394,319.5z M357.9,314.7c-1.1,0-2,0.9-2.1,1.9
	c-0.1,0.9,0.5,1.7,1.4,1.8c0.1,0,0.2,0,0.2,0H394c1.1,0,2-0.8,2.1-1.9c0.1-0.9-0.5-1.7-1.4-1.8c-0.1,0-0.2,0-0.2,0L357.9,314.7z"/>
<path class="st4" d="M391.8,345.6h-36.5c-1.5,0-2.7-1.2-2.7-2.6c0-0.1,0-0.2,0-0.3c0.2-1.6,1.5-2.8,3.1-2.8h36.5
	c1.5,0,2.7,1.1,2.7,2.6c0,0.1,0,0.2,0,0.3C394.7,344.3,393.4,345.5,391.8,345.6z M355.6,340.8c-1.1,0-2,0.8-2.1,1.9
	c0,0.5,0.1,0.9,0.5,1.3c0.3,0.4,0.8,0.6,1.3,0.5h36.5c1.1,0,2-0.9,2.1-1.9c0.1-0.5-0.1-0.9-0.4-1.3c-0.3-0.3-0.8-0.5-1.3-0.5
	L355.6,340.8z"/>
<path class="st4" d="M390.9,355.1h-36.5c-0.8,0-1.5-0.3-2-0.9c-0.5-0.6-0.8-1.3-0.7-2.1c0.2-1.6,1.5-2.8,3.1-2.8h36.5
	c1.5,0,2.7,1.2,2.7,2.6c0,0.1,0,0.2,0,0.3C393.8,353.8,392.5,355.1,390.9,355.1z M354.8,350.3c-1.1,0-2,0.8-2.1,1.9
	c0,0.5,0.1,1,0.4,1.3c0.3,0.3,0.8,0.5,1.3,0.5h36.5c1.1,0,2-0.8,2.1-1.9c0-0.5-0.1-1-0.4-1.3c-0.3-0.3-0.8-0.5-1.3-0.5H354.8z"/>
<path class="st4" d="M390.1,364.6h-36.5c-1.5,0-2.7-1.1-2.7-2.6c0-0.1,0-0.2,0-0.3c0.2-1.6,1.5-2.8,3.1-2.8h36.5
	c1.5,0,2.7,1.2,2.7,2.6c0,0.1,0,0.2,0,0.3C393,363.4,391.7,364.6,390.1,364.6z M354,359.9c-1.1,0-2,0.9-2.1,1.9
	c-0.1,0.9,0.5,1.7,1.4,1.8c0.1,0,0.2,0,0.2,0h36.5c1.1,0,2-0.8,2.1-1.9c0-0.5-0.1-0.9-0.4-1.3c-0.3-0.4-0.8-0.5-1.3-0.5L354,359.9z"
	/>
<path class="st4" d="M407.9,239.4c-8.8,0-16-7.2-16-16s7.2-16,16-16s16,7.2,16,16S416.7,239.4,407.9,239.4z M407.9,208.4
	c-8.3,0-15,6.7-15,15s6.7,15,15,15s15-6.7,15-15C422.9,215.1,416.2,208.4,407.9,208.4L407.9,208.4z"/>
<path class="st4" d="M405.1,232.6l-7.5-9.9l0.8-0.6l6.3,8.3c2.9-9.3,8.8-17.4,16.7-23l2.2-1.6l0.6,0.8l-2.3,1.6
	c-8,5.7-13.9,13.9-16.6,23.4L405.1,232.6z"/>
<path class="st5" d="M297.2,107.8h-26L245,407.1h26c12.3-0.2,22.5-9.6,23.7-21.8l22.4-255.7c1.2-10.8-6.6-20.5-17.4-21.7
	C298.8,107.8,298,107.8,297.2,107.8z"/>
<path class="st6" d="M265.7,407.1h-107c-10.9,0.2-19.8-8.4-20-19.3c0-0.8,0-1.7,0.1-2.5l22.4-255.7c1.2-12.2,11.4-21.6,23.7-21.8
	h107c10.9-0.2,19.8,8.4,20,19.3c0,0.8,0,1.7-0.1,2.5l-22.4,255.7C288.1,397.5,277.9,406.9,265.7,407.1z"/>
<path class="st7" d="M291.4,112.8h-27.8c-1.9,0-3.5,1.3-3.9,3.2l-0.2,0.9c-1,4.4-4.9,7.6-9.4,7.7h-26.4c-4.4,0.1-8-3.4-8.1-7.7V116
	c-0.1-1.8-1.5-3.2-3.3-3.2h-27.8c-9.5,0.2-17.3,7.4-18.3,16.8l-22.4,255.7c-0.9,8.3,5.1,15.8,13.4,16.7c0.6,0.1,1.3,0.1,1.9,0.1h107
	c9.5-0.2,17.3-7.4,18.3-16.8l22.4-255.7c0.9-8.3-5.1-15.8-13.4-16.7C292.7,112.8,292.1,112.8,291.4,112.8z"/>
<g>
	<g>
		<path class="st3" d="M231.2,115.6c-0.1,1.2-1.1,2.1-2.3,2.1c-1.1,0-1.9-0.8-2-1.9c0-0.1,0-0.2,0-0.2c0.1-1.2,1.1-2.1,2.3-2.1
			c1.1,0,1.9,0.8,2,1.9C231.2,115.5,231.2,115.5,231.2,115.6z"/>
		<path class="st3" d="M246.4,113.5h-7.3c-1.2,0-2.2,0.9-2.3,2.1c-0.1,1,0.6,2,1.7,2.1c0.1,0,0.2,0,0.3,0h7.3c1.2,0,2.2-0.9,2.3-2.1
			c0.1-1-0.6-2-1.7-2.1C246.6,113.5,246.5,113.5,246.4,113.5z"/>
	</g>
</g>
<polygon class="st5" points="178.3,124.5 180.5,124.5 180.7,122.3 178.4,122.3 "/>
<polygon class="st5" points="182.9,122.3 182.8,124.5 185,124.5 185.2,122.3 185.4,120 183.1,120 "/>
<polygon class="st5" points="187.8,117.8 187.6,120 187.4,122.3 187.3,124.5 189.5,124.5 189.7,122.3 189.9,120 190.1,117.8 "/>
<path class="st5" d="M284.6,117.9l-0.1,1.7h-1.1l-0.3,3.3h1.1l-0.1,1.6h9.9l0.6-6.6H284.6z M288.6,122.8h-3.3l0.3-3.3h3.3
	L288.6,122.8z"/>
<polygon class="st8" points="280.1,296.3 135.4,296.3 147.6,157.1 292.3,157.1 "/>
<polygon class="st4" points="276.3,292.1 131.6,292.1 143.7,152.9 288.5,152.9 "/>
<g>
	<g>
		<polygon class="st9" points="276.3,292.1 131.6,292.1 143.7,152.9 288.5,152.9 		"/>
		<path class="st9" d="M276.7,292.6H131l0.1-0.5l12.2-139.6H289L276.7,292.6z M132.1,291.6h143.7l12.1-138.2H144.2L132.1,291.6z"/>
	</g>
</g>
<polygon class="st10" points="268.2,253.7 146.3,253.7 154.1,164.7 276,164.7 "/>
<path class="st4" d="M268.7,254.2H145.8l7.9-90.1h122.9L268.7,254.2z M146.9,253.2h120.9l7.7-88.1H154.6L146.9,253.2z"/>
<rect x="210.7" y="136.8" transform="matrix(0.6152 -0.7883 0.7883 0.6152 -83.661 246.9486)" class="st4" width="1" height="144.8"/>
<line class="st11" x1="146.3" y1="253.7" x2="276" y2="164.7"/>
<rect x="132.5" y="208.7" transform="matrix(0.8241 -0.5664 0.5664 0.8241 -81.3429 156.397)" class="st4" width="157.3" height="1"/>
<path class="st4" d="M193.6,266.8c-0.3,2.6-2.4,4.6-5,4.6c-2.3,0-4.2-1.8-4.2-4.1c0-0.2,0-0.4,0-0.5c0.3-2.6,2.4-4.5,5-4.6
	c2.3,0,4.2,1.8,4.2,4.1C193.6,266.4,193.6,266.6,193.6,266.8z"/>
<path class="st4" d="M210.7,266.8c-0.3,2.6-2.4,4.6-5,4.6c-2.3,0-4.2-1.8-4.2-4.1c0-0.2,0-0.3,0-0.5c0.3-2.6,2.4-4.6,5-4.6
	c2.3,0,4.2,1.8,4.2,4.1C210.7,266.4,210.7,266.6,210.7,266.8z"/>
<path class="st4" d="M227.9,266.8c-0.3,2.6-2.4,4.6-5,4.6c-2.3,0-4.2-1.8-4.2-4.1c0-0.2,0-0.4,0-0.5c0.3-2.6,2.4-4.6,5-4.6
	c2.3,0,4.2,1.8,4.2,4.1C227.9,266.4,227.9,266.6,227.9,266.8z"/>
<polygon class="st4" points="192.5,370.5 124.7,370.5 130.4,305.3 198.2,305.3 "/>
<g class="st12">
	<polygon class="st7" points="192.5,370.5 124.7,370.5 130.4,305.3 198.2,305.3 	"/>
	<path class="st4" d="M192.9,371h-68.8l5.8-66.2h68.8L192.9,371z M125.3,370H192l5.6-64.2h-66.8L125.3,370z"/>
</g>
<polygon class="st7" points="188.7,352.5 131.6,352.5 135.3,310.8 192.3,310.8 "/>
<path class="st4" d="M189.1,353h-58.1l3.7-42.7h58.1L189.1,353z M132.1,352h56.1l3.6-40.7h-56.1L132.1,352z"/>
<line class="st11" x1="135.3" y1="310.8" x2="188.7" y2="352.5"/>
<rect x="161.5" y="297.8" transform="matrix(0.6152 -0.7883 0.7883 0.6152 -199.1244 255.2875)" class="st4" width="1" height="67.8"/>
<line class="st11" x1="131.6" y1="352.5" x2="192.3" y2="310.8"/>
<rect x="125.2" y="331.1" transform="matrix(0.8241 -0.5664 0.5664 0.8241 -159.3469 150.0748)" class="st4" width="73.7" height="1"/>
<path class="st4" d="M153.7,358.6c-0.1,1.2-1.1,2.1-2.3,2.1c-1.1,0-2-0.8-2-1.8c0-0.1,0-0.2,0-0.3c0.1-1.2,1.1-2.1,2.3-2.2
	c1.1,0,2,0.9,2,2C153.7,358.5,153.7,358.6,153.7,358.6z"/>
<path class="st4" d="M161.8,358.6c-0.1,1.2-1.1,2.1-2.3,2.1c-1.1,0-2-0.8-2-1.9c0-0.1,0-0.2,0-0.3c0.1-1.2,1.1-2.1,2.3-2.2
	c1.1,0,2,0.9,2,2C161.8,358.5,161.8,358.6,161.8,358.6z"/>
<path class="st4" d="M169.8,358.6c-0.1,1.2-1.1,2.1-2.3,2.1c-1.1,0-2-0.8-2-1.9c0-0.1,0-0.2,0-0.3c0.1-1.2,1.1-2.1,2.3-2.2
	c1.1,0,2,0.9,2,2C169.8,358.5,169.8,358.6,169.8,358.6z"/>
<polygon class="st4" points="269.4,370.5 201.6,370.5 207.4,305.3 275.1,305.3 "/>
<g class="st12">
	<polygon class="st7" points="269.4,370.5 201.6,370.5 207.4,305.3 275.1,305.3 	"/>
	<path class="st4" d="M269.9,371h-68.8l5.8-66.2h68.8L269.9,371z M202.2,370H269l5.6-64.2h-66.8L202.2,370z"/>
</g>
<polygon class="st7" points="265.6,352.5 208.6,352.5 212.2,310.8 269.3,310.8 "/>
<path class="st4" d="M266.1,353H208l3.7-42.7h58.1L266.1,353z M209.1,352h56.1l3.6-40.7h-56.1L209.1,352z"/>
<line class="st11" x1="212.2" y1="310.8" x2="265.6" y2="352.5"/>
<rect x="238.4" y="297.7" transform="matrix(0.6152 -0.7883 0.7883 0.6152 -169.5062 315.9534)" class="st4" width="1" height="67.8"/>
<line class="st11" x1="208.6" y1="352.5" x2="269.3" y2="310.8"/>
<rect x="202.1" y="331.1" transform="matrix(0.8241 -0.5664 0.5664 0.8241 -145.8168 193.6587)" class="st4" width="73.7" height="1"/>
<path class="st4" d="M230.7,358.6c-0.1,1.2-1.1,2.1-2.3,2.1c-1.1,0-2-0.8-2-1.8c0-0.1,0-0.2,0-0.3c0.1-1.2,1.1-2.1,2.3-2.2
	c1.1,0,2,0.8,2,1.9C230.7,358.4,230.7,358.5,230.7,358.6z"/>
<path class="st4" d="M238.7,358.6c-0.1,1.2-1.1,2.1-2.3,2.1c-1.1,0-2-0.8-2-1.8c0-0.1,0-0.2,0-0.3c0.1-1.2,1.1-2.1,2.3-2.2
	c1.1,0,2,0.8,2,1.9C238.7,358.4,238.7,358.5,238.7,358.6z"/>
<path class="st4" d="M246.8,358.6c-0.1,1.2-1.1,2.1-2.3,2.1c-1.1,0-2-0.8-2-1.9c0-0.1,0-0.2,0-0.3c0.1-1.2,1.1-2.1,2.4-2.2
	c1.1,0,2,0.9,2,2C246.8,358.5,246.8,358.6,246.8,358.6z"/>
<polygon class="st4" points="268.2,147.1 196.6,147.1 197.4,137.5 269,137.5 "/>
<rect x="177.6" y="145" class="st5" width="11.1" height="1"/>
<rect x="177.9" y="141.2" class="st5" width="11.1" height="1"/>
<rect x="178.3" y="137.5" class="st5" width="11.1" height="1"/>
<g class="st13">
	<path class="st7" d="M223.8,124.5l-73.9,274.6c2.7,1.9,5.9,3,9.2,2.9h5.8l74.6-277.6L223.8,124.5z"/>
	<path class="st7" d="M291.4,112.8h-27.8c-1.9,0-3.5,1.3-3.9,3.2l-0.2,0.9c-1,4.3-4.7,7.5-9.1,7.7l-74.7,277.6h56.9l74-275.2
		C306.2,118.9,299.5,112.6,291.4,112.8z"/>
</g>
<rect x="165.9" y="131.9" class="st4" width="140.5" height="1.5"/>
<path class="st14" d="M318.7,167.9c0.1-0.3,0.3-0.6,0.6-0.8c0.2-0.1,0.5-0.2,0.8-0.3c2-0.5,4.1-0.6,6.1-0.2c0.2,0,0.3,0.1,0.4,0.2
	c0.1,0.1,0.1,0.2,0.1,0.4c0.2,1.1,0.3,2.3,0.5,3.4c0.2,0.5,0,1-0.5,1.3c-1.8,1.4-3.7,2.6-5.7,3.6c-1,0.2-4.1-0.8-5-1.2
	S317.8,169.8,318.7,167.9z"/>
<path class="st4" d="M296.2,202.2c0.9-7.1,16.8-26.4,18.9-29.1c1.2-1.6,6-0.4,7,2.5c-4.4,6-6.8,11.1-9.7,17.9
	c-1.5,3.1-3.1,6.2-4.9,9.2C299.4,214,295.8,205.3,296.2,202.2z"/>
<g class="st15">
	<path d="M296.2,202.2c0.9-7.1,16.8-26.4,18.9-29.1c1.2-1.6,6-0.4,7,2.5c-4.4,6-6.8,11.1-9.7,17.9c-1.5,3.1-3.1,6.2-4.9,9.2
		C299.4,214,295.8,205.3,296.2,202.2z"/>
</g>
<path class="st14" d="M353.6,219.2c0,0-5.1,0.1-6.6,1.5l-2.2,1.9c-0.4,0.4-0.5,1-0.1,1.4c0,0,0,0,0.1,0.1c1.2,1.3,3.8,3.9,6.6,4.9
	c0.6,0.2,1.4,0.1,1.9-0.3c0,0,3.5-4.4,2.9-5.3L353.6,219.2z"/>
<path class="st4" d="M367,219.7c-0.5,0.3-0.9,0.5-1.4,0.7l-7.1,2.6c-4.9,2.4-5.2-3.6-5.2-3.6l2-1.7l13.3-11c0,0-12.4-9.2-20.4-16.9
	c-6-6.9-5.2-11.5,1.9-10.7c5.1,0.5,28.5,22.4,30.5,24.7S377.8,213.8,367,219.7z"/>
<path class="st16" d="M367,219.7c-0.5,0.3-0.9,0.5-1.4,0.7l-7.1,2.6c-4.9,2.4-5.2-3.6-5.2-3.6l2-1.7l13.3-11c0,0-12.4-9.2-20.4-16.9
	c-6-6.9-5.2-11.5,1.9-10.7c5.1,0.5,28.5,22.4,30.5,24.7S377.8,213.8,367,219.7z"/>
<path class="st5" d="M370.8,195.6l-0.1-0.1L370.8,195.6z"/>
<path class="st5" d="M324.6,151c-0.4-0.1-0.8,0.4-1,1s0.1,1.2,0.5,1.3s0.8-0.4,1-1S325,151,324.6,151z"/>
<path class="st17" d="M323.5,159.2c-1.1,0.1-2.1-0.3-2.9-1.1c1.5-1.4,2.9-3,4-4.8L323.5,159.2z"/>
<path class="st5" d="M327.8,149.1c-0.6-0.7-1.6-1.1-2.5-1l0,0h-0.1c-0.2,0-0.4-0.2-0.4-0.4c0,0,0,0,0,0c0-0.2,0.2-0.4,0.4-0.4
	c0,0,0,0,0,0c1.2-0.1,2.4,0.3,3.2,1.2c0.1,0.1,0.1,0.2,0.1,0.3c0,0.2-0.2,0.4-0.4,0.4C328,149.2,327.9,149.2,327.8,149.1
	L327.8,149.1z"/>
<path class="st14" d="M332.7,186.9c10.7-0.1,12.2-6,12.2-6c-3.2-3-3.5-8.7-3-13.8c-0.8,1.2-1.9,2.3-3.1,3.1
	c-2.3,1.6-5.1,2.2-7.8,1.6c0,0-0.1,0-0.1,0c0,0.1,0,0.2,0.1,0.3c0.7,4.1,0.3,8.4-4,9.8C327,181.8,320.9,187,332.7,186.9z"/>
<path class="st14" d="M330.6,170.2c0.1,0.5,0.3,1,0.3,1.5c0,0,0.1,0,0.1,0c2.7,0.6,5.5,0,7.8-1.6c1.2-0.8,2.3-1.9,3.1-3.1
	c0.1-1.3,0.4-2.6,0.6-3.7L331,170L330.6,170.2z"/>
<path class="st4" d="M346,180.5c0,0-1.6-4.6-3.9-6.1s-12.3,0.3-13.9,1s-3.1,4.3-3.1,4.3L346,180.5z"/>
<path class="st10" d="M346,180.5c0,0-1.6-4.6-3.9-6.1s-12.3,0.3-13.9,1s-3.1,4.3-3.1,4.3L346,180.5z"/>
<path class="st4" d="M332.9,410.4c-1,0-1.9-0.1-2.2-0.6c-0.2-0.2-0.2-0.5,0-0.8c0.1-0.2,0.3-0.4,0.6-0.4c1.3-0.4,3.9,1.1,4,1.2
	c0.1,0,0.1,0.1,0.1,0.2c0,0.1-0.1,0.1-0.1,0.1C334.4,410.3,333.7,410.4,332.9,410.4z M331.7,408.9c-0.1,0-0.2,0-0.3,0
	c-0.2,0-0.3,0.1-0.4,0.3c-0.1,0.2-0.1,0.3,0,0.4c0.4,0.5,2.3,0.5,3.6,0.3C333.8,409.3,332.8,409,331.7,408.9L331.7,408.9z"/>
<path class="st4" d="M335.2,410.1L335.2,410.1c-1-0.4-2.8-2-2.6-2.9c0-0.2,0.2-0.5,0.7-0.5c0.4,0,0.7,0.1,1,0.3
	c1,0.8,1.1,2.8,1.2,2.9c0,0.1,0,0.1-0.1,0.2C335.3,410.1,335.2,410.1,335.2,410.1z M333.4,407.1h-0.1c-0.3,0-0.3,0.2-0.4,0.2
	c-0.1,0.5,1.1,1.8,2,2.3c-0.1-0.9-0.4-1.7-1-2.3C333.7,407.2,333.5,407.1,333.4,407.1L333.4,407.1z"/>
<polygon class="st14" points="342.8,392.7 335.3,392.7 335.9,410 343.4,409.9 "/>
<path class="st5" d="M334.2,409.7c-5.1,3.1-6.7,3.3-12.6,4.6c-1.3,0.3-0.5,3.4,2.6,3.4c5.1,0,5.6-0.3,10-0.3c3.7,0,8,0.2,11,0.2
	c0.1,0,0.2,0,0.3,0c0.6-0.1,1-0.7,0.8-1.3l-1.5-6.7c-0.1-0.3-0.3-0.5-0.6-0.5H336C335.3,409.1,334.7,409.3,334.2,409.7z"/>
<polygon class="st18" points="342.8,392.7 343.1,402.3 335.6,402.3 335.3,392.7 "/>
<path class="st4" d="M398.6,407.3c-0.2-0.8-0.1-1.6,0.4-2.3c0.2-0.2,0.6-0.2,0.8-0.1c0.2,0.1,0.4,0.3,0.5,0.5
	c0.5,1.3-0.8,4.1-0.9,4.3c0,0.1-0.1,0.1-0.2,0.1c-0.1,0-0.1-0.1-0.2-0.1C398.8,408.9,398.6,408.1,398.6,407.3z M400,405.9
	c0-0.1,0-0.2,0-0.4c0-0.2-0.1-0.3-0.3-0.3c-0.2-0.1-0.4,0-0.4,0c-0.5,0.4-0.3,2.4,0.1,3.8C399.7,408,400,406.9,400,405.9L400,405.9z
	"/>
<path class="st4" d="M399,409.6C399,409.6,399,409.5,399,409.6c0.3-1.1,1.8-3.1,2.7-3c0.2,0,0.5,0.1,0.6,0.6c0.1,0.4,0,0.8-0.2,1.1
	c-0.7,1.1-2.8,1.5-2.9,1.5c-0.1,0-0.1,0-0.2-0.1C399,409.7,399,409.6,399,409.6z M402,407.4v-0.1c0-0.3-0.2-0.3-0.2-0.3
	c-0.5,0-1.7,1.3-2.2,2.3c0.9-0.2,1.7-0.6,2.3-1.2C401.9,407.9,402,407.7,402,407.4L402,407.4z"/>
<polygon class="st14" points="393.7,392.6 386.4,393.1 390.7,410.5 398,410 "/>
<path class="st5" d="M399.8,408.6c2.3,2.3,3.5,3.4,9.6,4.8c1.4,0.3,0.5,3.5-2.8,3.5c-5.3-0.1-2.4-0.3-7-0.3c-3.9,0-7.3,0-10.4,0
	c-0.1,0-0.2,0-0.3,0c-0.6-0.1-1-0.8-0.9-1.4l1.6-6.9c0.1-0.3,0.4-0.5,0.7-0.5l7.5,0.2C398.5,407.9,399.2,408.1,399.8,408.6z"/>
<polygon class="st18" points="393.7,392.6 395.9,401.5 388.6,402 386.4,393.1 "/>
<path class="st4" d="M354.1,241c2.8,4.4,5.1,9.1,6.9,13.9c4,10.8,2.6,16.5,3.9,23.8c2.4,12.9,5.9,22.8,8.4,32.6
	c7.7,30.6,24,85,24,85l-13.2,2.9c0,0-24.4-64.9-31.4-86.8c-6.2-19.7-22.3-71.5-22.3-71.5H354.1z"/>
<path class="st19" d="M354.1,241c2.8,4.4,5.1,9.1,6.9,13.9c4,10.8,2.6,16.5,3.9,23.8c2.4,12.9,5.9,22.8,8.4,32.6
	c7.7,30.6,24,85,24,85l-13.2,2.9c0,0-24.4-64.9-31.4-86.8c-6.2-19.7-22.3-71.5-22.3-71.5H354.1z"/>
<path class="st4" d="M398.9,393.9l0.1,4.7l-15.9,1.7c0,0-1.4-5.1-1.3-5.1L398.9,393.9z"/>
<path class="st10" d="M398.9,393.9l0.1,4.7l-15.9,1.7c0,0-1.4-5.1-1.3-5.1L398.9,393.9z"/>
<path class="st20" d="M338,264.8c5,16.3,11.5,36.9,14.9,47.6c0.2,0.5,0.3,1.1,0.5,1.6c-1.3-18-4.9-48.3-14-49.4
	C339,264.7,338.5,264.7,338,264.8z"/>
<path class="st4" d="M342,240.9c0,0,3.9,49.7,4.3,73.2c0.4,21.9-1.2,85.7-1.2,85.7h-12.7c0,0-6.1-65.1-8.3-87.4
	c-2.1-21-7.7-71.1-7.7-71.1L342,240.9z"/>
<path class="st19" d="M342,240.9c0,0,3.9,49.7,4.3,73.2c0.4,21.9-1.2,85.7-1.2,85.7h-12.7c0,0-6.1-65.1-8.3-87.4
	c-2.1-21-7.7-71.1-7.7-71.1L342,240.9z"/>
<path class="st4" d="M347,395.4l-0.4,4.7h-15.4c0,0-0.7-5.2-0.7-5.2L347,395.4z"/>
<path class="st10" d="M347,395.4l-0.4,4.7h-15.4c0,0-0.7-5.2-0.7-5.2L347,395.4z"/>
<path class="st3" d="M366.6,256.8l-3.5-1c-5.7-1.6-11.7-1.8-17.5-0.5l-4.1-9.5l1.3,10h-1.8c-5.2-0.1-10.4,0.9-15.2,3.1
	c-1.5,0.8-3.1,1.5-4.8,2c0-0.3-4.5-19.4-4.5-19.4c-4.5-31-3.8-46.7-2.4-54.3c0.7-4.1,3.9-7.3,8-8.1c1.5-0.3,3.3-0.6,5.1-0.7
	c5.3-0.4,10.7-0.4,16-0.2l3.5,0.3c5.6,0.3,11.3,5,10.3,10.6c-3.4,18.3-3.9,31.7-3.7,40.5L366.6,256.8z"/>
<path class="st18" d="M313.1,212.1c0,0-0.1-15.3,0-18.1l11.4-7.8C319.6,194.3,315.8,203,313.1,212.1z"/>
<path class="st14" d="M322.8,161.7c0.1,3.7,2.2,7.1,5.5,9l0,0l0,0c0.8,0.5,1.7,0.8,2.7,1.1c0,0,0.1,0,0.1,0c2.7,0.6,5.5,0,7.8-1.6
	c1.3-0.8,2.3-1.9,3.2-3.1c2-2.9,2.8-6.8,4.2-12.2c1.5-5.7-1.8-11.5-7.5-13.1c-1.6-0.4-3.3-0.5-4.9-0.2
	C325.7,143.3,322.5,154.4,322.8,161.7z"/>
<path class="st18" d="M328.3,170.7c0.8,0.5,1.7,0.8,2.7,1.1l-0.4-4.8C330.5,167,328.8,170.7,328.3,170.7z"/>
<path class="st5" d="M355.6,156.1c-0.9,1.1-2,2.3-3.4,2.4c-0.8,0.1-1.7-0.1-2.4-0.4c-2.5,4.3-7.8,8.9-7.8,8.9
	c-1.3,0.5-2.7,0.8-4.2,0.8c-1.5,0-3-0.3-4.3-0.8c-0.3-0.1-0.5-0.2-0.8-0.3c-0.4-0.1-2.4-8.6-5.2-9.8l-0.6-0.3
	c0.2-0.9-0.1-3.4,0.8-4.2c0.5-0.5-0.8-1.6-0.7-2.5c0-0.1,0-0.1,0-0.2c-0.9-0.6-1-1.8-0.6-3c0.9-3.2,2.5-2.3,2.5-2.3
	c-0.6-0.8-0.8-1.9-0.6-2.9c0.4-1.8,3.8-2.8,3.8-2.8l1.2,0.2c0.8-0.6,1.8-0.9,2.8-0.9c1.5,0.1,2.8,0.9,3.7,2.1
	c1.8-1.4,4.4-1.1,5.9,0.7c0.4,0.5,0.6,1,0.8,1.5c1.3-0.4,2.7,0,3.6,1c1,1,1.4,2.4,1,3.7c1,0.3,1.6,1.1,1.7,2.1c0,1,0,2.1-0.3,3.1
	c-0.2,1-0.1,2.1,0.4,3C353.4,156.2,354.6,156.6,355.6,156.1z"/>
<path class="st14" d="M330.5,151.7c-2.2,0.7-3.3,4-3.4,6.1c-0.1,2.3,1.5,3.8,3.5,2.2c1.5-1.2,2.6-2.9,3-4.8
	C334.1,153,332.7,151,330.5,151.7z"/>
<path class="st4" d="M311.3,186.8l-14.1,16c-2,4.5,4.8,9.5,9.6,5.1l16.9-19.5c1.2-2.7,1.4-4.9-0.4-6.6
	C321,179.5,316.8,178,311.3,186.8z"/>
<path class="st21" d="M118.6,217.3c4,4.4,8.2,8.5,12.8,12.3c2.6,2.1,25.1-11.6,27.9-13.2c0,0-2.5-2.5-3.6-2.2c-3.9,1-21.5,7-21.5,7
	c-0.8-0.3-8.9-9.5-8.9-9.5L118.6,217.3z"/>
<path class="st21" d="M162.2,213L162.2,213L162.2,213c0,0-2,3.3-4.7,4.1l-2.1-2l0.9-6l0.1-0.4l0.2-0.2l2.8-2.7
	c0.6-0.6,1.5-0.6,2.1,0l2.1,2c0.5,0.4,0.6,1.2,0.3,1.7L162.2,213z"/>
<path class="st5" d="M130.6,214.7c-5.7-8.2-15.8-13.5-18.7-13.6c-4.1-0.1-5.4,0.9-3.8,4c2.7,5.3,7,10.8,13.1,17.3L130.6,214.7z"/>
<path class="st22" d="M114.3,201.5c-2.3-0.8-4.6-1.6-7-2.1c-4.4-1.1-8.8-1.8-13.3-2.2c-2.6-0.3-5.2-0.4-7.8-0.4
	c-0.3,0-0.5,0-0.8,0.1c-2,0.5-3.3,2.6-2.9,4.6c4.4,23.2,4.6,33.5,4,45.4l26.7,1c0.7,0,1.3-0.5,1.4-1.2c1.2-6,4.9-19.4,4.9-19.4
	c3.8-2.7,3.6-5.7,2.6-9.7c-0.3-1.2-1-2.4-4.1-9C118,208.6,115.7,202,114.3,201.5z"/>
<path class="st7" d="M97.4,247.3l9.7,0.4c1.4-11.6,0.7-20.2,0.7-33.3C107.9,226.6,100.9,241.4,97.4,247.3z"/>
<path class="st21" d="M107.6,252c0,0,12,59.4,11.4,84c-0.7,25.9-5.7,70.6-5.7,70.6l-6.3-0.1c0,0-5.7-33.1-2.4-69.3
	c-16.6-36.4-20.9-82.9-20.9-82.9L107.6,252z"/>
<path class="st23" d="M107.6,252c0,0,12,59.4,11.4,84c-0.7,25.9-5.7,70.6-5.7,70.6l-6.3-0.1c0,0-5.7-33.1-2.4-69.3
	c-16.6-36.4-20.9-82.9-20.9-82.9L107.6,252z"/>
<path class="st21" d="M102.2,266.6c0,0,3.1,46.5-0.1,70.9c-3.4,25.7-13.3,69.6-13.3,69.6l-6.3-0.8c0,0-2.1-33.5,5-69.2
	c-12.5-37.9-9.4-70.8-9.4-70.8L102.2,266.6z"/>
<path class="st21" d="M102.2,266.6c0,0,3.1,46.5-0.1,70.9c-3.4,25.7-13.3,69.6-13.3,69.6l-6.3-0.8c0,0-2.1-33.5,5-69.2
	c-12.5-37.9-9.4-70.8-9.4-70.8L102.2,266.6z"/>
<path class="st4" d="M78.3,320.1c6.5,1.6,13.1,2.8,19.7,3.4l0.6,0c0.4,0,0.8,0.1,1.3,0.1c2.7,0.1,20.6,2.5,21.9-4.9
	c0,0-3.9-18.3-7.6-38.6c-2.3-12.3-0.4-29.7-0.4-29.7l0,0c-7.8-0.9-15.7-1.1-23.5-0.7l-4.6,0.3c0,0-15.4,15.3-11.6,30.3
	C79.8,302.9,78.3,320.1,78.3,320.1z"/>
<g class="st24">
	<path d="M78.3,320.1c6.5,1.6,13.1,2.8,19.7,3.4l0.6,0c0.4,0,0.8,0.1,1.3,0.1c2.7,0.1,20.6,2.5,21.9-4.9c0,0-3.9-18.3-7.6-38.6
		c-2.3-12.3-0.4-29.7-0.4-29.7l0,0c-7.8-0.9-15.7-1.1-23.5-0.7l-4.6,0.3c0,0-15.4,15.3-11.6,30.3C79.8,302.9,78.3,320.1,78.3,320.1z
		"/>
</g>
<path class="st16" d="M90.2,196.8L90.2,196.8c0.6,2.3,1.7,4.6,3.1,6.5c3.9,5.3,9.6,11.1,12.1,11.8c0.7-1.7,1.8-4.9,1.8-4.9
	c1.7,0.8,2.1,3.1,2.7,4.9c2.7-4.3,4.7-11.7,4-14.4c0,0-3.2-0.9-4.8-1.3c-4.4-1-8.8-1.7-13.3-2.1C93.9,197,92.1,196.8,90.2,196.8z"/>
<path class="st7" d="M90.1,196.3l0.9,1.6c3.4,6.2,11.3,14.1,14.4,14.9c0.6-1.5,1.1-3,1.5-4.6c1.7,0.8,2.9,3.1,3.4,4.9
	c2.7-4.3,4.2-10.3,3.6-13l0,0c-1.6-0.5-3.2-0.9-4.8-1.4c-4.4-1-8.8-1.7-13.3-2.1C93.9,196.5,92,196.4,90.1,196.3z"/>
<path class="st4" d="M86.5,250l13.5,0.4h1.1l2.9,0.1h1.1l7.9,0.2c0.3,0,0.5-0.1,0.5-0.3l0.3-2.5c0-0.2-0.2-0.3-0.5-0.3l-7.8-0.3
	h-0.9l-3.9-0.1h-0.9l-13-0.5c-0.2,0-0.4,0.1-0.5,0.2l-0.4,2.9C85.9,249.8,86.2,250,86.5,250z"/>
<path class="st25" d="M86.5,250l13.5,0.4h1.1l2.9,0.1h1.1l7.9,0.2c0.3,0,0.5-0.1,0.5-0.3l0.3-2.5c0-0.2-0.2-0.3-0.5-0.3l-7.8-0.3
	h-0.9l-3.9-0.1h-0.9l-13-0.5c-0.2,0-0.4,0.1-0.5,0.2l-0.4,2.9C85.9,249.8,86.2,250,86.5,250z"/>
<path class="st5" d="M109.4,250.9h-0.9c-0.1,0-0.3-0.1-0.3-0.2c0,0,0,0,0,0l0.5-3.6c0-0.1,0.2-0.2,0.3-0.2h0.9
	c0.2,0,0.3,0.1,0.3,0.2l-0.5,3.6C109.7,250.9,109.5,251,109.4,250.9z"/>
<path class="st5" d="M94.3,250.7h-0.8c-0.1,0-0.2,0-0.3-0.2c0,0,0,0,0,0l0.5-3.6c0-0.1,0.2-0.2,0.3-0.2h0.8c0.2,0,0.3,0.1,0.3,0.2
	l-0.5,3.6C94.6,250.6,94.5,250.7,94.3,250.7z"/>
<polygon class="st4" points="123,240.2 102.6,240.2 105,212.9 125.4,212.9 "/>
<path class="st21" d="M86.6,235.1c0.8-0.8,1.2-1.9,1.1-3c0,0,0-1.7,0.1-4.2c0.1-7.4,0.1-22.1-0.6-24.1c-1.7-4.2-4.6-6.5-6.1-4.1
	c-1.8,2.9-1.9,24.8-1.9,24.8C79.6,239,84.9,237.1,86.6,235.1z"/>
<path class="st21" d="M114.8,232.9L114.8,232.9L114.8,232.9c0,0-3.3,2-6.1,1.4l-0.9-2.8l3.7-4.8l0.2-0.3l0.3-0.1l3.8-1.1
	c0.8-0.2,1.6,0.2,1.8,1l0.9,2.8c0.2,0.6,0,1.3-0.6,1.7L114.8,232.9z"/>
<path class="st21" d="M82.2,235.9c2.4,2.9,26.8-1.4,27-1.5c0.8-0.4,0.9-2.4,0-3.2c-0.5-0.4-25.5-2.7-27.2-2.8
	C79.1,232.9,81,234.4,82.2,235.9z"/>
<path class="st5" d="M116.8,168c3.3,4,5,7,3,20.5c-0.4,2.5,0.7,8.5,1.2,8.6c-13-1.5-16.8-3.7-23-7.4c-4-2.6-7.4-11.7-6.4-16.4
	c1.2-5.1,6.7-11,12.1-11.6C109.8,161,113.1,163.4,116.8,168z"/>
<path class="st21" d="M107.9,193.3c-1.4,2.8-2.2,5.9,1.1,8.7c0.7,0.6,1.2,1.4,1.4,2.3c0.3,1.5-0.3,3-5.5,1c-7.5-2.9-7.7-7.6-7.7-7.6
	c3.4-1.7,4.3-9.6,4.4-14.1L107.9,193.3z"/>
<path class="st18" d="M103.2,190c-0.2,1.9,2.2,4.6,3.9,5.5c0.2-0.7,0.5-1.5,0.9-2.1l-3.7-5.8C103.7,188.3,103.3,189.1,103.2,190z"/>
<path class="st21" d="M98.3,172.5c1.9-5,7.5-7.4,12.5-5.5c0,0,0,0,0,0c7,2.7,8.3,13.2,7,19.6c-1.4,7.2-10.1,9.5-15.6,4.1
	c-3.7-3.6-3.8-6.6-4.4-13.7C97.6,175.5,97.7,173.9,98.3,172.5z"/>
<path class="st5" d="M99.1,184.5c2-2.2,2.9-5.2,2.4-8.2c0,0,3.2-3.3,3.1-6.9c0,0,1,2.8,0,4.9c0,0,8.4-0.6,8.2-4.9
	c0,0,0.7,3.7-0.6,4.8c0,0,5.8-0.4,5.3-4.4c-0.7-6.1-5.9-6.4-5.9-6.4s-5.6-4.7-13.3,3.6c0,0-9.1,5.7-2.6,15.1L99.1,184.5z"/>
<path class="st17" d="M113.5,184.1c0.7,0.1,1.4,0,2-0.4c-0.9-1.1-1.6-2.3-2.1-3.6L113.5,184.1z"/>
<path class="st5" d="M108.1,184.7c-0.1-0.1-0.1-0.2,0-0.2c0.1-0.1,0.2-0.1,0.2,0c0,0,0,0,0,0c0.9,1.1,2.3,1.8,3.8,1.7
	c0.1,0,0.2,0.1,0.2,0.2l0,0c0,0.1,0,0.2-0.1,0.2c0,0,0,0,0,0c-0.3,0-0.6,0-0.8,0C110,186.4,108.9,185.7,108.1,184.7z"/>
<path class="st21" d="M95,181.2c0-1.5,1.1-2.7,2.5-2.7c2,0,3.3,2.5,3.6,4.2c0.3,1.9-0.9,3.6-2.8,2.8c-1.4-0.6-2.5-1.8-3.1-3.2
	C95.1,182,95,181.6,95,181.2z"/>
<path class="st5" d="M108.7,178c0,0.7,0.3,1.3,0.8,1.3s0.9-0.6,0.9-1.3s-0.3-1.3-0.8-1.3S108.7,177.3,108.7,178z"/>
<path class="st5" d="M115.3,178.8c0,0.7,0.3,1.3,0.8,1.3s0.8-0.6,0.9-1.3s-0.3-1.3-0.8-1.3S115.3,178,115.3,178.8z"/>
<path class="st5" d="M116,177.5l1.7-0.4C117.7,177.1,116.8,178.4,116,177.5z"/>
<path class="st5" d="M106.7,175.6c-0.1,0-0.1,0-0.2-0.1c-0.1-0.1-0.1-0.4,0-0.5c0,0,0,0,0,0l0,0c0.9-1,2.2-1.5,3.5-1.3
	c0.2,0,0.3,0.2,0.3,0.4c0,0.2-0.2,0.3-0.4,0.3c0,0,0,0,0,0c-1.1-0.1-2.2,0.3-2.9,1.1C106.9,175.7,106.8,175.7,106.7,175.6z"/>
<path class="st5" d="M117.8,176.5c-0.1,0-0.1-0.1-0.1-0.1c-0.6-0.9-1.6-1.5-2.7-1.5c-0.2,0-0.3-0.1-0.4-0.3l0,0
	c0-0.2,0.1-0.4,0.3-0.4c0,0,0,0,0,0c1.3,0,2.6,0.7,3.3,1.8c0.1,0.2,0.1,0.4-0.1,0.5C118.1,176.6,117.9,176.6,117.8,176.5
	L117.8,176.5z"/>
<path class="st5" d="M109.3,176.8l1.7-0.4C111.1,176.3,110.2,177.6,109.3,176.8z"/>
<path class="st5" d="M84,197.1c1.7-0.4,3.5,0.1,4.8,1.3c1.3,1.5,2.2,3.3,2.4,5.3c0.4,3-2.9,13.9-2.8,17c-3.2-1.8-8-4.2-12.5-4.6
	c0.6-7.2,1.4-11.9,2.8-14.3c0.7-1.4,1.7-2.7,2.8-3.8C82.3,197.6,83.1,197.3,84,197.1z"/>
<path class="st5" d="M114.9,407.4c2.3,2.3,3.5,3.4,9.6,4.8c1.4,0.3,0.5,3.5-2.8,3.5c-5.3-0.1-2.4-0.3-7-0.3c-3.9,0-7.3,0-10.4,0
	c-0.1,0-0.2,0-0.3,0c-0.6-0.1-1-0.8-0.9-1.4l1.6-6.9c0.1-0.3,0.3-0.5,0.7-0.5l7.5,0.2C113.6,406.7,114.3,406.9,114.9,407.4z"/>
<path class="st5" d="M91,407.9c1.5,2.9,2.2,4.4,7.6,7.6c1.2,0.7-0.7,3.5-3.7,2.5c-5-1.7-2.2-1-6.5-2.5c-3.7-1.3-6.9-2.3-9.9-3.2
	c-0.1,0-0.2-0.1-0.3-0.1c-0.5-0.3-0.7-1-0.4-1.6l3.7-6.1c0.2-0.3,0.5-0.4,0.8-0.3l7,2.5C90,406.8,90.6,407.3,91,407.9z"/>
<image style="overflow:visible;" width="388" height="264" xlink:href="A270B49D.jpg"  transform="matrix(1.5552 0 0 1.4614 500 30.4899)">
</image>
</svg>
