<?xml version="1.0" encoding="utf-8"?>
<!-- Generator: Adobe Illustrator 23.0.5, SVG Export Plug-In . SVG Version: 6.00 Build 0)  -->
<svg version="1.1" id="Layer_1" xmlns="http://www.w3.org/2000/svg" xmlns:xlink="http://www.w3.org/1999/xlink" x="0px" y="0px"
	 viewBox="0 0 758 677" style="enable-background:new 0 0 758 677;" xml:space="preserve">
<style type="text/css">
	.st0{fill:#14135F;}
	.st1{fill:#12114F;}
	.st2{fill:#FCFCFC;}
	.st3{fill:#FDFDFD;}
	.st4{fill:#FEFEFE;}
	.st5{fill:#2390BF;}
	.st6{fill:#ACE8FD;}
	.st7{fill:#28A9DF;}
	.st8{fill:#0D0F4D;}
	.st9{fill:#CBEEFB;}
	.st10{fill:#ED1B24;}
	.st11{fill:#2A8AB2;}
	.st12{fill:#E2F7FA;}
	.st13{fill:#E2F7FB;}
	.st14{fill:#FCD900;}
	.st15{fill:#FDC100;}
	.st16{fill:#FDF0F0;}
	.st17{fill:#FDDADC;}
	.st18{fill:#C5000E;}
	.st19{fill:#B29302;}
	.st20{fill:#BC9900;}
	.st21{fill:#C19D00;}
	.st22{fill:#F4D20A;}
	.st23{fill:#D7AD00;}
	.st24{fill:#C7A804;}
	.st25{fill:#D7B706;}
	.st26{fill:#DAB000;}
	.st27{fill:#C1A202;}
	.st28{fill:#DCBD08;}
</style>
<path class="st0" d="M563,117c0.2,0.2,0.5,0.3,0.7,0.5c5.8,1.6,11.2,4.3,16.9,6.4c0.4,0.3,1,0.4,1.3,0.9l0,0
	c1.1,0.2,2.3,0.4,3.3,0.9c3.8,1.5,7.6,3.1,11.4,4.6c0.5,0.2,1,0.4,1.3,0.9l0,0c0.6,0.2,1.3,0.3,1.9,0.4c0.2,0,0.4,0.1,0.5,0.2
	c0.6,0.3,1.2,0.5,1.8,0.7c0.2,0.1,0.3,0.1,0.5,0.2c0.8,0.4,1.7,0.8,2.5,1.1c0.2,0.1,0.4,0.1,0.5,0.2c1.3,0.6,2.7,1.1,4.1,1.6
	c1.6,0.9,3.7,0.9,5,2.4c0.4,0.2,0.8,0.3,1.2,0.5c1.5,0.4,2.9,0.7,4.3,1.3c0.4,0.1,0.7,0.3,1.1,0.5c3.1,1.1,6.1,2.6,9.1,4.1
	c0.2,0.1,0.4,0.2,0.5,0.3c1.7,1.2,3.7,2,4.8,3.8c0.1,0.1,0.3,0.2,0.4,0.3c2.5,1.3,4.2,3.5,5.9,5.6c0.3,0.3,0.5,0.7,0.8,0.9
	c0.2,0.2,0.4,0.4,0.6,0.7c1.1,1.6,2,3.2,3,4.8c0.8,1.6,1.5,3.3,2.2,5c0.9,3.5,2.4,6.9,2.6,10.7c0.1,1.8,0.1,3.7,0.2,5.5
	c0,0.2,0,0.5,0,0.7c-0.5,6.7-2.9,12.9-5.8,18.9l0,0c-0.5,3.4-2.3,6.2-3.4,9.4c-1.5,4.1-3.5,8-4.9,12.2c-0.6,1.8-1.3,3.6-2.5,5.1
	c-0.3,1.9-0.6,3.8-2.2,5.2c-0.5,0.3-0.4,0.7-0.4,1.2c-0.2,0.7-0.4,1.3-0.8,1.9c-0.1,0.1-0.2,0.2-0.1,0.3c-1.5,5.1-3.6,10-6,14.8l0,0
	c-0.3,0.7-0.4,1.5-0.9,2.2l0,0c-0.7,1.9-0.9,4-2.2,5.6l0,0c-0.4,1.7-1,3.4-2,4.8c-0.1,0.1-0.2,0.2-0.1,0.3c-0.6,1.5-0.4,3.3-1.9,4.4
	c-0.3,0.2-0.3,0.5-0.3,0.8c-1.1,4.1-2.6,8-4.7,11.7l0,0c-0.5,1.5-0.4,3.2-1.8,4.3c-0.5,0.3-0.3,0.8-0.4,1.2
	c-0.1,0.2-0.2,0.3-0.5,0.2c-2.2-1-3.4-3-5-4.6c-2.1-2-4.3-3.9-6-6.3c-0.1-0.3-0.1-0.6-0.1-1c3.3-8.7,6.9-17.2,10.3-25.8
	c4.4-11,9-21.9,13.3-32.9c3.2-8.1,6.6-16.1,9.8-24.1c2.4-5.9,3.4-11.9,1.8-18.1c-1.9-7.9-6.5-13.9-14-17.2
	c-10-4.5-20.3-8.4-30.4-12.5c-24-9.6-48-19.3-72-29.1c-16.9-6.9-33.8-13.7-50.6-20.5c-18-7.3-35.9-14.8-54-21.9
	c-9.7-3.8-18.7-2.4-26.9,3.9c-4.4,3.4-6.8,8.2-8.8,13.3c-6.7,16.9-13.5,33.8-20.5,50.6c-0.8,2-1,4.4-2.9,5.9c-0.2,0.1-0.5,0.1-0.7,0
	c-4.6-0.2-9.3-0.1-13.9,0c-1.7-0.2-1-1.3-0.7-2.1c0.8-2.1,1.7-4.3,2.6-6.4c0.5-1.2,0.6-2.3,0-3.5c-0.7-1.4-0.6-2.7,0-4.1
	c1.8-4.4,3.5-8.9,5.3-13.3c0.8-1.9,1.8-3.6,4-4.1c1-0.3,1.3-1.2,1.7-2.1c3.3-8.6,6.9-17.1,10.4-25.7c1.9-5.2,4.1-10.2,7.8-14.5
	c3.1-3.6,6.2-7.3,10.9-9.1l-0.1,0l0.1,0.1c0.2-0.5,0.6-0.8,1-1.1c5.1-2.5,10.3-4.7,16.1-5.1c9-0.7,17.4,1,25.5,4.9
	c3.6,1.7,7.5,2.8,11,4.6c0.2,0.2,0.4,0.3,0.6,0.5c3.7,1.1,7.3,2.4,10.7,4.2c2,1,4.3,1.5,6.4,2.4c2.4,1.1,4.9,1.9,7.3,2.9
	c0.8,0.3,1.6,0.6,2.1,1.3l0,0c2.1,0.1,4,1,5.8,2c3.4,1.8,7.1,2.5,10.5,4.2c3.1,1.5,6.6,2.2,9.5,4.3l0,0c2.2,0.2,4.2,1.2,6.2,2.1
	c3.6,1.5,7.3,2.7,10.6,4.7l0,0c2.2,0.1,4,1.3,6,2c2.3,0.9,4.6,1.9,6.9,2.7c2.4,1,4.5,2.5,7,2.9c0.2,0.1,0.4,0.1,0.6,0.2
	c1.2,0.6,2.5,1,3.8,1.5c0.2,0.1,0.4,0.1,0.5,0.2c0.9,0.5,1.8,0.9,2.8,1.2c0.3,0.1,0.5,0.2,0.8,0.3c1.4,0.6,2.9,1.1,4.3,1.7
	c0.5,0.2,0.9,0.4,1.3,0.6c0.5,0.5,1.2,0.5,1.8,0.7c0.2,0.1,0.4,0.1,0.5,0.2c0.4,0.1,0.7,0.3,1.1,0.4c0.2,0.1,0.4,0.1,0.6,0.2
	c5.7,2.5,11.5,4.9,17.3,7.1C561.5,116.2,562.2,116.6,563,117z"/>
<path class="st1" d="M599.9,276.2c1.8,0.4,2.5,2.3,3.6,3.4c1.7,1.7,3.9,3,5,5.3c0.5,1,2.1,0.8,2.3,2.1c0.4,0.5,0.2,1.2,0,1.6
	c-1.3,2.1-1.1,4.3-0.2,6.5c0.1,0.3,0.1,0.7-0.2,1l-0.1,0.1l0.1,0.1c-0.2,1.9-1.2,3.6-1.7,5.5c-7,17.4-14.1,34.8-21.1,52.2
	c-0.8,2.1-1.7,3.9-4.1,4.7c-1.1,0.3-1.4,1.4-1.7,2.3c-4.6,11.1-9,22.3-13.6,33.5c-10.4,25.8-20.9,51.5-31.3,77.3
	c-7.1,17.7-14.3,35.3-21.5,53c-8.5,21-17,42.1-25.6,63.2c-0.4,1.1-0.8,2.1-1.2,3.2c-1,1.1-1.1,2.8-2.1,3.9l0,0
	c0.2,2-1.2,3.6-1.8,5.3c-0.8,2.1-1.6,4.4-2.9,6.3l0,0c-0.1,1.3-0.7,2.4-1.4,3.4l0,0c-0.4,1.5-0.7,3.1-1.8,4.3
	c-0.3,0.2-0.3,0.5-0.3,0.8c-0.4,2-0.7,4.1-2.2,5.6c-0.4,2.9-1.8,5.5-3,8.1c-1,2.2-1.8,4.5-3,6.6l0,0c-0.4,1.5-0.5,3.1-1.8,4.3l0,0
	c-0.8,3.5-2.8,6.2-5,8.8c-0.7,0.8-1.3,1.8-2.4,2.4c-0.4,0.2-0.6,0.4-0.8,0.8c-2.2,3.3-5.4,5.3-9,6.8c-1.9-0.7-2.8-2.5-4.3-3.7
	c-2-1.7-3.8-3.7-5.6-5.5c-0.4-0.4-0.7-0.9-0.6-1.5c0.2-0.4,0.5-0.7,0.9-0.9c7.4-3.8,11.9-10,14.8-17.7c4.6-12.4,9.9-24.6,14.8-36.9
	c5.4-13.4,10.8-26.7,16.3-40.1c7-17.1,13.9-34.3,20.8-51.4c8.6-21.3,17.1-42.6,25.8-63.8c8.6-21.1,17.1-42.3,25.7-63.4
	c8.5-21.1,17.1-42.1,25.6-63.2c4.3-10.8,8.6-21.6,13.1-32.3C598.7,277.4,598.8,276.4,599.9,276.2z"/>
<path class="st0" d="M440.7,647.9c2.6,3.1,5.5,5.8,8.5,8.4c0.7,0.7,1,1.8,2,2.1c-1.1,2.3-3.4,2.3-5.4,2.9l0,0
	c-1.4,1.4-3.3,1.7-5.2,1.7l0,0c-5.1,2-10.5,1.3-15.8,1c-3.2-0.2-6.3-0.7-9.2-2.1c-0.2-0.1-0.4-0.2-0.6-0.3c-3-1.5-6.3-2.3-9.3-3.7
	c-0.2-0.1-0.4-0.2-0.5-0.3c-1.3-0.8-2.9-0.9-4-2l0,0c-0.9-0.3-1.9,0-2.7-0.8l-0.2-0.1l-0.2,0.1c-2.7-1.6-5.9-2.2-8.8-3.3
	c-0.5-0.1-1-0.3-1.4-0.7c-3.2-1.6-6.6-2.9-10-4.2c-3-1.1-5.9-2.4-8.7-3.9l0,0c-1.5-0.9-3.4-0.4-4.8-1.7c-0.3-0.1-0.6-0.3-0.8-0.4
	c-5.2-1.4-9.9-4.1-15-5.6c-0.6-0.5-1.2-0.7-1.9-1c-22.2-8.9-44.2-17.9-66.4-26.8c-23.5-9.5-46.9-19-70.4-28.5
	c-11.7-4.7-20.2-12.7-24.7-24.6c-3.8-10.2-3.6-20.3,0.5-30.4c8.3-20.8,16.8-41.6,25.2-62.4c3.9-9.8,8-19.5,11.8-29.3
	c0.4-0.9,0.5-2,1.6-2.4c1.8,4.6,6.2,6.9,9.2,10.5c0.5,0.6,1.2,1,1.6,1.7c0.1,0.3,0.1,0.6,0,1c-9.1,23.3-18.8,46.4-28.1,69.6
	c-2.1,5.4-4.4,10.7-6.6,16.1c-1.4,3.5-2.4,7.2-2.4,10.9c0.1,6.5,2,12.6,6.6,17.5c3,3.2,6.5,5.5,10.6,7.2
	c22.4,9.1,44.8,18.1,67.2,27.2c16.6,6.7,33.2,13.5,49.8,20.2c16.7,6.7,33.3,13.5,50,20.3c12.8,5.2,25.6,10.4,38.5,15.5
	c5.8,2.3,11.6,2.4,17.5,0.6c0.4-0.1,0.8-0.3,1.3-0.3C440.1,647.6,440.4,647.7,440.7,647.9z"/>
<path class="st2" d="M349.1,634.7c4.5,1.3,8.8,3.4,13.2,5.1c0.6,0.2,1.3,0.2,1.5,0.9c-2.2,0.1-4.3-0.5-6.5-0.9
	c-1.1-0.8-2.4-1.3-3.4-2.2c-1.5-1.7-3.4-0.9-5.2-0.9c-3.4,0-6.8-0.2-10.2-0.6c-3.4-0.3-6.8,0.5-10.2-0.1c-2.3-0.4-4.5-0.1-6.8-0.3
	c-1-0.1-1.9,0-2.4,1c-0.5,0.6-1.1,0.4-1.7,0.4c-0.7-1.6-1.8-2.4-3.6-1.8c-1.4,0.4-2.5-0.7-3.7-1.2c-0.6,0-1.1,0-1.7,0
	c-0.9-0.6-2.1,0.1-3-0.4c-1-0.2-2-0.3-3.1-0.3c-1.8,0-3.7,0.7-5.5-0.6c-0.8-0.5-1.7,0.8-2.7,0.9c-1.5,0.1-3.1,0-4.7,0
	c-0.3-0.9,0.6-1,1.2-1.8c-1,0.8-1.6,0.7-2.1,0.1c-1.2-2-3.5-1.6-5.3-1.8c-3.5-0.4-7.1,0-10.7,0c-0.2-0.2-0.6-0.5-0.5-0.6
	c1.1-1,0.1-1.7-0.4-2.4c-2.2-0.2-4.5,0-6.5-1.3c-1-0.7-0.7,0.8-1.2,0.9c-1.6-1-3.5-1.4-4.7-3c-1.6-0.1-3.2-0.3-4.7-0.4
	c-1.4-0.4-2.9-0.3-4.3-0.8c-1.4-0.5-2.5-1.2-3-2.6c-0.4,0-0.9,0-1.3,0c-2-0.4-3.9-1.2-6-1.3c0-0.9,0.1-1.9-1.3-1.7
	c-0.5-0.3-1-1-1.7-0.4c-1.6-0.5-3.2,0.3-4.7,0c-0.1-1.6-1.2-2.5-2.6-3c-1.1-1.4-2.6-0.3-3.9-0.4c-0.3-1.9-1.8-1.5-3-1.7
	c0-0.4,0-0.9,0-1.3c-0.5-0.5-1.2-0.2-1.7-0.4c-0.7-0.1-1.4-0.3-2.2-0.4c-1-0.7-2.2-1.2-3-2.2c-0.6-0.4-1.1-0.9-1.7-1.3
	c-2,0.6-3.5-0.5-5.2-1.3c0-2.8-2-1.7-3.4-1.7c-0.3-0.3,0.3-1.1-0.9-1c-0.9,0.1-2-0.5-2.6-1.6c-0.1-1.2-1-0.8-1.7-0.9
	c-0.4-0.5-0.9-0.8-1.5-0.6c-2,0.6-3-0.3-3.1-2.2c0-0.3-0.3-0.5-0.5-0.6c-0.6-0.4-1.1-0.4-1.7,0c-0.5-0.5-0.9-1.1-1.7-1.3
	c-0.2-1.8-1.3-2.6-3-2.6c-1-1.4-2.5-2.2-3.9-3c-0.1-0.1-0.3-0.3-0.4-0.4c-1.2-0.5-2.2-1.2-3-2.2c-0.7-0.7-1.4-1.2-2.6-0.9
	c-0.6,0.1-1.3,0.2-1.7-0.4c-0.4-0.2,1-1.2-0.5-1.1c-1,0.1-1.3-1.4-2-2c-1-0.8-2.4-0.9-3.4-1.7c0-0.8,0.1-1.7-0.9-2.2
	c-0.9-0.1-1.9,0.7-2.6-0.4c0.3-1.6-0.1-2.8-2.1-2.6c-0.8,0.1-1.3-0.4-1.8-0.9c-0.1-1.9-1.8-1.9-3-2.6c-0.4,0-0.9,0-1.3,0
	c-0.5-0.9-1.2-1.5-2.2-1.7c0.1-0.3,0.3-0.6,0.4-0.9c-0.4-1.4-1-2.2-2.6-1.3c-0.4-0.2-0.7-0.5-0.9-0.9c-0.5-0.5,0.2-1.3-0.4-1.7
	c0-0.1,0-0.3,0-0.4c-0.3-0.3-0.6-0.3-1-0.3c-1.4,0-2.1-0.5-1.9-2.1c0.1-0.4-0.3-0.8-0.6-1.1c-0.5-0.6-1.1-0.6-1.7-0.6
	c-1.3,0-1.8-0.7-1.3-2c0.1-0.9-1-0.7-1.3-1.3c-1.4-0.5-2-1.8-2.6-3c-0.3-0.1-0.7-0.4-1-0.3c-1.9,0.6-3,0.4-2.2-2
	c0.3-0.8-0.4-1.1-1.1-1.2c-0.6-0.1,0.4-1.1-0.7-1c-1,0.1-1.5-0.9-1.9-1.6c-0.4-1-1.3-0.9-2.2-0.9c0.1-1.1-0.2-2-1.3-2.6
	c0-0.1,0-0.3,0-0.4c-0.3-0.8-0.9-1.2-1.7-1.3c-0.4-0.4-1.2-0.7-1.2-1.1c-0.3-1.8-1.5-1.5-2.7-1.5c-0.6-0.6-0.7-1.4-0.4-1.9
	c0.5-1,0-1.6-0.4-2.4c-0.7-1.3-0.8-3.3-3.2-2.9c-0.6,0.1-0.7-0.6-0.7-1.1c0.1-0.9-0.3-1.5-0.9-2c-1-0.6-1.8-1.2-2.2-2.5
	c-0.4-1.1-1-2.2-2.4-2.5c-0.6-0.1-0.7-0.7-1-1.1c-0.4-0.3-0.6-0.9-1.3-0.9c0.5-2.2,0.5-2.2-1.7-2.6c-1.3-0.3-0.7-1.3-0.7-2
	c-0.1-0.9,0.3-2.3-1.4-2.3c-0.8-0.1-0.6-1.6-1.7-1.3c-0.5-1.1-0.8-2.6-2.6-2.2c-0.6-0.6-1-1.3-0.7-2.1c0.8-1.6,0-3-0.6-4.4
	c-0.4-0.1-0.9-0.3-1.3-0.4c-0.9-1-0.9-2.4-1.7-3.4c-0.2-0.8-0.4-1.6-0.7-2.4c-0.2-0.7-0.4-1.5-1.5-1.1c-0.2-1.1-1.3-1.6-1.7-2.6
	c0-0.1,0-0.3,0-0.4c-0.8-1.4-0.8-3.3-2.9-3.9c-0.5-0.2-0.1-1.7-0.6-2.5c0-0.3,0-0.6,0-0.9c-0.8-0.8-1-2.7-2.9-1.8
	c-0.3,0.1-0.3-0.5-0.1-0.8c0-0.6-0.4-1.1,0-1.7c-0.3-0.5,0.2-1.3-0.4-1.7c-0.1-0.8-0.8-1.2-1.3-1.7c-0.5-0.7-1.7,0-2.2-0.9
	c0-1.1,0-2.3,0-3.4c0.6-0.8,0.1-1.4-0.4-1.9c-0.4-0.5-0.7-0.3-0.9,0.2c-1.9,0.1-2.1-1.1-2.2-2.6c0.7-1.4,1.5-2.9,0-4.3
	c-0.3-1.3-0.1-2.8-1.7-3.4c-1.3-0.8-0.8-2.5-1.7-3.4c0-0.1,0-0.3,0-0.4c0.4-0.7,0.4-1.4,0-2.2c0-0.1,0-0.3,0-0.4
	c-0.4-1.6-2-0.4-2.9-1.4c-0.7-0.8,0.4-2.5-1.4-2.5c-2.6-0.7-5.2,0-7.7,0c-1,0-1.7,0.1-1.6-1.4c0.1-1.4-0.9-2.6-2.6-2.5
	c-0.8,0-1-0.4-0.9-1.1c0-0.8-0.2-1.6-1-1.6c-2.1,0-2.7-1.2-3-2.9c-0.1-0.3-0.5-0.5-0.7-0.7c-0.5-0.8-1.7-0.8-2.2-1.7
	c0.2-1.3,0.1-2.6-0.4-3.9c-0.3-0.4-0.8-0.8-0.8-1.2c-0.2-1.1-0.6-0.2-0.9-0.1c-2.1,0-1-1.6-1.3-2.6c0.1-0.3,1.1-0.6,0-0.9
	c0-0.9,0-1.7,0-2.6c0.3-0.6,0.7-1.1,0-1.7c0-0.3,0-0.6,0-0.9c0.5-0.5,0.6-1.1,0.4-1.7c-0.7-1.6-0.7-3.2,0-4.7
	c0.4-0.4,0.4-0.4-0.4-0.9c0-0.7,0.1-1.4,0-2.1c-0.2-1.6,0.3-2.7,2.2-2.6c1.1,0,1.3-0.5,1.3-1.5c0-0.8-0.3-1.7,0.4-2.4
	c0.7-0.2,2.3,0.7,1.2-1.3c-0.4-0.7,1.2-0.4,1.4-1.3c0.1-0.3,0.3-0.6,0.4-1c0.5-2.9,0.5-2.9,3.5-2.9c0.3-0.3,0.7-0.5,1.1-0.5
	c1.3-0.2,1.4-1.1,1-2.1c-0.3-0.9-1-1.7-0.8-2.8c0-0.2-1,0.1-1.3-0.6c0-0.6,0-1.1,0-1.7c1.8-0.9,0.3-1.7,0-2.6c0-0.4,0-0.9,0-1.3
	c1.2-1,1.1-2,0-3c0.8-2.3-0.4-4.6,0-6.9c0.4-2.6-0.4-5.2-0.4-7.7c0-2.4,0-4.9,0-7.3c-0.4-1.1-0.7-2.1-0.7-3.3c0-4.4,0-8.8,0-13.2
	c0-1,0-2,0.7-2.8c0-2.6,0-5.2,0-7.7c0.6-0.9-0.1-2.1,0.4-3c0-0.3-0.5-0.6,0-0.9c0.2-0.5-0.1-1.2,0.4-1.7c-0.1-1.3-0.3-2.6-0.4-3.9
	c0.3-0.8,0.4-1.7,0.4-2.6c0-0.6,0-1.1,0-1.7c0.2-0.6,0.3-1.2,0.5-1.8c0.1-0.5,0.4-1.1-0.1-1.6h0c-0.5-0.5-0.4-1.2-0.6-1.8
	c0.1-0.5,0.1-1,0.5-1.5c1.1-1.2,1-2.3,0.1-3.6c-0.5-0.6-0.6-1.4,0.2-1.9c0.6-0.4,1.1-0.3,1.3,0.4c0.1-0.5-0.2-1.2,0.1-1.8
	c0.1-0.4,0.3-0.8,0.6-1.1c0.3-2.3,0.6-4.6,0.9-6.9c-0.2-0.8,0.6-1.9-0.4-2.6c0-0.8,0-1.5,0.4-2.2c-0.2-0.4,0.1-1-0.4-1.3
	c0.1-0.6-0.2-1.3,0.4-1.7c1.7-0.5,1.8-2.2,2.6-3.4c-0.2-1.1,0.8-1.9,0.9-3c-0.3-0.7-0.3-1.4,0-2.2c-0.2-1.7,0.5-3.4,0.3-5.2
	c0.2-0.2,0.5-0.4,0.7-0.5c1.2-0.5,1-1.5,0.9-2.4c0-0.2,0.1-0.4,0.2-0.5c0.7-0.3,1.4-0.5,1-1.6c-0.2-0.7-0.1-1.5-0.1-2.2
	c0.6-0.8,1.1-1.6,0.9-2.7c-0.2-1.6,1.7-2.2,1.6-3.7c1.2-1.4,1-3.1,1.3-4.7c0.2-1.2-0.1-3,0.9-3.3c1.4-0.4,1-1.7,1.7-2.3
	c1.3-1,0.4-2.3,0.4-3.4c1.3-1,2-2.6,3-3.9c-0.1-1.5,0.7-2.8,0.4-4.3c0.8-0.5,1.3-1.2,1.2-2.1c-0.2-1.6,0.6-2.7,1.8-3.5
	c0.4-0.2,0.7-0.5,0.9-0.9c0.3-0.5-0.1-0.8-0.1-1.3c-0.1-0.5,0.3-0.8,0.4-1.2c0.1-0.2,0.1-0.3,0.2-0.5c0.3-0.5,0.4-1.1,0.8-1.5
	c0.4-0.4,1-0.7,1.3-1.1c0.8-1.7,0.4-3.5,0.4-5.2c0-1.3,0.5-2,1.8-2.1c0.7,1.1-1.1,1.8-0.4,2.8c0.1-1.3,1.7-1.6,2.2-2.8
	c0-0.3,0-0.6,0-0.9c0.7-0.2,1.4-0.5,1.6,0.6c-0.1,1.2-0.7,2.2-1.3,3.2c-4.3,8.4-8.3,17-11.7,25.8c-8,20.3-13.4,41.3-16.3,62.9
	c-1.2,8.6-1.9,17.2-2.3,25.9c-0.3,6.2-0.4,12.3-0.2,18.5c0.4,11.6,1.2,23.2,3.1,34.6c0.3,1.6,0.5,3.1,0.4,4.7c-0.5,1.5-1.9,2.1-3,3
	c-10.7,8.6-12.4,24.1-3.8,34.7c4,5,9.2,8.1,15.5,9.1c1.1,0.2,2.3,0.3,3.4,0.7c1.2,0.8,1.4,2.1,1.9,3.3c3.8,10.1,8.1,19.9,13.1,29.5
	c9.1,17.3,19.7,33.6,32.3,48.6c6.6,7.9,13.6,15.6,21,22.7c9.3,8.9,19.1,17.1,29.5,24.6c12.7,9.2,26,17.3,40.1,24.2
	c20.2,9.9,41.4,17.2,63.4,22c9.7,2.1,19.6,3.6,29.5,4.6c5.5,0.5,11.1,0.9,16.7,1.1c5.6,0.2,11.2,0.3,16.7,0.4
	C346.2,634.6,347.7,633.9,349.1,634.7z"/>
<path class="st3" d="M96.6,230.2c-0.4,0.2-0.9,0.3-1.3,0c0-0.6,0-1.1,0-1.7c0.5-0.9,0.3-1.7,0-2.6c-0.2-1.1,0.2-1.8,1.5-1.6
	c1.7,0.3,2.1-0.6,2-2.1c-0.1-0.7,0-1.6,1-1.5c2,0.2,2.1-1.3,2.4-2.6c0.1-0.8,0.1-1.6,0-2.4c-0.1-1.3,0.2-2.1,1.7-1.9
	c1.7,0.1,1.8-1.3,1.9-2.3c0-1,0.3-2,0.2-2.9c-0.3-1.7,0.5-1.9,1.7-1.5c1.3,0.4,1.5-0.1,1.4-1.2c-0.1-1.4,0.2-2.2,1.9-2.4
	c2.1-0.2,1.4-2.1,1.5-3.4c0.4-0.6,0.9-1.1,1.3-1.7c0.6-1.1,2.4-1.3,2.2-3c-0.4-1.4,0.4-2.2,1.6-2c1.6,0.2,1.9-0.7,2.2-1.9
	c0-0.6,0-1.2,0.4-1.7c1.7,0.1,3-0.3,2.6-2.5c-0.1-0.6,0.2-1,0.8-1c2.2,0.1,2.5-1.3,2.6-3c0-0.7,0.1-1.4,0-2.1
	c-0.1-1.2,0.2-1.9,1.6-1.8c1.6,0.2,1.9-0.8,1.8-2.1c0.3-0.5,0.8-1,1.3-1.3c0.4,0,0.7,0.1,0.9,0.4c0.1,0.4,0.3,0,0.4,0
	c0.6-0.3,1-0.7,0.8-1.3c-0.9-2.7,1-2.5,2.6-2.5c0.8-0.5,1.5-1.1,0.9-2.2c-0.1-1.1,0.5-1.4,1.5-1.3c1.2,0.1,2.1,0,2-1.6
	c-0.1-1.1,0.7-1.8,1.8-1.8c1.4,0,1.7-0.8,1.6-1.9c-0.1-1.1,0.3-1.7,1.5-1.5c1.4,0.2,2.2-0.3,2-1.9c-0.2-1.2,0.5-1.7,1.6-1.6
	c1.4,0.2,2-0.5,1.8-1.8c-0.2-1.2,0.4-1.7,1.6-1.6c1.2,0.1,1.9-0.4,1.8-1.7c0.2-0.9,0.8-1.5,1.7-1.7c1.5,0.2,1.8-0.6,1.7-1.9
	c-0.1-1.3,0.3-2.1,1.7-1.1c0.7,0.4,1.3,0.4,1.7-0.4c0-0.4,0.1-0.7,0.4-0.9c1.1-1.3,2.3-2.5,4.3-2.2c1.1,0,2-0.9,2.1-1.6
	c0.2-1.9,1-2.6,2.9-2.4c0.6,0.1,0.7-0.7,0.6-1.2c-0.1-1.4,0.5-2.2,1.9-2.2c1.3,0,1.7-0.6,1.5-1.7c-0.2-1.4,0.5-1.9,1.8-1.8
	c1,0.1,2,0,3,0c0.8,0,1.7-0.3,1.8-0.9c0.2-3,2.3-2.5,4.2-2.5c0.3-0.6-0.1-1.1,0-1.7c0-0.6,0.3-1.1,0.9-1.3c0.7-0.7,1.4,0.7,2.2,0
	c1.6-0.7,3.9-0.5,3.7-3.3c0-0.2,0.7-0.6,1.1-0.5c1.8,0.3,2.2-0.9,2.5-2.2c0.3-0.4,0.9-0.5,1.3-0.9c1.3-0.7,2.6-0.4,4-0.4
	c0.9,0,1.4-0.2,1.3-1.4c-0.2-1.8,1-2.2,2.5-2c0.9,0.1,1.8,0.1,2.7,0c1.3-0.1,2-0.7,1.7-2.1c-0.1-0.7-0.2-1.3,0.8-1.4
	c0.7,0.3,1.4,0.6,2.2,0c1.4,0.8,2.6-0.5,3.9-0.4c0.5-0.6,0.5-1.5,0.9-2.2c0.4-0.9,1.2-1,2-0.8c2.4,0.5,3.6-0.2,4-2.5
	c0.1-0.9,0.6-1.1,1.3-1c0.7,0,1.5,0,2.1,0.2c2.3,0.7,3.2-0.6,4-2.4c0.3-0.6,0.7-1,1.3-1.3c2.5,0.2,4.9,0.1,7.3-0.4
	c0.5-0.4,0.9-0.9,0.4-1.6c-0.4-0.6-0.1-1.1,0.5-1.4c1.8,0,3.7-0.1,5.5,0c1.5,0.1,1.6-1.1,1.7-2c0.1-1.3,0.7-1.6,1.8-1.5
	c0.7,0.6,1.4,0.4,2.2,0c1,0,2,0,3,0c0.6,0.5,1.5-0.1,2.2,0.4c1-0.3,1.1-1.5,1.7-2.2c0.4-1.2,1.8-1,2.6-1.7c3.1-0.3,6.3,0.8,9.4-0.3
	c1-0.4,1.5-0.4,1.4-1.6c-0.1-1.1-0.1-2.2,1.5-1c0.9,0.7,1.7-0.6,2.8-0.6c2.8,0,5.6,1,8.4,0c0.3-0.1,0.7-0.3,1-0.4
	c0.9-0.6,2.1,0.2,3-0.4c1-2.9,1.4-3.1,3.9-2.2c1.2,0.4,2.3-0.3,3.4-0.4c4.6,1.3,9.2-1.1,13.8-0.4c0.9-0.8,1.7-1.7,2.6-2.6
	c0.4-0.7,0.9-0.1,1.3,0c1.1-0.2,2.4,0.2,3.4-0.4c2,0,4,0,6,0c0.7,0.4,1.4,0.4,2.2,0c1.8-0.4,3.4,0.6,5.2,0.9
	c1.1,0.7,2.4-0.7,3.4,0.4c0.7,0,1.4,0,2.2,0c0.3-0.3,0.6-0.3,0.9,0c1.3,0,2.6,0,3.9,0c0.8-0.9,2.3-0.2,3-1.3c0.9,0,1.7,0,2.6,0
	c0.4,0.3,0.4,1,0.9,1.3c2.1,0,4.1-0.2,6.2-1.1c1.7-0.7,3.9-0.2,5.9-0.1c0.8,0.1,1.5,0.2,2.3,0c3.5-0.6,3.5-0.6,3.3-4.3
	c0-0.5,0-1,0-1.5c0.6-0.4,1.1-0.9,1.7-1.3c1.6,0.3,2.4-0.1,1.9-1.9c-0.3-0.9-0.2-1.7,0.3-2.4c0.4-0.3,0.9,0.4,1.3,0
	c0.1-0.3,0.3-0.6,0.4-0.9c0.4-0.6,0.6-1.4,1.3-1.7c-0.8-3.1,1.9-2.9,3.4-3.9c0.8-0.4-0.1-1.2,0.4-1.7c0-0.4,0.1-0.7,0.4-0.9
	c0.5,0.1,0.9-0.1,1.3-0.4c2,0.8,3.8-0.1,5.7-0.3c-4.8,3.3-9,7.1-12.4,12c-2.5,3.6-4,7.7-5.8,11.7c-0.9,1.2-2.1,0.9-3.3,0.8
	c-11.2-0.8-22.4-1.1-33.7-0.4c-4.6,0.3-9.3,0.5-13.9,0.9c-9.4,0.8-18.8,2.3-28,4.2c-19,3.8-37.4,9.5-55.1,17.3
	c-23.6,10.4-45.4,23.8-65.3,40.3c-9.4,7.7-18.1,16.1-26.4,24.9c-10.2,10.9-19.4,22.7-27.6,35.2c-0.3,0.4-0.6,0.8-0.9,1.2
	c-1.2,1.2-2.1,2.5-2.8,4c-2.8,4.9-5.9,9.7-8.5,14.7C97.9,229.4,97.6,230.3,96.6,230.2z"/>
<path class="st2" d="M705,344.7c0.4,1.6-0.5,3-0.6,4.5c-0.3,3.5,0.4,7-0.2,10.5c-0.4,2.1-0.8,4.2,0.3,6.4c0.4,0.8,0.6,2.3-1.2,2.7
	c-0.4,0.1-1.7,0.4-1.6,1.4c0.3,2.8-0.5,5.5-0.8,8.2c-0.2,2.6,1,5.3-0.8,7.9c-0.9,1.3-0.8,3.6,0.2,5.2c1,1.5,1.2,2.8,0.1,4.3
	c-0.3,0.5-0.2,1.2-0.3,1.8c-0.6,0,0-1.2-0.8-0.9c-0.5,0.2-1.2,0.7-1.1,1.5c0.5,3-1.2,5.8-0.9,8.7c0.2,1.9,0.7,4-0.9,5.7
	c2.2,1.7,0.9,3.2-0.3,4.8c2.2,0.9,1.4,2.7,1.5,4.3c0,0.6,0.6,1.8-1,1.2c-0.4-0.1-0.6,0.4-0.6,0.7c0.1,1.2-1,2.1-1.1,3.2
	c-0.3,3.4-1.6,6.7-0.9,10.2c0.4,2,0.6,4.1-0.4,6.1c-0.6,1.3-0.3,2.7,0.1,4c0.6,1.9,0.2,3.4-1.5,4.5c-0.6,0.4-0.6,0.9-0.7,1.5
	c-0.4,3.5-1.2,6.9-0.9,10.5c0.3,2.4,0,4.8,0.1,7.3c0,0.9-0.3,1.4-1.3,1.2c-1.6-0.4-2.1,0.7-2.2,1.9c-0.1,1.6,0,3.2,0,4.9
	c-2.2-0.7-3.4,0-3.4,2.1c0,1.6-0.9,1.6-2,1.4c-2.7-0.4-5.5-0.3-7.5,1.7c-1.2,1.3-2.3,1.6-3.9,1.7c-1.8,0.1-1.3-0.7-0.8-1.6
	c0.2,0.1,0.3,0.1,0.3,0.1c0.1,0,0,0-0.2-0.1c-0.3-0.1-0.1-0.3-0.2-0.1c0,0,0.1,0,0.1,0c-0.9-0.8-1.8-0.3-3.2-0.6
	c0.9,0.7,2,0.8,1.2,1.7c-1,1-2,1-2.7-0.4c0-0.2,0-0.1-0.1,0c-0.1,0.2-0.1,0.2,0.1,0c0.1-0.1,0.4-0.1,0.4-0.3c0,0-0.1,0-0.4,0.2
	c-1,0.3-2.5,1.1-1.6-0.9c0.4-0.9-0.4-0.8-0.7-0.9c-1.3-0.3-2.6-0.7-4-0.5c-1.4,0.1-2.4-0.3-2.5-1.9c0-1.3-0.8-1.6-1.9-1.5
	c-1.2,0.2-1.6-0.5-1.4-1.4c0.4-1.7-0.7-2.1-1.9-2.2c-0.7-0.1-1.4-0.3-1.2-0.8c0.6-1.4-0.4-2.4-0.6-3.6c-0.2-1.4-0.4-3-2.6-2.5
	c-0.7,0.1-0.9-0.7-0.8-1.3c0.3-1.8,0.5-3.7,1.3-5.3c0.5-1.1,1.4-1.8-0.2-2.6c-0.4-0.2-0.1-0.6,0.1-0.9c2-4.4,2.1-7.1,2.5-11.8
	c0.2-2.6-1.4-5.4,0.5-7.9c0.1-0.2,0-0.8-0.2-1c-0.8-0.8-0.6-1.7-0.1-2.4c1.8-2.3,1.7-4.4,0.2-6.7c-0.2-0.2-0.1-0.7,0-1
	c0.1-0.1,0.6-0.2,0.8-0.1c1.7,1.4,1.5-0.7,1.5-1c0.1-3.2,0.9-6.3,0.5-9.5c-0.2-1.8,0.1-3.6,0.4-5.3c0.1-0.6,1.2-1.5-0.3-2
	c-0.1,0-0.1-0.5,0-0.6c1.6-1,0.9-1.9,0-2.9c-0.1-0.2-0.1-0.8-0.1-0.8c3-0.8,0.1-2,0.1-2.9c0-0.9-0.6-1.9,0.4-2.5
	c0.7-0.5,1.3-0.2,1.8,0.9c1.9-7.5,0.9-14.9,1-22.2c1.4-0.8,1.1-1.9,0.7-3.1c0.4-1.4,1.5-2.3,2.3-3.4c0-2,0.2-3.8,0.7-5.8
	c0.5-2,0-4.2-0.1-6.3c0-1.1-0.1-2.3-0.2-3.4c1.2-1.3,0.9-3.1,0.6-4.2c-0.5-2.3,0.8-3.8,1.3-5.6c0.2-0.7,0.4-1.5,0.7-2.2
	c0.7-3.6,1.4-7.1,0.9-10.8c0.1-0.9,0.9-1.7,0-2.6c0-0.3,0-0.6,0-0.9c0.7-0.5,0.8-1.3,0.8-2.1c-0.1-1.5-0.1-2.9,0.5-4.4
	c0.5-1.2-0.2-1.7-1.3-1.7c0.1-0.6,0.2-1.5,0.8-1.6c3.2-0.4,2.6-2.8,2.6-4.9c0.6-0.4,0-1.4,0.9-1.7c1.6-0.5,3.1-0.9,2.7-3.1
	c-0.1-0.7,0.7-0.8,1.2-0.7c1.5,0.3,2.1-0.3,2.1-1.8c1.7,0.1,0.5-1.2,0.9-1.7c2-0.3,4.4,0.9,6-1.3c1.3-0.4,0.7-0.9,0-1.3
	c0.2-0.3,0.5-0.4,0.9-0.4c2.4-0.4,4.6,0.1,6.7,1.1c1,0.5,0.8-0.3,1-0.7c0.7-1,1.7-1.4,1.6,0.2c-0.1,1.9,1.1,2.1,2.3,2.3
	c1.2,0.2,2.5,0.1,3.8,0.1c1.3,0.7,2.5,1.6,3.1,2.8c0.5,0.9,0.8,0.2,1.2,0.2c0,0.3,0,0.6,0,0.9c0.6,0.7,1.1,0.3,1.7,0
	c0.8-0.3,1.6-1,1.3,0.8c-0.3,1.5,0.5,3,0.4,4.6c0,0.6,0.6,1.3,1.6,1.2c1.9-0.1,1.9,1.1,1.4,2.5c-0.4,0.7,0.3,1.1,0.4,1.7
	c-0.1,0.9,0.4,1.8-0.4,2.6c-0.5,0.7-0.2,1.3,0.4,1.7c-0.1,0.7-0.3,1.4-0.4,2.2c-0.5,0.4-0.6,1-0.4,1.6c0.8,2.2,0.6,4.2-0.3,6.3
	c-0.3,0.7-0.6,1.9-0.3,2.5C707.8,340.9,705.5,342.6,705,344.7z"/>
<path class="st2" d="M608.1,301.7c0.7-1.8,1.4-3.6,2.1-5.4c0.4,0.6,0.5,1.2,0.1,1.9c-1.1,0.8-0.6,1.8-0.5,2.9
	c0.2,1.6,1.2,0.2,1.8,0.6c-1,1.3-1.1,2.7-0.2,4.1c0.1,0.2,0.2,0.5,0.1,0.6c-2.1,1.9,0.3,3.9,0,5.7c-0.4,2.4,0.1,4.6,0.5,6.9
	c0.1,0.9,0.4,1.6,1.3,1.6c1,0.1,1.2,0.9,0.8,1.3c-1.7,1.5,0,2.5,0.4,3.6c0.4,1.3,1.4,2.3-0.6,3.2c-0.7,0.3-0.7,1.4-0.5,2.2
	c0.8,4.6,1.4,9.2,1.4,13.9c0,7,0.5,13.9,0.2,20.9c-0.2,3.9,0.5,7.8-0.2,11.6c-0.3,1.5,0,2.8,0.3,4.2c0.2,1.1,0.2,2.3-0.4,3.3
	c-0.6,1-1.6,2.1,0.3,3.1c0.4,0.2,0.5,1.2-0.5,1.5c-0.4,0.1-0.8-1.2-1,0c-0.1,0.4,0.1,1,0.6,1c1,0.1,1.1,0.7,1.1,1.4
	c0,0.9-0.7,0.9-1.3,1c-0.8,0.1-0.8,0.7-0.8,1.3c0,0.7,0.5,0.7,1.1,0.6c1-0.3,1.1,0.4,1.1,1.1c0,1.1,0,2.3,0,3.6
	c-1-0.8-0.7-2-1.2-3.2c-1.2,3.5-2.6,6.5-2.3,10c0,0.2,0,0.4-0.1,0.6c-1.3,2.2-1.1,4.5-0.5,6.8c0.4,1.7-0.1,3.4,0,5.1
	c-0.8,0.2-1-0.9-2.1-1c0.2,3-1.6,5.8-0.7,8.8c0.1,0.3,0.1,0.7,0,0.8c-2.5,1.7-1.7,3.9-0.8,6c0.1,0.1-0.1,0.4-0.2,0.6
	c-1.3-0.6-0.8-1.9-1.2-3c-0.7,2.1-1.2,4-1.2,6c0,0.8,0.4,1.9-0.8,2.4c-0.7,0.3-0.2,0.9,0,1.3c0.5,1,0.4,1.9,0,2.9
	c-0.4,1-0.3,0.7-0.8,0c-0.5-0.7-0.5,1-1.3,0.8c-0.1,1.1-1.2,2.1-0.8,3.2c0.7,2.2-0.6,4-0.8,6c0,0.3-0.2,0.7-0.4,0.7
	c-2.2,0.5-2,2.2-2.4,3.9c-0.2,1.1-0.7,2,0.1,3.2c0.5,0.7-0.1,1.6-0.7,2.1c-1,0.7-1.1-0.4-1.4-1c-2.1,2.5-1.1,5.4-1.2,8.1
	c0,1.1-0.2,1.6-1.4,1.4c-1.4-0.2-2,0.4-2,1.8c0,1.6,0,3.2,0,4.8c-0.9,0.1-0.8-0.9-1.5-1c-0.5,0.3-0.3,1-0.9,1.5
	c-1.5,1.2-2.2,2.7-1.2,4.7c0.6,1.1,0.1,2.3-1.3,2c-1.4-0.2-1.8,0.5-1.9,1.4c-0.1,2.3-1.4,3.9-2.8,5.5c-1.1,1.2-1.2,2.9-2,4.2
	c-1.4,2.4-2.8,4.7-2.4,7.6c0,0.4,0.2,1.6-1,0.7c-0.3-0.2-2.2,1.6-2.3,2.2c-0.1,1-0.3,1.3-1.4,1.7c-1.6,0.5-2.3,2.2-3.2,3.6
	c-0.2,0.2-0.1,0.8,0.1,1c1.8,1.5,0.2,2-0.8,2.3c-1.9,0.7-2.8,2.7-4.5,3.5c-0.1-0.1-0.1-0.2-0.2-0.3c0.4-2.2,2-3.8,3.1-5.5
	c11.7-17.4,21.2-35.8,28.8-55.4c5.7-14.6,9.8-29.6,12.9-45c1.9-9.3,3.2-18.8,4.1-28.3c1.1-11.6,1.4-23.3,0.9-35
	c-0.6-15.2-2.2-30.4-5.4-45.4C607.8,303.6,607.8,302.7,608.1,301.7z"/>
<path class="st3" d="M253.6,18.1c0.8-0.6,0.2-1.1,0-1.7c0.3-0.9,0.7-1.8,1.7-2.2c1.3,0,2.7,0.6,3.9-0.4c0.5-0.7,1.5-1.2,0.5-2.3
	c-0.3-0.3,0.6-0.4,0.8-0.7c2.3,0.6,4.6-0.3,6.9,0c0.6-0.5,1.5,0.1,2.2-0.4c2.2-0.1,4.2,0.3,6.4,0.7c2.1,0.4,4.4-0.3,6.6-0.3
	c1.5,0,2.4,0.2,2.2,2c-0.1,0.9,0.4,1.4,1.4,1.5c1.2,0.1,2.2,0.2,1.8,2.1c-0.2,1.2,0.8,1.9,2.1,1.5c0.9-0.3,1.2-0.1,1.2,1
	c0,1.1-0.2,2.9,2.1,2.3c0.4,0.7,0.9,0.5,1.3,0c0.9,1.3,0.7,2.9,0.3,4.1c-0.7,2.4,0.5,4.6,0.4,6.8c0,2.3,0,4.6-0.4,7
	c-0.4,2.5,0,5.1,0.1,7.6c0,1.3,0,2.2-1.9,1.7c-1.4-0.4-1.7,0.8-1.6,1.9c0.1,1.4-0.4,2.1-1.9,1.6c-1-0.3-1.7,0-1.6,1
	c0.3,2.9-1.8,2.5-3.5,2.5c-2.8-0.1-3.4,0.4-3.5,3.1c-0.7,0.4-1.2-0.1-1.7-0.4c-0.7-0.6-1,0-1.3,0.4c-1.1,0.6-2.2,0.4-3.3,0.4
	c-4.3,0.2-8.5-0.3-12.8,0.3c-0.9,0.1-1.6-0.4-1.5-1.4c0.2-2.3-1.3-2.6-2.9-2.5c-1,0.1-1.9-0.2-2.7-0.1c-1.6,0.3-1.2-0.7-1.3-1.5
	c0.8-0.8,0.2-1.3-0.4-1.7c-0.2-0.3-0.2-1-0.9-0.4c-1.6,0.9-2.2,0.4-2.2-1.3c0-0.9,0-1.9,0-2.8c0-1.5-0.4-2.6-2.2-2.4
	c-1.2,0.1-1.6-0.9-1.5-1.6c0.6-3.9,0.4-7.7,0.2-11.6c0-0.7,0.1-1.3,0.4-1.8c0.3-0.6-0.1-0.9-0.4-1.3c0-0.9,0-1.7,0-2.6
	c0-0.7,0.3-1.6,0.9-1.6c2.6,0.1,2.6-1.9,3-3.6c0.6-0.7-0.2-0.9-0.4-1.3c0.5-0.9-0.2-3.2,2.2-1.7C252.7,18.6,253.2,18.3,253.6,18.1z"
	/>
<path class="st2" d="M683.6,534.1c-0.9-1,0.2-2.3-1.1-2.9c-1,1.7-1.1,3.2,0.6,4.5c0.4,0.3,1.1,0.5,0.7,1.3c-0.2,0.5-0.7,0.5-1.1,0.5
	c-2.5-0.2-2.6,1.7-2.3,3.1c0.3,1.2-1.1,2.2-0.3,3.4c0.2,0.3-0.5,0.4-0.8,0.3c-2.2-0.7-2.8,1.2-2.7,2.4c0.1,1.3-0.1,1-1,0.9
	c-1.1-0.1-2-0.2-2.2,1.5c-0.2,1.9-2.3,2.2-3.8,2c-2.2-0.3-4.2,0.1-6.3,0.4c-2.4,0.4-4.8,0-7.2-0.4c-1.6-0.3-3.2-0.5-4.8,0
	c-0.9,0.3-2.1,0.4-1.7-1.4c0.2-0.9-0.4-1.9-1.4-1.8c-1.5,0.1-2.9-0.9-4.5-0.2c-0.8,0.3-1.2-0.2-1.2-1.1c0-1.1-0.1-2.1,0.1-3.2
	c0.3-1.9-0.6-2.6-2.3-2.7c-0.4,0-0.9,0.2-1.1-0.3c-0.2-0.5-0.1-1,0.4-1.3c0.8-0.5,0.7-1,0.1-1.7c-0.9-1-0.3-2.3-0.2-3.4
	c0.2-2.4-0.1-4.7-0.2-7c0-0.5,0-1,0.2-1.4c0.6-1.6,0.3-3.1,0.1-4.8c-0.2-1.2,1-2.5,0.5-3.9c0.2,0,0.4-0.1,0.6,0
	c0.9,0.3,0.4,1.1,0.4,1.8c1.5-0.8,2.3-1.7,1.8-3.4c-0.5-1.7,0.1-2.1,2.3-1.9c0.4,0,0.8,0.8,1.2-0.2c0.2-0.6,0.3-1.4,0-1.9
	c-0.4-0.5-0.1-0.5,0.4-0.8c1.5-0.8,3.2-0.2,4.7-0.5c1.1-0.3,2.3-0.1,1.7-1.8c-0.3-0.8,0.3-1.1,0.8-1.2c0.8-0.2,1.8-0.3,2.3,0.6
	c0.4,0.8,0.7,1.1,1.6,0.7c0.7-0.3,1.3-0.4,0.6-1.3c-0.2-0.3,0.1-0.6,0.4-0.6c0.6,0,1.7-0.5,1.8,0.3c0.2,0.8,0.7,0.6,0.8,0.5
	c1.7-1.4,3.4-0.5,5.1,0c-0.1,0.8-0.9,0.3-1.1,0.6c1.3,1.8,3.3,2.1,5.2,2.3c1.8,0.2,3.2,0.2,3.2,2.5c0,0.4,0.9,0.6,1.5,0.6
	c0.8,0.1,1.3,0.6,1.6,1.3c0.6,1.2,0.5,3,2.8,2.2c0.4-0.2,0.4,0.4,0.4,0.7c0.3,1,0.2,2,0.3,3c0.2,1.4,0.3,3.1,2.4,3.1
	c0.9,0,1.1,0.7,0.9,1.3c-0.2,0.7,0.7,1.9-0.9,1.9c-0.7,0-0.8,0.5-0.8,1.1c0.1,0.9,0.5,0.6,1,0.3c0.3-0.2,0.6,0,0.6,0.3
	C683.8,530.4,684.1,532.1,683.6,534.1z"/>
<path class="st2" d="M486.4,595.1c0.3-1.4,0.8-2.7,1.6-3.9c1-1,2.2-1.8,3.4-2.6c8-5.3,15.7-11,23.1-17.1
	c9.5-7.9,18.4-16.5,26.8-25.6c5.1-5.6,10.2-11.3,14.7-17.3c0.4-0.5,0.8-1,1.5-1.1c0.1,0,0.2,0.1,0.3,0.1c0.8,2.6-1.5,3.6-2.7,5
	c-0.8,0.9-1.9,1.6-2.4,2.9c-0.4,0.9-1.3,1.5-2.1,2.2c-1.6,1.4-2.1,3.8-4.3,4.7c0.4,2-2.2,3-1.2,5.5c-1.4-1.3-2.2-0.9-3-0.2
	c-0.3,0.2-0.8,0.5-0.3,0.8c1.9,1.2-0.2,1.6-0.5,2.1c-0.7,1.1-0.9-0.2-1.4-0.4c-1.2-0.6-0.5,1-1.1,1.2c0.9,1.6-0.4,1.6-1.2,1.5
	c-1.3-0.2-1.3,0.5-1.8,1.5c-0.7,1.7-1.4,3.7-3.7,4c-0.6,0.1-0.9,0.1-1,0.8c-0.1,0.8-0.5,1.1-1.2,1.2c-1.6,0.3-0.7,2-1.5,2.8
	c1,0.3,0.7,1.1,0.4,1.5c-0.4,0.6-1.4,0.3-1.9,0.2c-2.3-0.4-2.8,0-2.4,2.6c-1,0-1.8-0.1-1.5-2c-1.4,2.4-3.8,3.2-4.7,5.4
	c-0.2,0.5-0.5,1.1-1.2,1.1c-1.6-0.1-1.9,0.9-1.8,2.2c0.1,1.4-1,1.2-1.7,1.2c-1.8,0-2.2,0.4-1.9,2.1c0.1,0.7-0.3,1-0.8,0.9
	c-1.7-0.4-2.4,1-3.5,1.8c-1.2,0.9-2.7,1.4-4.1,2.2c-0.9,0.5-1.8,0.8-1.7,2.1c0.1,1.3-0.8,1.4-1.9,1.5c-2.8,0.2-3,0.5-2.7,3.2
	c-1.6,0.2-3,0.5-4.5,1.5c-1,0.7-1.9,2.7-3.8,2c-0.5-0.2-0.9,0.6-0.9,1.2C487.7,594.6,487,594.8,486.4,595.1z"/>
<path class="st3" d="M435.6,65.4c-0.8,0.4-1.5-0.2-2.2-0.5c-5.1-2-10.1-4.1-15.1-6.1c-11.6-4.4-23-3.6-34,2.1
	c-0.8,0.4-1.5,0.8-2.3,1.1c-1.5-2-1.3-2.6,0.8-3.1c0.7,0.4,1.3,0.7,2.2,0.4c2-0.1,3.5-0.8,3.4-3c0-0.7,0.2-0.8,0.6-0.7
	c1.5,0.4,3.1-0.3,4.6,0.3c0.3,0.4,0.6,0.3,0.9,0c1.6-0.9,3.3-0.3,4.9-0.3c6.1-0.2,12.2,0,18.4,0c0.6,0,1.2-0.1,1.2,0.7
	c0,1.5,1,1.7,2.2,1.7c1-0.5,1.3,0.4,1.7,0.9c0.9,0.2,1.8,0.3,2.8,0.1c0.8-0.2,1.6-0.1,1.9,0.8c0.1,1.1,1.6,0.7,1.7,1.7
	c0.1,0.7,0.6,0.9,1.2,0.9c1,0,2,0,3,0C436.2,62.4,436.2,62.4,435.6,65.4z"/>
<path class="st3" d="M488.5,87.1c-7.9-2.8-15.7-6.2-23.5-9.4c-0.8-0.3-1.5-0.7-2.3-1.1c1.2-1,2.7,0.3,3.9-0.5
	c0.7,0.4,1.4,0.6,2.2,0.4c1-0.5,2-0.7,1.6,0.9c-0.6,2.2,0.8,2.3,2.2,2.3c2.1,0,4.2-0.2,6.4,0c0.9,0.1,1.5,0.3,1.9,1.1
	c-0.4,0.8-0.6,1.6,0.4,2.2c1.6-0.2,3.2,0.4,4.9,0.1c0.9-0.2,1.6,0.5,1.4,1.4C487.2,85.7,487.9,86.3,488.5,87.1z"/>
<path class="st4" d="M63.8,342.7c0,6.5,0,12.9,0,19.4c-2.9-2.2-3.2-5.2-3-8.5c0.1-2.5-0.1-5.1,0.4-7.6
	C61.5,344.3,62.5,343.4,63.8,342.7z"/>
<path class="st2" d="M634.7,228.4c3.4-9,7-17.9,10.8-26.7c0.7,1.9-0.1,3.9,0.5,5.8c0.1,0.2-0.1,0.5-0.2,0.8
	c-1.6-1.2-1.2,1.5-2.6,1.3c-0.7-0.1-1.7,4.4-1.2,5.3c0.9,1.7,0.8,2-0.9,2.3c-1.4,0.2-2.8,2-2.3,3.3c0.6,1.9,0,3.8,0.1,5.7
	c0,0.6-0.8,1.1-0.9,1.1C636.5,226.5,635.8,227.9,634.7,228.4z"/>
<path class="st4" d="M705,336.7c0.1-1.4-0.4-2.9,1.4-3.7c0.1-0.1,0.3-0.4,0.2-0.5c-1.4-2.5-0.2-4.7,0.6-7c0.3-1,0.6-2.1-0.3-3.2
	c-0.4-0.5-0.8-2,0.7-2.4c0.6,3,0.4,6,0.4,9c-0.2,0.1-0.6,0.2-0.5,0.5c0,0.2,0.3,0.2,0.5,0.3c0,6.8,0,13.6,0,20.4c-0.2,0-0.5,0-0.7,0
	c-0.4-1.2-0.2-2.6-0.2-3.8c0-2.4-0.1-4.9,0-7.3C707.2,337.4,706.6,336.6,705,336.7z"/>
<path class="st3" d="M505.3,93.9c-5.7-2-11.3-4.3-16.8-6.8c1.1-0.7,2.3-0.4,3.4-0.4c1.5,0,2.8,0.7,4.4-0.1c1.1-0.6,1.9,0.2,1.5,1.5
	c-0.3,1,0,1.6,0.6,2.3c0.6,0.2,1.1,0.4,1.7,0c1.2-0.6,2.5-0.3,3.8-0.4c1.1-0.1,0.9,1.1,0.6,1.5C503.8,92.7,504.7,93.2,505.3,93.9z"
	/>
<path class="st4" d="M319,636.8c-0.3-1.3-0.1-1.7,1.5-1.7c7,0.2,14,1,21,0.9c2.4,0,4.9-0.2,7.2,0.8c-3.2,0.6-6.4,0.9-9.5-0.2
	c-1.4-0.5-3.1-0.6-4.4,0c-1.8,0.8-3.6,1.2-5.5,0.6c-1-0.9-2.5,0.1-3.4-0.9C323.6,637.5,321.3,637.2,319,636.8z"/>
<path class="st3" d="M453.2,72.8c-5.8-2.1-11.5-4.3-17-7c2.7,0.4,5.4,0.1,8,0c1.7-0.1,2.3,0.6,2.1,2c-0.1,1.4,0.6,2,1.8,2.4
	c0.2-0.2,0.5-0.4,0.8-0.2c0.5,0.5,0.5,0.1,0.5-0.3c0.8-0.4,1.9,0.7,2.6-0.4c1.8-0.1,1.2,1.2,1.3,2.2c-0.4,0.4,0.3,0.8,0.1,1.2
	C453.3,72.7,453.2,72.8,453.2,72.8z"/>
<path class="st3" d="M518,99c-4.3-1.5-8.6-3.2-12.8-5.2c2.8-1.1,5.6-0.2,8.4-0.3c0.6,0,1.6,0.4,1.4,1.3c-0.5,2.1,0.6,2.3,2.2,2.1
	c0.3,0,0.7,0.2,1,0.3c0.5,0.5,1.1,0.7,1.9,0.7c0.6,0.3,1.4,0.5,1.1,1.5c0,0.1,0,0.3,0,0.4C520.1,99.9,519.1,99.2,518,99z"/>
<path class="st2" d="M563,117c-0.2,0-0.4,0.1-0.6,0.1c-6.6-2.7-13.3-5.1-19.7-8.1c0.2-0.8,1.2-0.7,1.4-1.4c1.4-0.9,2.1-0.6,2,1.1
	c0,0.8,0.1,1.2,1,1.1c1.1,0,1.8,0.7,2.6,1.3c0.9-0.6,2-0.4,3-0.4c1.2,1.9,1.2,1.9,3.4,2.6c1,1.2,4.4,1.7,5.6,0.9
	c0.4,0.6,1.2,0.5,1.7,0.9C563.8,115.7,562.4,116.2,563,117z"/>
<path class="st2" d="M369.4,642.8c6.4,2.4,12.8,4.8,18.9,7.8c-0.2,0.4-0.6,0.2-0.9,0.4c-1.5-0.7-2.9-1.4-4.5-0.2
	c-0.7,0.5-1.8,0.2-1.8-0.7c0-2.6-1.8-2.7-3.6-2.9c-1.3,0.6-2.6-0.6-3.9,0c-0.4,0.1-0.9,0.3-1.3,0.4c0.3-1.1-1.1-1-1.3-1.7
	c-0.5-0.6-0.4-0.7,0.3-0.5c0.4,0.1,0.8,0.4,1-0.2c0.3-0.8-0.6-0.3-0.7-0.5C371.1,643.7,369.5,644.2,369.4,642.8z"/>
<path class="st2" d="M645.5,201.8c1.2-3.2,2.4-6.4,3.5-9.6c1-3,1.3-6.1,1.8-9.3c1.6-0.5,1.9,0.4,1.7,1.7c0,0.3,0,0.6,0,0.9
	c0,0.4,0.1,0.7,0.4,0.9c0,0.9,0,1.7,0,2.6c-0.7,0.9-2.7-0.1-2.7,1.8c0.7-0.1,1.5-0.2,2.2-0.5c-0.1,0.6,0.1,1.2,0.4,1.7
	c-0.7,0.4-1.4,0.7-2.2,0.9c-2,0.7-2.7,2.4-2.2,5.6C647.6,199.5,646.5,200.7,645.5,201.8z"/>
<path class="st2" d="M445.9,661.3c1.7-1.1,3.8-1.6,5.4-2.9c3.4-1.6,6.1-4.2,8.8-6.6c0.5,0.6,1.1,1.1,1.6,1.7c-0.4,0.5-0.9,0.2-1.1,0
	c-1.4-1-1.3,0.2-1.5,0.9c-0.1,0.5,0.2,1,0.2,1.5c0,0.5,0.7,1.1,0,1.5c-0.8,0.5-1.2-0.3-1.6-0.7c-0.8-0.7-1-0.7-1,0.4
	c0,0.3-0.8,1.3-1.1,0c-0.1-0.4-0.4-0.5-0.5-0.3c-0.3,1.2-1.6,0.8-2.2,1.4c-0.1,0.1-0.5,0.1-0.5,0.3c-0.7,2.1-1.5,2.8-3.7,2.8
	C447.7,661.4,446.8,661.4,445.9,661.3z"/>
<path class="st2" d="M580.6,124.5c-5.6-2.3-11.2-4.6-16.9-7c2.8,0.1,5.5,0.3,8.3,0.4c-0.1,0.3,0.1,0.6,0.4,0.7
	c0.4,0.1,0.6,0.4,0.8,0.6c0.7,0.4-0.3,1.6,0.9,1.7c0.6,0.4,1.1,0.6,1.7,0c0.7,0,1.4,0,2.2,0c0.3,0.7,0.2,1.5,1.3,1.8
	C580,122.9,580.9,123.4,580.6,124.5z"/>
<path class="st2" d="M625.3,251.7c1.8-5,3.8-9.9,6-14.8c0.3,0.8,0.7,1.6,0.9,2.5c0.1,0.3,0.1,0.7-0.3,0.9c-1.5,0.8-1.9,2.3-1.3,4.3
	c-1,0.1-2.5-0.6-2.1,1.7c0.1,0.9-0.4,2.5-1.8,3.1c0.9,0.7,1.3-0.1,1.8-0.3C628.7,251.2,628.7,251.2,625.3,251.7z"/>
<path class="st2" d="M415.4,661.4c8.3,3,16.8,3.5,25.4,1.6c-1.5,1.8-3.5,1.8-5.6,1.4c-1,0.4-2,0-3,0.4c-4.4-0.4-8.9-0.4-13.3-0.4
	c-0.9-1.2-2.5,0.1-3.4-0.9c0-0.3,0-0.6,0-0.9C415.8,662.2,415.1,661.8,415.4,661.4z"/>
<path class="st2" d="M650.8,182.5c0.1-5.7-0.9-11.3-2.7-16.7c0.1-0.1,0.1-0.2,0.2-0.2c0.3-0.1,0.6-0.1,0.8,0.1
	c0.1,0.5,0.3,1.1,0.3,1.6c-0.1,1.4,0.4,2.2,1.9,2.3c-0.4,1.5,0.8,1.7,1.7,2.2c0,1.7,0.2,3.5-0.4,5.2c-0.1,0.2-1-0.5-0.6,0.4
	c0.5,1.2-0.1,2.4,0,3.6C651.9,181.5,651.8,182.4,650.8,182.5z"/>
<path class="st2" d="M596.5,130.9c-3.9-1.6-7.7-3.2-11.6-4.8c0.1-0.1,0.1-0.1,0.2-0.2c1.4-0.8,3.2,0,4.6-1.1c0.6,0,1.3,0.3,1.2,0.9
	c-0.7,3.1,1.3,2.3,2.9,2.1c0.3,0,0.7,0,1.1,0c0.4,0.3,0.8,0.7,1.3,0.9c0.6,0.3,1.8,0,1.3,1.3C597.2,130.4,596.9,130.7,596.5,130.9z"
	/>
<path class="st3" d="M462.7,76.6c-3.3-1-6.4-2.3-9.5-3.8l0.1-0.1c0.4-0.3,0.9-0.3,1.3,0c2,0,4,0,6,0c0.3,0.4,0.6,0.6,0.9,0
	C464.4,73.2,462.8,75.2,462.7,76.6z"/>
<path class="st2" d="M460.9,651c3-3.4,5.3-7.2,7.4-11.2c0,0.1,0,0.2,0.1,0.2c0.7,0.8,0.7,1.7,0.7,2c0,1.1-1.1,1.3-1.4,2.1
	c0,0.1-0.4,0.1-0.6,0.1c1.5,3.9-4.2,2.9-4.2,6C462.9,650.5,461.6,650.7,460.9,651z"/>
<path class="st2" d="M470,635.5c1.7-5,3.8-9.9,6-14.7c0.5,0.9,1.9,1.7-0.2,2.7c-1.1,0.6,0.1,1.6,0.8,2c0.3,0.2,0.8-0.1,0.8,0.6
	c0,0.7-0.5,0.9-1,0.8c-2-0.6-1.9,0.9-2.8,2C472.1,631.1,471.9,633.8,470,635.5z"/>
<path class="st4" d="M662.4,344.7c0.5,0.8,0.4,1.6-0.2,2.3c-0.8,1,0,2.7-1.6,3.4c0.7,1.5-0.1,3,0.3,4.5c0.3,1,0.3,1.9-1.2,1.8
	c-0.1-0.5-0.5-1-0.4-1.4c0.8-2.2-0.3-4.6,0.6-6.8c0.6-1.3-1.1-2.6,0.2-3.9c0.4,0.9,0.9,0.9,1.3,0
	C661.8,344.7,662.1,344.7,662.4,344.7z"/>
<path class="st2" d="M481.6,606.7c1.4-4,3-7.8,4.7-11.6c1.3,0.7,1.4,1.9,1.2,3c-0.2,1-1.1,1.4-2.2,1.1c-0.2,0.8,1,0.6,0.7,1.5
	c-2.1-0.2-2.4,2-2.5,3.1C483.5,605.4,482.6,605.9,481.6,606.7z"/>
<path class="st3" d="M67.3,307.9c-0.2,0.7-0.4,1.5-0.6,2.2c-0.4-0.3-0.5-1.3-1.2-0.7c-0.6,0.5-0.3,1,0.3,1.5c1.3,1.2,0.9,3-0.6,3.8
	c-0.4,0-0.6-0.2-0.9-0.4c0.3-2.3-0.9-4.7,0.4-6.9C65.6,307.2,66.5,306.9,67.3,307.9z"/>
<path class="st2" d="M613.3,281.4c1.3-4,2.9-7.9,4.7-11.7c0.2,2.6-1,5-1.5,7.5c-0.1,0.6-2,1-0.2,1.8c0,0,0,0.1,0.1,0.2
	c-1.9-0.5-1,1.9-2.2,2C613.8,281.2,613.6,281.3,613.3,281.4z"/>
<path class="st4" d="M64.3,392.6c0.6,0,1.1,0.1,1.7,0.1c-0.4,1.7,1.4,2.7,1.3,4.3c-0.1,2.3-1.8,1.4-3,1.6
	C65.4,396.6,63.8,394.6,64.3,392.6z"/>
<path class="st2" d="M630.5,145.1c-3.2-1.4-6.3-2.9-9.5-4.3c0.6-0.8-0.2-1.8,0.5-2.6c0.3,0,0.6,0,0.9,0c1,0,2.3-0.3,1.6,1.5
	c-0.3,1,0.7,0.8,1,1.2c0.6,0.7,1.5,0.4,2.1,0.8c0.4,0.3,0.9,0.6,1.3,0.9c-0.1,0.6,0.4,0.8,0.8,1C629.8,143.8,630.8,144,630.5,145.1z
	"/>
<path class="st4" d="M663.2,322.3c0.6-0.1,1.1-1,1.7-0.3c0.3,0.4,0.5,1.3,0.3,1.8c-0.9,1.8-0.7,3.7-0.7,5.5c0,0.9-0.4,1.3-1.3,1.2
	C663.2,327.8,663.2,325,663.2,322.3z"/>
<path class="st2" d="M538,107.1c-1.6-0.4-3.2-1.1-4.7-1.9c0.1-1,1.5-0.6,1.7-1.6c3.6,0,4,0.3,4.3,2.6
	C539.1,107,538.5,106.9,538,107.1z"/>
<path class="st2" d="M563.8,519.4c0.1,0.1,0.3,0.3,0.2,0.3c-1.4,1.2-0.4,3.8-2.6,4.4c-0.3,0.1-0.6,0.2-0.7,0.4c-0.9,2.1-0.8,2.1-3,3
	c0,0,0,0,0,0C557.8,525.6,561.9,520,563.8,519.4L563.8,519.4z"/>
<path class="st2" d="M405.5,657.4c3.3,1.1,6.4,2.4,9.5,3.9c-0.3,0.3-0.6,0.3-1,0.1c-0.5,0-1.2,0.1-1.4-0.1c-1.5-1.5-2.8-0.7-4.2,0.1
	c-1.1-0.4-2.4-0.6-2.1-2.3C406.5,658.3,405.1,658.4,405.5,657.4z"/>
<path class="st2" d="M642.5,155.8c-2-2.5-4.2-4.7-6.5-6.9c1.8-0.8,3.1-1,3.2,1.6c0,0.5,0.4,0.7,0.8,0.9c0.3,0,0.1,1.2,0.9,0.4
	c1.2-0.1,2.1,0,1.4,1.6c-0.1,0.4,0.2,0.9,0.3,1.4C642.8,155.2,642.8,155.5,642.5,155.8z"/>
<path class="st4" d="M650.8,182.5c1.5-2.2,0.1-4.7,0.5-7.1c1,0.2,0.5,1.3,1.1,1.5c0.2,0.2,0.7,0.5,0.6,0.5c-1.1,2.3,0.6,4.9-0.6,7.2
	c0-1.1-0.7-1.5-1.7-1.7C650.8,182.7,650.8,182.6,650.8,182.5z"/>
<path class="st4" d="M532,102.4c-0.1,0.7,0.6,1.1,0.9,1.7c-0.1,0.1-0.2,0.1-0.3,0.2c-1,0.3-1.9-0.5-2.9-0.6l0,0
	c-1-1.7-2.9-1.1-4.3-1.8l0,0c-0.2-0.5-1.5-0.4-0.8-1.4c1.9-0.2,3.8-0.4,5.6,0.4C531.1,101.3,531.5,101.9,532,102.4z"/>
<path class="st4" d="M310,634.3c1.8,0.1,3.5,1,5.5,0.5c1.5-0.3,1.9,1.1,1.8,2.5c-0.6,0.4-1.1,0.4-1.7,0c-0.9-1.1-1.7-0.7-2.6,0
	C312,636.3,311,635.3,310,634.3z"/>
<path class="st2" d="M389.6,651.1c3,1,6.2,1.7,8.7,3.8c-2-1.4-4.4,0-6.5-0.8c0-1.2-0.6-1.3-1.5-0.8c-0.7,0.4-1.2,0.1-1.5-0.6
	C388.3,651.6,388.8,651.3,389.6,651.1z"/>
<path class="st3" d="M77.2,264.4c0.4,0.9,0.6,1.6-0.6,2.2c-0.5,0.2-0.8,1.2-0.5,1.8c0.7,1.6-0.4,2-1.4,2.5c-0.6-1.8,0.3-3.6,0.1-5.5
	C74.6,263.4,76.5,265.1,77.2,264.4z"/>
<path class="st2" d="M614.6,138.1c-1.8-0.5-3.6-1.2-5.2-2.1c0-0.1,0.1-0.1,0.1-0.2c0.2-0.2,0.6-0.4,0.8-0.7c0.4-0.1,0.9-0.3,1.3-0.4
	c0.3,0.3,0.6,0.7,0.9,0C615.2,134.8,615.2,134.8,614.6,138.1z"/>
<path class="st4" d="M95.2,482.1c0.1,2.3,2.9,2.6,3.3,4.7c0.1,0.6,0.1,1.2,0.1,1.8c-3.4-0.9-3.4-0.9-3.4-4.5
	C95.2,483.4,95.2,482.8,95.2,482.1z"/>
<path class="st2" d="M610.3,296.1c-1.6-3.1-0.9-6.1,0.5-9c0.1,0,0.2-0.1,0.4-0.1c0.3,1,0.7,2-0.3,2.9c-0.2,0.1-0.2,0.3-0.3,0.5
	c2.3,1.3-0.6,3.1,0.4,4.6C611.1,295.3,610.7,295.8,610.3,296.1z"/>
<path class="st2" d="M440.7,663c1.7-0.6,3.5-1.1,5.2-1.7c0,0.2,0,0.4,0,0.6c0.3,2.6,0.2,2.8-2.2,2.3c-0.7-0.2-1.3-1-2.2,0
	C441.2,664.7,441.5,663.2,440.7,663z"/>
<path class="st3" d="M81,254.1c0,1-0.1,1-1.3,2.3c-0.5,0.5-0.7,1.4-0.7,2.1c0,0.6-0.1,0.9-0.6,1.2c-0.8-1.4-0.5-3-0.4-4.4
	C78.3,253.4,80,254.3,81,254.1z"/>
<path class="st3" d="M87.9,236.9c-1.5,1.3-1,3.3-1.6,4.9c-0.3,0.9-0.6,1.2-1.5,0.7c0.1-0.7,0.2-1.4,0.2-2.1
	C85,237.4,85,237.4,87.9,236.9z"/>
<path class="st4" d="M116.3,524.5c3.4,0.6,3.6,4.2,5.6,6c-1.5,0.1-2.9,0.1-2.6-2.1c0.1-1.1-0.8-1.4-1.7-1.3c-0.9,0-1.8,0-1.7-1.3
	c0.9,0.1,0.1-0.7,0.4-0.9C116.3,524.8,116.3,524.7,116.3,524.5z"/>
<path class="st4" d="M247.1,620.1c1.9,2.2,4.8,2.5,7.3,3.4c-2.3,0.4-4.5-0.6-6.8-0.1c-0.9,0.2-1.1-0.6-0.9-1.3
	C247,621.5,247.2,620.8,247.1,620.1z"/>
<path class="st4" d="M701.1,301.8c-0.4,0.3-0.7,0.9-1.3,0.2c-1-1.1-2-2.2-3-3.2c0.4,0,0.9,0,1.3,0
	C701,298.8,701.1,298.9,701.1,301.8z"/>
<path class="st3" d="M70.7,288.5c-0.1,3.2-0.2,3.4-2.6,3.4c0-0.1,0-0.3,0-0.4C67.5,288.5,67.5,288.5,70.7,288.5z"/>
<path class="st4" d="M599.5,131.3c2.2,0,4.3,0,6.5,0c0.8,1-0.3,1.4-0.6,2.1c-0.1,0.1-0.3,0.2-0.5,0.3c-1,0.3-1.9-0.5-2.9-0.6l0,0
	c-0.6-0.6-1.4-0.7-2.2-0.9l0,0C599.8,131.9,599.3,131.7,599.5,131.3z"/>
<path class="st4" d="M160.6,571.9c3.2,0,3.6,0.4,3,2.6c-0.4,0.1-0.8,0.2-1.2,0.4c-1.2,0.5-2.2,0.9-1.5-1.2
	C161.1,573.2,160.8,572.5,160.6,571.9z"/>
<path class="st2" d="M622.2,259.4c0.5-2,1.3-3.8,2.2-5.6c0.5,0.8-0.9,2,0.7,2.7c0.2,0.1-0.9-0.1-1.3,0.5c1.3,1,1.2,2.5,1.4,4
	C624.2,260.3,623.8,258.8,622.2,259.4z"/>
<path class="st4" d="M259.2,623.9c1.6,0.9,3.6,1.4,4.7,3c-0.6,0-1.1,0-1.7,0c-0.7-0.6-1.4-0.3-2.2,0c-0.9-0.1-1.9,0.2-3-0.3
	C258,625.7,260.3,626,259.2,623.9z"/>
<path class="st4" d="M195.1,596c0.6,0,1.3,0,1.3,0.8c-0.1,2.1,1,2,2.5,1.5c1-0.3,1.5,0.1,1.4,1.2c-0.5,0-1,0-1.5,0
	C195.1,599.5,195.1,599.5,195.1,596z"/>
<path class="st2" d="M632.6,233.6c0.7-1.7,1.4-3.5,2.2-5.2c0.3,1.4,1.5,2.9-0.3,4.1c-1.1,0.7,0.8,1.1,0.1,1.7
	C633.7,234.6,633.1,234.1,632.6,233.6z"/>
<path class="st4" d="M92.2,478.7c0,0.1,0,0.2,0,0.2c0.1,0.1,0.2,0.2,0.3,0.3c0.3-0.4,0-1.2,0.8-1.5c0.1,1.5,2.4,1.7,1.9,3.6
	c-0.5,0-1,0-1.5,0C91.6,481.2,91.4,480.9,92.2,478.7z"/>
<path class="st4" d="M389.6,651.1c-0.4,0.4-1.1,0.8-0.5,1.6c0.6,0.8,0.9,0.2,1.3-0.2c0.8-0.7,1.3,0.1,1.8,0.4
	c0.3,0.2,0.5,1.1-0.5,1.2c-0.5,0-1,0-1.5,0.1c-1.7,0.5-2.5,0.1-2.1-1.8c0.2-0.7-0.2-1.1-0.8-1.3c0.2-0.4,0.5-0.4,0.9-0.4
	C388.6,651,389.1,651,389.6,651.1z"/>
<path class="st2" d="M648.1,165.8c-0.7-1.6-1.4-3.1-2.2-4.7c0-0.1,0-0.2,0-0.3c-0.1-1,0.7-1.5,1.3-2c0.1,0.1,0.3,0.3,0.4,0.4
	c0.7,1.3,2.3,2.4,0.6,4.2c-0.5,0.5,0.5,1.5-0.1,2.2L648.1,165.8z"/>
<path class="st4" d="M689,296.2c0.1,0.4,0.5,1.1,0.4,1.1c-0.6,0.4-1.4,0.4-2,0c-1.9-1.2-4.1-1.3-6.2-1.5c2.2-0.7,4.4-0.8,6.5,0.2
	C688.2,296.2,688.6,296.2,689,296.2z"/>
<path class="st4" d="M229.5,613.6c2.8,0.2,3.2,0.6,2.6,3C229.5,616.8,229.5,616.8,229.5,613.6z"/>
<path class="st4" d="M630.5,145.1c-0.4-1-1.4-1.1-2.2-1.6c-1-0.5,0-0.7,0.1-1.1c1.3-0.1,2.6-1.7,3.9,0c-1.4,0.3-0.6,1.1-0.4,1.7
	C631.9,145.2,631.3,145.4,630.5,145.1L630.5,145.1z"/>
<path class="st4" d="M113.3,521.1c0.7,0.1,1.3-1.4,2.2,0c0.8,1.2,0.4,1.9-0.5,2.6c-0.8-0.1-1.5,0.2-2.4-0.3
	C113,522.7,113.5,522,113.3,521.1z"/>
<path class="st2" d="M645.9,161.1c-1-1.6-2-3.2-3.1-4.8c0.4-0.4,1.1-0.4,1.5-0.9c1.2,0,2.1,0.3,1.3,1.7c0.5,0.3-0.2,1,0.4,1.3
	c0.5,0.8,0.1,1.7,0,2.5C646,160.9,646,161,645.9,161.1z"/>
<path class="st2" d="M630.5,145.1c0.6,0,1.1-0.3,1.3-0.9c0.3,0.3,0.6,0.6,0.9,0.9c0.7,0.2,1.3,1,2.2,0.4c0.9-0.3,0.8,0.4,0.8,0.9
	c0,0.8,0,1.5,0,2.3C633.9,147.4,632.2,146.2,630.5,145.1z"/>
<path class="st4" d="M353.8,637.7c1.7-0.2,2.5,1.1,3.4,2.2c-0.6,0.9-1.2,1.2-2.2,0.4c-0.7-0.1-1.2-0.5-1.7-0.9
	C353.4,638.8,353.6,638.2,353.8,637.7z"/>
<path class="st4" d="M105.6,498.9c1.2,1.3,2.4,2.5,1.1,4.4c-0.5,0.7,0.3,1.4,0.2,2c-1,0.1-1.3-0.5-1.3-1.4
	C105.6,502.3,105.6,500.6,105.6,498.9z"/>
<path class="st4" d="M627.1,141.6c-1.1,0.5-2.1-0.3-3.1-0.4c-0.8,0-0.8-1.3-0.7-1.5c1-1.4-0.5-1.2-1-1.6c1.5-0.7,2.7-0.5,2.8,1.4
	C625.3,140.8,626.3,141,627.1,141.6z"/>
<path class="st2" d="M475.9,620.8c0.6-1.9,1.3-3.8,2.2-5.6c0.5,1.1,0.5,2.3,0.5,3.3C478.6,619.6,477.4,620.8,475.9,620.8z"/>
<path class="st4" d="M184.7,589.1c1.8,0.1,3.6,1.4,3.9,3c-1.2-0.1-2.6,0.6-3.4-0.9C184.8,590.6,184.7,589.8,184.7,589.1z"/>
<path class="st3" d="M84.5,246.7c-0.6,1.6-0.9,3.5-3,3.9C80.9,248.1,82.1,246.9,84.5,246.7z"/>
<path class="st4" d="M174.4,582.2c0.4,0,1-0.1,1.1,0.4c0.4,1.2,1.2,1.6,2.5,1.3c-0.5,0.6-0.8,1-1.1,1.4
	C174.4,585.9,174.4,585.9,174.4,582.2z"/>
<path class="st4" d="M202,600.3c1,0.3,1.8,1.2,3.1,0.8c0.2-0.1,0.8,0.3,1,0.6c0.4,0.6-0.5,0.7-0.6,1.2
	C202.3,602.8,202.1,602.7,202,600.3z"/>
<path class="st2" d="M611.5,285.7c0.6-1.4,1.2-2.9,1.8-4.3c0.3,0.8-0.9,2.5,1.3,2.3c0.3,0,0.4,0.7,0,1.2c-0.4,0.5-0.6,1.3-1.3,0.8
	C612.6,285.3,612.1,285.5,611.5,285.7z"/>
<path class="st3" d="M72,278.2c0.9,0.9,1.6,1.8-0.1,2.7c-0.5,0.3,0,0.7,0.2,1.1c0.4,0.7,0.4,1.2-0.6,1.3c-0.9-2-0.4-4-0.4-6
	C72.1,277,72.3,277.3,72,278.2z"/>
<path class="st4" d="M60.4,402.5c0.1,0.9-0.9,0.7-1.1,1.4c0.4,0,0.8,0,1.7,0c-1.2,0.8-1.3,3.1-3.1,1.2
	C57,402.5,58.9,402.8,60.4,402.5z"/>
<path class="st4" d="M621.5,138.1c0,0.9,1,2-0.5,2.6c-0.3,0-0.7,0.1-0.9-0.3c-0.7-1.1-2.4-0.5-3-1.9
	C618.6,138.3,620,138,621.5,138.1z"/>
<path class="st2" d="M364.6,641.2c1.8-0.1,3.3,0.9,4.8,1.7c-1.9-1.1-2.8,1.1-4.3,1.3c-0.1-0.8-0.6-1.1-1.3-1.3
	C363.7,642.1,364.4,641.7,364.6,641.2z"/>
<path class="st4" d="M239.8,618.8c2.3-1.1,4.1,0.3,6,1.3c-1.8-0.1-3.6-0.1-5.4-0.2C239.6,619.9,239.9,619.2,239.8,618.8z"/>
<path class="st2" d="M398.6,654.9c1.1-0.3,1.8,0.3,2.7,0.8c-1.2,0.7-1.2,0.7-0.5,2.1C397.9,658,397.8,657.9,398.6,654.9z"/>
<path class="st4" d="M222.6,611.5c2.6-1,3.2-0.7,3,1.7C224.5,612.9,222.4,614.1,222.6,611.5z"/>
<path class="st3" d="M95.2,223.1c0,1.9-2.6,2.4-2.2,4.5c-0.9-1.7-0.3-3.1,0.4-4.5C94.1,223.1,94.7,223.1,95.2,223.1z"/>
<path class="st4" d="M556.1,113.2c-0.2,0-0.4,0-0.6,0c-2,0.3-3.2-0.3-2.8-2.6c1,0.2,2.1-0.4,3,0.4c-0.3,0.4-1.2,0.1-1.1,1.3
	c0.5-1.4,1.2-1.3,2-0.9C556.5,112.1,556.7,112.7,556.1,113.2z"/>
<path class="st2" d="M584.9,126.1c-1.1-0.2-2.1-0.6-3.1-1.2c1.7-0.7,3.5-0.5,5.3-0.5c0.4,1.8-1.2,1.3-2,1.6L584.9,126.1z"/>
<path class="st2" d="M480.3,610.1c0.3-1.2,0.7-2.4,1.4-3.4c0.5,2.5,1-0.1,1.7,0c-0.2,1,0.4,1.8,0.8,2.8
	C482.5,608.3,481.3,608.9,480.3,610.1z"/>
<path class="st4" d="M77.2,446.8c1.2-0.8,1.2,0,1.3,0.8c0.3,1.5,0.3,1.3,1.7,1.1c1.3-0.2,0.9,1.2,1.3,2c-0.1-0.1-0.3-0.2-0.4-0.2
	c-1.9-0.1-3.6-0.4-3.2-3C77.9,447.3,77.4,447.1,77.2,446.8z"/>
<path class="st4" d="M580.6,124.5c-0.2-0.9-1.1-1.4-1.7-1.5c-1.5-0.3-1.4-1.1-0.9-2.1c0.3,0,0.6,0,0.9,0c0.6,0.4,1.1,0.9,1.7,1.3
	c-0.5,1.3,1.3,1.5,1.2,2.7C581.4,124.9,580.9,125,580.6,124.5z"/>
<path class="st4" d="M102.6,495c1.8,0.5,1.2,2.2,1.7,3.4C102,498.3,101.6,497.5,102.6,495z"/>
<path class="st4" d="M648.2,165.6c0.3-1.1-2-2.7,0.6-3.3c-0.4-1-0.7-2.1-1.1-3.1c0.1,0,0.3,0,0.4,0c0.7,0.2,0.5,0.9,0.9,1.3
	c0.1,0.9,0.6,1.7,0.4,2.6c-0.5,0.4-0.5,0.9,0,1.3c0,0.5,0.1,1-0.4,1.3C648.8,165.7,648.5,165.6,648.2,165.6z"/>
<path class="st4" d="M659.3,372.2c-0.1,1.6-1.3,2.4-2.1,3.4c-0.1-0.1-0.1-0.1-0.2-0.2c-0.3-0.5-0.1-1.2-0.6-1.5
	C656.5,371.9,658.2,372.5,659.3,372.2z"/>
<path class="st4" d="M271.7,627.4c1,0.2,1.3,1.5,2.5,1.5c-0.3,1-2.5-0.4-1.6,1.6C270.4,629.9,270.3,629.5,271.7,627.4z"/>
<path class="st4" d="M126.7,536.6c1,0.4,1.5,0.9,0.9,2.2c-0.3,0.6-0.1,1.4-0.1,2.1c-1.7,0.1-1.2-1.1-1.3-2.1
	C126.2,538.1,126.2,537.3,126.7,536.6z"/>
<path class="st4" d="M405.5,657.4c0.5,0.8,2.2,1,1.2,2.6c0,0.1,1.1,0.9,1.7,1.4c-0.8,0-1.5,0-2.2-0.4c-0.6-0.3-1-0.7-1.3-1.3
	c0-0.6,0-1.1,0-1.7C404.9,657.5,405.1,657.3,405.5,657.4L405.5,657.4z"/>
<path class="st4" d="M652.5,190.2c-0.3,1.4-1.9,0.4-2.5,1.3c-0.4-2.4,0.9-2.9,2.9-2.6C652.9,189.4,653,189.9,652.5,190.2z"/>
<path class="st4" d="M208.8,604.6c0.6-0.2,1.1-1.4,1.7,0.3c0.3,0.9,2.2,0.7,3.5,0.9C211.3,606.9,209.7,606.5,208.8,604.6z"/>
<path class="st4" d="M215.7,607.2c0.6,1.2,3.1-0.1,3,2.2C215.8,609.7,215.8,609.7,215.7,607.2z"/>
<path class="st4" d="M150.3,561.5c0.4,0,1.1,0.2,1,0.6c-0.6,2.2,1.6,1.9,2.4,2.9C150.3,565,150.3,565,150.3,561.5z"/>
<path class="st4" d="M585,126c0.7-0.5,1.9-0.5,2-1.6c0.9,0,1.8-0.1,2.6,0.4c0,0.4,0.9,1.1-0.4,1C587.8,125.7,586.4,125.9,585,126z"
	/>
<path class="st4" d="M415.4,663.5c1.1,0,2.2-0.7,3.3,0c0.5,0.3,0.2,0.6,0.1,0.9C417.5,664.9,416.1,665.6,415.4,663.5z"/>
<path class="st4" d="M181.3,586.5c1.2,0.5,2.3,1,3,2.2C181.9,589.5,181.9,589.5,181.3,586.5z"/>
<path class="st4" d="M84.9,460.6c1,0.2,1.3,1.2,1.7,1.9c0.8,1.2-0.1,0.5-0.5,0.6c-0.8,0.2,0.1,1.8-1.2,1.8
	C84.9,463.5,84.9,462,84.9,460.6z"/>
<path class="st4" d="M143.4,554.7c0.9,1,1.7,2,2.6,3c-1.5,0.6-2.9,1.1-2.4-1.5C143.7,555.7,143.5,555.2,143.4,554.7z"/>
<path class="st2" d="M620.2,264.2c0.5-1.7,1.1-3.3,2-4.8c0.9,1.8-0.7,3.2-0.8,4.8C621.1,264,620.7,263.9,620.2,264.2z"/>
<path class="st4" d="M147.3,559c0,1,0.1,1.9,1.5,1.4c1-0.3,1.4,0.2,1.5,1.1c-0.4,0.1-0.8,0.1-1.2,0.1
	C146.9,561.8,146.5,561.2,147.3,559z"/>
<path class="st2" d="M524.7,100.7c-0.1,0.7,0.7,0.9,0.8,1.4c-2.6-0.8-5.1-1.8-7.5-3.1c1.2-0.2,2.2,0.4,3.2,0.8
	C522.3,100.5,523.4,100.9,524.7,100.7z"/>
<path class="st4" d="M136.6,548.6c0.8,0.3,1.2,1.3,2.1,1.3c1.1,0,0.3,0.8,0.4,1.3C137,551.6,136.2,550.7,136.6,548.6z"/>
<path class="st4" d="M260.5,2.8c-0.1,0.3-0.8,0.5-0.4,0.8c2.1,1.7-0.1,1.7-0.8,2.2C258.8,4.5,257.7,2.8,260.5,2.8z"/>
<path class="st4" d="M155.1,568c-0.1-0.5-0.2-0.9-0.3-1.6c1.4,0.3,2.4,1.1,3.2,2c0.5,0.5,0,0.7-0.3,0.9
	C157.2,568,155.7,568.9,155.1,568z"/>
<path class="st4" d="M652.9,171.7c-0.4,0.1-0.4,0.9-1.2,0.3c-1-0.8-1.2-1.4-0.6-2.5C652.3,169.5,652.3,169.5,652.9,171.7z"/>
<path class="st2" d="M618.3,268.9c0.5-1.5,1-3,1.9-4.4C620,266.2,621.3,268.5,618.3,268.9z"/>
<path class="st2" d="M468.2,639.8c0.4-1.5,0.9-3,1.8-4.3C470.3,637.3,470.7,639.1,468.2,639.8z"/>
<path class="st4" d="M311.2,83.5c0.4,0.6,0.4,1-0.1,1c-1.1,0.1-1,2.1-2.5,1.5c-0.2-0.9,0.5-1.5,0.9-2.2c0.2-0.3,0.6-0.2,0.9-0.4
	C310.7,83.5,311,83.5,311.2,83.5z"/>
<path class="st4" d="M133.1,545.2c0.4-0.1,1-0.7,1.2,0.1c0.2,0.8,1.3,1.6,0.1,2.5C132.3,547.7,133.4,546.1,133.1,545.2z"/>
<path class="st4" d="M288.4,632.1c1.1,0.6,2-1,3.1-0.2c-0.4,1.1-1.9,0.8-2.3,1.9C287.7,633.9,287.9,633.1,288.4,632.1z"/>
<path class="st4" d="M519.9,98.1c-0.9,0.3-1.5,0.1-1.7-0.9c1.3-0.4,2.7-1.2,3.9,0.4C521.5,98.2,520.8,98.6,519.9,98.1z"/>
<path class="st4" d="M657.2,375.7c1.6,2,1.5,2.2-0.9,3c0.4-0.9,0-1.7,0-2.6C656.6,375.9,656.7,375.4,657.2,375.7z"/>
<path class="st4" d="M549.6,111c-1.1,0.1-1.8-0.6-2.6-1.3c0.1-0.8,0.6-1,1.2-0.8C549.3,109.2,549.7,110,549.6,111z"/>
<path class="st2" d="M609.4,136c-1.5-0.4-3-0.9-4.3-1.7c1.1,0.2,1.9-1,3.1-0.5c0,0.4,0.1,0.7,0.4,0.9
	C608.9,135.1,609.7,135.2,609.4,136L609.4,136z"/>
<path class="st4" d="M81.5,453.7c0.5,0.1,1.3-0.1,1.1,0.6c-0.4,1.2,0.7,1.9,0.6,2.9C80.8,456.9,81.7,455.1,81.5,453.7z"/>
<path class="st4" d="M373.6,647.2c0.1-0.6,0-1.3,1.1-0.8c0.8,0.4,1.8,0.5,2.8,0.8C376.2,647.8,374.9,648.2,373.6,647.2z"/>
<path class="st2" d="M405.5,657.4c-0.2,0.2-0.3,0.3-0.5,0.5c-1.1-0.4-2.3-0.8-3.4-1.1c-1-0.2-0.6-0.7-0.4-1.2
	C402.8,656.1,404.2,656.6,405.5,657.4z"/>
<path class="st4" d="M239.4,100.3c-0.1,0.4-0.5,0.8,0,1.3c1.3,1.3,0.1,1.5-0.8,1.7C238.4,102.2,236.9,100.7,239.4,100.3z"/>
<path class="st4" d="M342.7,83.1c-0.2,2.3-2,0.9-3,1.3C339.8,82,341.7,83.5,342.7,83.1z"/>
<path class="st4" d="M165.4,145.5c-1.6,0.4-3,1.2-4.3,2.2C162.5,144.9,163,144.7,165.4,145.5z"/>
<path class="st4" d="M608.1,133.8c-1,0.1-2,0.8-3.1,0.5c0,0,0,0,0,0c-0.2-0.3-0.2-0.6,0-0.9c1.1-0.3,1.2-1.4,1.7-2.2
	c0.1,0,0.3,0,0.4,0c0.3,0.4,0.4,0.8,0.4,1.3C607.9,133,608,133.4,608.1,133.8z"/>
<path class="st4" d="M64.3,388.3c0.2,0.2,0.5,0.3,0.7,0.5c0.4,0.7,1.7,1.2,1.3,2.1c-0.4,0.8-1.3-0.8-1.9,0
	C64.3,390,64.3,389.2,64.3,388.3z"/>
<path class="st4" d="M63.8,369.4c0.4,2.6,1.3,5.1,0.4,7.7C64.2,374.5,63.6,372,63.8,369.4z"/>
<path class="st4" d="M87.1,467.5c-0.2-0.5-0.6-1.1,0.1-1.5c0.8-0.4,0.7,0.4,0.9,0.8c0.4,0.7,1,1.4,1.1,2.2c0.1,1.1-0.6,0-0.8,0.2
	C88.4,468.3,88.2,467.5,87.1,467.5z"/>
<path class="st4" d="M98.7,489c0.8,0.7,2.2,1,1.7,2.6C98.1,491.9,98.8,490.2,98.7,489z"/>
<path class="st2" d="M478.5,614.4c0.5-1.5,1-3,1.8-4.3C480.3,611.8,480.2,613.5,478.5,614.4z"/>
<path class="st4" d="M88.4,472.7c1.6-0.4,1.6-0.4,2.2,0.9C89.5,473.9,88.2,475.2,88.4,472.7z"/>
<path class="st4" d="M157.2,570.2c1.5-0.4,2.5-0.2,2.2,1.7C158.1,571.9,157.4,571.4,157.2,570.2z"/>
<path class="st4" d="M90.1,231.7c-0.1,0.7,0.3,1.6-0.9,1.7c-0.7-0.9-0.3-2-0.4-3c0.7-0.5,1.4,0.1,2.2,0
	C91.3,231.2,90.4,231.3,90.1,231.7z"/>
<path class="st4" d="M64.3,384c1.3,0.1,1.4,1,1.2,1.9c-0.1,0.6-0.1,1.5-1.2,1.1C64.7,386,64.7,385,64.3,384z"/>
<path class="st2" d="M480.5,614.2c0,1.3,0,2.4-0.8,3.2C479,615.9,479,615.9,480.5,614.2z"/>
<path class="st4" d="M544,107.6c0.5,0.1,0.9,0.3,0.3,0.7c-0.5,0.3-1.1,0.5-1.7,0.7c0,0,0,0,0,0c-0.2-0.8-0.9-0.3-1.2-0.5l0,0
	c-0.2-0.2-0.6-0.5-0.4-0.8c0.2-0.3,0.5-0.3,0.9-0.1C542.6,107.1,543.3,107.7,544,107.6z"/>
<path class="st2" d="M556.5,111.5c-0.4,0-0.3,0.1-0.8,0.7c-0.2,0.3-0.7,0.4-1.1,0.5c-0.5,0-0.7-0.4-0.8-0.9
	c-0.1-0.4,0.3-0.6,0.6-0.7c0.4-0.1,0.8-0.1,1.3-0.1C556,111,556.3,111.1,556.5,111.5z"/>
<path class="st3" d="M73.7,275.1c0.8,1.3,0.6,2.3-0.9,3c-0.5-0.6-0.5-1.1,0-1.7c0-0.3,0-0.6,0-0.9C73.1,275.2,73.4,275.2,73.7,275.1
	z"/>
<path class="st2" d="M185.2,591.2c1,1,2.4,0.1,3.4,0.9c-1.1,0.7-2.1,0.5-3.2,0.1C184.9,592,184.7,591.7,185.2,591.2z"/>
<path class="st4" d="M171,580.5c1.5-0.1,2.7,0.4,3.4,1.7c-0.6,0-1.1,0-1.7,0c-0.5-0.5-1.4-0.5-1.7-1.3
	C171,580.8,171,580.6,171,580.5z"/>
<path class="st2" d="M325.9,636.4c1.1,0.4,2.7-0.9,3.4,0.9C328.2,636.9,326.7,638.1,325.9,636.4z"/>
<path class="st4" d="M260,93.4c-0.6,0.9-1.7,1.2-2.6,1.7c-0.5-1-0.4-1.8,0.9-1.6C259,93.6,259.5,93.4,260,93.4z"/>
<path class="st4" d="M573.3,119.2c-0.8-0.1-1.5-0.6-2.3-0.4c0.3-0.3,0.7-0.6,1-0.9c0.4-0.2,0.9-0.6,1.4-0.3
	C574,118.1,573.2,118.7,573.3,119.2z"/>
<path class="st4" d="M294.9,86.5c-0.8,0.7-1.9,0.6-2.7,1.3c-0.8,0.6-0.6-0.5-0.7-0.9C292.5,86.3,293.7,86.6,294.9,86.5z"/>
<path class="st2" d="M606.9,131.3c0,1.2,0,2.4-1.7,2.2c-0.4-1,1.3-1.2,0.9-2.2C606.3,131.3,606.6,131.3,606.9,131.3z"/>
<path class="st4" d="M57.4,434.8c0.6,0.7,2.6-0.4,2.2,1.7C58.4,436.4,57.4,436.2,57.4,434.8z"/>
<path class="st4" d="M115.9,195.4c1.3,0.5,0.1,1-0.1,1.3c-0.3,0.9-1.3,1.3-2.1,1.7C113.8,196.9,115.6,196.7,115.9,195.4z"/>
<path class="st2" d="M313,637.3c1.3-1.6,1.9-1.6,2.6,0C314.7,637.3,313.8,637.3,313,637.3z"/>
<path class="st3" d="M88.8,230.4c1,0.9,0.3,2,0.4,3c-0.3,0.3-0.6,0.2-0.9,0C88.5,232.4,88,231.3,88.8,230.4z"/>
<path class="st2" d="M617.2,138.6c0.8,1,2.6,0.3,3,1.9c-1.5-0.5-3-1-4.4-1.8C616.3,138.6,616.7,138.6,617.2,138.6z"/>
<path class="st2" d="M519.9,98.1c0.7-0.1,1.4-0.3,2.2-0.4c-0.1,0.7,0.3,1.6-0.9,1.7C520.8,99,520.4,98.6,519.9,98.1z"/>
<path class="st4" d="M452,69.3c-0.6,1.7-1.5,1.7-2.6,0.4C450.1,68.9,451.1,69.4,452,69.3z"/>
<path class="st2" d="M611.1,300.6c-0.5-0.8-0.8-1.5-0.8-2.4c0.3,0,0.7,0,0.8,0.1C611.5,299,611.9,299.8,611.1,300.6z"/>
<path class="st4" d="M708,317.7c-0.4,0.3-1,1-0.9-0.3c0-0.5-1.2-1.4,0.4-1.5C707.8,316.6,708,317.1,708,317.7z"/>
<path class="st4" d="M67.3,307.9c-0.9-0.1-1.7-0.3-2.6-0.4c0.7-0.8,1.6-0.9,2.6-0.9C67.3,307,67.3,307.4,67.3,307.9z"/>
<path class="st4" d="M680.4,296.2c0.7,0.1,1.8-0.2,1.7,0.9c-0.1,0.9-1.1,0.3-1.7,0.4C680.4,297.1,680.4,296.7,680.4,296.2z"/>
<path class="st3" d="M67.7,297.1c2.5,0.5,0.6,1.7,0.4,2.6C67.4,298.9,67.8,298,67.7,297.1z"/>
<path class="st4" d="M371.1,645.9c0.7,0.4,1.8,0.4,1.3,1.7C371.2,647.6,370.3,647.4,371.1,645.9z"/>
<path class="st4" d="M131.4,543.5c1.9-1.4,1.7,0.1,1.7,1.3C132.6,544.3,131.5,544.6,131.4,543.5z"/>
<path class="st4" d="M72.9,276.4c0,0.6,0,1.1,0,1.7c-0.3,0-0.6,0-0.9,0c0-0.6-0.3-0.8-0.9-0.9C71.3,276.1,72.2,276.5,72.9,276.4z"/>
<path class="st2" d="M649.5,197.2c-0.2,1.1-0.3,2.3-0.5,3.4C648.3,199.3,648.7,198.2,649.5,197.2z"/>
<path class="st3" d="M65.6,319.5c-0.1,0.7,0.3,1.6-0.9,1.7c-0.6-0.6-0.6-1.1,0-1.7C65,319.2,65.3,319.2,65.6,319.5z"/>
<path class="st4" d="M136.6,170.4c0.4,0,1.1-0.2,1-0.1c-0.6,0.7-0.2,2.4-1.9,2.2C136.1,171.9,136.7,171.3,136.6,170.4z"/>
<path class="st2" d="M473.3,633.1c-0.8-0.8-0.8-1.6-0.1-2.4C474.2,631.5,473.6,632.3,473.3,633.1z"/>
<path class="st4" d="M109.4,515.5c0.2-0.3,0.3-0.6,0.6-1.1c0.4,0.9,0.8,1.6,1.1,2.4C110.1,517,109.8,516.3,109.4,515.5z"/>
<path class="st4" d="M368.9,71.9c-0.4,1.3-0.9-0.1-1.3,0c0-0.4,0-0.9,0-1.3c-0.1-0.7,0.2-1,0.9-0.9
	C368.6,70.5,368.2,71.3,368.9,71.9z"/>
<path class="st4" d="M191.6,594.7c1.5-0.8,1.5,0.4,1.7,1.3C192.3,596.2,191.8,595.6,191.6,594.7z"/>
<path class="st4" d="M646.1,160.9c-0.4-0.8-0.3-1.7,0-2.5c0.4,0.1,0.9,0.3,1.3,0.4C646.9,159.5,646.5,160.2,646.1,160.9z"/>
<path class="st4" d="M429.1,61.6c-0.7-0.3-1.4-0.6-2-1c-0.6-0.4-0.3-0.6,0.3-0.7C428.3,60.1,429.6,60,429.1,61.6z"/>
<path class="st4" d="M332.8,84.4c-1.1-0.2-2.4,0.4-3.4-0.4c0.6,0.1,1.2-0.1,1.7-0.4c0.6-0.1,1.1-0.1,1.7,0
	C332.8,83.8,332.8,84.1,332.8,84.4z"/>
<path class="st4" d="M650.7,192.8c0.4-1,1.3-0.9,2.2-0.9C652.3,192.6,652,193.8,650.7,192.8z"/>
<path class="st4" d="M316,83.1c-1,0.9-2.2,0.9-3.4,0.4C313.6,82.6,314.8,83.3,316,83.1z"/>
<path class="st4" d="M255.3,6.2c-0.6,0.7-1.1,1.4-1.7,2.2C253.5,7.1,253.5,5.9,255.3,6.2z"/>
<path class="st4" d="M663.2,331.3c1.3,0,1.5,0.1,0.9,0.7c-0.5,0.6-0.2,1.4-0.9,1.8C663.2,333.1,663.2,332.2,663.2,331.3z"/>
<path class="st2" d="M708,329.8c-0.3,0-0.5,0.9-0.8,0.2c-0.2-0.5-0.9-1.2-0.1-1.7c0.4-0.3,0.6,0.5,1,0.6
	C708,329.2,708,329.5,708,329.8z"/>
<path class="st4" d="M160.6,148.5c0.1,0.4,0.7,1,0.1,1.3c-0.8,0.4-1.3-0.4-1.8-0.8C159.5,148.8,160.1,148.6,160.6,148.5z"/>
<path class="st4" d="M634.8,145.5c-0.1,0.3,0.2,1.3-0.5,0.8c-0.5-0.4-1.6-0.2-1.6-1.2C633.4,145,634.2,145,634.8,145.5z"/>
<path class="st2" d="M580.6,122.2c-1.6,0.9-1-1-1.7-1.3C579.8,120.9,580.7,120.8,580.6,122.2z"/>
<path class="st4" d="M535,103.7c0.1,1.2-1,1.2-1.7,1.6c-0.2-0.1-0.3-0.2-0.5-0.2c-0.2-0.3-0.2-0.6,0-0.9c0,0,0,0,0,0
	C533.6,104.2,534.3,104.1,535,103.7z"/>
<path class="st4" d="M55.2,429.6c0.2-0.5,0.3-1,0.5-1.7c0.4,1,0.8,2,1.2,2.9C56.4,430.5,55.8,430.1,55.2,429.6z"/>
<path class="st2" d="M610.1,420.3c0.3-0.6,0.5-1.2,0.9-1.6c0.2-0.2,0.6,0.3,0.6,0.7C611.6,420.5,610.9,420.4,610.1,420.3z"/>
<path class="st4" d="M674.4,306.8c0.6,1,1.1,2-0.9,1.7C673.5,307.8,673.6,307.1,674.4,306.8z"/>
<path class="st2" d="M661.5,344.7c-0.1,0.5,0.3,1.5-0.6,1.5c-0.8,0-0.7-0.9-0.7-1.5C660.6,344.9,661.1,344.9,661.5,344.7z"/>
<path class="st4" d="M644.3,155.4c0,1-0.6,1.2-1.5,0.9c-0.1-0.1-0.2-0.3-0.3-0.4c0-0.3,0-0.6,0-0.9
	C643.1,155.2,643.7,155.4,644.3,155.4z"/>
<path class="st4" d="M294.5,13.1c-0.3,0.7-0.5,1.4-0.8,2.1c-0.8-0.7,0.1-1.5-0.5-2.1C293.6,13.1,294,13.1,294.5,13.1z"/>
<path class="st4" d="M363.7,642.9c0.6-0.4,1.3-0.2,1.7,0.1c0.5,0.4-0.4,0.7-0.4,1.2C364.5,643.9,364,643.4,363.7,642.9z"/>
<path class="st2" d="M700.7,382.2c-0.7-0.7-0.4-1.4-0.4-2.3C701.1,380.7,701.3,381.3,700.7,382.2z"/>
<path class="st4" d="M167.5,577.9c0.8,0.7,1.8-0.3,2.6,0.4C169.2,578.8,168.2,579.4,167.5,577.9z"/>
<path class="st2" d="M171,580.9c0.5,0.5,1.7,0.2,1.7,1.3C171.8,582.2,170.8,582.3,171,580.9z"/>
<path class="st2" d="M657.2,375.7c-0.3,0.1-0.6,0.3-0.9,0.4c0-0.7,0-1.4,0-2.2C657.5,374.1,657.1,375,657.2,375.7z"/>
<path class="st4" d="M596.5,130.9c0-0.6,0.3-0.9,0.9-1c0.5,0.3,0.4,0.9,0.4,1.4C597.3,131.3,596.8,131.5,596.5,130.9z"/>
<path class="st4" d="M384.8,59.4c-1,1.5-1.5,0.2-2.2-0.4C383.4,58.9,384.2,59,384.8,59.4z"/>
<path class="st4" d="M250.1,11.8c0.7,0.1,1.3,0.3,1.4,1c0,0.3-0.5,0.7-1,0.3C250.4,12.7,250.3,12.2,250.1,11.8z"/>
<path class="st4" d="M708,313.4c-0.4-0.6-1.6-0.9-0.9-2c0.4-0.7,0.4,0,0.5,0.2C707.8,312.3,708,312.8,708,313.4z"/>
<path class="st2" d="M541.9,107.6c-0.8,0-0.6,0.5-0.5,0.9c-0.8-0.1-1.6-0.4-2.2-0.9c0.3-0.3,0.6-0.3,0.9,0
	C540.7,107.4,541.3,106.8,541.9,107.6z"/>
<path class="st4" d="M540.2,107.6c-0.3,0-0.6,0-0.9,0c-0.5,0.1-0.9-0.1-1.2-0.5c0.4-0.3,0.9-0.6,1.3-0.8
	C539.6,106.7,539.9,107.2,540.2,107.6z"/>
<path class="st3" d="M64.7,322.9c0.8,1,0,1.8-0.4,2.6C64.4,324.6,63.9,323.7,64.7,322.9z"/>
<path class="st4" d="M609.5,135.9c-0.3-0.4-0.6-0.8-0.9-1.2c0.6-0.1,1.2,0.1,1.7,0.4C610.8,136.2,610,136,609.5,135.9z"/>
<path class="st4" d="M461.4,72.7c-0.2,0.5,0.7,1.2,0,1.4c-0.7,0.2-0.9-0.7-0.9-1.4C460.8,72.7,461.1,72.7,461.4,72.7z"/>
<path class="st4" d="M468.7,76.6c-0.9,0.8-1.6,0.5-2.2-0.4C467.3,76.1,468.1,76.2,468.7,76.6z"/>
<path class="st3" d="M64.7,316c0.6,0.5,0.4,1.1,0.4,1.7c-1.2-0.1-0.8-1-0.9-1.7C64.4,315.8,64.6,315.8,64.7,316z"/>
<path class="st4" d="M432.2,664.8c0.9-0.8,2-0.3,3-0.4C434.2,665,433.2,665.1,432.2,664.8z"/>
<path class="st4" d="M53.9,421.9c0.4,0.1,1-0.1,1,0.3c0,0.6-0.6,1-1,1.4C53.9,423,53.9,422.5,53.9,421.9z"/>
<path class="st2" d="M693.9,446.6c-0.4,0-0.5-0.3-0.4-0.5c0-0.2,0.1-0.6,0.3-0.7c0.4-0.1,0.4,0.3,0.5,0.5
	C694.2,446.2,694.2,446.5,693.9,446.6z"/>
<path class="st2" d="M116.3,525c0.4,0.5,0.7,1,1.1,1.5c-0.9,0.6-1-0.4-1.5-0.6C115.9,525.5,116,525.2,116.3,525z"/>
<path class="st2" d="M649.5,164.4c-0.5,0-1.1-0.2-1.1-0.7c0-0.7,0.7-0.5,1.1-0.6C649.5,163.5,649.5,164,649.5,164.4z"/>
<path class="st2" d="M539.1,554.2c0,0.4-0.3,0.4-0.5,0.5c-0.3,0-0.6,0-0.7-0.3c-0.1-0.4,0.3-0.4,0.5-0.5
	C538.7,553.8,538.9,553.9,539.1,554.2z"/>
<path class="st4" d="M253.2,44.1c0.6,0,1.1,0.3,1.2,1c0.1,0.6-0.3,0.7-0.8,0.8C253.7,45.2,253.5,44.6,253.2,44.1z"/>
<path class="st4" d="M91.8,475.2c1.4,0.3,0.4,1.1,0.4,1.7C91.6,476.5,91.9,475.8,91.8,475.2z"/>
<path class="st2" d="M599.5,131.3c0.1,0.3,0.3,0.6,0.4,1c-0.8-0.1-1.5-0.4-2.2-0.9C598.3,131.3,598.9,131.3,599.5,131.3z"/>
<path class="st3" d="M310.4,83.5c-0.2,0.3-0.5,0.4-0.9,0.4c-0.3-0.1-0.9-0.2-0.6-0.6C309.3,82.7,309.9,83.3,310.4,83.5z"/>
<path class="st4" d="M481.2,83.1c-1.9-0.4-0.9-1.3-0.4-2.2C480.7,81.7,480.8,82.4,481.2,83.1z"/>
<path class="st4" d="M185.2,129.5c0.6,0.6,0.6,1.1,0,1.7C185,130.7,184.4,130.1,185.2,129.5z"/>
<path class="st4" d="M95.2,217.9c0.7,0.9,1,1.7,0,2.6C95.2,219.6,95.2,218.8,95.2,217.9z"/>
<path class="st4" d="M702.8,302.7c-0.6,0.7-1.1,1.8-1.7,0C701.7,302.7,702.2,302.7,702.8,302.7z"/>
<path class="st4" d="M612.5,134.7c0.2,0.2,0.5,0.6,0.4,0.6c-0.3,0.4-0.8,0.2-1.1,0.2c-0.6-0.1-0.3-0.5-0.2-0.8
	C611.9,134.7,612.2,134.7,612.5,134.7z"/>
<path class="st4" d="M575.9,120.9c-0.6,1.4-1.1,0.9-1.7,0C574.7,120.9,575.3,120.9,575.9,120.9z"/>
<path class="st2" d="M631.8,144.2c-0.3-0.7-1.6-1.6,0.4-1.7C632.1,143,632,143.6,631.8,144.2z"/>
<path class="st4" d="M211.9,114c-0.7,1.6-1.4,0.3-2.2,0C210.4,114,211.1,114,211.9,114z"/>
<path class="st4" d="M252.3,43.7c-0.1-0.4-0.4-0.9,0.4-0.8c0.8,0.1,0.8,0.6,0.5,1.2C252.9,43.9,252.6,43.8,252.3,43.7z"/>
<path class="st4" d="M216.6,111.5c0,0.8,0.1,1.7-0.9,2.2C215.7,112.8,215.9,112,216.6,111.5z"/>
<path class="st4" d="M449.4,69.7c0.1,1.7-1-0.1-1.3,0.4C448.2,69,448.8,69.5,449.4,69.7z"/>
<path class="st3" d="M64.3,331.9c-0.2,1,0.4,2.1-0.4,3C64,334,63.4,332.9,64.3,331.9z"/>
<path class="st4" d="M64.7,316c-0.1,0-0.3,0-0.4,0c0-0.6,0-1.1,0-1.7c0.4,0,0.7,0.1,0.9,0.4C65,315.2,64.8,315.6,64.7,316z"/>
<path class="st4" d="M54.4,419.3c0.6,0.8,0.8,1.4-0.4,1.7C53.9,420.4,54.1,419.8,54.4,419.3z"/>
<path class="st4" d="M370.6,69.3c-0.4,0.6-0.5,1.4-1.3,1.7C369.3,70.1,369.5,69.4,370.6,69.3z"/>
<path class="st4" d="M305.2,633.8c1,0.2,2.1-0.4,3,0.4C307.2,634.1,306.1,634.7,305.2,633.8z"/>
<path class="st4" d="M374.5,63.7c0.4,1.7,0.4,1.7-0.4,1.7C374.1,64.8,373.9,64.2,374.5,63.7z"/>
<path class="st4" d="M376.2,62.4c-0.3,0.4-0.3,1-0.9,1.1c-0.3,0-0.4-0.4-0.4-0.6C375.2,62.3,375.7,62.4,376.2,62.4z"/>
<path class="st4" d="M53.9,413.7c0.8-0.4,1,0.1,1.2,0.7c0.1,0.2,0.2,0.6-0.1,0.7c-0.2,0-0.4-0.3-0.6-0.5
	C54.2,414.3,54.1,414,53.9,413.7z"/>
<path class="st2" d="M353.4,639.4c0.7,0.1,1.3,0.3,1.7,0.9C354.1,641,353.8,640.2,353.4,639.4z"/>
<path class="st4" d="M250.6,96.8c-0.7,0.7-1.4,1.3-2.2,0C249.1,96.8,249.9,96.8,250.6,96.8z"/>
<path class="st4" d="M120.2,189.8c-0.1,0.6,0.2,1.3-0.4,1.7C118.9,190.7,119.5,190.2,120.2,189.8z"/>
<path class="st2" d="M472.6,635.1c0.2,0.8-0.1,1.2-0.4,1.8C471.7,636,472.2,635.6,472.6,635.1z"/>
<path class="st4" d="M287.6,89.1c-0.9,0.8-2,0.3-3,0.4C285.5,88.7,286.6,89.3,287.6,89.1z"/>
<path class="st4" d="M667.5,314.1c-0.6,0.4,0.5,1.7-0.9,1.7C666.7,315.2,666.4,314.3,667.5,314.1z"/>
<path class="st2" d="M260,626.9c0.7-0.3,1.4-1.6,2.2,0C261.5,626.9,260.8,626.9,260,626.9z"/>
<path class="st4" d="M155.5,151.9c-0.6,0.6-1.1,1.1-1.7,1.7C153.7,152.4,154.2,151.8,155.5,151.9z"/>
<path class="st2" d="M405.1,659.7c0.6,0.3,1,0.7,1.3,1.3C405.4,661,405,660.6,405.1,659.7z"/>
<path class="st4" d="M414.1,661.4c0.3,0,0.7,0,1-0.1c0.1-0.1,0.2,0,0.3,0.1c0.1,0.4,0.7,0.8,0,1.2
	C414.9,662.2,414.5,661.8,414.1,661.4z"/>
<path class="st4" d="M188.2,128.2c-0.7,0.9-1.4-0.1-2.2,0C186.8,127.3,187.5,128.4,188.2,128.2z"/>
<path class="st3" d="M64.7,329.4c-0.1,0.6,0.2,1.3-0.4,1.7C63.8,330.4,63.8,329.7,64.7,329.4z"/>
<path class="st4" d="M231.2,103.7c-0.3,0.6-0.7,1-1.3,1.3C229.8,104.1,230.3,103.6,231.2,103.7z"/>
<path class="st2" d="M532,102.4c-0.9,0-1.3-0.6-1.7-1.3c1-0.6,1.3,0.3,1.7,0.9C532,102.1,532,102.3,532,102.4z"/>
<path class="st4" d="M532,102c-0.6-0.2-1-0.9-1.7-0.9c0.1-0.1,0.3-0.3,0.4-0.4c0.6-0.4,1-0.1,1.3,0.4C532,101.4,532,101.7,532,102z"
	/>
<path class="st4" d="M113.7,198.4c0,0.9-0.6,1.3-1.3,1.7C112.5,199.2,113.1,198.8,113.7,198.4z"/>
<path class="st4" d="M346.1,84.4c-0.9,0-0.9-0.7-0.9-1.3C346.1,83.1,346.1,83.7,346.1,84.4z"/>
<path class="st3" d="M332.8,83.5c-0.6,0.4-1.1,0.4-1.7,0C331.6,82.9,332.2,82.9,332.8,83.5z"/>
<path class="st4" d="M365.5,76.2c-0.4,0.7-0.8,1.3-1.7,1.3C364.1,76.8,364.6,76.2,365.5,76.2z"/>
<path class="st4" d="M454.5,72.7c-0.4,0-0.8,0-1.3,0c-0.2-0.4-0.7-0.8,0-1.3C453.7,71.9,454.1,72.3,454.5,72.7z"/>
<path class="st4" d="M279.4,58.1c0.6,0.1,1.1,0.3,1.7,0.4C280.4,59.1,279.7,59.3,279.4,58.1z"/>
<path class="st4" d="M422.7,59c-0.6-0.2-1-0.9-1.7-0.9C422.1,57.2,422.5,58,422.7,59z"/>
<path class="st4" d="M253.6,10.1c-0.4,0.4-0.8,0.9-1.4,0.6c-0.3-0.1-0.1-0.5,0.1-0.6C252.7,10.1,253.2,10.1,253.6,10.1z"/>
<path class="st4" d="M335.8,84.4c-0.3,0-0.6,0-0.9,0c0.1-0.4-0.2-1.1,0.5-1C335.9,83.4,335.7,84,335.8,84.4z"/>
<path class="st4" d="M646,158.4c-0.4,0-1.1,0.8-0.8-0.4c0.1-0.3,0.3-0.6,0.4-0.9C646.1,157.4,646,157.9,646,158.4z"/>
<path class="st4" d="M563.4,114.9c-0.7-0.1-1.6,0.3-1.7-0.9C562.4,114.1,563,114.3,563.4,114.9z"/>
<path class="st4" d="M640.8,151.9c0.2,0.2,0.3,0.4,0.5,0.6c-0.2,0.1-0.3,0.2-0.5,0.2c-0.6-0.2-0.9-0.6-0.9-1.2
	C640.3,151.6,640.6,151.8,640.8,151.9z"/>
<path class="st4" d="M73.7,275.1c-0.2,0.3-0.5,0.4-0.9,0.4c-0.6-1.2,0.4-0.7,0.9-0.9C73.7,274.9,73.7,275,73.7,275.1z"/>
<path class="st2" d="M618,277.9c-0.2-0.2-0.3-0.4-0.3-0.5c0-0.3,0.1-0.6,0.4-0.5c0.1,0,0.2,0.3,0.2,0.5
	C618.4,277.5,618.2,277.7,618,277.9z"/>
<path class="st2" d="M607.4,429.9c0.2,0.1,0.4,0.2,0.5,0.3c0.1,0.4-0.2,0.5-0.5,0.4c-0.1,0-0.4-0.2-0.4-0.3
	C607.1,430.2,607.3,430,607.4,429.9z"/>
<path class="st4" d="M53.9,426.2c0.5,0.1,1.2-0.1,1.2,0.5c0,0.9-0.9-0.3-1.2,0.3C53.9,426.8,53.9,426.5,53.9,426.2z"/>
<path class="st3" d="M90.1,231.7c0.3-0.4,0.6-0.9,0.9-1.3c0.1,0,0.3,0,0.4,0C91.5,231.4,91,231.8,90.1,231.7z"/>
<path class="st4" d="M88.4,233.4c0.3,0,0.6,0,0.9,0c0.5,0.6-0.2,0.9-0.4,1.3c-0.1,0.2-0.3,0.2-0.4,0
	C88.4,234.3,88.4,233.8,88.4,233.4z"/>
<path class="st2" d="M649,160.5c-0.3-0.4-0.6-0.9-0.9-1.3C649.8,158.8,649,159.9,649,160.5z"/>
<path class="st2" d="M704.5,361.7c-0.1,0.2-0.2,0.5-0.3,0.5c-0.3,0.1-0.5-0.1-0.5-0.4c0-0.2,0.2-0.4,0.3-0.4
	C704.2,361.4,704.3,361.6,704.5,361.7z"/>
<path class="st2" d="M624.4,253.9c0.1-0.8,0.4-1.5,0.9-2.2C625.4,252.6,625.2,253.3,624.4,253.9z"/>
<path class="st2" d="M645.6,209.2c0.2,0.2,0.4,0.4,0.4,0.5c0,0.1-0.1,0.3-0.2,0.4c-0.1-0.1-0.3-0.2-0.4-0.4
	C645.3,209.6,645.4,209.4,645.6,209.2z"/>
<path class="st4" d="M131,176c-0.3,0.6-0.7,1-1.3,1.3C129.7,176.5,130.1,176,131,176z"/>
<path class="st4" d="M596.1,128.7c-0.9,0.4-0.9-0.5-1.3-0.9C595.4,127.8,595.9,128.1,596.1,128.7z"/>
<path class="st4" d="M500.1,90.4c-0.6,0.6-1.1,0.6-1.7,0C499,89.9,499.6,90.6,500.1,90.4z"/>
<path class="st4" d="M71.6,283.3c0,0.7,0,1.4,0,2.2C70.9,284.8,70.9,284,71.6,283.3z"/>
<path class="st2" d="M479.8,620.3c-0.3-0.4-0.5-0.5-0.5-0.6c0.1-0.3,0.3-0.6,0.7-0.6c0,0,0.1,0.3,0.1,0.4
	C480.1,619.7,480,620,479.8,620.3z"/>
<path class="st4" d="M652.9,186.3c-0.3,0-0.6,0.3-0.7,0c-0.2-0.4,0-0.7,0.3-0.9C652.8,185.7,652.9,186,652.9,186.3z"/>
<path class="st4" d="M278.1,58.5c0-0.6,0.3-0.9,0.9-1c0.4-0.1,0.4,0.3,0.4,0.6C279,58.3,278.5,58.4,278.1,58.5z"/>
<path class="st4" d="M255.7,97.3c-0.7-0.1-1.5,0.3-2.2-0.4C254.3,96.9,255.1,96.5,255.7,97.3z"/>
<path class="st2" d="M532,101.1c-0.4-0.1-0.9-0.3-1.3-0.4c0.3-0.4,0.6-0.5,1-0.3C532,100.5,532.4,100.7,532,101.1z"/>
<path class="st4" d="M65.6,319.5c-0.3,0-0.6,0-0.9,0c0.3-0.5,0.5-1.1,0.4-1.7C65.8,318.2,65.5,318.9,65.6,319.5z"/>
<path class="st4" d="M246.7,20.8c0.9,0.2,1.1,0.6,0.4,1.3C247,21.7,246.8,21.3,246.7,20.8z"/>
<path class="st2" d="M649.9,431c0.1,0.2,0.2,0.4,0.2,0.5c0,0.2-0.2,0.4-0.4,0.2c-0.1-0.1-0.2-0.4-0.2-0.6
	C649.5,431.2,649.7,431.1,649.9,431z"/>
<path class="st4" d="M220.9,609.7c0.7-0.4,1.3-0.2,1.7,0.4C222,610.1,221.3,610.4,220.9,609.7z"/>
<path class="st2" d="M487.3,601.9c-0.1,0.2-0.2,0.5-0.4,0.6c-0.3,0.2-0.4-0.1-0.3-0.3c0.1-0.3,0.3-0.5,0.5-0.7
	C487.1,601.6,487.1,601.7,487.3,601.9z"/>
<path class="st2" d="M631.4,236.7c0.1-0.7,0.3-1.3,0.8-1.9C632.3,235.6,632.2,236.3,631.4,236.7z"/>
<path class="st4" d="M269.5,2.3c-0.6,0.7-1.4,0.3-2.2,0.4C268,2.1,268.8,2.5,269.5,2.3z"/>
<path class="st4" d="M67.7,293.7c1.1,0.1,0.7,0.7,0.4,1.3C67.6,294.6,67.7,294.1,67.7,293.7z"/>
<path class="st4" d="M236.8,616.6c0.8-0.8,1.3-0.3,1.7,0.4C238,616.9,237.4,616.8,236.8,616.6z"/>
<path class="st3" d="M88.4,234.7c0.1,0,0.3,0,0.4,0c0.6,0.4,0.6,0.9,0,1.3C88.6,235.6,88.5,235.1,88.4,234.7z"/>
<path class="st4" d="M81.5,451.1c0.6,0.7,0.6,1.4,0,2.2C81.5,452.6,81.5,451.9,81.5,451.1z"/>
<path class="st3" d="M368.5,69.7c-0.4,0.2-0.7,0.5-0.9,0.9c-0.5-0.3-0.4-0.7,0-1C367.9,69.3,368.2,69.4,368.5,69.7z"/>
<path class="st4" d="M324.2,83.1c-0.7,0.6-1.4,0.6-2.2,0C322.7,83.1,323.4,83.1,324.2,83.1z"/>
<path class="st4" d="M394.3,56c0,0.4-0.2,0.9-0.7,0.8c-0.6-0.1-0.2-0.5-0.1-0.8C393.7,56,394,56,394.3,56z"/>
<path class="st2" d="M621.3,265.7c-0.4-0.7,0.1-1.1,0.2-1.5c0.3,0.2,0.4,0.5,0.2,0.9C621.6,265.2,621.5,265.4,621.3,265.7z"/>
<path class="st4" d="M153.8,565.4c1.3,0.3,0.1,1.2,0.4,1.7C153.6,566.7,153.8,566,153.8,565.4z"/>
<path class="st4" d="M196.8,121.4c-0.2,0.6-0.7,0.9-1.3,0.9C195.5,121.3,196.2,121.4,196.8,121.4z"/>
<path class="st2" d="M607.7,132.5c-0.5-0.3-0.4-0.8-0.4-1.3C607.7,131.6,608.5,131.8,607.7,132.5z"/>
<path class="st4" d="M132.2,176.4c-0.3,0.4-0.6,0.7-1,1.2c-0.3-0.8,0.2-1,0.6-1.2C132,176.4,132.1,176.4,132.2,176.4z"/>
<path class="st5" d="M440.7,647.9c-0.3,0-0.5,0.1-0.8,0.1c-1.1-1.4-2.4-2.7-3.6-3.9c-66-66-132.1-132.1-198.1-198.1
	c-1.1-1.1-2.3-2-3.2-3.2c0-0.3,0-0.6,0-0.8c-0.4-0.7-0.1-1.4,0.2-2c5.4-11.9,9.9-24.2,15-36.3c0.5-1.1,0.7-2.4,2-2.9
	c1.1-0.3,2.1-0.2,3.2-0.2c40.1,0,80.3,0,120.4,0c4.4,0,4.5,0.1,4.5,4.4c0,13,0,25.9,0,38.9c0,0.8-0.2,1.6,0.3,2.5
	c1.1-0.8,2.1-1.6,3-2.4c7-6.8,14.1-13.4,21.1-20.2c7.4-7.2,15.2-14.2,22.5-21.6c1.2-1.2,2.6-1.6,4.3-1.6c5.8,0,11.6,0,17.4,0
	c8.8,0,17.2-1.8,25-6c2.3-1.3,4.5-2.8,6.6-4.4c2.2-1.2,3.6-3.2,5.4-4.8c0.1-0.1,0.3-0.3,0.4-0.4c0.8-0.6,1.3-1.4,1.7-2.3
	c4-4.8,7.1-10,8.8-16.1c0.7-2.3,1.1-4.6,1.5-6.9c0.1-0.7,0-1.6,0.9-2c0.4-1.5,0.4-3.1,0.4-4.7c0-52.8,0-105.5,0-158.3
	c0-3.1-0.6-6.1-1.2-9.1c-0.4-0.3-0.7-0.7-0.8-1.2c-1.4-5.7-3.9-10.8-7.1-15.7c-0.2-0.5-0.4-1-0.4-1.5c1.1-1.3,1.6,0.1,2.2,0.6
	c3,2.8,5.8,5.7,8.7,8.7c3.9,4,8,7.8,11.8,11.9c6.9,7.2,14.1,14,21.1,21.1c4.2,4.2,8.5,8.4,12.6,12.6c6.1,6.2,12.3,12.2,18.3,18.4
	c6.9,7.1,14.1,14,21.1,21.1c4.7,4.7,9.5,9.3,14.1,14.1c0,0.3,0,0.6-0.1,0.8c-3.2,6.9-5.8,14-8.7,21c-9.9,24.3-19.8,48.7-29.6,73.1
	c-11.7,28.8-23.3,57.6-34.9,86.4c-12.4,30.7-24.9,61.4-37.4,92.2c-11,27.1-21.9,54.2-32.8,81.3c-2.9,7.2-7.1,13.2-14.2,16.9
	C441.8,647.3,441.3,647.6,440.7,647.9z"/>
<path class="st6" d="M96.6,230.2c2.2-3.8,4.5-7.6,6.7-11.3c1-1.7,2.1-3.4,3.1-5c0.8-1.3,1.7-2.6,2.6-3.9c4.4-7,9.3-13.7,14.4-20.2
	c8.6-11.1,18.2-21.3,28.5-30.9c11-10.3,22.8-19.5,35.3-27.8c18-11.9,37-21.6,57.2-29.1c15.3-5.7,31-9.8,47.1-12.7
	c7-1.3,14.1-2.1,21.2-2.8c12.2-1.2,24.4-1.4,36.6-1.1c3.8,0.1,7.6,0,11.3,0.7c1,0.2,2.1,0.2,3.2-0.3c-3.6,9-7.2,18.1-10.8,27.1
	c-0.3,0.7-0.7,1.1-1.5,1.2c-1.7,0.2-2.8,1.4-3.4,2.9c-1.9,4.7-3.8,9.4-5.7,14.2c-0.6,1.5-0.6,3,0.4,4.3c0.7,0.8,0.5,1.5,0.1,2.4
	c-1.1,2.6-2.1,5.2-3.1,7.8c-0.1,0.3-0.9,0.8,0,1.2c4.9-0.4,9.8-0.4,14.7,0c0.2,0,0.4,0,0.6-0.1c0.9-0.7,2-0.7,3.1-0.7
	c30.9,0,61.7,0,92.6,0c1.1,0,2.3-0.2,3.2,0.8c-0.3,0.9-1.1,0.8-1.8,0.9c-0.9,0.1-1.9,0-2.8,0c-35.2,0-70.4,0-105.6,0
	c-43.6,0-87.2,0-130.8,0c-11.9,0-22.1,4.3-30.9,12.1c-8.9,7.9-14,17.8-15.6,29.6c-0.2,1.3-0.2,2.6-0.2,3.9c0,53.7-0.1,107.4,0,161.1
	c0,11.6,4.6,21.6,12.4,30.1c7.5,8.2,16.7,13.1,27.6,15c3,0.5,6,0.8,9,0.8c5.8,0,11.6,0,17.4,0c1,0,2-0.1,3,0.2
	c1.1,0.5,0.9,1.4,0.5,2.2c-3.5,8.6-6.8,17.4-10.5,26c-0.2,0.4-0.4,0.8-0.8,1c-2.9,7.1-5.8,14.2-8.7,21.2
	c-9.9,24.4-19.9,48.8-29.6,73.3c-8.4,21.1,1.2,44.4,22.3,53.2c22.1,9.3,44.5,18.1,66.7,27.1c24,9.7,47.9,19.4,71.9,29.1
	c0.6,0.3,1.4,0.3,1.8,1c-9.1,1.1-18.2,0.4-27.2-0.1c-17.9-1.1-35.6-3.9-52.9-8.5c-13.8-3.7-27.3-8.5-40.4-14.2
	c-12.7-5.5-24.8-12.1-36.5-19.4c-10-6.3-19.5-13.3-28.5-20.8c-8.1-6.8-15.8-13.9-23.1-21.5c-9.3-9.8-17.9-20.2-25.7-31.2
	c-8.8-12.5-16.6-25.5-23.2-39.3c-3.7-7.7-7.1-15.6-10-23.7c-0.2-0.7-0.6-1.3-0.9-2c1.4-1,3-0.7,4.5-1c12-2,20.7-12.4,20.7-24.6
	c0-12.1-8.8-22.3-20.8-24.3c-5.1-0.8-9.8,0-14.5,1.9c-0.8,0.3-1.5,0.9-2.4,0.6c-1.3-8.8-2.4-17.6-3.1-26.5c-0.7-9.4-1-18.9-0.7-28.3
	c0.4-11.5,1.5-23,3.2-34.5c1.7-10.9,4.1-21.7,7.1-32.3c3.7-13.4,8.5-26.5,14.4-39.1C91.6,240.7,94.1,235.5,96.6,230.2z"/>
<path class="st7" d="M453.7,147.1c-1.1-0.7-2.4-0.3-3.6-0.3c-30.6,0-61.2,0-91.8,0c-1.1,0-2.3,0-3.4-0.1c1.9-5.9,4.5-11.5,6.8-17.2
	c5.6-14.1,11.4-28.1,17.1-42.2c5.6-13.8,20.7-20.4,34.6-14.9c9.2,3.6,18.3,7.4,27.5,11.1c21.5,8.7,43,17.5,64.5,26.2
	c25.6,10.4,51.1,20.7,76.7,31c12.3,5,24.7,10,37,14.9c14.1,5.6,20.8,20.4,15.3,34.5c-6.4,16.4-13.2,32.7-19.8,49
	c-4.6,11.4-9.2,22.8-13.8,34.3c-0.3,0.7-0.6,1.3-0.9,1.9c-0.3,0.1-0.6,0.2-0.9-0.1c-3.4-3.4-7-6.6-10.3-10.2c-2.9-3.1-5.7-6.2-8.8-9
	c-4.1-3.7-7.8-7.9-11.8-11.7c-4.2-4-7.9-8.4-12.2-12.3c-4.1-3.8-7.8-8-12-11.9c-3-2.7-5.6-5.9-8.6-8.7c-4.2-3.9-8.1-8.1-12.2-12
	c-6-5.8-11.9-11.9-17.8-17.8c-4.6-4.7-9.3-9.3-13.8-14c-0.3-0.3-0.5-1.1-1.3-0.6c-0.3,0.1-0.6,0-0.8-0.1c-0.1-0.1-0.3-0.3-0.4-0.4
	c-0.4-0.6-0.9-1.2-1.4-1.7c-0.1-0.1-0.2-0.3-0.3-0.5c-1.6-2.1-3.4-3.9-5.6-5.4c-7.5-6.3-16.1-9.9-25.8-11
	C455.1,147.7,454.3,147.8,453.7,147.1z"/>
<path class="st8" d="M354.3,146.8c-4.9,0.2-9.8,0.2-14.7,0c0.4-0.5,1-0.4,1.6-0.4c3.8,0,7.7,0,11.5,0
	C353.3,146.3,353.9,146.2,354.3,146.8z"/>
<path class="st2" d="M525.4,102.1c0.9-0.2,1.7,0.1,2.7-0.3c1.5-0.6,0.9,1.4,1.6,2C528.3,103.4,526.8,102.9,525.4,102.1z"/>
<path class="st2" d="M605.1,133.4c0,0.3,0,0.6,0,0.9c-1.1-0.2-2.1-0.6-3.1-1.3C603.1,133.2,604.1,133.3,605.1,133.4z"/>
<path class="st2" d="M532.8,104.1c0,0.3,0,0.6,0,0.9c-1.1-0.2-2.1-0.6-3.1-1.3C530.8,103.5,531.8,104.2,532.8,104.1z"/>
<path class="st2" d="M599.9,132.2c0.9-0.1,1.7,0,2.2,0.9C601.3,133,600.5,132.7,599.9,132.2z"/>
<path class="st2" d="M541.4,108.5c0.6-0.2,1.3-0.8,1.2,0.5C542.2,109,541.7,108.9,541.4,108.5z"/>
<path class="st6" d="M563.8,519.4c-2.4,2.5-4.3,5.2-6,8.2c-2.5,2.2-4.2,5-6.3,7.5c-6.3,7.5-13,14.7-19.9,21.6
	c-8.4,8.4-17.5,16-26.9,23.2c-4.7,3.6-9.7,6.8-14.5,10.3c-0.6,0.5-1.4,0.7-2.1,1c2.4-7,5.4-13.8,8.2-20.7
	c26.1-64.6,52.3-129.2,78.4-193.8c2.3-5.6,4.5-11.1,6.8-16.7c0.4-1,0.9-1.8,2.2-2c1.7-0.3,2.4-1.8,3-3.3c6.1-15,12.1-30,18.2-45
	c1.1-2.6,2.2-5.3,3.3-7.9c0.7,4,1.6,8,2.2,12c0.9,5.3,1.5,10.7,2.2,16.1c1.6,13,1.9,26.1,1.6,39.2c-0.2,7.1-0.8,14.2-1.5,21.3
	c-1.3,13-3.8,25.7-6.9,38.3c-3.5,14-8.3,27.6-14,40.9c-6.4,14.8-14.1,28.9-23,42.4C567,514.3,565.4,516.9,563.8,519.4z"/>
<path class="st7" d="M235,442.7c1,0.1,1.5,0.8,2.1,1.4c67.2,67.2,134.3,134.3,201.5,201.5c0.6,0.6,1.5,1.2,1.3,2.3
	c-6.9,2.7-13.7,2.2-20.4-0.6c-34.5-14-69-28-103.5-41.9c-34-13.8-68-27.4-101.9-41.3c-9.6-3.9-14.9-11.5-16.1-21.8
	c-0.5-4.5,0.2-8.8,1.9-13c11.5-28.6,23.1-57.2,34.7-85.8C234.7,443.2,234.9,443,235,442.7z"/>
<path class="st1" d="M224.7,429.8c3.3-8.2,6.5-16.3,9.8-24.5c0.6-1.4,1.1-2.8,1.6-4.2c0.6-0.7,1.4-0.7,2.2-0.7c3.8-0.1,7.6,0,11.4,0
	c0.8,0,1.6,0,2.2,0.7c-5.6,13.6-11.2,27.2-16.8,40.8c-3.7-2.9-6.7-6.4-10.1-9.6C224,431.5,225.1,430.6,224.7,429.8z"/>
<path class="st7" d="M68.1,398.6c9.1-4.8,18.1-4.8,26.9,0.8c8.9,5.8,13.2,16.5,10.8,26.7c-2.4,10.3-10.6,17.9-21,19.5
	c-1.4,0.2-2.8,0.3-4.3,0.4c-13.5-1.1-22.9-9.3-24.6-22.4c-1.3-10,2.7-18,10.8-24C67.2,399.3,67.7,399,68.1,398.6z"/>
<path class="st9" d="M109,202c-0.5,1.5-1.4,2.8-2.6,3.9C106.8,204.3,107.7,203,109,202z"/>
<path class="st10" d="M649,461.6c0.7-5.5,1.5-12.1,2.3-18.7c2.1-16.9,4.2-33.8,6.3-50.8c2.7-21.3,5.3-42.7,8-64
	c0.2-1.6,0.4-3.3,0.6-4.9c1.8-11,12-18.1,22.4-16.6c11.4,1.6,18.8,11.5,17.4,22.7c-4,32-7.9,64-11.9,96c-1.7,13.4-3.3,26.9-5.1,40.3
	c-1.3,10.2-10.7,18-20.7,17.4C657.1,482.3,648.9,473.7,649,461.6z"/>
<path class="st4" d="M671.3,484.3c-0.1,0.4-0.3,0.6-0.7,0.5c-0.5-0.1-0.7-0.4-0.9-0.8c0.3-0.1,0.6-0.3,1-0.4
	C671.1,483.7,671.3,483.9,671.3,484.3z"/>
<path class="st4" d="M664.4,484.2c0.9-0.2,1.4,0.1,2.1,0.5C665.5,485.1,664.9,485.1,664.4,484.2z"/>
<path class="st6" d="M271.1,57.3C259.5,58.1,248,47.1,248.3,34c0.2-11,9.8-22.9,24-22.5c10.1,0.3,22.7,9.9,22,24.3
	C293.8,46.5,283.5,58.3,271.1,57.3z"/>
<path class="st10" d="M681.4,529.7c0,11.9-8.8,20.9-20.2,20.9c-12,0-21.1-8.8-21.1-20.3c0-11.8,9-21.2,20.2-21.1
	C672.3,509.3,681.4,518.1,681.4,529.7z"/>
<path class="st2" d="M97.2,485.7c0.1,0.2,0.4,0.4,0.4,0.6c-0.1,0.5-0.5,0.9-1,0.9c-0.3,0-0.4-0.4-0.3-0.7
	C96.3,486,96.6,485.7,97.2,485.7z"/>
<path class="st4" d="M251.8,401.1c-5.2-0.2-10.5-0.2-15.7,0c-6.5,0-13-0.1-19.6-0.1c-8.4,0.1-16.5-1.3-24.1-5.1
	c-8.9-4.4-16-11.1-20.9-19.7c-4.4-7.7-6.2-16-6.2-24.9c0.1-52,0.1-104,0-156c0-14.6,5.6-26.7,16.4-36.3c8.8-7.8,19.2-11.9,31.1-11.9
	c40.2,0,80.3,0,120.5,0c39.5,0,79,0.1,118.4,0.1c0.6,0,1.3-0.1,1.9-0.1c10.8,0.7,20.3,4.4,28.4,11.5c1.9,1.9,3.8,3.7,5.6,5.7l0,0
	c0.4,0.9,1.2,1.4,1.7,2.2l0,0c0.3,0.7,0.8,1.2,1.3,1.8c3.9,5,5.9,10.9,7.7,16.9c0.9,2.6,1.3,5.3,1.3,8c0,53.7,0,107.5,0,161.2
	c0,1.1,0,2.1-0.5,3.1c-0.8,3.8-1.4,7.7-2.8,11.4c-1.9,5.2-4.8,9.8-8.3,14.1c-0.5,0.8-1.3,1.3-1.8,2.2l0,0c-1.9,1.4-3.4,3.2-5.1,4.8
	c-6.4,5.5-13.9,8.7-22.2,10.2c-7,1.3-14.2,1.1-21.2,0.7c-6.1-0.4-10.5,1.5-14.8,5.8c-13.5,13.5-27.6,26.5-41.5,39.7
	c-0.5,0.4-1,0.9-1.5,1.4c-0.6-0.8-0.3-1.6-0.3-2.3c0-14.1-0.1-28.1,0-42.2c0-1.9-0.5-2.4-2.4-2.4c-41.2,0.1-82.4,0-123.7,0
	C253.1,401,252.4,401,251.8,401.1z"/>
<path class="st11" d="M499.2,357.5c0-37.8,0.1-75.7,0.1-113.5c0-9.8,0.1-19.6,0-29.5c-0.1-9.8,0.7-19.6-0.9-29.4
	c0.7-1.4,0.8,0.2,0.8,0.2c0.4,2.7,0.9,5.4,0.9,8c0.1,53.5,0,106.9,0,160.4c0,1.7-0.3,3.4-0.5,5.1
	C499.1,358.5,499.4,357.9,499.2,357.5z"/>
<path class="st12" d="M481.3,390c1.3-2.1,3-3.7,5.1-4.8C485,387.1,483.3,388.7,481.3,390z"/>
<path class="st12" d="M486.4,385.1c0.1-1.1,0.9-1.7,1.8-2.2C487.9,384,487.2,384.6,486.4,385.1z"/>
<path class="st13" d="M490.7,168.2c-0.8-0.3-1.3-0.8-1.3-1.8c0.3,0.2,0.5,0.3,0.8,0.5C490.4,167.4,490.6,167.8,490.7,168.2z"/>
<path class="st13" d="M487.7,164.4c-2.1-1.6-4.1-3.5-5.6-5.7C484.4,160.2,486.3,162.1,487.7,164.4z"/>
<path class="st13" d="M489.4,166.5c-0.9-0.5-1.7-1-1.7-2.2C488.5,164.9,489.2,165.6,489.4,166.5z"/>
<path class="st14" d="M434.7,205c3.9,1.8,5.1,5.2,5.5,9c0.1,1.4,0,2.9,0,4.3c0,37.8,0,75.7,0,113.5c0,8.2-4.3,12.5-12.4,12.5
	c-61.5,0-123,0-184.5,0c-3,0-5.9-0.2-8.4-2.1c-3.2-2.5-4.5-5.9-4.5-9.8c0-30,0.1-59.9,0.1-89.9c0-0.4-0.1-0.7-0.2-1.1
	c0.6-0.8,1.5-0.7,2.3-0.7c1.8,0,3.5-0.6,5.2-0.8c5.5-0.9,10.3-3.3,14.6-6.8c2.1-1.7,4.1-3.6,5.7-5.8c0.4-0.6,0.8-1.2,1.6-1.4
	c0.3-0.1,0.6-0.1,0.9,0c2.7,1.6,4.8,4,7.2,6c5.2,4.8,10.8,9,15.6,14.2c1.4,1.9,3.2,3.3,4.9,4.7c4.9,4.1,9.5,8.5,14.3,12.6
	c0.5,0.4,1,0.8,1.6,1.1c2.6,1.4,4.5,3.8,6.7,5.6c1.5,1.2,1.4,1.9-0.3,3.2c-6.1,4.4-12.2,8.7-18.3,13.1c-8.2,5.9-16.5,11.6-24.6,17.5
	c-2.4,1.4-4.6,3.2-7,4.7c-1.8,0.8-3,2.4-4.7,3.2c1.5-0.8,2.7-1.9,4.1-2.8c2.8-1.5,5.3-3.6,8.1-5.3c6.6-4.6,13.5-8.7,20.2-13.1
	c7.9-5.2,16-10.2,23.9-15.4c2.4-1.6,2.5-1.6,4.7,0.2c4.3,3.5,8.2,7.4,12.5,10.9c4.3,3.5,7.7,3.6,11.9,0c4-3.4,7.9-6.9,11.7-10.4
	c2.4-2.2,2.6-2.2,5.4-0.4c6.8,4.4,13.6,8.7,20.4,13.2c7.6,4.9,15.2,9.7,22.7,14.7c2,1.3,4,2.7,6,4c2.1,1.6,4.4,2.9,6.5,4.4
	c-2-1.5-4.2-2.9-6.3-4.3c-1.9-1.3-3.8-2.6-5.7-3.8c-13.9-9.8-27.7-19.6-41.5-29.5c-2.7-1.9-2.6-2.6,0.3-5.1
	c6-5.2,11.9-10.5,17.8-15.8c5.7-4.9,11.2-9.9,16.9-14.7c1.5-1.2,2.7-2.8,4.3-3.9c3.8-3,7.1-6.4,10.8-9.5c1.1-0.6,2-1.4,2.8-2.3
	c5.7-6,12.4-10.7,18.6-16.2C433,206,433.8,205.4,434.7,205z"/>
<path class="st15" d="M434.7,205c-3.3,2.8-6.4,5.8-9.8,8.5c-4.1,3.2-7.8,6.6-11.5,10.3c-0.7,0.7-1.5,1.4-2.4,1.8
	c-0.4,0.1-0.8,0.2-1.2,0.5c-3.1,3.1-6.7,5.7-9.9,8.7c-7.1,6.1-14.3,12.2-21.4,18.2c-10.5,8.9-21,17.7-31.6,26.5
	c-1.8,1.5-3.6,3-5.5,4.4c-4.2,3.1-7.9,3.1-12,0c-6.6-5.1-12.9-10.7-19.3-16.1c-7.3-6.1-14.6-12.3-21.9-18.4
	c-4-3.6-8.1-6.9-12.2-10.4c-2.7-2.3-5.4-4.5-7.9-6.9c-2.5-1.9-4.4-4.4-7.2-5.8c-0.3,0-0.6,0-0.9,0c-0.3-1,0.4-1.8,0.8-2.5
	c1.6-2.7,2.8-5.6,3.6-8.6c0.6-2.9,1.1-5.9,1-8.9c0-0.9-0.2-1.9,0.7-2.6c1.1,0.1,2.1,0.2,3.2,0.2c53.5,0,107,0,160.5,0
	C431.6,203.8,433.3,204,434.7,205z"/>
<path class="st10" d="M266.2,203.7c-0.1,4,0,8-1.4,11.9c-0.8-1-1.6-2-2.5-2.9c-8.9-8.9-17.9-17.8-26.8-26.9
	c-0.7-0.7-1.3-1.3-2.4-1.1c-4.1-1.9-7.5-0.1-10.7,2.4c-1.1,0.8-1.4,2.2-1.3,3.5c0.1,1.3,0.7,2.1,2.1,2.2c3.3,0.2,3.8,0.7,3.8,4
	c0,8.2,0,16.4,0,24.7c0,1.4,0.1,2.9,0.2,4.3c-0.5,1.6,0.1,2.8,1.3,4c3,2.8,5.8,5.7,8.7,8.7c0.6,0.6,1.4,1.1,1.2,2.1
	c-2.6,0.8-5.3,0.9-8,1c-8-0.2-15.2-2.8-21.7-7.4c-0.5-0.5-1-0.9-1.6-1.3c-1.2-1.3-2.5-2.6-3.7-3.9c-4-4.3-6.4-9.4-7.7-15.1
	c-1.2-5.3-1.2-10.6,0-15.9c2.1-8.7,6.6-15.8,13.8-21c6.5-4.7,13.9-7,21.9-6.9c5,0.1,9.9,1.3,14.5,3.3c0.6,0.3,1.2,0.6,1.6,1.1
	c4.7,2.9,8.9,6.2,12.1,10.8C263.5,190.7,265.6,196.9,266.2,203.7z"/>
<path class="st16" d="M247.5,174.4c-5.1-2.3-10.4-4.1-16.1-4c-14.5,0.1-25.5,6.4-32.2,19.2c-6.7,12.9-5.3,25.6,2.9,37.6
	c0.4,0.6,0.8,1.2,1.2,1.8c-2-0.5-2.6-2.5-3.6-4c-4.7-7.3-6-15.4-5.1-23.8c0.7-6.7,3.5-12.8,7.8-18.1c4.4-5.5,10.1-9.3,16.7-11.4
	c5.7-1.8,11.5-2.6,17.6-1.4c2.9,0.6,5.7,1.5,8.5,2.4C246.3,172.9,247.2,173.3,247.5,174.4z"/>
<path class="st17" d="M207.1,232.8c0.8,0.1,1.3,0.6,1.6,1.3C207.9,234,207.5,233.5,207.1,232.8z"/>
<path class="st18" d="M233.8,184.6c0.4-1.3,0.9-0.2,1.1,0.1c2.8,2.7,5.6,5.5,8.4,8.3c6.8,6.8,13.6,13.7,20.5,20.5
	c0.7,0.7,1.1,1.2,1,2.2c-0.7,4-2.9,7.3-4.8,10.8c-3.9,5-8.5,9.3-14.4,11.9c-2.3,1-4.6,2-7.1,2.2c-3.6-3.7-7.2-7.4-10.8-11
	c-0.9-0.9-1.7-1.8-0.8-3.1c0.7,0,1.2,0.4,1.8,0.7c2.2,1,4,0.1,4.4-2.3c0.2-0.9,0.1-1.9,0.1-2.8c0-11.4,0-22.7,0-34.1
	C233.2,186.7,232.9,185.5,233.8,184.6z"/>
<path class="st19" d="M288.5,249.1c5.5,4.1,10.5,8.8,15.8,13.1c8.7,7.2,17.3,14.5,26,21.6c3,2.5,7.1,2.5,10.3,0
	c4.3-3.4,8.5-6.9,12.8-10.4c5.8-4.8,11.5-9.6,17.2-14.4c2.6-2.2,5.2-4.3,7.7-6.4c0.7-0.1,1,0.2,0.9,0.9c-3.2,2.9-6.3,5.8-9.5,8.6
	c-3.2,2.9-6.5,5.8-9.8,8.7c-1,0.9-1,1.4,0.2,2.2c9.9,7,19.7,14,29.5,21.1c4.3,3.1,8.6,6.2,12.9,9.3c0,0.7-0.3,0.7-0.8,0.4
	c-7.7-4.9-15.4-9.9-23.1-14.8c-7-4.5-14.1-9-21.1-13.6c-1.3-0.9-2-0.6-3.1,0.4c-4.1,3.7-8.4,7.4-12.5,11.1c-4.2,3.7-8.3,3.7-12.4,0
	c-4.3-3.8-8.8-7.6-13.1-11.5c-1-0.9-1.7-0.8-2.8-0.1c-12.7,8.2-25.4,16.3-38.1,24.5c-2.3,1.5-4.6,2.9-6.9,4.4
	c-0.5,0.3-0.9,0.3-0.9-0.4c9.6-6.9,19.3-13.8,28.9-20.7c4.8-3.4,9.6-6.9,14.5-10.3c1-0.7,1.1-1.2,0.1-1.9c-2.3-1.9-4.6-3.9-6.8-5.8
	c-2.8-2-5.2-4.6-7.9-6.9c-2.6-2.2-5.1-4.5-7.7-6.8c-0.6-0.5-1.5-1-1.4-2C287.7,248.9,288,248.8,288.5,249.1z"/>
<path class="st20" d="M379.2,253.5c-0.2-0.4-0.5-0.7-0.9-0.9c3.4-2.9,6.9-5.9,10.3-8.8c3.7-3.1,7.4-6.2,11.1-9.3
	c0.4-0.1,0.5,0,0.4,0.4C393.4,241.2,386.4,247.5,379.2,253.5z"/>
<path class="st21" d="M288.5,249.1c-0.4,0-0.7,0.1-0.9,0.5c-1,0.5-1.4-0.5-1.9-1c-0.8-0.7-1.5-1.5-2.3-2.2c-3.3-3.8-7.5-6.6-11-10.1
	c-1.4-1.4-3-2.7-4.5-4c-0.1-0.4,0-0.5,0.4-0.4c6.4,5.4,12.9,10.7,19.3,16.1C287.9,248.3,288.1,248.8,288.5,249.1z"/>
<path class="st22" d="M283.3,246.5c1.8,0.5,2.4,2.6,4.2,3.2c4.6,4.1,9.2,8.3,13.8,12.4c1.1,0.9,2.2,1.9,3,3
	c-1.4-0.1-2.3-1.3-3.1-2.1c-5.4-5.1-11.2-9.8-16.6-14.8C284.1,247.7,283.5,247.2,283.3,246.5z"/>
<path class="st23" d="M400.3,235c-0.1-0.1-0.3-0.3-0.4-0.4c3.1-3.3,6.9-5.9,10.3-9c0.2-0.2,0.6-0.5,0.9-0.1
	C407.5,228.7,404.1,232.1,400.3,235z"/>
<path class="st24" d="M267.8,303.8c0.2,0.3,0.5,0.4,0.9,0.4c-2.7,1.8-5.3,3.8-8.2,5.2c-0.3-0.5,0.2-0.7,0.4-0.9
	C263.2,306.9,265.5,305.4,267.8,303.8z"/>
<path class="st25" d="M408.1,307.2c2.6,1.4,4.8,3.3,7,5.2c-2.5-1.5-5.3-2.7-7.5-4.7C407.7,307.4,407.8,307.3,408.1,307.2z"/>
<path class="st26" d="M268.2,231.9c-0.1,0.1-0.3,0.3-0.4,0.4c-2.3-2-4.6-4-6.9-6c1.7-0.4,2.3,1.4,3.4,2
	C265.8,229.3,266.9,230.7,268.2,231.9z"/>
<path class="st27" d="M408.1,307.2c-0.2,0.2-0.3,0.3-0.5,0.5c-2-1.3-4-2.6-6-3.9c0.3,0,0.7-0.1,0.8-0.4
	C404.3,304.7,406.2,305.9,408.1,307.2z"/>
<path class="st28" d="M260.9,308.5c-0.1,0.3-0.3,0.6-0.4,0.9c-1.5,1.4-3.2,2.5-5.3,3.1C257.2,311.4,258.6,309.3,260.9,308.5z"/>
<path class="st4" d="M233.8,184.6c0,13.3,0.1,26.7,0.1,40c0,1.8-0.9,3-2.6,3.5c-2,0.6-3.3-0.3-4.4-1.8c-0.1-1.1-0.3-2.3-0.3-3.4
	c0-8.7,0-17.5,0-26.2c0-3.3-0.3-3.5-3.5-3.2c-0.9,0.1-1.6-0.2-2-0.9c-1-1.5-0.3-5.2,1.2-6.3c2.6-1.8,5.3-3.3,8.7-2.9
	C232,183.5,233,183.7,233.8,184.6z"/>
<g>
</g>
<g>
</g>
<g>
</g>
<g>
</g>
<g>
</g>
<g>
</g>
<g>
</g>
<g>
</g>
<g>
</g>
<g>
</g>
<g>
</g>
<g>
</g>
<g>
</g>
<g>
</g>
<g>
</g>
</svg>
