<?xml version="1.0" encoding="utf-8"?>
<!-- Generator: Adobe Illustrator 23.0.5, SVG Export Plug-In . SVG Version: 6.00 Build 0)  -->
<svg version="1.1" xmlns="http://www.w3.org/2000/svg" xmlns:xlink="http://www.w3.org/1999/xlink" x="0px" y="0px"
	 viewBox="0 0 3710 3710" style="enable-background:new 0 0 3710 3710;" xml:space="preserve">
<style type="text/css">
	.st0{fill:#FFFFFF;}
	.st1{fill:url(#SVGID_1_);}
	.st2{fill:#BDD0FB;}
	.st3{opacity:0.43;fill:#FFFFFF;}
	.st4{fill:#91B3FA;}
	.st5{fill:url(#SVGID_2_);}
	.st6{fill:url(#SVGID_3_);}
	.st7{fill:url(#SVGID_4_);}
	.st8{fill:url(#SVGID_5_);}
	.st9{fill:url(#SVGID_6_);}
	.st10{fill:url(#SVGID_7_);}
	.st11{fill:url(#SVGID_8_);}
	.st12{fill:url(#SVGID_9_);}
	.st13{fill:url(#SVGID_10_);}
	.st14{fill:url(#SVGID_11_);}
	.st15{fill:url(#SVGID_12_);}
	.st16{fill:url(#SVGID_13_);}
	.st17{fill:url(#SVGID_14_);}
	.st18{fill:url(#SVGID_15_);}
	.st19{fill:url(#SVGID_16_);}
	.st20{fill:url(#SVGID_17_);}
	.st21{fill:url(#SVGID_18_);}
	.st22{fill:url(#SVGID_19_);}
	.st23{fill:url(#SVGID_20_);}
	.st24{fill:url(#SVGID_21_);}
	.st25{fill:url(#SVGID_22_);}
	.st26{opacity:0.3;}
</style>
<g id="Background">
	<g>
		<g>
			<rect class="st0" width="3710" height="3710"/>
		</g>
	</g>
</g>
<g id="Illustration">
	<g>
		<linearGradient id="SVGID_1_" gradientUnits="userSpaceOnUse" x1="3571.2126" y1="4081.4114" x2="1079.7383" y2="987.1564">
			<stop  offset="0" style="stop-color:#DAE3FE"/>
			<stop  offset="1" style="stop-color:#E9EFFD"/>
		</linearGradient>
		<path class="st1" d="M2885.8,2861.1c-57.2,60.2-111.4,99.1-154.2,129.8c-502.9,360.8-1097.9,255.7-1224.4,230
			c-186.8-37.9-547.7-111.2-808.7-418.2C303.6,2338.4,365.1,1606.9,671.4,1124c56-88.3,351.9-578.6,953.4-657.2
			c364-47.6,788.3,48.4,1095.6,305.8C3365.4,1312.9,3319.5,2404.6,2885.8,2861.1z"/>
		<g>
			<g>
				<path class="st2" d="M3079.5,760c-5.5-15-27.4-12.6-29.6,3.2c-20.6,152.8-87.3,551.6-243.8,780.3
					c-254.9,372.3-380.2,936.4-148.4,1186.9C2657.8,2730.4,3677.8,2391,3079.5,760z"/>
				<path class="st3" d="M3079.9,973.8c0.3,4.9,0.2,8.9,0.2,13.2l-0.2,12.8l-0.6,25.6c-0.5,17-1.3,34.1-2.1,51.1
					c-1.7,34-3.8,68.1-6.2,102.1c-4.9,68-11.7,135.9-19.5,203.6c-7.7,67.8-17.3,135.3-28.3,202.6c-11.1,67.3-23.1,134.5-37.3,201.2
					c-28.2,133.5-63.7,265.6-108.4,394.7c-23,64.3-47.7,128-76.1,190.1c-28.8,61.9-60.2,122.6-96,180.8c-0.8,1.3-2.4,1.7-3.7,0.9
					c-1.2-0.8-1.6-2.4-0.9-3.6l0,0c33.3-59.3,63.4-120.3,90.4-182.6c27.2-62.2,50.7-126,72.6-190.3c21.8-64.3,41.1-129.5,58.8-195.1
					c17.7-65.6,32.7-131.9,47.3-198.3c28.7-132.9,50.3-267.3,68.1-402.1c8.8-67.4,16.2-135.1,22.5-202.8c3.2-33.9,6-67.8,8.5-101.7
					l3.3-50.9l1.4-25.5l0.5-12.7c0.1-4.2,0.3-8.7,0.2-12.3l0-0.6c0-1.5,1.2-2.7,2.6-2.7C3078.7,971.3,3079.8,972.4,3079.9,973.8z"/>
			</g>
			<g>
				<path class="st4" d="M2413.7,476.1c-9.1-12.2-28.6-4.1-26.3,11c22.8,145.7,70.4,529.7-10.7,782.1
					c-132.2,410.9-93.2,962.4,187.7,1128.9C2564.4,2398.1,3407.2,1808.6,2413.7,476.1z"/>
				<path class="st3" d="M2472.4,672c1.6,4.4,2.6,8.1,3.8,12.1l3.4,11.8l6.4,23.6c4.2,15.8,8.1,31.6,12.1,47.4
					c7.8,31.7,15.1,63.4,22.2,95.3c14,63.7,26.3,127.8,37.7,192c11.4,64.2,21.1,128.8,29.3,193.5c8.2,64.7,15.5,129.6,20.7,194.7
					c10.6,130.1,14,261,8.3,391.5c-3.6,65.2-8.9,130.4-17.9,195.1c-9.5,64.6-21.8,128.9-38.7,192c-0.4,1.4-1.8,2.2-3.2,1.9
					c-1.4-0.4-2.2-1.7-1.9-3.1l0,0c14.4-63.5,25.3-127.6,33-192.1c7.9-64.5,12.1-129.4,14.6-194.3c2.5-64.9,2.3-130,0.7-194.9
					c-1.6-65-6-129.9-10.7-194.7c-9.9-129.7-26.8-258.8-47.2-387.3c-10.3-64.2-22-128.3-34.7-192.1c-6.3-31.9-12.9-63.8-20-95.6
					l-10.9-47.6l-5.7-23.7l-3-11.8c-1-3.9-2.1-8-3.1-11.3l-0.2-0.6c-0.4-1.4,0.3-2.8,1.7-3.3C2470.5,670,2472,670.7,2472.4,672z"/>
			</g>
		</g>
		<g>
			<linearGradient id="SVGID_2_" gradientUnits="userSpaceOnUse" x1="3997.0491" y1="2030.1428" x2="-1343.6082" y2="1602.8918">
				<stop  offset="0" style="stop-color:#4F52FF"/>
				<stop  offset="1" style="stop-color:#4042E2"/>
			</linearGradient>
			<circle class="st5" cx="1569.3" cy="1835.9" r="1114.9"/>
			
				<ellipse transform="matrix(0.7071 -0.7071 0.7071 0.7071 -816.6905 1700.1686)" class="st0" cx="1643.9" cy="1835.9" rx="1114.9" ry="1114.9"/>
			<g>
				<linearGradient id="SVGID_3_" gradientUnits="userSpaceOnUse" x1="3873.1409" y1="724.5464" x2="-4739.5" y2="5018.3882">
					<stop  offset="0" style="stop-color:#4F52FF"/>
					<stop  offset="1" style="stop-color:#4042E2"/>
				</linearGradient>
				<circle class="st6" cx="1643.9" cy="1835.9" r="951.5"/>
				<path class="st0" d="M1643.9,2835.1c-550.9,0-999.2-448.2-999.2-999.2s448.2-999.2,999.2-999.2s999.2,448.2,999.2,999.2
					S2194.9,2835.1,1643.9,2835.1z M1643.9,884.4c-524.7,0-951.5,426.8-951.5,951.5c0,524.7,426.8,951.5,951.5,951.5
					c524.7,0,951.5-426.8,951.5-951.5C2595.5,1311.2,2168.6,884.4,1643.9,884.4z"/>
			</g>
			<g>
				<linearGradient id="SVGID_4_" gradientUnits="userSpaceOnUse" x1="4760.8979" y1="-319.1495" x2="-2640.9807" y2="4798.5127">
					<stop  offset="0" style="stop-color:#4F52FF"/>
					<stop  offset="1" style="stop-color:#4042E2"/>
				</linearGradient>
				<circle class="st7" cx="1643.9" cy="1835.9" r="580.1"/>
				<path class="st0" d="M1643.9,2463.7c-346.1,0-627.8-281.6-627.8-627.8s281.6-627.7,627.8-627.7c346.1,0,627.8,281.6,627.8,627.7
					S1990.1,2463.7,1643.9,2463.7z M1643.9,1303.5c-293.6,0-532.4,238.8-532.4,532.4s238.9,532.4,532.4,532.4
					c293.6,0,532.4-238.9,532.4-532.4S1937.5,1303.5,1643.9,1303.5z"/>
			</g>
			<g>
				<linearGradient id="SVGID_5_" gradientUnits="userSpaceOnUse" x1="3185.5259" y1="-1454.2249" x2="1163.5225" y2="2861.2507">
					<stop  offset="0" style="stop-color:#FF928E"/>
					<stop  offset="1" style="stop-color:#FE7062"/>
				</linearGradient>
				<circle class="st8" cx="1643.9" cy="1835.9" r="224.7"/>
				<path class="st0" d="M1643.9,2108.3c-150.2,0-272.4-122.2-272.4-272.4s122.2-272.4,272.4-272.4c150.2,0,272.4,122.2,272.4,272.4
					S1794.1,2108.3,1643.9,2108.3z M1643.9,1658.8c-97.6,0-177.1,79.4-177.1,177.1s79.4,177.1,177.1,177.1
					c97.6,0,177.1-79.4,177.1-177.1S1741.6,1658.8,1643.9,1658.8z"/>
			</g>
		</g>
		<g>
			<g>
				
					<linearGradient id="SVGID_6_" gradientUnits="userSpaceOnUse" x1="426.3276" y1="9172.1924" x2="327.6005" y2="10231.2725" gradientTransform="matrix(0.2244 -0.9745 0.9745 0.2244 -6015.6138 520.1205)">
					<stop  offset="0" style="stop-color:#4F52FF"/>
					<stop  offset="1" style="stop-color:#4042E2"/>
				</linearGradient>
				<path class="st9" d="M3196.6,2171l47.6,96.1l-201.9-46.5c-66.1-15.2-122-59.3-152.1-120.1l0,0L3196.6,2171z"/>
				
					<linearGradient id="SVGID_7_" gradientUnits="userSpaceOnUse" x1="172.4629" y1="9172.6807" x2="73.7368" y2="10231.75" gradientTransform="matrix(-0.2244 0.9745 0.9745 0.2244 -5860.6768 -154.9203)">
					<stop  offset="0" style="stop-color:#4F52FF"/>
					<stop  offset="1" style="stop-color:#4042E2"/>
				</linearGradient>
				<path class="st10" d="M3203.3,2142.2l84.8-65.6l-201.9-46.5c-66.1-15.2-135.6,0-189.3,41.5l0,0L3203.3,2142.2z"/>
				
					<linearGradient id="SVGID_8_" gradientUnits="userSpaceOnUse" x1="736.0898" y1="7619.0273" x2="452.0268" y2="8773.0293" gradientTransform="matrix(0.2244 -0.9745 0.9745 0.2244 -6015.6138 520.1205)">
					<stop  offset="0" style="stop-color:#09005D"/>
					<stop  offset="1" style="stop-color:#1A0F91"/>
				</linearGradient>
				<polygon class="st11" points="3207.9,2138.2 3199.9,2172.8 1889.6,1871.1 1897.5,1836.5 				"/>
				
					<linearGradient id="SVGID_9_" gradientUnits="userSpaceOnUse" x1="493.8541" y1="7861.5898" x2="407.053" y2="8792.7354" gradientTransform="matrix(0.2244 -0.9745 0.9745 0.2244 -6015.6138 520.1205)">
					<stop  offset="0" style="stop-color:#09005D"/>
					<stop  offset="1" style="stop-color:#1A0F91"/>
				</linearGradient>
				<path class="st12" d="M1958.3,1819.4c19.9,4.6-1.7,98.2-21.5,93.6l-301.5-108.5c-11.1-4-7.3-20.6,4.5-19.4L1958.3,1819.4z"/>
			</g>
			<g>
				<g>
					
						<linearGradient id="SVGID_10_" gradientUnits="userSpaceOnUse" x1="2140.7483" y1="2396.7139" x2="2284.8201" y2="2396.7139" gradientTransform="matrix(-0.9994 3.490000e-02 3.490000e-02 0.9994 4350.1494 734.0373)">
						<stop  offset="0" style="stop-color:#09005D"/>
						<stop  offset="1" style="stop-color:#1A0F91"/>
					</linearGradient>
					<path class="st13" d="M2278.2,3169.5c0,0,16.1,23.2,16.9,55.8c0.2,7.7-6,14-13.7,14.3l-123.9,4.3c-5.8,0.2-8.4-7.2-3.8-10.7
						c22.9-17.3,67.9-49.6,100.8-62.9L2278.2,3169.5z"/>
					
						<linearGradient id="SVGID_11_" gradientUnits="userSpaceOnUse" x1="2126.9277" y1="1776.8901" x2="2163.9634" y2="1776.8901" gradientTransform="matrix(-0.9907 0.1362 0.1362 0.9907 4148.8657 1097.9357)">
						<stop  offset="0" style="stop-color:#FEBBBA"/>
						<stop  offset="1" style="stop-color:#FF928E"/>
					</linearGradient>
					<path class="st14" d="M2281.3,3130l-3.2,47.6c-0.4,5.3-4.9,9.5-10.3,9.1c-3.2-0.3-7.1-1.1-11.4-3c-4.1-1.8-6.6-6-6.4-10.5
						l2.2-57.5L2281.3,3130z"/>
				</g>
				<g>
					
						<linearGradient id="SVGID_12_" gradientUnits="userSpaceOnUse" x1="-598.8804" y1="-2156.1299" x2="-454.8108" y2="-2156.1299" gradientTransform="matrix(-0.1553 0.9879 0.9879 0.1553 5042.2178 3878.9236)">
						<stop  offset="0" style="stop-color:#09005D"/>
						<stop  offset="1" style="stop-color:#1A0F91"/>
					</linearGradient>
					<path class="st15" d="M2968.2,2961.8c0,0,25.8-11.4,58-6c7.6,1.3,12.6,8.6,11.4,16.2l-19.3,122.4c-0.9,5.7-8.6,6.9-11.2,1.7
						c-12.6-25.7-35.9-76-42.6-110.9L2968.2,2961.8z"/>
					
						<linearGradient id="SVGID_13_" gradientUnits="userSpaceOnUse" x1="-1060.4637" y1="-2473.792" x2="-1023.4249" y2="-2473.792" gradientTransform="matrix(-5.420000e-02 0.9985 0.9985 5.420000e-02 5360.7578 4145.1694)">
						<stop  offset="0" style="stop-color:#FEBBBA"/>
						<stop  offset="1" style="stop-color:#FF928E"/>
					</linearGradient>
					<path class="st16" d="M2930,2951.2l46.1,12.1c5.2,1.4,8.4,6.7,7,11.8c-0.9,3.1-2.4,6.8-5.1,10.6c-2.6,3.7-7.2,5.3-11.5,4.3
						l-56-13L2930,2951.2z"/>
				</g>
				
					<linearGradient id="SVGID_14_" gradientUnits="userSpaceOnUse" x1="2299.2639" y1="2448.8579" x2="2360.186" y2="2461.2847" gradientTransform="matrix(0.9932 0.1165 -0.1165 0.9932 243.8806 -741.6713)">
					<stop  offset="0" style="stop-color:#FEBBBA"/>
					<stop  offset="1" style="stop-color:#FF928E"/>
				</linearGradient>
				<path class="st17" d="M2298,1987.9c0,0-4.1-9.6-3.5-15.3c0.7-5.7,0.8-23.4-9.8-30.9c0,0-5.8,0.3-5.9,6.7
					c-6.8-7.3-7.1-13.5-14.1-9.1c-7,4.5-33.3,20.4-20.2,30.9c13.1,10.5,33.8,30.6,33.8,30.6L2298,1987.9z"/>
				<linearGradient id="SVGID_15_" gradientUnits="userSpaceOnUse" x1="2675.5417" y1="2769.8689" x2="2949.7517" y2="3299.2466">
					<stop  offset="0" style="stop-color:#09005D"/>
					<stop  offset="1" style="stop-color:#1A0F91"/>
				</linearGradient>
				<path class="st18" d="M2526,2753.9c0,0,23.4,187.1,90.6,194.2c67.1,7.1,324.2,44.3,324.2,44.3l7.1-38.6c0,0-148.5-90-237.1-88.5
					c-44.3-65.7-33.5-247.2-33.5-247.2L2526,2753.9z"/>
				<linearGradient id="SVGID_16_" gradientUnits="userSpaceOnUse" x1="1936.2156" y1="2972.1636" x2="2387.5881" y2="2413.9785">
					<stop  offset="0" style="stop-color:#FF928E"/>
					<stop  offset="1" style="stop-color:#FE7062"/>
				</linearGradient>
				<path class="st19" d="M2802.2,2100.7c-7.9,208.6-117.3,227-117.3,227v266.8h-154.3c0,0-74.8-182.2-72.9-243.1
					c-111.3-47.1-167.6-316.1-179.4-350.5c5.5-4.2,8.4-4,19.6-13c151.7,241.4,188.7,278.5,188.7,278.5h85.7
					c164.7-14.8,205.2-171.3,205.2-171.3L2802.2,2100.7z"/>
				<linearGradient id="SVGID_17_" gradientUnits="userSpaceOnUse" x1="2291.5596" y1="2843.7346" x2="2617.8892" y2="2910.2986">
					<stop  offset="0" style="stop-color:#09005D"/>
					<stop  offset="1" style="stop-color:#1A0F91"/>
				</linearGradient>
				<path class="st20" d="M2680,2594c0,0,12.3,130.7-245.2,232.6c-62.8,117.1-145.3,335.4-145.3,335.4h-54.3
					c0,0,37.1-329.7,102.8-395.4c65.7-65.7,137.4-139.6,192.5-172C2658,2581.2,2680,2594,2680,2594z"/>
				<g>
					
						<linearGradient id="SVGID_18_" gradientUnits="userSpaceOnUse" x1="1990.0829" y1="2225.0168" x2="1721.344" y2="2718.7981" gradientTransform="matrix(-0.9937 -0.112 -0.112 0.9937 4681.1475 24.4975)">
						<stop  offset="0" style="stop-color:#FEBBBA"/>
						<stop  offset="1" style="stop-color:#FF928E"/>
					</linearGradient>
					<path class="st21" d="M2570.2,2169.1l28.4,100c0,0-48.5,26.1-84.4,19l-9.9-88.2L2570.2,2169.1z"/>
					<g>
						
							<linearGradient id="SVGID_19_" gradientUnits="userSpaceOnUse" x1="1049.8236" y1="5325.1733" x2="931.0512" y2="5482.2993" gradientTransform="matrix(-0.7472 -0.6646 -0.6646 0.7472 6851.9165 -1168.7673)">
							<stop  offset="0" style="stop-color:#FEBBBA"/>
							<stop  offset="1" style="stop-color:#FF928E"/>
						</linearGradient>
						<path class="st22" d="M2511.4,2096.5c-1,1.2-39.7,97.2-39.7,97.2l55.3,20.9l50.1-85.6
							C2577.2,2129,2528.8,2076.9,2511.4,2096.5z"/>
						
							<linearGradient id="SVGID_20_" gradientUnits="userSpaceOnUse" x1="959.1164" y1="5363.0757" x2="1100.9932" y2="5363.0757" gradientTransform="matrix(-0.7472 -0.6646 -0.6646 0.7472 6851.9165 -1168.7673)">
							<stop  offset="0" style="stop-color:#09005D"/>
							<stop  offset="1" style="stop-color:#1A0F91"/>
						</linearGradient>
						<path class="st23" d="M2554.2,2140.3l-22.9,47.1c-0.3,0.6-0.7,1.2-1.1,1.7c-2.7,3.1-12.9,13-22.4,2c-8.6-10-16.6-19-24.7-21.4
							c-3.6-1.1-7.5,0.8-8.9,4.3c-3.5,8.7-11,28.5-15,46.8c-0.8,3.7,1.4,7.4,5,8.5c10.9,3.4,34,9.8,53.9,10.7
							c2.7,0.1,5.2-1.2,6.6-3.5c6.8-11.2,27.4-45.3,34.7-54c6.8-8.1,21-6.2,26.9-5c1.9,0.4,3.9,0,5.6-1.1c5.7-4,17-14.5,4.6-30.1
							c-2.6-3.3-2-8,1.4-10.5c6.6-5,14.2-14.2,5.6-27.8c-8.7-13.8-22.4-13.3-30.9-11.2c-3.5,0.8-6.9-1-8.4-4.2
							c-0.8-1.8-2.5-3.4-5.6-3.4c-4.2-0.1-7.4-4-6.8-8.2c1.1-8.1-0.7-18.6-14.2-24.5c-24-10.5-42.2,11.7-45.8,29.5
							c-3.6,17.8,23.1,27.7,39.4,28.3c12.4,0.5,20.1,13.7,23.1,20C2555.2,2136,2555.2,2138.3,2554.2,2140.3z"/>
						
							<linearGradient id="SVGID_21_" gradientUnits="userSpaceOnUse" x1="875.8669" y1="5449.605" x2="971.1337" y2="5351.8638" gradientTransform="matrix(-0.7472 -0.6646 -0.6646 0.7472 6851.9165 -1168.7673)">
							<stop  offset="0" style="stop-color:#FEBBBA"/>
							<stop  offset="1" style="stop-color:#FF928E"/>
						</linearGradient>
						<path class="st24" d="M2551,2199.4c0,0,7.5-30.7,20.7-30.7c13.1-0.1,24.5,12,9.7,28C2562.9,2216.6,2551,2199.4,2551,2199.4z"
							/>
					</g>
				</g>
				<linearGradient id="SVGID_22_" gradientUnits="userSpaceOnUse" x1="2774.4014" y1="2067.2852" x2="2810.6677" y2="2074.6826">
					<stop  offset="0" style="stop-color:#FEBBBA"/>
					<stop  offset="1" style="stop-color:#FF928E"/>
				</linearGradient>
				<path class="st25" d="M2807.3,2045.7c0,0-33.3-14.8-29,10c4.3,24.8-4.7,42.8,14.3,44.8
					C2811.6,2102.4,2813.8,2062.8,2807.3,2045.7z"/>
			</g>
		</g>
		<g>
			<g>
				<g class="st26">
					<path class="st4" d="M834.4,953.7c-5.4,0.3-10.2-3.5-11-9c-1.9-11.9-3.2-24-4.1-36c-0.4-5.9,4-10.9,9.9-11.3c0.1,0,0.1,0,0.2,0
						c5.8-0.3,10.7,4.1,11.1,9.9c0.8,11.4,2.1,22.9,3.9,34.2c0.9,5.8-3.1,11.2-8.9,12.1C835.1,953.7,834.8,953.7,834.4,953.7z
						 M830.4,861.3c-0.4,0-0.8,0-1.3,0c-5.9-0.4-10.3-5.5-9.9-11.3c0.8-12,2.1-24.1,3.9-36c0.9-5.8,6.3-9.8,12.1-8.9
						c5.8,0.9,9.8,6.3,8.9,12.1c-1.7,11.3-3,22.8-3.7,34.2C840,856.8,835.7,861,830.4,861.3z M846.8,770.2c-1.2,0.1-2.4-0.1-3.6-0.4
						c-5.6-1.7-8.8-7.6-7.1-13.2c3.5-11.5,7.5-23,11.9-34.2c2.2-5.5,8.3-8.1,13.8-6c5.5,2.2,8.1,8.3,6,13.8
						c-4.2,10.6-8,21.6-11.3,32.5C855.1,767.1,851.2,770,846.8,770.2z M883.2,685.1c-2,0.1-4-0.3-5.8-1.4c-5.1-2.9-6.9-9.4-4-14.5
						c5.9-10.5,12.4-20.8,19.2-30.7c3.3-4.8,9.9-6.1,14.8-2.7c4.8,3.3,6.1,9.9,2.7,14.8c-6.5,9.4-12.6,19.2-18.3,29.2
						C890,683,886.7,684.9,883.2,685.1z M937.6,610.2c-2.7,0.1-5.5-0.8-7.7-2.8c-4.3-4-4.6-10.7-0.7-15c8.1-8.9,16.7-17.5,25.5-25.7
						c4.3-4,11-3.7,15,0.6c4,4.3,3.7,11-0.6,15c-8.4,7.8-16.6,16-24.3,24.4C943,608.9,940.3,610.1,937.6,610.2z M1007.3,549.3
						c-3.5,0.2-7.1-1.4-9.3-4.5c-3.3-4.8-2.2-11.4,2.7-14.8c9.9-6.9,20.2-13.4,30.6-19.4c5.1-2.9,11.6-1.2,14.5,3.9
						c2.9,5.1,1.2,11.6-3.9,14.5c-9.9,5.7-19.7,11.9-29.1,18.4C1011.1,548.6,1009.2,549.2,1007.3,549.3z M1394.8,504.2
						c-1.5,0.1-3-0.2-4.4-0.7c-10.6-4.2-21.6-8-32.5-11.2c-5.6-1.7-8.8-7.6-7.1-13.2c1.7-5.6,7.6-8.8,13.2-7.2
						c11.5,3.4,23.1,7.4,34.3,11.8c5.5,2.2,8.1,8.3,6,13.8C1402.6,501.5,1398.9,504,1394.8,504.2z M1088.7,505.3
						c-4.4,0.2-8.7-2.3-10.4-6.6c-2.2-5.4,0.4-11.6,5.9-13.8c11.2-4.5,22.6-8.6,34.1-12.1c5.6-1.7,11.6,1.4,13.3,7
						c1.7,5.6-1.4,11.6-7.1,13.3c-10.9,3.3-21.8,7.2-32.4,11.5C1091,505,1089.8,505.3,1088.7,505.3z M1305.4,480.2
						c-0.7,0-1.4,0-2.1-0.1c-11.3-1.7-22.8-2.9-34.2-3.7c-5.9-0.4-10.3-5.4-9.9-11.3c0.4-5.9,5.4-10.3,11.3-9.9
						c12,0.8,24.1,2.1,36,3.9c5.8,0.9,9.8,6.3,8.9,12.1C1314.6,476.2,1310.4,479.9,1305.4,480.2z M1177.8,480.6
						c-5.4,0.3-10.2-3.5-11-8.9c-0.9-5.8,3-11.2,8.8-12.2c11.9-1.9,24-3.3,36-4.1c0.1,0,0.2,0,0.2,0c5.8-0.3,10.7,4.1,11.1,9.8
						c0.4,5.9-4,10.9-9.8,11.4c-11.4,0.8-22.9,2.1-34.2,3.9C1178.6,480.6,1178.2,480.6,1177.8,480.6z"/>
					<path class="st4" d="M1461.5,537.7c-2.1,0.1-4.2-0.4-6.1-1.6c-4.7-2.9-9.4-5.7-14.2-8.5c-5.1-2.9-6.9-9.4-4-14.5
						c2.9-5.1,9.4-6.9,14.5-4c5,2.9,10.1,5.9,15,8.9c5,3.1,6.5,9.7,3.4,14.6C1468.1,535.8,1464.8,537.6,1461.5,537.7z"/>
				</g>
				<g class="st26">
					<path class="st4" d="M1647.8,802.7c-5.1,0.3-9.8-3.2-10.9-8.4c-1.1-5.4-2.4-10.8-3.8-16.1c-1.5-5.7,2-11.5,7.7-12.9
						c5.7-1.5,11.5,2,12.9,7.7c1.4,5.6,2.8,11.3,4,17c1.2,5.7-2.4,11.4-8.2,12.6C1648.9,802.6,1648.4,802.7,1647.8,802.7z"/>
					<path class="st4" d="M1264.6,1302.4c-4.9,0.2-9.8,0.4-14.7,0.5c-5.9,0.1-10.7-4.6-10.8-10.4c-0.1-5.9,4.6-10.7,10.4-10.8
						c11.4-0.2,22.7-0.9,33.8-2c5.8-0.6,11,3.7,11.6,9.5c0.6,5.8-3.7,11.1-9.5,11.6C1278.6,1301.5,1271.6,1302.1,1264.6,1302.4z
						 M1193.9,1300.1c-0.6,0-1.2,0-1.8-0.1c-11.8-1.4-23.6-3.3-35.2-5.7c-5.7-1.2-9.5-6.8-8.3-12.5c1.2-5.7,6.8-9.5,12.5-8.3
						c11,2.3,22.3,4.1,33.4,5.4c5.8,0.7,10,6,9.3,11.8C1203.3,1295.9,1199,1299.8,1193.9,1300.1z M1340.6,1291.4
						c-5,0.3-9.6-3.1-10.9-8.1c-1.4-5.7,2.1-11.4,7.8-12.8c10.9-2.6,21.9-5.8,32.5-9.3c5.6-1.8,11.6,1.2,13.4,6.7
						c1.9,5.6-1.2,11.6-6.7,13.4c-11.2,3.7-22.8,7.1-34.3,9.8C1341.9,1291.3,1341.2,1291.4,1340.6,1291.4z M1105.1,1279.4
						c-1.3,0.1-2.7-0.1-4.1-0.6c-11.2-3.9-22.3-8.4-33.1-13.3c-5.3-2.4-7.7-8.7-5.3-14.1c2.4-5.4,8.7-7.7,14.1-5.3
						c10.2,4.6,20.8,8.9,31.4,12.6c5.5,2,8.4,8,6.5,13.6C1113.2,1276.5,1109.3,1279.2,1105.1,1279.4z M1426.2,1260.4
						c-4.1,0.2-8.1-2-10.1-5.9c-2.6-5.3-0.4-11.6,4.8-14.2c10.1-5,20-10.4,29.7-16.3c5-3,11.6-1.4,14.6,3.6c3,5,1.4,11.6-3.6,14.6
						c-10.1,6.1-20.7,11.9-31.3,17.1C1429,1260,1427.6,1260.3,1426.2,1260.4z M1502.8,1211.3c-3.3,0.2-6.6-1.2-8.8-3.9
						c-3.7-4.6-3-11.3,1.6-14.9c8.8-7.1,17.3-14.6,25.4-22.4c4.2-4.1,11-3.9,15,0.3c4.1,4.2,3.9,11-0.3,15
						c-8.6,8.2-17.6,16.1-26.8,23.5C1507.2,1210.4,1505,1211.2,1502.8,1211.3z M1567,1146.7c-2.5,0.1-5-0.6-7.2-2.3
						c-4.6-3.7-5.4-10.3-1.7-14.9c7-8.8,13.7-18,20-27.4c3.3-4.9,9.8-6.2,14.7-2.9c4.9,3.3,6.2,9.9,2.9,14.7
						c-6.6,9.8-13.6,19.5-21,28.8C1572.8,1145.2,1570,1146.5,1567,1146.7z M1615.6,1069.6c-1.7,0.1-3.5-0.2-5.2-1.1
						c-5.3-2.6-7.5-8.9-4.9-14.2c4.9-10.1,9.5-20.6,13.5-31.1c2.1-5.5,8.3-8.2,13.7-6.1c5.5,2.1,8.2,8.3,6.1,13.7
						c-4.2,11-9,22.1-14.2,32.7C1622.8,1067.3,1619.3,1069.4,1615.6,1069.6z M1646,983.7c-1,0-2,0-3-0.3c-5.7-1.3-9.3-7-7.9-12.8
						c2.6-10.9,4.7-22.1,6.3-33.3c0.8-5.8,6.3-9.8,12-9c5.8,0.8,9.8,6.2,9,12.1c-1.7,11.7-3.9,23.5-6.6,35
						C1654.7,980.3,1650.6,983.5,1646,983.7z M1656.9,893.3c-0.2,0-0.4,0-0.7,0c-5.9-0.1-10.6-4.9-10.5-10.7
						c0.1-8.3-0.1-16.7-0.5-24.9c-0.2-3-0.3-6-0.6-8.9c-0.4-5.9,4-10.9,9.8-11.4c5.9-0.5,10.9,4,11.4,9.8c0.2,3.1,0.4,6.3,0.6,9.4
						c0.4,8.7,0.6,17.5,0.5,26.2C1666.9,888.5,1662.4,893.1,1656.9,893.3z"/>
					<path class="st4" d="M1022.9,1239.6c-2.1,0.1-4.3-0.4-6.2-1.6c-4.9-3.1-9.8-6.3-14.6-9.6c-4.8-3.3-6.1-9.9-2.7-14.8
						c3.3-4.8,9.9-6.1,14.8-2.7c4.5,3.1,9.2,6.2,13.8,9.1c5,3.1,6.5,9.7,3.3,14.6C1029.5,1237.7,1026.3,1239.4,1022.9,1239.6z"/>
				</g>
				<g>
					<path class="st4" d="M1031,1115.8c1.4,1.6,3.7,2.1,5.6,1.2l55.6-23.7c23.2,16.1,49.1,28.5,77.1,36.6l16.8,58
						c0.6,2,2.4,3.5,4.5,3.6l72.4,3.6c2.1,0.1,4.1-1.1,4.9-3.1l22.5-56c28.6-5.2,55.6-15,80.3-28.7l52.9,29.2c1.9,1,4.2,0.8,5.7-0.7
						l53.8-48.6c1.6-1.4,2.1-3.7,1.2-5.6l-23.7-55.6c16.1-23.2,28.5-49.1,36.6-77.1l58-16.8c2-0.6,3.5-2.4,3.6-4.5l3.6-72.4
						c0.1-2.1-1.1-4.1-3.1-4.9l-56-22.5c-5.2-28.6-15-55.6-28.7-80.3l29.2-52.9c1-1.9,0.8-4.2-0.7-5.7l-48.6-53.8
						c-1.4-1.6-3.7-2.1-5.6-1.2l-55.6,23.7c-23.2-16.1-49.1-28.5-77.1-36.6l-16.8-58c-0.6-2-2.4-3.5-4.5-3.6l-72.4-3.6
						c-2.1-0.1-4.1,1.1-4.9,3.1l-22.5,56c-28.6,5.2-55.6,15-80.3,28.7l-52.9-29.2c-1.9-1-4.2-0.8-5.7,0.7l-53.8,48.6
						c-1.6,1.4-2.1,3.7-1.2,5.6l23.7,55.6c-16.1,23.2-28.5,49.1-36.6,77.1l-58,16.8c-2,0.6-3.5,2.4-3.6,4.5l-3.6,72.4
						c-0.1,2.1,1.1,4.1,3.1,4.9l56,22.5c5.2,28.6,15,55.6,28.7,80.3l-29.2,52.9c-1,1.9-0.8,4.2,0.7,5.7L1031,1115.8z"/>
					<g>
						<path class="st2" d="M1246.4,948.1c-35.5,1.8-68-22.7-75.1-58.5c-7.9-39.4,17.8-77.9,57.2-85.7c19.1-3.8,38.5,0,54.7,10.8
							c16.2,10.8,27.2,27.3,31,46.3c7.9,39.4-17.8,77.9-57.2,85.7C1253.4,947.5,1249.9,948,1246.4,948.1z M1240,819.5
							c-2.7,0.1-5.5,0.5-8.2,1c-30.2,6-49.9,35.5-43.8,65.7c6,30.2,35.5,49.9,65.7,43.8c30.2-6,49.9-35.5,43.8-65.7
							c-2.9-14.6-11.4-27.3-23.8-35.5C1263.6,822.1,1251.9,818.9,1240,819.5z"/>
					</g>
					<path class="st2" d="M1253.2,1053.2c-6.1,0.3-12.2,0.3-18.4,0l0,0c-1.9-0.1-3.9-0.2-5.8-0.4c-9.6-0.8-19.1-2.3-28.3-4.6
						c-0.1,0-0.3-0.1-0.4-0.1c-0.4-0.1-0.7-0.2-1.1-0.3c-0.7-0.2-1.4-0.4-2.1-0.5c-1.8-0.5-3.1-2.1-3.1-3.9c0-0.4,0-0.9,0.1-1.3
						c0.6-2.3,2.9-3.6,5.2-3c11.7,3.1,23.7,5,35.9,5.6c60.4,3,115.1-25.9,147.8-71.9c18.2-25.6,29.5-56.4,31.2-90
						c0.3-5.9,0.3-11.8,0-17.6c-2-39.1-17.3-76-43.9-105.5c-30.6-33.8-72.5-53.7-118-56c-94-4.7-174.3,67.9-179,161.9
						c-0.3,5.8-0.3,11.6,0,17.3c1.3,24.9,8,49.3,19.8,71.4c0.3,0.6,0.5,1.2,0.5,1.8c0.1,1.6-0.7,3.2-2.2,4c-2.1,1.1-4.6,0.3-5.8-1.8
						c-12.4-23.2-19.4-48.8-20.8-75c-0.3-6-0.3-12.1,0-18.2c4.9-98.7,89.3-174.9,187.9-170c47.8,2.4,91.8,23.3,123.9,58.8
						c28,30.9,44,69.7,46.1,110.7c0.3,6.1,0.3,12.3,0,18.4c-2.4,47.8-23.3,91.8-58.8,123.9
						C1333.1,1035.1,1294.3,1051.1,1253.2,1053.2z"/>
				</g>
			</g>
			<g>
				<g class="st26">
					<path class="st4" d="M486.5,1251.8c-2.8,0.1-5.5-1.6-6.5-4.4c-1.8-5.3-3.5-10.6-5.1-16c-1-3.5,1-7.1,4.5-8.1
						c3.5-1,7.1,1,8.1,4.5c1.5,5.1,3.1,10.2,4.8,15.3c1.2,3.4-0.6,7.2-4,8.4C487.8,1251.7,487.2,1251.8,486.5,1251.8z"/>
					<path class="st4" d="M474.3,1202.8c-3.3,0.2-6.3-2.2-6.8-5.6c-1.5-9.5-2.4-19.1-2.9-28.7c-0.1-2-0.2-4-0.2-6.1
						c-0.1-3.6,2.9-6.5,6.4-6.8c3.6-0.1,6.6,2.7,6.8,6.4c0.1,1.9,0.1,3.9,0.2,5.8c0.5,9.1,1.4,18.4,2.8,27.4
						c0.6,3.6-1.9,6.9-5.5,7.5C474.8,1202.8,474.5,1202.8,474.3,1202.8z M472.3,1134.7c-0.3,0-0.6,0-0.9,0c-3.6-0.3-6.3-3.5-5.9-7.1
						c1.1-11.6,2.9-23.2,5.3-34.5c0.8-3.5,4.3-5.8,7.8-5c3.5,0.8,5.8,4.3,5,7.8c-2.4,10.8-4.1,21.9-5.1,32.9
						C478.2,1132.1,475.5,1134.6,472.3,1134.7z M486.8,1068.2c-0.8,0-1.7-0.1-2.5-0.4c-3.4-1.2-5.2-5-4-8.4
						c3.9-10.9,8.5-21.8,13.7-32.2c1.6-3.2,5.6-4.6,8.8-2.9c3.2,1.6,4.6,5.6,2.9,8.8c-5,9.9-9.3,20.2-13,30.7
						C491.8,1066.4,489.4,1068,486.8,1068.2z M517.3,1007.2c-1.4,0.1-2.7-0.3-4-1.1c-3-2-3.8-6.1-1.8-9.1c6.4-9.7,13.5-19,21.1-27.8
						c2.4-2.7,6.5-3,9.3-0.7c2.7,2.4,3.1,6.5,0.7,9.3c-7.2,8.4-14,17.3-20.1,26.5C521.2,1006.1,519.3,1007.1,517.3,1007.2z
						 M561.7,955.5c-1.9,0.1-3.8-0.6-5.2-2.1c-2.4-2.7-2.2-6.8,0.4-9.3c8.6-7.8,17.8-15.2,27.2-21.9c3-2.1,7.1-1.4,9.1,1.6
						c2.1,3,1.4,7.1-1.6,9.1c-9,6.4-17.8,13.4-26,20.9C564.7,954.9,563.2,955.5,561.7,955.5z M617.4,916.2c-2.5,0.1-4.9-1.1-6.1-3.5
						c-1.7-3.2-0.5-7.2,2.7-8.9c10.2-5.5,20.9-10.4,31.7-14.6c3.4-1.3,7.2,0.4,8.5,3.8c1.3,3.4-0.4,7.2-3.8,8.5
						c-10.3,4-20.5,8.6-30.3,13.9C619.2,915.9,618.3,916.2,617.4,916.2z M680.9,891.7c-3.1,0.2-5.9-1.9-6.7-5
						c-0.9-3.5,1.3-7.1,4.8-8c11.2-2.8,22.8-4.9,34.4-6.3c3.6-0.4,6.9,2.1,7.3,5.7c0.4,3.6-2.1,6.9-5.7,7.3c-11,1.3-22.1,3.4-32.8,6
						C681.7,891.7,681.3,891.7,680.9,891.7z M782.6,885.7c-0.4,0-0.8,0-1.2,0c-9.5-1.2-19.2-1.9-28.9-2.1c-1.5,0-2.9-0.1-4.3,0
						c-3.6,0-6.6-2.9-6.6-6.6c0-3.6,3-6.7,6.6-6.6c1.5,0,3.1,0,4.6,0.1c10.1,0.2,20.3,0.9,30.3,2.2c3.6,0.5,6.1,3.7,5.7,7.3
						C788.4,883.2,785.7,885.6,782.6,885.7z"/>
				</g>
				<g class="st26">
					<path class="st4" d="M765.9,1436.7c-3.6,0.2-6.6-2.5-6.9-6.1c-0.2-3.6,2.5-6.7,6.1-7c10.9-0.7,21.8-2.1,32.5-4.1
						c3.5-0.6,7,1.7,7.7,5.2c0.7,3.6-1.7,7-5.2,7.7C788.9,1434.5,777.4,1436,765.9,1436.7C766,1436.7,765.9,1436.7,765.9,1436.7z
						 M732.3,1436.8c-0.2,0-0.5,0-0.7,0c-11.4-0.6-22.9-2-34.1-4c-3.6-0.6-5.9-4-5.3-7.6c0.6-3.6,4.1-5.9,7.6-5.3
						c10.7,1.9,21.7,3.2,32.6,3.8c3.6,0.2,6.4,3.3,6.2,6.9C738.3,1434,735.6,1436.7,732.3,1436.8z M831.8,1424.4
						c-2.9,0.1-5.7-1.7-6.6-4.6c-1.1-3.4,0.8-7.1,4.3-8.2c10.4-3.3,20.7-7.3,30.6-11.8c3.3-1.5,7.2-0.1,8.7,3.2
						c1.5,3.3,0.1,7.2-3.2,8.7c-10.4,4.7-21.2,8.9-32.1,12.4C832.9,1424.2,832.3,1424.3,831.8,1424.4z M666.3,1425
						c-0.7,0-1.5-0.1-2.3-0.3c-10.9-3.4-21.8-7.4-32.2-12.1c-3.3-1.5-4.8-5.4-3.3-8.7c1.5-3.3,5.4-4.8,8.7-3.3
						c9.9,4.5,20.3,8.3,30.7,11.5c3.5,1.1,5.4,4.7,4.3,8.2C671.4,1423.1,669,1424.9,666.3,1425z M892.7,1396.5
						c-2.3,0.1-4.6-1-5.9-3.1c-1.9-3.1-0.9-7.1,2.2-9c9.3-5.7,18.3-12,26.8-18.8c2.8-2.3,7-1.8,9.2,1.1c2.3,2.8,1.8,7-1.1,9.2
						c-8.9,7.1-18.4,13.7-28.1,19.7C894.8,1396.1,893.7,1396.4,892.7,1396.5z M945.1,1354.8c-1.8,0.1-3.6-0.5-4.9-1.9
						c-2.6-2.5-2.6-6.7-0.1-9.3c7.7-7.8,14.9-16.1,21.6-24.7c2.2-2.9,6.3-3.4,9.2-1.2c2.9,2.2,3.4,6.3,1.2,9.2
						c-7,9-14.6,17.7-22.6,25.9C948.3,1354,946.7,1354.7,945.1,1354.8z M986.1,1301.7c-1.2,0.1-2.5-0.2-3.7-0.9
						c-3.1-1.8-4.1-5.9-2.3-9c5.6-9.4,10.6-19.2,15-29.1c1.5-3.3,5.3-4.8,8.6-3.4c3.3,1.5,4.8,5.3,3.4,8.7
						c-4.6,10.4-9.9,20.7-15.7,30.6C990.2,1300.5,988.2,1301.6,986.1,1301.7z"/>
					<path class="st4" d="M604.9,1397.5c-1.3,0.1-2.6-0.2-3.7-0.9c-4.8-2.9-9.5-6-14.1-9.1c-3-2.1-3.7-6.1-1.7-9.1
						c2.1-3,6.1-3.7,9.1-1.7c4.3,3,8.9,5.9,13.4,8.7c3.1,1.9,4.1,5.9,2.2,9C609,1396.3,607,1397.4,604.9,1397.5z"/>
				</g>
				<g>
					<path class="st4" d="M606,1312.5c1,1.1,2.5,1.4,3.8,0.8l37.2-15.9c15.5,10.7,32.9,19.1,51.6,24.5l11.2,38.8
						c0.4,1.4,1.6,2.3,3,2.4l48.4,2.4c1.4,0.1,2.7-0.8,3.2-2.1l15.1-37.5c19.1-3.5,37.2-10.1,53.8-19.2l35.4,19.5
						c1.2,0.7,2.8,0.5,3.8-0.4l36-32.5c1.1-1,1.4-2.5,0.8-3.8l-15.9-37.2c10.7-15.5,19.1-32.9,24.5-51.6l38.8-11.2
						c1.4-0.4,2.3-1.6,2.4-3l2.4-48.4c0.1-1.4-0.8-2.7-2.1-3.2l-37.5-15.1c-3.5-19.1-10.1-37.2-19.2-53.8l19.5-35.4
						c0.7-1.2,0.5-2.8-0.4-3.8l-32.5-36c-1-1.1-2.5-1.4-3.8-0.8l-37.2,15.9c-15.5-10.7-32.9-19.1-51.6-24.5l-11.2-38.8
						c-0.4-1.4-1.6-2.3-3-2.4l-48.4-2.4c-1.4-0.1-2.7,0.8-3.2,2.1l-15.1,37.5c-19.1,3.5-37.2,10.1-53.8,19.2L626.6,977
						c-1.2-0.7-2.8-0.5-3.8,0.4l-36,32.5c-1.1,1-1.4,2.5-0.8,3.8l15.9,37.2c-10.7,15.5-19.1,32.9-24.5,51.6l-38.8,11.2
						c-1.4,0.4-2.3,1.6-2.4,3l-2.4,48.4c-0.1,1.4,0.8,2.7,2.1,3.2l37.5,15.1c3.5,19.1,10.1,37.2,19.2,53.8l-19.5,35.4
						c-0.7,1.2-0.5,2.8,0.4,3.8L606,1312.5z"/>
					<g>
						<path class="st2" d="M750.1,1201.3c-10.6,0.5-21-2.3-30-8.3c-11-7.4-18.5-18.6-21.1-31.6c-5.4-26.8,12.1-53,38.9-58.4
							c26.9-5.3,53,12.1,58.4,38.9c2.6,13,0,26.2-7.4,37.3c-7.4,11-18.6,18.5-31.6,21.1C755,1200.8,752.5,1201.1,750.1,1201.3z
							 M745.9,1115.2c-1.8,0.1-3.5,0.3-5.3,0.7c-19.7,4-32.6,23.2-28.6,43c1.9,9.6,7.4,17.8,15.5,23.2c8.1,5.4,17.8,7.3,27.4,5.4
							l0,0c9.6-1.9,17.8-7.4,23.2-15.5c5.4-8.1,7.3-17.9,5.4-27.4C779.9,1126.6,763.6,1114.3,745.9,1115.2z"/>
					</g>
					<path class="st2" d="M754.8,1274.4c-4.1,0.2-8.3,0.2-12.6,0c-8.4-0.4-16.8-1.7-24.9-3.8c-0.4-0.1-0.7-0.2-1.1-0.3
						c-2.8-0.8-4.7-3.2-4.9-6c0-0.7,0-1.4,0.2-2c0.9-3.5,4.5-5.6,8-4.6c7.6,2,15.4,3.3,23.2,3.6l0,0c0.4,0,0.9,0,1.3,0.1
						c18.6,0.8,36.7-3.2,52.9-11.2c8.8-4.4,17.1-9.9,24.7-16.6c0.1-0.1,0.1-0.1,0.2-0.2c0.2-0.2,0.4-0.3,0.6-0.5
						c21.9-19.8,34.8-46.9,36.2-76.4c0.2-3.8,0.2-7.6,0-11.4c-1.3-25.3-11.2-49.2-28.4-68.3c-19.8-21.9-46.9-34.7-76.4-36.2
						c-29.5-1.5-57.8,8.6-79.7,28.4c-21.9,19.8-34.8,46.9-36.2,76.4c-0.2,3.8-0.2,7.5,0,11.2c0.8,16.2,5.2,31.9,12.8,46.2
						c0.5,0.9,0.7,1.8,0.8,2.8c0.1,2.5-1.1,4.9-3.5,6.1c-3.2,1.7-7.2,0.5-8.9-2.7c-8.5-16-13.4-33.6-14.3-51.7
						c-0.2-4.2-0.2-8.4,0-12.6c1.7-33,16-63.3,40.5-85.5c24.5-22.1,56.1-33.5,89.1-31.8c33,1.6,63.3,16,85.5,40.5
						c19.3,21.3,30.3,48.1,31.8,76.4c0.2,4.2,0.2,8.5,0,12.7C868.7,1220.9,817.3,1271.2,754.8,1274.4z"/>
				</g>
			</g>
		</g>
	</g>
</g>
</svg>
