<?xml version="1.0" encoding="utf-8"?>
<!-- Generator: Adobe Illustrator 23.0.5, SVG Export Plug-In . SVG Version: 6.00 Build 0)  -->
<svg version="1.1" xmlns="http://www.w3.org/2000/svg" xmlns:xlink="http://www.w3.org/1999/xlink" x="0px" y="0px"
	 viewBox="0 0 3710 3710" style="enable-background:new 0 0 3710 3710;" xml:space="preserve">
<style type="text/css">
	.st0{fill:#F4F7FA;}
	.st1{clip-path:url(#SVGID_3_);}
	.st2{fill:#FFFFFF;}
	.st3{clip-path:url(#SVGID_6_);}
	.st4{fill:url(#SVGID_7_);}
	.st5{clip-path:url(#SVGID_9_);}
	.st6{fill:#D8DEE8;}
	.st7{opacity:0.3;clip-path:url(#SVGID_9_);fill:#97A6B7;}
	.st8{fill:url(#SVGID_10_);}
	.st9{fill:url(#SVGID_11_);}
	.st10{fill:url(#SVGID_12_);}
	.st11{fill:url(#SVGID_13_);}
	.st12{fill:url(#SVGID_14_);}
	.st13{fill:url(#SVGID_15_);}
	.st14{opacity:0.3;fill:url(#SVGID_16_);}
	.st15{fill:url(#SVGID_17_);}
	.st16{fill:url(#SVGID_18_);}
	.st17{opacity:0.4;fill:url(#SVGID_19_);}
	.st18{fill:url(#SVGID_20_);}
	.st19{fill:url(#SVGID_21_);}
	.st20{opacity:0.3;fill:url(#SVGID_22_);}
	.st21{fill:url(#SVGID_23_);}
	.st22{fill:url(#SVGID_24_);}
	.st23{fill:url(#SVGID_25_);}
	.st24{fill:url(#SVGID_26_);}
	.st25{fill:url(#SVGID_27_);}
	.st26{fill:url(#SVGID_28_);}
	.st27{fill:url(#SVGID_29_);}
	.st28{opacity:0.3;fill:url(#SVGID_30_);}
	.st29{fill:url(#SVGID_31_);}
	.st30{fill:url(#SVGID_32_);}
	.st31{fill:url(#SVGID_33_);}
	.st32{fill:url(#SVGID_34_);}
	.st33{fill:url(#SVGID_35_);}
	.st34{fill:url(#SVGID_36_);}
	.st35{fill:url(#SVGID_37_);}
	.st36{fill:url(#SVGID_38_);}
	.st37{opacity:0.3;fill:url(#SVGID_39_);}
	.st38{fill:url(#SVGID_40_);}
	.st39{fill:url(#SVGID_41_);}
	.st40{fill:url(#SVGID_42_);}
	.st41{fill:url(#SVGID_43_);}
	.st42{fill:url(#SVGID_44_);}
	.st43{opacity:0.2;}
	.st44{fill:url(#SVGID_45_);}
	.st45{fill:url(#SVGID_46_);}
	.st46{fill:url(#SVGID_47_);}
	.st47{fill:url(#SVGID_48_);}
	.st48{fill:url(#SVGID_49_);}
	.st49{fill:url(#SVGID_50_);}
	.st50{fill:url(#SVGID_51_);}
	.st51{fill:url(#SVGID_52_);}
	.st52{fill:url(#SVGID_53_);}
	.st53{fill:url(#SVGID_54_);}
	.st54{fill:url(#SVGID_55_);}
	.st55{fill:url(#SVGID_56_);}
	.st56{fill:url(#SVGID_57_);}
</style>
<g id="Background">
</g>
<g id="Illustration">
	<g>
		<path class="st0" d="M3535.3,1586.4c-93.9-614.3-478.6-1369-1238.8-1448c0,0-577.2-70.2-1146.1,36.2
			c-337.7,63.1-633.8,251.1-821.1,521.3c-187.4,270.2-249.9,599.6-174,913.7c49.3,204,82.7,415.1,73.5,624.8
			c-15.9,364.8-6.8,705.4,347.3,922.9c316.1,194.3,714,365.6,1093.5,395.6c257.9,20.4,547.2-12.6,795.8-79.8
			C3732.4,3130.9,3629.2,2200.7,3535.3,1586.4z"/>
		<g>
			<g>
				<g>
					<defs>
						<path id="SVGID_1_" d="M1502,3300.9c67.1-106.1,153.3-279.6,127.8-478.2c-44.4-346.4-378.6-379.1-535.2-796.4
							c-126.3-336.5,24.5-492.8-160.6-759.2c-31-44.6-192.1-286.1-395.7-267.8c-114.7,10.3-191.9,98.4-206.4,114.9
							c-219.1,249.9-115.6,830.1,182.2,1201.4c171.1,213.3,259.1,204.5,590.2,509C1298.9,3003.6,1426.3,3181.9,1502,3300.9z"/>
					</defs>
					<linearGradient id="SVGID_2_" gradientUnits="userSpaceOnUse" x1="7136.7393" y1="15752.6475" x2="8887.2539" y2="19554.2734">
						<stop  offset="3.597120e-03" style="stop-color:#E38DDD"/>
						<stop  offset="1" style="stop-color:#9571F6"/>
					</linearGradient>
					<use xlink:href="#SVGID_1_"  style="overflow:visible;fill:url(#SVGID_2_);"/>
					<clipPath id="SVGID_3_">
						<use xlink:href="#SVGID_1_"  style="overflow:visible;"/>
					</clipPath>
					<g class="st1">
						<g>
							<path class="st2" d="M1482.1,3453.2l-5.2-1c58.3-295.2,28.4-522.5-88.7-675.8c-57.2-74.8-114.5-107.1-175.1-141.2
								c-66.2-37.3-134.6-75.8-205.4-173.5c-68.8-95.1-79.2-162.8-92.3-248.5c-11.7-76.3-26.2-171.2-87.8-315.4
								c-54-126.5-103-195.7-146.3-256.8c-47.3-66.8-84.7-119.6-110.9-221.5c-42.7-166-24.7-348,53.4-540.8l4.9,2
								c-77.7,191.8-95.6,372.6-53.2,537.5c25.9,100.9,63.1,153.3,110,219.7c43.4,61.3,92.6,130.8,146.8,257.8
								c61.9,144.9,76.4,240.1,88.1,316.7c13,85,23.3,152.2,91.4,246.2c70.1,96.8,138,135,203.7,172c61.1,34.4,118.9,67,176.8,142.6
								C1510.5,2927.6,1540.7,3156.4,1482.1,3453.2z"/>
						</g>
						<g>
							<path class="st2" d="M704.6,1669.9l-3.3-1.3c-212.8-82.5-335.3-227.9-400.6-335.4c-70.8-116.5-91.5-214.8-91.7-215.8l5.2-1.1
								c0.2,1,20.8,98.6,91.2,214.3c64.6,106.2,185.3,249.6,394.6,331.7c4.1-41.8,48-438.6,246.1-532.4l2.3,4.8
								C743,1232,705.3,1662,704.9,1666.3L704.6,1669.9z"/>
						</g>
						<g>
							<path class="st2" d="M883.1,2053.7c-16.4,0-126.9-1.7-266.8-45.7C476.9,1964.3,279,1868.6,127.4,1661l4.3-3.1
								c150.7,206.4,347.4,301.6,485.9,345.1c138.6,43.5,248.1,45.5,265.1,45.5c30-220.9,196.2-480.5,197.9-483.1l4.5,2.9
								c-1.7,2.6-168.5,262.9-197.4,483.2l-0.3,2.3l-2.3,0C885.1,2053.7,884.3,2053.7,883.1,2053.7z"/>
						</g>
						<g>
							<path class="st2" d="M1002.7,2614.2c-123.3,0-311.3-21.5-528.9-119.1l2.2-4.9c364.8,163.7,645.9,112.4,676.4,106.1
								c-70.9-247.8,115.2-525.1,117.1-527.9l4.4,3c-1.9,2.8-187.9,280.1-115.6,526.1l0.8,2.7l-2.7,0.6
								C1155.1,2601.3,1098.4,2614.2,1002.7,2614.2z"/>
						</g>
					</g>
				</g>
			</g>
			<g>
				<g>
					<defs>
						<path id="SVGID_4_" d="M2196.1,3127c-66-90.8-150.7-239.3-125.8-409.3c43.6-296.5,372.1-324.5,526.1-681.7
							c124.1-288.1-24.1-421.8,157.7-649.8c30.4-38.2,188.8-244.9,389-229.3c112.8,8.8,188.7,84.2,203,98.3
							c215.5,213.9,113.8,710.5-178.9,1028.3c-168.2,182.6-254.7,175.1-580.2,435.7C2395.8,2872.5,2270.5,3025.1,2196.1,3127z"/>
					</defs>
					<linearGradient id="SVGID_5_" gradientUnits="userSpaceOnUse" x1="6289.2563" y1="9825.4473" x2="7287.8379" y2="11994.0859">
						<stop  offset="0" style="stop-color:#FF9085"/>
						<stop  offset="1" style="stop-color:#FB6FBB"/>
					</linearGradient>
					<use xlink:href="#SVGID_4_"  style="overflow:visible;fill:url(#SVGID_5_);"/>
					<clipPath id="SVGID_6_">
						<use xlink:href="#SVGID_4_"  style="overflow:visible;"/>
					</clipPath>
					<g class="st3">
						<g>
							<path class="st2" d="M2215.7,3257.3l5.1-0.9c-57.3-252.6-28-447.2,87.1-578.4c56.2-64,112.5-91.6,172.2-120.9
								c65.1-31.9,132.3-64.9,201.9-148.5c67.7-81.4,77.8-139.3,90.7-212.7c11.5-65.3,25.7-146.5,86.2-270
								c53.1-108.2,101.3-167.5,143.8-219.8c46.5-57.2,83.2-102.4,108.9-189.6c41.9-142.1,24.2-297.8-52.6-462.9l-4.8,1.7
								c76.4,164.1,94,318.9,52.4,460c-25.5,86.4-62,131.3-108.1,188.1c-42.7,52.5-91,112-144.3,220.7
								c-60.8,124-75.1,205.6-86.6,271.1c-12.8,72.8-22.9,130.3-89.8,210.8c-68.9,82.8-135.6,115.6-200.2,147.2
								c-60.1,29.5-116.9,57.3-173.7,122.1C2187.7,2807.5,2158,3003.3,2215.7,3257.3z"/>
						</g>
						<g>
							<path class="st2" d="M2979.7,1730.9l3.3-1.1c209.2-70.6,329.6-195.1,393.8-287.1c69.6-99.7,90-183.8,90.2-184.7l-5.1-0.9
								c-0.2,0.8-20.4,84.4-89.6,183.4c-63.4,90.9-182.2,213.6-387.9,284c-4-35.8-47.3-375.3-242-455.7l-2.2,4.1
								c201.9,83.3,239,451.3,239.4,455L2979.7,1730.9z"/>
						</g>
						<g>
							<path class="st2" d="M2804.4,2059.5c16.1,0,124.7-1.5,262.3-39.1c137-37.5,331.5-119.4,480.5-297.2l-4.2-2.7
								c-148.1,176.7-341.5,258.2-477.7,295.4c-136.3,37.3-243.9,38.9-260.6,39c-29.5-189.1-193-411.2-194.6-413.4l-4.4,2.5
								c1.7,2.2,165.7,225,194.2,413.5l0.3,1.9l2.3,0C2802.4,2059.4,2803.1,2059.5,2804.4,2059.5z"/>
						</g>
						<g>
							<path class="st2" d="M2686.9,2539.2c121.2,0,306.1-18.4,519.9-102l-2.1-4.2c-358.6,140.2-634.9,96.3-665,90.9
								c69.7-212.1-113.3-449.4-115.2-451.8l-4.3,2.6c1.9,2.4,184.8,239.7,113.7,450.3l-0.8,2.3l2.7,0.6
								C2537,2528.1,2592.8,2539.2,2686.9,2539.2z"/>
						</g>
					</g>
				</g>
			</g>
			<g>
				
					<linearGradient id="SVGID_7_" gradientUnits="userSpaceOnUse" x1="2764.2217" y1="1443.1265" x2="1124.5903" y2="2789.9685" gradientTransform="matrix(-0.9999 2.100000e-03 2.100000e-03 0.9999 3076.7134 949.9698)">
					<stop  offset="0" style="stop-color:#FFC444"/>
					<stop  offset="0.9964" style="stop-color:#F36F56"/>
				</linearGradient>
				<path class="st4" d="M1490.8,3248.3c-44.5-62.5-120.1-156.9-234.2-247.2c-203-160.8-325.4-148.6-389.8-279.6
					c-66.7-135.6,32.9-212.8-49.8-367.1c-6.9-13-96.7-175.5-229.5-171.7c-92.9,2.6-156.9,85.2-186.9,124
					C284,2457,229.3,2728.2,367.4,2918.2c130.8,180.2,368.7,196.9,444.4,201.7c132.8,8.4,177.8-29.1,311.5-16.9
					C1285.9,3117.9,1411.7,3191,1490.8,3248.3z"/>
			</g>
		</g>
		<g>
			<defs>
				
					<ellipse id="SVGID_8_" transform="matrix(0.7071 -0.7071 0.7071 0.7071 -964.4698 1841.2661)" cx="1740.4" cy="2084.9" rx="1225.1" ry="1225.1"/>
			</defs>
			<clipPath id="SVGID_9_">
				<use xlink:href="#SVGID_8_"  style="overflow:visible;"/>
			</clipPath>
			<g class="st5">
				<path class="st6" d="M2980.4,2085.9c0,262.5-82.4,506-222.2,706.5c-0.6,0.8-2.5,1.6-2.5,2.4v0
					c-219.3,321.4-595.2,529.6-1016.8,529.6c-34.5,0-67.5-1.6-101.3-6.3c0,0,0,0,0,0c-0.1,0-0.2,2.1-0.3,2.1
					c-16.6-1.4-33.1-2-49.5-4c-5.8-0.7-11.7-0.9-17.5-1.7c-5.2-0.7-10.3-1.1-15.4-1.9c-4.5-0.7-8.9-1.2-13.3-1.9c-1-0.2-2-0.3-3-0.4
					c-10.8-1.8-21.6-3.6-32.4-5.7c-0.1,0-0.1,0-0.2,0C932.8,3195,499.6,2691,499.6,2085.9c0-127.9,18.6-251.4,54.6-367.5
					c5.6-18.2,12.6-36.2,17.3-54v0c14-29.7,23.4-58.9,36.3-87.5c5.2-11.4,10.9-22.8,16.4-34.1c30.2-61.9,65.6-120.9,105.2-176.5
					c3.6-5,7.3-10.1,11-15.1c14.7-20,30-39.5,45.9-58.6c23.8-28.6,48.9-56.1,75.1-82.4c68.3-68.6,144.6-129.2,227.4-180.3
					c25.6-15.8,51.8-30.8,78.6-44.7c64.9-33.9,133.1-62.1,204.1-84.2c116.5-36.2,240.4-55.7,368.8-55.7
					c295.4,0,566.6,103.2,779.6,275.5c156.7,126.7,284.1,290.8,364.3,478.7c17.9,42,30,85.1,48.7,129.3v0c0,0.2-2.1,0.3-2.1,0.5
					C2964.8,1842.2,2980.4,1961.9,2980.4,2085.9z"/>
				<g>
					<path class="st2" d="M1637.6,3322.4L1637.6,3322.4l0.1,0L1637.6,3322.4C1637.6,3322.4,1637.6,3322.4,1637.6,3322.4z"/>
					<path class="st2" d="M2010.7,2504.2c-26.6,37.5-109,85.7-53.1,180.3c55.4,94.4-3.8,112-42,103.2
						c-38.3-8.7-157.3-13.6-137.5,40.5c19.8,54.2,53.9,74.5,10.3,95.4c-43.6,20.8-62,75.2-106.7,150c-44.3,75-149.6,10.1-118.4,85.3
						c31.1,75.2,55.4,67.9,52.5,120.3c-0.7,14.4,8.9,29.2,21.8,43.2c-16.6-1.4-33.3-3.1-49.9-5.1c-5.8-0.7-11.7-1.4-17.5-2.3
						c-5.2-0.7-10.3-1.4-15.4-2.2c-4.5-0.7-8.9-1.3-13.3-2.1c-1-0.2-0.7-0.3-1.7-0.5c-10.6-1.8-16.2-3.7-30.2-5.7v0
						c-9.3-8.9-3.5-18.5-2.1-28.9c13.9-96.7-119.5-163.2-141.9-231c-22-67.6-0.3-107.9-5.4-163.9c-5.2-55.9,13.1-130.1-19.1-177.2
						c-32.2-47-161.9-62.7-186.6-157.4c-24.9-94.6,33-236.2,55.4-260.3c22.2-24.1-107.4-133.8-169.1-137.3
						c-62-3.8-37.2-128.5-141.9-109.5c-105,18.4-293.5-40.2-254.6-103.1c32.1-51.9,86.1-166.4-90.1-217.4
						c5.6-18.2,12.6-36.2,17.3-54v0c14-29.7,23.4-58.9,36.3-87.5c5.2-11.4,10.9-22.8,16.4-34.1c30.2-61.9,65.6-120.9,105.2-176.5
						c3.6-5,7.3-10.1,11-15.1c14.7-20,30.1-39.5,45.9-58.6c23.8-28.6,48.9-56.1,75.1-82.4c68.3-68.6,144.6-129.2,227.4-180.3
						c34.9,24.5,74.7,39.5,109.2,21c84.4-47.2,28.8-54.5-5.8-56.2c-9-0.4-17.7-4-24.7-9.4c64.9-33.9,133.1-62.1,204.1-84.2
						c-5.3,47.6-70,124.2-22.4,114.8c55.4-10.5,78.1-160.3,118.8-110.6c41.3,50-45.2,115.5,36,77.5c81.3-37.6,92.2-121.5,182.8-80.6
						c91.1,41.3,82.7,90.2,108.2,85.4c25.3-4.8,107.2,50.3,57.7,95.5c-50,45.4-95.8-12.4-170.7-29.9
						c-74.9-17.2-73.1,44.1-107.6,58.1c-35.1,13.5-204.2-68.2-245.8,5.7c-42,73.3-59.8,124.4,2.5,122.6
						c62.2-1.8,66.3-17.9,61.4,28.2c-5,46.1,6.4,80.5,62.8,37.2c56.2-43.2,43.6-85.4,87.6-64.8c44,20.7,49.2,2,96-32
						c46.7-34,108.3-37.5,124.4,38.7c16.1,76.3-11.4,93.4-93.7,97.2c-82.3,4-91.6-21.9-117.8,46.8
						c-26.1,68.8-134.9,157.1-230.4,193.5c-95.3,36.5-132.7,90.4-130.5,163.1c2.3,72.9-33.6,149.7-57.5,89.6
						c-24-60.2-91.4-161.6-160.2-93.8c-68.9,67.9-188.8,188-56.3,209.9c132.2,22.4,63.2-101.5,130.1-76.8
						c66.7,24.9-42.3,79.5,2.3,99.3c44.7,19.9,63.4,10.6,63.1,71.5c-0.3,60.9,14.8,120,69,94.1c54.2-25.7,123.7-116.8,202.1-46.3
						c78.5,70.8,73.1,33.3,114.3,12.7c41.1-20.6,67.4,41.1,84.2,69.2c16.9,28.1,83-0.6,136.6,83c53.6,83.6,74.6,98.5,135.7,68.4
						c61.1-30.1,86-7.7,101.9,34.5c15.9,42.2,53.5,1,71.7,56.7C2045.8,2475.3,2037.1,2466.6,2010.7,2504.2z"/>
					<g>
						<path class="st2" d="M2219.9,1491.3c-43.3-92.9,171.3-82.5,209.2-75.4c38.2,6.4,127.7-63.6,139-96.1
							c11.7-32.8,30.8-17.2,98.8-18.1c67.9-0.7,7.9-16.1-66.8-40.7c-74.6-24.6-10.8-27-79.5-81.3c-29.6-23.8-20.3-44-0.6-59
							c156.7,126.7,281.9,290.8,362.1,478.7c-2.3-0.7-4.4-1.1-6.4-1.1c-47.5-0.3-58-105.4-82.5-125.8c-24.1-20.4,0.7,57.7,6.6,89.9
							c5.9,32.1-13,5.1-36.7,34.6c-23.8,29.5-66.8,30.1-70.7-14.2c-3.9-44.2-35.1-87.6-98.3-107.8c-63.2-20.2-117.9-3.6-169.3,16.2
							C2373.6,1510.6,2263.5,1583.5,2219.9,1491.3z"/>
						<path class="st2" d="M2758.7,2794.8c4.3-31.9,11.3-64.9-2-76.9c-32.4-30.1-39.5-111.9-28.2-153.4
							c11.2-41.6,98.5-39.2,39.3-108.3c-59.4-69.3-112.9-151.5-88-198.5c24.9-47,17.4-50.4-29.4-50.1c-46.8,0.3-67.3,2.3-113.9-39.3
							c-46.6-42.2-110.8,99.5-286.4-14.1c-175.5-114.8-75.6-308.3-9.8-308.8c66.2-1.1,143.5-34.5,89.3-115.2
							c-54.1-81,30.4-92.5,71.7-74.1c41.4,18.2,114.7-30.7,189.4-52.8c74.9-21.9,71.6,100.1,113.2,124.5c41.8,24.5,120.2,5,161-34
							c29.1-27.9,35.4,4.6,64.2,35.5c33.9,112.9,52,232.6,52,356.6C2981.1,2349.5,2898.9,2593.9,2758.7,2794.8z"/>
						<path class="st2" d="M2444.7,1336.6c0-0.1,54.7-24.8,34.9-64.5c-19.6-39.8-50.8-161.7-73.6-123.3
							c-22.9,38.6,10.9,113.6,3.5,145.9C2402.1,1327.1,2401.9,1344.1,2444.7,1336.6z"/>
						<path class="st2" d="M2390.1,1299.4c-0.8-12.8,7.3-64.9-33.7-63.3c0.1-0.1-59.3,24.7-24.5,66.7
							C2366.7,1344.8,2391,1312.2,2390.1,1299.4z"/>
					</g>
				</g>
			</g>
			<path class="st7" d="M2977.1,2083.7c0,262.5-80.8,506-220.6,706.5c-0.6,0.8-0.9,1.6-0.9,2.4v0
				c-224,321.4-596.8,528.6-1018.5,528.6c-34.5,0-69.2-2.6-102.9-7.3c0,0,0,0,0,0c-0.1,0-0.2,3.1-0.3,3.1
				c-16.6-1.4-33.1-1.5-49.5-3.6c-5.8-0.7-11.7-0.7-17.5-1.5c-5.2-0.7-10.3-1-15.4-1.8c-4.5-0.7-8.9-1.1-13.3-1.8
				c-1-0.2-2-0.3-3-0.4c-10.8-1.8-21.6-3.6-32.4-5.7c-0.1,0-0.1,0-0.2,0C972.6,3201,562.4,2762.2,503.6,2218.2
				c124.3,356.6,431.7,624.5,809.6,699.1h0.1c9.3,4.7,18.6,3.7,27.9,5.3c0.9,0.1,1.8,0.4,2.6,0.5c3.8,0.6,7.6,1.2,11.5,1.8
				c4.4,0.7,8.8,1.2,13.3,1.8c5,0.7,10,1.2,15.1,1.7c14.2,1.8,28.4,5,42.8,6.2c0.1,0,0.2,1.3,0.3,1.3c0,0,0,0,0,0
				c29.2,0,58.2,2.3,88,2.3c182,0,353.6-46.3,503.7-126.1c150.1-79.9,278.7-195,374.9-333.8c0-0.7,1.2-1.7,1.6-2.4
				c120.7-173.1,191.4-383.5,191.4-610.2c0-107-15.7-210.5-45-308c0-0.2-0.4-0.4-0.4-0.6v0c-9.3-38.1-24.4-75.4-39.8-111.6
				c-69.2-162.3-177.1-304-312.4-413.4c-99.1-80.1-212.7-142.9-336.3-183.8c250.4,23,479.3,120.6,664.2,270.1
				c156.7,126.7,283.5,290.8,363.6,478.7c17.9,42,29.4,85.1,48,129.3v0c0,0.2-1.5,0.3-1.4,0.5
				C2960.8,1840.1,2977.1,1959.8,2977.1,2083.7z"/>
		</g>
		<g>
			<g>
				
					<linearGradient id="SVGID_10_" gradientUnits="userSpaceOnUse" x1="-1312.887" y1="96.3817" x2="-280.1659" y2="797.8521" gradientTransform="matrix(-1 0 0 1 210.7145 0)">
					<stop  offset="0" style="stop-color:#311944"/>
					<stop  offset="1" style="stop-color:#6B3976"/>
				</linearGradient>
				<path class="st8" d="M1466.9,469.5c19.4-12.6,1.7-49.2,0.7-127.9c-1.3-96.4,24.3-114.4,3.8-152.3
					c-25.2-46.3-88.5-65.4-130.4-66.3c-9.3-0.2-11.4-5.3-88.9,14.8c-139.7,36.2-174.6-2.6-237.2,36.1c-60.4,37.4-34,78.4-92.7,122.3
					c-95.1,71.1-195.1-5.8-263.1,53.7c-64.3,56.3-65.8,199.7,1.9,278c76.7,88.7,214.9,62.1,307.6,44.5
					c19.5-3.7,118-24.4,220.5-100.1c56.7-41.9,95.7-86.6,120.4-119.5c5.8-6.5,14.9-14.5,26.9-15.8c14.4-1.5,25.9,7.3,31.5,11.1
					C1397,468.4,1447.8,481.9,1466.9,469.5z"/>
				<linearGradient id="SVGID_11_" gradientUnits="userSpaceOnUse" x1="1381.3959" y1="656.7713" x2="1859.8407" y2="656.7713">
					<stop  offset="0" style="stop-color:#FFC444"/>
					<stop  offset="0.9964" style="stop-color:#F36F56"/>
				</linearGradient>
				<path class="st9" d="M1388.8,416.6c25-22.8,114.1,21.1,173.2,79.3c69.4,68.4,64.1,123.8,124.6,208.8
					c30.1,42.2,81.7,99.1,173.2,148.9c-6.5,16.2-13,32.4-19.4,48.6c-44.2,2.7-131,1.1-212.1-51.8c-56.3-36.7-85.2-85.4-140.8-181.3
					C1431.7,572.9,1357.6,445.1,1388.8,416.6z"/>
				
					<linearGradient id="SVGID_12_" gradientUnits="userSpaceOnUse" x1="-1503.2355" y1="787.3166" x2="-1351.4647" y2="787.3166" gradientTransform="matrix(-0.831 -0.5562 -0.5562 0.831 1146.7618 279.3084)">
					<stop  offset="0" style="stop-color:#311944"/>
					<stop  offset="1" style="stop-color:#6B3976"/>
				</linearGradient>
				<path class="st10" d="M1934.4,1753.8l-28.4-60.4c-4-8.6-10.3-15.9-18.2-21.2l-14.1-9.4c0,0-33.6-0.9-38.9,20.2
					c-1.1,26.8,51,86.8,84,110.6c5.5,4,13.3,9.2,18,6.5C1944.9,1795.6,1939.3,1770.9,1934.4,1753.8z"/>
				<path class="st2" d="M1881,1630c-4.5,25.9,1.2,39.4,7.3,46.9c4.3,5.3,39.1,62.8,24.8,72c-6.5,4.2-50.7-50.8-55-59.2
					c-3.9-7.6-6.4-5.8-6.6-26.6c-0.1-13.7-2.9-24.7-5.1-31.6C1857.9,1631.1,1869.4,1630.6,1881,1630z"/>
				
					<linearGradient id="SVGID_13_" gradientUnits="userSpaceOnUse" x1="-1747.4725" y1="1462.1459" x2="-1662.4141" y2="1462.1459" gradientTransform="matrix(-1 0 0 1 210.7145 0)">
					<stop  offset="0" style="stop-color:#311944"/>
					<stop  offset="1" style="stop-color:#6B3976"/>
				</linearGradient>
				<path class="st11" d="M1931.3,1424.9c0,0,31.4,37.5,26.3,78.6c-5.1,41.1-60.2-19-67.9-39.3c-7.7-20.3-16.6-49.3-16.6-49.3
					S1911.7,1390.9,1931.3,1424.9z"/>
				<path class="st2" d="M1919.3,1366.2c0,0-8.5,43.7,7.7,66.8c8.1,11.5,19,21.2,15.8,30.6c-2.2,6.3-10.3,10.8-17.3,10.1
					c-13.3-1.4-20.6-21.7-25.8-36c-7.7-21.2-11.9-66.5-11.9-66.5L1919.3,1366.2z"/>
				
					<linearGradient id="SVGID_14_" gradientUnits="userSpaceOnUse" x1="-1625.6293" y1="993.6998" x2="-1522.0334" y2="1592.6143" gradientTransform="matrix(-1 0 0 1 210.7145 0)">
					<stop  offset="0" style="stop-color:#AB316D"/>
					<stop  offset="1" style="stop-color:#792D3D"/>
				</linearGradient>
				<path class="st12" d="M1894.3,1403c9.7-3.5,19.3-7,29-10.6c15.1-34.5,33.5-91,27.3-159.8C1934.8,1055.8,1771.2,962,1753,952
					c-44.6,22.4-89.7,53.9-91.4,93.7c-2.1,49.9,66,76.3,129.9,149.3C1829.9,1238.8,1870.9,1304.1,1894.3,1403z"/>
				
					<linearGradient id="SVGID_15_" gradientUnits="userSpaceOnUse" x1="-1479.3279" y1="1703.5002" x2="-1332.0269" y2="1237.3171" gradientTransform="matrix(-1 0 0 1 210.7145 0)">
					<stop  offset="0" style="stop-color:#AB316D"/>
					<stop  offset="1" style="stop-color:#792D3D"/>
				</linearGradient>
				<path class="st13" d="M1883.8,1650.3c31.9-124.8,23.8-226.6,14.6-285.3c-13.9-88.7-42.3-269-162.7-336.3
					c-26.3-14.7-63.9-27.8-109.7-68.7c-38.3-34.1-62.6-70-77.3-95.2c-161-47.2-309.6-28.1-375.1,58.3c-7.6,10-26.5,31.6-30.2,63.5
					c-8.3,72,62.5,158.7,141.9,176.8c100.9,23,159.5-80.6,248.9-46.1c25,9.6,46.2,33.5,88.6,81.3c53.9,60.8,84.3,116.9,95.8,139.4
					c34.2,66.9,60.1,116.2,63.9,180.2c0.9,14.9,1.4,45,18.9,77.5c13.4,24.9,31.6,41.5,45.1,51.8
					C1858.8,1648.4,1871.3,1649.3,1883.8,1650.3z"/>
				
					<linearGradient id="SVGID_16_" gradientUnits="userSpaceOnUse" x1="-1479.3151" y1="1703.5066" x2="-1332.0138" y2="1237.3226" gradientTransform="matrix(-1 0 0 1 210.7145 0)">
					<stop  offset="0" style="stop-color:#AB316D"/>
					<stop  offset="1" style="stop-color:#792D3D"/>
				</linearGradient>
				<path class="st14" d="M1143.4,986.6c3.7-31.9,22.6-53.6,30.2-63.5c65.5-86.4,214.1-105.5,375.1-58.3
					c14.7,25.3,39,61.1,77.3,95.2c45.8,40.8,83.4,54,109.7,68.7c73.5,41.1,112.7,124.3,135.2,203.1c-33.5-51.9-62.1-65.7-84.2-65.9
					c-31.7-0.4-45.9,26.8-83.8,23.1c-40.5-4-49.7-37.4-82.6-41.3c-9.8-1.2-21.9,0.4-36.4,8.1c-19.4-20.3-33.8-32.3-49.8-38.4
					c-89.4-34.5-148,69.1-248.9,46.1C1205.9,1145.3,1135.1,1058.6,1143.4,986.6z"/>
				
					<linearGradient id="SVGID_17_" gradientUnits="userSpaceOnUse" x1="-1272.0425" y1="933.2531" x2="-1168.6857" y2="1530.7858" gradientTransform="matrix(-1 0 0 1 210.7145 0)">
					<stop  offset="0" style="stop-color:#AB316D"/>
					<stop  offset="1" style="stop-color:#792D3D"/>
				</linearGradient>
				<path class="st15" d="M1800.4,1084.5c-18.2-1-46.3-1.5-80.2,1.8c-160.7,15.9-205,95.4-337.8,114.8
					c-31.4,4.6-171.3,25-231.9-55.8c-43.5-58.1-36.9-158.1,10.7-197.4c20.1-16.7,40.1-16.2,169-15c48.6,0.4,97.1,0.6,145.7,1.2
					c205.6,2.6,244.9-11.6,282.3,22.4C1775.6,972.2,1801.1,1006.3,1800.4,1084.5z"/>
				<g>
					<g>
						<linearGradient id="SVGID_18_" gradientUnits="userSpaceOnUse" x1="1047.1772" y1="785.8325" x2="1605.764" y2="785.8325">
							<stop  offset="0" style="stop-color:#FFC444"/>
							<stop  offset="0.9964" style="stop-color:#F36F56"/>
						</linearGradient>
						<path class="st16" d="M1366.4,425c0,0-162.3-47.3-233.7,33.6c-13.1,14.9-23.5,34.4-31,72.1c-38.5,192.1,107,307.5,49.7,408.8
							c-22.8,40.2-62.8,52.4-91.3,124.7c-4.8,12.2-22.3,56.5-6.3,70.5c14.1,12.3,37.3-13.7,78.5-8.6c43.6,5.3,53.8,38.8,83.1,33.9
							c19.1-3.2,27.4-19.5,55.6-60.2c40.8-59,61.2-88.4,75.8-98.8c57.7-40.8,102.3,12.4,168.1-28c23.8-14.6,112.1-128.3,86.1-97l0,0
							c-61.8-77.1-76.2-140.7-77.7-185c-1.6-48.5,12.4-70.5,0-127.9c0,0-13.8-64-63.5-118.9C1452.7,436.3,1444.2,428.1,1366.4,425z"
							/>
					</g>
				</g>
				<g>
					<path class="st2" d="M1314.3,319.8c2.2,10.3,13.4,65.4-9.2,79.5c-4.9,3.1-14.3,4.8-33,8.4c-12.3,2.3-22.6,3.7-29.9,4.6
						c1.1,9.2,4.2,24.3,14.8,37.9c29.9,38.3,89.8,28.4,98.3,26.9c30.1-5.5,59.8-14.8,67-20.5c10.9-8.7,19.5-15.2,24.6-21.8
						c-11.7-5.6-35.2-20.5-51-25.4c-11.8-3.6-22.9-6.2-33-8.1c-1.7-10.6-3.3-21.3-5-31.9C1343.4,352.8,1328.9,336.3,1314.3,319.8z"
						/>
					<path class="st2" d="M1313.3,347.2c0,0,4.1,40.4,43.3,47.5c35.1,6.4,61.6-78.5,43.6-100.5c-6-7.3-20.8-14.3-33.6-13.9
						c-9,0.3-39.5,11.9-43.8,42.4c-6.1-6.4-13.6-8.2-17.4-5.6c-4.7,3.4-2.2,13.3-1.6,15.5C1305.8,340.4,1310.8,345.2,1313.3,347.2z"
						/>
				</g>
				
					<linearGradient id="SVGID_19_" gradientUnits="userSpaceOnUse" x1="1066.7482" y1="914.0227" x2="1625.335" y2="914.0227" gradientTransform="matrix(1 0 0 1 -19.5709 0)">
					<stop  offset="0" style="stop-color:#FFC444"/>
					<stop  offset="0.9964" style="stop-color:#F36F56"/>
				</linearGradient>
				<path class="st17" d="M1601,875.9c-7.4-9.3-14.2-18.3-20.3-27.2c-34.1-11.4-63.6-15.7-87.4-16.8c-53.7-2.6-83,10-119.6-12
					c-41.5-25-34.1-59.6-74.1-78.9c-42.1-20.3-71.9,2.6-112.4-4.8c-24.5-4.5-54.3-20.8-84.7-68.6c23.3,114.9,91,197.2,48.8,271.9
					c-22.8,40.2-62.8,52.4-91.3,124.7c-4.8,12.2-22.3,56.5-6.3,70.5c14.1,12.3,37.3-13.7,78.5-8.6c43.6,5.3,53.8,38.8,83.1,33.9
					c19.1-3.2,27.4-19.5,55.6-60.2c40.8-59,61.2-88.4,75.8-98.8c57.7-40.8,102.3,12.4,168.1-28C1538.7,958.3,1627,844.7,1601,875.9z
					"/>
			</g>
			<g>
				
					<linearGradient id="SVGID_20_" gradientUnits="userSpaceOnUse" x1="60.9575" y1="925.4478" x2="462.2248" y2="925.4478" gradientTransform="matrix(-1 0 0 1 1720.7078 0)">
					<stop  offset="0" style="stop-color:#40447E"/>
					<stop  offset="0.9964" style="stop-color:#3C3B6B"/>
				</linearGradient>
				<path class="st18" d="M1649.9,895.6l-367.1,17.9c-5.1,0.2-9.7,3-12.3,7.2l-10.2,16.3c-5.1,8.1,1,18.6,10.6,18.2l388.9-14.8
					L1649.9,895.6z"/>
				
					<linearGradient id="SVGID_21_" gradientUnits="userSpaceOnUse" x1="-195.6528" y1="672.3267" x2="67.4289" y2="933.3038" gradientTransform="matrix(-1 0 0 1 1720.7078 0)">
					<stop  offset="0" style="stop-color:#40447E"/>
					<stop  offset="0.9964" style="stop-color:#3C3B6B"/>
				</linearGradient>
				<path class="st19" d="M2031.8,691.2l-379.3,7.3c-11.2,0.2-21.5,6.3-27,16.1l-131.3,231.1l400.6-16c11-0.4,21-6.4,26.7-15.8
					L2043,710.6C2048.2,702,2041.8,691,2031.8,691.2z"/>
				
					<linearGradient id="SVGID_22_" gradientUnits="userSpaceOnUse" x1="-195.6525" y1="672.3267" x2="67.4296" y2="933.3041" gradientTransform="matrix(-1 0 0 1 1720.7078 0)">
					<stop  offset="0" style="stop-color:#40447E"/>
					<stop  offset="0.9964" style="stop-color:#3C3B6B"/>
				</linearGradient>
				<path class="st20" d="M1625.4,714.6c5.5-9.8,15.8-15.9,27-16.1l8.3-0.2c1.2,12.2,5,23.4,12.5,32.5
					c23.4,28.2,62.2,10.8,91.2,40.7c31.8,32.8,2.4,71.9,30.9,102.4c29.9,32.1,78.3,6,134,26.5l-8,13.4c-5.7,9.4-15.7,15.4-26.7,15.8
					l-400.6,16L1625.4,714.6z"/>
			</g>
			<g>
				<linearGradient id="SVGID_23_" gradientUnits="userSpaceOnUse" x1="914.636" y1="184.1041" x2="1269.0541" y2="1265.2263">
					<stop  offset="0" style="stop-color:#FFC444"/>
					<stop  offset="0.9964" style="stop-color:#F36F56"/>
				</linearGradient>
				<path class="st21" d="M1312.7,883.4c4.8-12.6,9.6-25.2,14.3-37.9c-52.8-14.5-125.9-35.9-200.8-62.6
					c-11.7-4.2-25.7-9.4-30.2-21.7c-12.8-34.6,68.6-70.5,100.3-146.1c29.3-69.9,13.2-167-20.8-178.5
					c-70.7-23.9-321.5,288.3-231.9,419.8C994.2,930.7,1150.3,942.6,1312.7,883.4z"/>
			</g>
			<path class="st2" d="M1327.1,845.5c33.2-17.6,72.8,0.4,75.4,1.7c7.3,3.4,17.9,9.6,28.6,20.5c1.2,1.7,15.6,21.6,10.4,28
				c-4.2,5.1-20.5,0.9-40-11.3c-8.2-1.1-20.4-2.2-35-0.9c-26.8,2.5-39.1,11-48.9,3.6c-7.1-5.4-9.6-16.7-7-25.1
				C1313.3,853,1321.4,848.5,1327.1,845.5z"/>
		</g>
		<g>
			
				<linearGradient id="SVGID_24_" gradientUnits="userSpaceOnUse" x1="3488.2473" y1="2602.4639" x2="3562.134" y2="2508.906" gradientTransform="matrix(-1 0 0 1 5903.6626 0)">
				<stop  offset="0" style="stop-color:#AA80F9"/>
				<stop  offset="0.9964" style="stop-color:#6165D7"/>
			</linearGradient>
			<path class="st22" d="M2228.5,2751.8c-40.2-22.3-28.4-148.5,26.1-237.3c77.3-126,246.9-186.2,281.6-148.6
				c35.6,38.4-66.8,182.6-83.4,206C2392.4,2656.8,2276,2778.1,2228.5,2751.8z"/>
			
				<linearGradient id="SVGID_25_" gradientUnits="userSpaceOnUse" x1="-390.0612" y1="4139.9126" x2="-268.5162" y2="4139.9126" gradientTransform="matrix(0.9294 0.369 -0.369 0.9294 3586.6438 -232.6526)">
				<stop  offset="0" style="stop-color:#444B8C"/>
				<stop  offset="0.9964" style="stop-color:#26264F"/>
			</linearGradient>
			<path class="st23" d="M1808.6,3484.8c6.5,9.1,6.6,24.4-0.7,31.1c-7.2,6.6-16.2,0.1-43.4-2.1c-29.2-2.3-37.5,3.7-56.7-3.9
				c-7.7-3.1-21.3-10-20.4-15.7c0.6-4,8-5.3,32.9-10.7c35.3-7.7,35.2-8.3,42.6-8.7C1781.4,3473.8,1800,3472.8,1808.6,3484.8z"/>
			
				<linearGradient id="SVGID_26_" gradientUnits="userSpaceOnUse" x1="-605.2508" y1="4024.0217" x2="-553.9991" y2="3917.9424" gradientTransform="matrix(0.9527 0.304 -0.304 0.9527 3566.5315 -152.086)">
				<stop  offset="0" style="stop-color:#FFC444"/>
				<stop  offset="0.9964" style="stop-color:#F36F56"/>
			</linearGradient>
			<path class="st24" d="M1795.2,3435.3l-19.9,46.9c0.8,2.7,14.7,13,28,8.9l26.9-44.7L1795.2,3435.3z"/>
			
				<linearGradient id="SVGID_27_" gradientUnits="userSpaceOnUse" x1="-199.6481" y1="4132.0835" x2="-78.1033" y2="4132.0835" gradientTransform="matrix(0.9294 0.369 -0.369 0.9294 3586.6438 -232.6526)">
				<stop  offset="0" style="stop-color:#444B8C"/>
				<stop  offset="0.9964" style="stop-color:#26264F"/>
			</linearGradient>
			<path class="st25" d="M1988.5,3547.8c6.5,9.1,6.6,24.4-0.7,31.1c-7.2,6.6-16.2,0.1-43.4-2.1c-29.2-2.3-37.6,3.7-56.7-3.9
				c-7.7-3.1-21.3-10-20.4-15.7c0.6-4,8-5.3,32.9-10.7c35.3-7.7,35.2-8.3,42.6-8.7C1961.3,3536.8,1979.8,3535.8,1988.5,3547.8z"/>
			
				<linearGradient id="SVGID_28_" gradientUnits="userSpaceOnUse" x1="-414.7615" y1="4029.3518" x2="-363.5102" y2="3923.2734" gradientTransform="matrix(0.9527 0.304 -0.304 0.9527 3566.5315 -152.086)">
				<stop  offset="0" style="stop-color:#FFC444"/>
				<stop  offset="0.9964" style="stop-color:#F36F56"/>
			</linearGradient>
			<path class="st26" d="M1975.1,3498.2l-19.9,46.9c0.8,2.7,14.7,13,28,8.9l26.9-44.7L1975.1,3498.2z"/>
			
				<linearGradient id="SVGID_29_" gradientUnits="userSpaceOnUse" x1="3074.9597" y1="3049.2241" x2="3378.1829" y2="2665.2729" gradientTransform="matrix(-1 0 0 1 5903.6626 0)">
				<stop  offset="0" style="stop-color:#AA80F9"/>
				<stop  offset="0.9964" style="stop-color:#6165D7"/>
			</linearGradient>
			<path class="st27" d="M2858.2,2374c-46.6-15.9-117.8-34.3-205.5-34.3c-98.7,0-178,0-232.8,46.7
				c-132.9,113.2,15.8,384.5-60.3,585.4c-8.3,22-32.6,91.8-11.5,167c3.9,13.9,11.9,25.9,25.6,46.2c80.5,119.4,311,158.7,414.6,55.2
				c54.7-54.7,99.5-74.2,100.8-136.6C2894.3,2857.1,2856.1,2611.3,2858.2,2374z"/>
			
				<linearGradient id="SVGID_30_" gradientUnits="userSpaceOnUse" x1="3074.9924" y1="3037.2439" x2="3368.2935" y2="2665.8564" gradientTransform="matrix(-1 0 0 1 5903.6626 0)">
				<stop  offset="0" style="stop-color:#AA80F9"/>
				<stop  offset="0.9964" style="stop-color:#6165D7"/>
			</linearGradient>
			<path class="st28" d="M2805.7,2675c18.8-51.5-0.7-110.5,41.3-136.3c15.4-9.4,34.5-13.4,55.3-13c-2.5,181.1-6.1,362.1-10.5,551.1
				c-1.5,62.4-9.3,65.5-69.8,120.2c-70.1,63.4-191,84.1-294.6,63.3c135.7-83.5,232.6-169.9,218.7-244.1
				c-16.2-86.3-174.2-111.8-167.9-173.2C2585,2778.2,2764.6,2787.7,2805.7,2675z"/>
			
				<linearGradient id="SVGID_31_" gradientUnits="userSpaceOnUse" x1="2907.0859" y1="2884.9409" x2="3208.2625" y2="2503.5813" gradientTransform="matrix(-1 0 0 1 5903.6626 0)">
				<stop  offset="0" style="stop-color:#AA80F9"/>
				<stop  offset="0.9964" style="stop-color:#6165D7"/>
			</linearGradient>
			<path class="st29" d="M2815.1,2379.6c45.6-30.8,155.6,46.9,216.5,115.3c28.3,31.8,127,142.4,102.5,291.1
				c-4,24.2-22.4,137.5-119.3,193c-86.8,49.7-204,36.9-298-33.5c-12.8-11.4-25.7-22.8-38.5-34.2c-12.6-13.6-25.3-27.3-37.9-40.9
				c19.9-16.5,53.6-40.3,100.9-55.6c72.2-23.3,119.6,11.3,136.9-11.5c21.3-28-43.4-80.2-60.4-198.9
				C2813.2,2572.3,2764.1,2414,2815.1,2379.6z"/>
			
				<linearGradient id="SVGID_32_" gradientUnits="userSpaceOnUse" x1="3015.0227" y1="3502.4255" x2="3423.3735" y2="2985.3579" gradientTransform="matrix(-0.994 -0.1094 -0.1094 0.994 5732.4976 314.9103)">
				<stop  offset="0" style="stop-color:#444B8C"/>
				<stop  offset="0.9964" style="stop-color:#26264F"/>
			</linearGradient>
			<path class="st30" d="M2722.2,3180.9c19.2,100.8-31.9,55.1-138.8-13.1c-112.6-71.8-363.5-184.6-487.8-86.7
				c-92.6,73-47.8,209.4-192.7,338.2c-25.5,22.7-49,37.9-63.6,46.6c-22.2-12.2-44.4-24.4-66.7-36.6c-3.3-54.4-9.4-263.2,140.3-433.1
				c36.2-41.1,105.1-120,211-145C2410.1,2783.9,2704.5,3087.9,2722.2,3180.9z"/>
			
				<linearGradient id="SVGID_33_" gradientUnits="userSpaceOnUse" x1="3258.1782" y1="3024.8591" x2="2784.4143" y2="3549.644" gradientTransform="matrix(-0.994 -0.1094 -0.1094 0.994 5732.4976 314.9103)">
				<stop  offset="0" style="stop-color:#444B8C"/>
				<stop  offset="0.9964" style="stop-color:#26264F"/>
			</linearGradient>
			<path class="st31" d="M2842.1,3102c13.2,58.2-11.3,120.6-47.4,157.1c-80.2,81.1-237.2,54.3-332.2,10.7
				c-115.7-53.1-134.5-128.8-183.7-116.1c-76.4,19.7-44.1,206.1-192.7,338.2c-25.5,22.7-49,37.9-63.6,46.6
				c-22.2-12.2-44.4-24.4-66.7-36.6c-3.9-126.2,19.9-224.3,40.3-286.4c23.4-71.2,44.3-135,102.6-192.4
				c72.4-71.2,158.9-89.5,208.4-99.4C2516.5,2882.3,2807.7,2950.9,2842.1,3102z"/>
			<g>
				
					<linearGradient id="SVGID_34_" gradientUnits="userSpaceOnUse" x1="3520.0745" y1="3138.0632" x2="3453.5579" y2="2949.5994" gradientTransform="matrix(-1 0 0 1 5903.6626 0)">
					<stop  offset="0" style="stop-color:#311944"/>
					<stop  offset="1" style="stop-color:#893976"/>
				</linearGradient>
				<polygon class="st32" points="2190.3,2910.7 2740.2,2902.5 2594,2973.1 2188.9,2946.6 				"/>
				
					<linearGradient id="SVGID_35_" gradientUnits="userSpaceOnUse" x1="3229.4941" y1="2865.0081" x2="3253.8835" y2="3033.5168" gradientTransform="matrix(-1 0 0 1 5903.6626 0)">
					<stop  offset="0" style="stop-color:#311944"/>
					<stop  offset="1" style="stop-color:#893976"/>
				</linearGradient>
				<path class="st33" d="M2759.6,2917.1L2759.6,2917.1c0,10.3-6.4,19.5-16.1,23l-175.7,68.9l-0.8-47.8l173.2-58.7
					C2749.9,2899.7,2759.6,2907,2759.6,2917.1z"/>
			</g>
			<linearGradient id="SVGID_36_" gradientUnits="userSpaceOnUse" x1="2543.6416" y1="2901.9258" x2="2681.4846" y2="2901.9258">
				<stop  offset="0" style="stop-color:#FFC444"/>
				<stop  offset="0.9964" style="stop-color:#F36F56"/>
			</linearGradient>
			<path class="st34" d="M2681.1,2895.1c3.4-0.8-16.4-40.2-32-35.7c-15.6,4.6-91.6,48.6-98.5,66.8c-6.9,18.2-6.9,18.2-6.9,18.2
				s33.2,2.6,53.8-4.3C2618,2933.1,2653.7,2901.2,2681.1,2895.1z"/>
			<g>
				<g>
					
						<linearGradient id="SVGID_37_" gradientUnits="userSpaceOnUse" x1="3712.7571" y1="2879.7668" x2="3583.0742" y2="2695.6177" gradientTransform="matrix(-1 0 0 1 5903.6626 0)">
						<stop  offset="0" style="stop-color:#444B8C"/>
						<stop  offset="0.9964" style="stop-color:#26264F"/>
					</linearGradient>
					<path class="st35" d="M2552.4,2626.2l38.8,352.9c1.3,12.2-15.7,30.3-27.9,29.7l-568.6-34.9c-9.3-0.4-17.1-7.3-18.7-16.5
						l-71.4-340.8c-2.1-12.4,20.2-25.2,32.7-24.9l595.8,16.8C2543.1,2608.7,2551.3,2616.3,2552.4,2626.2z"/>
					
						<linearGradient id="SVGID_38_" gradientUnits="userSpaceOnUse" x1="3464.0024" y1="3184.5305" x2="3747.8066" y2="2608.0542" gradientTransform="matrix(-1 0 0 1 5903.6626 0)">
						<stop  offset="0" style="stop-color:#311944"/>
						<stop  offset="1" style="stop-color:#893976"/>
					</linearGradient>
					<path class="st36" d="M2539.4,2636.5l38.8,352.9c1.3,12.2-8.5,22.7-20.8,22.1l-575.8-27.3c-9.3-0.4-17.1-7.3-18.7-16.5
						l-58.8-342.4c-2.1-12.4,7.6-23.7,20.2-23.3l595.8,16.8C2530.1,2619,2538.3,2626.6,2539.4,2636.5z"/>
				</g>
				
					<linearGradient id="SVGID_39_" gradientUnits="userSpaceOnUse" x1="3325.3647" y1="2814.5288" x2="3948.8447" y2="2814.5288" gradientTransform="matrix(-1 0 0 1 5903.6626 0)">
					<stop  offset="0" style="stop-color:#311944"/>
					<stop  offset="1" style="stop-color:#893976"/>
				</linearGradient>
				<path class="st37" d="M2201.3,2901.5c50.3-21.3,32.5-61.9,91.9-112.6c78.3-66.8,158.2-37.8,186.1-89.6
					c8.7-16.1,12.9-41.2-2.3-81.8l43.1,1.2c9.9,0.3,18.2,7.9,19.3,17.7l38.8,352.9c1.3,12.2-8.5,22.7-20.8,22.1l-575.8-27.3
					c-9.3-0.4-17.1-7.3-18.7-16.5l-8.1-47.2c17.5-9.7,38.3-18.6,62.7-23.5C2102,2879.8,2143.4,2926.1,2201.3,2901.5z"/>
			</g>
			<g>
				<linearGradient id="SVGID_40_" gradientUnits="userSpaceOnUse" x1="2517.0598" y1="2307.8904" x2="2763.6538" y2="2307.8904">
					<stop  offset="0" style="stop-color:#FFC444"/>
					<stop  offset="0.9964" style="stop-color:#F36F56"/>
				</linearGradient>
				<path class="st38" d="M2643.5,2204.8c-0.3,36.6,3.8,65.6,7.6,85.5c4.4,22.8,7.6,28.7,11.7,33.4c6.1,7.2,15.4,13.2,67.9,26.2
					c28.5,7.1,32.2,6.9,32.8,9.7c3.1,13.8-74.8,60.9-155.2,49.6c-49.2-6.9-94-35-91.2-49.8c2.8-14.8,51.9-6.9,66.6-33.7
					c10.2-18.7-1.2-45.2-14.7-67.1C2582.1,2234.1,2630.5,2229.3,2643.5,2204.8z"/>
				<g>
					
						<linearGradient id="SVGID_41_" gradientUnits="userSpaceOnUse" x1="-1194.3964" y1="1712.3644" x2="-1287.4851" y2="1475.936" gradientTransform="matrix(0.9687 -0.2485 0.2485 0.9687 3447.4724 427.3052)">
						<stop  offset="0" style="stop-color:#444B8C"/>
						<stop  offset="0.9964" style="stop-color:#26264F"/>
					</linearGradient>
					<path class="st39" d="M2540.3,2251.3c-15.1-12-22.6-37.9-13.9-57.7c7.5-17.1,24.5-23.7,34.6-27.6c29.5-11.4,71.2-8.7,91.8,15.8
						c12.2,14.5,4.1,53.5,3,60.4c-1.2,7.8-6.1,11.6-9.8,18.3c-5.1,9.2-13.1,23.7-26.1,48c-2.9-5.4-6.9-12-12.3-18.8
						c-2.1-2.6-10.3-12.9-20.8-20.5C2566,2253.8,2554.6,2262.7,2540.3,2251.3z"/>
					<linearGradient id="SVGID_42_" gradientUnits="userSpaceOnUse" x1="2539.4866" y1="2277.1602" x2="2659.8201" y2="2277.1602">
						<stop  offset="0" style="stop-color:#FFC444"/>
						<stop  offset="0.9964" style="stop-color:#F36F56"/>
					</linearGradient>
					<path class="st40" d="M2641.4,2285.3c0,0-11.5,38-51.9,45.8c-36.3,7-62.3-71.6-43.9-94.5c6.1-7.6,20.7-13.9,34-13.7
						c7.8,0.1,11.1,2.5,23.9,2.5c11.8,0,14.6-2.1,18.7-0.1c5.1,2.4,10.4,10.3,9.5,35.4c5-8.7,12.5-13.4,19-12.2c1,0.2,3.9,1.2,6,3.4
						C2664,2259.7,2658.7,2273.5,2641.4,2285.3z"/>
					
						<linearGradient id="SVGID_43_" gradientUnits="userSpaceOnUse" x1="-1222.8383" y1="1723.6818" x2="-1316.0176" y2="1487.0232" gradientTransform="matrix(0.9687 -0.2485 0.2485 0.9687 3447.4724 427.3052)">
						<stop  offset="0" style="stop-color:#444B8C"/>
						<stop  offset="0.9964" style="stop-color:#26264F"/>
					</linearGradient>
					<path class="st41" d="M2622.5,2220c-1.4,1.7,5.5,6.8,8.3,15.8c5.4,17.4-7,43.2-24.7,49.8c-10.5,3.9-15.1-1.9-33.4,0.9
						c-11.3,1.7-20.1,5.5-25.6,8.3c-0.6,20.8,9.7,38.7,25,44.3c16.4,6,32.7-4.5,39.5-8.8c4.5-2.9,19.1-12.3,23.6-29
						c4.7-17.5-6.2-24.4,1.1-37.3c3.7-6.5,9.7-10.5,13.5-22.2c1-3.2,1.6-5.9,1.9-7.7C2639.9,2226.5,2624.5,2217.5,2622.5,2220z"/>
					<path class="st0" d="M2562,2298.5c0,0,8.7,2,21.9-2.2c0.6-0.2,1.4-0.2,1.6,0.1c0.6,1.2-6.4,9.1-14.9,8.9
						c-6-0.1-11.7-4.3-11.3-5.8C2559.4,2298.9,2560.7,2298.6,2562,2298.5z"/>
				</g>
			</g>
		</g>
		<g>
			<g>
				<linearGradient id="SVGID_44_" gradientUnits="userSpaceOnUse" x1="2623.2231" y1="621.7496" x2="2936.095" y2="1427.6301">
					<stop  offset="0" style="stop-color:#AA80F9"/>
					<stop  offset="0.9964" style="stop-color:#6165D7"/>
				</linearGradient>
				<path class="st42" d="M2974,734.5c0,132.8-186,375-270.2,477.8c-20.9,25.6-60.1,25.6-81,0c-84.2-102.8-270.2-345.1-270.2-477.8
					c0-171.6,139.1-310.7,310.7-310.7S2974,563,2974,734.5z"/>
				
					<ellipse transform="matrix(0.7071 -0.7071 0.7071 0.7071 260.6645 2098.3809)" class="st2" cx="2663.3" cy="734.5" rx="173.3" ry="173.3"/>
				<g class="st43">
					<linearGradient id="SVGID_45_" gradientUnits="userSpaceOnUse" x1="2511.1948" y1="665.2425" x2="2824.0674" y2="1471.1248">
						<stop  offset="0" style="stop-color:#AA80F9"/>
						<stop  offset="0.9964" style="stop-color:#6165D7"/>
					</linearGradient>
					<path class="st44" d="M2661.9,1084.8c19.7-129.8,105.4-171.4,90.7-293.9c-17-141.4-142.1-179-145.1-304.8
						c-0.5-20.3,2.3-39.8,7.5-58.5c-148.6,23.2-262.3,151.8-262.3,306.9c0,132.8,186,375,270.2,477.8c12.3,15.1,31,21.2,48.5,18.6
						C2656.2,1174.1,2655.7,1125.6,2661.9,1084.8z"/>
				</g>
			</g>
			<linearGradient id="SVGID_46_" gradientUnits="userSpaceOnUse" x1="2744.7327" y1="1239.9274" x2="2541.5305" y2="1548.3595">
				<stop  offset="0" style="stop-color:#AA80F9"/>
				<stop  offset="0.9964" style="stop-color:#6165D7"/>
			</linearGradient>
			<circle class="st45" cx="2663.3" cy="1363.5" r="63.5"/>
		</g>
		<g>
			<g>
				<linearGradient id="SVGID_47_" gradientUnits="userSpaceOnUse" x1="1314.2251" y1="1659.8043" x2="1627.0969" y2="2465.6848">
					<stop  offset="0" style="stop-color:#FF9085"/>
					<stop  offset="1" style="stop-color:#FB6FBB"/>
				</linearGradient>
				<path class="st46" d="M1665,1772.6c0,132.8-186,375-270.2,477.8c-20.9,25.6-60.1,25.6-81,0c-84.2-102.8-270.2-345.1-270.2-477.8
					c0-171.6,139.1-310.7,310.7-310.7C1525.9,1461.9,1665,1601,1665,1772.6z"/>
				
					<ellipse transform="matrix(0.7071 -0.7071 0.7071 0.7071 -856.7479 1476.8186)" class="st2" cx="1354.3" cy="1772.6" rx="173.3" ry="173.3"/>
				<g class="st43">
					<linearGradient id="SVGID_48_" gradientUnits="userSpaceOnUse" x1="1202.1968" y1="1703.2972" x2="1515.0692" y2="2509.1794">
						<stop  offset="0" style="stop-color:#FF9085"/>
						<stop  offset="1" style="stop-color:#FB6FBB"/>
					</linearGradient>
					<path class="st47" d="M1352.9,2122.9c19.7-129.8,105.4-171.4,90.7-293.9c-17-141.4-142.1-179-145.1-304.8
						c-0.5-20.3,2.3-39.8,7.5-58.5c-148.6,23.2-262.3,151.8-262.3,306.9c0,132.8,186,375,270.2,477.8c12.3,15.1,31,21.2,48.5,18.6
						C1347.2,2212.2,1346.7,2163.6,1352.9,2122.9z"/>
				</g>
			</g>
			<linearGradient id="SVGID_49_" gradientUnits="userSpaceOnUse" x1="1435.7345" y1="2277.9824" x2="1232.5325" y2="2586.4143">
				<stop  offset="0" style="stop-color:#FF9085"/>
				<stop  offset="1" style="stop-color:#FB6FBB"/>
			</linearGradient>
			<circle class="st48" cx="1354.3" cy="2401.6" r="63.5"/>
		</g>
		<g>
			<linearGradient id="SVGID_50_" gradientUnits="userSpaceOnUse" x1="2135.4753" y1="2463.3015" x2="2198.002" y2="2463.3015">
				<stop  offset="0" style="stop-color:#AA80F9"/>
				<stop  offset="0.9964" style="stop-color:#6165D7"/>
			</linearGradient>
			<circle class="st49" cx="2166.7" cy="2463.3" r="31.3"/>
			<linearGradient id="SVGID_51_" gradientUnits="userSpaceOnUse" x1="1988.3081" y1="2252.1653" x2="2345.1694" y2="2252.1653">
				<stop  offset="0" style="stop-color:#AA80F9"/>
				<stop  offset="0.9964" style="stop-color:#6165D7"/>
			</linearGradient>
			<path class="st50" d="M2166.7,2201.3c-65.3,0-125,23.9-170.9,63.4c-9.4,8.1-10.1,22.5-1.3,31.2l0.9,0.9
				c7.8,7.8,20.4,8.4,28.7,1.2c38.3-33,88.1-53.1,142.6-53.1c54.5,0,104.3,20,142.6,53.1c8.4,7.2,20.9,6.7,28.7-1.2l0.9-0.9
				c8.8-8.8,8.1-23.1-1.3-31.2C2291.8,2225.2,2232.1,2201.3,2166.7,2201.3z"/>
			<linearGradient id="SVGID_52_" gradientUnits="userSpaceOnUse" x1="2039.9514" y1="2314.0037" x2="2293.5259" y2="2314.0037">
				<stop  offset="0" style="stop-color:#AA80F9"/>
				<stop  offset="0.9964" style="stop-color:#6165D7"/>
			</linearGradient>
			<path class="st51" d="M2166.7,2274c-45.1,0-86.5,15.8-119,42.2c-9.7,7.9-10.3,22.5-1.5,31.4l0.2,0.2c7.8,7.8,20.1,8.2,28.6,1.3
				c25.1-20.2,57-32.3,91.8-32.3c34.8,0,66.7,12.1,91.8,32.3c8.6,6.9,20.8,6.5,28.6-1.3l0.2-0.2c8.9-8.9,8.2-23.5-1.5-31.4
				C2253.3,2289.9,2211.9,2274,2166.7,2274z"/>
			<linearGradient id="SVGID_53_" gradientUnits="userSpaceOnUse" x1="2091.9507" y1="2376.5254" x2="2241.5269" y2="2376.5254">
				<stop  offset="0" style="stop-color:#AA80F9"/>
				<stop  offset="0.9964" style="stop-color:#6165D7"/>
			</linearGradient>
			<path class="st52" d="M2098.3,2399.7c7.7,7.7,19.6,8.6,28.7,2.6c11.4-7.5,25.1-11.8,39.8-11.8c14.7,0,28.3,4.3,39.8,11.8
				c9.1,5.9,21,5.1,28.7-2.6l0.1-0.1c9.4-9.4,7.9-25.1-3.1-32.6c-18.7-12.7-41.2-20.2-65.5-20.2c-24.3,0-46.8,7.5-65.5,20.2
				c-11,7.5-12.5,23.2-3.1,32.6L2098.3,2399.7z"/>
		</g>
		<g>
			<linearGradient id="SVGID_54_" gradientUnits="userSpaceOnUse" x1="1727.4589" y1="-279.7614" x2="1948.5864" y2="1603.175">
				<stop  offset="0" style="stop-color:#AA80F9"/>
				<stop  offset="0.9964" style="stop-color:#6165D7"/>
			</linearGradient>
			<path class="st53" d="M1861.4,594.7c0,17.3-14,31.3-31.3,31.3c-17.3,0-31.3-14-31.3-31.3s14-31.3,31.3-31.3
				C1847.4,563.4,1861.4,577.4,1861.4,594.7z"/>
			<linearGradient id="SVGID_55_" gradientUnits="userSpaceOnUse" x1="1748.5773" y1="-282.2407" x2="1969.7045" y2="1600.6927">
				<stop  offset="0" style="stop-color:#AA80F9"/>
				<stop  offset="0.9964" style="stop-color:#6165D7"/>
			</linearGradient>
			<path class="st54" d="M1830.2,332.7c-65.3,0-125,23.9-170.9,63.4c-9.4,8.1-10.1,22.5-1.3,31.2l0.9,0.9c7.8,7.8,20.4,8.4,28.7,1.2
				c38.3-33,88.1-53.1,142.6-53.1c54.5,0,104.3,20,142.6,53.1c8.4,7.2,20.9,6.7,28.7-1.2l0.9-0.9c8.8-8.8,8.1-23.1-1.3-31.2
				C1955.2,356.6,1895.5,332.7,1830.2,332.7z"/>
			<linearGradient id="SVGID_56_" gradientUnits="userSpaceOnUse" x1="1742.6044" y1="-281.5398" x2="1963.7318" y2="1601.3959">
				<stop  offset="0" style="stop-color:#AA80F9"/>
				<stop  offset="0.9964" style="stop-color:#6165D7"/>
			</linearGradient>
			<path class="st55" d="M1830.2,405.5c-45.1,0-86.5,15.8-119,42.2c-9.7,7.9-10.3,22.5-1.5,31.4l0.2,0.2c7.8,7.8,20.1,8.2,28.6,1.3
				c25.1-20.2,57-32.3,91.8-32.3c34.8,0,66.7,12.1,91.8,32.3c8.6,6.9,20.8,6.5,28.6-1.3l0.2-0.2c8.9-8.9,8.2-23.5-1.5-31.4
				C1916.7,421.3,1875.3,405.5,1830.2,405.5z"/>
			<linearGradient id="SVGID_57_" gradientUnits="userSpaceOnUse" x1="1736.5739" y1="-280.8346" x2="1957.7018" y2="1602.1049">
				<stop  offset="0" style="stop-color:#AA80F9"/>
				<stop  offset="0.9964" style="stop-color:#6165D7"/>
			</linearGradient>
			<path class="st56" d="M1761.7,531.1c7.7,7.7,19.6,8.6,28.7,2.6c11.4-7.5,25.1-11.8,39.8-11.8c14.7,0,28.3,4.3,39.8,11.8
				c9.1,5.9,21,5.1,28.7-2.6l0.1-0.1c9.4-9.4,7.9-25.1-3.1-32.6c-18.7-12.7-41.2-20.2-65.5-20.2c-24.3,0-46.8,7.5-65.5,20.2
				C1753.6,505.9,1752.2,521.6,1761.7,531.1L1761.7,531.1z"/>
		</g>
	</g>
	<g>
	</g>
	<g>
	</g>
	<g>
	</g>
	<g>
	</g>
	<g>
	</g>
	<g>
	</g>
	<g>
	</g>
	<g>
	</g>
	<g>
	</g>
	<g>
	</g>
	<g>
	</g>
	<g>
	</g>
	<g>
	</g>
	<g>
	</g>
	<g>
	</g>
</g>
</svg>
