<?xml version="1.0" encoding="utf-8"?>
<!-- Generator: Adobe Illustrator 23.0.5, SVG Export Plug-In . SVG Version: 6.00 Build 0)  -->
<svg version="1.1" xmlns="http://www.w3.org/2000/svg" xmlns:xlink="http://www.w3.org/1999/xlink" x="0px" y="0px"
	 viewBox="0 0 3000 2000" style="enable-background:new 0 0 3000 2000;" xml:space="preserve">
<style type="text/css">
	.st0{fill:#D3DFFF;}
	.st1{fill:#EAF0FF;}
	.st2{fill:#3A6BEA;}
	.st3{opacity:0.6;fill:#1F3C88;}
	.st4{fill:#FFFFFF;}
	.st5{opacity:0.3;fill:#86A7FF;}
	.st6{fill:#DADADA;}
	.st7{fill:#102048;}
	.st8{fill:#86A7FF;}
	.st9{fill:#1F3C88;}
	.st10{opacity:0.6;fill:#102048;}
	.st11{fill:#F9B384;}
	.st12{fill:#E28B6D;}
	.st13{fill:#EB5D60;}
	.st14{fill:#AB4446;}
	.st15{fill:#652B14;}
	.st16{opacity:0.4;fill:#EB5D60;}
	.st17{fill:#7D69ED;}
	.st18{fill:#5B4DAD;}
	.st19{opacity:0.4;fill:#5B4DAD;}
	.st20{fill:#FBC343;}
</style>
<g id="BACKGROUND">
</g>
<g id="OBJECTS">
	<g>
		<path class="st0" d="M2666.9,1814.6H536.6l-0.7-0.7c-61.5-63.6-111.1-125-151.5-187.9c-47.4-73.6-82.8-149.5-108.2-232.1
			c-42.6-138.1-63.9-300.6-60.2-457.4c4.3-178.6,41-336.8,106.1-457.4c70.1-129.8,171-214.6,300-251.9
			c68.1-19.7,139.9-20.8,219.4-3.2c62.7,13.8,130.9,39.7,208.5,79.1c85.9,43.6,169.7,95.3,250.7,145.2
			c70.3,43.3,142.9,88.1,216.6,127.5c88.9,47.5,170,81.5,247.8,104c91.4,26.4,179.1,36.6,260.8,30.2c70.7-5.6,145.6-22.3,218-38.5
			c111.4-24.9,226.5-50.7,329.9-36.5c55.8,7.7,103.7,26,146.5,56.1c48,33.7,88.3,81.2,123.3,145.2c39.9,73.1,64.9,156,74.3,246.6
			c8.8,84.9,3.8,174.1-15,265.1c-18,87.7-47.8,173-88.6,253.7c-40.7,80.6-90.1,152-146.8,212.2L2666.9,1814.6z M538.7,1809.7h2126.1
			c56-59.7,104.9-130.5,145.3-210.3c40.6-80.3,70.2-165.2,88.2-252.4c18.6-90.6,23.6-179.3,14.9-263.7
			c-9.3-89.9-34.1-172.3-73.8-244.8c-34.6-63.3-74.4-110.3-121.8-143.6c-42.1-29.6-89.4-47.7-144.4-55.3
			c-102.4-14.1-217.2,11.6-328.1,36.5c-72.6,16.2-147.6,33-218.7,38.6c-82.3,6.5-170.7-3.7-262.6-30.3
			c-78.1-22.6-159.5-56.8-248.8-104.4c-73.8-39.4-146.6-84.3-216.9-127.6c-80.9-49.9-164.6-101.5-250.3-145
			c-77.2-39.2-145.1-65-207.4-78.7c-78.7-17.3-149.7-16.3-217,3.2c-127.7,37-227.6,120.9-297.1,249.6
			c-142.7,264.4-123.7,657.6-45.6,911.1c25.3,82.2,60.5,157.7,107.6,230.9C428.6,1685.6,477.8,1746.6,538.7,1809.7z"/>
		<path class="st1" d="M2706.5,1446.2c155.9-468.9,145.8-1196.9-490.9-1241.5c-208.2-14.6-420.1,61.4-613.3,130.8
			c-160,57.4-365.1,141.8-415,322.9c-19.6,71.1-25.2,200.8-127.5,193.3C788.3,832,472.7,654.3,291.8,960.9
			c-155.4,263.5-48.3,640.5,165.5,851.2h2005.1C2567.2,1711.7,2656.1,1597.9,2706.5,1446.2z"/>
	</g>
	<g>
		<g>
			<rect x="1213.5" y="1367.3" class="st2" width="522.7" height="444.5"/>
			<polygon class="st3" points="1736.2,1659.9 1213.5,1613.1 1213.5,1367.3 1736.2,1367.3 			"/>
		</g>
		<path class="st2" d="M2284.1,1525.7H665.6c-18.8,0-34-15.2-34-34V369.3c0-18.8,15.2-34,34-34h1618.5c18.8,0,34,15.2,34,34v1122.4
			C2318.1,1510.5,2302.9,1525.7,2284.1,1525.7z"/>
		<rect x="711.4" y="391.4" class="st4" width="1526.9" height="1051.1"/>
		<path class="st5" d="M1378.2,682.1v760.4H711.4V652.7h637.5C1365.1,652.7,1378.2,665.9,1378.2,682.1z"/>
		<path class="st5" d="M2238.3,652.7v789.7H1538V682.1c0-16.2,13.1-29.3,29.3-29.3H2238.3z"/>
	</g>
	<g>
		<g>
			<path class="st4" d="M476.4,1323.7c0,21.6,17.5,39.1,39.1,39.1H1274c21.6,0,39.1-17.5,39.1-39.1V548.5H476.4V1323.7z"/>
			<path class="st2" d="M1274,1365.2H515.4c-22.9,0-41.5-18.6-41.5-41.5V546.1h841.6v777.6C1315.5,1346.6,1296.9,1365.2,1274,1365.2
				z M478.8,551v772.7c0,20.2,16.4,36.6,36.6,36.6H1274c20.2,0,36.6-16.4,36.6-36.6V551H478.8z"/>
		</g>
		<g>
			<g>
				<path class="st2" d="M1274,462.9H515.4c-21.6,0-39.1,17.5-39.1,39.1v46.5h836.7V502C1313.1,480.4,1295.6,462.9,1274,462.9z"/>
				<path class="st2" d="M1315.5,551H473.9v-49c0-22.9,18.6-41.5,41.5-41.5H1274c22.9,0,41.5,18.6,41.5,41.5V551z M478.8,546.1
					h831.8V502c0-20.2-16.4-36.6-36.6-36.6H515.4c-20.2,0-36.6,16.4-36.6,36.6V546.1z"/>
			</g>
			<circle class="st4" cx="539.1" cy="505.4" r="17.1"/>
		</g>
		<g>
			<g>
				<path class="st6" d="M1239.1,849H550.4v-232h688.8V849z M555.2,844.1h679V621.8h-679V844.1z"/>
				<rect x="552.8" y="787.3" class="st6" width="683.9" height="4.9"/>
				<rect x="552.8" y="730.5" class="st6" width="683.9" height="4.9"/>
				<rect x="552.8" y="673.7" class="st6" width="683.9" height="4.9"/>
				<rect x="1165.8" y="619.4" class="st6" width="4.9" height="227.2"/>
				<rect x="1097.4" y="619.4" class="st6" width="4.9" height="227.2"/>
				<rect x="1029.1" y="619.4" class="st6" width="4.9" height="227.2"/>
				<rect x="960.7" y="619.4" class="st6" width="4.9" height="227.2"/>
				<rect x="892.3" y="619.4" class="st6" width="4.9" height="227.2"/>
				<rect x="823.9" y="619.4" class="st6" width="4.9" height="227.2"/>
				<rect x="755.5" y="619.4" class="st6" width="4.9" height="227.2"/>
				<rect x="687.1" y="619.4" class="st6" width="4.9" height="227.2"/>
				<rect x="618.7" y="619.4" class="st6" width="4.9" height="227.2"/>
			</g>
			<path class="st2" d="M1233.6,848.9c-4.7-9.5-10.1-20.4-18.5-27.7c-9.9-8.6-22.1-10.2-31.2-4.1c-1.9,1.3-3.9,3.2-6,5.3
				c-5.8,5.6-13,12.6-22.2,8.9c-6.7-2.7-10.6-7.8-14.3-12.8c-2.4-3.2-4.6-6.1-7.5-8.5c-6.9-5.6-15.5-5.2-27.1,1.4l-0.8,0.4
				c-6.9,4-15.6,8.9-23.6-0.5c-3.8-4.5-4.8-10-5.8-15.4c-0.8-4.5-1.6-8.8-4-12.2c-7-9.9-16.8-13.4-26.7-9.5c-5,2-10.9,8.8-17,16
				c-9,10.5-18.9,22-29.7,22c-2.6,0-5.2-0.7-7.9-2.2c-8.5-4.8-7.9-15.4-7.3-24.7c0.5-8.6,1-16.8-4.7-20.4
				c-7.3-4.6-16.7,3.6-21.3,10.2c-6.9,9.9-18.3,19.4-28.3,18.3c-4.2-0.5-10.1-3.1-14.1-13c-3.1-7.9-2.6-16.4-2.2-24.6
				c0.3-5.6,0.6-11-0.2-16c-1.2-7.6-7.4-17.8-17.1-16.6c-6.9,0.8-10.3,7.1-13.9,13.7c-2,3.7-4.1,7.5-6.9,10.4
				c-4.2,4.4-8.3,6.1-12.2,5.1c-4.5-1.2-8-6-9.9-13.9c-0.1-0.4-0.2-0.9-0.3-1.5c-2.5-10.9-4.4-12.5-5.1-12.7c-0.1,0-0.6,0.1-1.6,1.2
				c-2.4,2.8-2.4,7-2.4,11.5c0,3.8,0,7.7-1.5,11.2c-2,4.7-6.4,8-12.1,8.9c-7.1,1.2-15-1.4-19.6-6.4c-6.7-7.3-9.2-18.4-7.5-33.1
				c1.3-11.8,1.1-43.6-7.4-48.5c-2.1-1.2-5-0.5-8.6,2.2c-5.2,3.9-8.4,14.3-9.2,22.9c-1.8,18.3-7.5,36.4-16.7,52.3
				c-2.8,4.9-6.9,10.8-13.5,11.9c-3.5,0.6-7-0.3-10-2.7c-4.2-3.2-7.3-8.7-8-14.5c-0.5-4.7,0-9.3,0.6-13.8c0.4-3.5,0.8-6.9,0.7-10.2
				c-0.2-7.1-4.2-14.8-10.5-15.4c-3.3-0.3-9.6,5.3-14.6,9.9c-7.4,6.6-13.8,12.3-19.2,10.4c-3-1.1-4.8-4.3-5.5-9.7
				c-0.1-0.9-0.2-1.9-0.2-3c-0.3-4.7-0.7-8.4-3.5-9c-2.5-0.5-3.8,0.2-4.5,0.8c-4.6,3.8-4.3,17.4-4.1,25.6c0.1,4.1,0.1,7.3-0.2,9.3
				c-1.1,5.5-5.1,10.9-9.8,13.3c-3.5,1.8-7.1,1.9-10.4,0.4c-7.1-3.3-8.4-12-8.7-19.2l-2.2-48.7c-0.3-5.8-1.2-13.7-6.5-16
				c-1.8-0.8-3.8-0.7-5.9,0.1c-3.5,1.4-6.8,4.9-8.6,9c-1.2,2.8-1.9,5.7-2.7,8.8c-1.1,4.4-2.3,8.9-4.7,13c-2.8,4.7-8.1,8.2-13.3,8.8
				c-3.8,0.4-7.1-0.7-9.5-3.3c-4.2-4.4-3.5-10.5-2.9-15.8c0.3-2.7,0.6-5.4,0.3-7.8c-0.6-5.3-4.1-8.3-6.8-9.8
				c-6-3.3-14.9-3.6-21.2-0.6l-2.1-4.4c7.7-3.7,18.3-3.4,25.7,0.7c5.4,3,8.6,7.7,9.3,13.5c0.3,3,0,6-0.3,8.9
				c-0.6,4.9-1,9.1,1.6,11.9c1.3,1.4,3.2,2,5.4,1.8c3.7-0.4,7.7-3,9.7-6.4c2.1-3.5,3.1-7.5,4.1-11.7c0.8-3.2,1.6-6.4,2.9-9.5
				c2.2-5.3,6.5-9.7,11.2-11.6c3.3-1.3,6.6-1.3,9.6,0c7.8,3.4,9.1,13.2,9.5,20.3l2.2,48.7c0.3,5.8,1.2,12.8,5.9,15
				c1.9,0.9,4,0.8,6.1-0.3c3.5-1.8,6.5-5.8,7.3-9.9c0.3-1.4,0.2-4.7,0.2-8.2c-0.2-10.2-0.5-24.2,5.9-29.5c2.3-1.9,5.2-2.5,8.6-1.8
				c6.6,1.4,7.1,8.7,7.4,13.4c0.1,1,0.1,1.9,0.2,2.7c0.4,3.2,1.3,5.4,2.3,5.8c2.6,1,9.3-5,14.2-9.4c6.7-6,13-11.6,18.4-11.1
				c9.3,0.9,14.6,11,14.9,20.1c0.1,3.7-0.3,7.4-0.8,11c-0.5,4.4-1,8.5-0.6,12.6c0.5,4.4,2.9,8.7,6,11.1c2,1.5,4.1,2.1,6.3,1.7
				c4.5-0.8,7.8-5.5,10.1-9.5c8.8-15.3,14.3-32.7,16-50.3c0.9-9,4.3-21.3,11.1-26.4c5.3-4,10-4.8,14-2.5c14,8,9.9,52.8,9.8,53.3
				c-1.5,13.2,0.6,23.1,6.3,29.3c3.5,3.9,9.7,5.9,15.2,4.9c2.4-0.4,6.6-1.7,8.4-6c1.1-2.6,1.1-5.8,1.1-9.3c0-4.9,0-10.5,3.6-14.7
				c2.6-3,5-3.1,6.5-2.8c4.8,1.2,7,9.1,8.6,16.4c0.1,0.5,0.2,1,0.3,1.4c1.4,5.8,3.9,9.7,6.4,10.4c2.5,0.7,5.4-1.7,7.4-3.8
				c2.3-2.4,4.2-5.8,6.1-9.4c3.9-7.1,8.3-15.1,17.7-16.3c11.7-1.4,20.6,9.4,22.5,20.7c0.9,5.5,0.6,11.4,0.2,17
				c-0.4,7.7-0.9,15.6,1.8,22.5c2.4,6.1,5.8,9.5,10.1,10c8,0.9,17.9-7.8,23.7-16.2c6.8-9.8,18.4-17.6,27.9-11.6
				c8.2,5.1,7.5,15.6,7,24.8c-0.5,8.7-1,16.8,4.9,20.2c10.3,5.9,21.1-6.7,31.5-18.8c6.6-7.7,12.8-14.9,19-17.3
				c12-4.7,24.2-0.5,32.5,11.2c3,4.3,3.9,9.3,4.8,14.2c0.9,4.9,1.7,9.6,4.7,13.1c5.2,6,9.8,3.8,17.5-0.6l0.8-0.5
				c13.3-7.6,24-7.9,32.6-0.9c3.4,2.7,5.9,6.1,8.3,9.3c3.5,4.6,6.8,9,12.2,11.2c5.8,2.4,10.5-1.6,17-7.9c2.3-2.2,4.5-4.3,6.7-5.8
				c11-7.4,25.6-5.7,37.2,4.4c9.2,8,14.7,19.3,19.6,29.2L1233.6,848.9z"/>
			
				<ellipse transform="matrix(0.1602 -0.9871 0.9871 0.1602 -83.5778 1300.1051)" class="st7" cx="722.3" cy="699.2" rx="11" ry="11"/>
			<circle class="st7" cx="1030.8" cy="786.3" r="11"/>
		</g>
		<g>
			<rect x="553.4" y="922.6" class="st8" width="50.5" height="369.7"/>
			<rect x="658.8" y="973.5" class="st0" width="50.5" height="319.2"/>
			<rect x="764.1" y="1037.8" class="st8" width="50.5" height="255.4"/>
			<rect x="869.5" y="1077.2" class="st0" width="50.5" height="216.2"/>
			<rect x="974.9" y="1015.6" class="st8" width="50.5" height="277.2"/>
			<rect x="1080.2" y="1116.7" class="st0" width="50.5" height="176.4"/>
			<rect x="1185.6" y="1216.9" class="st8" width="50.5" height="78"/>
		</g>
	</g>
	<g>
		<g>
			<path class="st4" d="M1601.5,548.5v775.2c0,21.6,17.5,39.1,39.1,39.1h758.6c21.6,0,39.1-17.5,39.1-39.1V548.5H1601.5z"/>
			<path class="st2" d="M2399.2,1365.2h-758.6c-22.9,0-41.5-18.6-41.5-41.5V546.1h841.6v777.6
				C2440.7,1346.6,2422.1,1365.2,2399.2,1365.2z M1604,551v772.7c0,20.2,16.4,36.6,36.6,36.6h758.6c20.2,0,36.6-16.4,36.6-36.6V551
				H1604z"/>
		</g>
		<g>
			<g>
				<path class="st2" d="M2438.3,502c0-21.6-17.5-39.1-39.1-39.1h-758.6c-21.6,0-39.1,17.5-39.1,39.1v46.5h836.7V502z"/>
				<path class="st2" d="M2440.7,551h-841.6v-49c0-22.9,18.6-41.5,41.5-41.5h758.6c22.9,0,41.5,18.6,41.5,41.5V551z M1604,546.1
					h831.8V502c0-20.2-16.4-36.6-36.6-36.6h-758.6c-20.2,0-36.6,16.4-36.6,36.6V546.1z"/>
			</g>
			<circle class="st4" cx="1668.3" cy="505.4" r="17.1"/>
		</g>
		<g>
			<rect x="2310.7" y="922.6" class="st8" width="50.5" height="369.7"/>
			<rect x="2205.4" y="937.2" class="st0" width="50.5" height="355.2"/>
			<rect x="2100" y="997.1" class="st8" width="50.5" height="295.7"/>
			<rect x="1994.7" y="1038.9" class="st0" width="50.5" height="254.1"/>
			<rect x="1889.3" y="1115.7" class="st8" width="50.5" height="178.1"/>
			<rect x="1783.9" y="1179.3" class="st0" width="50.5" height="114.8"/>
			<rect x="1678.6" y="1216.9" class="st8" width="50.5" height="78"/>
			<g>
				<path class="st8" d="M1816,980h-94.2c-8.1,0-14.6,6.5-14.6,14.6v57.6c0,8.1,6.5,14.6,14.6,14.6h59.2l17.8,28l17.8-28
					c7.8-0.3,14-6.7,14-14.6v-57.6C1830.7,986.5,1824.1,980,1816,980z"/>
				<polygon class="st4" points="1768.9,999.5 1776.4,1014.6 1793,1017 1781,1028.8 1783.8,1045.3 1768.9,1037.5 1754,1045.3 
					1756.9,1028.8 1744.8,1017 1761.5,1014.6 				"/>
			</g>
		</g>
		<g>
			<g>
				<path class="st6" d="M2364.3,849h-688.8v-232h688.8V849z M1680.4,844.1h679V621.8h-679V844.1z"/>
				<rect x="1678" y="787.3" class="st6" width="683.9" height="4.9"/>
				<rect x="1678" y="730.5" class="st6" width="683.9" height="4.9"/>
				<rect x="1678" y="673.7" class="st6" width="683.9" height="4.9"/>
				<rect x="2291" y="619.4" class="st6" width="4.9" height="227.2"/>
				<rect x="2222.6" y="619.4" class="st6" width="4.9" height="227.2"/>
				<rect x="2154.2" y="619.4" class="st6" width="4.9" height="227.2"/>
				<rect x="2085.8" y="619.4" class="st6" width="4.9" height="227.2"/>
				<rect x="2017.5" y="619.4" class="st6" width="4.9" height="227.2"/>
				<rect x="1949.1" y="619.4" class="st6" width="4.9" height="227.2"/>
				<rect x="1880.7" y="619.4" class="st6" width="4.9" height="227.2"/>
				<rect x="1812.3" y="619.4" class="st6" width="4.9" height="227.2"/>
				<rect x="1743.9" y="619.4" class="st6" width="4.9" height="227.2"/>
			</g>
			<g>
				<path class="st2" d="M1733.9,811c-1.3,0-2.6-0.1-4-0.4c-10.9-2.2-12.9-12-14.4-19.8c-1.6-8.1-3-13.2-9.2-13.7
					c-7.2-0.6-19.5,8.6-25.6,14.9l-3.6-3.4c4.6-4.9,18.9-17.4,29.5-16.5c10.2,0.9,12,9.8,13.6,17.6c1.8,9,3.4,14.6,10.6,16
					c11.9,2.4,16.8-9.7,21.1-23.5l15.1-47.9c2.3-7.4,5-15.8,10.9-22.1c5.8-6.1,16.4-10,24.5-5.1c6.1,3.7,9.2,10.8,9.2,21.1
					c0,1.9-0.1,3.8-0.1,5.9c-0.2,7.6-0.5,16.3,2.3,22.3c1.3,2.8,3.8,5,6.4,5.8c2,0.6,4,0.3,5.8-0.9c5.7-3.7,6.4-10.6,7.1-17.9
					c0.5-4.6,0.9-9.3,2.7-13.4c3.3-7.5,11.2-10.7,19.2-7.8c16.3,6,15.6,25.7,15.1,38.7l-0.1,1.5c-0.3,9.3,0.7,22.4,7.6,31.8
					c2.7,3.7,6.4,5.9,9.9,5.7c3.1-0.1,5.8-2,7.8-5.5c3.5-5.9,3.9-14.1,4.4-22c0.1-2.4,0.2-4.7,0.4-6.8l3.3-34.6
					c1.3-14.3,6.3-22.9,14.4-24.8c3.6-0.8,6.7-0.3,9.4,1.5c4.1,2.9,6.6,8.9,7.7,18.3c0.3,2.5,0.1,5.4,0,8.4
					c-0.5,9.9-0.3,16.5,6.9,18.4c4.4,1.2,9.5-2,11.9-5.7c3.1-4.9,3.9-11,4.7-17c0.2-1.7,0.5-3.4,0.7-5c1.9-11.6,4.3-25.2,7.6-38.6
					l0-0.2c1.8-7.5,4.4-17.7,12.2-22.2c5.9-3.4,10.6-2.5,13.5-1.1c7,3.4,11.3,13.1,12.5,21.2c0.8,5.3,0.7,11,0.5,16.6
					c-0.2,7.4-0.3,15,1.7,21.4c2,6.4,8.4,14.4,16.5,12.3c8.6-2.3,10.4-9.8,12.4-18.4c0.4-1.7,0.8-3.4,1.3-5.1
					c3.8-13.4,9-31.9,20.6-43.8c7.2-7.3,18.5-9,27.5-4c13.6,7.5,13.4,23.8,13.3,38.3c-0.1,7.5-0.1,14.6,1.6,19.9
					c2.2,7,6.1,11.4,11.4,13c4.4,1.3,8.4,0.9,12-1.2c6.6-3.9,10.5-12.9,12-20l0.6-3.1c3.1-14.8,7.3-35.1,16.9-46.3
					c6.4-7.5,15-10.5,23.7-8.2c9.3,2.5,16.4,10.8,18.2,21.1c0.2,1.2,0.4,2.5,0.6,3.8c0.6,4,1.2,7.7,2.6,11.2c2,4.9,5.4,7.8,9.5,8.4
					c4.6,0.6,9.4-1.8,13-6.4c2.7-3.5,4.5-7.5,6.5-11.8c1.2-2.6,2.4-5.2,3.8-7.7c12.8-23,39.8-32,60.8-32.8
					c24.4-0.9,48,6.8,68.9,13.6l-1.5,4.6c-20.5-6.7-43.7-14.2-67.2-13.3c-19.7,0.7-44.9,9.1-56.7,30.3c-1.3,2.4-2.5,4.9-3.6,7.4
					c-2,4.3-4,8.8-7.1,12.8c-4.6,6-11.2,9.1-17.5,8.2c-5.9-0.8-10.7-5-13.4-11.4c-1.6-4-2.3-8.2-2.9-12.3c-0.2-1.2-0.4-2.4-0.6-3.6
					c-1.5-8.4-7.3-15.2-14.7-17.2c-6.7-1.8-13.5,0.6-18.7,6.6c-8.7,10.3-12.8,29.8-15.8,44.1l-0.6,3.1c-2.2,10.6-7.6,19.2-14.3,23.2
					c-4.8,2.8-10.1,3.4-15.9,1.7c-6.9-2.1-12-7.7-14.7-16.2c-2-6.1-1.9-13.6-1.8-21.5c0.1-13.7,0.2-27.9-10.8-33.9
					c-7.1-3.9-16-2.6-21.7,3.1c-10.8,11-15.8,28.7-19.4,41.7c-0.4,1.6-0.8,3.3-1.2,4.9c-2.1,8.8-4.5,18.8-15.9,21.9
					c-10.1,2.7-19.4-5.7-22.4-15.5c-2.3-7.2-2.1-15.2-1.9-23c0.1-5.6,0.2-10.8-0.5-15.7c-1-6.8-4.7-15.1-9.8-17.5
					c-2.7-1.3-5.6-1-8.9,0.9c-6,3.5-8.2,12.2-9.9,19.2l0,0.2c-3.2,13.2-5.6,26.7-7.5,38.2c-0.3,1.6-0.5,3.2-0.7,4.9
					c-0.9,6.5-1.7,13.2-5.4,19c-3.4,5.3-10.4,9.7-17.3,7.8c-11.6-3-11-14.8-10.5-23.3c0.1-2.8,0.3-5.5,0-7.6
					c-1.1-9.7-3.7-13.5-5.6-14.9c-1.5-1-3.2-1.3-5.4-0.8c-7.7,1.8-10,13.6-10.6,20.5l-3.3,34.6c-0.2,2.1-0.3,4.3-0.4,6.6
					c-0.4,8.1-0.9,17.2-5,24.2c-2.9,4.8-7.1,7.6-11.8,7.9c-5.1,0.3-10.3-2.6-14-7.7c-7.7-10.6-8.9-24.8-8.6-34.9l0.1-1.5
					c0.5-12.3,1.1-29.2-11.9-33.9c-5.5-2-10.8,0.1-13,5.2c-1.5,3.3-1.9,7.5-2.3,11.9c-0.8,7.8-1.6,16.6-9.3,21.5
					c-3,2-6.4,2.5-9.8,1.5c-4-1.2-7.6-4.3-9.5-8.5c-3.3-7.1-3-16.3-2.7-24.5c0.1-2,0.1-4,0.1-5.7c0-8.5-2.3-14.2-6.9-16.9
					c-6-3.6-14-0.5-18.4,4.2c-5.2,5.5-7.6,13.3-9.8,20.2l-15.1,47.7C1753.4,794.2,1748.1,811,1733.9,811z"/>
				<circle class="st7" cx="1886.5" cy="800.1" r="11"/>
				<circle class="st7" cx="2293.2" cy="643.8" r="11"/>
			</g>
		</g>
	</g>
	<g>
		<g>
			<g>
				<path class="st7" d="M2711.2,1517.4c-2.1,4.6-4.5,8.2-7,10.9c-16.1,17-39.5-1.8-55.6-51.6l-31.8-65.1l12.2-55.8
					c0,0,9.9-20,26.4-27.5c7.6-3.4,16.5-4.2,26.5,1C2713.7,1345.6,2727.6,1482.4,2711.2,1517.4z"/>
				<path class="st8" d="M2711.2,1517.4c-2.1,4.6-4.5,8.2-7,10.9c0.5-150.8-27.3-193.1-48.8-200c7.6-3.4,16.5-4.2,26.5,1
					C2713.7,1345.6,2727.6,1482.4,2711.2,1517.4z"/>
			</g>
			<g>
				<path class="st7" d="M2516,1643.8c-3.1,4-6.2,7-9.3,9.1c-19.4,13.1-38.2-10.4-42.9-62.6l-16.7-70.5l24.2-51.7
					c0,0,14.1-17.4,31.8-21c8.1-1.7,17-0.4,25.7,6.8C2556.1,1476.7,2539.6,1613.2,2516,1643.8z"/>
				<path class="st8" d="M2516,1643.8c-3.1,4-6.2,7-9.3,9.1c33.6-147,15.8-194.4-3.7-205.8c8.1-1.7,17-0.4,25.7,6.8
					C2556.1,1476.7,2539.6,1613.2,2516,1643.8z"/>
			</g>
			<path class="st9" d="M2492.2,1529.2c0,0-17.6,19.4-42.5,37.4c-13.9,10.1-30,19.6-46.6,25.1c-30.1,10-61.8,6.5-84.4-31.9
				c-42.1-71.6-33-234.8-25.2-317.1c2.9-30,5.6-49.3,5.6-49.3l140.4-37.9l1.7,11.9l4.6,32.8l25.8,184.1L2492.2,1529.2z"/>
			<path class="st10" d="M2492.2,1529.2c0,0-42.6,47.1-89.1,62.5c-50.5-102.6-11.1-298.2-11.1-298.2l79.8,90.8L2492.2,1529.2z"/>
			<path class="st9" d="M2648.6,1476.7c0,0-81.2,141.7-175,106.6c-8.7-3.3-16.6-9-23.7-16.8c-58.7-63.7-65.9-263.9-66.4-344.2
				c-0.1-21.1,0.2-33.9,0.2-33.9s28.2-10.4,57.8-21.1c31.2-11.3,64-23.1,67.1-23.7c6.7-1.3,12.5,5.7,17.4,18.1
				c23.2,58.4,28.2,236.7,28.2,236.7l74.9-42.7C2665.7,1397.3,2648.6,1476.7,2648.6,1476.7z"/>
			<path class="st2" d="M2392.1,1397.2c-5.6-39.8-8.6-92.6-9.1-101.2l-36.3-25.6l2.8-4l38.2,26.9l0.1,1.2c0,0.6,3.1,59,9.1,102
				L2392.1,1397.2z"/>
			<path class="st2" d="M2523.9,1515.4c-7.6,0-15.3-1.7-22.4-5.3c-15.4-7.7-25.7-22.6-27.4-39.7l-33.2-330.5l4.9-0.5l33.2,330.5
				c1.6,15.5,10.8,28.9,24.7,35.8c14.9,7.4,32.6,6.1,46.2-3.5l103.8-73.2l2.8,4l-103.8,73.2
				C2544.1,1512.3,2534,1515.4,2523.9,1515.4z"/>
			<path class="st10" d="M2525.9,1161.8c-15.9,9.1-43.5,23.7-79.9,38.4c-18.7,7.6-39.8,15.2-62.7,22.1
				c-27.4,8.2-57.5,15.4-89.7,20.3c2.9-30,5.6-49.3,5.6-49.3l140.4-37.9l1.7,11.9c31.2-11.3,64-23.1,67.1-23.7
				C2515.2,1142.4,2521,1149.4,2525.9,1161.8z"/>
		</g>
		<g>
			<g>
				<path class="st11" d="M2217.5,731.7l-27.3,46l-35-5.7c-1.6-7.9-3.3-16.1-4.9-24.4c-7.2-37.2-13.1-75.1-6.4-79.4
					c4.7-3.1,7.3,3.3,8.6,9.1c-1.2-10-2-26,4.4-29.1c6.7-3.2,10.3,13.6,11.8,23.5c-1-9.7-1.7-26.6,4.9-30.9
					c7.4-4.8,10.2,19.8,11.1,30.3c-0.4-8.5-0.4-25.5,6-27.1c7.6-1.8,9.1,36.3,9.3,44.5c0-4.4,0.6-16.7,6.9-16
					C2214.6,673.5,2217.5,731.7,2217.5,731.7z"/>
				<path class="st12" d="M2217.5,731.7l-27.3,46l-35-5.7c-1.6-7.9-3.3-16.1-4.9-24.4L2217.5,731.7z"/>
				<path class="st13" d="M2431.2,945.5l-94.2,108.5l-10.8,12.4c-31.1-8.4-57.5-31.7-79.5-61.6c-64.4-87.6-91.5-232.7-91.5-232.7
					l62.3-40.3C2288.3,1007.7,2431.2,945.5,2431.2,945.5z"/>
				<path class="st14" d="M2339.2,1041.1l-2.2,12.8l-10.8,12.4c-31.1-8.4-57.5-31.7-79.5-61.6
					C2264.7,1018.3,2310.3,1049.5,2339.2,1041.1z"/>
			</g>
			<path class="st13" d="M2530.2,1161.5c-48.6,32.4-109,41.7-165.8,44.9c-16.6,0.9-33.1,1.2-49.7,0.5c-8-0.3-17.4,0-25.1-2.6
				c-14.7-4.9-4.9-17.1,7.3-28.1s17.1-178.3,17.1-178.3l117.2-52.5l90.4,26.9l1.9,68.4l1,36.5l1.2,44.7c0.2,7.7,3.7,14.8,9.6,19.8
				C2544,1149.3,2537.7,1156.4,2530.2,1161.5z"/>
			<path class="st14" d="M2524.4,1077.3c-17.9-5.3-29.7-19.4-29.7-19.4l28.7-17.1L2524.4,1077.3z"/>
			<g>
				<path class="st11" d="M2708.9,781.8l12.9,51.9l35.2,4.6c3.8-7.1,7.8-14.5,11.7-22c17.6-33.6,34.1-68.2,28.9-74.2
					c-3.7-4.3-7.9,1.1-10.9,6.3c4-9.2,9.3-24.4,4.1-29.1c-5.5-5-13.7,10.1-18,19.2c3.7-9,9.2-25,4.1-31c-5.7-6.8-15.5,16-19.3,25.9
					c2.8-8,7.7-24.4,2-27.7c-6.8-3.9-19.2,32.2-21.7,40c1.3-4.2,4.2-16.1-2.1-17.3C2728.3,726.9,2708.9,781.8,2708.9,781.8z"/>
				<path class="st12" d="M2708.9,781.8l12.9,51.9l35.2,4.6c3.8-7.1,7.8-14.5,11.7-22L2708.9,781.8z"/>
				<path class="st13" d="M2439.7,941.8c0,0,163.6,33,269.2-160l48.1,56.5c0,0-135.9,222.9-262.3,219.5L2439.7,941.8z"/>
			</g>
			<path class="st14" d="M2420.6,1009.9c-22,0-36.2-15-36.4-15.2l3.6-3.3c1.1,1.2,28.4,29.7,66.3,0.9l3,3.9
				C2443.6,1006.5,2431.2,1009.9,2420.6,1009.9z"/>
			
				<rect x="2252" y="1062.7" transform="matrix(6.200162e-02 -0.9981 0.9981 6.200162e-02 1104.7192 3305.7478)" class="st14" width="118.3" height="4.9"/>
			<path class="st14" d="M2729.1,875.9c-20.4-20.4-40.3-60-41.2-61.7l4.4-2.2c0.2,0.4,20.4,40.6,40.2,60.4L2729.1,875.9z"/>
			
				<rect x="2159.6" y="789.1" transform="matrix(0.8565 -0.5161 0.5161 0.8565 -93.3493 1247.3822)" class="st14" width="74.1" height="4.9"/>
			<circle class="st15" cx="2413.3" cy="1034.6" r="8.1"/>
		</g>
		<g>
			<path class="st11" d="M2464.2,888.9l-8.9,68.8c-2,15.8-16.5,26.9-32.2,24.9l0,0c-15.8-2-26.9-16.5-24.8-32.3l8.9-68.8
				L2464.2,888.9z"/>
			<path class="st7" d="M2432,911.7c0,0-7.9,29.6-33.8,38.5l6.1-47.5L2432,911.7z"/>
			<path class="st11" d="M2390.3,833c0,0-9.4,40.8-11.1,69.8c-1,16.7,21.2,42.7,60.9,6.6l24.4-23.2l1.9-40.1l-36.6-16.3L2390.3,833z
				"/>
			<path class="st15" d="M2456.2,883.9c0,0,3.7-22.2-6.4-30.1c0,0-58.3,17.6-85-34c0,0,17.3,6.4,36.7-6.8
				c17.7-12,48.2-19.3,64.9,10.5c0,0,41.8-2,10.7,60.3L2456.2,883.9z"/>
			
				<ellipse transform="matrix(0.5731 -0.8195 0.8195 0.5731 325.1666 2398.844)" class="st11" cx="2465.1" cy="887.3" rx="21" ry="17.8"/>
			<g>
				<path class="st7" d="M2394.1,871.8c0,1.8-1.5,3.3-3.3,3.3s-3.3-1.5-3.3-3.3c0-1.8,1.5-3.3,3.3-3.3S2394.1,870,2394.1,871.8z"/>
				<path class="st7" d="M2418.8,873.6c0,1.8-1.5,3.3-3.3,3.3s-3.3-1.5-3.3-3.3c0-1.8,1.5-3.3,3.3-3.3S2418.8,871.8,2418.8,873.6z"
					/>
				<path class="st7" d="M2394.8,897.6c-0.3,0-0.6-0.1-0.8-0.3c-2.9-2.7-4.1-5.5-3.6-8.1c0.7-3.7,4.5-5.9,6-6.6l1.9-7.8
					c0.2-0.7,0.8-1.1,1.5-0.9c0.7,0.2,1.1,0.8,0.9,1.5l-2.2,8.9l-0.6,0.2c0,0-4.5,1.9-5.1,5.1c-0.3,1.8,0.6,3.8,2.9,5.9
					c0.5,0.5,0.5,1.2,0,1.7C2395.4,897.5,2395.1,897.6,2394.8,897.6z"/>
				<path class="st7" d="M2399.2,862.6c-0.3,0-0.7-0.1-0.9-0.4c-5-5.5-12.3-1.8-12.4-1.8c-0.6,0.3-1.3,0.1-1.6-0.5
					c-0.3-0.6-0.1-1.3,0.5-1.6c0.1,0,9.1-4.6,15.3,2.3c0.5,0.5,0.4,1.3-0.1,1.7C2399.8,862.5,2399.5,862.6,2399.2,862.6z"/>
				<path class="st7" d="M2425.9,867.5c-0.3,0-0.7-0.1-0.9-0.4c-6.2-6.9-14.3-2.8-14.6-2.6c-0.6,0.3-1.3,0.1-1.7-0.5
					c-0.3-0.6-0.1-1.3,0.5-1.6c0.1-0.1,10.1-5.2,17.6,3.1c0.4,0.5,0.4,1.3-0.1,1.7C2426.5,867.4,2426.2,867.5,2425.9,867.5z"/>
				<path class="st7" d="M2397.9,905.6c-1.8,0-3-0.2-3.1-0.2c-0.7-0.1-1.1-0.7-1-1.4c0.1-0.7,0.7-1.1,1.4-1c0.1,0,10.2,1.6,16.6-5.5
					c0.4-0.5,1.2-0.5,1.7-0.1c0.5,0.4,0.5,1.2,0.1,1.7C2408.6,904.6,2401.8,905.6,2397.9,905.6z"/>
				<circle class="st16" cx="2434.7" cy="888.2" r="11.9"/>
			</g>
			<path class="st7" d="M2459.1,891.1c-0.1,0-0.2,0-0.3,0c-0.7-0.2-1-0.8-0.9-1.5c0.1-0.2,1.4-5.5,6.2-8c3.2-1.7,7-1.7,11.5-0.1
				c0.6,0.2,1,0.9,0.7,1.6c-0.2,0.6-0.9,1-1.6,0.7c-3.8-1.3-7-1.3-9.5,0c-3.8,2-5,6.4-5,6.5C2460.1,890.7,2459.6,891.1,2459.1,891.1
				z"/>
		</g>
	</g>
	<g>
		<g>
			<polygon class="st12" points="566.1,1200.7 547.2,1252.6 609.5,1267.9 624.8,1203.1 			"/>
			<path class="st7" d="M661,1175c-5.4,32.1-32.1,53-69.8,44.8c-29.8-6.5-50.4-28.8-38.4-67.7c10.2-33.1,37.7-54.1,68.2-51.9
				C658.7,1103.1,667,1139.4,661,1175z"/>
		</g>
		<g>
			<g>
				<polygon class="st9" points="215.8,1720.9 116.5,1812.1 251.1,1812.1 276.9,1726.6 				"/>
				<path class="st12" d="M362.4,1715.2l-85.5,11.4l-25.8,85.5h124.3C375.4,1812.1,364.4,1713.1,362.4,1715.2z"/>
			</g>
			<path class="st17" d="M616.4,1685.9l-89,125.4l-0.5,0.8h-232v-0.1l5.9-53.3l4-35.9l2.3-20.6l131.1-18.8l-9.8-66.7
				c-10.6-22.6-13.2-45.2-12.3-64.8c1.7-34.9,14.7-60.6,14.7-60.6l121.3-4.1l5.7,17.5l15.1,46.8L616.4,1685.9z"/>
			<g>
				<polygon class="st9" points="342,1720.9 242.7,1812.1 377.3,1812.1 403.1,1726.6 				"/>
				<path class="st12" d="M488.6,1715.2l-85.5,11.4l-25.8,85.5h124.3C501.6,1812.1,490.6,1713.1,488.6,1715.2z"/>
			</g>
			<path class="st17" d="M715.7,1760.9c-8.2,15.6-19.5,26.3-33.2,33.7c-40.4,22-100.6,14.6-155.1,16.9c-8.5,0.3-16.7,0.6-24.5,0.8
				c-20,0.4-37.4,0.3-49.9,0c-1.9,0-3.6,0-5.2-0.1c-9.7-0.2-15.3-0.5-15.3-0.5l2.9-89.3l0.8-24.9l145.3-12.2l-50.7-128.4l-20.2-51.1
				l47.2-0.8l82.1-1.4l13.6-0.2c0,0,2.5,5.8,6.6,15.8c0.5,1.3,1.1,2.6,1.7,4.1c17,41.7,52.6,138.3,57.9,197.8
				C721.3,1738,720.4,1752.1,715.7,1760.9z"/>
			<path class="st18" d="M661.7,1523.1c0,0-38.3,19.7-88.9,28.5c-12.8,2.2-26.8,4.1-42.2,5.2c-32.6,2.4-71,1.8-114.7-4.8
				c1.7-34.9,14.7-60.6,14.7-60.6l121.3-4.1l5.7,17.5l82.1-1.4l20.3,15.5L661.7,1523.1z"/>
			<path class="st19" d="M715.7,1760.9c-8.2,15.6-19.5,26.3-33.2,33.7c-2.7-6.4-4.2-13.6-4.2-21.1c0-25.5,17.6-46.9,41.4-52.6
				C721.3,1738,720.4,1752.1,715.7,1760.9z"/>
			<path class="st18" d="M434.8,1811.6l-4.9-0.2l3.7-116.3l2.1-0.2c1.5-0.2,146.2-15.5,199.5-12.2l-0.3,4.9
				c-49.4-3-178.4,10.1-196.6,12L434.8,1811.6z"/>
			<path class="st18" d="M552.3,1687.6l-31.5-83.1c-3.3-2.1-17.1-10.9-26.7-21.2l3.6-3.3c10.2,11,26.2,20.6,26.3,20.7l0.7,0.4
				l32.1,84.7L552.3,1687.6z"/>
			
				<rect x="325.7" y="1793.9" transform="matrix(0.4532 -0.8914 0.8914 0.4532 -1412.1664 1290.6653)" class="st4" width="40.4" height="4.9"/>
			
				<rect x="188.9" y="1791.5" transform="matrix(0.4532 -0.8914 0.8914 0.4532 -1484.785 1167.4006)" class="st4" width="40.4" height="4.9"/>
		</g>
		<g>
			<path class="st20" d="M471.5,1281.3c-34.2,62.4-55.4,129.8-68.3,200.3c-2.1,11.4,4.3,22.8,15.2,26.7
				c78.9,28.4,160.9,31.4,245.4,13.5c11.1-2.4,19-12.3,18.8-23.7c-0.9-39.8-1.7-132,7-190.7L471.5,1281.3z"/>
			<path class="st12" d="M527.3,1111.5c0,0,39.5-35.4,36.7-39.7c-3.1-4.9-9.3-3.5-12.3-2.5c-1.1,0.4-1.8,0.7-1.8,0.7
				s0.7-0.3,1.8-0.7c5-2,19.1-8.3,15.4-13.4c-3.1-4.3-13.2-2.7-13.2-2.7s17.3-13.5,7.9-14.3c-9.4-0.8-20.5,4.3-20.5,4.3
				s11.1-10.4,5.8-11.6c-2.8-0.6-35.7,12.3-75.2,36c11.1,17.1,28.7,42.9,39.7,58.9L527.3,1111.5z"/>
			<path class="st20" d="M797.6,1221.7l-32.7-95.3l-63,29.8c8.7,36.7,18.7,74.5,18.7,74.5C590.6,1277,452,1188.5,452,1188.5l59.7-62
				c-11-16-28.6-41.9-39.7-58.9c-28.1,16.8-59.5,39-85.8,65.7c-13.6,13.8-22.5,31.5-25.5,50.6v0c-3.7,23.6,2,47.7,15.8,67.2l77,97
				l228,18.1l84.1-53.4c9-5.7,16.7-13.2,22.7-22C802.1,1270.4,805.5,1244.9,797.6,1221.7z"/>
			<g>
				<path class="st4" d="M375.6,1146.3c4.5,7.6,7.4,16.3,8.1,25.4c1.5,18.7-5.6,39.1-19.1,55.7c0.4,1.3,1,2.6,1.5,3.8
					c15-17.6,22.9-39.6,21.3-59.8c-0.8-10.2-4.2-19.9-9.5-28.3C377.1,1144.2,376.3,1145.2,375.6,1146.3z"/>
				<path class="st4" d="M800.2,1231.6c-11.4,6.2-21.2,15.2-27.9,26.4c-9.9,16.6-12.3,36.9-7.9,55.5l1.2-0.8c0.7-0.4,1.3-0.9,2-1.4
					c-3.8-17.3-1.4-36.1,7.8-51.5c6.2-10.3,15.1-18.6,25.4-24.5C800.6,1234.1,800.4,1232.9,800.2,1231.6z"/>
				<path class="st4" d="M682.2,1471.5c-32.1,9.6-65.3,15.6-99.1,13.7c-24.7-1.4-49.2-7-73-12.5c-13.3-3-27-6.2-40.7-8.6
					c-23.1-4-43.7-5.2-62.1-3.4c-0.3,1.2-0.5,2.5-0.8,3.7c18.4-1.9,39-0.8,62.3,3.3c13.6,2.4,27.3,5.5,40.5,8.5
					c23.9,5.5,48.7,11.1,73.6,12.6c4.4,0.2,8.7,0.4,13.1,0.4c29.4,0,58.3-5.5,86.3-13.8C682.3,1474.1,682.2,1472.8,682.2,1471.5z"/>
				<path class="st4" d="M508.9,1233.4c1.6-4.9,3.2-10,3.9-15.3c-1.2-0.5-2.3-0.9-3.5-1.4c-0.6,5.3-2.2,10.3-3.9,15.6
					c-1.5,4.6-3,9.3-3.8,14.2c-4.4,26.7,15,56.2,43.3,65.8c7.8,2.7,16.2,4,24.9,4c18.5,0,38.2-5.9,55.9-17.3
					c24-15.4,42-38,56.5-58.4c-1.7,0.3-3.4,0.5-5.1,0.8c-13.9,19.3-31,40.2-53.4,54.6c-25.1,16.1-54.1,21-77.6,13
					c-26.7-9.1-45-36.7-40.8-61.7C506,1242.5,507.5,1237.9,508.9,1233.4z"/>
			</g>
			<path class="st12" d="M764.2,1124.2c-7.6-22.3-17.8-43.7-30.7-63.5c-5.4-8.2-10.3-14.9-12.9-15.7c-5.4-1.8-2.1,16.2-0.1,25.6
				c0.9,3.2,1.3,5.5,1.3,5.5s-0.6-2.2-1.3-5.5c-1.9-7-5.9-18.5-12.1-20.1c-7.8-2.1-1,23.1,1.2,30.8c0.4,1.3,0.7,2.2,0.7,2.2
				s-0.3-0.9-0.7-2.2c-1.1-3.4-3.8-9.6-9.1-11.8c-7.3-3.1,3.1,33,3.1,33s-5.7-16.3-13-14.5c-3.5,0.9,3.3,34.1,11.4,68.2l63-29.8
				L764.2,1124.2z"/>
		</g>
		<path class="st7" d="M315.3,1094.7c-16.6-0.6-32.1-10.9-39.2-25.8c-4.2,2.1-8.6,3.7-13.3,4.7c-15.5,3.4-31.3-2.2-38.6-13.4
			c-4.7-7.3-5.6-15.8-4.8-24c-15.3,8.1-35.6,12.2-46.1-1.3c-7.8-10.1-4.9-24.1-2.1-33.7c11.3-38,34.2-72.9,64.5-98.3l3.1,3.7
			c-29.6,24.8-52,58.9-63,96c-4.1,13.7-3.7,23,1.3,29.3c5.7,7.4,20.3,11.4,42.5-1.4c0.2-0.1,0.4-0.2,0.6-0.4
			c0.7-3.8,1.7-7.4,2.7-10.8c9.4-31.8,25.1-62.4,45.5-88.5c10.2-13,21.3-18.2,30.6-14.3c8.3,3.5,11.4,13.1,10.8,20.5
			c-0.6,8-4.7,15.1-8.4,21c-19.2,30.6-45.7,56.6-76.7,75.1c-1.3,8.5-1.1,17.3,3.5,24.4c7.2,11.2,22.4,13.7,33.4,11.3
			c4.3-0.9,8.5-2.5,12.4-4.5c-5.4-15.6-1.7-33.7,9.6-45.8c6.4-6.8,14-9.7,20.6-7.7c3.6,1.1,6.6,3.7,8.5,7.4
			c2.4,4.6,2.9,10.4,1.3,15.5c-2.6,8.3-9.3,14.4-15.4,19.5c-5.7,4.8-11.8,9.5-18.3,13.3c6.3,13.2,20.4,22.7,35.1,23.2L315.3,1094.7z
			 M300,1015.1c-4.7,0-9.5,3.3-12.7,6.7c-9.7,10.4-13.1,26.5-8.8,40.1c6-3.6,11.7-8,17-12.4c5.8-4.9,11.7-10.2,13.9-17.2
			c1.2-3.8,0.8-8.3-1-11.7c-0.9-1.8-2.7-4.1-5.6-5C301.9,1015.3,301,1015.1,300,1015.1z M292.7,920.1c-8.5,0-16.8,9.2-20.3,13.7
			c-20,25.6-35.5,55.7-44.7,86.9c-0.6,1.9-1.1,3.9-1.6,5.9c28.7-18,53.3-42.5,71.3-71.2c3.4-5.5,7.1-11.9,7.7-18.8
			c0.5-5.9-2.1-13.1-7.9-15.6C295.7,920.4,294.2,920.1,292.7,920.1z"/>
	</g>
	<g>
	</g>
	<g>
	</g>
	<g>
	</g>
	<g>
	</g>
	<g>
	</g>
	<g>
	</g>
</g>
</svg>
