<?xml version="1.0" encoding="utf-8"?>
<!-- Generator: Adobe Illustrator 23.0.5, SVG Export Plug-In . SVG Version: 6.00 Build 0)  -->
<svg version="1.1" id="Layer_1" xmlns="http://www.w3.org/2000/svg" xmlns:xlink="http://www.w3.org/1999/xlink" x="0px" y="0px"
	 viewBox="0 0 804 889" style="enable-background:new 0 0 804 889;" xml:space="preserve">
<style type="text/css">
	.st0{fill:#38506D;}
	.st1{fill:#BEF0FC;}
	.st2{fill:#5F87C0;}
	.st3{fill:#FEA8B7;}
	.st4{fill:#251F21;}
	.st5{fill:#FEDDB1;}
	.st6{fill:#FDDCB1;}
	.st7{fill:#FAFAF8;}
	.st8{fill:#FCA7B6;}
	.st9{fill:#3A4156;}
	.st10{fill:#766352;}
	.st11{fill:#F7F9FA;}
	.st12{fill:#EDF2F7;}
	.st13{fill:#FCF9F5;}
	.st14{fill:#EDF2F6;}
	.st15{fill:#715F4D;}
	.st16{fill:#7F555D;}
	.st17{fill:#FBF4F6;}
	.st18{fill:#FCFAF3;}
	.st19{fill:#F4F6F8;}
	.st20{fill:#5F3F45;}
	.st21{fill:#EBF1F6;}
	.st22{fill:#5A3B3F;}
	.st23{fill:#79535C;}
	.st24{fill:#7E545E;}
	.st25{fill:#6BCCF4;}
	.st26{fill:#FEFEFE;}
	.st27{fill:#FEFDFD;}
	.st28{fill:#FDFDFD;}
	.st29{fill:#FEFCFD;}
	.st30{fill:#766351;}
	.st31{fill:#F1F4F7;}
	.st32{fill:#FDFEFE;}
	.st33{fill:#FCFCFD;}
	.st34{fill:#786652;}
	.st35{fill:#615142;}
	.st36{fill:#6E5D4D;}
	.st37{fill:#514035;}
	.st38{fill:#73604E;}
	.st39{fill:#746250;}
	.st40{fill:#796654;}
	.st41{fill:#3A2F24;}
	.st42{fill:#4A3F33;}
	.st43{fill:#524338;}
	.st44{fill:#7B6855;}
	.st45{fill:#615143;}
	.st46{fill:#4F4035;}
	.st47{fill:#534536;}
	.st48{fill:#725F4D;}
	.st49{fill:#685748;}
	.st50{fill:#534538;}
	.st51{fill:#563A3F;}
	.st52{fill:#744C53;}
	.st53{fill:#6B454B;}
	.st54{fill:#764E55;}
	.st55{fill:#6B474E;}
	.st56{fill:#794F57;}
	.st57{fill:#744A52;}
	.st58{fill:#754C53;}
	.st59{fill:#684349;}
	.st60{fill:#664248;}
	.st61{fill:#674249;}
	.st62{fill:#664249;}
	.st63{fill:#462E33;}
	.st64{fill:#7A5057;}
	.st65{fill:#83565F;}
	.st66{fill:#7F535B;}
	.st67{fill:#6B474D;}
	.st68{fill:#7B5159;}
	.st69{fill:#724B51;}
	.st70{fill:#774D55;}
	.st71{fill:#764D54;}
	.st72{fill:#635342;}
	.st73{fill:#6C5B49;}
	.st74{fill:#705F4D;}
	.st75{fill:#655444;}
	.st76{fill:#7E525A;}
	.st77{fill:#7C5159;}
	.st78{fill:#7C5158;}
	.st79{fill:#2B171B;}
	.st80{fill:#492D32;}
	.st81{fill:#392428;}
	.st82{fill:#784F56;}
	.st83{fill:#7F535C;}
	.st84{fill:#72614E;}
	.st85{fill:#736250;}
	.st86{fill:#715F4E;}
	.st87{fill:#726251;}
	.st88{fill:#7D525A;}
	.st89{fill:#81545B;}
	.st90{fill:#714951;}
	.st91{fill:#724950;}
	.st92{fill:#69464C;}
	.st93{fill:#6C464C;}
	.st94{fill:#734B52;}
	.st95{fill:#764C54;}
	.st96{fill:#5D4C3D;}
	.st97{fill:#52453A;}
	.st98{fill:#7A6754;}
	.st99{fill:#7B6753;}
	.st100{fill:#8A7762;}
	.st101{fill:#826E59;}
	.st102{fill:#754D53;}
	.st103{fill:#ECF1F6;}
	.st104{fill:#EAEFF5;}
	.st105{fill:#6B8EC1;}
	.st106{fill:#7092C3;}
	.st107{fill:#829EC6;}
	.st108{fill:#7D9BC4;}
	.st109{fill:#FEA9B8;}
	.st110{fill:#2E292B;}
	.st111{fill:#2C2728;}
	.st112{fill:#2E2A2C;}
	.st113{fill:#FCF9F3;}
	.st114{fill:#FDF7EF;}
	.st115{fill:#FDFAF4;}
	.st116{fill:#FCF4F6;}
	.st117{fill:#FCF3F5;}
	.st118{fill:#FDF4F6;}
	.st119{fill:#FE695A;}
	.st120{fill:#6E6F8E;}
	.st121{fill:#DADAE1;}
	.st122{fill:#53536B;}
	.st123{fill:#FEA636;}
	.st124{fill:#FEA637;}
	.st125{fill:#FED868;}
	.st126{fill:#FCD86A;}
	.st127{fill:#FEE183;}
	.st128{fill:#F6C344;}
	.st129{fill:#FED968;}
	.st130{fill:#646B93;}
	.st131{fill:#454C6E;}
	.st132{fill:#FE5C4C;}
	.st133{fill:#FE5B4B;}
	.st134{fill:#FE6152;}
	.st135{fill:#FEDD6D;}
	.st136{fill:#454661;}
	.st137{fill:#FDE083;}
	.st138{fill:#FDDA6A;}
	.st139{fill:#FDD969;}
	.st140{fill:#FDE183;}
	.st141{fill:#6E6E8B;}
	.st142{fill:#FEE688;}
	.st143{fill:#686B8F;}
	.st144{fill:#646A91;}
	.st145{fill:#39416A;}
	.st146{fill:#F4D784;}
	.st147{fill:#D7DDEA;}
	.st148{fill:#D7DDEB;}
	.st149{fill:#D7DCE8;}
	.st150{fill:#FBD768;}
	.st151{fill:#FEDE7F;}
	.st152{fill:#FED563;}
	.st153{fill:#FEDD7D;}
	.st154{fill:#FEDD7E;}
	.st155{fill:#FEB84D;}
	.st156{fill:#FEB84E;}
	.st157{fill:#FED766;}
	.st158{fill:#FEDE7E;}
	.st159{fill:#FEDF80;}
	.st160{fill:#FED564;}
	.st161{fill:#FED05F;}
	.st162{fill:#FED765;}
	.st163{fill:#FEDB7B;}
	.st164{fill:#FEDB6A;}
	.st165{fill:#FED665;}
	.st166{fill:#FEDD6C;}
	.st167{fill:#FEE081;}
</style>
<path class="st0" d="M242.7,628c4.6,30.4,12.7,54.9,26.6,69.9c8.5,9.2,17.7,11.9,27.1,11.9c85.4,0,170.7-0.5,256.1,0.3
	c18.1,0.2,34.1-7.6,47.3-34.8c12.7,0.1,25.4,0.2,38,0.3c3.1,20.6,0.4,36.4-8.2,49.4c-15.3,23-32.9,34.1-50.7,43.4
	c-23.2,12.1-46.8,19-70.6,24.8c-36.7,8.8-73.5,10.2-110.2,7.6c-32.6-2.3-65.3-7.9-97.4-21.7c-22.4-9.6-44.6-19.7-65.1-42
	c-5.7-6.2-10.7-13.9-14.9-23.9c-6.1-14.5-6-31.6,0.1-46.2c4.5-10.9,10.3-18.2,16.5-23.9C240.5,640,242.9,636.2,242.7,628z"/>
<path class="st1" d="M676.3,718c-0.8,0.1-2-0.1-2.5,0.4c-1.4,1.3,0.3,1.7,1.1,2.2c3.7,2.3,7,4.9,10.1,8c11.7,11.9,10.6,25.7-3,35.8
	c-15.3,11.4-32.7,18.1-50.7,23.5c-26.6,8-53.8,13.1-81.2,16.6c-15.3,2-30.7,3.1-46.1,4.4c-22.5,2-45.1,1.7-67.7,2.7
	c-20.9,0.9-41.7,0-62.5-0.7c-30.2-1-60.3-4.1-90.1-8.8c-34.2-5.4-68-12.6-99.5-27.7c-7.8-3.7-14.8-8.7-20.7-15.2
	c-10.3-11.4-5.6-25.1,4.5-33.2c10.5-8.5,22.7-13.9,35.3-18.3c0.4-0.5,0.8-1.1,1.4-1.2c1.6-0.4,3.1-0.8,1.3-2.8
	c1.7-1.6,4-1.5,6.1-1.8c12.1-1.7,24.1-4,36-7c2.3-0.6,4.5-1.6,6.9-0.6c0.6,0.5,1,1.1,1.2,1.8c0.8,4.3-2.2,6.2-5.3,7.9
	c-4.6,2.5-9.2,4.9-12.8,8.6c-6.9,7-7,13.8-0.3,21c6,6.5,13.8,10.3,21.9,13.5c25.3,10.1,51.8,14.8,78.6,18.3
	c38.6,5.1,77.4,6.5,116.2,5c41.4-1.6,82.7-5.5,122.7-17.6c10.7-3.2,21.3-6.9,30.9-13.1c7.6-4.9,13-10.7,11.8-20.5
	c-0.2-1.3,0-2.6,1.4-3.4c2.8-1.4,5.9-1.1,8.9-1.1c13.5,0,27-0.2,40.5,0.4C672.9,715.3,675.6,714.6,676.3,718z"/>
<path class="st2" d="M293.9,708c-11.6,3.4-23.4,5.8-35.4,7.1c-1,0.1-1.9,0.5-2.8,0.8c-1.8,1.7-4.2-0.2-6,1c-0.6,0-1.2,0.1-1.8,0.1
	c-2.3,1.2-4.9-0.2-7.2,0.9c-29.1,1-58.2-2.4-87.3-0.8c-15.9,0.9-31.9,2-47.8,2.9c-2.5,0.1-6.1,1.4-7.4-1.3c-1.6-3.3,2.8-4.3,4.1-6.6
	c0.3-0.5,1-0.8,1.6-1.2c1.7-1,3.4-2,5.3-2.8c13.2-6.3,27.1-10.2,41.7-11.2c6-1.1,12.2,0.4,18.2-0.8c2.7-0.4,2.2-1.9,0.6-2.8
	c-2.9-1.7-5.2-4.5-8.6-5.4c-2.4-0.9-3.7-3-5.3-4.7c-1.2-1.1-1.2-2.3,0-3.4c0.8-1,1.8-2,2.8-2.8c5.1-1.9,10.2-3.9,15.3-5.8
	c4.9-1.7,10-1.3,15-2.1l0,0c1.6-2.3-0.2-3.6-1.5-5.1c-4.9-5.4-11.2-9.1-16.5-14.1l0.1,0c-3.1-2.6-7.3-3.9-9.1-7.9
	c-0.6-0.7-1.3-1.3-1.9-2c-0.9-1.4-2.3-2.6-3-4.1l0.1,0c-1.6-0.7-1.2-2.6-2.2-3.7c-2-3.5-0.6-6.9,1.1-9.8c6-10.3,22-12.2,30.3-3.8
	c4.1,4.2,7,9.3,10.4,14c7.1,9.9,16.6,13.9,28.6,12.3c9.7-1.3,12.6-7.2,7.3-15.4c-4-6.4-9.4-11.6-14.1-17.5
	c-4.9-6.2-9.2-12.7-9.7-20.9c-0.4-0.6-0.6-1.2-0.5-1.9c1.5-7.8,6.8-12.4,13.6-15.3c6.1-2.6,12-1.6,17.1,3c4.6,4,7.9,8.9,10.4,14.4
	c0.6,1.1,1.1,2.3,1.6,3.4c5.1,10.6,8.1,22.1,13.3,32.7c0.1,0.3,0.2,0.6,0.4,0.9c1.7,3.1,2.8,7.4,7.1,7.4c4.8,0,6.1-4.4,7.8-8
	c2.7-5.9,4.1-12.3,6-18.5c0.8-2.5,1.2-5.2,2.9-7.4c0.5-0.3,1-0.4,1.6-0.3c1.7,0.8,3.2,1.7,3.7,3.6c0.7,2.6,0.5,5.3,0.5,7.9
	c0,25.9,0,51.8,0,77.7c0,4-0.1,8,0.4,11.9C295.3,704.7,295.5,706.5,293.9,708z"/>
<path class="st3" d="M619,725.9c-3.4-2-7.1-0.6-10.6-0.7c-10.8-0.4-21.6-0.1-32.3-0.1c-0.7,0.8-1.6,1.3-2.6,1.3
	c-8.1,0-16.2,1.5-24.2-0.9c-1.2-2.2,0.3-3.8,1.3-5.4c4.4-7,5.9-14.6,5.9-22.8c-0.1-30.1-0.1-60.1,0-90.2c0-2.7-0.7-5.7,1.7-8
	c0.5,0,1.2-0.1,1.2,0.5c0.8,5.6,4.4,5.6,8.6,4.4c0.9-0.3,2-0.2,3-0.2c6.4-0.1,13.5-0.4,16.2,6.7c2.8,7.3,1.5,14.7-4.1,20.8
	c-0.8,2.4-1.5,4.7-2.3,7.1c-0.4,1.1-0.9,2.3,0.3,3.2c1.2,0.9,2.3,0.1,3.2-0.6c3.9-3,7.7-6.3,11.7-9.3c12.5-9.5,26.6-14.9,42.4-15.4
	c1.2,0,2.3,0,3.5,0.2c6.2,1.1,7.7,4.1,4.2,9.4c-3.6,5.4-8.2,10-12.8,14.6c-0.6,0.6-1.2,1.2-1.7,1.8c-2.2,2.6-5.7,5.2-4.3,8.9
	c1.6,4.1,5.8,2,8.9,2.1c12,0.2,23.9,0.8,35.1,5.7c6.6,2.9,7.7,7.7,3.8,13.7c-3,4.7-7.4,8.1-11.1,12.1c-1.5,1.7-3.8,3.5-2.5,6
	c1.4,2.5,4.1,1.4,6.4,1.1c8.8-1.4,17.4-4.1,26.5-3.7c8.5,0.4,14.5,4.9,16.6,13.1c2.5,9.6-0.2,17.4-7.6,21.7
	c-7.3,4.2-15.5,4.8-23.6,5.1C659.5,728.7,639.3,725.6,619,725.9z"/>
<path class="st3" d="M558.1,248.2c1.9,5.3,0.3,10.8,0.8,16.2c0.5,5.1-2.3,11.6,1.3,14.8c3.2,2.8,9.6,0.8,14.6,0.8
	c24.2,0.1,48.3,0.3,72.5-0.1c12.1-0.2,22.8,8,22.1,21.9c-0.7,13.5-0.1,27-0.2,40.5c0,12.5-8,20.5-20.6,20.6
	c-24.8,0.1-49.7,0.1-74.5,0c-4.2,0-7.9,0.9-11.3,3.2c-1.3,1.9-3.3,2.9-5.3,3.5c-4.5,1.5-6.2,4.6-5.8,9.2c0.2,1.8,0,3.7,0,5.5
	c0,103.8,0,207.5-0.1,311.3c0,3.3,1.3,7.1-2.2,9.7c-1.9-1.2-1.7-3.1-1.9-4.9c-0.1-2.2-0.1-4.3-0.1-6.5c0-103.7,0-207.4,0-311.1
	c0-8.7,0-8.6-8-5.5c-2.8,1.1-6.2,4.1-8.7,1.7c-2.5-2.5,0.6-5.8,1.6-8.7c1.9-5.2,2.1-5.2-3.2-6.9c-7.2-2.4-11.7-7.3-14.2-14.3
	c-1.1-9.9-0.3-19.8-0.5-29.6c-0.1-5.4,0.1-10.9-0.2-16.3c-0.1-0.6-0.1-1.2-0.1-1.8c0.6-3.2,0.1-6.4,1.2-9.5
	c5.1-9.2,13-13.5,23.4-13.2c1.3,0,2.7-0.1,4,0c3.4,0.2,4.8-1.3,4.8-4.7c-0.1-7.2-0.1-14.3,0-21.5c0-2.3-0.5-4.7,1.6-6.5
	c2.8,1.2,2.2,3.8,2.3,6c0.2,6.5,0.1,13,0.1,19.5c0,1.3,0,2.7,0.2,4c0.2,1.4,0.6,2.7,2.3,2.7c2.1-0.1,2.3-1.7,2.3-3.2
	c0.3-5.8,0-11.6,0.2-17.5C556.6,254.2,555.7,250.9,558.1,248.2z"/>
<path class="st4" d="M549.1,704.7c1.2-2.2,0.7-4.6,0.7-6.8c0-106.4,0.1-212.8-0.1-319.3c0-5.6,1.1-9.2,6.9-10.5
	c2.1-0.5,4.1-1.4,6.1-2.1c0,5.6-0.1,11.3,0.2,16.9c0.2,3.8-1,6.8-3.9,9.2c-0.4,0.5-0.7,1.1-0.8,1.7c-0.3,36.8,0,73.7-0.1,110.5
	c-0.1,28.7,0.7,57.3,0.4,86c0,2.4,0.1,4.7,1,6.9c0.1,0.7-0.1,1.3-0.6,1.8c-1.7,1.4-0.9,3.4-0.9,5.1c0,30.2-0.2,60.4,0.1,90.7
	c0.1,11.2-2.1,21.4-9.2,30.2c-2.7,6.3-8.5,8.7-14.2,10.8c-5.6,2.1-11.6,2.8-17.7,2.8c-61,0-121.9,0-182.9,0
	c-11.3,0-21.8-2.5-30.3-10.8c-5.4-5.2-9.6-11-9.7-18.9c0.1-0.3,0-0.6-0.2-0.8c-1.6-32.4-0.3-64.9-0.7-97.4c0-2.2-0.2-4.3-0.4-6.5
	c-0.1-11.9-1.1-23.9,0.6-35.8c0.2-1.1,0-2.3,0-3.5c0-66.6,0-133.3,0-199.9c0-1.6,0.5-3.3-0.6-4.9c-0.8-0.6-1.7-1.1-2.3-1.8
	c-2.9-3.8-2.3-21.7,1.1-25.3c1.5-1.6,2.3-2.9,0.2-4.5c-2.5-2-3-4.6-2.9-7.6c0.1-4.2,0-8.3,0-12.5c0-1.5-0.2-3.3,0.9-4.3
	c4.5-3.7,3.3-8.6,3.4-13.3c0-12.8,0-25.6,0-38.5c0.1-22.8,15.6-38.2,38.4-38.2c62.1,0,124.2,0,186.4,0c22.9,0,36.4,11.5,40,34.1
	c-0.1,9.3-0.3,18.5-0.2,27.8c0,3.1-0.6,4.3-4.1,4.4c-3.6,0-3.9-1.5-3.9-4.4c-0.2-9.9,0.9-19.8-0.6-29.7c-1.4-0.9-1.8-2.3-2.3-3.7
	c-4.5-12-13.6-17.6-25.9-18.8c-2.2-0.2-4.3-0.1-6.5-0.1c-59,0-118,0-177,0c-4.4,0-8.7,0.3-12.9,1.2c-12.1,2.4-20.5,12.2-20.9,24.6
	c0,1.2,0,2.3,0,3.5c0,148.6,0,297.3-0.1,445.9c0,8.4,2.5,15.4,8.5,21.1c5.1,4.8,11.3,6.6,18.3,6.6c35-0.1,70,0,105,0
	c27.8,0,55.7-0.3,83.5,0.1c14,0.2,23.2-5.6,28.2-18.5C547.5,706.8,547.9,705.5,549.1,704.7z"/>
<path class="st2" d="M269,290.1c-0.3,5.7-2.8,9.5-7.5,11.4c-15.2,6.4-30.4,12.8-45.7,18.9c-7,2.8-12.9,0.2-15.9-6.8
	c-5.5-12.8-10.9-25.8-16.2-38.7c-2.7-6.6-0.1-12.9,6.5-15.8c15.3-6.5,30.7-12.8,46.2-19c6.2-2.5,12.4,0,15,6.1
	c5.8,13.4,11.3,27,16.9,40.6C268.7,287.9,268.8,289.3,269,290.1z"/>
<path class="st2" d="M464.1,141.3c-0.8,12.6-1.4,24.8-2.2,36.9c-0.5,7.2-5.8,11.9-13.1,11.5c-16.3-0.9-32.6-1.8-48.9-3
	c-7.8-0.6-12.2-6.2-11.6-14c0.9-13.5,1.8-26.9,2.7-40.4c0.5-8,6-12.6,14-12.1c13.8,1,27.6,2.3,41.4,2.5
	C459.2,123,465.9,126.3,464.1,141.3z"/>
<path class="st2" d="M568.1,467.7c0.9-15.4,1.7-30.8,2.8-46.2c0.5-6.8,5.4-11.7,12.2-11.2c18.2,1.3,36.5,1.6,54.6,3.8
	c5.4,2.5,7.1,6.7,7,12.5c-0.3,13.8-2.2,27.4-2.1,41.2c0,7.6-7.4,14.9-16.2,12.8c-8.5-2-17.4-1.6-26.1-2c-7-0.3-13.9-1-20.9-1.2
	C573.4,477.1,569.5,473.6,568.1,467.7z"/>
<path class="st2" d="M222,368.1c10.3,4.2,20.6,8.4,30.9,12.6c7.9,3.2,10.5,8.7,7.4,16.7c-4.9,12.7-9.9,25.4-15.1,38
	c-3.1,7.6-9.1,10.1-16.6,7.1c-14.9-5.8-29.7-11.8-44.5-17.7c-7.6-3.1-10.2-9.2-7.1-17c4.3-11,8.8-21.9,13-32.9
	c5.1-13.1,8.4-14.8,21.7-10.9C215.3,365.3,218.7,366.4,222,368.1z"/>
<path class="st5" d="M659.9,559c-7.1,8.1-13.1,17.1-20.8,24.7c-0.6,0.6-1.2,1.1-1.8,1.6c-0.3,0-0.5,0-0.8,0.1
	c-3.5,0-7.1,0.3-10.6-0.3c-2.7-0.9-5.4-0.5-8.1-0.6c-2.5-0.1-5.1,0.1-7.6-0.3c-2.4-0.9-4.9-0.7-7.4-0.7c-2.2,0-4.4,0.1-6.6-0.3
	c-2.5-0.9-5.2-0.7-7.8-0.7c-0.8,0-1.5,0-2.3,0c-1,0-2-0.1-2.9-0.2c-0.5-0.1-0.9-0.2-1.4-0.3c-1.3-0.5-2.7-0.6-3.9-1.4
	c-0.3-0.3-0.5-0.7-0.5-1.2c0.6-2,2.4-3.1,3.7-4.7c0.9-0.9,1.6-2.1,2.4-3.2c7-7.2,13.9-14.5,21.4-21.2c1.2-0.7,2.4-1.1,3.7-1.4
	c2.9-0.3,5.7-0.1,8.6-0.2c5.1,0.1,10.2-0.3,15.3,0.3c5,1.4,10,0.4,15,0.7c2.3,0,4.7,0,7,0c3.1,0.2,6.2-0.3,9.3,0.5
	c0.5,0.2,0.9,0.5,1.2,1C664.1,554.1,662.3,556.7,659.9,559z"/>
<path class="st5" d="M558.9,598.9c0-0.3,0-0.6,0.2-0.9c5.2-6.7,10.1-13.5,18.2-17.1c1,0.1,2,0,3.1,0.3c2.2,1.2,4.7,0.6,7,0.7
	c2.5,0.1,4.9-0.2,7.4,0.2c2.3,1.3,4.8,0.6,7.3,0.8c2.2,0.1,4.4-0.1,6.6,0.2c2.3,1.3,4.7,0.7,7.1,0.8c0.5,0,1.1,0,1.6,0
	c2.2,0,4.3-0.1,6.5,0.1c2.2,1.1,4.6,0.9,7,0.9c2.1,0.4,4.1-0.9,6.2,0c0,0,0.4,0.2,0.4,0.2c-0.1,2.9-2.9,3.7-4.5,5.3
	c-14.3,14.8-29.7,28.2-47.1,39.3c-0.8,0.5-1.7,0.9-2.6,1.3c2.1-5.1,4.3-10,4-15.8c-0.3-6.2-3.6-10-9.8-10.3c-4.5-0.2-9-0.5-13.4,0.9
	c-3.8,1.3-5.6,0.1-4.9-4C559.1,601,558.9,599.9,558.9,598.9z"/>
<path class="st5" d="M665,551.9c0-0.2,0-0.5,0-0.7c-2.3-1.7-4.9-0.1-7.3-1c-5.6-0.6-11.2-0.1-16.7-0.3c-4.8,0.3-9.4-0.8-14.2-0.5
	c-5-1-10-0.2-15-0.5c-0.5,0-1-0.2-1.5-0.4c-1.4-3.2,1.8-4.1,2.9-5.9c0.8-0.8,1.7-1.7,2.5-2.5c6.8-6.8,13.6-13.6,20.4-20.4
	c1.6-1.6,3.2-3.4,5.7-3.9c13.5-0.1,27-0.6,40.5,0.2c0.6,0.3,1.1,0.6,1.5,1.1c-3.3,10.5-9,19.7-15.1,28.7c-1.3,1.9-3,3.6-2.9,6.1
	C665.7,552.4,665.4,552.4,665,551.9z"/>
<path class="st3" d="M213,501.3c0.4,0.2,0.8,0.5,1.2,0.7c2.4,1.2,4.7,2.5,6.8,4.2c10.1,7.2,21.9,10.9,33.2,15.8
	c0,0.3-0.1,0.5-0.1,0.8c-0.8,4.3-1.7,8.5-1.7,12.9c-0.9,5.4-1.1,10.8-1.9,16.2c0,1.4-0.1,2.7-0.4,4.1c-1.4,3.3,0.5,7.7-3.1,10.4
	c-2.7,0.9-4-1.5-5.9-2.4c-1.9-1.6-4.3-2.6-6.3-4.1c-0.9-0.7-1.6-1.6-2.3-2.4c-1.1-1.4-2.5-2.4-3.8-3.5c-1.4-1.1-2.9-2-4.1-3.2
	c-1.6-1.5-3.6-2.6-5.2-4.1c-1.7-1.6-4-2.5-5-4.8c-0.3-0.7-0.4-1.5-0.5-2.2c-0.1-1.8-0.1-3.7-0.1-5.5c-0.1-2.7,0.3-5.4-0.6-8
	c-0.5-2.7-0.3-5.5-0.4-8.3c0-0.5,0-1.1,0-1.6c-0.1-3.2,0.4-6.3-0.4-9.4c-0.3-1.3-0.4-2.6-0.1-3.9C212.3,502.1,212.6,501.6,213,501.3
	z"/>
<path class="st3" d="M254.1,521.9c15.1,9.6,22.5,25.2,30.9,40c0.8,1.6,0.2,3.2,0.3,4.8c-1.4,8.2-1.1,16.7-3.6,24.8
	c-1,1.4-2.2,1.2-3.5,0.6c-1.9-1.4-3.5-3.1-5.6-4.3c-1.4-1-2.9-2-4.2-3.2c-1.5-1.5-3.4-2.5-5-3.9c-1.4-1-2.8-1.9-4-3.1
	c-1.6-1.5-3.5-2.6-5.1-3.9c-1.6-1.3-3.5-2.1-5.2-3.2c-0.6-0.5-0.9-1.2-1.2-1.9c-0.7-3,1.6-5.6,1-8.6c-0.1-1.7,0.2-3.3,0.6-4.9
	c0.5-5.3,1.3-10.6,1.8-15.9c1-5.6,0.9-11.4,2.4-16.9L254.1,521.9z"/>
<path class="st5" d="M558.2,392.2c0.2-0.2,0.5-0.2,0.8,0c0,50.3,0,100.6,0,151.5c9.2-4,17.9-7.3,26-11.7c1,0.8,1.2,1.9,1.3,3.1
	c-0.5,4.9-1.1,9.9-1.9,14.8c-0.1,1.8,0,3.7-0.4,5.5c-0.8,2.3-0.8,4.7-0.3,7.1c0,0.5-0.1,0.9-0.2,1.4c-1.3,1.7-1.5,3.6-1,5.6
	c0.1,0.5,0,0.9,0,1.3c-0.2,0.7-0.5,1.3-0.9,1.9c-0.9,2.5-2.6,4.4-4.5,6.2c-0.7,1.2-1.8,2-2.9,2.9c-3.8,3.7-7.5,7.6-11.3,11.3
	c-1.3,1.2-2.5,3.5-4.4,2.8c-2.1-0.7-1-3.2-1-4.9c-0.1-55.5,0-111,0-166.5c0-9.7,0-19.3,0-29C557.5,394.4,557.1,393.1,558.2,392.2z"
	/>
<path class="st3" d="M233.2,557c0.6,0.6,1.2,1.1,1.8,1.7c0.3,2.2-1.4,2.3-2.8,2.5c-2,0.3-4,0.2-5.9,0.2c-3.4,0-6.7,0-10.1,0
	c-3,0-6,0-8.9,0c-6.9,0-13.7-0.1-20.6,0c-0.6,0-1.1,0.2-1.6,0.4c-7.1-6.5-15.6-10.9-23-17.1c-1.3-1.1-2.5-2.1-3.1-3.8
	c-0.1-2,1.5-1.9,2.7-2.3c5.1-0.9,10.2-2,15.2-3.6c0.8-0.2,1.6-0.4,2.4-0.4c5.1-0.3,10.1-1.5,15.1-2.4c1.8-0.3,3.6-0.7,5.4-0.3
	c4,1.6,6.7,5.1,10.5,6.9c0.4,0.2,0.7,0.5,1.1,0.8c0.6,0.6,1.2,1.2,1.9,1.8c0.5,0.4,1,0.9,1.4,1.3c1.3,1.5,3.3,2.1,4.6,3.6
	c1.4,1.7,3.6,2.4,5,4c1.4,1,2.7,2.1,4.1,3.1C230,554.7,231.6,555.8,233.2,557z"/>
<path class="st3" d="M185,561.8c0-0.3,0-0.5,0-0.8c6.8-1.2,13.7-0.2,20.5-0.5c9.3,1,18.7,0.2,28.1,0.4c2.3,0,4.6,0,6.5,1.7
	c2.3,1.6,4.2,3.9,7.2,4.5c1,0.5,1.4,1.4,1.8,2.3c0.2,0.2,0.5,0.3,0.8,0.4c1.3,1.4,2.9,2.5,4.5,3.5c1.4,1.6,3.4,2.6,5,4
	c1.2,1.3,2.7,2.1,4.1,3.1c1.4,1.8,3.7,2.6,5.2,4.3c0.8,1.2,0.7,2.2-0.6,3.1c-3,1.7-6.4,2.4-9.6,3.4c-2.4,0.7-4.7,1.4-7.2,1.7
	c-0.8,0-1.5-0.2-2.1-0.7c-2.7-3.7-4.5-8.1-7.7-11.6c-9.9-10.8-25.9-7.7-31.2,6.1c-0.5,1.4-0.9,2.9-1.3,4.3c-2.6-1.8-3.1-5-4.7-7.4
	C199,575.4,192.4,568.3,185,561.8z"/>
<path class="st5" d="M582,570.7c0-0.2,0-0.4,0-0.6c-0.2-2.3-0.3-4.6,1-6.7l-0.1,0.1c0.7-1.6-0.2-3.2,0-4.9c0.3-2.5,0.6-4.9,0.6-7.4
	c1.1-4.3,0.9-8.9,2-13.2c0.9-2.4-0.4-5.2,1.5-7.4c1.3-1.2,2.6-2.4,4-3.6c1.4-1,2.6-2.2,4-3l0,0c2.2-1.4,3.7-3.7,6-5
	c4.5-3.6,8.3-7.8,11-12.9c2.2-2.6,3-6.3,6.3-7.9c0.5,0.6,0.7,1.4,0.8,2.2c0.1,2.4-1,4.7-0.8,7.1c-0.9,5.4-1.1,10.9-2,16.3
	c0,1.3-0.1,2.7-0.4,4c-0.6,1.7-0.7,3.5-0.7,5.4c0,2.8-0.9,5.5-1.4,8.3c-1.1,2.5-3.7,3.8-5,6.2c-1.1,1.5-2.9,2.3-3.9,3.9
	c-6.8,6.8-13.6,13.6-20.4,20.5C582.9,573,582.5,571.9,582,570.7z"/>
<path class="st3" d="M178.7,536.1c-0.5,0-1.1-0.1-1.6-0.1c-5.5,1.2-11.1,2.3-16.7,3.1c-1,0.2-1.7,0.8-2.2,1.7
	c-5.6-8.2-4.7-17.1-2.2-25.9c1.3-4.6,3.2-9,5.8-13c0.2,0.1,0.4,0.2,0.6,0.2c1.4,1,2.7,2.1,4,3.3c1.2,1.2,2.7,2,4,3.1
	c1.6,1.4,3.5,2.4,5,3.9c1.5,1.5,3.4,2.5,5,3.9c1,0.8,2.2,1.4,3.2,2.3c1.7,1.8,3.9,3,5.7,4.6c1.1,0.8,2.2,1.5,3.3,2.4
	c1.4,1.8,4.1,2.4,4.7,5c-0.1,0.5-0.4,0.9-0.9,1.2C190.8,533.9,184.4,533.8,178.7,536.1z"/>
<path class="st5" d="M671.1,484.8c13.6,8,16,18.8,12.8,30.4c-1.1,0.9-2.5,0.8-3.8,0.8c-12-0.1-23.9,0.2-35.9-0.1
	c-0.9-0.2-1.6-0.7-1.7-1.7c0-1.9,1.6-2.5,2.7-3.6c2.9-2.5,5.5-5.4,8.3-8.1c2.3-2.4,4.9-4.5,6.8-7.3
	C663.8,491.6,666.3,486.9,671.1,484.8z"/>
<path class="st3" d="M191,487c6.7,4.7,13.4,9.4,20.1,14.1c1.6,2.8,0.7,6.2,1.8,9.1c0.2,2.6,0.1,5.2,0.1,7.8c0.2,2.9-0.5,5.9,0.7,8.7
	c0.6,3.4,0.3,6.9,0.2,10.4c0,1.7,0,4-3,2.9l0.1,0.1c-2.7-2.5-5.9-4.1-8.7-6.4c-0.5-0.4-1-0.9-1.5-1.2c-1.4-0.8-2.4-1.9-3.4-3.1
	c-1.4-1.4-3.4-2.1-4.7-3.7c-1-0.9-2.2-1.4-3.2-2.3c-1.6-1.9-4-2.8-5.7-4.6c-0.9-0.9-2.2-1.4-3.2-2.2c-1.5-1.6-3.5-2.4-5-3.9
	c-1.6-1.3-3.4-2.5-5-4c-1.3-1.1-2.9-1.7-4-3c-1.5-1.2-3-2.2-4.5-3.4c0,0-0.3-0.3-0.3-0.3c4.4-6.5,9.8-11.8,17.1-14.9
	C183,486.2,187,484.4,191,487z"/>
<path class="st6" d="M671.1,484.8c-3.4,3.6-6.7,7.3-10.1,10.9c-2.7,2.1-4.9,4.8-7.5,6.9c-2.8,2-4.5,5.5-8,6.7
	c-1.1-0.4-1.3-1.4-1.3-2.4c0.4-1.9,0.4-3.9,0.4-5.9c0-1,0.2-2,0.4-3c0.6-1.7,0.6-3.5,0.5-5.3c0-4.4,1.9-8.9,0.2-13.3
	c4.4-1,8.8-0.6,13.1,0.7l0,0c3.1,0.8,6.4,0.7,9,3C669,483.6,670.1,484.2,671.1,484.8z"/>
<path class="st7" d="M659,480c-4.3,0.5-8.6-0.9-12.9,0.1c-0.2,0.2-0.4,0.3-0.5,0.5c-11.4,1.2-19.2,8-25.8,16.7
	c-0.6,0.5-1.2,0.8-2,0.8c-1.7,2.8-2.7,6.1-5.8,8c2.7-10,10.3-16.3,18.1-23.3c-4.7-1.4-8.7-2.2-13.5-1.8c-3.3,0.3-7.3-0.7-10.9-1.2
	c-8.9-1.3-17.8-1.1-26.7-1.8c-6.1-0.5-10.3-4.2-10.9-10.3c2.8,6.7,8,9,15,9.3c15.1,0.6,30.2,1.7,45.2,2.7
	c7.1,0.5,12.8-3.9,13.3-11.2c1.1-14.4,1.7-28.8,2.5-43.3c0.3-5.1-3-8.2-6.5-11.2c4.9,1,8.7,6.2,7.8,11.7c-1,6.4-0.7,12.9-1.2,19.3
	c-0.6,8.1-1.9,16.2-1.3,24.3c0.2,3.3-1.7,5.6-3.8,8.4C645.9,479.8,653.1,475.3,659,480z"/>
<path class="st8" d="M286.1,562.1c2.3,2.3,4,5.1,6.9,6.7c1.3,9.2,0.2,18.5,0.6,27.7c-1.5,5.1-2.4,5.3-7.8,1.6
	c-1.6-1.4-3.8-2.3-4.1-4.8c1.7-6.5,1.4-13.2,2.5-19.8c0.4-1.8,1.1-3.5,0.9-5.3c0-0.5,0-1,0-1.6C285,565,284.9,563.4,286.1,562.1z"/>
<path class="st9" d="M292.9,598.1c0-9.8,0-19.5,0-29.3c0.1-1.3,0.2-2.7,0.2-4c0-66.8,0-133.5,0-200.3c0-1.5-0.1-3-0.2-4.5
	c2,1.3,1.1,3.3,1.1,5c0,77.1,0,154.2,0,231.3c0,2.6,0.4,5.4-1.2,7.8c-1.3-0.2-2.1-0.9-2.8-2C289.7,599.9,293.4,600.5,292.9,598.1z"
	/>
<path class="st10" d="M643.2,514.6c13.6,1,27.2,0.2,40.7,0.6c0,0.6,0,1.3,0,1.9c-0.3,0-0.6-0.1-1-0.1c-12-1-24-0.1-36.1-0.5
	C645.7,516.4,642.9,518.2,643.2,514.6z"/>
<path class="st11" d="M171.1,649.9c6.4,4.1,12.3,8.8,17.5,14.2c1.2,1.3,3.7,3.1,0.4,5c-0.6-5.1-4.8-7.1-8.1-10
	C177.6,656.1,173.4,654,171.1,649.9z"/>
<path class="st11" d="M162,642c3.4,2.2,6.5,4.8,9.1,7.9c-2.4-1-4.9-2-7.3-2.8C161,646.1,162.4,643.8,162,642z"/>
<path class="st12" d="M169.2,696.1c-6,1.7-12.1,0.7-18.2,0.8C157,695,163.2,696.4,169.2,696.1z"/>
<path class="st11" d="M189.1,669c-4.9,1.7-10,1.3-15,2.1C178.8,668.4,184,669.1,189.1,669z"/>
<path class="st13" d="M665,551.9c0.3,0,0.6,0,0.9-0.1c-2.2,2.2-1.9,6.5-6,7.1C660.9,556.1,662.9,554,665,551.9z"/>
<path class="st3" d="M191,487c-4-1.5-8,0.1-12.1,0C183,485.2,187,483.5,191,487z"/>
<path class="st14" d="M222,368.1c-3.6-0.8-7-2.1-10.1-4.1C215.6,364.4,219.2,365.3,222,368.1z"/>
<path class="st7" d="M668,483c-3-1-6-2-9-3C662.3,480,665.8,479.4,668,483z"/>
<path class="st15" d="M587.1,530.7c-0.1,2.6,0.5,5.3-0.8,7.7c-1.3-0.8-0.2-2.4-1.1-3.4c0-1-0.1-2-0.1-3
	C585.7,531.6,586.4,531.1,587.1,530.7z"/>
<path class="st16" d="M211.8,510.4c-1.1-3-0.7-6.2-0.7-9.3c0.6,0,1.3,0.1,1.9,0.2c-0.1,0.3-0.1,0.5-0.1,0.8
	C211.3,504.7,214.5,507.9,211.8,510.4z"/>
<path class="st17" d="M221,506.2c-2.7-0.7-4.9-2.2-6.8-4.2C217.2,502.1,219.3,503.7,221,506.2z"/>
<path class="st18" d="M601,519c-1.6,2.1-3.1,4.5-6,5C596.6,521.8,598,519.5,601,519z"/>
<path class="st19" d="M156,683.2c1.8,1.6,3.5,3.1,5.3,4.7C158.2,687.7,156.8,685.9,156,683.2z"/>
<path class="st20" d="M286.1,562.1c0,1.6-0.1,3.2-0.1,4.9c-1.1,0.6-1.4-0.3-1.8-1c-0.4-1.5-0.1-2.9,0.9-4.1
	C285.4,562,285.7,562.1,286.1,562.1z"/>
<path class="st21" d="M109.3,708.1c-1.5,1.5-3.1,2.6-5.3,2.8C105.2,709,107,708.1,109.3,708.1z"/>
<path class="st11" d="M155,632.2c1.3,0.9,1.8,2.3,2.2,3.7C154.4,635.9,155.2,633.8,155,632.2z"/>
<path class="st18" d="M595,524c-0.9,1.6-2.1,2.8-4,3C591.8,525.4,593,524.1,595,524z"/>
<path class="st11" d="M157.1,635.9c1.4,1.1,2.7,2.2,3,4.1C158.4,639.1,157,638.1,157.1,635.9z"/>
<path class="st22" d="M158.2,540.7c0-0.7-0.4-1.6,0.7-1.8c1.2-0.2,2.7-1.4,3.1,1c-1,0.4-2,0.7-3,1.1
	C158.7,540.9,158.4,540.8,158.2,540.7z"/>
<path class="st19" d="M158.8,677c-0.6,1.3-1.4,2.3-2.8,2.8C156.1,678.1,157,677.1,158.8,677z"/>
<path class="st3" d="M289.3,602.2c-2.6,8.8-4.6,17.7-8.2,26.1c-0.7,1.7-1.6,3.3-2.6,4.8c-4.2,6.4-8.4,6.4-12.5-0.1
	c-3.9-6.1-6-12.9-8.6-19.6c-2.4-6.2-4.8-12.4-7.2-18.6c0.2-0.7,0.6-1.3,1.3-1.7c2.8-1.3,5.9-1.7,8.8-2.8c3.2-0.7,6.3-2.1,9.5-3
	c0.7-0.2,1.4-0.3,2.1-0.1c1.9,1.1,3.6,2.5,5.4,3.8c1,1.2,2.3,1.8,3.7,2.2c0.4,0.3,0.6,0.6,0.8,1c0.9,1.6,2.7,2.2,4,3.3
	C286.6,599.3,289.3,599.6,289.3,602.2z"/>
<path class="st23" d="M289.3,602.2c-1.5-1.3-3-2.7-4.5-4c0.2-0.7,0.6-1.1,1.3-1.2c2.2,0.7,3.9,4.9,6.9,1.2c1.2,2.9-1.8,2.8-2.9,4.1
	c0,0-0.4,0-0.4,0S289.3,602.2,289.3,602.2z"/>
<path class="st24" d="M251,594.1c-0.3,0.3-0.6,0.5-0.9,0.8c-0.3-0.8-0.7-1.7-1-2.5c0.6-0.1,1.2-0.2,1.9-0.3
	C251.6,592.7,251.6,593.4,251,594.1z"/>
<path class="st25" d="M549.1,704.7c-2,13.7-13,23.4-27.3,23.6c-12.7,0.2-25.3,0.1-38,0.1c-50.2,0-100.3,0-150.5,0
	c-20.6,0-31.7-11-31.7-31.3c0-147.8,0-295.6,0-443.4c0-20.1,11.2-31.3,31.3-31.3c62.3,0,124.6,0,187,0c15.7,0,27.1,9.3,29.2,23.8
	c0,9.8-0.2,19.6-0.1,29.4c0.1,3.6-1.2,4.6-4.6,4.5c-4-0.2-8-0.1-11.9,0.2c-7.7,0.7-12,6.3-16.5,11.7c-1.6-1.3-1.7-3.2-2.2-4.9
	c-2.8-10.1-9.5-15.4-19.9-15.5c-12.2-0.2-24.3,0-36.5,0c-33,0-66,0-99,0c-5.3,0-10.2,1-14.6,4.2c-6,4.4-9.2,14-7.1,21.1
	c0.5,1.8,1.7,2.3,3.3,2.5c2,0.2,4,0.1,6,0.1c53.5,0,106.9,0,160.4,0c2.9,0,6.1-0.8,8.5,1.7c0,0.3,0,0.6,0,0.9
	c-2.6,2.2-5.7,1.5-8.6,1.5c-53.5,0-107,0-160.5,0c-9.3,0-9.3,0-9.3,9.3c0,22.3,0,44.7,0,67c0,14.1,7,21.4,21.1,21.5
	c45.2,0.2,90.3,0.2,135.5,0c13.3-0.1,20.9-7.9,21.2-21.3c0.2-8.2,0-16.3,0.1-24.5c0-2.3-0.3-4.7,1.6-6.6c3.7,7.9,9.3,13.3,18.4,14
	c2.8,0.2,2.3,1.5,1.5,3.3c-1.9,4-3.7,8.1-6.1,13.4c5.9-2.4,10.8-4.2,15.5-6.3c2.9-1.3,4-0.8,3.7,2.4c-0.1,1.3,0,2.7,0,4
	c0,107.9,0,215.8,0,323.6C549,703.7,549.1,704.2,549.1,704.7z"/>
<path class="st26" d="M516,348.9c0,10.7,0,21.3-0.1,32c0,13.3-8.9,22.1-22.3,22.1c-45.5,0-90.9,0-136.4,0
	c-13.1,0-22.7-8.4-22.4-22.2c0.5-24.3,0.3-48.6,0.1-72.9c0-4.5,1-5.9,5.7-5.9c58.1,0.2,116.2,0.1,174.4,0.1c1.6,1.5,0.9,3.4,0.9,5.2
	C516,321.1,516,335,516,348.9z"/>
<path class="st2" d="M515,301.2c-57.8,0-115.6,0-173.4-0.1c-6.8,0-6.3,0-6.8-6.6c-1.4-17.2,11.4-24.7,24.4-24.6
	c44.5,0.5,89,0.2,133.4,0.2c14.7,0,22.4,7.2,23.5,22C515.4,295.1,516.7,298.3,515,301.2z"/>
<path class="st27" d="M588.9,323c0-5.1,3.3-8.8,8.1-8.9c4.5-0.1,8.9,4,8.9,8.3c0.1,4.8-3.6,8.5-8.4,8.6
	C592.4,331.1,588.9,327.9,588.9,323z"/>
<path class="st28" d="M627.4,331.1c-4.9,0-8.3-3.3-8.4-7.9c-0.1-4.6,3.8-8.8,8.3-9c4.4-0.1,8.6,4,8.7,8.6
	C636.1,327.6,632.5,331.1,627.4,331.1z"/>
<path class="st29" d="M575.1,323c0,4.9-3.5,8.2-8.7,8.1c-4.5-0.1-8.2-3.8-8.2-8.3c-0.1-4.1,4.5-8.6,8.8-8.6
	C571.7,314.1,575.1,317.9,575.1,323z"/>
<path class="st30" d="M558.2,392.2c0,67,0,134,0.1,201.1c0,0.6,0.1,1.2,0.2,2.6c5.9-5.7,11.3-10.8,16.6-15.9c0.7,0,1.3,0.2,1.8,0.6
	c0.3,0.4,0.4,0.8,0.2,1.2c-5.1,2.7-8.2,7.6-12.4,11.3c-1.9,1.6-3.2,3.8-5.5,4.9c-1.7-1.4-2-3.2-2-5.3c0-65.5,0-131,0-196.5
	C557.1,394.8,556.5,393.2,558.2,392.2z"/>
<path class="st28" d="M229.1,262c3.2,1.7,4.2,4.7,3.8,8c-0.9,7.6-2,15.1-3.1,23.9c-7.2-6.6-15.4-10.4-20.9-17.7
	c-1.8-5.5-0.1-9.6,5-12.3l0,0c1.7-0.7,3.6-0.9,5.1-2.1l-0.1,0C222.3,260.2,225.7,260.1,229.1,262z"/>
<path class="st31" d="M213.9,263.9c-4.1,3.1-5.7,7.2-5,12.3C206.2,270.2,207.8,266.3,213.9,263.9z"/>
<path class="st31" d="M229.1,262c-3.4-0.9-6.8-0.8-10.2-0.1C222.3,259.3,225.7,259.1,229.1,262z"/>
<path class="st31" d="M219,261.9c-1.2,1.8-3,2.2-5.1,2.1C215.3,262.5,217,261.9,219,261.9z"/>
<path class="st32" d="M419.2,140.8c4.1,1.8,9,0.8,14.1,0.1c4.5-0.6,8,1.9,9.8,6.2c2,4.6,0.2,8.8-3,11.8c-3.7,3.5-8.2,6.2-12.3,9.3
	c-1.2,0.9-2.4,1.1-3.7,0.2c-5.9-3.9-11.5-8-14.3-14.9C407.1,147,411.3,140.8,419.2,140.8z"/>
<path class="st32" d="M584.1,451.7c0.3-3.4,0.8-7.8,2.1-12.1c0.9-2.9,2.6-4.6,6-3.2c1.5,0.6,3.2,1,4.8,1.2c2.8,0.4,4.9-0.1,5-3.7
	c0.1-3.6,1.5-6.8,3.7-9.6c0.5-0.7,1.2-1.3,2.1-1.1c1,0.2,1,1.2,1,2c-0.4,5.7,1.2,10.8,4.2,15.6c0.7,1.1,0.5,2.2,0.2,3.4
	c-1.6,5.9-3.1,11.9-4.5,17.9c-0.5,2.2-1.5,2.9-3.9,2.1c-5.2-1.7-10.5-3.1-15.8-4.6C583.8,458.1,583.8,458.1,584.1,451.7z"/>
<path class="st33" d="M613.1,467.1c1.3-6.5,2.6-12.5,3.7-18.6c0.5-2.6,1.8-2.8,3.9-2.1c1.6,0.5,3.2,1.1,4.8,1.3
	c2.4,0.4,2.9,1.7,2.4,3.9c-1.3,5.7-2.4,11.4-4,17c-1.3,4.9-4.9,1.5-7.4,1.5C614.2,470.1,612.3,469.5,613.1,467.1z"/>
<path class="st28" d="M233,419c-8.6,8.8-22.6,8.8-31.2,0.1c-8.7-8.9-8.6-23.2,0.4-31.8c9-8.7,23-8.3,31.7,0.9
	C242.3,397.1,241.9,410.8,233,419c-4.7-1.5-8.6-4.9-13.4-6.2c-4.4-1.1-8.4-7-7.7-11.3c0.4-2.6,1.6-3.9,4.4-3.1
	c1.6,0.8,0.8,1.8,0.1,2.8c-0.9,1.4-0.9,2.7,0.4,3.9c2,1.1,4.4,1.2,6.2,2.8c1.7,1.5,3.6,2.8,5.3,4.5c-2.3-3-6.2-4.2-8.1-7.5
	c-0.6-2.1-1.4-4.1-1-6.4c1.7-3.8,3.1-7.6,4.5-11.1c-1.5,3-2.4,6.8-4.2,10.1c-0.8,0.7-1,2.5-2.7,1.4c-1.9-4.5-1.5-8.9,0.6-13.2
	c-2.7-0.6-4.7,0.1-6.7,2.1c-2.2,2.2-4.5,4.4-7.1,6.2c-4.6,3.2-5.4,7.5-4.6,12.6c0.1,0.3-0.1,0.7,0.1,1c3.6,5,8.2,9,12.7,13
	c2.4,2.2,5.7,1,8.7,1.1c1.4,0,2.5-0.7,3.5-1.7C226.7,417.2,229.7,417,233,419z"/>
<path class="st34" d="M594.5,583.1c-2.5-0.1-5-0.2-7.5-0.2c-0.7-0.4-1.5-0.7-1-1.8c0.7,0,1.3,0,2,0c2.7,1.2,5.7-0.2,8.5,0.8
	c2.2,0.1,4.4,0.1,6.5,0.2c2.4,1.1,5.1-0.1,7.5,0.8c2.5,0.1,5,0.1,7.5,0.2c0.3,0.2,0.4,0.5,0.3,0.9c-0.3,0.4-0.9,0.6-1.3,0.9
	c-0.4,0-0.7,0-1.1,0c-2.4-0.9-5,0.2-7.4-0.7c-2.2-0.1-4.4-0.2-6.6-0.3C599.5,582.9,596.9,584,594.5,583.1z"/>
<path class="st35" d="M640.9,549.1c5.8-0.1,11.5-0.4,17.2,0.7c-0.9,1-2,0.5-3,0.6c-2.4,0.2-4.8-0.5-7.1,0.4
	c-5.1,0.1-10.3,0.4-15.4-0.7C635.2,548.5,638.3,550.3,640.9,549.1z"/>
<path class="st36" d="M610.2,547.9c5.3,0.5,10.8-0.3,16.1,1c-2.9,1.6-6.2-0.1-9.2,1c-3,0-6.1,0-9.1,0
	C607.8,548.2,609,548,610.2,547.9z"/>
<path class="st37" d="M617.1,549.8c2.9-1.8,6.2-0.1,9.2-1c4.9,0.1,9.8,0.2,14.7,0.3c-2.6,1.8-5.6,0.2-8.3,1.1
	C627.5,550.1,622.3,550,617.1,549.8z"/>
<path class="st38" d="M617,584.9c0.3-0.3,0.7-0.6,1-0.9c2.8-0.9,5.6-0.6,8.4-0.1c3.5,0.1,7.2-0.7,10.6,1.1c-2,0.5-3.8,1.8-6,0.9
	c-2.4-0.9-5,0.1-7.4-0.7C621.4,585,619.2,585,617,584.9z"/>
<path class="st39" d="M576.9,577.9c1.8-1.7,3.3-3.7,4-6.1c1.3,0.8,1.2,2.1,1.3,3.4c-1,1.7-2.5,2.9-4,4.1
	C577.4,579.1,577,578.6,576.9,577.9z"/>
<path class="st40" d="M586,581c0.3,0.6,0.6,1.2,1,1.8c-2.4,0.1-4.9,0.4-7.2-0.7c0.7-1.4,2.3-0.2,3.2-1.1C584,581,585,581,586,581z"
	/>
<path class="st41" d="M655.1,550.3c1-0.1,2-0.3,3.1-0.4c2.3,0.4,5-1.4,6.8,1.3c-3.3-0.1-6.7-0.2-10-0.3c-0.3-0.2-0.4-0.4-0.3-0.5
	C654.8,550.3,655,550.3,655.1,550.3z"/>
<path class="st42" d="M582.2,575.2c-1.5-0.7-1-2.2-1.3-3.4c0.4-0.4,0.8-0.7,1.1-1.1c0.8,0.5,1.3,1.5,2.5,1.2
	C583.9,573.1,583.5,574.5,582.2,575.2z"/>
<path class="st43" d="M610.2,547.9c-0.7,0.7-1.5,1.3-2.2,2c-1,0.5-2,1.1-3,1.6c0-2.2,1.8-3.2,3.1-4.4
	C609.1,546.5,609.6,547.3,610.2,547.9C610.2,547.9,610.2,547.9,610.2,547.9z"/>
<path class="st44" d="M626.4,583.9c-2.8,0-5.6,0.1-8.4,0.1c0-0.3,0-0.6,0-0.9C620.8,583,623.7,582.8,626.4,583.9z"/>
<path class="st40" d="M596.5,581.9c-2.8-0.3-5.8,1.1-8.5-0.8C590.9,581,593.8,580.8,596.5,581.9z"/>
<path class="st44" d="M610.5,582.9c-2.5-0.2-5.1,1-7.5-0.8C605.5,582.1,608.1,581.8,610.5,582.9z"/>
<path class="st45" d="M576.9,577.9c0.4,0.4,0.9,0.9,1.3,1.3c0,0.2,0,0.5-0.1,0.7c-0.1,0.4-0.3,0.7-0.6,0.9c-0.2,0.1-0.3,0.1-0.5,0.1
	c-0.8,0-1.6-0.2-2-1C575.6,579.3,575.8,578.2,576.9,577.9z"/>
<path class="st46" d="M655.1,550.3c-0.1,0.2-0.1,0.4-0.1,0.7c-2.3,0-4.6,0-7,0C650.3,549.3,652.8,550.3,655.1,550.3z"/>
<path class="st47" d="M583,581c-0.8,1.2-2.1,0.7-3.2,1.1c-0.9-0.1-1.8-0.2-2.8-0.3c0-0.3,0-0.6,0-0.8c0,0,0,0,0,0
	c1.7-0.9,3.5-0.6,5.2-0.2C582.5,580.8,582.8,580.8,583,581z"/>
<path class="st30" d="M582.2,580.9c-1.7,0.1-3.5,0.1-5.2,0.2c0.4-0.4,0.7-0.7,1.1-1.1C579.5,580.3,580.8,580.6,582.2,580.9z"/>
<path class="st44" d="M608.6,584.1c2.5,0.2,5-0.9,7.4,0.7C613.5,584.9,611,585.2,608.6,584.1z"/>
<path class="st34" d="M623.5,585.1c2.5,0.2,5.1-0.9,7.4,0.7C628.5,585.9,625.9,586.3,623.5,585.1z"/>
<path class="st40" d="M594.5,583.1c2.5,0.2,5.1-0.9,7.4,0.7C599.4,583.9,596.9,584.2,594.5,583.1z"/>
<path class="st48" d="M640.4,517.2c-8.1,8-16.2,15.9-24.3,23.9c-1.1-0.4-1.5-1.1-1.4-2.2c6.6-8.2,14.5-15.2,22-22.5
	c0.6-0.6,1.4-0.8,2.3-0.7C639.7,516,640.2,516.5,640.4,517.2z"/>
<path class="st49" d="M640.4,517.2c-0.5-0.4-0.9-0.8-1.4-1.2c-0.1-3,1.2-4.3,4.2-4c0.3,0.5,0.3,1-0.1,1.4c0,0.4,0,0.8,0.1,1.1
	c1,2.3,3.2,1.4,4.8,1.4c9.9,0.1,19.9,0,29.8,0.1c1.7,0,3.7-0.6,5.2,0.9C668.8,517,654.6,517.1,640.4,517.2z"/>
<path class="st50" d="M615.1,538.8c0.3,0.8,0.7,1.6,1,2.4c-0.6,0.7-1.3,1.3-1.9,2c-1.1,0.2-1.5-0.2-1.3-1.3c0.4-2.9,0.8-5.9,1.2-8.8
	c2-0.1,1.8,1.5,2,2.8C616.1,536.9,615.7,537.9,615.1,538.8z"/>
<path class="st39" d="M612.9,541.9c0.4,0.4,0.9,0.9,1.3,1.3c-1.3,1.6-2.7,3.1-4,4.7c-0.7-0.3-1.4-0.5-2.1-0.8
	C609.7,545.3,611.3,543.6,612.9,541.9z"/>
<path class="st51" d="M241,564c-2.2-1.7-4.6-2.1-7.4-2.2c-9.3-0.2-18.6,0.6-27.8-0.7c0.4-0.5,0.9-0.7,1.5-0.6c2.8,0,5.7,0,8.5,0
	c3.4-0.2,6.7,0.4,10.1-0.4c2.9-0.9,6.3,1.2,9-1.4c2,1.4,4.8,1.6,6.1,4.1C241.4,563.3,241.4,563.7,241,564z"/>
<path class="st52" d="M211,540c2.5-0.2,2.1-2,2.1-3.7c-0.1-3.3-0.1-6.6-0.2-9.9c-0.7-2.6-0.2-5.2-0.3-7.8c0-0.9,0.1-1.8,1.4-1.6
	c0.1,2.8,0.1,5.7,0.2,8.5c1,2.7-0.3,5.7,0.8,8.5c0,2,0,4,0,6.1c-0.6,0.8-0.9,1.9-2.1,2.2C211.6,542,211,541.2,211,540z"/>
<path class="st53" d="M252.1,539.3c-0.2,5.4-0.7,10.8-1.9,16.1c-1.3-0.8-0.2-2.4-1.1-3.4c0.7-5.7,1.3-11.3,2-17
	C253.7,535.9,252.2,537.8,252.1,539.3z"/>
<path class="st54" d="M252.1,539.3c-0.4-1.4,0.4-3.1-1.1-4.3c0.8-4.3-0.7-9.1,2.8-12.8C254.5,528,253.2,533.7,252.1,539.3z"/>
<path class="st55" d="M249,569.5c-0.7-0.6-1.4-1.2-2.1-1.7c-0.7-0.4-1.6-0.7-0.9-1.8c3.4-2.8,0.8-7.2,2.8-10.3c1.4,1.2,0.1,3,1,4.3
	C249.6,563.1,249.3,566.3,249,569.5z"/>
<path class="st56" d="M213.9,517c-0.3,0.3-0.6,0.7-0.9,1c-0.3,0.4-0.6,0.4-0.9,0c-0.1-2.5-0.2-5.1-0.3-7.6c0.8-2.7-0.8-5.7,1.1-8.3
	c0.1,1.2,0.2,2.4,0.3,3.5c1,3.4-0.3,7,0.8,10.4C213.9,516.3,213.9,516.7,213.9,517z"/>
<path class="st57" d="M224,551c-1.8-1.2-3.8-2.1-5-4.1c-0.3-0.9,0.1-1.2,0.9-1c2.1,0.9,3.7,2.3,5.2,3.9
	C225,550.5,224.6,550.9,224,551z"/>
<path class="st58" d="M220,546c-0.3,0.3-0.6,0.6-0.9,1c-2-1-3.8-2.1-5.1-3.9c0.2-0.7,0.6-1.2,1.4-1.4
	C216.8,543.2,218.4,544.6,220,546z"/>
<path class="st59" d="M246,566c0.3,0.6,0.6,1.2,0.9,1.8c-2.7-0.1-4.3-2-6-3.7c0-0.4,0.1-0.8,0.1-1.2
	C243.2,563.2,244.5,564.8,246,566z"/>
<path class="st16" d="M213.9,516c-1.9-3.3-0.6-6.9-0.8-10.4C214.3,509,213.9,512.5,213.9,516z"/>
<path class="st60" d="M233.2,557c-2.4,0-3.9-1.4-5.1-3.3c-0.1-0.5,0.1-0.8,0.6-0.7C230.9,553.7,232.5,554.9,233.2,557z"/>
<path class="st61" d="M228.8,553.1c-0.3,0.1-0.5,0.3-0.7,0.7c-1.8-0.3-2.9-1.7-4.1-2.7c0.4-0.4,0.8-0.8,1.2-1.1
	C226.5,550.8,228.1,551.4,228.8,553.1z"/>
<path class="st62" d="M249.8,559.9c-1.3-1.2-0.6-2.9-1-4.3c0.1-1.2,0.2-2.4,0.3-3.6c1.2,0.9,0.8,2.2,1.1,3.4
	C250.1,556.9,250,558.4,249.8,559.9z"/>
<path class="st56" d="M214.9,534c-1.9-2.7-0.6-5.6-0.8-8.4C215.3,528.3,215,531.1,214.9,534z"/>
<path class="st63" d="M215.3,541.7c-0.5,0.5-0.9,0.9-1.4,1.4c-0.3-0.3-0.7-0.6-1-0.9c0.4-1,1.1-1.7,2.1-2.2
	C215,540.6,215.1,541.2,215.3,541.7z"/>
<path class="st64" d="M284.1,566c0.6,0.3,1.2,0.7,1.8,1c0,0.3,0,0.7,0,1c-1.1,1.7,0,3.7-0.8,5.4c-1.4,6.8-0.2,13.9-2.8,20.5
	c-0.4,0.5-0.9,0.6-1.5,0.3l0,0c-0.5-0.8-0.5-1.6,0.1-2.4C282,583.2,283.1,574.6,284.1,566z"/>
<path class="st65" d="M276.9,592.1c-1.7-1.3-3.5-2.6-5.2-3.9c0.1-0.8,0.6-1.2,1.3-1.3c2,1,3.8,2.2,5.2,4
	C278,591.5,277.6,592,276.9,592.1z"/>
<path class="st66" d="M268,585c-2.1-0.8-3.8-2.2-5.2-3.9c0.2-0.7,0.6-1.1,1.3-1.2c1.8,1.2,3.7,2.2,5,4
	C269.4,584.9,268.9,585.2,268,585z"/>
<path class="st67" d="M268,585c0.3-0.4,0.7-0.7,1-1.1c1.3,1,2.7,2,4,3c-0.4,0.4-0.9,0.9-1.3,1.3c-0.5,0-0.9-0.1-1.4-0.1
	c-1,0.2-2.3,0.9-2.3-1.1C269,586.4,268.1,585.7,268,585z"/>
<path class="st68" d="M259,578c-2.1-0.8-3.7-2.3-5.2-3.9c0.2-0.7,0.6-1.1,1.3-1.2c1.8,1.2,3.8,2.1,5,4.1
	C259.9,577.6,259.6,577.9,259,578z"/>
<path class="st69" d="M255,572.9c-0.4,0.4-0.8,0.8-1.3,1.2c-1.7-1-3.6-1.9-3.9-4.2C252.1,570,253.5,571.5,255,572.9z"/>
<path class="st70" d="M259,578c0.3-0.3,0.7-0.7,1-1c1.4,1,2.7,1.9,4.1,2.9c-0.4,0.4-0.9,0.8-1.3,1.2
	C261.4,580.3,259.8,579.6,259,578z"/>
<path class="st71" d="M276.9,592.1c0.4-0.4,0.9-0.8,1.3-1.2c0.9,0.3,1.8,0.7,2.7,1c0,0.8-0.1,1.6-0.1,2.4
	C279.1,594.4,277.9,593.4,276.9,592.1z"/>
<path class="st72" d="M585.1,535c1.2,0.9,0.8,2.2,1.1,3.4c-0.9,4.2-0.2,8.7-2.2,12.8c-0.6-0.2-0.7-0.8-1-1.2
	C583.8,545,584.4,540,585.1,535z"/>
<path class="st73" d="M583,563.4c0.1,2.3,0.4,4.6-1,6.7C580.1,567.6,580.6,565.4,583,563.4z"/>
<path class="st74" d="M583.9,559c0.2,1.6,0.1,3.2-0.9,4.6c-1.1-2.6-1.5-5.3-0.2-7.9C584.1,556.4,583,558,583.9,559z"/>
<path class="st75" d="M583.9,559c-1.2-0.8-0.8-2.2-1.1-3.3c0.1-1.9,0.2-3.7,0.3-5.6c0.3,0.4,0.6,0.8,1,1.2
	C584.1,553.8,584.6,556.4,583.9,559z"/>
<path class="st76" d="M201.2,532c0.4,0.3,0.8,0.6,1.1,0.9c-0.5,0.6-1,0.7-1.6,0.3c-5.6-0.5-10.7,1.7-16.1,2.5
	c-2,0.3-3.9,0.7-5.9,0.4c1.1-2.9,3.9-2.1,6-2.6c4-1.1,8.1-1.8,12.1-2.7C198.4,530.6,199.8,531.2,201.2,532z"/>
<path class="st77" d="M161.9,539.9c-0.8-1.1-2-0.7-3.1-1c5.9-1.8,11.9-3.4,18.2-2.9C172.5,539.1,167.1,538.9,161.9,539.9z"/>
<path class="st78" d="M200.7,533.1c0.5-0.1,1.1-0.2,1.6-0.3c3.2,2,7.2,3.1,8.7,7.2C206.8,539,203.7,536.1,200.7,533.1z"/>
<path class="st79" d="M206.9,560.7c-0.4,0.1-0.7,0.3-1.1,0.4c-6.9,0-13.9-0.1-20.8-0.1c0.1-1.5,1.3-1.3,2.2-1.2
	c6.6,0.1,13.2,0.2,19.8,0.3C207,560.3,206.9,560.5,206.9,560.7z"/>
<path class="st80" d="M226,560.1c-3.3,1.6-6.7,0.6-10,0.7c0-0.2,0.1-0.5,0.1-0.7C219.3,560.1,222.6,560.1,226,560.1z"/>
<path class="st81" d="M216,560.1c0,0.2,0,0.5-0.1,0.7c-3,0-6-0.1-9-0.1c0-0.2,0.1-0.4,0.1-0.6C210,560.1,213,560.1,216,560.1z"/>
<path class="st82" d="M268,587.1c0.5,0.9,1.4,0.9,2.3,1.1c-3.2,1.4-6.5,2.4-10,3c-1.1,0.2-2.4,0.9-2.4-1.2
	C261.3,589,264.7,588,268,587.1z"/>
<path class="st83" d="M258,590c0.5,0.9,1.5,1,2.4,1.2c-3.1,1-6.2,2-9.3,2.9c0-0.7,0-1.3,0-2C253.3,591.4,255.7,590.7,258,590z"/>
<path class="st84" d="M615.1,524c0.6-5.7,0.6-11.4,2-17c2.6,0.4,1.9,2.6,2.3,4.2c-0.3,5.7,0.1,11.5-2.6,16.9
	C614.1,527.6,616.4,525,615.1,524z"/>
<path class="st85" d="M618.2,511.4c-0.4-1.5,0.3-3.2-1.1-4.4c-0.7-2.5,0.5-4.7,0.9-7c0.8-0.6,1.6-0.6,2.3,0.2
	C620.1,504,621.9,508.2,618.2,511.4z"/>
<path class="st30" d="M615.2,536.2c-0.4-1.1,0.1-2.4-1.1-3.2c-0.3-1.9-0.1-3.7,0.7-5.4c1.4,1.2,1.6,2.8,2.1,4.4
	C617,533.7,617.4,535.5,615.2,536.2z"/>
<path class="st86" d="M615.9,532c-1.3-1.2-0.7-2.9-1.1-4.4c0.1-1.2,0.2-2.4,0.3-3.6c1.4,1.2,0.7,2.9,1.1,4.3
	C617.1,529.7,617.1,530.9,615.9,532z"/>
<path class="st87" d="M619.7,500c-0.6,0-1.2,0-1.7,0c-0.1-0.6-0.1-1.3-0.2-1.9c0.4-0.4,0.8-0.9,1.3-1.3
	C621.1,497.5,621,498.6,619.7,500z"/>
<path class="st88" d="M184,518c2.3,1.4,4.5,2.8,6.3,4.9c-0.2,0.7-0.6,1.1-1.3,1.2c-2.1-1.6-4.2-3.3-6.3-4.9
	C182.9,518.5,183.3,518.1,184,518z"/>
<path class="st82" d="M176,512c2.1,0.8,3.7,2.3,5.3,3.9c-0.2,0.7-0.6,1.1-1.3,1.2c-1.8-1.2-3.8-2.1-5-4.1
	C174.7,512.1,175,511.6,176,512z"/>
<path class="st89" d="M193,524.9c1.7,1.3,3.4,2.7,5.1,4c-0.2,0.7-0.6,1.2-1.3,1.4c-1.7-1.4-3.4-2.7-5.1-4.1
	C191.9,525.5,192.3,525.1,193,524.9z"/>
<path class="st90" d="M166.9,505.1c1.7,0.5,2.9,1.7,4.2,2.9c0.2,1-0.2,1.5-1.2,1.2c-1.4-0.9-2.9-1.6-3.8-3.1
	C165.7,505.1,165.9,504.8,166.9,505.1z"/>
<path class="st91" d="M169.8,509.1c0.4-0.4,0.8-0.8,1.2-1.2c1.7,1.3,3.3,2.7,5,4c-0.3,0.3-0.7,0.6-1,1
	C173,512.1,171.3,510.7,169.8,509.1z"/>
<path class="st92" d="M196.8,530.3c0.4-0.5,0.9-0.9,1.3-1.4c1.4,0.7,2.3,1.8,3,3c-1.6,0-3.3,0.5-4.4-1.2
	C196.8,530.8,196.8,530.3,196.8,530.3z"/>
<path class="st93" d="M166.9,505.1c-0.3,0.3-0.6,0.6-0.9,0.9c-1.7-0.9-3.5-1.6-3.8-3.8C164.4,502,165.7,503.5,166.9,505.1z"/>
<path class="st94" d="M180,517c0.4-0.4,0.9-0.8,1.3-1.2c0.9,0.7,1.8,1.4,2.7,2.1c-0.4,0.4-0.9,0.8-1.3,1.2
	C181.8,518.5,180.9,517.8,180,517z"/>
<path class="st95" d="M193,524.9c-0.4,0.4-0.9,0.8-1.3,1.2c-0.9-0.7-1.8-1.4-2.7-2.1c0.4-0.4,0.9-0.8,1.3-1.2
	C191.2,523.5,192.1,524.2,193,524.9z"/>
<path class="st48" d="M645.8,508.6c2.4-2.1,4.8-4.3,7.2-6.4c0.5,0.2,1.1,0.3,1.2,1c-2.4,3-5.1,5.7-8.1,8.1c-0.4-0.3-0.7-0.7-0.8-1.3
	C645.3,509.4,645.5,509,645.8,508.6z"/>
<path class="st96" d="M654.2,503.1c-0.4-0.3-0.8-0.7-1.2-1c2.6-2.2,4-6,8-6.5C659.6,498.9,656.7,500.8,654.2,503.1z"/>
<path class="st97" d="M646,509.9c0,0.5,0.1,0.9,0.1,1.4c-0.7,1.2-1.7,1.9-3,2.2c-0.1-0.6-0.2-1.2-0.3-1.7c-0.4-0.8-0.3-1.4,0.3-2.1
	C644.1,509.1,645.1,509.4,646,509.9z"/>
<path class="st3" d="M208.7,508.4c-1.2,5.8-0.4,11.6-0.7,17.4c0,1.1,0.3,2.5-1.2,3c-1.1,0.4-2-0.3-2.6-1.1
	c-3.1-3.8-6.4-6.8-11.6-8.4c-3.6-1.1-6-5.8-9.2-8.5c-2-1.7-4-3-6.4-3.5c-4.3-1-6.1-4.5-7.2-8c-0.7-2.1,6.2-7.9,8.8-8.2
	c1.1-0.1,2.7,0,3.3-0.7c2.4-2.9,4.8-1.7,6.7,0.1c5.3,4.9,13.7,5.4,17.6,12.3C207.3,504.5,209,506,208.7,508.4z"/>
<path class="st16" d="M212.1,518c0.3,0,0.6,0,0.9,0c0,2.8-0.1,5.6-0.1,8.4C211.7,523.7,212.1,520.8,212.1,518z"/>
<path class="st98" d="M646.1,480.1c2.6,0.2,2.1,2.1,2,3.7c-0.3,3.1-0.8,6.1-1.2,9.2c-0.5,0.3-1,0.3-1.5,0c-0.7-0.5-1.1-1.2-1.3-2
	C644,487.2,643.9,483.4,646.1,480.1L646.1,480.1z"/>
<path class="st99" d="M645.1,492c0.3,0.3,0.6,0.7,0.9,1c0.8,1.8,0.6,3.6,0.1,5.4c-0.1,0.9-0.1,1.7-0.2,2.6c-1.1,2,0.1,4.3-0.8,6.3
	c0.2,0.4,0.5,0.9,0.7,1.3c0.1,0.4,0.1,0.9,0.2,1.3c-1,0-2,0.1-2.9,0.1c-0.6-0.6-0.8-1.3-0.8-2.1c0.4-1.8,0.4-3.7,0.3-5.5
	C642.8,498.7,642.3,495,645.1,492z"/>
<path class="st100" d="M645.1,507.3c0.1-2.1-0.9-4.4,0.8-6.3C646,503.1,646.1,505.3,645.1,507.3z"/>
<path class="st101" d="M646.1,498.4c0-1.8-0.1-3.6-0.1-5.4c0.3,0,0.6,0,0.9,0C647,494.8,647,496.7,646.1,498.4z"/>
<path class="st5" d="M643.1,508c0,0.7,0,1.4,0,2c-0.1,0.6-0.2,1.1-0.2,1.7c-1.6,1.2-2.9,2.5-3.8,4.4c-6.6,6.5-13.1,12.9-19.8,19.4
	c-1.3,1.2-2.2,2.9-4.1,3.4c0-0.9,0-1.7,0.1-2.6c0.9-1.3,0.8-2.8,0.7-4.2c0.1-1.2,0.2-2.4,0.3-3.6c1.2-5.6,1.9-11.2,2-16.9
	c1.5-3.7,0.4-7.7,1.5-11.4c0.3-1.2,0.7-2.4-0.6-3.2c5.5-7.6,11.5-14.6,21.6-16.3c1.8-0.3,3.6-0.6,5.4-0.4c0.5,4-1.9,7.8-1,11.9
	c-0.8,3.5-1.5,7.1-1.3,10.7C643,504.4,644,506.3,643.1,508z"/>
<path class="st102" d="M280.8,594.2c0.5-0.1,1-0.2,1.5-0.3c1.3,1,2.5,2,3.8,3c-0.4,0.4-0.9,0.8-1.3,1.2
	C283.2,597.1,281.1,596.5,280.8,594.2z"/>
<path class="st88" d="M285.1,573.4c0.1-1.8-0.8-3.8,0.8-5.4C286,569.9,286.1,571.7,285.1,573.4z"/>
<path class="st26" d="M515,448.3c1.4,1.7,1,3.8,1,5.8c0,24.5,0,49,0,73.5c0,13.8-8.6,22.4-22.5,22.4c-45.7,0-91.3,0-137,0
	c-13.4,0-21.6-8.2-21.6-21.3c0-26.8,0-53.7,0-80.5c1.8-1.9,4.2-1.8,6.5-1.8c55.7,0,111.4,0,167.1,0
	C510.9,446.4,513.4,446.1,515,448.3z"/>
<path class="st26" d="M516,595.1c0,26.6-0.1,53.3,0.1,79.9c0.1,11.8-9.3,22.4-22.2,22.2C448,696.7,402,697,356.1,697
	c-13.1,0-21.1-8-21.1-21.2c0-26.6,0-53.3,0-79.9c1.9-1.7,4.3-1.5,6.7-1.5c56.6-0.1,113.3,0,169.9-0.1
	C513.1,594.3,514.6,594.3,516,595.1z"/>
<path class="st5" d="M516,595.1c-1.7,0.9-3.5,0.9-5.3,0.9c-58.5,0-117.1,0-175.6,0c0-2.8,0.2-5.7-0.1-8.5
	c-1.5-13.9,8.6-23.2,22.4-23.3c45.4-0.2,90.8-0.2,136.2,0c14.1,0.1,22.4,8.9,22.5,22.9C516,589.7,516,592.4,516,595.1z"/>
<path class="st3" d="M515,448.3c-0.8-0.1-1.7-0.2-2.5-0.2c-59.2,0-118.4,0-177.6,0c0-3.3-0.1-6.7-0.1-10c0-12.2,8.2-21,20.4-21
	c46.4-0.2,92.8-0.2,139.2,0c12.8,0,21.4,9.1,21.3,21.9C515.9,442.2,516.9,445.4,515,448.3z"/>
<path class="st103" d="M467.1,287.6c-2.1-0.2-3.6-1.3-3.8-3.3c-0.2-2.2,1-4,3.4-4.1c2.3,0,3.8,1.5,3.8,3.8
	C470.6,286.1,469.1,287.2,467.1,287.6z"/>
<path class="st104" d="M483.2,284.2c-0.1,1.9-1.3,3.4-3.4,3.4c-2.2,0-3.9-1.3-3.8-3.7c0.1-2.3,1.5-3.7,3.9-3.6
	C482,280.4,483.2,281.8,483.2,284.2z"/>
<path class="st104" d="M492.3,287.5c-2-0.4-3.5-1.4-3.4-3.6c0.1-2.3,1.5-3.8,3.7-3.7c2.3,0.1,3.5,1.7,3.3,4.1
	C495.8,286.5,494.3,287.3,492.3,287.5z"/>
<path class="st105" d="M219.5,265.3c2.2,0.6,4.7,1,4.7,4.1c0.1,2.5-1.2,4.4-3.7,4.4c-2.7,0-5-1.7-5.2-4.3
	C215.1,267.1,217.2,265.8,219.5,265.3z"/>
<path class="st26" d="M233,419c-3,0.7-6.8-1.9-8.7,3.2c-0.9,2.4-12.1-0.3-14.6-1.7c-4.4-2.6-6-8.1-11-9.8c-0.2-0.1-0.3-0.1-0.4-0.2
	c-1.6-1.2-1.3-13,0.3-14.2c4.5-3.4,8.9-6.9,12.1-11.7c0.6-0.9,8.8-1,9.6-0.2c0.6,0.5,0.7,1.5,0.2,1.7c-6.5,2.7-2.3,8.3-3.4,12.4
	c0,0.2,0,0.3,0,0.5c0,0,0,0,0,0c-3-0.5-4.3,0.5-4.2,3.7c0.2,4.1,5.2,7.3,8.6,8.7c3.9,1.6,7.9,3.8,11.4,6.4
	C233.1,418.1,233,418.6,233,419C233,419,233,419,233,419z"/>
<path class="st106" d="M217.1,399.1c0.6-0.7,1.1-1.5,1.7-2.2c1.2-0.2,1.8,0.2,1.4,1.4c0.3,2.2,0.7,4.3,1,6.5
	c-1.2,3.1-3.5,1.4-5.4,1.3C211.8,402.9,214.9,401.1,217.1,399.1C217.1,399.1,217.1,399.1,217.1,399.1z"/>
<path class="st107" d="M215.7,406.1c1.8-0.5,4,0.6,5.4-1.3c3.5,2.8,7.4,5.1,9.8,9.3C225.4,412.1,221.9,406.7,215.7,406.1z"/>
<path class="st108" d="M220.2,398.3c-0.5-0.5-0.9-1-1.4-1.4c1.6-4.2,3.2-8.3,4.9-12.5c0.5,0.2,1.1,0.4,1.6,0.6
	C224.4,389.7,222.4,394,220.2,398.3z"/>
<path class="st100" d="M643.1,508c-0.1-1.8-0.2-3.6,0.8-5.3C643.9,504.5,644.6,506.4,643.1,508z"/>
<path class="st109" d="M412,489.8c0-5.2,0.1-10.3,0-15.5c-0.1-3,1-3.6,3.5-2.1c9.2,5.3,18.5,10.6,27.7,15.9c2.6,1.5,1.7,2.7-0.3,3.9
	c-8.8,5-17.6,10-26.3,15.2c-4.1,2.4-4.7,0.9-4.5-3C412.2,499.5,412,494.6,412,489.8z"/>
<path class="st110" d="M413.1,646.7c-16,0-31.9,0-47.9,0c-1.9,0-4.6,1-4.7-2.6c-0.2-3.6,2.3-2.9,4.4-2.9c32.3,0,64.5,0,96.8,0
	c1.7,0,4.2-1.1,4.4,2.3c0.2,3.4-1.7,3.3-4.1,3.3C445.7,646.7,429.4,646.7,413.1,646.7z"/>
<path class="st111" d="M421,630.5c-18.7,0-37.3,0-56,0c-2,0-4.6,0.8-4.6-2.8c0-3.8,2.7-2.6,4.6-2.6c37.2-0.1,74.3-0.1,111.5,0
	c1.9,0,4.5-1.1,4.5,2.7c0,3.7-2.6,2.8-4.5,2.8C458,630.5,439.5,630.5,421,630.5z"/>
<path class="st112" d="M394.4,662.9c-10,0-19.9,0-29.9,0c-2,0-4.1,0.5-4.1-2.7c0-3.2,2.1-2.8,4.1-2.8c20.3,0,40.5,0,60.8,0
	c2.1,0,4,0,3.9,3c-0.1,2.9-2,2.5-3.8,2.5C415,662.9,404.7,662.9,394.4,662.9z"/>
<path class="st113" d="M470.7,579.9c-0.3,2-1.5,3.5-3.4,3.7c-2.3,0.2-3.8-1.3-3.9-3.5c-0.1-2,1.4-3.5,3.3-3.7
	C468.9,576.2,470.2,577.8,470.7,579.9z"/>
<path class="st114" d="M492.8,583.9c-2.2-0.4-3.6-1.6-3.7-3.6c-0.2-2.3,1.2-3.9,3.4-4.1c2-0.1,3.3,1.4,3.5,3.5
	C496.1,582.1,494.6,583.2,492.8,583.9z"/>
<path class="st115" d="M479.9,576.3c1.9,0.5,3.1,1.8,3,3.9c-0.1,2-1.2,3.7-3.3,3.4c-1.8-0.2-3.5-1.2-3.5-3.5
	C476,577.6,477.9,576.9,479.9,576.3z"/>
<path class="st116" d="M470.7,432.9c-0.7,1.9-1.8,3.7-4,3.7c-2-0.1-3.3-1.7-3.5-3.7c-0.1-2.1,1.3-3.6,3.3-3.6
	C468.7,429.1,470.1,430.6,470.7,432.9z"/>
<path class="st117" d="M492.4,429.1c2,0.4,3.3,1.5,3.5,3.5c0.2,2.2-1.2,3.5-3.1,3.7c-2.2,0.2-3.8-1.1-3.8-3.5
	C489.1,430.7,490.4,429.6,492.4,429.1z"/>
<path class="st118" d="M479.6,436.5c-2-0.5-3.6-1.3-3.5-3.6c0.1-2.1,1.3-3.6,3.3-3.7c2.3-0.1,3.6,1.5,3.6,3.8
	C483.1,435.3,481.3,436,479.6,436.5z"/>
<g>
	<path class="st119" d="M434.1,342.7c0-3.6,0-7.2,0.1-10.9c0-1.5-0.5-2.1-1.9-1.7c-0.6-0.2-1.3-0.1-1.9-0.2c-1-0.1-1.4-0.5-0.9-1.5
		c0-0.7,0.4-1.3,0.8-1.7c3.8-3.5,7.1-7.4,11.2-10.6c2.2-1.7,3.9-1.3,5.7,0.4c4.4,4,8.9,8,12.8,12.5c0,0.4,0,0.8,0,1.1
		c-0.5,0-0.9,0.1-1.4,0.1c-4.5,0.1-4.4,0.1-4.4,4.5c0,3.4,0.1,6.7,0.1,10.1c-0.3,2.3-0.5,4.5,0.1,6.8c0.7,5.1,0.5,10.2,0.4,15.3
		c-2.1-0.2-3.4-2.1-5.5-2.5c-3.2-0.7-6.4-0.9-9.6-0.6c-0.3,0-0.6-0.1-0.8-0.3c-1.5-4.7-3.2-9.3-5.2-13.9c-0.2-0.4-0.2-0.9,0-1.4
		l0.2,0C434.6,346.4,434.3,344.5,434.1,342.7z"/>
	<path class="st120" d="M433.8,348.3c2.1,4.9,4.7,9.6,5.3,15.1c-0.9,1.3-2.4,1.2-3.6,1.8c-1.7,0.9-3.1,2-3,4.2c0,0.9,0,1.7,0,2.6
		c0,0.5,0,0.9-0.1,1.4c-0.1,0.5-0.3,0.9-0.7,1.2c-2.9,0.2-5.5-1.3-8.4-1.4c-1,0-2-0.2-3,0.1c-1.1,0.2-2.2,0.3-3.2-0.3
		c-0.4-0.3-0.5-0.7-0.5-1.2c0-0.3,0.1-0.6,0.3-0.8c2.6-1.4,4-4,6.1-6c1.6-1.5,0.7-4.5-1.1-6c-1.2-0.9-2.7-1.4-3.8-2.4
		c-1.1-0.9-2.2-2-0.6-3.4c0.9-0.4,1.9-0.3,2.9-0.5c0.9-0.1,2,0.7,2.5-0.5c0.4-1.3-0.9-1.4-1.6-1.8c-0.8-0.5-1.5-1.1-1.8-2
		c-0.3-0.8-0.7-1.3-1.6-0.8c-0.8,0.7-0.7,1.8-1.4,2.6c-3.8,4-3.4,6.4,1.4,9.3c1.7,1,3.9,1.9,2.9,4.4c-0.9,2.3-3.1,1.9-4.9,1.1
		c-2.1-1-2.3,1.6-3.7,1.8c-3-2.9-3.8-6.8-4.4-10.7c-1.1-6.5,0.1-12.7,3.2-18.5c0-0.5-0.1-1,0.3-1.4c1.2-1,2.6-1.5,4.1-1.3
		c3.4,0.3,6.9-0.8,10.2,0.8C428.4,339.5,431.2,343.8,433.8,348.3z"/>
	<path class="st121" d="M454.9,378.2c1.7,1.3,4.4,2,3.9,4.9c-0.4,2.8-2.9,3.8-5.1,4.7c-6.3,2.5-12.9,3.4-19.7,4.1
		c-6.8,0.7-13.7,0.5-20.5,0.4c-8.2-0.1-16.4-1.2-24.3-3.8c-1.9-0.6-3.6-1.5-5.2-2.7c-2.5-1.8-2.7-3.7-0.4-5.7
		c0.9-0.8,2.1-1.3,2.7-2.4c0.4,0.2,0.6,0.6,0.7,1c-0.2,3.1,1.5,4.7,4.2,5.6c0.6,0.2,1.3,0.4,1.5,1c0,0.4-0.4,0.5-0.7,0.7
		c0.3-0.1,0.5-0.1,0.8-0.2c0.6-0.3,1.1-0.5,1.7-0.7c3-0.7,6.1,0.3,9.1-0.7c2.1-0.7,3.9-1.7,5-3.7c0.2-0.2,0.4-0.4,0.7-0.5
		c0.3,0,0.6,0,0.8,0.1c0.2,0.2,0.3,0.4,0.3,0.7c0,1.3-0.5,2.6,0.4,3.7c1.3,2.1,3.5,2.8,5.7,3.3c1,0.2,2,0.4,3,0.9
		c1.5,0.6,3,0.6,4.6,0c1.9-0.9,4-0.9,5.8-1.9c0.9-0.5,1.8-1,2.3-2c0.6-0.9,0.2-2.3,1.1-3.1c2.8-0.2,5.2,1.2,7.9,1.4
		c3.2,0.3,6.1-0.3,9.1-1.1c2-0.6,3-2.2,3.6-4C454.3,378.1,454.6,378.1,454.9,378.2z"/>
	<path class="st122" d="M410.8,337.2c-1.1,5.1-3.1,10-2.7,15.3c0.3,4.9,1.3,9.7,4.6,13.7c0.1,0,0.2,0.1,0.4,0.1c1.5,1.6,3,3.2,4.1,5
		c0,0.4,0,0.7,0,1.1c-1.9,1.9-4.8,2.2-6.6,4.2c-0.7,0-1.4-0.2-2-0.4c-2.8-1.9-6-2.2-9.2-3.1c-0.3-0.3-0.6-0.6-0.7-1
		c-0.2-1.2-0.4-2.4-0.7-3.6c0.3-1.1,0.3-2.2,0-3.3c0.7-8.4,4.5-15.6,8.8-22.6C407.9,340.8,408.4,338.2,410.8,337.2z"/>
	<path class="st120" d="M409.2,316.1c-0.1-3.9,0.2-4.1,3.5-2.4c3.2,1.6,6.4,1.9,9.7,0.7c1.4-0.5,2.8-1,4.3-1.3
		c2.6-0.5,4.8,1.4,4.5,4.2c-0.4,4.3-2.6,7.9-5.2,11.3c-6.2,1.5-15.3-4.1-16.5-10.2C409.5,317.6,409.6,316.8,409.2,316.1z"/>
	<path class="st123" d="M431.9,372.1c0-1,0-2-0.1-3c2.8,1,5.3,2.9,8.5,3c4.8,0.6,9.3,0.1,13.2-3c0.4-0.3,0.7-0.6,1.3-0.5
		c0,1.1,0,2.2,0,3.3c-0.7,2.4-2.7,3.3-4.8,3.8c-2.3,0.6-4.5,1.1-6.9,0.9c-2.9,0-5.6-0.5-8.3-1.6
		C433.5,374.4,432.4,373.5,431.9,372.1z"/>
	<path class="st124" d="M431.7,374.3c0.1-0.4,0.1-0.8,0.2-1.2c1.3-0.1,1.6,1.3,2.7,1.7c2.7,1.4,5.5,1.8,8.5,1.7
		c4.3,0.3,8.2-1,11.7-3.3c0,0.7,0,1.5,0,2.2c-0.2,1.2-0.3,2.4-1.5,3.1c-3.7,2.6-8,2.2-12.2,2.2c-1.4,0-2.7-0.1-4-0.6
		c-1.1-0.4-2.2-0.7-3.1-1.4C432.9,377.3,431.7,376.1,431.7,374.3z"/>
	<path class="st122" d="M409.2,316.1c2.4,8.6,9,11.4,16.9,12.4c-0.2,0.4-0.5,0.8-0.7,1.1c-2.9,1.6-6,0.5-9,0.7
		c-1.4,0.1-3,0.4-4.3-0.7C409.6,325.5,408.9,320.9,409.2,316.1z"/>
	<path class="st125" d="M454.8,368.7c-2.8,3.6-9.8,5.5-14.6,3.9c0.7-0.7,1.4-0.5,2.1-0.1c-0.2-0.5-1.4-0.3-0.9-1.2
		c0.4-0.4,1-0.5,1.5-0.5c1.8-0.1,3.7,0.1,5.5-0.6c0.9-0.4,2-0.8,2.1-2c0.1-1.2-1-1.7-1.9-2.2c-1-0.5-2.1-0.6-3.2-0.8
		c-0.8-0.3-1.6-0.4-2.5-0.6c-1.1-0.5-2.4,0-3.3-1.1c5.6-1,10.9-0.7,15.2,3.5C454.8,367.5,454.8,368.1,454.8,368.7z"/>
	<path class="st126" d="M425.3,330.2c1.1,1.4,2.8,2.9-0.3,4c-3.9,0.6-7.6,0.1-11.3-1.2c-1-0.3-1.9-0.7-2.5-1.7
		c0.3-0.4,0.6-0.7,0.9-1.1C416.6,329.8,420.9,329.7,425.3,330.2z"/>
	<path class="st127" d="M398.6,372.2c0.1,0.2,0.2,0.3,0.4,0.5c-0.3,1.6-1.8,1.5-2.9,2c-1.4,0.4-2.9,0.7-4.2,1.4
		c-0.7,0.4-1.4,0.7-1.4,1.6c0,1,0.8,1.4,1.5,1.8c1.9,1.1,4.3,0.5,6,2.1c0.1,0.7-0.2,1.1-0.8,1.5c-3.2,0.6-6.1-0.5-8.9-1.8
		c-1.1-0.5-1.3-1.5-1.7-2.5c-0.1-0.4-0.1-0.8-0.2-1.2c1.4-3.5,4.5-4,7.6-4.5C395.6,372.9,397.2,372.9,398.6,372.2z"/>
	<path class="st128" d="M411.3,331.2c4.3,2.3,9.2,2,13.7,2.9c0,0.2,0,0.3-0.1,0.5c-4.3,0.6-8.7,0.7-13,0
		C411.1,333.6,410.2,332.6,411.3,331.2z"/>
	<path class="st129" d="M454.8,373.2c-3.3,3.3-7.3,4.1-11.7,3.9c-0.3-0.4-0.3-0.7,0-1.1c4.3-0.2,8.6-0.5,11.7-4
		C454.8,372.4,454.8,372.8,454.8,373.2z"/>
	<path class="st130" d="M411.9,334.6c4.3,0,8.7,0,13,0c0.2,0.2,0.3,0.4,0.5,0.7c-4.8,0.3-9.6-0.6-14.3,0.5
		C411.4,335.4,411.7,335,411.9,334.6z"/>
	<path class="st131" d="M425.3,330.2c-4.4,0-8.7,0-13.1,0c-0.1-0.2-0.1-0.3-0.1-0.5c4.4,0,8.9,0,13.3,0
		C425.4,329.8,425.3,330,425.3,330.2z"/>
	<path class="st132" d="M454.4,351.7c-1-2.2-0.9-4.5-0.1-6.8C454.3,347.2,454.4,349.4,454.4,351.7z"/>
	<path class="st133" d="M434.1,342.7c0.7,1.9,0.9,3.8-0.1,5.6C434,346.4,434.1,344.5,434.1,342.7z"/>
	<path class="st134" d="M429.5,328.4c0.1,1.9,2.1,0.7,2.8,1.6c-0.8,0.1-1.7,0.2-2.5,0.3c-0.5,0-1.3,0.1-1.3-0.7
		C428.4,329,428.9,328.7,429.5,328.4z"/>
	<path class="st135" d="M453.2,377.7c1.1-0.4,0.9-1.6,1.5-2.3c0,0.9,0.1,1.9,0.1,2.8c-0.2,0-0.3,0-0.5,0c-0.2,0.2-0.4,0.3-0.7,0.3
		C453.4,378.4,453.1,378.2,453.2,377.7z"/>
	<path class="st136" d="M397.9,365.3c0.7,1.1,0.7,2.2,0,3.3C397.9,367.5,397.9,366.4,397.9,365.3z"/>
	<path class="st137" d="M441.3,371.5c0.4,0.3,0.8,0.6,1.5,1.1c-1.1,0-1.9,0-2.7,0c-3.3,0-6-1.2-8.3-3.5c-0.4-3,1.8-4,4-4.9
		c1-0.4,2.1-0.6,3.2-0.9c0.2,0.1,0.3,0.1,0.5,0.1c1.1,0.3,2.5-0.4,3.5,0.6c-0.1,0.1-0.2,0.2-0.3,0.3c-0.8,0.4-1.8,0.4-2.6,0.8
		c-1.6,0.7-4,0.8-3.9,3c0.1,2,2.4,2,3.9,2.6C440.6,370.9,441.1,371.1,441.3,371.5z"/>
	<path class="st138" d="M412.6,366.3c0.3-2.2,0.8-3.8,3.6-2.2c1.3,0.8,3.1,1.1,4-0.5c1-1.9-0.7-2.6-2-3.4c-1.6-0.9-3.4-1.6-4.5-3.2
		c-1.5-2.3-0.6-5.2,2.3-7.4c1.3-0.6,0.4-2.1,1.2-2.9c1.4-0.5,2.8-1.2,2.8,1.3c0,1.4,1.3,1.3,2,1.9c0.8,0.6,2.6,0.6,1.7,2.4
		c-0.8,1.7-2,1.6-3.3,0.7c-0.9,0.5-2-0.1-2.9,0.4c-1,1.3-0.1,2.1,0.9,2.7c1.2,0.7,2.5,1.3,3.7,2c3.5,2.3,3.3,6.9-0.3,9.1
		c-0.7,0.4-1.8,0.5-1.8,1.6c0.1,2.4-1.3,2.3-2.9,1.9C416.4,368.5,414.2,367.7,412.6,366.3L412.6,366.3z"/>
	<path class="st139" d="M431.7,374.3c0.8,1.3,1.5,2.6,2.3,3.9c-0.1,0.3-0.3,0.5-0.5,0.8c-3.4,3.1-7.3,4.7-12,3.3
		c-0.3-0.4-0.3-0.8-0.1-1.3c0.8-0.8,1.9-0.6,2.8-1c1.3-0.3,2.6-0.4,3.7-1.2c1.6-1.1,1.5-2.6-0.3-3.4c-1.8-0.9-3.8-1-5.7-1.1
		c-0.2,0-0.5-0.1-0.7-0.2c-0.5-0.4-0.3-1.2-0.9-1.5C424.4,371.7,428,373.1,431.7,374.3z"/>
	<path class="st140" d="M420.4,372.5c0.9,0,1.1,0.4,0.6,1.1c-0.9,1-2.2,0.8-3.4,1.2c-1.3,0.4-3.1,0.7-3.2,2.3c0,1.8,1.9,2,3.3,2.4
		c1.3,0.4,2.8,0.3,3.8,1.5c0,0.4,0,0.7,0,1.1c-3.5,1.6-8.8-0.1-11.6-3.8c-0.2-0.7-0.2-1.3,0.3-1.8c1.5-2.6,4.3-3.1,6.8-4
		C418.2,372.5,419.3,372.5,420.4,372.5z"/>
	<path class="st141" d="M412.6,366.3c0.8,0.3,1.5,0.9,2.3,1c2.1,0.3,2.6,1.5,2.3,3.4c0,0.3-0.1,0.5-0.1,0.8
		C415.1,370.1,413.7,368.4,412.6,366.3z"/>
	<path class="st142" d="M434,374.9c-0.7-0.6-1.4-1.1-2.1-1.7c0-0.4,0-0.7,0-1.1c0.9,0.8,1.8,1.5,2.6,2.3
		C434.6,374.8,434.6,375.1,434,374.9z"/>
	<path class="st143" d="M417.2,346.6c-0.2,1,0.7,2.6-1.2,2.9C416.6,348.6,416.1,347.3,417.2,346.6z"/>
	<path class="st144" d="M417.5,353.3c0.8-1,1.9-0.7,2.9-0.4C419.5,353.7,418.5,353.3,417.5,353.3z"/>
	<path class="st123" d="M410.4,378.2c3,3.3,7,3.9,11.2,3.9c4.5,0.3,8.6-0.7,11.9-3.9c0.9,0.8,2.2,1.1,3.2,1.6
		c2.1,0.8,4.2,0.7,6.4,0.7c3.8,0.4,7.3-0.6,10.7-2.3c0.2,0,0.5,0,0.7,0c0.4,2.5-1,3.7-3.1,4.6c-6.1,2.4-12,1.8-17.9-0.7
		c-0.6,0.5-1.1,1.1-1.8,1.5c-3.6,2.2-7.5,2.3-11.6,2.2c-3.2,0.1-6-1.1-8.8-2.3c-1.1-1.1-0.4-2.8-1.3-4
		C409.9,378.9,410,378.5,410.4,378.2z"/>
	<path class="st124" d="M410.4,379.4c0.6,1.3,0.9,2.6,1,4c2.7,1.3,5.4,2.4,8.5,2.3c4.4,0.4,8.7-0.4,12.6-2.5c1,0.7,0.6,1.6,0.4,2.4
		c-2,3.1-5.6,2.9-8.5,4c-1.7,0.4-3.4,0.4-5.1,0c-3.3-1-7.1-1-9.1-4.5c-0.4-1.3-0.4-2.6,0-3.9c0-0.2,0-0.4,0-0.5
		C409.9,380.1,410,379.7,410.4,379.4z"/>
	<path class="st124" d="M386.6,378.8c2.8,3.3,6.8,3.6,10.7,3.9c4-0.9,8-1.9,11.8-3.5c0.4,0.3,0.5,0.7,0.3,1.2
		c-0.9,3-4.7,5.3-8.5,5.2c-2.1,0-4.3,0-6.4,0c-0.5,0.2-1.1,0.4-1.5-0.2c-0.9-0.3-1.9-0.7-2.8-1C387.5,383.5,385.9,381.9,386.6,378.8
		z"/>
	<path class="st145" d="M410.4,379.4c-0.1,0.4-0.1,0.8-0.2,1.2c-0.2,0-0.3,0-0.5-0.1c-0.6-1-0.6-2.2-1.1-3.3c-0.2-0.4-0.3-0.7,0-1.1
		c0.6,0,1.3-0.1,1.6,0.6c0,0.6,0.1,1.1,0.1,1.7C410.4,378.6,410.4,379,410.4,379.4z"/>
	<path class="st146" d="M432.9,385.6c-0.1-0.8,0.3-1.7-0.6-2.3c-0.1-0.1-0.2-0.2-0.2-0.3c0-0.1,0.1-0.2,0.1-0.2
		c0.3-0.4,0.3-1.2,1.1-0.6C433.3,383.3,433.9,384.5,432.9,385.6z"/>
	<path class="st147" d="M419.3,389.5c1.7,0,3.4,0,5.1,0C422.7,390.4,421,390.4,419.3,389.5z"/>
	<path class="st122" d="M409.1,376.6c1.2,1.1,0.4,2.6,0.7,3.8c0,0-0.2,0.1-0.2,0.1s-0.2,0-0.2,0c-0.1-0.4-0.1-0.8-0.2-1.2
		C408.4,378.4,408.4,377.5,409.1,376.6z"/>
	<path class="st148" d="M410.2,381.1c0,1.3,0,2.6,0,3.9C409.4,383.7,409.4,382.4,410.2,381.1z"/>
	<path class="st149" d="M392.9,385.5c0.5,0.1,1,0.1,1.5,0.2c-0.5,0.6-1.1,0.5-1.7,0.5c-0.2,0-0.6,0-0.4-0.3
		C392.3,385.6,392.7,385.6,392.9,385.5z"/>
	<path class="st150" d="M409.1,376.6c0,0.9,0,1.8,0,2.7c-3.5,2.7-7.5,3.7-11.9,3.4c0.2-0.4,0.4-0.7,0.6-1.1c0.7-0.9,1.8-0.7,2.7-1.1
		c1.2-0.4,2.4-0.6,3.4-1.2c1.7-1,1.7-2.1,0-3.2c-2.1-1.3-4.5-1.2-6.8-1.3c-0.4-0.1-0.8-0.3-1-0.6c0.9-0.5,1.9-1,2.8-1.5
		c3.4,0.6,6.9,0.7,9.7,3.3C408.8,376.2,408.9,376.4,409.1,376.6z"/>
	<path class="st151" d="M434,374.9c0.2-0.2,0.4-0.3,0.6-0.5c2.7,1,5.6,1.7,8.5,1.7c0,0.4,0,0.7,0,1.1
		C439.8,377.2,436.7,377,434,374.9z"/>
	<path class="st152" d="M453.8,378.2c-3.1,2.6-6.8,3-10.7,2.9c-0.5-0.9-2.1,0.5-2.3-1.1c4.3-0.1,8.7,0.4,12.4-2.3
		C453.4,377.9,453.6,378,453.8,378.2z"/>
	<path class="st153" d="M440.8,380c0.5,0.8,1.8,0.1,2.3,1.1c-2.4,0-4.7,0.1-6.9-1.1c0-0.4,0.4-0.4,0.6-0.5
		C438.1,379.6,439.5,379.8,440.8,380z"/>
	<path class="st154" d="M436.8,379.4c-0.2,0.2-0.4,0.4-0.6,0.5c-1.1-0.2-2.2-0.5-2.8-1.7c0.2,0,0.4,0,0.5,0
		C434.9,378.6,435.9,379,436.8,379.4z"/>
	<path class="st155" d="M441.3,371.5c-1.5,0.1-2.9-0.4-4.3-1.1c-1-0.4-1.8-1-1.9-2.2c-0.1-1.2,0.7-1.9,1.7-2.4
		c1.1-0.6,2.1-1.2,3.4-1.2c0.9-0.6,2,0.1,2.8-0.5c0,0,0,0,0,0c0.8,0.1,1.7-0.2,2.3,0.5c-0.3,0.4-0.8,0.6-1.1,1c0.1,1,0.6,2.2-1,2.5
		c-3.9,0.7-0.3,1.7-0.1,2.6c0.1,0.2,0.1,0.5,0,0.7C442.5,371.4,441.9,371.5,441.3,371.5z"/>
	<path class="st123" d="M443.6,365.2c0.4-0.7,1.1-0.5,1.7-0.6c1.5-0.1,2.9,0.3,4.3,1c1,0.6,2,1.2,1.9,2.5c-0.1,1.3-1.1,1.8-2.2,2.3
		c-2,1-4.1,1-6.3,0.9c0-0.2,0-0.3,0-0.5c0.1-0.1,0.1-0.2,0.2-0.3c1.4-0.9,0-0.8-0.4-1.1c-0.5-0.4-0.6-0.8-0.1-1.3
		C444.9,367.8,445.3,366.8,443.6,365.2z"/>
	<path class="st155" d="M396.1,374.3c0.4,0,0.8,0,1.2,0.1c0.1,0.1,0.2,0.3,0.2,0.4c0,0.2,0,0.2,0,0.2c-0.3,0.5-0.3,1,0.2,1.4
		c0.6,1-0.3,1.2-0.8,1.7c-0.4,0.2-1.1,0.4-0.9,0.8c0.3,0.9,1.3,0.7,2,1.1c0.2,0.1,0.5,0.1,0.7,0.2c0.7,0.3,1.5,0.3,2.1,1
		c-0.8,0.9-1.9,0.4-2.9,0.6c-2.2-0.4-4.4-0.6-6.5-1.6c-0.9-0.5-1.9-1-1.9-2.2c0-1.1,0.8-1.8,1.8-2.3
		C392.8,374.8,394.4,374.2,396.1,374.3z"/>
	<path class="st125" d="M443.1,364.1c-0.8,0.9-1.9,0.4-2.8,0.5C441,363.8,442.1,364.2,443.1,364.1z"/>
	<path class="st124" d="M421.6,373.7c1.9-0.2,3.7,0.1,5.5,0.6c1.3,0.4,2.8,1,2.9,2.7c0,1.8-1.4,2.5-2.8,3c-0.9,0.3-1.8,0.5-2.7,0.5
		c-0.9,0.3-1.8,0.6-2-0.8c0.1-0.4,0.4-0.5,0.8-0.6c0.2,0,0.3,0.1,0.3,0.1c-0.6-0.4-1.3,0.3-2,0c-0.8-0.4-1-0.9-0.5-1.7
		c2.6-1.2,2.6-1.2,0.4-3.1C421.4,374.2,421.4,373.9,421.6,373.7z"/>
	<path class="st156" d="M421.6,373.7c0,0.2,0,0.3,0,0.5c0,0.4-0.2,0.7-0.5,0.9c-0.5,0.8,0.6,0.4,0.6,0.8c0.1,0.8-0.5,1.1-1.1,1.5
		c-2.1,1.5,0.5,1.2,0.7,1.8c0.4,0.2,1-0.2,1.4,0.2c0,1.2,0.9,1.1,1.7,1.1c-0.8,0.9-1.9,0.4-2.9,0.5c-2-0.4-4-0.7-5.9-1.4
		c-1-0.4-2.4-1-2.2-2.5c0.2-1.3,1.2-2.1,2.4-2.5c1.7-0.6,3.4-1.1,5.1-1C421.2,373.7,421.4,373.7,421.6,373.7z"/>
	<path class="st157" d="M432.3,382.8c0,0.2,0,0.3,0,0.5c-3.6,3.2-8,3.3-12.5,2.9c0.6-0.2,0.6-0.4,0.1-1.1
		C424.2,385.4,428.4,384.7,432.3,382.8z"/>
	<path class="st158" d="M419.9,385.1c0.4,0.3,0.8,0.6,1.2,0.9c-0.4,0.1-0.9,0.2-1.3,0.2c-3.1-0.1-6.1-0.4-8.4-2.9
		c1.6-0.8,2.5,0.8,3.8,1C416.8,384.6,418.3,384.8,419.9,385.1z"/>
	<path class="st124" d="M400.7,381.1c-0.8-0.1-1.7,0.3-2.3-0.6c0.7-1.2-0.5-0.6-0.8-0.8c-0.7-0.5-0.7-1-0.1-1.6
		c1.5-0.7,2.8-1.4,0.3-2.6c-0.2-0.2-0.3-0.4-0.4-0.6c0-0.2,0-0.3,0-0.5c2.4-0.2,4.6,0,6.8,1.1c1,0.5,2,1.1,2.1,2.4
		c0.1,1.5-1.2,2-2.3,2.5C402.9,380.6,401.8,380.8,400.7,381.1z"/>
	<path class="st159" d="M443,368.6c-0.4,0.2-0.4,0.4,0,0.7c0.5,0.5,0.5,1.1,0,1.6c0,0,0,0,0,0c-0.2-0.1-0.5-0.2-0.7-0.4
		c-0.8-0.6-2.4-0.6-2.3-1.6c0.2-1.2,1.7-1.4,2.9-1.4C443.4,367.9,443.4,368.2,443,368.6z"/>
	<path class="st160" d="M443,368.6c0-0.4,0-0.7,0-1.1c1.3-0.3,1.1-0.7,0.2-1.3c-0.8-0.6-0.4-0.9,0.4-0.9c0.3,0.2,0.7,0.3,1,0.5
		c0.6,0.4,1.7,0.4,1.5,1.4c-0.1,0.9-1.1,0.9-1.8,1C443.9,368.2,443.5,368.4,443,368.6z"/>
	<path class="st161" d="M443.1,370.9c0-0.5,0-1.1,0-1.6c0.9-0.1,1.6,0,2.5,0.8C444.6,370.4,443.8,370.6,443.1,370.9z"/>
	<path class="st162" d="M397.8,374.9c0.2,0.1,0.4,0.1,0.5,0.2c0.7,0.6,2.3,0.6,2.2,1.8c-0.2,1.3-1.7,1.1-2.7,1.4
		c-0.3-0.3-0.9-0.1-1.1-0.6c0-0.5,1.2-0.3,0.6-1.1C396.9,375.8,397.4,375.3,397.8,374.9z"/>
	<path class="st158" d="M396.7,377.6c0.4,0.1,0.9,0.1,1.1,0.6c-0.6,0.4-0.6,0.8,0,1.2c0.3,0.4,0.3,0.8,0,1.1c-0.5-0.1-1-0.3-1.5-0.4
		c-0.8-0.2-1.8-0.3-1.6-1.4C394.8,377.6,395.9,377.7,396.7,377.6z"/>
	<path class="st163" d="M397.8,374.9c-0.2,0.5-0.4,1.1-0.6,1.6c-0.5,0-1.3,0.2-1.4-0.4c-0.1-0.9,0.9-0.9,1.4-1.3
		C397.5,374.8,397.7,374.8,397.8,374.9z"/>
	<path class="st164" d="M397.8,380.5c0-0.4,0-0.7,0-1.1c0.8,0.2,1.7-1,2.6-0.1c-0.3,1-1.7,0.3-2,1.2
		C398.2,380.5,398,380.5,397.8,380.5z"/>
	<path class="st165" d="M420.4,377.1c0.4-0.4,0.8-0.8,1.1-1.2c-0.4-0.3-0.6-0.6-0.6-1.1c0.2-0.2,0.4-0.4,0.6-0.6
		c0.3,0.1,0.6,0.1,0.8,0.2c0.7,0.7,2.4,0.9,2.2,1.8c-0.3,1.2-1.8,1.4-3,1.4C421.3,377.3,420.7,377.6,420.4,377.1z"/>
	<path class="st127" d="M420.4,377.1c0.5,0,0.9,0.1,1.1,0.6c-0.6,0.4-0.5,0.8,0,1.1c0.3,0.4,0.3,0.8,0,1.1c-0.5-0.2-1-0.4-1.5-0.6
		c-0.7-0.2-1.6-0.6-1.4-1.4C418.7,377,419.7,377.1,420.4,377.1z"/>
	<path class="st166" d="M421.6,379.9c0-0.4,0-0.8,0-1.1c0.8,0,1.5,0,2.4,0c-0.3,0.8-0.9,0.5-1.2,0.6
		C422.3,379.6,422,379.8,421.6,379.9z"/>
	<path class="st167" d="M421,374.8c0.4,0.2,0.6,0.6,0.6,1.1c-0.7,0-1.5,0-2.3,0C419.5,374.9,420.3,375,421,374.8z"/>
</g>
<g>
</g>
<g>
</g>
<g>
</g>
<g>
</g>
<g>
</g>
<g>
</g>
<g>
</g>
<g>
</g>
<g>
</g>
<g>
</g>
<g>
</g>
<g>
</g>
<g>
</g>
<g>
</g>
<g>
</g>
</svg>
