<?xml version="1.0" encoding="utf-8"?>
<!-- Generator: Adobe Illustrator 23.0.5, SVG Export Plug-In . SVG Version: 6.00 Build 0)  -->
<svg version="1.1" xmlns="http://www.w3.org/2000/svg" xmlns:xlink="http://www.w3.org/1999/xlink" x="0px" y="0px"
	 viewBox="0 0 900.7 529.7" style="enable-background:new 0 0 900.7 529.7;" xml:space="preserve">
<style type="text/css">
	.st0{fill:#E9EAEF;}
	.st1{fill:#213F7A;}
	.st2{fill:#004A6A;}
	.st3{fill:#30005B;}
	.st4{fill:#0001E3;}
	.st5{fill:#1A1A1A;}
	.st6{fill:#F89646;}
	.st7{fill:#233862;}
	.st8{fill:#F8F8F8;}
	.st9{fill:#AFD3FE;}
	.st10{fill:#95BFF3;}
	.st11{fill:#F3F3F3;}
	.st12{fill:#FEB17C;}
	.st13{fill:#F6F6F6;}
	.st14{fill:#F6F4F4;}
	.st15{fill:#F7F7F7;}
	.st16{fill:#FDB17D;}
	.st17{fill:#EAF2FE;}
	.st18{fill:#FDA183;}
	.st19{fill:#B1D4FE;}
	.st20{fill:#FEB37F;}
	.st21{fill:#906FEB;}
	.st22{fill:#EAF2FD;}
	.st23{fill:#CFD4FA;}
	.st24{fill:#FEFEFE;}
	.st25{fill:#AFCFFE;}
	.st26{fill:#E5E5E5;}
	.st27{fill:#0B0080;}
	.st28{fill:#0001AA;}
	.st29{fill:#FEFEFA;}
	.st30{fill:#F5F4F4;}
	.st31{fill:#0C0563;}
	.st32{fill:#F1D6F3;}
	.st33{fill:#263A63;}
	.st34{fill:#0002CF;}
	.st35{fill:#38056D;}
	.st36{fill:#EC7C29;}
	.st37{fill:#EEEDF3;}
	.st38{fill:#3C20B4;}
	.st39{fill:#FAF9F9;}
	.st40{fill:#000043;}
	.st41{fill:#290F6D;}
	.st42{fill:#FBFBFD;}
	.st43{fill:#240C71;}
	.st44{fill:#FEB17D;}
	.st45{fill:#253962;}
	.st46{fill:#FDFDFD;}
	.st47{fill:#FEC007;}
	.st48{fill:#000FCA;}
	.st49{fill:#EFECE9;}
	.st50{fill:#EDE9E3;}
	.st51{fill:#0C454E;}
	.st52{fill:#0B444D;}
	.st53{fill:#FDF8F3;}
	.st54{fill:#EC975E;}
	.st55{fill:#F3F0F1;}
	.st56{fill:#FBF9F9;}
	.st57{fill:#F1F1F2;}
	.st58{fill:#E1915A;}
	.st59{fill:#EFEFEF;}
	.st60{fill:#FEFBF9;}
	.st61{fill:#ECEAEA;}
	.st62{fill:#97B9F3;}
	.st63{fill:#98B9F3;}
	.st64{fill:#FCB17E;}
	.st65{fill:#FEA183;}
	.st66{fill:#FE7446;}
	.st67{fill:#FD3E19;}
	.st68{fill:#CFF7FE;}
	.st69{fill:#F7F5F6;}
	.st70{fill:#DBD9D9;}
	.st71{fill:#5D66D7;}
	.st72{fill:#DDDBDB;}
	.st73{fill:#7393FE;}
	.st74{fill:#7392FE;}
	.st75{fill:#E6E4E5;}
	.st76{fill:#BCEBFB;}
	.st77{fill:#FEC0DB;}
	.st78{fill:#32B97C;}
	.st79{fill:#9DF0FE;}
	.st80{fill:#6ABDF6;}
	.st81{fill:#6BBDF6;}
	.st82{fill:#88CAF7;}
	.st83{fill:#ECEBEB;}
	.st84{fill:#F7F5F0;}
</style>
<g id="Background">
	
		<image style="overflow:visible;" width="108" height="94" xlink:href="C02FCF40.jpg"  transform="matrix(3.3711 0 0 3.3711 355.6208 -429.7554)">
	</image>
	<path class="st0" d="M690.1,465c-1-1.3-2.4-1.6-4-1.6c-11.7,0-23.4,0.7-35.1,1c-7.6,0.2-15.3,0.2-22.9,0.5c-20.5,1-41,0.2-61.5,0.9
		c-45.1,1.4-90.3,0.7-135.4,0.4c-17.8-0.1-35.7,0.3-53.5-0.7c-11.5-0.6-23,0.1-34.4-0.8c-8.2-0.6-16.3-0.1-24.4-0.6
		c-12.2-0.8-24.4-0.9-36.6-1.7c-8.8-0.6-17.8-0.5-26.4-2.7c-1-0.2-2.7,0.2-2.6-1.4c0.1-1.2,1.6-0.9,2.6-1.1c10-1.9,20-3.1,30.2-3
		c1.4,0,2.8,0.1,4.1-0.8c0.7,0.5,0.9,1.3,1.1,2.1c0,2.4,0.8,4.2,3.5,3.7c4.9-0.9,9.9-0.3,14.8-1.3c1.4-0.3,3-0.5,3.9-2
		c-1.2-1.3-2.7-1-4-1.4c-1-0.5-3.2,0-1.8-2.3c1-0.6,2.2-0.7,3.3-0.7c9.5,0.4,18.8-0.8,28.3-0.9c17-0.1,33.9-0.4,50.9-0.8
		c53.6-1.4,107.2-0.2,160.8-0.6c10.5-0.1,20.9-0.3,31.4,0.1c16.3,0.5,32.7,0.4,49,0.8c16.6,0.5,33.1,1,49.7,1.4
		c3.2,0.1,6.4,0.2,9.3,1.7C691.9,457.2,692,461.1,690.1,465z"/>
	<path class="st1" d="M836.6,395.3c-1.4,23.3-2.7,46.5-4.1,69.8c-0.2,3.5-1,7.1-0.6,10.6c1.3,2.1,0.5,4.1-0.5,6
		c-5,0.7-10.1,0.5-15.1-0.5c-1.9-1.8-1.5-4.4-2.2-6.6c-3.4-19.7-5.6-39.5-8.4-59.2c-0.3-2.3,0-4.6-0.9-6.8
		c-1.1-9.7-2.2-19.5-3.9-29.1c-2-11.8-3.5-23.7-5.2-35.5c-0.1-0.6-0.2-1.3,0.2-1.8c1.5-1,3.2-0.9,4.8-0.9
		c10.9,0.5,21.5-1.1,32.1-3.4c1.6-0.3,3.2-1.1,4.8,0.1c2.5,4.5,1.8,9.4,1.5,14.2c-0.8,12.4-1.6,24.8-1.4,37.2
		C837.7,391.5,837.6,393.5,836.6,395.3z"/>
	<path class="st2" d="M347.6,75c-1.4-0.1-2.8-0.2-4.2-0.2c-44.4,0-88.8,0-133.2,0c-5.1,0-5.1,0-5.1-5.3c0-1.8,0-3.6,0-5.4
		c0-10.9,2.7-14.5,13.1-17.6c0.2,0,0.5,0.1,0.7,0.1c43.2,0.1,86.4,0,129.7,0.1c1.8,0,3.9-0.7,5.5,0.9c1.3,2.7-0.4,5.2-0.6,7.8
		c-0.4,4.9-1,9.9-0.8,14.9c0.1,1.6,0.1,3.3-0.9,4.8C350.3,76.1,348.9,76.1,347.6,75z"/>
	<path class="st3" d="M256.4,377.3c7.5,9.3,13.8,19.4,19.7,29.7c1.5,2.6,3.1,5.1,4.8,7.6c3.1,2.2,3.9,5.9,5.6,9
		c3.2,5.8,6.1,11.7,9.5,17.4c1.1,1.9,1.6,3.8-0.4,5.5c-2.4,1.1-4.9,2.4-7.6,1c-6.1-4.5-11.8-9.5-17.2-14.8c-5.3-5.2-11-10-15.7-15.8
		c-3.4-1.9-4.2-5.6-5.8-8.7c-0.8-1.5-1.1-3.1-1.9-4.6c-1.9-3.5-2.8-3.9-6.7-2.3c-1.1,0.7-2.2,1.6-3.5,1.8c-4.3,1.2-8.2,3.3-12.4,4.8
		c-3.5,1.3-7.1,2-10.7,2.8c-11,0-22,0.7-33-0.2c-2.4-1.1-3.5-3.3-4.2-5.6c-2.6-9.2-0.8-18.1,1.7-27c0.2-0.7,0.8-1.3,1.4-1.7
		c4.5-0.3,9-0.7,13.6-1c1.1-0.4,2.1-0.3,3.2-0.1c0.4,0.2,0.8,0.4,1.3,0.5c17.2,0.4,34.5,0,51.7,0.2c1.9,0,3.8-0.2,5.7,0.4
		C255.9,376.4,256.2,376.8,256.4,377.3z"/>
	<path class="st4" d="M690.1,465c0-3.8,0-7.7,0-11.5c-0.8-0.9-1.1-2-1.1-3.2c0.3-7-0.8-13.9-0.8-20.9c0-2.9,0.4-5.8-0.3-8.7
		c-0.4-1.8-0.3-3.5-0.3-5.3c0-1.7,0.1-3.5-0.6-5.2c-1.5-16.5-2.8-32.9-4.7-49.4c-0.2-1.8-0.3-3.6-0.3-5.3c0.3-2,2-2.5,3.5-3
		c7.7-2.4,14.8-5.8,21.1-10.9c1.7-1.4,3.7-2.9,6.2-1.6c2.4,2.2,3,5.2,3.8,8.1c1.4,5,2.1,10.1,1.9,15.3c-0.9,2.9,0.5,6.3-1.6,9
		c-1.2,9.1-2.5,18.3-3.7,27.4c-0.6,4.6-1.2,9.3-1.7,13.9c1.1,4.5-0.9,8.8-1,13.2c-0.9,6.5-2.3,13-3.3,19.5c-0.4,1.6-0.5,3.3-0.8,5
		c-0.9,4.4-1,8.9-2.5,13.2c-0.5,0.9-1.3,1.3-2.2,1.5c-2.3,0.2-4.7,0.6-6.8-0.8C693.1,465.1,691.6,465.1,690.1,465z"/>
	<path class="st0" d="M244.2,473.4c11.3-0.5,22.7,0.4,34,1c11.5,0.6,23.1,1,34.3,3.7c2.3,0.6,6.1,0.7,6.1,3.3c0,2.1-3.8,2.3-6.1,2.8
		c-7.9,2-16,2.3-24.1,3c-28.1,2.2-56.3,1.8-84.4,1.3c-16.8-0.3-33.7-0.8-50.3-4.5c-1.9-0.4-5-0.2-5.1-3c-0.1-3,3.2-2.4,5.1-2.9
		c4.2-1.1,8.6-1.7,13-2.6c1.8,1.6,0.7,3.7,1,5.8c1.1-2.2-0.4-5,2.1-6.5c7.8-1.4,15.5-2.1,23.4-1.5c2.4,1.9,1.1,4.7,1.6,7.1
		c0.8-2.4,0.2-5.2,2.3-7.1c9.1-2.2,18.3-1.1,27.5-1.4c0.3,0,0.5,0,0.7,0c2.3-0.4,3.5,1.1,4.7,2.6c1.6,2.1,3,4.4,5.2,6.1
		c1.1,0.8,2.2,1.7,4,1.4c-0.2-2.1-1.6-3.4-2.5-5c-0.5-1.4-1.8-2.6-0.7-4.2c1.8-0.8,3.7-0.9,5.5-1.4c2.8,2.5,0.8,6,1.6,8.8
		C243.5,478.2,242.3,475.6,244.2,473.4z"/>
	<path class="st5" d="M351.5,74.8c0.4-5.7-0.1-11.5,0.5-17.2c0.3-3.2,1.3-6.2,1.8-9.3c0.5-0.6,0-1.4,0.2-2
		c2.3-5.7,6.1-10.1,11.3-13.2c2.1-1.3,3.6-3.4,6.1-4.1c1-0.7,2.1-1.1,3.3-1.4c11.1-3.3,21.7-2.1,31.8,3.8
		c5.9,3.8,10.5,8.6,13.4,15.1c0.3,0.5,0.5,1.1,0.8,1.7c2.9,8.3,2.5,16.8,2.4,25.4c0,0.4,0,0.9,0,1.3c0,0.5,0,0.9,0,1.4
		c-0.1,1.4,0,2.8-1.3,3.8c-5.1,1.2-10.3,1.1-15.4,0.1c-1.9-1.4-1.4-3.4-1.5-5.3c-0.3-6,0.3-11.9-0.7-17.9c-1.8-11-17.4-19-28-10.1
		c-5,4.3-7.3,9.3-7.4,15.6c-0.1,4.3,0,8.7-0.1,13c0,1.6,0.2,3.4-1.4,4.6c-5.2,1-10.4,1.2-15.6-0.1c-1.3-1.1-1.3-2.5-0.9-4
		C350.9,75.6,351.2,75.1,351.5,74.8z"/>
	<path class="st0" d="M815,475c0.6,2,1.1,4.1,1.7,6.1c0.4,3.2,2.4,4,5.3,3.6c3-0.4,6.4,1.2,8.8-2c2.6-0.1,3.6,1.4,3.3,3.8
		c-12,0.8-24.1,1.2-36.2,1.7c-29.6,1.3-59.1,0.5-88.7,0.4c-11,0-22.1-0.5-33.1-1.4c-10.6-0.9-21.3-1.1-31.6-3.8
		c-1.2-0.3-3.2-0.2-3.2-2c0-1.9,1.9-2.2,3.4-2.5c7.3-1.8,14.8-2.4,22.2-3c9.2-0.7,18.5-0.9,27.7-1.7c0.7,3.8-2.6,5.6-4.2,8.2
		c-0.3,0.7-2.3,1.2-0.4,2.1c2.5,1.2,6.3-0.3,7.8-2.7c0.5-0.8,0.7-2.2,1.9-2.1c1.5,0.2,1,1.8,1.4,3c0.4-2.8,1-5.4,1.2-8
		c0.1-1,0.1-2.1,1.5-2.3c3.8,1.2,7.5,0,11.2-0.1c4.6,0,9.3-0.4,13.9,0.3c1.8,1.7,3.5,2.5,5.6,0.3c0.7-0.8,1.8-0.7,2.8-0.6
		c8.7,0,17.3,0,25.9,0c1.6,0,3.3-0.1,4.8,0.8c1.2,1.1,1.2,2.4,0.8,3.8c-1.6,3.1-4.6,4.2-7.6,5.3c-2,0.7-4.1,1.1-5.9,2.2
		c8,0.3,16,0.3,24,0.2c2.3,0,3-1.5,3.6-3.3c1.2-2.1,2.7-4,3.7-6.1c0.6-1.3,1.5-2.3,3.1-2.6c6.6,0.6,13.2,0.4,19.8,0.5
		C811.5,473.1,813.6,473.2,815,475z"/>
	<path class="st6" d="M224.2,344c0.8-0.7,1.8-0.9,2.8-0.9c13.9,0,27.8,0,41.6,0c0.4,0,0.7,0.2,1.5,0.3c-4.6,11.3-9.2,22.6-13.8,33.8
		c0,0-0.2-0.2-0.2-0.2c-1.1-1.1-2.4-0.5-3.6-0.5c-13.2,0-26.5,0-39.7,0c-0.8,0-1.2-0.4-1.4-1.2c0-2.3,1-4,2.7-5.5
		C217.5,361.2,220.9,352.6,224.2,344z"/>
	<path class="st7" d="M209.7,279.5c6.6,1.9,9,7.3,10.8,13.1c3.1,9.8,4.7,19.7,1.1,29.7c-0.4,1-0.3,3.1-2.5,2.3
		c-2.9-5.3-8.5-5.6-13.5-7c-0.6-0.2-0.9-0.7-1.1-1.3c-0.5-3.2,2.5-2.7,4-3.9c4-4.2,5.4-9.2,4.7-14.8c-0.4-3.2-1.5-3.8-4.3-2.2
		c-3.7,2.2-7.6,4.3-11.9,5.1c-2,0.4-2.4,1.6-2.4,3.3c0,2.8,0,5.6-0.8,8.3c-0.5,1.8-1.2,3.4-3.1,4.1c-2.4,0.4-4.8,0.7-7.2,1.1
		c-7.9,1.2-11.3,7.2-14.2,13.5c-2,4.2-3.3,8.8-5.1,13.5c-4.2-5.1-4.7-10.6-3-16.3c1.5-5.3,4.7-9.5,9.3-12.7c2.8-1.9,5.5-4.1,7.9-6.6
		c2.1-2.3,3.5-4.9,3.8-8.1c0.7-7,4.2-12.7,8.6-17.9c1.7-2.1,4.1-3.5,6.7-4.2c2.4-2.5,5.3-0.7,7.9-0.8c0.4,0,0.8,0.1,1.2,0.2
		C207.7,278.3,208.8,278.7,209.7,279.5z"/>
	<path class="st8" d="M197.4,276.5c-49.5,0-99.1,0-148.6,0c-9.2,0-17.8-7.4-17.7-17.7c0.3-35.4,0.4-70.7,0-106.1
		c-0.1-13.9,8-20.4,20.7-20.4c27.2,0.2,54.4,0.1,81.6,0c1.5,0,3.1,0.6,4.3-0.8c1.4-0.2,1.7,0.9,2.3,1.8c0.5,1.3,0.9,2.6-0.7,3.5
		c-1.7,0.7-3.5,0.4-5.3,0.4c-28.4,0-56.9,0-85.3,0c-4,0-7.5,1.1-9.7,4.7c-2.3,3-2.8,6.4-2.8,10.1c0.1,34.8,0.1,69.6,0,104.4
		c0,3.7,0.4,7.1,2.5,10.2c1.7,5.4,6.8,5,10.9,6.2c1.2,0.4,2.5,0.1,3.8,0.1c46.2,0,92.4,0,138.7,0c1.1,0,2.3,0,3.4,0
		C198,273.2,198.6,274.3,197.4,276.5z"/>
	<path class="st3" d="M251.1,426.2c-2.6,7.5-5.7,14.8-7.9,22.5c-0.8,1.9-0.2,4.5-2.8,5.4c-0.4,0.1-0.8,0.2-1.2,0.2
		c-3,0-5.7-1.1-8.2-2.8c-1.4-1.1-1.3-2.7-1.1-4.2c0.9-9.9,2.2-19.8,4.2-29.5c0.7-2.8,1.1-5.6,2-8.3c0.4-1.8,0.8-3.6,2.5-4.6
		c0.7-0.1,1.3,0.2,1.6,0.7C243.8,412.7,248.5,418.9,251.1,426.2z"/>
	<path class="st9" d="M180,376.3c-1.8,7.1-3.7,14.2-3.3,21.7c0.3,4.3,0.6,8.6,4.1,11.8c-5.4,2.2-10.8,2-16.3,0.1
		c0-10.8,0-21.6-0.1-32.3c0-2.1,0.3-3,2.7-2.3C171.4,376.5,175.7,376,180,376.3z"/>
	<path class="st10" d="M164.6,409.9c5.4,0,10.9-0.1,16.3-0.1c11.4,0,22.8,0,34.2,0c3.5-0.2,6.9-1,10.4-1c1.4,0,2.8,0,3.9,0.9
		c-0.3,2.9-2.7,2.1-4.3,2.1c-8.8,0.2-17.6,0.1-26.4,0.1c-1.3,0-2.6,0-3.8,0c-2.1,0-3.8,0.6-3.9,3.1c-0.1,2.2-1.6,2.7-3.4,2.8
		c-3.1,0.1-6.1,0-9.2,0.1c-1.4,0-2.8-0.2-3.9,1.1c-0.9,1.5-1.1,3.2-1.2,4.8c-0.1,13.9-2,27.7-2.5,41.5c-0.1,3.5-0.1,7.1-1.7,10.4
		c-0.1,2.1-0.2,4.3-0.4,6.4c-0.1,0.8-0.4,2-1.5,1.7c-1-0.2-1.3-1.2-1-2.1c0.6-2,0.5-4,0.4-6c0-0.4,0.1-0.8,0.1-1.1
		c0.3-17.8,0.6-35.6,0.9-53.4c0-2.4,0.2-4.8-2-6.6C164.3,413.4,164.4,411.6,164.6,409.9z"/>
	<path class="st11" d="M197.4,276.5c0-1.3,0.5-2.4-2-2.4c-48.2,0.1-96.4,0.2-144.6,0.1c-4.6,0-9.1-1.1-12.5-4.7
		c-0.6-0.6-1.4-1.3-0.3-2.2c3.1,1.1,6.4,1.9,9.5,3c2,0.8,4,0.5,6.1,0.5c47.8,0,95.6,0,143.4,0c2.8,2.9,2.9,5,0.4,7.2
		C197.4,277.6,197.4,277,197.4,276.5z"/>
	<path class="st12" d="M204.9,317.1c0.2,0.1,0.4,0.3,0.6,0.4c-3.4,3.1-7.1,2.4-10.8,0.6c-1.4-0.6-2.7-1.3-4-2
		c2.8-3.6,3.3-7.9,3-12.3c-0.2-2.9,0.2-4.5,3.9-4.7c4.4-0.3,8.4-2.8,12-5.4c2.3-1.7,3.4-1,4,1.4c1.8,6.9,0.4,13-4.6,18.2
		c-4,1.1-7.7,0.7-11-2.2C199.3,314.4,202.5,315.2,204.9,317.1z"/>
	<path class="st13" d="M419,46.7c-2.4-6.5-7.8-10.7-12.5-15.3c3-0.5,4.2,2.1,6,3.5c2.2,1.6,4.2,3.9,5.4,6.3c2.1,4.1,5.1,4.8,9.3,4.8
		c105-0.1,210-0.1,315-0.1c0,0.2,0,0.4,0,0.6c-0.9,1.2-2.2,1.1-3.5,1.2c-1.1,0.1-2.3,0-3.4,0c-103.1,0-206.2,0-309.2,0
		C423.6,47.7,421.2,48.1,419,46.7z"/>
	<path class="st0" d="M834.1,486.5c-0.6-1.6-1.9-2.6-3-3.8c-0.3-0.2-0.4-0.5-0.3-0.8c0.3-2,0.7-4.1,1-6.1c8.8,0.4,17.7,1.2,26.3,3.2
		c1.4,0.3,3.9,0.1,3.9,2.3c-0.1,1.9-2.3,2.1-3.9,2.4c-4.5,0.8-9,1.5-13.5,2.1C841.2,486.1,837.7,486.2,834.1,486.5z"/>
	<path class="st3" d="M251.1,426.2c-4.1-5.8-7.1-12.2-10.7-18.3c-0.5-0.9-1-1.7-1.6-2.5c-1.3-2.1,0.3-3.3,1.4-4.7
		c4.2-2.6,5.7-2.3,7.6,2c2.2,4.8,4,9.8,7.1,14.2C253.4,419.9,253,423.3,251.1,426.2z"/>
	<path class="st14" d="M351.5,74.8c0,0.3,0,0.7,0,1c-2.5,2.8-5.3,5.3-6.6,8.9c-2.4,3.9-3.1,8.2-3.1,12.8c0.2,9,0.1,18.1,0,27.1
		c0,1.9,0.2,3.8-0.9,5.6c-1.1,0.8-2.2,0.9-3.3-0.1c0-9.9,0.4-19.9-0.2-29.8c-0.3-5.4-0.6-10.4,2.2-15.4c1.8-3.2,4.2-5.9,5.6-9.2
		c0.9,0,1.8,0.1,2.3-0.8C348.9,74.9,350.2,74.8,351.5,74.8z"/>
	<path class="st15" d="M365.3,33c-4.2,4.1-8.4,8.2-10.8,13.7c-0.9,0.6-2,0.3-3,0.3c-43.6,0-87.2,0-130.7,0c-0.9,0-1.8,0.1-2.6-0.2
		c0,0,0.1-0.3,0.1-0.3c1.3-1.1,2.9-0.6,4.4-0.6c41.9,0,83.9,0,125.8,0c3.1,0,5-0.4,6.4-3.8c1.7-4,4.9-7.3,8.5-10
		C364.6,31.2,365.1,31.6,365.3,33z"/>
	<path class="st16" d="M287.8,447.4c2.6-0.4,5.3-0.6,7.7-1.7c4.1,1.8,7.5,4.8,11.2,7.2c0.9,1,2.2,0.5,3.2,0.9
		c-0.3,1.8-1.8,2.5-3.2,2.9c-5.6,1.7-11.2,1.8-16.6-0.9c-0.1-0.7-0.1-1.5-0.2-2.2C290.4,451.1,288.6,449.5,287.8,447.4z"/>
	<path class="st17" d="M178.2,354.8c1.3-2.2,2.5-4.3,3.8-6.6c1.2,0.7,0.8,1.7,0.9,2.5c0.7,8.1,5.8,12.2,12.9,14.6
		c1.9,0.6,3.8,1.3,5.5,2.5c-0.6,1.9-1.8,1.4-3,0.8c-3.2-2.8-7.4-2.9-11.2-3.8c-2.7-0.6-5.4-1.2-8-1.7
		C177.4,360.4,177.5,357.6,178.2,354.8z"/>
	<path class="st18" d="M690.1,481.7c1.3-2.6,3.7-4.6,4.4-7.5c0-3,0.1-6,0.1-9.1c2.3,0,4.6,0,6.9,0c1.5,2,1.1,4.3,1.1,6.6
		c-2,2.9-4.2,5.7-6.2,8.6C694.8,482.8,692.8,483.7,690.1,481.7z"/>
	<path class="st19" d="M240.3,453.7c2.2-0.9,1.5-3.6,3-4.9c0.3,8.2,0.6,16.5,0.9,24.7c0,2.4,0.1,4.8-0.1,7.3c-0.1,1.1,0.9,3.1-1.1,3
		c-1.5-0.1-1.1-2-1.2-3.2c-0.1-2,0-4.1,0-6.1c0-0.9,0.1-1.8-0.7-2.5c-0.8-0.6-1-1.4-1.1-2.3c-0.2-4.4-0.2-8.8-0.7-13.1
		C239.2,455.4,239.5,454.4,240.3,453.7z"/>
	<path class="st20" d="M198.2,368.6c1-0.2,2.2,0.1,3-0.8c4.6-1.1,8.6,1.2,12.9,2.1c-0.7,1.7-1.4,3.4-2.1,5c-0.2,0-0.3-0.1-0.5-0.1
		c-1.6-0.7-2.9-2.5-5-1.5c-1.8,0.6-3.7,0.9-5.5,1.2c-1.4,0.2-2.6-0.1-2.4-2C199.2,371.1,198.3,369.9,198.2,368.6z"/>
	<path class="st21" d="M197.4,278.1c1.5-2.3,0.6-4.6-0.1-6.9c-0.2-0.5-0.1-0.9,0.4-1.2c2.7-1,5.5-1.1,8.2,0.1c1.2,1.4,0.9,3.1,1,4.7
		c0,1.4,0.1,2.8-1,3.9c-2.8,0.3-5.6-0.9-8.5-0.1C197.4,278.4,197.4,278.3,197.4,278.1z"/>
	<path class="st19" d="M178.2,354.8c0.6,2.7,1.1,5.5,0.7,8.3C173.5,361.7,173.5,361.4,178.2,354.8z"/>
	<path class="st22" d="M198.7,372.4c0.9,2.3,2.5,0.9,3.9,0.7c1.6-0.2,3.2-0.6,4.8-0.9c0.8,0.9,0.7,1.8,0,2.7
		c-3.1,1.1-6.2,1.5-9.2-0.3C198.3,373.8,198.5,373.1,198.7,372.4z"/>
	<path class="st23" d="M198.2,374.5c3.1,0,6.2,0,9.2,0c1.2-0.8,2.3-1,3.2,0.4c-0.2,0.5-0.5,1-1,1c-4.3,0.2-8.7,0.8-12.9-0.4
		c-1-0.1-2-0.2-3.1-0.2C195,374.1,196.6,374.8,198.2,374.5z"/>
	<path class="st15" d="M374.7,27.6c-1,0.8-2,1.3-3.3,1.4C372.1,27.5,373.3,27.4,374.7,27.6z"/>
	<path class="st24" d="M306.8,452.9c-4.6-1.1-8-4-11.2-7.2c1.4-1.6,0.2-2.8-0.5-4.1c-4.7-9-9.5-18-14.2-27c1.4-1.6,3.4-0.9,5-0.9
		c128.2,0,256.5,0,384.7,0c1.9,0,3.9,0.4,5.6-0.7c2.2,0.4,2.9,2.4,4,3.8c3.1,4,6.8,7.6,9.1,12.2c0.4,8.2,1.3,16.4,0.7,24.6
		c-17.7-1-35.3-1.3-53-1.7c-6.7-0.2-13.5-0.4-20.2-0.5c-71.7-1.5-143.3-0.7-215-0.6c-14.9,0-29.8-0.1-44.7,0.8
		c-9.3,0.5-18.6-0.2-27.8,0.7C321.8,452.8,314.3,452.4,306.8,452.9z"/>
	<path class="st25" d="M838,313.3c0.4,3.8-0.8,7.7,0.8,11.5c0,3.1,0,6.3,0.1,9.4c0,1.6-0.1,3-1.7,3.8c-13.5,3.4-27.3,5.2-41.2,4.5
		c-5.4,1.3-9.8-1.1-14.2-3.7c-1.4-1.4-1.4-3.2-1.1-5c0.7-4.7,0.5-9.5,1.7-14.1c1.5-1.9,3.8-1.8,5.9-2.2c9.6-2,19.1-4.2,27.7-9.3
		c2.2-1.3,4.4-2.5,6-4.6c4.6-2,7.1-5.6,7.8-10.5c0.4-1.1,1.1-2,1.6-2.2c-0.9,0.4-2.5,1-4,1.6c-8.1,3.2-12.9,1.8-17.4-5.7
		c-5.6-9.3-10.6-19-13-29.7c1.2,5.7,1.8,11.4,3.1,17.1c1.2,5.3,3.6,10.1,6.3,14.7c3,5.1,7.3,8.8,13.1,10.4c1.4,1.6,2.3,3.3,1.1,5.4
		c-3.8,2.7-8.3,2.3-12.5,2.5c-8,0.4-15.9,1.5-23.9,1c-4-0.5-8.2-0.2-11.7-3.2c-0.1-0.3-0.3,0.6,0,0.2c2.1,4.7,0.5,9.7,1,14.6
		c0.2,5.5,0.1,11,0,16.5c0.2,4.9,0.1,9.8,0,14.7c0.2,12.4,0.1,24.7,0,37.1c0,1.5,0.3,3.5-1.8,4.1c0-30-0.1-60-0.1-90
		c0-6.3,0-12.5,0-18.8c0.7-0.8,0.2-1.9,0.6-2.7c0.8-7.9,3.6-15.3,6.3-22.7c2.2-5.9,6.7-9,12.8-10c2-0.3,3.6-1.1,4.3-3.2
		c0.3-1,1.2-1.6,2.2-1.9c1.8-0.5,3.7-0.5,5.5,0c1.4,0.5,2.3,1.6,3.2,2.7c0.5,0.7,0.9,1.5,1.2,2.4c1,2.5,1.6,5.4,5.2,5.2
		c3.5-0.2,7-0.4,8.6-4.4c0.1-0.4,0.5-0.6,0.9-0.6c0.2,0,0.3,0,0.5-0.1c6,0.3,11.3,2.8,16.8,4.7c3.1,1.9,6.2,4,7.6,7.6
		c1.7,3.8,0.9,8.2-2.2,11.5c-1.3,4.2-3.6,7.9-6.3,11.2c-2.2,2.6-3.2,5.4-2.1,8.7c0.1,3.1-0.7,6.2,0.6,9.2
		C837.5,305.2,836.5,309.3,838,313.3z"/>
	<path class="st26" d="M337.6,130.2c1,0,2,0,3,0c1.4,1.6,1.2,3.2,0.1,4.8c-1.7,1.2-3.7,1-5.6,1c-8.6,0-17.1,0.5-25.7-0.1
		c-11.6-0.8-21.5,9.8-21.4,21.5c0.3,38.1,0.1,76.1,0.1,114.2c0,26.8,0,53.6,0,80.5c0,6.1,1.4,11.6,6,16c4,3.9,8.6,6.2,14.4,6.2
		c52,0,103.9,0,155.9,0c11.3,0,19.8-8.7,19.8-20c0-66,0-132,0-198.1c0-11.9-8-20-19.9-20.1c-8.7-0.1-17.4,0-26.1,0
		c-1.9,0-3.9,0.2-5.6-0.8c-1.4-1.5-1.3-3.1-0.5-4.8c0.8-0.8,1.7-0.8,2.7-0.2c9.8,0,19.7,0,29.5,0c15,0,25.7,10.7,25.7,25.8
		c0,66.1,0,132.2,0,198.4c0,14.6-10.9,25.4-25.4,25.5c-52.1,0.3-104.2,0.3-156.2,0c-15.9-0.1-25.8-10.6-25.9-26.6
		c-0.3-65.4-0.2-130.7-0.1-196.1c0-16.8,11.4-27.2,27.5-27C319.2,130.3,328.4,130.2,337.6,130.2z"/>
	<path class="st26" d="M674.8,380.9c-1.3-1.5-3.1-0.9-4.7-0.9c-41.9,0-83.7,0-125.6,0c-12.3,0-20.8-5.9-25.9-16.8
		c-1.4-3-1.7-6.4-1.7-9.7c0-65.9-0.2-131.7,0.1-197.6c0.1-14.1,10.4-25.7,25.7-25.7c52-0.1,103.9,0,155.9-0.1
		c15.2,0,26.7,11.4,26.7,26.8c0.1,30.9,0,61.8,0,92.7c-3.8,2.1-5.7,1-6.5-3.8c-0.1-29.6-0.4-59.3,0.1-88.9
		c0.2-10.9-8.6-21.2-21.1-21.1c-51.2,0.4-102.4,0.2-153.6,0.2c-13.1,0-20.7,7.6-20.7,20.7c0,65.6,0.1,131.3-0.1,196.9
		c0,11,8.4,20.7,20.7,20.7c43-0.2,86.1,0,129.1-0.1c0.9,0,1.8-0.1,2.7,0.2C677.5,376.8,677.2,379,674.8,380.9z"/>
	<path class="st27" d="M719.4,246.6c1,2.9,2.9,4.1,5.9,3c6.8,0,8.1,1.1,9.1,7.2c0.3,1.8-0.3,2.9-2,3.5c-2.6,1-4.7,3.9-7.9,1.6
		c-0.7,0.5-0.7,1.3-0.7,2.1c-0.8,8.7-6,12.1-14.6,9.6c-2.4-1.1-3.1-3.4-4-5.6c-0.2-0.7-0.6-1.4-1-2c-1.3-2-2.7-4-3.9-6
		c-1.5-2.6-2.5-5.3-1.8-8.3c0.6-2.9-0.1-5.5-1.5-8c-0.9-3.6,0.1-5.7,3.3-6.8C706.4,234.8,717.4,240.4,719.4,246.6z"/>
	<path class="st28" d="M674.8,380.9c1-2,0.7-4.2,1.3-6.3c-1.1-3.7-0.4-7,1.7-10.1c3.4,0.3,4.2,3,4.9,5.5c1.6,5.8,2,11.8,2.6,17.7
		c0.9,8.5,1.4,17,2.4,25.5c-0.1,2.5,0.6,5,0.4,7.5c0,0.3-0.1,0.5,0,0.8c0-0.4,0.2-0.7,0.5-1c1.3,2.7,0.4,5.6,0.6,8.4
		c-5-4.8-8.9-10.6-13.2-16c-5.8-8.7-2.7-18-1.8-27.1C674.5,384.2,674.7,382.5,674.8,380.9z"/>
	<path class="st26" d="M716.8,372.3c0.2-3.1-0.1-6.3,0.7-9.4c1.6-2.6,1.2-5.7,1.2-8.5c0.1-16.4,0.2-32.9,0.1-49.3
		c-0.5-4.6,0.8-9,0.8-13.6c0-1.6,0.1-3.3-0.4-4.9c-0.3-1.3-0.3-2.7-0.3-4c0.1-2.6-0.3-5.2,0.2-7.8c1.8-2.8,3.4-5.7,5.5-8.3
		c1.1,1,0.7,2.4,0.7,3.6c0,27.5,0.1,55.1-0.1,82.6C725.2,360.3,723.3,367.4,716.8,372.3z"/>
	<path class="st29" d="M770.6,75.2c-1.5,1.1-3.2,0.6-4.8,0.6c-112.8,0-225.6,0-338.4,0c-0.7,0.5-1.4,0.6-2.1,0.1
		c-0.5-0.4-0.3-0.9,0.2-1.2c1.8-1,3.7-0.8,5.6-0.8c111.2,0,222.3,0,333.5,0c1.7,0,3.3-0.1,4.9,0.5C769.9,74.4,770.2,74.7,770.6,75.2
		z"/>
	<path class="st30" d="M425,75c0.5,0.9,1.5,0.8,2.3,0.8c1.9,2.1,3.8,4.3,5.8,6.4c1,1,1.1,2.2,1.4,3.4c1.3,4.6,0.9,9.2,0.6,14
		c-0.7,10.1-0.2,20.4-0.2,30.6c-0.7,0-1.5,0-2.2,0c-1.6-1.5-1.2-3.6-1.2-5.4c-0.1-9.3-0.1-18.6,0-27.9c0.1-5.1-0.9-9.6-4.5-13.4
		c-1.5-2.7-3.7-4.9-5.1-7.6c0-0.3,0-0.7,0-1C423,74.1,424,74.1,425,75z"/>
	<path class="st31" d="M724.6,266.6c-1.1,2.8-1.8,5.8-4.7,7.5c-2.1,3.2-5.2,1.7-7.9,1.8c-1.6-0.5-2.9-1.2-2.9-3.1
		c9.1,2,12.4-0.1,14-8.8c0.2-0.8,0-2.1,1.5-2.1C724.6,263.5,724.6,265,724.6,266.6z"/>
	<path class="st32" d="M770.6,57.4c1.5,4.4,0.3,9,0.7,13.5c0.1,1.4,0,2.8,0,4.2c-0.3,0-0.5,0.1-0.8,0.1c0,0-0.1-0.3-0.1-0.3
		C768.8,69,768.4,63.2,770.6,57.4z"/>
	<path class="st33" d="M290.2,455.7c3,0.3,6.1,0.6,9.1,0.9c4,0.4,7.5-0.5,10.7-2.9c0.7,0.1,1.5,0.2,2.2,0.4c1.1,0.3,3-0.5,3.2,1.2
		c0.2,1.8-1.6,2.5-3,2.9c-2.1,0.6-4.2,1.3-6.3,1.3c-3.8,0-7.6,0.5-11.3,0.9C290.6,460.8,290.1,460.1,290.2,455.7z"/>
	<path class="st2" d="M770.6,57.4c0.1,5.8,0.4,11.6-0.2,17.4c-47.5,0-95,0-142.5,0c-66.1,0-132.3,0-198.4,0c-1.5,0-3.1,0.1-4.6,0.2
		c-1-0.1-2-0.1-3-0.2c-0.1-0.2-0.1-0.4,0-0.5c1.3-1,1.8-2.4,1.8-4c0.2-6.3-0.4-12.4-2-18.5c-0.4-1.6-1.6-3.4,0.7-4.6
		c110.1,0,220.3,0,330.4,0c1.5,0,3.1,0.3,4.6-0.3C764.3,47.3,768.5,51.1,770.6,57.4z"/>
	<path class="st34" d="M757.5,46.8c-1.5,1.2-3.2,0.6-4.8,0.6c-110.3,0-220.5,0-330.8,0c-0.8,0.7-1.7,0.6-2.6,0.1
		c-0.1-0.3-0.3-0.6-0.4-0.8c59.4,0,118.7,0,178.1,0c47,0,94,0,140.9,0c1.4,0,2.8-0.1,4.2-0.1C747.3,46.6,752.4,46.7,757.5,46.8z"/>
	<path class="st7" d="M779.8,361.6c-0.6-4.6,0.6-9.2,0.6-13.8c-1-3.4-0.9-6.6,1.7-9.4c4.3,2.3,9,3.4,13.8,4.1
		c2.9,2.7,1.5,6.5,2.1,9.7c2,11.3,3.6,22.7,5.2,34.1c1,7.3,1.8,14.7,2.6,22c-0.2,0.3-0.5,0.5-0.9,0.7c-2.4,0.6-2.7-1.4-3.4-2.8
		c-2.8-5.4-5.6-10.9-8.2-16.4c-2.9-6-5.5-12.1-8.9-17.8C782.4,368.8,781,365.2,779.8,361.6z"/>
	<path class="st7" d="M830.9,481.8c0.1,0.3,0.2,0.5,0.3,0.8c0.3,2.4-0.3,3.7-3.2,3.4c-2.5-0.3-5.1-0.1-7.6-0.1c-4.8,0-4.8,0-3.7-4.9
		C821.5,480.7,826.2,480.6,830.9,481.8z"/>
	<path class="st34" d="M218.1,46.8c0.5-0.1,1-0.1,1.5-0.1c45,0,89.9,0,134.9,0c0,0.6-0.1,1.2-0.7,1.6c-1.4-1.4-3.1-0.8-4.7-0.8
		c-42.2,0-84.4,0-126.5-0.1C221,47.4,219.4,47.9,218.1,46.8z"/>
	<path class="st35" d="M229.6,410c-4.8-0.1-9.7-0.2-14.5-0.3c6.9-1.7,13.5-4.2,20-7.1c0.9-0.4,2-0.4,2.9-0.6
		c-0.6,3.8-3.7,5.5-6.3,7.7C231.1,410,230.4,410.3,229.6,410z"/>
	<path class="st36" d="M211.9,376.1c13.5,0,27,0,40.5,0.1c1.3,0,2.9-0.8,3.8,0.9c-19.1,0-38.2,0.1-57.3,0.1c-0.8,0-1.9,0.4-2.2-0.9
		C201.8,375.3,206.8,375.7,211.9,376.1z"/>
	<path class="st37" d="M231.1,409.3c2.5-2.2,4.9-4.6,6.9-7.3c0.8-0.2,1.1-1.5,2.2-1.3c-0.4,1.6-1.5,3-1.4,4.7
		c-1.1,1.3-1.5,2.8-1.8,4.4C235,411,232.9,411.8,231.1,409.3z"/>
	<path class="st38" d="M211.9,376.1c-5,0.1-10.1,0.1-15.1,0.2c0-0.3-0.1-0.5-0.1-0.8c4.7-0.6,9.4,0.7,14-0.7
		c0.4-0.6,0.8-0.6,1.3-0.1c0,0,0.1,0.2,0.1,0.2C212,375.3,211.9,375.7,211.9,376.1z"/>
	<path class="st24" d="M702,471.7c-0.9-2.1-0.3-4.4-0.5-6.5c0.6-0.2,1.4-0.1,1.7-0.9c0.3-1.5,1.3-2.3,2.8-2.6
		c6.5-0.9,13-1.3,19.6-1.4c5.2,2.1,5.3,6.9,5.9,11.4c-0.2,0.9-0.3,1.7-1.5,1.8c-6.9,0.2-13.7-0.6-20.6,0.6c-2.1,0.4-4.6,0.9-6.3-1.4
		C702.3,472.8,702,472.5,702,471.7z"/>
	<path class="st28" d="M709.3,426.4c5,7.1,10,14.2,15,21.3c0.4,0.6,0.3,1.2,0.1,1.8c-1.2,2.8-3.9,4.1-6,5.9c-1,0.3-1.8,0-2.7-0.4
		c-3.2-2.9-7.2-4.9-9.5-8.7C706.5,439.5,708.6,433.1,709.3,426.4z"/>
	<path class="st39" d="M720,304.9c0,16.8,0,33.5,0,50.3c0,2.9-0.8,5.4-1.8,8c0,0-0.2,0-0.4,0c-0.1,0-0.2-0.2-0.3-0.2
		c-0.4-8-1.3-15.9-5.4-23c-0.8-0.5-1.1-1.2-1-2.1c0.3-1.4,0.9-2.7,1.6-3.9c2.9-5,4.3-10.2,4-16c-0.2-3.7,0.9-7.3,1.6-10.9
		C718.4,306,718.5,304.8,720,304.9z"/>
	<path class="st40" d="M711.5,338.6c0.2,0.4,0.4,0.9,0.6,1.3c-3.3,0.6-5.6,2.8-8.1,4.8c-5.3,4.2-11.5,6.3-17.7,8.5
		c-1.3,0.5-2.6,1-3.9,1.6c-1.8-2-1.1-4.3-0.8-6.6c0.5-1.1,1.4-1.8,2.5-2.2c6.7-2.4,13.1-5.7,20-7.7
		C706.7,337.6,709.2,336.8,711.5,338.6z"/>
	<path class="st0" d="M716.1,454.5c0.7,0.4,1.5,0.7,2.3,0.2c3.5,1,6.6,2.6,7.7,6.5c-6.8,0.5-13.6,1.1-20.4,1.5
		c-1.2,0.1-1.7,0.9-2.5,1.6c0.5-4.4,1-8.8,2.1-13.1c1.2,1.4,2.5,2.4,4.5,2.2C712.1,453,714,454.2,716.1,454.5z"/>
	<path class="st41" d="M682.4,347.8c0,2.3,0.1,4.6,0.1,7c0.7,5.5,1.6,11,2.1,16.5c1.2,13.1,2.2,26.2,3.3,39.3
		c0.4,0.9,0.2,1.9,0.2,2.9c-0.3,0.4-0.6,0.4-1,0.2c-1.6-14.3-1.9-28.7-5.2-42.8c-0.6-2.6-1.7-4.7-3.8-6.3c-0.9-0.6-0.8-1.5-0.6-2.4
		c0.8-4.9,1.8-9.7,3.9-14.2C681.7,347.6,682,347.6,682.4,347.8z"/>
	<path class="st42" d="M716.1,454.5c-3.1,0.9-6.2-0.6-9.3-0.4c-1.8,0.1-1.1-1.9-1.4-3c0.2-1.6-0.3-3.4,0.8-4.9
		C709.9,448.5,712.9,451.7,716.1,454.5z"/>
	<path class="st43" d="M687.1,413.7c0.2,0,0.5,0,0.7,0c0.6,0.4,0.3,1.1,0.7,1.6c0.1,1.8,0.1,3.5,0.2,5.3c-0.1,1-0.2,2-0.3,3
		c-0.1,0-0.2,0-0.4,0C687.7,420.2,687.4,416.9,687.1,413.7z"/>
	<path class="st28" d="M688.5,415.2c-0.2-0.5-0.5-1-0.7-1.6c0-1,0.1-2.1,0.1-3.1C689,412,688.4,413.7,688.5,415.2z"/>
	<path class="st24" d="M235,417.5c-1.2,8.1-2.3,16.2-3.4,24.3c-0.3,2.3-0.4,4.5-0.8,6.8c-0.2,1.3,0,2.2,1.2,2.9
		c0.4,5.4-1.7,8.6-7.2,11c-3.6,2.2-3.7,3.3-1,6.4c1,1.2,3.1,1.6,2.8,3.7c-0.5,0.7-1.2,0.8-2,0.8c-9.3,0.1-18.6-0.2-27.8,0.7
		c-2-2.2-1.4-4.9-1.1-7.3c1.6-15.1,2.1-30.2,2.9-45.4c0.2-4.1,1.1-5.1,5-5.1c9.2-0.2,18.4-0.1,27.5,0
		C232.5,416.3,233.9,416.4,235,417.5z"/>
	<path class="st24" d="M169.2,475.7c0.5-9.4,0.6-18.8,1.9-28.1c0.7-5.2,0.2-10.4,0.9-15.6c0.6-4.8,0.2-9.7,1-14.4
		c1.8-0.8,3.8-0.3,5.6-0.4c4.6-0.3,9.1,0.4,13.7-0.5c2.7-0.5,3.9,1.3,4,3.9c0.2,4.2,0.4,8.4,0,12.6c-1.1,11.3-0.4,22.6-0.8,33.9
		c-0.1,2.5,0,5.1-1.9,7.2C185.5,474.7,177.3,475.2,169.2,475.7z"/>
	<path class="st9" d="M193.6,474.2c1.4-10.9,0.3-21.9,0.9-32.8c0.4-6.7,0.4-13.5,0.7-20.2c0.1-3.2-1-3.9-3.9-3.8
		c-6.1,0.2-12.2,0.1-18.4,0.1c4.1-1.7,8.5-0.5,12.7-0.7c2.6-0.1,5,0.4,4.3-3.7c-0.4-2.5,1.9-2.5,3.7-2.5c10.7,0,21.3,0,32,0
		c1.3,0,2.8,0.5,4-0.6c0.5-0.2,1-0.5,1.5-0.7c1.9,1.2,4,0.4,6,0.5c-0.7,2.6-1.4,5.1-2.1,7.7c-10.6,0-21.2,0-31.8,0
		c-1.9,0-3.4-0.1-3.5,2.6c-0.6,15.7-1.1,31.5-3,47.2c-0.3,2.3,0,4.6,0,6.9c-0.3,2.8-0.6,5.5-0.9,8.3c-0.1,0.8-0.2,1.6-1.2,1.5
		c-1-0.1-1-1-1-1.8C193.6,479.5,193.6,476.9,193.6,474.2z"/>
	<path class="st44" d="M224.1,461.9c5.4-1.3,6.6-5.8,7.8-10.3c2.4,1.1,4.9,2.1,7.6,2.2c0.4,0.5,0.5,1.2,0.3,1.8
		c-1.7,5.9-2.6,12-3.9,17.9c0.5,1.3,1,2.6,1.4,3.9c-1.2,0.9-2.2,0.2-3.1-0.4C228.9,473.2,225.8,468,224.1,461.9z"/>
	<path class="st45" d="M224.1,461.9c1.5,2.6,2.9,5.4,4.5,7.9c2.1,3.4,4.7,6.3,8.7,7.5c1.9,1.7,4.3,4.6,2.8,6.1
		c-1.7,1.7-4.7-0.6-6.4-2.4c-2.5-2.6-4.8-5.5-7.2-8.3c-1.4-1.2-2.9-2.4-4.2-3.8C219.4,465.5,219.8,463.9,224.1,461.9z"/>
	<path class="st46" d="M235.9,473.4c-0.6-5.5,0.7-10.7,2.7-15.7c0.5-1.3,0.6-2.7,0.9-4c0.2-0.1,0.5-0.1,0.7,0c0.6,6,1,12.1,0.9,18.2
		C240.1,474.8,237.7,472.9,235.9,473.4z"/>
	<path class="st47" d="M427.2,82c4.1,3.7,5.5,8.2,5.4,13.7c-0.2,11.5,0,23,0.1,34.5c0,1.5,0,3.1,0,4.6c3.9,8.9-2.4,19.9-12,20.9
		c-2.5,0.3-5.1,0.1-7.6,0.1c-19.4,0-38.7,0.1-58.1,0c-10.2-0.1-17.4-9.4-15.2-19.4c0.1-0.6,0.5-1.2,0.9-1.7c0-1.5,0-3.1,0-4.6
		c0.1-11.5,0.2-23.1,0.1-34.6c0-4.5,1-8.5,3.8-12c2-2,3.7-4.6,7.2-4c5.3,0,10.6-0.1,15.8-0.1c0.8-0.7,1.8-0.8,2.7-0.8
		c10.9,0,21.8,0,32.7,0c1,0,2,0.2,2.8,0.8c5.3,0,10.7,0.1,16,0.1C424.3,78.9,425.6,80.8,427.2,82z"/>
	<path class="st48" d="M419.4,47.5c0.9,0,1.7-0.1,2.6-0.1c0.7,4.4,2.2,8.6,2.6,13.2c0.3,3.8,0.1,7.6,0.4,11.3c0.2,2.3-1.3,2.4-3,2.3
		c-0.5-7.4,0.5-15-1.5-22.3C420.1,50.5,419.7,49,419.4,47.5z"/>
	<path class="st49" d="M351.7,79.5c-2.4,1.3-4.8,2.7-7.2,4c1.6-3.2,3.1-6.5,7-7.7C351.6,77,351.7,78.3,351.7,79.5z"/>
	<path class="st50" d="M427.2,82c-1.8-0.8-3.6-1.7-5.5-2.5c0.1-1.2,0.1-2.5,0.2-3.7C424.5,77.2,425.8,79.7,427.2,82z"/>
	<path class="st1" d="M805.2,408.4c-1.9,6.4-1.5,13.1-3,19.5c-3.6,14.9-7.6,29.7-13,44c-0.2,0.5-0.2,1-0.3,1.5
		c-2,2.4-2.4,5.8-5.2,7.7c-1.1,0.9-2.3,1.1-3.5,0.6c-4-1.5-8.2-2.2-11.9-4.5c0-1.3,0-2.5,0-3.8c2.3-8.2,3.2-16.7,4.5-25.1
		c1.6-10.8,2.6-21.6,3.9-32.5c0.1-0.8,0-1.5,0-2.3c1.8-17.3,2.2-34.7,3.2-52c2.1,1.2,2.1,3.6,3.1,5.5c6.6,13.1,13.2,26.3,19.8,39.4
		C803.1,407.5,803.3,409.2,805.2,408.4z"/>
	<path class="st7" d="M768.2,477.2c3.6-0.2,6.7,1.9,10,2.8c1.8,0.5,3.6,1.2,5.5,1.1c0.4,3.6-1.1,4.8-4.8,4.7
		c-8.8-0.3-17.7-0.1-26.8-0.7C756.9,481.3,763.7,481.5,768.2,477.2z"/>
	<path class="st51" d="M730.1,473.5c0.2-0.6,0.5-1.2,0.7-1.8c2.1-2.7,1.4-5.7,0.7-8.6c-0.5-2.1-1.8-4.3-0.2-6.5
		c1.8-0.9,3.1,0.1,4.2,1.3c1.2,1.3,2.3,2.7,3.2,4.2c0.8,1.4,3.3,2.8,1.6,4.4c-1.3,1.2-1.5-2.3-3.6-2c1.1,2.9,2.5,5.9-0.7,8.4
		c-1,0.8-2,1.5-2.9,2.3C730.8,477.2,730.1,476,730.1,473.5z"/>
	<path class="st52" d="M702,471.7c0.4,0.3,0.8,0.7,1.1,1c0.4,3.6-0.4,7.1-1.2,10.5c-0.2,0.7,0,2.1-1.3,1.9c-1.4-0.2-0.7-1.4-0.6-2.1
		c0-1,0.2-2,0.3-2.9c-1-0.2-0.9,0.4-1,0.8c-1.9,4.8-6.4,6.7-11.1,4.9c-1.5-0.6-1.3-1.4-0.4-2.2c0.7-0.7,1.6-1.2,2.5-1.7
		c3,0.8,4.8-0.3,6.4-3C698,476.2,699.3,473.3,702,471.7z"/>
	<path class="st53" d="M243.1,362.3c-1.6,0.1-2.1-0.5-2.1-1.6c0-1.7,0.9-2.6,2.4-2.8c1.1-0.2,1.6,0.7,1.6,1.7
		C245.1,361.2,244.2,362,243.1,362.3z"/>
	<path class="st54" d="M204.9,317.1c-4.8-0.3-7.1-3.6-8.7-7.8c3.9,2.7,7.9,4.8,12.7,4.1C207.4,314.4,204.2,313.6,204.9,317.1z"/>
	<path class="st55" d="M206.6,275c0,1.3,0,2.5,0,3.8l-0.4,0.1c0,0-0.3-0.1-0.3-0.1c0-1.2,0.1-2.5,0.1-3.7
		C206.2,274.8,206.4,274.8,206.6,275z"/>
	<path class="st56" d="M205.7,270.4c-2.7,0-5.4,0-8.2,0c-1.5,0.8-3.2,0.7-4.9,0.7c-47.3,0-94.5,0-141.8,0c-1.5,0-3.1,0.3-4.4-0.7
		c-3.2,0-6.2-0.3-8.4-3.1c-2.8-2.5-3.1-5.7-3.1-9.3c0.1-35.7,0.1-71.3,0-107c0-3.6,0.5-6.8,3.1-9.4c2.5-3.2,6-4.2,9.8-4.2
		c31.2,0,62.4-0.1,93.7,0c10.9,0,21.9-0.2,32.8-0.2c3,0,6.1,0.7,9.1,0.2c7.2-0.1,14.5-0.2,21.7-0.1c9.9,0.4,13,2.5,15.5,10.5
		c0.3,4.3,0.2,8.7,0.2,13c0,31.6,0,63.2,0,94.8c0,2,0.1,4.1-0.1,6.1C218.2,269.6,212.2,273.1,205.7,270.4z"/>
	<path class="st57" d="M141.4,138.6c-31.4,0-62.8,0-94.2,0c-3.5,0-6.5,1.1-9.2,3.1c2-4.3,5.9-5.3,10-5.3c30.7-0.1,61.4-0.1,92-0.1
		c1.2-0.2,1.4,0.7,1.8,1.5C141.8,138.1,141.7,138.4,141.4,138.6z"/>
	<path class="st16" d="M822.2,248.2c-0.1,4.7-3.8,5.4-8.3,5.9c-3.5,0.4-6.2-0.5-6.8-4.7c-0.2-1.2-0.9-2.4-1.3-3.5
		c1-0.9,2.4-0.7,3.6-0.8c3.7-0.3,6.7-1.8,9.1-4.6c0.6-0.7,1.2-1.7,2.4-1.5c0.6,1.8-0.3,3.8,1,5.4C822,245.7,822.1,246.9,822.2,248.2
		z"/>
	<path class="st7" d="M829.7,222.1c-2.2,4.7-5.6,8.7-8.5,12.9c-0.9-0.7-0.9-1.8-1.1-2.8c0-1.8-1.1-2.7-2.6-3.3
		c-2.3-0.9-3.7-2.6-4.2-5c-0.5-2.5-2.2-3.5-4.5-3.8c-2.8-0.3-5.5-0.6-8.2-1.3c-1.4-0.7-2.4-1.8-3.2-3c-2-5.5-1.4-7.3,2.8-8.9
		c4.7-0.7,8.9-3.5,13.8-3.1c4.6,0.9,9.3,1.6,12.4,5.7C829.4,213.2,831.3,217.2,829.7,222.1z"/>
	<path class="st58" d="M821,232.1c0.1,1,0.1,1.9,0.2,2.9c-0.1,1.3-0.2,2.7-0.2,4c-3.7,5.3-8.6,7.8-15.1,6.9
		c-0.8-0.7-1.6-1.4-2.4-2.1c0.4-3.7-1.7-6.3-4-8.8c0-0.4,0.2-0.7,0.5-0.9c2.5-0.8,3.9,0.9,4.9,2.7c2.1,4,5.6,2.8,8.7,2.6
		c3-0.2,5.3-1.6,5.9-4.9C819.5,233.4,819.5,232.2,821,232.1z"/>
	<path class="st59" d="M46.5,270.4c50.4,0,100.7,0,151.1,0.1c-0.1,0.2-0.1,0.5-0.2,0.7c-1.4,0.9-2.9,0.8-4.5,0.8
		c-47.4,0-94.9,0-142.3,0C49.2,271.9,47.1,272.9,46.5,270.4z"/>
	<path class="st60" d="M211.9,374.7c-0.4,0-0.8,0-1.3,0.1c-1.1-0.1-2.2-0.1-3.3-0.2c0-0.8,0-1.6-0.1-2.3
		C209.8,371.3,210.7,373.3,211.9,374.7z"/>
	<path class="st61" d="M205.7,270.4c6.4,0.6,11.3-1.5,13.9-7.7c1-1.4,0.8-2.9,0.8-4.4c0-35.7,0-71.5,0-107.2c0-1.4,0.3-2.8-0.8-4
		c-2.6-6-7-9.2-13.8-8.4c-1.2-1.6-1.1-3.1,0.1-4.6c0.2,0,0.4,0,0.6,0c1.7,2.1,4.3,2.2,6.6,2.6c5.9,1.2,10.2,5.2,11.2,11.1
		c0.6,3.3,1,6.5,1,9.9c0,31.6,0,63.2-0.1,94.8c0,5.4-0.1,11-4.1,15.5c-2.5,2.9-5.4,5-9.4,5.2c-1.9,0.1-3.8,0.3-5.2,1.9c0,0,0,0,0,0
		c-0.2,0-0.4,0-0.6,0C205.9,273.5,205.8,272,205.7,270.4z"/>
	<path class="st62" d="M783.5,307.2c11.5-0.2,23-0.6,34.3-2.3c0.9-0.1,1.7-0.5,2.5-0.8c0.7-0.6,1.5-0.7,2.2-0.1
		c-2.4,4.2-6.8,5.7-10.7,7.5c-9.2,4.3-19,6.5-29.1,7.9c-1.2-1-1-2.5-1.2-3.8C781.7,312.7,781.5,309.7,783.5,307.2z"/>
	<path class="st62" d="M818.6,299.5c-4.4,0.5-7.3-2.6-9.7-5.2c-6.7-7.6-10.1-16.9-11.5-26.9c-0.6-4.1-0.9-8.2-1.1-12.4
		c1.9,6.3,4.4,12.4,7.2,18.3c2.9,6.1,5.4,12.4,10.4,17.2c3,2.9,6.3,4.1,10.4,2.3c3-1.3,6.1-2.4,9.7-3.8c-1.4,1.7-2.5,3.1-3.7,4.5
		C826.8,296.3,823.1,298.7,818.6,299.5z"/>
	<path class="st63" d="M785.5,273.3c0.9,4.8,1.8,9.6,2.6,14.4c0.3,1.8-0.2,3.8-2,4.6c-2.2,1-4.5-0.3-6.6-1c-1.1-0.4-0.5-2-0.3-3.1
		C780.5,283,782.6,278.1,785.5,273.3z"/>
	<path class="st16" d="M797.3,243.9c-2-1.7-2.6-4-3.1-6.4c-1-1.6-0.4-2.8,1-3.5c1.6-0.8,3.2-0.8,4.3,1c4.8,2.6,5.5,4.3,3.8,8.7
		C801.3,243.5,799.3,243.3,797.3,243.9z"/>
	<path class="st64" d="M818.6,299.5c3.9-2.1,7.6-4.5,11.7-6.1c-0.3,5.1-2.3,9-7.6,10.5c-0.7,0-1.5,0.1-2.2,0.1
		C819.8,302.6,819.2,301,818.6,299.5z"/>
	<path class="st2" d="M340.7,134.8c0.1,2,0.1,4.1,0.2,6.1c0.2,8.1,6,13.8,14.1,13.8c21.2,0,42.4,0,63.6,0c8.2,0,13.9-5.7,14.1-13.8
		c0-2,0.1-4.1,0.1-6.1c11,0,22-0.1,32.9,0c10.9,0,19.9,9.1,19.9,20c0,66.8-0.2,133.5,0.2,200.3c0.1,10.5-11.9,20.4-20.7,20.4
		c-52.2-0.3-104.4-0.1-156.7-0.1c-11.5,0-21.2-9.6-21.2-21.1c-0.1-20.9,0-41.9,0-62.8c0-45.1,0.2-90.1-0.1-135.2
		c-0.1-10.9,10.6-22.3,21.6-21.6C319.2,135.3,329.9,134.8,340.7,134.8z"/>
	<path class="st2" d="M681.7,347.8c-1.2,5.6-2.4,11.2-3.6,16.8c-0.6,3.3-1.3,6.7-1.9,10c-1.4,1-2.9,0.8-4.4,0.8
		c-43.1,0-86.3,0-129.4,0c-10.9,0-20-9.1-20-19.9c0-66.9,0-133.8,0-200.7c0-11.3,8.8-20,20.1-20c52.5,0,104.9,0,157.4,0
		c11.2,0,20.2,8.9,20.2,20c0,29.2,0,58.5,0,87.7c0,1.4,0.4,2.8-0.6,4.1c-4.1-5.9-9.8-8.9-16.9-9.1c-4.1-0.1-5.6,2.1-4.6,6.1
		c-0.3,2.4-2.9,3-4,4.8c-2.5,4.3-4.6,8.7-5.6,13.6c-0.7,3.4,0.2,4.6,3.7,5.1c1.6,0.2,3.3,0.1,4.5,1.6c0.4,0.5,0.6,1,0.8,1.6
		c0.5,2.6,1.6,5.1,0.7,7.8c-2,1.6-4.6,1-6.9,1.8c-5.2,1.8-9.6,5-14.5,7.3c-1.9,0.9-3.7,2.4-5.9,0.7c-0.6-1.6,0.5-3.1,0-4.8
		c-1-3.2-3.7-3.6-6.3-4.4c-1.7-5.5-2.7-11.2-3.9-16.8c-1.6-7.6-4.8-14.2-10.3-19.9c1,2.6,0.4,4.6-1.4,6.7c-3.3,3.8-2.8,6.4,1.5,9.3
		c3,2,3.6,4.1,2.3,7.9c-1.8,0.5-2.9-0.7-4.1-1.6c-15-12.5-42.2-10.8-57.3,3.7c-14.4,13.8-17.9,38.1-7.1,55.6
		c8,12.9,20,20.1,35.1,20.8c23,1.2,40-11.5,46.3-33.7c0.7-2.4,0.6-5.1,2.6-7.1c2.3-0.9,4.8-0.5,7.2-0.6c1.1,0,2.3-0.1,3.4,0.2
		c3.1,1.3,2.5,3.8,2,6.3c-1,1.9-3.8,1.1-4.8,3.3c-1.6,3.2-1.2,9.1,1.2,11.9c0.9,1,2.2,1.7,2.5,3.2c0,1.2,0,2.4-0.1,3.6
		c0.1,3.5,0.1,7,0,10.5C679.6,344.2,680.1,346.2,681.7,347.8z"/>
	<path class="st18" d="M731.4,456.6c0.6,3.2,0.9,6.5,1.8,9.6c0.8,2.7-0.1,4.3-2.3,5.5c-0.9-3.8-0.7-8.1-4.7-10.5
		c-2.2-2.6-5.1-4.4-7.7-6.5c2-1.7,4.1-3.4,6.1-5.2C726.8,451.9,729.1,454.2,731.4,456.6z"/>
	<path class="st65" d="M696.1,268.9c-1.6-1.2-3.4-0.6-5.2-0.8c-2.5-0.4-4.6-1.4-3.9-4.4c1.8-7.7,3.6-15.4,10.9-20.1
		c1.8,1.6,2.3,3.9,1.9,5.9c-1.4,5.8,1.2,10.1,4.4,14.3c0.4,0.6,0.8,1.3,1.2,1.9C702.8,268.4,699.4,268.6,696.1,268.9z"/>
	<path class="st66" d="M697.5,278.1c-0.4-2.6-0.8-5.2-1.2-7.7c3-1.6,6.2-2.9,9.7-3c0.8,1.9,1.5,3.9,3.1,5.4c0.8,0.8,1.7,1.6,2.5,2.3
		c1,1.1,1,2.4,0.4,3.7c-4.8,1.7-9.5,3.8-14.6,4.4c-0.4-0.2-0.6-0.5-0.8-0.9C696.4,280.7,696.7,279.3,697.5,278.1z"/>
	<path class="st67" d="M706,267.4c-3,1.6-6.1,2.9-9.7,3c-0.1-0.5-0.2-0.9-0.3-1.4c2.7-2,6.2-1.9,9.2-3.3
		C705.5,266.2,705.8,266.8,706,267.4z"/>
	<path class="st68" d="M681.7,347.8c-2.2,0.2-3.2-0.5-3.1-3c0.2-4.7,0.1-9.4,0.2-14c0.6-0.2,1.3-0.2,1.9,0.1
		c5.8,2.9,10.3,0.7,14.3-3.5c6.7-7,13.3-14,18.9-21.9c0.8-0.9,1.3-2,1.7-3.1c2.7-4.8,2.6-10.4,4.1-15.5c0.1-0.1,0.3-0.2,0.4-0.4
		c1.6,2.7,1,5.8,0.6,8.5c-0.5,3.3-0.5,6.6-0.6,9.9c-1.4,4.1-2.6,8.4-2.1,12.5c0.8,8.1-2.9,14.5-6.3,21.2c-3.5-0.6-6.8,0.3-10,1.6
		c-6.4,2.5-12.7,5.1-19.1,7.7C682.2,347.8,681.9,347.8,681.7,347.8z"/>
	<path class="st68" d="M697.1,282.6c3.7-0.5,6.8-3,10.6-3.4c1.2-0.1,2.5-0.3,3.7-0.5c4-2.9,7.2-1.4,8.6,3.9c0,1.3,0,2.6,0,3.8l0,0
		c-0.8,0.2-1.3-0.3-1.5-0.9c-1.5-3.9-4.7-3.9-7.9-3.3c-3.7,0.7-7,2.4-9.4,5.4c-4.7,5.7-9.2,11.6-13.1,17.8c-1.1,1.7-2.3,3.4-3.9,4.7
		c-1.3,1.1-2.6,1.7-4,0c-0.7-2,1.6-4.9-1.6-6.2c0.7-4.1,2.5-7.6,5.8-10.3C688.5,290,691.6,285,697.1,282.6z"/>
	<path class="st69" d="M720,282.7c-2.5-4.6-3.9-5.2-8.6-3.9c0.6-1.2,0.1-2.4,0.2-3.6c2.8-0.3,5.8,0.8,8.4-1
		C719.9,276.9,720,279.8,720,282.7z"/>
	<path class="st55" d="M206.6,275c-0.1-2.5,1.6-2.9,3.5-3.1c8.6-0.8,12.3-4.6,13.5-12.8c0.7-4.5,0.6-8.9,0.6-13.3
		c0-29.6,0-59.2,0-88.8c0-3.7-0.4-7.4-1.5-10.8c-2-6.5-7.3-8.7-13.5-8.9c-2.4-0.1-2.8-1.2-2.6-3.1c5.9,0.4,11.4,1.3,15.7,6.1
		c2.7,3,4.1,6.5,4.1,10.3c0.1,36.1,0.4,72.2-0.1,108.3c-0.2,9.8-6.1,15.5-17.4,16.4C208.1,275,207.4,275,206.6,275z"/>
	<path class="st5" d="M386.8,138.6c-8.6,0-8.6,0-7.3-8.4c0.3-1.6,0.2-3.3,0.6-4.9c0.8-2.6,0.2-4.3-2.1-6.1c-5.1-4-5.9-12.6-2.1-18
		c3.8-5.5,11.3-7.2,17.3-3.9c5.7,3,8.7,10.1,6.4,15.8c-1.1,2.7-2.4,5.4-5,6.9c-1.7,1-1.8,2.1-1.5,3.8c0.5,3.3,1,6.5,1.4,9.8
		c0.5,4.6,0.1,5-4.6,5C388.8,138.6,387.8,138.6,386.8,138.6z"/>
	<path class="st70" d="M403.5,76.5c0.1,0.9,0.1,1.9,0.2,2.8c-11.3,0-22.6,0-33.9,0c0-1.4,0.1-2.9,0.1-4.3c0.5-0.5,1.2-0.6,1.8-0.5
		c7.1,4.9,15.2,2.7,23,3.2c2.3,0.1,4.7,0.3,6.7-1.3C402.1,76,402.9,76,403.5,76.5z"/>
	<path class="st71" d="M369.9,74.3c1,0,2-0.1,2.9-0.1c2.1-1.7,4.6-0.7,7-1.1c4.5-0.1,9.1-0.1,13.6,0c2.3,0.4,4.9-0.6,7,1.1
		c1,0,2,0.1,3,0.1c0,0.2,0,0.5,0,0.7c-0.5,0.5-1.1,0.7-1.8,0.9c-1.6,0.3-3.2,0.3-4.8,0.2c-7.1-0.1-14.2,0.1-21.3-0.1
		c-1.4-0.3-2.7-0.6-4.1-0.9c-0.5,0-1-0.1-1.5-0.1C369.9,74.8,369.9,74.5,369.9,74.3z"/>
	<path class="st72" d="M401.9,75.1c0.5,0,1.1-0.1,1.6-0.1c0,0.5,0,1,0,1.5c-2.7,1.3-5.2,3.1-8.5,2.3
		C396.6,76.2,399.6,76.3,401.9,75.1z"/>
	<path class="st73" d="M76.4,244.2c0.1,6.5-4.5,11.4-10.7,11.5c-6.4,0.1-11.5-4.9-11.5-11.3c-0.1-6.2,5.3-11.5,11.4-11.4
		C71.4,233.1,76.3,238.2,76.4,244.2z"/>
	<path class="st73" d="M65.3,214.5c-5.4,0.7-11.1-5.1-11.2-11.1c-0.1-6.2,4.9-11.2,11.2-11.2c6.2,0,11,4.9,11,11.2
		C76.3,209.7,71.5,214.6,65.3,214.5z"/>
	<path class="st74" d="M65.6,174.7c-6.4,0-11.3-4.5-11.4-10.7c-0.1-5.7,5.3-11.5,11-11.6c6.1-0.1,11.2,5.2,11.2,11.5
		C76.3,170.3,72,174.7,65.6,174.7z"/>
	<ellipse class="st2" cx="126.9" cy="183.1" rx="119.5" ry="0.5"/>
	<path class="st75" d="M219.6,147c0.8-0.6,1.2,0,1.3,0.6c0.2,1,0.2,2,0.2,3c0,35.9,0,71.8,0,107.7c0,1.6,0.5,3.4-1.5,4.3
		C219.6,224.2,219.6,185.6,219.6,147z"/>
	<path class="st2" d="M211,224.3c-56,0-112,0-168.1,0c0-0.1,0-0.3,0-0.4c56.1,0,112.1,0,168.2,0C211.1,224.1,211,224.2,211,224.3z"
		/>
	<path class="st2" d="M136.3,207.2c-17.5,0-35,0-52.5,0c0-0.3,0-0.5,0-0.8c17.5,0,35,0,52.5,0C136.3,206.7,136.3,206.9,136.3,207.2z
		"/>
	<path class="st2" d="M84.2,198.5c32.8,0,65.7,0,98.5,0c0,0.1,0,0.2,0,0.4c-32.8,0-65.6,0-98.5,0C84.2,198.8,84.2,198.6,84.2,198.5z
		"/>
	<ellipse class="st2" cx="133.4" cy="158.9" rx="69.8" ry="0.2"/>
	<path class="st2" d="M84.3,247.5c32.8,0,65.6,0,98.3,0c0,0.1,0,0.3,0,0.4c-32.8,0-65.7,0-98.5,0C84.2,247.8,84.2,247.6,84.3,247.5z
		"/>
	<path class="st2" d="M104.9,240.9c-7,0-14.1,0-21.1,0c0-0.3,0-0.5,0-0.8c7,0,14.1,0,21.1,0C104.9,240.4,104.9,240.7,104.9,240.9z"
		/>
	<path class="st12" d="M799.5,232.9c0.4-4.9-0.6-9.9,1-14.7c2.9,0.3,5.8,0.5,8.7,0.8c2.9,0.2,4.8,1.5,5.1,4.6c0.2,2.4,1.5,4,3.9,4.5
		c2.2,0.5,3.5,1.6,2.8,4c-2,7.3-5.9,9.6-14,8.4c-1.5-0.2-1.8-1.1-2.2-2.1c-1-2.1-2.2-4.1-5-4C799.7,233.9,799.6,233.4,799.5,232.9z"
		/>
	<path class="st76" d="M384.5,192.2c-17.5,0-35-0.2-52.5,0.1c-7.9,0.1-14.1-7.6-14.3-13.8c-0.3-6.8,7-13.9,14.2-13.9
		c35,0,70,0,104.9,0c10.3,0,16.9,9.4,13.4,19c-1.9,5.2-6.9,8.6-12.8,8.6C419.8,192.3,402.2,192.2,384.5,192.2z"/>
	<path class="st76" d="M384.4,211.4c17.6,0,35.2,0,52.8,0c5.9,0,10.8,3.1,12.8,8c2.2,5.4,1,11.9-3.3,15.8c-2.6,2.4-5.8,3.7-9.3,3.7
		c-35.1,0.1-70.2,0.1-105.3,0c-6.9,0-13.3-5.8-14.3-12.6c-0.8-5,4.5-12.6,10-14.6c1.4-0.5,2.8-0.4,4.2-0.4
		C349.4,211.4,366.9,211.4,384.4,211.4z"/>
	<path class="st77" d="M387,328.6c12.4,0,24.7,0,37.1,0c8.7,0,15.5,6.5,15.4,14.9c-0.2,7.4-5.4,14.9-15.5,14.9c-22.3,0-44.7,0-67,0
		c-3.9,0-7.8,0.4-11.8-0.5c-8.5-2-11.6-8.8-11.3-15.5c0.4-8.3,6.4-13.8,14.4-13.8C361.2,328.6,374.1,328.6,387,328.6z"/>
	<path class="st76" d="M368.3,257.4c12.3,0,24.5,0,36.8,0c8,0,12.6,5.1,13.2,13.1c0.6,7.9-6.5,13.8-13,13.8
		c-24.6-0.2-49.3-0.1-73.9-0.1c-8.9,0-12.8-6.4-13.4-13.3c-0.7-7.2,6.1-13.5,13.7-13.5C343.8,257.4,356,257.4,368.3,257.4z"/>
	<path class="st76" d="M622.1,225.2c-19.9,0-39.8,0-59.8,0c-11,0-17.1-6.1-17.1-17c0-9.1,0-18.1,0-27.2c0-9.2,7-16.3,16.1-16.3
		c40.6,0,81.2,0,121.8,0c7.5,0,16.6,5.7,16.2,16.1c-0.4,9.4-0.1,18.9-0.1,28.3c0,10-6.1,16.1-16.3,16.1
		C662.7,225.2,642.4,225.2,622.1,225.2z"/>
	<path class="st78" d="M667.9,304.2c-1,9-4.1,17.3-9.8,24.4c-15.1,19-43.6,22.9-63.1,8.3c-19.4-14.7-23.3-39.6-12.6-58.8
		c11.7-21.2,37.7-29.3,59.8-19.2c4,1.8,7.1,4.8,10.6,7.3c1.3,0.3,1.9,1.2,2.1,2.4c0.6,3.9,1.8,7.7,1.6,11.7c-0.5,2.3-0.6,4.7-0.6,7
		c0,1.7,0.4,3.2,2,4.1c0.7,0.6,1.2,1.4,1.4,2.2C660.1,298.8,662.8,302.4,667.9,304.2z"/>
	<path class="st24" d="M680.1,310.2c3.3,1.1,4.6-1.7,5.9-3.6c3.8-5.7,7.8-11.2,11.9-16.7c2.9-4,6.3-7.2,11.3-8.5
		c5.8-1.5,7.9-0.6,10.8,5c-0.4,5.5-0.9,11-3.7,16c-0.8,0.9-1.5,2-2.2,3.1c-4.2,6.2-9.4,11.6-14.6,16.9c-2.8,2.8-5.6,5.5-9.1,7.4
		c-3.8,2-8.9,1-11-2c-5.4-4.4-6.9-9.2-4.6-14.9C675.7,310.7,677,308.5,680.1,310.2z"/>
	<path class="st79" d="M667.9,304.2c-5-0.1-7.7-2.7-8.7-7.5c-0.3-1.6-0.8-3.2-1.3-4.8c3.9-2.8,8.1-4.8,13-4.5c2,1.3,3.6-0.2,5.1-1
		c3.7-1.9,7.3-4,11-5.9c3.3-1.7,6.8-2.8,10.5-2.4c0.4,1.4,0.1,2.7-0.6,3.9c-4.3,3.7-8.9,6.9-13.1,10.8c-3.6,3.3-7.3,6.2-8.2,11.3
		C673,304.1,670.4,304.1,667.9,304.2z"/>
	<path class="st65" d="M655.8,280.6c-1-4.8-0.7-9.9-3-14.4c-0.1-3.8-0.5-7.2-5.2-8.5c-2.4-0.6-2.4-5.2-0.5-8.6
		c2.6-4.5,2.6-4.5,2.3-9.6c11.6,10.9,13.2,25.1,15.3,39.2C662,280.6,659,281.3,655.8,280.6z"/>
	<path class="st24" d="M655.8,280.6c3-0.6,5.8-1.7,8.9-1.8c2.1-0.6,4.1-1.1,5.5,1.5c1.3,2.4,3.1,4.5,0.6,7.1c-4.3,1.5-8.7,3-13,4.5
		c-2.3,0.4-3.4-0.4-3-2.9C655.3,286.2,653.9,283.2,655.8,280.6z"/>
	<path class="st80" d="M679.4,327.9c7.4,3.4,10.2,3,16.6-3.3c6.4-6.2,12.8-12.4,18-19.7c0.6-0.1,1-0.1,0.6,0.7
		c-6.1,9.1-13.4,17.1-21.4,24.6c-4.8,4.5-9.5,3.7-14.5,0.6C678.8,329.8,678.3,328.7,679.4,327.9z"/>
	<path class="st81" d="M675.6,304c-0.5-3.4,0.6-6.2,3.3-8.3c6-4.6,10.6-10.8,17.9-13.7c0.1,0.2,0.2,0.4,0.2,0.6
		c-4,3.9-8.1,7.7-12.1,11.6c-2.3,2.2-4.7,4.4-4.8,7.9c0,1.1-1.1,1.3-1.7,1.9C677.5,304,676.6,304,675.6,304z"/>
	<path class="st82" d="M714.6,305.6c-0.2-0.2-0.4-0.4-0.6-0.7c0.5-1.1,1-2.1,2.3-2.4C716.1,303.7,715.6,304.8,714.6,305.6z"/>
	<path class="st83" d="M401.9,75.1c-1.9,2-4.4,2.7-6.8,3.7c-2.8,0-5.6-0.1-8.4,0c-5.5,0.2-10.9,0.4-15.3-3.7c1.3,0,2.5,0,3.8,0
		c7.4,0.4,14.7,0.4,22.1,0C398.9,75.1,400.4,75.1,401.9,75.1z"/>
	<path class="st2" d="M379.7,74.1c-2.3,0-4.6,0-6.9,0c0.5-5.4-1.2-10.9,1.5-16.1c2.9-5.5,9-9,16.2-7.5c4.9,1,9,6.7,10,12.5
		c0.7,3.9,0.5,7.5-0.1,11.2c-2.3,0-4.6,0-6.9,0c-0.1-0.4-0.2-0.8,0.1-1.1c4.1-3.8,2.6-8.2,1-12.3c-2.4-6.2-10-7.2-14.2-2.1
		c-3.4,4.2-3.8,9.3-1.1,14.1C379.7,73.1,379.9,73.6,379.7,74.1z"/>
	<path class="st2" d="M379.7,74.1c-3.2-3.2-4.1-9-2-13.2c2.3-4.7,5.7-7,10.2-6.5c3.3,0.3,5.8,2.1,7.3,4.9c1.3,2.5,1.8,5.3,2.3,8
		c0.6,3.4-1.8,5-3.8,6.9C389,74.1,384.4,74.1,379.7,74.1z"/>
	<path class="st84" d="M397.4,75.1c-7.4,1.1-14.7,1-22.1,0C382.6,75.1,390,75.1,397.4,75.1z"/>
	<path class="st24" d="M652.5,285.2c0.3,3.2-1,4.7-2.4,6c-10.3,10.2-20.5,20.4-30.8,30.6c-2.5,2.4-5,2.5-7.5,0
		c-5.9-5.8-11.7-11.7-17.5-17.6c-3.1-3.1-3-5.8,0-9c0.9-0.9,1.8-1.8,2.7-2.7c3.1-2.9,5.9-3,9,0c2.4,2.3,4.5,4.8,6.8,7.2
		c1.7,1.8,3.2,2.6,5.5,0.1c6.3-6.8,13.1-13.2,19.5-19.9c2.1-2.2,4.6-3.9,7.4-2.5C648.6,279.4,651.6,282.1,652.5,285.2z"/>
</g>
<g id="Illustration">
	<g>
	</g>
	<g>
	</g>
	<g>
	</g>
	<g>
	</g>
	<g>
	</g>
	<g>
	</g>
	<g>
	</g>
	<g>
	</g>
	<g>
	</g>
	<g>
	</g>
	<g>
	</g>
	<g>
	</g>
	<g>
	</g>
	<g>
	</g>
	<g>
	</g>
</g>
</svg>
