<?xml version="1.0" encoding="utf-8"?>
<!-- Generator: Adobe Illustrator 23.0.5, SVG Export Plug-In . SVG Version: 6.00 Build 0)  -->
<svg version="1.1" id="_x2018_лой_x5F_1" xmlns="http://www.w3.org/2000/svg" xmlns:xlink="http://www.w3.org/1999/xlink"
	 x="0px" y="0px" viewBox="0 0 3000 2000" style="enable-background:new 0 0 3000 2000;" xml:space="preserve">
<style type="text/css">
	.st0{fill:#EBF3FA;}
	.st1{opacity:0.4;fill:#CDDFF9;}
	.st2{fill:#CDDFF9;}
	.st3{fill:#DFEBFD;}
	.st4{opacity:0.5;}
	.st5{fill:#AAC9F5;}
	.st6{fill:#CDE0FB;}
	.st7{fill:#2B478B;}
	.st8{fill:#DDE7FE;}
	.st9{fill:#AEC3FF;}
	.st10{fill:#233862;}
	.st11{fill:#FFB27D;}
	.st12{fill:#ED985F;}
	.st13{fill:#2C3A64;}
	.st14{fill:#F99746;}
	.st15{fill:#FFFFFF;}
	.st16{fill:#CFDEFF;}
	.st17{fill:#1F1F89;}
	.st18{fill:#F78248;}
	.st19{fill:#F77D48;}
	.st20{fill:#FFB93E;}
	.st21{fill:#FFA412;}
	.st22{fill:#FFEDDC;}
	.st23{fill:#DB6A1D;}
	.st24{fill:#E5C1A1;}
	.st25{fill:#F9DDBF;}
	.st26{opacity:0.5;fill:#E2810E;}
	.st27{fill:#E2810E;}
	.st28{fill:#ED7D2B;}
	.st29{fill:#ED975D;}
	.st30{fill:#8EA3ED;}
	.st31{fill:#2A539B;}
	.st32{fill:#4075C1;}
	.st33{fill:#163560;}
	.st34{fill:#D35B31;}
	.st35{fill:#E8945B;}
</style>
<path class="st0" d="M183.4,1835.2c0,0-329.1-315,4.7-771.1c298.3-407.5,75.6-602.2,381.7-800.8c309.5-200.7,572.8-78.5,869,76.7
	c296.2,155.2,705.3-216.3,1147.3-18.8c442,197.5,378.4,499.3,269.1,809.7c-92.3,262,188.4,451.3,35.3,704.8
	C2890.5,1835.7,174,1825.8,183.4,1835.2z"/>
<path class="st1" d="M1880.2,691.8c0,0,46.6-195.4,202.3-216.5c0,0,30.3-3.6,40.3,29.7c10,33.4-50.2,33.5-87.4,46.8
	C1998.1,565.1,1911.2,621.7,1880.2,691.8z"/>
<path class="st1" d="M1883,728.8c0,0,89.2-180,245.7-165.6c0,0,30.3,3.2,32.6,38c2.3,34.8-56.4,21.3-95.7,26
	C2026.3,631.8,1928.9,667.5,1883,728.8z"/>
<path class="st2" d="M2352.8,1478.2c0,0,46.6-195.4,202.3-216.5c0,0,30.3-3.6,40.3,29.7c10,33.4-50.2,33.5-87.4,46.8
	C2470.6,1351.5,2383.8,1408.2,2352.8,1478.2z"/>
<path class="st3" d="M2357.8,1414.1c0,0-25.5-199.2,112.6-274.1c0,0,27-14.1,48.2,13.5c21.2,27.7-35.1,49.1-65.2,74.7
	C2423.2,1253.9,2362,1337.6,2357.8,1414.1z"/>
<path class="st3" d="M2825,1455.3c-17.5-74.6-143.1-55.7-143.1-55.7s-89.1,126.4-113.9,128.7c-24.8,2.2,55.1-123,55.1-123
	c-47.6-6.2-171.3,48.2-171.3,48.2s2.6,151.1-21.9,147.2c-24.6-3.9,4.5-133.9,4.5-133.9c-46.7,12.3-91.7,64.7-91.7,64.7
	c-56.9,85.9,56.5,154.5,56.5,154.5s-0.2,52.4-34.6,111.3l0,0c0,0-7.7,10.8-15.7,29.4l12.6,0.4c1.1-3.3,2.4-6.6,3.7-9.7
	c0,0,0,0,0-0.1c0,0,0-0.1,0.1-0.1c0.9-1.9,2.3-4.6,3.9-8c0,0,0,0,0,0c0,0,0,0,0,0c4.1-7.4,6.9-12.9,8.7-16.8c0,0,0,0,0,0
	c12.3-23.2,30-53.5,41.3-59.6c0,0-1.3-2-2.5-5.9c0.8,1.9,1.6,3.8,2.5,5.9c20,46.9,127.6,58.2,188.2,47.9
	c60.5-10.3,34.9-28.1,3.5-56.7c-31.4-28.6-99.5-23.6-119.2-35.1c-19.7-11.4,10-21.2,49.9-16.8c40,4.4,58.7,45.1,123.2,53.5
	s117.9-111.6,117.9-111.6c-45.2,12.3-124.5-15-127-30.5c-2.6-15.5,116-10,134.7-14C2808.9,1565.7,2842.5,1529.9,2825,1455.3z"/>
<path class="st3" d="M515.3,799.3c17.5-74.6,143.1-55.7,143.1-55.7s89.1,126.4,113.9,128.7c24.8,2.2-55.1-123-55.1-123
	c47.6-6.2,171.3,48.2,171.3,48.2s-2.6,151.1,21.9,147.2c24.6-3.9-4.5-133.9-4.5-133.9c46.7,12.3,91.7,64.7,91.7,64.7
	c56.9,85.9-56.5,154.5-56.5,154.5s0.2,52.4,34.6,111.3c0,0,0,0,0,0s7.7,10.8,15.7,29.4l-12.6,0.4c-1.1-3.3-2.4-6.6-3.7-9.7
	c0,0,0,0,0-0.1c0,0,0-0.1-0.1-0.1c-0.9-1.9-2.3-4.6-3.9-8c0,0,0,0,0,0c0,0,0,0,0,0c-4.1-7.4-6.9-12.9-8.7-16.8c0,0,0,0,0,0
	c-12.3-23.2-30-53.5-41.3-59.6c0,0,1.3-2,2.5-5.9c-0.8,1.9-1.6,3.8-2.5,5.9c-20,46.9-127.6,58.2-188.2,47.9
	c-60.5-10.3-34.9-28.1-3.5-56.7c31.4-28.6,99.5-23.6,119.2-35.1c19.7-11.4-10-21.2-49.9-16.8c-40,4.4-58.6,45.1-123.2,53.5
	c-64.5,8.3-117.9-111.6-117.9-111.6c45.2,12.3,124.5-15,127-30.5c2.6-15.5-116-10-134.7-14C531.3,909.7,497.7,873.9,515.3,799.3z"/>
<path class="st3" d="M1279.1,434.9c36.9-70.6,158.6-19.3,158.6-19.3s57.3,150.4,81.7,159c24.4,8.6-23.9-138.1-23.9-138.1
	c49.6,6,160.3,92.6,160.3,92.6s-41.5,151.6-15.8,154c25.8,2.4,29.9-136.2,29.9-136.2c43.9,24.4,75.7,88.8,75.7,88.8
	c35.2,101.3-96.7,141.2-96.7,141.2s-13.3,52.9,6.2,121.1l0,0c0,0,4.9,12.9,8.3,33.7l-12.8-2.8c-0.3-3.7-0.7-7.2-1.3-10.7
	c0,0,0,0,0-0.1c0-0.1,0-0.1,0-0.1c-0.4-2.2-1.1-5.3-1.9-9c0,0,0,0,0,0c0,0,0,0,0,0c-2.2-8.5-3.6-14.8-4.4-19.2c0,0,0,0,0,0
	c-6.5-26.6-16.5-61.6-26.3-70.7c0,0,1.9-1.7,4-5.3c-1.3,1.7-2.6,3.4-4,5.3c-32.3,42.1-143.7,25.9-202-0.1
	c-58.4-25.9-27.9-37.3,11.1-58c39-20.7,106.4,1.8,129.1-4.7c22.8-6.5-4.6-24-46-29.8c-41.4-5.8-70.7,30.4-137.9,22.2
	C1304,740.6,1281,606,1281,606c42.3,24.1,129.3,16.9,135.9,2c6.6-15-114.4-39.9-132.2-48.7C1266.9,550.4,1242.3,505.6,1279.1,434.9z
	"/>
<g class="st4">
	<path class="st5" d="M2742.2,540.4l71.2,272.5c3.1,12-4.1,24.4-16.1,27.6l-478,124.9c-12,3.1-24.4-4.1-27.6-16.1l-71.2-272.5
		c-3.1-12,4.1-24.4,16.1-27.6l478-124.9C2726.6,521.2,2739.1,528.4,2742.2,540.4z"/>
	<g>
		<path class="st6" d="M2544,848.5l-127.4,33.3c-5.4,1.4-11-1.8-12.4-7.2l-0.3-1.2c-1.4-5.4,1.8-11,7.2-12.4l127.4-33.3
			c5.4-1.4,11,1.8,12.4,7.2l0.3,1.2C2552.7,841.5,2549.4,847.1,2544,848.5z"/>
		<g>
			<path class="st6" d="M2477.4,724.1c1.2,4.6,1.4,8.7,0.6,12.1c-1.1,4.3-3.7,7-8,8.1c-4.3,1.1-7.9,0.1-10.9-3.2
				c-2.4-2.5-4.2-6.1-5.4-10.8s-1.4-8.6-0.6-12c1.1-4.3,3.7-7,8-8.1c4.3-1.1,7.9-0.1,11,3.1C2474.4,715.9,2476.1,719.5,2477.4,724.1
				z M2471.5,725.7c-0.8-2.9-1.7-5.3-2.9-7.1c-1.8-2.7-3.8-3.8-6.2-3.2c-2.4,0.6-3.7,2.5-3.9,5.7c-0.2,2.2,0.1,4.7,0.9,7.7
				c2.1,7.9,5.1,11.4,9.2,10.3c2.3-0.6,3.6-2.5,3.8-5.8C2472.6,731.2,2472.3,728.6,2471.5,725.7z"/>
			<path class="st6" d="M2503.5,717.3c1.2,4.6,1.4,8.7,0.6,12.1c-1.1,4.3-3.7,7-8,8.1c-4.3,1.1-7.9,0.1-10.9-3.2
				c-2.4-2.5-4.2-6.1-5.4-10.8c-1.2-4.6-1.4-8.6-0.6-12c1.1-4.3,3.7-7,8-8.1c4.3-1.1,7.9-0.1,11,3.1
				C2500.5,709.1,2502.3,712.7,2503.5,717.3z M2497.7,718.8c-0.8-2.9-1.7-5.3-2.9-7.1c-1.8-2.7-3.8-3.8-6.2-3.2
				c-2.4,0.6-3.7,2.5-3.9,5.7c-0.2,2.2,0.1,4.7,0.9,7.7c2.1,7.9,5.1,11.4,9.2,10.3c2.3-0.6,3.6-2.5,3.8-5.8
				C2498.8,724.3,2498.4,721.8,2497.7,718.8z"/>
			<path class="st6" d="M2543.1,707c1.2,4.6,1.4,8.7,0.6,12.1c-1.1,4.3-3.7,7-8,8.1c-4.3,1.1-7.9,0.1-10.9-3.2
				c-2.4-2.5-4.2-6.1-5.4-10.8c-1.2-4.6-1.4-8.6-0.6-12c1.1-4.3,3.7-7,8-8.1c4.3-1.1,7.9-0.1,11,3.1
				C2540.1,698.7,2541.9,702.3,2543.1,707z M2537.3,708.5c-0.8-2.9-1.7-5.3-2.9-7.1c-1.8-2.7-3.8-3.8-6.2-3.2
				c-2.4,0.6-3.7,2.5-3.9,5.7c-0.2,2.2,0.1,4.7,0.9,7.7c2.1,7.9,5.1,11.4,9.2,10.3c2.3-0.6,3.6-2.5,3.8-5.8
				C2538.4,714,2538.1,711.4,2537.3,708.5z"/>
			<path class="st6" d="M2569.3,700.1c1.2,4.6,1.4,8.7,0.6,12.1c-1.1,4.3-3.7,7-8,8.1c-4.3,1.1-7.9,0.1-10.9-3.2
				c-2.4-2.5-4.2-6.1-5.4-10.8c-1.2-4.6-1.4-8.6-0.6-12c1.1-4.3,3.7-7,8-8.1c4.3-1.1,7.9-0.1,11,3.1
				C2566.3,691.9,2568.1,695.5,2569.3,700.1z M2563.5,701.6c-0.8-2.9-1.7-5.3-2.9-7.1c-1.8-2.7-3.8-3.8-6.2-3.2
				c-2.4,0.6-3.7,2.5-3.9,5.7c-0.2,2.2,0.1,4.7,0.9,7.7c2.1,7.9,5.1,11.4,9.2,10.3c2.3-0.6,3.6-2.5,3.8-5.8
				C2564.5,707.1,2564.2,704.6,2563.5,701.6z"/>
			<path class="st6" d="M2595.5,693.3c1.2,4.6,1.4,8.7,0.6,12.1c-1.1,4.3-3.7,7-8,8.1c-4.3,1.1-7.9,0.1-10.9-3.2
				c-2.4-2.5-4.2-6.1-5.4-10.8c-1.2-4.6-1.4-8.6-0.6-12c1.1-4.3,3.7-7,8-8.1c4.3-1.1,7.9-0.1,11,3.1
				C2592.5,685,2594.3,688.6,2595.5,693.3z M2589.6,694.8c-0.8-2.9-1.7-5.3-2.9-7.1c-1.8-2.7-3.8-3.8-6.2-3.2
				c-2.4,0.6-3.7,2.5-3.9,5.7c-0.2,2.2,0.1,4.7,0.9,7.7c2.1,7.9,5.1,11.4,9.2,10.3c2.3-0.6,3.6-2.5,3.8-5.8
				C2590.7,700.3,2590.4,697.8,2589.6,694.8z"/>
			<path class="st6" d="M2621.6,686.4c1.2,4.6,1.4,8.7,0.6,12.1c-1.1,4.3-3.7,7-8,8.1c-4.3,1.1-7.9,0.1-10.9-3.2
				c-2.4-2.5-4.2-6.1-5.4-10.8c-1.2-4.6-1.4-8.6-0.6-12c1.1-4.3,3.7-7,8-8.1c4.3-1.1,7.9-0.1,11,3.1
				C2618.6,678.2,2620.4,681.8,2621.6,686.4z M2615.8,687.9c-0.8-2.9-1.7-5.3-2.9-7.1c-1.8-2.7-3.8-3.8-6.2-3.2
				c-2.4,0.6-3.7,2.5-3.9,5.7c-0.2,2.2,0.1,4.7,0.9,7.7c2.1,7.9,5.1,11.4,9.2,10.3c2.3-0.6,3.6-2.5,3.8-5.8
				C2616.9,693.5,2616.5,690.9,2615.8,687.9z"/>
			<path class="st6" d="M2661.3,676.1c1.2,4.6,1.4,8.7,0.6,12.1c-1.1,4.3-3.7,7-8,8.1c-4.3,1.1-7.9,0.1-10.9-3.2
				c-2.4-2.5-4.2-6.1-5.4-10.8c-1.2-4.6-1.4-8.6-0.6-12c1.1-4.3,3.7-7,8-8.1c4.3-1.1,7.9-0.1,11,3.1
				C2658.3,667.8,2660,671.4,2661.3,676.1z M2655.4,677.6c-0.8-2.9-1.7-5.3-2.9-7.1c-1.8-2.7-3.8-3.8-6.2-3.2
				c-2.4,0.6-3.7,2.5-3.9,5.7c-0.2,2.2,0.1,4.7,0.9,7.7c2.1,7.9,5.1,11.4,9.2,10.3c2.3-0.6,3.6-2.5,3.8-5.8
				C2656.5,683.1,2656.2,680.6,2655.4,677.6z"/>
			<path class="st6" d="M2687.4,669.2c1.2,4.6,1.4,8.7,0.6,12.1c-1.1,4.3-3.7,7-8,8.1c-4.3,1.1-7.9,0.1-10.9-3.2
				c-2.4-2.5-4.2-6.1-5.4-10.8c-1.2-4.6-1.4-8.6-0.6-12c1.1-4.3,3.7-7,8-8.1c4.3-1.1,7.9-0.1,11,3.1
				C2684.4,661,2686.2,664.6,2687.4,669.2z M2681.6,670.7c-0.8-2.9-1.7-5.3-2.9-7.1c-1.8-2.7-3.8-3.8-6.2-3.2
				c-2.4,0.6-3.7,2.5-3.9,5.7c-0.2,2.2,0.1,4.7,0.9,7.7c2.1,7.9,5.1,11.4,9.2,10.3c2.3-0.6,3.6-2.5,3.8-5.8
				C2682.7,676.3,2682.3,673.7,2681.6,670.7z"/>
			<path class="st6" d="M2713.6,662.4c1.2,4.6,1.4,8.7,0.6,12.1c-1.1,4.3-3.7,7-8,8.1c-4.3,1.1-7.9,0.1-10.9-3.2
				c-2.4-2.5-4.2-6.1-5.4-10.8c-1.2-4.6-1.4-8.6-0.6-12c1.1-4.3,3.7-7,8-8.1c4.3-1.1,7.9-0.1,11,3.1
				C2710.6,654.2,2712.4,657.8,2713.6,662.4z M2707.7,663.9c-0.8-2.9-1.7-5.3-2.9-7.1c-1.8-2.7-3.8-3.8-6.2-3.2
				c-2.4,0.6-3.7,2.5-3.9,5.7c-0.2,2.2,0.1,4.7,0.9,7.7c2.1,7.9,5.1,11.4,9.2,10.3c2.3-0.6,3.6-2.5,3.8-5.8
				C2708.8,669.4,2708.5,666.9,2707.7,663.9z"/>
			<path class="st6" d="M2739.7,655.6c1.2,4.6,1.4,8.7,0.6,12.1c-1.1,4.3-3.7,7-8,8.1c-4.3,1.1-7.9,0.1-10.9-3.2
				c-2.4-2.5-4.2-6.1-5.4-10.8c-1.2-4.6-1.4-8.6-0.6-12c1.1-4.3,3.7-7,8-8.1c4.3-1.1,7.9-0.1,11,3.1
				C2736.7,647.3,2738.5,650.9,2739.7,655.6z M2733.9,657.1c-0.8-2.9-1.7-5.3-2.9-7.1c-1.8-2.7-3.8-3.8-6.2-3.2
				c-2.4,0.6-3.7,2.5-3.9,5.7c-0.2,2.2,0.1,4.7,0.9,7.7c2.1,7.9,5.1,11.4,9.2,10.3c2.3-0.6,3.6-2.5,3.8-5.8
				C2735,662.6,2734.7,660,2733.9,657.1z"/>
		</g>
		<path class="st6" d="M2394.8,652.4L2270.2,685c-5.4,1.4-11-1.8-12.4-7.2l0,0c-1.4-5.4,1.8-11,7.2-12.4l124.7-32.6
			c5.4-1.4,11,1.8,12.4,7.2l0,0C2403.5,645.4,2400.2,651,2394.8,652.4z"/>
		<g>
			<g>
				<path class="st6" d="M2696.4,595.8c-0.9-3.6-3-6.5-5.8-8.5c-0.8-0.6-1.9-0.4-2.4,0.5l-0.4,0.7c-0.4,0.7-0.2,1.6,0.4,2.1
					c2,1.5,3.5,3.6,4.2,6.2c0.7,2.6,0.4,5.2-0.6,7.5c-0.3,0.8,0,1.6,0.7,2.1l0.7,0.4c0.9,0.5,2,0.2,2.4-0.7
					C2697,603,2697.4,599.4,2696.4,595.8z"/>
			</g>
			<g>
				<path class="st6" d="M2704.5,593.7c-1.5-5.9-5.1-10.6-9.8-13.8c-0.8-0.5-1.9-0.3-2.3,0.6l-0.2,0.4c-0.4,0.8-0.2,1.7,0.5,2.2
					c3.9,2.6,6.9,6.6,8.1,11.5c1.3,4.9,0.6,9.8-1.5,14c-0.4,0.8-0.1,1.7,0.6,2.2l0.4,0.2c0.8,0.5,1.9,0.2,2.3-0.7
					C2705.3,605.5,2706,599.6,2704.5,593.7z"/>
			</g>
			<g>
				<path class="st6" d="M2711.6,591.9c-2-7.8-6.9-14.2-13.2-18.3c-0.8-0.5-1.9-0.2-2.3,0.6l0,0c-0.4,0.8-0.2,1.7,0.5,2.2
					c5.6,3.7,10,9.3,11.8,16.3c1.8,7,0.8,14.1-2.3,20c-0.4,0.8-0.1,1.7,0.6,2.2l0,0c0.8,0.5,1.9,0.2,2.3-0.6
					C2712.5,607.6,2713.6,599.7,2711.6,591.9z"/>
			</g>
			<g>
				<path class="st6" d="M2719.3,589.9c-2.6-10-8.8-18-16.9-23.2c-0.8-0.5-1.9-0.2-2.3,0.6l-0.4,0.7c-0.4,0.8-0.2,1.7,0.5,2.2
					c7.2,4.6,12.8,11.8,15.1,20.7c2.3,8.9,1,17.9-3.1,25.4c-0.4,0.8-0.2,1.7,0.6,2.2l0.7,0.4c0.8,0.5,1.9,0.2,2.3-0.6
					C2720.4,609.9,2721.9,599.8,2719.3,589.9z"/>
			</g>
		</g>
	</g>
</g>
<g>
	<path class="st7" d="M2351.3,1805.6H842.4c-18.6,0-33.8-15.2-33.8-33.8V769.2c0-18.6,15.2-33.8,33.8-33.8h1508.8
		c18.6,0,33.8,15.2,33.8,33.8v1002.7C2385.1,1790.4,2369.8,1805.6,2351.3,1805.6z"/>
	<rect x="844.2" y="772.8" class="st8" width="1505.3" height="1021.9"/>
	<path class="st7" d="M2548.2,1832.6H645.5c-13.4,0-24.3-10.9-24.3-24.3v-19.9c0-13.4,10.9-24.3,24.3-24.3h1902.7
		c13.4,0,24.3,10.9,24.3,24.3v19.9C2572.5,1821.7,2561.6,1832.6,2548.2,1832.6z"/>
	<rect x="844.2" y="772.8" class="st9" width="1505.3" height="994.8"/>
</g>
<g>
	<path class="st10" d="M342.2,1837.6c0,0,0-14.7,2.2-19.6c2.2-4.9,10.4-24.8,10.4-24.8h31.8c0,0,5.9,18.2,6.3,24.1
		c0.4,5.9,0,20.3,0,20.3H342.2z"/>
	<path class="st10" d="M544.4,1837.6c0,0,0-14.7-2.2-19.6c-2.2-4.9-10.4-24.8-10.4-24.8h-31.8c0,0-5.9,18.2-6.3,24.1
		c-0.4,5.9,0,20.3,0,20.3H544.4z"/>
	<path class="st11" d="M416.8,1010.9c0,0-1.1,32.8-5.6,47.5l-35.2,23.2l132.4,18.7l-31.6-41.2c0,0-9.5-44-4.5-60.2
		C477.3,982.5,416.8,1010.9,416.8,1010.9z"/>
	<path class="st12" d="M416.6,1015.4c0,0,10.5,23.8,30.2,23.3c19.7-0.5,24.2-21.6,24.2-21.6L416.6,1015.4z"/>
	<path class="st13" d="M404.8,996.1c0,0-6.4-30-10.8-39.1c-4.4-9.1-8.1-49.7,41.1-51.8c0,0,18.9,2.1,29.3-3.8c0,0,0,5.9-2.6,8
		c0,0,17-3.8,30.4,10.1c13.3,14-8.9,63-7.8,74.5L404.8,996.1z"/>
	<path class="st11" d="M444.5,1029.5c-14.3-0.2-40.6-18.2-40.6-40.5v-34.7c0-8.1,6-14.8,13.3-14.8h54.5c7.3,0,13.3,6.6,13.3,14.8
		v32.8C485.1,1010.4,460.9,1029.8,444.5,1029.5z"/>
	<path class="st13" d="M403.9,972.8c0,0,0.1-20.9,17.6-24.1c17.5-3.2,56.7,10.2,62.2-5c5.6-15.2-75.7-15-79.8-5.2
		C399.8,948.2,403.9,972.8,403.9,972.8z"/>
	<path class="st7" d="M346.2,1327.5c0,0,5.6,160.7-2.8,252.4c-8.3,91.7,0.1,219.3,0.1,219.3s26.6,13.9,55.5,0
		c0,0,31.7-177.2,31.5-219.3c-0.2-44.9,34.5-245.4,34.5-245.4L346.2,1327.5z"/>
	<path class="st7" d="M543.2,1799.3c0,0-26.6,13.9-55.5,0c0,0-31.7-177.2-31.5-219.3c0.1-19-6-65.7-13.2-113.3
		c-9.7-65.2-21.3-132.1-21.3-132.1l123.4-7.3c0,0-10.2,161-1.8,252.7C551.6,1671.6,543.2,1799.3,543.2,1799.3z"/>
	<path class="st14" d="M543.6,1354.2c0,0-52.6,9.6-100.6,9.6c-20.9,0-43.7-2.2-61.8-4.5c-20-2.5-34.4-5.2-34.4-5.2
		s-10.7,0.9-4.4-48.8c4.8-37.8,3.3-71.9,2.2-107c-0.1-3.9,0-8.5,0.2-13.7c2-40.9,15.2-114.6,25.1-118.6c0,0,14.9-5.2,41.1-7.8
		c0,0.5,15.2,21.5,33.3,23.9c11.2-4.2,20.1-7.8,32.3-23.2c15.6,1.7,32.5,4.6,50.7,9.2c0,0,1.9,7.8,9,143.3
		C539.4,1265.2,558.8,1354.4,543.6,1354.2z"/>
	<path class="st10" d="M456.2,1579.9c0.1-19-6-65.7-13.2-113.3c7.4-28.5,25.4-55.9,25.4-55.9
		C491.2,1471.1,456.2,1579.9,456.2,1579.9z"/>
	<path class="st14" d="M296.2,1227.4c-1.3,1,3.1,11.2,9.6,24.6c13.3,27.4,35.3,67.9,35.3,67.9c-3.2,11.4-6.7,18.5-6.7,18.5
		c-37.1-27.5-61-50.9-76.2-68.9c-21.4-25.2-25.8-39.7-25.8-39.7c82.5-158.7,140.6-164.5,140.6-164.5l-6.9,104.9
		C366,1170.1,300,1224.4,296.2,1227.4z"/>
	<path class="st11" d="M336.6,1321.9c0,0,20-17.5,28.1-7.7c8.1,9.8,9.6,25.2,3.3,24.1c-6.3-1-19.3-6.6-21.1-3.8
		c-1.9,2.8-10.1,8.1-12.7,3.9C331.8,1334.1,336.6,1321.9,336.6,1321.9z"/>
	<path class="st11" d="M341,1319.9c-3.2,11.4-6.7,18.5-6.7,18.5c-37.1-27.5-61-50.9-76.2-68.9c11.5-0.8,28.3-4.7,47.6-17.6
		C319,1279.4,341,1319.9,341,1319.9z"/>
	<path class="st14" d="M659.7,1229.8c0,0-4.4,14.5-25.8,39.7c-15.3,17.9-39.1,41.4-76.2,68.9c0,0-3.5-7.1-6.7-18.5
		c0,0,22-40.5,35.3-67.9c6.4-13.4,10.8-23.6,9.6-24.6c-3-2.3-43.3-35.4-61.3-50.2c-5.2-4.3-8.6-7-8.6-7l-4.1-103.3
		C521.9,1066.8,577.2,1071.1,659.7,1229.8z"/>
	<path class="st11" d="M555.4,1321.9c0,0-20-17.5-28.1-7.7c-8.1,9.8-9.6,25.2-3.3,24.1c6.3-1,19.3-6.6,21.1-3.8
		c1.9,2.8,10.1,8.1,12.7,3.9C560.2,1334.1,555.4,1321.9,555.4,1321.9z"/>
	<path class="st11" d="M551,1319.9c3.2,11.4,6.7,18.5,6.7,18.5c37.1-27.5,61-50.9,76.2-68.9c-11.5-0.8-28.3-4.7-47.6-17.6
		C573,1279.4,551,1319.9,551,1319.9z"/>
	<path class="st7" d="M413.1,1050.4c0,0-5.9,2.3-7.5,8.6c0,0,23.6,22.9,39,23.3L413.1,1050.4z"/>
	<path class="st7" d="M444.5,1082.2l30.4-33c0,0,6.3,3.9,6.2,10.3C481.2,1059.5,457.6,1083.1,444.5,1082.2z"/>
	<path class="st7" d="M439,1079.8c0,0-23.2,189.4-15.1,212.5c4.2,11.9,9.7,22.2,14.2,29.3c3.2,5.2,11.1,5.2,14.2,0
		c6.2-10.1,14.2-24.8,14.2-32.2c0-12-17.6-209.8-17.6-209.8L439,1079.8z"/>
	<path class="st7" d="M433,1070.5c0,0,14-1.3,22.6-0.5c1.7,0.2,2.6,1.9,1.8,3.3c-2.4,4.1-7.3,11.1-12.4,11.1
		C437.8,1084.5,426.6,1071,433,1070.5z"/>
	<path class="st15" d="M433.1,1007.1c0,0,4.5,5.7,12.2,5.5c7.8-0.2,11.4-5.5,11.4-5.5S443.7,1005.1,433.1,1007.1z"/>
</g>
<g>
	<rect x="1198.8" y="656.9" class="st16" width="973.5" height="1036.7"/>
	<g>
		<path class="st7" d="M1896.5,1519H1711c-0.1,0-0.2-0.1-0.2-0.2v-11.5c0-0.1,0.1-0.2,0.2-0.2h185.6c0.1,0,0.2,0.1,0.2,0.2v11.5
			C1896.8,1518.9,1896.7,1519,1896.5,1519z"/>
		<path class="st7" d="M1942.6,1491.7H1711c-0.1,0-0.2-0.1-0.2-0.2v-11.6c0-0.1,0.1-0.2,0.2-0.2h231.7c0.1,0,0.2,0.1,0.2,0.2v11.6
			C1942.9,1491.5,1942.8,1491.7,1942.6,1491.7z"/>
	</g>
	<g>
		<rect x="1283.3" y="831.9" class="st9" width="804.6" height="566.1"/>
		<g>
			<g>
				<rect x="1472" y="800" class="st17" width="1.3" height="598.1"/>
			</g>
			<g>
				<rect x="1975.8" y="800" class="st17" width="1.3" height="598.1"/>
			</g>
			<g>
				<rect x="1557.5" y="800" class="st17" width="1.3" height="598.1"/>
			</g>
			<g>
				<rect x="1283.3" y="1292.1" class="st17" width="804.6" height="1.3"/>
			</g>
			<g>
				<rect x="1283.3" y="1173.6" class="st17" width="804.6" height="1.3"/>
			</g>
			<g>
				<rect x="1283.3" y="1055.2" class="st17" width="804.6" height="1.3"/>
			</g>
			<g>
				<rect x="1283.3" y="936.7" class="st17" width="804.6" height="1.3"/>
			</g>
		</g>
		<rect x="1283.3" y="729.6" class="st18" width="804.6" height="114.9"/>
	</g>
	<g>
		<path class="st19" d="M2012,1596.2c-18.1,5.6-35.8,8.4-49.8,7.4c-21.2-1.7-33.2-12.2-33.6-29.6c-0.4-13.8,5.7-25.9,17.6-35.7
			c-0.1-0.9-0.2-1.9-0.3-2.8c-0.8-9.7,1.4-16.2,6.5-19.2c8.3-4.9,20.6,1.8,21.1,2.1l-2.8,4.4c-2.8-1.5-10.9-4.8-15.5-2.2
			c-3.9,2.3-4.4,8.7-4,13.8c9.7-6.6,22.3-12,37.7-15.9c11.4-2.9,24.1-4.9,35.5-5.7c0.1-1.2,0.2-2.3,0.3-3.2c0.4-2.4,1.3-5.2,3.7-5.7
			c0.9-0.2,2.8-0.2,4.4,2.2c1,1.5,1.6,3.7,1.7,6.2c3.9-0.1,7.6,0,10.9,0.2c0-0.1,0.1-0.1,0.1-0.2c-0.8-6.1-0.2-13.3,0.8-17.9
			c1.4-6,3.6-9,6.8-9.3c1.9-0.2,3.6,0.8,4.3,2.5c1.8,4-1.6,14.9-6.4,25.4c0,0,0,0,0,0.1c4.5,0.7,7.6,1.9,8.5,3.6
			c0.7,1.2,0.8,3.2-1.1,4.8c-3.6,3.2-6.6,2.4-8,1.6c-1.2-0.6-2.2-1.7-2.9-3.2c-3.6,6.8-7.6,12.6-10.7,15.1c-2.9,2.3-5.4,1.4-6.3,0.9
			c-0.5-0.3-1-0.6-1.4-1c-1.2,2.9-2.6,5.6-4.1,8.1c-5.7,9.4-12.1,14.3-18.6,14c-2.6-0.1-5-1.1-7-2.9c-3.6,7.3-8,14.2-12.5,19.4
			c-4.5,5.3-10.3,7.2-16.3,5.4c-10.6-3.1-20.1-17.6-23.7-34.7c-9,8.3-13.4,18.2-13.1,29.5c0.4,14.8,10,23.1,28.6,24.6
			c46.9,3.7,129.2-37.5,135.5-67.8l0,0C2093,1555.3,2054,1583.4,2012,1596.2z M1951.9,1540.4c2.9,18,12.4,31.3,20.5,33.7
			c3.8,1.1,7.3-0.2,10.4-3.8c5.3-6.2,9.8-13.8,13.1-21.2c-0.9-1.9-1.7-4.2-2.3-6.7c-1.3-5.9-1.5-14.1,0-19.7
			c-8.8,2-17.6,4.8-25.7,8.4C1961.8,1534,1956.5,1537.1,1951.9,1540.4z M2002,1548.9c1.2,1.7,2.7,3,4.8,3.1c4.1,0.2,9.1-4,13.6-11.4
			c2.3-3.9,4.2-8,5.6-12c-0.9-3.2-1.4-7-1.5-10.5c-6,0.5-12.6,1.2-19.4,2.4C2008.6,1526.9,2006.6,1537.9,2002,1548.9z
			 M2031.7,1528.6c0.8,2.4,1.6,2.9,1.6,2.9c3-2.5,6.5-7.8,9.7-13.9c-2.6-0.1-5.5-0.1-8.7,0C2033.9,1521,2033,1524.8,2031.7,1528.6z
			 M1999.7,1522c-1.4,2.7-2.4,11.5-0.7,19.2C2001.8,1532.7,2002.3,1525.3,1999.7,1522z M2053.4,1518.7
			C2053.4,1518.7,2053.4,1518.7,2053.4,1518.7C2053.4,1518.7,2053.4,1518.7,2053.4,1518.7z M2052.6,1492.3c-0.5,1.3-0.9,3.2-1.3,5.4
			C2051.9,1495.6,2052.4,1493.7,2052.6,1492.3z"/>
	</g>
</g>
<g>
	<path class="st19" d="M1137.4,1835.1l-411.2-2.6c-18.3-0.1-33.1-15.1-33-33.4l2.7-432.2c0.1-18.3,15.1-33.1,33.4-33l411.2,2.6
		c18.3,0.1,33.1,15.1,33,33.4l-2.7,432.2C1170.7,1820.4,1155.7,1835.2,1137.4,1835.1z"/>
	<path class="st9" d="M1131.1,1449.6l-394-2.5c-8.1-0.1-14.6-6.6-14.5-14.7l0.3-50c0.1-8.1,6.6-14.6,14.7-14.5l394,2.4
		c8.1,0.1,14.6,6.6,14.5,14.7l-0.3,50C1145.8,1443.2,1139.2,1449.7,1131.1,1449.6z"/>
	<g>
		<g>
			<path class="st7" d="M869,1642.3l-33.7-0.2c-8.4-0.1-15.2-6.9-15.2-15.4l0.2-33.7c0.1-8.4,6.9-15.2,15.4-15.2l33.7,0.2
				c8.4,0.1,15.2,6.9,15.2,15.4l-0.2,33.7C884.3,1635.5,877.4,1642.3,869,1642.3z"/>
			<path class="st7" d="M868.5,1721.1l-33.7-0.2c-8.4-0.1-15.2-6.9-15.2-15.4l0.2-33.7c0.1-8.4,6.9-15.2,15.4-15.2l33.7,0.2
				c8.4,0.1,15.2,6.9,15.2,15.4l-0.2,33.7C883.8,1714.4,876.9,1721.2,868.5,1721.1z"/>
			<path class="st7" d="M868,1800l-33.7-0.2c-8.4-0.1-15.2-6.9-15.2-15.4l0.2-33.7c0.1-8.4,6.9-15.2,15.4-15.2l33.7,0.2
				c8.4,0.1,15.2,6.9,15.2,15.4l-0.2,33.7C883.3,1793.2,876.4,1800,868,1800z"/>
			<path class="st7" d="M953.9,1642.8l-33.7-0.2c-8.4-0.1-15.2-6.9-15.2-15.4l0.2-33.7c0.1-8.4,6.9-15.2,15.4-15.2l33.7,0.2
				c8.4,0.1,15.2,6.9,15.2,15.4l-0.2,33.7C969.2,1636.1,962.3,1642.9,953.9,1642.8z"/>
			<path class="st7" d="M953.4,1721.7l-33.7-0.2c-8.4-0.1-15.2-6.9-15.2-15.4l0.2-33.7c0.1-8.4,6.9-15.2,15.4-15.2l33.7,0.2
				c8.4,0.1,15.2,6.9,15.2,15.4l-0.2,33.7C968.7,1714.9,961.8,1721.7,953.4,1721.7z"/>
			<path class="st7" d="M952.9,1800.5l-33.7-0.2c-8.4-0.1-15.2-6.9-15.2-15.4l0.2-33.7c0.1-8.4,6.9-15.2,15.4-15.2l33.7,0.2
				c8.4,0.1,15.2,6.9,15.2,15.4l-0.2,33.7C968.2,1793.8,961.3,1800.6,952.9,1800.5z"/>
			<path class="st7" d="M1035.3,1722.2l-33.7-0.2c-8.4-0.1-15.2-6.9-15.2-15.4l0.2-33.7c0.1-8.4,6.9-15.2,15.4-15.2l33.7,0.2
				c8.4,0.1,15.2,6.9,15.2,15.4l-0.2,33.7C1050.6,1715.4,1043.7,1722.2,1035.3,1722.2z"/>
			<path class="st7" d="M1034.8,1801l-33.7-0.2c-8.4-0.1-15.2-6.9-15.2-15.4l0.2-33.7c0.1-8.4,6.9-15.2,15.4-15.2l33.7,0.2
				c8.4,0.1,15.2,6.9,15.2,15.4l-0.2,33.7C1050.1,1794.3,1043.2,1801.1,1034.8,1801z"/>
		</g>
		<g>
			<path class="st14" d="M788.4,1549.2l-33.7-0.2c-8.4-0.1-15.2-6.9-15.2-15.4l0.1-20c0.1-8.4,6.9-15.2,15.4-15.2l33.7,0.2
				c8.4,0.1,15.2,6.9,15.2,15.4l-0.1,20C803.7,1542.5,796.8,1549.3,788.4,1549.2z"/>
			<path class="st14" d="M787.9,1631.9l-33.7-0.2c-8.4-0.1-15.2-6.9-15.2-15.4l0.1-20c0.1-8.4,6.9-15.2,15.4-15.2l33.7,0.2
				c8.4,0.1,15.2,6.9,15.2,15.4l-0.1,20C803.2,1625.1,796.3,1631.9,787.9,1631.9z"/>
			<path class="st14" d="M787.4,1714.5l-33.7-0.2c-8.4-0.1-15.2-6.9-15.2-15.4l0.1-20c0.1-8.4,6.9-15.2,15.4-15.2l33.7,0.2
				c8.4,0.1,15.2,6.9,15.2,15.4l-0.1,20C802.7,1707.8,795.8,1714.6,787.4,1714.5z"/>
			<path class="st14" d="M786.9,1797.2l-33.7-0.2c-8.4-0.1-15.2-6.9-15.2-15.4l0.1-20c0.1-8.4,6.9-15.2,15.4-15.2l33.7,0.2
				c8.4,0.1,15.2,6.9,15.2,15.4l-0.1,20C802.2,1790.5,795.3,1797.3,786.9,1797.2z"/>
			<path class="st14" d="M869.5,1563.4l-33.7-0.2c-8.4-0.1-15.2-6.9-15.2-15.4l0.2-33.7c0.1-8.4,6.9-15.2,15.4-15.2l33.7,0.2
				c8.4,0.1,15.2,6.9,15.2,15.4l-0.2,33.7C884.8,1556.7,877.9,1563.5,869.5,1563.4z"/>
			<path class="st14" d="M954.4,1564l-33.7-0.2c-8.4-0.1-15.2-6.9-15.2-15.4l0.2-33.7c0.1-8.4,6.9-15.2,15.4-15.2l33.7,0.2
				c8.4,0.1,15.2,6.9,15.2,15.4l-0.2,33.7C969.7,1557.2,962.8,1564,954.4,1564z"/>
			<path class="st14" d="M1036.2,1564.5l-33.7-0.2c-8.4-0.1-15.2-6.9-15.2-15.4l0.2-33.7c0.1-8.4,6.9-15.2,15.4-15.2l33.7,0.2
				c8.4,0.1,15.2,6.9,15.2,15.4l-0.2,33.7C1051.5,1557.7,1044.7,1564.5,1036.2,1564.5z"/>
			<path class="st14" d="M1112.7,1644.2l-33.7-0.2c-8.4-0.1-15.2-6.9-15.2-15.4l0.2-33.7c0.1-8.4,6.9-15.2,15.4-15.2l33.7,0.2
				c8.4,0.1,15.2,6.9,15.2,15.4l-0.2,33.7C1128,1637.4,1121.1,1644.2,1112.7,1644.2z"/>
			<path class="st14" d="M1113.2,1565.3l-33.7-0.2c-8.4-0.1-15.2-6.9-15.2-15.4l0.2-33.7c0.1-8.4,6.9-15.2,15.4-15.2l33.7,0.2
				c8.4,0.1,15.2,6.9,15.2,15.4l-0.2,33.7C1128.5,1558.6,1121.6,1565.4,1113.2,1565.3z"/>
			<path class="st14" d="M1111.7,1801.9l-33.7-0.2c-8.4-0.1-15.2-6.9-15.2-15.4l0.7-112.6c0.1-8.4,6.9-15.2,15.4-15.2l33.7,0.2
				c8.4,0.1,15.2,6.9,15.2,15.4l-0.7,112.6C1127,1795.1,1120.2,1801.9,1111.7,1801.9z"/>
		</g>
	</g>
	<g>
		<path class="st7" d="M860.9,1407.7l0.1-10.8l1.6-4.1c1.4,0.4,2.2,1.2,2.6,2.6l-0.1,14.4l-1,1L860.9,1407.7z M863.9,1411.8l1,1
			l-0.1,14.4c-0.4,1.4-1.2,2.2-2.6,2.6l-1.5-4.1l0.1-10.8L863.9,1411.8z"/>
		<path class="st7" d="M878.9,1398l-0.1,9.8l-3.1,3.1l-1-1l0.1-13.4L878.9,1398z M874.6,1426.3l0.1-13.4l1-1l3.1,3.1l-0.1,9.8
			L874.6,1426.3z M892.6,1430l-15.4-0.1c-1.4-0.4-2.2-1.2-2.6-2.6l4.1-1.5l12.3,0.1L892.6,1430z M891.3,1397.1L879,1397l-4.1-1.6
			c0.4-1.4,1.2-2.2,2.6-2.6l15.4,0.1L891.3,1397.1z M892.2,1407.9l0.1-10.8l1.6-4.1c1.4,0.4,2.2,1.2,2.6,2.6l-0.1,14.4l-1,1
			L892.2,1407.9z M895.3,1412l1,1l-0.1,14.4c-0.4,1.4-1.2,2.2-2.6,2.6l-1.5-4.1l0.1-10.8L895.3,1412z"/>
		<path class="st7" d="M910.3,1398.2l-0.1,9.8l-3.1,3.1l-1-1l0.1-13.4L910.3,1398.2z M906,1426.5l0.1-13.4l1-1l3.1,3.1l-0.1,9.8
			L906,1426.5z M924,1430.2l-15.4-0.1c-1.4-0.4-2.2-1.2-2.6-2.6l4.1-1.5l12.3,0.1L924,1430.2z M922.7,1397.3l-12.3-0.1l-4.1-1.6
			c0.4-1.4,1.2-2.2,2.6-2.6l15.4,0.1L922.7,1397.3z M923.6,1408.1l0.1-10.8l1.6-4.1c1.4,0.4,2.2,1.2,2.6,2.6l-0.1,14.4l-1,1
			L923.6,1408.1z M926.7,1412.2l1,1l-0.1,14.4c-0.4,1.4-1.2,2.2-2.6,2.6l-1.5-4.1l0.1-10.8L926.7,1412.2z"/>
		<path class="st7" d="M941.7,1398.4l-0.1,9.8l-3.1,3.1l-1-1l0.1-13.4L941.7,1398.4z M937.4,1426.7l0.1-13.4l1-1l3.1,3.1l-0.1,9.8
			L937.4,1426.7z M955.4,1430.4l-15.4-0.1c-1.4-0.4-2.2-1.2-2.6-2.6l4.1-1.5l12.3,0.1L955.4,1430.4z M954.1,1397.5l-12.3-0.1
			l-4.1-1.6c0.4-1.4,1.2-2.2,2.6-2.6l15.4,0.1L954.1,1397.5z M955,1408.3l0.1-10.8l1.6-4.1c1.4,0.4,2.2,1.2,2.6,2.6l-0.1,14.4l-1,1
			L955,1408.3z M958.1,1412.4l1,1l-0.1,14.4c-0.4,1.4-1.2,2.2-2.6,2.6l-1.5-4.1l0.1-10.8L958.1,1412.4z"/>
		<path class="st7" d="M973.1,1398.6l-0.1,9.8l-3.1,3.1l-1-1l0.1-13.4L973.1,1398.6z M968.8,1426.9l0.1-13.4l1-1l3.1,3.1l-0.1,9.8
			L968.8,1426.9z M986.8,1430.6l-15.4-0.1c-1.4-0.4-2.2-1.2-2.6-2.6l4.1-1.5l12.3,0.1L986.8,1430.6z M985.4,1397.7l-12.3-0.1
			l-4.1-1.6c0.4-1.4,1.2-2.2,2.6-2.6l15.4,0.1L985.4,1397.7z M986.4,1408.5l0.1-10.8l1.6-4.1c1.4,0.4,2.2,1.2,2.6,2.6l-0.1,14.4
			l-1,1L986.4,1408.5z M989.5,1412.6l1,1l-0.1,14.4c-0.4,1.4-1.2,2.2-2.6,2.6l-1.5-4.1l0.1-10.8L989.5,1412.6z"/>
		<path class="st7" d="M1004.5,1398.8l-0.1,9.8l-3.1,3.1l-1-1l0.1-13.4L1004.5,1398.8z M1000.2,1427.1l0.1-13.4l1-1l3.1,3.1
			l-0.1,9.8L1000.2,1427.1z M1018.2,1430.8l-15.4-0.1c-1.4-0.4-2.2-1.2-2.6-2.6l4.1-1.5l12.3,0.1L1018.2,1430.8z M1016.8,1397.9
			l-12.3-0.1l-4.1-1.6c0.4-1.4,1.2-2.2,2.6-2.6l15.4,0.1L1016.8,1397.9z M1017.8,1408.7l0.1-10.8l1.6-4.1c1.4,0.4,2.2,1.2,2.6,2.6
			l-0.1,14.4l-1,1L1017.8,1408.7z M1020.9,1412.8l1,1l-0.1,14.4c-0.4,1.4-1.2,2.2-2.6,2.6l-1.5-4.1l0.1-10.8L1020.9,1412.8z"/>
		<path class="st7" d="M1035.9,1399l-0.1,9.8l-3.1,3.1l-1-1l0.1-13.4L1035.9,1399z M1031.6,1427.3l0.1-13.4l1-1l3.1,3.1l-0.1,9.8
			L1031.6,1427.3z M1049.6,1431l-15.4-0.1c-1.4-0.4-2.2-1.2-2.6-2.6l4.1-1.5l12.3,0.1L1049.6,1431z M1048.2,1398.1l-12.3-0.1
			l-4.1-1.6c0.4-1.4,1.2-2.2,2.6-2.6l15.4,0.1L1048.2,1398.1z M1049.2,1408.9l0.1-10.8l1.6-4.1c1.4,0.4,2.2,1.2,2.6,2.6l-0.1,14.4
			l-1,1L1049.2,1408.9z M1052.2,1413l1,1l-0.1,14.4c-0.4,1.4-1.2,2.2-2.6,2.6l-1.5-4.1l0.1-10.8L1052.2,1413z"/>
		<path class="st7" d="M1067.3,1399.2l-0.1,9.8l-3.1,3.1l-1-1l0.1-13.4L1067.3,1399.2z M1063,1427.5l0.1-13.4l1-1l3.1,3.1l-0.1,9.8
			L1063,1427.5z M1080.9,1431.2l-15.4-0.1c-1.4-0.4-2.2-1.2-2.6-2.6l4.1-1.5l12.3,0.1L1080.9,1431.2z M1079.6,1398.3l-12.3-0.1
			l-4.1-1.6c0.4-1.4,1.2-2.2,2.6-2.6l15.4,0.1L1079.6,1398.3z M1080.6,1409.1l0.1-10.8l1.6-4.1c1.4,0.4,2.2,1.2,2.6,2.6l-0.1,14.4
			l-1,1L1080.6,1409.1z M1083.6,1413.2l1,1l-0.1,14.4c-0.4,1.4-1.2,2.2-2.6,2.6l-1.5-4.1l0.1-10.8L1083.6,1413.2z"/>
		<path class="st7" d="M1098.6,1399.4l-0.1,9.8l-3.1,3.1l-1-1l0.1-13.4L1098.6,1399.4z M1094.3,1427.7l0.1-13.4l1-1l3.1,3.1
			l-0.1,9.8L1094.3,1427.7z M1112.3,1431.4l-15.4-0.1c-1.4-0.4-2.2-1.2-2.6-2.6l4.1-1.5l12.3,0.1L1112.3,1431.4z M1111,1398.5
			l-12.3-0.1l-4.1-1.6c0.4-1.4,1.2-2.2,2.6-2.6l15.4,0.1L1111,1398.5z M1112,1409.3l0.1-10.8l1.6-4.1c1.4,0.4,2.2,1.2,2.6,2.6
			l-0.1,14.4l-1,1L1112,1409.3z M1115,1413.4l1,1l-0.1,14.4c-0.4,1.4-1.2,2.2-2.6,2.6l-1.5-4.1l0.1-10.8L1115,1413.4z"/>
	</g>
</g>
<g>
	<g>
		<g>
			<g>
				<path class="st20" d="M1545.5,1810.2v16.7c0,1.3-0.5,2.6-1.3,3.6c-0.9,1.1-2.1,1.9-3.6,2.4c-0.5,0.2-0.9,0.3-1.4,0.3
					c-0.4,0.1-0.9,0.1-1.4,0.1h-317.4c-3.8,0-7-2.4-7.6-5.5c0-0.2-0.1-0.4-0.1-0.6c0-0.1,0-0.2,0-0.3v-16.7c0-0.1,0-0.2,0-0.3
					c0-0.2,0-0.4,0.1-0.6c0.6-3.1,3.8-5.5,7.6-5.5h317.4c0.5,0,0.9,0,1.4,0.1c0.5,0.1,1,0.2,1.4,0.3c1.5,0.5,2.7,1.3,3.6,2.4
					C1545,1807.6,1545.5,1808.9,1545.5,1810.2z"/>
				<path class="st21" d="M1389.6,1833.4h-170c-3.2,0-5.8-2-6.6-4.8c-0.1-0.2-0.1-0.5-0.2-0.7c0-0.2-0.1-0.4-0.1-0.6
					c0-0.1,0-0.2,0-0.3v-16.7c0-0.1,0-0.2,0-0.3c0-0.2,0-0.4,0.1-0.6c0-0.2,0.1-0.5,0.2-0.7c0.8-2.7,3.4-4.8,6.6-4.8h149.2
					C1371.1,1812.5,1376.7,1824.5,1389.6,1833.4z"/>
				<g>
					<rect x="1503.3" y="1803.8" class="st21" width="3.6" height="29.6"/>
					<rect x="1491" y="1803.8" class="st21" width="3.6" height="29.6"/>
					<rect x="1476.4" y="1803.8" class="st21" width="3.6" height="29.6"/>
					<rect x="1454" y="1803.8" class="st21" width="3.6" height="29.6"/>
					<rect x="1430.2" y="1803.8" class="st21" width="3.6" height="29.6"/>
					<rect x="1393.8" y="1803.8" class="st21" width="3.6" height="29.6"/>
					<rect x="1359.8" y="1803.8" class="st21" width="3.6" height="29.6"/>
					<rect x="1329.3" y="1803.8" class="st21" width="3.6" height="29.6"/>
					<rect x="1514.9" y="1803.8" class="st21" width="3.6" height="29.6"/>
					<rect x="1522.6" y="1803.8" class="st21" width="3.6" height="29.6"/>
					<rect x="1530" y="1803.8" class="st21" width="3.6" height="29.6"/>
					<path class="st21" d="M1539.2,1803.9v29.4c-0.4,0.1-0.9,0.1-1.4,0.1h-2.3v-29.6h2.3C1538.3,1803.8,1538.7,1803.8,1539.2,1803.9
						z"/>
					<path class="st21" d="M1544.2,1806.6v23.9c-0.9,1.1-2.1,1.9-3.6,2.4v-28.8C1542,1804.7,1543.3,1805.5,1544.2,1806.6z"/>
				</g>
			</g>
			<g>
				<path class="st20" d="M1511.5,1780.6v16.7c0,1.3-0.5,2.6-1.3,3.6c-0.2,0.3-0.5,0.5-0.7,0.8c-0.8,0.7-1.8,1.3-2.9,1.6
					c-0.4,0.1-0.9,0.3-1.4,0.3c-0.4,0.1-0.9,0.1-1.3,0.1h-317.4c-3.8,0-7-2.4-7.6-5.5c0-0.2-0.1-0.4-0.1-0.6c0-0.1,0-0.2,0-0.3
					v-16.7c0-0.1,0-0.2,0-0.3c0-0.2,0-0.4,0.1-0.6c0.6-3.1,3.8-5.5,7.6-5.5h317.4c0.2,0,0.4,0,0.6,0c0.1,0,0.1,0,0.2,0c0,0,0,0,0,0
					c0.1,0,0.2,0,0.3,0c0.1,0,0.1,0,0.2,0c0.5,0.1,1,0.2,1.4,0.3c0.3,0.1,0.5,0.2,0.8,0.3h0c0.2,0.1,0.3,0.2,0.5,0.2
					c0.1,0,0.2,0.1,0.3,0.2c0.1,0,0.2,0.1,0.3,0.2c0.3,0.2,0.6,0.4,0.9,0.7c0.1,0.1,0.2,0.2,0.3,0.2c0.1,0,0.1,0.1,0.2,0.1
					c0,0,0.1,0.1,0.1,0.1l0.1,0.1c0.1,0.1,0.2,0.2,0.3,0.3C1511.1,1778,1511.5,1779.2,1511.5,1780.6z"/>
				<path class="st21" d="M1355.7,1803.8h-170c-3.2,0-5.8-2-6.6-4.8c-0.1-0.2-0.1-0.5-0.2-0.7c0-0.2-0.1-0.4-0.1-0.6
					c0-0.1,0-0.2,0-0.3v-16.7c0-0.1,0-0.2,0-0.3c0-0.2,0-0.4,0.1-0.6c0-0.2,0.1-0.5,0.2-0.7c0.8-2.7,3.4-4.8,6.6-4.8h149.2
					c0.1,0.2,0.1,0.5,0.2,0.7C1337.5,1783.5,1343.1,1795.2,1355.7,1803.8z"/>
				<g>
					<rect x="1469.3" y="1774.1" class="st21" width="3.6" height="29.6"/>
					<rect x="1457.1" y="1774.1" class="st21" width="3.6" height="29.6"/>
					<rect x="1442.5" y="1774.1" class="st21" width="3.6" height="29.6"/>
					<rect x="1420" y="1774.1" class="st21" width="3.6" height="29.6"/>
					<rect x="1396.3" y="1774.1" class="st21" width="3.6" height="29.6"/>
					<rect x="1359.9" y="1774.1" class="st21" width="3.6" height="29.6"/>
					<rect x="1325.8" y="1774.1" class="st21" width="3.6" height="29.6"/>
					<rect x="1295.4" y="1774.1" class="st21" width="3.6" height="29.6"/>
					<rect x="1480.9" y="1774.1" class="st21" width="3.6" height="29.6"/>
					<rect x="1488.6" y="1774.1" class="st21" width="3.6" height="29.6"/>
					<rect x="1496" y="1774.1" class="st21" width="3.6" height="29.6"/>
					<path class="st21" d="M1505.2,1774.2v29.4c-0.4,0.1-0.9,0.1-1.4,0.1h-2.3v-29.6h2.3C1504.3,1774.1,1504.8,1774.2,1505.2,1774.2
						z"/>
					<path class="st21" d="M1510.2,1777v23.9c-0.9,1.1-2.1,1.9-3.6,2.4v-28.8C1508.1,1775,1509.4,1775.9,1510.2,1777z"/>
				</g>
			</g>
			<g>
				<path class="st20" d="M1527.9,1751.7v16.7c0,1.3-0.5,2.6-1.3,3.6c-0.9,1.1-2.1,1.9-3.6,2.4c-0.4,0.1-0.9,0.3-1.4,0.3
					c-0.4,0.1-0.9,0.1-1.3,0.1h-317.4c-1.3,0-2.5-0.3-3.5-0.7c-2.1-0.9-3.6-2.6-4-4.7c0-0.1,0-0.3-0.1-0.4c0-0.1,0-0.2,0-0.3
					c0-0.1,0-0.2,0-0.3v-16.7c0-0.1,0-0.2,0-0.3c0-0.2,0-0.4,0.1-0.6c0.6-3.1,3.8-5.5,7.6-5.5h317.4c0.5,0,0.9,0,1.3,0.1
					c0.5,0.1,1,0.2,1.4,0.3c1.5,0.5,2.7,1.3,3.6,2.4C1527.5,1749.1,1527.9,1750.3,1527.9,1751.7z"/>
				<path class="st21" d="M1372.1,1774.9h-170c-1.1,0-2.2-0.3-3.2-0.7c-1.9-0.9-3.3-2.6-3.6-4.7c0-0.1,0-0.3-0.1-0.4
					c0-0.1,0-0.2,0-0.3c0-0.1,0-0.2,0-0.3v-16.7c0-0.1,0-0.2,0-0.3c0-0.2,0-0.4,0.1-0.6c0-0.2,0.1-0.5,0.2-0.7
					c0.8-2.8,3.4-4.8,6.6-4.8h149.2c2.3,8.5,7.6,20.1,19.8,28.9C1371.4,1774.4,1371.7,1774.6,1372.1,1774.9z"/>
				<g>
					<rect x="1485.7" y="1745.2" class="st21" width="3.6" height="29.6"/>
					<rect x="1473.5" y="1745.2" class="st21" width="3.6" height="29.6"/>
					<rect x="1458.9" y="1745.2" class="st21" width="3.6" height="29.6"/>
					<rect x="1436.4" y="1745.2" class="st21" width="3.6" height="29.6"/>
					<rect x="1412.7" y="1745.2" class="st21" width="3.6" height="29.6"/>
					<rect x="1376.3" y="1745.2" class="st21" width="3.6" height="29.6"/>
					<rect x="1342.2" y="1745.2" class="st21" width="3.6" height="29.6"/>
					<rect x="1311.8" y="1745.2" class="st21" width="3.6" height="29.6"/>
					<rect x="1497.3" y="1745.2" class="st21" width="3.6" height="29.6"/>
					<rect x="1505" y="1745.2" class="st21" width="3.6" height="29.6"/>
					<rect x="1512.4" y="1745.2" class="st21" width="3.6" height="29.6"/>
					<path class="st21" d="M1521.6,1745.3v29.4c-0.4,0.1-0.9,0.1-1.4,0.1h-2.3v-29.6h2.3C1520.7,1745.2,1521.2,1745.3,1521.6,1745.3
						z"/>
					<path class="st21" d="M1526.6,1748.1v23.9c-0.9,1.1-2.1,1.9-3.6,2.4v-28.8C1524.5,1746.1,1525.8,1747,1526.6,1748.1z"/>
				</g>
			</g>
			<g>
				<path class="st20" d="M1535.5,1722v16.7c0,1.3-0.5,2.6-1.3,3.6c-0.1,0.1-0.2,0.3-0.3,0.4c-0.6,0.6-1.3,1.2-2.2,1.6
					c-0.3,0.2-0.7,0.3-1.1,0.4c-0.5,0.1-0.9,0.3-1.4,0.3c-0.2,0-0.4,0.1-0.7,0.1c-0.2,0-0.5,0-0.7,0h-317.4c-3.8,0-7-2.4-7.6-5.5
					c0-0.2-0.1-0.4-0.1-0.6v-17.4c0.2-3.1,3.1-5.7,6.8-6.1c0.3,0,0.6,0,0.9,0h317.4c0.2,0,0.5,0,0.7,0c0.2,0,0.4,0,0.7,0.1
					c0.5,0.1,1,0.2,1.4,0.3c1.5,0.5,2.7,1.3,3.6,2.4C1535.1,1719.5,1535.5,1720.7,1535.5,1722z"/>
				<path class="st21" d="M1379.7,1745.2h-170c-3.2,0-5.8-2-6.6-4.8c-0.1-0.2-0.1-0.5-0.2-0.7c0-0.2-0.1-0.4-0.1-0.6v-17.4
					c0.2-3.1,2.8-5.7,6-6.1c0.3,0,0.5,0,0.8,0h149.2c0,0,0,0,0,0C1361.2,1724.4,1366.8,1736.4,1379.7,1745.2z"/>
				<g>
					<rect x="1493.3" y="1715.6" class="st21" width="3.6" height="29.6"/>
					<rect x="1481.1" y="1715.6" class="st21" width="3.6" height="29.6"/>
					<rect x="1466.5" y="1715.6" class="st21" width="3.6" height="29.6"/>
					<rect x="1444" y="1715.6" class="st21" width="3.6" height="29.6"/>
					<rect x="1420.3" y="1715.6" class="st21" width="3.6" height="29.6"/>
					<rect x="1383.9" y="1715.6" class="st21" width="3.6" height="29.6"/>
					<rect x="1349.8" y="1715.6" class="st21" width="3.6" height="29.6"/>
					<rect x="1319.4" y="1715.6" class="st21" width="3.6" height="29.6"/>
					<rect x="1504.9" y="1715.6" class="st21" width="3.6" height="29.6"/>
					<rect x="1512.6" y="1715.6" class="st21" width="3.6" height="29.6"/>
					<rect x="1520" y="1715.6" class="st21" width="3.6" height="29.6"/>
					<path class="st21" d="M1529.2,1715.7v29.4c-0.4,0.1-0.9,0.1-1.4,0.1h-2.3v-29.6h2.3C1528.3,1715.6,1528.8,1715.6,1529.2,1715.7
						z"/>
					<path class="st21" d="M1534.2,1718.4v23.9c-0.9,1.1-2.1,1.9-3.6,2.4V1716C1532.1,1716.5,1533.4,1717.4,1534.2,1718.4z"/>
				</g>
			</g>
			<g>
				<path class="st20" d="M1512.2,1692.5v16.7c0,1.3-0.5,2.6-1.3,3.6c-0.9,1.1-2.1,1.9-3.6,2.4c-0.4,0.1-0.9,0.3-1.4,0.3
					c-0.1,0-0.3,0-0.4,0.1h-0.1c-0.1,0-0.2,0-0.2,0c-0.1,0-0.1,0-0.2,0c-0.1,0-0.3,0-0.4,0h-317.4c-4.1,0-7.5-2.7-7.7-6.1
					c0-0.1,0-0.2,0-0.3v-16.7c0-0.1,0-0.2,0-0.3c0-0.1,0-0.2,0-0.3c0.3-2.7,2.7-5,5.8-5.6c0.1,0,0.1,0,0.2,0
					c0.5-0.1,1.1-0.2,1.7-0.2h317.4c0.2,0,0.5,0,0.7,0c0.1,0,0.2,0,0.3,0c0,0,0,0,0,0h0c0.1,0,0.2,0,0.4,0c0.5,0.1,1,0.2,1.4,0.3
					c1.5,0.5,2.7,1.3,3.6,2.4C1511.7,1689.9,1512.2,1691.1,1512.2,1692.5z"/>
				<path class="st21" d="M1356.3,1715.6h-170c-3.7,0-6.7-2.7-6.9-6.1c0-0.1,0-0.2,0-0.3v-16.7c0-0.1,0-0.2,0-0.3c0-0.1,0-0.2,0-0.3
					c0.3-2.8,2.5-5.1,5.3-5.7c0.1,0,0.2,0,0.3-0.1c0.4-0.1,0.8-0.1,1.2-0.1h149.2c0,0.1,0,0.1,0.1,0.2
					C1337.9,1694.9,1343.5,1706.8,1356.3,1715.6C1356.3,1715.6,1356.3,1715.6,1356.3,1715.6z"/>
				<g>
					<rect x="1470" y="1686" class="st21" width="3.6" height="29.6"/>
					<rect x="1457.8" y="1686" class="st21" width="3.6" height="29.6"/>
					<rect x="1443.1" y="1686" class="st21" width="3.6" height="29.6"/>
					<rect x="1420.7" y="1686" class="st21" width="3.6" height="29.6"/>
					<rect x="1396.9" y="1686" class="st21" width="3.6" height="29.6"/>
					<rect x="1360.6" y="1686" class="st21" width="3.6" height="29.6"/>
					<rect x="1326.5" y="1686" class="st21" width="3.6" height="29.6"/>
					<rect x="1296.1" y="1686" class="st21" width="3.6" height="29.6"/>
					<rect x="1481.6" y="1686" class="st21" width="3.6" height="29.6"/>
					<rect x="1489.3" y="1686" class="st21" width="3.6" height="29.6"/>
					<rect x="1496.7" y="1686" class="st21" width="3.6" height="29.6"/>
					<path class="st21" d="M1505.9,1686.1v29.4c-0.4,0.1-0.9,0.1-1.4,0.1h-2.3V1686h2.3C1505,1686,1505.4,1686,1505.9,1686.1z"/>
					<path class="st21" d="M1510.9,1688.9v23.9c-0.9,1.1-2.1,1.9-3.6,2.4v-28.8C1508.8,1686.9,1510,1687.8,1510.9,1688.9z"/>
				</g>
			</g>
			<g>
				<path class="st20" d="M1511.5,1663v16.7c0,1.3-0.5,2.6-1.3,3.6c-0.2,0.3-0.5,0.5-0.7,0.8c-0.8,0.7-1.8,1.3-2.9,1.6
					c-0.4,0.1-0.7,0.2-1.1,0.3h0c0,0,0,0,0,0c-0.1,0-0.2,0-0.3,0c-0.4,0.1-0.9,0.1-1.3,0.1h-317.4c-0.3,0-0.7,0-1-0.1
					c-0.1,0-0.3,0-0.4,0c-3.2-0.5-5.8-2.7-6.2-5.5c0-0.2,0-0.4-0.1-0.6c0-0.1,0-0.2,0-0.3V1663c0-0.1,0-0.2,0-0.3
					c0-0.2,0-0.4,0.1-0.6c0.6-3.1,3.8-5.5,7.6-5.5h317.4c0.2,0,0.4,0,0.6,0c0,0,0.1,0,0.1,0c0.1,0,0.1,0,0.2,0c0.1,0,0.2,0,0.3,0
					c0.1,0,0.1,0,0.2,0c0.5,0.1,1,0.2,1.4,0.3c0.3,0.1,0.5,0.2,0.8,0.3h0c1,0.4,1.9,1.1,2.5,1.8c0.1,0.1,0.2,0.2,0.3,0.3
					C1511.1,1660.5,1511.5,1661.7,1511.5,1663z"/>
				<path class="st21" d="M1355.7,1686.2h-170c-0.1,0-0.3,0-0.4,0c-0.1,0-0.3,0-0.4,0c-3.1-0.4-5.5-2.6-5.9-5.5c0-0.2,0-0.4-0.1-0.6
					c0-0.1,0-0.2,0-0.3V1663c0-0.1,0-0.2,0-0.3c0-0.2,0-0.4,0.1-0.6c0-0.2,0.1-0.5,0.2-0.7c0.8-2.7,3.4-4.8,6.6-4.8h149.2
					c0.1,0.2,0.1,0.5,0.2,0.7c2.5,8.6,8,20.1,20.4,28.7C1355.5,1686.1,1355.6,1686.1,1355.7,1686.2z"/>
				<g>
					<rect x="1469.3" y="1656.6" class="st21" width="3.6" height="29.6"/>
					<rect x="1457.1" y="1656.6" class="st21" width="3.6" height="29.6"/>
					<rect x="1442.5" y="1656.6" class="st21" width="3.6" height="29.6"/>
					<rect x="1420" y="1656.6" class="st21" width="3.6" height="29.6"/>
					<rect x="1396.3" y="1656.6" class="st21" width="3.6" height="29.6"/>
					<rect x="1359.9" y="1656.6" class="st21" width="3.6" height="29.6"/>
					<rect x="1325.8" y="1656.6" class="st21" width="3.6" height="29.6"/>
					<rect x="1295.4" y="1656.6" class="st21" width="3.6" height="29.6"/>
					<rect x="1480.9" y="1656.6" class="st21" width="3.6" height="29.6"/>
					<rect x="1488.6" y="1656.6" class="st21" width="3.6" height="29.6"/>
					<rect x="1496" y="1656.6" class="st21" width="3.6" height="29.6"/>
					<path class="st21" d="M1505.2,1656.7v29.4c-0.4,0.1-0.9,0.1-1.4,0.1h-2.3v-29.6h2.3C1504.3,1656.6,1504.8,1656.6,1505.2,1656.7
						z"/>
					<path class="st21" d="M1510.2,1659.4v23.9c-0.9,1.1-2.1,1.9-3.6,2.4V1657C1508.1,1657.5,1509.4,1658.4,1510.2,1659.4z"/>
				</g>
			</g>
			<g>
				<path class="st20" d="M1527.9,1634.1v16.7c0,1.3-0.5,2.6-1.3,3.6c-0.9,1.1-2.1,1.9-3.6,2.4c-0.4,0.1-0.9,0.3-1.4,0.3
					c-0.4,0.1-0.9,0.1-1.3,0.1h-317.4c-1.3,0-2.5-0.3-3.5-0.7c-2.1-0.9-3.6-2.6-4-4.7c0-0.1,0-0.3-0.1-0.4c0-0.1,0-0.2,0-0.3
					c0-0.1,0-0.2,0-0.3v-16.7c0-0.1,0-0.2,0-0.3c0-0.2,0-0.4,0.1-0.6c0.6-3.1,3.8-5.5,7.6-5.5h317.4c0.5,0,0.9,0,1.3,0.1
					c0.5,0.1,1,0.2,1.4,0.3c1.5,0.5,2.7,1.3,3.6,2.4C1527.5,1631.6,1527.9,1632.8,1527.9,1634.1z"/>
				<path class="st21" d="M1372.1,1657.3h-170c-1.1,0-2.2-0.3-3.2-0.7c-1.9-0.9-3.3-2.6-3.6-4.7c0-0.1,0-0.3-0.1-0.4
					c0-0.1,0-0.2,0-0.3c0-0.1,0-0.2,0-0.3v-16.7c0-0.1,0-0.2,0-0.3c0-0.2,0-0.4,0.1-0.6c0-0.2,0.1-0.5,0.2-0.7
					c0.8-2.7,3.4-4.8,6.6-4.8h149.2c2.3,8.5,7.6,20.1,19.8,28.9C1371.4,1656.8,1371.7,1657.1,1372.1,1657.3z"/>
				<g>
					<rect x="1485.7" y="1627.7" class="st21" width="3.6" height="29.6"/>
					<rect x="1473.5" y="1627.7" class="st21" width="3.6" height="29.6"/>
					<rect x="1458.9" y="1627.7" class="st21" width="3.6" height="29.6"/>
					<rect x="1436.4" y="1627.7" class="st21" width="3.6" height="29.6"/>
					<rect x="1412.7" y="1627.7" class="st21" width="3.6" height="29.6"/>
					<rect x="1376.3" y="1627.7" class="st21" width="3.6" height="29.6"/>
					<rect x="1342.2" y="1627.7" class="st21" width="3.6" height="29.6"/>
					<rect x="1311.8" y="1627.7" class="st21" width="3.6" height="29.6"/>
					<rect x="1497.3" y="1627.7" class="st21" width="3.6" height="29.6"/>
					<rect x="1505" y="1627.7" class="st21" width="3.6" height="29.6"/>
					<rect x="1512.4" y="1627.7" class="st21" width="3.6" height="29.6"/>
					<path class="st21" d="M1521.6,1627.8v29.4c-0.4,0.1-0.9,0.1-1.4,0.1h-2.3v-29.6h2.3C1520.7,1627.7,1521.2,1627.7,1521.6,1627.8
						z"/>
					<path class="st21" d="M1526.6,1630.5v23.9c-0.9,1.1-2.1,1.9-3.6,2.4v-28.8C1524.5,1628.6,1525.8,1629.5,1526.6,1630.5z"/>
				</g>
			</g>
			<g>
				<path class="st20" d="M1553.9,1604.5v16.7c0,1.3-0.5,2.6-1.3,3.6l0,0c-0.1,0.1-0.2,0.3-0.3,0.4c-0.5,0.5-1.1,1-1.7,1.3
					c-0.3,0.2-0.7,0.3-1,0.5c0,0,0,0,0,0c-0.2,0.1-0.3,0.1-0.5,0.2c-0.4,0.1-0.9,0.3-1.4,0.3c-0.4,0.1-0.9,0.1-1.3,0.1h-317.4
					c-3.8,0-7-2.4-7.6-5.5c0-0.2-0.1-0.4-0.1-0.6c0-0.1,0-0.2,0-0.3v-16.7c0-0.1,0-0.2,0-0.3c0.2-3.1,3.1-5.7,6.8-6.1
					c0.3,0,0.6,0,0.9,0h317.4c0.5,0,0.9,0,1.3,0.1c0.5,0.1,1,0.2,1.4,0.3c1.3,0.4,2.4,1.1,3.3,2c0.1,0.1,0.2,0.3,0.3,0.4l0,0
					C1553.4,1601.9,1553.9,1603.2,1553.9,1604.5z"/>
				<path class="st21" d="M1398,1627.7h-170c-3.2,0-5.8-2-6.6-4.8c-0.1-0.2-0.1-0.5-0.2-0.7c0-0.2-0.1-0.4-0.1-0.6
					c0-0.1,0-0.2,0-0.3v-16.7c0-0.1,0-0.2,0-0.3c0.2-3.1,2.8-5.7,6-6.1c0.3,0,0.5,0,0.8,0h149.2c0,0,0,0,0,0
					C1379.5,1606.8,1385.1,1618.9,1398,1627.7z"/>
				<g>
					<rect x="1511.7" y="1598.1" class="st21" width="3.6" height="29.6"/>
					<rect x="1499.4" y="1598.1" class="st21" width="3.6" height="29.6"/>
					<rect x="1484.8" y="1598.1" class="st21" width="3.6" height="29.6"/>
					<rect x="1462.4" y="1598.1" class="st21" width="3.6" height="29.6"/>
					<rect x="1438.6" y="1598.1" class="st21" width="3.6" height="29.6"/>
					<rect x="1402.2" y="1598.1" class="st21" width="3.6" height="29.6"/>
					<rect x="1368.2" y="1598.1" class="st21" width="3.6" height="29.6"/>
					<rect x="1337.7" y="1598.1" class="st21" width="3.6" height="29.6"/>
					<rect x="1523.3" y="1598.1" class="st21" width="3.6" height="29.6"/>
					<rect x="1531" y="1598.1" class="st21" width="3.6" height="29.6"/>
					<rect x="1538.4" y="1598.1" class="st21" width="3.6" height="29.6"/>
					<path class="st21" d="M1547.6,1598.2v29.4c-0.4,0.1-0.9,0.1-1.4,0.1h-2.3v-29.6h2.3C1546.7,1598.1,1547.1,1598.1,1547.6,1598.2
						z"/>
					<path class="st21" d="M1552.6,1600.9v23.9c-0.9,1.1-2.1,1.9-3.6,2.4v-28.8C1550.4,1599,1551.7,1599.8,1552.6,1600.9z"/>
				</g>
			</g>
			<g>
				<path class="st20" d="M1512.2,1574.9v16.7c0,1.3-0.5,2.6-1.3,3.6c-0.9,1.1-2.1,1.9-3.6,2.4c-0.4,0.1-0.9,0.3-1.4,0.3
					c-0.1,0-0.3,0-0.4,0.1h-0.1c-0.1,0-0.2,0-0.3,0c-0.1,0-0.1,0-0.2,0c-0.1,0-0.2,0-0.4,0h-317.4c-2.8,0-5.2-1.2-6.5-3.1
					c-0.7-0.9-1.1-1.9-1.1-3c0-0.1,0-0.2,0-0.3v-16.7c0-0.1,0-0.2,0-0.3c0.2-2.7,2.4-5.1,5.4-5.8c0.7-0.2,1.5-0.3,2.2-0.3h317.4
					c0.1,0,0.3,0,0.4,0c0.1,0,0.1,0,0.2,0c0.3,0,0.5,0,0.8,0.1c0.5,0.1,1,0.2,1.4,0.3c0.2,0.1,0.4,0.1,0.7,0.2h0
					c0.8,0.3,1.6,0.8,2.2,1.4c0,0,0,0,0,0c0,0,0.1,0,0.1,0.1c0.2,0.2,0.4,0.4,0.6,0.6C1511.7,1572.3,1512.2,1573.6,1512.2,1574.9z"
					/>
				<path class="st21" d="M1356.3,1598.1h-170c-2.4,0-4.5-1.2-5.7-2.9c-0.7-0.9-1.1-2-1.1-3.2c0-0.1,0-0.2,0-0.3v-16.7
					c0-0.1,0-0.2,0-0.3c0.2-3,2.5-5.4,5.5-6c0.4-0.1,0.9-0.1,1.4-0.1h149.2c0.1,0.2,0.1,0.5,0.2,0.7
					C1338.1,1577.8,1343.7,1589.4,1356.3,1598.1C1356.3,1598.1,1356.3,1598.1,1356.3,1598.1z"/>
				<g>
					<rect x="1470" y="1568.5" class="st21" width="3.6" height="29.6"/>
					<rect x="1457.8" y="1568.5" class="st21" width="3.6" height="29.6"/>
					<rect x="1443.1" y="1568.5" class="st21" width="3.6" height="29.6"/>
					<rect x="1420.7" y="1568.5" class="st21" width="3.6" height="29.6"/>
					<rect x="1396.9" y="1568.5" class="st21" width="3.6" height="29.6"/>
					<rect x="1360.6" y="1568.5" class="st21" width="3.6" height="29.6"/>
					<rect x="1326.5" y="1568.5" class="st21" width="3.6" height="29.6"/>
					<rect x="1296.1" y="1568.5" class="st21" width="3.6" height="29.6"/>
					<rect x="1481.6" y="1568.5" class="st21" width="3.6" height="29.6"/>
					<rect x="1489.3" y="1568.5" class="st21" width="3.6" height="29.6"/>
					<rect x="1496.7" y="1568.5" class="st21" width="3.6" height="29.6"/>
					<path class="st21" d="M1505.9,1568.6v29.4c-0.4,0.1-0.9,0.1-1.4,0.1h-2.3v-29.6h2.3C1505,1568.5,1505.4,1568.5,1505.9,1568.6z"
						/>
					<path class="st21" d="M1510.9,1571.3v23.9c-0.9,1.1-2.1,1.9-3.6,2.4v-28.8C1508.8,1569.4,1510,1570.2,1510.9,1571.3z"/>
				</g>
			</g>
			<g>
				<path class="st20" d="M1535.5,1546v16.7c0,1.3-0.5,2.6-1.3,3.6c-0.9,1.1-2.1,1.9-3.6,2.4c-0.4,0.2-0.9,0.3-1.4,0.3
					c-0.4,0.1-0.9,0.1-1.4,0.1h-317.4c-1.2,0-2.4-0.2-3.4-0.7c-2.3-1-4-2.9-4.2-5.2c0-0.1,0-0.2,0-0.3c0-0.1,0-0.2,0-0.3V1546
					c0-0.1,0-0.2,0-0.3c0.2-3.1,3.1-5.7,6.8-6.1c0.3,0,0.6,0,0.9,0h317.4c0.5,0,0.9,0,1.4,0.1c0.5,0.1,1,0.2,1.4,0.3
					c1.5,0.5,2.7,1.3,3.6,2.4C1535.1,1543.4,1535.5,1544.6,1535.5,1546z"/>
				<path class="st21" d="M1379.7,1569.2h-170c-1.1,0-2.1-0.2-3.1-0.7c-2.1-1-3.5-2.9-3.8-5.2c0-0.1,0-0.2,0-0.3c0-0.1,0-0.2,0-0.3
					V1546c0-0.1,0-0.2,0-0.3c0.2-3.1,2.8-5.7,6-6.1c0.3,0,0.5,0,0.8,0h149.2c0,0,0,0,0,0c2.3,8.5,7.7,20.1,19.9,28.9
					C1379,1568.7,1379.4,1568.9,1379.7,1569.2z"/>
				<g>
					<rect x="1493.3" y="1539.5" class="st21" width="3.6" height="29.6"/>
					<rect x="1481.1" y="1539.5" class="st21" width="3.6" height="29.6"/>
					<rect x="1466.5" y="1539.5" class="st21" width="3.6" height="29.6"/>
					<rect x="1444" y="1539.5" class="st21" width="3.6" height="29.6"/>
					<rect x="1420.3" y="1539.5" class="st21" width="3.6" height="29.6"/>
					<rect x="1383.9" y="1539.5" class="st21" width="3.6" height="29.6"/>
					<rect x="1349.8" y="1539.5" class="st21" width="3.6" height="29.6"/>
					<rect x="1319.4" y="1539.5" class="st21" width="3.6" height="29.6"/>
					<rect x="1504.9" y="1539.5" class="st21" width="3.6" height="29.6"/>
					<rect x="1512.6" y="1539.5" class="st21" width="3.6" height="29.6"/>
					<rect x="1520" y="1539.5" class="st21" width="3.6" height="29.6"/>
					<path class="st21" d="M1529.2,1539.6v29.4c-0.4,0.1-0.9,0.1-1.4,0.1h-2.3v-29.6h2.3C1528.3,1539.5,1528.8,1539.6,1529.2,1539.6
						z"/>
					<path class="st21" d="M1534.2,1542.4v23.9c-0.9,1.1-2.1,1.9-3.6,2.4V1540C1532.1,1540.4,1533.4,1541.3,1534.2,1542.4z"/>
				</g>
			</g>
			<g>
				<path class="st20" d="M1545.5,1516.4v16.7c0,1.3-0.5,2.6-1.3,3.6c-0.9,1.1-2.1,1.9-3.6,2.4c-0.5,0.1-0.9,0.3-1.4,0.3
					c-0.1,0-0.3,0-0.4,0.1c-0.1,0-0.2,0-0.3,0c-0.1,0-0.2,0-0.3,0c-0.1,0-0.3,0-0.4,0h-317.4c-4.1,0-7.5-2.7-7.7-6.1
					c0-0.1,0-0.2,0-0.3v-16.7c0-0.1,0-0.2,0-0.3c0.2-3.4,3.6-6.1,7.7-6.1h317.4c0.5,0,0.9,0,1.4,0.1c0.5,0.1,1,0.2,1.4,0.3
					c1.5,0.5,2.7,1.3,3.6,2.4C1545,1513.8,1545.5,1515.1,1545.5,1516.4z"/>
				<path class="st21" d="M1389.6,1539.6h-170c-3.7,0-6.7-2.7-6.8-6.1c0-0.1,0-0.2,0-0.3v-16.7c0-0.1,0-0.2,0-0.3
					c0.2-3.4,3.2-6.1,6.8-6.1h149.2C1371.1,1518.6,1376.7,1530.7,1389.6,1539.6C1389.6,1539.5,1389.6,1539.6,1389.6,1539.6z"/>
				<g>
					<rect x="1503.3" y="1509.9" class="st21" width="3.6" height="29.6"/>
					<rect x="1491" y="1509.9" class="st21" width="3.6" height="29.6"/>
					<rect x="1476.4" y="1509.9" class="st21" width="3.6" height="29.6"/>
					<rect x="1454" y="1509.9" class="st21" width="3.6" height="29.6"/>
					<rect x="1430.2" y="1509.9" class="st21" width="3.6" height="29.6"/>
					<rect x="1393.8" y="1509.9" class="st21" width="3.6" height="29.6"/>
					<rect x="1359.8" y="1509.9" class="st21" width="3.6" height="29.6"/>
					<rect x="1329.3" y="1509.9" class="st21" width="3.6" height="29.6"/>
					<rect x="1514.9" y="1509.9" class="st21" width="3.6" height="29.6"/>
					<rect x="1522.6" y="1509.9" class="st21" width="3.6" height="29.6"/>
					<rect x="1530" y="1509.9" class="st21" width="3.6" height="29.6"/>
					<path class="st21" d="M1539.2,1510v29.4c-0.4,0.1-0.9,0.1-1.4,0.1h-2.3v-29.6h2.3C1538.3,1509.9,1538.7,1510,1539.2,1510z"/>
					<path class="st21" d="M1544.2,1512.8v23.9c-0.9,1.1-2.1,1.9-3.6,2.4v-28.8C1542,1510.8,1543.3,1511.7,1544.2,1512.8z"/>
				</g>
			</g>
		</g>
		<g>
			<path class="st22" d="M1444.9,1341.1c0,0-16.7,23.5-32,23.8s-38.5-10.9-38.5-10.9s-14-31.3-4.5-43.5c0,0,9.5-4.2,19.5,3.2
				c1.7,1.3,3.5,2.9,5.2,4.9c2.4,2.9,5.1,4.6,8,5.4c10.9,3.3,23.9-4.5,28.7,3c2.8,4.4,5.9,7.7,8.4,10
				C1442.7,1339.8,1444.9,1341.1,1444.9,1341.1z"/>
			<path class="st22" d="M1227.5,1510.4c0,0,58.9-142.8,165-145.5c0,0,97.9,10.9,103.3,145.5H1227.5z"/>
			<path class="st23" d="M1363.5,1369.2c0,0,42.5,9.5,55.6,3.9c0,0,2-17.8-15.9-15.3c-12.3,1.7-20.2-4.2-24.9-6.6
				C1371.6,1347.9,1361.7,1361.8,1363.5,1369.2z"/>
			<path class="st24" d="M1400.5,1342.4c-2.7,2-11.1-28.7-11.1-28.7c1.7,1.3,3.5,2.9,5.2,4.9c2.4,2.9,5.1,4.6,8,5.4
				C1402.6,1325,1403.1,1340.5,1400.5,1342.4z"/>
			<path class="st24" d="M1439.7,1337.1c-0.6,0.4-20.3,12.1-22.9,12.1c-2.7,0,14.5-22.1,14.5-22.1
				C1434.1,1331.5,1437.2,1334.8,1439.7,1337.1z"/>
			<path class="st25" d="M1285.1,1470.5c-1.1-0.9,41.7-63,53.5-63.5c11.8-0.5,38.3,13.6,57.4,15.4s37.8-3.6,41.4,7.7
				c3.6,11.3,13.6,51.5,7.5,57.9C1438.8,1494.5,1308.6,1490.6,1285.1,1470.5z"/>
		</g>
	</g>
	<path class="st26" d="M1325.4,1686c0,0.1,0,0.1,0,0.2c-0.6,9.9-2.2,19.8-4.8,29.4c0,0,0,0,0,0c-0.4,1.4-0.8,2.8-1.2,4.2
		c-2.7,8.7-6.2,17.3-10.5,25.4c-5.4,10.3-12.1,20-19.9,28.9c-0.2,0.2-0.4,0.5-0.6,0.7c-9.8,11-21.5,20.8-34.9,28.9
		c-2.8,1.7-5.7,3.4-8.7,4.9c-2,1.1-4,2-6,3c-1.9,1.1-4,2.1-5.9,3.3c-5.6,3.4-12.6,6.1-20.2,8.3v-13c0-0.1,0-0.2,0-0.3
		c0-0.2,0-0.4,0.1-0.6c0-0.2,0.1-0.5,0.2-0.7c0.8-2.7,3.4-4.8,6.6-4.8h-33.9c-3.2,0-5.8-2-6.6-4.8c-0.1-0.2-0.1-0.5-0.2-0.7
		c0-0.2-0.1-0.4-0.1-0.6c0-0.1,0-0.2,0-0.3v-16.7c0-0.1,0-0.2,0-0.3c0-0.2,0-0.4,0.1-0.6c0-0.2,0.1-0.5,0.2-0.7
		c0.8-2.7,3.4-4.8,6.6-4.8h13.2c-1.9-0.9-3.3-2.6-3.6-4.7c0-0.1,0-0.3-0.1-0.4c0-0.1,0-0.2,0-0.3c0-0.1,0-0.2,0-0.3v-16.7
		c0-0.1,0-0.2,0-0.3c0-0.2,0-0.4,0.1-0.6c0-0.2,0.1-0.5,0.2-0.7c0.8-2.8,3.4-4.8,6.6-4.8h7.6c-3.2,0-5.8-2-6.6-4.8
		c-0.1-0.2-0.1-0.5-0.2-0.7c0-0.2-0.1-0.4-0.1-0.6v-17.4c0.2-3.1,2.8-5.7,6-6.1h-22.5c-3.7,0-6.7-2.7-6.9-6.1c0-0.1,0-0.2,0-0.3
		v-16.7c0-0.1,0-0.2,0-0.3c0-0.1,0-0.2,0-0.3c0.3-2.8,2.5-5.1,5.3-5.7c-3.1-0.4-5.5-2.6-5.9-5.5c0-0.2,0-0.4-0.1-0.6
		c0-0.1,0-0.2,0-0.3V1663c0-0.1,0-0.2,0-0.3c0-0.2,0-0.4,0.1-0.6c0-0.2,0.1-0.5,0.2-0.7c0.8-2.7,3.4-4.8,6.6-4.8h13.2
		c-1.9-0.9-3.3-2.6-3.6-4.7c0-0.1,0-0.3-0.1-0.4c0-0.1,0-0.2,0-0.3c0-0.1,0-0.2,0-0.3v-16.7c0-0.1,0-0.2,0-0.3c0-0.2,0-0.4,0.1-0.6
		c0-0.2,0.1-0.5,0.2-0.7c0.8-2.7,3.4-4.8,6.6-4.8h25.9c-3.2,0-5.8-2-6.6-4.8c-0.1-0.2-0.1-0.5-0.2-0.7c0-0.2-0.1-0.4-0.1-0.6
		c0-0.1,0-0.2,0-0.3v-16.7c0-0.1,0-0.2,0-0.3c0.2-3.1,2.8-5.7,6-6.1h-40.9c-2.4,0-4.5-1.2-5.7-2.9l0-0.1l4.3-26.3l0-0.1l6.1-37.5
		c7.1,1,14.1,2.4,21,4.2c0.4,0.1,0.8,0.2,1.2,0.3c0,0,0,0,0.1,0c4,1.1,8,2.4,11.9,3.8c0,0,0.1,0,0.1,0c18,6.6,34.7,16.3,49.3,28.9
		c0.3,0.2,0.5,0.4,0.8,0.7c7.6,6.6,14.5,14.1,20.7,22.3c1.2,1.6,2.4,3.3,3.6,5c0.4,0.6,0.8,1.1,1.1,1.7c0,0,0,0,0,0
		c1.9,2.8,3.6,5.6,5.3,8.5c4,6.9,7.3,13.9,10,21.1c3.6,9.5,6.2,19.2,7.7,28.9c0.1,0.2,0.1,0.5,0.1,0.7
		C1325.5,1666.9,1325.9,1676.5,1325.4,1686z"/>
	<g>
		
			<ellipse transform="matrix(0.7071 -0.7071 0.7071 0.7071 -849.1563 1291.3799)" class="st27" cx="1134.3" cy="1670.7" rx="156.1" ry="156.1"/>
		<path class="st20" d="M1203.6,1810.6c-1.9,1.2-3.9,2.3-5.9,3.4c-0.7,0.4-1.3,0.7-2,1.1c-1.5,0.8-3.1,1.6-4.6,2.4
			c-74.3,36.5-165,8.5-205.4-64.8c-38.6-69.9-17.8-156.5,45.4-202c5-3.6,10.4-7,15.9-10.1c2-1.1,4-2.2,6-3.2c2-1,4-1.9,5.9-2.8
			c6.1-2.7,12.3-5,18.6-6.9c9.3-2.8,18.8-4.7,28.3-5.7c29.4-3.1,59,2.3,85.2,15.1c27.8,13.6,51.9,35.6,68,64.8
			C1299.6,1675.4,1274.6,1767.4,1203.6,1810.6z"/>
		<g>
			<path class="st21" d="M1123.4,1818.9c-13.1,0-26.2-1.8-39.1-5.6c-35.9-10.4-65.6-34.1-83.6-66.8c-18-32.7-22.3-70.5-11.9-106.4
				c10.4-35.9,34.1-65.6,66.8-83.6c67.6-37.2,152.8-12.6,190,55c37.2,67.6,12.6,152.8-55,190
				C1169.8,1813,1146.7,1818.9,1123.4,1818.9z M1123,1542.8c-22.2,0-44.7,5.4-65.5,16.9c-31.8,17.6-54.9,46.5-65,81.4
				c-10.1,34.9-6,71.7,11.6,103.5c17.6,31.8,46.5,54.9,81.4,65c34.9,10.1,71.7,6,103.5-11.6c65.7-36.2,89.7-119.2,53.5-184.9
				C1217.6,1568.2,1171,1542.8,1123,1542.8z"/>
		</g>
		<g>
			<path class="st21" d="M1192,1692.5c-0.3-0.8-0.6-1.5-1-2.2c-2.5-5.6-5.7-10.1-9.5-13.5c-4.3-3.9-9.2-6.8-14.9-8.8
				c-5.7-1.9-12-3.1-18.9-3.6c-7-0.4-14.6-0.5-22.7-0.3c-5.1,0.2-9.4,0.1-13-0.3c-3.6-0.3-6.6-1-9.1-2c-2.5-1-4.5-2.4-6.1-4.1
				c-1.6-1.7-2.9-3.9-3.9-6.4c-1-2.5-1.6-5-1.8-7.5c-0.2-2.5,0.2-4.8,1.1-7.1c0.9-2.2,2.3-4.3,4.4-6.2c2-1.9,4.7-3.5,8-4.8
				c6.1-2.5,11.8-2.4,17.1,0.2c5.3,2.6,9.6,8,12.9,16.1l31.8-12.9c-2.8-6.8-6.2-12.6-10.4-17.3c-4.2-4.7-8.9-8.3-14.1-10.9
				c-5.2-2.6-10.9-4.1-17.1-4.5c-6.2-0.4-12.6,0.2-19.2,2l-9-22.2l-17.6,7.1l8.9,21.9c-6.4,3.3-11.7,7.1-16.2,11.5
				c-4.4,4.4-7.8,9.1-10.2,14.2c-2.4,5.1-3.6,10.4-3.7,16c-0.1,5.6,1,11.3,3.4,17.1c2.7,6.7,6.2,12,10.5,15.9
				c4.3,3.9,9.2,6.8,14.9,8.7c5.6,1.9,12,3.1,19,3.4c7,0.4,14.6,0.4,22.8,0c4.8-0.3,8.9-0.2,12.4,0.1c3.5,0.3,6.5,1,9.1,2
				c2.6,1,4.7,2.5,6.4,4.3c1.7,1.9,3.1,4.2,4.3,7.1c1,2.5,1.5,5,1.5,7.5c0,2.5-0.6,4.9-1.7,7.2c-1.1,2.3-2.8,4.4-5.1,6.3
				c-2.2,1.9-5.1,3.6-8.5,5c-3,1.2-6.1,2-9.3,2.4c-3.2,0.4-6.4,0.1-9.4-0.9c-3.1-1-5.9-2.9-8.6-5.6c-2.7-2.7-5-6.4-7-11.3
				l-31.8,12.9c3.3,8.2,7.5,14.7,12.5,19.4c5,4.8,10.5,8.2,16.5,10.3c6,2.1,12.2,3,18.7,2.7c6.5-0.3,12.9-1.3,19.3-3.2l8.2,20.2
				l17.5-7.1l-8.3-20.3c6.4-3.3,11.8-7.1,16.3-11.4c4.2-4,7.5-8.3,9.9-12.9c0.2-0.4,0.4-0.7,0.6-1.1c2.4-5,3.7-10.3,3.8-16
				C1195.6,1704.3,1194.5,1698.5,1192,1692.5z"/>
		</g>
	</g>
</g>
<g>
	<g>
		<path class="st11" d="M978.1,901.3c-2,2.4-2.3,5-1.2,7.8c0,0,0,0,0,0c1.9,5.2,8.1,10.9,15.3,16.6c0.9,0.7,1.7,1.4,2.5,2
			c0.2,0.2,0.4,0.3,0.6,0.5c0.1,0.1,0.3,0.3,0.4,0.4c6.7,6.1,4.2,7.6,16.3,20c13.8,14.2,23.2,14.4,25.9,13c2.3-1.1-2.4-8.7-7.6-17.1
			c-0.3-0.4-0.5-0.8-0.8-1.2c-0.7-1.1-1.4-2.3-2.1-3.4c-6.1-10.2-4.6-15-3.2-30.2c1.1-12.4,18.8-69.3,18.8-69.3l-26.3-4.3
			c0,0-7.6,45.2-16.3,52.3c-4.6,3.7-9.9,3.8-14.3,6.6c-0.3,0.2-0.6,0.4-0.9,0.6C982.7,897.2,980.1,898.9,978.1,901.3z"/>
		<path class="st10" d="M978.1,901.3c-2,2.4-2.3,5-1.2,7.8c0,0,0,0,0,0c2.3,5.1,8.4,10.8,15.4,16.5c0.9,0.7,1.7,1.4,2.4,2.1
			c0.2,0.2,0.4,0.3,0.6,0.5c0.1,0.1,0.3,0.3,0.4,0.4c6.7,6.1,4.2,7.6,16.3,20c13.8,14.2,23.2,14.4,25.9,13c2.3-1.1-2.4-8.7-7.6-17.1
			c-2.7-1-15.1-5.9-24.6-17.8c-8.3-10.5-13.9-24-19.6-31.8c-0.3,0.2-0.6,0.4-0.9,0.6C982.7,897.2,980.1,898.9,978.1,901.3z"/>
		<path class="st11" d="M1189.8,883.4c1.7,8.1,13.2,6.7,26.1,3.4c12.9-3.2,9.8,0.5,28.2-1.6c18.4-2.2,23.9-9.1,24.4-11.8
			c0.5-2.4-8.6-3.2-18.3-4.3c-1.2-0.1-2.5-0.3-3.7-0.4c-11-1.3-19.1-8.3-29.1-14.1c-9.5-5.5-23.8-27.8-23.8-27.8l-25.2,2.2
			c0,0,13.4,20,18.5,28.7c3,5.1,2.9,11.9,2.6,17.2C1189.3,877.6,1189.2,880.5,1189.8,883.4z"/>
		<path class="st10" d="M1215.9,886.8c12.9-3.2,9.8,0.5,28.2-1.6c18.4-2.2,23.9-9.1,24.4-11.8c0.5-2.4-8.6-3.2-18.3-4.3l-0.1,0.2
			c0,0-11,7.9-26.3,8.4c-12.5,0.4-25.7-3.1-34.3-2.9c-0.2,2.9-0.3,5.8,0.3,8.6C1191.4,891.5,1203,890,1215.9,886.8z"/>
		<path class="st28" d="M1092,722.9l-23.1,63.6l-30.2,83c0,0-8.3,0.9-16.3-1.4c-7.4-2.1-15.9-7.6-15.9-7.6s7.9-88.9,23.5-140.1
			c4-13.1,8.5-23.7,13.5-29.7C1068,661.4,1092,722.9,1092,722.9z"/>
		<path class="st14" d="M1067.4,622.4c-15.5-4.9-59.4,1.8-103.6,10.8l-9.4-15.2l-95.6-6.8c0,0-31,70.1-13.5,114.5
			c2.6,6.5,18.5,9.7,18.5,9.7c0,0,56,0.6,74.4,0.5c47.5-0.3,100.3-33.4,107.1-34.8c11.2-2.3,15.9,20.1,27.3,43.6
			c11.4,23.5,106.3,103.7,106.3,103.7s14.5,0,20.5-2.2c6.4-2.5,8.8-5.6,8.8-5.6S1102.3,633.4,1067.4,622.4z"/>
		<path class="st10" d="M942.3,337.6c-7.2-4.2-14.2-4.8-18.4-4.6c-3,0.1-6.1-0.1-9.1-0.5c-36.2-4.6-57.6,48.1-58.8,64.1
			c-2.2,29.4-17.7,34-39.4,52.5c-43.6,37.2-30.4,80-6.3,95.7c14.5,9.5,39.7-0.3,39.7-0.3c0.4,0.2,69.1-39.1,103-58
			C1003.9,478.9,962.9,349.7,942.3,337.6z"/>
		<path class="st11" d="M924.3,470.8c0.2,0.1-16.7,6-28,1.1c-10.7-4.6-18.8-22-18.7-22c4.8-0.3,10.1-4.5,14-32.3l2.1,0.7l34.7,12.2
			c0,0-2.4,11.1-4,21.7C923.1,461,922.4,469.5,924.3,470.8z"/>
		<path class="st29" d="M928.4,430.4c0,0-1.5,7.8-3.5,18.9c-19.9-3.4-28.3-20.4-31.1-31.1L928.4,430.4z"/>
		<path class="st11" d="M933.6,441.4c0,0-47.4-6-43.2-35.5c4.2-29.4,0.9-50,31.3-47.5c30.4,2.6,34.7,14.7,35.7,24.8
			C958.4,393.5,946,442.2,933.6,441.4z"/>
		<path class="st10" d="M955.6,367.2c0,0-30.1,26.3-50.7,28.6c-20.6,2.3-28.4-4.3-28.4-4.3s12.1-10.2,19.3-26.5
			c2.1-4.8,6.6-8.1,11.9-8.6C922.3,355,950.2,354.2,955.6,367.2z"/>
		<path class="st10" d="M936.6,365c0,0,10.2,9.7,13.4,17c3.1,7,4.2,23.8,1.8,30.4c0,0,15.6-30.8,6.5-45.7
			C948.8,351,936.6,365,936.6,365z"/>
		<path class="st9" d="M964.7,540.2c-0.8,95.8,0.1,75.8-10.3,84.9c-2.5,2.2-9.6,3.6-18.9,4.2c-29.4,2.2-81-2.3-83-7.7
			c-6.9-18.7-2.2-24.6-8-53.3c-0.6-3.1-1.4-6.4-2.2-10c-4.9-19.7-9.5-26.4,7-58.3c15-28.9,30.6-52.3,32-51.5
			c40.2,23.5,43.3,3.5,43.3,3.5S965,493.5,964.7,540.2z"/>
		<path class="st14" d="M1068.9,786.5l-30.2,83c0,0-8.3,0.9-16.3-1.4c-7.4-2.1-15.9-7.6-15.9-7.6s7.9-88.9,23.5-140.1L1068.9,786.5z
			"/>
		<path class="st9" d="M924.4,452.1c0,0,41.2,6.7,46.2,24.4c5,17.7,34.1,121.7,34.1,121.7s-20.9,3.9-30.6-5.7
			c-9.7-9.6-34.3-89.5-34.3-89.5L924.4,452.1z"/>
		<path class="st30" d="M935.4,629.4c-29.4,2.2-81-2.3-83-7.7c-6.9-18.7-2.2-24.6-8-53.3l13.9-40c0,0-2,44.4,11.2,56
			c13.2,11.6,53.8,22.2,60.2,31.9C932.8,620.9,934.8,625.6,935.4,629.4z"/>
		<path class="st11" d="M901.7,610.9c0,0,28.9-6.7,33.6-4.1c4.7,2.5,16.2,11.8,17.6,15.1c1.5,3.2-10.4-2.4-14.3-3.4
			c-2.5-0.7-9,1.7-12.3,2.8c-13.6,4.7-22,2.4-22,2.4L901.7,610.9z"/>
		<path class="st9" d="M881.1,448.6c0,0-38.9,2.7-52.2,21.6c-18.8,26.6-55.6,139.6-33.9,154.4c24.4,16.8,110.5,3.6,110.5,3.6
			s2.8-13.4-1.3-19.9c-4-6.5-69-16.5-72-19.5c-3-3,37-58.6,37-67.6C869.1,512.3,881.1,448.6,881.1,448.6z"/>
		<path class="st11" d="M936.7,614.9c0,0,6.1,7.8,8.1,8.7c2,0.9,3.3,0.7,3.3,0.7l-4.1-7.3L936.7,614.9z"/>
		<path class="st11" d="M935.3,606.8l17.7,8.4c0,0-0.7,1.2-2.9,1.2c-2.2-0.1-7.7-2.1-7.7-2.1L935.3,606.8z"/>
	</g>
	<g>
		<g>
			<polygon class="st10" points="941.1,636.2 1080.7,635.2 1122,530.5 982.6,531.5 			"/>
			<polygon class="st10" points="1082.4,631.2 897.9,632.5 898,636.5 1080.7,635.2 			"/>
		</g>
		<path class="st0" d="M1045.1,583.3c1-3.7-1.1-6.6-4.8-6.6c-3.7,0-7.5,3-8.5,6.7c-1,3.7,1.1,6.6,4.8,6.6
			C1040.3,589.9,1044.1,586.9,1045.1,583.3z"/>
	</g>
</g>
<g>
	<path class="st31" d="M2202.3,970c-17.7-5.9-29.9,1.5-29.9,1.5c-50.9,2.1-52.8,54.3-46.8,73.7c8.4,27.3-21.3,48.8,11.6,59.8
		c38.2,12.8,70.3-7.4,68.1-0.8C2326.2,1113.8,2242.5,983.4,2202.3,970z"/>
	<path class="st7" d="M2149.5,1223.8c0,0-4.8,9.6-13.6,20.6c-10.6,13.2-66.1-18.2-61.3-20.6c4.8-2.4,31.8-79.1,43.3-92.7
		c10.6-12.6,25.3-15.5,25.3-15.5L2149.5,1223.8z"/>
	<path class="st32" d="M2336.8,1765.9c0,0,15.3,14,12.3,23.9c-3,9.9-16.8,16.6-18.7,28.7c-1.9,12.1-9.3,18.8-16.1,18.8
		s-32.1,0-32.1,0s-5-8.5,7-11.1c12-2.6,16.5-16.8,15.7-30.1c-0.7-13.2,1.1-30.9,1.1-30.9l25.4-5.9L2336.8,1765.9z"/>
	<path class="st32" d="M2207.1,1771.8c0,0,5.5,59.2-1.2,62.6l-86.1-0.2c0,0,0-9.9,13.8-12.1c13.8-2.2,38.1-10.3,42.2-28.3
		C2180,1775.7,2207.1,1771.8,2207.1,1771.8z"/>
	<path class="st7" d="M2273.4,1183.9c0,0,1.3,18.1,0,39.8c-0.9,14.4-15.4,33.7-17.5,38.4c-5.2,12-11,13.9-11,13.9l-45.2,11.1
		l-15.9,3.9l-50.1-15c0,0-22.8-63.7-13.7-99.6c9.2-35.9,23.2-60.8,23.2-60.8s34.1-7.7,94.2-3.4L2273.4,1183.9z"/>
	<path class="st33" d="M2277.7,1224.2c-0.9,14.4-19.7,33.2-21.8,37.9c-5.2,12-11,13.9-11,13.9l-45.2,11.1l-12.1-17
		c0,0,73.2-20.4,59.3-84.9L2277.7,1224.2z"/>
	<path class="st28" d="M2136.8,1285.7c0,0-24.8,77.3-26.4,103.6c-1.6,26.3,47.4,373.7,49.4,385.8c1.9,11.4,16,18.7,16,18.7
		s6.5,3.8,15.8,1.2c12.9-3.6,17-8,17-8s19.3-247.7,7.4-336.2c-12-88.5-12.1-165-12.1-165H2136.8z"/>
	<path class="st14" d="M2242,1283.4c0,0,37.9,50.8,41.4,85.1s5.5,155,13.1,188.4c7.5,33.5,35.1,97.9,35.1,202.3c0,0-2.9,6-11.7,9.2
		c-2.8,1-6.6,2-10.3,2.9c-7.3,1.7-14.8-1.9-18.2-8.6c-18.7-37.6-78.2-158.9-81.2-184.1c-2.2-17.8-20.9-135.7-61.9-204.9
		c-9.8-16.6,6-82.7,6-82.7L2242,1283.4z"/>
	<path class="st33" d="M2132.9,1273.7c0,0,10,7.9,29.8,8.3c23.6,0.5,82.2-6,82.2-6s2.6,7.3,2.5,15c0,0-71.6,18-113,2.6
		C2134.3,1293.6,2129,1283.5,2132.9,1273.7z"/>
	<g>
		<path class="st15" d="M2157,1302.4c-5.9,0-10.8-5.5-10.8-12.2c0-6.7,4.8-12.2,10.8-12.2c5.9,0,10.8,5.5,10.8,12.2
			C2167.7,1296.9,2162.9,1302.4,2157,1302.4z M2157,1281.6c-4,0-7.2,3.9-7.2,8.6c0,4.8,3.2,8.6,7.2,8.6c4,0,7.2-3.9,7.2-8.6
			C2164.2,1285.4,2160.9,1281.6,2157,1281.6z"/>
	</g>
	<polygon class="st34" points="2208.7,1324.6 2101.1,1325.6 2048.2,1201.3 2155.7,1200.2 	"/>
	<path class="st11" d="M2194.6,1268.4l-7.9-9.7c0,0-5.3-4.8-9.2-5.6c-3.9-0.8-12-5.5-12.8-4.2c-0.8,1.3,6.3,10.8,6.3,10.8l0.4,0.1
		c-8.1,6.1-28.6,0.7-31.1,3.2c-3.1,3,4.2,9.5,8.1,13.2c3.9,3.7,15.1,9.8,23.8,7.1c6.4-2,16.4-4,16.4-4L2194.6,1268.4z"/>
	<path class="st11" d="M2056.3,1223.1c0,0,6.8-7.7,11.1-4c4.3,3.7-1.1,21.8-5.2,20C2058,1237.3,2053.9,1225.4,2056.3,1223.1z"/>
	<path class="st7" d="M2237.3,1112.2c0,0,35.9,2.5,49.6,35.9c13.7,33.4,39,88.4,33.6,111.5c-2.2,9.2-28.3,41-137.3,20.8
		c0,0,0.9-11.4,8.2-16.7c0,0,76.8-24.6,76.6-29.6c-0.2-9.3-10.4-17.3-53.3-60.2C2203.2,1162.3,2237.3,1112.2,2237.3,1112.2z"/>
	<path class="st11" d="M2213.6,1113.9c1.1-1.4-0.3-5.9-2-14.4c-1.5-7.6-4.1-19.4-4.1-32.7l-2.3,0.4l-38.2,6.4c0,0,0.9,10.2,0.9,19.8
		c0,0.1,0,0.2,0,0.2c0,8.3-2.3,21,0.6,22.6C2183,1124.7,2209.5,1119.3,2213.6,1113.9z"/>
	<path class="st35" d="M2167.1,1073.6c0,0,0.8,14.4,0.8,24c21.4-0.5,32.7-21.2,37.4-30.4L2167.1,1073.6z"/>
	<path class="st11" d="M2164.8,1090.8c0,0,50-7.1,45.1-38.2c-4.9-31.1-1.8-52.9-33.9-49.7c-32.1,3.2-36.5,16.1-37.3,26.8
		C2137.8,1040.5,2151.7,1091.8,2164.8,1090.8z"/>
	<path class="st31" d="M2153.2,1005.7c0,0,19.5,34.3,41.3,36.3c21.8,2.1,30-5,30-5s-18.1-10.2-25-32
		C2199.5,1005,2160.7,986.7,2153.2,1005.7z"/>
	<path class="st31" d="M2157,1008.1c0,0-9.5,5.4-12.5,13.5c-2.9,7.9-4.9,18-2.2,29.6c0,0-14.2-23.1-4.9-39
		C2147.3,995.4,2157,1008.1,2157,1008.1z"/>
</g>
<g>
	<path class="st0" d="M1322,772.6c2.6-0.4,6.5-0.7,10.5-0.7c5.5,0,9.2,0.8,11.8,2.6c2.1,1.5,3.3,3.8,3.3,6.6c0,4.2-3.3,7.1-6.9,8.2
		v0.1c2.7,0.9,4.4,3.2,5.3,6.3c1.2,4.1,2.2,7.9,3,9.2h-7.2c-0.6-1-1.5-3.7-2.5-7.7c-1.1-4.3-2.9-5.6-6.8-5.7h-3.5v13.5h-6.9V772.6z
		 M1328.9,787.1h4.1c4.7,0,7.6-2.1,7.6-5.4c0-3.6-2.9-5.3-7.5-5.3c-2.2,0-3.6,0.1-4.3,0.3V787.1z"/>
	<path class="st0" d="M1375.5,790.4h-14.4v9.6h16.1v4.9h-23v-32.8h22.2v4.9h-15.2v8.5h14.4V790.4z"/>
	<path class="st0" d="M1383.3,772.6c2.5-0.4,5.9-0.7,10.6-0.7c5.1,0,8.8,0.9,11.3,2.7c2.3,1.6,3.7,4.2,3.7,7.3
		c0,3.1-1.1,5.7-3.3,7.4c-2.8,2.4-7.1,3.5-12,3.5c-1.3,0-2.5,0-3.4-0.2v12.4h-6.9V772.6z M1390.2,787.9c0.8,0.2,2,0.2,3.4,0.2
		c5.2,0,8.4-2.2,8.4-6c0-3.7-2.9-5.6-7.7-5.6c-1.9,0-3.3,0.1-4,0.3V787.9z"/>
	<path class="st0" d="M1448.8,788.2c0,11-7.7,17.3-18.3,17.3c-10.7,0-17.5-7.1-17.5-16.7c0-10.1,7.4-17.2,18.1-17.2
		C1442.2,771.6,1448.8,778.9,1448.8,788.2z M1420.3,788.7c0,6.7,3.9,12,10.6,12c6.7,0,10.5-5.4,10.5-12.2c0-6.2-3.6-12-10.5-12
		C1424,776.4,1420.3,781.9,1420.3,788.7z"/>
	<path class="st0" d="M1454.7,772.6c2.6-0.4,6.5-0.7,10.5-0.7c5.5,0,9.2,0.8,11.8,2.6c2.1,1.5,3.3,3.8,3.3,6.6
		c0,4.2-3.3,7.1-6.9,8.2v0.1c2.7,0.9,4.4,3.2,5.3,6.3c1.2,4.1,2.2,7.9,3,9.2h-7.2c-0.6-1-1.5-3.7-2.5-7.7c-1.1-4.3-2.9-5.6-6.8-5.7
		h-3.5v13.5h-6.9V772.6z M1461.6,787.1h4.1c4.7,0,7.6-2.1,7.6-5.4c0-3.6-2.9-5.3-7.5-5.3c-2.2,0-3.6,0.1-4.3,0.3V787.1z"/>
	<path class="st0" d="M1494.5,777.1h-10.9v-5h28.8v5h-11v27.8h-7V777.1z"/>
</g>
<g>
</g>
<g>
</g>
<g>
</g>
<g>
</g>
<g>
</g>
<g>
</g>
</svg>
