<?xml version="1.0" encoding="utf-8"?>
<!-- Generator: Adobe Illustrator 23.0.5, SVG Export Plug-In . SVG Version: 6.00 Build 0)  -->
<svg version="1.1" xmlns="http://www.w3.org/2000/svg" xmlns:xlink="http://www.w3.org/1999/xlink" x="0px" y="0px"
	 viewBox="0 0 455.2 409.7" style="enable-background:new 0 0 455.2 409.7;" xml:space="preserve">
<style type="text/css">
	.st0{fill:#EBEBEB;}
	.st1{fill:none;stroke:#263238;stroke-width:3;stroke-miterlimit:10;}
	.st2{fill:#E0E0E0;}
	.st3{fill:#FFFFFF;}
	.st4{display:none;}
	.st5{display:inline;}
	.st6{fill:#407BFF;}
	.st7{opacity:0.9;fill:#FFFFFF;}
	.st8{fill:#F5F5F5;}
	.st9{fill:none;stroke:#263238;stroke-width:2;stroke-miterlimit:10;}
	.st10{fill:#263238;}
	.st11{opacity:0.2;fill:#FFFFFF;}
	.st12{opacity:0.3;}
	.st13{opacity:0.6;fill:#FFFFFF;}
	.st14{opacity:0.2;}
	.st15{opacity:0.5;fill:#FFFFFF;}
	.st16{opacity:0.1;}
	.st17{opacity:0.8;fill:#FFFFFF;}
	.st18{opacity:0.4;fill:#FFFFFF;}
	.st19{opacity:0.1;fill:#FFFFFF;}
	.st20{opacity:0.7;}
	.st21{fill:#FAB27B;}
	.st22{opacity:0.4;}
	.st23{fill:#2A4A78;}
	.st24{opacity:0.2;fill:#2A4A78;}
	.st25{opacity:0.1;fill:#2A4A78;}
	.st26{fill:#ED893E;}
	.st27{opacity:0.7;fill:#FFFFFF;}
	.st28{opacity:0.3;fill:#FFFFFF;}
</style>
<g id="Background_Complete">
	<rect x="399.4" y="366.7" class="st0" width="33.1" height="0.3"/>
	<rect x="305.1" y="369.4" class="st0" width="8.7" height="0.3"/>
	<rect x="379.2" y="357.4" class="st0" width="19.2" height="0.3"/>
	<rect x="35" y="359.1" class="st0" width="43.2" height="0.3"/>
	<rect x="87.1" y="359.1" class="st0" width="6.3" height="0.3"/>
	<rect x="114" y="363.3" class="st0" width="93.7" height="0.3"/>
	<path class="st0" d="M219.6,306H26.5c-3.1,0-5.7-2.6-5.7-5.7V28.8c0-3.1,2.6-5.7,5.7-5.7h193.1c3.1,0,5.7,2.6,5.7,5.7v271.4
		C225.3,303.4,222.7,306,219.6,306z M26.5,23.4c-3,0-5.5,2.4-5.5,5.5v271.4c0,3,2.4,5.5,5.5,5.5h193.1c3,0,5.5-2.4,5.5-5.5V28.8
		c0-3-2.4-5.5-5.5-5.5H26.5z"/>
	<path class="st0" d="M435.9,306H242.8c-3.1,0-5.7-2.6-5.7-5.7V28.8c0-3.1,2.6-5.7,5.7-5.7h193.1c3.1,0,5.7,2.6,5.7,5.7v271.4
		C441.6,303.4,439,306,435.9,306z M242.8,23.4c-3,0-5.5,2.4-5.5,5.5v271.4c0,3,2.4,5.5,5.5,5.5h193.1c3,0,5.5-2.4,5.5-5.5V28.8
		c0-3-2.4-5.5-5.5-5.5H242.8z"/>
	<g>
		<path class="st1" d="M242.1,243.2c0,2.4-1.9,4.3-4.3,4.3c-2.4,0-4.3-1.9-4.3-4.3c0-2.4,1.9-4.3,4.3-4.3
			C240.2,238.9,242.1,240.8,242.1,243.2z"/>
		<line class="st1" x1="240.7" y1="246.3" x2="247.6" y2="253.2"/>
	</g>
	<g>
		<ellipse transform="matrix(0.1602 -0.9871 0.9871 0.1602 263.4219 454.1245)" class="st2" cx="398.6" cy="72.3" rx="30" ry="30"/>
		<g>
			<g>
				<path class="st3" d="M398.7,102.9c-16.9,0-30.7-13.8-30.7-30.7c0-16.9,13.8-30.7,30.7-30.7v1.3c-16.2,0-29.3,13.1-29.3,29.3
					c0,16.2,13.1,29.3,29.3,29.3V102.9z"/>
			</g>
			<g>
				<g>
					<g>
						<path class="st3" d="M398.7,102.9v-1.3c16.2,0,29.3-13.1,29.3-29.3c0-16.2-13.1-29.3-29.3-29.3v-1.3
							c16.9,0,30.7,13.8,30.7,30.7C429.3,89.2,415.6,102.9,398.7,102.9z"/>
					</g>
					<g>
						<g>
							<path class="st3" d="M414.3,72.3H413c0-9.9-5-23.2-14.7-29.4l0.7-1.1C409.1,48.2,414.3,62,414.3,72.3z"/>
						</g>
						<g>
							<path class="st3" d="M399,101.9l-0.7-1.1c9.6-6.2,14.7-19.5,14.7-29.4h1.3C414.3,81.6,409.1,95.4,399,101.9z"/>
						</g>
					</g>
					<g>
						<g>
							<path class="st3" d="M384.4,72.2H383c0-10.3,5.3-24.1,15.3-30.6l0.7,1.1C389.4,49,384.4,62.3,384.4,72.2z"/>
						</g>
						<g>
							<path class="st3" d="M398.3,101.9c-10-6.4-15.3-20.2-15.3-30.5h1.3c0,9.9,5,23.2,14.7,29.4L398.3,101.9z"/>
						</g>
					</g>
					<g>
						<rect x="398" y="42.3" class="st3" width="1.3" height="60"/>
					</g>
				</g>
			</g>
			<g>
				<g>
					<rect x="373.3" y="55.6" class="st3" width="50.8" height="1.3"/>
				</g>
				<g>
					<rect x="368.7" y="72.1" class="st3" width="59.9" height="1.3"/>
				</g>
				<g>
					<rect x="374" y="88.6" class="st3" width="49.4" height="1.3"/>
				</g>
			</g>
		</g>
	</g>
	<g>
		<g>
			<path class="st2" d="M78.2,61.2c0-2.1-0.3-4.1-0.9-6l5.2-4.6l-3.3-5.7l-6.6,2.2c-2.7-2.9-6.3-5-10.3-6L61,34.4h-6.6L53,41.2
				c-4,0.9-7.6,3-10.3,6l-6.6-2.2l-3.3,5.7l5.2,4.6c-0.6,1.9-0.9,3.9-0.9,6c0,2.1,0.3,4.1,0.9,6l-5.2,4.6l3.3,5.7l6.6-2.2
				c2.7,2.9,6.3,5,10.3,6l1.4,6.8H61l1.4-6.8c4-0.9,7.6-3.1,10.3-6l6.6,2.2l3.3-5.7l-5.2-4.6C77.9,65.3,78.2,63.3,78.2,61.2z
				 M57.7,72.2c-5.9,0-10.7-4.8-10.7-10.7c0-5.9,4.8-10.7,10.7-10.7c5.9,0,10.7,4.8,10.7,10.7C68.3,67.5,63.6,72.2,57.7,72.2z"/>
		</g>
		<g>
			<path class="st2" d="M106.4,89.5c0-1.6-0.2-3.1-0.7-4.5l4-3.5l-2.5-4.3l-5,1.7c-2.1-2.2-4.8-3.8-7.8-4.5l-1-5.2h-5l-1,5.2
				c-3.1,0.7-5.8,2.3-7.9,4.5l-5-1.7l-2.5,4.3l4,3.5c-0.4,1.4-0.7,3-0.7,4.5c0,1.6,0.2,3.1,0.7,4.5l-4,3.5l2.5,4.3l5-1.7
				c2.1,2.2,4.8,3.8,7.9,4.5l1,5.2h5l1-5.2c3.1-0.7,5.8-2.3,7.8-4.5l5,1.7l2.5-4.3l-4-3.5C106.1,92.6,106.4,91.1,106.4,89.5z
				 M90.7,97.9c-4.5,0-8.1-3.6-8.1-8.1c0-4.5,3.6-8.1,8.1-8.1s8.1,3.6,8.1,8.1C98.9,94.3,95.2,97.9,90.7,97.9z"/>
		</g>
	</g>
	<g>
		<polygon class="st0" points="181.2,63.7 183.8,58.3 186.5,63.7 192.4,64.6 188.1,68.8 189.2,74.7 183.8,71.9 178.5,74.7 
			179.5,68.8 175.3,64.6 		"/>
		<polygon class="st0" points="205.4,63.7 208,58.3 210.7,63.7 216.6,64.6 212.3,68.8 213.3,74.7 208,71.9 202.7,74.7 203.7,68.8 
			199.4,64.6 		"/>
		<polygon class="st0" points="229.5,63.7 232.2,58.3 234.8,63.7 240.8,64.6 236.5,68.8 237.5,74.7 232.2,71.9 226.9,74.7 
			227.9,68.8 223.6,64.6 		"/>
		<polygon class="st0" points="253.7,63.7 256.3,58.3 259,63.7 264.9,64.6 260.6,68.8 261.7,74.7 256.3,71.9 251,74.7 252,68.8 
			247.7,64.6 		"/>
		<polygon class="st0" points="277.9,63.7 280.5,58.3 283.2,63.7 289.1,64.6 284.8,68.8 285.8,74.7 280.5,71.9 275.2,74.7 
			276.2,68.8 271.9,64.6 		"/>
	</g>
</g>
<g id="Background_Simple" class="st4">
	<g class="st5">
		<path class="st6" d="M211,143.9c-17.9,3.3-49.3-23.5-65.6-31.6c-41.1-20.5-95.8-13.6-105.1,48.3
			c-12.7,84.5,89.7,203.4,227.9,188.2c69.8-7.6,136.7-57.6,153.1-131.8C451.2,82.2,324.5,49.2,276.8,74
			C232.1,97.3,234.6,139.6,211,143.9z"/>
		<path class="st7" d="M211,143.9c-17.9,3.3-49.3-23.5-65.6-31.6c-41.1-20.5-95.8-13.6-105.1,48.3
			c-12.7,84.5,89.7,203.4,227.9,188.2c69.8-7.6,136.7-57.6,153.1-131.8C451.2,82.2,324.5,49.2,276.8,74
			C232.1,97.3,234.6,139.6,211,143.9z"/>
	</g>
</g>
<g id="Shadow">
	<ellipse id="_x3C_Path_x3E__1_" class="st8" cx="227.8" cy="380.6" rx="193.9" ry="11.3"/>
</g>
<g id="Device">
	<path class="st9" d="M310.8,318.2"/>
	<g>
		<g>
			<g>
				<g>
					<path class="st10" d="M162.2,370.6l-0.2,2.3c0,0.3,0,0.6,0.1,0.8c0,0,0,0,0,0c0,0.1,0.1,0.2,0.2,0.4c0.1,0.1,0.1,0.2,0.2,0.3
						c0.1,0.1,0.2,0.2,0.3,0.3c0.3,0.2,0.7,0.4,1.2,0.4h82.4c0.2,0,0.4,0,0.6-0.1c0.1,0,0.3-0.1,0.4-0.2c0.3-0.1,0.6-0.4,0.8-0.6
						c0.1-0.1,0.1-0.2,0.2-0.3c0.1-0.2,0.2-0.5,0.2-0.8l0.2-2.2c0-0.3,0-0.5-0.1-0.8c0-0.1-0.1-0.2-0.2-0.3
						c-0.2-0.3-0.4-0.5-0.6-0.6c-0.1-0.1-0.2-0.1-0.3-0.2c-0.2-0.1-0.4-0.1-0.6-0.1h-20.5c-0.3,0-0.5,0-0.8-0.1h0
						c-0.1,0-0.2,0-0.3-0.1c0,0,0,0,0,0c0,0,0,0,0,0c-0.1,0-0.2-0.1-0.3-0.1c-0.1,0-0.2-0.1-0.3-0.1c-0.1-0.1-0.3-0.2-0.4-0.3
						c-0.2-0.1-0.3-0.3-0.4-0.4c-0.1-0.1-0.1-0.2-0.2-0.3c-0.1-0.1-0.1-0.1-0.1-0.2c0,0,0-0.1,0-0.1c0,0,0,0,0,0
						c-0.1-0.1-0.1-0.2-0.1-0.3c0-0.1-0.1-0.2-0.1-0.3c0,0,0,0,0-0.1c0,0,0-0.1,0-0.1c0,0,0,0,0,0c0-0.1,0-0.2-0.1-0.2
						c0-0.1,0-0.2-0.1-0.3c0,0,0,0,0,0c0-0.1,0-0.2,0-0.3c0-0.1,0-0.2,0-0.3l0-0.1c0-0.1,0-0.2,0-0.3c0-0.1,0-0.2,0.1-0.3l0,0
						l8.1-30.9l1.5-5.9l1.2-4.7h-46.8l-2.5,4.7l-3.2,5.9l-18.2,33.7c-0.1,0.1-0.1,0.2-0.2,0.4c0,0,0,0,0,0c-0.1,0.1-0.1,0.3-0.2,0.4
						c-0.1,0.1-0.1,0.3-0.2,0.4c0,0.1-0.1,0.2-0.1,0.3C162.4,369.4,162.3,370,162.2,370.6z"/>
					<path class="st11" d="M248.7,370.9l-0.2,2.2c-0.1,1.1-1.1,2-2.2,2H164c-1.2,0-2.1-1-2-2.2l0.2-2.3c0.1-0.6,0.2-1.2,0.4-1.8
						c0.2-0.5,0.4-1,0.6-1.5l23.9-44.3h46.8l-10.8,41.5c-0.1,0.3-0.1,0.5-0.1,0.7c-0.1,1.7,1,3.2,2.7,3.6c0.2,0.1,0.5,0.1,0.8,0.1
						h20.5C248,368.9,248.8,369.8,248.7,370.9z"/>
					<g>
						<g>
							<path class="st10" d="M160.6,367.3l23.9-44.3h2.6l-23.9,44.3c-0.6,1-0.9,2.2-1,3.3l-0.2,2.3c-0.1,1.2,0.8,2.2,2,2.2h-2.6
								c-1.2,0-2.1-1-2-2.2l0.2-2.3C159.7,369.5,160,368.3,160.6,367.3z"/>
						</g>
					</g>
					<polygon class="st12" points="187.2,323 233.9,323 231.2,333.6 181.4,333.6 					"/>
				</g>
				<g>
					<g>
						<g>
							<path class="st10" d="M107.8,176.1l0,128.7v15.6c0,4,3.3,7.3,7.3,7.3h199.7c4,0,7.3-3.3,7.3-7.3l0-15.6l0-128.7
								c0-4-3.3-7.3-7.3-7.3H115.1c-1.7,0-3.2,0.6-4.4,1.5c-0.2,0.1-0.4,0.3-0.5,0.4c-0.5,0.4-0.9,1-1.3,1.5
								c-0.2,0.4-0.4,0.8-0.6,1.2C107.9,174.2,107.8,175.1,107.8,176.1z"/>
						</g>
						<path class="st6" d="M322,304.7l0,15.6c0,4-3.3,7.3-7.3,7.3H115.1c-4,0-7.3-3.3-7.3-7.3v-15.6H322z"/>
						<path class="st13" d="M322,304.7l0,15.6c0,4-3.3,7.3-7.3,7.3H115.1c-4,0-7.3-3.3-7.3-7.3v-15.6H322z"/>
					</g>
					<path class="st6" d="M115.2,300.3h199.4c2.2,0,4-1.8,4-4l0-119.2c0-2.2-1.8-4-4-4H115.2c-2.2,0-4,1.8-4,4v119.2
						C111.2,298.5,113,300.3,115.2,300.3z"/>
					<g>
						<path class="st10" d="M110.6,168.8h4.4c-4,0-7.3,3.3-7.3,7.3l0,144.3c0,4,3.3,7.3,7.3,7.3h-4.4c-4,0-7.3-3.3-7.3-7.3V176.1
							C103.3,172,106.6,168.8,110.6,168.8z"/>
					</g>
					<g class="st14">
						<path class="st3" d="M110.6,168.8h4.4c-4,0-7.3,3.3-7.3,7.3l0,144.3c0,4,3.3,7.3,7.3,7.3h-4.4c-4,0-7.3-3.3-7.3-7.3V176.1
							C103.3,172,106.6,168.8,110.6,168.8z"/>
					</g>
					<path class="st15" d="M319.7,249.1c-5.1-1-13.3,2.3-14.8,7.3c0.4-3-1.2-6.2-3.9-7.8c-2.6-1.5-6.1-2.6-8.6-0.8
						c2.4-9.8-1.2-20.8-9.1-27.1c-7.8-6.3-19.2-7-28.3-2.6c2.7-5.1,2.9-11.4,0.6-16.7c-2.3-5.3-6.5-8.8-11.9-10.7
						c-12.5-4.4-26.1-5.7-39.2-3.7c-7.6,1.1-15.4,3.5-20.9,8.8s-7,15-3.3,21.7c-8.5-2.9-18.6-0.5-24.9,5.9
						c-6.3,6.4-8.4,16.3-5.4,24.8c-2.3-1.4-5.4-1.5-7.8-0.3c-2.4,1.2-4.1,3.7-4.4,6.4c-3.2-4.2-8.5-6.7-13.7-6.5
						c-5.3,0.2-10.4,3-13.3,7.5v44.9h207.5L319.7,249.1z"/>
					<path class="st3" d="M273.5,249.1H166.6c-5.4,0-9.8-4.4-9.8-9.8v0c0-5.4,4.4-9.8,9.8-9.8h106.9c5.4,0,9.8,4.4,9.8,9.8v0
						C283.3,244.7,278.9,249.1,273.5,249.1z"/>
					<g>
						<path class="st1" d="M170.3,237.2c0,2.4-1.9,4.3-4.3,4.3c-2.4,0-4.3-1.9-4.3-4.3c0-2.4,1.9-4.3,4.3-4.3
							C168.4,232.9,170.3,234.8,170.3,237.2z"/>
						<line class="st1" x1="168.9" y1="240.3" x2="175.8" y2="247.2"/>
					</g>
					<g class="st16">
						<polygon class="st3" points="251,173.2 258.7,173.2 274.6,300.3 266.9,300.3 						"/>
						<polygon class="st3" points="282.4,300.3 266.5,173.2 295.3,173.2 311.2,300.3 						"/>
					</g>
				</g>
			</g>
			<path class="st11" d="M176.4,370.9l-0.2,2.1c-0.1,1.1,0.7,2.1,1.9,2.1h68.2c1.1,0,2.1-0.9,2.2-2l0.2-2.2c0.1-1.1-0.7-2-1.8-2
				h-20.5c-0.3,0-0.5,0-0.8-0.1h-47C177.6,368.8,176.5,369.7,176.4,370.9z"/>
			<path class="st14" d="M162.6,368.8h63.1c-1.7-0.3-2.8-1.8-2.7-3.6h-58.5L162.6,368.8z"/>
		</g>
		<g>
			<path class="st10" d="M194.8,217.6l1.4-3.1c1.5,1.1,3.7,1.8,5.8,1.8c2.4,0,3.4-0.8,3.4-1.9c0-3.3-10.2-1-10.2-7.6
				c0-3,2.4-5.5,7.4-5.5c2.2,0,4.5,0.5,6.1,1.6l-1.3,3.1c-1.6-0.9-3.3-1.4-4.9-1.4c-2.4,0-3.3,0.9-3.3,2c0,3.2,10.2,1,10.2,7.5
				c0,2.9-2.4,5.5-7.5,5.5C199.2,219.6,196.4,218.8,194.8,217.6z"/>
			<path class="st10" d="M225.9,216v3.3h-13.6v-17.6h13.3v3.3h-9.2v3.8h8.2v3.2h-8.2v4.1H225.9z"/>
			<path class="st10" d="M228,210.5c0-5.2,4.1-9.1,9.6-9.1c5.5,0,9.6,3.8,9.6,9.1c0,5.3-4.1,9.1-9.6,9.1
				C232,219.6,228,215.7,228,210.5z M243.1,210.5c0-3.3-2.4-5.6-5.5-5.6c-3.1,0-5.5,2.3-5.5,5.6c0,3.3,2.4,5.6,5.5,5.6
				C240.7,216.1,243.1,213.8,243.1,210.5z"/>
		</g>
		<g>
			<path class="st17" d="M214.8,278.6h-42.2c-2.1,0-3.9-1.7-3.9-3.9v-8.9c0-2.1,1.7-3.9,3.9-3.9h42.2c2.1,0,3.9,1.7,3.9,3.9v8.9
				C218.6,276.9,216.9,278.6,214.8,278.6z"/>
			<path class="st17" d="M276,278.6h-42.2c-2.1,0-3.9-1.7-3.9-3.9v-8.9c0-2.1,1.7-3.9,3.9-3.9H276c2.1,0,3.9,1.7,3.9,3.9v8.9
				C279.8,276.9,278.1,278.6,276,278.6z"/>
		</g>
		<g>
			<g>
				<g>
					<path class="st6" d="M192.5,178.8l24.8-44c0.4-0.7,1.4-0.7,1.7,0l24.8,44c0.4,0.7-0.1,1.5-0.9,1.5h-49.6
						C192.6,180.3,192.1,179.5,192.5,178.8z"/>
					<path class="st12" d="M192.5,178.8l24.8-44c0.4-0.7,1.4-0.7,1.7,0l24.8,44c0.4,0.7-0.1,1.5-0.9,1.5h-49.6
						C192.6,180.3,192.1,179.5,192.5,178.8z"/>
				</g>
				<g>
					<g>
						<g>
							<path class="st10" d="M206.4,186.9l-1.2-4.9h-4.3l-1.2,4.9C201.7,187.8,204.1,187.8,206.4,186.9z"/>
							<path class="st11" d="M200.8,182c0,0-0.2,0.7-0.3,1.2c1.6,0.5,3.3,0.5,4.9,0l-0.3-1.2H200.8z"/>
							<path class="st18" d="M200.2,184.4c-0.1,0.3-0.2,0.6-0.2,0.9c1.9,0.6,4,0.6,6,0l-0.2-0.9C203.9,184.7,202,184.7,200.2,184.4z
								"/>
						</g>
						<g>
							<path class="st6" d="M207.6,181.6c-3.1,1.3-6.3,1.2-9.2,0v-36.7c0-4.3,1.8-8.2,4.6-11.1c2.8,2.8,4.6,6.7,4.6,11.1V181.6z"/>
							<g>
								<path class="st6" d="M198.4,144.9c0,0,0,30.9,0,34.6c2.9,1,6.1,1.1,9.2,0c0-3.7,0-34.6,0-34.6c0-4.3-1.8-8.2-4.6-11.1
									C200.2,136.7,198.4,140.6,198.4,144.9z"/>
								<path class="st18" d="M198.4,144.9c0,0,0,30.9,0,34.6c2.9,1,6.1,1.1,9.2,0c0-3.7,0-34.6,0-34.6c0-4.3-1.8-8.2-4.6-11.1
									C200.2,136.7,198.4,140.6,198.4,144.9z"/>
							</g>
							<g>
								<path class="st6" d="M198.4,144.9c0,0,0,15.6,0,26c2.9,0.8,6.1,0.9,9.2,0c0-10.4,0-26,0-26c0-4.3-1.8-8.2-4.6-11.1
									C200.2,136.7,198.4,140.6,198.4,144.9z"/>
								<path class="st13" d="M198.4,144.9c0,0,0,15.6,0,26c2.9,0.8,6.1,0.9,9.2,0c0-10.4,0-26,0-26c0-4.3-1.8-8.2-4.6-11.1
									C200.2,136.7,198.4,140.6,198.4,144.9z"/>
							</g>
							<g>
								<path class="st6" d="M198.4,144.9c0,0,0,6.3,0,13.6c2.9,0.8,6.1,0.9,9.2,0c0-7.3,0-13.6,0-13.6c0-4.3-1.8-8.2-4.6-11.1
									C200.2,136.7,198.4,140.6,198.4,144.9z"/>
								<path class="st17" d="M198.4,144.9c0,0,0,6.3,0,13.6c2.9,0.8,6.1,0.9,9.2,0c0-7.3,0-13.6,0-13.6c0-4.3-1.8-8.2-4.6-11.1
									C200.2,136.7,198.4,140.6,198.4,144.9z"/>
							</g>
							<g>
								<path class="st6" d="M198.4,144.9c0,0,0,0.6,0,1.6c2.9,0.8,6.1,0.9,9.2,0c0-1,0-1.6,0-1.6c0-4.3-1.8-8.2-4.6-11.1
									C200.2,136.7,198.4,140.6,198.4,144.9z"/>
								<path class="st18" d="M198.4,144.9c0,0,0,0.6,0,1.6c2.9,0.8,6.1,0.9,9.2,0c0-1,0-1.6,0-1.6c0-4.3-1.8-8.2-4.6-11.1
									C200.2,136.7,198.4,140.6,198.4,144.9z"/>
							</g>
						</g>
					</g>
					<g>
						<g>
							<path class="st10" d="M235.8,186.9l-1.2-4.9h-4.3l-1.2,4.9C231.2,187.8,233.6,187.8,235.8,186.9z"/>
							<path class="st11" d="M230.3,182c0,0-0.2,0.7-0.3,1.2c1.6,0.5,3.3,0.5,4.9,0l-0.3-1.2H230.3z"/>
							<path class="st18" d="M229.7,184.4c-0.1,0.3-0.2,0.6-0.2,0.9c1.9,0.6,4,0.6,6,0l-0.2-0.9
								C233.4,184.7,231.5,184.7,229.7,184.4z"/>
						</g>
						<g>
							<path class="st6" d="M237.1,181.6c-3.1,1.3-6.3,1.2-9.2,0v-36.7c0-4.3,1.8-8.2,4.6-11.1c2.8,2.8,4.6,6.7,4.6,11.1V181.6z"/>
							<g>
								<path class="st6" d="M227.9,144.9c0,0,0,30.9,0,34.6c2.9,1,6.1,1.1,9.2,0c0-3.7,0-34.6,0-34.6c0-4.3-1.8-8.2-4.6-11.1
									C229.6,136.7,227.9,140.6,227.9,144.9z"/>
								<path class="st18" d="M227.9,144.9c0,0,0,30.9,0,34.6c2.9,1,6.1,1.1,9.2,0c0-3.7,0-34.6,0-34.6c0-4.3-1.8-8.2-4.6-11.1
									C229.6,136.7,227.9,140.6,227.9,144.9z"/>
							</g>
							<g>
								<path class="st6" d="M227.9,144.9c0,0,0,15.6,0,26c2.9,0.8,6.1,0.9,9.2,0c0-10.4,0-26,0-26c0-4.3-1.8-8.2-4.6-11.1
									C229.6,136.7,227.9,140.6,227.9,144.9z"/>
								<path class="st13" d="M227.9,144.9c0,0,0,15.6,0,26c2.9,0.8,6.1,0.9,9.2,0c0-10.4,0-26,0-26c0-4.3-1.8-8.2-4.6-11.1
									C229.6,136.7,227.9,140.6,227.9,144.9z"/>
							</g>
							<g>
								<path class="st6" d="M227.9,144.9c0,0,0,6.3,0,13.6c2.9,0.8,6.1,0.9,9.2,0c0-7.3,0-13.6,0-13.6c0-4.3-1.8-8.2-4.6-11.1
									C229.6,136.7,227.9,140.6,227.9,144.9z"/>
								<path class="st17" d="M227.9,144.9c0,0,0,6.3,0,13.6c2.9,0.8,6.1,0.9,9.2,0c0-7.3,0-13.6,0-13.6c0-4.3-1.8-8.2-4.6-11.1
									C229.6,136.7,227.9,140.6,227.9,144.9z"/>
							</g>
							<g>
								<path class="st6" d="M227.9,144.9c0,0,0,0.6,0,1.6c2.9,0.8,6.1,0.9,9.2,0c0-1,0-1.6,0-1.6c0-4.3-1.8-8.2-4.6-11.1
									C229.6,136.7,227.9,140.6,227.9,144.9z"/>
								<path class="st18" d="M227.9,144.9c0,0,0,0.6,0,1.6c2.9,0.8,6.1,0.9,9.2,0c0-1,0-1.6,0-1.6c0-4.3-1.8-8.2-4.6-11.1
									C229.6,136.7,227.9,140.6,227.9,144.9z"/>
							</g>
						</g>
					</g>
				</g>
				<g>
					<g>
						<path class="st10" d="M223.2,189.7l-1.9-8h-7l-1.9,8C215.7,191.1,219.5,191.2,223.2,189.7z"/>
						<path class="st11" d="M214.2,181.8c0,0-0.3,1.2-0.5,1.9c2.5,0.7,5.3,0.8,7.9,0l-0.5-1.9H214.2z"/>
						<path class="st18" d="M213.3,185.6c-0.1,0.5-0.2,1-0.4,1.5c3.1,0.9,6.4,1,9.6,0l-0.4-1.5C219.2,186.2,216.2,186.2,213.3,185.6
							z"/>
					</g>
					<g>
						<path class="st6" d="M225.1,181.2c-4.9,2-10.2,1.9-14.8,0V122c0-7,2.8-13.3,7.4-17.9c4.6,4.6,7.4,10.9,7.4,17.9L225.1,181.2z"
							/>
						<g>
							<path class="st6" d="M210.3,122c0,0,0,49.8,0,55.8c4.7,1.6,9.8,1.7,14.8,0c0-6,0-55.8,0-55.8c0-7-2.8-13.3-7.4-17.9
								C213.2,108.7,210.3,115,210.3,122z"/>
							<path class="st18" d="M210.3,122c0,0,0,49.8,0,55.8c4.7,1.6,9.8,1.7,14.8,0c0-6,0-55.8,0-55.8c0-7-2.8-13.3-7.4-17.9
								C213.2,108.7,210.3,115,210.3,122z"/>
						</g>
						<g>
							<path class="st6" d="M210.3,122c0,0,0,25.2,0,41.9c4.7,1.3,9.8,1.4,14.8,0c0-16.7,0-41.9,0-41.9c0-7-2.8-13.3-7.4-17.9
								C213.2,108.7,210.3,115,210.3,122z"/>
							<path class="st13" d="M210.3,122c0,0,0,25.2,0,41.9c4.7,1.3,9.8,1.4,14.8,0c0-16.7,0-41.9,0-41.9c0-7-2.8-13.3-7.4-17.9
								C213.2,108.7,210.3,115,210.3,122z"/>
						</g>
						<g>
							<path class="st6" d="M210.3,122c0,0,0,10.2,0,22c4.7,1.3,9.8,1.4,14.8,0c0-11.7,0-22,0-22c0-7-2.8-13.3-7.4-17.9
								C213.2,108.7,210.3,115,210.3,122z"/>
							<path class="st17" d="M210.3,122c0,0,0,10.2,0,22c4.7,1.3,9.8,1.4,14.8,0c0-11.7,0-22,0-22c0-7-2.8-13.3-7.4-17.9
								C213.2,108.7,210.3,115,210.3,122z"/>
						</g>
						<g>
							<path class="st6" d="M210.3,122c0,0,0,0.9,0,2.6c4.7,1.3,9.8,1.4,14.8,0c0-1.6,0-2.6,0-2.6c0-7-2.8-13.3-7.4-17.9
								C213.2,108.7,210.3,115,210.3,122z"/>
							<path class="st19" d="M210.3,122c0,0,0,0.9,0,2.6c4.7,1.3,9.8,1.4,14.8,0c0-1.6,0-2.6,0-2.6c0-7-2.8-13.3-7.4-17.9
								C213.2,108.7,210.3,115,210.3,122z"/>
						</g>
					</g>
					<g>
						<path class="st6" d="M222,133.8c0,2.4-1.9,4.3-4.3,4.3c-2.4,0-4.3-1.9-4.3-4.3s1.9-4.3,4.3-4.3
							C220.1,129.5,222,131.4,222,133.8z"/>
						<g>
							<path class="st6" d="M217.7,138.1c-2.3,0-4.1-1.8-4.3-4c0,0.1,0,0.2,0,0.3c0,2.4,1.9,4.3,4.3,4.3c2.4,0,4.3-1.9,4.3-4.3
								c0-0.1,0-0.2,0-0.3C221.9,136.4,220,138.1,217.7,138.1z"/>
							<path class="st12" d="M217.7,138.1c-2.3,0-4.1-1.8-4.3-4c0,0.1,0,0.2,0,0.3c0,2.4,1.9,4.3,4.3,4.3c2.4,0,4.3-1.9,4.3-4.3
								c0-0.1,0-0.2,0-0.3C221.9,136.4,220,138.1,217.7,138.1z"/>
						</g>
						<circle class="st3" cx="217.7" cy="133.8" r="3"/>
						<g>
							<g>
								<path class="st6" d="M217.6,136.8l1.2-5.9c-0.3-0.1-0.7-0.2-1-0.2l-1.2,5.9C216.9,136.7,217.2,136.8,217.6,136.8z"/>
								<path class="st6" d="M218.7,136.7l1.1-5.1c-0.1-0.1-0.3-0.2-0.5-0.3l-1.2,5.6C218.3,136.8,218.5,136.7,218.7,136.7z"/>
							</g>
							<g class="st20">
								<path class="st3" d="M217.6,136.8l1.2-5.9c-0.3-0.1-0.7-0.2-1-0.2l-1.2,5.9C216.9,136.7,217.2,136.8,217.6,136.8z"/>
								<path class="st3" d="M218.7,136.7l1.1-5.1c-0.1-0.1-0.3-0.2-0.5-0.3l-1.2,5.6C218.3,136.8,218.5,136.7,218.7,136.7z"/>
							</g>
						</g>
					</g>
				</g>
			</g>
		</g>
	</g>
</g>
<g id="Character_1_">
	<g>
		<g>
			<path class="st21" d="M328.1,249.4l-1.2,0.2c-1,0.2-1.8,1.1-2,2.1l-0.1,0.8c-0.1,0.8,0.2,1.6,0.8,2.2c1.9,1.7,6.3,4.7,11.7,2.7
				l4.3-3.2l-0.7-5.8l-9-1.3c-0.5,0-1.1,0.2-1.5,0.6L328.1,249.4z"/>
			<polygon class="st21" points="341.8,254.3 353.8,253.7 351.9,247.2 341.1,248.5 			"/>
		</g>
		<path class="st6" d="M348.9,247.2c-0.4,0.8-0.7,1.8-0.5,3c0.2,1.1,0.7,3.2,1.9,4.5l0,0c-2,0-4,0.5-5.8,1.4l-0.1,0
			c-6.2-4.3-2.6-9.3-2.6-9.3l0.4,0.1C344.5,247.4,346.7,247.4,348.9,247.2z"/>
		<g>
			<g>
				<path class="st6" d="M373.4,252.6c-11.1,2.6-24.9,2.3-24.9,2.3c-0.5-0.8-0.6-1.7-0.6-2.5c0.1-1.9,0.4-4.2,1-5.1
					c0.7-1,5.5-1.4,5.5-1.4s9.3-4.3,11-5.7c1.7-1.4,1.7-8,1.4-12.3c-1.8-23.3,2.3-25,6-26.1C380.5,199.5,383.3,250.4,373.4,252.6z"
					/>
			</g>
		</g>
	</g>
	<g>
		<g>
			<path class="st6" d="M297.3,257.6h31.1c1,0,1.5-0.8,1-1.8l-7.8-17.5c-0.4-1-1.6-1.8-2.6-1.8h-31.1c-1,0-1.5,0.8-1,1.8l7.8,17.5
				C295.1,256.8,296.2,257.6,297.3,257.6z"/>
			<path class="st14" d="M297.3,257.6h31.1c1,0,1.5-0.8,1-1.8l-7.8-17.5c-0.4-1-1.6-1.8-2.6-1.8h-31.1c-1,0-1.5,0.8-1,1.8l7.8,17.5
				C295.1,256.8,296.2,257.6,297.3,257.6z"/>
			<path class="st6" d="M286.5,236.4h1.3c-1,0-1.5,0.8-1,1.8l7.8,17.5c0.4,1,1.6,1.8,2.6,1.8h-1.3c-1,0-2.2-0.8-2.6-1.8l-7.8-17.5
				C285,237.2,285.5,236.4,286.5,236.4z"/>
			<path class="st22" d="M286.5,236.4h1.3c-1,0-1.5,0.8-1,1.8l7.8,17.5c0.4,1,1.6,1.8,2.6,1.8h-1.3c-1,0-2.2-0.8-2.6-1.8l-7.8-17.5
				C285,237.2,285.5,236.4,286.5,236.4z"/>
		</g>
		<g>
			<polygon class="st10" points="297.8,255.6 326,255.6 318.3,238.4 290.2,238.4 			"/>
			<polygon class="st17" points="297.8,255.6 326,255.6 318.3,238.4 290.2,238.4 			"/>
		</g>
	</g>
	<g>
		<g>
			<path class="st23" d="M390.4,256.2c0,0,0.8,10.3,0.9,13.9c0.7,24-18.9,25.9-33.3,23.2l-52.3-14.6c-2.1,7-26.3,45.2-26.3,45.2
				l-12.7-7.3c0,0,13.2-31.6,21.7-53.6c4.9-12.6,44.4-3.9,58.9-1.3c4.4,1.2,3.6-5.7,3.6-5.7L390.4,256.2z"/>
			<polygon class="st23" points="276.2,323.2 271.3,331.3 262.3,326.8 267,317.6 			"/>
			<g>
				<path class="st23" d="M257.4,325.1c-1.2-0.5-2.3-1.3-2.5-2c-0.1-0.4,0.1-0.8,0.5-1c0.3-0.2,0.6-0.3,1-0.2
					c1.8,0.3,4.3,3.7,4.4,3.9c0.1,0.1,0.1,0.2,0,0.3c-0.1,0.1-0.2,0.1-0.3,0.1C259.4,325.9,258.4,325.6,257.4,325.1z M256.8,322.6
					c-0.1-0.1-0.3-0.1-0.5-0.1c-0.2-0.1-0.4,0-0.6,0.1c-0.3,0.2-0.3,0.4-0.3,0.5c0.2,0.8,2.6,2,4.5,2.5
					C259.1,324.4,258,323.4,256.8,322.6z"/>
				<path class="st23" d="M260.5,326.2C260.4,326.2,260.4,326.2,260.5,326.2c-1-1.1-2.4-4.2-1.7-5.2c0.1-0.3,0.5-0.5,1.1-0.3
					c0.5,0.2,0.9,0.5,1.1,1c0.8,1.6-0.2,4.3-0.2,4.4c0,0.1-0.1,0.1-0.2,0.2C260.6,326.3,260.5,326.2,260.5,326.2z M259.9,321.2
					l-0.1-0.1c-0.4-0.2-0.5,0-0.6,0.1c-0.4,0.6,0.4,2.9,1.3,4.2c0.4-1.1,0.4-2.4,0.1-3.5C260.4,321.6,260.2,321.4,259.9,321.2
					L259.9,321.2z"/>
				<path class="st23" d="M262.1,325.3l10.5,4.8c0.4,0.2,0.6,0.6,0.5,1l-2,9.4c-0.2,0.8-1,1.4-1.8,1.2c-0.1,0-0.2-0.1-0.3-0.1
					c-3.8-1.8-7-3.5-11.7-5.7c-5.6-2.5-4.5-1.2-11-4.1c-4-1.7-2.6-6.6-0.9-6c8.1,2.5,9.9,0.6,14.1-0.8
					C260.3,324.8,261.3,324.9,262.1,325.3z"/>
			</g>
			<polygon class="st24" points="273.7,327.3 276.2,323.2 267,317.6 264.7,322 			"/>
			<path class="st23" d="M281.4,323.2l-15.8-9.8c0,0-2.5,1.4-2,4.1l15.1,9.7C278.8,327.1,280.9,327,281.4,323.2z"/>
		</g>
	</g>
	<g>
		<g>
			<g>
				<polygon class="st23" points="303,363.5 301.1,372.4 291.3,371.2 292.7,361.2 				"/>
				<g>
					<path class="st23" d="M286.4,371.1c-1.3-0.1-2.6-0.5-2.9-1.1c-0.2-0.3-0.1-0.8,0.1-1.1c0.2-0.3,0.5-0.4,0.8-0.5
						c1.8-0.3,5.1,2.1,5.3,2.2c0.1,0.1,0.1,0.2,0.1,0.3c0,0.1-0.1,0.2-0.2,0.2C288.5,371.3,287.4,371.2,286.4,371.1z M285,369
						c-0.2,0-0.3,0-0.5,0c-0.2,0-0.4,0.1-0.5,0.3c-0.2,0.3-0.2,0.4-0.1,0.5c0.4,0.7,3,1,4.9,0.9C287.6,369.9,286.3,369.3,285,369z"
						/>
					<path class="st23" d="M289.5,371.2c0,0-0.1,0-0.1,0c-1.2-0.7-3.4-3.1-3.1-4.2c0.1-0.3,0.3-0.6,1-0.6c0.5,0,1,0.2,1.3,0.5
						c1.2,1.2,1.2,4,1.2,4.1c0,0.1-0.1,0.2-0.1,0.2C289.6,371.2,289.6,371.2,289.5,371.2z M287.4,366.8l-0.1,0
						c-0.4,0-0.5,0.2-0.5,0.2c-0.1,0.7,1.3,2.6,2.5,3.5c0-1.2-0.4-2.3-1-3.3C288,366.9,287.7,366.8,287.4,366.8L287.4,366.8z"/>
					<path class="st23" d="M290.7,369.8l11.2,1.1c0.4,0,0.8,0.4,0.8,0.8l1.1,9.3c0.1,0.8-0.5,1.6-1.3,1.7c-0.1,0-0.2,0-0.3,0
						c-4-0.5-7.6-1-12.6-1.5c-5.9-0.6-4.5,0.3-11.4-0.3c-4.2-0.4-4.5-5.2-2.7-5.2c8.2-0.2,9.3-2.6,12.7-5.2
						C289,369.9,289.8,369.7,290.7,369.8z"/>
				</g>
				<polygon class="st24" points="292,366.4 302.2,367.2 303,363.5 292.7,361.2 				"/>
				<polygon class="st23" points="305.9,359.9 305.6,361 290.7,359.9 290.8,358.7 				"/>
				<path class="st23" d="M306.5,364.6l-3.7-0.3l-10.4-0.9l-3.3-0.3c-1.7-2.1-0.1-4.4-0.1-4.4l1.9,0.1l15.1,1.2l1.1,0.1
					C308.2,363.6,306.5,364.6,306.5,364.6z"/>
				<path class="st23" d="M367.1,302.3c-13.5,1.2-44.7,1.7-48.9,1.1l-12.3,56.6l-15.1-1.2c0,0,1.6-48.9,8.2-69.2
					c5.3-16.3,90.8-12.9,90.8-12.9l0.3,4.6C390.7,297,382.6,300.9,367.1,302.3z"/>
				<path class="st25" d="M367.1,302.3c-13.5,1.2-44.7,1.7-48.9,1.1l-12.3,56.6l-15.1-1.2c0,0,1.6-48.9,8.2-69.2
					c5.3-16.3,90.8-12.9,90.8-12.9l0.3,4.6C390.7,297,382.6,300.9,367.1,302.3z"/>
				<path class="st23" d="M298.8,295.5c0,0,0-0.1,0-0.3L298.8,295.5C298.8,295.5,298.8,295.5,298.8,295.5z"/>
				<path class="st23" d="M299.8,288.1l-0.1,1.1C299.7,289.2,299.7,288.8,299.8,288.1z"/>
			</g>
		</g>
	</g>
	<g>
		<polygon class="st21" points="347.6,199.8 351.8,205.8 361.1,197.8 355.3,190.7 		"/>
		<path class="st14" d="M349.7,202.6c1.8-2.6,1-6.8,1-6.8l-1.6,2.1l-1.4,1.8L349.7,202.6z"/>
		<path class="st10" d="M331.7,186.4c0.2,0.6,0.7,1,1.1,0.8c0.4-0.1,0.6-0.8,0.4-1.3c-0.2-0.6-0.7-1-1.1-0.8
			C331.6,185.2,331.5,185.8,331.7,186.4z"/>
		<path class="st26" d="M333.8,186.6l-1.3,5.7c0,0,1.9,0.5,3.8-1L333.8,186.6z"/>
		<path class="st10" d="M331.1,182.3c0.1-0.1,0.2-0.1,0.3,0c0.8,0.3,1.6,0.3,2.3-0.2c0.1-0.1,0.3-0.1,0.5,0.1
			c0.1,0.1,0.1,0.4-0.1,0.5c-0.9,0.6-2,0.7-3,0.3c-0.2-0.1-0.3-0.3-0.2-0.4l0,0C331,182.4,331,182.3,331.1,182.3z"/>
		<path class="st21" d="M353.8,176.2c3,7.7,4.5,10.9,2.4,16.6c-4.1,6.8-13.4,10.9-18.7,4.2c-4.8-6-8.9-17.6-2.9-24.2
			c4.3-4.7,11.6-5.2,16.2-1C352.2,173,353.2,174.5,353.8,176.2z"/>
		<path class="st10" d="M361.2,178.5c-0.5,2.6-0.7,5.2-0.8,7.8c-0.1,1.6-0.4,3.2-1.1,4.6c-1.3,2.9-3.9,5.1-6.9,6.4c0,0,0.1,0.6,0,0
			c0,0-10.9-0.1-15.5-13.8c-2.5,0.2-5.2-0.9-6.8-2.8c-1.6-2-2.2-4.8-1.4-7.2c0.9-2.9,4.6-4.7,7.6-4.8c1.9-2.7,5.3-4,8.6-3.9
			c3.3,0.1,6.4,1.5,9.3,3.1c2.4,1.4,4.8,3.1,6.2,5.6C361.2,174.9,361.5,176.7,361.2,178.5z"/>
		<path class="st21" d="M339.2,185.2c-0.7,1.6-0.7,3.4-0.1,4.9c0.8,2.1,3.1,1.7,4.4,0c1.2-1.6,2.1-4.6,0.5-6.1
			C342.4,182.5,340.1,183.3,339.2,185.2z"/>
		<g>
			<path class="st6" d="M361.2,193.3c-3,0.1-7.4,2.2-13.3,6.2c-0.7,0.5-0.9,1.4-0.8,2.2c0.1,0.8,0.9,1.6,1.6,1.3
				c0.4,1,0.7,2.1,1.1,3.1c1.7-1.1,3.9-1.6,5.7-2.4c3-1.2,6.1-2.1,9.1-3c-0.8-1.3-1.9-2.5-2.3-4c0.7-0.2,1.1-1.2,0.9-1.9
				C363.1,194.1,361.9,193.3,361.2,193.3z"/>
			<path class="st6" d="M361.2,193.3c-3,0.1-7.4,2.2-13.3,6.2c-0.7,0.5-0.9,1.4-0.8,2.2c0.1,0.8,0.9,1.6,1.6,1.3
				c0.4,1,0.7,2.1,1.1,3.1c1.7-1.1,3.9-1.6,5.7-2.4c3-1.2,6.1-2.1,9.1-3c-0.8-1.3-1.9-2.5-2.3-4c0.7-0.2,1.1-1.2,0.9-1.9
				C363.1,194.1,361.9,193.3,361.2,193.3z"/>
		</g>
	</g>
	<path class="st6" d="M352.4,269.9c0,0-9.9-23.1-16.2-46.6c-4.6-17.3,8.6-17.6,24.6-21.9c12.7-3.4,18.1-0.4,21.7,6.1
		c3.6,6.4,9.5,60.8,9.5,60.8L352.4,269.9z"/>
	<path class="st6" d="M352.4,269.9c0,0-9.9-23.1-16.2-46.6c-4.6-17.3,8.6-17.6,24.6-21.9c12.7-3.4,18.1-0.4,21.7,6.1
		c3.6,6.4,9.5,60.8,9.5,60.8L352.4,269.9z"/>
	<path class="st15" d="M352.4,269.9c0,0-9.9-23.1-16.2-46.6c-4.6-17.3,8.6-17.6,24.6-21.9c12.7-3.4,18.1-0.4,21.7,6.1
		c3.6,6.4,9.5,60.8,9.5,60.8L352.4,269.9z"/>
	<g>
		<g>
			<path class="st21" d="M294.6,245l-1.1,0c-1,0-1.9,0.7-2.2,1.7l-0.2,0.7c-0.2,0.8-0.1,1.6,0.4,2.2c1.5,1.9,5.2,5.5,10.6,4.5
				l4.6-2.3l0.3-5.6l-8.2-2.7c-0.5-0.1-1,0-1.5,0.3L294.6,245z"/>
			<polygon class="st21" points="306.6,251.8 318,253.3 317.3,246.8 306.9,246.2 			"/>
		</g>
		<path class="st6" d="M314.5,246.4c-0.5,0.7-1,1.6-1,2.8c0,1.1,0.1,3.1,1.1,4.6l0,0c-1.9-0.3-3.9-0.2-5.7,0.4l-0.1,0
			c-5.2-5.1-0.9-9.2-0.9-9.2l0.4,0.1C310.3,245.7,312.4,246.2,314.5,246.4z"/>
		<g>
			<g>
				<path class="st6" d="M336.7,255.5c-10.9,0.6-23.9-2-23.9-2c-0.3-0.9-0.3-1.7-0.1-2.5c0.4-1.7,1-3.9,1.8-4.7
					c0.9-0.8,5.4-0.4,5.4-0.4s9.5-2.5,11.3-3.5c1.9-1,2.9-7.2,3.3-11.4c2.2-22.2,6.4-23.2,10-23.5
					C352.2,206.7,346.3,255,336.7,255.5z"/>
			</g>
		</g>
	</g>
	<g>
		<g>
			<path class="st9" d="M303.8,381l10.2-62.8c1.1-6.6,6.8-11.5,13.5-11.5h25c6.9,0,12.8,5.2,13.6,12.1l7.5,63.1"/>
			<path class="st9" d="M338.7,381l10.2-62.8c1.1-6.6,6.8-11.5,13.5-11.5h25c6.9,0,12.8,5.2,13.6,12.1l7.5,63.1"/>
			<line class="st9" x1="306.5" y1="364.6" x2="340.8" y2="364.6"/>
			<line class="st9" x1="366.1" y1="318.8" x2="401.6" y2="318.8"/>
		</g>
		<g>
			<g>
				<path class="st6" d="M372.6,308.1h26.1c10.1,0,18.5-7.7,19.3-17.8l3.7-46.9c0.6-7.6-5.4-14.1-13-14.1h-14.4
					c-16.8,0-31.7,11.1-36.5,27.2l-10,33.5c-1.7,5.6-6.8,9.5-12.7,9.5h-18.3c-4.8,0-8.7,3.9-8.7,8.7h49.1H372.6z"/>
			</g>
			<g>
				<path class="st27" d="M372.6,308.1h26.1c10.1,0,18.5-7.7,19.3-17.8l3.7-46.9c0.6-7.6-5.4-14.1-13-14.1h-14.4
					c-16.8,0-31.7,11.1-36.5,27.2l-10,33.5c-1.7,5.6-6.8,9.5-12.7,9.5h-18.3c-4.8,0-8.7,3.9-8.7,8.7h49.1H372.6z"/>
			</g>
		</g>
	</g>
</g>
<g id="Speedometer">
	<g>
		<g>
			<g>
				<g>
					<g>
						<g>
							<path class="st6" d="M346.7,146.1L346.7,146.1l0-0.1C346.7,146,346.7,146.1,346.7,146.1z"/>
							<g>
								<path class="st6" d="M299.6,133.4c-3.4,3.1-5.9,7.2-7.2,11.6l-1.8,0c0.6-5.1,2.6-9.8,5.5-13.9L299.6,133.4z"/>
								<path class="st13" d="M299.6,133.4c-3.4,3.1-5.9,7.2-7.2,11.6l-1.8,0c0.6-5.1,2.6-9.8,5.5-13.9L299.6,133.4z"/>
							</g>
							<g>
								<path class="st6" d="M310.2,127.5c-4,1.1-7.6,3.2-10.6,6l-3.6-2.3c2.9-4.1,6.8-7.5,11.3-9.8L310.2,127.5z"/>
								<path class="st15" d="M310.2,127.5c-4,1.1-7.6,3.2-10.6,6l-3.6-2.3c2.9-4.1,6.8-7.5,11.3-9.8L310.2,127.5z"/>
							</g>
							<g>
								<path class="st6" d="M321.4,118l-0.9,8.9c-1.2-0.2-2.5-0.3-3.9-0.3c-2.2,0-4.4,0.3-6.5,0.9l-2.9-6.1
									c4.2-2.2,8.8-3.4,13.7-3.4C321.1,118,321.3,118,321.4,118z"/>
								<path class="st18" d="M321.4,118l-0.9,8.9c-1.2-0.2-2.5-0.3-3.9-0.3c-2.2,0-4.4,0.3-6.5,0.9l-2.9-6.1
									c4.2-2.2,8.8-3.4,13.7-3.4C321.1,118,321.3,118,321.4,118z"/>
							</g>
							<g>
								<path class="st6" d="M334.8,121.8l-5.8,8.5c-2.4-1.7-5.3-2.9-8.4-3.4l0.9-8.9C326.4,118,330.9,119.4,334.8,121.8z"/>
								<path class="st28" d="M334.8,121.8l-5.8,8.5c-2.4-1.7-5.3-2.9-8.4-3.4l0.9-8.9C326.4,118,330.9,119.4,334.8,121.8z"/>
							</g>
							<g>
								<path class="st6" d="M344,131.8l-9.1,4.9c-1.5-2.5-3.5-4.7-6-6.4l5.8-8.5C338.7,124.2,341.9,127.7,344,131.8z"/>
								<path class="st11" d="M344,131.8l-9.1,4.9c-1.5-2.5-3.5-4.7-6-6.4l5.8-8.5C338.7,124.2,341.9,127.7,344,131.8z"/>
							</g>
							<g>
								<path class="st6" d="M346.7,145.7l-8.9-0.1c-0.3-3.3-1.3-6.3-2.9-8.9l9.1-4.9C346.1,135.9,347.1,140.7,346.7,145.7z"/>
								<path class="st19" d="M346.7,145.7l-8.9-0.1c-0.3-3.3-1.3-6.3-2.9-8.9l9.1-4.9C346.1,135.9,347.1,140.7,346.7,145.7z"/>
							</g>
							<path class="st6" d="M346.7,146c0,0,0,0.1,0,0.1c-0.2,2.5-1.2,6.7-2.4,9.1l-7.2-1.6l0.6-2.8c0.1-0.4,0.1-0.7,0.1-1.1h0l0-0.2
								h0c0.1-1.3,0.1-2.6,0-3.9l8.9,0.1c0,0.1,0,0.1,0,0.2C346.7,145.9,346.7,146,346.7,146z"/>
						</g>
					</g>
					<g>
						<g>
							<g>
								<path class="st6" d="M291.6,154.6l-0.5,0.1c-0.2-0.7-0.3-1.4-0.4-2.1c-0.3-2.1-0.4-4.3-0.2-6.6h0l0-0.1c0,0,0-0.1,0-0.1
									c0-0.3,0.1-0.6,0.1-0.8l1.8,0c-0.4,1.4-0.7,2.9-0.9,4.4c0,0,0,0.1,0,0.1s0,0.1,0,0.1c-0.1,0.9-0.1,1.8-0.1,2.7
									C291.4,153.2,291.5,153.9,291.6,154.6z"/>
							</g>
							<path class="st27" d="M291.6,154.6l-0.5,0.1c-0.2-0.7-0.3-1.4-0.4-2.1c-0.3-2.1-0.4-4.3-0.2-6.6h0l0-0.1c0,0,0-0.1,0-0.1
								c0-0.3,0.1-0.6,0.1-0.8l1.8,0c-0.4,1.4-0.7,2.9-0.9,4.4c0,0,0,0.1,0,0.1s0,0.1,0,0.1c-0.1,0.9-0.1,1.8-0.1,2.7
								C291.4,153.2,291.5,153.9,291.6,154.6z"/>
						</g>
					</g>
				</g>
			</g>
		</g>
		<g>
			<g>
				<path class="st10" d="M346.1,153.2l-0.8,1.9l-1.5-0.3l-14.4-3.2l-6.2-1.4c0.4-0.6,0.8-1.2,1.1-1.8c0.3-0.8,0.5-1.6,0.6-2.4
					l13.7,4.7l0,0L346.1,153.2z"/>
				<path class="st10" d="M324.9,145.9c-0.1,1.5-0.7,2.9-1.6,4.2l-5.6-1.3l1.8-4.8L324.9,145.9z"/>
			</g>
		</g>
		<path class="st6" d="M324.9,145.9c-0.1,1.5-0.7,2.9-1.6,4.2c-0.7,0.9-1.5,1.6-2.5,2.1c-3.6,1.9-7.8,0.7-9.4-2.7
			c-1.6-3.4,0-7.7,3.5-9.6c3.6-1.9,7.8-0.7,9.4,2.7C324.8,143.6,325,144.8,324.9,145.9z"/>
	</g>
</g>
<g id="Number">
	<g>
		<path class="st6" d="M97.1,141.7h5.7v4.8h-6.3l-0.9,7h-5l0.9-7H85l-0.9,7h-4.9l0.9-7h-5.8v-4.8h6.3l0.9-7.1h-5.8v-4.8h6.3l0.9-7
			H88l-0.9,7h6.5l0.9-7h4.9l-0.9,7h5.7l0,4.8h-6.3L97.1,141.7z M92.1,141.7l0.9-7.1h-6.5l-0.9,7.1H92.1z"/>
		<path class="st6" d="M118.8,122.7v30.8h-7.1v-25.1h-6.2v-5.7H118.8z"/>
	</g>
</g>
<g id="Symbol">
	
		<image style="overflow:visible;" width="388" height="264" xlink:href="AD9D5037.jpg"  transform="matrix(2.4224 0 0 2.4224 497.7992 -117.1293)">
	</image>
</g>
</svg>
