<?xml version="1.0" encoding="utf-8"?>
<!-- Generator: Adobe Illustrator 23.0.5, SVG Export Plug-In . SVG Version: 6.00 Build 0)  -->
<svg version="1.1" xmlns="http://www.w3.org/2000/svg" xmlns:xlink="http://www.w3.org/1999/xlink" x="0px" y="0px"
	 viewBox="0 0 453.5 465.7" style="enable-background:new 0 0 453.5 465.7;" xml:space="preserve">
<style type="text/css">
	.st0{fill:#FFFFFF;}
	.st1{fill:#EAF3F9;}
	.st2{fill:#E03C03;}
	.st3{fill:#FF6224;}
	.st4{fill:#FFC947;}
	.st5{fill:#20C3C5;}
	.st6{fill:#383873;}
	.st7{fill:#86BFBC;}
	.st8{fill:#B8E3E2;}
	.st9{fill:#9FCCC9;}
	.st10{opacity:0.15;fill:none;stroke:#000000;stroke-width:0.8185;stroke-linecap:round;stroke-miterlimit:10;}
	.st11{fill:#382424;}
	.st12{fill:#FFAD94;}
	.st13{opacity:0.25;}
	.st14{fill:#0C2059;}
	.st15{fill:#2E4780;}
	.st16{opacity:0.15;}
	.st17{fill:#169799;}
	.st18{fill:none;stroke:#000000;stroke-width:0.8185;stroke-linecap:round;stroke-miterlimit:10;}
	.st19{fill:none;stroke:#000000;stroke-width:0.8185;stroke-linecap:round;stroke-miterlimit:10;stroke-dasharray:4.1525,4.1525;}
	.st20{opacity:0.53;}
	.st21{fill:#87DFF2;}
	.st22{fill:#362400;}
	.st23{fill:#01497A;}
	.st24{fill:#EAF9F8;}
</style>
<g id="BACKGROUND">
</g>
<g id="OBJECTS">
	<path class="st1" d="M434.6,230.8c-29.5,44.2-92.5,180.8-77,231.5l-225.9,0.1c0,0-32.6-24.3-64.4-66.6c-5.8-7.7-11.5-16-17-24.8
		c-5.8-9.4-11.4-19.3-16.5-29.9C19.2,310.5,8.7,275.1,8.3,235.9C6.8,100.2,124.2-26,284,24.9C443.8,75.8,464.1,186.6,434.6,230.8z"
		/>
	<g>
		<g>
			<path class="st2" d="M279.4,416.7c-0.4,0-0.7-0.2-1-0.5l-95.3-118.5c-0.4-0.5-0.3-1.3,0.2-1.7c0.5-0.4,1.3-0.3,1.7,0.2
				l95.3,118.5c0.4,0.5,0.3,1.3-0.2,1.7C280,416.6,279.7,416.7,279.4,416.7z"/>
		</g>
		<g>
			<path class="st3" d="M131.6,416.7c-0.3,0-0.5-0.1-0.8-0.3c-0.5-0.4-0.6-1.2-0.2-1.7l95.3-118.5c0.4-0.5,1.2-0.6,1.7-0.2
				c0.5,0.4,0.6,1.2,0.2,1.7l-95.3,118.5C132.3,416.5,131.9,416.7,131.6,416.7z"/>
		</g>
		<g>
			<path class="st3" d="M226.9,416.7c-0.4,0-0.7-0.2-1-0.5l-95.3-118.5c-0.4-0.5-0.3-1.3,0.2-1.7c0.5-0.4,1.3-0.3,1.7,0.2
				l95.3,118.5c0.4,0.5,0.3,1.3-0.2,1.7C227.4,416.6,227.2,416.7,226.9,416.7z"/>
		</g>
		<path class="st2" d="M148.5,300.1h-44.3c-1.7,0-3.1-1.4-3.1-3.1l0,0c0-1.7,1.4-3.1,3.1-3.1h44.3c1.7,0,3.1,1.4,3.1,3.1l0,0
			C151.6,298.7,150.2,300.1,148.5,300.1z"/>
		<path class="st3" d="M275.9,300.1H149.3c-1.7,0-3.1-1.4-3.1-3.1l0,0c0-1.7,1.4-3.1,3.1-3.1h126.5V300.1z"/>
		<g>
			<path class="st2" d="M182.7,356.2c0,1.9-1.5,3.4-3.4,3.4c-1.9,0-3.4-1.5-3.4-3.4c0-1.9,1.5-3.4,3.4-3.4
				C181.1,352.8,182.7,354.3,182.7,356.2z"/>
		</g>
		<path class="st4" d="M235.2,356.2c0,1.9-1.5,3.4-3.4,3.4c-1.9,0-3.4-1.5-3.4-3.4c0-1.9,1.5-3.4,3.4-3.4
			C233.7,352.8,235.2,354.3,235.2,356.2z"/>
	</g>
	<g>
		<path class="st5" d="M189.5,199.9h-44.6c-2.2,0-4-1.8-4-4v-33.2c0-2.2,1.8-4,4-4h44.6c2.2,0,4,1.8,4,4v33.2
			C193.5,198.1,191.7,199.9,189.5,199.9z"/>
		<path class="st0" d="M178.6,176.9h-1.7c-0.3-0.9-0.6-1.8-1.1-2.5l1.3-1.3c0.5-0.5,0.5-1.3,0-1.8l-1.8-1.8c-0.5-0.5-1.3-0.5-1.8,0
			l-1.4,1.4c-0.7-0.4-1.6-0.8-2.4-1v-2c0-0.7-0.6-1.2-1.2-1.2H166c-0.7,0-1.2,0.6-1.2,1.2v2.1c-0.8,0.2-1.6,0.5-2.3,0.9l-1.5-1.5
			c-0.5-0.5-1.3-0.5-1.8,0l-1.8,1.8c-0.5,0.5-0.5,1.3,0,1.8l1.4,1.4c-0.5,0.7-0.8,1.5-1.1,2.4h-1.9c-0.7,0-1.2,0.6-1.2,1.2v2.5
			c0,0.7,0.6,1.2,1.2,1.2h1.7c0.2,0.9,0.5,1.8,1,2.7l-1.2,1.2c-0.5,0.5-0.5,1.3,0,1.8l1.8,1.8c0.5,0.5,1.3,0.5,1.8,0l1-1
			c0.8,0.5,1.8,1,2.7,1.2v1.4c0,0.7,0.6,1.2,1.2,1.2h2.5c0.7,0,1.2-0.6,1.2-1.2v-1.3c1-0.2,2-0.6,2.8-1.1l1,1c0.5,0.5,1.3,0.5,1.8,0
			l1.8-1.8c0.5-0.5,0.5-1.3,0-1.8l-1-1c0.5-0.8,0.9-1.8,1.1-2.8h1.5c0.7,0,1.2-0.6,1.2-1.2v-2.5
			C179.8,177.5,179.3,176.9,178.6,176.9z M168.5,185.9c-4.5,0.9-8.4-3-7.5-7.5c0.5-2.5,2.5-4.5,5-5c4.5-0.9,8.4,3,7.5,7.5
			C173.1,183.4,171,185.5,168.5,185.9z"/>
	</g>
	<g>
		<path class="st3" d="M256.6,177.2H212c-2.2,0-4-1.8-4-4V140c0-2.2,1.8-4,4-4h44.6c2.2,0,4,1.8,4,4v33.2
			C260.6,175.4,258.8,177.2,256.6,177.2z"/>
		<g>
			<g>
				<g>
					<path class="st0" d="M225.4,163.5c-0.3,0-0.6-0.1-0.9-0.4l-5.5-5.9c-0.5-0.5-0.5-1.3,0-1.9l5.6-6c0.5-0.5,1.3-0.5,1.7,0
						c0.5,0.5,0.5,1.3,0,1.9l-4.8,5.1l4.7,5c0.5,0.5,0.5,1.3,0,1.9C226.1,163.4,225.8,163.5,225.4,163.5z"/>
				</g>
				<g>
					<path class="st0" d="M243.2,163.5c-0.3,0-0.6-0.1-0.9-0.4c-0.5-0.5-0.5-1.3,0-1.9l4.7-5l-4.8-5.1c-0.5-0.5-0.5-1.3,0-1.9
						c0.5-0.5,1.3-0.5,1.7,0l5.6,6c0.2,0.2,0.4,0.6,0.4,0.9c0,0.3-0.1,0.7-0.4,0.9l-5.5,5.9C243.8,163.4,243.5,163.5,243.2,163.5z"
						/>
				</g>
			</g>
			<g>
				<path class="st0" d="M231.6,165.1c-0.2,0-0.3,0-0.5-0.1c-0.6-0.3-0.9-1-0.7-1.7l5.5-14.5c0.3-0.7,1-1,1.6-0.7
					c0.6,0.3,0.9,1,0.7,1.7l-5.5,14.5C232.5,164.8,232.1,165.1,231.6,165.1z"/>
			</g>
		</g>
	</g>
	<g>
		<g>
			<path class="st0" d="M296.9,185.1H186.2v-3.4c0-0.9,0.7-1.7,1.7-1.7h107.4c0.9,0,1.7,0.7,1.7,1.7V185.1z"/>
			<path class="st6" d="M293.8,244.1H189.3c-1.7,0-3.1-1.4-3.1-3.1v-55.9h110.7V241C296.9,242.7,295.5,244.1,293.8,244.1z"/>
			<g>
				<g>
					<path class="st3" d="M291.6,182.6c0,0.4-0.3,0.8-0.8,0.8c-0.4,0-0.8-0.3-0.8-0.8c0-0.4,0.3-0.8,0.8-0.8
						C291.2,181.8,291.6,182.1,291.6,182.6z"/>
					<path class="st3" d="M286.2,182.6c0,0.4-0.3,0.8-0.8,0.8c-0.4,0-0.8-0.3-0.8-0.8c0-0.4,0.3-0.8,0.8-0.8
						C285.9,181.8,286.2,182.1,286.2,182.6z"/>
					<path class="st3" d="M280.9,182.6c0,0.4-0.3,0.8-0.8,0.8c-0.4,0-0.8-0.3-0.8-0.8c0-0.4,0.3-0.8,0.8-0.8
						C280.5,181.8,280.9,182.1,280.9,182.6z"/>
				</g>
			</g>
			<path class="st5" d="M253.4,193.1H192c-0.6,0-1.1-0.5-1.1-1.1l0,0c0-0.6,0.5-1.1,1.1-1.1h61.5c0.6,0,1.1,0.5,1.1,1.1l0,0
				C254.5,192.6,254,193.1,253.4,193.1z"/>
			<path class="st5" d="M253.4,199.9H192c-0.6,0-1.1-0.5-1.1-1.1l0,0c0-0.6,0.5-1.1,1.1-1.1h61.5c0.6,0,1.1,0.5,1.1,1.1l0,0
				C254.5,199.4,254,199.9,253.4,199.9z"/>
			<path class="st5" d="M224.1,206.7H192c-0.6,0-1.1-0.5-1.1-1.1l0,0c0-0.6,0.5-1.1,1.1-1.1h32.1c0.6,0,1.1,0.5,1.1,1.1l0,0
				C225.2,206.2,224.7,206.7,224.1,206.7z"/>
			<path class="st3" d="M253.4,220.3H192c-0.6,0-1.1-0.5-1.1-1.1l0,0c0-0.6,0.5-1.1,1.1-1.1h61.5c0.6,0,1.1,0.5,1.1,1.1l0,0
				C254.5,219.8,254,220.3,253.4,220.3z"/>
			<path class="st3" d="M224.1,227.1H192c-0.6,0-1.1-0.5-1.1-1.1l0,0c0-0.6,0.5-1.1,1.1-1.1h32.1c0.6,0,1.1,0.5,1.1,1.1l0,0
				C225.2,226.6,224.7,227.1,224.1,227.1z"/>
			<path class="st5" d="M224.1,233.9H192c-0.6,0-1.1-0.5-1.1-1.1l0,0c0-0.6,0.5-1.1,1.1-1.1h32.1c0.6,0,1.1,0.5,1.1,1.1l0,0
				C225.2,233.4,224.7,233.9,224.1,233.9z"/>
			<path class="st0" d="M253.4,206.7h-23.1c-0.6,0-1.1-0.5-1.1-1.1l0,0c0-0.6,0.5-1.1,1.1-1.1h23.1c0.6,0,1.1,0.5,1.1,1.1l0,0
				C254.5,206.2,254,206.7,253.4,206.7z"/>
			<path class="st3" d="M283.9,191.4l-16.3,16.3c-0.4,0.4-1.1,0.4-1.5,0l0,0c-0.4-0.4-0.4-1.1,0-1.5l16.3-16.3
				c0.4-0.4,1.1-0.4,1.5,0l0,0C284.3,190.3,284.3,191,283.9,191.4z"/>
			<ellipse transform="matrix(0.2307 -0.973 0.973 0.2307 -4.7226 438.5777)" class="st3" cx="275" cy="222.3" rx="9.6" ry="9.6"/>
			<path class="st5" d="M273.7,229c0,3-2.4,5.5-5.5,5.5c-3,0-5.5-2.4-5.5-5.5c0-3,2.4-5.5,5.5-5.5C271.3,223.5,273.7,226,273.7,229z
				"/>
		</g>
		<polyline class="st6" points="186.2,238.1 186.2,257.6 204.1,239.7 		"/>
	</g>
	<g>
		<polygon class="st7" points="167.2,262.8 206.4,262.8 220.6,290.2 181.4,290.2 		"/>
		<path class="st0" d="M182.2,288.2l-11.8-22.6c-0.2-0.5,0.1-1,0.6-1h34c0.3,0,0.5,0.1,0.6,0.4l11.8,22.6c0.2,0.5-0.1,1-0.6,1h-34
			C182.5,288.5,182.3,288.4,182.2,288.2z"/>
		<rect x="181.4" y="290.2" class="st8" width="31.8" height="3.6"/>
		<path class="st9" d="M240.5,290.2h-31.4c-1,0-1.8,0.8-1.8,1.8l0,0c0,1,0.8,1.8,1.8,1.8h31.4c1,0,1.8-0.8,1.8-1.8l0,0
			C242.3,291,241.5,290.2,240.5,290.2z"/>
		<path class="st8" d="M181.4,290.2l-14.2-27.3l-0.7,0.5c-0.5,0.3-0.6,1-0.3,1.5l15.2,29V290.2z"/>
		<rect x="192.2" y="291.9" class="st9" width="3.5" height="0.6"/>
		<rect x="196.6" y="291.9" class="st9" width="3.5" height="0.6"/>
		<rect x="201" y="291.9" class="st9" width="3.5" height="0.6"/>
	</g>
	<g>
		<path class="st6" d="M253,343.7c0,0-32.6,25.4-37.7,31.8c-1.9,2.4-5.3,6.7-8.9,11.1c-5.8,7.2-11.9,14.7-12.6,14.9
			c-1.2,0.3-10.9-7.1-11.2-8.7c-0.2-1,8.7-16.3,16.4-28.5c4.7-7.5,8.9-13.8,10.4-15.2c3.9-3.7,28.2-16.5,28.2-16.5L253,343.7z"/>
		<path class="st10" d="M190.8,396c0,0,30.4-43.3,45.7-50.6"/>
		<path class="st11" d="M286.9,232.5c-0.3,0.8-0.7,1.6-1.2,2.4c-2.4,4.6-0.6,9.1-3.3,10.3c-0.2,0.1-0.3,0.1-0.5,0.2
			c-3.5,0.8-11.6-3.9-11.9-6.2c-0.4-2.3,2.5-6.3,0-6.8c-2.5-0.5-3.8,3.7-3.8,3.7c-2,0.2-2.8-3.2-6.1-3.2c-0.5,0-0.9,0.1-1.4,0.2
			c-1.6,0.4-3,1.4-3.8,2.1c-0.7,0.5-1,1-1,1s-3-1.9-2.8-5.6c0.2-5.9,2.4-10.2,7.7-11.1c0.6-6.6,6-10.1,13.2-10.3
			c6.3-0.2,7.3,5.5,7.4,6.9c-0.1-1.1-0.4-4.5-1.9-6.9c3.2-0.1,6,2.1,5.2,9.5c0.7-2.2,3.3-3.6,5.2-2c-1.8,0-3.6,3.1-3.6,3.1
			s2.1,1.4,3.6,3.9C289,225.7,288.5,228.7,286.9,232.5z"/>
		<path class="st12" d="M282.4,245.2l-0.1,1.1l-0.3,3.8c0,0-5.8,5-9.1,0c0,0,0-0.1-0.1-0.1c-1-1.5-1.9-2.1-2.8-2.2
			c-1.8-0.2-3.3,1.6-4.8-0.4c-4.4-5.5-6.1-11.9-6.6-14.5c0.5-0.1,0.9-0.2,1.4-0.2c3.4,0,4.1,3.4,6.1,3.2c0,0,1.3-4.2,3.8-3.7
			c2.5,0.5-0.4,4.5,0,6.8c0.2,1,1.8,2.5,4,3.8c2.5,1.5,5.6,2.7,7.6,2.5c0.1,0,0.2,0,0.4-0.1C282,245.3,282.2,245.2,282.4,245.2z"/>
		<path class="st13" d="M283.3,252.3c-2.6,1.8-7.4,2.1-7.4,2.1l-3.9-0.6c0,0-1.6-2.4-0.9-3.7c0.1-0.3,0.5-0.6,1-1
			c1.1-0.9,2.8-2,4.5-2.9c1.8-0.9,3.7-1.7,5-1.8C284.9,244.2,285.9,250.5,283.3,252.3z"/>
		<path class="st5" d="M282.5,316.1c-5.9,1.1-18.3-2.3-24.2-5c-1.8-0.8-2.9-1.5-3.2-2c-1.1-2,0-3.5,2.8-9.9c0.3-0.7,0.7-1.5,1-2.3
			c1.9-4.5,1.9-14.1,1.9-22.4c0-7.1-0.1-13.2,1.1-14.3c2.4-2.4,14.7-10.1,14.7-10.1l2.4,12.7c0,0,1.4,6.4,2.8,14.8
			C284.5,293,287.4,315.2,282.5,316.1z"/>
		<path class="st6" d="M286.6,321.8c0,0.6-5.8,14.2-10.7,16.1c-4.9,1.9-34.4-0.2-34.4-0.2l-14.6,9.5l3.1,28.7l2.1,20l0.1,0.6
			c-4.5,2.9-15.7,3.7-16.9,1.2c0,0,0,0,0,0c-1.2-2.5-19.1-56.4-12.1-65.7c7-9.3,51.9-23,51.9-23c1.2,0.7,2.5,1.4,4,2
			c5,2,11.3,3.3,16.2,4.1c1.9,0.3,3.5,0.5,4.7,0.6c1.6,0.2,2.5,0.3,2.5,0.3S286.6,321.2,286.6,321.8z"/>
		<path class="st14" d="M234,415.4H196c-0.2-0.7,0.1-1.4,0.6-2c1.5-1.8,5.4-3.7,9.1-5.3c3.5-1.5,6.9-2.8,8.1-3.7
			c2.7-2.1,1.4-6.2,1.4-6.5c0.4,0.8,2,1.3,4,1.5c4,0.3,10-0.7,12.9-2.6l-0.1-0.6c1.1,2.2,1.7,12.8,1.8,17.4
			C234,414.6,234,415.4,234,415.4z"/>
		<path class="st15" d="M219.2,399.3c-0.1,1.8-0.4,4.7-0.9,5.5c-0.8,1.2-9.1,5.3-10.3,4.9c-0.8-0.2-1.7-1.1-2.2-1.6
			c3.5-1.5,6.9-2.8,8.1-3.7c2.7-2.1,1.4-6.2,1.4-6.5C215.6,398.7,217.2,399.2,219.2,399.3z"/>
		<path class="st15" d="M234,415.4H196c-0.2-0.7,0.1-1.4,0.6-2h37.2C234,414.6,234,415.4,234,415.4z"/>
		<path class="st14" d="M193.7,401.4c0,0-2.9,7.6-5.4,11.6c-1,1.6-1.9,2.6-2.6,2.4c-2.3-0.9-25.8-20.8-23.5-22.3
			c0.3-0.2,0.9-0.4,1.5-0.4c2-0.3,5.4,0,8.5,0.3c2.7,0.3,5.2,0.6,6.5,0.6c3.3,0,3.7-1,3.7-1c0.1,0.4,0.7,1.1,1.6,2
			C187,397.4,192.8,401.6,193.7,401.4z"/>
		<path class="st15" d="M184.1,394.7c-5,3.3-10.1,1.3-11.2,0.6c-0.8-0.5-0.8-1.6-0.7-2.2c2.7,0.3,5.2,0.6,6.5,0.6c3.3,0,3.7-1,3.7-1
			C182.6,393.1,183.2,393.8,184.1,394.7z"/>
		<path class="st15" d="M188.3,413c-1,1.6-1.9,2.6-2.6,2.4c-2.3-0.9-25.8-20.8-23.5-22.3c0.3-0.2,0.9-0.4,1.5-0.4L188.3,413z"/>
		<path class="st12" d="M258.3,291.3c-1.8,2.6-5.1,6.4-7.8,6.1c-0.1,0-0.2,0-0.3-0.1c-5.2-0.9-35.5-8.5-36.9-8.8
			c-1.5-0.3-11.7-0.4-11.1-1.5c0.6-1.1,6.4-4.5,8-4.4c1.6,0.1,7.7,1.9,13.8,1.7c6.1-0.2,22.2,0,22.2,0l0.8-1.3l1.1-2
			C247.7,287,254.9,291.8,258.3,291.3z"/>
		<path class="st10" d="M258.3,313.5c0,0-1.4,7.4,4,9.9"/>
		<path class="st10" d="M255.5,319.4c0,0-36,15.4-37.8,20.1c-1.7,4.8,9.2,56.4,9.2,56.4"/>
		<path class="st16" d="M286.6,321.8c0,0.6-5.8,14.2-10.7,16.1c-4.9,1.9-34.4-0.2-34.4-0.2l-14.6,9.5l3.1,28.7c0,0-6.2-32.8-6.2-35
			c0-1.8,40.7-13.5,51.5-25.8c4.2,0.7,7.3,0.9,7.3,0.9S286.6,321.2,286.6,321.8z"/>
		<path class="st13" d="M267.4,287c-2.5,3.6-6.6,8.1-9.5,12.3c0.3-0.7,0.7-1.5,1-2.3c1.9-4.5,1.9-14.1,1.9-22.4l8.7-5.8
			C269.6,268.7,271.5,281.2,267.4,287z"/>
		<path class="st17" d="M259.9,290.2c-0.4,0.3-0.8,0.7-1.1,1c-0.1,0-0.3,0.1-0.5,0.1c-3.4,0.5-10.6-4.4-10.3-10.3
			c0-0.4,0.4-1.3,0.9-2.5c2.9-5.9,11.7-19.1,13.4-18.5c0,0,5.7,0.9,7.2,8.6C271,275.9,265.8,284.8,259.9,290.2z"/>
		<path class="st13" d="M280,315.9c-1.2-0.1-2.9-0.4-4.7-0.6c-4.8-0.8-11.2-2-16.2-4.1c4.4-0.2,13.8-3.1,15-24.6
			c0.5,4,1.3,8.2,2.4,12.5C277.9,304.7,279.2,310.7,280,315.9z"/>
		<path class="st13" d="M277.7,244.7c-0.5,0.5-0.8,1-1.1,1.4c-1.8,0.9-3.5,2-4.5,2.9c-0.7-0.8-1.4-1.1-2.1-1.2l3.9-4.9
			C275.1,243.7,276.4,244.3,277.7,244.7z"/>
		<path class="st13" d="M258.3,291.3c-1.8,2.6-5.1,6.4-7.8,6.1c-0.1,0-0.2,0-0.3-0.1c-3.3-4.8-3.5-11.2-3.3-14.3l1.1-2
			C247.7,287,254.9,291.8,258.3,291.3z"/>
		<path class="st13" d="M286.9,232.5c-0.3,0.8-0.7,1.6-1.2,2.4c-1.2,2.2-1.3,4.5-1.5,6.3c-0.4-0.3-0.8-0.6-1.2-0.8
			c-2.5,1.5-4.2,3.1-5.3,4.4l0,0c-3.6-1.3-7.5-4-7.8-5.6c-0.4-2.3,2.5-6.3,0-6.8c-2.5-0.5-3.8,3.7-3.8,3.7c-2,0.2-2.8-3.2-6.1-3.2
			c-0.5,0-0.9,0.1-1.4,0.2c-1.6,0.4-3,1.4-3.8,2.1c0,0,3.8-5.3,9.7-4.2c0,0-0.9-1.7-4.9-1.5c8.4-2.7,13.7-1.7,16.3,1.4
			C277.9,233.2,282.9,236.3,286.9,232.5z"/>
	</g>
	<g>
		<path class="st8" d="M303.9,347.3h-29.2c0,0,23.1-6.8,23.1-52.7c0-0.6,0-1.2,0-1.8c-0.2-30.7-6.8-47.6-14.9-52.4
			c2.5-1.5,5.9-2.9,10.3-3.9c1.9-0.4,4.1-0.8,6.4-1c20-2,35.9,5.8,37.8,14.7C339.5,258.9,327.8,347.3,303.9,347.3z"/>
		<path class="st7" d="M297.9,294.6c0,45.9-23.1,52.7-23.1,52.7h-47.8l2-1.4l12.6-8.1l25.3-1.8c1.4-5.6,5.1-5.8,10.7-6.4
			c3.3-0.3,3.6-5.9,2.6-13.2c-0.7-5.3-2.1-11.5-3.6-17.3c-1.1-4.3-1.9-8.5-2.4-12.5c-0.6-4.7-0.9-9.2-0.9-13.5
			c-0.1-9.7,1.1-17.9,2.3-23.9c0.1-0.6,0.2-1.1,0.4-1.7c0,0,0,0,0-0.1c0.1-0.3,0.6-1.3,1.8-2.7l0,0c1.1-1.3,2.8-2.8,5.3-4.4
			c0.4,0.2,0.8,0.5,1.2,0.8c7.5,5.7,13.4,22.5,13.7,51.6C297.9,293.4,297.9,294,297.9,294.6z"/>
		<path class="st8" d="M288.6,415.4h-34.4c-1.2,0-1.7-1.5-0.8-2.2l8.6-6.7c3.8-3,6.1-7.6,6.1-12.4v-46.8h6.6V394
			c0,4.9,2.2,9.4,6.1,12.4l8.6,6.7C290.3,413.9,289.8,415.4,288.6,415.4z"/>
		<g class="st13">
			<g>
				<path class="st18" d="M314.9,237.2c0,0,0.3,0.6,0.7,1.9"/>
				<path class="st19" d="M316.7,243.1c1.2,4.4,2.7,11.2,3.9,20.5c3.1,24.2,0,58.1-21.1,79.5"/>
				<path class="st18" d="M298.1,344.6c-0.5,0.5-1,0.9-1.5,1.4"/>
			</g>
		</g>
		<path class="st16" d="M274.7,347.3V360c-2.3,1.2-4.6,2.1-6.6,2.8v-15.6H274.7z"/>
		<path class="st16" d="M283.9,327.4c-1.6,4.9-11.3,4-12.4,7.6c-2.5,7.6-3.9,4.3-13.5,5.2c-5.5,0.6-9.5,4.1-11.9,7h-19.1l2-1.4
			l12.6-8.1l25.3-1.8c1.4-5.6,5.1-5.8,10.7-6.4c3.3-0.3,3.6-5.9,2.6-13.2c-0.7-5.3-2.1-11.5-3.6-17.3c-1.1-4.3-1.9-8.5-2.4-12.5
			c-0.6-4.7-0.9-9.2-0.9-13.5C276.9,292.5,285,323.8,283.9,327.4z"/>
		<path class="st16" d="M297.9,294.6c0-0.6,0-1.2,0-1.8c-0.2-30.7-6.8-47.6-14.9-52.4c2.5-1.5,5.9-2.9,10.3-3.9
			c-1.3,1.9-2.7,4.8-2.1,7.9c1.2,5.5,14.4,26.5,9.3,60.1c-3.7,24.3-2.4,36.9,1.4,42.8h-27.2C274.7,347.3,297.9,340.5,297.9,294.6z"
			/>
	</g>
	<path class="st13" d="M130.9,269.5c0,1.1-0.1,2.1-0.3,3h-9.4c-2.8-1.8-7.3-5.5-10-10.9c2.5,2.7,6.8,6.1,11.2,7.1
		C126.3,269.6,129.1,269.2,130.9,269.5z"/>
	<g>
		<path class="st5" d="M152.7,232.3c-1,3.8-5.9,11.2-10.2,19.1c-4.8,8.6-9.1,17.9-7.4,23.7c0.4,1.5,0.6,2.6,0.6,3.3
			c0,2.6-1.9,1.8-3.9,0.3c-2-1.5-4-3.6-4-3.6l0.1-11.4c0,0-6.4-5.9-1.2-18.9c0.3-0.8,0.7-1.7,1.2-2.6c7.3-14.7,18.2-30.2,7.9-34.6
			C150.1,206.8,154.9,224.3,152.7,232.3z"/>
		<g class="st20">
			<path d="M135.8,207.7c2.7,0.6,5,2.4,6.5,4.7c0.4,0.6,0.7,1.2,1,1.8c0.2,0.6,0.5,1.3,0.7,1.9c0.2,0.7,0.4,1.3,0.5,2l0.2,1l0.1,1
				c-0.1,2.8-0.9,5.4-1.8,8c-1,2.6-2.1,5.1-3.2,7.6c-2.3,5-4.7,9.8-6.9,14.8c-1.1,2.5-2.1,5-2.9,7.6c-0.4,1.3-0.7,2.6-0.9,3.9
				c-0.2,1.3-0.2,2.7,0.3,3.9l0,0c0.1,0.2,0,0.4-0.3,0.5c-0.2,0.1-0.4,0-0.5-0.3c0,0,0,0,0,0c-0.5-1.4-0.4-2.9-0.3-4.2
				c0.2-1.4,0.5-2.7,0.9-4c0.8-2.6,1.9-5.2,3-7.7c2.2-5,4.8-9.8,7.1-14.8c1.2-2.5,2.3-4.9,3.3-7.5c0.9-2.5,1.8-5.2,1.9-7.9l0-1
				l-0.2-1c-0.1-0.7-0.3-1.3-0.4-2c-0.2-0.7-0.4-1.3-0.7-1.9c-0.3-0.6-0.6-1.2-1-1.8C140.8,210.1,138.5,208.3,135.8,207.7z"/>
		</g>
		<path class="st17" d="M146.2,255.3c-4.4,11.5,0,20.3-6.6,21.5c-3,0.6-4.3-1.7-4.9-4.2c-0.7-3.1-0.2-6.6-0.2-6.6s1.1-2.8,3.5-5.6
			C139.9,258,142.6,255.9,146.2,255.3z"/>
		<path class="st8" d="M130.9,269.5c0,2.7-0.6,5-1.9,6.2c-0.1,0.1-0.2,0.2-0.4,0.3c-3.1,2.5-5.1-2.1-5.1-2.1s-8.3-4.1-12.3-12.3
			c-3.1-6.3-3.8-15.2,3.5-26.5c1.1,8.1,5.5,13.6,9.9,18.8c0,0,0,0,0,0c0.5,0.7,1.1,1.3,1.6,1.9C129.4,259.5,131,265.1,130.9,269.5z"
			/>
		<g class="st20">
			<path d="M114.8,235.1c-0.7,3.5-0.9,7.1-0.6,10.6c0.4,3.5,1.3,7,3.2,10c1.8,3,4.4,5.5,6.7,8.2c1.1,1.4,2.3,2.8,3,4.5
				c0.8,1.6,1.1,3.5,1,5.4c0,0.2-0.2,0.4-0.4,0.4c-0.2,0-0.4-0.2-0.4-0.4c0,0,0,0,0,0c0.2-1.7-0.1-3.4-0.8-5c-0.7-1.6-1.7-3-2.8-4.4
				c-2.2-2.7-4.8-5.3-6.6-8.4c-1.9-3.1-2.8-6.6-3.1-10.2C113.8,242.1,114,238.6,114.8,235.1z"/>
		</g>
		<g class="st13">
			<path d="M146.2,255.3c-1.3,1.5-2.4,3-3.5,4.5c-1.1,1.6-2.2,3.2-3.1,4.8c-1.9,3.3-3.5,6.8-4,10.6l0,0c0,0.2-0.2,0.4-0.5,0.3
				c-0.2,0-0.4-0.2-0.3-0.5c0,0,0,0,0,0c0.7-3.9,2.5-7.4,4.5-10.7c1-1.6,2.1-3.2,3.3-4.7C143.6,258.1,144.9,256.7,146.2,255.3z"/>
		</g>
		<path class="st8" d="M143.5,275.4l-2.8,17.2c-0.1,0.7-0.8,1.2-1.5,1.2h-17.4c-0.7,0-1.4-0.5-1.5-1.2l-2.3-14l-0.5-3.2
			c-0.2-0.9,0.5-1.8,1.5-1.8h23C143,273.6,143.7,274.4,143.5,275.4z"/>
		<path class="st7" d="M146.2,278.9h-31.4l0.8-4.7c0.2-1,1-1.7,2-1.7h25.7c1,0,1.8,0.7,2,1.7L146.2,278.9z"/>
		<path class="st13" d="M134.5,265.9c0,0-0.4,3.5,0.2,6.6h-4.1c0.2-0.9,0.3-1.9,0.3-3c0-4.5-1.6-10.1-4.6-13.7
			c-0.5-0.6-1.1-1.3-1.6-1.9c0,0,0,0,0,0c0.1-2.5,0.6-5.5,2.1-9.1c0.2,4.1,1.3,11.3,5.4,12.1c3.1,0.6,7.2-2.5,10.3-5.5
			c-1.6,3-3.2,6-4.5,8.9C135.6,263.1,134.5,265.9,134.5,265.9z"/>
		<path class="st13" d="M132.2,293.8h-10.4c-0.7,0-1.4-0.5-1.5-1.2l-2.2-13.7h9c-0.2,1.9-0.5,5.5,0.2,8.3
			C127.7,289.4,129.7,292.2,132.2,293.8z"/>
	</g>
	<path class="st21" d="M211,152.2h-44.6c-2.2,0-4-1.8-4-4v-33.2c0-2.2,1.8-4,4-4H211c2.2,0,4,1.8,4,4v33.2
		C215,150.5,213.3,152.2,211,152.2z"/>
	<g>
		<path class="st22" d="M174.7,125.7v4.4c0,0.4,0.3,0.6,0.6,0.6h2.5c0.4,0,0.6-0.3,0.6-0.6v-4.4c0-0.4,0.3-0.6,0.6-0.6h0.2
			c0.4,0,0.6,0.3,0.6,0.6v12c0,0.4-0.3,0.6-0.6,0.6h-0.2c-0.4,0-0.6-0.3-0.6-0.6v-4.9c0-0.4-0.3-0.6-0.6-0.6h-2.5
			c-0.4,0-0.6,0.3-0.6,0.6v4.9c0,0.4-0.3,0.6-0.6,0.6h-0.2c-0.4,0-0.6-0.3-0.6-0.6v-12c0-0.4,0.3-0.6,0.6-0.6h0.2
			C174.4,125,174.7,125.3,174.7,125.7z"/>
		<path class="st22" d="M183.2,126.4h-1.1c-0.4,0-0.6-0.3-0.6-0.6v-0.1c0-0.4,0.3-0.6,0.6-0.6h5.1c0.4,0,0.6,0.3,0.6,0.6v0.1
			c0,0.4-0.3,0.6-0.6,0.6h-1.1c-0.4,0-0.6,0.3-0.6,0.6v10.7c0,0.4-0.3,0.6-0.6,0.6h-0.2c-0.4,0-0.6-0.3-0.6-0.6V127
			C183.9,126.7,183.6,126.4,183.2,126.4z"/>
		<path class="st22" d="M197.3,132.6c-0.1-1.8-0.2-3.7-0.1-5.2h-0.1c-0.3,1.5-0.7,3.1-1.1,4.6l-1.6,6.2h-1l-1.6-6
			c-0.4-1.7-0.8-3.3-1.1-4.9h-0.1c0,1.6-0.1,3.4-0.2,5.3l-0.2,5c0,0.3-0.3,0.6-0.6,0.6h-0.1c-0.4,0-0.7-0.3-0.6-0.7l0.7-12
			c0-0.3,0.3-0.6,0.6-0.6h0.5c0.3,0,0.5,0.2,0.6,0.5l1.4,5.6c0.5,1.8,0.8,3.1,1.1,4.6h0.1c0.3-1.5,0.6-2.8,1-4.6l1.4-5.6
			c0.1-0.3,0.3-0.5,0.6-0.5h0.6c0.3,0,0.6,0.3,0.6,0.6l0.7,12c0,0.4-0.3,0.7-0.6,0.7h-0.1c-0.3,0-0.6-0.3-0.6-0.6L197.3,132.6z"/>
		<path class="st22" d="M201.7,125h0.2c0.4,0,0.6,0.3,0.6,0.6v10.8c0,0.4,0.3,0.6,0.6,0.6h2.5c0.4,0,0.6,0.3,0.6,0.6l0,0
			c0,0.4-0.3,0.6-0.6,0.6h-4c-0.4,0-0.6-0.3-0.6-0.6v-12C201.1,125.3,201.4,125,201.7,125z"/>
	</g>
	<g>
		<g>
			<g>
				<path class="st6" d="M231.4,114.6c1.7,0,2.1-1.1,2.1-2.1c0-0.9-0.1-1.7-0.2-2.6c-0.1-0.9-0.2-1.7-0.2-2.7c0-2.7,1.7-3.9,3.8-3.9
					h0.4v1.6h-0.5c-1.3,0-1.8,0.9-1.8,2.3c0,0.8,0.1,1.6,0.2,2.3c0.1,0.8,0.2,1.5,0.2,2.2c0,2.4-0.8,3.2-2.1,3.6v0.1
					c1.3,0.4,2.1,1.2,2.1,3.6c0,0.8-0.1,1.5-0.2,2.3c-0.1,0.8-0.2,1.5-0.2,2.3c0,1.4,0.5,2.3,1.8,2.3h0.4v1.6h-0.4
					c-2,0-3.8-1-3.8-3.9c0-0.9,0.1-1.8,0.2-2.7c0.1-0.9,0.2-1.8,0.2-2.6c0-1-0.4-2.2-2.1-2.2V114.6z"/>
				<path class="st6" d="M262.3,116.1c-1.7,0-2.1,1.2-2.1,2.2c0,0.8,0.1,1.7,0.2,2.6c0.1,0.9,0.2,1.8,0.2,2.7c0,2.9-1.8,3.9-3.8,3.9
					h-0.4v-1.6h0.4c1.4-0.2,1.8-0.9,1.8-2.3c0-0.8-0.1-1.6-0.2-2.3c-0.1-0.8-0.2-1.5-0.2-2.3c0-2.4,0.8-3.2,2.1-3.6v-0.1
					c-1.3-0.4-2.1-1.2-2.1-3.6c0-0.7,0.1-1.5,0.2-2.2c0.1-0.7,0.2-1.5,0.2-2.3c0-1.4-0.5-2.1-1.8-2.3h-0.5v-1.6h0.4
					c2.2,0,3.8,1.2,3.8,3.9c0,0.9-0.1,1.8-0.2,2.7c-0.1,0.8-0.2,1.7-0.2,2.6c0,1,0.4,2.1,2.1,2.1V116.1z"/>
			</g>
		</g>
		<polygon class="st3" points="251.9,118.3 251.9,112.5 246.9,109.6 241.8,112.5 241.8,118.3 246.9,121.3 		"/>
	</g>
	<g>
		<path class="st3" d="M289.9,147.4c-4.8-2.4-10.5-1.4-14.2,2.3c-4.6,4.6-4.8,12.1-0.5,16.9l-1.9-0.2c-0.2,0-0.4,0.1-0.5,0.4
			c0,0.2,0.1,0.4,0.4,0.5l2.8,0.3c0.1,0,0.2,0,0.3-0.1c0.1-0.1,0.1-0.2,0.2-0.3l0.3-2.7c0-0.2-0.1-0.4-0.4-0.5
			c-0.2,0-0.4,0.1-0.5,0.4l-0.2,1.7c-4-4.5-3.9-11.5,0.4-15.8c3.5-3.5,8.8-4.4,13.3-2.2c0.2,0.1,0.4,0,0.5-0.2
			C290.2,147.8,290.1,147.5,289.9,147.4z"/>
		<path class="st3" d="M279.3,170.1c4.8,2.4,10.5,1.4,14.2-2.3c4.6-4.6,4.8-12.1,0.5-16.9l1.9,0.2c0.2,0,0.4-0.1,0.5-0.4
			c0-0.2-0.1-0.4-0.4-0.5l-2.8-0.3c-0.1,0-0.2,0-0.3,0.1c-0.1,0.1-0.1,0.2-0.2,0.3l-0.3,2.7c0,0.2,0.1,0.4,0.4,0.5
			c0.2,0,0.4-0.1,0.5-0.4l0.2-1.7c4,4.5,3.9,11.5-0.4,15.8c-3.5,3.5-8.8,4.4-13.3,2.2c-0.2-0.1-0.4,0-0.5,0.2
			C279,169.7,279.1,170,279.3,170.1z"/>
	</g>
	<path class="st3" d="M388.8,193.1h-74.1c-1.4,0-2.4-1.1-2.4-2.4l0,0c0-1.4,1.1-2.4,2.4-2.4h74.1c1.4,0,2.4,1.1,2.4,2.4l0,0
		C391.2,192,390.1,193.1,388.8,193.1z"/>
	<path class="st21" d="M362.3,203.7h-47.6c-1.4,0-2.4-1.1-2.4-2.4l0,0c0-1.4,1.1-2.4,2.4-2.4h47.6c1.4,0,2.4,1.1,2.4,2.4l0,0
		C364.8,202.6,363.7,203.7,362.3,203.7z"/>
	<path class="st21" d="M362.3,215.1h-47.6c-1.4,0-2.4-1.1-2.4-2.4l0,0c0-1.4,1.1-2.4,2.4-2.4h47.6c1.4,0,2.4,1.1,2.4,2.4l0,0
		C364.8,214,363.7,215.1,362.3,215.1z"/>
	<g>
		<path class="st5" d="M126.1,152.4H87.7c-1.4,0-2.4-1.1-2.4-2.4l0,0c0-1.4,1.1-2.4,2.4-2.4h38.5c1.4,0,2.4,1.1,2.4,2.4l0,0
			C128.6,151.3,127.5,152.4,126.1,152.4z"/>
		<path class="st3" d="M111.6,163.1H87.7c-1.4,0-2.4-1.1-2.4-2.4l0,0c0-1.4,1.1-2.4,2.4-2.4h23.9c1.4,0,2.4,1.1,2.4,2.4l0,0
			C114.1,162,113,163.1,111.6,163.1z"/>
		<path class="st3" d="M111.6,174.5H87.7c-1.4,0-2.4-1.1-2.4-2.4l0,0c0-1.4,1.1-2.4,2.4-2.4h23.9c1.4,0,2.4,1.1,2.4,2.4l0,0
			C114.1,173.4,113,174.5,111.6,174.5z"/>
	</g>
	<path class="st23" d="M355.4,329.7c-2.4,7-5.3,13-8.3,18.5c-10.4,18.9-22.4,30.9-22.8,48.6c0,0-3.7-16.6-0.7-35.5
		c1.7-10.6,5.5-22,13.2-31.6c21.6-26.6,18.4-50.8,18.4-50.8S366.1,298.7,355.4,329.7z"/>
	<g class="st13">
		<path class="st24" d="M329.9,376.1c-0.3-2.2-0.2-4.4,0-6.5c0.2-2.1,0.6-4.3,1.2-6.4c1.1-4.2,2.7-8.2,4.6-12c0.9-1.9,2-3.8,3.1-5.6
			l3.5-5.4c2.2-3.6,4.1-7.4,5.7-11.4c1.6-3.9,2.9-8,4-12.1c1.1-4.1,2.1-8.3,2.8-12.5c0.7-4.2,1.3-8.4,1.5-12.7
			c0.1-2.1,0.2-4.3,0.1-6.4c-0.1-1.1-0.1-2.1-0.3-3.2c-0.2-1-0.4-2.1-0.9-3.1c0.5,0.9,0.7,2,0.9,3.1c0.2,1.1,0.3,2.1,0.3,3.2
			c0.1,2.1,0.1,4.3,0,6.4c-0.2,4.3-0.7,8.5-1.4,12.7c-0.7,4.2-1.6,8.4-2.7,12.5c-1.1,4.1-2.4,8.2-3.9,12.2c-1.5,4-3.4,7.9-5.6,11.6
			l-3.4,5.4c-1.1,1.8-2.2,3.7-3.1,5.6c-1.9,3.8-3.5,7.8-4.5,11.9c-0.5,2-0.9,4.1-1.1,6.2c-0.2,2.1-0.3,4.2,0,6.3l0,0
			c0,0.2-0.1,0.4-0.3,0.5C330.2,376.4,330,376.3,329.9,376.1z"/>
	</g>
	<path class="st23" d="M347.1,348.2c-10.4,18.9-22.4,30.9-22.8,48.6c0,0-3.7-16.6-0.7-35.5C330.3,358.5,339.7,354,347.1,348.2z"/>
	<path class="st23" d="M330.3,415.4c0,0-7.6-12.9,10.3-28.9c17.9-16,31.9-37,29.2-54.1c-17.1,19.9-62.6,48.1-49.8,83L330.3,415.4z"
		/>
	<g class="st13">
		<path class="st24" d="M369.8,332.4c-1.7,3.8-4,7.2-6.5,10.6c-2.5,3.3-5.2,6.4-8.1,9.3c-2.9,3-6.1,5.6-9.2,8.3
			c-3.1,2.7-6,5.7-8.5,8.9c-5.1,6.5-9,13.9-11.4,21.7c-1.2,3.9-2,8-2.1,12.1c-0.1,4.1,0.4,8.2,2,12c0.1,0.2,0,0.4-0.2,0.5
			s-0.4,0-0.5-0.2l0,0c-1.7-3.9-2.2-8.2-2-12.3c0.2-4.2,1-8.3,2.2-12.3c2.5-7.9,6.5-15.3,11.7-21.8c2.6-3.2,5.5-6.2,8.7-8.9
			c3.2-2.6,6.4-5.2,9.3-8.2c2.9-2.9,5.7-6,8.2-9.3C365.8,339.6,368.1,336.2,369.8,332.4z"/>
	</g>
	<g>
		<path class="st17" d="M73.5,321.8c0,0-9.3-8.5-14.3-29.8c28.6,24.2,35.6,45.8,35.6,45.8L73.5,321.8z"/>
		<g class="st13">
			<path d="M59.2,292c4,5.7,7.9,11.4,11.7,17.3c1.9,2.9,3.7,5.9,5.5,8.8c1.8,3,3.5,6,5,9.2c0.1,0.2,0,0.4-0.2,0.5
				c-0.2,0.1-0.4,0-0.5-0.2c0,0,0,0,0,0l0,0c-1.4-3.2-3-6.2-4.8-9.2c-1.7-3-3.5-6-5.4-8.9C66.9,303.6,63.1,297.8,59.2,292z"/>
		</g>
		<path class="st5" d="M94.2,333.7c-5.1-4.6-12.8-9.2-20-14.2C64.6,313,55.6,305.8,54,297c-3.8,31.8,33.2,46.1,33.2,46.1l0.1,0.1
			l13.4,19.6C100.7,362.8,106.2,344.5,94.2,333.7z"/>
		<g class="st13">
			<path d="M54,297c0,3.5,1.1,7,2.5,10.2c1.6,3.2,3.7,6.1,6.2,8.5c2.5,2.5,5.4,4.5,8.4,6.4c3,1.9,6,3.8,8.9,5.8
				c5.8,4,11.4,8.6,15.3,14.6c4,6,5.8,13.2,5.8,20.3c0,0.2-0.2,0.4-0.4,0.4c-0.2,0-0.4-0.2-0.4-0.4v0c0.1-7-1.7-14.1-5.5-20
				c-3.8-5.9-9.3-10.6-15.1-14.6c-2.9-2-5.9-3.9-8.8-5.9c-2.9-2-5.8-4-8.4-6.5c-2.5-2.5-4.6-5.4-6.1-8.6C55,304,54,300.5,54,297z"/>
		</g>
	</g>
</g>
<g id="DESIGNED_BY_FREEPIK">
</g>
</svg>
