<?xml version="1.0" encoding="utf-8"?>
<!-- Generator: Adobe Illustrator 23.0.5, SVG Export Plug-In . SVG Version: 6.00 Build 0)  -->
<svg version="1.1" id="_x3C_Layer_x3E_" xmlns="http://www.w3.org/2000/svg" xmlns:xlink="http://www.w3.org/1999/xlink" x="0px"
	 y="0px" viewBox="0 0 2760 1789.4" style="enable-background:new 0 0 2760 1789.4;" xml:space="preserve">
<style type="text/css">
	.st0{fill:#FFFFFF;}
	.st1{fill:#EDF3F2;}
	.st2{fill:#25B0FF;}
	.st3{fill:#00374A;}
	.st4{fill:#E9F4FF;}
	.st5{fill:#FFB27D;}
	.st6{fill:#E9845C;}
	.st7{fill:#01497A;}
	.st8{fill:#331832;}
	.st9{fill:#EF8062;}
	.st10{fill:#71A99E;}
	.st11{fill:#020202;}
	.st12{fill:#080435;}
	.st13{fill:#DAEBE8;}
	.st14{fill:#764678;}
	.st15{fill:#92A5E6;}
	.st16{fill:#5C305D;}
	.st17{fill:#472849;}
	.st18{fill:#572D58;}
	.st19{fill:#366F90;}
	.st20{fill:#87DFF2;}
	.st21{fill:#4C80FF;}
	.st22{fill:#E7945E;}
	.st23{fill:#68A1BF;}
	.st24{fill:#B8D5DC;}
	.st25{opacity:0.3;}
	.st26{fill:#EC865C;}
	.st27{fill:#945C98;}
	.st28{fill:#0090EB;}
	.st29{fill:#6DA49A;}
	.st30{fill:#558F85;}
	.st31{fill:#BFD7D3;}
	.st32{fill:#E06E57;}
</style>
<rect class="st0" width="2760" height="1840"/>
<g>
	<path class="st1" d="M1895.5,868.4h-890.6c-3.1,0-5.7-2.5-5.8-5.6L989,328.7c-0.1-3.2,2.5-5.9,5.8-5.9h923.9c3.3,0,5.9,2.7,5.8,6
		l-23.2,534.1C1901.1,866,1898.6,868.4,1895.5,868.4z"/>
</g>
<g>
	<path class="st2" d="M1894.8,869.7h-889.2c-5.7,0-10.4-4.6-10.5-10.3L985,329.5c0-2.8,1-5.5,3-7.5c2-2,4.6-3.1,7.5-3.1h922.4
		c2.9,0,5.6,1.2,7.6,3.2c2,2.1,3,4.9,2.9,7.7l-23.2,529.9C1905,865.3,1900.4,869.7,1894.8,869.7z M995.5,326.8
		c-0.7,0-1.3,0.3-1.8,0.8c-0.5,0.5-0.7,1.1-0.7,1.8l10.1,529.9c0,1.4,1.1,2.4,2.5,2.4h889.2c1.3,0,2.4-1,2.5-2.4l23.2-529.9
		c0-0.7-0.2-1.3-0.7-1.8c-0.5-0.5-1.1-0.8-1.8-0.8H995.5z"/>
</g>
<g>
	<ellipse class="st3" cx="1407.3" cy="1433" rx="1135.1" ry="128.9"/>
</g>
<g>
	<ellipse class="st4" cx="1407.3" cy="1419.6" rx="1135.1" ry="121.5"/>
</g>
<g>
	<g>
		<path class="st5" d="M665.9,879c-7.4-0.9-14.5-3.4-21.2-7.5c-21.5-13.2-35.9-41.1-46.8-90.5c-5-22.7-19.6-50.2-19.7-50.4l48.5-26
			c0.7,1.4,18.3,34.3,25,64.6c3.8,17.2,5.8-91.1,15-101.4c5.7-6.3,28.6,4,28.6,4c3.7,13.9,12.8,42.6,18.2,85.9
			c3.3,26.2,4.6,47.7,4,63.9c-0.4,11.4-1.8,20.6-4.2,28.1c-6.3,19.7-19.6,25.9-26.9,27.8C679.5,879.4,672.6,879.9,665.9,879z"/>
	</g>
</g>
<g>
	<path class="st6" d="M673.1,873.7c-4.1,0-7.8-1.1-9.5-2.9c-0.7-0.7-1.1-1.5-1.1-2.4c0-1.5,1.2-2.9,3.3-3.9c2-0.9,4.6-1.4,7.4-1.4
		c0,0,0,0,0.1,0c6,0,10.7,2.3,10.7,5.3c0,1.5-1.2,2.9-3.3,3.9C678.6,873.2,676,873.7,673.1,873.7
		C673.2,873.7,673.2,873.7,673.1,873.7z M673.2,864.6C673.2,864.6,673.2,864.6,673.2,864.6c-2.6,0-5,0.5-6.8,1.3
		c-1.6,0.7-2.5,1.7-2.5,2.6c0,0.5,0.2,0.9,0.7,1.4c1.5,1.5,4.8,2.4,8.5,2.4c0,0,0,0,0.1,0c2.6,0,5-0.5,6.8-1.3
		c1.6-0.7,2.5-1.7,2.5-2.6C682.5,866.6,678.7,864.6,673.2,864.6z"/>
</g>
<g>
	<path class="st6" d="M646.1,824.8c-0.4,0-0.7-0.3-0.7-0.6c0-0.3-3.7-30.5,7.5-54.2c0.2-0.4,0.6-0.5,0.9-0.3c0.4,0.2,0.5,0.6,0.3,1
		c-11,23.3-7.4,53.1-7.4,53.4C646.9,824.3,646.6,824.7,646.1,824.8C646.2,824.8,646.2,824.8,646.1,824.8z"/>
</g>
<g>
	<path class="st7" d="M523,642.5c0,0,3-11-9.9-14.8c-13-3.7-4.1,26-36.3,22.8c-32.2-3.2-21.4,10.4-31.8,20.3
		c-10.4,9.9-55.8-12.8-72.2,26.2c-16.3,39,12.4,67.7,68.7,69.7s34.1,33.1,81.8,15.8c47.7-17.3,26.6-93.3,13.2-105.2
		C523.1,665.4,523,642.5,523,642.5z"/>
</g>
<g>
	<path class="st8" d="M552.7,1374.8c0,0,0.4,17.3,12.2,22.2c11.7,4.9,45.8,9.3,33,20.5c-7.3,6.4-41.7,2.3-51.4,2.3
		c-9.7,0-18.8,4.2-26-2.3c-7.9-7.1,0-42.7,0-42.7s8.4,4.4,15.9,4.2C547.3,1378.7,552.7,1374.8,552.7,1374.8z"/>
</g>
<g>
	<path class="st8" d="M417.9,1374.8c0,0,0.4,17.3,12.2,22.2c11.7,4.9,45.8,9.3,33,20.5c-7.3,6.4-41.7,2.3-51.4,2.3
		c-9.7,0-18.8,4.2-26-2.3c-7.9-7.1,0-42.7,0-42.7s8.4,4.4,15.9,4.2C412.5,1378.7,417.9,1374.8,417.9,1374.8z"/>
</g>
<g>
	<path class="st9" d="M640,899.3c0,0-0.8,80-7.3,221c-5,110.6-4,213.1-13.7,261.7c-3.5,17.4-131.7,8.5-130.3-10.6l30.4-341.7
		l5.8-108.2L640,899.3z"/>
</g>
<g>
	<path class="st8" d="M427.9,963.2c1.1,8.8,51,7.8,112.2,0c61.2-7.7,108.8-21,107.8-29.8c-1.1-8.8-50.4-9.9-111.6-2.2
		C475.1,938.9,426.9,954.3,427.9,963.2z"/>
</g>
<g>
	<path class="st9" d="M569.7,951.1l-113.9,430.8c-5.5,17.6-113.5,15.2-110.1-3.4L434.1,971c1-4.7,4.5-8.4,9-9.7
		C467.6,954.2,572.1,933.8,569.7,951.1z"/>
</g>
<g>
	<path class="st10" d="M451.4,714c0,0,11.6-39.1,73.5-36.9c34,1.2,69.7-8.3,85.6,44.9c15.4,51.5,32.1,132.3,37.4,211.3
		c0,0-101.4-22.2-220.2,29.6C427.8,963,424.2,785.3,451.4,714z"/>
</g>
<g>
	<path class="st10" d="M407.3,708.3l38.8,31.9c0,0,146.4,37.3,167.7,15.6c14.7-14.9,22.5-36.1,17.5-47.1c0,0-40.2-36.8-103.7-33.8
		c-9.2,0.4-15.4,0.7-24.4,0.2C451.4,672.1,407.3,708.3,407.3,708.3z"/>
</g>
<g>
	<path class="st11" d="M504.7,1201.4l-2.1-0.5l34.8-148.2c6.5-19.8,19.9-36.3,37.6-46.4l1.1,1.9c-17.3,9.9-30.3,25.9-36.6,45.1
		L504.7,1201.4z"/>
</g>
<g>
	<path class="st5" d="M500.2,675.2c6.8-0.7,12.7-5,15.4-11.3l8.5-19.7l2.5-5.7l14.5-33.6l-2.5,34.8l-1.5,20.9l-0.4,6
		c-0.4,4.9,3,9.2,7.8,10l0.1,0c2.6,4.2,6.1,12.7-4.5,16.1c-12.5,4-32.7-5.9-39.9-17.5C500.1,675.2,500.1,675.2,500.2,675.2z"/>
</g>
<g>
	<path class="st8" d="M525.8,642.8c0.8,11.2,11.1,17.9,11.1,17.9l0.1-0.1l1.5-20.9C534.8,638.4,525.8,642.7,525.8,642.8z"/>
</g>
<g>
	
		<ellipse transform="matrix(0.9429 -0.333 0.333 0.9429 -171.945 214.0493)" class="st5" cx="538.4" cy="608.6" rx="32.7" ry="40.4"/>
</g>
<g>
	<g>
		<path class="st12" d="M541.5,607.9c0.2-0.1,0.3-0.3,0.3-0.6c0-0.4-0.3-0.8-0.7-0.8c-0.2,0-5.8-0.8-8.4,5.2c-0.2,0.4,0,0.8,0.4,1
			c0.4,0.2,0.7,0,1-0.4c2.5-3.3,6.7-4.4,6.9-4.4C541.2,608,541.4,608,541.5,607.9z"/>
	</g>
</g>
<g>
	<path class="st12" d="M538.7,617.5c0.5,1.7,2,2.7,3.2,2.4c1.2-0.4,1.8-2.1,1.2-3.8c-0.5-1.7-2-2.7-3.2-2.4
		C538.7,614.2,538.1,615.9,538.7,617.5z"/>
</g>
<g>
	<g>
		<path class="st12" d="M567.8,602.7c0.2,0,0.4-0.2,0.5-0.4c0.2-0.4,0-0.8-0.4-1c-0.2-0.1-5.1-2.9-9.7,1.7c-0.3,0.3-0.3,0.8,0,1.1
			c0.3,0.3,0.7,0.2,1.1,0c3.5-2.1,7.9-1.5,8.1-1.4C567.5,602.7,567.7,602.7,567.8,602.7z"/>
	</g>
</g>
<g>
	<path class="st12" d="M561.5,610.6c-0.1,1.8,0.8,3.3,2.1,3.4c1.3,0.1,2.4-1.2,2.6-3c0.1-1.8-0.8-3.3-2.1-3.4
		C562.8,607.4,561.7,608.8,561.5,610.6z"/>
</g>
<g>
	<path class="st9" d="M477.1,953.6c0,0,122.1-23.3,161.7-12.3l-19,28.1l-70.6,4L477.1,953.6z"/>
</g>
<g>
	<path class="st7" d="M517.4,588.7c3.5,6.5,20.1,6.2,31.6,2.8c14.3-4.2,19.5,14,22.3,5.6c2.7-8.5,1.7-32.4-14.6-41.4
		c-16.4-9-54.1,1.1-56.5,14C496.6,588.6,514.3,583.1,517.4,588.7z"/>
</g>
<g>
	<path class="st7" d="M502.1,577c0,0,10.2-1,11.2,3.3c1.1,4.3,10.4,9.9,5.2,14.7c-5.3,4.8-6.2,6.9-4.5,11.5c1.2,3.2-2,12.3-1.7,19.5
		c0.1,3.1,3.9,8.5,3.9,8.5s-26.4,0.4-31.7-28C481,588,495.3,576.7,502.1,577z"/>
</g>
<g>
	
		<ellipse transform="matrix(0.4831 -0.8756 0.8756 0.4831 -276.0862 768.5439)" class="st5" cx="512.9" cy="618.1" rx="7.4" ry="9.3"/>
</g>
<g>
	
		<ellipse transform="matrix(0.5349 -0.8449 0.8449 0.5349 -411.295 711.012)" class="st12" cx="440.2" cy="729.1" rx="10.1" ry="38.9"/>
</g>
<g>
	<g>
		<path class="st5" d="M421.7,885.5c0,0,20.5-18.8,36.7-17.1c16.2,1.7,35.6,16,25.4,17.1c-10.3,1.1-23.7-1.1-23.7-1.1
			s28.6,6.1,24.3,12.1c-4.3,6.1-29.1,0.6-29.1,0.6s33.5,9.9,27.5,14.4c-5.9,4.4-31.3-3.3-31.3-3.3s30.8,10.5,23.7,15.5
			c-7,5-25.4-8.8-29.7-2.8c-4.3,6.1-12.4,29.8-30.8,19.9L421.7,885.5z"/>
	</g>
	<g>
		<path class="st6" d="M460,885c-0.1,0-0.1,0-0.2,0c-0.1,0-7.6-2.8-11.5-0.1c-0.3,0.2-0.7,0.1-0.8-0.1c-0.2-0.3-0.1-0.7,0.1-0.8
			c4.4-3.1,12.2-0.2,12.6-0.1c0.3,0.1,0.5,0.5,0.4,0.8C460.5,884.8,460.3,885,460,885z"/>
	</g>
	<g>
		<path class="st6" d="M440.8,897.7c-0.2,0-0.5-0.1-0.6-0.4c-0.1-0.3,0-0.7,0.3-0.8c6.9-3.1,14.5-0.1,14.8,0
			c0.3,0.1,0.5,0.5,0.3,0.8c-0.1,0.3-0.5,0.5-0.8,0.3c-0.1,0-7.4-2.9-13.9,0C441,897.7,440.9,897.7,440.8,897.7z"/>
	</g>
	<g>
		<path class="st6" d="M451.4,908.7c-0.1,0-0.1,0-0.2,0c-0.1,0-9.1-3.4-12.9-0.1c-0.3,0.2-0.6,0.2-0.8-0.1c-0.2-0.3-0.2-0.6,0.1-0.8
			c4.4-3.7,13.7-0.3,14.1-0.1c0.3,0.1,0.5,0.5,0.3,0.8C451.9,908.6,451.6,908.7,451.4,908.7z"/>
	</g>
</g>
<g>
	<g>
		<path class="st5" d="M700.5,707.3c0,0,29.4,2.5,41-9c11.5-11.5,17.6-34.9,8.9-29.3c-8.7,5.6-17.7,15.8-17.7,15.8
			s18.4-22.7,11.2-24.7c-7.2-2-23,17.9-23,17.9s19.7-28.8,12.3-28.5c-7.4,0.3-22.2,22.3-22.2,22.3s17.3-27.5,8.7-27
			c-8.6,0.6-14.1,22.8-21.3,20.8c-7.2-2-35.1-8.8-35.1,11.3L700.5,707.3z"/>
	</g>
	<g>
		<path class="st6" d="M723.3,693.1c-0.3,0-0.6-0.2-0.6-0.6c0-0.3,0.2-0.6,0.6-0.6c4.7-0.3,8.8-7.2,8.9-7.3c0.2-0.3,0.5-0.4,0.8-0.2
			c0.3,0.2,0.4,0.5,0.2,0.8C732.9,685.5,728.7,692.7,723.3,693.1C723.3,693.1,723.3,693.1,723.3,693.1z"/>
	</g>
	<g>
		<path class="st6" d="M709.7,687.7c-0.3,0-0.5-0.2-0.6-0.4c-0.1-0.3,0.1-0.7,0.4-0.7c6.8-1.8,10.8-8.7,10.8-8.8
			c0.2-0.3,0.5-0.4,0.8-0.2c0.3,0.2,0.4,0.5,0.2,0.8c-0.2,0.3-4.2,7.4-11.5,9.3C709.8,687.7,709.7,687.7,709.7,687.7z"/>
	</g>
	<g>
		<path class="st6" d="M700.6,681c-0.4,0-0.7-0.2-0.7-0.6c0-0.3,0.3-0.6,0.6-0.6c0,0,0,0,0.1,0c5,0,9.8-8.1,9.9-8.2
			c0.2-0.3,0.5-0.4,0.8-0.2c0.3,0.2,0.4,0.5,0.2,0.8C711.3,672.6,706.2,681,700.6,681z"/>
	</g>
</g>
<g>
	<g>
		<path class="st5" d="M414.7,940.7c-28-10.7-69.3-37.3-77.2-78.6c-6.1-31.8,5.4-68,34.1-107.7c19.4-26.9,41.4-41.7,42.3-42.5
			c0,0,8.4-2,26.8,9.1c22.1,13.4,25.5,25.9,25.5,25.9c-21.2,19.6-72.2,60-70.3,91c1.1,18.2,13.1,35,33.4,42.8L414.7,940.7z"/>
	</g>
</g>
<g>
	<path class="st0" d="M554.4,633.4c0,2-1.2,3.6-2.7,3.6c-1.5,0-2.7-1.6-2.7-3.6c0-2,1.2-3.6,2.7-3.6
		C553.2,629.9,554.4,631.5,554.4,633.4z"/>
</g>
<g>
	<path class="st9" d="M1401.5,560.4l-50.6,11.1c0,0-5.5-9.5-7.4-20.4c-2.3-13.5-2.2-23.4-2.2-23.4l50.6-11.1c0,0-0.2,11.4,2.8,25.1
		C1396,547.5,1401.5,560.4,1401.5,560.4z"/>
</g>
<g>
	<g>
		<path class="st7" d="M1326.2,560.4l-50.6,11.1c0,0-5.5-9.5-7.4-20.4c-2.3-13.5-2.2-23.4-2.2-23.4l50.6-11.1c0,0-0.2,11.4,2.8,25.1
			C1320.7,547.5,1326.2,560.4,1326.2,560.4z"/>
	</g>
</g>
<g>
	<g>
		<path class="st7" d="M1412.8,688.9l-50.6,11.1c0,0-5.5-9.5-7.4-20.4c-2.3-13.5-2.2-23.4-2.2-23.4l50.6-11.1c0,0-0.2,11.4,2.8,25.1
			C1407.2,676.1,1412.8,688.9,1412.8,688.9z"/>
	</g>
</g>
<g>
	<g>
		<path class="st7" d="M1333.7,688.9l-50.6,11.1c0,0-5.5-9.5-7.4-20.4c-2.3-13.5-2.2-23.4-2.2-23.4l50.6-11.1c0,0-0.2,11.4,2.8,25.1
			C1328.2,676.1,1333.7,688.9,1333.7,688.9z"/>
	</g>
</g>
<g>
	<g>
		<path class="st7" d="M1244.6,693.9l-50.6,11.1c0,0-5.5-9.5-7.4-20.4c-2.3-13.5-2.2-23.4-2.2-23.4l50.6-11.1c0,0-0.2,11.4,2.8,25.1
			C1239,681.1,1244.6,693.9,1244.6,693.9z"/>
	</g>
</g>
<g>
	<g>
		<path class="st7" d="M1160.9,701.3l-51.7,3.6c0,0-4.1-10.2-4.3-21.3c-0.3-13.7,1.3-23.4,1.3-23.4l51.7-3.6c0,0-1.9,11.3-0.9,25.2
			C1157.3,687.8,1160.9,701.3,1160.9,701.3z"/>
	</g>
</g>
<g>
	<path class="st9" d="M1136.7,574.3l50.6,11.1c0,0,5.5-9.5,7.4-20.4c2.3-13.5,2.2-23.4,2.2-23.4l-50.6-11.1c0,0,0.2,11.4-2.8,25.1
		C1142.3,561.5,1136.7,574.3,1136.7,574.3z"/>
</g>
<g>
	<g>
		<path class="st7" d="M1129,560.4l-50.6,11.1c0,0-5.5-9.5-7.4-20.4c-2.3-13.5-2.2-23.4-2.2-23.4l50.6-11.1c0,0-0.2,11.4,2.8,25.1
			C1123.4,547.5,1129,560.4,1129,560.4z"/>
	</g>
</g>
<g>
	<g>
		<path class="st10" d="M1211.2,457.3c0.7,8,0.9,15.9,0.6,23.9c-0.1,3.2,4.9,3.2,5,0c0.3-8,0.1-15.9-0.6-23.9
			C1215.8,454.1,1210.9,454.1,1211.2,457.3L1211.2,457.3z"/>
	</g>
</g>
<g>
	<g>
		<path class="st10" d="M1124,505.5c0-26.2,61.5-19.1,79.7-19.8c8.2-0.3,105.9-1.7,103.8,3.9c-1.1,3,3.7,4.3,4.8,1.3
			c5.6-15.3-18.1-12.1-26.3-12.1c-54.9,0.2-109.8,2.6-164.5,6.4c-1.3,0.1-2.5,1.1-2.5,2.5c0,5.9,0,11.8,0,17.7
			C1119,508.7,1124,508.7,1124,505.5L1124,505.5z"/>
	</g>
</g>
<g>
	<g>
		<path class="st10" d="M1228.7,523.1c0,27.7,0,55.4,0,83c0,4.1,6.4,4.1,6.4,0c0-27.7,0-55.4,0-83
			C1235.2,518.9,1228.7,518.9,1228.7,523.1L1228.7,523.1z"/>
	</g>
</g>
<g>
	<g>
		<path class="st10" d="M1130.4,636.2c1.6-21.3,241.4-33.5,244.5-8.2c0.4,3.1,5.4,3.2,5,0c-0.7-5.8-1.4-11.7-2.1-17.5
			c-0.2-1.3-1-2.6-2.5-2.5c-66,2.8-132,5.6-197.9,8.4c-18.6,0.8-50-4.9-51.8,19.9C1125.2,639.4,1130.2,639.4,1130.4,636.2
			L1130.4,636.2z"/>
	</g>
</g>
<g>
	<g>
		<path class="st10" d="M1205.8,619.4c1.3,6.6,2,13.8,2,20.5c0,3.2,5,3.2,5,0c0-7.1-0.8-14.8-2.2-21.8
			C1210,615,1205.2,616.3,1205.8,619.4L1205.8,619.4z"/>
	</g>
</g>
<g>
	<g>
		<path class="st10" d="M1301,614.7c0.4,6.1-0.4,12.2,0,18.3c0.2,3.2,5.2,3.2,5,0c-0.4-6.1,0.4-12.2,0-18.3
			C1305.8,611.5,1300.8,611.5,1301,614.7L1301,614.7z"/>
	</g>
</g>
<g>
	<path class="st7" d="M1532,452.6l-51.6,5.1c0,0-4.4-10.1-5-21.2c-0.7-13.7,0.6-23.5,0.6-23.5l51.6-5.1c0,0-1.6,11.3-0.2,25.2
		C1528,439.2,1532,452.6,1532,452.6z"/>
</g>
<g>
	<path class="st7" d="M1578.4,743.4l-50.6,11.1c0,0-5.5-9.5-7.4-20.4c-2.3-13.5-2.2-23.4-2.2-23.4l50.6-11.1c0,0-0.2,11.4,2.8,25.1
		C1572.9,730.6,1578.4,743.4,1578.4,743.4z"/>
</g>
<g>
	<path class="st7" d="M1718,743.4l-50.6,11.1c0,0-5.5-9.5-7.4-20.4c-2.3-13.5-2.2-23.4-2.2-23.4l50.6-11.1c0,0-0.2,11.4,2.8,25.1
		C1712.4,730.6,1718,743.4,1718,743.4z"/>
</g>
<g>
	<path class="st7" d="M1643,748.8l-51.6-4.6c0,0-2.4-10.7-1-21.7c1.8-13.6,4.9-23,4.9-23l51.6,4.6c0,0-3.6,10.9-4.9,24.7
		C1641.6,734.9,1643,748.8,1643,748.8z"/>
</g>
<g>
	<g>
		<path class="st7" d="M1544.5,429.7c31.9-3.8,63.7-5.1,95.8-3.9c3.2,0.1,3.2-4.9,0-5c-32.1-1.2-63.9,0.1-95.8,3.9
			C1541.3,425,1541.3,430,1544.5,429.7L1544.5,429.7z"/>
	</g>
</g>
<g>
	<g>
		<path class="st7" d="M1731.9,426c22.3-1.5,44.5-3.1,66.8-4.6c3.2-0.2,3.2-5.2,0-5c-22.3,1.5-44.5,3.1-66.8,4.6
			C1728.7,421.2,1728.7,426.2,1731.9,426L1731.9,426z"/>
	</g>
</g>
<g>
	<g>
		<path class="st7" d="M1503.2,472.9c0,11,0,21.9,0,32.9c0,3.2,5,3.2,5,0c0-11,0-21.9,0-32.9
			C1508.2,469.6,1503.2,469.6,1503.2,472.9L1503.2,472.9z"/>
	</g>
</g>
<g>
	<g>
		<path class="st7" d="M1506.7,510c33.3,0.6,66.5-0.8,99.6-4.3c3.2-0.3,3.2-5.3,0-5c-33.1,3.5-66.3,5-99.6,4.3
			C1503.5,504.9,1503.5,509.9,1506.7,510L1506.7,510z"/>
	</g>
</g>
<g>
	<g>
		<path class="st7" d="M1558.4,509.7c0.5,17.2,1,34.4,1.5,51.6c0.2,7.8-3.3,25.8,2.7,32.1c4.7,5,16.7,2.3,22.4,2
			c16.2-0.6,32.2-2.9,48.1-6.3c3.1-0.7,1.8-5.5-1.3-4.8c-13.3,2.8-26.8,4.9-40.4,5.8c-5.1,0.3-10.8,1.1-16,0.6
			c-9.6-1.1-8.6-0.5-10-10c-3.2-22.9-1.4-47.8-2-70.9C1563.3,506.5,1558.3,506.5,1558.4,509.7L1558.4,509.7z"/>
	</g>
</g>
<g>
	<g>
		<path class="st7" d="M1562.2,552.8c11-1.7,22.1-2.2,33.2-1.7c3.2,0.2,3.2-4.8,0-5c-11.6-0.5-23.1,0.1-34.6,1.9
			C1557.7,548.5,1559,553.3,1562.2,552.8L1562.2,552.8z"/>
	</g>
</g>
<g>
	<g>
		<path class="st7" d="M1725.3,506.1c12.7-12.2,27.1-22.1,42.8-29.9c2.9-1.4,0.4-5.7-2.5-4.3c-16.2,8-30.8,18.2-43.9,30.7
			C1719.5,504.8,1723,508.3,1725.3,506.1L1725.3,506.1z"/>
	</g>
</g>
<g>
	<g>
		<path class="st7" d="M1734.9,543.2c16.6-1.7,33.2-2.1,49.8-1.2c3.2,0.2,3.2-4.8,0-5c-16.7-0.9-33.2-0.5-49.8,1.2
			C1731.8,538.5,1731.7,543.5,1734.9,543.2L1734.9,543.2z"/>
	</g>
</g>
<g>
	<g>
		<path class="st7" d="M1738.3,583.1c14.3,10.3,28.6,20.5,42.9,30.8c2.6,1.9,5.1-2.4,2.5-4.3c-14.3-10.3-28.6-20.5-42.9-30.8
			C1738.3,576.9,1735.8,581.2,1738.3,583.1L1738.3,583.1z"/>
	</g>
</g>
<g>
	<g>
		<path class="st7" d="M1597.9,597.4c0,10.3,0,20.6,0,30.9c0,3.2,5,3.2,5,0c0-10.3,0-20.6,0-30.9
			C1602.9,594.2,1597.9,594.2,1597.9,597.4L1597.9,597.4z"/>
	</g>
</g>
<g>
	<g>
		<path class="st7" d="M1551.3,686.1c-0.2-5.3-2.4-15.6-0.6-20.5c3.8-10,11.6-9.8,19.7-11.1c13.6-2.2,29.5-0.4,43.2-0.5
			c12.8-0.2,25.6-0.3,38.4-0.5c10.8-0.1,12.4-2.1,19.2,7.1c6.4,8.6,5,14.2,4.2,24.5c-0.2,3.2,4.7,3.2,5,0c0.9-12.1,0.3-23.2-1.9-35
			c-0.2-1.1-1.4-1.8-2.4-1.8c-24,0.3-48.1,0.6-72.1,0.9c-17.1,0.2-40.1-3.7-56.4,1.7c-0.8,0.3-1.6,0.9-1.7,1.7
			c-2,10.5,0.1,23,0.4,33.6C1546.5,689.3,1551.4,689.3,1551.3,686.1L1551.3,686.1z"/>
	</g>
</g>
<g>
	<g>
		<path class="st7" d="M1610.8,652.5c-1.8,10.2-2.4,20.3-1.8,30.6c0.2,3.2,5.2,3.2,5,0c-0.6-9.8-0.1-19.5,1.6-29.3
			C1616.1,650.7,1611.3,649.4,1610.8,652.5L1610.8,652.5z"/>
	</g>
</g>
<g>
	<path class="st7" d="M1704.1,440.1l-39.6,3.9c0,0-3.4-7.7-3.8-16.3c-0.6-10.5,0.4-18,0.4-18l39.6-3.9c0,0-1.2,8.7-0.1,19.4
		C1701.1,429.9,1704.1,440.1,1704.1,440.1z"/>
</g>
<g>
	<path class="st7" d="M1852.9,434l-39.6,3.9c0,0-3.4-7.7-3.8-16.3c-0.6-10.5,0.4-18,0.4-18l39.6-3.9c0,0-1.2,8.7-0.1,19.4
		C1849.9,423.7,1852.9,434,1852.9,434z"/>
</g>
<g>
	<path class="st7" d="M1826.1,482.8l-39.6,3.9c0,0-3.4-7.7-3.8-16.3c-0.6-10.5,0.4-18,0.4-18l39.6-3.9c0,0-1.2,8.7-0.1,19.4
		C1823.1,472.6,1826.1,482.8,1826.1,482.8z"/>
</g>
<g>
	<path class="st9" d="M1847.9,544l-39.6,3.9c0,0-3.4-7.7-3.8-16.3c-0.6-10.5,0.4-18,0.4-18l39.6-3.9c0,0-1.2,8.7-0.1,19.4
		C1844.9,533.7,1847.9,544,1847.9,544z"/>
</g>
<g>
	<path class="st7" d="M1842.3,621.9l-39.6,3.9c0,0-3.4-7.7-3.8-16.3c-0.6-10.5,0.4-18,0.4-18l39.6-3.9c0,0-1.2,8.7-0.1,19.4
		C1839.2,611.6,1842.3,621.9,1842.3,621.9z"/>
</g>
<g>
	<path class="st7" d="M1662,515.1l-39.6,3.9c0,0-3.4-7.7-3.8-16.3c-0.6-10.5,0.4-18,0.4-18l39.6-3.9c0,0-1.2,8.7-0.1,19.4
		C1659,504.8,1662,515.1,1662,515.1z"/>
</g>
<g>
	<path class="st7" d="M1683.9,608.3l-39.6,3.9c0,0-3.4-7.7-3.8-16.3c-0.6-10.5,0.4-18,0.4-18l39.6-3.9c0,0-1.2,8.7-0.1,19.4
		C1680.8,598.1,1683.9,608.3,1683.9,608.3z"/>
</g>
<g>
	<path class="st9" d="M1618.4,566.6l39.6,3.9c0,0,3.4-7.7,3.8-16.3c0.6-10.5-0.4-18-0.4-18l-39.6-3.9c0,0,1.2,8.7,0.1,19.4
		C1621.5,556.3,1618.4,566.6,1618.4,566.6z"/>
</g>
<g>
	<g>
		<path class="st9" d="M1045.7,808.5c28.9,1.3,57.8,2.6,86.7,3.9c3.2,0.1,3.2-4.8,0-5c-28.9-1.3-57.8-2.6-86.7-3.9
			C1042.5,803.4,1042.5,808.4,1045.7,808.5L1045.7,808.5z"/>
	</g>
</g>
<g>
	<g>
		<path class="st9" d="M1048,822.6c9.3,1.5,18.5,2.1,28,1.7c3.2-0.1,3.2-5.1,0-5c-9,0.4-17.8-0.1-26.6-1.5
			C1046.2,817.3,1044.8,822.1,1048,822.6L1048,822.6z"/>
	</g>
</g>
<g>
	<g>
		<path class="st9" d="M1096.5,825.5c18.8,0,37.6,0,56.5,0c3.2,0,3.2-5,0-5c-18.8,0-37.6,0-56.5,0
			C1093.3,820.5,1093.3,825.5,1096.5,825.5L1096.5,825.5z"/>
	</g>
</g>
<g>
	<g>
		<path class="st10" d="M1203.5,810.2c26.4-2,52.7-2.3,79.1-0.8c3.2,0.2,3.2-4.8,0-5c-26.4-1.5-52.7-1.2-79.1,0.8
			C1200.3,805.5,1200.3,810.5,1203.5,810.2L1203.5,810.2z"/>
	</g>
</g>
<g>
	<g>
		<path class="st10" d="M1211.5,827c8.2-1.4,16.3-1.7,24.6-1.1c3.2,0.2,3.2-4.8,0-5c-8.7-0.6-17.3-0.2-25.9,1.3
			C1207,822.7,1208.3,827.5,1211.5,827L1211.5,827z"/>
	</g>
</g>
<g>
	<g>
		<path class="st10" d="M1253.3,825.6c16.6-1.4,33.2-1.7,49.8-1.1c3.2,0.1,3.2-4.9,0-5c-16.6-0.6-33.2-0.3-49.8,1.1
			C1250.1,820.9,1250.1,825.9,1253.3,825.6L1253.3,825.6z"/>
	</g>
</g>
<g>
	<g>
		<path class="st10" d="M1212.1,843c31,0.4,62-0.4,93-2.4c3.2-0.2,3.2-5.2,0-5c-31,2-62,2.8-93,2.4
			C1208.9,837.9,1208.9,842.9,1212.1,843L1212.1,843z"/>
	</g>
</g>
<g>
	<g>
		<path class="st10" d="M1050.7,748.8c-7.5,8.1-12.4,18.9-2.9,27.6c7.1,6.6,23,8.2,30.7,1.7c7.8-6.6,10.5-22,3.6-29.8
			c-8.5-9.6-22.3-6.6-31.4,0.2c-2.5,1.9,0,6.2,2.5,4.3c5.5-4.2,12.5-7.5,19.5-4.9c10.2,3.7,10.1,16,4.5,23.7
			c-4.7,6.4-15.5,6.8-22.3,3.6c-11.2-5.3-7.5-15.6-0.8-22.9C1056.4,750,1052.9,746.4,1050.7,748.8L1050.7,748.8z"/>
	</g>
</g>
<g>
	<g>
		<path class="st10" d="M1057.7,760.8c1.3,2.2,2.7,4,4.4,5.8c1.2,1.3,3,0.7,3.9-0.5c6.7-9.2,14.9-16.8,24.5-23
			c2.7-1.7,0.2-6-2.5-4.3c-10.3,6.6-19.1,14.9-26.3,24.7c1.3-0.2,2.6-0.3,3.9-0.5c-1.5-1.4-2.7-3-3.6-4.8
			C1060.4,755.5,1056.1,758,1057.7,760.8L1057.7,760.8z"/>
	</g>
</g>
<g>
	<g>
		<path class="st10" d="M1215.6,748.8c-7.5,8.1-12.4,18.9-2.9,27.6c7.1,6.6,23,8.2,30.7,1.7c7.8-6.6,10.5-22,3.6-29.8
			c-8.5-9.6-22.3-6.6-31.4,0.2c-2.5,1.9,0,6.2,2.5,4.3c5.5-4.2,12.5-7.5,19.5-4.9c10.2,3.7,10.1,16,4.5,23.7
			c-4.7,6.4-15.5,6.8-22.3,3.6c-11.2-5.3-7.5-15.6-0.8-22.9C1221.3,750,1217.8,746.4,1215.6,748.8L1215.6,748.8z"/>
	</g>
</g>
<g>
	<g>
		<path class="st10" d="M1222.6,760.8c1.3,2.2,2.7,4,4.4,5.8c1.2,1.3,3,0.7,3.9-0.5c6.7-9.2,14.9-16.8,24.5-23
			c2.7-1.7,0.2-6-2.5-4.3c-10.3,6.6-19.1,14.9-26.3,24.7c1.3-0.2,2.6-0.3,3.9-0.5c-1.5-1.4-2.7-3-3.6-4.8
			C1225.3,755.5,1221,758,1222.6,760.8L1222.6,760.8z"/>
	</g>
</g>
<g>
	<g>
		<path class="st10" d="M1350.7,810.2c26.4-2,52.7-2.3,79.1-0.8c3.2,0.2,3.2-4.8,0-5c-26.4-1.5-52.7-1.2-79.1,0.8
			C1347.5,805.5,1347.5,810.5,1350.7,810.2L1350.7,810.2z"/>
	</g>
</g>
<g>
	<g>
		<path class="st10" d="M1358.6,827c8.2-1.4,16.3-1.7,24.6-1.1c3.2,0.2,3.2-4.8,0-5c-8.7-0.6-17.3-0.2-25.9,1.3
			C1354.2,822.7,1355.5,827.5,1358.6,827L1358.6,827z"/>
	</g>
</g>
<g>
	<g>
		<path class="st10" d="M1400.5,825.6c16.6-1.4,33.2-1.7,49.8-1.1c3.2,0.1,3.2-4.9,0-5c-16.6-0.6-33.2-0.3-49.8,1.1
			C1397.3,820.9,1397.3,825.9,1400.5,825.6L1400.5,825.6z"/>
	</g>
</g>
<g>
	<g>
		<path class="st10" d="M1359.3,843c31,0.4,62-0.4,93-2.4c3.2-0.2,3.2-5.2,0-5c-31,2-62,2.8-93,2.4
			C1356.1,837.9,1356.1,842.9,1359.3,843L1359.3,843z"/>
	</g>
</g>
<g>
	<g>
		<path class="st10" d="M1362.8,748.8c-7.5,8.1-12.4,18.9-2.9,27.6c7.1,6.6,23,8.2,30.7,1.7c7.8-6.6,10.5-22,3.6-29.8
			c-8.5-9.6-22.3-6.6-31.4,0.2c-2.5,1.9,0,6.2,2.5,4.3c5.5-4.2,12.5-7.5,19.5-4.9c10.2,3.7,10.1,16,4.5,23.7
			c-4.7,6.4-15.5,6.8-22.3,3.6c-11.2-5.3-7.5-15.6-0.8-22.9C1368.5,750,1365,746.4,1362.8,748.8L1362.8,748.8z"/>
	</g>
</g>
<g>
	<g>
		<path class="st10" d="M1369.8,760.8c1.3,2.2,2.7,4,4.4,5.8c1.2,1.3,3,0.7,3.9-0.5c6.7-9.2,14.9-16.8,24.5-23
			c2.7-1.7,0.2-6-2.5-4.3c-10.3,6.6-19.1,14.9-26.3,24.7c1.3-0.2,2.6-0.3,3.9-0.5c-1.5-1.4-2.7-3-3.6-4.8
			C1372.5,755.5,1368.2,758,1369.8,760.8L1369.8,760.8z"/>
	</g>
</g>
<g>
	<g>
		<path class="st13" d="M1242.7,405.9c0,8.8-3.5,16.7-9.2,22.5c-5.8,5.8-13.8,9.5-22.7,9.5c-8.9,0-16.9-3.6-22.7-9.5
			c-5.7-5.8-9.2-13.7-9.2-22.5c0-17.6,14.3-31.9,31.9-31.9S1242.7,388.2,1242.7,405.9z"/>
	</g>
	<g>
		
			<ellipse transform="matrix(0.2298 -0.9732 0.9732 0.2298 543.7841 1486.137)" class="st10" cx="1210.8" cy="399.5" rx="11.4" ry="11.4"/>
	</g>
	<g>
		<path class="st10" d="M1233.5,428.3c-5.8,5.8-13.8,9.5-22.7,9.5c-8.9,0-16.9-3.6-22.7-9.5c1.7-8.5,8-15.4,16.3-17.7
			c2-0.6,4.2-0.9,6.4-0.9c2.2,0,4.4,0.3,6.4,0.9C1225.4,413,1231.8,419.8,1233.5,428.3z"/>
	</g>
</g>
<g>
	<path class="st10" d="M1829.8,803.3h-72.9c-4.5,0-8.1-3.7-8.1-8.1V674.6c0-4.5,3.7-8.1,8.1-8.1h72.9c4.5,0,8.1,3.7,8.1,8.1v120.6
		C1837.9,799.7,1834.3,803.3,1829.8,803.3z M1756.9,670.4c-2.3,0-4.2,1.9-4.2,4.1v120.6c0,2.3,1.9,4.1,4.2,4.1h72.9
		c2.3,0,4.2-1.9,4.2-4.1V674.6c0-2.3-1.9-4.1-4.2-4.1H1756.9z"/>
</g>
<g>
	<g>
		<path class="st10" d="M1765.9,685.8c7.9-0.6,15.7-0.5,23.6,0.3c3.2,0.3,3.2-4.6,0-5c-7.9-0.8-15.7-0.9-23.6-0.3
			C1762.7,681.1,1762.7,686,1765.9,685.8L1765.9,685.8z"/>
	</g>
</g>
<g>
	<g>
		<path class="st10" d="M1766.2,697.1c10.5,0.3,21,0.7,31.6,1c3.2,0.1,3.2-4.9,0-5c-10.5-0.3-21-0.7-31.6-1
			C1763,692,1763,697,1766.2,697.1L1766.2,697.1z"/>
	</g>
</g>
<g>
	<path class="st10" d="M1784.9,741h-15.2c-2.2,0-4-1.8-4-4v-15.2c0-2.2,1.8-4,4-4h15.2c2.2,0,4,1.8,4,4V737
		C1788.9,739.2,1787.1,741,1784.9,741z"/>
</g>
<g>
	<path class="st10" d="M1817,741h-15.2c-2.2,0-4-1.8-4-4v-15.2c0-2.2,1.8-4,4-4h15.2c2.2,0,4,1.8,4,4V737
		C1821.1,739.2,1819.3,741,1817,741z"/>
</g>
<g>
	<path class="st10" d="M1784.9,776.7h-15.2c-2.2,0-4-1.8-4-4v-15.2c0-2.2,1.8-4,4-4h15.2c2.2,0,4,1.8,4,4v15.2
		C1788.9,774.9,1787.1,776.7,1784.9,776.7z"/>
</g>
<g>
	<path class="st10" d="M1817,776.7h-15.2c-2.2,0-4-1.8-4-4v-15.2c0-2.2,1.8-4,4-4h15.2c2.2,0,4,1.8,4,4v15.2
		C1821.1,774.9,1819.3,776.7,1817,776.7z"/>
</g>
<g>
	<polygon class="st8" points="1557.7,1399.2 1571.1,1402.6 1570.2,1193.6 1559.9,1199 	"/>
</g>
<g>
	<path class="st8" d="M1518,1409.3c0,0,71.1,1.3,94.8,1.5c2.6,0,4.5-3.6,4.5-6.2l0,0c0-2.6-3.8-5.7-6.4-5.7c-23.2,0.1-92.8,1-92.8,1
		c-2.6,0-4.7,2.1-4.7,4.7l0,0C1513.2,1407.2,1515.4,1409.3,1518,1409.3z"/>
</g>
<g>
	<path class="st8" d="M1613.9,1417.8c-0.9-5.2-5.4-8.5-10.7-8.5s-10.7,3.5-10.7,8.7c0,6.6,6.6,11.2,11.9,11.2
		C1609.7,1429.3,1615,1424.4,1613.9,1417.8z"/>
</g>
<g>
	<path class="st8" d="M1538,1417.8c-0.9-5.2-5.4-8.5-10.7-8.5s-10.7,3.5-10.7,8.7c0,6.6,6.6,11.2,11.9,11.2
		C1533.8,1429.3,1539.1,1424.4,1538,1417.8z"/>
</g>
<g>
	<path class="st8" d="M1595,1211c0,0,2.6,17-23.7,22.4c-26.2,5.5-37.5-22.4-37.5-22.4H1595z"/>
</g>
<g>
	<path class="st9" d="M1513.3,1178.3c-0.3-31.7,1.1-168.2,45.5-180.1c50.3-13.5,110.4-35.8,133.7,6.3c15.2,27.6-9.7,76.9-21.1,123.6
		c-6,24.4-24.7,85.8-48.9,87.9c-12.9,1.1-165.9,6.1-165.9,0C1456.6,1175.9,1490.9,1184.7,1513.3,1178.3z"/>
</g>
<g>
	<path class="st5" d="M1444.7,912.5c0,0-64.5,88.7-66.7,112.8c-2.2,24.2-10.4,40.2,36,22.9c33.5-12.5,69-89.8,69-89.8l-14.4-29.3
		L1444.7,912.5z"/>
</g>
<g>
	<g>
		<path class="st8" d="M1330.7,1379.2c0,0-0.2,15.9-11,20.5c-10.8,4.6-42.3,9.1-30.4,19.2c6.8,5.8,38.6,1.6,47.6,1.5
			c9-0.1,17.5,3.7,24.1-2.4c7.3-6.6-0.5-39.1-0.5-39.1s-7.7,4.1-14.7,4C1335.7,1382.7,1330.7,1379.2,1330.7,1379.2z"/>
	</g>
	<g>
		<path class="st8" d="M1234.5,1376.6c0,0-0.2,15.9-11,20.6s-42.3,9.1-30.3,19.2c6.8,5.8,38.6,1.5,47.6,1.4c9-0.1,17.5,3.6,24.1-2.4
			c7.3-6.7-0.6-39.1-0.6-39.1s-7.7,4.1-14.7,4C1239.6,1380.1,1234.5,1376.6,1234.5,1376.6z"/>
	</g>
	<g>
		<g>
			<path class="st14" d="M1242.8,1383.4c-18.6-2.1-32.2-18.3-30.9-36.7c7.2-104.2,17.1-156.7,52.7-200.2
				c22.9-27.9,56.3-54.4,96.3-68.9c34.5-12.5,63.6-17.8,101.4-16.7c61.6,1.7,89.7,13.2,89.7,13.2c37.7,98.5-35.4,104.9-88.9,103
				c-1.8-0.1-3.5-0.1-5.3-0.2c-32.4-0.7-90.5,2.5-115,32.3c-19.4,23.6-34.4,57.9-47.3,148.4c-2.5,17.4-18.5,29.6-36.1,27.7
				L1242.8,1383.4z"/>
		</g>
	</g>
	<g>
		<g>
			<path class="st14" d="M1331.1,1396.4c-18.6-2.1-32.2-18.3-30.9-36.7c7.2-104.2,17.1-156.7,52.7-200.2
				c22.9-27.9,55.3-47.7,96.5-58.8c29.4-7.9,63.4-11.4,101.2-10.4c61.6,1.7,71.1-15.4,71.1-15.4c39,125.3-121.5,96.3-173.2,143.9
				c-22.5,20.7-51.8,61.3-64.7,151.8c-2.5,17.4-18.5,29.6-36.1,27.7L1331.1,1396.4z"/>
		</g>
	</g>
	<g>
		<path class="st15" d="M1644.1,909.8c0,0-39-48.9-103.6-45.4c-64.7,3.4-91.7,89.4-127.8,199.5c0,0-0.1,11.7,54.3,26.3
			c35.3,9.5,73.5-0.4,144.2,45.6c16.7,10.8,49-1.8,50.1-21.5C1663.5,1075,1671.4,999.4,1644.1,909.8z"/>
	</g>
	<g>
		<path class="st15" d="M1680.9,918.3l-56.8,17.8c0,0-117.6,13.6-149,8.6c-31.4-5-40.3-29.5-40.3-29.5s32.7-37.6,89.2-48.6
			c5.3-1,10.8-1.8,16.5-2.3c9.6-0.8,18.8-1.7,28.2-0.7C1660.7,873.2,1680.9,918.3,1680.9,918.3z"/>
	</g>
	<g>
		<path class="st8" d="M1680.9,918.3c3,6.7-10.3,13-26.6,19c-16.3,6-30.9,7.2-32.5,2.7c-1.6-4.5,10.3-13,26.6-19
			C1664.7,915,1678.9,913.9,1680.9,918.3z"/>
	</g>
	<g>
		<path class="st5" d="M1552.1,855.7l-9.7-17l-2.8-4.9l-16.7-29.1l5.6,31.3l3.3,18.8l1.1,5.9c0.7,4-1.6,5.4-3.8,9.5
			c-0.9,1.7-6.8,11.9,2.9,13.8c12.1,2.4,31-9.3,36.7-20.5C1568.6,863.6,1555.3,861.2,1552.1,855.7z"/>
	</g>
	<g>
		<g>
			<path class="st16" d="M1495.2,798.4c0,0-0.3,8,3.8,17c4.1,9,8.7-16.3,8.7-16.3L1495.2,798.4z"/>
		</g>
		<g>
			
				<ellipse transform="matrix(0.996 -8.988122e-02 8.988122e-02 0.996 -67.1669 140.5465)" class="st5" cx="1526.9" cy="816" rx="28.7" ry="34.2"/>
		</g>
		<g>
			<path class="st8" d="M1554.1,803.9l-13.9,1.5c-3.1,0.3-6.1-0.7-8.3-2.8c-3.7-3.7-7.6-5.2-20.1-2c-15.9,4.1-28.6-3.1-32.1-11
				c-3.6-8.1,3.3-15.6,12.2-13.3c8.9,2.3,3.3-6.9,10.8-9.6c14-5.1,19.2,5.3,30.9,2.4c15.4-3.8,45.8,1.8,38.6,31.7L1554.1,803.9z"/>
		</g>
		<g>
			<g>
				<path class="st12" d="M1525.2,815c-0.2-0.1-0.3-0.2-0.4-0.4c-0.1-0.3,0.1-0.6,0.4-0.7c0.2-0.1,4.2-1.7,7.4,2.3
					c0.2,0.3,0.2,0.6-0.1,0.8c-0.3,0.2-0.6,0.1-0.8-0.1c-2.5-2-6-1.9-6.1-1.9C1525.4,815,1525.3,815,1525.2,815z"/>
			</g>
		</g>
		<g>
			<path class="st12" d="M1529.2,821.6c-0.1,1.4-0.9,2.4-1.9,2.4c-1-0.1-1.8-1.2-1.7-2.6c0.1-1.4,0.9-2.4,1.9-2.4
				C1528.5,819.1,1529.3,820.3,1529.2,821.6z"/>
		</g>
		<g>
			<g>
				<path class="st12" d="M1503.8,817.8c-0.1,0-0.3-0.1-0.4-0.2c-0.2-0.2-0.1-0.6,0.1-0.8c0.1-0.1,2.5-3.2,5.9-0.6
					c0.2,0.2,0.3,0.5,0.2,0.8c-0.1,0.3-0.4,0.3-0.6,0.2c-2.4-0.9-4.8,0.4-4.9,0.5C1504,817.8,1503.9,817.8,1503.8,817.8z"/>
			</g>
		</g>
		<g>
			<path class="st12" d="M1510.2,822.5c0.5,1.3,0.1,2.6-0.9,2.9c-0.9,0.3-2.1-0.4-2.6-1.7c-0.5-1.3-0.1-2.6,0.9-2.9
				C1508.6,820.4,1509.8,821.2,1510.2,822.5z"/>
		</g>
		<g>
			<path class="st16" d="M1572.3,800.9c0,0-4.9,22-17.9,26.4c0,0,7.4-17.6-17.3-22C1537,805.3,1557.1,797.6,1572.3,800.9z"/>
		</g>
		<g>
			<path class="st5" d="M1556,816c-2.4,2.4-6.2,2.6-8.4,0.4c-2.2-2.2-1.9-5.9,0.5-8.3c2.4-2.4,6.2-2.6,8.4-0.4
				C1558.7,809.9,1558.4,813.6,1556,816z"/>
		</g>
		<g>
			<path class="st16" d="M1537,805.3c0,0,5.5,16.4,2.8,20.3c-2.8,3.9-25.2,10.2-36.8,8.5v0c2.2,10.8,12,18.7,23.1,18.1
				c3.7-0.2,7.4-1,10.9-2.4l0,0c7.2-2.9,13.7-7.5,15.3-15c0.5-2.3-5.1-14.5-5.1-14.5s-2.7-7.3,0.9-12.2
				C1548.1,808.2,1542,804.8,1537,805.3z"/>
		</g>
		<g>
			<path class="st0" d="M1510,838.9c0,0,9.3,0.4,18.6-2.5c0,0,0.5,9-9.5,9.4C1513.2,846,1510,838.9,1510,838.9z"/>
		</g>
		<g>
			<path class="st8" d="M1493.1,774.7l-0.1-0.8c3.7-0.7,3.4-3.7,3.4-3.8l0.8-0.1C1497.1,770.1,1497.6,773.9,1493.1,774.7z"/>
		</g>
		<g>
			<path class="st0" d="M1506.3,797.2c-0.8-0.1-18.6-1.3-21.3-10.1c-0.8-2.5-0.7-4.4,0.2-5.6c1.3-1.7,3.9-1.9,6.5-1.9
				c0.8,0,1.7,0,2.4,0c0,0,0.1,0,0.1,0v0.4c0,0-0.1,0-0.1,0c-0.8,0-1.6,0-2.4,0c-2.5,0-5,0.2-6.2,1.8c-0.8,1.1-0.9,2.8-0.2,5.2
				c2.6,8.5,20.8,9.8,21,9.9L1506.3,797.2z"/>
		</g>
		<g>
			<path class="st0" d="M1528.9,773.1c-9.1,0-14.5-4-14.6-4.1l0.2-0.3c0.1,0.1,10.2,7.6,26.3,1.8l0.1,0.4
				C1536.5,772.5,1532.4,773.1,1528.9,773.1z"/>
		</g>
	</g>
	<g>
		<path class="st11" d="M1304.9,1301c0-0.4,0.1-40.2,15-82.9c8.8-25.1,20.9-46.3,36-63c18.9-20.9,42.6-34.8,70.5-41.2l0.2,0.7
			c-27.7,6.4-51.3,20.2-70.1,41c-15.1,16.6-27.1,37.8-35.9,62.8c-14.9,42.6-15,82.3-15,82.7H1304.9z"/>
	</g>
</g>
<g>
	<polygon class="st8" points="2066.9,1398.2 2083.1,1401.5 2082.1,1196.6 2069.7,1201.9 	"/>
</g>
<g>
	<path class="st8" d="M2019.3,1409.6c0,0,85.5,1.5,113.9,1.8c3.1,0,5.4-4.3,5.4-7.4v0c0-3.1-4.6-6.9-7.7-6.9
		c-27.9,0.1-111.6,1.2-111.6,1.2c-3.1,0-5.7,2.6-5.7,5.7v0C2013.6,1407,2016.1,1409.6,2019.3,1409.6z"/>
</g>
<g>
	<path class="st8" d="M2134.5,1419.8c-1-6.3-6.5-10.2-12.9-10.2c-6.3,0-12.9,4.2-12.9,10.5c0,7.9,8,13.4,14.3,13.4
		C2129.5,1433.5,2135.8,1427.7,2134.5,1419.8z"/>
</g>
<g>
	<path class="st8" d="M2043.4,1419.8c-1-6.3-6.5-10.2-12.9-10.2s-12.9,4.2-12.9,10.5c0,7.9,8,13.4,14.3,13.4
		S2044.7,1427.7,2043.4,1419.8z"/>
</g>
<g>
	<path class="st8" d="M2117.9,1213.8c0,0,3.8,22.2-35.4,29.4s-56.2-29.4-56.2-29.4H2117.9z"/>
</g>
<g>
	<path class="st9" d="M1965.6,1222.5c19.7,9,190.2,2,205.6,0.3c0.3,0,0.7-0.1,1-0.1c11.2-1.7,19-12.1,17.9-23.4
		c-1.9-17.7-10.5-68.7-8.9-110.5c2.4-61,18.9-121-7.8-123.2c-2.8-0.2-34.8-0.3-34.8,79.3c0,42-8,88.4-6.1,106.1
		c1.2,11.3-127.5,40.4-183.1,38C1937.4,1198.3,1937.3,1209.6,1965.6,1222.5z"/>
</g>
<g>
	<path class="st17" d="M1805.2,1392.4c0,0,0.3,15.6-10.1,20.5c-10.4,4.8-40.8,10.1-29,19.7c6.8,5.5,37.6,0.5,46.3,0.1
		c8.7-0.4,17.1,3.1,23.3-3c6.9-6.7-1.6-38.4-1.6-38.4s-7.4,4.2-14.2,4.4C1810.2,1395.7,1805.2,1392.4,1805.2,1392.4z"/>
</g>
<g>
	<path class="st18" d="M1848.3,1392.4c0,0,0.3,15.6-10.1,20.5c-10.4,4.8-40.8,10.1-29,19.7c6.8,5.5,37.6,0.5,46.3,0.1
		c8.7-0.4,17.1,3.1,23.3-3c6.9-6.7-1.6-38.4-1.6-38.4s-7.4,4.2-14.2,4.4C1853.4,1395.7,1848.3,1392.4,1848.3,1392.4z"/>
</g>
<g>
	<g>
		<path class="st19" d="M1813.9,1163.9c14.2-63,170.7-79.5,207.3-81.6c59.8-3.5,106.1,22.5,106.1,22.5
			c30.8,109.1-85,91.9-189.6,91.9c-17,0-51.9,5.4-62.1,17.2C1875.6,1213.8,1805.9,1199.3,1813.9,1163.9z"/>
	</g>
</g>
<g>
	<path class="st19" d="M1887.1,1294c-13.9,47.2-31.1,103.7-51,107.9c-38.7,8.2-52.1-20-45.6-64.5c2.4-16.6,15.8-96.5,22.2-123.6
		C1821.2,1178.3,1897.4,1259.3,1887.1,1294z"/>
</g>
<g>
	<path class="st19" d="M1903.6,1196.6c-14.6,4.2,9.8,183.8-21,200.9c-34.5,19.2-55.7-3.7-62.6-48.2c-6-38.2-19-168.9-3.4-191
		c24.4-34.6,50.4-23.7,63.9-31.5C1909.8,1110.1,1931.8,1188.5,1903.6,1196.6z"/>
</g>
<g>
	<g>
		<path class="st20" d="M2095.5,889.5c-16.1-19.7-50.8-38.6-81.4-24.9c-43.5,19.5-61.6,126.8-66.8,213.9c0,0,68.2,65.6,183.2,78.2
			c17.7,1.9,9.3-54.5,5.1-84.3C2126.4,1006.9,2128.5,929.9,2095.5,889.5z"/>
	</g>
</g>
<g>
	<path class="st5" d="M2011.2,871.3c7.6,0.7,31.5-11.1,31.5-11.1c-3.7-1.7-7-7.3-8.3-10.5l-6.2-15.5l-2.2-5.2l-12.5-30.9l1.3,31.7
		l0.8,19l0.2,6.1c0.2,4.1-2.4,8.7-5.1,12.5C2010.3,867.9,2008.4,871.4,2011.2,871.3z"/>
</g>
<g>
	<path class="st8" d="M2015.6,848.7c0,0,10.7-2.9,14.4-9.7l-15.7,4.8L2015.6,848.7z"/>
</g>
<g>
	<g>
		<path class="st16" d="M1987.2,788.3c0,0-1.4,7.8,1.4,17.3s10.6-15,10.6-15L1987.2,788.3z"/>
	</g>
	<g>
		
			<ellipse transform="matrix(4.693069e-02 -0.9989 0.9989 4.693069e-02 1112.439 2785.5093)" class="st5" cx="2015.9" cy="809.8" rx="34.1" ry="28.3"/>
	</g>
	<g>
		<path class="st8" d="M2044.1,801.3l-13.8-0.3c-3-0.1-5.9-1.4-7.7-3.8c-3.2-4.1-6.7-6.1-19.4-4.6c-16.1,2-27.5-6.8-30-15
			c-2.5-8.5,5.3-15,13.7-11.6c8.4,3.4,4.1-6.3,11.8-8.1c14.4-3.2,18,7.8,29.9,6.4c15.6-1.8,44.5,7.7,33.6,36.3L2044.1,801.3z"/>
	</g>
	<g>
		<path class="st12" d="M2014.3,808.5c-0.2-0.1-0.3-0.2-0.3-0.4c-0.1-0.3,0.2-0.6,0.5-0.7c0.2,0,4.4-1.1,6.9,3.2
			c0.2,0.3,0.1,0.6-0.2,0.8c-0.3,0.2-0.6,0-0.8-0.2c-2.2-2.3-5.6-2.7-5.7-2.7C2014.6,808.6,2014.5,808.5,2014.3,808.5z"/>
	</g>
	<g>
		<path class="st12" d="M2017.4,815.6c-0.2,1.3-1.2,2.3-2.2,2.1c-1-0.2-1.6-1.4-1.3-2.8s1.2-2.3,2.2-2.1
			C2017.1,813,2017.7,814.3,2017.4,815.6z"/>
	</g>
	<g>
		<path class="st12" d="M1993.1,808.6c-0.1,0-0.3-0.1-0.3-0.3c-0.1-0.3-0.1-0.6,0.2-0.8c0.1-0.1,2.9-2.8,5.9,0.2
			c0.2,0.2,0.2,0.5,0.1,0.8c-0.2,0.3-0.4,0.3-0.6,0.1c-2.2-1.2-4.8-0.2-4.9-0.2C1993.3,808.5,1993.2,808.6,1993.1,808.6z"/>
	</g>
	<g>
		<path class="st12" d="M1998.8,814c0.3,1.3-0.3,2.6-1.2,2.8c-1,0.2-2-0.7-2.3-2.1c-0.3-1.3,0.3-2.6,1.2-2.8
			C1997.5,811.7,1998.5,812.6,1998.8,814z"/>
	</g>
	<g>
		<path class="st16" d="M2062.2,800.7c0,0-7.7,21.1-20.9,23.7c0,0,6-18.4-14.1-23.9C2027.2,800.5,2047.8,795.5,2062.2,800.7z"/>
	</g>
	<g>
		<path class="st5" d="M2043.9,814.2c-1.9,3.6-5.6,5.4-8.3,3.9c-2.7-1.4-3.3-5.5-1.4-9.1c1.9-3.6,5.6-5.4,8.3-3.9
			C2045.2,806.6,2045.9,810.6,2043.9,814.2z"/>
	</g>
	<g>
		<path class="st0" d="M1997.4,827.1c0,0,9,1.6,18.5-0.1c0,0-0.7,9-10.5,8C1999.7,834.5,1997.4,827.1,1997.4,827.1z"/>
	</g>
	<g>
		<path class="st8" d="M1988.3,764.6l0-0.8c3.7-0.2,3.8-3.2,3.8-3.3h0.8C1992.8,760.5,1992.8,764.4,1988.3,764.6z"/>
	</g>
	<g>
		<path class="st0" d="M1998.2,788.5c-0.7-0.1-18-3.7-19.5-12.8c-0.4-2.6-0.1-4.4,1-5.5c1.7-1.7,5-1.3,7.9-0.8
			c0.4,0.1,0.8,0.1,1.2,0.2l-0.1,0.4c-0.4-0.1-0.8-0.1-1.2-0.2c-2.8-0.4-6-0.9-7.5,0.7c-1,1-1.3,2.7-0.8,5.2
			c1.4,8.8,19,12.4,19.2,12.5L1998.2,788.5z"/>
	</g>
	<g>
		<path class="st0" d="M2027.6,767.9c-11.6,0-17.8-6.1-17.9-6.2l0.3-0.3c0.1,0.1,9,8.8,25.5,5.2l0.1,0.4
			C2032.7,767.6,2030.1,767.9,2027.6,767.9z"/>
	</g>
</g>
<g>
	<path class="st8" d="M1844.1,1400.3c-0.1,0-0.2,0-0.3-0.1c-13.5-7.4-23.1-40-28.7-96.9c-4.1-42.2-4.3-82.9-4.4-83.3
		c0-0.4,0.3-0.6,0.6-0.6l0,0c0.3,0,0.6,0.3,0.6,0.6c0,1.6,1,161.8,32.4,179.1c0.3,0.2,0.4,0.6,0.2,0.9
		C1844.5,1400.1,1844.3,1400.3,1844.1,1400.3z"/>
</g>
<g>
	
		<ellipse transform="matrix(0.1224 -0.9925 0.9925 0.1224 878.0142 2840.3823)" class="st8" cx="2045.2" cy="923.7" rx="11.6" ry="41.4"/>
</g>
<g>
	<path class="st8" d="M905.5,784.6c0,0-6.2,21.8,10.8,38.1c10.7,10.3-5.4,26-16.7,22.7c-11.3-3.3-9.7,17.2-28.8,4.6
		C857.8,841.4,905.5,784.6,905.5,784.6z"/>
</g>
<g>
	<polygon class="st8" points="812.7,1381.8 799.3,1385.1 800.2,1176.2 810.5,1181.5 	"/>
</g>
<g>
	<path class="st8" d="M852.4,1391.9c0,0-71.1,1.3-94.8,1.5c-2.6,0-4.5-3.6-4.5-6.2l0,0c0-2.6,3.8-5.7,6.4-5.7
		c23.2,0.1,92.8,1,92.8,1c2.6,0,4.7,2.1,4.7,4.7l0,0C857.2,1389.8,855,1391.9,852.4,1391.9z"/>
</g>
<g>
	<path class="st8" d="M756.5,1400.4c0.9-5.2,5.4-8.5,10.7-8.5c5.3,0,10.7,3.5,10.7,8.7c0,6.6-6.6,11.2-11.9,11.2
		C760.7,1411.8,755.4,1407,756.5,1400.4z"/>
</g>
<g>
	<path class="st8" d="M832.4,1400.4c0.9-5.2,5.4-8.5,10.7-8.5c5.3,0,10.7,3.5,10.7,8.7c0,6.6-6.6,11.2-11.9,11.2
		S831.3,1407,832.4,1400.4z"/>
</g>
<g>
	<path class="st8" d="M775.4,1193.6c0,0-2.6,17,23.7,22.4s37.5-22.4,37.5-22.4H775.4z"/>
</g>
<g>
	<path class="st9" d="M857.1,1160.8c0.3-31.7,15.2-195.5-29.2-207.4C777.6,940,714.2,939.7,695.3,984c-18.9,44.2,16.9,91,27.2,183.4
		c1.1,10,12.6,29.8,25.5,31.1c12.9,1.4,165.9,6.1,165.9,0C913.8,1158.5,879.5,1167.3,857.1,1160.8z"/>
</g>
<g>
	<path class="st5" d="M953.8,907.6c0,0,62.7,91.6,143.3,111.2l-13.3,32.6c0,0-101.7-10.8-162.7-106.9L953.8,907.6z"/>
</g>
<g>
	<path class="st8" d="M1022.3,1385.6c0,0-0.4,15.1,9.5,19.9c10,4.8,39.4,10.3,27.8,19.4c-6.7,5.2-36.4,0-44.8-0.5
		c-8.5-0.5-16.6,2.8-22.6-3.2c-6.6-6.6,2-37.2,2-37.2s7.1,4.2,13.7,4.4C1017.4,1388.7,1022.3,1385.6,1022.3,1385.6z"/>
</g>
<g>
	<path class="st8" d="M1126.3,1372.2c0,0-0.4,15.1,9.5,19.9c10,4.8,39.4,10.3,27.8,19.4c-6.7,5.2-36.4,0-44.8-0.5
		c-8.5-0.5-16.6,2.8-22.6-3.2c-6.6-6.6,2-37.2,2-37.2s7.1,4.2,13.7,4.4C1121.4,1375.4,1126.3,1372.2,1126.3,1372.2z"/>
</g>
<g>
	<g>
		<path class="st3" d="M1137.2,1359.7c-7.5-99.1-9.2-166-40.6-209c-34.3-47-126.4-80.3-161.8-82.4c-57.9-3.4-85.1,5.2-85.1,5.2
			c-43.4,90.3,24.6,102.3,74.9,104.8c1.7,0.1,3.3,0.2,5,0.3c30.5,1.9,84.6,9.7,105.2,39.9c16.2,24,27.5,57.6,32.3,144.5
			c0.9,16.7,14.9,29.6,31.6,29.1C1098.6,1392.2,1139.9,1395.4,1137.2,1359.7z"/>
	</g>
</g>
<g>
	<g>
		<path class="st3" d="M1055.1,1364.8c1-99.4,4.1-150.1-25.8-194.2c-19.2-28.3-48-49.7-85.7-63.5c-26.9-9.9-58.5-15.9-94-18
			c-57.9-3.4-83.9-10.4-83.9-10.4c-46.8,115.6,124.5,91.1,169.1,140.3c19.4,21.5,43.5,62.3,48.3,149.1c0.9,16.7,14.9,29.6,31.6,29.1
			C1014.7,1397.4,1054.8,1401.2,1055.1,1364.8z"/>
	</g>
</g>
<g>
	<path class="st11" d="M1054.8,1267.4c-0.1-0.5-7.5-49.2-12.8-71.4c-9.1-38-32-62-69.9-73.6l0.2-0.6c38.1,11.6,61.1,35.8,70.3,74.1
		c5.4,22.3,12.8,71,12.8,71.5L1054.8,1267.4z"/>
</g>
<g>
	<path class="st21" d="M792.3,888.5c0,0,39.2-35.4,95.9-22.4c56.8,12.9,58.7,60.6,83.9,210.1c0,0-52.5-1.9-190.6,43.9
		c-16.4,5.4-40.3,1.1-31.9-26.7C765.3,1041.5,765.8,931.5,792.3,888.5z"/>
</g>
<g>
	<path class="st21" d="M756.7,918l46.1,0.5c0,0,72.9,14.5,101.4,16.5c46.8,3.3,57.1-23.3,57.1-23.3s-11.9-41.8-98.4-49.9
		C766.9,852.8,756.7,918,756.7,918z"/>
</g>
<g>
	<path class="st8" d="M756.7,918c0.1,4.8,14,8.6,31.1,8.6c17.1,0,30.8-3.9,30.7-8.7c-0.1-4.8-14-8.6-31.1-8.6
		C770.3,909.3,756.6,913.2,756.7,918z"/>
</g>
<g>
	<path class="st5" d="M876.1,876.5c-11.1,4.4-35.7-15.5-35.7-15.5c6.1-1.3,10.5-4,12.5-10l6-18.7l0.1-0.3l1.6-4.9l0.1-0.2l10.3-31.8
		l0.7,31.9v0l0.4,19.2v0.1l0.1,5.4c0.1,4.4,0.3,10.1,5,11.8C877.2,863.5,883.2,873.7,876.1,876.5z"/>
</g>
<g>
	<path class="st22" d="M872.1,846.2L872.1,846.2c-1.1-0.3-11.4-4.2-13-13.8c0-0.1,0-0.2-0.1-0.4c0,0,0-0.1,0-0.2
		c-0.3-2.4,0.4-3.9,1.6-4.7c0.1-0.1,0.1-0.1,0.2-0.2c2.6-1.6,7.4-0.9,10.8,0v0L872.1,846.2z"/>
</g>
<g>
	
		<ellipse transform="matrix(0.9955 -9.480549e-02 9.480549e-02 0.9955 -71.9176 86.3513)" class="st5" cx="872.8" cy="800" rx="29.9" ry="36.9"/>
</g>
<g>
	<path class="st5" d="M847.5,808c3.7,2.9,8.4,2.8,10.6-0.3c2.2-3,1-7.9-2.7-10.8c-3.7-2.9-8.4-2.8-10.6,0.3
		C842.6,800.3,843.9,805.1,847.5,808z"/>
</g>
<g>
	<g>
		<path class="st14" d="M895,822c-6.7-0.6-11.7-7.6-11-15.6c0.4-4.3,2.3-8.2,5.3-10.7c2.4-2,5.3-3,8.2-2.7c6.7,0.6,11.7,7.6,11,15.6
			c-0.4,4.3-2.3,8.2-5.3,10.7c-1.9,1.6-4,2.5-6.2,2.7C896.3,822,895.7,822,895,822z M889.7,796.2c-2.8,2.4-4.7,6.1-5,10.2
			c-0.6,7.6,4,14.2,10.4,14.8c2.7,0.2,5.4-0.7,7.6-2.5c2.8-2.4,4.7-6.1,5-10.2c0.6-7.6-4-14.2-10.4-14.8c-0.6-0.1-1.2-0.1-1.8,0
			C893.5,793.9,891.5,794.8,889.7,796.2z"/>
	</g>
</g>
<g>
	<g>
		<path class="st14" d="M865.8,820.6c-6.7-0.6-11.7-7.6-11-15.6l0,0c0.4-4.3,2.3-8.2,5.3-10.7c2.4-2,5.3-3,8.2-2.7
			c6.7,0.6,11.7,7.6,11,15.6c-0.4,4.3-2.3,8.2-5.3,10.7c-1.8,1.6-4,2.5-6.2,2.7C867.1,820.7,866.5,820.7,865.8,820.6z M860.5,794.9
			c-2.8,2.4-4.7,6.1-5,10.2l0,0c-0.6,7.6,4,14.2,10.4,14.8c2.7,0.2,5.4-0.7,7.6-2.5c2.8-2.4,4.7-6.1,5-10.2
			c0.6-7.6-4-14.2-10.4-14.8c-0.6-0.1-1.2-0.1-1.8,0C864.3,792.6,862.3,793.5,860.5,794.9z"/>
	</g>
</g>
<g>
	<g>
		<path class="st14" d="M887.7,807.4c0.1,0,0.2-0.1,0.3-0.2c0.1-0.2,0-0.4-0.1-0.5c-0.2-0.1-4.3-2.4-10.9-0.8
			c-0.2,0-0.3,0.2-0.3,0.4c0,0.2,0.2,0.3,0.4,0.3c6.3-1.6,10.3,0.7,10.3,0.7C887.5,807.4,887.6,807.4,887.7,807.4z"/>
	</g>
</g>
<g>
	<g>
		<path class="st12" d="M873.4,801.2c0.2-0.1,0.4-0.2,0.4-0.4c0.1-0.4-0.1-0.7-0.5-0.8c-0.2-0.1-5-2-8.6,2.8c-0.2,0.3-0.2,0.7,0.1,1
			c0.3,0.2,0.7,0.1,1-0.1c2.9-2.4,7-2.4,7.1-2.3C873.1,801.2,873.3,801.2,873.4,801.2z"/>
	</g>
</g>
<g>
	<path class="st12" d="M868.8,809.1c0.1,1.6,1.1,2.9,2.3,2.8c1.2-0.1,2-1.4,1.9-3.1c-0.1-1.6-1.1-2.9-2.3-2.8
		C869.5,806.1,868.6,807.5,868.8,809.1z"/>
</g>
<g>
	<g>
		<path class="st12" d="M897.9,802.4c0.2,0,0.4-0.1,0.6-0.3c0.2-0.3,0.2-0.7-0.1-1c-0.2-0.1-3.9-3.7-9-0.7c-0.3,0.2-0.4,0.6-0.3,0.9
			c0.2,0.3,0.6,0.4,0.9,0.3c3.6-1.1,7.3,0.5,7.5,0.6C897.6,802.3,897.8,802.4,897.9,802.4z"/>
	</g>
</g>
<g>
	<path class="st12" d="M890.6,808c-0.5,1.5,0,3.1,1.1,3.5c1.1,0.4,2.4-0.6,3-2.1c0.5-1.5,0-3.1-1.1-3.5
		C892.4,805.5,891.1,806.4,890.6,808z"/>
</g>
<g>
	<path class="st8" d="M880.8,770.2c0,0,1.1,12.2-13.7,16.3c-14.8,4.2-24.3,12-20.8,22.6c3.5,10.6,33.6,37.3,16.9,48.6
		c-16.6,11.2-17.7-13.2-36.5-6.7c-18.8,6.5-34-12.6-14.7-35.8c13-15.6,0-58.7,50.5-61.1c61.9-2.9,40,38.8,40,38.8
		S882.6,783.6,880.8,770.2z"/>
</g>
<g>
	<path class="st0" d="M860.5,859.6l-0.2-0.4c3-1.7,4.7-4,5.1-6.9c1.3-10.1-13.9-25.5-25.1-36.7c-2.2-2.2-4.2-4.2-6-6.1
		c-6.1-6.4-7.8-14.9-4.3-22.1c3.5-7.3,11.2-11.6,20.4-11.6c0.9,0,1.8,0,2.7,0.1c1.2,0.1,2.4,0.2,3.6,0.2c16.4,0,21.8-10.7,21.9-10.8
		l0.4,0.2c-0.1,0.1-5.6,11.1-22.2,11.1c-1.1,0-2.4-0.1-3.6-0.2c-0.9-0.1-1.8-0.1-2.7-0.1c-9,0-16.5,4.2-20,11.4
		c-3.4,7.1-1.9,15.2,4.2,21.6c1.8,1.9,3.8,3.9,6,6.1c11.2,11.3,26.6,26.8,25.2,37.1C865.4,855.4,863.7,857.8,860.5,859.6z"/>
</g>
<g>
	<g>
		<g>
			<path class="st8" d="M1884.7,1445.2l2-0.2c1.6-0.1,2.8-2.5,2.6-5.2l-14.8-348.1l-29.7-13.2l35.2,359.7
				C1880.2,1442.3,1882.3,1445.4,1884.7,1445.2z"/>
		</g>
	</g>
	<g>
		<g>
			<path class="st8" d="M946.7,1443.2l-2-0.2c-1.6-0.1-2.8-2.5-2.6-5.2l14.8-346.2l29.7-13.1l-35.1,357.8
				C951.1,1440.3,949.1,1443.4,946.7,1443.2z"/>
		</g>
	</g>
	<g>
		<ellipse class="st23" cx="1424.8" cy="1106.5" rx="536.6" ry="40"/>
	</g>
	<g>
		<rect x="888.2" y="1088" class="st23" width="1073.3" height="18.4"/>
	</g>
	<g>
		<ellipse class="st24" cx="1424.8" cy="1088" rx="536.6" ry="40"/>
	</g>
</g>
<g>
	<g>
		<g>
			<path class="st8" d="M953.7,1087.5c0,0-1,0.3-1,0.6c0,0.6,1,0.7,1,0.7L953.7,1087.5z"/>
		</g>
		<g>
			<g>
				<path class="st9" d="M999.2,1084.8C999.2,1084.8,999.2,1084.8,999.2,1084.8c0,0.4,0.4,0.8,0.8,0.8l20.2-0.8
					c0.1,0,0.2,0.2,0.3,0.6l0.4,3.8c0,0.4,0.4,0.7,0.8,0.6c0.4,0,0.7-0.4,0.6-0.8l-0.4-3.8c0,0,0,0,0,0c-0.2-1.1-0.9-1.9-1.8-1.9
					l-20.3,0.8C999.5,1084.1,999.2,1084.4,999.2,1084.8z"/>
			</g>
		</g>
		<g>
			<path class="st8" d="M959.3,1093.3l64.3,1c0.6,0,1.1-0.8,1.2-1.8l0.1-2.5c0-1-0.4-1.8-1-1.9l-64.2-3.7L959.3,1093.3z"/>
		</g>
		<g>
			<g>
				<path class="st9" d="M1024.9,1089.8l4,0.5c0.3,0,0.6,0.5,0.6,1.1l0,0.5c0,0.6-0.3,1-0.7,1l-4-0.1L1024.9,1089.8z"/>
			</g>
		</g>
		<g>
			<g>
				<path class="st9" d="M1014.7,1087.6c0,0,0.6,2.7-0.2,6.6l-4.1,0c0,0,1.2-3.6,0.2-6.8L1014.7,1087.6z"/>
			</g>
		</g>
	</g>
	<g>
		<polygon class="st9" points="959.3,1093.3 953.6,1088.8 953.7,1087.5 959.7,1084.5 		"/>
	</g>
</g>
<g>
	<g>
		<g>
			<path class="st5" d="M933.5,1063.8l12.8-37.4c-42.8-4.2-114.5-36.7-133.5-108c-0.5-1.8-14.1-9.3-40,0c-5.1,1.8-8.6,6.6-8.1,8.6
				C789.1,1030.5,856.9,1051.8,933.5,1063.8z"/>
		</g>
	</g>
	<g class="st25">
		<path class="st26" d="M831.9,1015.9c-0.2,0-0.3,0-0.5,0c-2.9-0.2-6.1-2.2-8.7-5.2h0c-4.1-4.8-5-10.5-2.1-13c1-0.8,2.2-1.2,3.8-1.1
			c2.9,0.2,6.1,2.2,8.7,5.2c4.1,4.8,5,10.5,2.1,13C834.3,1015.5,833.2,1015.9,831.9,1015.9z M824,1009.6c2.3,2.7,5.2,4.4,7.5,4.6
			c1.1,0,1.9-0.2,2.5-0.7c2.1-1.8,1.1-6.7-2.3-10.6c-2.3-2.7-5.1-4.4-7.5-4.6c-1,0-1.9,0.2-2.5,0.7
			C819.6,1000.8,820.7,1005.6,824,1009.6L824,1009.6z"/>
	</g>
	<g>
		<g>
			<g>
				<path class="st5" d="M946.4,1026.4c0,0,34.2-9.5,46.3,0c12,9.5,24.9,31.5,16.2,27.2c-8.7-4.3-18.3-12.9-18.3-12.9
					s19.8,22,13.3,24.6c-6.5,2.6-22.6-18-22.6-18s20.2,21.5,13.3,22c-7,0.5-22.9-14.2-22.9-14.2s17.4,15.8,9.3,16.2
					c-8.1,0.4-13.8-11.3-20.5-9.1c-21,7.1-38.3-2-49.9-6L946.4,1026.4z"/>
			</g>
		</g>
		<g>
			<path class="st6" d="M990.5,1041.4c-0.2,0-0.5-0.1-0.6-0.4c0-0.1-2.3-4.4-9.1-5.8c-0.3-0.1-0.6-0.4-0.5-0.8
				c0.1-0.3,0.4-0.5,0.7-0.5c7.5,1.5,9.9,6.2,10,6.5c0.2,0.3,0,0.7-0.3,0.8C990.7,1041.4,990.6,1041.4,990.5,1041.4z"/>
		</g>
		<g>
			<path class="st6" d="M981.2,1048.1c-0.2,0-0.3-0.1-0.4-0.2c-0.1-0.1-6.2-6.2-11.8-6.2c-0.1,0-0.1,0-0.2,0c-0.3,0-0.6-0.3-0.6-0.6
				c0-0.4,0.3-0.6,0.6-0.7c0.1,0,0.1,0,0.2,0c6.1,0,12.4,6.3,12.7,6.5c0.2,0.2,0.2,0.6,0,0.9C981.6,1048,981.4,1048.1,981.2,1048.1z
				"/>
		</g>
		<g>
			<path class="st6" d="M971.6,1055.9c-0.2,0-0.5-0.2-0.6-0.4c-0.1-0.2-2.4-5.3-10.2-6.5c-0.3,0-0.6-0.4-0.5-0.7
				c0-0.4,0.3-0.6,0.7-0.5c8.6,1.2,11.1,7,11.2,7.2c0.1,0.3,0,0.7-0.3,0.8C971.8,1055.9,971.7,1055.9,971.6,1055.9z"/>
		</g>
	</g>
</g>
<g>
	<path class="st5" d="M1097.1,1018.8l-13.3,32.6c0,0-59.1-6.3-114.2-51.8l77.6-2.4C1062.6,1006.8,1079.4,1014.5,1097.1,1018.8z"/>
</g>
<g>
	<g>
		<path class="st27" d="M1021.5,1074.9h110.8c2.3,0,4.4-1.5,5.1-3.7l23-68.8c1.2-3.5-1.4-7-5.1-7h-106.6c-4.9,0-9.2,3.1-10.7,7.7
			l-21.7,64.8C1015.2,1071.3,1017.8,1074.9,1021.5,1074.9z"/>
	</g>
	<g>
		<path class="st27" d="M1028.5,1074.9h110.8c2.3,0,4.4-1.5,5.1-3.7l23-68.8c1.2-3.5-1.4-7-5.1-7h-106.6c-4.9,0-9.2,3.1-10.7,7.7
			l-21.7,64.8C1022.2,1071.3,1024.8,1074.9,1028.5,1074.9z"/>
	</g>
	<g>
		<path class="st13" d="M1106.1,1032.9c0-2.6-3-3.7-5.6-3.7c-2.6,0-6.9,2.9-6.9,6.5c0,3.9,3.1,4.5,5.7,4.5
			S1106.1,1036.3,1106.1,1032.9z"/>
	</g>
	<g>
		<path class="st27" d="M960.1,1065.2h179.2v9.7H956.9c-1.8,0-3.3-1.5-3.3-3.3l0,0C953.7,1068.1,956.6,1065.2,960.1,1065.2z"/>
	</g>
	<g>
		<path class="st8" d="M1036.4,1030.2l-0.8-0.2c0.2-0.8,5.5-20.7,9.1-27.1c3.6-6.5,8.1-7.8,8.3-7.9l0.2,0.8c0,0-4.3,1.3-7.7,7.5
			C1041.9,1009.6,1036.5,1030,1036.4,1030.2z"/>
	</g>
	<g>
		<path class="st8" d="M1020,1065.6v-0.8c3.6,0,4.5-1.5,4.5-1.5l8.6-25.7l0.8,0.3l-8.6,25.8
			C1025.2,1063.8,1024.1,1065.6,1020,1065.6z"/>
	</g>
</g>
<g>
	<path class="st8" d="M880.8,824.8c-5.2,0-8.9-2.4-9-2.4c-0.2-0.1-0.3-0.5-0.1-0.7c0.2-0.2,0.5-0.3,0.7-0.1c0.1,0,7.9,5,16.6,0
		c0.2-0.2,0.5-0.1,0.7,0.2c0.1,0.2,0.1,0.5-0.2,0.7C886.4,824.2,883.4,824.8,880.8,824.8z"/>
</g>
<g>
	<g>
		<g>
			<path class="st5" d="M1503.9,1081.3c-11.1-1.6-4-45.5-4-45.5c0.1,0.1,114.3,7.5,123-92.1c0.1-0.8,3.9-10,20.7-15.5
				c18.2-5.9,29.2-6.3,29.2-6.3c2.7,10.1,5.3,38.4-1.8,67.8C1645.9,1093.5,1522.1,1084,1503.9,1081.3z"/>
		</g>
	</g>
	<g class="st25">
		<path class="st26" d="M1626.9,1046.5c-1,0-1.8-0.3-2.5-0.8c-0.8-0.6-1.3-1.6-1.5-2.9c-0.3-2.6,1-6.2,3.5-9.2
			c3.7-4.7,8.7-6.8,11.4-4.7c0.8,0.7,1.3,1.7,1.5,2.9c0.3,2.6-1,6.2-3.5,9.2l0,0C1633,1044.4,1629.6,1046.5,1626.9,1046.5z
			 M1635.2,1029.5c-2.1,0-5.2,1.9-7.6,4.9c-2.2,2.7-3.4,5.9-3.1,8.1c0.1,0.8,0.4,1.5,0.9,1.9c1.9,1.5,6.1-0.5,9.2-4.4l0,0
			c2.2-2.7,3.4-5.9,3.2-8.1c-0.1-0.8-0.4-1.5-0.9-1.9C1636.4,1029.7,1635.9,1029.5,1635.2,1029.5z"/>
	</g>
	<g>
		<g>
			<g>
				<path class="st5" d="M1535.4,1041.2c0,0-64.2-12.5-78.2-4.7c-14,7.8-26,28.4-16.3,25.4c9.7-3,21-10.3,21-10.3
					s-23.5,16.7-17.3,20.5c6.2,3.8,26.5-10.9,26.5-10.9s-26.4,22.1-19.3,23.7c7,1.6,27-15.3,27-15.3s-23.7,21.5-15.5,23.2
					s19.5-17.9,25.7-14.1c6.2,3.8,24.2,7.7,37-8.5L1535.4,1041.2z"/>
			</g>
		</g>
		<g>
			<path class="st6" d="M1462.3,1052l-0.8-0.8c0.3-0.3,6.3-5.9,11.4-4.9l-0.2,1.2c-0.4-0.1-0.7-0.1-1.1-0.1
				C1467.2,1047.4,1462.3,1052,1462.3,1052z"/>
		</g>
		<g>
			<path class="st6" d="M1471.5,1061.6l-0.8-0.8c0.2-0.2,5.9-5.8,13.3-5.8c0,0,0.1,0,0.1,0l0,1.2c0,0-0.1,0-0.1,0
				C1477.1,1056.1,1471.6,1061.5,1471.5,1061.6z"/>
		</g>
		<g>
			<path class="st6" d="M1479.1,1070l-0.8-0.8c0.3-0.3,7.4-7,12.7-5.4l-0.3,1.1C1486,1063.4,1479.2,1070,1479.1,1070z"/>
		</g>
	</g>
</g>
<g>
	<g>
		<path class="st9" d="M1457.5,1091.7h-119.9c-2.5,0-4.7-1.6-5.5-3.9l-24.9-73.6c-1.3-3.7,1.6-7.5,5.5-7.5H1428
			c5.3,0,9.9,3.3,11.6,8.2l23.5,69.3C1464.3,1087.9,1461.5,1091.7,1457.5,1091.7z"/>
	</g>
	<g>
		<path class="st9" d="M1450,1091.7h-119.9c-2.5,0-4.7-1.6-5.5-3.9l-24.9-73.6c-1.3-3.7,1.6-7.5,5.5-7.5h115.3
			c5.3,0,9.9,3.3,11.6,8.2l23.5,69.3C1456.8,1087.9,1454,1091.7,1450,1091.7z"/>
	</g>
	<g>
		<path class="st13" d="M1366,1046.8c0-2.8,3.3-3.9,6.1-3.9s7.5,3.1,7.5,7c0,4.2-3.4,4.8-6.2,4.8
			C1370.5,1054.6,1366,1050.3,1366,1046.8z"/>
	</g>
	<g>
		<path class="st9" d="M1494.1,1081.3h-164.1v10.4l167.4,0c1.9,0,3.5-1.6,3.5-3.5l0,0C1501,1084.4,1497.9,1081.3,1494.1,1081.3z"/>
	</g>
	<g>
		<path class="st8" d="M1441.4,1043.9c-0.1-0.2-5.9-22-9.7-28.8c-3.7-6.6-8.3-8-8.4-8l0.2-0.9c0.2,0.1,5,1.4,8.9,8.4
			c3.9,6.9,9.6,28.1,9.8,29L1441.4,1043.9z"/>
	</g>
	<g>
		<path class="st8" d="M1459.2,1081.8c-4.5,0-5.6-2-5.7-2.1l-9.4-27.7l0.9-0.3l9.3,27.6l0,0c0,0,1,1.5,4.8,1.5V1081.8z"/>
	</g>
</g>
<g>
	<g>
		<g>
			<path class="st8" d="M1740.7,1080.2c0,2.1,1.7,3.7,3.7,3.7h38.2c2.8,0,4.6-3.1,3.2-5.5l-29.9-92.6c-8.6,0.9-15.9,2.1-15.6,2.9
				l22.7,82.9c1,2.4-0.7,5-3.3,5h-15.2C1742.4,1076.5,1740.7,1078.2,1740.7,1080.2z"/>
		</g>
		<g>
			<path class="st8" d="M1740.7,1080.2c0,2.1,1.7,3.7,3.7,3.7h38.2c2.8,0,4.6-3.1,3.2-5.5l-56-188.2l-14.4,4.2l47.6,177.3
				c1,2.4-0.7,5-3.3,5h-15.2C1742.4,1076.5,1740.7,1078.2,1740.7,1080.2z"/>
		</g>
		<g>
			
				<rect x="1733.1" y="915.4" transform="matrix(-1 -1.224647e-16 1.224647e-16 -1 3512.51 1841.7242)" class="st8" width="46.3" height="10.9"/>
		</g>
		<g>
			<path class="st14" d="M1763.6,786.5l57.1,222.4c0.5,2-1,4-3.1,4c-9.3,0-31.1-0.9-33.1-8.7L1737,818.9
				c-3.3-13.1-5.6-31.1,9.4-36.9l6-1.8C1757.3,778.7,1762.4,781.6,1763.6,786.5z"/>
		</g>
		<g>
			<polygon class="st14" points="1746.3,833.8 1734.5,855.1 1763.2,954.6 1779.4,966.8 			"/>
		</g>
	</g>
</g>
<g>
	<g>
		<polygon class="st14" points="1909.4,1092.8 1822.6,1086.4 1822.6,1096.8 		"/>
	</g>
	<g>
		<polygon class="st8" points="1807.8,1060.4 1822.6,1086.4 1822.6,1096.8 1807.8,1069.3 		"/>
	</g>
	<g>
		<polygon class="st8" points="1909.4,1092.8 1877,1064.6 1807.8,1060.4 1822.6,1086.4 		"/>
	</g>
</g>
<g>
	<g>
		<path class="st5" d="M1905.1,1049.9c0,0-34.2-11.6-45.2-6.7s-21.4,19.6-13.9,18c7.5-1.6,16.5-6.3,16.5-6.3s-18.8,11-14.3,14.2
			c4.5,3.3,20.7-6.4,20.7-6.4s-21.3,14.8-16.1,16.6c5.2,1.7,21.3-9.7,21.3-9.7s-19.2,14.6-13.1,16.5c6.1,1.9,15.8-12.2,20.3-8.9
			c4.5,3.3,10.3,11,26.3,6.8L1905.1,1049.9z"/>
	</g>
</g>
<g>
	<g>
		<path class="st5" d="M2055.9,1068.8c-22.6,21-84.6,20.7-152.5,15.9l-2.4-35.7c37.4-7.4,100.1-12.7,106.4-20.3
			c10.5-12.6,2.1-83,8.6-107.8c0.5-2,62-0.6,62.2,9.8C2079.3,982.9,2079.9,1046.4,2055.9,1068.8z"/>
	</g>
</g>
<g>
	<path class="st28" d="M2316.9,1329.6c0,0,35.8-136.4,6-186.6c-29.8-50.2-129.6-57.6-166.3-21s-41.3,81.3,15.9,100.1
		c57.2,18.9,133.3-49.4,147.6-42.4c14.3,7-14.2,144.4-14.2,144.4L2316.9,1329.6z"/>
</g>
<g>
	<g>
		<path class="st0" d="M2142.6,1186.8l-0.9-1.2c0.3-0.2,28-21.4,63.1-37.2c20.6-9.3,39.8-14.9,56.9-16.8
			c21.4-2.3,39.7,1.4,54.4,11.1l-0.8,1.2c-14.3-9.4-32.3-13.1-53.4-10.8c-16.9,1.8-35.9,7.4-56.4,16.6
			C2170.4,1165.5,2142.8,1186.6,2142.6,1186.8z"/>
	</g>
</g>
<g>
	<path class="st29" d="M2357.1,1437.8h-75.7c-11.6,0-21.2-7.1-22.2-16.3l-10.9-101.5h139l-9.9,102.8
		C2376.5,1431.2,2367.7,1437.8,2357.1,1437.8z"/>
</g>
<g>
	<path class="st30" d="M2392.2,1298.4v20.2c0,12.5-33.1,22.6-73.8,22.6c-40.8,0-73.8-10.1-73.8-22.6v-20.2c0-6.3,19-11.8,46-14
		c8.6-0.7,18-1.1,27.8-1.1C2359.2,1283.2,2392.2,1290,2392.2,1298.4z"/>
</g>
<g>
	<path class="st12" d="M2392.2,1298.4c0,1.2-0.7,2.4-2,3.5c-3.3,2.8-10.5,5.3-20.3,7.3c-3.8,0.8-8.1,1.5-12.7,2
		c-1.2,0.2-2.4,0.3-3.6,0.4c-0.7,0.1-1.4,0.2-2.2,0.2c-3.8,0.4-7.8,0.7-11.9,1c-0.3,0-0.6,0-0.9,0.1c-2.2,0.1-4.4,0.2-6.6,0.3
		c-1.5,0.1-3.1,0.1-4.6,0.2c-0.6,0-1.2,0-1.8,0c-2.4,0-4.8,0.1-7.2,0.1c-1,0-2.1,0-3.1,0c-0.6,0-1.3,0-1.9,0c-2.5,0-4.9-0.1-7.3-0.2
		c-4-0.1-7.9-0.3-11.6-0.6c-0.7-0.1-1.4-0.1-2.1-0.2h0c-0.6,0-1.1-0.1-1.7-0.1c-0.6-0.1-1.3-0.1-1.9-0.2c-4.1-0.4-8-0.8-11.7-1.3
		c-19.7-2.7-32.6-7.3-32.6-12.6c0-3.2,4.9-6.2,13.2-8.6c4.7-1.4,10.6-2.6,17.2-3.6c0.4-0.1,0.7-0.1,1.1-0.2h0c0.7-0.1,1.3-0.2,2-0.3
		c3.9-0.5,8.1-1,12.5-1.3c0.2,0,0.5,0,0.7-0.1c4.3-0.4,8.9-0.6,13.6-0.8c2.8-0.1,5.8-0.2,8.7-0.2c1.6,0,3.2,0,4.8,0
		c2.5,0,5,0,7.5,0.1c0.6,0,1.2,0,1.8,0c4.3,0.1,8.6,0.3,12.6,0.6c1.1,0.1,2.2,0.1,3.3,0.2c3.5,0.3,6.8,0.6,10,0.9
		c4.6,0.5,8.9,1.1,12.9,1.8c0.7,0.1,1.3,0.2,2,0.4c0.4,0.1,0.9,0.2,1.3,0.3c6.5,1.3,11.9,2.8,15.7,4.6
		C2389.9,1294,2392.2,1296.1,2392.2,1298.4z"/>
</g>
<g>
	<path class="st28" d="M2330.8,1310.2c0,0,27.6-138.3,76.3-170.2c48.7-31.9,141.6,5.5,158.5,54.6c16.9,49.1,1.5,91.2-58.2,82.9
		s-98.1-103.3-114-103.3c-15.9,0-50.6,136-50.6,136H2330.8z"/>
</g>
<g>
	<g>
		<path class="st0" d="M2552.9,1262.4c-0.2-0.3-15.7-31.5-40.2-61c-14.4-17.3-29-30.8-43.4-39.9c-18-11.3-35.7-16-52.7-13.9
			l-0.2-1.5c17.4-2.2,35.4,2.5,53.7,14.1c14.6,9.2,29.3,22.7,43.7,40.2c24.6,29.7,40.2,61,40.4,61.3L2552.9,1262.4z"/>
	</g>
</g>
<g>
	<path class="st28" d="M2313.1,1371.6c0,0,0.7-141-40.6-182.1c-41.3-41.1-139.8-23.3-166.2,21.3c-26.4,44.6-19.8,89,40.3,93
		c60.1,3.9,116.8-81.3,132.4-78c15.6,3.2,22.2,143.4,22.2,143.4L2313.1,1371.6z"/>
</g>
<g>
	<path class="st0" d="M2115.6,1274.7l-0.8-0.6c0.2-0.3,21.8-27.7,51.8-51.8c27.8-22.3,68.8-46.1,106.1-33.4l-0.3,1
		c-36.9-12.6-77.5,11.1-105.1,33.2C2137.3,1247.1,2115.8,1274.5,2115.6,1274.7z"/>
</g>
<g>
	<path class="st28" d="M2398.2,1263.8c0,0-16.8-30.6-54.6-29.2c-37.9,1.4-74.4,115.7-60.4,147.8c21.5,49.1,94.8,54.9,124.8,0
		C2423,1355,2416.8,1289.2,2398.2,1263.8z"/>
</g>
<g>
	<g>
		<path class="st0" d="M2344.1,1389.5l-1.4-0.3c0.2-0.8,16.4-79.4,7.8-138.7l1.5-0.2C2360.6,1309.8,2344.3,1388.7,2344.1,1389.5z"/>
	</g>
</g>
<g>
	<path class="st2" d="M2188.9,501.6c-1.9-40.3-38.1-74.5-78.5-74.5c-57.2,0-76,43.8-78.2,84.2c-2.3,41.9,34.6,70.5,75,70.5
		C2147.5,581.9,2191.2,551.7,2188.9,501.6z"/>
</g>
<g>
	<path class="st31" d="M2174.7,505.8c0-32.1-32.1-66.3-64.2-67.4c-47.5-1.5-66.8,46.7-66.8,78.8s33.2,51.3,65.3,51.3
		S2174.7,538,2174.7,505.8z"/>
</g>
<g>
	<path class="st23" d="M2117.4,504.8c-0.4-4.4-5.1-7.3-9.5-7.3c-4.4,0-9.1,5.3-9.1,9.7c0,4.4,4.7,8,9.1,8
		C2112.3,515.2,2118.2,512.9,2117.4,504.8z"/>
</g>
<g>
	<g>
		<path class="st23" d="M2107.9,508.8h-1.6c-0.9,0-1.6-0.7-1.6-1.6c0-0.9-2-3.8-1.1-3.8l0.9-1.9l1.9-43.4l-2,1.2
			c-0.5,0.7-1.5,0.9-2.2,0.4c-0.7-0.5-0.9-1.5-0.4-2.2l4.9-7.1c0.4-0.6,1.1-0.8,1.8-0.6c0.7,0.2,1.1,0.8,1.1,1.5l2.6,55.7
			C2112.2,507.9,2108.8,508.8,2107.9,508.8z"/>
	</g>
	<g>
		<path class="st23" d="M2113.4,459.5c-0.5,0-0.9-0.2-1.2-0.6l-6-4.3c-0.6-0.7,0.2-4,0.9-4.5c0.7-0.6,1.7-0.5,2.2,0.2l5.4,6.6
			c0.6,0.7,0.5,1.7-0.2,2.2C2114.1,459.4,2113.7,459.5,2113.4,459.5z"/>
	</g>
</g>
<g>
	<g>
		<path class="st23" d="M2079.2,513.9c-0.4,0-0.8-0.2-1.1-0.5l-4.7-4.9c-0.4-0.5-0.6-1.1-0.3-1.7c0.2-0.6,0.8-1,1.5-1h0l37.4-2
			c0.9,0,1.4,2.8,1.4,3.6v1.6c0,0.9-0.7,1.6-1.6,1.6c-0.9,0-2.8,0.8-2.8-0.1l1.3-1.5l-31.8-0.1l2.1,2.2c0.6,0.6,0.6,1.6,0,2.2
			C2080,513.8,2079.6,513.9,2079.2,513.9z"/>
	</g>
	<g>
		<path class="st23" d="M2074.5,509c-0.4,0-0.7-0.1-1-0.4c-0.7-0.6-0.8-1.6-0.2-2.2l4.4-5.4c0.6-0.7,1.6-0.8,2.2-0.2
			c0.7,0.6,0.8,1.6,0.2,2.2l-1.7,4C2078.1,507.5,2074.9,509,2074.5,509z"/>
	</g>
</g>
<g>
	<g>
		<path class="st0" d="M1280.7,954.8c-3.1-4.8-9.6-7.7-10.1-13.4c-0.2-2.1,0.5-4.4-0.6-6.2c-1.2-2-4-2.3-6.3-2.1
			c-2.5,0.3-5.2,1-6.8,3.1c-2,2.5-1.5,6.1-2.2,9.3c-1.5,7.6-9,12.3-15.8,15.9c-3.6,1.9-7.3,3.9-9.4,7.3c-3.7,5.8-1.6,13.2-1.9,20
			c-0.2,5.4-2.1,10.7-5.2,15.1c-1.8,2.6-3.8,5.1-5.8,7.5c-3.7,4.3-2.1,9.9,3.2,10.8c3,0.5,5.9-0.7,7.1-2.7c3.8-6.1,14.9-6.7,19-7.3
			c4.1-0.6,8.5-2.6,10-6.5c1.5-3.6,0.1-7.8,0.7-11.7c0.8-5.4,5.2-9.4,9.3-13c3.5-3.1,7.1-6.1,10.6-9.2c1.6-1.4,3.3-2.9,4.4-4.7
			C1283.3,963.4,1283,958.4,1280.7,954.8z M1270.2,967.5c-3.8,4.2-9.7,4.6-14.6,6.6c-3.8,1.6-7.1,3.4-11.4,3.2
			c-2.8-0.1-6.2-1-6.3-4.3c-0.1-5.7,7.7-6.7,11.7-7c2.5-0.2,5.1-0.3,7.4-1.5c1.7-0.8,3.1-2.2,4-3.8c0.6-1.1,1.1-2.4,2-3.3
			c0.6-0.6,1.4-1,2.2-1.2c2.4-0.7,5.1,0.5,6.4,2.6C1273.2,961.6,1272.3,965.2,1270.2,967.5z"/>
	</g>
	<g>
		<path class="st9" d="M1196.3,1027.7c0,0,5.8,40.6,10,41c4.2,0.4,20.1,1.2,24.9,0c4.8-1.2,7.5-41.6,6.2-42.5
			C1236,1025.2,1194.5,1023.1,1196.3,1027.7z"/>
	</g>
	<g>
		<path class="st9" d="M1236.1,1052.3l-1.9-3.7c5.2-2.7,12.8-7.8,13.5-11c0.1-0.4,0-0.7-0.2-1.1c-3.4-4.2-11.2,0.4-11.2,0.5
			l-2.2-3.5c0.5-0.3,11-6.6,16.6,0.5c1,1.3,1.4,2.9,1.1,4.5C1250.4,1044.7,1238.5,1051.1,1236.1,1052.3z"/>
	</g>
	<g>
		<path class="st32" d="M1209.8,1047.5c-1.4-7.5,5.6-10.5,10.9-10.5c5.3,0,9.3,3.9,9.3,9.2c0,5.3-5.3,11-10.6,11
			S1210.7,1052.8,1209.8,1047.5z"/>
	</g>
	<g>
		<path class="st0" d="M1218.3,1055.9c-4.9,0-8.8-3.9-9.9-9.9c-0.5-2.7,0-5.1,1.6-6.9c2.4-2.8,6.5-3.9,9.6-3.9c5.5,0,9.6,4,9.6,9.4
			C1229.1,1050.2,1223.7,1055.9,1218.3,1055.9z M1208.9,1045.9c1.1,5.8,4.8,9.5,9.4,9.5c5.1,0,10.4-5.4,10.4-10.7c0-5.2-3.8-9-9.1-9
			c-3,0-7,1-9.2,3.7C1208.9,1041.1,1208.4,1043.3,1208.9,1045.9z"/>
	</g>
</g>
<g>
	<g>
		<g>
			<path class="st8" d="M1596,1095.5c0,0-1.2-0.3-1.2-0.7c0-0.7,1.1-0.8,1.1-0.8L1596,1095.5z"/>
		</g>
		<g>
			<g>
				<path class="st9" d="M1650,1098.3C1650,1098.3,1650,1098.3,1650,1098.3c0-0.5,0.4-0.9,0.9-0.9l24,0.7c0.1,0,0.3-0.3,0.3-0.7
					l0.5-4.5c0-0.5,0.5-0.8,1-0.8c0.5,0,0.8,0.5,0.8,1l-0.5,4.6c0,0,0,0,0,0c-0.2,1.4-1.1,2.3-2.1,2.2l-24-0.7
					C1650.3,1099.1,1650,1098.8,1650,1098.3z"/>
			</g>
		</g>
		<g>
			<path class="st8" d="M1602.6,1088.6l76.2-1.8c0.7,0,1.3,0.9,1.4,2.1l0.1,2.9c0,1.2-0.5,2.2-1.2,2.2l-76,5L1602.6,1088.6z"/>
		</g>
		<g>
			<g>
				<path class="st9" d="M1680.3,1092.1l4.7-0.7c0.4-0.1,0.7-0.6,0.7-1.3l0-0.5c0-0.7-0.4-1.2-0.8-1.2l-4.7,0.2L1680.3,1092.1z"/>
			</g>
		</g>
		<g>
			<g>
				<path class="st9" d="M1668.2,1094.8c0,0,0.7-3.2-0.3-7.8l-4.9,0.1c0,0,1.4,4.2,0.3,8L1668.2,1094.8z"/>
			</g>
		</g>
	</g>
	<g>
		<polygon class="st13" points="1602.6,1088.6 1595.9,1094 1596,1095.5 1603.1,1099.1 		"/>
	</g>
</g>
</svg>
