<?xml version="1.0" encoding="utf-8"?>
<!-- Generator: Adobe Illustrator 23.0.5, SVG Export Plug-In . SVG Version: 6.00 Build 0)  -->
<svg version="1.1" id="Layer_1" xmlns="http://www.w3.org/2000/svg" xmlns:xlink="http://www.w3.org/1999/xlink" x="0px" y="0px"
	 viewBox="0 0 2609.4 1812.4" style="enable-background:new 0 0 2609.4 1812.4;" xml:space="preserve">
<style type="text/css">
	.st0{fill:#F6F9FF;}
	.st1{fill:#D4DFFF;}
	.st2{fill:#FFFFFF;}
	.st3{fill:#B7C9F7;}
	.st4{opacity:0.2;fill:#6880E4;}
	.st5{clip-path:url(#XMLID_2_);fill:#6880E4;}
	.st6{fill:#1C056D;}
	.st7{opacity:0.2;clip-path:url(#XMLID_3_);fill:#6880E4;}
	.st8{fill:#1B3D9E;}
	.st9{fill:#D40221;}
	.st10{fill:#FE8E9C;}
	.st11{opacity:0.47;clip-path:url(#XMLID_4_);fill:#1C056D;}
	.st12{clip-path:url(#XMLID_4_);fill:#1C056D;}
	.st13{clip-path:url(#XMLID_5_);fill:#FE8E9C;}
	.st14{fill:#E57492;}
	.st15{opacity:0.5;clip-path:url(#XMLID_7_);fill:#1C056D;}
	.st16{fill:#FC476A;}
	.st17{clip-path:url(#XMLID_8_);fill:#1C056D;}
	.st18{fill:#6880E4;}
	.st19{fill:#68A9FD;}
</style>
<path class="st0" d="M2550.9,1300.9c10.4-21.7,19.6-43.9,27.6-66.7c59-168.6,33.5-379.1-77.2-523.7
	c-56.1-73.3-134.6-126.5-225.6-145.3c-136.5-28.2-269.8,32.2-406.3,24.3c-89.1-5.1-173.6-40.3-253.9-79.3
	c-216.8-105.5-422.1-241.7-657.5-304.3c-184.5-49-402.8-38.5-559.5,80.5c-264.3,200.9-249.3,575.6-136.8,853.7
	c32.7,80.8,75.7,158.4,131.6,225.6c193.1,232.5,479,319.4,772.1,338.6c255.5,16.7,519.5,7.6,775.5-1.7
	C2197.9,1693.3,2440.2,1531.7,2550.9,1300.9z"/>
<g>
	<g>
		<path class="st1" d="M534.7,1241.5h-428c-12.2,0-22-9.9-22-22v-168.8c0-12.2,9.9-22,22-22h428c12.2,0,22,9.9,22,22v168.8
			C556.7,1231.6,546.8,1241.5,534.7,1241.5z"/>
		<path class="st2" d="M200.8,1071.8h-83.3c-1.4,0-2.5-1.1-2.5-2.5v-15.7c0-1.4,1.1-2.5,2.5-2.5h83.3c1.4,0,2.5,1.1,2.5,2.5v15.7
			C203.3,1070.7,202.2,1071.8,200.8,1071.8z"/>
		<path class="st3" d="M515.6,1071.8H220.5c-2.5,0-4.6-2-4.6-4.6v-11.5c0-2.5,2-4.6,4.6-4.6h295.1c2.5,0,4.6,2,4.6,4.6v11.5
			C520.2,1069.8,518.2,1071.8,515.6,1071.8z"/>
		<path class="st2" d="M316.9,1106.1H118.8c-2.1,0-3.7-1.7-3.7-3.7v-13.1c0-2.1,1.7-3.7,3.7-3.7h198.1c2.1,0,3.7,1.7,3.7,3.7v13.1
			C320.7,1104.4,319,1106.1,316.9,1106.1z"/>
		<path class="st2" d="M516.6,1106.1H336.5c-2,0-3.6-1.6-3.6-3.6v-13.4c0-2,1.6-3.6,3.6-3.6h180.1c2,0,3.6,1.6,3.6,3.6v13.4
			C520.2,1104.5,518.6,1106.1,516.6,1106.1z"/>
		<path class="st3" d="M256.9,1140.4H118.2c-1.7,0-3.1-1.4-3.1-3.1V1123c0-1.7,1.4-3.1,3.1-3.1h138.7c1.7,0,3.1,1.4,3.1,3.1v14.3
			C260,1139,258.6,1140.4,256.9,1140.4z"/>
		<path class="st4" d="M412.6,1140.4H273.9c-1.7,0-3.1-1.4-3.1-3.1V1123c0-1.7,1.4-3.1,3.1-3.1h138.7c1.7,0,3.1,1.4,3.1,3.1v14.3
			C415.7,1139,414.3,1140.4,412.6,1140.4z"/>
		<path class="st2" d="M517.7,1140.4h-84.9c-1.4,0-2.5-1.1-2.5-2.5v-15.6c0-1.4,1.1-2.5,2.5-2.5h84.9c1.4,0,2.5,1.1,2.5,2.5v15.6
			C520.2,1139.3,519.1,1140.4,517.7,1140.4z"/>
		<path class="st4" d="M514.9,1174.7H120.4c-2.9,0-5.3-2.4-5.3-5.3v-10c0-2.9,2.4-5.3,5.3-5.3h394.6c2.9,0,5.3,2.4,5.3,5.3v10
			C520.2,1172.3,517.9,1174.7,514.9,1174.7z"/>
		<path class="st2" d="M316.9,1208.9H118.8c-2.1,0-3.7-1.7-3.7-3.7v-13.1c0-2.1,1.7-3.7,3.7-3.7h198.1c2.1,0,3.7,1.7,3.7,3.7v13.1
			C320.7,1207.3,319,1208.9,316.9,1208.9z"/>
		<path class="st3" d="M516.7,1208.9H344c-1.9,0-3.5-1.6-3.5-3.5v-13.6c0-1.9,1.6-3.5,3.5-3.5h172.7c1.9,0,3.5,1.6,3.5,3.5v13.6
			C520.2,1207.4,518.6,1208.9,516.7,1208.9z"/>
	</g>
	<g>
		<path class="st1" d="M422.3,996.7H106.3c-12,0-21.7-9.7-21.7-21.7v-550c0-12,9.7-21.7,21.7-21.7h315.9c12,0,21.7,9.7,21.7,21.7
			v550C444,987,434.3,996.7,422.3,996.7z"/>
		<path class="st3" d="M410.5,455H118.1c-2.3,0-4.1-1.8-4.1-4.1v-13.5c0-2.3,1.8-4.1,4.1-4.1h292.5c2.3,0,4.1,1.8,4.1,4.1v13.5
			C414.6,453.2,412.8,455,410.5,455z"/>
		<path class="st0" d="M410.5,489.7H118.1c-2.3,0-4.1-1.8-4.1-4.1v-13.5c0-2.3,1.8-4.1,4.1-4.1h292.5c2.3,0,4.1,1.8,4.1,4.1v13.5
			C414.6,487.9,412.8,489.7,410.5,489.7z"/>
		<path class="st4" d="M317.6,524.5H117.4c-1.9,0-3.4-1.5-3.4-3.4v-14.9c0-1.9,1.5-3.4,3.4-3.4h200.2c1.9,0,3.4,1.5,3.4,3.4v14.9
			C321,523,319.4,524.5,317.6,524.5z"/>
		<path class="st0" d="M410.5,559.2H118.1c-2.3,0-4.1-1.8-4.1-4.1v-13.5c0-2.3,1.8-4.1,4.1-4.1h292.5c2.3,0,4.1,1.8,4.1,4.1v13.5
			C414.6,557.4,412.8,559.2,410.5,559.2z"/>
		<path class="st0" d="M411.6,594H257c-1.7,0-3-1.3-3-3v-15.7c0-1.7,1.3-3,3-3h154.6c1.7,0,3,1.3,3,3V591
			C414.6,592.6,413.3,594,411.6,594z"/>
		<path class="st4" d="M235.3,594H116.6c-1.5,0-2.6-1.2-2.6-2.6v-16.4c0-1.5,1.2-2.6,2.6-2.6h118.7c1.5,0,2.6,1.2,2.6,2.6v16.4
			C237.9,592.8,236.8,594,235.3,594z"/>
		<path class="st0" d="M410.5,628.7H118.1c-2.3,0-4.1-1.8-4.1-4.1v-13.5c0-2.3,1.8-4.1,4.1-4.1h292.5c2.3,0,4.1,1.8,4.1,4.1v13.5
			C414.6,626.9,412.8,628.7,410.5,628.7z"/>
		<path class="st0" d="M410.5,663.4H118.1c-2.3,0-4.1-1.8-4.1-4.1v-13.5c0-2.3,1.8-4.1,4.1-4.1h292.5c2.3,0,4.1,1.8,4.1,4.1v13.5
			C414.6,661.6,412.8,663.4,410.5,663.4z"/>
		<path class="st4" d="M410.5,698.2H118.1c-2.3,0-4.1-1.8-4.1-4.1v-13.5c0-2.3,1.8-4.1,4.1-4.1h292.5c2.3,0,4.1,1.8,4.1,4.1v13.5
			C414.6,696.3,412.8,698.2,410.5,698.2z"/>
		<path class="st0" d="M410.5,732.9H118.1c-2.3,0-4.1-1.8-4.1-4.1v-13.5c0-2.3,1.8-4.1,4.1-4.1h292.5c2.3,0,4.1,1.8,4.1,4.1v13.5
			C414.6,731.1,412.8,732.9,410.5,732.9z"/>
		<path class="st0" d="M207.1,767.6h-90.8c-1.3,0-2.3-1-2.3-2.3v-17.1c0-1.3,1-2.3,2.3-2.3h90.8c1.3,0,2.3,1,2.3,2.3v17.1
			C209.4,766.6,208.4,767.6,207.1,767.6z"/>
		<path class="st4" d="M344.3,767.6H233.8c-1.4,0-2.5-1.1-2.5-2.5v-16.6c0-1.4,1.1-2.5,2.5-2.5h110.5c1.4,0,2.5,1.1,2.5,2.5v16.6
			C346.8,766.5,345.7,767.6,344.3,767.6z"/>
		<path class="st0" d="M410.5,802.4H118.1c-2.3,0-4.1-1.8-4.1-4.1v-13.5c0-2.3,1.8-4.1,4.1-4.1h292.5c2.3,0,4.1,1.8,4.1,4.1v13.5
			C414.6,800.5,412.8,802.4,410.5,802.4z"/>
		<path class="st3" d="M371.1,837.1H117.8c-2.1,0-3.8-1.7-3.8-3.8v-14.1c0-2.1,1.7-3.8,3.8-3.8h253.3c2.1,0,3.8,1.7,3.8,3.8v14.1
			C374.9,835.4,373.2,837.1,371.1,837.1z"/>
		<path class="st0" d="M410.5,871.9H118.1c-2.3,0-4.1-1.8-4.1-4.1v-13.5c0-2.3,1.8-4.1,4.1-4.1h292.5c2.3,0,4.1,1.8,4.1,4.1v13.5
			C414.6,870,412.8,871.9,410.5,871.9z"/>
		<path class="st4" d="M228.7,906.6H116.5c-1.4,0-2.6-1.1-2.6-2.6v-16.6c0-1.4,1.1-2.6,2.6-2.6h112.1c1.4,0,2.6,1.1,2.6,2.6V904
			C231.3,905.4,230.1,906.6,228.7,906.6z"/>
		<path class="st3" d="M411.5,906.6H246.2c-1.7,0-3.1-1.4-3.1-3.1V888c0-1.7,1.4-3.1,3.1-3.1h165.3c1.7,0,3.1,1.4,3.1,3.1v15.5
			C414.6,905.2,413.3,906.6,411.5,906.6z"/>
		<path class="st0" d="M410.5,941.3H118.1c-2.3,0-4.1-1.8-4.1-4.1v-13.5c0-2.3,1.8-4.1,4.1-4.1h292.5c2.3,0,4.1,1.8,4.1,4.1v13.5
			C414.6,939.5,412.8,941.3,410.5,941.3z"/>
		<path class="st0" d="M410.5,976.1H118.1c-2.3,0-4.1-1.8-4.1-4.1v-13.5c0-2.3,1.8-4.1,4.1-4.1h292.5c2.3,0,4.1,1.8,4.1,4.1V972
			C414.6,974.2,412.8,976.1,410.5,976.1z"/>
	</g>
</g>
<g>
	<defs>
		<path id="XMLID_84_" d="M2313.9,1415c2.3-4,4.5-8,6.6-12c64.8-123.2,102.1-260.9,108.2-400c-66.7,61.2-133.8,124.3-190.3,195
			c-43.2,54-80.2,114-103.8,178.8c41.5-153.1,63.2-312.1,58.8-470.5c-157.6,218.7-263.6,473.6-309.1,739.2l368.2-4.2
			c135.4-80.6,240.7-210.7,291.4-359.9C2459.7,1309.9,2380.2,1355.4,2313.9,1415z"/>
	</defs>
	<use xlink:href="#XMLID_84_"  style="overflow:visible;fill:#EAF2FC;"/>
	<clipPath id="XMLID_2_">
		<use xlink:href="#XMLID_84_"  style="overflow:visible;"/>
	</clipPath>
	<path class="st5" d="M2097.7,1635.5l0.9-1.8c13.2-26.4,322.8-646.8,355.2-679.2c0.4-0.4,1.1-0.4,1.6,0c0.4,0.4,0.4,1.1,0,1.6
		c-31.3,31.3-334.8,638.7-353.9,676.8c54.5-7.3,170.4-101.4,258.7-179.6c96.9-85.9,182.2-171.6,183-172.5c0.4-0.4,1.1-0.4,1.6,0
		c0.4,0.4,0.4,1.1,0,1.6c-0.9,0.9-86.2,86.7-183.1,172.6c-57,50.5-106.7,91.1-148,120.8c-51.6,37.2-90,57.3-114,59.6L2097.7,1635.5z
		"/>
	<path class="st5" d="M2012.2,1664.8c-0.6,0-1.1-0.5-1.1-1.1c-0.8-41.1,29.5-181.1,89.9-416c45-175,90.9-340,91.4-341.6
		c0.2-0.6,0.8-0.9,1.4-0.8c0.6,0.2,0.9,0.8,0.8,1.4c-0.5,1.6-46.3,166.6-91.4,341.6c-41.6,161.4-90.9,364.5-89.9,415.5
		C2013.3,1664.3,2012.8,1664.8,2012.2,1664.8C2012.2,1664.8,2012.2,1664.8,2012.2,1664.8z"/>
</g>
<g>
	
		<rect x="650.6" y="1101.4" transform="matrix(0.7125 0.7017 -0.7017 0.7125 991.227 -166.1426)" class="st6" width="95.5" height="50.3"/>
	<g>
		<defs>
			<circle id="XMLID_83_" cx="1020.3" cy="801.5" r="376.7"/>
		</defs>
		<use xlink:href="#XMLID_83_"  style="overflow:visible;fill:#EAF2FC;"/>
		<clipPath id="XMLID_3_">
			<use xlink:href="#XMLID_83_"  style="overflow:visible;"/>
		</clipPath>
		<path class="st7" d="M730.4,966.3c-72.8-9.9-138.7,0.3-138.8,0c-0.2-0.7-1.9-264-1.9-264l555.4,24.1l-502.8-77.8l104.1-219.3
			l704,135.7l-48.1,379.2h-287.5l285.9,34.1l-93.6,180.4l-535.5,4.8l-137.2-160.2l317-22.3C951.3,980.8,829.9,979.9,730.4,966.3z"/>
	</g>
	<g>
		<path class="st8" d="M710.3,1116.3c-42.5-41.8-75.5-90.8-98.2-145.5c-21.9-52.8-33.2-108.6-33.6-166
			c-0.4-57.4,10-113.4,31.1-166.5c21.8-55,54.1-104.4,95.9-146.9c41.8-42.5,90.8-75.5,145.5-98.2c52.8-21.9,108.6-33.2,166-33.6
			c57.4-0.4,113.4,10,166.5,31.1c55,21.8,104.4,54.1,146.9,95.9c42.5,41.8,75.5,90.8,98.2,145.5c21.9,52.8,33.2,108.6,33.6,166
			c0.4,57.4-10,113.4-31.1,166.5c-21.8,55-54.1,104.4-95.9,146.9c-41.8,42.5-90.8,75.5-145.5,98.2c-52.8,21.9-108.6,33.2-166,33.6
			c-57.4,0.4-113.4-10-166.5-31.1C802.2,1190.5,752.8,1158.2,710.3,1116.3z M1281.5,536.3c-70.8-69.8-164.6-107.7-264-107
			c-99.4,0.8-192.6,40.2-262.3,111c-69.8,70.8-107.7,164.6-107,264s40.2,192.6,111,262.3s164.6,107.7,264,107
			c99.4-0.8,192.6-40.2,262.3-111c69.8-70.8,107.7-164.6,107-264C1391.7,699.2,1352.3,606,1281.5,536.3z"/>
	</g>
	<path class="st8" d="M426,1470.7l-65.7-64.7c-12-11.8-12.2-31.2-0.3-43.2l252.2-256.1c11.8-12,31.2-12.2,43.2-0.3l65.7,64.7
		c12,11.8,12.2,31.2,0.3,43.2l-252.2,256.1C457.4,1482.4,438,1482.5,426,1470.7z"/>
	<path class="st6" d="M1020.2,1211.7c-52.2,0-103.1-9.7-151.4-28.9c-51-20.2-96.9-50.2-136.4-89.1c-39.5-38.9-70.1-84.3-91.2-135
		c-20.3-49-30.8-100.9-31.2-154.1c-0.4-53.3,9.3-105.3,28.9-154.6c20.2-51,50.2-96.9,89.1-136.4c38.9-39.5,84.3-70.1,135-91.2
		c49-20.3,100.9-30.8,154.1-31.2c53.3-0.4,105.3,9.3,154.6,28.9c51,20.2,96.9,50.2,136.4,89.1c39.5,38.9,70.1,84.3,91.2,135
		c20.3,49,30.8,100.9,31.2,154.1c0.4,53.3-9.3,105.3-28.9,154.6c-20.2,51-50.2,96.9-89.1,136.4l-1.8-1.8l1.8,1.8
		c-38.9,39.5-84.3,70.1-135,91.2c-49,20.3-100.9,30.8-154.1,31.2C1022.4,1211.7,1021.3,1211.7,1020.2,1211.7z M1020.4,396.3
		c-1.1,0-2.1,0-3.2,0c-52.6,0.4-103.8,10.8-152.2,30.8c-50.1,20.8-95,51.1-133.3,90c-38.4,39-68,84.3-88,134.7
		c-19.3,48.7-28.9,100.1-28.5,152.7c0.4,52.6,10.8,103.8,30.8,152.2c20.8,50.1,51.1,95,90,133.3c39,38.4,84.3,68,134.7,88
		c48.7,19.3,100.1,28.9,152.7,28.5c52.6-0.4,103.8-10.8,152.2-30.8c50.1-20.8,95-51.1,133.3-90c38.4-39,68-84.3,88-134.7
		c19.3-48.7,28.9-100.1,28.5-152.7c-0.4-52.6-10.8-103.8-30.8-152.2c-20.8-50.1-51.1-95-90-133.3c-39-38.4-84.3-68-134.7-88
		C1122.2,405.9,1071.9,396.3,1020.4,396.3z"/>
	<path class="st6" d="M469.8,1460l-99.5-98c-4.8-4.8-4.9-12.5-0.1-17.4l7.9-8c4.8-4.8,12.5-4.9,17.4-0.1l99.5,98
		c4.8,4.8,4.9,12.5,0.1,17.4l-7.9,8C482.4,1464.7,474.6,1464.7,469.8,1460z"/>
</g>
<ellipse class="st1" cx="1480.7" cy="1642.2" rx="936.7" ry="76.4"/>
<g>
	<path class="st9" d="M1623.2,863.5c0,0-41.5,49.4-64.3,132c-21,76.2-82.4,357.7-82.4,357.7H1634L1623.2,863.5z"/>
	<g>
		<path class="st8" d="M1014.4,1497.5c0,0-28.2-1-42.8,15c-14,15.5-17.6,57.9,3.9,88.9c0,0,15.1,16.1,37.6,22.7
			c0,0-19.2-44.6-18.4-74.8C995.4,1519.2,1014.4,1497.5,1014.4,1497.5z"/>
		<path class="st6" d="M995.6,1605.4c-23.9-38.6-17.2-111.5,18.8-107.8c52,5.3,187.8,47.9,187.8,47.9l8,87.3
			c0,0-121.1,6.2-193.7-7.6C1006.7,1623.3,1000.8,1613.7,995.6,1605.4z"/>
		<path class="st10" d="M1199.8,1553.7c0,0-58.9-18.4-65,0c-6.1,18.4-1.4,51.5,14.4,61.2c15.8,9.7,55,3.6,55,3.6L1199.8,1553.7z"/>
	</g>
	<path class="st6" d="M1343.5,1380.6c0,0-71.4-9.2-105.9,57.1c-31.8,61.2-1.8,163.5,125.6,174.5s478.4-17.5,478.4-17.5v-189.5
		L1343.5,1380.6z"/>
	<g>
		<defs>
			<path id="XMLID_82_" d="M2010.8,1394.3c0,0,115.8,49.4,60.3,198c-52.2,140-864,74.1-868.3,62.1c-5.3-14.4-21.4-129-4.6-135.7
				c16.9-6.7,622.3-129.3,622.3-129.3L2010.8,1394.3z"/>
		</defs>
		<use xlink:href="#XMLID_82_"  style="overflow:visible;fill:#1B3D9E;"/>
		<clipPath id="XMLID_4_">
			<use xlink:href="#XMLID_82_"  style="overflow:visible;"/>
		</clipPath>
		<path class="st11" d="M1596.2,1417.1c0,0,150.2,37.6,280.4,29.7s190.9-34.7,190.9-34.7l-32.1-31.5l-418.1,8.7L1596.2,1417.1z"/>
		<path class="st12" d="M1190.7,1588.8c-1.3,0-2.4-1.1-2.5-2.4c0-1.4,1-2.5,2.4-2.5c1.8,0,183.9-4.2,385.8-17.2
			c267-17.1,447.2-41.8,521-71.4c1.3-0.5,2.7,0.1,3.2,1.4c0.5,1.3-0.1,2.7-1.4,3.2c-41.5,16.6-115.1,31.7-218.9,44.7
			c-82.8,10.4-185,19.5-303.7,27.1C1374.8,1584.6,1192.6,1588.7,1190.7,1588.8C1190.8,1588.8,1190.7,1588.8,1190.7,1588.8z"/>
	</g>
	<g>
		<g>
			<defs>
				<path id="XMLID_81_" d="M1872.3,747.3c0,0,130.5,54.6,168.9,133.2c38.4,78.6-98.8,486.5-124.4,493.8
					c-25.6,7.3-290.8,12.8-310.9,0s-10.2-472.3,17.3-510.7c27.4-38.4,131-116.3,131-116.3H1872.3z"/>
			</defs>
			<use xlink:href="#XMLID_81_"  style="overflow:visible;fill:#FC476A;"/>
			<clipPath id="XMLID_5_">
				<use xlink:href="#XMLID_81_"  style="overflow:visible;"/>
			</clipPath>
			<path class="st13" d="M1798.1,992.7c0-1.4,1.1-2.6,2.6-2.6c15.3-0.3,94.2-1.5,99.4,2.7c5.7,4.6-1.6,133.8-10.8,134.5
				s-85.7,4.6-88.3-2C1798.5,1119.2,1798.2,1010.9,1798.1,992.7z"/>
		</g>
		<g>
			<g>
				<g>
					<g>
						<defs>
							<path id="XMLID_80_" d="M1819.4,474.8c-17.1-18.2-77.2-36.1-124.4-24.8c-26.6,6.4-46.5,28.5-51,55.5
								c-5.5,33.6-10.6,67.4-12.8,101.4c-1.8,28.4-5.1,65.2,9.6,91.1c9.6,17,33.8,18.3,51.1,18.6c2.9,0,30.3-2.7,29.6-6.5
								c6.2,36.6,27.9,119.5,31.6,130.5c5.2,15.5,107.5-43,123.8-63.4c16.4-20.4-74.9-139.4-74.9-139.4
								C1811.1,612.5,1843.2,500.2,1819.4,474.8z"/>
						</defs>
						<use xlink:href="#XMLID_80_"  style="overflow:visible;fill:#FE8E9C;"/>
						<clipPath id="XMLID_6_">
							<use xlink:href="#XMLID_80_"  style="overflow:visible;"/>
						</clipPath>
					</g>
					<path class="st14" d="M1693.6,541.8c0,0-39.6,55.9-30.5,61.6c9.1,5.7,37.3-8.3,37.3-8.3l0,0c-0.2,3.9-2.7,7.4-6.4,8.8
						c-10.7,4.1-31.4,11-36.1,2.5C1649.7,591.5,1693.6,541.8,1693.6,541.8z"/>
					<path class="st14" d="M1721.5,710.2c0,0,24.4-15.2,38-33.4c0,0,7.7,56.3-28.2,79.4L1721.5,710.2z"/>
				</g>
				<g>
					<defs>
						<path id="XMLID_79_" d="M1845.5,458.3c20.8,10.8,49.7,56.4,30.5,93.8c-21.5,41.8-67.8,84.8-74,85.8
							c-6.2,1-14.6-48.6-14.6-48.6c44.8-8.9,24.4-53,17.4-52.7c-7,0.3-20.9,29.1-25.1,23.7c-3.2-4.1,1.6-49.2,4.1-70
							c0,0-94.3,58.3-155.6,35.4c0,0-29.8-101,59.5-121.4C1777.1,383.9,1845.5,458.3,1845.5,458.3z"/>
					</defs>
					<use xlink:href="#XMLID_79_"  style="overflow:visible;fill:#1B3D9E;"/>
					<clipPath id="XMLID_7_">
						<use xlink:href="#XMLID_79_"  style="overflow:visible;"/>
					</clipPath>
					<path class="st15" d="M1615.8,504.7c8.5-0.2,115.9-22.5,124.6-24.4c8.6-1.9-11,20.6,1.4,15.8c12.5-4.8,55.1-19.2,56.5-16.8
						c1.4,2.4-18.6,81-18.6,81s-8.7-57-10.2-56.6s-80.5,43.6-109.2,44.1c-28.7,0.5-40.2-3.8-42.6-19.6
						C1615.3,512.3,1615.8,504.7,1615.8,504.7z"/>
				</g>
			</g>
			<path class="st6" d="M1723.7,625.5l-13.5-4.3c-0.8-0.3-1.7,0.2-2,1c-0.3,0.8,0.2,1.7,1,2l4.7,1.5c-5,29.3-56.5,27.9-57,27.9
				c-0.9-0.1-1.6,0.7-1.6,1.5c0,0.9,0.7,1.6,1.5,1.6c0.1,0,0.7,0,1.8,0c4.1,0,14.8-0.3,26.1-3.1c18.7-4.6,29.9-13.9,32.3-27l5.7,1.8
				c0.2,0.1,0.3,0.1,0.5,0.1c0.7,0,1.3-0.4,1.5-1.1C1725,626.7,1724.6,625.8,1723.7,625.5z"/>
			<path class="st2" d="M1792,543.3l-30.5,2.1c-1.3-14.6-13.6-26-28.5-26c-11.8,0-22,7.2-26.4,17.5c-10.4-6-18.5-3.9-23-1.7
				c-2-13.8-13.9-24.5-28.3-24.5c-15.8,0-28.6,12.8-28.6,28.6c0,15.8,12.8,28.6,28.6,28.6c15.4,0,28-12.2,28.6-27.5
				c2.3-1.7,10-6,21.2,1c-0.5,2.1-0.8,4.3-0.8,6.5c0,15.8,12.8,28.6,28.6,28.6c15.1,0,27.4-11.7,28.5-26.5l30.8-2.1
				c1.3-0.1,2.3-1.2,2.2-2.5C1794.4,544.1,1793.3,543.2,1792,543.3z"/>
		</g>
		<path class="st2" d="M1760.2,843.2l19.2,29.1c10,15.1,31.3,17.7,44.5,5.2c30.6-28.8,75.9-79.8,65.9-122.1l-17.6-8.1
			C1872.3,747.3,1816.5,829.8,1760.2,843.2z"/>
		<path class="st2" d="M1753.1,840.7l-23.6,18.7c-11.6,9.2-28.8,2.4-30.8-12.2c-3.2-22.6-4.1-52.9,8.2-74.8l25-13.6L1753.1,840.7z"
			/>
		<g>
			
				<ellipse transform="matrix(0.7071 -0.7071 0.7071 0.7071 -142.3071 1506.9421)" class="st9" cx="1747.9" cy="925.3" rx="12.3" ry="12.3"/>
			<circle class="st9" cx="1744.7" cy="1016" r="12.3"/>
			<circle class="st9" cx="1739.9" cy="1106.8" r="12.3"/>
			<circle class="st9" cx="1735.6" cy="1197.5" r="12.3"/>
			<circle class="st9" cx="1735.6" cy="1288.3" r="12.3"/>
		</g>
	</g>
	<path class="st16" d="M2041.2,880.5c0,0,102.6,238.6,91.7,364.3c-7.9,90.9-408,149.5-408,149.5l-44.4-71.5l296.7-145.2
		C1977.2,1177.5,1862.5,919.9,2041.2,880.5z"/>
	<path class="st9" d="M1776.1,1276l201.1-98.4c0,0-50.7-104.6-40-173.8c0,0-27.3,102.1,16.7,163.2
		C1953.9,1166.9,1779.8,1267,1776.1,1276z"/>
	<path class="st9" d="M2041.2,880.5c0,0-83.4-17.6-104.1,123.2c0,0-8-133.8,94.2-140.2L2041.2,880.5z"/>
	<path class="st9" d="M1932.3,1351.9l-122.3,25.5c0,0,92.2,2.2,106.9-3.2C1916.9,1374.3,1929.5,1363.4,1932.3,1351.9z"/>
	<g>
		<g>
			<defs>
				<path id="XMLID_78_" d="M1324.2,1376.5c0,0,695.7-15.1,699.5-8.2c3.7,6.9,2.5,31.5-4.2,32.7c-6.6,1.2-679,15.6-688.2,9.8
					C1322.1,1405,1324.2,1376.5,1324.2,1376.5z"/>
			</defs>
			<use xlink:href="#XMLID_78_"  style="overflow:visible;fill:#1B3D9E;"/>
			<clipPath id="XMLID_8_">
				<use xlink:href="#XMLID_78_"  style="overflow:visible;"/>
			</clipPath>
			<path class="st17" d="M1767.6,1359c0,0,3.5,51.7,0,53.1c-3.5,1.4-432,9.9-443.6,4.4c-11.6-5.5-15.7-43.1-7.5-45.7
				C1324.8,1368.3,1767.6,1359,1767.6,1359"/>
		</g>
		<path class="st18" d="M1146.4,1102.2c-1.3-2.8,0.7-6,3.8-6c55.3-0.6,449.3-4.6,461.9,1.8c13.6,6.8,162.2,268.3,155.4,272.9
			s-428.6,11.3-443.2,5.6C1298,1366.4,1174.1,1161.7,1146.4,1102.2z"/>
		
			<ellipse transform="matrix(0.7968 -0.6042 0.6042 0.7968 -460.2532 1139.8501)" class="st2" cx="1464.6" cy="1254.2" rx="31.2" ry="35.6"/>
	</g>
</g>
<g>
	<g>
		<path class="st2" d="M580.8,777.9c-33,0-59.8-26.8-59.8-59.8v-145c0-33,26.8-59.8,59.8-59.8h360.4c33,0,59.8,26.8,59.8,59.8v145
			c0,33-26.8,59.8-59.8,59.8H580.8z"/>
		<path class="st19" d="M941.2,757.7H580.8c-21.8,0-39.5-17.7-39.5-39.5v-145c0-21.8,17.7-39.5,39.5-39.5h360.4
			c21.8,0,39.5,17.7,39.5,39.5v145C980.8,740,963.1,757.7,941.2,757.7z"/>
		<g>
			<path class="st2" d="M653.7,603.4c0.4-1.7,1.1-3,2.3-3.9c1.2-0.9,2.4-1.4,3.8-1.4c1.4,0,2.7,0.4,3.9,1.2c1.2,0.8,2.1,2,2.6,3.7
				c1.7,14.7,2.8,29.2,3.5,43.5c0.6,14.4,1,28.9,1.1,43.7c-0.1,1.4-0.4,2.5-1.1,3.4c-0.7,0.9-1.5,1.6-2.5,2c-1,0.4-2.1,0.6-3.3,0.6
				c-1.2,0-2.3-0.2-3.4-0.7c-1-0.5-1.9-1.1-2.7-2c-0.7-0.9-1.2-2-1.4-3.3c-0.1-7,0.1-13.8,0.4-20.5c0.3-6.7,0.3-13.5,0-20.5
				c-0.3,0.1-0.6,0.2-1,0.4c-0.4,0.1-0.8,0.2-1.2,0.4c-3.5-0.1-6.8-0.2-10-0.5c-3.2-0.2-6.4-0.4-9.5-0.6c-3.1-0.1-6.3-0.1-9.5,0.1
				c-3.2,0.2-6.4,0.6-9.8,1.4l-0.9,37c-0.1,2-0.8,3.5-2,4.5c-1.2,1-2.5,1.5-4,1.5c-1.4,0-2.8-0.5-4.1-1.5c-1.3-1-2.1-2.5-2.3-4.4
				v-84.1c0.4-1.7,1.1-3,2.3-3.8c1.2-0.8,2.4-1.2,3.8-1.2c1.4,0,2.7,0.5,4,1.4c1.3,0.9,2.1,2.2,2.6,3.8l0.6,34.1
				c3.4-0.6,6.7-1,9.8-1.1c3.2-0.1,6.3-0.1,9.5,0c3.1,0.2,6.3,0.4,9.5,0.6c3.2,0.2,6.5,0.4,10,0.5c0.2,0.1,0.5,0.2,0.6,0.2
				c0.2,0,0.4,0.1,0.6,0.2c-0.4-6.1-0.7-11.9-1-17.4C654.7,615.3,654.3,609.5,653.7,603.4z"/>
			<path class="st2" d="M686.1,611.5c-1.7-0.2-3.1-0.8-4.1-1.8c-1-0.9-1.6-2-1.7-3.1c-0.2-1.1,0.1-2.3,0.8-3.4
				c0.7-1.1,1.9-2,3.6-2.6c6.4-0.8,12.2-1.3,17.4-1.6c5.2-0.2,10.2-0.4,15.2-0.3c4.9,0,10,0.2,15.2,0.4c5.2,0.2,11,0.4,17.4,0.4
				c1.7,0.5,2.9,1.3,3.7,2.4c0.8,1.1,1.2,2.2,1.2,3.4c0,1.2-0.5,2.2-1.4,3.2c-0.9,1-2.2,1.7-3.9,2c-2.6,0-4.9,0-6.9,0
				c-2,0-4,0.1-6,0.1c-1.9,0-3.9,0.1-6,0.1c-2,0.1-4.3,0.1-6.9,0.1c0.1,6.5,0.1,12.9,0.1,19.3c0,6.4,0.1,12.7,0.2,19
				c0.1,6.3,0.3,12.7,0.6,19c0.2,6.4,0.6,12.8,1.2,19.3c-0.1,1.7-0.6,3.2-1.7,4.3c-1.1,1.2-2.3,2-3.7,2.4c-1.4,0.4-2.8,0.4-4.2-0.1
				c-1.4-0.5-2.5-1.5-3.2-3.1c-0.6-6.7-1-13.3-1.1-20c-0.1-6.7-0.1-13.4,0-20.1c0.1-6.7,0.3-13.4,0.5-20.1c0.2-6.7,0.3-13.4,0.3-20
				c-2.8,0.1-5.2,0.1-7.3,0c-2.1-0.1-4.1-0.1-6.1-0.1c-1.9,0-3.9,0-6,0.1C691.3,610.9,688.9,611.1,686.1,611.5z"/>
			<path class="st2" d="M818.1,686.5c-1.3,2.2-2.6,3.6-3.9,4c-1.3,0.5-2.5,0.5-3.6,0c-1.1-0.5-2-1.2-2.7-2.1c-0.7-1-1.2-1.7-1.5-2.4
				c-1.1-2.6-2.2-5.6-3.2-9.1c-1-3.5-2-7.2-3-11c-1-3.9-1.9-7.9-3-12c-1-4.1-2.1-8.1-3.1-11.9c-1.1-3.8-2.2-7.4-3.4-10.8
				c-1.2-3.4-2.5-6.3-3.9-8.7c-1.5,5.4-2.6,10.8-3.5,16.2c-0.8,5.4-1.5,10.9-2,16.3c-0.5,5.5-1,10.9-1.4,16.3
				c-0.4,5.4-0.9,10.8-1.6,16.2c-0.3,2.2-1,3.9-2.1,4.9c-1.1,1-2.3,1.6-3.7,1.6c-1.4,0-2.8-0.4-4.2-1.4c-1.4-1-2.5-2.4-3.4-4.2
				c0.2-7.6,0.8-15.3,1.7-23.1c0.9-7.8,1.9-15.4,3-22.7c1.1-7.3,2.3-14.2,3.6-20.7c1.2-6.5,2.3-12.2,3.2-17c0.6-1.4,1.5-2.4,2.8-3.2
				c1.3-0.8,2.8-1.2,4.3-1.3c1.5-0.1,3,0,4.5,0.5c1.4,0.5,2.5,1.2,3.2,2.4c3.5,4.7,6.5,9.8,8.8,15.2c2.4,5.4,4.4,10.8,6,16.2
				c1.6,5.4,2.9,10.5,4,15.4c1.1,4.9,2.1,9.2,3.2,12.9c1.4-5.9,3-11.6,4.9-17.4c1.9-5.7,3.7-11.1,5.6-16.2c1.8-5.1,3.6-9.7,5.1-13.9
				c1.6-4.2,2.7-7.6,3.4-10.3c0.4-1.4,1.1-2.6,2.3-3.7c1.2-1,2.4-1.7,3.8-2c1.4-0.3,2.7-0.1,4,0.5c1.3,0.6,2.2,1.8,2.7,3.7
				c1.1,7.5,2.4,14.9,3.8,22c1.4,7.2,2.9,14.2,4.3,21.2c1.4,7,2.7,13.9,4,20.8c1.2,6.9,2.1,13.8,2.7,20.7c0.2,2-0.3,3.6-1.3,4.7
				c-1.1,1.1-2.3,1.6-3.7,1.7c-1.4,0.1-2.8-0.4-4.2-1.3c-1.4-1-2.3-2.5-2.7-4.6c-1.2-5.4-2.4-10.7-3.5-15.8
				c-1.1-5.1-2.1-10.3-3-15.3c-0.9-5.1-1.8-10.2-2.5-15.4c-0.8-5.2-1.5-10.5-2.1-16c-1.4,4.9-2.6,9.7-3.9,14.6
				c-1.2,4.9-2.5,9.8-3.9,14.8c-1.4,5-3,10-4.7,15.1C822.5,676,820.4,681.2,818.1,686.5z"/>
			<path class="st2" d="M877.5,604.9c0.4-1.7,1.2-3,2.5-3.8c1.3-0.8,2.7-1.2,4.3-1.1c1.5,0.1,3,0.6,4.4,1.5c1.4,0.9,2.3,2.2,2.8,3.9
				c0,6.9-0.1,13.6-0.2,20c-0.1,6.4-0.3,12.8-0.4,19.1c-0.2,6.3-0.3,12.7-0.4,19.1c-0.1,6.4-0.2,13.1-0.3,20c3.4,0.5,7.1,0.8,11,0.9
				c3.9,0.1,7.9,0.2,11.9,0.1c4,0,8-0.1,11.9-0.2c3.9-0.1,7.6-0.2,11.1-0.2c1.7,0.5,2.9,1.3,3.7,2.4c0.8,1.1,1.2,2.2,1.2,3.4
				c0,1.2-0.5,2.2-1.4,3.2c-0.9,1-2.2,1.7-3.9,2c-3.9,0-8.1,0.1-12.6,0.4c-4.5,0.2-9.1,0.4-13.7,0.6c-4.6,0.1-9.2,0.1-13.6,0
				c-4.5-0.1-8.6-0.4-12.4-1c-1.4,0.3-2.8,0-4.1-1c-1.3-1-2.1-2.5-2.4-4.8c0-7.3,0-14.4,0.1-21.4c0.1-7,0.1-14,0.2-20.9
				c0.1-6.9,0.2-13.9,0.2-20.9C877.5,619.3,877.5,612.2,877.5,604.9z"/>
		</g>
	</g>
	<g>
		<path class="st2" d="M1068.3,939.6c-21.2,0-38.4-17.2-38.4-38.4V788.5c0-21.2,17.2-38.4,38.4-38.4h254.3
			c21.2,0,38.4,17.2,38.4,38.4v112.6c0,21.2-17.2,38.4-38.4,38.4H1068.3z"/>
		<path class="st19" d="M1322.5,923.6h-254.3c-12.4,0-22.4-10-22.4-22.4V788.5c0-12.4,10-22.4,22.4-22.4h254.3
			c12.4,0,22.4,10,22.4,22.4v112.6C1344.9,913.5,1334.9,923.6,1322.5,923.6z"/>
		<g>
			<path class="st2" d="M1100.8,819.4c-1.4-0.2-2.4-0.7-3.2-1.4c-0.8-0.7-1.2-1.5-1.4-2.5c-0.1-0.9,0.1-1.8,0.7-2.7
				c0.6-0.9,1.5-1.6,2.8-2.1c2-0.1,4.2-0.3,6.6-0.6c2.4-0.2,4.8-0.4,7.2-0.5c2.4-0.1,4.7,0,7,0.3c2.2,0.2,4.2,0.8,5.9,1.5
				c1.3,0.9,2.1,2,2.5,3.3c0.3,1.2,0.3,2.4-0.1,3.4c-0.4,1-1.1,1.7-2.1,2.2c-1,0.4-2.3,0.3-3.7-0.4c-1.2-0.5-2.8-0.8-4.8-0.8
				c0.2,2.7,0.6,5.7,1,9c0.4,3.3,0.8,6.7,1.2,10.2c0.4,3.5,0.7,7.1,0.9,10.7s0.3,7.1,0.1,10.5c-0.1,3.4-0.5,6.7-1.2,9.7
				c-0.7,3.1-1.7,5.8-3,8.2c-1,1.8-2.4,3.2-4.2,4.2c-1.8,1-3.8,1.8-6,2.2c-2.2,0.4-4.4,0.5-6.8,0.4s-4.6-0.6-6.8-1.2
				c-2.2-0.7-4.2-1.5-6-2.6c-1.8-1.1-3.3-2.4-4.4-3.8c-0.8-1.1-1.5-2.4-1.9-3.7c-0.4-1.4-0.8-2.8-1-4.2c-0.2-1.5-0.4-2.9-0.4-4.4
				c0-1.4-0.1-2.8-0.1-4.1c0.3-1.4,0.9-2.4,1.9-3c1-0.7,2-1,3.1-1s2.2,0.3,3.2,1c1,0.7,1.7,1.7,2.1,3c0,2,0,3.6,0,5
				c-0.1,1.4,0,2.6,0.3,3.6c0.3,1,0.9,1.9,1.8,2.7c0.9,0.8,2.3,1.5,4.3,2.3c4.1,1.4,7.3,1.4,9.6,0c2.2-1.4,3.8-4.3,4.7-8.6
				c0.7-3.4,1-7,1-10.8c0-3.8-0.2-7.7-0.5-11.6c-0.3-3.9-0.8-7.8-1.3-11.7s-0.9-7.7-1.2-11.3c-1.4,0.2-2.8,0.2-4.2-0.1
				C1102.8,819.4,1101.6,819.3,1100.8,819.4z"/>
			<path class="st2" d="M1133.6,880.7c0.9-2,1.7-4.6,2.5-7.7c0.8-3.1,1.6-6.5,2.3-10.2c0.8-3.7,1.6-7.6,2.5-11.6
				c0.9-4.1,1.8-8,2.8-12s2.1-7.7,3.3-11.2c1.2-3.5,2.6-6.6,4.1-9.3c1.5-2.7,3.2-4.8,5.1-6.4c1.9-1.6,3.9-2.4,6.2-2.4
				c1.3,0,2.6,0.8,3.9,2.4c1.3,1.6,2.6,3.7,3.8,6.4c1.2,2.7,2.5,5.7,3.7,9.3c1.2,3.5,2.5,7.2,3.7,11.1c1.2,3.9,2.4,7.8,3.7,11.8
				c1.2,4,2.4,7.8,3.6,11.4c1.2,3.6,2.4,6.9,3.6,10c1.2,3,2.4,5.5,3.6,7.4c0.4,1.3,0.3,2.5-0.1,3.5c-0.5,1-1.2,1.7-2.1,2.2
				c-0.9,0.5-1.9,0.6-3.1,0.5c-1.2-0.2-2.2-0.7-3.2-1.7c-1.2-1.8-2.2-3.7-3.2-5.8c-1-2.1-1.8-4-2.5-5.9c-0.7-1.9-1.3-3.6-1.7-5.2
				c-0.4-1.5-0.7-2.7-0.9-3.5c-2.4,0-4.8,0-7,0c-2.2,0-4.5,0-6.7,0s-4.4,0-6.6,0c-2.2,0-4.6-0.1-7.1-0.1c-0.6,2.2-1,4.2-1.4,5.9
				c-0.3,1.7-0.6,3.3-0.9,4.9c-0.3,1.6-0.7,3.2-1.1,4.8c-0.4,1.7-1.1,3.6-1.9,5.7c-0.9,1.1-1.9,1.7-3,2c-1.1,0.2-2.2,0.2-3.1-0.3
				c-1-0.4-1.7-1.1-2.3-2.1C1133.4,883.3,1133.3,882.1,1133.6,880.7z M1161.5,821.2c-0.7-0.2-1.4,0.2-2,1.3c-0.7,1.1-1.4,2.5-2,4.4
				c-0.7,1.9-1.3,4-1.9,6.4c-0.6,2.4-1.3,4.8-1.9,7.2c-0.6,2.4-1.2,4.8-1.7,7c-0.5,2.2-1,4.1-1.5,5.7c2.1,0,4,0.1,5.8,0.1
				c1.8,0.1,3.5,0.1,5.3,0.2c1.7,0.1,3.5,0.1,5.3,0.2c1.8,0.1,3.7,0.1,5.7,0.2c-1.2-2.9-2.2-5.7-3-8.4c-0.8-2.7-1.6-5.4-2.3-8.1
				c-0.8-2.7-1.6-5.4-2.5-8.1C1163.9,826.7,1162.8,824,1161.5,821.2z"/>
			<path class="st2" d="M1225.4,884.4c-0.7,0.8-1.5,1.4-2.3,1.6c-0.8,0.3-1.5,0.3-2.2,0.2c-0.7-0.1-1.4-0.5-1.9-1
				c-0.6-0.5-1.1-1.1-1.5-1.9c-4.1-11.5-8.2-22.7-12.3-33.7s-8.4-22-12.8-33.3c-0.1-1.4,0.2-2.5,1-3.4c0.8-0.9,1.8-1.5,2.9-1.8
				c1.2-0.3,2.4-0.2,3.6,0.1c1.2,0.4,2.3,1.1,3.1,2.3c1.8,5,3.6,9.6,5.3,13.9c1.7,4.3,3.4,8.6,4.9,12.9c1.6,4.3,3.1,8.6,4.6,13.1
				c1.5,4.5,2.9,9.3,4.4,14.6c1.9-4.7,3.7-9.3,5.5-13.9c1.8-4.6,3.5-9.2,5.1-13.8c1.6-4.6,3.2-9.2,4.8-13.8c1.6-4.6,3.1-9.3,4.7-14
				c0.7-1.2,1.6-1.9,2.7-2.2c1.1-0.3,2.2-0.2,3.2,0.2s1.9,1.2,2.6,2.2c0.7,1,1,2.2,1,3.6c-1.6,5.7-3.4,11.4-5.5,17
				c-2,5.6-4.2,11.3-6.6,16.9c-2.3,5.6-4.7,11.3-7.1,16.9C1230.1,873,1227.7,878.7,1225.4,884.4z"/>
			<path class="st2" d="M1258.6,880.7c0.9-2,1.7-4.6,2.5-7.7c0.8-3.1,1.6-6.5,2.3-10.2c0.8-3.7,1.6-7.6,2.5-11.6
				c0.9-4.1,1.8-8,2.8-12c1-3.9,2.1-7.7,3.3-11.2c1.2-3.5,2.6-6.6,4.1-9.3c1.5-2.7,3.2-4.8,5.1-6.4c1.9-1.6,3.9-2.4,6.2-2.4
				c1.3,0,2.6,0.8,3.9,2.4c1.3,1.6,2.6,3.7,3.8,6.4c1.2,2.7,2.5,5.7,3.7,9.3c1.2,3.5,2.5,7.2,3.7,11.1c1.2,3.9,2.4,7.8,3.7,11.8
				c1.2,4,2.4,7.8,3.6,11.4c1.2,3.6,2.4,6.9,3.6,10c1.2,3,2.4,5.5,3.6,7.4c0.4,1.3,0.3,2.5-0.1,3.5c-0.5,1-1.2,1.7-2.1,2.2
				c-0.9,0.5-1.9,0.6-3.1,0.5c-1.2-0.2-2.2-0.7-3.2-1.7c-1.2-1.8-2.2-3.7-3.2-5.8c-1-2.1-1.8-4-2.5-5.9c-0.7-1.9-1.3-3.6-1.7-5.2
				c-0.4-1.5-0.7-2.7-0.9-3.5c-2.4,0-4.8,0-7,0c-2.2,0-4.5,0-6.7,0c-2.2,0-4.4,0-6.6,0c-2.2,0-4.6-0.1-7.1-0.1
				c-0.6,2.2-1,4.2-1.4,5.9c-0.3,1.7-0.6,3.3-0.9,4.9c-0.3,1.6-0.7,3.2-1.1,4.8c-0.4,1.7-1.1,3.6-1.9,5.7c-0.9,1.1-1.9,1.7-3,2
				c-1.1,0.2-2.2,0.2-3.1-0.3c-1-0.4-1.7-1.1-2.3-2.1C1258.5,883.3,1258.3,882.1,1258.6,880.7z M1286.6,821.2
				c-0.7-0.2-1.4,0.2-2,1.3c-0.7,1.1-1.4,2.5-2,4.4c-0.7,1.9-1.3,4-1.9,6.4c-0.6,2.4-1.3,4.8-1.9,7.2c-0.6,2.4-1.2,4.8-1.7,7
				c-0.5,2.2-1,4.1-1.5,5.7c2.1,0,4,0.1,5.8,0.1c1.8,0.1,3.5,0.1,5.3,0.2c1.7,0.1,3.5,0.1,5.3,0.2c1.8,0.1,3.7,0.1,5.7,0.2
				c-1.2-2.9-2.2-5.7-3-8.4c-0.8-2.7-1.6-5.4-2.3-8.1c-0.8-2.7-1.6-5.4-2.5-8.1C1288.9,826.7,1287.8,824,1286.6,821.2z"/>
		</g>
	</g>
	<g>
		<path class="st2" d="M1116.1,676.9c-24.5,0-44.4-19.9-44.4-44.4v-120c0-24.5,19.9-44.4,44.4-44.4h282.8
			c24.5,0,44.4,19.9,44.4,44.4v120c0,24.5-19.9,44.4-44.4,44.4H1116.1z"/>
		<path class="st19" d="M1398.9,657h-282.8c-13.6,0-24.6-11-24.6-24.6v-120c0-13.6,11-24.6,24.6-24.6h282.8
			c13.6,0,24.6,11,24.6,24.6v120C1423.4,646,1412.4,657,1398.9,657z"/>
		<g>
			<path class="st2" d="M1156.5,537.4c-0.1-1.8,0.2-3.3,1-4.4c0.8-1.1,1.7-1.9,2.8-2.3c1.1-0.4,2.2-0.3,3.4,0.1
				c1.2,0.5,2.1,1.4,2.9,2.9c1.8-1.4,4.4-2.4,7.6-3c3.3-0.6,6.8-0.8,10.7-0.5c3.9,0.2,7.8,1,11.8,2.1c4,1.2,7.7,2.9,11,5.2
				c3.3,2.3,6,5.1,8.2,8.5c2.1,3.4,3.3,7.4,3.4,12.1c0.1,5.7-0.6,10.7-2.3,15.1c-1.6,4.4-3.8,8.2-6.6,11.2c-2.8,3.1-6,5.5-9.6,7.3
				c-3.6,1.8-7.3,2.9-11.1,3.4c-3.7,0.4-7.4,0.2-11.1-0.8c-3.6-1-6.9-2.6-9.7-5c-0.1,2.6-0.2,5.1-0.1,7.5c0.1,2.4,0.1,4.7,0.2,7.1
				c0.1,2.3,0.1,4.7,0.2,7.1c0.1,2.4,0.1,4.9,0,7.5c-0.1,2-0.7,3.5-1.7,4.5c-1,1-2.2,1.6-3.4,1.6c-1.3,0-2.5-0.4-3.6-1.4
				c-1.1-0.9-1.8-2.4-2-4.3c0-7.3,0-14.3,0-21.2c0-6.9-0.1-13.7-0.2-20.4c-0.1-6.7-0.3-13.4-0.5-19.9
				C1157.3,550.7,1156.9,544,1156.5,537.4z M1168.5,545.5c0.2,3,0.4,5.8,0.5,8.4c0.1,2.7,0.2,5.3,0.2,7.9c0,2.6,0,5.3,0,7.9
				c0,2.7-0.1,5.5-0.1,8.4c0.8-0.1,1.8,0,2.9,0.3c1.8,1.8,3.9,2.9,6.3,3.6c2.4,0.6,4.9,0.8,7.4,0.5c2.5-0.3,5-1,7.4-2.1
				c2.4-1.1,4.6-2.6,6.5-4.4c1.9-1.8,3.4-3.9,4.6-6.3c1.2-2.4,1.8-5.1,1.8-8c0-3.1-0.7-5.8-2-8.2c-1.3-2.4-3.1-4.4-5.2-6.1
				c-2.1-1.7-4.6-3-7.3-3.9c-2.7-0.9-5.5-1.5-8.2-1.7c-2.8-0.2-5.5,0-8.1,0.6C1172.7,543.2,1170.4,544.2,1168.5,545.5z"/>
			<path class="st2" d="M1282.6,534c0.4-1.7,1.1-3,2.3-3.9c1.1-0.9,2.4-1.3,3.8-1.4c1.4,0,2.6,0.3,3.9,1.1c1.2,0.8,2.1,2,2.5,3.6
				c1.6,14.4,2.8,28.6,3.4,42.7c0.6,14.1,1,28.4,1,42.9c-0.1,1.3-0.4,2.4-1.1,3.3c-0.7,0.9-1.5,1.5-2.5,1.9c-1,0.4-2.1,0.6-3.3,0.6
				c-1.2,0-2.3-0.2-3.3-0.7c-1-0.5-1.9-1.1-2.6-1.9c-0.7-0.8-1.2-1.9-1.4-3.3c-0.1-6.8,0.1-13.5,0.4-20.1c0.3-6.6,0.3-13.3,0-20.1
				c-0.3,0.1-0.6,0.2-1,0.4c-0.4,0.1-0.8,0.2-1.2,0.4c-3.4-0.1-6.6-0.2-9.8-0.5c-3.1-0.2-6.3-0.4-9.3-0.5c-3.1-0.1-6.2-0.1-9.3,0.1
				c-3.1,0.2-6.3,0.6-9.6,1.4l-0.9,36.3c-0.1,2-0.8,3.5-1.9,4.4c-1.2,1-2.5,1.5-3.9,1.5c-1.4,0-2.8-0.5-4-1.5c-1.3-1-2-2.4-2.3-4.4
				V534c0.4-1.7,1.1-2.9,2.3-3.7c1.1-0.8,2.4-1.2,3.8-1.1c1.4,0,2.7,0.5,3.9,1.4c1.2,0.9,2.1,2.1,2.6,3.8l0.5,33.5
				c3.3-0.6,6.5-1,9.7-1.1c3.1-0.1,6.2-0.1,9.3,0c3.1,0.2,6.2,0.3,9.3,0.6c3.1,0.2,6.4,0.4,9.8,0.5c0.2,0.1,0.5,0.2,0.6,0.2
				c0.2,0,0.4,0.1,0.6,0.2c-0.4-6-0.7-11.7-1-17.1C1283.7,545.7,1283.2,540,1282.6,534z"/>
			<path class="st2" d="M1312.7,537.4c-0.1-1.8,0.2-3.3,1-4.4c0.8-1.1,1.7-1.9,2.8-2.3c1.1-0.4,2.2-0.3,3.4,0.1
				c1.2,0.5,2.1,1.4,2.9,2.9c1.8-1.4,4.4-2.4,7.6-3c3.3-0.6,6.8-0.8,10.7-0.5c3.9,0.2,7.8,1,11.8,2.1c4,1.2,7.7,2.9,11,5.2
				c3.3,2.3,6,5.1,8.2,8.5c2.1,3.4,3.3,7.4,3.4,12.1c0.1,5.7-0.6,10.7-2.3,15.1c-1.6,4.4-3.8,8.2-6.6,11.2c-2.8,3.1-6,5.5-9.6,7.3
				c-3.6,1.8-7.3,2.9-11.1,3.4c-3.7,0.4-7.4,0.2-11.1-0.8c-3.6-1-6.9-2.6-9.7-5c-0.1,2.6-0.2,5.1-0.1,7.5c0.1,2.4,0.1,4.7,0.2,7.1
				c0.1,2.3,0.1,4.7,0.2,7.1c0.1,2.4,0.1,4.9,0,7.5c-0.1,2-0.7,3.5-1.7,4.5c-1,1-2.2,1.6-3.4,1.6c-1.3,0-2.5-0.4-3.6-1.4
				c-1.1-0.9-1.8-2.4-2-4.3c0-7.3,0-14.3,0-21.2c0-6.9-0.1-13.7-0.2-20.4c-0.1-6.7-0.3-13.4-0.5-19.9
				C1313.5,550.7,1313.1,544,1312.7,537.4z M1324.7,545.5c0.2,3,0.4,5.8,0.5,8.4c0.1,2.7,0.2,5.3,0.2,7.9c0,2.6,0,5.3,0,7.9
				c0,2.7-0.1,5.5-0.1,8.4c0.8-0.1,1.8,0,2.9,0.3c1.8,1.8,3.9,2.9,6.3,3.6c2.4,0.6,4.9,0.8,7.4,0.5c2.5-0.3,5-1,7.4-2.1
				c2.4-1.1,4.6-2.6,6.5-4.4c1.9-1.8,3.4-3.9,4.6-6.3c1.2-2.4,1.8-5.1,1.8-8c0-3.1-0.7-5.8-2-8.2c-1.3-2.4-3.1-4.4-5.2-6.1
				c-2.1-1.7-4.6-3-7.3-3.9c-2.7-0.9-5.5-1.5-8.2-1.7c-2.8-0.2-5.5,0-8.1,0.6C1328.9,543.2,1326.6,544.2,1324.7,545.5z"/>
		</g>
	</g>
	<g>
		<path class="st2" d="M667.2,969.4V866.7c0-19.7,16-35.7,35.7-35.7h211.6c19.7,0,35.7,16,35.7,35.7v102.7c0,19.7-16,35.7-35.7,35.7
			H703C683.2,1005.1,667.2,989.1,667.2,969.4z"/>
		<path class="st19" d="M918.5,987.7H698.4c-9.3,0-16.8-7.5-16.8-16.8V865.1c0-9.3,7.5-16.8,16.8-16.8h220.1
			c9.3,0,16.8,7.5,16.8,16.8v105.8C935.3,980.2,927.8,987.7,918.5,987.7z"/>
		<g>
			<path class="st2" d="M761.6,879.6c-0.2-1.7,0.1-3,0.8-4.1c0.8-1,1.7-1.7,2.8-1.9c1.1-0.2,2.2,0,3.3,0.6c1.1,0.7,1.9,1.8,2.4,3.4
				c0.5,2.7,0.8,5.5,1,8.2c0.2,2.7,0.3,5.5,0.3,8.3c-0.1,1.7-0.7,3.1-1.7,4c-1,0.9-2.2,1.5-3.4,1.6c-1.3,0.1-2.4-0.2-3.5-0.9
				c-1.1-0.7-1.8-1.9-2-3.6v-0.6c-2.5-3.3-5.4-5.6-8.6-7c-3.2-1.4-6.5-1.9-9.9-1.7c-3.4,0.2-6.7,1.2-10,2.8c-3.3,1.7-6.3,3.8-9,6.5
				c-1.7,1.7-3.1,3.7-4.1,6.1c-1.1,2.4-1.9,4.9-2.4,7.5c-0.6,2.7-0.9,5.4-0.9,8.1c-0.1,2.8,0.1,5.4,0.4,7.9c0.3,2.5,0.9,4.9,1.6,7
				c0.7,2.2,1.6,3.9,2.6,5.3c1.5,2.2,3.4,3.9,5.7,5.4c2.3,1.4,4.7,2.5,7.4,3.2c2.6,0.7,5.3,1.1,8.1,1.1c2.8,0,5.5-0.3,8.2-0.9
				c2.6-0.6,5.1-1.6,7.4-2.9c2.3-1.3,4.2-2.9,5.7-4.8c0.7-0.9,1.3-2,1.6-3.2c0.3-1.2,0.7-2.3,1.2-3.4c0.8-1.5,1.8-2.4,2.8-2.8
				s2-0.4,2.8,0.1c0.8,0.4,1.5,1.3,2.1,2.5c0.6,1.2,0.8,2.7,0.7,4.4c-0.1,3.7-1.4,7.1-3.8,10c-2.4,2.9-5.5,5.4-9.3,7.3
				c-3.8,1.9-8,3.3-12.7,4.1c-4.7,0.8-9.3,0.9-14,0.4c-4.6-0.6-9-1.8-13.1-3.8c-4.1-2-7.4-4.9-10.1-8.6c-1.5-2.1-2.7-4.6-3.8-7.6
				c-1-3-1.8-6.2-2.3-9.6c-0.5-3.4-0.7-7-0.7-10.7c0.1-3.7,0.4-7.3,1.1-10.9c0.7-3.5,1.8-6.9,3.2-10c1.4-3.1,3.2-5.9,5.4-8.3
				c1.7-1.8,3.8-3.5,6.2-5.1c2.4-1.6,5-2.9,7.8-4c2.8-1.1,5.7-1.9,8.7-2.5c3-0.6,6-0.8,8.9-0.7c2.9,0.1,5.7,0.6,8.4,1.5
				c2.7,0.9,5.1,2.3,7.2,4.1c-0.1-0.3-0.1-0.6-0.2-0.9C761.7,880.2,761.7,879.9,761.6,879.6z"/>
			<path class="st2" d="M837.6,896.1c0.4,1.4,0.3,2.6-0.4,3.5c-0.7,0.9-1.7,1.5-2.9,1.8c-1.2,0.3-2.6,0.3-4.1,0
				c-1.5-0.3-2.7-1-3.8-2.1c-0.1-1.6-0.5-3.3-1.2-5c-0.7-1.7-1.6-3.2-2.8-4.6c-1.2-1.4-2.5-2.5-4.1-3.4c-1.6-0.9-3.3-1.3-5-1.3
				c-2.5,0.1-4.7,0.7-6.6,1.9c-1.9,1.2-3.5,2.7-4.6,4.6c-1.1,1.9-1.7,4.1-1.9,6.5c-0.2,2.4,0.3,4.9,1.5,7.4c0.4,1,1.6,1.8,3.4,2.3
				c1.9,0.5,4.1,1.1,6.6,1.7c2.6,0.6,5.3,1.4,8.3,2.2c2.9,0.9,5.7,2.2,8.4,3.9c2.6,1.7,5,4,6.9,6.8c2,2.8,3.3,6.4,4,10.8
				c0.5,3.7,0.2,7-1.1,9.8c-1.2,2.8-3.1,5.2-5.5,7.2c-2.4,2-5.2,3.5-8.5,4.6c-3.3,1.1-6.6,1.7-10.2,1.8c-3.5,0.1-7-0.2-10.4-1
				c-3.4-0.8-6.5-2.1-9.2-3.9c-2.7-1.8-4.9-4.1-6.6-6.9c-1.7-2.8-2.5-6.1-2.6-10c0-1,0.1-2.1,0.2-3c0.1-1,0.3-1.8,0.7-2.6
				c0.4-0.8,0.9-1.5,1.6-2c0.7-0.6,1.6-0.9,2.8-1.1c1-0.1,1.9,0.1,2.7,0.6c0.7,0.4,1.3,1,1.8,1.7c0.4,0.7,0.7,1.5,0.9,2.5
				c0.1,1,0.1,2,0,3.1c-0.3,2.3,0.1,4.3,1,5.9c0.9,1.7,2.2,3,3.7,4.1s3.4,1.9,5.4,2.4c2,0.5,3.9,0.7,5.8,0.6
				c1.9-0.1,3.8-0.4,5.7-0.8c1.9-0.4,3.7-1.2,5.3-2.1c1.6-1,2.8-2.2,3.8-3.8c0.9-1.6,1.3-3.5,1.1-5.9c-0.1-1.3-0.5-2.6-1.1-3.9
				c-0.6-1.4-1.4-2.6-2.4-3.8c-1-1.2-2.1-2.2-3.4-3.2c-1.3-0.9-2.6-1.6-4-2c-2.1-0.6-4.3-1.2-6.5-1.8c-2.3-0.6-4.4-1.2-6.6-2
				c-2.1-0.7-4.1-1.6-6-2.6c-1.9-1-3.6-2.2-5-3.7c-1.4-1.5-2.6-3.2-3.4-5.3c-0.8-2.1-1.3-4.6-1.3-7.4c-0.1-3.5,0.6-6.7,1.9-9.5
				c1.3-2.8,3.1-5.2,5.3-7.2c2.2-2,4.7-3.5,7.4-4.6c2.7-1.1,5.4-1.6,8.1-1.6c3.7,0,7,0.5,10.1,1.4c3,0.9,5.7,2.3,8,4.1
				c2.3,1.8,4.2,3.9,5.7,6.5C836.1,890.2,837.1,893,837.6,896.1z"/>
			<path class="st2" d="M896.9,896.1c0.4,1.4,0.3,2.6-0.4,3.5c-0.7,0.9-1.7,1.5-2.9,1.8c-1.2,0.3-2.6,0.3-4.1,0
				c-1.5-0.3-2.7-1-3.8-2.1c-0.1-1.6-0.5-3.3-1.2-5c-0.7-1.7-1.6-3.2-2.8-4.6c-1.2-1.4-2.5-2.5-4.1-3.4c-1.6-0.9-3.3-1.3-5-1.3
				c-2.5,0.1-4.7,0.7-6.6,1.9c-1.9,1.2-3.5,2.7-4.6,4.6c-1.1,1.9-1.7,4.1-1.9,6.5c-0.2,2.4,0.3,4.9,1.5,7.4c0.4,1,1.6,1.8,3.4,2.3
				c1.9,0.5,4.1,1.1,6.6,1.7c2.6,0.6,5.3,1.4,8.3,2.2c2.9,0.9,5.7,2.2,8.4,3.9c2.6,1.7,5,4,6.9,6.8c2,2.8,3.3,6.4,4,10.8
				c0.5,3.7,0.2,7-1.1,9.8c-1.2,2.8-3.1,5.2-5.5,7.2c-2.4,2-5.2,3.5-8.5,4.6c-3.3,1.1-6.6,1.7-10.2,1.8c-3.5,0.1-7-0.2-10.4-1
				c-3.4-0.8-6.5-2.1-9.2-3.9c-2.7-1.8-4.9-4.1-6.6-6.9c-1.7-2.8-2.5-6.1-2.6-10c0-1,0.1-2.1,0.2-3c0.1-1,0.3-1.8,0.7-2.6
				c0.4-0.8,0.9-1.5,1.6-2c0.7-0.6,1.6-0.9,2.8-1.1c1-0.1,1.9,0.1,2.7,0.6c0.7,0.4,1.3,1,1.8,1.7c0.4,0.7,0.7,1.5,0.9,2.5
				c0.1,1,0.1,2,0,3.1c-0.3,2.3,0.1,4.3,1,5.9c0.9,1.7,2.2,3,3.7,4.1c1.6,1.1,3.4,1.9,5.4,2.4c2,0.5,3.9,0.7,5.8,0.6
				c1.9-0.1,3.8-0.4,5.7-0.8c1.9-0.4,3.7-1.2,5.3-2.1c1.6-1,2.8-2.2,3.8-3.8c0.9-1.6,1.3-3.5,1.1-5.9c-0.1-1.3-0.5-2.6-1.1-3.9
				c-0.6-1.4-1.4-2.6-2.4-3.8c-1-1.2-2.1-2.2-3.4-3.2c-1.3-0.9-2.6-1.6-4-2c-2.1-0.6-4.3-1.2-6.5-1.8c-2.3-0.6-4.4-1.2-6.6-2
				c-2.1-0.7-4.1-1.6-6-2.6c-1.9-1-3.6-2.2-5-3.7c-1.4-1.5-2.6-3.2-3.4-5.3c-0.8-2.1-1.3-4.6-1.3-7.4c-0.1-3.5,0.6-6.7,1.9-9.5
				c1.3-2.8,3.1-5.2,5.3-7.2c2.2-2,4.7-3.5,7.4-4.6c2.7-1.1,5.4-1.6,8.1-1.6c3.7,0,7,0.5,10.1,1.4c3,0.9,5.7,2.3,8,4.1
				c2.3,1.8,4.2,3.9,5.7,6.5C895.4,890.2,896.4,893,896.9,896.1z"/>
		</g>
	</g>
</g>
<g>
	<path class="st18" d="M1897.7,314.5c16.8-9.1,289.9-54.9,295.4-23.9c0,0,32.9,173.9,16.4,179.9c-10.4,3.8-123.2,19-208.5,25.8
		c-17.7,27.7-39.8,56.2-46.4,59.9c-7.2,4-3.1-27,2.3-57.1c-28.4,1.2-48.4,0.3-51.4-3.8C1893.7,478.8,1880.9,323.7,1897.7,314.5z"/>
	<g>
		
			<ellipse transform="matrix(0.8194 -0.5732 0.5732 0.8194 168.1157 1294.1699)" class="st2" cx="2138.1" cy="380.3" rx="15.5" ry="15.5"/>
		<path class="st2" d="M2041.4,392.7c2.4,8.2,11,12.9,19.2,10.5c8.2-2.4,12.9-11,10.5-19.2c-2.4-8.2-11-12.9-19.2-10.5
			C2043.7,375.8,2039,384.5,2041.4,392.7z"/>
		<path class="st2" d="M1956.6,401.6c2.4,8.2,11,12.9,19.2,10.5c8.2-2.4,12.9-11,10.5-19.2c-2.4-8.2-11-12.9-19.2-10.5
			C1958.9,384.7,1954.2,393.3,1956.6,401.6z"/>
	</g>
</g>
<path class="st0" d="M429.2,759.1h-52.3c-1.9,0-3.4-1.5-3.4-3.4v-14.8c0-1.9,1.5-3.4,3.4-3.4h52.3c1.9,0,3.4,1.5,3.4,3.4v14.8
	C432.6,757.6,431.1,759.1,429.2,759.1z"/>
</svg>
