<?xml version="1.0" encoding="utf-8"?>
<!-- Generator: Adobe Illustrator 23.0.5, SVG Export Plug-In . SVG Version: 6.00 Build 0)  -->
<svg version="1.1" xmlns="http://www.w3.org/2000/svg" xmlns:xlink="http://www.w3.org/1999/xlink" x="0px" y="0px"
	 viewBox="0 0 1762 1340" style="enable-background:new 0 0 1762 1340;" xml:space="preserve">
<style type="text/css">
	.st0{fill:#E3EFF9;}
	.st1{opacity:0.4;fill:#E3EFF9;}
	.st2{fill:#E5E5FF;}
	.st3{fill:#CBCBFF;}
	.st4{fill:#9192FF;}
	.st5{fill:#B7B7FF;}
	.st6{fill:#FFFFFF;}
	.st7{fill:#E0E0FF;}
	.st8{opacity:0.6;fill:#B7B7FF;}
	.st9{fill:#5254CF;}
	.st10{opacity:0.6;fill:#1B1B43;}
	.st11{fill:#00487B;}
	.st12{clip-path:url(#SVGID_2_);}
	.st13{opacity:0.6;fill:#00487B;}
	.st14{fill:#FFB147;}
	.st15{fill:#FFBC96;}
	.st16{opacity:0.2;fill:#1B1B43;}
	.st17{fill:#D28572;}
	.st18{fill:#FFF5E8;}
	.st19{fill:#1B1B43;}
	.st20{opacity:0.4;fill:#FE5B52;}
</style>
<g id="BACKGROUND">
	
		<image style="overflow:visible;" width="388" height="264" xlink:href="E19C72E5.jpg"  transform="matrix(3.635 0 0 3.635 52.3822 1510.1794)">
	</image>
</g>
<g id="OBJECTS">
	<g>
		<g>
			<path class="st0" d="M1496,1155.5l-2.1-1.3c121.1-197,184.3-375,187.6-529.1c3.5-159.3-58.3-256.7-110.7-310.4
				c-50.4-51.5-116.3-87.4-185.6-101c-65-12.7-128.6-4.6-174.6,22.2l-1.3-2.2c46.4-27.1,110.7-35.3,176.3-22.4
				c69.8,13.7,136.2,49.8,186.9,101.7c52.8,54,114.9,152,111.4,312.2C1680.6,779.7,1617.4,958.1,1496,1155.5z"/>
			<path class="st1" d="M1593.1,457.4c-56.6-122.6-166.5-218.4-303.2-235c-109.1-13.3-218.7-15.1-328.3-21.7
				c-115.6-7.1-228.8-28.5-343-47.3c-73.3-12.1-137.6,5.8-208.7,31.5c-97.1,35.2-191,149-233.3,240
				c-102,219.3-45.7,495.1,44.2,708.7c4.4,10.5,34.8,93.8,43.9,93.8c0,0,1189.3,0,1189.3,0c71.7-105.2,130.5-220.9,163.2-340.4
				C1655.9,745,1655.5,592.7,1593.1,457.4z"/>
			<path class="st0" d="M146.2,897.8C99.5,752.1,79,625.5,85.1,521.4c5.1-86.6,28.7-158.5,70.1-213.8
				c94.8-126.6,253.2-124.1,254.8-124l-0.1,2.5c-1.5,0-158.7-2.5-252.7,123.1C116.1,364,92.7,435.5,87.6,521.6
				c-6.1,103.8,14.4,230.1,61,375.4L146.2,897.8z"/>
		</g>
	</g>
	<g>
		<g>
			<path class="st2" d="M1289.1,914.8H435.7c-17,0-30.8-13.8-30.8-30.8V53.9c0-17,13.8-30.8,30.8-30.8h853.4
				c17,0,30.8,13.8,30.8,30.8V884C1319.9,901,1306.1,914.8,1289.1,914.8z"/>
			<path class="st3" d="M1289.1,916H435.7c-17.7,0-32.1-14.4-32.1-32.1V53.9c0-17.7,14.4-32.1,32.1-32.1h853.4
				c17.7,0,32.1,14.4,32.1,32.1V884C1321.2,901.6,1306.8,916,1289.1,916z M435.7,24.3c-16.3,0-29.6,13.3-29.6,29.6V884
				c0,16.3,13.3,29.6,29.6,29.6h853.4c16.3,0,29.6-13.3,29.6-29.6V53.9c0-16.3-13.3-29.6-29.6-29.6H435.7z"/>
		</g>
		<g>
			<rect x="1019.9" y="127" class="st4" width="195" height="14.2"/>
			<rect x="958.7" y="188.2" class="st5" width="310.7" height="14.2"/>
			<rect x="958.7" y="230.3" class="st5" width="279.8" height="14.2"/>
			<rect x="958.7" y="272.4" class="st3" width="247.7" height="14.2"/>
			<rect x="958.7" y="314.5" class="st3" width="310.7" height="14.2"/>
			<rect x="958.7" y="356.5" class="st3" width="229.3" height="14.2"/>
		</g>
		<g>
			<rect x="470.9" y="587.4" class="st5" width="298.2" height="14.2"/>
			<rect x="471.7" y="626.1" class="st3" width="771" height="14.2"/>
		</g>
		<g>
			<rect x="471.3" y="127" class="st6" width="359.1" height="380"/>
			<g>
				<rect x="503.8" y="378" class="st5" width="25" height="87.4"/>
				<rect x="548.7" y="390.3" class="st7" width="25" height="75.1"/>
				<rect x="593.5" y="342.7" class="st5" width="25" height="122.7"/>
				<rect x="638.4" y="351.5" class="st7" width="25" height="113.9"/>
				<rect x="683.3" y="312.2" class="st5" width="25" height="153.2"/>
				<rect x="728.1" y="290.9" class="st7" width="25" height="174.5"/>
				<rect x="773" y="272" class="st5" width="25" height="193.4"/>
				<polygon class="st5" points="556.8,330.1 509.6,311.2 510.5,309 556.4,327.3 603,288.7 646.6,289.7 777.8,208.6 779.1,210.7 
					647.2,292.1 603.9,291.1 				"/>
			</g>
			<g>
				<rect x="499.3" y="202.3" class="st5" width="51.2" height="21.3"/>
				<rect x="567.4" y="214.5" class="st5" width="47.9" height="2.5"/>
			</g>
		</g>
		<g>
			<circle class="st6" cx="1181.5" cy="477" r="55.9"/>
			<g>
				<path class="st6" d="M1022.2,533c-30.9,0-55.9-25-55.9-55.9c0-27.9,20.5-51.1,47.3-55.3c2.8-0.4,5.7-0.7,8.7-0.7
					c16.5,0,31.4,7.2,41.6,18.6c8.9,9.9,14.3,23,14.3,37.3C1078.1,507.9,1053,533,1022.2,533z"/>
				<path class="st5" d="M1022.2,477.1l-8.7-55.3c2.8-0.4,5.7-0.7,8.7-0.7c16.5,0,31.4,7.2,41.6,18.6L1022.2,477.1z"/>
			</g>
		</g>
		<g>
			<g>
				<rect x="477.4" y="693.6" class="st6" width="767.4" height="147.5"/>
			</g>
			<g>
				<path class="st5" d="M1247,843.3H477.8V693.9H1247V843.3z M479.7,841.4h765.5V695.8H479.7V841.4z"/>
				<rect x="478.7" y="811.9" class="st5" width="767.4" height="1.9"/>
				<rect x="478.7" y="782.4" class="st5" width="767.4" height="1.9"/>
				<rect x="478.7" y="752.9" class="st5" width="767.4" height="1.9"/>
				<rect x="478.7" y="723.4" class="st5" width="767.4" height="1.9"/>
				<rect x="1117.3" y="694.9" class="st5" width="1.9" height="147.5"/>
				<rect x="989.4" y="694.9" class="st5" width="1.9" height="147.5"/>
				<rect x="861.5" y="694.9" class="st5" width="1.9" height="147.5"/>
				<rect x="733.6" y="694.9" class="st5" width="1.9" height="147.5"/>
				<rect x="605.7" y="694.9" class="st5" width="1.9" height="147.5"/>
			</g>
			<path class="st4" d="M499.8,819c11.2-15.5,13.6-35.6,23.5-51.9c4.9-8,11.3-15.9,20.2-19.5c15.4-6.2,19.3,13.7,19.6,24.7
				c0.5,16.2-2.2,33.7,11.2,45.9c4.5,4.1,10.4,6.5,16.4,4.9c7.2-1.9,11.7-8.5,15.3-14.6c10.2-17.4,16.7-37.3,23.8-56.2
				c3.6-9.5,8.2-21.7,17.6-27c13.4-7.6,14.9,9.2,14.8,18.1c0,9.7,0.1,19.4,0.2,29.1c0,4.7-0.9,14.4,4.6,17c3.2,1.5,5.8-1.4,7.6-3.7
				c1.6-2,2.7-4.4,4.2-6.5c1.5-1.9,2.8-3.1,5.5-3.3c2.4-0.2,3.6-0.2,5.3,2c0.9,1.3,1.4,3,1.7,4.5c1.9,7.3-0.1,15.5,4.1,22.2
				c2.3,3.7,7.2,7.5,11.9,6.7c9.4-1.5,11.7-16.7,12.9-24.1c1.5-9.8,2.9-19.6,5.6-29.2c2.7-9.6,6.3-21.2,13.6-28.4
				c2.8-2.7,6.6-5.5,10.8-5c6,0.7,7.9,7.5,9.4,12.4c3.3,11,5.3,22.6,5.3,34.1c0,8-2.3,17.9,3,24.8c2.8,3.7,7.7,5.8,12.3,4.7
				c6.8-1.7,8.4-8.2,9.8-14.2c0.3-1.2,0.5-2.4,0.9-3.5c1.3-3.4,1.8-3.7,5.5-3.9c4-0.2,4.1,0.8,4.8,4.1c0.6,3.3,0.3,6.7,1.3,10
				c1.3,4.2,4.2,8,9,6.6c4.4-1.3,6.8-6.1,8.3-10.1c4.2-11.5,3.8-24.3,4.5-36.4c0.4-8,1.1-16.6,4.8-23.9c2.4-4.7,9.5-12.4,15-7.4
				c7.1,6.5,6.4,22.3,6.6,31c0.4,18.7-2.8,37.5-0.2,56.2c1,7,3,17.4,10.7,20c10.7,3.7,18.6-8,21.5-16.6c2.3-6.8,2.8-13.9,4.4-20.8
				c0.8-3.6,2.1-10.3,7.1-8.2c4.3,1.8,6.1,7.9,9.8,10.6c12.2,8.9,19.6-8.4,21.1-17.8c2.1-13.7-0.1-28.7,5.1-41.8
				c1.3-3.3,3.3-6.8,6.4-8.8c7.4-4.9,14.8,1.9,17,8.8c1.7,5.3,1.4,11.2,1.5,16.6c0.1,5.9,0.3,11.8,0.4,17.8
				c0.2,9.8-0.7,19.8-0.1,29.5c0.4,6.8,3,13,8.9,16.8c14.7,9.6,31.9-5.4,41.3-15.9c10.7-11.9,17.8-26.1,23.3-41
				c2.8-7.5,5.6-15.2,9.9-22c2.4-3.7,9.1-12.7,14.5-10.2c3.6,1.6,4.7,8,5.5,11.4c1.3,5.6,1.9,11.3,2.4,17.1
				c0.9,10.9,0.9,21.8,1.1,32.7c0.2,9.2,1,23.2,11.2,26.9c16,5.8,23.7-17.1,28.1-27.7c3.7-8.8,8.2-20.7,16.7-25.9
				c7.3-4.4,12.3,2.4,15,8.5c2.6,5.8,3.9,12.3,4,18.7c0.1,4.4-0.3,10,4.6,12.2c10.6,4.7,20.3-12.9,24.4-19.8
				c3.8-6.3,6.6-12.9,9.8-19.6c4-8.3,17-24.2,22.4-8.3c2,6,1.3,12.5,0.9,18.7c-0.5,7.1-1,14.1-0.7,21.2c0.3,8.2,1.7,26,14.1,24.1
				c7.5-1.1,15.2-9.4,20.8-14.1c8.2-6.8,15.9-14.2,23.3-21.9c1.1-1.2-0.7-2.9-1.8-1.8c-7.3,7.8-15.1,15.1-23.3,21.9
				c-4.4,3.7-8.9,7.4-13.6,10.6c-6.2,4.2-12.2,2.3-14.7-4.1c-4.8-12.5-1.9-28-1.2-41c0.4-7.7-0.6-25.5-12.4-23.3
				c-7.1,1.3-12,8.9-15,14.9c-3.4,6.7-6.1,13.6-9.9,20.1c-3.8,6.4-8.1,14.1-14.3,18.4c-4.7,3.3-10.2,1.7-10.8-4.6
				c-0.2-2.9,0.1-5.8-0.3-8.7c-1-8.4-4.2-22.3-13.3-25.7c-12.6-4.7-21.8,16.5-25.4,24.8c-3.7,8.5-6.5,19.4-13.3,26
				c-4.8,4.7-12.6,6.3-17.5,0.9c-3.6-4-4.5-10.2-5-15.3c-1.9-19.8,1-40.2-4.6-59.5c-1.6-5.6-4.7-12.5-11.6-10
				c-11.6,4.1-16.9,19.2-20.8,29.5c-6.3,16.6-13.3,32.5-25.6,45.7c-7.1,7.6-17.4,17-28.5,16.8c-14.6-0.3-16.4-14.8-16-26
				c0.4-10.9,0-21.8-0.3-32.7c-0.2-8.8,1-19.3-3.3-27.3c-2.8-5.1-8.6-9.2-14.7-8.1c-5.1,0.9-9,5.7-11,10.2
				c-5.6,12-4.1,26.4-5.4,39.2c-0.7,7.3-2,19.9-10.6,22.4c-10.8,3.2-11.1-13-20.2-13.3c-9.6-0.3-9.7,22.7-11.3,28.8
				c-2,7.5-5.9,16.4-14.5,18c-5.3,1-8.8-2.3-10.8-6.8c-4.7-10.3-4.1-23.3-3.8-34.4c0.2-8.3,1-16.5,1.1-24.7c0.2-8.9,1.9-47.1-15-43
				c-11.7,2.8-14.7,18-15.8,28c-1.4,13.4-0.2,27.1-4,40.2c-1,3.4-2.3,7.3-5.2,9.6c-3,2.4-6.5,0.3-8-2.7c-1-2.1-0.9-4.7-1.1-7
				c-0.3-3.8-0.8-9.5-5-11.1c-4.9-1.8-8.9,3.2-10.4,7.2c-1.8,5-1.2,11.5-6.3,14.8c-5.1,3.3-11,0.2-13.5-4.7
				c-2.6-5.1-1.6-11.3-1.4-16.8c0.3-5.6,0-11.2-0.6-16.7c-1.1-9.4-2.8-19.7-6.7-28.5c-5.3-12-17.2-8.8-24.3-0.2
				c-12,14.7-15,36.9-17.6,55c-0.8,5.8-1.9,11.8-4.5,17.1c-1.3,2.7-3.2,5.9-6.5,6.5c-5.4,0.9-9.9-5.3-11.1-9.8
				c-1.9-7.2-0.1-32.8-15.1-24.9c-4.7,2.4-5.1,8.3-9.1,11.2c-6.2,4.6-6.6-5.5-6.6-9.5c-0.1-5.9-0.1-11.7-0.2-17.6
				c-0.1-7.9,0.5-16.1-0.4-23.9c-0.6-5-2.1-10.8-7.3-12.9c-14-5.6-24.4,17-28.2,26.5c-8,20.1-14.3,41.6-25.6,60.1
				c-6.2,10.2-16.6,17.8-27.2,8.3c-7.5-6.8-10.3-16.9-10.5-26.7c-0.3-12.8,3.6-38.6-11.7-45.2c-13.3-5.8-27.5,12.6-33.1,22.1
				c-9.6,16.2-12.1,35.9-23.1,51.2C496.7,819.1,498.9,820.3,499.8,819L499.8,819z"/>
		</g>
	</g>
	<g>
		<g>
			<path class="st7" d="M1245.3,1227.4h-188.9c-7.2,0-13.1-5.9-13.1-13.1v-124.4c0-7.2,5.9-13.1,13.1-13.1h188.9
				c7.2,0,13.1,5.9,13.1,13.1v124.4C1258.4,1221.5,1252.5,1227.4,1245.3,1227.4z"/>
			<rect x="1048" y="1142" class="st5" width="205.7" height="2.4"/>
			<path class="st5" d="M1150.8,1163.9c-9.5,0-17.3-7.7-17.3-17.3v-4.6h34.5v4.6C1168.1,1156.1,1160.4,1163.9,1150.8,1163.9z
				 M1136,1144.4v2.2c0,8.2,6.7,14.9,14.9,14.9c8.2,0,14.9-6.7,14.9-14.9v-2.2H1136z"/>
			<path class="st5" d="M1191.5,1084.4h-2.4v-30.9c0-4.2-3.4-7.5-7.5-7.5h-61.5c-4.2,0-7.5,3.4-7.5,7.5v30.9h-2.4v-30.9
				c0-5.5,4.5-9.9,9.9-9.9h61.5c5.5,0,9.9,4.5,9.9,9.9V1084.4z"/>
			<rect x="1105.6" y="1076.8" class="st5" width="11.6" height="12.5"/>
		</g>
		<rect x="1184.5" y="1076.8" class="st5" width="11.6" height="12.5"/>
	</g>
	<g>
		<rect x="493.2" y="1099.6" class="st7" width="153.4" height="127.8"/>
		<rect x="481.9" y="1090.5" class="st5" width="175.9" height="26.8"/>
		<path class="st8" d="M646.6,1227.4H493.2V1117C493.2,1117,555.3,1210.3,646.6,1227.4z"/>
	</g>
	<g>
		<g>
			<path class="st6" d="M1498.1,135c-52.5,0-95.1,42.6-95.1,95.1c0,32.7,16.6,61.6,41.7,78.7l-3.7,43.8l35.7-29.9
				c6.9,1.6,14,2.4,21.3,2.4c52.5,0,95.1-42.6,95.1-95.1C1593.2,177.5,1550.6,135,1498.1,135z"/>
			<path class="st9" d="M1439.6,355.5l3.8-46.1c-26.1-18-41.7-47.6-41.7-79.3c0-53.1,43.2-96.3,96.3-96.3s96.3,43.2,96.3,96.3
				s-43.2,96.3-96.3,96.3c-7,0-14.1-0.8-21-2.3L1439.6,355.5z M1498.1,136.2c-51.7,0-93.8,42.1-93.8,93.8
				c0,31.1,15.4,60.2,41.2,77.7l0.6,0.4l-3.5,41.5l33.9-28.3l0.6,0.1c6.9,1.6,14,2.4,21,2.4c51.7,0,93.8-42.1,93.8-93.8
				S1549.8,136.2,1498.1,136.2z"/>
		</g>
		<g>
			<g>
				<g>
					<rect x="1486" y="250.1" class="st6" width="28.3" height="29.3"/>
					<path class="st9" d="M1515.5,280.6h-30.8v-31.8h30.8V280.6z M1487.2,278.1h25.8v-26.8h-25.8V278.1z"/>
				</g>
				<g>
					<path class="st6" d="M1523.1,229.8c0-13-10.9-23.5-24-22.9c-12,0.5-21.7,10.6-21.9,22.6c-0.1,4.3,1.1,8.3,3,11.7
						c3.6,6.2,5.8,13,5.8,20.2v5.2h28.3v-5.4c0-7,2.2-13.8,5.7-19.9C1521.9,237.9,1523.1,234,1523.1,229.8z"/>
					<path class="st9" d="M1515.5,267.8h-30.8v-6.5c0-6.6-1.9-13.1-5.6-19.6c-2.2-3.7-3.3-8-3.2-12.3c0.2-12.6,10.5-23.3,23-23.9
						c6.7-0.3,13,2.1,17.8,6.7c4.8,4.6,7.5,10.8,7.5,17.5c0,4.3-1.1,8.4-3.3,12.1c-3.7,6.3-5.5,12.8-5.5,19.3V267.8z M1487.2,265.3
						h25.8v-4.2c0-6.9,2-13.8,5.9-20.5c1.9-3.3,2.9-7,2.9-10.9c0-6-2.4-11.6-6.7-15.7c-4.3-4.1-10-6.3-16-6
						c-11.3,0.5-20.5,10.1-20.7,21.4c0,3.9,0.9,7.7,2.9,11.1c3.9,6.8,5.9,13.8,5.9,20.8V265.3z"/>
				</g>
				<g>
					<path class="st6" d="M1494.9,227.1c-1.8,2.5-4.8,3.5-6.7,2.2c-1.9-1.3-2-4.5-0.2-7c1.8-2.5,4.8-3.5,6.7-2.2
						C1496.6,221.4,1496.7,224.6,1494.9,227.1z"/>
					<path class="st9" d="M1490.2,231.1c-1,0-1.9-0.3-2.7-0.8c-1.2-0.9-2-2.3-2-4c-0.1-1.6,0.5-3.3,1.5-4.7c1-1.4,2.4-2.5,3.9-3
						c1.6-0.5,3.2-0.3,4.5,0.5c1.2,0.9,2,2.3,2,4c0.1,1.6-0.5,3.3-1.5,4.7l0,0c-1,1.4-2.4,2.5-3.9,3
						C1491.4,231,1490.8,231.1,1490.2,231.1z M1492.7,220.7c-0.3,0-0.7,0.1-1,0.2c-1,0.3-2,1.1-2.6,2.1c-0.7,1-1.1,2.2-1,3.2
						c0,0.9,0.4,1.7,1,2.1c0.6,0.4,1.4,0.5,2.3,0.2c1-0.3,1.9-1.1,2.6-2.1l0,0c0.7-1,1.1-2.2,1-3.2c0-0.9-0.4-1.7-1-2.1
						C1493.6,220.9,1493.2,220.7,1492.7,220.7z"/>
				</g>
			</g>
			<g>
				
					<rect x="1461.2" y="187.1" transform="matrix(0.6218 -0.7832 0.7832 0.6218 399.385 1219.5305)" class="st9" width="2.5" height="18.2"/>
				
					<rect x="1497.1" y="165.8" transform="matrix(0.9995 -3.200236e-02 3.200236e-02 0.9995 -4.9281 48.0426)" class="st9" width="2.5" height="24.4"/>
				
					<rect x="1524.5" y="191.5" transform="matrix(0.7168 -0.6973 0.6973 0.7168 300.2137 1124.7104)" class="st9" width="20.6" height="2.5"/>
			</g>
		</g>
	</g>
	<g>
		<g>
			<path class="st6" d="M305,255.1c0-46.2-37.4-83.6-83.6-83.6c-46.2,0-83.6,37.4-83.6,83.6s37.4,83.6,83.6,83.6
				c7.6,0,14.9-1,21.9-2.9l29,24.3l-3-36.5C290.9,308.5,305,283.4,305,255.1z"/>
			<path class="st9" d="M273.9,362.9L243,337.1c-7.1,1.9-14.3,2.8-21.6,2.8c-46.8,0-84.8-38.1-84.8-84.8c0-46.8,38.1-84.8,84.8-84.8
				c46.8,0,84.8,38.1,84.8,84.8c0,27.4-13.3,53.2-35.6,69.1L273.9,362.9z M243.6,334.4l27.2,22.8L268,323l0.6-0.4
				c22-15.4,35.2-40.7,35.2-67.5c0-45.4-36.9-82.3-82.3-82.3c-45.4,0-82.3,36.9-82.3,82.3c0,45.4,36.9,82.3,82.3,82.3
				c7.3,0,14.5-1,21.6-2.9L243.6,334.4z"/>
		</g>
		<polygon class="st9" points="220.3,281.2 196.6,257.4 198.4,255.7 219.5,276.8 244,221 246.3,222.1 		"/>
	</g>
	<g>
		<path class="st9" d="M676.1,364.6l-22.4,13.1L415.3,517.4c-7.3,4.3-15.9,3.3-19.3-2.3l0,0c-3.4-5.6-0.4-13.7,6.8-18.2L635.4,349
			l22.4-14.2L676.1,364.6z"/>
		<path class="st10" d="M676.1,364.6l-22.4,13.1c-4.4-4.2-8.2-9-11.5-14.3c-2.8-4.6-5.1-9.5-6.8-14.5l22.4-14.2L676.1,364.6z"/>
	</g>
	<path class="st6" d="M644.6,372.1c-3.5,2.2-8.1,1-10.3-2.5c-2.2-3.5-1-8.1,2.5-10.3c3.5-2.2,8.1-1,10.3,2.5
		C649.3,365.4,648.1,370,644.6,372.1z"/>
	<circle class="st11" cx="757.6" cy="294.4" r="118.7"/>
	<g>
		<defs>
			<circle id="SVGID_1_" cx="757.6" cy="294.4" r="96.3"/>
		</defs>
		<use xlink:href="#SVGID_1_"  style="overflow:visible;fill:#FFFFFF;"/>
		<clipPath id="SVGID_2_">
			<use xlink:href="#SVGID_1_"  style="overflow:visible;"/>
		</clipPath>
		<g class="st12">
			<rect x="688.3" y="326.9" class="st5" width="30.2" height="185.2"/>
			<rect x="742.5" y="302.5" class="st7" width="30.2" height="210.8"/>
			<rect x="796.7" y="276.3" class="st5" width="30.2" height="233.7"/>
		</g>
		<g class="st12">
			
				<rect x="652" y="262.9" transform="matrix(0.9525 -0.3047 0.3047 0.9525 -46.2242 233.3501)" class="st5" width="145.1" height="3.8"/>
			<path class="st5" d="M784.6,258.8l-3.1-2.2l9.1-12.8l-13.2-4.5l1.2-3.5l14.6,5c0.8,0.2,1.4,0.9,1.7,1.7c0.3,0.9,0.1,1.8-0.5,2.5
				L784.6,258.8z M792,244.3c0,0,0.1,0,0.1,0L792,244.3z M791.4,242.7C791.4,242.7,791.4,242.7,791.4,242.7L791.4,242.7z"/>
		</g>
	</g>
	<g>
		<g>
			<path class="st11" d="M520.1,1177.7c-15.1,0.2-36.8,0.6-50.8,0.8c0.1-6.8,0.4-13.5,0.7-19.7c0.7-15.4,1.5-27.3,1.5-27.3l43.3-0.3
				c0,0-0.2,4.3,0,10.8C515.2,1151.4,516.3,1165.7,520.1,1177.7z"/>
			<path class="st11" d="M536.9,1198.8c-8.3-2.6-13.5-11-16.8-21.2c-15.1,0.2-36.8,0.6-50.8,0.8c-0.4,15.9-0.2,32,1.3,41
				c0.7,3.9,4,6.8,8,6.8H553c6.1,0,11.3-5.1,10.7-11.1C562.9,1207.9,554.4,1204.2,536.9,1198.8z"/>
			<path class="st11" d="M514.9,1141.9l-44.8,16.8c0.7-15.4,1.5-27.3,1.5-27.3l43.3-0.3C514.9,1131.1,514.7,1135.4,514.9,1141.9z"/>
			<path class="st11" d="M492.4,1225.6c-1.6-7.5-4.7-12.8-9.4-15.6c-6.1-3.7-12.7-1.8-12.8-1.8l-0.7-2.4c0.3-0.1,7.7-2.2,14.8,2.1
				c5.3,3.2,8.8,9,10.6,17.2L492.4,1225.6z"/>
		</g>
		<g>
			<path class="st11" d="M297.9,1123c0,0-4.8,11.1-8.3,24.9c-1.6,6.6-3,13.7-3.3,20.5c-14.2-5.1-34.6-12.5-47.8-17.2
				c6.1-15.1,12.7-29.8,16.2-37.6l0.1-0.2c1.5-3.4,2.5-5.4,2.5-5.4L297.9,1123z"/>
			<path class="st11" d="M294.5,1194.1c-6.9-5.3-8.7-15.1-8.2-25.7c-14.2-5.1-34.6-12.5-47.8-17.2c-6,14.8-11.5,29.8-13.3,38.8
				c-0.8,3.9,1.4,7.8,5.1,9.2l69.6,26.3c5.7,2.1,12.4-0.7,13.9-6.6C315.6,1211.8,309,1205.4,294.5,1194.1z"/>
			<path class="st11" d="M297.9,1123c0,0-4.8,11.1-8.3,24.9l-36.3-30.5l1.4-3.8l0.1-0.2c1.5-3.4,2.5-5.4,2.5-5.4L297.9,1123z"/>
			<path class="st11" d="M241.4,1203l-2.2-1.2c9.3-17.9-7.1-26.7-7.8-27.1l1.2-2.2C232.8,1172.6,251.9,1182.9,241.4,1203z"/>
		</g>
		<path class="st11" d="M536.2,1139.9l-79.6,6.3L439.9,862l-24.6-93.4L383,646.4l-1.7-6.4l-7.8-29.4l-1.2-4.4l15.2-1.4l82.3-7.4
			l5,22.5v0l49.3,222.8c1.6,7.2,2.5,14.7,2.8,22.1L536.2,1139.9z"/>
		<path class="st11" d="M421.6,705.3l-6.3,63.2L405,870.9c-1.2,11.8-3.8,23.4-7.8,34.5l-84.8,234.5l-71.3-27.5l66.3-240
			c17.1-98.8,14.3-174.6,18.7-222.7c0.3-3,0.6-5.9,0.9-8.6c1.8-14.7,4.5-26.4,9.2-34.9l37.4,4.4l26.3,3.1l5.7,24.2l1.2,4.9
			L421.6,705.3z"/>
		<path class="st13" d="M474.9,619.9l0.9,9.6c0,0-111.7,30-149.7,20.2c0.3-3,0.6-5.9,0.9-8.6c1.8-14.7,4.5-26.4,9.2-34.9l37.4,4.4
			l-1.2-4.4l15.2-1.4l82.3-7.4L474.9,619.9z"/>
		<polygon class="st11" points="438.7,863.3 401.4,715.9 370.8,706.1 371.5,703.7 403.5,713.9 403.6,714.6 441.1,862.7 		"/>
		<path class="st11" d="M496,869.8l-0.9-2.3c19.6-7.4,30.3-14.2,30.4-14.3l1.4,2.1C526.4,855.6,515.9,862.3,496,869.8z"/>
		<path class="st11" d="M400.4,894.9c-0.2,0-19.1-1.9-37.7-6.9l0.6-2.4c18.4,4.9,37.1,6.8,37.3,6.8L400.4,894.9z"/>
		
			<rect x="282.4" y="1066.7" transform="matrix(0.3452 -0.9385 0.9385 0.3452 -851.6067 989.9528)" class="st11" width="2.5" height="77.2"/>
		
			<rect x="455.4" y="1121.4" transform="matrix(0.9975 -7.028105e-02 7.028105e-02 0.9975 -77.6792 37.581)" class="st11" width="79.6" height="2.5"/>
	</g>
	<path class="st14" d="M366.8,425.3L333,438.9c-9.8,4-17.7,11.7-21.8,21.4l-28.4,67.9c-5.7,13.6-1.9,29.3,9.4,38.9l0,0
		c9.3,7.9,22.1,10.1,33.5,5.9l24-8.8L366.8,425.3z"/>
	<g>
		<path class="st15" d="M600.7,363.6c-6.3,3.1-13.6,16.4-10.8,21.2c2.3,3.9,7.5-1.4,9.3-3.2c3.2-3.3,11.5-12.3,6.9-17.3
			C604.5,362.6,602.7,362.6,600.7,363.6z"/>
		<path class="st15" d="M585.4,368.4c-5.2,4.7-8.7,19.5-4.7,23.3c3.2,3.2,6.9-3.4,8.1-5.6c2.2-4.1,7.7-14.9,2-18.6
			C588.8,366.4,587,366.9,585.4,368.4z"/>
		<path class="st15" d="M575.2,375.8c-5.3,4.5-9,18.5-5.2,22.1c3.1,2.9,6.9-3.3,8.1-5.4c2.2-3.9,8-14.2,2.4-17.5
			C578.7,373.9,576.9,374.4,575.2,375.8z"/>
		<path class="st15" d="M565.5,379.3c-5.3,4.5-9,18.5-5.2,22.1c3.1,2.9,6.9-3.3,8.1-5.4c2.2-3.9,8-14.2,2.4-17.5
			C569,377.3,567.2,377.8,565.5,379.3z"/>
	</g>
	<path class="st14" d="M366.8,425.7l-35.2,60.5c0,0,9.2,100,2.5,112.3c-6.7,12.3-21.7,21.9-12.5,28.9c9.2,7,81.7,19.3,160,0.9
		c21.7-6.1,6.7-17.5,1.7-22.8s-11.7-137.7-11.7-137.7l-45-41.1l-33.3-9L366.8,425.7z"/>
	<path class="st16" d="M425.8,426.8c-6.3,10.9-79.8,22.2-59.1-1.5l21.3-4.5L425.8,426.8z"/>
	<g>
		<path class="st14" d="M521.2,498l-29-43.1c-6.7-10.9-17.7-18.6-30.3-21.1l-35.3-7.1l20.8,78.1c0,0,32.5,45.6,61.9,56.3
			c26.4,9.5,61.3-6.1,80.6-109.2l-43.7-6L521.2,498z"/>
		<path class="st15" d="M613.9,390.7c-4.4-0.6-19.6,22.3-19.6,22.3l-24.5,8.3c-9,3.1-16.3,9.6-20.5,18.1l-3.1,6.5l43.7,6
			c0.7-3.8,1.4-7.8,2.1-11.9C607,426.5,623.7,392,613.9,390.7z"/>
	</g>
	<g>
		<path class="st17" d="M432.6,330.2l8.9,12.3c1.5,2.1,0.6,4.9-1.9,5.9L430,352l-6.7-14.8L432.6,330.2z"/>
		<path class="st15" d="M375.3,397.5c2.2-22.6,1.3-45.1,1.3-45.1l40.4,2.9c-0.4,4.5-0.4,9.1-0.2,13.8c0.3,7.4,1.1,14.9,2.3,22.1
			c0.6,4,1.4,7.9,2.1,11.6L375.3,397.5z"/>
		<path class="st17" d="M419,391.2c-17.1-7.1-23.7-22.4-23.7-22.4l21.4,0.3C417,376.5,417.9,384,419,391.2z"/>
		<path class="st18" d="M375.3,397.5l-8.5,27.8c19.5,4.7,39.5,4.9,59.8,1.5l-5.4-23.9L375.3,397.5z"/>
		<path class="st15" d="M431.6,309.5l4.2,55.9c0.4,2.4-1.1,4.6-3.2,6.5c-3.5,3.3-8.4,4.8-13.2,4.6l-28.6-1.2l-20.4-22.9l15.8-48.8
			l28.8-0.4L431.6,309.5z"/>
		<path class="st19" d="M384.6,342.7c0,0,7.5,23.4-8.4,35.3c-17.2-5.6-49.1-57.8-9.4-74.4c0,0,10.9-27.8,40.6-17.5
			c26.2,9.1,33.1,25,33.1,25s-18.4,13.8-40,0.9C400.5,312.1,402.7,339.9,384.6,342.7z"/>
		<path class="st15" d="M395.2,333.1c4.7,5.8,4.2,13.9-1,18.1c-5.2,4.2-13.3,3-17.9-2.8c-4.7-5.8-4.2-13.9,1-18.1
			C382.5,326.1,390.5,327.3,395.2,333.1z"/>
		<path class="st19" d="M389.4,346.6c-0.1-0.4-2.6-9.9-9.3-8.5l-0.4-1.8c6.8-1.5,10.5,5.8,11.5,9.9L389.4,346.6z"/>
		
			<ellipse transform="matrix(0.2298 -0.9732 0.9732 0.2298 -14.0564 671.1601)" class="st20" cx="417" cy="344.5" rx="8.3" ry="8.3"/>
	</g>
	<path class="st19" d="M330.7,632.6c-7.6-1.8-11.9-4.6-13.1-8.6c-2-6.5,4.7-13.9,10.6-20.5c0.9-1,1.8-2,2.6-3
		c1.6-1.9,2.8-4.1,3.3-6.5c5.5-26-3.6-106.9-3.7-107.7l2.5-0.3c0.4,3.3,9.2,82.1,3.7,108.5c-0.6,2.8-1.9,5.4-3.8,7.6
		c-0.8,1-1.7,2-2.7,3c-5.2,5.8-11.7,12.9-10.1,18.1c0.9,3,4.7,5.4,11.3,6.9L330.7,632.6z"/>
	<path class="st19" d="M475.8,630.7l-0.1-2.5c8.5-0.4,13.8-2.4,15.1-5.9c1.4-3.5-1.1-8.7-6.8-14.3c-1.4-1.4-2.5-3.3-2.9-5.4
		c-4.5-20.2-9.3-87-9.3-87.7l2.5-0.2c0,0.7,4.8,67.3,9.3,87.3c0.4,1.6,1.1,3,2.2,4.1c6.5,6.4,9.1,12.5,7.3,17
		C491.4,627.8,485.5,630.3,475.8,630.7z"/>
	<polygon class="st19" points="516.7,509.2 514.4,508.1 545.5,444.6 590.1,450.7 589.7,453.2 546.9,447.4 	"/>
	<path class="st19" d="M1268.7,353.2c-14.8-9-18.1-34.6-4.4-42.3c13.8-7.7,22.5-0.8,22.5-0.8s46.1-16.8,63.5,26
		c13.1,32.3,2.7,49.2,14.2,65.4c13.1,18.5,34,35.2,6.7,67.7l-63.8-15.6l-16.7-78.5L1268.7,353.2z"/>
	<g>
		<g>
			<g>
				<path class="st11" d="M1489.3,1073.1l-46.9,20.6c0,0,6.7,17.4,12.5,37.6l48.2-15.4L1489.3,1073.1z"/>
				<path class="st11" d="M1503.1,1116l-48.2,15.4c6.6,23.2,11.9,50.1,4.4,58.9c-9.8,11.4-18.3,20.9-20.4,28.8
					c-1.2,4.7,3.6,8.6,7.9,6.4l62.3-31.4c10.3-5.2,14.8-17.6,10.1-28.2L1503.1,1116z"/>
				
					<rect x="1458.3" y="1139.7" transform="matrix(0.9544 -0.2986 0.2986 0.9544 -272.9863 495.2347)" class="st11" width="51.5" height="2.5"/>
				<path class="st11" d="M1450.2,1202.8l-0.5-2.4c11.9-2.5,18.9-6.9,20.6-13c2.9-10.1-9.1-21.8-9.2-21.9l1.7-1.8
					c0.5,0.5,13.1,12.9,9.8,24.4C1470.7,1195.1,1463.1,1200,1450.2,1202.8z"/>
			</g>
			<g>
				<path class="st11" d="M1308.2,1118.6l-54.2,5c0,0,1.4,19.2-0.3,38.5l52.1-0.8L1308.2,1118.6z"/>
				<path class="st11" d="M1253.8,1162.2c-1.5,17.1-5.4,34.2-14.7,38.1c-20,8.3-35.8,14.2-34.2,25.8h76.9c11.6,0,21.1-9,21.7-20.6
					l2.4-44.2L1253.8,1162.2z"/>
				
					<rect x="1277.8" y="1150.7" transform="matrix(1.664769e-02 -0.9999 0.9999 1.664769e-02 82.2373 2435.0398)" class="st11" width="2.5" height="50"/>
				<path class="st11" d="M1237.8,1209.8c-3.3,0-7.2-0.5-11.6-1.5l0.5-2.4c11,2.5,18.4,1.7,21.5-2.2c4.1-5.2-0.1-14.4-0.1-14.5
					l2.3-1.1c0.2,0.4,4.9,10.8-0.2,17.1C1247.8,1208.2,1243.6,1209.8,1237.8,1209.8z"/>
			</g>
			<path class="st11" d="M1307.5,1131.5c-0.7,0.2-1.3,0.4-1.8,0.5c-10.8,2.5-46.7,0-46.7,0c-1.6-0.3-3.2-0.8-4.6-1.3
				c-33.5-12.2-31.2-70.8-26.2-122c4.6-47-15-286.7-1.4-368.1l84.8-18.6l0.5,14.3l1,29.2l1.8,51.6c0,0,3.2,49.9,7.6,112.4
				c6.5,93.8,15.7,215.9,20.7,240.9C1351.2,1110.1,1321.1,1127.5,1307.5,1131.5z"/>
			<path class="st11" d="M1499.4,1079.5c-1.9,2.2-3.9,4.1-6.2,5.8c-11.4,8.8-26.8,12-40.3,15.6c-2.4,0.7-4.9,1.1-7.4,1.4
				c-12.6,1.6-26.3-1.3-32.2-12c-30.1-54.8-64-163.7-90.9-261c-19.7-71-35.5-135.9-43.4-169c-3.5-14.6-5.4-23-5.4-23l38.4-1.2
				l65.3-2c1.8,8.8,3.8,18.1,6.1,27.7c22.3,95.2,66.2,226,83.4,276.1c10.3,30,25.9,56.7,32.8,88.1
				C1503.4,1042.8,1511.9,1065.1,1499.4,1079.5z"/>
			<path class="st13" d="M1383.5,662c-26.7,4.4-50.2,5-70.4,3.4c-12.7-1-24.1-2.8-34.1-5c-34.2-7.5-52.3-19.9-52.3-19.9l84.8-18.6
				l0.5,14.3l65.3-2C1379.2,643.1,1381.2,652.3,1383.5,662z"/>
			<polygon class="st11" points="1321.3,829.7 1295.1,737.1 1268.2,727.3 1269.1,725 1297.2,735.2 1297.4,735.8 1323.7,829 			"/>
			<path class="st11" d="M1481.8,1090.9l-2.2-1.2c12.6-21.9-12.7-89.4-44.7-174.9c-31.1-83-69.8-186.3-83.8-278.5l2.5-0.4
				c14,91.9,52.6,195.1,83.7,278C1469.6,1000,1495,1068,1481.8,1090.9z"/>
		</g>
	</g>
	<g>
		<path class="st15" d="M1245,561.8c-3,21.1-7.5,48.7-7.5,48.7H1188l12-66.1l3-16.4c0,0,42.5,10,44.4,10
			C1248.1,538,1246.8,548.7,1245,561.8z"/>
		<path class="st17" d="M1245,561.8l-2.3,5l-42.6-22.3l3-16.4c0,0,42.5,10,44.4,10C1248.1,538,1246.8,548.7,1245,561.8z"/>
		<path class="st19" d="M1234.3,546.8c0,0,8.1,47.5-7.5,93.8c0,0,77.5,23.8,150.6-6.3l-16.9-106.9l5.6-54.4l-111.9,1.3l-38.1,12.5
			L1234.3,546.8z"/>
		<path class="st19" d="M1397.8,466.9c-4.9-14.1-16.3-25-30.6-29.3l-21-6.3c-8.5,12.3-23.6,28-45.6,28c-25.9,0-42.2-14.9-51.1-27
			l-14.5,3.5c-15.6,3.8-27.7,16.1-31.3,31.7l-16.2,70.3l46.9,9l1.3-53.8l121.9-5.6l3.1,40c0,0,35.2-15.4,58.5,0.4L1397.8,466.9z"/>
		<path class="st15" d="M1451.2,462.4c-6.8,13.2-15.8,70.4-20,115c-1.4,14.7-5.5,26.2-11.3,34.6c-8.5,12.5-20.5,18.1-32.2,16.9
			c-4.5-0.5-8.9-1.9-13.1-4.4c-20.1-11.9-17.5-62.9-15.3-85.8c0.7-6.9,1.3-11.3,1.3-11.3c11.9-6.5,30.6-7.5,30.6-7.5
			c0.2-2.6,0.5-5.2,0.9-7.8c2.5-23,6.4-49.2,9.8-66.5c3.8-19.4,11.3-12.2,11.3-12.2c3.8-6.9,9.4-1,9.4-1c5-11,11.3-0.6,11.3-0.6
			c7.8-11.3,12.1,5.6,12.1,5.6s24.2-20,28.3-14.2C1476.2,426.1,1460.7,443.6,1451.2,462.4z"/>
		<g>
			<rect x="1154.3" y="597.9" class="st6" width="105" height="12.6"/>
			<path class="st9" d="M1199.3,610.6h-108.3c-5.2,0-9.9-3-12.1-7.8l-42.2-91.6c-1.4-3,0.8-6.5,4.2-6.5h101.6
				c4.9,0,9.4,2.9,11.5,7.4L1199.3,610.6z"/>
		</g>
		<path class="st15" d="M1234.9,610.5c-1.3,4.9-3.1,9.4-5.5,13.5c-5.8,9.8-15.1,16.5-29.4,18.3c-4.9,0.7-10.4,0.7-16.5,0.1
			c-49.6-4.9-64-32.1-64-32.1s-5.5-11.5,6.2-8.9c0,0,2.2-7.3,11.3,0.3c0,0-1.1-9.1,7.8-0.8c0,0-1.3-9.2,8.4-1.3
			c9.7,8,17.2,10.3,28.9,10.8C1193.8,611,1234.9,610.5,1234.9,610.5z"/>
		<g>
			
				<rect x="1231.5" y="493" transform="matrix(0.9983 -5.804152e-02 5.804152e-02 0.9983 -28.0963 72.4256)" class="st9" width="2.5" height="53.8"/>
			<path class="st9" d="M1295.1,478.6c-5.9,0-11.1-0.7-15.5-1.7c-14.9-3.4-23.5-10.4-23.9-10.7l1.6-1.9c0.3,0.3,34.1,27.4,82.7-1.8
				l1.3,2.1C1323.6,475.4,1307.7,478.6,1295.1,478.6z"/>
			
				<rect x="1358.3" y="502.8" transform="matrix(0.9971 -7.604917e-02 7.604917e-02 0.9971 -35.2345 104.888)" class="st9" width="2.5" height="24.7"/>
			<path class="st9" d="M1321.6,539.7c-8,0-14.7-6-15.6-14l-2-17.8l34.4-2.3l-1,19.2c-0.4,8.2-7.2,14.8-15.5,14.9
				C1321.7,539.7,1321.7,539.7,1321.6,539.7z M1306.7,510.2l1.7,15.2c0.8,6.8,6.5,11.8,13.4,11.8c6.9-0.1,12.6-5.6,13-12.5l0.9-16.3
				L1306.7,510.2z"/>
		</g>
		
			<rect x="1354.7" y="550.1" transform="matrix(0.1416 -0.9899 0.9899 0.1416 644.3758 1845.8479)" class="st17" width="63.4" height="2.5"/>
		<g>
			
				<rect x="1433.7" y="431.7" transform="matrix(0.9839 -0.1789 0.1789 0.9839 -55.0163 263.6762)" class="st17" width="1.9" height="10.5"/>
			
				<rect x="1422.4" y="432" transform="matrix(0.9839 -0.1789 0.1789 0.9839 -55.2537 261.6688)" class="st17" width="1.9" height="10.5"/>
			
				<rect x="1413" y="432.6" transform="matrix(0.9839 -0.1789 0.1789 0.9839 -55.5167 260.0019)" class="st17" width="1.9" height="10.5"/>
			
				<rect x="1445.1" y="430.2" transform="matrix(0.9369 -0.3497 0.3497 0.9369 -62.049 533.3906)" class="st17" width="1.9" height="16.7"/>
		</g>
		<path class="st17" d="M1391.1,519.9l-32.1,18.7c0.7-6.9,1.3-11.3,1.3-11.3C1372.3,520.7,1391.1,519.9,1391.1,519.9z"/>
		<path class="st20" d="M1419.8,612c-8.5,12.5-20.5,18.1-32.2,16.9c-0.1-0.8-0.2-1.7-0.2-2.5c0-10.7,8.7-19.4,19.4-19.4
			C1411.8,607,1416.4,608.9,1419.8,612z"/>
		<path class="st20" d="M1229.4,624c-5.8,9.8-15.1,16.5-29.4,18.3c-0.1-0.6-0.1-1.2-0.1-1.8c0-10.7,8.7-19.4,19.4-19.4
			C1223,621.1,1226.5,622.2,1229.4,624z"/>
		<path class="st17" d="M1157.1,614c-4.9-1-11.1-8.6-13.2-12.6l1.7-0.9c2.1,4.1,8,10.9,11.9,11.6L1157.1,614z"/>
		<path class="st17" d="M1145.4,615.3c-4.2-4.3-8.1-9.7-9.6-13.4l1.7-0.7c1.5,3.5,5.2,8.6,9.2,12.8L1145.4,615.3z"/>
		<path class="st17" d="M1133.8,615c-4.2-4.3-8.1-9.7-9.6-13.4l1.7-0.7c1.5,3.5,5.2,8.6,9.2,12.8L1133.8,615z"/>
	</g>
	<g>
		<path class="st15" d="M1346.1,431.2c-8.5,12.3-23.6,28-45.6,28c-25.9,0-42.2-14.9-51.1-27l26.7-6.5c0.7-4.8,1.2-9.5,1.6-13.9
			c0.4-3.5,0.7-6.8,0.9-9.9c0.4-5.2,0.7-9.9,1-13.8c0.3-5.5,0.5-9.6,0.6-11.9c0-1.3,0-2,0-2l37.5-15c0,0-1.3,48.8,10,66.6
			L1346.1,431.2z"/>
		<path class="st17" d="M1310.1,392.2c0,0-10,11.7-32.3,19.6c0.4-3.5,0.7-6.8,0.9-9.9c0.4-5.2,0.7-9.9,1-13.8L1310.1,392.2z"/>
		<path class="st15" d="M1270.3,328.6c0,0-19.2,52.1-5.4,61.7c12.2,8.5,28.3,9.6,44.2,5.4l10.4-35.4l-6.3-34.6L1270.3,328.6z"/>
		<path class="st19" d="M1314.1,360.7c0,0-13.5,5.2-19.2-13.8c-4.6-15.4-24.6-18.3-24.6-18.3l8.1-7.5l38.5-1l14.2,17.3l-4.8,22.5
			L1314.1,360.7z"/>
		<ellipse transform="matrix(0.5 -0.866 0.866 0.5 344.0188 1326.4457)" class="st15" cx="1320.7" cy="365.3" rx="15.8" ry="12.5"/>
		<path class="st19" d="M1316.3,372.1l-1.9,0c0-0.1,0.2-11.8,11.8-13.1l0.2,1.9C1316.6,361.9,1316.3,371.7,1316.3,372.1z"/>
		<g>
			<circle class="st19" cx="1267.8" cy="353.9" r="2.1"/>
			<path class="st19" d="M1284.5,356.8c0,1.4-1.2,2.6-2.6,2.6s-2.6-1.2-2.6-2.6c0-1.4,1.2-2.6,2.6-2.6S1284.5,355.4,1284.5,356.8z"
				/>
			<path class="st19" d="M1272.4,349h-6.4c-0.9,0-1.6-0.7-1.6-1.6l0,0c0-0.9,0.7-1.6,1.6-1.6h6.4c0.9,0,1.6,0.7,1.6,1.6l0,0
				C1274.1,348.3,1273.3,349,1272.4,349z"/>
			<path class="st19" d="M1288.5,353.5l-7.1-3c-0.8-0.3-1.2-1.3-0.9-2.1l0,0c0.3-0.8,1.3-1.2,2.1-0.9l7.1,3c0.8,0.3,1.2,1.3,0.9,2.1
				l0,0C1290.3,353.5,1289.3,353.8,1288.5,353.5z"/>
			<path class="st19" d="M1266.8,370.1c-0.4,0-0.7-0.2-0.9-0.6c-1.3-3-1.3-5.4-0.1-6.9c1.2-1.7,3.4-1.9,4.5-1.9l2.4-4.6
				c0.2-0.5,0.8-0.6,1.3-0.4c0.5,0.2,0.6,0.8,0.4,1.3l-2.9,5.7l-0.6-0.1c0,0-2.5-0.2-3.5,1.1c-0.7,1-0.6,2.7,0.3,5.1
				c0.2,0.5,0,1-0.5,1.2C1267,370.1,1266.9,370.1,1266.8,370.1z"/>
			<g>
				<path class="st19" d="M1267.2,378.3c3.6,5.1,8.2,2.9,11.4,0.3C1274.3,378.8,1270.3,378.6,1267.2,378.3z"/>
				<path class="st6" d="M1278.6,378.6c1.8-1.5,3.1-3.2,3.5-3.6c0-0.1,0-0.1-0.1-0.1c-9.3,0.6-15.6-0.1-16.6-0.2
					c-0.1,0-0.1,0.1-0.1,0.1c0.6,1.5,1.2,2.6,1.9,3.6C1270.3,378.6,1274.3,378.8,1278.6,378.6z"/>
			</g>
			<path class="st20" d="M1300.6,368.3c0,3.6-2.9,6.5-6.5,6.5c-3.6,0-6.5-2.9-6.5-6.5c0-3.6,2.9-6.5,6.5-6.5
				C1297.7,361.8,1300.6,364.7,1300.6,368.3z"/>
		</g>
	</g>
	<rect x="32.4" y="1224.9" class="st19" width="1670" height="2.5"/>
	<g>
	</g>
	<g>
	</g>
	<g>
	</g>
	<g>
	</g>
	<g>
	</g>
	<g>
	</g>
</g>
</svg>
