<?xml version="1.0" encoding="utf-8"?>
<!-- Generator: Adobe Illustrator 23.0.5, SVG Export Plug-In . SVG Version: 6.00 Build 0)  -->
<svg version="1.1" xmlns="http://www.w3.org/2000/svg" xmlns:xlink="http://www.w3.org/1999/xlink" x="0px" y="0px"
	 viewBox="0 0 500 404.8" style="enable-background:new 0 0 500 404.8;" xml:space="preserve">
<style type="text/css">
	.st0{fill:#DFF3FC;}
	.st1{fill:#A2C7EB;}
	.st2{fill:none;stroke:#A2C7EB;stroke-miterlimit:10;}
	.st3{fill:#0097D8;stroke:#0097D8;stroke-miterlimit:10;}
	.st4{fill:#FFFFFF;}
	.st5{fill:#0097D8;}
	.st6{fill:none;stroke:#6F8BBF;stroke-linecap:round;stroke-miterlimit:10;}
	.st7{fill:#E06A58;}
	.st8{fill:#F2AE30;}
	.st9{fill:#0A2240;}
	.st10{fill:#F9A07B;}
	.st11{fill:#FFC73C;}
	.st12{fill:#FFBB33;}
	.st13{fill:#FCE172;}
	.st14{fill:#325F73;}
	.st15{fill:#0B2D50;}
	.st16{fill:#3C738C;}
	.st17{fill:#56C4F9;}
	.st18{fill:#225570;}
	.st19{fill:none;stroke:#0B2D50;stroke-width:2;stroke-linecap:round;stroke-miterlimit:10;}
	.st20{fill:none;stroke:#CC454E;stroke-width:2;stroke-linecap:round;stroke-miterlimit:10;}
	.st21{fill:#262D40;}
	.st22{fill:#CC454E;}
	.st23{fill:#E8729B;}
	.st24{fill:#3D86E0;}
	.st25{fill:#3A92C9;}
	.st26{fill:none;stroke:#3A92C9;stroke-width:2;stroke-linecap:round;stroke-miterlimit:10;}
	.st27{fill:none;stroke:#CC454E;stroke-linecap:round;stroke-miterlimit:10;}
	.st28{fill:none;stroke:#F2AE30;stroke-linecap:round;stroke-miterlimit:10;}
</style>
<g id="BACKGROUND">
</g>
<g id="OBJECTS">
	<g id="XMLID_163_">
		<g id="XMLID_329_">
			<path id="XMLID_110_" class="st0" d="M444.2,371.9C495.2,333,518,225.3,435,172.5c-54.9-35-89-15-150.8-38.1
				c-75.4-28.2-86.6-113.5-178.4-71.5c-48.6,22.2-82.3,84.8-88.2,156c-5.8,69.7,18.9,117.5,69.4,150.3
				C205.6,374.2,324.4,373.3,444.2,371.9z"/>
			<path id="XMLID_109_" class="st0" d="M234.3,65.6c-7.7,31,20.9,61.6,51.1,74.3c30.2,12.7,64.8,11.2,97.1,5.1
				c14-2.6,28.3-6.3,39.1-15.2s17.1-24.3,11.2-36.8c-5.2-11-18-16.6-30.2-19.5c-12.2-2.9-25.1-4.1-35.9-10.2
				c-10.3-5.8-17.6-15.3-26.5-22.9c-16.5-14-39.7-20.9-61.2-16.5C257.6,28.4,240.9,39.2,234.3,65.6z"/>
		</g>
		<g id="XMLID_162_">
			<g id="XMLID_160_">
				<g id="XMLID_27_">
					<path id="XMLID_155_" class="st1" d="M465.4,208v-23.4h-8.9c-1.1-4.1-2.7-8-4.8-11.5l6.3-6.3l-16.6-16.6l-6.3,6.3
						c-3.6-2.1-7.4-3.7-11.5-4.8v-8.9h-23.4v8.9c-4.1,1.1-8,2.7-11.5,4.8l-6.3-6.3l-16.6,16.6l6.3,6.3c-2.1,3.6-3.7,7.4-4.8,11.5
						h-8.9V208h8.9c1.1,4.1,2.7,8,4.8,11.5l-6.3,6.3l16.6,16.6l6.3-6.3c3.6,2.1,7.4,3.7,11.5,4.8v8.9h23.4v-8.9
						c4.1-1.1,8-2.7,11.5-4.8l6.3,6.3l16.6-16.6l-6.3-6.3c2.1-3.6,3.7-7.4,4.8-11.5H465.4z M411.9,216.6c-11.2,0-20.3-9.1-20.3-20.3
						c0-11.2,9.1-20.3,20.3-20.3c11.2,0,20.3,9.1,20.3,20.3C432.2,207.5,423.1,216.6,411.9,216.6z"/>
					<path id="XMLID_66_" class="st2" d="M394.6,266.7l-4.5-11.6l-4.4,1.7c-1.3-1.8-2.9-3.4-4.6-4.8l1.9-4.3l-11.4-5.1l-1.9,4.3
						c-2.2-0.4-4.4-0.4-6.6-0.2l-1.7-4.4l-11.6,4.5l1.7,4.4c-1.8,1.3-3.4,2.9-4.8,4.6l-4.3-1.9l-5.1,11.4l4.3,1.9
						c-0.4,2.2-0.4,4.4-0.2,6.6l-4.4,1.7l4.5,11.6l4.4-1.7c1.3,1.8,2.9,3.4,4.6,4.8l-1.9,4.3l11.4,5.1l1.9-4.3
						c2.2,0.4,4.4,0.4,6.6,0.2l1.7,4.4l11.6-4.5l-1.7-4.4c1.8-1.3,3.4-2.9,4.8-4.6l4.3,1.9l5.1-11.4L390,275
						c0.4-2.2,0.4-4.4,0.2-6.6L394.6,266.7z M369.7,281.2c-5.6,2.1-11.8-0.6-13.9-6.2c-2.1-5.6,0.6-11.8,6.2-13.9
						c5.6-2.1,11.8,0.6,13.9,6.2C378.1,272.8,375.3,279,369.7,281.2z"/>
					<path id="XMLID_69_" class="st2" d="M356.5,226l-3-7.9l-3,1.1c-0.9-1.2-1.9-2.3-3.1-3.2l1.3-2.9l-7.7-3.4l-1.3,2.9
						c-1.5-0.2-3-0.3-4.5-0.1l-1.1-3l-7.9,3l1.1,3c-1.2,0.9-2.3,1.9-3.2,3.1l-2.9-1.3l-3.4,7.7l2.9,1.3c-0.2,1.5-0.3,3-0.1,4.5
						l-3,1.1l3,7.9l3-1.1c0.9,1.2,1.9,2.3,3.1,3.2l-1.3,2.9l7.7,3.4l1.3-2.9c1.5,0.2,3,0.3,4.5,0.1l1.1,3l7.9-3l-1.1-3
						c1.2-0.9,2.3-1.9,3.2-3.1l2.9,1.3l3.4-7.7l-2.9-1.3c0.2-1.5,0.3-3,0.1-4.5L356.5,226z M339.7,235.7c-3.8,1.4-8-0.4-9.4-4.2
						c-1.4-3.8,0.4-8,4.2-9.4c3.8-1.4,8,0.4,9.4,4.2C345.3,230.1,343.5,234.3,339.7,235.7z"/>
				</g>
				<g id="XMLID_29_">
					<path id="XMLID_30_" class="st3" d="M353.8,88.5c0,11.8-5.5,22.3-14.1,29.1c-6.3,5-14.3,8-23,8c-8.7,0-16.6-3-23-8
						c-8.6-6.8-14.1-17.3-14.1-29.1c0-20.4,16.6-37,37-37C337.2,51.5,353.8,68.1,353.8,88.5z"/>
					<g id="XMLID_31_">
						
							<ellipse id="XMLID_32_" transform="matrix(0.9925 -0.1225 0.1225 0.9925 -6.9639 39.3841)" class="st4" cx="316.8" cy="76.3" rx="12.1" ry="12.1"/>
						<path id="XMLID_33_" class="st4" d="M339.7,112.9c-6.3,5-14.3,8-23,8c-8.7,0-16.6-3-23-8c2.4-10.4,4.5-19.4,6.8-21.7
							c3.2-3.2,11.7-5.1,16.1-5.1c4.4,0,13.3,2.3,15,3.9C335.1,93.4,338,102.6,339.7,112.9z"/>
					</g>
				</g>
				<g id="XMLID_34_">
					<g id="XMLID_35_">
						<path id="XMLID_36_" class="st5" d="M263.6,179.8v-18.3c0-5,4-9,9-9h57.6c5,0,9,4,9,9v18.3c0,5-4,9-9,9h-57.6
							C267.6,188.8,263.6,184.8,263.6,179.8z"/>
						<polyline id="XMLID_37_" class="st5" points="287.9,178.8 260,206 305.2,183.1 						"/>
					</g>
					<g id="XMLID_38_">
						<path id="XMLID_39_" class="st4" d="M270.6,161L270.6,161c0-0.8,0.6-1.4,1.3-1.4h28.5c0.7,0,1.3,0.6,1.3,1.3v0.1
							c0,0.7-0.6,1.3-1.3,1.3h-28.5C271.2,162.4,270.6,161.8,270.6,161z"/>
						<path id="XMLID_40_" class="st4" d="M303,161L303,161c0-0.8,0.6-1.4,1.3-1.4h24.9c0.7,0,1.3,0.6,1.3,1.3v0.1
							c0,0.7-0.6,1.3-1.3,1.3h-24.9C303.6,162.4,303,161.8,303,161z"/>
						<path id="XMLID_41_" class="st4" d="M292.1,167.2L292.1,167.2c0-0.8,0.6-1.4,1.3-1.4h35.7c0.7,0,1.3,0.6,1.3,1.3v0.1
							c0,0.7-0.6,1.3-1.3,1.3h-35.7C292.7,168.5,292.1,167.9,292.1,167.2z"/>
						<path id="XMLID_42_" class="st4" d="M270.6,167.2L270.6,167.2c0-0.8,0.6-1.4,1.3-1.4h15.9c0.7,0,1.3,0.6,1.3,1.3v0.1
							c0,0.7-0.6,1.3-1.3,1.3h-15.9C271.2,168.5,270.6,167.9,270.6,167.2z"/>
						<path id="XMLID_43_" class="st4" d="M297.1,173.3L297.1,173.3c0-0.8,0.6-1.4,1.3-1.4h30.7c0.7,0,1.3,0.6,1.3,1.3v0.1
							c0,0.7-0.6,1.3-1.3,1.3h-30.7C297.7,174.6,297.1,174,297.1,173.3z"/>
						<path id="XMLID_44_" class="st4" d="M270.6,173.3L270.6,173.3c0-0.8,0.6-1.4,1.3-1.4h21.2c0.7,0,1.3,0.6,1.3,1.3v0.1
							c0,0.7-0.6,1.3-1.3,1.3h-21.2C271.2,174.6,270.6,174,270.6,173.3z"/>
						<path id="XMLID_45_" class="st4" d="M270.6,179.4L270.6,179.4c0-0.8,0.6-1.4,1.3-1.4h7.9c0.7,0,1.3,0.6,1.3,1.3v0.1
							c0,0.7-0.6,1.3-1.3,1.3h-7.9C271.2,180.7,270.6,180.1,270.6,179.4z"/>
						<path id="XMLID_46_" class="st4" d="M283.9,179.4L283.9,179.4c0-0.8,0.6-1.4,1.3-1.4h43.9c0.7,0,1.3,0.6,1.3,1.3v0.1
							c0,0.7-0.6,1.3-1.3,1.3h-43.9C284.5,180.7,283.9,180.1,283.9,179.4z"/>
					</g>
				</g>
				<g id="XMLID_25_">
					<g id="XMLID_24_">
						
							<ellipse id="XMLID_28_" transform="matrix(0.4219 -0.9067 0.9067 0.4219 -74.4042 161.0432)" class="st5" cx="89.1" cy="138.9" rx="35.6" ry="35.6"/>
						<g id="XMLID_20_">
							<g id="XMLID_18_">
								
									<ellipse id="XMLID_1_" transform="matrix(0.9435 -0.3314 0.3314 0.9435 -47.253 35.5729)" class="st4" cx="80.7" cy="156.3" rx="8.6" ry="8.6"/>
								<polygon id="XMLID_17_" class="st5" points="76.2,159.4 75.7,154 80.3,150.9 85.2,153.2 85.6,158.7 81.1,161.8 								"/>
							</g>
							<g id="XMLID_21_">
								
									<ellipse id="XMLID_23_" transform="matrix(0.9416 -0.3366 0.3366 0.9416 -35.1717 39.8951)" class="st4" cx="97.5" cy="121.4" rx="8.6" ry="8.6"/>
								<polygon id="XMLID_22_" class="st5" points="93.2,124 93.5,117 98.7,112.4 103.7,114.8 103.4,121.7 98.1,126.3 								"/>
							</g>
							<path id="XMLID_19_" class="st4" d="M86.7,152.4l-6.6-3.2l4.9-11.3c0.3-0.7,0.6-1.4,1-2.1l5.7-10.8l6.6,3.2l-4.7,11.1
								c-0.4,0.9-0.8,1.7-1.2,2.5L86.7,152.4z"/>
						</g>
					</g>
					<path id="XMLID_26_" class="st5" d="M113.8,158c1.3-0.6,21.7,0.3,21.7,0.3l-14.7-13.5L113.8,158z"/>
				</g>
				<g id="XMLID_159_">
					<g id="XMLID_74_">
						<g id="XMLID_157_">
							
								<ellipse id="XMLID_166_" transform="matrix(0.397 -0.9178 0.9178 0.397 44.2238 196.7897)" class="st5" cx="171.9" cy="64.7" rx="35" ry="35"/>
						</g>
					</g>
					<g id="XMLID_158_">
						<rect id="XMLID_72_" x="170.7" y="34.9" class="st4" width="2.3" height="29.4"/>
						
							<rect id="XMLID_73_" x="157.8" y="58.8" transform="matrix(-0.5691 -0.8222 0.8222 -0.5691 188.8004 246.4255)" class="st4" width="2.3" height="29.8"/>
						<path id="XMLID_156_" class="st4" d="M175.1,64.7c0,1.8-1.4,3.2-3.2,3.2c-1.8,0-3.2-1.4-3.2-3.2c0-1.8,1.4-3.2,3.2-3.2
							C173.7,61.5,175.1,63,175.1,64.7z"/>
					</g>
				</g>
			</g>
			<g id="XMLID_161_">
				<g id="XMLID_231_">
					<g id="XMLID_5_">
						<g id="XMLID_6_">
							<path id="XMLID_108_" class="st1" d="M266.9,301.8c-2.1-32,11.9-65.1,35.5-84.1C303.2,249.9,289.3,282.4,266.9,301.8z"/>
							<path id="XMLID_107_" class="st6" d="M298.6,226.3c-9.9,18.5-18.5,37.9-25.7,57.9c-8.7,24.3-15.5,50.1-30.4,70.4"/>
						</g>
						<g id="XMLID_7_">
							<path id="XMLID_106_" class="st1" d="M259.5,321.9c11.9-26.7,35.6-46.9,61.8-52.6C310.1,298,285.1,319.8,259.5,321.9z"/>
							<path id="XMLID_105_" class="st6" d="M314.8,275.2c-17.8,15.7-36,31-54.4,45.8"/>
						</g>
						<g id="XMLID_8_">
							<path id="XMLID_104_" class="st1" d="M252.4,345.2c15.9-23.8,45.4-36.3,69.7-29.5C304.3,339.3,274.8,351.7,252.4,345.2z"/>
							<path id="XMLID_103_" class="st6" d="M316.3,317.5c-20.9,13.1-43.5,22.7-66.7,28.5"/>
						</g>
						<g id="XMLID_9_">
							<path id="XMLID_102_" class="st1" d="M261.1,313.8c5.1-26.8-2.5-56.7-19.6-76.5C234.5,263.7,241.2,294.6,261.1,313.8z"/>
							<path id="XMLID_101_" class="st6" d="M243.2,244.2c3.4,25,9.3,48.3,18.6,71.2"/>
						</g>
						<g id="XMLID_10_">
							<path id="XMLID_100_" class="st1" d="M252.3,336.7c-2.2-27.6-16.3-53.5-37-67.8c1.2,14.6,5.1,28.7,11.2,41.5
								C233.7,325.1,244.1,334.4,252.3,336.7z"/>
							<path id="XMLID_99_" class="st6" d="M218.4,274.5c8.1,23,19.8,44.3,34.4,62.8"/>
						</g>
					</g>
					<g id="XMLID_11_">
						<g id="XMLID_12_">
							<path id="XMLID_98_" class="st1" d="M411.9,330.1c11.3-29.3,37.2-53.2,65.8-60.4C465.2,298.6,439.6,321.9,411.9,330.1z"/>
							<path id="XMLID_97_" class="st6" d="M470.8,275.7c-16.4,12.4-31.9,26.2-46.4,41.1c-17.6,18.1-34.2,38.3-55.7,50.3"/>
						</g>
						<g id="XMLID_13_">
							<path id="XMLID_96_" class="st1" d="M397.1,345c21.5-18.9,50.7-27.2,76.1-21.6C451.7,344.3,420.6,353.5,397.1,345z"/>
							<path id="XMLID_95_" class="st6" d="M465.2,325.9c-22.2,6.7-44.5,12.9-66.9,18.6"/>
						</g>
						<g id="XMLID_14_">
							<path id="XMLID_94_" class="st1" d="M381.3,362.8c23.9-14.7,55-13.8,73.7,2.2C429.6,378.7,398.4,377.7,381.3,362.8z"/>
							<path id="XMLID_93_" class="st6" d="M449.2,364.2c-23.8,3.1-47.7,2.5-70.7-1.8"/>
						</g>
						<g id="XMLID_15_">
							<path id="XMLID_92_" class="st1" d="M401.8,338.4c15.5-21.8,21-51.6,14.1-76.1C398.9,282.9,392.1,313.1,401.8,338.4z"/>
							<path id="XMLID_91_" class="st6" d="M414.6,269c-7.3,23.6-11.6,46.8-12.7,71"/>
						</g>
						<g id="XMLID_16_">
							<path id="XMLID_90_" class="st1" d="M384.7,355.2c9.4-25.4,7.5-54.3-4.9-75.5c-4.9,13.5-7.3,27.6-7.1,41.5
								C373,337.2,378.3,349.8,384.7,355.2z"/>
							<path id="XMLID_89_" class="st6" d="M380.2,285.9c-2.2,23.8-0.6,47.6,4.7,70"/>
						</g>
					</g>
					<g id="XMLID_112_">
						<path id="XMLID_88_" class="st1" d="M92.2,278.7c-11.5-35.2-43.6-63.6-80.9-71.7C27,237.5,55.4,261.7,92.2,278.7z"/>
						<path id="XMLID_87_" class="st1" d="M94.1,284.2C69,270,37.4,266.8,10,275.8C35.4,288.5,65.5,292,94.1,284.2z"/>
						<path id="XMLID_86_" class="st1" d="M101.1,291.8c-27.2-3.8-55.7,2.9-77.9,18.3C48.3,319.3,78.4,313.4,101.1,291.8z"/>
						<path id="XMLID_85_" class="st1" d="M109.6,308.5c-27-0.1-53.5,12.7-69.3,33.5c12,2.4,24.7,1,35.8-4
							C87,333,96.3,324.5,109.6,308.5z"/>
						<path id="XMLID_84_" class="st1" d="M128.6,336.4c-26.6-4.6-54.9,3.7-74.1,21.5c11.4,4.3,24.3,5,36,2
							C102.2,356.8,112.7,349.9,128.6,336.4z"/>
						<path id="XMLID_83_" class="st1" d="M99.9,280.4c-17.6-23.7-22.3-55.5-12.3-82.7c7.6,12.9,14.2,26.5,17.3,41
							C107.9,253.3,107.3,268.7,99.9,280.4z"/>
						<path id="XMLID_82_" class="st1" d="M110.6,303.2c-4.2-25.1,4.4-51.8,22.6-70C135.3,259.3,127.4,285.8,110.6,303.2z"/>
						<g id="XMLID_113_">
							<path id="XMLID_81_" class="st6" d="M19.4,213.4c53.4,34.2,95.2,85.1,117.3,143"/>
							<path id="XMLID_80_" class="st6" d="M89.2,210.2c6.5,26.4,10.5,53.3,11.8,80.4"/>
							<path id="XMLID_79_" class="st6" d="M129.2,243.5c-2.1,21.3-8.7,42.1-19.2,60.8"/>
							<path id="XMLID_78_" class="st6" d="M21.3,276.4c24.5,4.7,49.4,7.2,74.3,7.6"/>
							<path id="XMLID_77_" class="st6" d="M36,308.1c22.6-1.6,44.8-7.1,65.4-16.1"/>
							<path id="XMLID_76_" class="st6" d="M49.6,338.2c20.8-10.4,41.7-20.8,62.5-31.2"/>
							<path id="XMLID_75_" class="st6" d="M63.1,356.6c27.2-5.3,35.3-11.5,65.5-20.2"/>
						</g>
					</g>
				</g>
				<g id="XMLID_4_">
					<g id="XMLID_47_">
						<path id="XMLID_65_" class="st7" d="M235.4,306.7c0,0,2.4,21.6,5,23.3c4.7,3.1,59.2,10.3,59.2,10.3l-1.8,14.2
							c0,0-74.7,6.7-77.9,3c-5.5-6.5-15.2-37.7-15.2-37.7L235.4,306.7z"/>
						<path id="XMLID_64_" class="st8" d="M199.4,251.1l6-14.5c0,0,16.4,7.7,21.8,17.2C233,264,240,318,240,318s-28.9,6.7-34.2,3.8
							C200.5,319,199.4,251.1,199.4,251.1z"/>
					</g>
					<path id="XMLID_63_" class="st9" d="M153.4,183.9c-4.2-1.5-8.7-2.9-13.2-2.6s-9.2,2.7-10.7,6.7c-1.1,2.8-0.6,6.1-2.3,8.7
						c-1.7,2.4-4.9,3.4-8,3.6c-3.1,0.2-6.2-0.2-9.3,0.2c-9.5,1.3-16.2,11.5-13.1,20c1.2,3.4,3.8,6.6,3.2,10.1
						c-0.6,3.7-4.5,6.2-6.2,9.7c-2.1,4.6,0.4,10.2,4.6,13.4c4.2,3.1,9.7,4.3,15.1,5.1c7.3,1.1,14.9,1.6,22.2,0.1
						c7.3-1.5,14.2-5.4,17.9-11.4c1.7-2.6,2.7-5.6,4.6-8.1c4-5.1,11.1-7.1,16.7-10.8c6.1-4,10.6-11.8,7-17.8
						c-3.5-5.8-12.5-7.1-16.1-12.9c-1.5-2.4-1.8-5.2-2.8-7.8C162,187.5,159.7,186.2,153.4,183.9z"/>
					<g id="XMLID_48_">
						<path id="XMLID_62_" class="st10" d="M178.1,255.5c1.1,1.2,2.3,2.6,4.1,2.7c1.8,0.1,3.4-1.2,4.6-2.4
							c6.1-6.5,10.1-14.4,11.8-22.6c-1.5-0.9-3-1.7-4.3-2.5c-1.2-0.7-2.2-1.8-2.7-2.9c-0.4-0.9-0.5-1.8-0.4-2.8
							c0.9-8.1,1.6-12.6,4.5-20.8c-13.5-3-26.2-6.7-33.5-12.8c-0.9,3.8-1.9,11.1-4.2,18.4c-2.4,7.7-6.1,15.4-12.5,18.7
							C157.8,235.9,168.9,245.1,178.1,255.5z"/>
						<path id="XMLID_61_" class="st7" d="M191.1,225c-0.1,1,0,1.9,0.4,2.8c-8,9.7-25.8-3-33.7-17.9c2.2-7.3,3.3-14.7,4.2-18.4
							c7.3,6.1,20,9.7,33.5,12.8C192.7,212.5,191.9,217,191.1,225z"/>
					</g>
					<g id="XMLID_49_">
						<path id="XMLID_60_" class="st11" d="M213.3,342.1c-1.8,11.7,10.8,24.3,11.2,30.5c-26.8,0-82.8,1.6-111.4-2.2
							c-1.3-7.2,12.8-23.4,12.8-39.4c0-2.1-0.1-4.4-0.3-6.9c-0.5-7.1-1.5-15.6-2.7-24.3c-3.2-23.4-7.4-48.4-4.3-53.5
							c6.1-10.1,20.5-17,27.6-19.9c2.4-1,4-1.6,4.2-1.6c8.9,15.2,27.1,28.2,33.9,27.6c1.9-0.2,7.5-2.1,11.3-20.9
							c1.5,0.8,2.9,1.6,4.3,2.3c7.1,3.7,13.7,6.7,15.6,11.5c5.1,12.5,10,44,8.9,55.2c-1.1,11.3-5.6,19.9-8.8,31.3
							c-0.7,2.7-1.4,5.5-2,8.5C213.5,340.6,213.4,341.3,213.3,342.1z"/>
						<path id="XMLID_59_" class="st12" d="M224.5,372.5c-26.8,0-82.8,1.6-111.4-2.2c-1.3-7.2,12.8-23.4,12.8-39.4
							c0-2.1-0.1-4.4-0.3-6.9c-0.5-7.1-1.5-15.6-2.7-24.3c5.1,5.3,12.5-17.2,15.7-10.6c17.7,35.7,31.6,45.1,55.9,45.1
							c7.2,0,13.9-1,21.1-2.6c-0.7,2.7-1.4,5.5-2,8.5c-0.1,0.7-0.2,1.4-0.4,2.1C211.5,353.7,224.1,366.3,224.5,372.5z"/>
						<path id="XMLID_58_" class="st13" d="M199.9,233.5c-1.2,8.4-4.6,19.6-14.5,22.6c-13.4,4-32.8-21-39.2-30c2.4-1,4-1.6,4.2-1.6
							c8.9,15.2,27.1,28.2,33.9,27.6c1.9-0.2,7.5-2.1,11.3-20.9C197,232,198.5,232.8,199.9,233.5z"/>
					</g>
					<g id="XMLID_50_">
						<g id="XMLID_51_">
							<g id="XMLID_52_">
								<polygon id="XMLID_57_" class="st14" points="205.4,360 205.3,369.3 372,370.3 372.3,359.7 								"/>
							</g>
							<g id="XMLID_53_">
								<polygon id="XMLID_56_" class="st14" points="444.2,276.8 440.5,273 319.1,272.2 258.2,360.3 261.4,362.9 								"/>
								<polygon id="XMLID_55_" class="st15" points="321.5,275.5 261.4,362.9 376.1,363.4 444.2,276.8 								"/>
							</g>
						</g>
						<ellipse id="XMLID_54_" class="st16" cx="350.5" cy="324.6" rx="13.4" ry="6.7"/>
					</g>
					<g id="XMLID_114_">
						<g id="XMLID_115_">
							
								<ellipse id="XMLID_116_" transform="matrix(0.1832 -0.9831 0.9831 0.1832 -8.5451 372.6692)" class="st17" cx="220" cy="191.5" rx="18.7" ry="12.3"/>
						</g>
						<path id="XMLID_117_" class="st15" d="M232.1,161.9c-1.2,8.8-5.2,18.6-10.9,29.3c-2-8.8-3.3-19.6-5.1-30.3
							c-1.8-10.8-4.1-21.5-8.1-30.3c-0.9-1.9-1.9-3.8-2.9-5.5c2.4-0.2,4.8,0,7.1,0.6c3.6,1,6.9,2.8,9.7,5.3
							c4.6,4.1,7.6,9.6,9.4,15.4C232.7,151.2,233,156.4,232.1,161.9z"/>
						<g id="XMLID_118_">
							<path id="XMLID_119_" class="st10" d="M225.4,171c-0.1,1.7-0.2,3.5-0.3,5.3c-2.5,28.6-14.5,48.2-32.8,48.2
								c-26,0-42.8-29.1-42.8-57.6c0-28.1,17.2-48.5,37.4-46.1c11.6,1.3,20.1,5.2,26.2,10.9c4,3.8,6.9,8.3,8.8,13.5
								c2.2,5.8,3.3,12.4,3.6,19.4c0,0,0,0,0,0.1C225.5,166.7,225.5,168.8,225.4,171z"/>
							<path id="XMLID_120_" class="st7" d="M225.4,171c-0.8-2.8-1.9-5.5-3.5-7.9c-15.3,8-33.5,11.1-50.8,8.2
								c-3.3,2.7-6.5,5.4-9.7,8.1c0.1-13,0.2-21.8,5.3-28.1c4.8-5.9,12.7-8.1,20.2-9.1c8.5-1.1,17.1-1.1,25.5,0.2
								c3.2,0.5,6.6,1.2,9.4,2.8c2.2,5.8,3.3,12.4,3.6,19.4c0,0,0,0,0,0.1C225.5,166.7,225.5,168.8,225.4,171z"/>
						</g>
						<path id="XMLID_121_" class="st15" d="M229.1,153.4c-3.6,3-8,5.5-13,7.5c-14.3,5.8-32.8,7.7-47.2,7
							c-7.1,15.6-10,21.2-11.8,34.8c-6.9-6.5-12.6-18.4-14.3-27.8c-1.7-9.3-1.5-19.1,1.1-28.3c4.1-14.5,14.4-22.2,21.6-26
							c1.8-1,3.4-1.7,4.6-2.2c9.2-3.5,19.5-3.2,28.9-0.3c5.1,1.6,9.4,4.3,13.1,7.6c7.3,6.6,11.9,15.6,14.8,22.3
							C227.8,150,228.5,151.9,229.1,153.4z"/>
						<path id="XMLID_122_" class="st18" d="M232.1,161.9c-0.6-3.1-1.5-6.2-2.7-9.1c-0.7-1.7-1.6-3.3-2.6-4.8
							c-3.3-5.1-8-9.3-13.7-11.2c-1.6-2.3-3.4-4.4-5.2-6.2c-6.5-6.6-14.1-10.4-22.2-11.7c-6.7-1.1-13.7-0.5-20.2,1.7
							c1.8-1,3.4-1.7,4.6-2.2c9.2-3.5,19.5-3.2,28.9-0.3c5.1,1.6,9.4,4.3,13.1,7.6c3.6,1,6.9,2.8,9.7,5.3c4.6,4.1,7.6,9.6,9.4,15.4
							C232.7,151.2,233,156.4,232.1,161.9z"/>
						<g id="XMLID_123_">
							<g id="XMLID_124_">
								<path id="XMLID_125_" class="st19" d="M177.1,179.4c4.8-2.7,9.8-4,16.8-1.4"/>
								<path id="XMLID_126_" class="st19" d="M210,179.2c4.1-3.1,10.2-3.4,13.4,0"/>
								<path id="XMLID_127_" class="st20" d="M205,194.8c0.4,2.2,0.2,7-0.8,9.1"/>
								<ellipse id="XMLID_128_" class="st21" cx="188.8" cy="193.2" rx="2" ry="3.1"/>
								<ellipse id="XMLID_129_" class="st21" cx="214.7" cy="191.7" rx="2" ry="3.1"/>
							</g>
							<g id="XMLID_130_">
								<path id="XMLID_131_" class="st22" d="M202.6,208.2c0,0-0.4,0.8-1.1,1.8c-1.2,1.6-3.1,3.7-5.8,4.5h0
									c-1.1,0.4-2.4,0.5-3.8,0.2c-4-0.7-5.1-4.5-5.3-7.3c0-0.6,0-1.1,0-1.5c0-1.2,0.2-1.9,0.2-1.9
									C193.1,207.6,202.6,208.2,202.6,208.2z"/>
								<path id="XMLID_132_" class="st4" d="M202.6,208.2c0,0-0.4,0.8-1.1,1.8c-3.3,0-10-1.7-14.9-4.1c0-1.2,0.2-1.9,0.2-1.9
									C193.1,207.6,202.6,208.2,202.6,208.2z"/>
								<path id="XMLID_133_" class="st23" d="M195.6,214.6c-1.1,0.4-2.4,0.5-3.8,0.2c-4-0.7-5.1-4.5-5.3-7.3c2,0.2,3.9,1,5.4,2.2
									C193.6,210.9,194.9,212.6,195.6,214.6z"/>
							</g>
						</g>
						<g id="XMLID_134_">
							<path id="XMLID_135_" class="st24" d="M157.1,174.5c0,0-0.2-13.4,5.4-26.7c7-16.7,21.3-23.9,35.1-24.4
								c16.7-0.6,27.1,10.6,27.1,10.6s-5.4-9.6-16.1-12.3c-7-1.8-17.6-2.1-26.2,1.4c-8.8,3.6-19.7,13.4-23.7,23.9
								c-3.9,10.4-5.9,26.7-5.9,26.7L157.1,174.5z"/>
							<g id="XMLID_136_">
								
									<ellipse id="XMLID_137_" transform="matrix(0.9946 -0.1034 0.1034 0.9946 -18.796 17.0271)" class="st17" cx="154.8" cy="189.8" rx="13" ry="19.7"/>
								
									<ellipse id="XMLID_138_" transform="matrix(0.9889 -0.1486 0.1486 0.9889 -26.735 24.6156)" class="st24" cx="151.4" cy="191.2" rx="8.4" ry="14.9"/>
							</g>
							<g id="XMLID_139_">
								<ellipse id="XMLID_140_" class="st25" cx="197.7" cy="220.6" rx="6.9" ry="4.3"/>
								<path id="XMLID_141_" class="st26" d="M162.9,206.2c0,0,10.2,13.1,27.9,14.4"/>
							</g>
						</g>
					</g>
					<g id="XMLID_142_">
						<g id="XMLID_143_">
							<g id="XMLID_144_">
								<g id="XMLID_145_">
									<path id="XMLID_146_" class="st10" d="M205.3,335.1l-0.7,17.2c0,0-62.2,18.6-72.5,12.7c-5-2.9-9.7-18.7-13.2-34.2
										c-3.7-16.3-6-32.1-6-32.1l36.5-7.1c0,0,0,22.2,1.3,35.1c0.4,4.8,1.1,8.3,1.9,8.8C155.8,337.6,205.3,335.1,205.3,335.1z"/>
									<path id="XMLID_147_" class="st7" d="M150.7,326.6c-6.6,2.2-19.4,5.5-31.7,4.2c-3.7-16.3-6-32.1-6-32.1l36.5-7.1
										C149.4,291.6,149.5,313.8,150.7,326.6z"/>
								</g>
								<g id="XMLID_148_">
									<path id="XMLID_149_" class="st10" d="M203.5,335.3c9.2-2,24.9-6.7,31.4-8.4c4.6-1.2,16.6,5.1,19.8,10.9
										c1.4,2.6,2.7,17.1-2.1,15.6c-2.4-0.8-2-7-2.8-9.5c-0.6-2.1-2.6-4.1-5.5-5.8c2,5,1.9,9.3,1.7,14.6c0,1.2-0.1,2.4-0.7,3.4
										c-0.6,1-1.8,1.8-2.9,1.3c-1.1-0.5-1.5-1.8-1.7-3c-0.8-4.1-1.7-8.3-2.1-12.9c0.1,4.6,0,9.2-0.3,13.8c-0.2,3.5-2,5.4-4.1,4.8
										c-1-0.3-1.3-1.2-1.8-2.3c-0.6,2.2-2.3,4.7-4.3,3.8c-1.3-0.6-2.1-5.2-1.8-9.9c-4,2.5-8.5,3.5-13.7,3.8
										c-4.7,0.2-9.4-0.7-12.2-3.8C200.6,346.7,202.3,339.4,203.5,335.3z"/>
									<path id="XMLID_150_" class="st27" d="M232.6,357.1c0.3-3.7,0-7.5-1-11.1"/>
								</g>
							</g>
							<path id="XMLID_151_" class="st11" d="M145.3,255.5c-2.6-7.5-12.3-22.7-12.3-22.7s-14.8,6.2-20,16.6
								c-8.9,17.7-4.4,68.4-4.4,68.4c12,5,36,5.1,46.2,3.6C154.8,321.5,150.7,270.4,145.3,255.5z"/>
						</g>
						<path id="XMLID_152_" class="st28" d="M147.2,258.6c4,19.3,6.2,37.3,6.9,54.9"/>
					</g>
				</g>
				<rect id="XMLID_3_" x="39.7" y="367.2" class="st15" width="424" height="10.6"/>
			</g>
		</g>
	</g>
	<g>
	</g>
	<g>
	</g>
	<g>
	</g>
	<g>
	</g>
	<g>
	</g>
	<g>
	</g>
</g>
</svg>
